<svg id="Capa_1" enable-background="new 0 0 512 512" height="512" viewBox="0 0 512 512" width="512" xmlns="http://www.w3.org/2000/svg"><g><g><path d="m488.19 113.366c16.954 24.165 23.81 48.994 23.81 74.824v34.473l-90.899 68.559-26.062-160.63c0-35.159-24.978-65.814-53.875-81.558l75.449 17.424c28.68 6.622 54.671 22.813 71.577 46.908z" fill="#221f1d"/><path d="m23.81 113.366c-16.954 24.165-23.81 48.994-23.81 74.824v34.473l90.899 68.559 26.062-160.63c0-35.159 24.978-65.814 53.875-81.558l-75.45 17.423c-28.679 6.623-54.67 22.814-71.576 46.909z" fill="#3a3630"/></g><g><path d="m210.833 41.555c-66.238 0-119.934 53.696-119.934 119.934v129.733l57.702 105.372h107.399l20.464-182.846-20.464-172.193z" fill="#4a443f"/><path d="m301.167 41.555h-45.167v355.039h106.138l58.963-105.372v-129.733c0-66.238-53.696-119.934-119.934-119.934z" fill="#3a3630"/></g><g><g><path d="m167.423 186.729h29.973v29.975h-29.973z" fill="#262323"/></g><g><path d="m314.604 186.729h29.973v29.975h-29.973z" fill="#181513"/></g></g><g><g><path d="m147.862 340.625v96.872l106.774-1.116 8.265-109.284-6.9-94.593c-59.001.734-108.139 48.949-108.139 108.121z" fill="#3a3630"/><path d="m256 232.486v135.864 30.831l-1.365 47.323 109.503-9.007v-96.872c0-59.628-48.51-108.139-108.138-108.139z" fill="#2e2b27"/></g><g><path d="m147.862 437.343v33.102h108.138l15.165-27.879-15.165-43.385-17.894 5.874z" fill="#2e2b27"/><path d="m256 399.145v.036 71.264h108.138v-33.102l-92.973-32.288z" fill="#221f1d"/></g><g><path d="m242.396 289.281c-21.8 0-39.535 17.735-39.535 39.534 0 21.8 17.735 39.535 39.535 39.535h13.604l13.907-39.535-13.907-39.534z" fill="#262323"/><path d="m269.604 289.281h-13.604v79.069h13.604c21.8 0 39.535-17.735 39.535-39.535 0-21.799-17.735-39.534-39.535-39.534z" fill="#181513"/></g></g></g></svg>