<svg id="Capa_1" enable-background="new 0 0 512 512" height="512" viewBox="0 0 512 512" width="512" xmlns="http://www.w3.org/2000/svg"><g><g><g><g><path d="m216.121 78.725c-11.445 0-38.253 5.984-38.253 5.984-32.515-66.3-125.91-84.709-125.91-84.709l-12.075 38.131c-10.982 34.681-9.095 72.176 5.315 105.579l16.856 37.629c-5.879 10.075-33.649 95.048-33.649 130.486 0 32.579 9.679 64.042 27.99 90.988s44 47.53 74.291 59.525l125.314 37.391 11.645-185.822-11.645-235.182z" fill="#fbc276"/><path d="m449.946 181.339 16.773-37.44.083-.19c14.41-33.403 16.298-70.898 5.315-105.579l-12.075-38.13s-105.036 17.088-125.91 84.709c0 0-26.809-5.984-38.253-5.984h-39.879v421.005l125.315-37.392c30.29-11.995 55.979-32.579 74.29-59.525s27.99-58.409 27.99-90.988c0-35.438-27.77-120.411-33.649-130.486z" fill="#f8af5d"/></g><g><path d="m123.651 117.74c-5.598-57.42-71.693-117.74-71.693-117.74-48.553 106.411 7.923 178.621 10.03 181.257 12.686-27.435 41.09-56.499 61.663-63.517z" fill="#f8af5d"/><path d="m450.024 181.275c1.904-2.413 58.963-76.123 10.045-181.275 0 0-63.787 62.261-68.397 120.101 29.13 12.583 45.974 36.919 58.352 61.174z" fill="#f29057"/></g><g><path d="m147.796 183.786c-1.919 1.517-3.819 3.112-5.645 4.74-45.328 40.402-71.324 98.399-71.324 159.119 0 26.825 7.97 52.732 23.047 74.919s36.23 39.519 61.17 49.396l100.956 40.04 16.387-157.958-16.387-166.728c-30.583-27.36-75.401-29.449-108.204-3.528z" fill="#f2eef3"/><path d="m369.848 188.524-.684-.604c-17.556-15.418-40.088-22.791-63.449-20.759-18.107 1.575-36.249 8.607-49.714 20.154v324.685l100.957-39.6c24.912-9.866 46.079-26.978 61.211-49.485 15.05-22.385 23.005-48.413 23.005-75.27 0-60.72-25.997-118.717-71.326-159.121z" fill="#dddce6"/></g><g><path d="m243.604 338.833c-20.619 0-40.488 7.514-55.949 21.157-20.459 18.055-32.193 44.059-32.193 71.346v.944c0 24.098 14.718 45.752 37.125 54.621l63.413 25.099 14.945-64.234-14.945-108.933z" fill="#dddce6"/></g><path d="m324.481 359.99c-15.461-13.643-35.33-21.156-55.949-21.156h-12.532v173.166l63.523-25.109c22.42-8.862 37.15-30.523 37.15-54.631v-.924c0-27.287-11.734-53.291-32.192-71.346z" fill="#c6c6cf"/><g><path d="m233.176 338.757c-17.054 0-30.879 13.825-30.879 30.879 0 9.684 4.543 18.808 12.272 24.644l41.431 31.282 11.645-49.796-11.645-37.009z" fill="#4a443f"/></g><path d="m278.824 338.757h-22.824v86.805l41.431-31.282c7.729-5.836 12.272-14.959 12.272-24.644 0-17.054-13.825-30.879-30.879-30.879z" fill="#3a3630"/></g></g><g><g><g><path d="m198.772 329.479h-57.262v-57.266h27.431l29.831 29.834z" fill="#fbc276"/></g></g><g><path d="m168.941 272.213h29.832v29.834h-29.832z" fill="#4a443f"/></g><g><path d="m315.427 329.479h57.262v-57.266h-27.431l-29.831 29.834z" fill="#f8af5d"/></g><g><path d="m315.427 272.213h29.832v29.834h-29.832z" fill="#3a3630"/></g></g></g></svg>