<svg id="Capa_1" enable-background="new 0 0 512.062 512.062" height="512" viewBox="0 0 512.062 512.062" width="512" xmlns="http://www.w3.org/2000/svg"><g><g><path d="m168.906 114.178c-9.969-11.423-16.047-114.116-16.047-114.116l-16.167 16.58c-2.551 2.616-59.216 64.709-52.027 135.853v97.431l29.001-13.092z" fill="#fce4e4"/><path d="m375.371 16.642-16.167-16.58s13.181 102.731 3.243 114.116l35.95 122.657 30.001 9.112v-93.451c7.189-71.145-50.476-133.238-53.027-135.854z" fill="#fbced3"/></g><g><path d="m202.594 98.067s-31.706-20.147-49.735-98.005c-.578-2.495-45.678 74.505-13.116 143.755-16.37 17.074-51.511 59.355-61.182 116.129l91.805-61.286c2.035-11.915 44.066-17.807 85.666-17.679l14.954-34.136-14.954-48.692c-26.69 0-53.466-.028-53.438-.086z" fill="#4a443f"/><path d="m372.319 143.817c32.563-69.25-13.043-146.314-13.115-143.755-1.381 48.794-50.262 98.005-50.262 98.005.028.057-26.398.086-52.911.086v82.828c40.713.126 81.013 6.018 83.005 17.679l94.892 63.924c-9.011-58.101-44.986-101.43-61.609-118.767z" fill="#3a3630"/></g><g><path d="m219.678 157.082c-24.706 0-45.286 18.002-49.313 41.578l-91.805 61.285c-1.282 7.523-2.51 27.359-2.51 29.407 0 77.785 42.576 148.958 111.112 185.744l68.869 36.965 23.999-192.763-23.999-147.881c-9.031-8.861-22.73-14.335-36.353-14.335z" fill="#f2eef3"/><path d="m433.928 262.584-94.892-63.924c-4.027-23.576-24.608-41.578-49.314-41.578-13.623 0-24.661 5.473-33.691 14.336v340.644l68.869-36.965c68.537-36.786 111.112-107.959 111.112-185.744 0-1.996-1.037-20.02-2.084-26.769z" fill="#dddce6"/></g><g><path d="" fill="none" stroke="#000" stroke-miterlimit="10" stroke-width="30"/></g><g><g><path d="m179.13 244.661h30.01v30.012h-30.01z" fill="#262323"/></g><g><path d="m300.262 244.661h30.01v30.012h-30.01z" fill="#181513"/></g></g><g><g><path d="m240.743 265.261h16.456v36.746h-16.456z" fill="#dddce6"/></g><g><path d="m255.748 265.261h15.005v36.746h-15.005z" fill="#c6c6cf"/></g><g><g><path d="m256.031 432.087 7.219-68.241-7.219-73.27c-35.84 0-65.024 29.054-65.024 64.894v11.724c0 35.839 29.184 64.893 65.024 64.893z" fill="#dddce6"/><path d="m256.031 432.087v-141.512c35.84 0 65.024 29.054 65.024 64.894v11.724c0 35.84-29.184 64.894-65.024 64.894z" fill="#c6c6cf"/></g><path d="m223.214 322.892 32.818 25.124 6.211-28.721-6.481-28.714c-11.127.046-21.602 2.895-30.757 7.877-9.266 5.042-10.167 18.022-1.791 24.434z" fill="#262323"/><path d="m255.768 290.575c-.003.003-.004.004-.007.007l.269 57.435 33.177-24.748c8.561-6.386 7.593-19.434-1.754-24.602-9.394-5.196-20.2-8.137-31.685-8.092z" fill="#181513"/></g></g></g></svg>