<svg id="Capa_1" enable-background="new 0 0 512 512" height="512" viewBox="0 0 512 512" width="512" xmlns="http://www.w3.org/2000/svg"><g><g><path d="m202.737 49.472-40.677 8.252-90.284 161.41-22.786 66.378-.149.722c-4.167 23.164 1.591 47.21 15.797 65.975 14.206 18.764 35.789 30.83 59.214 33.104h132.148l14.672-162.464-14.672-178.726c-17.844 0-35.688 1.783-53.263 5.349z" fill="#f2eef3"/><path d="m463.158 286.234-24.024-67.1-89.194-161.41-40.677-8.252c-17.575-3.566-35.419-5.348-53.263-5.348v341.19h132.148c23.424-2.273 45.007-14.339 59.213-33.103 14.207-18.765 19.965-42.812 15.797-65.977z" fill="#dddce6"/></g><path d="m124.759 45.883c-18.572-5.897-38.66-.987-52.42 12.811l-72.339 72.542s22.635 76.209 72.865 87.897l50.843-48.751c11.942-13.096 20.496-29.125 22.431-46.495 4.295-38.545 15.92-66.164 15.92-66.164z" fill="#4a443f"/><path d="m387.241 45.883c18.572-5.897 38.66-.987 52.42 12.811l72.339 72.542s-22.635 76.209-72.865 87.897l-50.844-48.751c-11.942-13.096-20.496-29.125-22.431-46.495-4.295-38.545-15.92-66.164-15.92-66.164z" fill="#221f1d"/><g><g><g><path d="m140.017 230.826h30.115v30.117h-30.115z" fill="#262323"/></g><g><path d="m346.036 230.826h30.115v30.117h-30.115z" fill="#181513"/></g></g></g><g><g><path d="m239.042 257.906h-30.115v-59.711c0-3.142-2.029-4.613-3.239-5.209-1.21-.597-3.611-1.314-6.105.6l-26.28 20.156-18.328-23.896 26.28-20.156c10.932-8.384 25.399-9.806 37.755-3.712 12.356 6.095 20.031 18.44 20.031 32.217v59.711z" fill="#dddce6"/></g><g><path d="m303.073 257.906h-30.115v-59.711c0-13.777 7.676-26.122 20.031-32.217s26.822-4.673 37.755 3.712l26.28 20.156-18.328 23.896-26.28-20.156c-2.493-1.912-4.895-1.197-6.105-.6s-3.239 2.067-3.239 5.209v59.711z" fill="#c6c6cf"/></g></g><g><path d="m254.23 360.159c-15.14 0-58.824 85.737-58.824 85.737 16.824 14.554 38.332 22.593 60.594 22.668l10.048-50.523-10.048-57.532c-.629-.222-1.224-.35-1.77-.35z" fill="#3a3630"/><path d="m316.594 446.434s-44.017-80.067-60.594-85.925v108.055c.105 0 .209.007.314.007 22.073 0 43.481-7.862 60.28-22.137z" fill="#221f1d"/></g><g><path d="m198.803 262.497-88.301 120.419v1.21c0 39.985 32.414 72.399 72.399 72.399h.745c26.004 0 49.051-16.558 57.35-41.202l15.004-44.558 16.958-35.74-16.958-71.461z" fill="#4a443f"/><path d="m314.18 264.65-58.18-1.086v107.2l15.004 44.558c8.299 24.644 31.346 41.202 57.349 41.202h.747c39.981-.005 72.397-32.418 72.397-72.399v-1.212z" fill="#3a3630"/></g><g><path d="m220.857 249.064c-8.05 0-15.6 3.904-20.253 10.473-7.047 9.947-5.827 23.54 2.879 32.073l52.517 51.477 5.758-47.011-5.758-47.012z" fill="#262323"/></g><path d="m311.396 259.537c-4.653-6.569-12.203-10.473-20.253-10.473h-35.143v94.023l52.517-51.477c8.706-8.533 9.926-22.126 2.879-32.073z" fill="#181513"/></g></svg>