<svg id="Capa_1" enable-background="new 0 0 512 512" height="512" viewBox="0 0 512 512" width="512" xmlns="http://www.w3.org/2000/svg"><g><g><path d="m437.158 1.888 3.568 5.824c31.3 51.096 2.375 124.464 1.129 127.562l-67.621-42.645c-8.451-73.402 62.924-90.741 62.924-90.741z" fill="#dddce6"/><path d="m386.684 2.199c23.811-4.76 50.473-.311 50.473-.311s-71.375 17.339-62.924 90.741l-62.339-39.314c16.808-27.02 42.67-44.695 74.79-51.116z" fill="#f29057"/></g><g><path d="m74.842 1.888-3.568 5.824c-31.3 51.096-2.375 124.464-1.129 127.562l67.621-42.645c8.451-73.402-62.924-90.741-62.924-90.741z" fill="#f2eef3"/><path d="m125.316 2.199c-23.811-4.76-50.473-.311-50.473-.311s71.375 17.339 62.924 90.741l62.339-39.314c-16.808-27.02-42.67-44.695-74.79-51.116z" fill="#f8af5d"/></g><g><path d="m281.115 361.895 6.896-41.218-32.011-276.438h-41.857c-39.93 0-78.337 14.632-108.145 41.201-59.985 53.467-94.388 130.218-94.388 210.572 0 22.803 4.404 45.097 12.892 65.882h256.613z" fill="#fbc276"/></g><path d="m487.497 361.895c8.489-20.785 12.892-43.08 12.892-65.883 0-80.355-34.403-157.105-94.389-210.572-29.807-26.569-68.213-41.201-108.144-41.201h-41.856v317.655h231.497z" fill="#f8af5d"/><g><g><g><path d="m173.185 192.517h30.097v30.099h-30.097z" fill="#4a443f"/></g><g><path d="m308.718 192.517h30.097v30.099h-30.097z" fill="#3a3630"/></g></g></g><g><path d="m121.866 458.26 134.134 53.74 32.011-191.324-5.318-45.921c-8.775-.517-17.679-.786-26.694-.786-103.229 0-192.181 34.761-232.724 84.835 4.766 12.339 10.952 24.172 18.507 35.29 19.74 29.047 47.432 51.235 80.084 64.166z" fill="#fcce91"/></g><g><path d="m390.202 458.233c32.624-12.934 60.29-35.111 80.015-64.139 7.555-11.118 13.742-22.951 18.507-35.29-40.543-50.073-129.495-84.835-232.724-84.835v238.031z" fill="#fbc276"/></g><g><g><path d="m250.138 231.088c-35.84 0-64.894 29.184-64.894 65.024s29.054 65.024 64.894 65.024h5.862l15.074-65.024-15.074-65.024z" fill="#f8af5d"/><path d="m261.862 231.088h-5.862v130.047h5.862c35.84 0 64.894-29.184 64.894-65.024 0-35.839-29.054-65.023-64.894-65.023z" fill="#f29057"/></g><g><path d="m223.182 259.673 32.818 25.124 6.211-28.721-6.481-28.714c-11.127.046-21.602 2.895-30.757 7.877-9.265 5.042-10.166 18.022-1.791 24.434z" fill="#4a443f"/><path d="m255.737 227.356c-.003.003-.004.004-.007.007l.27 57.434 33.177-24.748c8.561-6.386 7.593-19.434-1.754-24.602-9.395-5.195-20.201-8.137-31.686-8.091z" fill="#3a3630"/></g></g></g></svg>