<svg id="Capa_1" enable-background="new 0 0 511.576 511.576" height="512" viewBox="0 0 511.576 511.576" width="512" xmlns="http://www.w3.org/2000/svg"><g><g><path d="m19.001 25.339c-31.654 26.289-17.024 139.39-4.211 170.486 14.188 34.434 33.429 52.206 34.241 52.946l80.322-61.349c-12.177-135.065-83.333-170.575-110.352-162.083z" fill="#fbced3"/><path d="m142.069 48.426c-19.79-16.076-42.891-28.942-68.662-38.239-12.752-4.599-26.973-3.65-39.019 2.607-5.981 3.107-11.2 7.406-15.386 12.545 27.019-8.492 98.175 27.018 110.353 162.083l72.585-55.439c-11.992-32.912-32.134-61.024-59.871-83.557z" fill="#3a3630"/></g><g><path d="m492.575 25.339c31.654 26.289 17.024 139.39 4.211 170.486-14.188 34.434-33.429 52.206-34.241 52.946l-80.322-61.349c12.177-135.065 83.333-170.575 110.352-162.083z" fill="#f8aaab"/><path d="m369.507 48.426c19.79-16.076 42.891-28.942 68.662-38.239 12.752-4.599 26.973-3.65 39.019 2.607 5.981 3.107 11.2 7.406 15.386 12.545-27.019-8.492-98.175 27.018-110.353 162.083l-72.585-55.439c11.991-32.912 32.134-61.024 59.871-83.557z" fill="#f2eef3"/></g><g><path d="m215.896 114.028h-33.223c-48.749 0-92.995 28.805-112.723 73.383l-33.138 74.884c-12.037 27.2-16.21 57.145-12.068 86.599 4.141 29.454 16.41 57.088 35.48 79.914l51.41 61.533h104.262z" fill="#4a443f"/><path d="m473.253 262.295-33.138-74.884c-19.727-44.579-63.974-73.384-112.723-73.384h-32.229v376.314h103.269l51.41-61.533c19.07-22.826 31.339-50.459 35.48-79.914 4.141-29.453-.032-59.399-12.069-86.599z" fill="#3a3630"/></g><g><path d="m167.478 406.856v88.779h88.098l8.436-47.955-8.436-40.824z" fill="#dddce6"/><path d="m255.576 406.856h87.104v88.779h-87.104z" fill="#c6c6cf"/></g><g><path d="m213.549 114.028v124.574c0 23.168-13.648 44.908-34.771 54.449l12.389 27.426c13.488-6.092 38.971-9.126 64.408-9.102l8.436-109.996-8.436-87.351z" fill="#dddce6"/><path d="m331.783 293.051c-21.122-9.541-34.77-31.281-34.77-54.449v-124.574h-41.437v197.347c25.241.023 50.436 3.057 63.819 9.102z" fill="#c6c6cf"/></g><g><path d="m229.753 282.701c-73.104 0-132.579 59.475-132.579 132.579v40.762c0 19.297 10.955 36.15 28.59 43.983 6.408 2.847 13.108 4.24 19.729 4.24 11.599 0 22.957-4.278 32.072-12.513l.303-.273 48.573-49.82 21.933-34.637 7.202-124.321z" fill="#f2eef3"/><path d="m247.273 359.444h-6.887c-26.476 0-47.939 21.463-47.939 47.939v20.448c0 17.77 21.589 26.552 33.993 13.829l14.209-14.574 6.623-6.131v-61.511z" fill="#fbced3"/><path d="m280.405 282.701h-24.829v96.67l21.669 40.625 6.154 20.333 48.604 50.862.59.562c9.115 8.236 20.471 12.513 32.072 12.513 6.621 0 13.321-1.393 19.729-4.24 17.635-7.833 28.59-24.686 28.59-43.983v-40.762c-.001-73.105-59.475-132.58-132.579-132.58z" fill="#dddce6"/></g><g><g><g><path d="m136.28 230.395h30.095v30.096h-30.095z" fill="#2e2b27"/></g><g><path d="m344.187 230.395h30.095v30.096h-30.095z" fill="#221f1d"/></g></g></g><path d="m264.012 359.444h6.887c26.476 0 47.939 21.463 47.939 47.939v20.448c0 17.77-21.589 26.552-33.993 13.829l-14.209-14.574-6.623-6.131v-61.511z" fill="#f8aaab"/><g><path d="m218.823 282.907c-5.348.015-10.496 2.029-14.435 5.647l-.262.241c-8.715 8.005-9.29 21.559-1.285 30.274l37.808 40.071v67.946h14.926l8.436-96.556-8.436-47.725z" fill="#3a3630"/></g><path d="m307.386 288.687c-4.007-3.855-9.355-6.001-14.915-5.986l-36.896.103v144.281h15.168v-68.37l37.227-39.733c8.206-8.527 7.944-22.091-.584-30.295z" fill="#221f1d"/></g></svg>