<svg id="Capa_1" enable-background="new 0 0 512 512" height="512" viewBox="0 0 512 512" width="512" xmlns="http://www.w3.org/2000/svg"><g><g><path d="m213.973 43.472c-46.388 5.82-80.505 21.021-84.708 39.267l-61.847 131.741c-6.559 29.152-7.775 54.909 7.612 85.858l44.34 89.186h136.63v-346.081z" fill="#985040"/><path d="m444.444 214.48-61.403-127.933c0-19.978-35.784-36.957-85.603-43.131l-41.438.027v346.081h136.641l44.34-89.186c15.353-30.88 14.238-55.746 7.463-85.858z" fill="#713c2e"/></g><g><circle cx="171.211" cy="223.595" fill="#4a443f" r="87.192"/><circle cx="340.789" cy="223.595" fill="#3a3630" r="87.192"/></g><path d="m124.759 43.382c-18.572-5.897-38.66-.987-52.42 12.811l-72.339 72.542s17.188 76.209 67.418 87.897l56.291-48.751c11.942-13.096 20.496-29.125 22.431-46.495 4.295-38.545 15.92-66.164 15.92-66.164z" fill="#3a3630"/><path d="m387.241 43.382c18.572-5.897 38.66-.987 52.42 12.811l72.339 72.542s-17.326 76.209-67.556 87.897l-56.152-48.751c-11.942-13.096-20.496-29.125-22.431-46.495-4.295-38.545-15.92-66.164-15.92-66.164z" fill="#221f1d"/><g><g><path d="m188.216 384.523v69.944h67.784l8.436-34.972-8.436-34.972z" fill="#2e2b27"/><path d="m256 384.523h67.38v69.945h-67.38z" fill="#221f1d"/></g><g><g><path d="m144.957 202.726h30.115v30.117h-30.115z" fill="#262323"/></g><g><path d="m336.928 202.726h30.115v30.117h-30.115z" fill="#181513"/></g></g></g><g><path d="m179.203 257.634 12.389 27.426c13.488-6.092 38.971-9.126 64.408-9.102l8.436-109.996-7.938-125.032c-.189 0-.377-.003-.567-.003-14.703 0-28.822.897-41.957 2.545v159.712c-.001 23.17-13.649 44.909-34.771 54.45z" fill="#dddce6"/></g><g><path d="m319.819 285.06 12.388-27.426c-21.122-9.541-34.77-31.281-34.77-54.449v-159.767c-12.988-1.61-26.927-2.487-41.437-2.49v235.03c25.241.024 50.436 3.057 63.819 9.102z" fill="#c6c6cf"/></g><g><path d="m216.493 249.392c-54.359 0-98.426 44.067-98.426 98.426v74.326c0 19.014 10.821 36.592 28.115 44.495 6.562 2.999 17.868 4.819 23.723 4.336 13.054-1.077 25.004-7.758 33.044-18.098l37.994-50.997 15.057-17.258v-135.23z" fill="#3a3630"/><path d="m295.507 249.392h-39.507v135.23l.166-.191 14.891 17.448 37.913 50.861c8.412 10.882 21.117 18.332 34.871 18.332 3.933 0 15.435-1.44 22.004-4.446 17.279-7.908 28.087-25.479 28.087-44.482v-74.327c.001-54.359-44.066-98.425-98.425-98.425z" fill="#2e2b27"/></g><g><path d="m248.281 249.392c-25.104 0-45.528 20.424-45.528 45.529 0 22.606 16.564 41.408 38.19 44.928v62.031h15.057l6.222-71.584-6.222-80.904z" fill="#262323"/></g><path d="m309.248 294.92c0-25.105-20.424-45.529-45.528-45.529h-7.72v152.488h15.057v-62.031c21.627-3.52 38.191-22.322 38.191-44.928z" fill="#181513"/></g></svg>