<svg id="Capa_1" enable-background="new 0 0 512 512" height="512" viewBox="0 0 512 512" width="512" xmlns="http://www.w3.org/2000/svg"><g><path d="m331.665 25.57 32.304-5.984c30.383-5.474 59.835 11.679 70.076 40.79l53.583 147.413 23.75 202.243c3.038 25.873-5.149 51.876-22.462 71.341-17.313 19.464-42.183 30.627-68.233 30.627-50.353 0-91.318-40.965-91.318-91.318v-80.697z" fill="#f29057"/><path d="m180.335 25.57-32.304-5.984c-30.383-5.474-59.835 11.679-70.076 40.79l-53.583 147.412-23.75 202.243c-3.038 25.873 5.149 51.876 22.462 71.341s42.183 30.628 68.233 30.628c50.353 0 91.318-40.965 91.318-91.318v-80.697z" fill="#f8af5d"/><path d="m254.647 370.693c-17.799 0-62.291 5.598-62.291 5.598 0 34.347 27.943 62.291 62.291 62.291.454 0 .902-.025 1.353-.034l9.645-38.79-9.645-29.055c-.465-.006-.919-.01-1.353-.01z" fill="#f8af5d"/><path d="m316.938 376.29s-42.344-5.327-60.938-5.587v67.843c33.723-.725 60.938-28.363 60.938-62.256z" fill="#f29057"/><path d="m121.95 134.05c0 7.77 39.934 207.618 39.934 207.618.893 29.573 25.229 53.357 55.015 53.357 15.947 0 29.04-6.818 39.102-17.691l9.645-164.182-9.646-213.152c-74.034 0-134.05 60.016-134.05 134.05z" fill="#fbc276"/><path d="m256 0v377.334c10.061 10.873 25.739 17.691 41.685 17.691 29.814 0 54.167-23.83 55.017-53.442 0 0 37.347-199.763 37.347-207.533.001-74.034-60.015-134.05-134.049-134.05z" fill="#f8af5d"/><path d="m249.483 271.889c-21.8 0-39.535 17.735-39.535 39.534v6.309l46.052 36.931 5.154-42.987-5.154-39.787z" fill="#3a3630"/><g><path d="m149.607 137.197h-30.01c0-33.718 27.432-61.15 61.151-61.15 19.12 0 36.784 8.695 48.464 23.855l-23.774 18.315c-5.953-7.727-14.952-12.159-24.69-12.159-17.171-.001-31.141 13.968-31.141 31.139z" fill="#f8af5d"/></g><g><path d="m392.403 137.197h-30.01c0-17.171-13.97-31.14-31.14-31.14-9.515 0-18.387 4.27-24.34 11.713l-23.438-18.743c11.679-14.605 29.093-22.981 47.777-22.981 33.719.001 61.151 27.433 61.151 61.151z" fill="#f29057"/></g><path d="m262.517 271.889h-6.517v82.775l46.052-36.931v-6.309c0-21.8-17.735-39.535-39.535-39.535z" fill="#221f1d"/><path d="m177.315 156.841h27.496v27.496h-27.496z" fill="#3a3630"/><path d="m304.483 156.841h27.496v27.496h-27.496z" fill="#221f1d"/></g></svg>