<svg id="Capa_1" enable-background="new 0 0 512 512" height="512" viewBox="0 0 512 512" width="512" xmlns="http://www.w3.org/2000/svg"><g><g><path d="m209.089 124.297s-5.59-26.843-37.65-63.465c-16.677-19.049-59.175-60.832-59.175-60.832s10.51 174.951 14.112 190.47c1.485 6.397 4.053 17.434 9.383 26.222v61.351c0 21.6 7.492 42.734 21.096 59.512l12.371 15.255v103.404c0 30.76 25.026 55.785 55.786 55.785h10.411c7.822 0 18.129-2.553 23.992-6.869l10.04-170.708-10.04-219.234c-16.646-.488-33.036 2.543-50.326 9.109z" fill="#985040"/><path d="m343.709 61.164c-29.95 38.366-39.025 63.473-39.025 63.473-15.812-5.866-30.64-9.017-45.271-9.448v389.942c5.862 4.316 10.028 6.869 17.85 6.869h10.412c30.761 0 55.786-25.025 55.786-55.785v-103.462l12.183-15.235c13.584-16.771 21.066-37.891 21.066-59.474v-66.836c9.851-8.68 23.026-211.208 23.026-211.208s-37.222 37.075-56.027 61.164z" fill="#713c2e"/></g><g><path d="m135.758 216.692v-5.486c2.665-24.478 18.542-49.546 43.588-65.423l-67.082-145.783s0 182.023 23.494 216.692z" fill="#4a443f"/><path d="m376.242 216.692v-5.486c-2.665-24.478-18.542-49.546-43.588-65.423l67.082-145.783s0 182.023-23.494 216.692z" fill="#221f1d"/></g><g><path d="m255.241 407.831c-20.26 0-36.684 16.424-36.684 36.684 0 13.224 7.117 25.424 18.628 31.933l15.85 8.962c1.979 1.119 4.179 1.679 6.379 1.679l10.04-39.629-10.04-39.629z" fill="#3a3630"/></g><path d="m263.588 407.831h-4.174v79.257c2.2 0 4.4-.56 6.379-1.679l15.85-8.962c11.511-6.509 18.628-18.709 18.628-31.933.001-20.259-16.423-36.683-36.683-36.683z" fill="#221f1d"/><g><g><g><path d="m173.48 223.318h55.377v53.619h-55.377z" fill="#713c2e"/></g><g><path d="m198.978 248.007h29.878v28.93h-29.878z" fill="#3a3630"/></g></g><g><g><path d="m283.143 223.318h55.377v53.619h-55.377z" fill="#643123"/></g><g><path d="m283.143 248.007h29.878v28.93h-29.878z" fill="#221f1d"/></g></g></g></g></svg>