<svg id="Capa_1" enable-background="new 0 0 512 512" height="512" viewBox="0 0 512 512" width="512" xmlns="http://www.w3.org/2000/svg"><g><g><path d="m254.647 370.693c-17.799 0-62.291 5.598-62.291 5.598 0 34.347 27.943 62.291 62.291 62.291.454 0 .902-.025 1.353-.034l9.645-38.79-9.645-29.055c-.465-.006-.919-.01-1.353-.01z" fill="#c6c6cf"/><path d="m316.938 376.29s-42.344-5.327-60.938-5.587v67.843c33.723-.725 60.938-28.363 60.938-62.256z" fill="#b2b4bc"/><g><path d="m329.135 24.496 27.262-4.91c30.385-5.476 59.839 11.679 70.077 40.793l30.007 82.556c14.367 39.525 13.203 82.835-3.278 121.95-19.158 45.469-39.083 122.315-25.21 230.197l2.176 16.918h-17.059c-50.353 0-91.319-40.965-91.319-91.318v-387.307z" fill="#95989e"/><path d="m182.865 24.496-27.262-4.91c-30.385-5.476-59.838 11.679-70.077 40.793l-30.007 82.556c-14.367 39.525-13.203 82.835 3.278 121.95 19.158 45.469 39.083 122.315 25.21 230.197l-2.176 16.918h17.059c50.353 0 91.319-40.965 91.319-91.318v-387.307z" fill="#b2b4bc"/></g><g><g><path d="m231.492 2.243c-62.329 11.517-109.542 66.145-109.542 131.807 0 5.037 16.779 90.777 28.584 150.481l48.21-37.657 32.748-43.3z" fill="#4a443f"/><path d="m256 0c-8.372 0-16.562.775-24.508 2.243v201.331l-80.957 80.957c6.407 32.403 11.35 57.137 11.35 57.137.893 29.573 25.229 53.357 55.015 53.357 15.947 0 29.04-6.818 39.102-17.691l9.645-164.182z" fill="#dddce6"/></g><g><path d="m280.508 2.243v201.331l39.998 50.202 42.512 32.308c11.054-59.735 27.032-146.951 27.032-152.034 0-65.662-47.213-120.29-109.542-131.807z" fill="#3a3630"/><path d="m280.508 2.243c-7.946-1.468-16.136-2.243-24.508-2.243v377.334c10.061 10.873 25.739 17.691 41.686 17.691 29.814 0 54.167-23.83 55.017-53.442 0 0 4.469-23.907 10.316-55.499l-82.51-82.51v-201.331z" fill="#c6c6cf"/></g></g><path d="m249.483 271.889c-21.8 0-39.535 17.735-39.535 39.534v6.309l46.052 36.931 5.154-42.987-5.154-39.787z" fill="#3a3630"/><path d="m262.517 271.889h-6.517v82.775l46.052-36.931v-6.309c0-21.8-17.735-39.535-39.535-39.535z" fill="#221f1d"/></g><g><g><path d="m176.554 116.108h29.878v28.93h-29.878z" fill="#262323"/></g><g><path d="m305.567 116.108h29.878v28.93h-29.878z" fill="#181513"/></g></g></g></svg>