<svg id="Capa_1" enable-background="new 0 0 512 512" height="512" viewBox="0 0 512 512" width="512" xmlns="http://www.w3.org/2000/svg"><g><path d="m0 19.218s5.352 113.565 77.316 204.421l50.828 30.257 36.826-45.26c.001 0-41.479-116.047-164.97-189.418z" fill="#fce4e4"/><path d="m512 19.218s-24.752 155.487-77.316 204.421l-50.828 30.257-36.826-45.26c-.001 0 41.479-116.047 164.97-189.418z" fill="#fbced3"/><g><path d="m126.896 239.792c-11.044 18.442-19.257 40.012-19.257 63.073v60.25c0 65.959 53.47 119.429 119.429 119.429h28.932l17.94-133.101-17.94-109.394z" fill="#f2eef3"/><path d="m403.987 295.593c-1.428-20.212-8.531-38.811-18.397-55.286l-129.59-.258v242.494h28.931c65.959 0 119.429-53.47 119.429-119.429v-60.25c0-2.46-.202-4.857-.373-7.271z" fill="#dddce6"/></g><g><path d="m256 304.24 6.931-75.237-6.931-49.119h-25.38c-6.023 0-11.941.441-17.732 1.278l-12.88-45.329c-90.104-111.885-200.008-116.615-200.008-116.615 117.673 85.046 148.704 163.436 155.596 186.204-29.112 22.448-47.887 55.163-47.953 94.743.077-3.718 2.235-57.55 63.08-57.55h22.387c34.191.001 62.146 27.604 62.89 61.625z" fill="#dddce6"/><path d="m512 19.218s-109.904 4.729-200.008 116.615l-12.88 45.329c-5.791-.836-11.71-1.278-17.732-1.278h-25.38v124.356c.744-34.127 28.791-61.624 63.094-61.624h22.46c32.076 0 58.833 26.708 62.775 57.758-1.5-37.637-19.989-73.41-47.925-94.952 6.892-22.768 37.923-101.158 155.596-186.204z" fill="#c6c6cf"/><path d="m107.643 300.166c-.003.133-.003.208-.003.208 0-.07.003-.138.003-.208z" fill="#fbced3"/></g><g><path d="m178.201 300.323h29.783v29.785h-29.783z" fill="#766e6e"/><path d="m304.592 300.323h29.783v29.785h-29.783z" fill="#4a443f"/></g><path d="m186.607 419.124v3.976c0 38.326 31.104 69.517 69.393 69.674l6.931-61.644-6.931-81.68c-38.29.157-69.393 31.349-69.393 69.674z" fill="#dddce6"/><path d="m256.288 492.782c38.422 0 69.682-31.259 69.682-69.682v-3.976c0-38.422-31.259-69.682-69.682-69.682-.097 0-.192.007-.288.007v143.324c.097.002.192.009.288.009z" fill="#c6c6cf"/><path d="m220.372 383.443 35.628 27.431 6.931-30.716-6.931-30.707c-12.34.051-23.93 3.326-33.974 9.024-9.321 5.289-10.146 18.429-1.654 24.968z" fill="#4a443f"/><path d="m256.007 349.443c-.003.003-.004.004-.007.007v61.423l36.432-27.025c8.678-6.438 7.972-19.692-1.383-25.099-10.313-5.961-22.286-9.356-35.042-9.306z" fill="#3a3630"/></g></svg>