<svg id="Capa_1" enable-background="new 0 0 512 512" height="512" viewBox="0 0 512 512" width="512" xmlns="http://www.w3.org/2000/svg"><g><path d="m217.528 38.183c-42.465 5.328-73.695 19.243-77.542 35.945l-72.741 67.469v172.454c0 20.348 16.496 36.844 36.844 36.844 7.985 0 15.37-2.548 21.404-6.864l5.436 10.933h125.071v-316.807z" fill="#4a443f"/><path d="m372.294 77.614c0-18.288-32.757-33.831-78.362-39.483l-37.932.026v316.807h125.083l5.155-10.369c6.023 4.289 13.384 6.819 21.341 6.819 20.348 0 36.844-16.496 36.844-36.844v-172.454z" fill="#3a3630"/><g><g><path d="m200.272 188.203-37.733-26.317c-19.27 1.876-41.875 6.606-48.512 11.85l-18.671-23.628c18.138-14.334 75.578-19.082 75.578-19.082l46.565 32.476z" fill="#f8af5d"/></g><g><path d="m311.46 188.203-17.228-24.701 46.565-32.476s57.44 4.749 75.578 19.082l-18.671 23.628c-6.637-5.244-29.238-9.974-48.512-11.85z" fill="#f29057"/></g><g><path d="m131.695 195.453h30.115v30.117h-30.115z" fill="#262323"/></g><g><path d="m350.712 195.453h30.115v30.117h-30.115z" fill="#181513"/></g></g><g><path d="m188.216 364.937v99.297h67.784l6.78-58.664-6.78-40.633z" fill="#f8af5d"/><path d="m256 364.937h67.38v99.296h-67.38z" fill="#f29057"/></g><g><path d="m245.946 242.118h-29.655c-54.359 0-98.426 44.067-98.426 98.426v84.369c0 19.02 10.806 36.655 28.133 44.5 9.844 4.457 21.416 4.446 22.013 4.423 16.35-.623 30.231-12.23 34.415-28.047l12.292-46.472c5.1-18.515 21.94-31.77 41.134-32.385.049.001.098.006.147.007z" fill="#fbc276"/><path d="m295.305 242.118h-30.063l-9.242 124.821c19.278.631 36.128 13.965 41.16 32.589l12.029 46.113c4.272 16.377 18.917 28.103 35.842 28.228.116.001 10.666 0 20.615-4.478 17.328-7.799 28.085-25.479 28.085-44.481v-84.366c0-54.359-44.067-98.426-98.426-98.426z" fill="#f8af5d"/></g><g><path d="m247.864 242.118c-26.483 0-48.029 21.545-48.029 48.029v7.114l41.221 33.889v38.948h14.944l6.78-67.573-6.78-60.407z" fill="#3a3630"/><path d="m264.151 242.118h-8.151v127.979h14.959v-40.351l41.221-32.264v-7.336c0-26.482-21.547-48.028-48.029-48.028z" fill="#221f1d"/></g><g><path d="m124.759 41.128c-18.572-5.897-38.66-.987-52.42 12.811l-72.339 72.542s17.188 76.209 67.418 87.897l56.291-48.751c11.942-13.096 20.496-29.125 22.431-46.495 4.295-38.545 15.92-66.164 15.92-66.164z" fill="#3a3630"/><path d="m387.241 41.128c18.572-5.897 38.66-.987 52.42 12.811l72.339 72.542s-17.326 76.209-67.556 87.897l-56.152-48.751c-11.942-13.096-20.496-29.125-22.431-46.495-4.295-38.545-15.92-66.164-15.92-66.164z" fill="#221f1d"/></g></g></svg>