<svg id="Capa_1" enable-background="new 0 0 512 512" height="512" viewBox="0 0 512 512" width="512" xmlns="http://www.w3.org/2000/svg"><g><g><path d="m76.28 156.19c-32.542 24.898-58.82 73.433-70.292 129.832-8.676 42.651-7.901 84.804 2.184 118.696 11.052 37.143 31.969 61.368 59.283 66.172 32.175 5.659 66.145-12.775 80.996-38.45z" fill="#c6c6cf"/><path d="m435.72 156.19c32.542 24.898 58.82 73.433 70.292 129.832 8.676 42.651 7.901 84.804-2.184 118.696-11.052 37.143-31.969 61.368-59.283 66.172-32.175 5.659-66.145-12.775-80.996-38.45z" fill="#b2b4bc"/></g><g><path d="m55.696 240.587c0 49.969 18.491 97.841 52.068 134.797h148.236l12.215-172.622-12.215-162.688c-110.467.115-200.304 90.02-200.304 200.513z" fill="#f2eef3"/><path d="m456.728 240.587c0-110.565-89.951-200.516-200.516-200.516-.071 0-.141.003-.212.003v335.311h148.66c33.577-36.956 52.068-84.828 52.068-134.798z" fill="#dddce6"/></g><g><g><path d="m185.428 232.932h30.055v45.582h-30.055z" fill="#4a443f"/></g><g><path d="m296.942 232.932h30.055v45.582h-30.055z" fill="#3a3630"/></g></g><g><path d="m205.169 269.487c-55.813 0-101.221 45.408-101.221 101.221s45.407 101.221 101.221 101.221h50.831l16.178-86.216-16.178-116.226z" fill="#dddce6"/></g><path d="m306.831 269.487h-50.831v202.442h50.831c55.813 0 101.221-45.408 101.221-101.221s-45.408-101.221-101.221-101.221z" fill="#c6c6cf"/><g><path d="m249.077 269.487c-23.571 0-42.747 19.176-42.747 42.747 0 11.668 7.89 22.662 24.121 33.609 9.86 6.651 25.549 13.879 25.549 13.879l8.436-47.373-8.436-42.862z" fill="#4a443f"/></g><path d="m263.347 269.487h-7.347v90.235s16.113-7.228 25.974-13.879c16.231-10.947 24.121-21.941 24.121-33.609 0-23.571-19.177-42.747-42.748-42.747z" fill="#3a3630"/></g></svg>