<svg id="Capa_1" enable-background="new 0 0 512 512" height="512" viewBox="0 0 512 512" width="512" xmlns="http://www.w3.org/2000/svg"><g><g><path d="m121.902 49.634c-18.568-5.53-38.819 1.195-50.392 16.732l-71.51 96.005s51.478 78.874 58.287 86.818c11.643 13.584 19.881 19.126 28.435 19.126 24.968 0 29.069-26.373 35.228-46.648l29.37-133.932.705.21 17.323-24.311z" fill="#f8af5d"/><path d="m390.098 49.634c18.568-5.53 38.819 1.195 50.392 16.732l71.51 96.005s-51.478 78.874-58.287 86.818c-11.643 13.584-19.881 19.126-28.435 19.126-24.968 0-29.069-26.373-35.228-46.648l-29.37-133.932-.705.21-17.323-24.311z" fill="#f29057"/><g><path d="m254.542 404.108c-19.176 0-67.107 6.03-67.107 6.03 0 37.003 30.104 67.107 67.107 67.107.489 0 .971-.027 1.458-.037l10.391-41.789-10.391-31.3c-.501-.007-.99-.011-1.458-.011z" fill="#f8af5d"/><path d="m321.649 410.138s-45.618-5.739-65.649-6.019v73.089c36.33-.781 65.649-30.556 65.649-67.07z" fill="#f29057"/><path d="m111.585 179.17c0 32.915 40.56 193.669 40.56 193.669 6.381 34.537 29.641 57.482 61.73 57.482 17.18 0 31.285-7.345 42.125-19.058l10.391-146.875-10.391-229.633c-79.758 0-144.415 64.657-144.415 144.415z" fill="#fbc276"/><path d="m256 34.755v376.508c10.839 11.714 27.729 19.058 44.909 19.058 32.119 0 56.223-26.202 61.401-59.703 0 0 38.106-152.446 38.106-191.448-.001-79.758-64.658-144.415-144.416-144.415z" fill="#f8af5d"/></g><g><g><g><path d="m187.677 188.783h30.056v30.058h-30.056z" fill="#4a443f"/></g><g><path d="m295.188 188.783h30.056v30.058h-30.056z" fill="#3a3630"/></g></g></g></g><g><path d="m244.238 309.209c-18.848 0-34.181 15.333-34.181 34.181 0 18.847 15.334 34.181 34.181 34.181h11.762l12.024-34.181-12.024-34.181z" fill="#4a443f"/><path d="m267.762 309.209h-11.762v68.362h11.762c18.848 0 34.181-15.334 34.181-34.181 0-18.848-15.334-34.181-34.181-34.181z" fill="#3a3630"/></g></g></svg>