<svg id="Capa_1" enable-background="new 0 0 512 512" height="512" viewBox="0 0 512 512" width="512" xmlns="http://www.w3.org/2000/svg"><g><g><g><path d="m202.343 0-87.76 100.601v69.502c0 17.194 5.297 33.97 15.171 48.045l4.83 6.886-19.522 165.891 141.036 15.389 20.366-178.034-20.366-228.28z" fill="#4a443f"/><path d="m397.362 102.024-84.925-102.024h-56.421l-.016 297.576.016 107.519 140.912-13.697-19.567-166.363 4.83-6.886c9.874-14.076 15.171-30.852 15.171-48.045z" fill="#3a3630"/></g><g><g><path d="m150.932 0-49.14 12.772c-24.46 6.357-44.339 23.265-54.539 46.388s-9.285 49.204 2.512 71.554l31.264 59.238 143.004-189.952z" fill="#3a3630"/><path d="m361.068 0 49.14 12.772c24.459 6.358 44.339 23.265 54.538 46.388 10.2 23.123 9.285 49.204-2.512 71.554l-31.264 59.238-143.003-189.952z" fill="#2e2b27"/></g><g><g><path d="m187.318 162.262h29.998v30h-29.998z" fill="#262323"/></g><g><path d="m294.621 162.262h29.998v30h-29.998z" fill="#181513"/></g></g></g><g><path d="m159.071 450.346v9.622c0 28.691 23.341 52.032 52.032 52.032h44.868l11.181-53.836-11.181-71.163z" fill="#4a443f"/><path d="m255.971 387.002v124.998h44.869c28.691 0 52.032-23.341 52.032-52.032v-9.622z" fill="#3a3630"/></g></g><g><g><path d="m193.089 321.116c-43.358 0-78.506 35.148-78.506 78.506v112.378h30.059v-13.352c0-18.126 14.694-32.821 32.821-32.821 43.358 0 78.506-35.148 78.506-78.506l.032-10.39-.032-55.816h-62.88z" fill="#3a3630"/><path d="m397.354 399.622c0-43.358-35.148-78.506-78.506-78.506h-62.88l.032 55.816-.032 10.39c0 43.358 35.148 78.506 78.506 78.506h.094c18.126 0 32.821 14.694 32.821 32.821v13.351h30.059z" fill="#2e2b27"/></g></g><g><g><path d="m241.994 297.568c-19.259 0-34.926 15.668-34.926 34.926v8.039l48.932 36.399 9.865-39.682-9.865-39.682z" fill="#262323"/></g><path d="m270.007 297.568h-14.007v79.364l48.933-36.399v-8.039c0-19.258-15.668-34.926-34.926-34.926z" fill="#181513"/></g></g></svg>