<svg id="Capa_1" enable-background="new 0 0 512 512" height="512" viewBox="0 0 512 512" width="512" xmlns="http://www.w3.org/2000/svg"><g><path d="m100.741 105.283-42.154 70.188c-32.775 54.571-58.307 109.047-58.091 172.707v62.648c-2.737 25.598 5.989 51.245 23.116 70.502 17.337 19.492 42.243 30.672 68.329 30.672 50.424 0 91.448-41.024 91.448-91.448v-307.736z" fill="#c6c6cf"/><path d="m411.259 105.283 42.154 70.188c32.775 54.571 58.307 109.048 58.092 172.707v62.648c2.737 25.598-5.989 51.245-23.116 70.502-17.338 19.492-42.244 30.672-68.33 30.672-50.424 0-91.448-41.024-91.448-91.448v-307.736z" fill="#b2b4bc"/><path d="m254.647 390.694c-17.799 0-62.291 5.598-62.291 5.598 0 34.347 27.943 62.291 62.291 62.291.454 0 .902-.025 1.353-.034l9.645-38.79-9.645-29.055c-.465-.006-.919-.01-1.353-.01z" fill="#f2eef3"/><path d="m316.938 396.291s-42.344-5.327-60.938-5.587v67.843c33.723-.724 60.938-28.362 60.938-62.256z" fill="#dddce6"/><path d="m121.95 154.051c0 7.77 39.934 207.618 39.934 207.618.893 29.573 25.229 53.357 55.015 53.357 15.947 0 29.04-6.818 39.102-17.691l9.645-164.182-9.646-213.152c-74.034 0-134.05 60.017-134.05 134.05z" fill="#dddce6"/><path d="m256 20.001v377.334c10.061 10.873 25.739 17.691 41.685 17.691 29.814 0 54.167-23.83 55.017-53.442 0 0 37.347-199.763 37.347-207.533.001-74.033-60.015-134.05-134.049-134.05z" fill="#c6c6cf"/><path d="m249.483 291.89c-21.8 0-39.535 17.735-39.535 39.534v6.309l46.052 36.932 5.154-42.987-5.154-39.788z" fill="#3a3630"/><path d="m262.517 291.89h-6.517v82.775l46.052-36.931v-6.309c0-21.8-17.735-39.535-39.535-39.535z" fill="#221f1d"/><g><g><path d="m187.359 178.825h30.053v36.086h-30.053z" fill="#3a3630"/></g><g><path d="m293.155 178.825h30.053v36.086h-30.053z" fill="#221f1d"/></g></g><g><path d="m197.923 0c-42.572 0-79.848 28.76-90.649 69.941l-8.195 31.25c-5.161 19.68-.993 40.206 11.435 56.313 12.428 16.108 31.224 25.347 51.571 25.347h93.915l14.083-95.796-14.083-87.055z" fill="#f2eef3"/></g><path d="m412.921 101.191-8.196-31.251c-10.8-41.18-48.076-69.94-90.648-69.94h-58.077v182.851h93.915c20.346 0 39.143-9.239 51.571-25.347s16.596-36.634 11.435-56.313z" fill="#dddce6"/></g></svg>