<svg id="Capa_1" enable-background="new 0 0 512 512" height="512" viewBox="0 0 512 512" width="512" xmlns="http://www.w3.org/2000/svg"><g><g><path d="m459.431 0c-21.214 0-42.024 5.964-61.54 14.279-37.521 15.985-72.374 70.158-72.374 70.158l111.461 94.919.95-.738c25.05-16.439 39.983-44.082 39.983-74.078v-104.54z" fill="#221f1d"/><path d="m52.569 0c21.214 0 42.024 5.964 61.54 14.279 37.521 15.985 72.374 70.158 72.374 70.158l-111.46 94.919-.95-.738c-25.05-16.439-39.983-44.082-39.983-74.078v-104.54z" fill="#3a3630"/></g><path d="m76.358 175.805-24.594 30.603c-33.38 41.538-51.764 93.761-51.764 147.049v72.793l65.463-40.01v125.76l70.9-75.154c12.2-12.932 26.835-20.036 43.499-21.114v-110.696z" fill="#3a3630"/><path d="m435.642 175.805 24.594 30.603c33.38 41.538 51.764 93.761 51.764 147.049v72.793l-65.463-40.01v125.76l-70.9-75.154c-12.2-12.932-26.835-20.036-43.499-21.114v-110.696z" fill="#221f1d"/><g><path d="m223.586 73.137c-87.73 0-158.85 71.119-158.85 158.85 0 29.944 15.006 57.896 39.965 74.44l50.042 33.171 101.257.046v-259.272l-15.719-7.235z" fill="#4a443f"/><path d="m288.414 73.137h-16.695l-15.719 6.593v259.914l103.589.047 48.664-33.168c24.407-16.635 39.011-44.262 39.011-73.799v-.738c0-87.729-71.119-158.849-158.85-158.849z" fill="#3a3630"/></g><g><g><path d="m172.251 190.716h29.988v29.99h-29.988z" fill="#262323"/></g><g><path d="m313.506 190.716h29.988v29.99h-29.988z" fill="#181513"/></g></g><g><g><path d="m191.701 415.899c11.073 24.555 35.706 41.725 64.299 41.924l9.459-35.027-9.459-46.397z" fill="#dddce6"/></g><path d="m256.501 376.092-.501.307v81.424c.167.001.333.009.501.009 28.806 0 53.662-17.234 64.8-41.933z" fill="#c6c6cf"/><path d="m240.281 73.137v131.354c0 17.92-9.014 34.639-23.986 44.487l-61.432 40.408v86.706c0 27.928 22.64 50.568 50.569 50.568 23.602 0 44.993-15.989 50.569-37.855 1.022-4.008 0-8.387 0-12.713l7.623-129.939-7.624-173.101c-6.817-.045-15.719.085-15.719.085z" fill="#f2eef3"/><path d="m271.719 204.491v-131.354s-6.026-.124-15.719-.085v303.04c0 4.337-1.027 8.696 0 12.713 5.586 21.85 26.977 37.855 50.569 37.855 27.928 0 50.569-22.64 50.569-50.568v-86.706l-61.432-40.408c-14.973-9.849-23.987-26.567-23.987-44.487z" fill="#dddce6"/><g><path d="m242.569 312.704c-18.467 0-33.49 15.023-33.49 33.49v7.709l46.921 34.902 9.459-38.05-9.459-38.051z" fill="#3a3630"/></g><path d="m269.431 312.704h-13.431v76.101l46.921-34.902v-7.709c0-18.467-15.024-33.49-33.49-33.49z" fill="#221f1d"/></g></g></svg>