<svg id="Capa_1" enable-background="new 0 0 512 512" height="512" viewBox="0 0 512 512" width="512" xmlns="http://www.w3.org/2000/svg"><g><path d="m45.745 0v120.916c0 34.043 19.25 67.382 47.297 86.459 3.897-9.499 49.195-68.76 53.999-77.759-17.361-13.603-29.429-90.179-101.296-129.616z" fill="#f2eef3"/><path d="m466.255 0v120.916c0 34.043-19.25 67.382-47.297 86.459-3.897-9.499-49.195-68.76-53.999-77.759 17.361-13.603 29.429-90.179 101.296-129.616z" fill="#dddce6"/><g><path d="m240.281 97.487h-19.376s-19.239-47.194-83.6-80.92c-21.802-11.423-46.788-16.567-71.4-16.567h-20.16c75.878 49.945 80.95 119.387 88.007 134.437-11.746 12.407-39.388 61.513-43.284 71.012-26.908 65.597-33.647 143.356-33.647 143.356 0 21.178 96.499 89.463 99.809 91.546h98.913v-329.333z" fill="#fbc276"/><path d="m378.232 134.422c7.023-15.042 33.542-98.661 88.023-134.422h-20.16c-24.612 0-49.38 5.57-71.399 16.567-51.655 25.799-83.6 80.92-83.6 80.92h-19.376l-16.176 13.775v329.09h96.222c22.864-13.804 103.414-82.572 103.414-91.546 0 0-6.741-77.758-33.648-143.355-3.898-9.5-31.548-58.619-43.3-71.029z" fill="#f8af5d"/></g><g><path d="m146.656 252.438h30.197v30.199h-30.197z" fill="#4a443f"/></g><g><path d="m335.335 252.438h30.197v30.199h-30.197z" fill="#3a3630"/></g><g><g><path d="m191.701 470.067c11.073 24.555 35.706 41.725 64.299 41.924l9.459-35.027-9.459-46.397z" fill="#dddce6"/></g><path d="m256.501 430.259-.501.308v81.424c.167.001.333.009.501.009 28.806 0 53.662-17.234 64.8-41.933z" fill="#c6c6cf"/><path d="m240.281 97.487v118.167c0 44.764-22.516 86.525-59.915 111.125l-25.503 16.775v86.706c0 27.928 22.64 50.568 50.569 50.568 23.602 0 44.993-15.989 50.569-37.855 1.022-4.008 0-8.387 0-12.713l7.623-129.939-7.624-202.872c-6.817-.045-15.719.038-15.719.038z" fill="#f2eef3"/><path d="m271.719 215.654v-118.167s-6.026-.076-15.719-.038v332.81c0 4.337-1.027 8.696 0 12.713 5.586 21.85 26.977 37.855 50.569 37.855 27.928 0 50.569-22.64 50.569-50.568v-86.706l-25.503-16.775c-37.399-24.599-59.916-66.361-59.916-111.124z" fill="#dddce6"/></g><g><path d="m234.788 362.297c-15.85 0-28.699 12.849-28.699 28.699 0 9.001 4.223 17.48 11.406 22.903l38.505 29.074 10.823-46.28-10.823-34.396z" fill="#4a443f"/></g><path d="m277.212 362.297h-21.212v80.675l38.505-29.073c7.183-5.424 11.406-13.903 11.406-22.903 0-15.85-12.849-28.699-28.699-28.699z" fill="#3a3630"/></g></svg>