<svg id="Capa_1" enable-background="new 0 0 512 512" height="512" viewBox="0 0 512 512" width="512" xmlns="http://www.w3.org/2000/svg"><g><g><path d="m195.438 85.002c-38.875 15.068-66.441 52.821-66.441 97.018v104.134l70.004 53.003h56.999v-254.155z" fill="#fbc276"/><path d="m316.562 85.002h-60.562v254.155h56.998l70.004-53.003v-104.134c0-44.197-27.566-81.95-66.44-97.018z" fill="#f8af5d"/></g><g><path d="m201.62 249.608c-4.157 6.458-7.06 13.842-8.341 21.836l-7.045 43.975c-2.062 12.872 2.403 25.973 12.175 34.951 7.336 6.74 17.082 10.239 27.043 10.239h30.548l13.818-51.253-13.818-71.902c-24.593.117-49.245 4.177-54.38 12.154z" fill="#918b8b"/><path d="m325.727 314.739-6.936-43.295c-1.334-8.326-4.428-15.99-8.865-22.636-5.138-7.695-29.502-11.469-53.925-11.353v123.154h31.31c13.036 0 25.264-6.48 32.583-17.548 5.494-8.309 7.408-18.486 5.833-28.322z" fill="#766e6e"/></g><g><path d="m233.016 78.001c-13.346 0-26.104 2.517-37.828 7.096v18.15c0 21.265 12.559 40.58 31.995 49.208 8.604 3.819 14.164 12.37 14.164 21.783v55.341h14.653l7.849-97.727-7.849-53.851z" fill="#fcce91"/><path d="m278.984 78.001h-22.984v151.579h15.352v-55.341c0-9.414 5.56-17.964 14.164-21.783 19.436-8.628 31.995-27.943 31.995-49.208v-17.874c-11.916-4.755-24.915-7.373-38.527-7.373z" fill="#fbc276"/></g><g><path d="m249.616 223.415c-20.633 0-39.006 11.041-49.039 27.904l40.769 31.295v29.541h14.654l5.335-51.811-5.335-36.929z" fill="#4a443f"/><path d="m262.455 223.415h-6.455v88.74h15.352v-30.117l40.103-30.783c-10.041-16.827-28.393-27.84-49-27.84z" fill="#3a3630"/></g><g><g><path d="m177.68 189.343h30.005v30.007h-30.005z" fill="#4a443f"/></g><g><path d="m305.013 189.343h30.005v30.007h-30.005z" fill="#3a3630"/></g></g><g><g><path d="m65.103 129.217c-20.313 22.266-36.211 47.724-47.21 75.128-5.398 13.449 3.391 65.868 29.441 96.173 30.573 35.566 79.684 48.493 79.684 48.493l13.521-30.807c8.458-19.273 12.747-39.717 12.747-60.777l-.058-103.178c0-31.127 18.808-58.021 45.311-70.397h-30.641c-39.026-.001-76.493 16.534-102.795 45.365z" fill="#f8af5d"/><path d="m22.358 208.352c0-5.599.339-11.118.979-16.545-15.262 32.69-23.337 68.567-23.337 105.368 0 46.209 22.574 89.655 60.385 116.219l29.333 20.606 39.375-89.718c-61.253-14.892-106.735-70.095-106.735-135.93z" fill="#4a443f"/></g><g><path d="m446.897 129.217c20.313 22.266 36.211 47.724 47.21 75.128 5.398 13.449-3.391 65.868-29.441 96.173-30.573 35.566-79.684 48.493-79.684 48.493l-13.521-30.807c-8.458-19.273-12.747-39.717-12.747-60.777l.058-103.178c0-31.127-18.808-58.021-45.311-70.397h30.641c39.026-.001 76.493 16.534 102.795 45.365z" fill="#f29057"/><path d="m489.642 208.352c0-5.599-.339-11.118-.979-16.545 15.262 32.69 23.337 68.567 23.337 105.368 0 46.209-22.574 89.655-60.385 116.219l-29.333 20.606-39.375-89.718c61.253-14.892 106.735-70.095 106.735-135.93z" fill="#3a3630"/></g></g></g></svg>