<svg id="Capa_1" enable-background="new 0 0 512 512" height="512" viewBox="0 0 512 512" width="512" xmlns="http://www.w3.org/2000/svg"><g><g><g><path d="m254.542 404.108c-19.176 0-67.107 6.03-67.107 6.03 0 37.003 30.104 67.107 67.107 67.107.489 0 .971-.027 1.458-.037l10.391-41.789-10.391-31.3c-.501-.007-.99-.011-1.458-.011z" fill="#4a443f"/><path d="m321.649 410.138s-45.618-5.739-65.649-6.019v73.089c36.33-.781 65.649-30.556 65.649-67.07z" fill="#3a3630"/><path d="m111.585 179.17c0 32.915 40.56 193.669 40.56 193.669 6.381 34.537 29.641 57.482 61.73 57.482 17.18 0 31.285-7.345 42.125-19.058l10.391-146.875-10.391-229.633c-79.758 0-144.415 64.657-144.415 144.415z" fill="#f2eef3"/><path d="m256 34.755v376.508c10.839 11.714 27.729 19.058 44.909 19.058 32.119 0 56.223-26.202 61.401-59.703 0 0 38.106-152.446 38.106-191.448-.001-79.758-64.658-144.415-144.416-144.415z" fill="#dddce6"/></g><g><g><g><path d="m302.188 208.785h30.056v30.058h-30.056z" fill="#181513"/></g></g></g><g><path d="m234.415 305.165c-16.128 0-29.202 13.074-29.202 29.202 0 9.159 4.297 17.787 11.606 23.305l39.181 29.585 11.013-47.092-11.013-35z" fill="#262323"/></g><path d="m277.585 305.165h-21.585v82.091l39.181-29.584c7.309-5.519 11.606-14.147 11.606-23.305 0-16.127-13.074-29.202-29.202-29.202z" fill="#181513"/></g><path d="m115.771 43.753-87.578 72.095c-28.226 23.236-36.33 63.056-19.423 95.472 22.28 42.718 54.393 100.522 54.393 100.522 13.183 21.763 45.42 19.674 55.673-3.613 5.595-12.707 9.203-20.65 11.29-27.522l-9.197-86.767c-4.843-38.285 6.404-76.865 31.062-106.55l21.038-26.392z" fill="#dddce6"/><path d="m396.229 43.753 87.578 72.095c28.226 23.236 36.33 63.056 19.423 95.472-22.28 42.718-54.393 100.522-54.393 100.522-13.183 21.763-45.42 19.674-55.673-3.613-5.595-12.707-8.351-18.026-10.438-24.897l8.345-89.391c4.843-38.285-6.404-76.865-31.062-106.55l-21.039-26.392z" fill="#c6c6cf"/><g><path d="m87.437 241.619-2.295-7.317c-8.925-28.443-38.25-45.5-66.757-38.829-4.932 1.155-9.666 2.957-14.123 5.352 1.233 3.561 2.723 7.07 4.509 10.494 20.796 39.872 50.154 92.881 53.973 99.767l6.916-6.064c17.944-15.741 24.923-40.628 17.777-63.403z" fill="#4a443f"/></g><g><path d="m435.56 149.02c.297 19.9 9.222 38.563 24.489 51.203 11.696 9.685 26.039 15.103 40.79 15.668.808-1.54 1.606-3.066 2.392-4.572 16.906-32.415 8.802-72.236-19.423-95.472l-24.141-19.873-2.851 2.693c-13.793 13.031-21.54 31.384-21.256 50.353z" fill="#3a3630"/></g><path d="m256 277.525h-73.107c-33.006 0-59.762-26.756-59.762-59.762v-3.831c0-34.266 27.778-62.045 62.045-62.045h8.78c34.266 0 62.045 27.778 62.045 62.045v63.593z" fill="#4a443f"/><g><path d="m180.677 208.785h30.056v30.058h-30.056z" fill="#262323"/></g></g></svg>