<svg id="Capa_1" enable-background="new 0 0 512 512" height="512" viewBox="0 0 512 512" width="512" xmlns="http://www.w3.org/2000/svg"><g><path d="m118.589 76.439c-.924-4.116 2.822-56.726-46.235-75.789 0 0-36.666 54.875-7.951 125.883 8.151-9.195 46.665-42.865 54.186-50.094z" fill="#fbced3"/><path d="m393.19 76.439c.924-4.116-2.712-56.726 46.345-75.789 0 0 36.556 54.875 7.841 125.883-8.151-9.195-46.665-42.865-54.186-50.094z" fill="#f9bbbc"/><g><path d="m209.557 46.164c-7.207 0-13.426.333-19.484 1.072-59.913-56.37-117.719-46.586-117.719-46.586 6.639 1.78 46.577 29.849 44.193 75.309-2.019 1.442-58.386 44.375-86.769 97.886-19.36 36.5-29.773 73.685-29.773 115.203 0 53.295 29.47 107.228 29.47 107.228l14.666-15.58c17.983 65.29 75.65 98.413 75.65 98.413l7.586-28.608 128.623 61.499 12.902-231.58-12.902-234.256z" fill="#f2eef3"/><path d="m482.221 173.844c-33.677-63.419-84.733-96.432-86.743-97.868-4.401-40.854 33.05-72.376 44.057-75.327 0 0-85.449-9.784-117.609 46.586-6.057-.739-12.277-1.072-19.484-1.072h-46.442v465.837l128.526-61.864 7.683 28.971s62.28-46.334 75.649-98.413l14.666 15.579s29.471-53.931 29.471-107.227c.001-41.517-10.396-78.711-29.774-115.202z" fill="#dddce6"/></g><g><g><g><path d="m174.433 193.535h29.644v29.646h-29.644z" fill="#4a443f"/></g><g><path d="m307.924 193.535h29.644v29.646h-29.644z" fill="#3a3630"/></g></g></g><g><g><path d="m195.987 302.088c-2.192 6.426-3.399 13.308-3.399 20.476 0 35.021 28.39 63.412 63.412 63.412v-83.888z" fill="#c6c6cf"/><path d="m316.013 302.088h-60.013v83.888c35.021 0 63.412-28.39 63.412-63.412 0-7.168-1.207-14.05-3.399-20.476z" fill="#b2b4bc"/></g><g><path d="m212.836 361.537c23.839 0 43.164-19.325 43.164-43.164v-32.805c0-12.336-12.097-21.04-23.794-17.119l-62.535 20.963v28.961c.001 23.839 19.326 43.164 43.165 43.164z" fill="#dddce6"/><path d="m299.164 362.277c-23.839 0-43.164-19.325-43.164-43.164v-32.805c0-12.336 12.097-21.04 23.794-17.119l62.535 20.963v28.961c-.001 23.839-19.326 43.164-43.165 43.164z" fill="#c6c6cf"/></g><g><path d="m222.943 295.932 33.057 25.124 5.972-28.721-5.972-28.713c-11.127.046-22.111 2.895-31.266 7.877-9.265 5.041-10.166 18.021-1.791 24.433z" fill="#4a443f"/><path d="m256 263.615c-.003.003.003.004 0 .007v57.435l32.938-24.748c8.561-6.386 7.593-19.434-1.754-24.602-9.395-5.196-19.699-8.138-31.184-8.092z" fill="#3a3630"/></g></g></g></svg>