<svg id="Capa_1" enable-background="new 0 0 512 512" height="512" viewBox="0 0 512 512" width="512" xmlns="http://www.w3.org/2000/svg"><g><g><path d="m255.417 17.186c-95.677 0-173.238 32.363-173.238 72.284 0 13.282-32.555 70.739-32.555 70.739l-24.297 75.497v92.593c0 28.843 10.315 56.808 29.045 78.743s44.734 36.503 73.221 41.021l56.894 9.025 71.513.178 16.792-220.04-16.792-220.037c-.195 0-.388-.003-.583-.003z" fill="#985040"/><path d="m455.868 164.463s-27.213-55.975-27.213-74.993c0-39.84-77.247-72.15-172.656-72.281v440.077l70.39.175 58.016-9.377c28.488-4.518 54.492-19.086 73.222-41.021s29.045-49.9 29.045-78.743v-93.377z" fill="#7c4438"/></g><g><g><path d="m148.707 246.522-23.118-19.3-15.646 18.742-18.032-21.344-23.005 19.435 21.441 25.38-14.574 17.457v41.969c0 33.264 27.063 60.327 60.327 60.327h9.818v-30.115h-9.818c-16.659 0-30.213-13.553-30.213-30.213v-31.05z" fill="#7c4438"/><path d="m443.093 244.056-23.005-19.435-17.768 21.031-15.385-18.43-23.118 19.3 42.817 51.289v31.05c0 16.659-13.554 30.213-30.213 30.213h-9.818v30.115h9.818c33.265 0 60.327-27.063 60.327-60.327v-41.969l-14.834-17.769z" fill="#713c2e"/></g></g><g><g><g><path d="m153.478 153.546h55.377v53.619h-55.377z" fill="#713c2e"/></g><g><path d="m178.977 178.235h29.878v28.93h-29.878z" fill="#3a3630"/></g></g><g><g><path d="m303.145 153.546h55.377v53.619h-55.377z" fill="#643123"/></g><g><path d="m303.145 178.235h29.878v28.93h-29.878z" fill="#221f1d"/></g></g></g><g><path d="m198.173 80.334v30.115c23.728 0 43.032 19.304 43.032 43.031v76.843h14.795l8.359-57.852-8.359-63.704c-13.391-17.279-34.325-28.433-57.827-28.433z" fill="#7c4438"/><path d="m256.262 109.099c-.086-.112-.175-.221-.262-.332v121.556h15.319v-76.843c0-23.727 19.304-43.031 43.032-43.031v-30.115c-23.654 0-44.71 11.296-58.089 28.765z" fill="#713c2e"/></g><g><path d="m162.372 426.784v13.008c0 31.853 25.914 57.767 57.767 57.767h35.861l11.884-51.915-11.884-51.915z" fill="#7c4438"/></g><path d="m256 393.729v103.829h35.861c31.853 0 57.767-25.914 57.767-57.767v-13.274z" fill="#713c2e"/><g><path d="m193.926 244.363-63.325 74.736v64.052c0 38.724 31.504 70.228 70.228 70.228 21.976 0 42.283-10.145 55.171-25.999l8.359-158.155-8.359-53.95c-23.97.208-46.56 10.779-62.074 29.088z" fill="#713c2e"/><path d="m320.149 245.122c-15.689-18.975-38.808-29.857-63.43-29.857-.24 0-.479.008-.719.01v212.104c13.183 15.441 33.265 25.999 55.171 25.999 38.724 0 70.228-31.504 70.228-70.228v-63.95z" fill="#643123"/></g><g><path d="m248.246 292.941c-25.613 0-46.45 20.837-46.45 46.45 0 12.679 8.574 24.625 26.211 36.521 10.715 7.226 27.993 15.081 27.993 15.081l11.884-47.024-11.884-51.028z" fill="#262323"/><path d="m263.754 292.941h-7.754v98.052s17.278-7.855 27.993-15.082c17.637-11.895 26.211-23.842 26.211-36.521 0-25.612-20.838-46.449-46.45-46.449z" fill="#181513"/></g><g><path d="m124.759 16.896c-18.572-5.897-38.66-.987-52.42 12.811l-72.339 72.542s17.188 76.209 67.418 87.897l56.291-48.751c11.941-13.095 20.495-29.125 22.431-46.495 4.295-38.545 15.92-66.164 15.92-66.164z" fill="#713c2e"/><path d="m387.241 16.896c18.572-5.897 38.66-.987 52.42 12.811l72.339 72.542s-17.326 76.209-67.556 87.897l-56.152-48.751c-11.942-13.095-20.496-29.125-22.432-46.495-4.295-38.545-15.92-66.164-15.92-66.164z" fill="#643123"/></g></g></svg>