<svg id="Capa_1" enable-background="new 0 0 512 512" height="512" viewBox="0 0 512 512" width="512" xmlns="http://www.w3.org/2000/svg"><g><path d="m186.943 25.422-43.116-15.284c-14.547-5.158-30.199-4.275-44.073 2.482-13.875 6.757-24.219 18.537-29.128 33.167l-52.778 157.302-17.567 255.976c-1.461 13.401 2.825 26.836 11.792 36.917 9.054 10.18 22.061 16.018 35.685 16.018h96.414c26.334 0 47.758-21.424 47.758-47.758v-18.59z" fill="#713c2e"/><path d="m325.057 25.422 43.116-15.284c14.547-5.158 30.199-4.275 44.073 2.483 13.875 6.757 24.219 18.537 29.128 33.167l52.778 157.301 17.568 255.976c1.461 13.401-2.825 26.836-11.792 36.917-9.055 10.18-22.062 16.018-35.686 16.018h-96.414c-26.334 0-47.758-21.424-47.758-47.758v-18.59z" fill="#643123"/><g><path d="m262.671 147.427-6.671-147.427c-74.034 0-133.156 60.016-133.156 134.05 0 1.083.754 5.896 2.052 13.377z" fill="#7c4438"/><path d="m387.173 147.427c1.209-7.481 1.911-12.294 1.911-13.377 0-74.034-59.05-134.05-133.084-134.05v147.427z" fill="#713c2e"/></g><g><g><path d="m191.701 470.067c11.073 24.555 35.706 41.725 64.299 41.924l9.459-35.027-9.459-46.397z" fill="#f2eef3"/></g><path d="m256.501 430.259-.501.308v81.424c.167.001.333.009.501.009 28.806 0 53.662-17.234 64.8-41.933z" fill="#dddce6"/></g><g><path d="m262.455 253.477-3.993-122.61c-.206-6.317-.629-12.458-2.462-18.204-8.621-27.025-34.59-46.415-64.318-46.394-.704.001-1.409.001-2.115.002-41.005.03-72.296 35.539-65.907 76.044l31.17 198.74 101.17-93.737z" fill="#985040"/><path d="m262.455 253.477-6.455-6.16-101.171 93.738.392 2.497v86.706c0 27.928 22.64 50.568 50.569 50.568 23.602 0 44.635-15.989 50.211-37.855 1.022-4.008.358-8.387.358-12.713l7.623-129.939z" fill="#dddce6"/></g><g><path d="m256 441.993c.094.328-.101.655 0 .98 6.429 20.697 27.431 35.595 50.211 35.595 27.928 0 50.569-22.64 50.569-50.568v-84.521l-100.78-96.161z" fill="#c6c6cf"/><path d="m388.341 142.316c6.389-40.504-24.902-78.274-65.907-78.304-.706 0-1.411-.001-2.115-.002-30.531-.022-56.399 20.487-64.318 48.654v134.654l100.779 96.161v-2.185z" fill="#7c4438"/></g><g><path d="m242.569 366.872c-5.139 0-10.011 1.163-14.367 3.24-16.43 7.834-19.261 30.125-5.786 42.362l33.584 30.499 9.459-38.05-9.459-38.051z" fill="#3a3630"/></g><path d="m269.431 366.872h-13.431v76.101l33.564-30.481c13.831-12.561 10.33-35.385-6.798-42.849-4.088-1.783-8.598-2.771-13.335-2.771z" fill="#221f1d"/><g><g><path d="m186.555 156.111h29.878v28.93h-29.878z" fill="#3a3630"/></g><g><path d="m295.567 156.111h29.878v28.93h-29.878z" fill="#221f1d"/></g></g></g></svg>