<svg id="Capa_1" enable-background="new 0 0 512 512" height="512" viewBox="0 0 512 512" width="512" xmlns="http://www.w3.org/2000/svg"><g><g><path d="m185.34 15.183-145.114 170.056v109.463c0 23.44 7.833 46.61 22.057 65.241l62.751 75.93 130.966.014 25.313-187.439-25.313-233.265z" fill="#fbc276"/><path d="m326.66 15.183h-70.66v420.704l135.233.015 58.229-75.875c14.329-18.673 22.221-41.92 22.221-65.456v-109.332z" fill="#f8af5d"/></g><g><path d="m109.029 15.183-48.389 12.578c-24.086 6.26-43.66 22.909-53.705 45.678-10.044 22.77-9.143 48.452 2.474 70.462l30.786 58.333 145.145-187.051z" fill="#f8af5d"/><path d="m402.971 15.183 48.389 12.578c24.086 6.26 43.66 22.909 53.705 45.679 10.044 22.77 9.143 48.452-2.474 70.462l-30.908 58.333-145.023-187.052z" fill="#f29057"/></g><g><g><g><g><path d="m197.304 288.712h-80.907v-35.861c0-24.881 20.17-45.051 45.051-45.051h6.024l29.832 29.834z" fill="#f8af5d"/></g></g><g><path d="m167.472 207.8h29.832v29.834h-29.832z" fill="#4a443f"/></g></g><g><g><g><path d="m314.696 288.712h80.907v-35.861c0-24.881-20.17-45.051-45.051-45.051h-6.024l-29.832 29.834z" fill="#f29057"/></g></g><g><path d="m314.696 207.8h29.832v29.834h-29.832z" fill="#4a443f"/></g></g></g><g><g><path d="m188.216 387.885v99.297h67.784l6.78-58.664-6.78-40.633z" fill="#dddce6"/><path d="m256 387.885h67.38v99.296h-67.38z" fill="#c6c6cf"/></g><g><path d="m245.946 265.066h-29.655c-54.359 0-98.426 44.067-98.426 98.426v84.369c0 19.02 10.806 36.655 28.133 44.5 9.844 4.457 21.416 4.446 22.013 4.423 16.35-.623 30.231-12.23 34.415-28.047l12.292-46.472c5.1-18.515 21.94-31.77 41.134-32.385.049.001.098.006.147.007z" fill="#f2eef3"/><path d="m295.305 265.066h-30.063l-9.242 124.821c19.278.631 36.128 13.965 41.16 32.589l12.029 46.113c4.272 16.377 18.917 28.103 35.842 28.228.116.001 10.666 0 20.615-4.478 17.328-7.799 28.085-25.479 28.085-44.481v-84.366c0-54.359-44.067-98.426-98.426-98.426z" fill="#dddce6"/></g><g><path d="m247.864 265.066c-26.483 0-48.029 21.545-48.029 48.029v7.114l41.221 33.889v38.948h14.944l6.78-67.573-6.78-60.407z" fill="#3a3630"/><path d="m264.151 265.066h-8.151v127.979h14.959v-40.351l41.221-32.264v-7.336c0-26.482-21.547-48.028-48.029-48.028z" fill="#221f1d"/></g></g><g><g><path d="m87.526 184.804c20.1-28.14 54.966-41.777 88.824-34.735l25.293 5.259v-25.765h29.988v62.63l-61.386-12.764c-22.226-4.619-45.12 4.331-58.316 22.806z" fill="#f8af5d"/></g><g><path d="m400.071 202.234c-13.197-18.476-36.086-27.427-58.315-22.806l-61.387 12.764v-62.63h29.988v25.765l25.294-5.259c33.858-7.04 68.723 6.595 88.823 34.735z" fill="#f29057"/></g></g></g></svg>