<svg id="Capa_1" enable-background="new 0 0 512 512" height="512" viewBox="0 0 512 512" width="512" xmlns="http://www.w3.org/2000/svg"><g><g><path d="m207.658 0-57.519 18.041c-35.433 11.114-59.24 43.531-59.24 80.667v99.328c1.904-31.641 15.782-154.378 116.759-198.036z" fill="#fbced3"/><path d="m90.899 198.036v50.656h30.123l52.01-147.165v-31.991l34.626-69.536c-100.977 43.658-114.855 166.395-116.759 198.036z" fill="#dddce6"/></g><g><path d="m304.342 0 57.519 18.041c35.433 11.114 59.24 43.531 59.24 80.667v99.328c-1.904-31.641-15.782-154.378-116.759-198.036z" fill="#f8aaab"/><path d="m421.101 198.036v50.656h-30.123l-52.01-147.165v-31.991l-34.626-69.536c100.977 43.658 114.855 166.395 116.759 198.036z" fill="#c6c6cf"/></g><g><g><path d="m210.833 83.11c-66.238 0-119.934 53.696-119.934 119.934v129.733l57.702 105.372h107.399l20.464-182.846-20.464-172.193z" fill="#f2eef3"/><path d="m301.167 83.11h-45.167v355.039h106.138l58.963-105.372v-129.733c0-66.238-53.696-119.934-119.934-119.934z" fill="#dddce6"/></g><g><g><path d="m167.423 228.284h29.973v29.975h-29.973z" fill="#3a3630"/></g><g><path d="m314.604 228.284h29.973v29.975h-29.973z" fill="#221f1d"/></g></g><g><g><path d="m147.862 382.179v96.872l106.774-1.116 8.265-109.284-6.9-94.593c-59.001.735-108.139 48.95-108.139 108.121z" fill="#dddce6"/><path d="m256 274.041v135.864 30.831l-1.365 47.323 109.503-9.007v-96.872c0-59.628-48.51-108.139-108.138-108.139z" fill="#c6c6cf"/></g><g><path d="m231.393 418.325-83.531 60.727 106.774-1.116 5.113-66.454-3.749-1.156c-8.842 0-17.456 2.8-24.607 7.999z" fill="#fbced3"/><path d="m256 410.326v30.41l-1.365 47.323 109.503-9.007-83.531-60.727c-7.151-5.199-15.765-7.999-24.607-7.999z" fill="#f9bbbc"/></g><g><path d="m207.449 457.578-59.587 21.32c0 18.282 14.82 33.102 33.102 33.102h75.036l15.165-27.88-9.278-26.542z" fill="#f2eef3"/><path d="m302.749 457.578h-46.749v54.422h75.036c18.282 0 33.102-14.82 33.102-33.102z" fill="#dddce6"/></g><g><path d="m261.994 457.885-5.994-17.149-17.894 5.874-31.514 11.275z" fill="#4a443f"/><path d="m303.632 457.885-32.467-11.275-15.165-5.911v17.186z" fill="#3a3630"/></g><g><path d="m242.396 331.256c-21.8 0-39.535 17.735-39.535 39.534 0 21.8 17.735 39.535 39.535 39.535h13.604l13.907-39.535-13.907-39.534z" fill="#262323"/><path d="m269.604 331.256h-13.604v79.069h13.604c21.8 0 39.535-17.735 39.535-39.535 0-21.799-17.735-39.534-39.535-39.534z" fill="#181513"/></g></g></g></g></svg>