<svg id="Capa_1" enable-background="new 0 0 512 512" height="512" viewBox="0 0 512 512" width="512" xmlns="http://www.w3.org/2000/svg"><g><path d="m107.936 97.892c-.588-2.982-19.178-45.014-26.937-62.483-2.933-6.604-7.192-12.552-12.586-17.36-14.079-12.55-29.881-17.926-30.095-18.049v110.145c0 13.423 2.443 25.031 7.762 36.466 2.626-3.287 56.819-44.234 61.856-48.719z" fill="#fbced3"/><path d="m404.244 97.892c.588-2.982 19.178-45.014 26.937-62.483 2.933-6.604 7.192-12.552 12.586-17.36 14.079-12.55 29.881-17.926 30.095-18.049v110.145c0 13.423-2.443 25.031-7.762 36.466-2.626-3.287-56.819-44.234-61.856-48.719z" fill="#f9bbbc"/><g><path d="m173.141 55.732c-13.536-17.054-30.968-31.1-50.513-40.687-20.067-9.843-42.488-15.045-64.839-15.045h-19.471c.263.152 52.96 37.475 64.52 98.015-86.202 51.636-104.241 125.973-99.329 194.962l2.038 28.622 26.963-21.944c-3.334 32.135-3.83 76.74 13.005 105.71l12.615 21.707 24.575-40.472 28.842 43.816h37.642c27.423 43.641 101.713 79.013 106.901 81.446l21.022-269.319-21.022-199.174c-27.905-.003-55.809 4.118-82.949 12.363z" fill="#f2eef3"/><path d="m409.342 98.015c6.926-52.536 64.257-97.863 64.52-98.015h-19.471c-22.351 0-44.772 5.202-64.84 15.045-19.549 9.589-36.985 23.639-50.522 40.698-27.137-8.247-55.038-12.372-82.939-12.375v468.493c.189.089.296.138.296.138s75.402-39.192 106.53-81.584h37.716l28.842-43.816 24.576 40.471 12.615-21.707c16.835-28.97 16.339-73.575 13.005-105.71l26.963 21.944 2.038-28.622c4.886-68.627-21.724-153.037-99.329-194.96z" fill="#dddce6"/></g><g><g><path d="m170.914 229.329h29.832v29.834h-29.832z" fill="#4a443f"/></g><g><path d="m311.435 229.329h29.832v29.834h-29.832z" fill="#3a3630"/></g></g><g><path d="m255.541 370.139c-17.602 0-66.512 46.262-66.512 46.262 20.203 13.774 43.357 20.661 66.512 20.661.183 0 .366-.009.549-.01l11.775-39.056-11.775-27.835c-.184-.01-.371-.022-.549-.022z" fill="#c6c6cf"/><path d="m256.09 370.161v66.891c22.971-.108 45.92-6.986 65.963-20.651 0 0-47.92-45.323-65.963-46.24z" fill="#b2b4bc"/></g><g><path d="m217.756 283.991c-59.919 0-108.666 48.684-108.666 108.523v119.486h14.916c26.079 0 49.781-15.154 60.727-38.824l30.932-66.894c1.067-2.307 2.412-4.535 3.981-6.672 8.954-12.198 22.699-18.296 36.445-18.296l21.022-34.098-21.022-63.224h-38.335z" fill="#dddce6"/><path d="m294.424 283.991h-38.334v97.323c13.745 0 27.49 6.099 36.444 18.297 1.569 2.137 2.914 4.365 3.981 6.672l30.932 66.894c10.906 23.583 34.742 38.823 60.727 38.823h14.916v-119.059c0-60.075-48.748-108.95-108.666-108.95z" fill="#c6c6cf"/></g><g><path d="m241.019 280.46c-18.441 0-33.443 14.948-33.443 33.322v13.49l48.515 30.316 7.962-38.564-7.962-38.564z" fill="#4a443f"/><path d="m271.162 280.46h-15.072v77.128l48.515-29.367v-14.44c0-18.373-15.002-33.321-33.443-33.321z" fill="#3a3630"/></g></g></svg>