<svg id="Capa_1" enable-background="new 0 0 512 512" height="512" viewBox="0 0 512 512" width="512" xmlns="http://www.w3.org/2000/svg"><g><path d="m110.625 35.964-110.625 122.825s25.986 81.962 33.304 95.516c8.938 16.556 26.191 26.916 45.005 27.028l47.199.281-9.534-89.951c-5.021-39.69 6.639-79.685 32.201-110.46l21.81-27.36z" fill="#3a3630"/><path d="m401.375 35.964 110.625 122.825s-25.986 81.962-33.304 95.516c-8.938 16.556-26.191 26.916-45.005 27.028l-47.199.281 9.534-89.951c5.021-39.69-6.639-79.685-32.201-110.46l-21.81-27.36z" fill="#221f1d"/><g><g><path d="m254.489 409.543c-19.879 0-69.569 6.252-69.569 6.252 0 38.361 31.209 69.569 69.569 69.569.507 0 1.007-.028 1.511-.038l10.772-43.322-10.772-32.449c-.519-.008-1.026-.012-1.511-.012z" fill="#3a3630"/><path d="m324.058 415.794s-47.292-5.95-68.058-6.24v75.771c37.663-.809 68.058-31.677 68.058-69.531z" fill="#221f1d"/><path d="m106.286 176.35c0 34.123 42.048 200.776 42.048 200.776 6.615 35.805 30.729 59.592 63.995 59.592 17.81 0 32.434-7.614 43.671-19.758l10.772-152.265-10.772-238.059c-82.685 0-149.714 67.029-149.714 149.714z" fill="#4a443f"/><path d="m256 26.636v390.324c11.237 12.143 28.746 19.758 46.557 19.758 33.298 0 58.286-27.163 63.654-61.894 0 0 39.504-158.041 39.504-198.473-.001-82.686-67.03-149.715-149.715-149.715z" fill="#3a3630"/></g><g><path d="m233.623 306.97c-16.72 0-30.274 13.554-30.274 30.274 0 9.495 4.454 18.439 12.032 24.161l40.619 30.668 11.417-48.82-11.417-36.283z" fill="#262323"/></g><path d="m278.377 306.97h-22.377v85.104l40.619-30.669c7.577-5.721 12.032-14.666 12.032-24.161 0-16.72-13.554-30.274-30.274-30.274z" fill="#181513"/></g><g><g><g><path d="m303.883 207.052h31.159v31.161h-31.159z" fill="#181513"/></g></g></g><g><path d="m177.913 207.052h31.159v31.161h-31.159z" fill="#262323"/></g></g></svg>