<svg id="Capa_1" enable-background="new 0 0 512 512" height="512" viewBox="0 0 512 512" width="512" xmlns="http://www.w3.org/2000/svg"><g><path d="m147.318 3.313c-24.731-8.642-53.442-.357-85.336 24.615-71.341 55.864-61.764 173.09-61.322 178.052l2.378 26.654s177.034-160.483 191.878-170.635c-.448-1.873-11.368-46.029-47.598-58.686z" fill="#4a443f"/><path d="m364.682 3.313c24.731-8.642 53.442-.357 85.336 24.615 71.341 55.863 61.764 173.09 61.322 178.052l-2.378 26.654s-177.034-160.483-191.878-170.635c.448-1.873 11.368-46.029 47.598-58.686z" fill="#3a3630"/><g><path d="m252.392 37.479-.266-.004-.266.004c-37.94.676-104.16 20.603-142.265 49.194-49.69 37.282-76.495 84.03-77.517 135.192-.019.98-.033 200.142-.033 200.142l36.463-12.613c86.056 76.011 187.492 102.536 187.492 102.536l23.875-204.96-23.875-269.373c-1.226-.055-2.434-.097-3.608-.118z" fill="#fbc276"/></g><path d="m479.403 221.863c-1.022-51.16-27.826-97.908-77.517-135.19-35.306-26.49-104.738-47.236-145.886-49.076v474.333s151.075-56.25 186.993-102.531l36.443 12.607c0 .001-.014-199.161-.033-200.143z" fill="#f8af5d"/><g><g><path d="m198.71 162.498h29.872v45.531h-29.872z" fill="#3a3630"/></g><g><path d="m284.052 162.498h29.872v45.531h-29.872z" fill="#221f1d"/></g></g><g><path d="m255.596 339.283c-17.518 0-67.895 35.803-67.895 35.803 12.614 25.959 39.422 42.732 68.298 42.732h.002l9.459-29.135-9.46-49.387c-.135-.004-.273-.013-.404-.013z" fill="#3a3630"/></g><path d="m324.3 375.08s-50.416-35.257-68.3-35.784v78.523c28.878-.001 55.687-16.777 68.3-42.739z" fill="#221f1d"/><g><path d="m220.149 386.099c-19.788 0-35.829-16.041-35.829-35.829v-86.81h71.657l1.178 68.035-1.178 18.774c.001 19.789-16.04 35.83-35.828 35.83z" fill="#f8af5d"/><path d="m291.851 386.099c-19.788 0-35.829-16.041-35.829-35.829v-86.81h71.657v86.81c.001 19.788-16.04 35.829-35.828 35.829z" fill="#f29057"/></g><g><path d="m236.531 193.092c-75.867 0-137.37 61.503-137.37 137.37v181.538h14.936c12.505 0 26.438-4.23 38.226-11.605 14.051-8.791 22.936-20.807 25.021-33.835 0 0 16.509-105.091 17.163-110.848.443-3.904 1.344-7.753 2.613-11.523 9.363-27.831 34.04-41.841 58.88-41.588l12.266-51.361-12.266-58.148z" fill="#4a443f"/><path d="m275.819 193.092h-19.819v109.509c22.478.229 45.09 12.137 56.61 36.082 2.926 6.083 4.924 12.312 5.536 18.525.498 5.06 17.131 109.378 17.131 109.378 2.091 13.022 10.978 25.031 25.028 33.817 11.786 7.37 25.715 11.597 38.232 11.597h14.936v-181.253c0-76.025-61.63-137.655-137.654-137.655z" fill="#3a3630"/></g><g><path d="m248.246 232.588c-25.613 0-46.45 20.837-46.45 46.45 0 12.679 8.574 24.625 26.211 36.521 10.715 7.226 27.993 15.081 27.993 15.081l11.884-47.024-11.884-51.028z" fill="#3a3630"/><path d="m263.754 232.588h-7.754v98.052s17.278-7.855 27.993-15.082c17.637-11.895 26.211-23.842 26.211-36.521 0-25.612-20.838-46.449-46.45-46.449z" fill="#221f1d"/></g></g></svg>