<svg id="Capa_1" enable-background="new 0 0 512 512" height="512" viewBox="0 0 512 512" width="512" xmlns="http://www.w3.org/2000/svg"><g><g><path d="m255.645 18.299v.001c-31.825.144-61.553 9.981-84.719 27.889l-21.557-6.376c-20.776-6.146-62.191 121.815-62.191 139.673l22.776 113.415 21.159 26.491 124.887.051 12.266-139.523-12.266-161.621z" fill="#3a3630"/></g><path d="m362.631 39.813-21.557 6.376c-23.167-17.908-52.894-27.745-84.719-27.889l-.355-.001v301.143l124.887.051 21.159-26.593 22.776-113.415c0-17.855-41.413-145.818-62.191-139.672z" fill="#2a2725"/><path d="m182.132 436.17c0 31.723 25.808 57.531 57.531 57.531h16.337l12.266-61.665-12.266-51.313-73.868 47.272z" fill="#3a3630"/><path d="m272.029 493.701c31.723 0 57.531-25.808 57.531-57.531v-8.175l-73.56-47.272v112.978z" fill="#221f1d"/><g><path d="m194.179 244.961-63.066 74.431v63.79c0 32.715 22.577 60.256 52.969 67.86 5.435 1.36 71.918-55.419 71.918-55.419l12.266-94.558-12.266-85.072c-23.872.206-46.37 10.735-61.821 28.968z" fill="#4a443f"/></g><g><g><path d="m326.638 184.294h29.992v29.994h-29.992z" fill="#181513"/></g><g><path d="m155.37 184.294h29.992v29.994h-29.992z" fill="#262323"/></g></g><path d="m319.887 245.72c-15.625-18.898-38.65-29.737-63.171-29.737-.239 0-.477.008-.716.01l.382 81.659-.382 97.971s66.252 56.808 71.588 55.5c30.558-7.486 53.299-35.108 53.299-67.942v-63.689z" fill="#3a3630"/><g><path d="m248.629 297.652c-25.613 0-46.45 20.837-46.45 46.45 0 12.679 8.574 24.625 26.211 36.521 10.714 7.226 27.61 15.081 27.61 15.081l12.266-47.024-11.884-51.028z" fill="#262323"/><path d="m264.136 297.652h-7.754l-.382 98.052s17.66-7.855 28.375-15.082c17.637-11.895 26.211-23.842 26.211-36.521 0-25.612-20.837-46.449-46.45-46.449z" fill="#181513"/></g><path d="m142.611 33.96c-16.772-5.052-34.958-1.401-48.481 9.731l-65.937 54.28c-28.226 23.236-36.33 63.056-19.423 95.472 22.28 42.718 54.393 100.522 54.393 100.522 13.183 21.763 45.42 19.674 55.673-3.613.282-.64.558-1.267.83-1.883 6.96-15.783 9.668-33.112 7.85-50.264l-6.586-62.141c-4.843-38.285 6.404-76.865 31.062-106.55l22.87-26.244z" fill="#4a443f"/><path d="m369.389 33.96c16.772-5.052 34.958-1.401 48.481 9.731l65.937 54.28c28.226 23.236 36.33 63.056 19.423 95.472-22.28 42.718-54.393 100.522-54.393 100.522-13.183 21.763-45.42 19.674-55.673-3.613-.056-.127-.112-.253-.167-.379-6.794-15.408-9.546-32.287-7.981-49.053l6.054-64.856c4.843-38.285-6.404-76.865-31.062-106.55l-23.046-26.392z" fill="#3a3630"/></g></svg>