<svg id="Capa_1" enable-background="new 0 0 512 512" height="512" viewBox="0 0 512 512" width="512" xmlns="http://www.w3.org/2000/svg"><g><g><path d="m204.361 74.636c-35.909 0-65.019 29.11-65.019 65.019v226.341l116.658-42.47 21.387-179.242-21.387-69.648z" fill="#f2eef3"/><path d="m372.658 140.158c0-36.187-29.335-65.522-65.522-65.522h-51.136v248.89h116.658z" fill="#dddce6"/></g><g><path d="m197.446 144.284h-11.191c-24.365 0-47.118 12.121-60.865 32.426l14.349 183.533 116.261-32.232 9.782-77.757-9.782-76.809c-13.426-17.701-34.674-29.161-58.554-29.161z" fill="#c5c5cd"/><path d="m386.609 180.963c-13.167-22.624-37.513-36.678-63.538-36.678h-9.854c-23.88 0-43.791 11.459-57.217 29.161v154.566l116.261 32.232z" fill="#b2b4bc"/></g><g><path d="m171.224 383.424v8.418c0 25.101 20.421 45.522 45.522 45.522h39.254l9.782-47.1-9.782-62.259z" fill="#dddce6"/><path d="m256 328.005v109.359h39.255c25.101 0 45.522-20.421 45.522-45.522v-8.418z" fill="#c6c6cf"/></g><g><path d="m255.645 251.941c-19.967 0-36.212 16.245-36.212 36.212v12.991l36.567.123 9.782-14.532-9.782-34.785c-.119-.002-.236-.009-.355-.009z" fill="#262323"/><path d="m291.857 288.153c0-19.848-16.053-36.011-35.857-36.203v49.318l35.857.121z" fill="#181513"/></g><g><path d="m139.739 396.968h51.706c35.653 0 64.555-28.902 64.555-64.555v-36.725h-51.706c-35.653 0-64.555 28.902-64.555 64.555z" fill="#f2eef3"/><path d="m372.338 396.968h-51.783c-35.653 0-64.555-28.902-64.555-64.555v-36.725h51.706c35.653 0 64.555 28.902 64.555 64.555z" fill="#dddce6"/></g><path d="m178.164 223.415h29.82v29.822h-29.82z" fill="#262323"/><path d="m304.71 223.415h29.82v29.822h-29.82z" fill="#181513"/><g><path d="m27.217 168.42c-17.806 25.944-27.217 56.29-27.217 87.757v43.11l139.584 97.682v-253.77c0-24.712 12.546-46.584 31.622-59.486l-71.89 27.752c-29.362 11.315-54.293 31.01-72.099 56.955z" fill="#b2b4bc"/></g><g><path d="m6.148 278.318-6.148-.743v21.711l139.584 97.682v-190.722l-23.527 28.332c-26.826 32.305-68.221 48.779-109.909 43.74z" fill="#4a443f"/></g><g><path d="m412.684 111.465-71.89-27.752c19.075 12.903 31.622 34.774 31.622 59.486v253.769l139.584-97.681v-43.11c0-31.467-9.411-61.812-27.217-87.757s-42.737-45.64-72.099-56.955z" fill="#95989e"/><g><path d="m505.852 278.318 6.148-.743v21.711l-139.584 97.682v-190.722l23.527 28.332c26.826 32.305 68.221 48.779 109.909 43.74z" fill="#3a3630"/></g></g></g></svg>