<svg id="Capa_1" enable-background="new 0 0 512 512" height="512" viewBox="0 0 512 512" width="512" xmlns="http://www.w3.org/2000/svg"><g><path d="m183.697 26.415c-22.262-17.034-49.96-26.415-77.991-26.415h-61.595v29.947h34.726l18.599 20.124c15.855 17.18 24.588 39.517 24.588 62.894l.604 64.05 108.937-114.01z" fill="#f8af5d"/><g><path d="m85.912 29.947h-7.026l18.55 20.124c15.855 17.18 24.588 39.517 24.588 62.894l.604 64.05 84.03-87.943-42.755-32.684c-22.262-17.032-49.96-26.441-77.991-26.441z" fill="#713c2e"/></g><path d="m328.303 26.415c22.262-17.034 49.96-26.415 77.991-26.415h61.595v29.947h-34.726l-18.599 20.124c-15.855 17.18-24.588 39.517-24.588 62.894l-.604 64.05-108.936-114.009z" fill="#f29057"/><g><path d="m426.088 29.947h7.026l-18.55 20.124c-15.855 17.18-24.588 39.517-24.588 62.894l-.604 64.05-84.03-87.943 42.755-32.684c22.262-17.032 49.96-26.441 77.991-26.441z" fill="#643123"/></g><g><path d="m254.72 444.112c-17.799 0-62.291 5.598-62.291 5.598 0 34.347 27.943 62.291 62.291 62.291.454 0 .902-.025 1.353-.034l9.645-38.79-9.645-29.053c-.465-.008-.919-.012-1.353-.012z" fill="#dddce6"/><path d="m317.01 449.709s-42.344-5.327-60.938-5.587v67.843c33.723-.724 60.938-28.362 60.938-62.256z" fill="#c6c6cf"/><g><g><path d="m231.564 58.021c-62.329 11.517-109.542 66.145-109.542 131.807 0 5.037 16.779 90.777 28.584 150.481l48.21-37.657 32.748-43.3z" fill="#fbc276"/><path d="m256.073 55.778c-8.372 0-16.562.775-24.508 2.243v154.32c0 30.1-11.957 58.967-33.241 80.251l-47.716 47.716c6.407 32.403 11.35 74.778 11.35 74.778.893 29.573 25.229 53.357 55.015 53.357 15.947 0 29.04-6.818 39.102-17.691l9.645-181.824z" fill="#f2eef3"/></g><g><path d="m280.581 58.021v201.331l39.998 50.202 42.512 32.308c11.054-59.735 27.032-146.951 27.032-152.034 0-65.662-47.213-120.29-109.542-131.807z" fill="#f8af5d"/><path d="m280.581 58.021c-7.947-1.468-16.137-2.243-24.508-2.243v394.975c10.061 10.873 25.739 17.691 41.686 17.691 29.814 0 54.167-23.83 55.017-53.442 0 0 4.469-41.548 10.316-73.141l-49.269-49.269c-21.284-21.284-33.241-50.151-33.241-80.251v-154.32z" fill="#dddce6"/></g></g></g><g><g><g><path d="m171.981 170.997h29.922v29.921h-29.922z" fill="#4a443f"/></g><g><path d="m310.954 170.997h29.923v29.921h-29.923z" fill="#3a3630"/></g></g></g><path d="m249.555 357.668c-21.8 0-39.535 17.735-39.535 39.534v6.309l46.052 36.931 5.154-42.987-5.154-39.788h-6.517z" fill="#3a3630"/><path d="m262.59 357.668h-6.517v82.775l46.052-36.931v-6.309c0-21.8-17.735-39.535-39.535-39.535z" fill="#221f1d"/></g></svg>