<svg id="Capa_1" enable-background="new 0 0 512 512" height="512" viewBox="0 0 512 512" width="512" xmlns="http://www.w3.org/2000/svg"><g><path d="m210.82 12.39c-21.412-11.082-56.087-20.386-99.669-1.768-87.443 37.351-106.289 117.57-107.048 120.966l-4.103 18.351h32.034l.044 71.926 215.168-180.282c-.536-.699-13.387-17.269-36.426-29.193z" fill="#dddce6"/><path d="m301.18 12.39c21.412-11.082 56.087-20.386 99.669-1.768 87.443 37.352 106.289 117.571 107.048 120.967l4.103 18.35h-32.034l-.044 71.926-215.168-180.282c.536-.699 13.387-17.269 36.426-29.193z" fill="#c6c6cf"/><g><path d="m130.132 447.836h133.334l16.409-140.866-23.875-269.373c-1.226-.055-2.434-.097-3.608-.118l-.266-.004-.266.004c-37.94.676-104.16 20.603-142.265 49.194-49.69 37.282-76.495 84.03-77.517 135.192-.019.98-.033 200.142-.033 200.142l36.463-12.613c20.198 17.84 41.242 32.954 61.624 45.638z" fill="#f2eef3"/></g><path d="m479.403 221.863c-1.022-51.16-27.826-97.908-77.517-135.19-35.306-26.49-104.738-47.236-145.886-49.076v410.239h126.363v6.6c26.145-14.602 49.21-30.322 60.63-45.037l36.443 12.607c0 .001-.014-199.161-.033-200.143z" fill="#dddce6"/><g><g><g><path d="m191.936 218.901h30.126v43.246h-30.126z" fill="#4a443f"/></g><g><path d="m290.725 218.901h30.126v43.246h-30.126z" fill="#3a3630"/></g></g></g><g><g><path d="m159.071 450.346v9.622c0 28.691 23.341 52.032 52.032 52.032h44.868l11.181-53.836-11.181-71.163z" fill="#c6c6cf"/><path d="m255.971 387.002v124.998h44.869c28.691 0 52.032-23.341 52.032-52.032v-9.622z" fill="#b2b4bc"/></g><g><g><path d="m193.089 321.116c-43.358 0-78.506 35.148-78.506 78.506v112.378h30.059v-13.352c0-18.126 14.694-32.821 32.821-32.821 43.358 0 78.506-35.148 78.506-78.506l.032-10.39-.032-55.816h-62.88z" fill="#dddce6"/><path d="m397.354 399.622c0-43.358-35.148-78.506-78.506-78.506h-62.88l.032 55.816-.032 10.39c0 43.358 35.148 78.506 78.506 78.506h.094c18.126 0 32.821 14.694 32.821 32.821v13.351h30.059z" fill="#c6c6cf"/></g></g><g><g><path d="m241.994 297.568c-19.259 0-34.926 15.668-34.926 34.926v8.039l48.932 36.399 9.865-39.682-9.865-39.682z" fill="#4a443f"/></g><path d="m270.007 297.568h-14.007v79.364l48.933-36.399v-8.039c0-19.258-15.668-34.926-34.926-34.926z" fill="#3a3630"/></g></g><g><path d="m241.634 146.635v57.478h-43.096c-27.323 0-53.5 9.83-74.016 26.917 2.239-12.14 7.954-26.763 20.66-42.133l-23.219-19.196c-43.861 53.054-24.719 102.4-23.883 104.475l11.406 28.294 15.53-26.259c15.312-25.89 43.484-41.973 73.521-41.973h57.463l7.962-32.487-7.962-55.116z" fill="#dddce6"/></g><path d="m390.825 169.701-23.219 19.196c12.706 15.369 18.421 29.993 20.66 42.133-20.516-17.086-46.693-26.917-74.016-26.917h-42.49v-57.478h-15.76v87.604h58.25c30.038 0 58.21 16.083 73.521 41.973l15.53 26.259 11.406-28.294c.837-2.076 19.979-51.421-23.882-104.476z" fill="#c6c6cf"/></g></svg>