<svg id="Capa_1" enable-background="new 0 0 512 512" height="512" viewBox="0 0 512 512" width="512" xmlns="http://www.w3.org/2000/svg"><g><g><path d="m240.882 0v68.981h15.118l4.856-29.559-4.856-39.422z" fill="#3a3630"/></g><path d="m256 0h14.631v68.981h-14.631z" fill="#221f1d"/><g><g><g><path d="m53.118 159.231c-8.885-14.594-13.582-31.337-13.582-48.422v-109.841s85.346 19.44 112.513 75.821c13.975 29.003-98.931 82.442-98.931 82.442z" fill="#fbced3"/></g><path d="m177.057 74.069s-32.408-83.954-137.521-73.101c0 0 65.652 25.778 77.86 106.168z" fill="#f8af5d"/></g><g><g><path d="m458.882 159.231c8.885-14.594 13.582-31.337 13.582-48.422v-109.841s-85.346 19.44-112.513 75.821c-13.975 29.003 98.931 82.442 98.931 82.442z" fill="#f8aaab"/></g><path d="m334.943 74.069s32.408-83.954 137.521-73.101c0 0-65.652 25.778-77.86 106.168z" fill="#f29057"/></g></g><g><g><g><path d="m202.548 12.108h-.525v29.749h.525c13.07 0 23.703 10.539 23.703 23.493v41.974h29.749v-41.974c0-29.359-23.979-53.242-53.452-53.242z" fill="#4a443f"/></g><g><path d="m309.717 12.108h-.265c-29.473 0-53.452 23.883-53.452 53.242v33.278h29.749v-33.278c0-12.953 10.633-23.493 23.703-23.493h.265z" fill="#3a3630"/></g></g></g><g><path d="m176.352 73.101h-.074c-13.379 0-26.664 2.472-39.078 7.462-81.814 32.89-137.2 113.145-137.2 202.488v67.619l256-156.462 7.962-50.584-7.962-49.173z" fill="#3a3630"/><path d="m466.639 150.186c-24.124-31.161-56.629-55.352-93.089-69.606-12.124-4.739-25.055-7.071-38.073-7.071l-79.477 20.942v99.756l256 156.462v-67.619c0-48.588-15.686-94.532-45.361-132.864z" fill="#221f1d"/></g><g><path d="m255.405 380.393c-5.115-2.662-52.718 61.553-59.434 50.046l-25.694 14.995c21.516 36.868 85.723 66.566 85.723 66.566l7.962-62.542-7.962-69.141c-.239-.037-.439-.013-.595.076z" fill="#4a443f"/><path d="m340.94 446.573-24.22-17.274c-7.837 10.988-53.349-47.846-60.721-48.982v131.683c.001 0 60.732-31.485 84.941-65.427z" fill="#3a3630"/><path d="m219.922 160.855c-94.2-.647-170.909 75.537-170.909 169.738v100.142l139.079-110.799c19.869-15.828 43.888-23.743 67.907-23.743l10.772-61.737-10.771-73.352z" fill="#4a443f"/><path d="m462.987 430.736v-99.631c0-93.291-75.287-169.097-168.576-169.738l-38.411-.263v135.091c24.019 0 48.039 7.914 67.907 23.743z" fill="#3a3630"/><path d="m211.524 62.356c-9.345-3.421-19.791-2.066-27.955 3.628-8.18 5.704-13.064 15.064-13.064 25.038v15.547c0 9.973 4.883 19.333 13.064 25.038 5.191 3.621 11.304 5.486 17.47 5.486 3.532 0 7.082-.612 10.485-1.858 0 0 44.373-16.163 44.476-16.12l5.682-18.428-5.682-22.211c-.102.043-44.476-16.12-44.476-16.12z" fill="#f4294d"/></g><g><path d="m220.149 436.102c-19.788 0-35.829-16.041-35.829-35.829v-86.81h71.657l1.178 68.035-1.178 18.774c.001 19.789-16.04 35.83-35.828 35.83z" fill="#fbc276"/><path d="m291.851 436.102c-19.788 0-35.829-16.041-35.829-35.829v-86.81h71.657v86.81c.001 19.788-16.04 35.829-35.828 35.829z" fill="#f8af5d"/></g><g><path d="m217.666 283.991c-59.919 0-108.666 48.684-108.666 108.523v119.486h14.916c26.079 0 49.781-15.154 60.727-38.824l30.932-66.894c1.067-2.307 2.412-4.535 3.981-6.672 8.954-12.198 22.699-18.296 36.445-18.296l21.022-34.098-21.023-63.225z" fill="#f8af5d"/><path d="m294.333 283.991h-38.333v97.323c13.745 0 27.49 6.099 36.444 18.297 1.569 2.137 2.914 4.365 3.981 6.672l30.932 66.894c10.906 23.583 34.742 38.823 60.727 38.823h14.916v-119.059c0-60.075-48.748-108.95-108.667-108.95z" fill="#f29057"/></g><g><path d="m240.928 280.46c-18.441 0-33.443 14.948-33.443 33.322v13.49l48.515 30.317 7.962-38.564-7.962-38.565z" fill="#262323"/><path d="m271.072 280.46h-15.072v77.128l48.515-29.367v-14.44c0-18.373-15.003-33.321-33.443-33.321z" fill="#181513"/></g><path d="m310.474 137.093c6.166 0 12.28-1.866 17.47-5.486 8.18-5.704 13.064-15.064 13.064-25.038v-15.546c0-9.973-4.883-19.333-13.064-25.038-8.164-5.694-18.61-7.05-27.955-3.628 0 0-40.621 14.714-43.989 16.12v15.975 24.665c3.368 1.406 43.989 16.12 43.989 16.12 3.404 1.245 6.953 1.856 10.485 1.856z" fill="#de0047"/><g><g><path d="m171.06 227.028h29.749v29.751h-29.749z" fill="#262323"/></g><g><path d="m311.191 227.028h29.749v29.751h-29.749z" fill="#181513"/></g></g></g></svg>