<svg id="Capa_1" enable-background="new 0 0 512 512" height="512" viewBox="0 0 512 512" width="512" xmlns="http://www.w3.org/2000/svg"><g><g><path d="m92.874 184.692-13.79 99.065 65.14 72.402s69.971-15.524 110.119-16.963v-271.796c-8.076.087-15.975-28.513-23.698-27.202-28.28 4.801-53.898 17.492-74.465 35.723 0 0-16.934-4.829-18.829-2.852-20.047 20.911-43.671 67.151-44.477 111.623z" fill="#fbc276"/><path d="m424.894 143.562c-2.967-40.321-69.068-67.648-69.068-67.648-20.575-18.24-46.181-30.931-74.474-35.729-8.242-1.398-16.712 21.803-25.352 21.803-.554 0-1.657 277.208-1.657 277.208.557-.02 1.111-.034 1.657-.034 39.749 0 111.776 16.997 111.776 16.997l65.14-72.402z" fill="#f8af5d"/></g><g><path d="m263.579 474.008 3.399-17.075-10.978-45.927-66.114 42.31v7.316c0 4.631.625 9.103 1.777 13.375h71.916z" fill="#dddce6"/><path d="m320.072 474.008c1.152-4.272 1.765-8.744 1.765-13.375v-7.316l-65.837-42.311v63.002z" fill="#c6c6cf"/></g><path d="m256 263.569c-.004 0-.008 0-.012 0v-225.509c-11.346-.077-25.344 2.138-25.344 2.138v228.14c-11.486 4.349-21.83 11.545-29.976 21.158l-56.445 66.663v57.048c0 29.28 20.238 53.995 47.439 60.801l64.338-49.63 10.979-84.668z" fill="#f2eef3"/><path d="m313.18 290.175c-8.542-10.331-19.557-17.965-31.836-22.347v-227.597s-10.472-2.697-25.344-2.172l.342 298.596-.342 87.723 64.073 49.63c27.35-6.7 47.704-31.415 47.704-60.801v-57.048z" fill="#dddce6"/><g><path d="m249.402 336.656c-22.924 0-41.574 18.65-41.574 41.574 0 11.348 7.674 22.04 23.46 32.687 9.589 6.467 24.712 13.462 24.712 13.462l10.979-42.051-10.637-45.671h-6.94z" fill="#3a3630"/><path d="m263.282 336.656h-6.94l-.342 87.722s15.806-6.994 25.396-13.463c15.786-10.646 23.459-21.339 23.459-32.687 0-22.923-18.649-41.572-41.573-41.572z" fill="#221f1d"/></g><g><g><path d="m326.788 204.421h30.159v30.161h-30.159z" fill="#221f1d"/></g><g><path d="m154.564 204.421h30.159v30.161h-30.159z" fill="#3a3630"/></g></g><path d="m147.331 71.677c-16.6-8.426-36.547-6.673-51.423 4.518l-75.01 56.43c-17.625 13.206-23.485 35.14-19.884 56.867 5.205 31.406 23.576 148.679 32.091 166.48 8.119 16.972 20.174 27.64 38.988 27.752h19.72v-162.69c0-93.838 57.87-141.248 64.369-145.115z" fill="#f8af5d"/><path d="m364.669 71.677c16.6-8.426 36.547-6.673 51.423 4.518l75.01 56.43c17.625 13.206 23.485 35.14 19.884 56.867-5.205 31.406-23.576 148.679-32.091 166.48-8.119 16.972-20.174 27.64-38.988 27.752h-19.72v-162.69c0-93.838-57.87-141.248-64.369-145.115z" fill="#f29057"/></g></svg>