<svg id="Capa_1" enable-background="new 0 0 512 512" height="512" viewBox="0 0 512 512" width="512" xmlns="http://www.w3.org/2000/svg"><g><g><path d="m256 0c-60.958 0-115.031 28.274-150.92 71.97-27.74 33.774-44.767 76.601-44.767 123.718v120.625c-.001 108.075 87.612 195.687 195.687 195.687z" fill="#985040"/><path d="m256 0v512c108.075 0 195.688-87.612 195.688-195.688v-120.624c0-47.272-16.863-89.895-44.767-123.718-35.892-43.505-90.117-71.97-150.921-71.97z" fill="#7c4438"/></g><g><g><path d="m306.412 154.566h30v30.002h-30z" fill="#181513"/></g><g><path d="m175.101 154.566h30v30.002h-30z" fill="#3a3630"/></g><g><g><path d="m212.005 123.499c-4.476-8.325-13.118-13.509-22.557-13.528l-10.708-.021.061-30 10.709.021c20.474.043 39.218 11.278 48.919 29.323z" fill="#713c2e"/></g><g><path d="m300.075 123.331-26.135-14.731c9.86-17.494 28.437-28.351 48.497-28.351h.114l10.709.022-.063 30-10.709-.022c-.018 0-.036 0-.053 0-9.246.001-17.81 5.008-22.36 13.082z" fill="#643123"/></g></g></g><path d="m38.705 227.635c-32.339-13.79-47.377-51.184-33.588-83.523l16.44-38.555c13.789-32.339 51.184-47.377 83.523-33.587l-1.39 10.225c-5.206 38.3 1.254 77.28 18.538 111.853-13.79 32.338-51.184 47.376-83.523 33.587z" fill="#713c2e"/><path d="m473.295 227.635c32.339-13.789 47.377-51.184 33.587-83.523l-16.44-38.555c-13.788-32.339-51.183-47.377-83.522-33.587l1.39 10.225c5.206 38.3-1.254 77.28-18.538 111.853 13.79 32.338 51.184 47.376 83.523 33.587z" fill="#643123"/><path d="m189.886 394.369c0 28.392 23.099 51.491 51.491 51.491h14.623l10.979-55.191-10.979-45.926-66.114 42.31z" fill="#7c4438"/><path d="m270.346 445.861c28.393 0 51.492-23.099 51.492-51.491v-7.316l-65.838-42.311v101.118z" fill="#713c2e"/><g><path d="m200.669 223.233-56.445 66.617v57.094c0 29.28 20.207 53.93 47.408 60.736 4.865 1.217 64.368-49.601 64.368-49.601l10.979-84.632-10.979-76.142c-21.366.185-41.502 9.608-55.331 25.928z" fill="#713c2e"/></g><path d="m313.18 223.912c-13.984-16.914-34.592-26.615-56.54-26.615-.214 0-.427.007-.64.009l.342 73.087-.342 87.686s59.297 50.844 64.072 49.674c27.35-6.7 47.704-31.423 47.704-60.809v-57.003z" fill="#643123"/><g><path d="m249.402 270.392c-22.924 0-41.574 18.65-41.574 41.574 0 11.348 7.674 22.04 23.46 32.687 9.59 6.467 24.712 13.498 24.712 13.498l10.979-42.087-10.637-45.671h-6.94z" fill="#262323"/><path d="m263.282 270.392h-6.94l-.342 87.759s15.806-7.031 25.396-13.499c15.786-10.646 23.459-21.339 23.459-32.687 0-22.923-18.649-41.573-41.573-41.573z" fill="#181513"/></g></g></svg>