<svg id="Capa_1" enable-background="new 0 0 512 512" height="512" viewBox="0 0 512 512" width="512" xmlns="http://www.w3.org/2000/svg"><g><g><g><path d="m210.833 38.81c-66.238 0-119.934 53.696-119.934 119.934l1.013 108.542 56.689 105.466 107.399 21.097 20.464-182.846-20.464-172.193z" fill="#f2eef3"/><path d="m301.167 38.81h-45.167v355.039l106.138-21.097 58.288-105.466.675-108.542c0-66.238-53.696-119.934-119.934-119.934z" fill="#dddce6"/></g><g><g><path d="m167.423 183.984h29.973v29.975h-29.973z" fill="#4a443f"/></g><g><path d="m314.604 183.984h29.973v29.975h-29.973z" fill="#3a3630"/></g></g><g><g><g><path d="m147.862 353.37v86.872l106.774-1.116 8.265-99.283-6.901-94.593c-59 .734-108.138 48.949-108.138 108.12z" fill="#dddce6"/><path d="m256 245.232v156.694l-1.365 47.323 109.503-9.007v-86.872c0-59.627-48.51-108.138-108.138-108.138z" fill="#c6c6cf"/></g><g><path d="m256 401.926-108.138 38.162c0 18.282 14.82 33.102 33.102 33.102h75.036l15.165-27.88-9.278-26.542z" fill="#f2eef3"/><path d="m256 401.926v71.264h75.036c18.282 0 33.102-14.82 33.102-33.102z" fill="#dddce6"/></g></g></g><path d="m147.431 47.009c-16.6-8.426-36.547-6.673-51.423 4.518l-75.01 56.43c-17.625 13.206-25.121 36.013-18.76 57.098 8.78 29.102 20.575 66.912 24.95 75.015 8.938 16.556 26.191 27.104 45.005 27.216h19.72v-70.92c0-93.838 58.271-140.796 64.769-144.662z" fill="#dddce6"/><path d="m364.569 47.009c16.6-8.426 36.547-6.673 51.423 4.518l75.01 56.43c17.625 13.206 25.121 36.013 18.76 57.098-8.78 29.102-20.575 66.912-24.95 75.015-8.938 16.556-26.191 27.104-45.005 27.216h-19.383v-70.92c0-93.838-58.608-140.796-65.107-144.662z" fill="#c6c6cf"/></g><g><path d="m269.907 341.982-13.907-39.535h-13.604c-21.8 0-39.535 17.735-39.535 39.535 0 21.331 16.984 38.76 38.139 39.499v25.751h17.433v-32.631z" fill="#4a443f"/><path d="m309.139 341.982c0-21.8-17.735-39.535-39.535-39.535h-13.604v104.785h15v-25.751c21.155-.739 38.139-18.168 38.139-39.499z" fill="#3a3630"/></g></g></svg>