<svg id="Capa_1" enable-background="new 0 0 512 512" height="512" viewBox="0 0 512 512" width="512" xmlns="http://www.w3.org/2000/svg"><g><g><g><g><path d="m182.308 65.187-97.902 34.149c-19.642 8.765-37.07 21.675-50.4 37.338-32.847 38.595-42.783 92.232-25.928 139.98l.294.844c8.218 23.63 37.2 104.447 65.128 152.256 9.021 15.443 25.097 24.515 42.453 24.514 2.79 0 5.615-.235 8.447-.715 20.407-3.46 36.157-18.831 40.139-39.238z" fill="#3a3630"/></g><g><path d="m328.694 65.187 98.9 34.149c19.642 8.765 37.07 21.675 50.4 37.338 32.847 38.595 42.783 92.232 25.928 139.981l-.294.844c-8.218 23.63-37.2 104.447-65.128 152.256-9.021 15.443-25.097 24.515-42.453 24.514-2.79 0-5.615-.235-8.447-.715-20.407-3.46-36.157-18.831-40.139-39.238z" fill="#221f1d"/></g></g></g><g><path d="m183.799 401.253c6.99 34.101 37.329 58.852 72.139 58.852.021 0 .042-.001.063-.001l10.882-35.997-10.883-33.14c-.021 0-.042 0-.063 0-20.611-.001-72.138 10.286-72.138 10.286z" fill="#985040"/><path d="m328.077 401.253s-51.424-10.266-72.077-10.286v69.137c34.784-.03 65.091-24.77 72.077-58.851z" fill="#7d4234"/><path d="m239.639 51.895c-68.87 0-124.901 52.526-124.901 124.901 0 64.886 38.919 82.139 43.046 89.332l98.217 7.26v-221.493z" fill="#985040"/><path d="m272.361 51.895h-16.361v221.493l98.217-6.058c4.106-7.136 43.046-22.884 43.046-90.535-.001-69.68-56.032-124.9-124.902-124.9z" fill="#7d4234"/></g><g><path d="m241.008 51.895v78.599c0 42.633-16.394 68.235-46.161 98.755l-37.064 36.891.128 93.168c0 30.948 25.177 56.125 56.125 56.125 16.324 0 31.562-7.249 41.964-18.953l17.203-106.807-17.203-237.778z" fill="#713c2e"/><path d="m317.203 229.249c-29.767-30.519-46.161-56.122-46.161-98.754v-78.6h-15.042v344.587c.019-.021.04-.041.059-.063 10.408 11.786 25.393 19.015 41.903 19.015 30.947 0 56.125-25.178 56.125-56.125l.129-91.518z" fill="#643123"/></g><g><path d="m256 327.476c-18.971 0-34.405 15.434-34.405 34.406 0 18.971 15.434 34.405 34.405 34.405l8.259-34.405z" fill="#3a3630"/></g><g><g><path d="m167.541 165.975h30.035v30.037h-30.035z" fill="#3a3630"/></g><g><path d="m315 165.975h30.035v30.037h-30.035z" fill="#221f1d"/></g></g><path d="m290.406 361.882c0-18.971-15.434-34.405-34.406-34.406v68.811c18.972 0 34.406-15.434 34.406-34.405z" fill="#221f1d"/></g></svg>