<svg id="Capa_1" enable-background="new 0 0 512 512" height="512" viewBox="0 0 512 512" width="512" xmlns="http://www.w3.org/2000/svg"><g><g><path d="m202.375 0-87.761 100.601v305.714h141.516l20.365-178.034-20.365-228.281z" fill="#fcce91"/><path d="m397.393 102.024-84.925-102.024h-56.421v405.095h141.346z" fill="#fbc276"/></g><g><path d="m255.597 273.06c-22.823 0-41.391 18.568-41.391 41.391v14.849l41.797.142 11.181-16.611-11.181-39.76c-.136-.002-.27-.011-.406-.011z" fill="#4a443f"/><path d="m296.987 314.451c0-22.687-18.349-41.161-40.985-41.38v56.371l40.985.139z" fill="#3a3630"/></g><g><g><path d="m136.415 0-44.138 11.472c-21.969 5.71-39.825 20.897-48.986 41.666-9.162 20.769-8.339 44.195 2.256 64.27l28.081 53.207 128.447-170.615z" fill="#fbc276"/><path d="m375.585 0 44.138 11.472c21.97 5.71 39.825 20.897 48.986 41.666 9.162 20.769 8.339 44.195-2.256 64.27l-28.081 53.207-128.447-170.615z" fill="#f8af5d"/></g><g><g><path d="m187.35 162.262h29.998v30h-29.998z" fill="#4a443f"/></g><g><path d="m294.653 162.262h29.998v30h-29.998z" fill="#3a3630"/></g></g></g><g><g><path d="m159.103 450.346v9.622c0 28.691 23.341 52.032 52.032 52.032h44.868l11.181-53.836-11.181-71.163z" fill="#fbc276"/><path d="m256.003 387.002v124.998h44.869c28.691 0 52.032-23.341 52.032-52.032v-9.622z" fill="#f8af5d"/></g><g><path d="m114.614 465.827h62.88c43.358 0 78.506-35.148 78.506-78.506v-66.206h-62.88c-43.358 0-78.506 35.148-78.506 78.506z" fill="#f8af5d"/><path d="m397.48 465.827h-62.974c-43.358 0-78.506-35.148-78.506-78.506v-66.206h62.88c43.358 0 78.506 35.148 78.506 78.506z" fill="#f29057"/></g></g></g></svg>