<svg id="Capa_1" enable-background="new 0 0 512 512" height="512" viewBox="0 0 512 512" width="512" xmlns="http://www.w3.org/2000/svg"><g><g><path d="m189.61 71.134 48.285 176.974h18.105l5.579-102.478-5.579-90.995c-23.959.115-46.537 6.063-66.39 16.499z" fill="#f5f1f5"/><path d="m326.343 72.503c-20.652-11.39-44.387-17.878-69.64-17.878-.235 0-.468.01-.703.011v193.473h20.472z" fill="#dddce6"/></g><g><path d="m190.33 70.754c-46.364 24.036-78.047 55.086-78.047 122.055v135.836l47.179 69.265h81.594v-243.38c-.001-36.396-20.576-67.982-50.726-83.776z" fill="#985040"/><path d="m150.413 187.194-11.301 133.179c-2.326 27.416 4.859 54.796 20.349 77.537h81.594v-206.877c0-25.074-20.326-45.401-45.4-45.402-23.588-.002-43.247 18.06-45.242 41.563z" fill="#4a443f"/></g><g><g><g><path d="m181.577 191.864h29.89v29.892h-29.89z" fill="#262323"/></g></g><g><path d="m102.57 53.903c-31.944 12.311-66 32.328-81.499 59.496-13.982 24.506-21.071 55.156-21.071 91.099v1.839l36.622 174.6c4.237 16.96 19.104 29.437 36.579 29.897 21.754.572 39.633-16.958 39.633-38.585v-184.818c0-50.678 35.446-94.634 77.495-116.676z" fill="#4a443f"/></g></g><path d="m323.112 70.754c46.364 24.036 78.047 59.567 78.047 128.291v129.6l-47.179 69.265h-81.594v-243.38c.001-36.396 20.576-67.982 50.726-83.776z" fill="#713c2e"/><path d="m363.028 187.194 11.301 133.179c2.326 27.416-4.859 54.796-20.349 77.537h-81.594v-206.877c0-25.074 20.326-45.401 45.4-45.402 23.588-.002 43.248 18.06 45.242 41.563z" fill="#3a3630"/><g><path d="m303.503 191.864h29.89v29.892h-29.89z" fill="#181513"/></g><path d="m490.929 113.399c-15.5-27.168-49.556-47.185-81.499-59.496l-86.318 16.851c40.878 22.402 77.054 66.866 77.054 116.676v184.06c0 21.176 16.737 38.98 37.91 39.351 18.036.315 33.778-11.797 38.135-29.237l35.789-175.267v-1.839c0-35.943-7.089-66.593-21.071-91.099z" fill="#3a3630"/><g><path d="m159.461 340.72v78.545s22.261 32.48 49.623 32.48h46.916l7.473-132.298-7.473-76.484c-53.345.664-96.539 44.258-96.539 97.757z" fill="#dddce6"/><path d="m257.234 242.948c-.412 0-.823.01-1.234.016v208.782h49.383c27.363 0 49.623-32.48 49.623-32.48v-78.546c.001-53.912-43.86-97.772-97.772-97.772z" fill="#c6c6cf"/></g><g><path d="m159.461 419.126c0 21.523 17.448 38.971 38.971 38.971h57.568l14.945-34.249-14.945-39.241-14.945 5.325z" fill="#f2eef3"/><path d="m256.092 384.574-.092.033v73.49h60.036c21.523 0 38.971-17.448 38.971-38.971l-84.062-29.193z" fill="#dddce6"/></g><g><path d="m241.055 344.035v45.898h14.945l5.579-22.949-5.579-22.949z" fill="#262323"/><path d="m256 344.035h14.945v45.897h-14.945z" fill="#181513"/></g><g><path d="m243.822 276.623c-21.492 0-38.977 17.485-38.977 38.977s17.485 38.977 38.977 38.977h12.178l14.945-38.977-14.945-38.977z" fill="#262323"/><path d="m270.646 276.623h-14.646v77.954h14.646c21.492 0 38.977-17.485 38.977-38.977s-17.485-38.977-38.977-38.977z" fill="#181513"/></g></g></svg>