<svg id="Capa_1" enable-background="new 0 0 512 512" height="512" viewBox="0 0 512 512" width="512" xmlns="http://www.w3.org/2000/svg"><g><g><path d="m254.669 429.084c-19.649 0-68.747 19.536-68.747 19.536 6.784 33.099 36.231 57.122 70.018 57.122.02 0 .04-.001.06-.001l9.975-42.742-9.975-33.885c-.456-.018-.904-.03-1.331-.03z" fill="#dddce6"/><path d="m325.958 448.62s-49.415-18.693-69.958-19.506v76.626c33.761-.028 63.178-24.041 69.958-57.12z" fill="#c6c6cf"/></g><path d="m33.152 65.17-33.152 77.355 27.49 11.781s8.481-19.271 8.995-20.694c1.609-4.453 4.969-7.992 9.397-9.836 4.886-2.034 10.321-1.691 14.912.941l39.608 22.704 60.193-82.252h-127.443z" fill="#dddce6"/><path d="m109.984 6.258c-31.337 0-59.561 18.613-71.905 47.416l-16.201 37.804c10.911-14.36 28.059-23.139 46.632-23.139h89.766l23.542-32.17h32.747l10.236-29.91h-114.817z" fill="#c6c6cf"/><g><path d="m351.405 65.17 60.193 82.252 39.608-22.704c4.591-2.632 10.026-2.975 14.912-.941 4.428 1.844 7.788 5.383 9.397 9.836.514 1.422 8.995 20.694 8.995 20.694l27.49-11.782-33.152-77.355z" fill="#c6c6cf"/><path d="m402.016 6.258c31.337 0 59.561 18.613 71.905 47.416l16.201 37.803c-10.911-14.36-28.059-23.139-46.632-23.139h-89.766l-23.542-32.17h-32.747l-3.71-29.91h108.291z" fill="#b2b4bc"/></g><g><path d="m217.937 6.258c-44.895.002-86.058 24.532-107.426 64.018-19.848 36.676-23.912 80.453-11.165 120.153l62.235 232.27c6.72 23.728 28.637 40.3 53.298 40.3 15.82 0 30.704-6.573 41.121-17.181l7.563-208.779-7.563-230.781z" fill="#f2eef3"/><path d="m402.516 72.173-.741-1.369c-21.549-39.819-62.942-64.546-108.036-64.546-.002 0-.011 0-.014 0h-37.725v439.56c10.217 10.613 24.449 17.181 40.228 17.181h.869c24.742 0 46.467-16.615 52.832-40.405 14.815-55.369 42.736-170.257 63.277-233.817 12.454-38.537 8.557-81.038-10.69-116.604z" fill="#dddce6"/></g><g><path d="m159.939 144.133h29.909v28.96h-29.909z" fill="#4a443f"/><path d="m322.707 144.133h29.909v28.96h-29.909z" fill="#3a3630"/></g><path d="m241.046 201.184v156.851h14.954l7.477-74.682-7.477-82.169z" fill="#dddce6"/><path d="m256 201.184h14.954v156.851h-14.954z" fill="#c6c6cf"/><g><path d="m251.016 349.233c-20.579 0-37.322 16.742-37.322 37.322v5.208c0 20.579 16.742 37.322 37.322 37.322h4.984l9.975-39.925-9.975-39.927z" fill="#4a443f"/></g><path d="m260.864 349.233h-4.864v79.851h4.864c20.579 0 37.322-16.742 37.322-37.322v-5.208c0-20.579-16.742-37.321-37.322-37.321z" fill="#3a3630"/></g></svg>