<svg id="Capa_1" enable-background="new 0 0 512 512" height="512" viewBox="0 0 512 512" width="512" xmlns="http://www.w3.org/2000/svg"><g><g><path d="m191.516 137.085c-2.214-29.327-11.462-75.768-36.356-101.559l-36.555-35.526s-13.649 86.633-13.649 121.35c0 0 9.031 80.607 34.706 94.729l29.907 213.032c3.387 23.425 15.664 44.169 34.57 58.41l19.656 11.957 31.09-.369 14.042-160.898-14.042-218.283c-20.803.33-41.385 6.038-63.369 17.157z" fill="#f2eef3"/><path d="m393.394 0-36.555 35.526c-24.477 25.359-33.822 70.669-36.233 100.058l-.049-.076c-23.247-10.719-44.573-15.915-65.67-15.58v379.181l31.598-.375 10.549-6.149c22.511-13.12 38.555-35.319 42.993-60.993.142-.823 32.813-215.798 32.813-215.798 25.391-14.155 32.462-95.485 32.462-95.485-.001-34.718-11.908-120.309-11.908-120.309z" fill="#dddce6"/></g><g><path d="m414.85 117.374v31.476c0 29.111-16.621 52.789-42.012 66.944.249-38.281.498-84.521.498-116.736 0-41.309 7.739-77.617 19.424-98.442l.634-.616s21.456 82.657 21.456 117.374z" fill="#fbced3"/></g><path d="m265.41 212.602v53.542c0 32.322 40.552 46.786 61.007 21.76l12.887-15.766c8.069-9.872 10.012-23.399 5.049-35.144l-15.721-37.201c-5.148-12.182-17.088-20.099-30.313-20.099-18.176-.001-32.909 14.733-32.909 32.908z" fill="#4a443f"/><g><g><path d="m193.01 228.992h29.747v28.803h-29.747z" fill="#4a443f"/></g><g><path d="m286.569 228.992h29.747v28.803h-29.747z" fill="#221f1d"/></g></g><g><path d="m250.349 438.426c-18.962 0-34.388 15.426-34.388 34.388v4.798c0 18.962 15.426 34.388 34.388 34.388h4.537l9.782-36.787-9.782-36.787z" fill="#4a443f"/></g><path d="m97.149 117.374v31.476c0 29.111 16.621 52.789 42.012 66.944-.249-38.281-.498-84.521-.498-116.736 0-41.309-7.739-77.617-19.424-98.442l-.634-.616s-21.456 82.657-21.456 117.374z" fill="#fce4e4"/><path d="m259.424 438.426h-4.537v73.574h4.537c18.961 0 34.388-15.426 34.388-34.388v-4.798c0-18.962-15.426-34.388-34.388-34.388z" fill="#3a3630"/></g></svg>