<svg id="Capa_1" enable-background="new 0 0 512 512" height="512" viewBox="0 0 512 512" width="512" xmlns="http://www.w3.org/2000/svg"><g><g><path d="m191.701 406.414c11.073 24.555 35.706 41.725 64.299 41.924l9.459-35.027-9.459-46.396z" fill="#dddce6"/></g><path d="m256.501 366.607-.501.308v81.424c.167.001.333.009.501.009 28.806 0 53.662-17.234 64.8-41.933z" fill="#c6c6cf"/><path d="m126.343 76.297-70.031 26.93c-16.885 7.575-31.135 19.769-41.211 35.264-10.203 15.69-15.428 33.696-15.085 52.077v177.23s62.947-15.265 63.735-15.48c34.7-9.482 59.578-39.969 63.145-75.764l3.681-46.935 64.276-153.322z" fill="#713c2e"/><path d="m385.657 76.297 70.031 26.93c16.885 7.575 31.135 19.769 41.211 35.264 10.203 15.69 15.428 33.696 15.085 52.077v177.23s-62.947-15.265-63.735-15.48c-34.7-9.482-59.578-39.969-63.145-75.764l-3.681-46.935-64.275-153.322z" fill="#643123"/><g><path d="m242.34 64.304c-12.865 1.12-25.611 3.821-37.896 8.114l-9.61 3.357-.269.097c-37.233 13.81-62.464 48.366-64.277 88.036l-.018.376.288 65.335 25.058 51.772 86.723-.041v-217.046z" fill="#985040"/><path d="m381.711 163.907c-1.813-39.67-27.043-74.226-64.277-88.036l-9.879-3.454c-12.15-4.245-24.751-6.932-37.472-8.074v216.992l86.347-.041 25.011-51.676.288-65.335z" fill="#713c2e"/></g><path d="m240.281 64.495v130.511c0 17.92-9.014 34.639-23.986 44.487l-61.432 40.408v86.706c0 27.928 22.64 50.568 50.569 50.568 23.602 0 44.993-15.989 50.569-37.855 1.022-4.008 0-8.387 0-12.713l7.623-129.939-7.624-172.963c-8.768-.302-15.719.79-15.719.79z" fill="#f2eef3"/><path d="m271.719 195.006v-130.511s-3.453-.929-15.719-.79v302.902c0 4.337-1.027 8.696 0 12.713 5.586 21.85 26.977 37.855 50.569 37.855 27.928 0 50.569-22.64 50.569-50.568v-86.706l-61.432-40.408c-14.973-9.848-23.987-26.567-23.987-44.487z" fill="#dddce6"/><g><g><path d="m176.675 167.528h30.051v30.053h-30.051z" fill="#3a3630"/></g><g><path d="m306.275 167.528h30.051v30.053h-30.051z" fill="#221f1d"/></g></g><g><path d="m242.569 303.219c-18.467 0-33.49 15.023-33.49 33.49v7.709l46.921 34.902 9.459-38.05-9.459-38.051z" fill="#3a3630"/></g><path d="m269.431 303.219h-13.431v76.101l46.921-34.902v-7.709c0-18.466-15.024-33.49-33.49-33.49z" fill="#221f1d"/></g></svg>