<svg id="cupcake1" height="512" viewBox="0 0 64 64" width="512" xmlns="http://www.w3.org/2000/svg"><path d="m10.8979 25c-6.3714 6.9786-1.2524 17 5.86 17 10.1615 0 15.2421-8.6111 15.2421-18v-20c-6.0967 11-15.6737 15.054-21.1021 21z" fill="#e0eaeb"/><path d="m20.2388 12.5146a1 1 0 0 1 -.9732-.7749 8.5216 8.5216 0 0 0 -10.9736-6.3354 1 1 0 0 1 -.584-1.9131 10.5208 10.5208 0 0 1 13.5059 7.7988 1 1 0 0 1 -.9751 1.225z" fill="#a3c539"/><path d="m13.7185 14.5582a4.6182 4.6182 0 0 1 5.6258-3.616 2.7744 2.7744 0 0 1 .8921.3691 2.7717 2.7717 0 0 1 .588-.7657 4.6181 4.6181 0 0 1 6.68.3186 8.3065 8.3065 0 0 1 1.7594 3.2281 7.5587 7.5587 0 0 1 -5.707 9.6109 7.5586 7.5586 0 0 1 -9.7478-5.47 8.3062 8.3062 0 0 1 -.0905-3.675z" fill="#f03228"/><circle cx="18.33" cy="15.786" fill="#fa463c" r="2"/><path d="m32 4c.502 5.4441 1 18.9474 1 27.3684 0 6.9762 4.3726 12.6316 11 12.6316s12-5.6554 12-12.6316c0-14.7368-24-27.3684-24-27.3684z" fill="#e0eaeb"/><path d="m32 4c.502 5.1719-12 18-12 26a12 12 0 0 0 24 0c0-13-12-26-12-26z" fill="#edf3f4"/><path d="m16.5728 34a7.5666 7.5666 0 0 0 -7.1418 10.0661l5.5769 15.9339h11.3333l-2.2529-19.31a7.5665 7.5665 0 0 0 -7.5155-6.69z" fill="#f03228"/><path d="m24.316 42.6414 2.0252 17.3586h11.3333l2.0255-17.3586a7.744 7.744 0 0 0 -7.6921-8.6414 7.744 7.744 0 0 0 -7.6919 8.6414z" fill="#fa463c"/><path d="m39.9274 40.69-2.2529 19.31h11.3334l5.5768-15.9339a7.5665 7.5665 0 0 0 -7.1417-10.0661 7.5665 7.5665 0 0 0 -7.5156 6.69z" fill="#f03228"/></svg>