<svg id="cupcake1" height="512" viewBox="0 0 64 64" width="512" xmlns="http://www.w3.org/2000/svg"><path d="m56 41c3.0991-15.9992-8.5522-30-24-30s-27.0991 14.0008-24 30" fill="#edf3f4"/><path d="m24 41 2.333 20h5.667v-20z" fill="#6e5332"/><path d="m16 41 4.667 20h5.666l-2.333-20z" fill="#885e2d"/><path d="m40 41-2.333 20h5.666l4.667-20z" fill="#6e5332"/><path d="m8 41 7 20h5.667l-4.667-20z" fill="#6e5332"/><path d="m32 41v20h5.667l2.333-20z" fill="#885e2d"/><path d="m48 41-4.667 20h5.667l7-20z" fill="#885e2d"/><path d="m31.94 8a26.9644 26.9644 0 0 0 -26.9993 27.13s.0037 2.8061.0076 4.8317a2.0433 2.0433 0 0 0 2.0473 2.0383 2.0472 2.0472 0 0 0 2.0472-2.0473v-4.9553a2.1621 2.1621 0 0 1 1.8662-2.188 2.08 2.08 0 0 1 2.2969 2.0661v4.7245a2.1622 2.1622 0 0 0 1.8662 2.1881 2.08 2.08 0 0 0 2.297-2.0661v-6.3786a2.162 2.162 0 0 1 1.8661-2.1879 2.08 2.08 0 0 1 2.297 2.0661v1.5737a2.1618 2.1618 0 0 0 1.866 2.1878 2.08 2.08 0 0 0 2.2971-2.0661v-.5352a2.1621 2.1621 0 0 1 1.8662-2.1879 2.08 2.08 0 0 1 2.297 2.0662v1.541a2.1622 2.1622 0 0 0 1.8661 2.1881 2.08 2.08 0 0 0 2.297-2.066v-5.9258a2.162 2.162 0 0 1 1.8662-2.188 2.08 2.08 0 0 1 2.2969 2.0661v9.4552a2.1619 2.1619 0 0 0 1.8662 2.1878 2.08 2.08 0 0 0 2.2969-2.0661v-6.109a2.162 2.162 0 0 1 1.8661-2.1879 2.08 2.08 0 0 1 2.297 2.0661v1.7784a2.162 2.162 0 0 0 1.8662 2.1878 2.08 2.08 0 0 0 2.297-2.0662v-.1243a2.162 2.162 0 0 1 1.8659-2.1879 2.08 2.08 0 0 1 2.2969 2.0661v5.0772a2.0473 2.0473 0 0 0 2.0474 2.0473 2.0433 2.0433 0 0 0 2.0473-2.0386c.0039-2.0256.0075-4.8317.0075-4.8317a26.9643 26.9643 0 0 0 -26.9991-27.1297z" fill="#f03228"/><path d="m38 3h4a0 0 0 0 1 0 0v4a6 6 0 0 1 -6 6h-4a0 0 0 0 1 0 0v-4a6 6 0 0 1 6-6z" fill="#82c8aa"/><path d="m22 3h4a6 6 0 0 1 6 6v4a0 0 0 0 1 0 0h-4a6 6 0 0 1 -6-6v-4a0 0 0 0 1 0 0z" fill="#82c8aa" transform="matrix(-1 0 0 -1 54 16)"/><path d="m32 5a4 4 0 1 1 -4 4 4 4 0 0 1 4-4" fill="#f03228"/><circle cx="31.5" cy="9" fill="#fa463c" r="1.5"/></svg>