<svg id="cupcake1" height="512" viewBox="0 0 64 64" width="512" xmlns="http://www.w3.org/2000/svg"><path d="m32 10c-15.4478 0-27.0991 14.0008-24 30l24 20 24-20c3.0991-15.9992-8.5522-30-24-30z" fill="#f1d29a"/><path d="m24 40 2.3334 20h5.6666v-12a8 8 0 0 0 -8-8z" fill="#aad7c3"/><path d="m17.8178 47.7907 2.8489 12.2093h5.6666l-2.3333-20a6.3482 6.3482 0 0 0 -6.1822 7.7907z" fill="#82c8aa"/><path d="m40 40-2.3333 20h5.6666l2.8489-12.2093a6.3482 6.3482 0 0 0 -6.1822-7.7907z" fill="#aad7c3"/><path d="m8 40 7 20h5.6667l-2.8489-12.2093a10.0814 10.0814 0 0 0 -9.8178-7.7907z" fill="#aad7c3"/><path d="m32 48v12h5.6667l2.3333-20a8 8 0 0 0 -8 8z" fill="#82c8aa"/><path d="m46.1822 47.7907-2.8489 12.2093h5.6667l7-20a10.0814 10.0814 0 0 0 -9.8178 7.7907z" fill="#82c8aa"/><path d="m26.852 4.8535a2.91 2.91 0 0 1 4.118 0l1.03 1.028 1.03-1.028a2.9119 2.9119 0 0 1 4.118 4.118l-5.148 5.0285-5.148-5.0285a2.914 2.914 0 0 1 0-4.118z" fill="#fa463c"/><circle cx="20" cy="23" fill="#fa463c" r="2"/><circle cx="37" cy="28" fill="#82c8aa" r="2"/><g fill="#885e2d"><circle cx="28" cy="34" r="2"/><circle cx="31" cy="20" r="2"/><circle cx="45" cy="22" r="2"/></g><circle cx="48" cy="34" fill="#fa463c" r="2"/><circle cx="14" cy="32" fill="#82c8aa" r="2"/></svg>