<svg id="cupcake1" height="512" viewBox="0 0 64 64" width="512" xmlns="http://www.w3.org/2000/svg"><path d="m8 40a23.9941 23.9941 0 0 1 41.88-16h.01a23.9319 23.9319 0 0 1 6.11 16" fill="#f1d29a"/><path d="m16.7332 34.1818c3.8211 0 3.8211-4.3636 7.6421-4.3636 3.8184 0 3.8184 4.3636 7.6369 4.3636 3.8151 0 3.8151-4.3636 7.63-4.3636 3.8172 0 3.8172 4.3636 7.6344 4.3636 3.4029 0 3.7809-3.4591 6.5267-4.21a23.9988 23.9988 0 0 0 -43.6068 0c2.7508.7498 3.1288 4.21 6.5367 4.21z" fill="#ff5f50"/><path d="m8 40 7 20h34l7-20z" fill="#ff5f50"/><path d="m51.45 53 2.1-6h-43.1l2.1 6z" fill="#82c8aa"/><path d="m51.45 53 2.1-6h-43.1l2.1 6z" fill="#f03228"/><path d="m40.91 16.0028c-.8128 4.61-4.7053 6.0046-8.8977 5.9972s-8.0837-1.3153-8.9187-5.9615c-.8308-4.6207 4.032-12.0471 8.8864-12.0385s9.7483 7.36 8.93 12.0028z" fill="#f03228"/><path d="m23.0933 16.0385c.835 4.6462 4.7267 5.9541 8.9187 5.9615.4957.0008.9866-.02 1.4693-.061-3.574-.3146-6.6559-1.8216-7.388-5.8952-.7449-4.1438 3.0905-10.5418 7.3919-11.8114a5.3275 5.3275 0 0 0 -1.5052-.2324c-4.8544-.0086-9.7172 7.4178-8.8867 12.0385z" fill="#fa463c"/><g fill="#ffd239"><circle cx="36" cy="15" r="1"/><circle cx="35" cy="10" r="1"/><circle cx="32" cy="13" r="1"/><circle cx="32" cy="17" r="1"/><circle cx="28" cy="15" r="1"/><circle cx="29" cy="10" r="1"/></g></svg>