<svg id="cupcake1" height="512" viewBox="0 0 64 64" width="512" xmlns="http://www.w3.org/2000/svg"><path d="m44 28h-24a12 12 0 0 0 -12 12l24 19 24-19a12 12 0 0 0 -12-12z" fill="#e6a759"/><path d="m32 4c.3963 4.0831.7895 14.2105.7895 20.5263.0005 5.2322 3.452 9.4737 8.6842 9.4737a9.4737 9.4737 0 0 0 9.4737-9.4737c0-11.0526-18.9474-20.5263-18.9474-20.5263z" fill="#e0eaeb"/><path d="m15.34 20.5789c-5.03 5.5095-.9883 13.4211 4.6271 13.4211 8.0219 0 12.0329-6.7983 12.0329-14.21v-15.79c-4.8132 8.6842-12.3739 11.8847-16.66 16.5789z" fill="#e0eaeb"/><path d="m17.4685 22.5258c4.273 2.9921 8.4393 1.0238 11.737-2.2856s5.3334-7.4063 2.33-11.7254c-2.9866-4.2955-12.67-6.3156-16.489-2.4834s-1.8819 13.4807 2.422 16.4944z" fill="#fa463c"/><path d="m29.2055 20.24c3.2977-3.3093 5.3334-7.4063 2.33-11.7254-1.6455-2.3665-5.3237-4.0346-8.9342-4.422a7.5442 7.5442 0 0 0 -4.5545 1.9388c-3.8187 3.8322-1.8822 13.4807 2.4218 16.4944a8.0254 8.0254 0 0 0 2.87 1.2986 12.3486 12.3486 0 0 0 5.8669-3.5844z" fill="#f03228"/><g fill="#ffd239"><circle cx="20.066" cy="18.088" r="1"/><circle cx="17.237" cy="12.431" r="1"/><circle cx="22.187" cy="13.138" r="1"/><circle cx="25.723" cy="16.674" r="1"/><circle cx="27.137" cy="11.017" r="1"/><circle cx="21.48" cy="8.189" r="1"/></g><path d="m32 4c.3963 4.0831-9.4737 14.2105-9.4737 20.5263a9.4737 9.4737 0 0 0 18.9474 0c0-10.2631-9.4737-20.5263-9.4737-20.5263z" fill="#edf3f4"/><path d="m24 40 2.3334 20h5.6666v-12a8 8 0 0 0 -8-8z" fill="#fa463c"/><path d="m17.8178 47.7907 2.8489 12.2093h5.6666l-2.3333-20a6.3482 6.3482 0 0 0 -6.1822 7.7907z" fill="#82c8aa"/><path d="m40 40-2.3333 20h5.6666l2.8489-12.2093a6.3482 6.3482 0 0 0 -6.1822-7.7907z" fill="#fa463c"/><path d="m8 40 7 20h5.6667l-2.8489-12.2093a10.0814 10.0814 0 0 0 -9.8178-7.7907z" fill="#fa463c"/><path d="m32 48v12h5.6667l2.3333-20a8 8 0 0 0 -8 8z" fill="#82c8aa"/><path d="m46.1822 47.7907-2.8489 12.2093h5.6667l7-20a10.0814 10.0814 0 0 0 -9.8178 7.7907z" fill="#82c8aa"/></svg>