<svg id="cupcake1" height="512" viewBox="0 0 64 64" width="512" xmlns="http://www.w3.org/2000/svg"><path d="m44 28-12-6-12 6a12 12 0 0 0 -12 12h48a12 12 0 0 0 -12-12z" fill="#eab966"/><path d="m46 28.39a5.8767 5.8767 0 0 1 -4.0568 1.61 5.94 5.94 0 0 1 -4.9716-2.69 5.9392 5.9392 0 0 1 -9.9432 0 5.94 5.94 0 0 1 -4.9716 2.69 5.8767 5.8767 0 0 1 -4.0568-1.61 15.8756 15.8756 0 0 1 28 0z" fill="#6e5332"/><path d="m39.1792 12.62a4.6181 4.6181 0 0 0 -6.37-2.0367 2.77 2.77 0 0 0 -.7662.5875 2.7714 2.7714 0 0 0 -.7662-.5875 4.6181 4.6181 0 0 0 -6.37 2.0367 8.3068 8.3068 0 0 0 -.8639 3.5734 7.5587 7.5587 0 0 0 8 7.8064 7.5587 7.5587 0 0 0 8-7.8064 8.3068 8.3068 0 0 0 -.8637-3.5734z" fill="#f03228"/><path d="m31.9961 14h-.0361a1 1 0 0 1 -.9639-1.0342 6.6172 6.6172 0 0 0 -6.9609-6.9609.9753.9753 0 0 1 -1.0342-.9649 1 1 0 0 1 .9638-1.0342 8.6154 8.6154 0 0 1 9.0293 9.0293.9993.9993 0 0 1 -.998.9649z" fill="#a3c539"/><circle cx="29" cy="16" fill="#fa463c" r="2"/><path d="m56 40-.07.2-4.03 11.492v.008l-.05.142v.008l-2.85 8.15h-34l-7-20z" fill="#edf3f4"/><g fill="#fa463c"><path d="m22.6 60h-7.6l-7-20h7.86z"/><path d="m38.6 60h-7.9l-6.74-20h7.9z"/><path d="m51.85 51.842v.008l-2.85 8.15h-2.3l-6.74-20h7.9z"/></g></svg>