<svg id="cupcake1" height="512" viewBox="0 0 64 64" width="512" xmlns="http://www.w3.org/2000/svg"><path d="m20 28h24a12 12 0 0 1 12 12 0 0 0 0 1 0 0h-48a0 0 0 0 1 0 0 12 12 0 0 1 12-12z" fill="#aa6f2a"/><path d="m32 12a18 18 0 0 0 -18 18 10 10 0 0 0 12 0 10 10 0 0 0 12 0 10 10 0 0 0 12 0 18 18 0 0 0 -18-18z" fill="#ffd239"/><circle cx="32" cy="13" fill="#fa463c" r="5"/><path d="m32 9a1 1 0 0 1 -1-1 3.0033 3.0033 0 0 0 -3-3 1 1 0 0 1 0-2 5.0059 5.0059 0 0 1 5 5 1 1 0 0 1 -1 1z" fill="#a3c539"/><path d="m56 40-.07.2-4.03 11.492v.008l-.05.142v.008l-2.85 8.15h-34l-7-20z" fill="#6e5332"/><g fill="#ffd239"><path d="m22.6 60h-7.6l-7-20h7.86z"/><path d="m38.6 60h-7.9l-6.74-20h7.9z"/><path d="m51.85 51.842v.008l-2.85 8.15h-2.3l-6.74-20h7.9z"/></g></svg>