<svg id="cupcake1" height="512" viewBox="0 0 64 64" width="512" xmlns="http://www.w3.org/2000/svg"><path d="m42.5 10a7.4647 7.4647 0 0 0 -3.051.6528 7.4966 7.4966 0 0 0 -14.898 0 7.4984 7.4984 0 1 0 -3.051 14.3472h21a7.5 7.5 0 0 0 0-15z" fill="#885e2d"/><path d="m24 40 2.333 20h5.667v-20z" fill="#e6a759"/><path d="m16 40 4.667 20h5.666l-2.333-20z" fill="#eab978"/><path d="m40 40-2.333 20h5.666l4.667-20z" fill="#e6a759"/><path d="m8 40 7 20h5.667l-4.667-20z" fill="#e6a759"/><path d="m32 40v20h5.667l2.333-20z" fill="#eab978"/><path d="m48 40-4.667 20h5.667l7-20z" fill="#eab978"/><path d="m5 44a3 3 0 0 0 3 3 3 3 0 0 0 3-3v-1a3 3 0 0 1 3-3 3 3 0 0 1 3 3v1a3 3 0 0 0 3 3 3 3 0 0 0 3-3v-1a3 3 0 0 1 3-3 3 3 0 0 1 3 3v1a3 3 0 0 0 3 3 3 3 0 0 0 3-3v-1a3 3 0 0 1 3-3 3 3 0 0 1 3 3v1a3 3 0 0 0 3 3 3 3 0 0 0 3-3v-1a3 3 0 0 1 3-3 3 3 0 0 1 3 3v1a3 3 0 0 0 3 3 3 3 0 0 0 3-3 21 21 0 0 0 -21-21h-12a21 21 0 0 0 -21 21z" fill="#edf3f4"/><path d="m28 15h2a0 0 0 0 1 0 0v2a6 6 0 0 1 -6 6h-2a0 0 0 0 1 0 0v-2a6 6 0 0 1 6-6z" fill="#a3c539" transform="matrix(0 -1 1 0 7 45)"/><path d="m22 23h2a6 6 0 0 1 6 6v2a0 0 0 0 1 0 0h-2a6 6 0 0 1 -6-6v-2a0 0 0 0 1 0 0z" fill="#a3c539" transform="matrix(0 1 -1 0 53 1)"/><circle cx="34" cy="23" fill="#fa463c" r="5"/><path d="m36 22a1 1 0 0 1 -.5239-1.8525 5.9986 5.9986 0 0 0 2.5229-5.1324 1 1 0 1 1 2-.03 7.9974 7.9974 0 0 1 -3.4814 6.87.9967.9967 0 0 1 -.5176.1449z" fill="#a3c539"/></svg>