<svg id="cupcake1" height="512" viewBox="0 0 64 64" width="512" xmlns="http://www.w3.org/2000/svg"><path d="m44 28h-24a12 12 0 0 0 -12 12l24 19 24-19a12 12 0 0 0 -12-12z" fill="#eab966"/><path d="m32 4c.3963 4.0831.7895 14.2105.7895 20.5263.0005 5.2322 3.452 9.4737 8.6842 9.4737a9.4737 9.4737 0 0 0 9.4737-9.4737c0-11.0526-18.9474-20.5263-18.9474-20.5263z" fill="#e0eaeb"/><path d="m15.34 20.5789c-5.03 5.5095-.9883 13.4211 4.6271 13.4211 8.0219 0 12.0329-6.7983 12.0329-14.21v-15.79c-4.8132 8.6842-12.3739 11.8847-16.66 16.5789z" fill="#e0eaeb"/><path d="m32 4c.3963 4.0831-9.4737 14.2105-9.4737 20.5263a9.4737 9.4737 0 0 0 18.9474 0c0-10.2631-9.4737-20.5263-9.4737-20.5263z" fill="#edf3f4"/><path d="m56 40-.07.2-4.03 11.492v.008l-.05.142v.008l-2.85 8.15h-34l-7-20z" fill="#fa463c"/><g fill="#f03228"><path d="m22.6 60h-7.6l-7-20h7.86z"/><path d="m38.6 60h-7.9l-6.74-20h7.9z"/><path d="m51.85 51.842v.008l-2.85 8.15h-2.3l-6.74-20h7.9z"/></g></svg>