<svg id="cupcake1" height="512" viewBox="0 0 64 64" width="512" xmlns="http://www.w3.org/2000/svg"><path d="m47.5179 19.1648a15.98 15.98 0 0 0 -31.0358 0 12.4546 12.4546 0 0 0 -11.4821 12.4121 12.1538 12.1538 0 0 0 2.0769 7.2692l3.1154 4.1539 7.8077 10h28l7.8077-10 3.1154-4.1539a12.1538 12.1538 0 0 0 2.0769-7.2692 12.4546 12.4546 0 0 0 -11.4821-12.4121z" fill="#ffd239"/><path d="m47.5179 19.1648a15.98 15.98 0 0 0 -31.0358 0 12.4546 12.4546 0 0 0 -11.4821 12.4121 12.1538 12.1538 0 0 0 2.0769 7.2692l3.1154 4.1539 7.8077 10h28l7.8077-10 3.1154-4.1539a12.1538 12.1538 0 0 0 2.0769-7.2692 12.4546 12.4546 0 0 0 -11.4821-12.4121z" fill="#e0eaeb"/><path d="m24 40 2.3334 20h5.6666v-12a8 8 0 0 0 -8-8z" fill="#f03228"/><path d="m17.8178 47.7907 2.8489 12.2093h5.6666l-2.3333-20a6.3482 6.3482 0 0 0 -6.1822 7.7907z" fill="#a3c539"/><path d="m40 40-2.3333 20h5.6666l2.8489-12.2093a6.3482 6.3482 0 0 0 -6.1822-7.7907z" fill="#f03228"/><path d="m8 40 7 20h5.6667l-2.8489-12.2093a10.0814 10.0814 0 0 0 -9.8178-7.7907z" fill="#f03228"/><path d="m32 48v12h5.6667l2.3333-20a8 8 0 0 0 -8 8z" fill="#a3c539"/><path d="m46.1822 47.7907-2.8489 12.2093h5.6667l7-20a10.0814 10.0814 0 0 0 -9.8178 7.7907z" fill="#a3c539"/><path d="m47.5179 19.1648a15.98 15.98 0 0 0 -31.0358 0 12.4546 12.4546 0 0 0 -11.4821 12.4121c0 .5168.0293 1.0229.0745 1.5227a2.0726 2.0726 0 0 0 4.0794-.5227v-1.0384a2.0769 2.0769 0 1 1 4.1538 0v2.0769a2.0769 2.0769 0 1 0 4.1538 0v-5.1924a2.077 2.077 0 0 1 4.1539 0v6.2308a2.0769 2.0769 0 1 0 4.1538 0v-5.1923a2.077 2.077 0 0 1 4.1539 0v3.1154a2.0769 2.0769 0 1 0 4.1538 0v-3.1154a2.077 2.077 0 0 1 4.1539 0v5.1923a2.0769 2.0769 0 1 0 4.1538 0v-6.2308a2.077 2.077 0 0 1 4.1539 0v5.1924a2.0769 2.0769 0 0 0 4.1538 0v-2.0769a2.0769 2.0769 0 1 1 4.1538 0v1.0384a2.0726 2.0726 0 0 0 4.0794.5227c.0452-.5.0745-1.0059.0745-1.5227a12.4546 12.4546 0 0 0 -11.4821-12.4121z" fill="#aa6f2a"/><path d="m41.2426 3.2164h1.8918a0 0 0 0 1 0 0v1.8918a5.6754 5.6754 0 0 1 -5.6754 5.6754h-1.8918a0 0 0 0 1 0 0v-1.8918a5.6754 5.6754 0 0 1 5.6754-5.6754z" fill="#a3c539" transform="matrix(.707 .707 -.707 .707 16.475 -25.775)"/><path d="m20.8656 3.2164h1.8918a5.6754 5.6754 0 0 1 5.6754 5.6754v1.8918a0 0 0 0 1 0 0h-1.8918a5.6754 5.6754 0 0 1 -5.6754-5.6754v-1.8918a0 0 0 0 1 0 0z" fill="#a3c539" transform="matrix(-.707 .707 -.707 -.707 47.029 -5.48)"/><path d="m32 4a4 4 0 1 1 -4 4 4 4 0 0 1 4-4" fill="#f03228"/><circle cx="31.5" cy="8" fill="#fa463c" r="1.5"/></svg>