<svg id="cupcake1" height="512" viewBox="0 0 64 64" width="512" xmlns="http://www.w3.org/2000/svg"><path d="m32 9a22 22 0 0 1 22 22 0 0 0 0 1 0 0h-44a0 0 0 0 1 0 0 22 22 0 0 1 22-22z" fill="#f1d29a"/><path d="m39.722 4.28a4.3653 4.3653 0 0 0 -6.177 0l-1.545 1.5423-1.545-1.5423a4.3678 4.3678 0 0 0 -6.177 6.1769l7.722 7.5431 7.722-7.5428a4.3708 4.3708 0 0 0 0-6.1772z" fill="#f0638c"/><path d="m50 24a7.9612 7.9612 0 0 0 -4.4565 1.3563 7.9847 7.9847 0 0 0 -13.5435-2.6356 7.9847 7.9847 0 0 0 -13.5435 2.6356 8 8 0 1 0 -4.4565 14.6437h36a8 8 0 0 0 0-16z" fill="#eab966"/><g fill="#6e5332"><path d="m23.8141 38.4067 2.5192 21.5933h5.6667v-22.0509a3.9491 3.9491 0 0 0 -3.9491-3.9491h-.3143a3.9491 3.9491 0 0 0 -3.9225 4.4067z"/><path d="m7.7388 39.2537 7.2612 20.7463h5.6667l-5.3546-22.9482a3.9492 3.9492 0 0 0 -3.8459-3.0518 3.9492 3.9492 0 0 0 -3.7274 5.2537z"/><path d="m40.2927 37.4915-2.626 22.5085h5.6666l4.9359-21.1535a3.9492 3.9492 0 0 0 -3.8458-4.8465h-.2082a3.9491 3.9491 0 0 0 -3.9225 3.4915z"/></g><path d="m15.7308 38.8465 4.9359 21.1535h5.6666l-2.626-22.5085a3.9491 3.9491 0 0 0 -3.9225-3.4915h-.2082a3.9492 3.9492 0 0 0 -3.8458 4.8465z" fill="#856448"/><path d="m32 37.9491v22.0509h5.6667l2.5192-21.5933a3.9491 3.9491 0 0 0 -3.9225-4.4067h-.3143a3.9491 3.9491 0 0 0 -3.9491 3.9491z" fill="#856448"/><path d="m48.6879 37.0518-5.3546 22.9482h5.6667l7.2612-20.7463a3.9492 3.9492 0 0 0 -3.7274-5.2537 3.9492 3.9492 0 0 0 -3.8459 3.0518z" fill="#856448"/></svg>