<svg id="cupcake1" height="512" viewBox="0 0 64 64" width="512" xmlns="http://www.w3.org/2000/svg"><circle cx="32.071" cy="6" fill="#fa463c" r="3"/><circle cx="29.5" cy="9" fill="#ff5f50" r="3"/><circle cx="34.5" cy="9" fill="#f03228" r="3"/><circle cx="27" cy="12" fill="#f03228" r="3"/><circle cx="32" cy="12" fill="#fa463c" r="3"/><circle cx="37" cy="12" fill="#ff5f50" r="3"/><path d="m21 21h22a7 7 0 0 1 7 7 2 2 0 0 1 -2 2h-32a2 2 0 0 1 -2-2 7 7 0 0 1 7-7z" fill="#edf3f4"/><path d="m26 13h12a6 6 0 0 1 6 6 2 2 0 0 1 -2 2h-20a2 2 0 0 1 -2-2 6 6 0 0 1 6-6z" fill="#e0eaeb"/><path d="m14 30h36a8 8 0 0 1 8 8 2 2 0 0 1 -2 2h-48a2 2 0 0 1 -2-2 8 8 0 0 1 8-8z" fill="#e0eaeb"/><path d="m56 40-.07.2-4.03 11.492v.008l-.05.142v.008l-2.85 8.15h-34l-7-20z" fill="#82c8aa"/><g fill="#aad7c3"><path d="m22.6 60h-7.6l-7-20h7.86z"/><path d="m38.6 60h-7.9l-6.74-20h7.9z"/><path d="m51.85 51.842v.008l-2.85 8.15h-2.3l-6.74-20h7.9z"/></g><path d="m54 36a4.98 4.98 0 0 0 -4.4 2.6723 4.9585 4.9585 0 0 0 -8.8 0 4.9585 4.9585 0 0 0 -8.8 0 4.9585 4.9585 0 0 0 -8.8 0 4.9585 4.9585 0 0 0 -8.8 0 5 5 0 1 0 0 4.6554 4.9585 4.9585 0 0 0 8.8 0 4.9585 4.9585 0 0 0 8.8 0 4.9585 4.9585 0 0 0 8.8 0 4.9585 4.9585 0 0 0 8.8 0 4.9906 4.9906 0 1 0 4.4-7.3277z" fill="#edf3f4"/></svg>