<svg id="cupcake1" height="512" viewBox="0 0 64 64" width="512" xmlns="http://www.w3.org/2000/svg"><path d="m32 10a22 22 0 0 1 22 22 0 0 0 0 1 0 0h-44a0 0 0 0 1 0 0 22 22 0 0 1 22-22z" fill="#aa6f2a"/><path d="m50 24a7.9737 7.9737 0 0 0 -6.0253 2.7485 3.991 3.991 0 0 0 -7.9747.2515 4 4 0 0 0 -8 0 3.991 3.991 0 0 0 -7.9747-.2515 7.997 7.997 0 1 0 -6.0253 13.2515h36a8 8 0 0 0 0-16z" fill="#885e2d"/><path d="m23.8141 38.4067 2.5192 21.5933h5.6667v-22.0509a3.9491 3.9491 0 0 0 -3.9491-3.9491h-.3143a3.9491 3.9491 0 0 0 -3.9225 4.4067z" fill="#ffd239"/><path d="m7.7388 39.2537 7.2612 20.7463h5.6667l-5.3546-22.9482a3.9492 3.9492 0 0 0 -3.8459-3.0518 3.9492 3.9492 0 0 0 -3.7274 5.2537z" fill="#ffd239"/><path d="m40.2927 37.4915-2.626 22.5085h5.6666l4.9359-21.1535a3.9492 3.9492 0 0 0 -3.8458-4.8465h-.2082a3.9491 3.9491 0 0 0 -3.9225 3.4915z" fill="#ffd239"/><path d="m15.7308 38.8465 4.9359 21.1535h5.6666l-2.626-22.5085a3.9491 3.9491 0 0 0 -3.9225-3.4915h-.2082a3.9492 3.9492 0 0 0 -3.8458 4.8465z" fill="#ffad34"/><path d="m32 37.9491v22.0509h5.6667l2.5192-21.5933a3.9491 3.9491 0 0 0 -3.9225-4.4067h-.3143a3.9491 3.9491 0 0 0 -3.9491 3.9491z" fill="#ffad34"/><path d="m48.6879 37.0518-5.3546 22.9482h5.6667l7.2612-20.7463a3.9492 3.9492 0 0 0 -3.7274-5.2537 3.9492 3.9492 0 0 0 -3.8459 3.0518z" fill="#ffad34"/><path d="m20 4v1a12 12 0 1 0 24 0v-1z" fill="#ffd239"/><g fill="#ffad34"><path d="m29.5859 6-3.9059 3.9062a7.9207 7.9207 0 0 1 -1.6185-3.9062z"/><path d="m27.094 11.3205 3.906-3.9063v5.5243a7.9141 7.9141 0 0 1 -3.906-1.618z"/><path d="m33 12.9385v-5.5243l3.906 3.9063a7.9141 7.9141 0 0 1 -3.906 1.618z"/><path d="m38.32 9.9062-3.9059-3.9062h5.5244a7.9207 7.9207 0 0 1 -1.6185 3.9062z"/></g></svg>