<svg id="cupcake1" height="512" viewBox="0 0 64 64" width="512" xmlns="http://www.w3.org/2000/svg"><path d="m32 10a24 24 0 0 0 -24 24h48a24 24 0 0 0 -24-24z" fill="#eab978"/><path d="m16.7332 28c3.8211 0 3.8211-4.3636 7.6421-4.3636 3.8184 0 3.8184 4.3636 7.6369 4.3636 3.8151 0 3.8151-4.3636 7.63-4.3636 3.8178 0 3.8178 4.3636 7.6346 4.3636 3.4029 0 3.7809-3.4591 6.5267-4.21a23.9988 23.9988 0 0 0 -43.6068 0c2.7506.75 3.1286 4.21 6.5365 4.21z" fill="#edf3f4"/><path d="m38 4h2a0 0 0 0 1 0 0v2a6 6 0 0 1 -6 6h-2a0 0 0 0 1 0 0v-2a6 6 0 0 1 6-6z" fill="#a3c539"/><path d="m24 4h2a6 6 0 0 1 6 6v2a0 0 0 0 1 0 0h-2a6 6 0 0 1 -6-6v-2a0 0 0 0 1 0 0z" fill="#a3c539" transform="matrix(-1 0 0 -1 56 16)"/><g fill="#ffd239"><circle cx="45" cy="20" r="2"/><circle cx="19" cy="20" r="2"/><circle cx="38" cy="17" r="2"/><circle cx="32" cy="21" r="2"/><circle cx="26" cy="17" r="2"/></g><path d="m56 40-.07.2-4.03 11.492v.008l-.05.142v.008l-2.85 8.15h-34l-7-20z" fill="#a3c539"/><path d="m22.6 60h-7.6l-7-20h7.86z" fill="#c7db7e"/><path d="m38.6 60h-7.9l-6.74-20h7.9z" fill="#c7db7e"/><path d="m51.85 51.842v.008l-2.85 8.15h-2.3l-6.74-20h7.9z" fill="#c7db7e"/><rect fill="#ffd239" height="6" rx="3" width="54" x="5" y="34"/></svg>