<svg id="cupcake1" height="512" viewBox="0 0 64 64" width="512" xmlns="http://www.w3.org/2000/svg"><circle cx="30" cy="9" fill="#ffd239" r="5"/><path d="m24 40 2.333 20h5.667v-20z" fill="#e6a759"/><path d="m16 40 4.667 20h5.666l-2.333-20z" fill="#e19336"/><path d="m40 40-2.333 20h5.666l4.667-20z" fill="#e6a759"/><path d="m8 40 7 20h5.667l-4.667-20z" fill="#e6a759"/><path d="m32 40v20h5.667l2.333-20z" fill="#e19336"/><path d="m48 40-4.667 20h5.667l7-20z" fill="#e19336"/><path d="m5 40v4.0018a2.9981 2.9981 0 0 0 3 2.9982h.0018a3 3 0 0 0 2.9982-3v-1a3 3 0 0 1 3-3 3.0016 3.0016 0 0 1 3.0018 3.0012v1.0016a2.9979 2.9979 0 0 0 2.9982 2.9972 2.998 2.998 0 0 0 2.9981-2.9987v-1.0887a2.9115 2.9115 0 0 1 2.9119-2.9126h.0754a3.0046 3.0046 0 0 1 3.0163 3.0011v1.0013a2.9981 2.9981 0 0 0 2.9983 2.9976 2.9981 2.9981 0 0 0 2.9983-2.9988v-1.0889a2.9113 2.9113 0 0 1 2.9117-2.9123h.0754a3.0042 3.0042 0 0 1 3.0159 3.001v1a2.9987 2.9987 0 0 0 2.9987 2.999 2.9987 2.9987 0 0 0 2.9988-2.9992v-1.089a2.9107 2.9107 0 0 1 2.9112-2.9118h.0753a3.0031 3.0031 0 0 1 3.0147 3v1a3 3 0 0 0 2.9991 3 3 3 0 0 0 3.0009-3v-4a20 20 0 0 0 -20-20h-14a20 20 0 0 0 -20 20z" fill="#e0eaeb"/><path d="m37.889 5.0485-.1747-1.0485-1.45 1.74a14.2208 14.2208 0 0 1 -10.9248 5.1169 4.7041 4.7041 0 0 0 -4.7466 4.1231 4.5723 4.5723 0 0 0 4.55 5.02h13.5178a4.7041 4.7041 0 0 0 4.7464-4.1224 4.5638 4.5638 0 0 0 -1.4487-3.8076 12.47 12.47 0 0 1 -4.0694-7.0215z" fill="#edf3f4"/><path d="m51.21 13.7983a1 1 0 0 1 -.7071-1.707l2.8286-2.8286a1 1 0 0 1 1.4141 1.4141l-2.8286 2.8286a.9967.9967 0 0 1 -.707.2929z" fill="#7da834"/><path d="m56.0083 14h-5a1 1 0 1 1 0-2h5a1 1 0 0 1 0 2z" fill="#7da834"/><path d="m51.0083 14a1 1 0 0 1 -1-1v-5a1 1 0 0 1 2 0v5a1 1 0 0 1 -1 1z" fill="#7da834"/><path d="m39.4685 10.4742c4.273-2.9921 8.4393-1.0238 11.737 2.2856s5.3334 7.4063 2.33 11.7254c-2.9866 4.2955-12.67 6.3156-16.489 2.4834s-1.8819-13.4807 2.422-16.4944z" fill="#fa463c"/><path d="m53.5358 24.4853c3.0031-4.3192.9674-8.4162-2.33-11.7255q-.5848-.587-1.2058-1.11c2.5683 3.0643 3.8094 6.68 1.1763 10.4671-2.679 3.8531-10.7424 5.8717-15.1323 3.4831a5.9316 5.9316 0 0 0 1.0028 1.369c3.8186 3.8318 13.5024 1.8117 16.489-2.4837z" fill="#f03228"/><g fill="#ffd239"><circle cx="49.088" cy="21.934" r="1"/><circle cx="43.431" cy="24.763" r="1"/><circle cx="44.138" cy="19.813" r="1"/><circle cx="47.674" cy="16.277" r="1"/><circle cx="42.017" cy="14.863" r="1"/><circle cx="39.189" cy="20.52" r="1"/></g></svg>