<svg id="cupcake1" height="512" viewBox="0 0 64 64" width="512" xmlns="http://www.w3.org/2000/svg"><path d="m32 10c-15.4478 0-27.0991 14.0008-24 30h48c3.0991-15.9992-8.5522-30-24-30z" fill="#e0eaeb"/><path d="m47.0719 31.9472a1.0021 1.0021 0 0 1 -.9668-1.2593l4-14.9282a1 1 0 0 1 1.9317.5176l-4 14.9282a1 1 0 0 1 -.9649.7417z" fill="#6e5332"/><path d="m24 40 2.333 20h5.667v-20z" fill="#f03228"/><path d="m16 40 4.667 20h5.666l-2.333-20z" fill="#6e5332"/><path d="m40 40-2.333 20h5.666l4.667-20z" fill="#f03228"/><path d="m8 40 7 20h5.667l-4.667-20z" fill="#f03228"/><g fill="#6e5332"><path d="m32 40v20h5.667l2.333-20z"/><path d="m48 40-4.667 20h5.667l7-20z"/><path d="m32 4a6 6 0 1 1 -6 6 6 6 0 0 1 6-6"/></g><circle cx="30" cy="9" fill="#877058" r="2"/><path d="m48.4928 5.413a2.9206 2.9206 0 0 1 4.0454 1.0839l.735 1.3031 1.2877-.7606a2.9206 2.9206 0 0 1 4.0454 1.084 3.0636 3.0636 0 0 1 -1.1056 4.1263l-6.43 3.7692-3.6835-6.4796a3.0635 3.0635 0 0 1 1.1056-4.1263z" fill="#f03228"/><path d="m50.7028 17.3935-4.1846-7.36a4.0727 4.0727 0 0 1 1.4659-5.4814 3.92 3.92 0 0 1 5.4248 1.4541l.2334.414.41-.2417a3.92 3.92 0 0 1 5.4248 1.4537 4.0716 4.0716 0 0 1 -1.4677 5.4778zm-.7139-11.3935a1.9415 1.9415 0 0 0 -.9873.2734v.0005a2.0611 2.0611 0 0 0 -.7431 2.774l3.1806 5.5952 5.5557-3.2573a2.06 2.06 0 0 0 .74-2.772 1.92 1.92 0 0 0 -2.6648-.7138l-2.166 1.2791-1.2373-2.19a1.9214 1.9214 0 0 0 -1.6778-.9891z" fill="#fa463c"/></svg>