<svg id="cupcake1" height="512" viewBox="0 0 64 64" width="512" xmlns="http://www.w3.org/2000/svg"><path d="m8 40 7 20h34l7-20z" fill="#f0638c"/><path d="m51.45 53 2.1-6h-43.1l2.1 6z" fill="#82c8aa"/><path d="m24.9289 11.0711a9.9689 9.9689 0 0 0 7.0711 2.9289v-10z" fill="#ffad34"/><path d="m32 14a9.9689 9.9689 0 0 0 7.0711-2.9289l-7.0711-7.0711z" fill="#ffd239"/><path d="m22 4a9.9689 9.9689 0 0 0 2.9289 7.0711l7.0711-7.0711z" fill="#ffd239"/><path d="m39.0711 11.0711a9.9685 9.9685 0 0 0 2.9289-7.0711h-10z" fill="#ffad34"/><path d="m51.45 53 2.1-6h-43.1l2.1 6z" fill="#82c8aa"/><path d="m20 28h24a12 12 0 0 1 12 12 0 0 0 0 1 0 0h-48a0 0 0 0 1 0 0 12 12 0 0 1 12-12z" fill="#eab966"/><path d="m32 12a18 18 0 0 0 -18 18 10 10 0 0 0 12 0 10 10 0 0 0 12 0 10 10 0 0 0 12 0 18 18 0 0 0 -18-18z" fill="#f0638c"/><g fill="#edf3f4"><path d="m31 27a1 1 0 0 1 -.707-1.707l2-2a1 1 0 0 1 1.414 1.414l-2 2a.9967.9967 0 0 1 -.707.293z"/><path d="m37 21a1 1 0 0 1 -.707-1.707l2-2a1 1 0 0 1 1.414 1.414l-2 2a.9967.9967 0 0 1 -.707.293z"/><path d="m27 21a.9967.9967 0 0 1 -.707-.293l-2-2a1 1 0 0 1 1.414-1.414l2 2a1 1 0 0 1 -.707 1.707z"/><path d="m23 27a.9967.9967 0 0 1 -.707-.293l-2-2a1 1 0 0 1 1.414-1.414l2 2a1 1 0 0 1 -.707 1.707z"/><path d="m43 27a.9967.9967 0 0 1 -.707-.293l-2-2a1 1 0 0 1 1.414-1.414l2 2a1 1 0 0 1 -.707 1.707z"/></g></svg>