<svg id="cupcake1" height="512" viewBox="0 0 64 64" width="512" xmlns="http://www.w3.org/2000/svg"><path d="m32 4c.502 5.4441 1 18.9474 1 27.3684 0 6.9762 4.3726 12.6316 11 12.6316s12-5.6554 12-12.6316c0-14.7368-24-27.3684-24-27.3684z" fill="#e0eaeb"/><path d="m47 10a6 6 0 1 0 6 6 6 6 0 0 0 -6-6" fill="#f03228"/><circle cx="49" cy="15" fill="#fa463c" r="2"/><path d="m10.8979 25c-6.3714 6.9786-1.2524 17 5.86 17 10.1615 0 15.2421-8.6111 15.2421-18v-20c-6.0967 11-15.6737 15.054-21.1021 21z" fill="#e0eaeb"/><path d="m32 4c.502 5.1719-12 18-12 26a12 12 0 0 0 24 0c0-13-12-26-12-26z" fill="#edf3f4"/><g fill="#aad7c3"><path d="m24 40 2.3333 20h5.6667v-20a4.8074 4.8074 0 0 0 -8 0z"/><path d="m16 40a4.8074 4.8074 0 0 0 -8 0l7 20h5.6667z"/><path d="m40 40-2.3333 20h5.6666l4.6667-20a4.8074 4.8074 0 0 0 -8 0z"/></g><path d="m24 40a4.8074 4.8074 0 0 0 -8 0l4.6667 20h5.6666z" fill="#82c8aa"/><path d="m32 40v20h5.6667l2.3333-20a4.8074 4.8074 0 0 0 -8 0z" fill="#82c8aa"/><path d="m48 40-4.6667 20h5.6667l7-20a4.8074 4.8074 0 0 0 -8 0z" fill="#82c8aa"/><circle cx="39.5" cy="16.5" fill="#fa463c" r="4.5"/></svg>