<svg id="cupcake1" height="512" viewBox="0 0 64 64" width="512" xmlns="http://www.w3.org/2000/svg"><path d="m8 40 7 20h34l7-20z" fill="#f0638c"/><path d="m8 34a24 24 0 0 1 48 0" fill="#eab978"/><rect fill="#eab978" height="8" rx="4" width="58" x="3" y="32"/><path d="m51.45 53 2.1-6h-43.1l2.1 6z" fill="#f781a3"/><g fill="#f0638c"><circle cx="32" cy="27" r="2"/><circle cx="24" cy="20" r="2"/><circle cx="16" cy="27" r="2"/><circle cx="48" cy="27" r="2"/><circle cx="40" cy="20" r="2"/></g><path d="m32 4a6 6 0 1 1 -6 6 6 6 0 0 1 6-6" fill="#fa463c"/><circle cx="30" cy="9" fill="#ff5f50" r="2"/></svg>