<svg id="cupcake1" height="512" viewBox="0 0 64 64" width="512" xmlns="http://www.w3.org/2000/svg"><path d="m32 13a26 26 0 0 0 -26 26h52a26 26 0 0 0 -26-26z" fill="#856448"/><path d="m11 44h42a5 5 0 0 0 5-5l-26-9-26 9a5 5 0 0 0 5 5z" fill="#856448"/><path d="m32 2c.2642 2.722.5263 9.4737.5263 13.6842 0 3.4881 2.3014 6.3158 5.79 6.3158a6.3158 6.3158 0 0 0 6.3158-6.3158c-.0005-7.3684-12.6321-13.6842-12.6321-13.6842z" fill="#e0eaeb"/><path d="m20.8936 13.0526c-3.3536 3.673-.6591 8.9474 3.0845 8.9474 5.3479 0 8.0219-4.5322 8.0219-9.4737v-10.5263c-3.2088 5.79-8.2493 7.9232-11.1064 11.0526z" fill="#e0eaeb"/><path d="m32 2c.2642 2.722-6.3158 9.4737-6.3158 13.6842a6.3158 6.3158 0 0 0 12.6316 0c0-6.8421-6.3158-13.6842-6.3158-13.6842z" fill="#edf3f4"/><path d="m16.5649 35a7.5665 7.5665 0 0 0 -7.1417 10.0661l5.5768 15.9339h11.3333l-2.2528-19.31a7.5666 7.5666 0 0 0 -7.5156-6.69z" fill="#e6a759"/><path d="m24.3081 43.6414 2.0252 17.3586h11.3334l2.0252-17.3586a7.7441 7.7441 0 0 0 -7.6919-8.6414 7.7441 7.7441 0 0 0 -7.6919 8.6414z" fill="#eab978"/><path d="m39.92 41.69-2.2533 19.31h11.3333l5.5768-15.9339a7.5665 7.5665 0 0 0 -7.1417-10.0661 7.5666 7.5666 0 0 0 -7.5151 6.69z" fill="#e6a759"/></svg>