<svg id="cupcake1" height="512" viewBox="0 0 64 64" width="512" xmlns="http://www.w3.org/2000/svg"><path d="m47.5179 19.1648a15.98 15.98 0 0 0 -31.0358 0 12.4546 12.4546 0 0 0 -11.4821 12.4121 12.1538 12.1538 0 0 0 2.0769 7.2692l3.1154 4.1539h43.6154l3.1154-4.1539a12.1538 12.1538 0 0 0 2.0769-7.2692 12.4546 12.4546 0 0 0 -11.4821-12.4121z" fill="#ffd239"/><path d="m33 33a.9967.9967 0 0 1 -.707-.293l-2-2a1 1 0 0 1 1.414-1.414l2 2a1 1 0 0 1 -.707 1.707z" fill="#f0638c"/><path d="m51 33a.9967.9967 0 0 1 -.707-.293l-2-2a1 1 0 0 1 1.414-1.414l2 2a1 1 0 0 1 -.707 1.707z" fill="#edf3f4"/><path d="m15 33a.9967.9967 0 0 1 -.707-.293l-2-2a1 1 0 0 1 1.414-1.414l2 2a1 1 0 0 1 -.707 1.707z" fill="#f0638c"/><path d="m22 33a1 1 0 0 1 -.707-1.707l2-2a1 1 0 0 1 1.414 1.414l-2 2a.9967.9967 0 0 1 -.707.293z" fill="#edf3f4"/><path d="m40 33a1 1 0 0 1 -.707-1.707l2-2a1 1 0 0 1 1.414 1.414l-2 2a.9967.9967 0 0 1 -.707.293z" fill="#82c8aa"/><path d="m33 19a.9967.9967 0 0 1 -.707-.293l-2-2a1 1 0 0 1 1.414-1.414l2 2a1 1 0 0 1 -.707 1.707z" fill="#82c8aa"/><path d="m22 20a1 1 0 0 1 -.707-1.707l2-2a1 1 0 0 1 1.414 1.414l-2 2a.9967.9967 0 0 1 -.707.293z" fill="#edf3f4"/><path d="m40 20a1 1 0 0 1 -.707-1.707l2-2a1 1 0 0 1 1.414 1.414l-2 2a.9967.9967 0 0 1 -.707.293z" fill="#f0638c"/><path d="m17 26a1 1 0 0 1 -.707-1.707l2-2a1 1 0 0 1 1.414 1.414l-2 2a.9967.9967 0 0 1 -.707.293z" fill="#82c8aa"/><path d="m36 26a1 1 0 0 1 -.707-1.707l2-2a1 1 0 0 1 1.414 1.414l-2 2a.9967.9967 0 0 1 -.707.293z" fill="#edf3f4"/><path d="m47 26a.9967.9967 0 0 1 -.707-.293l-2-2a1 1 0 0 1 1.414-1.414l2 2a1 1 0 0 1 -.707 1.707z" fill="#856448"/><path d="m28 26a.9967.9967 0 0 1 -.707-.293l-2-2a1 1 0 0 1 1.414-1.414l2 2a1 1 0 0 1 -.707 1.707z" fill="#856448"/><g fill="#aa6f2a"><path d="m24 40 2.3333 20h5.6667v-20a4.8074 4.8074 0 0 0 -8 0z"/><path d="m16 40a4.8074 4.8074 0 0 0 -8 0l7 20h5.6667z"/><path d="m40 40-2.3333 20h5.6666l4.6667-20a4.8074 4.8074 0 0 0 -8 0z"/></g><path d="m24 40a4.8074 4.8074 0 0 0 -8 0l4.6667 20h5.6666z" fill="#b48450"/><path d="m32 40v20h5.6667l2.3333-20a4.8074 4.8074 0 0 0 -8 0z" fill="#b48450"/><path d="m48 40-4.6667 20h5.6667l7-20a4.8074 4.8074 0 0 0 -8 0z" fill="#b48450"/></svg>