<svg id="cupcake1" height="512" viewBox="0 0 64 64" width="512" xmlns="http://www.w3.org/2000/svg"><rect fill="#edf3f4" height="4" rx="2" width="54" x="5" y="35"/><path d="m32 5a25.0226 25.0226 0 0 0 -24.5148 30h49.03a25.0226 25.0226 0 0 0 -24.5152-30z" fill="#f1d29a"/><path d="m24 39 2.333 20h5.667v-20z" fill="#ffd239"/><path d="m16 39 4.667 20h5.666l-2.333-20z" fill="#ffe359"/><path d="m40 39-2.333 20h5.666l4.667-20z" fill="#ffd239"/><path d="m8 39 7 20h5.667l-4.667-20z" fill="#ffd239"/><path d="m32 39v20h5.667l2.333-20z" fill="#ffe359"/><path d="m48 39-4.667 20h5.667l7-20z" fill="#ffe359"/><path d="m32 5a24.9925 24.9925 0 0 0 -24.9785 25.8652 3.9541 3.9541 0 0 0 4.9785-3.8652 4 4 0 0 1 8 0 4 4 0 0 0 8 0 4 4 0 0 1 8 0 4 4 0 0 0 8 0 4 4 0 0 1 8 0 3.9541 3.9541 0 0 0 4.9785 3.8652 24.9925 24.9925 0 0 0 -24.9785-25.8652z" fill="#aa6f2a"/><g fill="#ffd239"><circle cx="32" cy="15" r="2"/><circle cx="40" cy="22" r="2"/><circle cx="48" cy="15" r="2"/><circle cx="16" cy="15" r="2"/><circle cx="24" cy="22" r="2"/><circle cx="40" cy="7" r="2"/><circle cx="24" cy="7" r="2"/></g></svg>