<svg id="cupcake1" height="512" viewBox="0 0 64 64" width="512" xmlns="http://www.w3.org/2000/svg"><path d="m52.4313 22.1245a8.9862 8.9862 0 0 0 -11.7542-11.4832 8.9891 8.9891 0 0 0 -17.3542 0 8.9822 8.9822 0 0 0 -11.7542 11.4832 8.9946 8.9946 0 0 0 1.4313 17.8755h38a8.9946 8.9946 0 0 0 1.4313-17.8755z" fill="#6e5332"/><g fill="#edf3f4"><path d="m33 23a.9967.9967 0 0 1 -.707-.293l-2-2a1 1 0 0 1 1.414-1.414l2 2a1 1 0 0 1 -.707 1.707z"/><path d="m21 23a1 1 0 0 1 -.707-1.707l2-2a1 1 0 0 1 1.414 1.414l-2 2a.9967.9967 0 0 1 -.707.293z"/><path d="m41 23a1 1 0 0 1 -.707-1.707l2-2a1 1 0 0 1 1.414 1.414l-2 2a.9967.9967 0 0 1 -.707.293z"/><path d="m14 33a1 1 0 0 1 -.707-1.707l2-2a1 1 0 0 1 1.414 1.414l-2 2a.9967.9967 0 0 1 -.707.293z"/><path d="m37 33a1 1 0 0 1 -.707-1.707l2-2a1 1 0 0 1 1.414 1.414l-2 2a.9967.9967 0 0 1 -.707.293z"/><path d="m50 33a.9967.9967 0 0 1 -.707-.293l-2-2a1 1 0 0 1 1.414-1.414l2 2a1 1 0 0 1 -.707 1.707z"/><path d="m27 33a.9967.9967 0 0 1 -.707-.293l-2-2a1 1 0 0 1 1.414-1.414l2 2a1 1 0 0 1 -.707 1.707z"/><path d="m31 13a1 1 0 0 1 -.707-1.707l2-2a1 1 0 0 1 1.414 1.414l-2 2a.9967.9967 0 0 1 -.707.293z"/></g><path d="m24 40 2.3333 20h5.6667v-20a4.8074 4.8074 0 0 0 -8 0z" fill="#f1d29a"/><path d="m16 40a4.8074 4.8074 0 0 0 -8 0l7 20h5.6667z" fill="#f1d29a"/><path d="m40 40-2.3333 20h5.6666l4.6667-20a4.8074 4.8074 0 0 0 -8 0z" fill="#f1d29a"/><path d="m24 40a4.8074 4.8074 0 0 0 -8 0l4.6667 20h5.6666z" fill="#eab966"/><path d="m32 40v20h5.6667l2.3333-20a4.8074 4.8074 0 0 0 -8 0z" fill="#eab966"/><path d="m48 40-4.6667 20h5.6667l7-20a4.8074 4.8074 0 0 0 -8 0z" fill="#eab966"/></svg>