<svg id="cupcake1" height="512" viewBox="0 0 64 64" width="512" xmlns="http://www.w3.org/2000/svg"><path d="m47.5179 19.1648a15.98 15.98 0 0 0 -31.0358 0 12.4546 12.4546 0 0 0 -11.4821 12.4121 12.1538 12.1538 0 0 0 2.0769 7.2692l3.1154 4.1539 7.8077 10h28l7.8077-10 3.1154-4.1539a12.1538 12.1538 0 0 0 2.0769-7.2692 12.4546 12.4546 0 0 0 -11.4821-12.4121z" fill="#ffd239"/><path d="m47.5179 19.1648a15.98 15.98 0 0 0 -31.0358 0 12.4546 12.4546 0 0 0 -11.4821 12.4121 12.1538 12.1538 0 0 0 2.0769 7.2692l3.1154 4.1539 7.8077 10h28l7.8077-10 3.1154-4.1539a12.1538 12.1538 0 0 0 2.0769-7.2692 12.4546 12.4546 0 0 0 -11.4821-12.4121z" fill="#856448"/><path d="m47.5179 19.1648a15.98 15.98 0 0 0 -31.0358 0 12.4546 12.4546 0 0 0 -11.4821 12.4121c0 .8312.0639.1393.184.924a2.9929 2.9929 0 0 0 5.816-1.0009v-.5a3 3 0 0 1 6 0v1.5a3 3 0 0 0 6 0 3 3 0 0 1 6 0v1.5a3 3 0 0 0 6 0v-1.5a3 3 0 0 1 6 0 3 3 0 0 0 6 0v-1.5a3 3 0 0 1 6 0v.5a2.9929 2.9929 0 0 0 5.816 1.0009c.12-.7847.184-.0928.184-.924a12.4546 12.4546 0 0 0 -11.4821-12.4121z" fill="#6e5332"/><path d="m24 40 2.3334 20h5.6666v-12a8 8 0 0 0 -8-8z" fill="#e0eaeb"/><path d="m17.8178 47.7907 2.8489 12.2093h5.6666l-2.3333-20a6.3482 6.3482 0 0 0 -6.1822 7.7907z" fill="#edf3f4"/><path d="m40 40-2.3333 20h5.6666l2.8489-12.2093a6.3482 6.3482 0 0 0 -6.1822-7.7907z" fill="#e0eaeb"/><path d="m8 40 7 20h5.6667l-2.8489-12.2093a10.0814 10.0814 0 0 0 -9.8178-7.7907z" fill="#e0eaeb"/><path d="m32 48v12h5.6667l2.3333-20a8 8 0 0 0 -8 8z" fill="#edf3f4"/><path d="m46.1822 47.7907-2.8489 12.2093h5.6667l7-20a10.0814 10.0814 0 0 0 -9.8178 7.7907z" fill="#edf3f4"/><path d="m24 4a7.99 7.99 0 0 0 4.003 6.9228l3.997-6.9228z" fill="#ffe359"/><path d="m32 4-3.9969 6.9228a7.9544 7.9544 0 0 0 7.9938 0z" fill="#ffd239"/><path d="m40 4h-8l3.9969 6.9228a7.99 7.99 0 0 0 4.0031-6.9228z" fill="#ffe359"/></svg>