<svg id="cupcake1" height="512" viewBox="0 0 64 64" width="512" xmlns="http://www.w3.org/2000/svg"><path d="m24 41 2.333 20h5.667v-20z" fill="#856448"/><path d="m16 41 4.667 20h5.666l-2.333-20z" fill="#6e5332"/><path d="m40 41-2.333 20h5.666l4.667-20z" fill="#856448"/><path d="m8 41 7 20h5.667l-4.667-20z" fill="#856448"/><path d="m32 41v20h5.667l2.333-20z" fill="#6e5332"/><path d="m48 41-4.667 20h5.667l7-20z" fill="#6e5332"/><path d="m32 15a24 24 0 0 0 -24 24h48a24 24 0 0 0 -24-24z" fill="#e6a759"/><path d="m46 19.39a5.8767 5.8767 0 0 1 -4.0568 1.61 5.94 5.94 0 0 1 -4.9716-2.69 5.9392 5.9392 0 0 1 -9.9432 0 5.94 5.94 0 0 1 -4.9716 2.69 5.8767 5.8767 0 0 1 -4.0568-1.61 15.8756 15.8756 0 0 1 28 0z" fill="#e0eaeb"/><circle cx="32.071" cy="4" fill="#fa463c" r="3"/><circle cx="29.5" cy="7" fill="#ff5f50" r="3"/><circle cx="34.5" cy="7" fill="#f03228" r="3"/><circle cx="27" cy="10" fill="#f03228" r="3"/><circle cx="32" cy="10" fill="#fa463c" r="3"/><circle cx="37" cy="10" fill="#ff5f50" r="3"/><path d="m54 35a4.98 4.98 0 0 0 -4.4 2.6723 4.9585 4.9585 0 0 0 -8.8 0 4.9585 4.9585 0 0 0 -8.8 0 4.9585 4.9585 0 0 0 -8.8 0 4.9585 4.9585 0 0 0 -8.8 0 5 5 0 1 0 0 4.6554 4.9585 4.9585 0 0 0 8.8 0 4.9585 4.9585 0 0 0 8.8 0 4.9585 4.9585 0 0 0 8.8 0 4.9585 4.9585 0 0 0 8.8 0 4.9906 4.9906 0 1 0 4.4-7.3277z" fill="#e19336"/></svg>