<svg id="cupcake1" height="512" viewBox="0 0 64 64" width="512" xmlns="http://www.w3.org/2000/svg"><circle cx="32.071" cy="5" fill="#fa463c" r="3"/><circle cx="29.5" cy="8" fill="#ff5f50" r="3"/><circle cx="34.5" cy="8" fill="#f03228" r="3"/><circle cx="27" cy="11" fill="#f03228" r="3"/><circle cx="32" cy="11" fill="#fa463c" r="3"/><circle cx="37" cy="11" fill="#ff5f50" r="3"/><rect fill="#e0eaeb" height="14" rx="7" width="52" x="6" y="24"/><path d="m24 42 2.333 20h5.667v-20z" fill="#ffd239"/><path d="m16 42 4.667 20h5.666l-2.333-20z" fill="#ffe359"/><path d="m40 42-2.333 20h5.666l4.667-20z" fill="#ffd239"/><path d="m8 42 7 20h5.667l-4.667-20z" fill="#ffd239"/><path d="m32 42v20h5.667l2.333-20z" fill="#ffe359"/><path d="m48 42-4.667 20h5.667l7-20z" fill="#ffe359"/><g fill="#edf3f4"><rect height="12" rx="6" width="36" x="14" y="12"/><path d="m54 34a4.98 4.98 0 0 0 -4.4 2.6723 4.9585 4.9585 0 0 0 -8.8 0 4.9585 4.9585 0 0 0 -8.8 0 4.9585 4.9585 0 0 0 -8.8 0 4.9585 4.9585 0 0 0 -8.8 0 5 5 0 1 0 0 4.6554 4.9585 4.9585 0 0 0 8.8 0 4.9585 4.9585 0 0 0 8.8 0 4.9585 4.9585 0 0 0 8.8 0 4.9585 4.9585 0 0 0 8.8 0 4.9906 4.9906 0 1 0 4.4-7.3277z"/></g></svg>