<svg id="cupcake1" height="512" viewBox="0 0 64 64" width="512" xmlns="http://www.w3.org/2000/svg"><path d="m10.8982 25.0033c-6.3714 6.9786-1.2524 17 5.86 17 10.1618 0 15.2418-8.6112 15.2418-18v-20c-6.0963 11-15.6733 15.054-21.1018 21z" fill="#e0eaeb"/><path d="m20.2391 12.5179a.9994.9994 0 0 1 -.9731-.7749 8.5216 8.5216 0 0 0 -10.9737-6.3354 1 1 0 0 1 -.584-1.9131 10.5207 10.5207 0 0 1 13.5059 7.7983 1.0007 1.0007 0 0 1 -.9751 1.2251z" fill="#a3c539"/><path d="m13.7189 14.5614a4.618 4.618 0 0 1 5.6257-3.6159 2.768 2.768 0 0 1 .8921.3691 2.7722 2.7722 0 0 1 .5881-.7657 4.6181 4.6181 0 0 1 6.68.3186 8.307 8.307 0 0 1 1.7593 3.2281 7.5586 7.5586 0 0 1 -5.707 9.6109 7.5586 7.5586 0 0 1 -9.7478-5.47 8.3051 8.3051 0 0 1 -.0904-3.6751z" fill="#f03228"/><circle cx="18.33" cy="15.79" fill="#fa463c" r="2"/><path d="m32 4.0033c.502 5.444 1 18.9473 1 27.3684 0 6.9762 4.3726 12.6316 11 12.6316s12-5.6554 12-12.6316c0-14.7369-24-27.3684-24-27.3684z" fill="#e0eaeb"/><path d="m32 4.0033c.502 5.1718-12 18-12 26a12 12 0 1 0 24 0c0-13-12-26-12-26z" fill="#edf3f4"/><path d="m23.8141 38.4067 2.5192 21.5933h5.6667v-22.0509a3.9491 3.9491 0 0 0 -3.9491-3.9491h-.3143a3.9491 3.9491 0 0 0 -3.9225 4.4067z" fill="#ffd239"/><path d="m7.7388 39.2537 7.2612 20.7463h5.6667l-5.3546-22.9482a3.9492 3.9492 0 0 0 -3.8459-3.0518 3.9492 3.9492 0 0 0 -3.7274 5.2537z" fill="#ffd239"/><path d="m40.2927 37.4915-2.626 22.5085h5.6666l4.9359-21.1535a3.9492 3.9492 0 0 0 -3.8458-4.8465h-.2082a3.9491 3.9491 0 0 0 -3.9225 3.4915z" fill="#ffd239"/><path d="m15.7308 38.8465 4.9359 21.1535h5.6666l-2.626-22.5085a3.9491 3.9491 0 0 0 -3.9225-3.4915h-.2082a3.9492 3.9492 0 0 0 -3.8458 4.8465z" fill="#ffad34"/><path d="m32 37.9491v22.0509h5.6667l2.5192-21.5933a3.9491 3.9491 0 0 0 -3.9225-4.4067h-.3143a3.9491 3.9491 0 0 0 -3.9491 3.9491z" fill="#ffad34"/><path d="m48.6879 37.0518-5.3546 22.9482h5.6667l7.2612-20.7463a3.9492 3.9492 0 0 0 -3.7274-5.2537 3.9492 3.9492 0 0 0 -3.8459 3.0518z" fill="#ffad34"/><path d="m22 3v1a12 12 0 1 0 24 0v-1z" fill="#ffd239"/><g fill="#ffad34"><path d="m31.5859 5-3.9059 3.9062a7.9207 7.9207 0 0 1 -1.6185-3.9062z"/><path d="m29.094 10.3205 3.906-3.9063v5.5243a7.9141 7.9141 0 0 1 -3.906-1.618z"/><path d="m35 11.9385v-5.5243l3.906 3.9063a7.9141 7.9141 0 0 1 -3.906 1.618z"/><path d="m40.32 8.9062-3.9059-3.9062h5.5244a7.9207 7.9207 0 0 1 -1.6185 3.9062z"/></g></svg>