<svg id="cupcake1" height="512" viewBox="0 0 64 64" width="512" xmlns="http://www.w3.org/2000/svg"><path d="m56 42c3.0991-15.9992-8.5522-30-24-30s-27.0991 14.0008-24 30" fill="#edf3f4"/><path d="m24 42 2.333 20h5.667v-20z" fill="#f03228"/><path d="m16 42 4.667 20h5.666l-2.333-20z" fill="#fa463c"/><path d="m40 42-2.333 20h5.666l4.667-20z" fill="#f03228"/><path d="m8 42 7 20h5.667l-4.667-20z" fill="#f03228"/><path d="m32 42v20h5.667l2.333-20z" fill="#fa463c"/><path d="m48 42-4.667 20h5.667l7-20z" fill="#fa463c"/><path d="m31.94 9a26.9644 26.9644 0 0 0 -26.9993 27.13s.0037 2.8061.0076 4.8317a2.0433 2.0433 0 0 0 2.0473 2.0383 2.0472 2.0472 0 0 0 2.0472-2.0473v-4.9553a2.1621 2.1621 0 0 1 1.8662-2.188 2.08 2.08 0 0 1 2.2969 2.0661v4.7245a2.1622 2.1622 0 0 0 1.8662 2.1881 2.08 2.08 0 0 0 2.297-2.0661v-6.3786a2.162 2.162 0 0 1 1.8661-2.1879 2.08 2.08 0 0 1 2.297 2.0661v1.5737a2.1618 2.1618 0 0 0 1.866 2.1878 2.08 2.08 0 0 0 2.2971-2.0661v-.5352a2.1621 2.1621 0 0 1 1.8662-2.1879 2.08 2.08 0 0 1 2.297 2.0662v1.541a2.1622 2.1622 0 0 0 1.8661 2.1881 2.08 2.08 0 0 0 2.297-2.066v-5.9258a2.162 2.162 0 0 1 1.8662-2.188 2.08 2.08 0 0 1 2.2969 2.0661v9.4552a2.1619 2.1619 0 0 0 1.8662 2.1878 2.08 2.08 0 0 0 2.2969-2.0661v-6.109a2.162 2.162 0 0 1 1.8661-2.1879 2.08 2.08 0 0 1 2.297 2.0661v1.7784a2.162 2.162 0 0 0 1.8662 2.1878 2.08 2.08 0 0 0 2.297-2.0662v-.1243a2.162 2.162 0 0 1 1.8659-2.1879 2.08 2.08 0 0 1 2.2969 2.0661v5.0772a2.0473 2.0473 0 0 0 2.0474 2.0473 2.0433 2.0433 0 0 0 2.0473-2.0386c.0039-2.0256.0075-4.8317.0075-4.8317a26.9643 26.9643 0 0 0 -26.9991-27.1297z" fill="#6e5332"/><path d="m40.91 13.0028c-.8128 4.61-4.7053 6.0046-8.8977 5.9972s-8.0837-1.3153-8.9187-5.9615c-.8308-4.6207 4.032-12.0471 8.8864-12.0385s9.7483 7.36 8.93 12.0028z" fill="#f03228"/><path d="m23.0933 13.0385c.835 4.6462 4.7267 5.9541 8.9187 5.9615.4957.0008.9866-.02 1.4693-.061-3.574-.3146-6.6559-1.8216-7.388-5.8952-.7449-4.1438 3.0905-10.5418 7.3919-11.8114a5.3275 5.3275 0 0 0 -1.5052-.2324c-4.8544-.0086-9.7172 7.4178-8.8867 12.0385z" fill="#fa463c"/><g fill="#ffd239"><circle cx="36" cy="12" r="1"/><circle cx="35" cy="7" r="1"/><circle cx="32" cy="10" r="1"/><circle cx="32" cy="14" r="1"/><circle cx="28" cy="12" r="1"/><circle cx="29" cy="7" r="1"/></g></svg>