<svg id="cupcake1" height="512" viewBox="0 0 64 64" width="512" xmlns="http://www.w3.org/2000/svg"><path d="m32 6c-18.0224 0-31.6156 16.3343-28 35h56c3.6156-18.6657-9.9776-35-28-35z" fill="#eab966"/><g fill="#6e5332"><path d="m12 29s-3 1.5147-3 4c0 1.1045 1.3432 2 3 2s3-.8955 3-2c0-2.4853-3-4-3-4z"/><path d="m32 29s-3 1.5147-3 4c0 1.1045 1.3432 2 3 2s3-.8955 3-2c0-2.4853-3-4-3-4z"/><path d="m32 7s-3 1.5147-3 4c0 1.1045 1.3432 2 3 2s3-.8955 3-2c0-2.4853-3-4-3-4z"/><path d="m22 18s-3 1.5147-3 4c0 1.1045 1.3432 2 3 2s3-.8955 3-2c0-2.4853-3-4-3-4z"/><path d="m52 29s-3 1.5147-3 4c0 1.1045 1.3432 2 3 2s3-.8955 3-2c0-2.4853-3-4-3-4z"/><path d="m42 18s-3 1.5147-3 4c0 1.1045 1.3432 2 3 2s3-.8955 3-2c0-2.4853-3-4-3-4z"/></g><path d="m24 41 2.333 20h5.667v-20z" fill="#edf3f4"/><path d="m16 41 4.667 20h5.666l-2.333-20z" fill="#e0eaeb"/><path d="m40 41-2.333 20h5.666l4.667-20z" fill="#edf3f4"/><path d="m8 41 7 20h5.667l-4.667-20z" fill="#edf3f4"/><path d="m32 41v20h5.667l2.333-20z" fill="#e0eaeb"/><path d="m48 41-4.667 20h5.667l7-20z" fill="#e0eaeb"/></svg>