<svg id="cupcake1" height="512" viewBox="0 0 64 64" width="512" xmlns="http://www.w3.org/2000/svg"><path d="m56 40-.07.2-4.03 11.492v.008l-.05.142v.008l-2.85 8.15h-34l-7-20z" fill="#fa463c"/><g fill="#f03228"><path d="m22.6 60h-7.6l-7-20h7.86z"/><path d="m38.6 60h-7.9l-6.74-20h7.9z"/><path d="m51.85 51.842v.008l-2.85 8.15h-2.3l-6.74-20h7.9z"/></g><path d="m32 3c.5982 6.1639 1.4723 18.1638 1.4723 27.6983 0 7.8986 5.2113 14.3017 13.11 14.3017a14.3017 14.3017 0 0 0 14.3017-14.3017c0-16.6854-28.884-27.6983-28.884-27.6983z" fill="#6e5332"/><path d="m6.4012 23.4339c-7.5935 8.3172-.763 21.5661 7.7141 21.5661 12.11 0 18.1652-10.2629 18.1652-21.4526 0-14.1796-.2805-20.5474-.2805-20.5474-7.2661 13.11-19.1291 13.3474-25.5988 20.4339z" fill="#6e5332"/><circle cx="9.5" cy="23.5" fill="#f03228" r="4.5"/><circle cx="48" cy="14" fill="#a3c539" r="4"/><circle cx="26" cy="12" fill="#f1d232" r="4"/><circle cx="55" cy="30" fill="#f1d232" r="4"/><path d="m32 3c.5982 6.1639-14.0212 18.1638-14.0212 27.6983a14.3018 14.3018 0 0 0 28.6035 0c0-15.4936-14.5823-27.6983-14.5823-27.6983z" fill="#856448"/><circle cx="36" cy="33" fill="#a3c539" r="4"/></svg>