<svg id="cupcake1" height="512" viewBox="0 0 64 64" width="512" xmlns="http://www.w3.org/2000/svg"><path d="m53 59h-5.25l2.25-20h6z" fill="#ffd239"/><path d="m47.75 59h-5.25l1.5-20h6z" fill="#f0638c"/><path d="m42.5 59h-5.25l.75-20h6z" fill="#82c8aa"/><path d="m37.25 59h-5.25v-20h6z" fill="#ffd239"/><path d="m32 59h-5.25l-.75-20h6z" fill="#f0638c"/><path d="m26.75 59h-5.25l-1.5-20h6z" fill="#82c8aa"/><path d="m21.5 59h-5.25l-2.25-20h6z" fill="#ffd239"/><path d="m16.25 59h-5.25l-3-20h6z" fill="#f0638c"/><rect fill="#e0eaeb" height="10" rx="5" width="48" x="8" y="29"/><rect fill="#edf3f4" height="10" rx="5" width="36" x="14" y="19"/><path d="m58 9-12 4v-8z" fill="#f0638c"/><path d="m37.1529 5.9174-.1529-.9174-1.2689 1.5227a12.4433 12.4433 0 0 1 -9.5592 4.4773 4.1161 4.1161 0 0 0 -4.1531 3.6071 4.0007 4.0007 0 0 0 3.9812 4.3929h11.8281a4.1161 4.1161 0 0 0 4.1531-3.6071 3.9936 3.9936 0 0 0 -1.2676-3.3317 10.91 10.91 0 0 1 -3.5607-6.1438z" fill="#e0eaeb"/><path d="m46 25a1 1 0 0 1 -1-1v-19a1 1 0 0 1 2 0v19a1 1 0 0 1 -1 1z" fill="#82c8aa"/></svg>