<svg id="cupcake1" height="512" viewBox="0 0 64 64" width="512" xmlns="http://www.w3.org/2000/svg"><path d="m32 6a24 24 0 0 1 24 24v4a0 0 0 0 1 0 0h-48a0 0 0 0 1 0 0v-4a24 24 0 0 1 24-24z" fill="#eab966"/><path d="m33 29a.9967.9967 0 0 1 -.707-.293l-2-2a1 1 0 0 1 1.414-1.414l2 2a1 1 0 0 1 -.707 1.707z" fill="#f0638c"/><path d="m51 29a.9967.9967 0 0 1 -.707-.293l-2-2a1 1 0 0 1 1.414-1.414l2 2a1 1 0 0 1 -.707 1.707z" fill="#e0eaeb"/><path d="m15 29a.9967.9967 0 0 1 -.707-.293l-2-2a1 1 0 0 1 1.414-1.414l2 2a1 1 0 0 1 -.707 1.707z" fill="#f0638c"/><path d="m22 29a1 1 0 0 1 -.707-1.707l2-2a1 1 0 0 1 1.414 1.414l-2 2a.9967.9967 0 0 1 -.707.293z" fill="#e0eaeb"/><path d="m40 29a1 1 0 0 1 -.707-1.707l2-2a1 1 0 0 1 1.414 1.414l-2 2a.9967.9967 0 0 1 -.707.293z" fill="#82c8aa"/><path d="m33 15a.9967.9967 0 0 1 -.707-.293l-2-2a1 1 0 0 1 1.414-1.414l2 2a1 1 0 0 1 -.707 1.707z" fill="#82c8aa"/><path d="m22 16a1 1 0 0 1 -.707-1.707l2-2a1 1 0 0 1 1.414 1.414l-2 2a.9967.9967 0 0 1 -.707.293z" fill="#e0eaeb"/><path d="m40 16a1 1 0 0 1 -.707-1.707l2-2a1 1 0 0 1 1.414 1.414l-2 2a.9967.9967 0 0 1 -.707.293z" fill="#f0638c"/><path d="m17 22a1 1 0 0 1 -.707-1.707l2-2a1 1 0 0 1 1.414 1.414l-2 2a.9967.9967 0 0 1 -.707.293z" fill="#82c8aa"/><path d="m36 22a1 1 0 0 1 -.707-1.707l2-2a1 1 0 0 1 1.414 1.414l-2 2a.9967.9967 0 0 1 -.707.293z" fill="#e0eaeb"/><path d="m47 22a.9967.9967 0 0 1 -.707-.293l-2-2a1 1 0 0 1 1.414-1.414l2 2a1 1 0 0 1 -.707 1.707z" fill="#856448"/><path d="m28 22a.9967.9967 0 0 1 -.707-.293l-2-2a1 1 0 0 1 1.414-1.414l2 2a1 1 0 0 1 -.707 1.707z" fill="#856448"/><rect fill="#82c8aa" height="4" rx="2" width="54" x="5" y="34"/><path d="m8 38 3 20h42l3-20z" fill="#aad7c3"/><g fill="#82c8aa"><path d="m50.207 45.1118a1 1 0 0 0 -1.9882-.2236l-1.4629 13a.9266.9266 0 0 0 .01.1118h1.991z"/><path d="m37.7744 44.0005a.9983.9983 0 0 0 -1.0361.9619l-.4873 13c0 .0132.0061.0245.0061.0376h1.9929l.4859-12.9624a1 1 0 0 0 -.9615-1.0371z"/><path d="m27.2617 44.9624a1 1 0 1 0 -1.998.0752l.4863 12.9624h1.9933c0-.0131.0066-.0244.0061-.0376z"/><path d="m15.7812 44.8882a1 1 0 0 0 -1.9882.2236l1.4503 12.8882h1.991a.9266.9266 0 0 0 .01-.1118z"/></g></svg>