<svg id="cupcake1" height="512" viewBox="0 0 64 64" width="512" xmlns="http://www.w3.org/2000/svg"><path d="m34.8421 8.3158a3.1559 3.1559 0 0 1 -1.19-6.08 6.0157 6.0157 0 1 0 4.1116 4.1116 3.1555 3.1555 0 0 1 -2.9216 1.9684z" fill="#fa463c"/><path d="m39 13h-14a3 3 0 0 0 0 6h14a3 3 0 0 0 0-6z" fill="#e0eaeb"/><rect fill="#edf3f4" height="10" rx="5" width="28" x="18" y="19"/><path d="m20 29h24a12 12 0 0 1 12 12 0 0 0 0 1 0 0h-48a0 0 0 0 1 0 0 12 12 0 0 1 12-12z" fill="#e0eaeb"/><path d="m53 61h-5.25l2.25-20h6z" fill="#fa463c"/><path d="m47.75 61h-5.25l1.5-20h6z" fill="#6e5332"/><path d="m42.5 61h-5.25l.75-20h6z" fill="#fa463c"/><path d="m37.25 61h-5.25v-20h6z" fill="#6e5332"/><path d="m32 61h-5.25l-.75-20h6z" fill="#fa463c"/><path d="m26.75 61h-5.25l-1.5-20h6z" fill="#6e5332"/><path d="m21.5 61h-5.25l-2.25-20h6z" fill="#fa463c"/><path d="m16.25 61h-5.25l-3-20h6z" fill="#6e5332"/><path d="m46.0747 36.9463a1.002 1.002 0 0 1 -.9663-1.2593l4.2871-16a1 1 0 0 1 1.9316.5176l-4.2871 16a1.0007 1.0007 0 0 1 -.9653.7417z" fill="#6e5332"/><path d="m47.4961 10.4121a2.9206 2.9206 0 0 1 4.0454 1.0839l.7349 1.3026 1.2878-.7606a2.9206 2.9206 0 0 1 4.0458 1.084 3.0635 3.0635 0 0 1 -1.1057 4.1263l-6.43 3.7692-3.6843-6.4791a3.0635 3.0635 0 0 1 1.1061-4.1263z" fill="#fa463c"/></svg>