<svg id="cupcake1" height="512" viewBox="0 0 64 64" width="512" xmlns="http://www.w3.org/2000/svg"><path d="m25 22h14v8h-14z" fill="#eab966"/><path d="m20 27h24a12 12 0 0 1 12 12 0 0 0 0 1 0 0h-48a0 0 0 0 1 0 0 12 12 0 0 1 12-12z" fill="#eab966"/><path d="m46 27.39a5.8767 5.8767 0 0 1 -4.0568 1.61 5.94 5.94 0 0 1 -4.9716-2.69 5.9392 5.9392 0 0 1 -9.9432 0 5.94 5.94 0 0 1 -4.9716 2.69 5.8767 5.8767 0 0 1 -4.0568-1.61 15.8756 15.8756 0 0 1 28 0z" fill="#6e5332"/><g fill="#f03228"><path d="m44 39-1.5 20h10.5l3-20z"/><path d="m32 39v20h10.5l1.5-20z"/><path d="m20 39 1.5 20h10.5v-20z"/><path d="m20 39h-12l3 20h10.5z"/><path d="m39.1792 12.62a4.6181 4.6181 0 0 0 -6.37-2.0367 2.77 2.77 0 0 0 -.7662.5875 2.7714 2.7714 0 0 0 -.7662-.5875 4.6181 4.6181 0 0 0 -6.37 2.0367 8.3068 8.3068 0 0 0 -.8639 3.5734 7.5587 7.5587 0 0 0 8 7.8064 7.5587 7.5587 0 0 0 8-7.8064 8.3068 8.3068 0 0 0 -.8637-3.5734z"/></g><circle cx="29" cy="16" fill="#fa463c" r="2"/><path d="m31.9961 14h-.0361a1 1 0 0 1 -.9639-1.0342 6.6172 6.6172 0 0 0 -6.9609-6.9609.97.97 0 0 1 -1.0342-.9649 1 1 0 0 1 .9638-1.0342 8.6154 8.6154 0 0 1 9.0293 9.0293.9993.9993 0 0 1 -.998.9649z" fill="#a3c539"/><path d="m50.207 46.1118a1 1 0 0 0 -1.9882-.2236l-1.4629 13a.9266.9266 0 0 0 .01.1118h1.991z" fill="#fa463c"/><path d="m37.7744 45.0005a.9983.9983 0 0 0 -1.0361.9619l-.4873 13c0 .0132.0061.0245.0061.0376h1.9929l.4859-12.9624a1 1 0 0 0 -.9615-1.0371z" fill="#fa463c"/><path d="m27.2617 45.9624a1 1 0 1 0 -1.998.0752l.4863 12.9624h1.9933c0-.0131.0066-.0244.0061-.0376z" fill="#fa463c"/><path d="m15.7812 45.8882a1 1 0 0 0 -1.9882.2236l1.4503 12.8882h1.991a.9266.9266 0 0 0 .01-.1118z" fill="#fa463c"/></svg>