<svg id="cupcake1" height="512" viewBox="0 0 64 64" width="512" xmlns="http://www.w3.org/2000/svg"><path d="m53 59h-5.25l2.25-20h6z" fill="#f0638c"/><path d="m47.75 59h-5.25l1.5-20h6z" fill="#856448"/><path d="m42.5 59h-5.25l.75-20h6z" fill="#82c8aa"/><path d="m37.25 59h-5.25v-20h6z" fill="#f0638c"/><path d="m32 59h-5.25l-.75-20h6z" fill="#856448"/><path d="m26.75 59h-5.25l-1.5-20h6z" fill="#82c8aa"/><path d="m21.5 59h-5.25l-2.25-20h6z" fill="#f0638c"/><path d="m16.25 59h-5.25l-3-20h6z" fill="#856448"/><path d="m37.889 6.0485-.1747-1.0485-1.45 1.74a14.2208 14.2208 0 0 1 -10.9248 5.1169 4.7041 4.7041 0 0 0 -4.7466 4.1231 4.5723 4.5723 0 0 0 4.55 5.02h13.5178a4.7041 4.7041 0 0 0 4.7464-4.1224 4.5638 4.5638 0 0 0 -1.4487-3.8076 12.47 12.47 0 0 1 -4.0694-7.0215z" fill="#e0eaeb"/><path d="m32.5786 17.4214a4.8527 4.8527 0 0 0 -6.8629 0l-1.7157 1.7157-1.7157-1.7157a4.8528 4.8528 0 0 0 -6.8629 6.8629l8.5786 8.7157 8.5786-8.7153a4.8527 4.8527 0 0 0 0-6.8633z" fill="#f0638c"/><path d="m48.5786 17.4214a4.8527 4.8527 0 0 0 -6.8629 0l-1.7157 1.7157-1.7157-1.7157a4.8528 4.8528 0 0 0 -6.8629 6.8629l8.5786 8.7157 8.5786-8.7153a4.8527 4.8527 0 0 0 0-6.8633z" fill="#82c8aa"/><path d="m5 42.8519a3.0989 3.0989 0 0 0 2.3505 3.08 3.0035 3.0035 0 0 0 3.6495-2.9451 2.7966 2.7966 0 0 1 1.2882-2.5075 3.0433 3.0433 0 0 1 4.7118 2.5061 2.8562 2.8562 0 0 0 1.3272 2.5573 3.0407 3.0407 0 0 0 4.6728-2.5281 2.8562 2.8562 0 0 1 1.3272-2.5573 3.0407 3.0407 0 0 1 4.6728 2.5281 2.8562 2.8562 0 0 0 1.3272 2.5573 3.0407 3.0407 0 0 0 4.6728-2.5281 2.8562 2.8562 0 0 1 1.3272-2.5573 3.0407 3.0407 0 0 1 4.6728 2.5281 2.8562 2.8562 0 0 0 1.3272 2.5573 3.0407 3.0407 0 0 0 4.6728-2.5281 2.8562 2.8562 0 0 1 1.3272-2.5573 3.0408 3.0408 0 0 1 4.6728 2.5281 2.8659 2.8659 0 0 0 1.372 2.582 3.0377 3.0377 0 0 0 4.628-2.5674v-.1481a14.8519 14.8519 0 0 0 -14.8519-14.8519h-24.2962a14.8519 14.8519 0 0 0 -14.8519 14.8519z" fill="#e0eaeb"/><path d="m37.1472 22.8735a2.8632 2.8632 0 0 0 -4.1178 0l-1.0294 1.0545-1.0294-1.0545a2.8632 2.8632 0 0 0 -4.1178 0 3.034 3.034 0 0 0 0 4.2179l5.1472 4.9086 5.1472-4.9086a3.034 3.034 0 0 0 0-4.2179z" fill="#856448"/></svg>