<svg id="cupcake1" height="512" viewBox="0 0 64 64" width="512" xmlns="http://www.w3.org/2000/svg"><path d="m32 15a24 24 0 0 0 -24 24h48a24 24 0 0 0 -24-24z" fill="#e19336"/><g fill="#ffd239"><circle cx="32" cy="33" r="2"/><circle cx="24" cy="27" r="2"/><circle cx="16" cy="33" r="2"/><circle cx="48" cy="33" r="2"/><circle cx="40" cy="27" r="2"/></g><path d="m35 59h-6l-3-20h6z" fill="#ffe359"/><path d="m47 59h-6l-3-20h6z" fill="#ffe359"/><path d="m29 59h-6l-3-20h6z" fill="#ffd239"/><path d="m41 59h-6l-3-20h6z" fill="#ffd239"/><path d="m53 59h-6l-3-20h6z" fill="#ffd239"/><path d="m50 39 3 20 3-20z" fill="#ffe359"/><path d="m23 59h-6l-3-20h6z" fill="#ffe359"/><path d="m17 59h-6l-3-20h6z" fill="#ffd239"/><path d="m31.75 8a8 8 0 1 1 -8 8 8 8 0 0 1 8-8" fill="#fa463c"/><circle cx="29" cy="14" fill="#ff5f50" r="2"/><path d="m31.75 12a1 1 0 0 1 -1-1 5.0059 5.0059 0 0 0 -5-5 1 1 0 0 1 0-2 7.0081 7.0081 0 0 1 7 7 1 1 0 0 1 -1 1z" fill="#a3c539"/></svg>