<svg id="cupcake1" height="512" viewBox="0 0 64 64" width="512" xmlns="http://www.w3.org/2000/svg"><path d="m8 39a24 24 0 0 1 48 0" fill="#eab966"/><path d="m16.7332 33.1818c3.8211 0 3.8211-4.3636 7.6421-4.3636 3.8184 0 3.8184 4.3636 7.6369 4.3636 3.8151 0 3.8151-4.3636 7.63-4.3636 3.8172 0 3.8172 4.3636 7.6344 4.3636 3.4029 0 3.7809-3.4591 6.5267-4.21a23.9988 23.9988 0 0 0 -43.6068 0c2.7508.7498 3.1288 4.21 6.5367 4.21z" fill="#ffe359"/><path d="m53 59h-5.25l2.25-20h6z" fill="#ffd239"/><path d="m47.75 59h-5.25l1.5-20h6z" fill="#ffe359"/><path d="m42.5 59h-5.25l.75-20h6z" fill="#ffd239"/><path d="m37.25 59h-5.25v-20h6z" fill="#ffe359"/><path d="m32 59h-5.25l-.75-20h6z" fill="#ffd239"/><path d="m26.75 59h-5.25l-1.5-20h6z" fill="#ffe359"/><path d="m21.5 59h-5.25l-2.25-20h6z" fill="#ffd239"/><path d="m16.25 59h-5.25l-3-20h6z" fill="#ffe359"/><path d="m19.5 4.5v.5a12.5 12.5 0 0 0 12.5 12.5 12.4149 12.4149 0 0 0 8.8389-3.6611 12.42 12.42 0 0 0 3.6611-8.8389v-.5z" fill="#ffd239"/><path d="m29.5859 6-6.0395 6.04a10.8977 10.8977 0 0 1 -2.502-6.04zm1.4141 1.4141v8.5415a10.8977 10.8977 0 0 1 -6.04-2.502zm2 8.5415v-8.5415l6.04 6.0395a10.8962 10.8962 0 0 1 -6.04 2.502zm7.4536-3.916-6.0395-6.0396h8.5415a10.8977 10.8977 0 0 1 -2.502 6.04z" fill="#ffe359"/></svg>