<svg id="cupcake1" height="512" viewBox="0 0 64 64" width="512" xmlns="http://www.w3.org/2000/svg"><path d="m59.9519 39.4271a27.9155 27.9155 0 0 0 -7.08-17.0938h-.0119a27.9855 27.9855 0 0 0 -48.8021 17.1251 1.9972 1.9972 0 0 0 1.9421 1.5416h52a1.9992 1.9992 0 0 0 1.9519-1.5729z" fill="#eab966"/><path d="m14.1888 34.2121c4.4578 0 4.4578-5.0909 8.9157-5.0909 4.4548 0 4.4548 5.0909 8.91 5.0909 4.451 0 4.451-5.0909 8.9019-5.0909 4.4534 0 4.4534 5.0909 8.9068 5.0909 3.97 0 4.4111-4.0356 7.6145-4.9121a27.9986 27.9986 0 0 0 -50.8746-.0006c3.2088.8758 3.6497 4.9127 7.6257 4.9127z" fill="#edf3f4"/><path d="m40.91 14.0028c-.8128 4.61-4.7053 6.0046-8.8977 5.9972s-8.0837-1.3153-8.9187-5.9615c-.8308-4.6207 4.032-12.0471 8.8864-12.0385s9.7483 7.36 8.93 12.0028z" fill="#f03228"/><path d="m23.0933 14.0385c.835 4.6462 4.7267 5.9541 8.9187 5.9615.4957.0008.9866-.02 1.4693-.061-3.574-.3146-6.6559-1.8216-7.388-5.8952-.7449-4.1438 3.0905-10.5418 7.3919-11.8114a5.3275 5.3275 0 0 0 -1.5052-.2324c-4.8544-.0086-9.7172 7.4178-8.8867 12.0385z" fill="#fa463c"/><path d="m44 41-1.5 20h10.5l3-20z" fill="#ff5f50"/><path d="m32 41v20h10.5l1.5-20z" fill="#fa463c"/><path d="m20 41 1.5 20h10.5v-20z" fill="#ff5f50"/><path d="m20 41h-12l3 20h10.5z" fill="#fa463c"/><g fill="#ffd239"><circle cx="36" cy="13" r="1"/><circle cx="35" cy="8" r="1"/><circle cx="32" cy="11" r="1"/><circle cx="32" cy="15" r="1"/><circle cx="28" cy="13" r="1"/><circle cx="29" cy="8" r="1"/></g><path d="m50.207 48.1118a1 1 0 0 0 -1.9882-.2236l-1.4629 13a.9266.9266 0 0 0 .01.1118h1.991z" fill="#fa463c"/><path d="m37.7744 47.0005a.9983.9983 0 0 0 -1.0361.9619l-.4873 13c0 .0132.0061.0245.0061.0376h1.9929l.4859-12.9624a1 1 0 0 0 -.9615-1.0371z" fill="#f03228"/><path d="m27.2617 47.9624a1 1 0 1 0 -1.998.0752l.4863 12.9624h1.9933c0-.0131.0066-.0244.0061-.0376z" fill="#fa463c"/><path d="m15.7812 47.8882a1 1 0 0 0 -1.9882.2236l1.4503 12.8882h1.991a.9266.9266 0 0 0 .01-.1118z" fill="#f03228"/></svg>