<svg id="cupcake1" height="512" viewBox="0 0 64 64" width="512" xmlns="http://www.w3.org/2000/svg"><path d="m20 22h24a12 12 0 0 1 12 12 0 0 0 0 1 0 0h-48a0 0 0 0 1 0 0 12 12 0 0 1 12-12z" fill="#856448"/><path d="m32 6a18 18 0 0 0 -18 18 10 10 0 0 0 12 0 10 10 0 0 0 12 0 10 10 0 0 0 12 0 18 18 0 0 0 -18-18z" fill="#f781a3"/><path d="m50 36-6 3-1.5 20h10.5l3-20z" fill="#f781a3"/><path d="m38 36-6 3v20h10.5l1.5-20z" fill="#f0638c"/><path d="m26 36-6 3 1.5 20h10.5v-20z" fill="#f781a3"/><path d="m14 36-6 3 3 20h10.5l-1.5-20z" fill="#f0638c"/><path d="m31 21a1 1 0 0 1 -.707-1.707l2-2a1 1 0 0 1 1.414 1.414l-2 2a.9967.9967 0 0 1 -.707.293z" fill="#edf3f4"/><path d="m37 15a1 1 0 0 1 -.707-1.707l2-2a1 1 0 0 1 1.414 1.414l-2 2a.9967.9967 0 0 1 -.707.293z" fill="#856448"/><path d="m27 15a.9967.9967 0 0 1 -.707-.293l-2-2a1 1 0 0 1 1.414-1.414l2 2a1 1 0 0 1 -.707 1.707z" fill="#ffe359"/><path d="m23 21a.9967.9967 0 0 1 -.707-.293l-2-2a1 1 0 0 1 1.414-1.414l2 2a1 1 0 0 1 -.707 1.707z" fill="#856448"/><path d="m43 21a.9967.9967 0 0 1 -.707-.293l-2-2a1 1 0 0 1 1.414-1.414l2 2a1 1 0 0 1 -.707 1.707z" fill="#ffe359"/><path d="m5 33v3l3 3 6-3 6 3 6-3 6 3 6-3 6 3 6-3 6 3 3-3v-3z" fill="#fd9fb9"/></svg>