<svg id="cupcake1" height="512" viewBox="0 0 64 64" width="512" xmlns="http://www.w3.org/2000/svg"><path d="m8 33a23.9941 23.9941 0 0 1 41.88-16h.01a23.9319 23.9319 0 0 1 6.11 16" fill="#eab966"/><path d="m14 24a3 3 0 0 0 3-3 3 3 0 0 1 6 0 3 3 0 0 0 6 0 3 3 0 0 1 6 0 3 3 0 0 0 6 0 3 3 0 0 1 6 0 2.9923 2.9923 0 0 0 5.9639.3584 24.0939 24.0939 0 0 0 -3.0739-4.3584h-.01a23.98 23.98 0 0 0 -37.88 2.75c-.3431.5154-.6627 1.0472-.9658 1.59a2.99 2.99 0 0 0 2.9658 2.66z" fill="#aa6f2a"/><path d="m5 33v3l3 3 3-3 3 3 3-3 3 3 3-3 3 3 3-3 3 3 3-3 3 3 3-3 3 3 3-3 3 3 3-3 3 3 3-3v-3z" fill="#edf3f4"/><path d="m35 36-3 3v20h5.25l.75-20z" fill="#c7db7e"/><path d="m41 36-3 3-.75 20h5.25l1.5-20z" fill="#a3c539"/><path d="m47 36-3 3-1.5 20h5.25l2.25-20z" fill="#c7db7e"/><path d="m50 39-2.25 20h5.25l3-20-3-3z" fill="#a3c539"/><path d="m29 36 3 3v20h-5.25l-.75-20z" fill="#a3c539"/><path d="m23 36 3 3 .75 20h-5.25l-1.5-20z" fill="#c7db7e"/><path d="m17 36 3 3 1.5 20h-5.25l-2.25-20z" fill="#a3c539"/><path d="m14 39 2.25 20h-5.25l-3-20 3-3z" fill="#c7db7e"/></svg>