<svg id="cupcake1" height="512" viewBox="0 0 64 64" width="512" xmlns="http://www.w3.org/2000/svg"><path d="m22.852 5.8535a2.91 2.91 0 0 1 4.118 0l1.03 1.028 1.03-1.028a2.9119 2.9119 0 0 1 4.118 4.118l-5.148 5.0285-5.148-5.0285a2.914 2.914 0 0 1 0-4.118z" fill="#f0638c"/><path d="m16 31h32a8 8 0 0 1 8 8 0 0 0 0 1 0 0h-48a0 0 0 0 1 0 0 8 8 0 0 1 8-8z" fill="#eab966"/><circle cx="33" cy="15" fill="#856448" r="5"/><path d="m35 59h-6l-3-20h6z" fill="#edf3f4"/><path d="m47 59h-6l-3-20h6z" fill="#edf3f4"/><g fill="#f0638c"><path d="m29 59h-6l-3-20h6z"/><path d="m41 59h-6l-3-20h6z"/><path d="m53 59h-6l-3-20h6z"/></g><path d="m50 39 3 20 3-20z" fill="#edf3f4"/><path d="m23 59h-6l-3-20h6z" fill="#edf3f4"/><path d="m17 59h-6l-3-20h6z" fill="#f0638c"/><rect fill="#f1d29a" height="8" rx="4" width="38" x="13" y="23"/><rect fill="#eab966" height="8" rx="4" width="26" x="19" y="15"/><path d="m29.148 29.8535a2.91 2.91 0 0 0 -4.118 0l-1.03 1.028-1.03-1.028a2.9119 2.9119 0 0 0 -4.118 4.118l5.148 5.0285 5.148-5.0285a2.914 2.914 0 0 0 0-4.118z" fill="#f0638c"/><path d="m46 18h2a0 0 0 0 1 0 0v2a6 6 0 0 1 -6 6h-2a0 0 0 0 1 0 0v-2a6 6 0 0 1 6-6z" fill="#82c8aa"/><path d="m32 18h2a6 6 0 0 1 6 6v2a0 0 0 0 1 0 0h-2a6 6 0 0 1 -6-6v-2a0 0 0 0 1 0 0z" fill="#82c8aa" transform="matrix(-1 0 0 -1 72 44)"/></svg>