<svg id="cupcake1" height="512" viewBox="0 0 64 64" width="512" xmlns="http://www.w3.org/2000/svg"><path d="m23 18h18a15 15 0 0 1 15 15 0 0 0 0 1 0 0h-48a0 0 0 0 1 0 0 15 15 0 0 1 15-15z" fill="#856448"/><path d="m50 39-3-3-3 3-1.5 20h10.5l3-20-3-3z" fill="#6e5332"/><path d="m41 36-3 3-3-3-3 3v20h10.5l1.5-20z" fill="#856448"/><path d="m29 36-3 3-3-3-3 3 1.5 20h10.5v-20z" fill="#6e5332"/><path d="m17 36-3 3-3-3-3 3 3 20h10.5l-1.5-20z" fill="#856448"/><path d="m42 13h-20a5 5 0 1 0 5 5 5 5 0 0 0 10 0 5 5 0 1 0 5-5z" fill="#ffd239"/><path d="m38.0107 6.4893a8.5 8.5 0 0 0 -14.5107 6.0107v.5h17v-.5a8.4477 8.4477 0 0 0 -2.4893-6.0107z" fill="#ffad34"/><path d="m5 33v3l3 3 3-3 3 3 3-3 3 3 3-3 3 3 3-3 3 3 3-3 3 3 3-3 3 3 3-3 3 3 3-3 3 3 3-3v-3z" fill="#ffd239"/><path d="m35.2125 7.8738-2.2125 2.2121v-4.5159a6.9319 6.9319 0 0 1 3.1933 1.3228zm-4.2125 2.2121-2.2125-2.2121-.9808-.9807a6.9319 6.9319 0 0 1 3.1933-1.3231zm-4.6074-1.7788.9809.9808 2.2123 2.2121h-4.5158a6.9338 6.9338 0 0 1 1.3226-3.1929zm8.0216 3.1929 2.2123-2.2121.9809-.9808a6.9338 6.9338 0 0 1 1.3226 3.1929z" fill="#ffd239"/><path d="m50.207 46.1118a1 1 0 0 0 -1.9882-.2236l-1.4629 13a.9266.9266 0 0 0 .01.1118h1.991z" fill="#856448"/><path d="m37.7744 45.0005a.9983.9983 0 0 0 -1.0361.9619l-.4873 13c0 .0132.0061.0245.0061.0376h1.9929l.4859-12.9624a1 1 0 0 0 -.9615-1.0371z" fill="#6e5332"/><path d="m27.2617 45.9624a1 1 0 1 0 -1.998.0752l.4863 12.9624h1.9933c0-.0131.0066-.0244.0061-.0376z" fill="#856448"/><path d="m15.7812 45.8882a1 1 0 0 0 -1.9882.2236l1.4503 12.8882h1.991a.9266.9266 0 0 0 .01-.1118z" fill="#6e5332"/></svg>