<svg id="cupcake1" height="512" viewBox="0 0 64 64" width="512" xmlns="http://www.w3.org/2000/svg"><path d="m28 19h16l-4.0877-4.1077a15.1209 15.1209 0 0 1 -3.8871-10.6151c.0028-.7515-.4686-1.3615-1.0082-1.2676-3.957.6883-7.017 5.3543-7.017 11.0079z" fill="#82c8aa"/><rect fill="#aad7c3" height="8" rx="4" width="48" x="8" y="25"/><rect fill="#aad7c3" height="6" rx="3" width="26" x="19" y="11"/><rect fill="#82c8aa" height="8" rx="4" width="36" x="14" y="17"/><rect fill="#82c8aa" height="8" rx="4" width="56" x="4" y="33"/><path d="m8 41 3 20h42l3-20z" fill="#856448"/><g fill="#6e5332"><path d="m22 8.5818a2.3012 2.3012 0 0 1 2.359-2.1956l1.0228.01a.014.014 0 0 0 .0142-.0142l-.01-1.0228a2.3012 2.3012 0 0 1 2.1958-2.3592 2.3341 2.3341 0 0 1 2.362 2.3016l.0562 5.6842a.014.014 0 0 1 -.0142.0142l-5.6838-.0563a2.334 2.334 0 0 1 -2.302-2.3619z"/><path d="m50.207 48.1118a1 1 0 0 0 -1.9882-.2236l-1.4629 13a.9266.9266 0 0 0 .01.1118h1.991z"/><path d="m37.7744 47.0005a.9983.9983 0 0 0 -1.0361.9619l-.4873 13c0 .0132.0061.0245.0061.0376h1.9929l.4859-12.9624a1 1 0 0 0 -.9615-1.0371z"/><path d="m27.2617 47.9624a1 1 0 1 0 -1.998.0752l.4863 12.9624h1.9933c0-.0131.0066-.0244.0061-.0376z"/><path d="m15.7812 47.8882a1 1 0 0 0 -1.9882.2236l1.4503 12.8882h1.991a.9266.9266 0 0 0 .01-.1118z"/></g></svg>