<svg id="cupcake1" height="512" viewBox="0 0 64 64" width="512" xmlns="http://www.w3.org/2000/svg"><path d="m8 39 3 20h42l3-20z" fill="#82c8aa"/><path d="m5 41.8519a3.0989 3.0989 0 0 0 2.3505 3.08 3.0035 3.0035 0 0 0 3.6495-2.9451 2.7966 2.7966 0 0 1 1.2882-2.5075 3.0433 3.0433 0 0 1 4.7118 2.5061 2.8562 2.8562 0 0 0 1.3272 2.5573 3.0406 3.0406 0 0 0 4.6728-2.5281 2.8564 2.8564 0 0 1 1.3272-2.5574 3.0407 3.0407 0 0 1 4.6728 2.5282 2.8562 2.8562 0 0 0 1.3272 2.5573 3.0406 3.0406 0 0 0 4.6728-2.5281 2.8564 2.8564 0 0 1 1.3272-2.5574 3.0407 3.0407 0 0 1 4.6728 2.5282 2.8562 2.8562 0 0 0 1.3272 2.5573 3.0406 3.0406 0 0 0 4.6728-2.5281 2.8564 2.8564 0 0 1 1.3272-2.5574 3.0407 3.0407 0 0 1 4.6728 2.5282 2.8663 2.8663 0 0 0 1.3721 2.582 3.0377 3.0377 0 0 0 4.6279-2.5674 27 27 0 0 0 -54 0" fill="#e0eaeb"/><path d="m29 6a6 6 0 1 1 -6 6 6 6 0 0 1 6-6" fill="#82c8aa"/><circle cx="27" cy="11" fill="#aad7c3" r="2"/><path d="m12 15v.5a12.5 12.5 0 1 0 25 0v-.5z" fill="#ffd239"/><path d="m22.0859 16.5-6.0395 6.04a10.8977 10.8977 0 0 1 -2.502-6.04zm1.4141 1.4141v8.5415a10.8977 10.8977 0 0 1 -6.04-2.502zm2 8.5415v-8.5415l6.04 6.04a10.8962 10.8962 0 0 1 -6.04 2.5015zm7.4536-3.916-6.0395-6.0396h8.5415a10.8977 10.8977 0 0 1 -2.502 6.04z" fill="#ffe359"/><path d="m48.21 10.7983a1 1 0 0 1 -.7071-1.707l2.8286-2.8286a1 1 0 1 1 1.4141 1.4141l-2.8286 2.8286a.9967.9967 0 0 1 -.707.2929z" fill="#7da834"/><path d="m53.0083 11h-5a1 1 0 0 1 0-2h5a1 1 0 0 1 0 2z" fill="#7da834"/><path d="m48.0083 11a1 1 0 0 1 -1-1v-5a1 1 0 0 1 2 0v5a1 1 0 0 1 -1 1z" fill="#7da834"/><path d="m36.4685 7.4742c4.273-2.9921 8.4393-1.0242 11.737 2.2858s5.3334 7.4063 2.33 11.7254c-2.9866 4.2955-12.67 6.3156-16.489 2.4834s-1.8819-13.4809 2.422-16.4946z" fill="#fa463c"/><path d="m50.5358 21.4853c3.0031-4.3192.9674-8.4162-2.33-11.7255q-.5851-.587-1.2058-1.1098c2.5683 3.0643 3.8094 6.68 1.1763 10.4671-2.679 3.8529-10.7424 5.8715-15.1323 3.4829a5.9316 5.9316 0 0 0 1.0028 1.369c3.8186 3.8318 13.5024 1.8117 16.489-2.4837z" fill="#f03228"/><g fill="#ffd239"><circle cx="46.088" cy="18.934" r="1"/><circle cx="40.431" cy="21.763" r="1"/><circle cx="41.138" cy="16.813" r="1"/><circle cx="44.674" cy="13.277" r="1"/><circle cx="39.017" cy="11.863" r="1"/><circle cx="36.189" cy="17.52" r="1"/></g><path d="m50.207 46.1118a1 1 0 0 0 -1.9882-.2236l-1.4629 13a.9266.9266 0 0 0 .01.1118h1.991z" fill="#aad7c3"/><path d="m37.7744 45.0005a.9983.9983 0 0 0 -1.0361.9619l-.4873 13c0 .0132.0061.0245.0061.0376h1.9929l.4859-12.9624a1 1 0 0 0 -.9615-1.0371z" fill="#aad7c3"/><path d="m27.2617 45.9624a1 1 0 1 0 -1.998.0752l.4863 12.9624h1.9933c0-.0131.0066-.0244.0061-.0376z" fill="#aad7c3"/><path d="m15.7812 45.8882a1 1 0 0 0 -1.9882.2236l1.4503 12.8882h1.991a.9266.9266 0 0 0 .01-.1118z" fill="#aad7c3"/></svg>