<svg id="cupcake1" height="512" viewBox="0 0 64 64" width="512" xmlns="http://www.w3.org/2000/svg"><path d="m25.5717 7a3.4267 3.4267 0 0 0 -3.4284 3.4283l-.0016 1.7134-1.7134.0016a3.4284 3.4284 0 0 0 0 6.8567l8.4722-.0995.0995-8.4722a3.4309 3.4309 0 0 0 -3.4283-3.4283z" fill="#f0638c"/><rect fill="#e0eaeb" height="20" rx="4" transform="matrix(0 1 -1 0 51 -5)" width="8" x="24" y="13"/><path d="m41 27h-22l5.6206-5.648c3.3774-3.3938 5.3665-8.8258 5.3448-14.5959-.0039-1.0332.6443-1.872 1.3862-1.743 5.4404.9469 9.6484 7.3623 9.6484 15.136z" fill="#edf3f4"/><path d="m20 27h24a12 12 0 0 1 12 12 0 0 0 0 1 0 0h-48a0 0 0 0 1 0 0 12 12 0 0 1 12-12z" fill="#e0eaeb"/><path d="m44 39-1.5 20h10.5l3-20z" fill="#82c8aa"/><path d="m32 39v20h10.5l1.5-20z" fill="#f0638c"/><path d="m20 39 1.5 20h10.5v-20z" fill="#82c8aa"/><path d="m20 39h-12l3 20h10.5z" fill="#f0638c"/><path d="m50.207 46.1118a1 1 0 0 0 -1.9882-.2236l-1.4629 13a.9266.9266 0 0 0 .01.1118h1.991z" fill="#aad7c3"/><path d="m37.7744 45.0005a.9983.9983 0 0 0 -1.0361.9619l-.4873 13c0 .0132.0061.0245.0061.0376h1.9929l.4859-12.9624a1 1 0 0 0 -.9615-1.0371z" fill="#f781a3"/><path d="m27.2617 45.9624a1 1 0 1 0 -1.998.0752l.4863 12.9624h1.9933c0-.0131.0066-.0244.0061-.0376z" fill="#aad7c3"/><path d="m15.7812 45.8882a1 1 0 0 0 -1.9882.2236l1.4503 12.8882h1.991a.9266.9266 0 0 0 .01-.1118z" fill="#f781a3"/><path d="m47 23.5717a3.4267 3.4267 0 0 0 -3.4283-3.4284l-1.7134-.0016-.0016-1.7134a3.4284 3.4284 0 0 0 -6.8567 0l.1 8.4722 8.4717.0995a3.4309 3.4309 0 0 0 3.4283-3.4283z" fill="#fd9fb9"/></svg>