<svg id="cupcake1" height="512" viewBox="0 0 64 64" width="512" xmlns="http://www.w3.org/2000/svg"><path d="m32 5a24 24 0 0 1 24 24v4a0 0 0 0 1 0 0h-48a0 0 0 0 1 0 0v-4a24 24 0 0 1 24-24z" fill="#eab966"/><path d="m32 5a24 24 0 0 0 -24 23.993 2.995 2.995 0 0 0 3-3.0062 2.7966 2.7966 0 0 1 1.2882-2.5075 3.0433 3.0433 0 0 1 4.7118 2.5061 2.8562 2.8562 0 0 0 1.3272 2.5573 3.0406 3.0406 0 0 0 4.6728-2.5281 2.8564 2.8564 0 0 1 1.3272-2.5574 3.0407 3.0407 0 0 1 4.6728 2.5282 2.8562 2.8562 0 0 0 1.3272 2.5573 3.0406 3.0406 0 0 0 4.6728-2.5281 2.8564 2.8564 0 0 1 1.3272-2.5574 3.0407 3.0407 0 0 1 4.6728 2.5282 2.8562 2.8562 0 0 0 1.3272 2.5573 3.0406 3.0406 0 0 0 4.6728-2.5281 2.8564 2.8564 0 0 1 1.3272-2.5574 3.0407 3.0407 0 0 1 4.6728 2.5282 2.8663 2.8663 0 0 0 1.3721 2.582 3.3972 3.3972 0 0 0 1.6279.4288 24 24 0 0 0 -24-23.9962z" fill="#856448"/><g fill="#e0eaeb"><path d="m33 14a.9967.9967 0 0 1 -.707-.293l-2-2a1 1 0 0 1 1.414-1.414l2 2a1 1 0 0 1 -.707 1.707z"/><path d="m22 14a1 1 0 0 1 -.707-1.707l2-2a1 1 0 0 1 1.414 1.414l-2 2a.9967.9967 0 0 1 -.707.293z"/><path d="m40 14a1 1 0 0 1 -.707-1.707l2-2a1 1 0 0 1 1.414 1.414l-2 2a.9967.9967 0 0 1 -.707.293z"/><path d="m17 20a1 1 0 0 1 -.707-1.707l2-2a1 1 0 0 1 1.414 1.414l-2 2a.9967.9967 0 0 1 -.707.293z"/><path d="m36 20a1 1 0 0 1 -.707-1.707l2-2a1 1 0 0 1 1.414 1.414l-2 2a.9967.9967 0 0 1 -.707.293z"/><path d="m47 20a.9967.9967 0 0 1 -.707-.293l-2-2a1 1 0 0 1 1.414-1.414l2 2a1 1 0 0 1 -.707 1.707z"/><path d="m28 20a.9967.9967 0 0 1 -.707-.293l-2-2a1 1 0 0 1 1.414-1.414l2 2a1 1 0 0 1 -.707 1.707z"/><path d="m5 33v3l3 3 3-3 3 3 3-3 3 3 3-3 3 3 3-3 3 3 3-3 3 3 3-3 3 3 3-3 3 3 3-3 3 3 3-3v-3z"/></g><path d="m35 36-3 3v20h5.25l.75-20z" fill="#856448"/><path d="m41 36-3 3-.75 20h5.25l1.5-20z" fill="#82c8aa"/><path d="m47 36-3 3-1.5 20h5.25l2.25-20z" fill="#856448"/><path d="m50 39-2.25 20h5.25l3-20-3-3z" fill="#82c8aa"/><path d="m29 36 3 3v20h-5.25l-.75-20z" fill="#82c8aa"/><path d="m23 36 3 3 .75 20h-5.25l-1.5-20z" fill="#856448"/><path d="m17 36 3 3 1.5 20h-5.25l-2.25-20z" fill="#82c8aa"/><path d="m14 39 2.25 20h-5.25l-3-20 3-3z" fill="#856448"/></svg>