<svg id="cupcake1" height="512" viewBox="0 0 64 64" width="512" xmlns="http://www.w3.org/2000/svg"><path d="m32 11a24 24 0 0 1 24 24v4a0 0 0 0 1 0 0h-48a0 0 0 0 1 0 0v-4a24 24 0 0 1 24-24z" fill="#eab966"/><path d="m16.7332 29c3.8211 0 3.8211-4.3636 7.6421-4.3636 3.8184 0 3.8184 4.3636 7.6369 4.3636 3.8151 0 3.8151-4.3636 7.63-4.3636 3.8178 0 3.8178 4.3636 7.6346 4.3636 3.4029 0 3.7809-3.4591 6.5267-4.21a23.9988 23.9988 0 0 0 -43.6068 0c2.7506.75 3.1286 4.21 6.5365 4.21z" fill="#e0eaeb"/><path d="m23 7a6 6 0 1 1 -6 6 6 6 0 0 1 6-6" fill="#f03228"/><circle cx="21" cy="12" fill="#ff5f50" r="2"/><path d="m46 5h2a0 0 0 0 1 0 0v2a6 6 0 0 1 -6 6h-2a0 0 0 0 1 0 0v-2a6 6 0 0 1 6-6z" fill="#a3c539"/><path d="m32 5h2a6 6 0 0 1 6 6v2a0 0 0 0 1 0 0h-2a6 6 0 0 1 -6-6v-2a0 0 0 0 1 0 0z" fill="#a3c539" transform="matrix(-1 0 0 -1 72 18)"/><g fill="#ffd239"><circle cx="45" cy="20" r="2"/><circle cx="37" cy="18" r="2"/><circle cx="31" cy="22" r="2"/></g><path d="m50 36-6 3-1.5 20h10.5l3-20z" fill="#ffe359"/><path d="m38 36-6 3v20h10.5l1.5-20z" fill="#ffd239"/><path d="m26 36-6 3 1.5 20h10.5v-20z" fill="#ffe359"/><path d="m14 36-6 3 3 20h10.5l-1.5-20z" fill="#ffd239"/></svg>