<svg id="cupcake1" height="512" viewBox="0 0 64 64" width="512" xmlns="http://www.w3.org/2000/svg"><path d="m21 21h22a7 7 0 0 1 7 7 2 2 0 0 1 -2 2h-32a2 2 0 0 1 -2-2 7 7 0 0 1 7-7z" fill="#edf3f4"/><path d="m26 13h12a6 6 0 0 1 6 6 2 2 0 0 1 -2 2h-20a2 2 0 0 1 -2-2 6 6 0 0 1 6-6z" fill="#e0eaeb"/><path d="m35.8015 5.2772a1.1894 1.1894 0 0 0 -1.26-1.2677c-4.3426.6044-7.8149 4.2774-8.5992 8.9905h12.1285a13.9647 13.9647 0 0 1 -2.2693-7.7228z" fill="#edf3f4"/><path d="m14 30h36a8 8 0 0 1 8 8 2 2 0 0 1 -2 2h-48a2 2 0 0 1 -2-2 8 8 0 0 1 8-8z" fill="#e0eaeb"/><path d="m56 40-.07.2-4.03 11.492v.008l-.05.142v.008l-2.85 8.15h-34l-7-20z" fill="#a3c539"/><g fill="#fa463c"><path d="m22.6 60h-7.6l-7-20h7.86z"/><path d="m38.6 60h-7.9l-6.74-20h7.9z"/><path d="m51.85 51.842v.008l-2.85 8.15h-2.3l-6.74-20h7.9z"/></g></svg>