<svg id="cupcake1" height="512" viewBox="0 0 64 64" width="512" xmlns="http://www.w3.org/2000/svg"><path d="m24 42 2.333 20h5.667v-20z" fill="#e6a759"/><path d="m16 42 4.667 20h5.666l-2.333-20z" fill="#eab978"/><path d="m40 42-2.333 20h5.666l4.667-20z" fill="#e6a759"/><path d="m8 42 7 20h5.667l-4.667-20z" fill="#e6a759"/><path d="m32 42v20h5.667l2.333-20z" fill="#eab978"/><path d="m48 42-4.667 20h5.667l7-20z" fill="#eab978"/><path d="m5 46.0008v.001a2.9981 2.9981 0 0 0 3 2.9982 3.0018 3.0018 0 0 0 3-3.0018v-.9982a3 3 0 0 1 3-3 3 3 0 0 1 3 3v1a3 3 0 0 0 3 3 3.0027 3.0027 0 0 0 3.0027-3l.0009-1.0064a2.9964 2.9964 0 0 1 2.9964-2.9936 2.9986 2.9986 0 0 1 2.9986 2.9973v1.0927a2.91 2.91 0 0 0 2.9114 2.91h.0753a3.0043 3.0043 0 0 0 3.0159-3v-1.0024a2.9985 2.9985 0 0 1 2.9988-2.9976 3 3 0 0 1 3 2.9988v1.0012a3 3 0 0 0 3 3 3 3 0 0 0 3-3v-1a3 3 0 0 1 3-3 3 3 0 0 1 3 3v.9991a3.0009 3.0009 0 0 0 3 3.0009 2.9991 2.9991 0 0 0 3-2.9991 24.0008 24.0008 0 0 0 -24.0008-24.0009h-5.9984a24.0008 24.0008 0 0 0 -24.0008 24.0008z" fill="#e0eaeb"/><path d="m38.95 17.3683c-.0117 0-.0235 0-.0361-.001a.9985.9985 0 0 1 -.9639-1.0342 11.3778 11.3778 0 0 0 -11.957-11.958c-.0127.001-.0245.001-.0362.001a1 1 0 0 1 -.0342-1.999 13.3751 13.3751 0 0 1 14.025 14.0263.9989.9989 0 0 1 -.9976.9649z" fill="#a3c539"/><path d="m46.1361 17.62a4.6181 4.6181 0 0 0 -6.37-2.0367 2.7714 2.7714 0 0 0 -.7661.5877 2.7714 2.7714 0 0 0 -.7662-.5875 4.6181 4.6181 0 0 0 -6.37 2.0367 8.3068 8.3068 0 0 0 -.8638 3.5734 7.5587 7.5587 0 0 0 8 7.8064 7.5587 7.5587 0 0 0 8-7.8064 8.3068 8.3068 0 0 0 -.8639-3.5736z" fill="#f03228"/><path d="m30 21a.9958.9958 0 0 1 -.6817-.2686 13.1221 13.1221 0 0 1 0-19.4628 1 1 0 1 1 1.3637 1.4629 11.1241 11.1241 0 0 0 0 16.5372 1 1 0 0 1 -.682 1.7313z" fill="#c7db7e"/><path d="m34.1361 17.62a4.6181 4.6181 0 0 0 -6.37-2.0367 2.7714 2.7714 0 0 0 -.7661.5877 2.7714 2.7714 0 0 0 -.7662-.5875 4.6181 4.6181 0 0 0 -6.37 2.0367 8.3068 8.3068 0 0 0 -.8638 3.5734 7.5587 7.5587 0 0 0 8 7.8064 7.5587 7.5587 0 0 0 8-7.8064 8.3068 8.3068 0 0 0 -.8639-3.5736z" fill="#fa463c"/><circle cx="42" cy="20" fill="#fa463c" r="2"/><circle cx="24" cy="20" fill="#ff5f50" r="2"/></svg>