<svg id="cupcake1" height="512" viewBox="0 0 64 64" width="512" xmlns="http://www.w3.org/2000/svg"><path d="m24 42 2.333 20h5.667v-20z" fill="#edf3f4"/><path d="m16 42 4.667 20h5.666l-2.333-20z" fill="#e0eaeb"/><path d="m40 42-2.333 20h5.666l4.667-20z" fill="#edf3f4"/><path d="m8 42 7 20h5.667l-4.667-20z" fill="#edf3f4"/><path d="m32 42v20h5.667l2.333-20z" fill="#e0eaeb"/><path d="m48 42-4.667 20h5.667l7-20z" fill="#e0eaeb"/><path d="m58.9684 42h-53.9368a2.0767 2.0767 0 0 1 -2.0808-2.2629 22.5373 22.5373 0 0 1 4.6053-11.3735c5.1939-6.8409 14.2019-11.3636 24.4439-11.3636s19.25 4.5227 24.4439 11.3636a22.5373 22.5373 0 0 1 4.6053 11.3735 2.0767 2.0767 0 0 1 -2.0808 2.2629z" fill="#b48450"/><path d="m56.4439 28.3636c-5.1939-6.8409-14.2019-11.3636-24.4439-11.3636s-19.25 4.5227-24.4439 11.3636a24.1821 24.1821 0 0 0 -1.5561 2.313v4.4287a1.9744 1.9744 0 0 0 2.3416 1.8674 2.0037 2.0037 0 0 0 1.6584-1.9827v-3.4736a1.9744 1.9744 0 0 1 2.3417-1.8675 2.0037 2.0037 0 0 1 1.6583 1.9827v.6316a1.9744 1.9744 0 0 0 2.3416 1.8674 2.0037 2.0037 0 0 0 1.6584-1.9827v-4.6216a1.9745 1.9745 0 0 1 2.3417-1.8675 2.0039 2.0039 0 0 1 1.6583 1.9827v7.4638a1.9744 1.9744 0 0 0 2.3416 1.8674 2.0037 2.0037 0 0 0 1.6584-1.9827v-7.4637a1.9745 1.9745 0 0 1 2.3417-1.8675 2.0039 2.0039 0 0 1 1.6583 1.9827v1.78a1.9744 1.9744 0 0 0 2.3416 1.8674 2.0038 2.0038 0 0 0 1.6584-1.9831v-1.78a1.9745 1.9745 0 0 1 2.3417-1.8675 2.0039 2.0039 0 0 1 1.6583 1.9832v7.4638a1.9744 1.9744 0 0 0 2.3416 1.8674 2.0037 2.0037 0 0 0 1.6584-1.9827v-7.4637a1.9745 1.9745 0 0 1 2.3417-1.8675 2.0039 2.0039 0 0 1 1.6583 1.9827v4.6217a1.9744 1.9744 0 0 0 2.3416 1.8674 2.0037 2.0037 0 0 0 1.6584-1.9827v-.6315a1.9744 1.9744 0 0 1 2.3417-1.8675 2.0037 2.0037 0 0 1 1.6583 1.9827v3.4737a1.9744 1.9744 0 0 0 2.3416 1.8674 2.0037 2.0037 0 0 0 1.6584-1.9827v-4.3134a24.1821 24.1821 0 0 0 -1.5561-2.313z" fill="#aa6f2a"/><path d="m31 2a7 7 0 1 1 -7 7 7 7 0 0 1 7-7" fill="#fa463c"/><circle cx="29" cy="7" fill="#ff5f50" r="2"/><path d="m41 6.0018v-.0018a20.4852 20.4852 0 0 1 -14.4852 6h-3.3429a4.1161 4.1161 0 0 0 -4.1531 3.6071 4.0007 4.0007 0 0 0 3.9812 4.3929h17.8281a4.2482 4.2482 0 0 0 4.1531-3.6071 3.9915 3.9915 0 0 0 -1.0512-3.1159 10.7088 10.7088 0 0 1 -2.93-7.2752z" fill="#edf3f4"/></svg>