<svg id="cupcake1" height="512" viewBox="0 0 64 64" width="512" xmlns="http://www.w3.org/2000/svg"><path d="m32 15c-15.464 0-28 8.0588-28 18h56c0-9.9412-12.536-18-28-18z" fill="#e19336"/><path d="m32 26-28 7a10.2209 10.2209 0 0 0 4 8l24-.0367 24 .0367a10.2209 10.2209 0 0 0 4-8z" fill="#e19336"/><path d="m32 2c.2642 2.722.5263 9.4737.5263 13.6842 0 3.4881 2.3014 6.3158 5.79 6.3158a6.3158 6.3158 0 0 0 6.3158-6.3158c-.0005-7.3684-12.6321-13.6842-12.6321-13.6842z" fill="#e0eaeb"/><path d="m20.8936 13.0526c-3.3536 3.673-.6591 8.9474 3.0845 8.9474 5.3479 0 8.0219-4.5322 8.0219-9.4737v-10.5263c-3.2088 5.79-8.2493 7.9232-11.1064 11.0526z" fill="#e0eaeb"/><path d="m32 2c.2642 2.722-6.3158 9.4737-6.3158 13.6842a6.3158 6.3158 0 0 0 12.6316 0c0-6.8421-6.3158-13.6842-6.3158-13.6842z" fill="#edf3f4"/><path d="m32 41v20h5.25l.75-20z" fill="#f1d29a"/><path d="m38 41-.75 20h5.25l1.5-20z" fill="#eab966"/><path d="m44 41-1.5 20h5.25l2.25-20z" fill="#f1d29a"/><path d="m50 41-2.25 20h5.25l3-20z" fill="#eab966"/><path d="m32 41v20h-5.25l-.75-20z" fill="#eab966"/><path d="m26 41 .75 20h-5.25l-1.5-20z" fill="#f1d29a"/><path d="m20 41 1.5 20h-5.25l-2.25-20z" fill="#eab966"/><path d="m14 41 2.25 20h-5.25l-3-20z" fill="#f1d29a"/></svg>