<svg id="cupcake1" height="512" viewBox="0 0 64 64" width="512" xmlns="http://www.w3.org/2000/svg"><path d="m4 28c0-12.15 12.536-22 28-22s28 9.85 28 22" fill="#b48450"/><path d="m32 22-28 6a11.8634 11.8634 0 0 0 4 9l24-.0412 24 .0412a11.8634 11.8634 0 0 0 4-9z" fill="#b48450"/><g fill="#aa6f2a"><circle cx="11" cy="30" r="2"/><circle cx="53" cy="30" r="2"/><circle cx="40" cy="24" r="2"/><circle cx="18" cy="20" r="1"/><circle cx="48" cy="19" r="1"/><circle cx="32" cy="15" r="2"/><circle cx="27" cy="31" r="2"/></g><path d="m32 37v20h5.25l.75-20z" fill="#6e5332"/><path d="m38 37-.75 20h5.25l1.5-20z" fill="#856448"/><path d="m44 37-1.5 20h5.25l2.25-20z" fill="#6e5332"/><path d="m50 37-2.25 20h5.25l3-20z" fill="#856448"/><path d="m32 37v20h-5.25l-.75-20z" fill="#856448"/><path d="m26 37 .75 20h-5.25l-1.5-20z" fill="#6e5332"/><path d="m20 37 1.5 20h-5.25l-2.25-20z" fill="#856448"/><path d="m14 37 2.25 20h-5.25l-3-20z" fill="#6e5332"/></svg>