<svg id="cupcake1" height="512" viewBox="0 0 64 64" width="512" xmlns="http://www.w3.org/2000/svg"><path d="m32 25-28 6a11.8634 11.8634 0 0 0 4 9l24 19 24-19a11.8634 11.8634 0 0 0 4-9z" fill="#eab966"/><path d="m32 5c-15.464 0-28 11.6422-28 26.0035h56c0-14.3613-12.536-26.0035-28-26.0035z" fill="#eab966"/><g fill="#f1d29a"><circle cx="22" cy="30" r="1"/><circle cx="44" cy="30" r="1"/><circle cx="25" cy="22" r="1"/><circle cx="43" cy="14" r="1"/><circle cx="35" cy="24" r="4"/><circle cx="14" cy="25" r="3"/><circle cx="49" cy="24" r="3"/><circle cx="29" cy="13" r="3"/></g><path d="m24 40 2.333 20h5.667v-16z" fill="#e0eaeb"/><path d="m16.721 43.091 3.946 16.909h5.666l-2.333-20z" fill="#edf3f4"/><path d="m40 40-2.333 20h5.666l3.946-16.909z" fill="#e0eaeb"/><path d="m8 40 7 20h5.667l-3.946-16.909z" fill="#e0eaeb"/><path d="m32 44v16h5.667l2.333-20z" fill="#edf3f4"/><path d="m47.279 43.091-3.946 16.909h5.667l7-20z" fill="#edf3f4"/></svg>