<svg height="512" viewBox="0 0 58 58" width="512" xmlns="http://www.w3.org/2000/svg"><g id="Page-1" fill="none" fill-rule="evenodd"><g id="001---Volley-Ball" fill-rule="nonzero" transform="translate(0 -1)"><path id="Shape" d="m49.03 15.66c-2.4073904-7.60622304-8.9169385-13.19136683-16.8006713-14.41485093-7.8837329-1.22348409-15.779859 2.12602924-20.3793287 8.64485093v.01c-2.51002931 3.535014-3.85577567 7.7645026-3.85 12.1-.00925884 5.6274236 2.2512028 11.0208058 6.27 14.96v.01c.0113954.0123522.0249512.022519.04.03 2.756212 2.715275 6.2163078 4.6063784 9.99 5.46 1.5401394.3632896 3.1176005.5445298 4.7.54 10.1796255-.0033086 18.8909897-7.307031 20.67-17.33.2215812-1.2107247.3320406-2.4391677.33-3.67.0021143-2.1504519-.3250085-4.2885533-.97-6.34z" fill="#f3d55b"/><path id="Shape" d="m53 54c.5522847 0 1-.4477153 1-1s-.4477153-1-1-1h-5v-3h5c.5522847 0 1-.4477153 1-1s-.4477153-1-1-1h-5v-5c0-.5522847-.4477153-1-1-1s-1 .4477153-1 1v5h-4v-5c0-.5522847-.4477153-1-1-1s-1 .4477153-1 1v5h-4v-5c0-.5522847-.4477153-1-1-1s-1 .4477153-1 1v5h-4v-5c0-.5522847-.4477153-1-1-1s-1 .4477153-1 1v5h-4v-5c0-.5522847-.4477153-1-1-1s-1 .4477153-1 1v5h-4v-5c0-.5522847-.4477153-1-1-1s-1 .4477153-1 1v5h-4v-5c0-.5522847-.4477153-1-1-1s-1 .4477153-1 1v5h-5c-.55228475 0-1 .4477153-1 1s.44771525 1 1 1h5v3h-5c-.55228475 0-1 .4477153-1 1s.44771525 1 1 1h5v3h-5c-.55228475 0-1 .4477153-1 1s.44771525 1 1 1h48c.5522847 0 1-.4477153 1-1s-.4477153-1-1-1h-5v-3zm-7-5v3h-4v-3zm-6 0v3h-4v-3zm-16 5h4v3h-4zm-2 3h-4v-3h4zm8-3h4v3h-4zm6 0h4v3h-4zm-2-5v3h-4v-3zm-6 0v3h-4v-3zm-6 0v3h-4v-3zm-10 0h4v3h-4zm0 5h4v3h-4zm34 3h-4v-3h4z" fill="#464f5d"/><path id="Shape" d="m5 41v18h-4c-.55228475 0-1-.4477153-1-1v-17z" fill="#95a5a5"/><path id="Shape" d="m58 41v17c0 .5522847-.4477153 1-1 1h-4v-18z" fill="#95a5a5"/><path id="Shape" d="m14.27 36.96c-5.42383776-5.3377126-7.53565642-13.1919947-5.52-20.53.57144741-.1207416 1.14893691-.21087 1.73-.27h.01c.8322168-.1086884 1.6707185-.1621388 2.51-.16.33 0 .65.01.98.03-1.27 3.16-2.91 10.05.29 20.93z" fill="#d25627"/><path id="Shape" d="m49.03 15.66c-4.85 10.91-18.3 15.5-20.67 16.23-.2419374-1.2824781-.3624703-2.5849032-.36-3.89.1282306-1.7012043.4640574-3.3803381 1-5 3.1512286-.3910159 6.1605925-1.5405449 8.77-3.35 2.3388367-1.6301081 4.325065-3.7149676 5.84-6.13.852248-1.3362093 1.5564014-2.7612816 2.1-4.25 1.4659397 1.9232037 2.589079 4.0849087 3.32 6.39z" fill="#3b97d3"/><path id="Shape" d="m43.61 13.52c-1.514935 2.4150324-3.5011633 4.4998919-5.84 6.13-8.1-12.6-25.77-9.65-25.77-9.65l-.15-.1v-.01c1.7904437-2.54079326 4.1233983-4.65172442 6.83-6.18 9.4554162-1.32885516 18.9157738 2.39381261 24.93 9.81z" fill="#f0c419"/><path id="Shape" d="m50 22c.0020406 1.2308323-.1084188 2.4592753-.33 3.67-4.7871028 6.1417624-11.3577233 10.6514228-18.81 12.91-1.2108698-2.0701072-2.0565391-4.3331182-2.5-6.69 2.37-.73 15.82-5.32 20.67-16.23.6449915 2.0514467.9721143 4.1895481.97 6.34z" fill="#2980ba"/><path id="Shape" d="m49.67 25.67c-1.4675895 8.2696361-7.7213285 14.869494-15.9 16.78-.13-.13-.26-.26-.38-.4-.9582217-1.0683656-1.805873-2.2309545-2.53-3.47 7.4522767-2.2585772 14.0228972-6.7682376 18.81-12.91z" fill="#3b97d3"/><path id="Shape" d="m33.77 42.45c-1.5634754.3666358-3.1641122.5511956-4.77.55-1.5823995.0045298-3.1598606-.1767104-4.7-.54-3.9532195-7.6068937-4.967732-16.4028954-2.85-24.71 2.8620075 1.1920291 5.436175 2.9820132 7.55 5.25-.5359426 1.6196619-.8717694 3.2987957-1 5-.0047764 3.7182874.9825031 7.3705313 2.86 10.58.724127 1.2390455 1.5717783 2.4016344 2.53 3.47.12.14.25.27.38.4z" fill="#d25627"/><path id="Shape" d="m24.3 42.46c-3.7736922-.8536216-7.233788-2.744725-9.99-5.46-.0150488-.007481-.0286046-.0176478-.04-.03v-.01c-3.2-10.88-1.56-17.77-.29-20.93 2.5717817.1295224 5.1005421.7117805 7.47 1.72-2.117732 8.3071046-1.1032195 17.1031063 2.85 24.71z" fill="#e57e25"/><g fill="#bdc3c7"><path id="Shape" d="m29 43h-29v-4c.0032948-1.1032019.89679813-1.9967052 2-2h12.31c2.756212 2.715275 6.2163078 4.6063784 9.99 5.46 1.5401394.3632896 3.1176005.5445298 4.7.54z"/><path id="Shape" d="m58 39v4h-29c5.4930897-.000961 10.7669626-2.1550275 14.69-6h12.31c1.1032019.0032948 1.9967052.8967981 2 2z"/></g></g></g></svg>