<svg height="512" viewBox="0 0 60 59" width="512" xmlns="http://www.w3.org/2000/svg"><g id="Page-1" fill="none" fill-rule="evenodd"><g id="002---Water-Polo" fill-rule="nonzero" transform="translate(-1 -1)"><path id="Shape" d="m51.03 15.66c-.7310118-2.301984-1.8541928-4.460386-3.32-6.38v-.01c-4.0523516-5.32246148-10.3987172-8.39495996-17.0871513-8.27249011s-12.9180641 3.4252435-16.7728487 8.89249011v.01c-2.5100293 3.535014-3.85577567 7.7645026-3.85 12.1-.00925884 5.6274236 2.2512028 11.0208058 6.27 14.96v.01c.8529158.8407507 1.776292 1.6068853 2.76 2.29h.01c.4542301-.1699705.9350145-.2580015 1.42-.26.9700898-.0029558 1.9069421.3532619 2.63 1 .6915702.6191944 1.5819451.9703781 2.51.99 1.0148827.0490647 2.0076878-.3070502 2.76-.99h.01c1.5037282-1.3331595 3.7662718-1.3331595 5.27 0 .0887869.08204.1822787.1588368.28.23.01.01.02.01.02.02.6797321.4863029 1.4942226.7484779 2.33.75.9731041.0030611 1.9131279-.3530086 2.64-1 1.1075527-.9801942 2.6673874-1.265201 4.05-.74h.01c4.5976423-3.1872173 7.7301248-8.0803711 8.7-13.59.2215812-1.2107247.3320406-2.4391677.33-3.67.0021143-2.1504519-.3250085-4.2885533-.97-6.34z" fill="#f3d55b"/><path id="Shape" d="m16.27 36.96c-5.4238378-5.3377126-7.53565642-13.1919947-5.52-20.53.5714474-.1207416 1.1489369-.21087 1.73-.27h.01c.8322168-.1086884 1.6707185-.1621388 2.51-.16.33 0 .65.01.98.03-1.27 3.16-2.91 10.05.29 20.93z" fill="#d25627"/><path id="Shape" d="m25.6 40.99c-.9280549-.0196219-1.8184298-.3708056-2.51-.99-.7230579-.6467381-1.6599102-1.0029558-2.63-1-.4849855.0019985-.9657699.0900295-1.42.26h-.01c-.983708-.6831147-1.9070842-1.4492493-2.76-2.29v-.01c-3.2-10.88-1.56-17.77-.29-20.93 2.5717817.1295224 5.1005421.7117805 7.47 1.72-1.9826882 7.7629765-1.2232002 15.9725123 2.15 23.24z" fill="#e57e25"/><path id="Shape" d="m51.03 15.66c-4.85 10.91-18.3 15.5-20.67 16.23-.2419374-1.2824781-.3624703-2.5849032-.36-3.89.1282306-1.7012043.4640574-3.3803381 1-5 3.1512286-.3910159 6.1605925-1.5405449 8.77-3.35 2.3388367-1.6301081 4.325065-3.7149676 5.84-6.13.8463312-1.3360162 1.5501825-2.7571255 2.1-4.24 1.4658072 1.919614 2.5889882 4.078016 3.32 6.38z" fill="#3b97d3"/><path id="Shape" d="m52 22c.0020406 1.2308323-.1084188 2.4592753-.33 3.67-4.7871028 6.1417624-11.3577233 10.6514228-18.81 12.91-1.2108698-2.0701072-2.0565391-4.3331182-2.5-6.69 2.37-.73 15.82-5.32 20.67-16.23.6449915 2.0514467.9721143 4.1895481.97 6.34z" fill="#2980ba"/><path id="Shape" d="m51.67 25.67c-.9698752 5.5096289-4.1023577 10.4027827-8.7 13.59h-.01c-1.3826126-.525201-2.9424473-.2401942-4.05.74-.7268721.6469914-1.6668959 1.0030611-2.64 1-.8357774-.0015221-1.6502679-.2636971-2.33-.75 0-.01-.01-.01-.02-.02-.38-.53-.73-1.08-1.06-1.65 7.4522767-2.2585772 14.0228972-6.7682376 18.81-12.91z" fill="#3b97d3"/><path id="Shape" d="m45.61 13.52c-1.514935 2.4150324-3.5011633 4.4998919-5.84 6.13-8.1-12.6-25.77-9.65-25.77-9.65l-.15-.1v-.01c1.7904437-2.54079326 4.1233983-4.65172442 6.83-6.18 9.4554162-1.32885516 18.9157738 2.39381261 24.93 9.81z" fill="#f0c419"/><path id="Shape" d="m33.92 40.23c-.0977213-.0711632-.1912131-.14796-.28-.23-1.5037282-1.3331595-3.7662718-1.3331595-5.27 0h-.01c-.7523122.6829498-1.7451173 1.0390647-2.76.99-3.3732002-7.2674877-4.1326882-15.4770235-2.15-23.24 2.8620075 1.1920291 5.436175 2.9820132 7.55 5.25-.5359426 1.6196619-.8717694 3.2987957-1 5-.0047764 3.7182874.9825031 7.3705313 2.86 10.58.33.57.68 1.12 1.06 1.65z" fill="#d25627"/><path id="Shape" d="m2 58c1.50424983 1.3307782 3.76475017 1.3307782 5.269 0 1.50457686-1.3309211 3.7654231-1.3309211 5.27 0s3.7654231 1.3309211 5.27 0c1.5042498-1.3307782 3.7647502-1.3307782 5.269 0 1.5045769 1.3309211 3.7654231 1.3309211 5.27 0s3.7654231-1.3309211 5.27 0c1.5042498 1.3307782 3.7647502 1.3307782 5.269 0s3.7647502-1.3307782 5.269 0c1.5045769 1.3309211 3.7654231 1.3309211 5.27 0 1.5042498-1.3307782 3.7647502-1.3307782 5.269 0 1.5098578 1.3521405 3.7951422 1.3521405 5.305 0v-18c-1.5042498 1.3307782-3.7647502 1.3307782-5.269 0s-3.7647502-1.3307782-5.269 0c-1.5045769 1.3309211-3.7654231 1.3309211-5.27 0-1.5042498-1.3307782-3.7647502-1.3307782-5.269 0s-3.7647502 1.3307782-5.269 0c-1.5045769-1.3309211-3.7654231-1.3309211-5.27 0s-3.7654231 1.3309211-5.27 0c-1.5042498-1.3307782-3.7647502-1.3307782-5.269 0-1.5045769 1.3309211-3.7654231 1.3309211-5.27 0s-3.76542314-1.3309211-5.27 0c-1.50985775 1.3521405-3.79514225 1.3521405-5.305 0z" fill="#2fa8cc"/><g fill="#67b9cc"><path id="Shape" d="m57.365 41.992c-1.220907.0092994-2.4013054-.4375403-3.31-1.253-1.1199392-.9899225-2.8020608-.9899225-3.922 0-1.8911877 1.6717416-4.7318123 1.6717416-6.623 0-1.1197701-.990369-2.8022299-.990369-3.922 0-1.8913457 1.672331-4.7326543 1.672331-6.624 0-1.1197701-.990369-2.8022299-.990369-3.922 0-1.8911877 1.6717416-4.7318123 1.6717416-6.623 0-1.1199392-.9899225-2.8020608-.9899225-3.922 0-1.8911877 1.6717416-4.7318123 1.6717416-6.623 0-1.1197701-.990369-2.80222991-.990369-3.922 0-1.89118772 1.6717416-4.73181228 1.6717416-6.623 0-.27258825-.2388503-.39460657-.6064945-.31892627-.9609325.07568031-.3544381.33721216-.6401858.68358074-.7468753.34636858-.1066894.72335293-.0176193.98534553.2328078 1.11946446.9881559 2.79953554.9881559 3.919 0 1.89118772-1.6717416 4.7318123-1.6717416 6.623 0 1.120108.9894766 2.801892.9894766 3.922 0 1.8913457-1.672331 4.7326543-1.672331 6.624 0 1.1196122.9897795 2.8013878.9897795 3.921 0 1.8913457-1.672331 4.7326543-1.672331 6.624 0 1.120108.9894766 2.801892.9894766 3.922 0 1.8911877-1.6717416 4.7318123-1.6717416 6.623 0 1.120108.9894766 2.801892.9894766 3.922 0 1.8911877-1.6717416 4.7318123-1.6717416 6.623 0 1.1202661.9900656 2.8027339.9900656 3.923 0 .2619926-.2504271.6389769-.3394972.9853455-.2328078.3463686.1066895.6079005.3924372.6835808.7468753.0756803.354438-.0463381.7220822-.3189263.9609325-.9086946.8154597-2.089093 1.2622994-3.31 1.253z"/><path id="Shape" d="m57.365 50.992c-1.220907.0092994-2.4013054-.4375403-3.31-1.253-1.1199392-.9899225-2.8020608-.9899225-3.922 0-1.8911877 1.6717416-4.7318123 1.6717416-6.623 0-1.1199392-.9899225-2.8020608-.9899225-3.922 0-1.8913457 1.672331-4.7326543 1.672331-6.624 0-1.1199392-.9899225-2.8020608-.9899225-3.922 0-1.8911877 1.6717416-4.7318123 1.6717416-6.623 0-1.1199392-.9899225-2.8020608-.9899225-3.922 0-1.8911877 1.6717416-4.7318123 1.6717416-6.623 0-1.1199392-.9899225-2.80206085-.9899225-3.922 0-1.89118772 1.6717416-4.73181228 1.6717416-6.623 0-.27258825-.2388503-.39460657-.6064945-.31892627-.9609325.07568031-.3544381.33721216-.6401858.68358074-.7468753.34636858-.1066894.72335293-.0176193.98534553.2328078 1.11929597.9886013 2.79970403.9886013 3.919 0 1.89118772-1.6717416 4.7318123-1.6717416 6.623 0 1.1202765.9890311 2.8017235.9890311 3.922 0 1.8913457-1.672331 4.7326543-1.672331 6.624 0 1.1196122.9897795 2.8013878.9897795 3.921 0 1.8913457-1.672331 4.7326543-1.672331 6.624 0 1.120108.9894766 2.801892.9894766 3.922 0 1.8911877-1.6717416 4.7318123-1.6717416 6.623 0 1.120108.9894766 2.801892.9894766 3.922 0 1.8911877-1.6717416 4.7318123-1.6717416 6.623 0 1.1202661.9900656 2.8027339.9900656 3.923 0 .2619926-.2504271.6389769-.3394972.9853455-.2328078.3463686.1066895.6079005.3924372.6835808.7468753.0756803.354438-.0463381.7220822-.3189263.9609325-.9086946.8154597-2.089093 1.2622994-3.31 1.253z"/><path id="Shape" d="m57.365 59.992c-1.220907.0092994-2.4013054-.4375403-3.31-1.253-1.1199392-.9899225-2.8020608-.9899225-3.922 0-1.8911877 1.6717416-4.7318123 1.6717416-6.623 0-1.1197701-.990369-2.8022299-.990369-3.922 0-1.8913457 1.672331-4.7326543 1.672331-6.624 0-1.1197701-.990369-2.8022299-.990369-3.922 0-1.8911877 1.6717416-4.7318123 1.6717416-6.623 0-1.1199392-.9899225-2.8020608-.9899225-3.922 0-1.8911877 1.6717416-4.7318123 1.6717416-6.623 0-1.1197701-.990369-2.80222991-.990369-3.922 0-1.89118772 1.6717416-4.73181228 1.6717416-6.623 0-.27258825-.2388503-.39460657-.6064945-.31892627-.9609325.07568031-.3544381.33721216-.6401858.68358074-.7468753.34636858-.1066894.72335293-.0176193.98534553.2328078 1.11929597.9886013 2.79970403.9886013 3.919 0 1.89118772-1.6717416 4.7318123-1.6717416 6.623 0 1.120108.9894766 2.801892.9894766 3.922 0 1.8913457-1.672331 4.7326543-1.672331 6.624 0 1.1196122.9897795 2.8013878.9897795 3.921 0 1.8913457-1.672331 4.7326543-1.672331 6.624 0 1.1202765.9890311 2.8017235.9890311 3.922 0 1.8911877-1.6717416 4.7318123-1.6717416 6.623 0 1.1202765.9890311 2.8017235.9890311 3.922 0 1.8911877-1.6717416 4.7318123-1.6717416 6.623 0 1.1202661.9900656 2.8027339.9900656 3.923 0 .2619926-.2504271.6389769-.3394972.9853455-.2328078.3463686.1066895.6079005.3924372.6835808.7468753.0756803.354438-.0463381.7220822-.3189263.9609325-.9086946.8154597-2.089093 1.2622994-3.31 1.253z"/></g></g></g></svg>