<svg height="512" viewBox="0 0 58 58" width="512" xmlns="http://www.w3.org/2000/svg"><g id="Page-1" fill="none" fill-rule="evenodd"><g id="003---Skateboarding" fill-rule="nonzero" transform="translate(-1 -1)"><path id="Shape" d="m58.42 18.64-1.44-1.43c-.4064678-.4115032-.9732408-.623586-1.55-.58 3.59-6.67 4.63-11.97 2.27-14.33-2.36-2.36-7.66-1.32-14.33 2.27.043586-.57675923-.1684968-1.14353225-.58-1.55l-1.43-1.44c-.3751365-.37555409-.8841815-.58657331-1.415-.58657331s-1.0398635.21101922-1.415.58657331l-5.7 5.7c-.3755541.37513651-.5865733.8841815-.5865733 1.415s.2110192 1.03986349.5865733 1.415l.81.8c-4.5144534 3.4253674-8.7847911 7.1610775-12.78 11.18-3.6019178 3.637458-6.7820231 7.6696168-9.48 12.02l-1.27-1.28c-.37513651-.3755541-.8841815-.5865733-1.415-.5865733s-1.03986349.2110192-1.415.5865733l-5.7 5.7c-.37555409.3751365-.58657331.8841815-.58657331 1.415s.21101922 1.0398635.58657331 1.415l1.44 1.43c.37368919.3744562.88098106.5848881 1.41.5848881s1.03631081-.2104319 1.41-.5848881l1.43-1.43.06.06c-2.22508205 4.5432674-4.04222206 9.2751936-5.43 14.14-.15442429.7099512.06279567 1.4497048.57654544 1.9634546.51374976.5137497 1.25350331.7309697 1.96345456.5765454 4.86480635-1.3877779 9.5967326-3.2049179 14.14-5.43l.06.06-1.43 1.43c-.3744562.3736892-.5848881.8809811-.5848881 1.41s.2104319 1.0363108.5848881 1.41l1.43 1.44c.3751365.3755541.8841815.5865733 1.415.5865733s1.0398635-.2110192 1.415-.5865733l5.7-5.7c.3755541-.3751365.5865733-.8841815.5865733-1.415s-.2110192-1.0398635-.5865733-1.415l-1.28-1.27c4.3503832-2.6979769 8.382542-5.8780822 12.02-9.48 4.0189225-3.9952089 7.7546326-8.2655466 11.18-12.78l.8.81c.3751365.3755541.8841815.5865733 1.415.5865733s1.0398635-.2110192 1.415-.5865733l5.7-5.7c.3755541-.3751365.5865733-.8841815.5865733-1.415s-.2110192-1.0398635-.5865733-1.415z" fill="#d25627"/><path id="Shape" d="m43.37 4.57-.01.01c-.0256536.47652506-.2290391.92611396-.57 1.26l-1.43 1.43-2.84 2.84-1.42 1.43c-.3751365.3755541-.8841815.5865733-1.415.5865733s-1.0398635-.2110192-1.415-.5865733l-.63-.63-.81-.8c-.3755541-.37513651-.5865733-.8841815-.5865733-1.415s.2110192-1.03986349.5865733-1.415l5.7-5.7c.3751365-.37555409.8841815-.58657331 1.415-.58657331s1.0398635.21101922 1.415.58657331l1.43 1.44c.4115032.40646775.623586.97324077.58 1.55z" fill="#fac176"/><path id="Rectangle-path" d="m39.353 8.1h4.02v4.02h-4.02z" fill="#95a5a5" transform="matrix(.708 -.706 .706 .708 4.927 32.145)"/><path id="Shape" d="m49.89 15.79-2.84 2.85c-.7860159.7799557-2.0539841.7799557-2.84 0l-2.85-2.85c-.7799557-.7860159-.7799557-2.0539841 0-2.84l2.85-2.84c.7860159-.77995574 2.0539841-.77995574 2.84 0l2.84 2.84c.7799557.7860159.7799557 2.0539841 0 2.84z" fill="#bdc3c7"/><path id="Rectangle-path" d="m47.881 16.627h4.02v4.02h-4.02z" fill="#95a5a5" transform="matrix(.707 -.707 .707 .707 1.434 40.737)"/><path id="Shape" d="m58.42 21.47-5.7 5.7c-.3751365.3755541-.8841815.5865733-1.415.5865733s-1.0398635-.2110192-1.415-.5865733l-.8-.81-.63-.63c-.3755541-.3751365-.5865733-.8841815-.5865733-1.415s.2110192-1.0398635.5865733-1.415l1.43-1.42 2.84-2.84 1.43-1.43c.333886-.3409609.7834749-.5443464 1.26-.57l.01-.01c.5767592-.043586 1.1435322.1684968 1.55.58l1.44 1.43c.3755541.3751365.5865733.8841815.5865733 1.415s-.2110192 1.0398635-.5865733 1.415z" fill="#fac176"/><path id="Shape" d="m18.64 47.04v.01l-2.85 2.84c-.3732815.3790282-.8830212.5924538-1.415.5924538s-1.0417185-.2134256-1.415-.5924538l-2.85-2.85c-.37902819-.3732815-.5924538-.8830212-.5924538-1.415s.21342561-1.0417185.5924538-1.415l2.85-2.85c.3751365-.3755541.8841815-.5865733 1.415-.5865733s1.0398635.2110192 1.415.5865733l2.85 2.85c.3755541.3751365.5865733.8841815.5865733 1.415s-.2110192 1.0398635-.5865733 1.415z" fill="#bdc3c7"/><path id="Shape" d="m12.96 41.36-2.85 2.85-2.78-2.79-.06-.06 2.84-2.84 2.84 2.84z" fill="#95a5a5"/><path id="Shape" d="m21.48 49.89-2.84 2.84-.06-.06-2.79-2.78 2.85-2.84z" fill="#95a5a5"/><path id="Shape" d="m11.54 37.1-1.43 1.42-2.84 2.84-1.43 1.43c-.37368919.3744562-.88098106.5848881-1.41.5848881s-1.03631081-.2104319-1.41-.5848881l-1.44-1.43c-.37555409-.3751365-.58657331-.8841815-.58657331-1.415s.21101922-1.0398635.58657331-1.415l5.7-5.7c.37513651-.3755541.8841815-.5865733 1.415-.5865733s1.03986349.2110192 1.415.5865733l1.27 1.28.16.16c.3755541.3751365.5865733.8841815.5865733 1.415s-.2110192 1.0398635-.5865733 1.415z" fill="#fac176"/><path id="Shape" d="m27.17 52.72-5.7 5.7c-.3751365.3755541-.8841815.5865733-1.415.5865733s-1.0398635-.2110192-1.415-.5865733l-1.43-1.44c-.3744562-.3736892-.5848881-.8809811-.5848881-1.41s.2104319-1.0363108.5848881-1.41l4.27-4.27 1.42-1.43c.3751365-.3755541.8841815-.5865733 1.415-.5865733s1.0398635.2110192 1.415.5865733l.16.16 1.28 1.27c.3755541.3751365.5865733.8841815.5865733 1.415s-.2110192 1.0398635-.5865733 1.415z" fill="#fac176"/><path id="Shape" d="m37.1 34.26c-1.7172038 1.7337517-4.1361089 2.5818435-6.56 2.3l-2.67 2.67c-.3930079.3899779-1.0269921.3899779-1.42 0l-.71-.71h-.01l-1.4-1.41h-.01l-1.42-1.43h-.01l-1.41-1.41v-.01l-.71-.71c-.3899779-.3930079-.3899779-1.0269921 0-1.42l2.67-2.67c-.2818435-2.4238911.5662483-4.8427962 2.3-6.56 2.0236675-2.0569365 4.9950917-2.8704624 7.7843079-2.1312124 2.7892163.73925 4.9676545 2.9176882 5.7069045 5.7069045.73925 2.7892162-.0742759 5.7606404-2.1312124 7.7843079z" fill="#f9eab0"/><g fill="#603e26"><circle id="Oval" cx="29.29" cy="25.738" r="1.507"/><circle id="Oval" cx="34.262" cy="30.71" r="1.507"/><path id="Shape" d="m24.31 34.26-1.41 1.42h-.01l-1.41-1.41v-.01l1.42-1.42c.3921222-.3893607 1.0256393-.3871222 1.415.005s.3871222 1.0256393-.005 1.415z"/><path id="Shape" d="m27.16 37.1-1.42 1.42h-.01l-1.4-1.41 1.41-1.42c.2518722-.2536586.619937-.3536765.9655479-.2623781.3456109.0912985.6162614.360043.71.705.0937387.3449571-.0036756.7137195-.2555479.9673781z"/><path id="Shape" d="m28.58 32.42c-.4043959-.0000863-.7689341-.2437275-.923678-.6173454-.1547439-.373618-.0692299-.8036603.216678-1.0896546l.71-.71c.2525868-.2531227.6210259-.3522642.96653-.260079.345504.0921852.6155827.3616921.7085.707.0929172.3453079-.0054432.7139563-.25803.967079l-.71.71c-.1882272.1882861-.4437659.2937408-.71.293z"/></g><circle id="Oval" cx="45.626" cy="14.374" fill="#7f8c8d" r="1.005"/><circle id="Oval" cx="14.374" cy="45.626" fill="#7f8c8d" r="1.005"/></g></g></svg>