<svg height="512" viewBox="0 0 60 52" width="512" xmlns="http://www.w3.org/2000/svg"><g id="Page-1" fill="none" fill-rule="evenodd"><g id="005---Jet-Ski" fill-rule="nonzero" transform="translate(-1)"><path id="Shape" d="m58 29-26 2-28-2s0-12 8-12l8-2 7 2c0 5 8 10 14 5 4.92-4.1-5-13-5-13l4-2 3.59 2c3.18 1.43 8.56 4.5 11.77 10 .3777024.6467569.7182541 1.3145053 1.02 2 .2799055.6538929.5268816 1.3213959.74 2 .2053537.6563942.3723031 1.3241916.5 2 .2583414 1.3175285.3856286 2.6573943.38 4z" fill="#e64c3c"/><path id="Shape" d="m56 33-1.39 5.1c-.2129327.7820201-.5433648 1.5271782-.98 2.21-1.406973-.5915498-3.0285659-.3232286-4.17.69h-.01c-1.5011362 1.3299408-3.7588638 1.3299408-5.26 0h-.01c-1.504915-1.3300282-3.765085-1.3300282-5.27 0-.7268721.6469914-1.6668959 1.0030611-2.64 1-.9704189.0047678-1.9079001-.3516889-2.63-1-1.5037282-1.3331595-3.7662718-1.3331595-5.27 0h-.01c-1.504915 1.3300282-3.765085 1.3300282-5.27 0-1.5037282-1.3331595-3.7662718-1.3331595-5.27 0s-3.7662718 1.3331595-5.27 0c-.7268721-.6469914-1.6668959-1.0030611-2.64-1-.52907884-.0025258-1.05310642.1029603-1.54.31-.43663517-.6828218-.76706726-1.4279799-.98-2.21l-1.39-5.1 25-2z" fill="#f9eab0"/><path id="Shape" d="m60 41v9c-1.5037282 1.3331595-3.7662718 1.3331595-5.27 0-1.504915-1.3300282-3.765085-1.3300282-5.27 0h-.01c-1.5011362 1.3299408-3.7588638 1.3299408-5.26 0h-.01c-.7220999-.6483111-1.6595811-1.0047678-2.63-1-.9731041-.0030611-1.9131279.3530086-2.64 1s-1.6668959 1.0030611-2.64 1c-.9704189.0047678-1.9079001-.3516889-2.63-1-1.504915-1.3300282-3.765085-1.3300282-5.27 0h-.01c-.7220999.6483111-1.6595811 1.0047678-2.63 1-.9731041.0030611-1.9131279-.3530086-2.64-1-1.5037282-1.3331595-3.7662718-1.3331595-5.27 0s-3.7662718 1.3331595-5.27 0c-1.504915-1.3300282-3.76508501-1.3300282-5.27 0h-.01c-1.50491499 1.3300282-3.76508501 1.3300282-5.27 0v-9c1.50491499 1.3300282 3.76508501 1.3300282 5.27 0h.01c.31706808-.2960348.68677443-.5300691 1.09-.69.48689358-.2070397 1.01092116-.3125258 1.54-.31.9731041-.0030611 1.9131279.3530086 2.64 1 1.5037282 1.3331595 3.7662718 1.3331595 5.27 0s3.7662718-1.3331595 5.27 0c1.504915 1.3300282 3.765085 1.3300282 5.27 0h.01c1.5037282-1.3331595 3.7662718-1.3331595 5.27 0 .7220999.6483111 1.6595811 1.0047678 2.63 1 .9731041.0030611 1.9131279-.3530086 2.64-1 1.504915-1.3300282 3.765085-1.3300282 5.27 0h.01c1.5011362 1.3299408 3.7588638 1.3299408 5.26 0h.01c1.1414341-1.0132286 2.763027-1.2815498 4.17-.69.4050982.1621339.7777054.3958602 1.1.69 1.504915 1.3300282 3.765085 1.3300282 5.27 0z" fill="#2fa8cc"/><path id="Shape" d="m57.365 42.992c-1.2205629.0090497-2.400561-.4377734-3.309-1.253-1.1202661-.9900656-2.8027339-.9900656-3.923 0-1.8911877 1.6717416-4.7318123 1.6717416-6.623 0-1.1199392-.9899225-2.8020608-.9899225-3.922 0-1.8913457 1.672331-4.7326543 1.672331-6.624 0-1.1199392-.9899225-2.8020608-.9899225-3.922 0-1.8911877 1.6717416-4.7318123 1.6717416-6.623 0-1.1199392-.9899225-2.8020608-.9899225-3.922 0-1.8911877 1.6717416-4.7318123 1.6717416-6.623 0-1.1199392-.9899225-2.80206085-.9899225-3.922 0-1.89118772 1.6717416-4.73181228 1.6717416-6.623 0-.27258825-.2388503-.39460657-.6064945-.31892627-.9609325.07568031-.3544381.33721216-.6401858.68358074-.7468753.34636858-.1066894.72335293-.0176193.98534553.2328078 1.11929597.9886013 2.79970403.9886013 3.919 0 1.89118772-1.6717416 4.7318123-1.6717416 6.623 0 1.1202765.9890311 2.8017235.9890311 3.922 0 1.8913457-1.672331 4.7326543-1.672331 6.624 0 1.1196122.9897795 2.8013878.9897795 3.921 0 1.8913457-1.672331 4.7326543-1.672331 6.624 0 1.120108.9894766 2.801892.9894766 3.922 0 1.8911877-1.6717416 4.7318123-1.6717416 6.623 0 1.1202661.9900656 2.8027339.9900656 3.923 0 1.8910297-1.6711524 4.7309703-1.6711524 6.622 0 1.1202661.9900656 2.8027339.9900656 3.923 0 .4090375-.3584114 1.0295185-.3242225 1.3967018.0769593.3671834.4011819.3464362 1.0222576-.0467018 1.3980407-.9086946.8154597-2.089093 1.2622994-3.31 1.253z" fill="#67b9cc"/><path id="Shape" d="m57.365 51.992c-1.2205629.0090497-2.400561-.4377734-3.309-1.253-1.1202661-.9900656-2.8027339-.9900656-3.923 0-1.8911877 1.6717416-4.7318123 1.6717416-6.623 0-1.1197701-.990369-2.8022299-.990369-3.922 0-1.8913457 1.672331-4.7326543 1.672331-6.624 0-1.1197701-.990369-2.8022299-.990369-3.922 0-1.8911877 1.6717416-4.7318123 1.6717416-6.623 0-1.1199392-.9899225-2.8020608-.9899225-3.922 0-1.8911877 1.6717416-4.7318123 1.6717416-6.623 0-1.1197701-.990369-2.80222991-.990369-3.922 0-1.89118772 1.6717416-4.73181228 1.6717416-6.623 0-.27258825-.2388503-.39460657-.6064945-.31892627-.9609325.07568031-.3544381.33721216-.6401858.68358074-.7468753.34636858-.1066894.72335293-.0176193.98534553.2328078 1.11929597.9886013 2.79970403.9886013 3.919 0 1.89118772-1.6717416 4.7318123-1.6717416 6.623 0 1.120108.9894766 2.801892.9894766 3.922 0 1.8913457-1.672331 4.7326543-1.672331 6.624 0 1.1196122.9897795 2.8013878.9897795 3.921 0 1.8913457-1.672331 4.7326543-1.672331 6.624 0 1.1202765.9890311 2.8017235.9890311 3.922 0 1.8911877-1.6717416 4.7318123-1.6717416 6.623 0 1.1202661.9900656 2.8027339.9900656 3.923 0 1.8910297-1.6711524 4.7309703-1.6711524 6.622 0 1.1202661.9900656 2.8027339.9900656 3.923 0 .4090375-.3584114 1.0295185-.3242225 1.3967018.0769593.3671834.4011819.3464362 1.0222576-.0467018 1.3980407-.9086946.8154597-2.089093 1.2622994-3.31 1.253z" fill="#67b9cc"/><path id="Shape" d="m60 31c-.0081672 1.1011688-.8988312 1.9918328-2 2h-54c-1.10320187-.0032948-1.9967052-.8967981-2-2-.00282307-.5305905.2101411-1.0395388.59-1.41.3704612-.3798589.87940947-.5928231 1.41-.59h54c1.1032019.0032948 1.9967052.8967981 2 2z" fill="#bdc3c7"/><path id="Shape" d="m28 15v1c0 .5522847-.4477153 1-1 1h-19c-.55228475 0-1-.4477153-1-1v-1c0-1.6568542 1.34314575-3 3-3h15c1.6568542 0 3 1.3431458 3 3z" fill="#464f5d"/><path id="Shape" d="m49 6.69v1.31c0 .55228475-.4477153 1-1 1h-14c-.5522847 0-1-.44771525-1-1v-6.56c-.0006389-.32767446.1602538-.63461299.4300967-.82050478s.6139649-.22685231.9199033-.10949522l14 5.25c.389694.14374496.6489226.51464128.65.93z" fill="#c03a2b"/><path id="Shape" d="m33 2v4h-4c-1.1011688-.00816722-1.9918328-.89883122-2-2 .0032948-1.10320187.8967981-1.9967052 2-2z" fill="#464f5d"/><g fill="#802f34"><path id="Shape" d="m12 22h-1c-.5522847 0-1-.4477153-1-1s.4477153-1 1-1h1c.5522847 0 1 .4477153 1 1s-.4477153 1-1 1z"/><path id="Shape" d="m22 22h-6c-.5522847 0-1-.4477153-1-1s.4477153-1 1-1h6c.5522847 0 1 .4477153 1 1s-.4477153 1-1 1z"/><path id="Shape" d="m25 26h-11c-.5522847 0-1-.4477153-1-1s.4477153-1 1-1h11c.5522847 0 1 .4477153 1 1s-.4477153 1-1 1z"/></g><path id="Shape" d="m56.38 21h-4.38c-.5522847 0-1-.4477153-1-1s.4477153-1 1-1h3.36c.3777024.6467569.7182541 1.3145053 1.02 2z" fill="#f29c1f"/><path id="Shape" d="m57.62 25h-8.62c-.5522847 0-1-.4477153-1-1s.4477153-1 1-1h8.12c.2053537.6563942.3723031 1.3241916.5 2z" fill="#f29c1f"/><path id="Shape" d="m10 26h-1c-.55228475 0-1-.4477153-1-1s.44771525-1 1-1h1c.5522847 0 1 .4477153 1 1s-.4477153 1-1 1z" fill="#802f34"/></g></g></svg>