<svg height="512" viewBox="0 0 58 58" width="512" xmlns="http://www.w3.org/2000/svg"><g id="Page-1" fill="none" fill-rule="evenodd"><g id="007---Archery" fill-rule="nonzero"><path id="Shape" d="m45.51 43.77 6.38 12.78c.1559692.3095182.1405453.6777279-.0407631.9731178-.1813083.29539-.5026437.4758333-.8492369.4768822h-5.77c-.3765582-.0011413-.7205498-.2137203-.89-.55l-4.87-9.75z" fill="#805333"/><path id="Shape" d="m18.22 47.56-4.94 9.89c-.1710655.3395038-.5198431.5526457-.9.55h-5.76c-.3483719.002433-.67290102-.1766148-.8566239-.4726128-.18372288-.2959979-.20015578-.6662778-.0433761-.9773872l6.51-13.01" fill="#805333"/><path id="Shape" d="m33 48v7c0 .5522847-.4477153 1-1 1h-6c-.5522847 0-1-.4477153-1-1v-7c2.6496.4266667 5.3504.4266667 8 0z" fill="#603e26"/><path id="Shape" d="m29 0c-11.6807264-.00351305-21.80698968 8.08188858-24.38905911 19.4736531-2.58206942 11.3917646 3.06837058 23.0531305 13.60905911 28.0863469 2.1459831 1.0298176 4.4296177 1.7438744 6.78 2.12 2.6496.4266667 5.3504.4266667 8 0 4.6422345-.7561869 8.9777005-2.8043567 12.51-5.91 7.8100532-6.8710325 10.5492867-17.8602355 6.8780352-27.5931657-3.6712515-9.73293018-12.985727-16.1754862-23.3880352-16.1768343zm0 44c-10.4934102 0-19-8.5065898-19-19s8.5065898-19 19-19 19 8.5065898 19 19c-.0093728 10.4895255-8.5104745 18.9906272-19 19z" fill="#e64c3c"/><path id="Shape" d="m29 6c-10.4934102 0-19 8.5065898-19 19s8.5065898 19 19 19 19-8.5065898 19-19c-.0093728-10.4895255-8.5104745-18.99062721-19-19zm0 32c-7.1797017 0-13-5.8202983-13-13s5.8202983-13 13-13 13 5.8202983 13 13c-.0066157 7.1769596-5.8230404 12.9933843-13 13z" fill="#fff"/><path id="Shape" d="m29 12c-7.1797017 0-13 5.8202983-13 13s5.8202983 13 13 13 13-5.8202983 13-13c-.0066157-7.1769596-5.8230404-12.9933843-13-13zm0 20c-3.8659932 0-7-3.1340068-7-7s3.1340068-7 7-7 7 3.1340068 7 7c-.0044086 3.8641657-3.1358343 6.9955914-7 7z" fill="#e64c3c"/><circle id="Oval" cx="29" cy="25" fill="#fff" r="7"/><path id="Shape" d="m25.5 26.5c-.2651948-.0000566-.5195073-.1054506-.707-.293l-18.137-18.136c-.37897221-.39237889-.37355237-1.01608478.01218142-1.40181858.3857338-.38573379 1.00943969-.39115363 1.40181858-.01218142l18.137 18.136c.2859079.2859943.3714219.7160366.216678 1.0896546-.1547439.3736179-.5192821.6172591-.923678.6173454z" fill="#a56a43"/><path id="Shape" d="m32.5 26.5c-.4043959-.0000863-.7689341-.2437275-.923678-.6173454-.1547439-.373618-.0692299-.8036603.216678-1.0896546l18.137-18.136c.3923789-.37897221 1.0160848-.37355237 1.4018186.01218142.3857338.3857338.3911536 1.00943969.0121814 1.40181858l-18.137 18.136c-.1874927.1875494-.4418052.2929434-.707.293z" fill="#a56a43"/><path id="Shape" d="m8.981 5.368-.472 2.357c-.07927206.39554831-.38845169.70472794-.784.784l-2.357.472c-.32691281.06429887-.66437745-.03844036-.9-.274l-3.3-3.3c-.26038996-.26081315-.35621766-.6437094-.24937711-.99642958.10684056-.35272018.39902933-.61808446.76037711-.69057042l1.049-.21c.39622209-.07905689.70594311-.38877791.785-.785l.21-1.049c.07248596-.36134778.33785024-.65353655.69057042-.76037711.35272018-.10684055.73561643-.01101285.99642958.24937711l3.3 3.3c.23545779.23686.33712668.57563126.271.903z" fill="#a59078"/><path id="Shape" d="m49.019 5.368.472 2.357c.0792721.39554831.3884517.70472794.784.784l2.357.472c.3269128.06429887.6643774-.03844036.9-.274l3.3-3.3c.26039-.26081315.3562177-.6437094.2493771-.99642958-.1068405-.35272018-.3990293-.61808446-.7603771-.69057042l-1.049-.21c-.3962221-.07905689-.7059431-.38877791-.785-.785l-.21-1.049c-.072486-.36134778-.3378502-.65353655-.6905704-.76037711-.3527202-.10684055-.7356164-.01101285-.9964296.24937711l-3.3 3.3c-.2354578.23686-.3371267.57563126-.271.903z" fill="#a59078"/><g fill="#cbb292"><path id="Shape" d="m8.98 5.37-.47 2.35c-.04056099.19483146-.13397355.37473714-.27.52l-5-5c.13378198-.14294308.22698938-.31900149.27-.51l.21-1.05c.07206153-.36243514.33812303-.65558889.69189485-.76234844.35377182-.10675954.73758354-.00972138.99810515.25234844l3.3 3.29c.23456441.24024486.33557905.58070159.27.91z"/><path id="Shape" d="m54.76 3.24-5 5c-.1360264-.14526286-.229439-.32516854-.27-.52l-.47-2.35c-.065579-.32929841.0354356-.66975514.27-.91l3.3-3.29c.2605216-.26206982.6443333-.35910798.9981051-.25234844.3537719.10675955.6198334.3999133.6918949.76234844l.21 1.05c.0430106.19099851.136218.36705692.27.51z"/></g></g></g></svg>