<svg height="512" viewBox="0 0 58 59" width="512" xmlns="http://www.w3.org/2000/svg"><g id="Page-1" fill="none" fill-rule="evenodd"><g id="009---Paragliding" fill-rule="nonzero" transform="translate(-1)"><path id="Shape" d="m57 30h-54c-.83204704-.0219459-1.56886612-.5431518-1.86663021-1.3204036-.29776409-.7772519-.09778082-1.6573454.50663021-2.2295964l18.95-17.48.01-.01 4.22-3.88.01-.01 3.83-3.54c1.474-1.377 1.206-1.377 2.68 0l3.83 3.54 4.24 3.9 18.95 17.48c.604411.572251.8043943 1.4523445.5066302 2.2295964-.2977641.7772518-1.0345832 1.2984577-1.8666302 1.3204036z" fill="#c03a2b"/><g fill="#bdc3c7"><path id="Shape" d="m24.82 5.08-12.7 24.92h-2.24l10.71-21.03.01-.01z"/><path id="Shape" d="m50.12 30h-2.24l-12.71-24.93 4.24 3.9z"/><path id="Shape" d="m30 .126c-.73353.00006658-1.3928683.44741813-1.664 1.129l-16.136 40.566c-.5100867 1.263116-.1240884 2.711323.947 3.553.5576071.4213972 1.2412544.6419968 1.94.626h5.943c.5522847 0 1-.4477153 1-1s-.4477153-1-1-1h-6.05c-.3302156.0007003-.6385335-.1651146-.82-.441-.1983875-.2923082-.2359901-.6649504-.1-.991l15.94-39.61 15.942 39.61c.1359901.3260496.0983875.6986918-.1.991-.1814665.2758854-.4897844.4417003-.82.441h-5.552c-.5522847 0-1 .4477153-1 1s.4477153 1 1 1h5.441c.6987456.0159968 1.3823929-.2046028 1.94-.626 1.0710884-.841677 1.4570867-2.289884.947-3.553l-16.131-40.566c-.2715355-.68259974-.9323759-1.13016349-1.667-1.129z"/></g><path id="Shape" d="m24.17 46.16c-1.1781165.5133077-2.0014429 1.6060174-2.17 2.88-.0507454 1.0712905-.9275818 1.9174377-2 1.93h-.05c-1.0801824-.0109669-1.9500557-.8897619-1.95-1.97.108036-1.4542256.6399648-2.8448892 1.53-4 1.28-1.7 3.65-3.4 7.99-3.86h4.96c4.34.46 6.71 2.16 7.99 3.86.8900352 1.1551108 1.421964 2.5457744 1.53 4 .0000557 1.0802381-.8698176 1.9590331-1.95 1.97h-.05c-1.0724182-.0125623-1.9492546-.8587095-2-1.93-.1685571-1.2739826-.9918835-2.3666923-2.17-2.88v-.01z" fill="#7d6599"/><path id="Shape" d="m34 38c0 2.209139-1.790861 4-4 4s-4-1.790861-4-4c-.0030533-.3377372.0406959-.6742693.13-1l3.87-1 3.87 1c.0893041.3257307.1330533.6622628.13 1z" fill="#fdd7ad"/><path id="Shape" d="m34.24 37h-8.48c-.1629049-.0000693-.3155626-.0794955-.409116-.2128589s-.1162717-.3039411-.060884-.4571411c.7096457-1.9918375 2.5955229-3.3219356 4.71-3.3219356s4.0003543 1.3300981 4.71 3.3219356c.0553877.1532.0326694.3237777-.060884.4571411s-.2462111.2127896-.409116.2128589z" fill="#464f5d"/><path id="Shape" d="m35.83 46.15v.01l-1.46 10.26c-.209218 1.4796966-1.4755857 2.5797736-2.97 2.58h-2.8c-1.4944143-.0002264-2.760782-1.1003034-2.97-2.58l-1.46-10.26c3.5718262-2.2088097 8.0843904-2.2126798 11.66-.01z" fill="#5d4c72"/></g></g></svg>