<svg height="512" viewBox="0 0 58 44" width="512" xmlns="http://www.w3.org/2000/svg"><g id="Page-1" fill="none" fill-rule="evenodd"><g id="010---Swim-Shorts" fill-rule="nonzero"><path id="Shape" d="m55 2c.0018478.52842536-.2068683 1.03582154-.58 1.41-.3732724.38178344-.886083.59485266-1.42.59h-48c-1.1045695 0-2-.8954305-2-2s.8954305-2 2-2h48c.5310035-.00186834 1.0407976.20824532 1.4162762.58372385.3754785.37547853.5855921.88527261.5837238 1.41627615z" fill="#3b97d3"/><path id="Shape" d="m53 4v6.99h-16c0-.52.02-.82.02-.84.0911269-1.10180805-.728192-2.06887295-1.83-2.15999993-1.1018081-.09112699-2.068873.72819188-2.16 1.82999993-.01.08-.04.5-.04 1.17h-7.99c0-.67-.03-1.09-.04-1.17-.1470304-1.05059338-1.0887551-1.80361976-2.1459592-1.71596213s-1.8620477.98549997-1.8340408 2.04596213c0 .02.02.32.02.84h-16v-6.99z" fill="#2980ba"/><g fill="#285680"><path id="Shape" d="m10 7.99v3h-2v-3c0-.55228475.44771525-1 1-1s1 .44771525 1 1z"/><path id="Shape" d="m14 7.99v3h-2v-3c0-.55228475.4477153-1 1-1s1 .44771525 1 1z"/><path id="Shape" d="m18 7.99v3h-2v-3c0-.55228475.4477153-1 1-1s1 .44771525 1 1z"/><path id="Shape" d="m30 7.99v3h-2v-3c0-.55228475.4477153-1 1-1s1 .44771525 1 1z"/><path id="Shape" d="m42 7.99v3h-2v-3c0-.55228475.4477153-1 1-1s1 .44771525 1 1z"/><path id="Shape" d="m46 7.99v3h-2v-3c0-.55228475.4477153-1 1-1s1 .44771525 1 1z"/><path id="Shape" d="m50 7.99v3h-2v-3c0-.55228475.4477153-1 1-1s1 .44771525 1 1z"/></g><path id="Shape" d="m6.38 39.79c-2.89049748-1.8815553-5.12104218-4.619042-6.38-7.83 0-5.99 5-20.97 5-20.97h6s-8.15 20.58-4.62 28.8z" fill="#3b97d3"/><path id="Shape" d="m51.63 39.79-.01.01c-3.46 2.39-8.66 4.36-16.37 4.19-.9113517-.0213802-1.761111-.4647329-2.3-1.2-1.3546263-2.0543401-2.3520266-4.3230032-2.95-6.71-.35-1.2-.69-2.56-1-4.12-.31 1.56-.65 2.92-1 4.12-.5979734 2.3869968-1.5953737 4.6556599-2.95 6.71-.538889.7352671-1.3886483 1.1786198-2.3 1.2-7.71.17-12.91-1.8-16.37-4.19v-.01c-3.53-8.22 4.62-28.8 4.62-28.8h10c-.02 2.35-.57 9-6.03 12.26-.9471683.5688533-1.2538533 1.7978317-.685 2.745s1.7978317 1.2538533 2.745.685c7.25-4.33 7.97-12.62 7.97-15.69h7.99c.01 3.07.74 11.36 7.98 15.69.3120567.1839043.6677849.2806071 1.03.28.8958285-.0032404 1.6802312-.6017813 1.9198758-1.4649671s-.1239316-1.7804378-.8898758-2.2450329c-5.46-3.26-6.01-9.91-6.03-12.26h10s8.15 20.58 4.63 28.8z" fill="#ecf0f1"/><path id="Shape" d="m58 31.96c-1.2599656 3.2074302-3.4860552 5.9437381-6.37 7.83 3.52-8.22-4.63-28.8-4.63-28.8h6s5 14.98 5 20.97z" fill="#3b97d3"/><path id="Shape" d="m25 10.99c0 3.07-.72 11.36-7.97 15.69-.3120567.1839043-.6677849.2806071-1.03.28-.8958285-.0032404-1.6802312-.6017813-1.9198758-1.4649671s.1239316-1.7804378.8898758-2.2450329c5.46-3.26 6.01-9.91 6.03-12.26 0-.52-.02-.82-.02-.84-.0280069-1.06046216.7768367-1.9583045 1.8340408-2.04596213s1.9989288.66536875 2.1459592 1.71596213c.01.08.04.5.04 1.17z" fill="#bdc3c7"/><path id="Shape" d="m43.72 25.99c-.3626146.6035591-1.0158913.9719768-1.72.97-.3622151.0006071-.7179433-.0960957-1.03-.28-7.24-4.33-7.97-12.62-7.98-15.69 0-.67.03-1.09.04-1.17.091127-1.10180805 1.0581919-1.92112692 2.16-1.82999993 1.101808.09112698 1.9211269 1.05819188 1.83 2.15999993 0 .02-.02.32-.02.84.02 2.35.57 9 6.03 12.26.9414493.5703313 1.2490471 1.7918065.69 2.74z" fill="#bdc3c7"/><path id="Shape" d="m51.63 39.79-.01.01c-3.46 2.39-8.66 4.36-16.37 4.19-.9354332-.0260713-1.8033167-.4933931-2.34-1.26-1.3321448-2.0399111-2.3155744-4.2872674-2.91-6.65-.14-.48-.28-.98-.41-1.51-.2-.8-.4-1.67-.59-2.61-.31 1.56-.65 2.92-1 4.12-.5944256 2.3627326-1.5778552 4.6100889-2.91 6.65-.5366833.7666069-1.4045668 1.2339287-2.34 1.26-7.71.17-12.91-1.8-16.37-4.19v-.01c-.7883496-2.1988149-1.07534378-4.5460173-.84-6.87v.065c.18573223 2.4027506 1.64959143 4.5198455 3.832 5.542 3.9304711 1.7448788 8.2000358 2.593053 12.499 2.483 1.5454901.0037127 2.979616-.8036948 3.778-2.127.086-.1453333.173-.2996667.261-.463 1.3921615-2.6048423 2.1106338-5.5165459 2.09-8.47v-3.98c0-.5522847.4477153-1 1-1s1 .4477153 1 1v3.98c-.0027853 1.4722633.1718059 2.9395009.52 4.37.3396491 1.4301038.8675914 2.8088065 1.57 4.1.09.168.179.324.266.472.8024402 1.3229188 2.2407634 2.1271344 3.788 2.118h.026c4.274837.1028133 8.519514-.7409998 12.43-2.471 2.1952093-1.0188297 3.6711629-3.1414207 3.862-5.554v-.045c.2333788 2.3167724-.0507991 4.6564583-.832 6.85z" fill="#bdc3c7"/></g></g></svg>