<svg height="512" viewBox="0 0 58 58" width="512" xmlns="http://www.w3.org/2000/svg"><g id="Page-1" fill="none" fill-rule="evenodd"><g id="011---Surfboard" fill-rule="nonzero"><path id="Shape" d="m33.8 45.22c1.7756229-3.3863029 2.940124-7.0592206 3.44-10.85.3481763-2.1824254.5751908-4.3824624.68-6.59.05-1.07.08-2.17.08-3.28 0-1.92-.08-3.79-.23-5.59-.17-1.89-.41-3.69-.73-5.38-1.47-8.02-4.52-13.53-8.04-13.53s-6.57 5.51-8.04 13.53c-.32 1.69-.56 3.49-.73 5.38-.15 1.8-.23 3.67-.23 5.59 0 1.11.03 2.21.08 3.28.1048092 2.2075376.3318237 4.4075746.68 6.59.499876 3.7907794 1.6643771 7.4636971 3.44 10.85z" fill="#f29c1f"/><path id="Shape" d="m56.1 58h-54.2c-.38130864.0020244-.73058088-.2129783-.90051466-.5543328s-.13094832-.7496404.10051466-1.0526672c2.437-3.136 9.21-9.878 23.1-11.173 1.52-.14 3.11-.22 4.8-.22s3.28.08 4.8.22c13.891 1.3 20.664 8.037 23.1 11.173.231463.3030268.2704484.7113127.1005147 1.0526672-.1699338.3413545-.5192061.5563572-.9005147.5543328z" fill="#f0c419"/><circle id="Oval" cx="7" cy="7" fill="#f0c419" r="7"/><path id="Shape" d="m37.77 18.91-3.36 2.88c-.7930287.6838972-1.9793309.6402831-2.72-.1l-1.28-1.28c-.3736892-.3744562-.8809811-.5848881-1.41-.5848881s-1.0363108.2104319-1.41.5848881l-1.28 1.28c-.7406691.7402831-1.9269713.7838972-2.72.1l-3.36-2.88c.17-1.89.41-3.69.73-5.38l2.63 2.26c.7930287.6838972 1.9793309.6402831 2.72-.1l1.28-1.28c.3736892-.3744562.8809811-.5848881 1.41-.5848881s1.0363108.2104319 1.41.5848881l1.28 1.28c.7406691.7402831 1.9269713.7838972 2.72.1l2.63-2.26c.32 1.69.56 3.49.73 5.38z" fill="#ff5364"/><path id="Shape" d="m37.92 27.78c-.1048092 2.2075376-.3318237 4.4075746-.68 6.59h-.01l-2.82 2.42c-.7930287.6838972-1.9793309.6402831-2.72-.1l-1.28-1.28c-.3736892-.3744562-.8809811-.5848881-1.41-.5848881s-1.0363108.2104319-1.41.5848881l-1.28 1.28c-.7406691.7402831-1.9269713.7838972-2.72.1l-2.82-2.42h-.01c-.3481763-2.1824254-.5751908-4.3824624-.68-6.59l3.51 3.01c.7930287.6838972 1.9793309.6402831 2.72-.1l1.28-1.28c.3736892-.3744562.8809811-.5848881 1.41-.5848881s1.0363108.2104319 1.41.5848881l1.28 1.28c.7406691.7402831 1.9269713.7838972 2.72.1z" fill="#ff5364"/><path id="Shape" d="m16 26.462c-.0162364.690516-.3065645 1.3461931-.8069189 1.8223459s-1.1696085.7336439-1.8600811.7156541h-10.666c-.69047259.0179898-1.3597267-.2395013-1.86008112-.7156541-.50035441-.4761528-.79068249-1.1318299-.80691888-1.8223459.02617938-1.3587987 1.10422536-2.4631171 2.462-2.522-.44548216-.6215812-.6847171-1.3672667-.684-2.132.0240944-1.0358605.45940303-2.0195549 1.20985454-2.7339847.75045152-.7144299 1.75435269-1.1008632 2.79014546-1.0740153 1.74282051-.0270344 3.29984399 1.0847777 3.84 2.742.33390797-.1322825.6898438-.2001445 1.049-.2.6904711-.0177179 1.3596162.24003 1.8597816.716369.5001653.476339.7902408 1.1321175.8062184 1.822631.0026864.2926852-.0516587.5830919-.16.855.0529893-.007454.106509-.0104645.16-.009.6899651-.0179958 1.3587726.2390862 1.8590406.714594s.7909391 1.1304161.8079594 1.820406z" fill="#ecf0f1"/><g fill="#f3d55b"><circle id="Oval" cx="25" cy="49" r="1"/><circle id="Oval" cx="29" cy="52" r="1"/><circle id="Oval" cx="18" cy="50" r="1"/><circle id="Oval" cx="23" cy="53" r="1"/><circle id="Oval" cx="11" cy="53" r="1"/><circle id="Oval" cx="16" cy="54" r="1"/><circle id="Oval" cx="33" cy="49" r="1"/><circle id="Oval" cx="40" cy="50" r="1"/><circle id="Oval" cx="35" cy="53" r="1"/><circle id="Oval" cx="47" cy="53" r="1"/><circle id="Oval" cx="42" cy="54" r="1"/></g><path id="Shape" d="m16 26.46c-.015704.6914006-.3062172 1.3480559-.8072835 1.8247256-.5010662.4766698-1.1713931.7340722-1.8627165.7152744h-10.66c-.69132341.0187978-1.3616503-.2386046-1.86271653-.7152744-.50106623-.4766697-.79157947-1.133325-.80728347-1.8247256-.00058286-.5443004.18264782-1.0728504.52-1.5.51485023.6634979 1.3102188 1.0482344 2.15 1.04h10.66c.8397812.0082344 1.6351498-.3765021 2.15-1.04.3373522.4271496.5205829.9556996.52 1.5z" fill="#bdc3c7"/></g></g></svg>