<svg height="512" viewBox="0 0 58 58" width="512" xmlns="http://www.w3.org/2000/svg"><g id="Page-1" fill="none" fill-rule="evenodd"><g id="012---Baseball" fill-rule="nonzero" transform="translate(-1 -1)"><path id="Shape" d="m56.36 3.64c-1.8161081-1.81792799-4.3222242-2.77359954-6.887663-2.62651184s-4.945906 1.38292821-6.542337 3.39651184l-26.62 33.56-5.72 5.75-2.15 2.15-1.41 1.42-2.14 2.14-.02-.02-.72-.73c-.39300794-.3899779-1.02699206-.3899779-1.42 0l-1.44 1.45c-.38772359.3900375-.38772359 1.0199625 0 1.41l7.17 7.17c.39003745.3877236 1.01996255.3877236 1.41 0l1.45-1.44c.3899779-.3930079.3899779-1.0269921 0-1.42l-.7-.7 2.13-2.15 1.41-1.41 2.15-2.15 5.72-5.75 33.56-26.62c2.0127377-1.5969858 3.2479352-3.9773021 3.3950047-6.5424234.1470695-2.56512129-.8079805-5.07101397-2.6250047-6.8875766z" fill="#f29c1f"/><path id="Shape" d="m37.63 50.58c-3.2067137-1.1484369-5.1212883-4.4383881-4.535579-7.7938112.5857093-3.3554232 3.5016604-5.802177 6.9078145-5.7962979 3.406154.005879 6.3136416 2.4626841 6.8877645 5.8201091l-2.2 6.024z" fill="#f0c419"/><path id="Shape" d="m59 52.54c-.0587822 1.9685392-1.7014136 3.517178-3.67 3.46h-14.66c-1.9685864.057178-3.6112178-1.4914608-3.67-3.46.0034423-.7025748.2234362-1.387.63-1.96.7172448-.954856 1.8458255-1.5117215 3.04-1.5.0734724-.0014252.1469599.0019152.22.01-.1505227-.371456-.2253198-.7692403-.22-1.17.025889-.9443841.4262002-1.839725 1.1127256-2.4887353.6865254-.6490104 1.6029261-.99843 2.5472744-.9712647.4964678.0030843.9880783.098016 1.45.28.2195748-.7188719.5990614-1.3787 1.11-1.93 1.0715928-1.1657482 2.586617-1.8233486 4.17-1.81 2.9518019-.0851835 5.4139852 2.2382222 5.5 5.19-.0006293 1.0461092-.333265 2.065025-.95 2.91 1.860349.0732698 3.3439745 1.5787776 3.39 3.44z" fill="#ecf0f1"/><path id="Shape" d="m30.322 32.951c-.4258393.0005281-.8052996-.2686801-.9454939-.6707807-.1401943-.4021007-.0103647-.8488752.3234939-1.1132193l5.583-4.428c.4329912-.343245 1.062255-.2704912 1.4055.1625s.2704912 1.062255-.1625 1.4055l-5.583 4.428c-.1767365.1399376-.3955708.2160539-.621.216z" fill="#e57e25"/><path id="Shape" d="m40.69 24.728c-.4258393.0005281-.8052996-.2686801-.9454939-.6707807-.1401943-.4021007-.0103647-.8488752.3234939-1.1132193l12.385-9.822c1.3541278-1.0759966 1.8555656-2.9049982 1.2395122-4.52113831-.6160534-1.61614012-2.2077386-2.64726807-3.9345122-2.54886169-.5522847.03175637-1.0257436-.39021525-1.0575-.9425s.3902153-1.02574363.9425-1.0575c1.698521-.09615684 3.3574299.53665256 4.5603887 1.73961132 1.2029587 1.20295877 1.8357681 2.86186773 1.7396113 4.56038868-.0853116 1.7017272-.9033665 3.2831298-2.243 4.336l-12.388 9.823c-.1768731.1405094-.3961085.2169951-.622.217z" fill="#e57e25"/><path id="Shape" d="m16.31 49.44-5.72-5.72 5.72-5.75 5.72 5.72z" fill="#805333"/><path id="Shape" d="m16.31 49.44-2.15 2.15-1.41 1.41-2.15 2.16h-.01l-5.71-5.72 2.15-2.15 1.41-1.42 2.15-2.15z" fill="#a56a43"/><g fill="#603e26"><path id="Shape" d="m15.59 42.99c-.1875741.1889094-.4438082.2935684-.71.29-.2632254.0033976-.5162972-.1014464-.7-.29l-1.43-1.43 1.41-1.41 1.43 1.43c.3877236.3900375.3877236 1.0199625 0 1.41z"/><path id="Shape" d="m19.88 45.87-1.41 1.41-1.43-1.43c-.2853762-.2443899-.4096819-.6281184-.3218101-.993419.0878718-.3653005.3730906-.6505193.7383911-.7383911.3653006-.0878718.7490291.0364339.993419.3218101z"/><path id="Shape" d="m9.87 48.71c-.18655363.1916151-.44257048.2997912-.71.3-.2644743-.0003894-.51732197-.1087527-.7-.3l-1.43-1.42 1.41-1.42 1.43 1.43c.3877236.3900375.3877236 1.0199625 0 1.41z"/><path id="Shape" d="m14.16 51.59-1.41 1.41-1.43-1.43c-.191781-.1843911-.3001659-.4389549-.3001659-.705s.1083849-.5206089.3001659-.705c.3900375-.3877236 1.0199625-.3877236 1.41 0z"/></g><path id="Shape" d="m23 12c.0066528 2.7009614-.9872726 5.3086794-2.79 7.32-.4488619.5054955-.9443884.9675405-1.48 1.38-3.966377 3.066638-9.50362296 3.066638-13.47 0-.52671583-.4120181-1.01534692-.8705281-1.46-1.37-3.73353674-4.1735376-3.73353674-10.48646242 0-14.66.44308789-.50454485.93553997-.96349679 1.47-1.37 3.9626189-3.06302894 9.4928342-3.06713757 13.46-.01.5267158.41201814 1.0153469.87052813 1.46 1.37 1.8130403 2.01442755 2.8143052 4.62983118 2.81 7.34z" fill="#f9eab0"/><path id="Shape" d="m9 12c.00259932 3.2908834-1.3501288 6.4376039-3.74 8.7-.52671583-.4120181-1.01534692-.8705281-1.46-1.37 2.04331338-1.8893703 3.20355346-4.5470453 3.2-7.33-.00313282-2.78155913-1.16225573-5.43667506-3.2-7.33.44308789-.50454485.93553997-.96349679 1.47-1.37 2.37772232 2.26999977 3.72510355 5.41268523 3.73 8.7z" fill="#ff5364"/><path id="Shape" d="m20.21 19.32c-.4488619.5054955-.9443884.9675405-1.48 1.38-2.3818799-2.2691749-3.7299002-5.4152422-3.7299002-8.705 0-3.28975784 1.3480203-6.43582508 3.7299002-8.705.5267158.41201814 1.0153469.87052813 1.46 1.37-2.0364393 1.89500214-3.191513 4.55261776-3.187718 7.3343625.003795 2.7817448 1.1661157 5.4361989 3.207718 7.3256375z" fill="#ff5364"/><path id="Shape" d="m59 52.54c-.0587822 1.9685392-1.7014136 3.517178-3.67 3.46h-14.66c-1.9685864.057178-3.6112178-1.4914608-3.67-3.46-.0006855-.5214779.1227124-1.0356357.36-1.5.6485864 1.2222515 1.9264522 1.9789333 3.31 1.96h14.66c1.3835478.0189333 2.6614136-.7377485 3.31-1.96.2372876.4643643.3606855.9785221.36 1.5z" fill="#bdc3c7"/></g></g></svg>