<svg height="512" viewBox="0 0 58 58" width="512" xmlns="http://www.w3.org/2000/svg"><g id="Page-1" fill="none" fill-rule="evenodd"><g id="013---Kayak" fill-rule="nonzero"><path id="Rectangle-path" d="m2 17h4v37h-4z" fill="#805333"/><path id="Rectangle-path" d="m52 17h4v37h-4z" fill="#805333"/><path id="Shape" d="m33 0h-8c-7.1797017 0-13 5.82029825-13 13v32c0 7.1797017 5.8202983 13 13 13h8c7.1797017 0 13-5.8202983 13-13v-32c0-3.44781437-1.3696389-6.75441524-3.8076118-9.19238816-2.437973-2.43797292-5.7445738-3.80761184-9.1923882-3.80761184zm5 44c0 3.8659932-3.1340068 7-7 7h-4c-3.8659932 0-7-3.1340068-7-7v-30c0-3.8659932 3.1340068-7 7-7h4c3.8659932 0 7 3.1340068 7 7z" fill="#f29c1f"/><rect id="Rectangle-path" fill="#d25627" height="44" rx="7" width="18" x="20" y="7"/><path id="Rectangle-path" d="m12 23h8v14h-8z" fill="#e57e25"/><path id="Shape" d="m16 32c-.5522847 0-1-.4477153-1-1v-2c0-.5522847.4477153-1 1-1s1 .4477153 1 1v2c0 .5522847-.4477153 1-1 1z" fill="#f9eab0"/><path id="Rectangle-path" d="m38 23h8v14h-8z" fill="#e57e25"/><g fill="#f9eab0"><path id="Shape" d="m42 32c-.5522847 0-1-.4477153-1-1v-2c0-.5522847.4477153-1 1-1s1 .4477153 1 1v2c0 .5522847-.4477153 1-1 1z"/><path id="Shape" d="m15 56c-.4164188-.0000679-.7892099-.2581813-.9358143-.64794-.1466045-.3897586-.0363327-.8295721.2768143-1.10406l8-7c.4175404-.3268314 1.0175946-.2709384 1.3675892.1273863.3499946.3983246.3282365 1.0005834-.0495892 1.3726137l-8 7c-.1817542.1612755-.4160122.2508552-.659.252z"/><path id="Shape" d="m43 56c-.2424684-.0000396-.4766638-.0881738-.659-.248l-8-7c-.2920027-.2285663-.4335504-.5999502-.3677529-.9648869s.3281356-.6635007.6815769-.7756945c.3534412-.1121938.7399474-.0195943 1.004176.2405814l8 7c.3100423.2750907.4182428.7129342.2720254 1.1007765-.1462174.3878422-.5165409.6452811-.9310254.6472235z"/><path id="Shape" d="m23 11c-.2424684-.0000396-.4766638-.0881738-.659-.248l-8-7c-.3778257-.37203027-.3995838-.97428907-.0495892-1.37261373s.9500488-.45421766 1.3675892-.12738627l8 7c.3100423.27509071.4182428.7129342.2720254 1.1007765-.1462174.3878422-.5165409.6452811-.9310254.6472235z"/><path id="Shape" d="m35 11c-.4164188-.0000679-.7892099-.2581813-.9358143-.64794-.1466045-.38975863-.0363327-.82957206.2768143-1.10406l8-7c.4175404-.32683139 1.0175946-.27093839 1.3675892.12738627s.3282365 1.00058346-.0495892 1.37261373l-8 7c-.1817542.1612755-.4160122.2508552-.659.252z"/></g><path id="Shape" d="m7.857 14.358-1.857 4.642h-4l-1.857-4.642c-.09413257-.2364218-.14265364-.4885278-.143-.743v-11.615c0-1.1045695.8954305-2 2-2h4c1.1045695 0 2 .8954305 2 2v11.615c-.00034636.2544722-.04886743.5065782-.143.743z" fill="#e57e25"/><rect id="Rectangle-path" fill="#e57e25" height="6" rx="1" width="6" x="1" y="52"/><path id="Shape" d="m4 14c-.55228475 0-1-.4477153-1-1v-4c0-.55228475.44771525-1 1-1s1 .44771525 1 1v4c0 .5522847-.44771525 1-1 1z" fill="#f9eab0"/><path id="Shape" d="m57.857 14.358-1.857 4.642h-4l-1.857-4.642c-.0941326-.2364218-.1426536-.4885278-.143-.743v-11.615c0-1.1045695.8954305-2 2-2h4c1.1045695 0 2 .8954305 2 2v11.615c-.0003464.2544722-.0488674.5065782-.143.743z" fill="#e57e25"/><rect id="Rectangle-path" fill="#e57e25" height="6" rx="1" width="6" x="51" y="52"/><path id="Shape" d="m54 14c-.5522847 0-1-.4477153-1-1v-4c0-.55228475.4477153-1 1-1s1 .44771525 1 1v4c0 .5522847-.4477153 1-1 1z" fill="#f9eab0"/><path id="Rectangle-path" d="m20 14h18v6h-18z" fill="#f0c419"/><path id="Rectangle-path" d="m20 26h18v6h-18z" fill="#f0c419"/><path id="Rectangle-path" d="m20 38h18v6h-18z" fill="#f0c419"/></g></g></svg>