<svg height="512" viewBox="0 0 58 58" width="512" xmlns="http://www.w3.org/2000/svg"><g id="Page-1" fill="none" fill-rule="evenodd"><g id="014---Lacrosse" fill-rule="nonzero" transform="translate(-1)"><g fill="#e57e25"><path id="Shape" d="m5.025 11.894c-.47705814.0010523-.88843037-.3350226-.98255057-.8027051-.0941202-.4676826.15522368-.9367253.59555057-1.1202949l12.554-5.249c.3317921-.1494039.7185526-.10678807 1.009855.11127252.2913025.21806058.4411641.57714455.3912977.93758993-.0498663.36044539-.2915891.66535505-.6311527.79613755l-12.551 5.249c-.12216922.0515083-.25341636.0780297-.386.078z"/><path id="Shape" d="m6.779 17.8c-.47781494.0017313-.89009752-.3348064-.98408629-.8032893-.09398878-.4684829.15657925-.9380042.59808629-1.1207107l15.283-6.384c.4326992-.19870283.9454899-.06476209 1.2257454.32016422.2802555.38492628.2502408.91407048-.0717454 1.26483578l-.007.007c-.0968932.1040123-.2148484.1861719-.346.241l-15.312 6.4c-.12252543.0499971-.25366723.075478-.386.075z"/><path id="Shape" d="m11.814 22.336c-.476681.0000954-.8871632-.3362822-.9807415-.8036877-.0935784-.4674056.1557649-.9358855.5957415-1.1193123l12.117-5.057c.3297561-.1377259.7079393-.089067.9920914.1276472.2841522.2167143.431104.5685599.3855.923-.0456039.3544401-.2768353.6576269-.6065914.7953528l-12.117 5.056c-.1221371.0516125-.2534055.0781383-.386.078z"/><path id="Shape" d="m6.636 17.586c-.1322578.0000043-.26317305-.0265187-.385-.078-.24480846-.1020919-.43902822-.297261-.53992517-.5425644s-.10020444-.5206429.00192517-.7654356l5.25-12.554c.2134581-.50948268.7995173-.74945806 1.309-.536s.7494581.79951732.536 1.309l-5.249 12.552c-.15537814.3724703-.51942042.6150337-.923.615z"/><path id="Shape" d="m11.389 22.1c-.3501425.000408-.6749948-.1823481-.8564336-.4818141s-.1930329-.6720173-.0305664-.9821859l6.366-15.236c.2131819-.50975882.7992412-.75018191 1.309-.537s.7501819.79924118.537 1.309l-6.4 15.312c-.0539838.1313612-.135874.2494195-.24.346-.1856844.1738438-.4306377.2703947-.685.27z"/><path id="Shape" d="m17.27 23.94c-.3342646-.0003063-.6462723-.1676056-.8315036-.4458543-.1852312-.2782487-.2191885-.6306473-.0904964-.9391457l5.052-12.118c.1377259-.3297562.4409126-.56098752.7953528-.60659148.3544401-.04560397.7062858.10134781.923.38549998.2167143.2841522.2653731.6623354.1276472.9920915l-5.053 12.117c-.1553781.3724703-.5194204.6150337-.923.615z"/></g><path id="Shape" d="m54.975 11.894c-.1325836.0000297-.2638308-.0264917-.386-.078l-12.551-5.249c-.3395636-.1307825-.5812864-.43569216-.6311527-.79613755-.0498664-.36044538.0999952-.71952935.3912977-.93758993.2913024-.21806059.6780629-.26067642 1.009855-.11127252l12.554 5.249c.4403269.1835696.6896708.6526123.5955506 1.1202949-.0941202.4676825-.5054925.8037574-.9825506.8027051z" fill="#a56a43"/><path id="Shape" d="m53.221 17.8c-.1325648-.000158-.2637752-.026672-.386-.078l-15.312-6.4c-.5009223-.2338926-.7173926-.8295777-.4835-1.3305.2338926-.50092227.8295777-.71739259 1.3305-.4835l15.237 6.365c.441507.1827065.6920751.6522278.5980863 1.1207107s-.5062714.8050206-.9840863.8032893z" fill="#a56a43"/><path id="Shape" d="m48.186 22.336c-.1322578.0000043-.263173-.0265187-.385-.078l-12.118-5.058c-.5097588-.2129058-.7504057-.7987412-.5375-1.3085.2129058-.5097588.7987412-.7504057 1.3085-.5375l12.117 5.057c.4399766.1834268.6893199.6519067.5957415 1.1193123-.0935783.4674055-.5040605.8037831-.9807415.8036877z" fill="#a56a43"/><path id="Shape" d="m53.364 17.586c-.4035796.0000337-.7676219-.2425297-.923-.615l-5.249-12.552c-.213458-.50948267.0265174-1.0955419.536-1.30899995.5094827-.21345805 1.0955419.0265173 1.309.53599995l5.25 12.554c.1021296.2447927.1028221.5201322.0019252.7654356-.100897.2453034-.2951167.4404725-.5399252.5425644-.121827.0514813-.2527422.0780043-.385.078z" fill="#a56a43"/><path id="Shape" d="m48.608 22.105c-.2510925.0002272-.4928322-.0952529-.676-.267-.1067039-.0988011-.1912316-.2191167-.248-.353l-6.4-15.312c-.1380832-.33011341-.0895638-.70881725.1272812-.99345747s.5690718-.43197319.924-.3865c.3549282.04547318.6586356.27684406.7967188.60695747l6.385 15.283c.1438773.3099874.1194883.671984-.06467.9598705-.1841582.2878865-.5025809.4617926-.84433.4611295z" fill="#a56a43"/><path id="Shape" d="m42.73 23.94c-.4035796.0000337-.7676219-.2425297-.923-.615l-5.057-12.117c-.1377259-.3297561-.0890671-.7079393.1276472-.9920915.2167142-.28415218.5685599-.43110395.923-.38549999.3544402.04560396.6576269.27683529.7953528.60659149l5.056 12.118c.1286921.3084984.0947348.660897-.0904964.9391457-.1852313.2782487-.497239.445548-.8315036.4458543z" fill="#a56a43"/><path id="Shape" d="m58.41 54.56-25.56-25.55-2.85-2.85-.12-.12c-1.5872316-1.538761-2.3514314-3.7386175-2.06-5.93.8281071-5.6662881-1.048717-11.39300777-5.07-15.47-5.63-5.63-13.82-6.15-18.55-1.43-4.73 4.72-4.2 12.92 1.43 18.55 4.07699223 4.021283 9.8037119 5.8981071 15.47 5.07 2.1913825-.2914314 4.391239.4727684 5.93 2.06l28.45 28.45c.7012206.7307504 1.8240978.8569164 2.67.3.4857972-.3447386.794965-.8860604.8450721-1.4796368.0501071-.5935763-.1639402-1.1790657-.5850721-1.6003632zm-34.53-31.68c-1.1207047-.1932841-2.2650466-.2067867-3.39-.04-4.3987592.6320527-8.8404679-.825094-12.01-3.94-4-4-4.62-9.64-1.42-12.83s8.84-2.58 12.83 1.42c3.1245811 3.1636339 4.5833416 7.6102616 3.94 12.01-.1685501 1.121802-.1516585 2.2636744.05 3.38z" fill="#f29c1f"/><path id="Shape" d="m55.8 3.21c-4.73-4.72-12.92-4.2-18.55 1.43-4.021283 4.07699223-5.8981071 9.8037119-5.07 15.47.2914314 2.1913825-.4727684 4.391239-2.06 5.93l-.12.12 2.85 2.85.12-.12c1.538761-1.5872316 3.7386175-2.3514314 5.93-2.06 5.6662881.8281071 11.3930078-1.048717 15.47-5.07 5.63-5.63 6.15-13.82 1.43-18.55zm-4.28 15.69c-3.1695321 3.114906-7.6112408 4.5720527-12.01 3.94-1.1249534-.1667867-2.2692953-.1532841-3.39.04.2016585-1.1163256.2185501-2.258198.05-3.38-.6433416-4.3997384.8154189-8.8463661 3.94-12.01 3.99-4 9.63-4.62 12.83-1.42s2.58 8.83-1.42 12.83z" fill="#3b97d3"/><path id="Shape" d="m30 31.86-25.48 25.48c-.70122055.7307504-1.82409778.8569164-2.67.3-.48579725-.3447386-.79496501-.8860604-.84507211-1.4796368-.05010709-.5935763.16394024-1.1790657.58507211-1.6003632l25.56-25.55z" fill="#3b97d3"/><circle id="Oval" cx="30" cy="52" fill="#f3d55b" r="6"/></g></g></svg>