<svg height="512" viewBox="0 0 58 58" width="512" xmlns="http://www.w3.org/2000/svg"><g id="Page-1" fill="none" fill-rule="evenodd"><g id="015---Cricket" fill-rule="nonzero" transform="translate(-1 -1)"><path id="Shape" d="m31.08 41.07-16.48-16.48c-.375417-.3816243-.5870977-.8946809-.59-1.43v-4.87l.99-3.29 3.29-.99h4.87c.5353191.0029023 1.0483757.214583 1.43.59l33.65 33.65c1.58 1.58.62 5.09-2.14 7.85s-6.27 3.72-7.85 2.14l-9.32-9.32z" fill="#f3d55b"/><path id="Shape" d="m18.29 14.01-4.28 4.28-5-5-1.41-1.41-1.44-1.44-1.41-1.41-2.88-2.88c-1.16981351-1.17127019-1.16981351-3.06872981 0-4.24l.04-.04c1.17127019-1.16981351 3.06872981-1.16981351 4.24 0l.02.02 1.42 1.42 4.29 4.29 1.41 1.41 1.44 1.44 1.42 1.42z" fill="#c03a2b"/><path id="Shape" d="m21.15 21.15-7.14-2.86 4.28-4.28z" fill="#e64c3c"/><path id="Shape" d="m43.974 44.974c-.2651948-.0000566-.5195073-.1054506-.707-.293l-16.407-16.407c-.3789722-.3923789-.3735524-1.0160848.0121814-1.4018186s1.0094397-.3911536 1.4018186-.0121814l16.407 16.407c.2859079.2859943.3714219.7160366.216678 1.0896546-.1547439.3736179-.5192821.6172591-.923678.6173454z" fill="#f0c419"/><path id="Shape" d="m52.534 53.535c-.2651948-.0000566-.5195073-.1054506-.707-.293l-4.993-4.994c-.2599566-.2510745-.3642126-.6228779-.2726972-.9725073.0915155-.3496295.3645604-.6226744.7141899-.7141899.3496294-.0915154.7214328.0127406.9725073.2726972l4.993 4.994c.2859079.2859943.3714219.7160366.216678 1.0896546-.1547439.3736179-.5192821.6172591-.923678.6173454z" fill="#f0c419"/><path id="Rectangle-path" d="m1.714 3.736h6.053v2.008h-6.053z" fill="#e64c3c" transform="matrix(.707 -.707 .707 .707 -1.963 4.74)"/><path id="Rectangle-path" d="m4.569 6.598h6.053v1.994h-6.053z" fill="#e64c3c" transform="matrix(.707 -.707 .707 .707 -3.146 7.595)"/><path id="Rectangle-path" d="m7.419 9.448h6.053v1.994h-6.053z" fill="#e64c3c" transform="matrix(.707 -.707 .707 .707 -4.326 10.445)"/><path id="Rectangle-path" d="m10.274 12.296h6.053v2.008h-6.053z" fill="#e64c3c" transform="matrix(.707 -.707 .707 .707 -5.509 13.3)"/><path id="Shape" d="m39 50c.0010606 3.8131575-2.4038221 7.2120584-6 8.48-.6454481.2342018-1.3170892.3886792-2 .46-.6642665.0800032-1.3357335.0800032-2 0-.6829108-.0713208-1.3545519-.2257982-2-.46-3.5960302-1.2683344-6.0010697-4.666851-6.0010697-8.48s2.4050395-7.2116656 6.0010697-8.48c.6454481-.2342018 1.3170892-.3886792 2-.46.3318128-.0402091.6657599-.060246 1-.06.334249-.0005477.6682145.0194902 1 .06.03 0 .05.01.08.01.6562626.0750384 1.3009828.2295026 1.92.46.7103569.2376676 1.3836518.574315 2 1 2.184433 1.4498928 3.6214404 3.786401 3.93 6.39.0488478.3578913.0722399.7187975.07 1.08z" fill="#ff5364"/><g fill="#df4d60"><path id="Shape" d="m27 41.52v2.92c0 .5522847-.4477153 1-1 1s-1-.4477153-1-1v-1.92c.622018-.416015 1.2939772-.7519946 2-1z"/><path id="Shape" d="m26 52.111c-.5522847 0-1-.4477153-1-1v-2.222c0-.5522847.4477153-1 1-1s1 .4477153 1 1v2.222c0 .5522847-.4477153 1-1 1z"/><path id="Shape" d="m27 55.56v2.92c-.7060228-.2480054-1.377982-.583985-2-1v-1.92c0-.5522847.4477153-1 1-1s1 .4477153 1 1z"/><path id="Shape" d="m31 41.06v3.38c0 .5522847-.4477153 1-1 1s-1-.4477153-1-1v-3.38c.3318128-.0402091.6657599-.060246 1-.06.334249-.0005477.6682145.0194902 1 .06z"/><path id="Shape" d="m30 52.111c-.5522847 0-1-.4477153-1-1v-2.222c0-.5522847.4477153-1 1-1s1 .4477153 1 1v2.222c0 .5522847-.4477153 1-1 1z"/><path id="Shape" d="m31 55.56v3.38c-.6642665.0800032-1.3357335.0800032-2 0v-3.38c0-.5522847.4477153-1 1-1s1 .4477153 1 1z"/><path id="Shape" d="m35 42.53v1.91c0 .5522847-.4477153 1-1 1s-1-.4477153-1-1v-2.91c.7103569.2376676 1.3836518.574315 2 1z"/><path id="Shape" d="m34 52.111c-.5522847 0-1-.4477153-1-1v-2.222c0-.5522847.4477153-1 1-1s1 .4477153 1 1v2.222c0 .5522847-.4477153 1-1 1z"/><path id="Shape" d="m35 55.56v1.92c-.622018.416015-1.2939772.7519946-2 1v-2.92c0-.5522847.4477153-1 1-1s1 .4477153 1 1z"/></g><path id="Shape" d="m45.78 8.74-4.89 4.35-3.26 1.49c-3.2067137-1.1484369-5.1212883-4.4383881-4.535579-7.79381122.5857093-3.35542316 3.5016604-5.80217693 6.9078145-5.7962979 3.406154.00587904 6.3136416 2.46268409 6.8877645 5.82010912z" fill="#f0c419"/><path id="Shape" d="m59 16.54c-.0587822 1.9685392-1.7014136 3.517178-3.67 3.46h-14.66c-1.9685864.057178-3.6112178-1.4914608-3.67-3.46.0034423-.7025748.2234362-1.387.63-1.96.7172448-.954856 1.8458255-1.5117215 3.04-1.5.0734724-.0014252.1469599.0019152.22.01-.1505227-.371456-.2253198-.7692403-.22-1.17.025889-.9443841.4262002-1.839725 1.1127256-2.48873533.6865254-.64901037 1.6029261-.99842998 2.5472744-.97126467.4964678.00308433.9880783.09801601 1.45.28.2195748-.71887192.5990614-1.37869998 1.11-1.93 1.0715928-1.16574815 2.586617-1.82334858 4.17-1.81 2.9518019-.08518354 5.4139852 2.23822223 5.5 5.19-.0006293 1.0461092-.333265 2.065025-.95 2.91 1.860349.0732698 3.3439745 1.5787776 3.39 3.44z" fill="#ecf0f1"/><path id="Shape" d="m59 16.54c-.0587822 1.9685392-1.7014136 3.517178-3.67 3.46h-14.66c-1.9685864.057178-3.6112178-1.4914608-3.67-3.46-.0006855-.5214779.1227124-1.0356357.36-1.5.6485864 1.2222515 1.9264522 1.9789333 3.31 1.96h14.66c1.3835478.0189333 2.6614136-.7377485 3.31-1.96.2372876.4643643.3606855.9785221.36 1.5z" fill="#bdc3c7"/></g></g></svg>