<svg height="512" viewBox="0 0 58 58" width="512" xmlns="http://www.w3.org/2000/svg"><g id="Page-1" fill="none" fill-rule="evenodd"><g id="016---Badminton" fill-rule="nonzero" transform="translate(-1)"><g fill="#bdc3c7"><path id="Shape" d="m27.584 28.187c-.4043959-.0000863-.7689341-.2437275-.923678-.6173454-.1547439-.373618-.0692299-.8036603.216678-1.0896546l20.723-20.723c.2510745-.25995658.6228779-.3642126.9725073-.27269716.3496295.09151544.6226744.3645604.7141899.71418984.0915154.34962943-.0127406.72143285-.2726972.97250732l-20.723 20.723c-.1874927.1875494-.4418052.2929434-.707.293z"/><path id="Shape" d="m25.258 22.055c-.4043959-.0000863-.7689341-.2437275-.923678-.6173454-.1547439-.373618-.0692299-.8036603.216678-1.0896546l16.917-16.917c.3923789-.37897221 1.0160848-.37355237 1.4018186.01218142.3857338.3857338.3911536 1.00943969.0121814 1.40181858l-16.917 16.917c-.1874927.1875494-.4418052.2929434-.707.293z"/><path id="Shape" d="m37.945 34.742c-.4043959-.0000863-.7689341-.2437275-.923678-.6173454-.1547439-.373618-.0692299-.8036603.216678-1.0896546l16.917-16.917c.3923789-.3789722 1.0160848-.3735524 1.4018186.0121814s.3911536 1.0094397.0121814 1.4018186l-16.917 16.917c-.1870531.1882061-.4416514.2937185-.707.293z"/><path id="Shape" d="m31.813 32.416c-.4043959-.0000863-.7689341-.2437275-.923678-.6173454-.1547439-.373618-.0692299-.8036603.216678-1.0896546l20.723-20.723c.3923789-.37897221 1.0160848-.37355237 1.4018186.01218142.3857338.38573378.3911536 1.00943968.0121814 1.40181858l-20.722 20.723c-.1877377.1877946-.4424587.2932088-.708.293z"/><path id="Shape" d="m48.307 32.416c-.2651948-.0000566-.5195073-.1054506-.707-.293l-20.723-20.723c-.3789722-.3923789-.3735524-1.0160848.0121814-1.40181858.3857338-.38573379 1.0094397-.39115363 1.4018186-.01218142l20.723 20.723c.2859079.2859943.3714219.7160366.216678 1.0896546-.1547439.3736179-.5192821.6172591-.923678.6173454z"/><path id="Shape" d="m42.175 34.742c-.2653486.0007185-.5199469-.1047939-.707-.293l-16.917-16.917c-.3789722-.3923789-.3735524-1.0160848.0121814-1.4018186s1.0094397-.3911536 1.4018186-.0121814l16.917 16.917c.2859079.2859943.3714219.7160366.216678 1.0896546-.1547439.3736179-.5192821.6172591-.923678.6173454z"/><path id="Shape" d="m54.862 22.055c-.2651948-.0000566-.5195073-.1054506-.707-.293l-16.917-16.917c-.3789722-.39237889-.3735524-1.01608478.0121814-1.40181858.3857338-.38573379 1.0094397-.39115363 1.4018186-.01218142l16.917 16.917c.2859079.2859943.3714219.7160366.216678 1.0896546-.1547439.3736179-.5192821.6172591-.923678.6173454z"/><path id="Shape" d="m52.536 28.187c-.2651948-.0000566-.5195073-.1054506-.707-.293l-20.723-20.723c-.3904653-.39074147-.3902414-1.02403466.0005-1.41449996.3907415-.3904653 1.0240347-.39024146 1.4145.00049996l20.722 20.723c.2859079.2859943.3714219.7160366.216678 1.0896546-.1547439.3736179-.5192821.6172591-.923678.6173454z"/></g><path id="Shape" d="m28.15 33.67-9.94 9.94-2.21-.61-.61-2.21 9.94-9.94c.42.51 2.2-.32 2.67.15s-.36 2.25.15 2.67z" fill="#2980ba"/><path id="Shape" d="m53.45 5.55c-7.1232295-7.11549446-18.5685369-7.4142678-26.0533039-.6801069-7.4847669 6.7341609-8.3926738 18.1473126-2.0666961 25.9801069.42.51.87 1.01 1.34 1.48s.97.92 1.48 1.34c7.8327943 6.3259777 19.245946 5.4180708 25.9801069-2.0666961 6.7341609-7.484767 6.4353876-18.9300744-.6801069-26.0533039zm-2.82 23.96c-5.8376061 5.8374207-15.3020699 5.8373205-21.1395524-.0002238-5.8374826-5.8375443-5.8374826-15.3020081 0-21.13955242 5.8374825-5.83754431 15.3019463-5.8376445 21.1395524-.00022378 5.8300608 5.8407912 5.8300608 15.2992088 0 21.14z" fill="#3b97d3"/><path id="Shape" d="m40.06 34.88c-7.595365-.0086109-14.1273981-5.3802888-15.6026777-12.8310065s2.5169028-14.90624322 9.5358877-17.80856889c7.0189849-2.90232568 15.1107322-.4434627 19.3282737 5.87333919 4.2175416 6.316802 3.386741 14.7329859-1.9844837 20.1032362-2.9891704 2.9923736-7.0474157 4.6704438-11.277 4.663zm.001-29.88c-6.3130886-.00190335-11.8399795 4.23765458-13.473998 10.3356112-1.6340185 6.0979566 1.0324808 12.5330289 6.5006542 15.688052s12.3738526 2.2429001 16.8353438-2.2236632c3.9885183-3.9875267 5.18154-9.9853929 3.0225432-15.1957077-2.1589968-5.21031475-7.2446281-8.60649711-12.8845432-8.6042923z" fill="#ecf0f1"/><rect id="Rectangle-path" fill="#393f4a" height="5.982" rx=".997" transform="matrix(.707 -.707 .707 .707 -31.969 21.32)" width="19.94" x="-.22" y="46.259"/><path id="Shape" d="m16.1 48.135c-.2651948-.0000566-.5195073-.1054506-.707-.293l-4.23-4.229c-.2815454-.2452303-.4030247-.6268833-.3150312-.9897371s.3708021-.6464653.733405-.7354871.7445987.0313751.9906262.3122242l4.23 4.229c.2859079.2859943.3714219.7160366.216678 1.0896546-.1547439.3736179-.5192821.6172591-.923678.6173454z" fill="#464f5d"/><path id="Shape" d="m13.274 50.955c-.2651948-.0000566-.5195073-.1054506-.707-.293l-4.228-4.23c-.25995658-.2510745-.3642126-.6228779-.27269716-.9725073.09151544-.3496295.3645604-.6226744.71418984-.7141899.34962943-.0915154.72143285.0127406.97250732.2726972l4.228 4.23c.2859079.2859943.3714219.7160366.216678 1.0896546-.1547439.3736179-.5192821.6172591-.923678.6173454z" fill="#464f5d"/><path id="Shape" d="m10.455 53.774c-.2651948-.0000566-.51950727-.1054506-.707-.293l-4.228-4.23c-.25995658-.2510745-.3642126-.6228779-.27269716-.9725073.09151544-.3496295.3645604-.6226744.71418984-.7141899.34962943-.0915154.72143285.0127406.97250732.2726972l4.228 4.23c.2859079.2859943.3714219.7160366.216678 1.0896546-.1547439.3736179-.5192821.6172591-.923678.6173454z" fill="#464f5d"/><path id="Shape" d="m7.636 56.593c-.26534858.0007185-.51994691-.1047939-.707-.293l-4.229-4.229c-.37897221-.3923789-.37355237-1.0160848.01218142-1.4018186.3857338-.3857338 1.00943969-.3911536 1.40181858-.0121814l4.23 4.229c.28590792.2859943.37142191.7160366.21667798 1.0896546-.15474393.3736179-.51928208.6172591-.92367798.6173454z" fill="#464f5d"/><path id="Shape" d="m7.35 1.66-.02.03-3.36 4.9-.02.02-.82-.56-.83-.58c-1.30436587-.96026514-1.61097229-2.78253544-.69266894-4.11677619.91830336-1.33424076 2.7299027-1.69863664 4.09266894-.82322381l.83.57z" fill="#ecf0f1"/><path id="Shape" d="m16.14 7.83c.9053094 1.02958119.9950229 2.5427352.2177142 3.6720774-.7773087 1.1293421-2.2227336 1.5858841-3.5077142 1.1079226-.0298715.3483688-.1505496.6828195-.35.97-.3983018.5665249-1.0474722.903673-1.74.903673s-1.34169817-.3371481-1.74-.903673l-4.43-6.13-.62-.86 3.36-4.9 1.03.27 7.31 1.95c.6725148.16796264 1.2209981.65309524 1.4698325 1.30006444.2488343.64696921.1668015 1.37460798-.2198325 1.94993556-.1976826.28703026-.466433.51787993-.78.67z" fill="#f5efca"/><path id="Shape" d="m3.97 6.59-.01-.01" fill="#ecf0f1"/><path id="Shape" d="m8.36 1.96-3.77 5.49-.62-.86-.02.02-.82-.56 3.4-4.95.82.56-.02.03z" fill="#95a5a5"/></g></g></svg>