<svg height="512" viewBox="0 0 59 55" width="512" xmlns="http://www.w3.org/2000/svg"><g id="Page-1" fill="none" fill-rule="evenodd"><g id="018---Frisbee" fill-rule="nonzero"><path id="Shape" d="m52.27 1.29 5.21 4.17c1.2471702.98841028 1.7924704 2.6203877 1.39 4.16-1.93 7.26-7.71 15.56-14.44 22.29s-15.03 12.5-22.29 14.44c-1.5415749.3988681-3.1732476-.1502525-4.16-1.4l-4.16-5.21z" fill="#e57e25"/><path id="Shape" d="m36.58 4.7v-.01c6.94-4.48 13.07-6.02 15.69-3.4 3.93 3.94-1.49 15.73-12.11 26.35s-22.41 16.03-26.34 12.1c-2.62-2.62-1.09-8.74 3.39-15.68z" fill="#f29c1f"/><path id="Shape" d="m32.073 30.52c-.4245032.0008399-.8032758-.2664271-.9447828-.6666513s-.0149066-.8461756.3157828-1.1123487c1.8024454-1.4592135 3.5255721-3.0137662 5.162-4.657 8.235-8.234 11.655-15.719 11.945-18.741.0249509-.36297978.2450795-.68376618.5747862-.83761785.3297068-.15385166.7169593-.1164886 1.0111701.09756013s.4489493.57100322.4040437.93205772c-.38 3.965-4.46 11.9-12.52 19.964-1.6874461 1.6933792-3.4636129 3.2959683-5.321 4.801-.177814.1426572-.3990332.220278-.627.22z" fill="#f9eab0"/><path id="Shape" d="m17.917 38.067c-.5328742.0000667-.9721942-.4177315-.9988712-.9499375-.026677-.5322061.3686613-.9918418.8988712-1.0450625 1.8259458-.2970021 3.5858263-.9112681 5.2-1.815.4937426-.2485281 1.0954718-.0497425 1.344.444.2485281.4937426.0497425 1.0954719-.444 1.344-1.8368391 1.0007688-3.830101 1.682772-5.895 2.017-.039.003-.072.005-.105.005z" fill="#f9eab0"/><g fill="#e64c3c"><path id="Shape" d="m6.7 37.9c-.4043959-.0000863-.76893405-.2437275-.92367798-.6173454-.15474393-.373618-.06922994-.8036603.21667798-1.0896546l.712-.712c.39237889-.3789722 1.01608478-.3735524 1.40181858.0121814.38573379.3857338.39115363 1.0094397.01218142 1.4018186l-.719.705c-.18463046.1884143-.43623073.296243-.7.3z"/><path id="Shape" d="m2.424 42.168c-.4043959-.0000863-.76893405-.2437275-.92367798-.6173454-.15474393-.373618-.06922994-.8036603.21667798-1.0896546l1.424-1.424c.39237889-.3789722 1.01608478-.3735524 1.40181858.0121814.38573379.3857338.39115363 1.0094397.01218142 1.4018186l-1.424 1.424c-.18749273.1875494-.44180519.2929434-.707.293z"/><path id="Shape" d="m16.664 50.712c-.4043959-.0000863-.7689341-.2437275-.923678-.6173454-.1547439-.373618-.0692299-.8036603.216678-1.0896546l.713-.712c.2527654-.2525868.6210837-.3511379.966213-.25853s.6146362.3623053.707.7075c.0923639.3451947-.0064476.7134432-.259213.96603l-.713.712c-.1876563.1871827-.4419486.2922087-.707.292z"/><path id="Shape" d="m12.393 54.984c-.4043959-.0000863-.7689341-.2437275-.923678-.6173454-.1547439-.373618-.0692299-.8036603.216678-1.0896546l1.423-1.423c.3923789-.3789722 1.0160848-.3735524 1.4018186.0121814s.3911536 1.0094397.0121814 1.4018186l-1.423 1.423c-.1874927.1875494-.4418052.2929434-.707.293z"/><path id="Shape" d="m5.272 46.44c-.4043959-.0000863-.76893405-.2437275-.92367798-.6173454-.15474393-.373618-.06922994-.8036603.21667798-1.0896546l4.272-4.272c.25107447-.2599566.62287789-.3642126.97250732-.2726972.34962948.0915155.62267438.3645604.71418988.7141899.0915154.3496294-.0127406.7214328-.2726972.9725073l-4.272 4.272c-.18705309.1882061-.44165142.2937185-.707.293z"/><path id="Shape" d="m1 50.712c-.4043959-.0000863-.76893405-.2437275-.92367798-.6173454-.15474393-.373618-.06922994-.8036603.21667798-1.0896546l1.424-1.424c.25347994-.2525868.62245849-.3507566.96794502-.25753.34548653.0932267.61499341.3636866.707.7095.0920066.3458135-.00746508.7144432-.26094502.96703l-1.424 1.419c-.18705309.1882061-.44165142.2937185-.707.293z"/><path id="Shape" d="m9.544 50.712c-.4043959-.0000863-.76893405-.2437275-.92367798-.6173454-.15474393-.373618-.06922994-.8036603.21667798-1.0896546l3.56-3.56c.3904653-.3907414 1.0237585-.3909653 1.4145-.0005.3907414.3904653.3909653 1.0237585.0005 1.4145l-3.561 3.56c-.1870531.1882061-.44165142.2937185-.707.293z"/><path id="Shape" d="m5.272 54.984c-.4043959-.0000863-.76893405-.2437275-.92367798-.6173454-.15474393-.373618-.06922994-.8036603.21667798-1.0896546l1.424-1.423c.39547275-.3575753 1.00192995-.3420027 1.37852992.035398s.39088455.9838896.03247008 1.378602l-1.421 1.423c-.18705309.1882061-.44165142.2937185-.707.293z"/></g><path id="Shape" d="m32.33 19.81c-6.29 6.29-12.99 9.8-14.95 7.83-.69-.69-.71-1.95-.17-3.58.99-3.02 3.91-7.28 8-11.37s8.35-7 11.37-7.99c1.63-.55 2.89-.54 3.58.15 1.97 1.97-1.54 8.67-7.83 14.96z" fill="#f0c419"/><path id="Shape" d="m26.633 17.959c-.4043959-.0000863-.7689341-.2437275-.923678-.6173454-.1547439-.373618-.0692299-.8036603.216678-1.0896546l2.847-2.852c.3923789-.3789722 1.0160848-.3735524 1.4018186.0121814s.3911536 1.0094397.0121814 1.4018186l-2.847 2.853c-.1876563.1871827-.4419486.2922087-.707.292z" fill="#e57e25"/></g></g></svg>