<svg height="512" viewBox="0 0 52 58" width="512" xmlns="http://www.w3.org/2000/svg"><g id="Page-1" fill="none" fill-rule="evenodd"><g id="019---Bowling" fill-rule="nonzero" transform="translate(-1)"><g fill="#f9eab0"><path id="Shape" d="m39.01 52.58c.06.18.13.35.2.52.4516933 1.1460927 1.5581091 1.8995659 2.79 1.9h6c1.2318909-.0004341 2.3383067-.7539073 2.79-1.9 1.5394031-4.1927009 2.2887143-8.634319 2.21-13.1.0775996-4.4295628-.6579021-8.8357944-2.17-13-.4261075-1.1179583-.9762099-2.1846202-1.64-3.18-.1790574-.2617224-.3394544-.535734-.48-.82-.4657901-.9279555-.7088873-1.9517031-.71-2.99v-.28c.0013782-.2441397.0180777-.4879523.05-.73.1268839-.9673195.4392628-1.9010605.92-2.75.2158748-.400235.3965547-.8184755.54-1.25.3268678-.9663319.4924148-1.9798853.49-3 0-3.87-2.24-7-5-7s-5 3.13-5 7c-.0024148 1.0201147.1631322 2.0336681.49 3 .1434453.4315245.3241252.849765.54 1.25.4807372.8489395.7931161 1.7826805.92 2.75.0319223.2420477.0486218.4858603.05.73v.28c-.0011127 1.0382969-.2442099 2.0620445-.71 2.99-.1405456.284266-.3009426.5582776-.48.82-.6637901.9953798-1.2138925 2.0620417-1.64 3.18-.437226 1.1253353-.801317 2.2777337-1.09 3.45v.01z"/><path id="Shape" d="m34.41 27.82c-.3278315-1.9885839-.8572266-3.9386341-1.58-5.82-.4261075-1.1179583-.9762099-2.1846202-1.64-3.18-.1790574-.2617224-.3394544-.535734-.48-.82-.4657901-.9279555-.7088873-1.9517031-.71-2.99v-.28c.0013782-.2441397.0180777-.4879523.05-.73.1268839-.9673195.4392628-1.9010605.92-2.75.2158748-.400235.3965547-.8184755.54-1.25.3268678-.96633189.4924148-1.97988528.49-3 0-3.87-2.24-7-5-7s-5 3.13-5 7c-.0024148 1.02011472.1631322 2.03366811.49 3 .1434453.4315245.3241252.849765.54 1.25.4807372.8489395.7931161 1.7826805.92 2.75.0319223.2420477.0486218.4858603.05.73v.28c-.0011127 1.0382969-.2442099 2.0620445-.71 2.99-.1405456.284266-.3009426.5582776-.48.82-.6637901.9953798-1.2138925 2.0620417-1.64 3.18-.7227734 1.8813659-1.2521685 3.8314161-1.58 5.82z"/><path id="Shape" d="m15.92 30.46v-.01c-.288683-1.1722663-.652774-2.3246647-1.09-3.45-.4261075-1.1179583-.9762099-2.1846202-1.64-3.18-.1790574-.2617224-.3394544-.535734-.48-.82-.4657901-.9279555-.7088873-1.9517031-.71-2.99v-.28c.0013782-.2441397.0180777-.4879523.05-.73.1268839-.9673195.4392628-1.9010605.92-2.75.2158748-.400235.3965547-.8184755.54-1.25.3268678-.9663319.4924148-1.9798853.49-3 0-3.87-2.24-7-5-7s-5 3.13-5 7c-.00241484 1.0201147.16313221 2.0336681.49 3 .14344528.4315245.32412517.849765.54 1.25.48073724.8489395.79311606 1.7826805.92 2.75.03192231.2420477.0486218.4858603.05.73v.28c-.00111268 1.0382969-.24420993 2.0620445-.71 2.99-.14054555.284266-.30094259.5582776-.48.82-.66379012.9953798-1.21389249 2.0620417-1.64 3.18-1.51209791 4.1642056-2.24759964 8.5704372-2.17 13-.07871429 4.465681.67059686 8.9072991 2.21 13.1.45169328 1.1460927 1.5581091 1.8995659 2.79 1.9h6c1.2318909-.0004341 2.3383067-.7539073 2.79-1.9.07-.17.14-.34.2-.52z"/></g><path id="Shape" d="m43 42c.0036643 2.7723411-.713087 5.4980635-2.08 7.91-.5481585.9501016-1.1878662 1.8443526-1.91 2.67-3.8891226 4.3903253-9.8686668 6.3008474-15.582918 4.9788928s-10.2471956-5.6644721-11.8130243-11.3167647c-1.5658287-5.6522925.086466-11.7082785 4.3059423-15.7821281v-.01c.9470989-.9140916 2.009395-1.7007286 3.16-2.34.17-.11.34-.2.51-.29 4.6420033-2.4266055 10.1779967-2.4266055 14.82 0 1.3432795.6958839 2.579307 1.5816475 3.67 2.63v.01c3.147698 3.0129663 4.9254415 7.1827143 4.92 11.54z" fill="#2980ba"/><path id="Shape" d="m43 42c.0036643 2.7723411-.713087 5.4980635-2.08 7.91-6.2586028 3.5699107-14.1312969 2.5161808-19.2307841-2.5739667s-6.1676474-12.9608967-2.6092159-19.2260333c.17-.11.34-.2.51-.29 4.6420033-2.4266055 10.1779967-2.4266055 14.82 0 1.3432795.6958839 2.579307 1.5816475 3.67 2.63v.01c3.147698 3.0129663 4.9254415 7.1827143 4.92 11.54z" fill="#3b97d3"/><circle id="Oval" cx="31" cy="33" fill="#285680" r="2"/><circle id="Oval" cx="37" cy="39" fill="#285680" r="2"/><circle id="Oval" cx="29" cy="41" fill="#285680" r="2"/><path id="Shape" d="m14.83 27h-11.66c.42610751-1.1179583.97620988-2.1846202 1.64-3.18.17905741-.2617224.33945445-.535734.48-.82h7.42c.1405456.284266.3009426.5582776.48.82.6637901.9953798 1.2138925 2.0620417 1.64 3.18z" fill="#e64c3c"/><path id="Shape" d="m6 20.01v-.28c-.0013782-.2441397-.01807769-.4879523-.05-.73h6.1c-.0319223.2420477-.0486218.4858603-.05.73v.28c.0011127 1.0382969.2442099 2.0620445.71 2.99h-7.42c.46579007-.9279555.70888732-1.9517031.71-2.99z" fill="#e4c05c"/><path id="Shape" d="m13.51 15c-.1434453.4315245-.3241252.849765-.54 1.25-.4807372.8489395-.7931161 1.7826805-.92 2.75h-6.1c-.12688394-.9673195-.43926276-1.9010605-.92-2.75-.21587483-.400235-.39655472-.8184755-.54-1.25z" fill="#e64c3c"/><path id="Shape" d="m50.83 27h-11.66c.4261075-1.1179583.9762099-2.1846202 1.64-3.18.1790574-.2617224.3394544-.535734.48-.82h7.42c.1405456.284266.3009426.5582776.48.82.6637901.9953798 1.2138925 2.0620417 1.64 3.18z" fill="#e64c3c"/><path id="Shape" d="m42 20.01v-.28c-.0013782-.2441397-.0180777-.4879523-.05-.73h6.1c-.0319223.2420477-.0486218.4858603-.05.73v.28c.0011127 1.0382969.2442099 2.0620445.71 2.99h-7.42c.4657901-.9279555.7088873-1.9517031.71-2.99z" fill="#e4c05c"/><path id="Shape" d="m49.51 15c-.1434453.4315245-.3241252.849765-.54 1.25-.4807372.8489395-.7931161 1.7826805-.92 2.75h-6.1c-.1268839-.9673195-.4392628-1.9010605-.92-2.75-.2158748-.400235-.3965547-.8184755-.54-1.25z" fill="#e64c3c"/><path id="Shape" d="m31.51 10c-.1434453.4315245-.3241252.849765-.54 1.25-.4807372.8489395-.7931161 1.7826805-.92 2.75h-6.1c-.1268839-.9673195-.4392628-1.9010605-.92-2.75-.2158748-.400235-.3965547-.8184755-.54-1.25z" fill="#e64c3c"/><path id="Shape" d="m24 15.01v-.28c-.0013782-.2441397-.0180777-.4879523-.05-.73h6.1c-.0319223.2420477-.0486218.4858603-.05.73v.28c.0011127 1.0382969.2442099 2.0620445.71 2.99h-7.42c.4657901-.9279555.7088873-1.9517031.71-2.99z" fill="#e4c05c"/><path id="Shape" d="m32.83 22h-11.66c.4261075-1.1179583.9762099-2.1846202 1.64-3.18.1790574-.2617224.3394544-.535734.48-.82h7.42c.1405456.284266.3009426.5582776.48.82.6637901.9953798 1.2138925 2.0620417 1.64 3.18z" fill="#e64c3c"/></g></g></svg>