<svg height="512" viewBox="0 0 58 59" width="512" xmlns="http://www.w3.org/2000/svg"><g id="Page-1" fill="none" fill-rule="evenodd"><g id="020---Parachuting" fill-rule="nonzero"><path id="Shape" d="m48 25s-2-9-11-6c-1.1101925-1.831661-2.9132978-3.1371093-5-3.62-1.9679105-.5066712-4.0320895-.5066712-6 0-2.0867022.4828907-3.8898075 1.788339-5 3.62-9-3-11 6-11 6-5.04-.63-7.7 4.32-8.98 6.58v.01c2.63813711 2.6467097 6.71188825 3.2222597 9.98 1.41 0 0 3.76 4.69 11.27 3.16 1.9952907 1.3029778 4.3493327 1.9465792 6.73 1.84 2.3806673.1065792 4.7347093-.5370222 6.73-1.84 7.51 1.53 11.27-3.16 11.27-3.16 3.2698187 1.8121613 7.3454008 1.2322689 9.98-1.42-1.28-2.26-3.94-7.21-8.98-6.58z" fill="#802d40"/><path id="Shape" d="m35.73 36.16c-1.9952907 1.3029778-4.3493327 1.9465792-6.73 1.84-2.3806673.1065792-4.7347093-.5370222-6.73-1.84.01-10.95 2.34-16.47 3.73-18.78 1.9679105-.5066712 4.0320895-.5066712 6 0 1.39 2.31 3.72 7.83 3.73 18.78z" fill="#df4d60"/><path id="Shape" d="m56.56 29.243c-.1914771-.1835481-.4480314-.2835059-.7132139-.2778796-.2651824.0056262-.5172663.1163754-.7007861.3078796l-23.125 24.127 13.159-31.23c-.5066371-.4599872-1.0797483-.8409375-1.7-1.13l-14.48 34.38-14.48-34.38c-.6185588.286686-1.1887185.667917-1.69 1.13l13.151 31.23-23.127-24.127c-.2449055-.2679064-.61575288-.3820693-.96892632-.2982774s-.63321154.3523801-.73166563.70175.0001368.7246575.25759195.9805274l26.867 28.035c.1886114.1968186.449398.3081069.722.3081069s.5333886-.1112883.722-.3081069l26.867-28.035c.1836771-.1913463.2838122-.4478253.2783735-.7130066-.0054386-.2651813-.1160054-.517339-.3073735-.7009934z" fill="#e4c05c"/><path id="Shape" d="m38.49 1.38c-6.1928798-1.84002713-12.7871202-1.84002713-18.98 0-11.36 3.38-19.51 12.68-19.51 23.62.15336561 2.2175742.49120048 4.4185182 1.01 6.58 0 .0055228.00447715.01.01.01v-.01c1.68265021-3.3132552 5.31002205-5.1632957 8.98-4.58 0 0 2-9 11-6 1.1101925-1.831661 2.9132978-3.1371093 5-3.62 1.9679105-.5066712 4.0320895-.5066712 6 0 2.0867022.4828907 3.8898075 1.788339 5 3.62 9-3 11 6 11 6 3.6699779-.5832957 7.2973498 1.2667448 8.98 4.58.5238272-2.1608672.8650292-4.3619544 1.02-6.58 0-10.94-8.15-20.24-19.51-23.62z" fill="#df4d60"/><path id="Shape" d="m21 21c-9-3-11 6-11 6-3.55-14.2 7.07-23.67 9.51-25.62 3.0783073-.92395625 6.2760319-1.3889573 9.49-1.38012698 0 0-9 4.00012698-8 21.00012698z" fill="#ecf0f1"/><path id="Shape" d="m37 21c-1.1101925-1.831661-2.9132978-3.1371093-5-3.62-1.9679105-.5066712-4.0320895-.5066712-6 0-2.0867022.4828907-3.8898075 1.788339-5 3.62-1-17 8-21 8-21s9 4 8 21z" fill="#ff5364"/><path id="Shape" d="m48 27s-2-9-11-6c1-17-8-21.00012698-8-21.00012698 3.2139681-.00883032 6.4116927.45617073 9.49 1.38012698 2.44 1.95 13.06 11.42 9.51 25.62z" fill="#ecf0f1"/></g></g></svg>