<svg id="Capa_1" enable-background="new 0 0 512 512" height="512" viewBox="0 0 512 512" width="512" xmlns="http://www.w3.org/2000/svg"><g><path d="m181 512c-33.091 0-60-26.909-60-60v-60h120v60c0 33.091-26.909 60-60 60z" fill="#47568c"/><path d="m181 482c-16.569 0-30-13.431-30-30v-30h60v30c0 16.569-13.431 30-30 30z" fill="#edf5ff"/><path d="m331 512c-33.091 0-60-26.909-60-60v-60h120v60c0 33.091-26.909 60-60 60z" fill="#29376d"/><path d="m331 482c-16.569 0-30-13.431-30-30v-30h60v30c0 16.569-13.431 30-30 30z" fill="#d5e8fe"/><path d="m421.022 392.004-.022-30.004c-.593-46.014-11.752-149.491-90.729-241h-74.271-74.37c-77.417 89.634-90.103 188.705-90.63 241v30c-16.569 0-30 13.431-30 30s13.431 30 30 30h165 165c16.569 0 30-13.431 30-30 0-16.562-13.42-29.985-29.978-29.996z" fill="#ff6c6c"/><path d="m451 422c0-16.562-13.42-29.985-29.978-29.996l-.022-30.004c-.593-46.014-11.752-149.491-90.729-241h-74.271v331h165c16.569 0 30-13.431 30-30z" fill="#f03800"/><path d="m286 211h-30c-8.291 0-15 6.709-15 15v60c0 8.291 6.709 15 15 15s15-6.709 15-15v-45h15c8.291 0 15-6.709 15-15s-6.709-15-15-15z" fill="#d5e8fe"/><path d="m271 286v-45h15c8.291 0 15-6.709 15-15s-6.709-15-15-15h-30v90c8.291 0 15-6.709 15-15z" fill="#b5dbff"/><path d="m313.437 276.361c-2.856-3.398-7.061-5.361-11.499-5.361h-45.938-45.938c-4.438 0-8.643 1.963-11.499 5.361-2.842 3.398-4.043 7.881-3.267 12.261l15.938 91h44.766 44.766l15.938-91c.775-4.38-.426-8.862-3.267-12.261z" fill="#edf5ff"/><path d="m316.703 288.622c.776-4.38-.425-8.862-3.267-12.261-2.856-3.398-7.061-5.361-11.499-5.361h-45.937v108.622h44.766z" fill="#d5e8fe"/><path d="m346 332c-8.291 0-15 6.709-15 15 0 8.276-6.724 15-15 15h-60-60c-8.276 0-15-6.724-15-15 0-8.291-6.709-15-15-15s-15 6.709-15 15c0 24.814 20.186 45 45 45h60 60c24.814 0 45-20.186 45-45 0-8.291-6.709-15-15-15z" fill="#47568c"/><path d="m361 347c0-8.291-6.709-15-15-15s-15 6.709-15 15c0 8.276-6.724 15-15 15h-60v30h60c24.814 0 45-20.186 45-45z" fill="#29376d"/><path d="m361 31v-16c0-8.401-6.599-15-15-15h-90-90c-8.401 0-15 6.599-15 15v16c-32.813 0-60 26.801-60 60 0 32.316 26.468 60 60 60h105 105c34.568 0 60-28.773 60-60 0-32.999-27.001-60-60-60z" fill="#edf5ff"/><path d="m421 91c0-32.999-27.001-60-60-60v-16c0-8.401-6.599-15-15-15h-90v151h105c34.568 0 60-28.773 60-60z" fill="#d5e8fe"/><g><circle cx="165.999" cy="90.999" fill="#ff6c6c" r="15"/></g><g><circle cx="345.999" cy="90.999" fill="#f03800" r="15"/></g><path d="m286 76h-30-30c-8.291 0-15 6.709-15 15s6.709 15 15 15h30 30c8.291 0 15-6.709 15-15s-6.709-15-15-15z" fill="#47568c"/><path d="m301 91c0-8.291-6.709-15-15-15h-30v30h30c8.291 0 15-6.709 15-15z" fill="#29376d"/></g></svg>