<svg id="Capa_1" enable-background="new 0 0 512 512" height="512" viewBox="0 0 512 512" width="512" xmlns="http://www.w3.org/2000/svg"><g><g><g><path d="m136 150c-8.291 0-15-6.709-15-15v-60c0-8.291 6.709-15 15-15s15 6.709 15 15v60c0 8.291-6.709 15-15 15z" fill="#47568c"/></g></g><g><g><path d="m376 150c-8.291 0-15-6.709-15-15v-60c0-8.291 6.709-15 15-15s15 6.709 15 15v60c0 8.291-6.709 15-15 15z" fill="#29376d"/></g></g><path d="m346 30h-23.789l-25.606-25.605c-5.859-5.859-15.352-5.859-21.211 0l-19.394 19.394-30 30-19.395-19.395c-2.812-2.812-6.621-4.394-10.605-4.394h-30c-8.291 0-15 6.709-15 15s6.709 15 15 15h23.789l25.605 25.605c2.93 2.93 6.768 4.395 10.606 4.395s7.676-1.465 10.605-4.395l19.395-19.394 30-30 19.395 19.395c2.812 2.812 6.621 4.394 10.605 4.394h30c8.291 0 15-6.709 15-15s-6.709-15-15-15z" fill="#fed843"/><path d="m305.395 55.605c2.812 2.813 6.621 4.395 10.605 4.395h30c8.291 0 15-6.709 15-15s-6.709-15-15-15h-23.789l-25.606-25.605c-5.859-5.859-15.352-5.859-21.211 0l-19.394 19.394v42.422l30-30z" fill="#fabe2c"/><path d="m0 256c0 41.353 34.647 75 76 75v-150c-41.353 0-76 33.647-76 75z" fill="#47568c"/><path d="m436 181v150c41.353 0 76-33.647 76-75s-34.647-75-76-75z" fill="#29376d"/><path d="m436 120h-180-180c-8.291 0-15 6.709-15 15v272c0 3.984 1.582 7.793 4.395 10.605l90 90c2.812 2.813 6.621 4.395 10.605 4.395h15l15-30 15 30h30l15-30 15 30h30l15-30 15 30h15c3.984 0 7.793-1.582 10.605-4.395l90-90c2.813-2.812 4.395-6.621 4.395-10.605v-272c0-8.291-6.709-15-15-15z" fill="#ff6c6c"/><path d="m301 512 15-30 15 30h15c3.984 0 7.793-1.582 10.605-4.395l90-90c2.813-2.812 4.395-6.621 4.395-10.605v-272c0-8.291-6.709-15-15-15h-180v362l15 30z" fill="#f03800"/><path d="m196 392c-8.291 0-15 6.709-15 15v105h30v-105c0-8.291-6.709-15-15-15z" fill="#47568c"/><path d="m316 392c-8.291 0-15 6.709-15 15v105h30v-105c0-8.291-6.709-15-15-15z" fill="#29376d"/><g><path d="m181 331c-33.091 0-60-26.909-60-60s26.909-60 60-60 60 26.909 60 60-26.909 60-60 60z" fill="#47568c"/></g><g><path d="m331 331c-33.091 0-60-26.909-60-60s26.909-60 60-60 60 26.909 60 60-26.909 60-60 60z" fill="#29376d"/></g><g><path d="m181 241c-16.538 0-30 13.462-30 30s13.462 30 30 30 30-13.462 30-30-13.462-30-30-30z" fill="#fed843"/></g><g><path d="m331 241c-16.538 0-30 13.462-30 30s13.462 30 30 30 30-13.462 30-30-13.462-30-30-30z" fill="#fabe2c"/></g><path d="m256 392c-8.291 0-15 6.709-15 15v105h15 15v-105c0-8.291-6.709-15-15-15z" fill="#47568c"/><path d="m271 407c0-8.291-6.709-15-15-15v120h15z" fill="#29376d"/><g><g><path d="m136 90c-24.814 0-45-20.186-45-45s20.186-45 45-45 45 20.186 45 45-20.186 45-45 45z" fill="#edf5ff"/></g></g><g><g><path d="m376 90c-24.814 0-45-20.186-45-45s20.186-45 45-45 45 20.186 45 45-20.186 45-45 45z" fill="#d5e8fe"/></g></g></g></svg>