<svg id="Capa_1" enable-background="new 0 0 512 512" height="512" viewBox="0 0 512 512" width="512" xmlns="http://www.w3.org/2000/svg"><g><g><path d="m100.976 284.359c-4.849 0-9.609-2.344-12.495-6.68-4.6-6.885-2.739-16.201 4.16-20.801l55.181-36.797c6.855-4.6 16.201-2.725 20.801 4.16s2.739 16.201-4.16 20.801l-55.181 36.797c-2.55 1.7-5.45 2.52-8.306 2.52z" fill="#d5e8fe"/></g><g><path d="m76 421c-8.291 0-15-6.709-15-15v-90c0-8.291 6.709-15 15-15s15 6.709 15 15v90c0 8.291-6.709 15-15 15z" fill="#d5e8fe"/></g><g><path d="m436 421c-8.291 0-15-6.709-15-15v-90c0-8.291 6.709-15 15-15s15 6.709 15 15v90c0 8.291-6.709 15-15 15z" fill="#b5dbff"/></g><g><path d="m411.024 284.359c-2.856 0-5.757-.82-8.306-2.52l-55.181-36.797c-6.899-4.6-8.76-13.916-4.16-20.801 4.585-6.885 13.916-8.76 20.801-4.16l55.181 36.797c6.899 4.6 8.76 13.916 4.16 20.801-2.885 4.337-7.646 6.68-12.495 6.68z" fill="#b5dbff"/></g><path d="m256 331c-8.291 0-15 6.709-15 15v60c0 8.291 6.709 15 15 15s15-6.709 15-15v-60c0-8.291-6.709-15-15-15z" fill="#d5e8fe"/><path d="m271 406v-60c0-8.291-6.709-15-15-15v90c8.291 0 15-6.709 15-15z" fill="#b5dbff"/><g><path d="m436 331c-24.814 0-45-20.186-45-45s20.186-45 45-45 45 20.186 45 45-20.186 45-45 45z" fill="#467ce8"/></g><g><path d="m76 331c-24.814 0-45-20.186-45-45s20.186-45 45-45 45 20.186 45 45-20.186 45-45 45z" fill="#66b3ff"/></g><g><path d="m136 481h-121c-8.291 0-15-6.709-15-15 0-41.353 34.647-75 76-75s75 33.647 75 75c0 8.291-6.709 15-15 15z" fill="#47568c"/></g><g><path d="m497 481h-121c-8.291 0-15-6.709-15-15 0-41.353 33.647-75 75-75s76 33.647 76 75c0 8.291-6.709 15-15 15z" fill="#29376d"/></g><circle cx="256" cy="316" fill="#66b3ff" r="45"/><path d="m301 316c0-24.814-20.186-45-45-45v90c24.814 0 45-20.186 45-45z" fill="#467ce8"/><path d="m256 391c-41.353 0-75 33.647-75 75 0 8.291 6.709 15 15 15h60 60c8.291 0 15-6.709 15-15 0-41.353-33.647-75-75-75z" fill="#47568c"/><path d="m331 466c0-41.353-33.647-75-75-75v90h60c8.291 0 15-6.709 15-15z" fill="#29376d"/><circle cx="256" cy="166" fill="#edf5ff" r="135"/><path d="m391 166c0-74.443-60.557-135-135-135v270c74.443 0 135-60.557 135-135z" fill="#d5e8fe"/><g fill="#467ce8"><path d="m331 166c0-41.353-33.647-75-75-75l-15 28.895 15 46.105 37.5 15z"/><path d="m256 241 15-32.526-15-42.474-37.5-15-37.5 15c0 41.353 33.647 75 75 75z"/></g><path d="m256 91c-41.353 0-75 33.647-75 75h75z" fill="#66b3ff"/><path d="m256 241c41.353 0 75-33.647 75-75h-75z" fill="#3e55cc"/></g></svg>