<svg id="Capa_1" enable-background="new 0 0 512 512" height="512" viewBox="0 0 512 512" width="512" xmlns="http://www.w3.org/2000/svg"><g><path d="m151 330h90v91h-90z" fill="#61729b"/><g><path d="m136 512h-30c-24.814 0-45-20.186-45-45v-152c0-24.814 20.186-45 45-45h30c24.814 0 45 20.186 45 45v152c0 24.814-20.186 45-45 45z" fill="#47568c"/></g><path d="m271 330h90v91h-90z" fill="#47568c"/><g><path d="m406 512h-30c-24.814 0-45-20.186-45-45v-152c0-24.814 20.186-45 45-45h30c24.814 0 45 20.186 45 45v152c0 24.814-20.186 45-45 45z" fill="#29376d"/></g><path d="m301 225v181c0 24.901-20.099 45-45 45s-45-20.099-45-45v-181c0-8.401 6.599-15 15-15h60c8.401 0 15 6.599 15 15z" fill="#d5e8fe"/><path d="m301 225v181c0 24.901-20.099 45-45 45v-241h30c8.401 0 15 6.599 15 15z" fill="#b5dbff"/><g><path d="m136 180h-60c-8.291 0-15-6.709-15-15s6.709-15 15-15h60c8.291 0 15 6.709 15 15s-6.709 15-15 15z" fill="#47568c"/></g><g><path d="m436 180h-60c-8.291 0-15-6.709-15-15s6.709-15 15-15h60c8.291 0 15 6.709 15 15s-6.709 15-15 15z" fill="#29376d"/></g><g><path d="m466 210c-24.814 0-45-20.186-45-45s20.186-45 45-45 46 20.186 46 45-21.186 45-46 45z" fill="#47568c"/></g><g><path d="m46 210c-24.814 0-46-20.186-46-45s21.186-45 46-45 45 20.186 45 45-20.186 45-45 45z" fill="#61729b"/></g><g><g><path d="m256 0c-74.399 0-135 60.601-135 135v90c0 8.401 6.599 15 15 15h240c8.401 0 15-6.599 15-15v-90c0-74.399-60.601-135-135-135z" fill="#edf5ff"/></g></g><path d="m391 135v90c0 8.401-6.599 15-15 15h-120v-240c74.399 0 135 60.601 135 135z" fill="#d5e8fe"/><g><path d="m286 60h-60c-24.901 0-45 20.099-45 45s20.099 45 45 45h60c24.901 0 45-20.099 45-45s-20.099-45-45-45z" fill="#47568c"/></g><path d="m331 105c0 24.901-20.099 45-45 45h-30v-90h30c24.901 0 45 20.099 45 45z" fill="#29376d"/></g></svg>