<svg id="Capa_1" enable-background="new 0 0 512 512" height="512" viewBox="0 0 512 512" width="512" xmlns="http://www.w3.org/2000/svg"><g><path d="m256 182h-75v90h75 75v-90z" fill="#47568c"/><path d="m256 182h75v90h-75z" fill="#29376d"/><path d="m376 242h-120-120c-8.291 0-15 6.709-15 15v120c0 74.443 60.557 135 135 135s135-60.557 135-135v-120c0-8.291-6.709-15-15-15z" fill="#fed843"/><path d="m391 377v-120c0-8.291-6.709-15-15-15h-120v270c74.443 0 135-60.557 135-135z" fill="#fabe2c"/><path d="m256 0c-74.443 0-135 61.557-135 136v31c0 24.814 20.186 45 45 45h90 90c24.814 0 45-20.186 45-45v-31c0-74.443-60.557-136-135-136z" fill="#edf5ff"/><path d="m391 167v-31c0-74.443-60.557-136-135-136v212h90c24.814 0 45-20.186 45-45z" fill="#d5e8fe"/><path d="m92.157 265.145c-7.266-4.131-16.377-1.523-20.435 5.698l-39.789 68.789c-1.274 2.256-1.933 4.79-1.933 7.368v60h30v-56.06l37.855-65.361c4.073-7.222 1.524-16.362-5.698-20.434z" fill="#d5e8fe"/><g><g><path d="m106 302c-24.814 0-45-20.186-45-45s20.186-45 45-45 45 20.186 45 45-20.186 45-45 45z" fill="#47568c"/></g></g><g><g><path d="m55.605 468.816c-5.859-5.859-5.859-15.352 0-21.211 5.845-5.845 5.845-15.366 0-21.211-5.859-5.859-15.352-5.859-21.211 0-5.845 5.845-5.845 15.366 0 21.211 5.859 5.859 5.859 15.352 0 21.211s-15.352 5.859-21.211 0c-17.549-17.549-17.549-46.084 0-63.633s46.084-17.549 63.633 0 17.549 46.084 0 63.633c-5.859 5.86-15.351 5.86-21.211 0z" fill="#fed843"/></g></g><path d="m480.066 339.632-39.789-68.789c-4.072-7.222-13.184-9.8-20.435-5.698-7.222 4.072-9.771 13.213-5.698 20.435l37.856 65.36v56.06h30v-60c0-2.578-.659-5.112-1.934-7.368z" fill="#b5dbff"/><g><g><path d="m406 302c-24.814 0-45-20.186-45-45s20.186-45 45-45 45 20.186 45 45-20.186 45-45 45z" fill="#29376d"/></g></g><g><g><path d="m477.605 468.816c-5.859-5.859-5.859-15.352 0-21.211 5.845-5.845 5.845-15.366 0-21.211-5.859-5.859-15.352-5.859-21.211 0-5.845 5.845-5.845 15.366 0 21.211 5.859 5.859 5.859 15.352 0 21.211s-15.352 5.859-21.211 0c-17.549-17.549-17.549-46.084 0-63.633s46.084-17.549 63.633 0 17.549 46.084 0 63.633c-5.859 5.86-15.351 5.86-21.211 0z" fill="#fabe2c"/></g></g><path d="m298.759 369.119c-2.739-4.424-7.559-7.119-12.759-7.119h-30-5.728l5.728-11.455 13.418-26.836c3.706-7.412.703-16.421-6.709-20.127-2.168-1.077-4.446-1.43-6.709-1.426-5.49.011-10.783 2.886-13.418 8.135l-30 60c-2.329 4.644-2.08 10.166.659 14.59s7.559 7.119 12.759 7.119h30 5.728l-5.728 11.455-13.418 26.836c-3.706 7.412-.703 16.421 6.709 20.127 2.173 1.08 4.451 1.436 6.709 1.43 5.511-.013 10.8-2.919 13.418-8.139l30-60c2.329-4.644 2.08-10.166-.659-14.59z" fill="#47568c"/><path d="m269.418 443.709 30-60c2.329-4.644 2.08-10.166-.659-14.59s-7.559-7.119-12.759-7.119h-30v30h5.728l-5.728 11.455v48.393c5.511-.013 10.8-2.919 13.418-8.139z" fill="#29376d"/><path d="m269.418 323.709c3.706-7.412.703-16.421-6.709-20.127-2.168-1.077-4.446-1.43-6.709-1.426v48.389z" fill="#29376d"/><circle cx="256" cy="106" fill="#47568c" r="45"/><path d="m301 106c0-24.814-20.186-45-45-45v90c24.814 0 45-20.186 45-45z" fill="#29376d"/></g></svg>