<svg id="Capa_1" enable-background="new 0 0 512 512" height="512" viewBox="0 0 512 512" width="512" xmlns="http://www.w3.org/2000/svg"><g><g><path d="m41.367 361.546c-8.042-2.007-12.935-10.151-10.913-18.179l31-122c2.007-8.042 10.107-12.979 18.179-10.913 8.042 2.007 12.935 10.151 10.913 18.179l-31 122c-2.018 8.108-10.23 12.924-18.179 10.913z" fill="#d5e8fe"/></g><g><path d="m452.454 350.633-31-122c-2.021-8.027 2.871-16.172 10.913-18.179 8.013-2.051 16.172 2.871 18.179 10.913l31 122c2.021 8.027-2.871 16.172-10.913 18.179-7.938 2.008-16.158-2.794-18.179-10.913z" fill="#b5dbff"/></g><g><path d="m154.003 90h-48.003c-8.291 0-15-6.709-15-15s6.709-15 15-15h48.003c8.291 0 15 6.709 15 15s-6.709 15-15 15z" fill="#47568c"/></g><g><path d="m406 90h-48.003c-8.291 0-15-6.709-15-15s6.709-15 15-15h48.003c8.291 0 15 6.709 15 15s-6.709 15-15 15z" fill="#29376d"/></g><path d="m370.346 60.308c-6.973-34.952-37.896-60.308-73.535-60.308h-40.811-40.811c-35.625 0-66.563 25.356-73.55 60.293l-20.639 89.707 29.211 15h105.789 101.999l33.001-15z" fill="#ff6c6c"/><path d="m391 150-20.654-89.692c-6.973-34.952-37.896-60.308-73.535-60.308h-40.811v165h101.999z" fill="#f03800"/><path d="m436 150h-45l-30 30h-105-105l-30-30h-45c-24.853 0-45 20.147-45 45s20.147 45 45 45h180 180c24.853 0 45-20.147 45-45s-20.147-45-45-45z" fill="#47568c"/><path d="m481 195c0-24.853-20.147-45-45-45h-45l-30 30h-105v60h180c24.853 0 45-20.147 45-45z" fill="#29376d"/><path d="m256 150h-135v257c0 24.853 20.147 45 45 45h90 90c24.853 0 45-20.147 45-45v-257z" fill="#edf5ff"/><path d="m391 407v-257h-135v302h90c24.853 0 45-20.147 45-45z" fill="#b5dbff"/><g><path d="m226 120c-8.291 0-15-6.709-15-15v-30c0-8.291 6.709-15 15-15s15 6.709 15 15v30c0 8.291-6.709 15-15 15z" fill="#47568c"/></g><g><path d="m286 120c-8.291 0-15-6.709-15-15v-30c0-8.291 6.709-15 15-15s15 6.709 15 15v30c0 8.291-6.709 15-15 15z" fill="#29376d"/></g><g><circle cx="315.999" cy="224.999" fill="#f03800" r="15"/></g><g><circle cx="195.999" cy="224.999" fill="#ff6c6c" r="15"/></g><g><path d="m75 422c-8.291 0-15-6.709-15-15v-30c0-8.276-6.724-15-15-15s-15 6.724-15 15v30c0 8.291-6.709 15-15 15s-15-6.709-15-15v-30c0-24.814 20.186-45 45-45s45 20.186 45 45v30c0 8.291-6.709 15-15 15z" fill="#ff6c6c"/></g><g><path d="m497 422c-8.291 0-15-6.709-15-15v-30c0-8.276-6.724-15-15-15s-15 6.724-15 15v30c0 8.291-6.709 15-15 15s-15-6.709-15-15v-30c0-24.814 20.186-45 45-45s45 20.186 45 45v30c0 8.291-6.709 15-15 15z" fill="#f03800"/></g><g><path d="m76 120c-24.814 0-45-20.186-45-45s20.186-45 45-45 45 20.186 45 45-20.186 45-45 45z" fill="#61729b"/></g><g><path d="m436 120c-24.814 0-45-20.186-45-45s20.186-45 45-45 45 20.186 45 45-20.186 45-45 45z" fill="#47568c"/></g><g><path d="m331 362c0-24.814-20.186-45-45-45h-30-30c-24.814 0-45 20.186-45 45l30 17.763-30 12.237v45l30 16.302-30 13.698c0 24.814 20.186 45 45 45h30 30c24.814 0 45-20.186 45-45l-30-13.698 30-16.302v-45l-30-13.303z" fill="#47568c"/></g><g><path d="m331 467-30-13.698 30-16.302v-45l-30-13.303 30-16.697c0-24.814-20.186-45-45-45h-30v195h30c24.814 0 45-20.186 45-45z" fill="#29376d"/></g><g><g><g><path d="m181 437v30h75 75v-30h-75z" fill="#61729b"/></g><g><path d="m256 362h-75v30h75 75v-30z" fill="#61729b"/></g></g></g><path d="m256 437h75v30h-75z" fill="#47568c"/><g><path d="m256 362h75v30h-75z" fill="#47568c"/></g><circle cx="256" cy="224.998" fill="#ff6c6c" r="15"/><path d="m271 224.998c0-8.284-6.716-15-15-15v30c8.284 0 15-6.716 15-15z" fill="#f03800"/></g></svg>