<svg id="Capa_1" enable-background="new 0 0 512 512" height="512" viewBox="0 0 512 512" width="512" xmlns="http://www.w3.org/2000/svg"><g><path d="m256 245c-8.291 0-15 6.709-15 15v181c0 8.291 6.709 15 15 15s15-6.709 15-15v-181c0-8.291-6.709-15-15-15z" fill="#61729b"/><path d="m271 441v-181c0-8.291-6.709-15-15-15v211c8.291 0 15-6.709 15-15z" fill="#47568c"/><path d="m181 260.908c.059 54.946-18.647 101.528-55.605 138.486-5.859 5.859-5.859 15.352 0 21.211s15.351 5.86 21.211 0c29.428-29.414 64.482-81.005 64.394-159.726z" fill="#61729b"/><g><path d="m365.395 420.605c-29.429-29.414-64.483-81.005-64.395-159.726.015-8.276 6.724-15.425 15-15.425h.015c8.276 0 14.985 6.27 14.985 14.546v.908c-.059 54.946 18.647 101.528 55.605 138.486 5.859 5.859 5.859 15.352 0 21.211-5.859 5.86-15.351 5.86-21.21 0z" fill="#47568c"/></g><g><path d="m52.676 357.397c-3.589-7.471-.439-16.421 7.031-20.01 55.942-26.85 61.293-66.02 61.293-77.387 0-8.291 6.709-15 15-15s15 6.709 15 15c0 15.791-6.581 70.005-78.314 104.429-7.357 3.549-16.389.519-20.01-7.032z" fill="#61729b"/></g><g><path d="m439.461 363.535c-71.88-33.413-78.461-87.685-78.461-103.535 0-8.291 6.709-15 15-15s15 6.709 15 15c0 11.353 5.336 50.405 61.117 76.318 7.5 3.501 10.767 12.422 7.28 19.937-3.534 7.578-12.514 10.726-19.936 7.28z" fill="#47568c"/></g><path d="m450.048 254.727-37.398-99.727-36.55-17.465 25.3-12.535-41.352-110.273c-2.197-5.845-7.793-9.727-14.048-9.727h-90-90c-6.255 0-11.851 3.882-14.048 9.727l-41.352 110.273 24.375 14.998-35.625 15.002-37.397 99.727c-1.729 4.614-1.084 9.771 1.714 13.813 2.812 4.043 7.411 6.46 12.333 6.46h180 180c4.922 0 9.521-2.417 12.334-6.46 2.798-4.043 3.442-9.199 1.714-13.813z" fill="#ff6c6c"/><path d="m448.334 268.54c2.798-4.043 3.442-9.199 1.714-13.813l-37.398-99.727-36.55-17.465 25.3-12.535-41.352-110.273c-2.197-5.845-7.793-9.727-14.048-9.727h-90v270h180c4.922 0 9.521-2.417 12.334-6.46z" fill="#f03800"/><path d="m401.4 125h-145.4-145.4l-11.25 30h156.65 156.65z" fill="#f03800"/><path d="m401.4 125h-145.4v30h156.65z" fill="#cd0000"/><g><path d="m386.605 471.816c-5.859-5.859-5.859-15.352 0-21.211 5.845-5.845 5.845-15.366 0-21.211-5.859-5.859-15.352-5.859-21.211 0-5.845 5.845-5.845 15.366 0 21.211 5.859 5.859 5.859 15.352 0 21.211s-15.352 5.859-21.211 0c-17.549-17.549-17.549-46.084 0-63.633s46.084-17.549 63.633 0 17.549 46.084 0 63.633c-5.859 5.86-15.351 5.86-21.211 0z" fill="#b5dbff"/></g><g><g><path d="m443.958 381.641c-17.534-17.549-17.534-46.084.015-63.633 16.948-16.978 46.641-17.007 63.633 0 5.859 5.859 5.859 15.352 0 21.211s-15.352 5.859-21.211 0c-5.698-5.669-15.557-5.669-21.196 0-5.859 5.845-5.859 15.366-.015 21.211 5.684 5.684 15.527 5.669 21.211 0 5.859-5.859 15.352-5.859 21.211 0s5.859 15.352 0 21.211c-17.633 17.632-46.102 17.546-63.648 0z" fill="#b5dbff"/></g></g><g><g><path d="m4.395 381.934c-5.859-5.859-5.859-15.352 0-21.211s15.352-5.859 21.211 0c5.698 5.669 15.557 5.669 21.196 0 5.859-5.845 5.859-15.366.015-21.211-5.654-5.654-15.513-5.654-21.211 0-5.859 5.859-15.352 5.859-21.211 0s-5.859-15.352 0-21.211c16.992-17.007 46.655-16.978 63.647 0 17.534 17.549 17.534 46.084-.015 63.633-17.534 17.564-46.016 17.616-63.632 0z" fill="#d5e8fe"/></g></g><g><path d="m146.605 471.816c-5.859-5.859-5.859-15.352 0-21.211 5.845-5.845 5.845-15.366 0-21.211-5.859-5.859-15.352-5.859-21.211 0-5.845 5.845-5.845 15.366 0 21.211 5.859 5.859 5.859 15.352 0 21.211s-15.352 5.859-21.211 0c-17.549-17.549-17.549-46.084 0-63.633s46.084-17.549 63.633 0 17.549 46.084 0 63.633c-5.859 5.86-15.351 5.86-21.211 0z" fill="#d5e8fe"/></g><path d="m287.816 439.184c-8.774-8.774-20.295-13.162-31.816-13.162s-23.042 4.387-31.816 13.162c-17.549 17.549-17.549 45.873 0 63.422 5.859 5.859 15.352 5.859 21.211 0s5.859-15.352 0-21.211c-5.845-5.845-5.845-15.155 0-21 2.93-2.93 6.768-4.395 10.605-4.395s7.676 1.465 10.605 4.395c5.845 5.845 5.845 15.155 0 21-5.859 5.859-5.859 15.352 0 21.211s15.352 5.859 21.211 0c17.549-17.549 17.549-45.874 0-63.422z" fill="#d5e8fe"/><path d="m266.605 481.395c-5.859 5.859-5.859 15.352 0 21.211s15.352 5.859 21.211 0c17.549-17.549 17.549-45.873 0-63.422-8.774-8.774-20.295-13.162-31.816-13.162v29.978c3.838 0 7.676 1.465 10.605 4.395 5.845 5.844 5.845 15.155 0 21z" fill="#b5dbff"/><circle cx="256" cy="140" fill="#edf5ff" r="75"/><path d="m331 140c0-41.353-33.647-75-75-75v150c41.353 0 75-33.647 75-75z" fill="#d5e8fe"/><circle cx="256" cy="140" fill="#47568c" r="45"/><path d="m301 140c0-24.813-20.187-45-45-45v90c24.813 0 45-20.187 45-45z" fill="#29376d"/><circle cx="256" cy="139.998" fill="#edf5ff" r="15"/><path d="m271 139.998c0-8.284-6.716-15-15-15v30c8.284 0 15-6.716 15-15z" fill="#d5e8fe"/></g></svg>