<svg id="Capa_1" enable-background="new 0 0 512.012 512.012" height="512" viewBox="0 0 512.012 512.012" width="512" xmlns="http://www.w3.org/2000/svg"><g><path d="m407.006 30.012c-8.291 0-15 6.709-15 15s6.709 15 15 15c37.861 0 68.936 29.604 73.969 66.105l16.514 8.802 12.517-19.256c-9.582-48.086-52.142-85.651-103-85.651z" fill="#29376d"/><path d="m241.006 136.012-142.925 54.434s-36.546 91.668-36.725 92.466l179.65-11.75z" fill="#b5dbff"/><path d="m510.006 115.662-29.031 10.332-164.969 58.561-75 26.785-179.65 71.572c-1.128 5.024.412 10.25 4.045 13.883l144.697 144.697c.439.439.908.85 1.392 1.23 14.077 12.627 32.109 19.16 50.273 19.16 15.703 0 31.494-4.893 44.868-14.927l9.376-7.031 156.078-116.304 39.921-37.43v-150c0-7.033-.674-13.879-2-20.528z" fill="#d5e8fe"/><path d="m512.006 286.19v-150c0-7.033-.674-13.879-2-20.528l-29.031 10.332-164.969 58.561v255.37l156.079-116.305z" fill="#b5dbff"/><g><path d="m231.706 1.211c-5.7-2.401-12.001-1.199-16.199 3.3l-55.801 56.501h-68.7l-89.5 90c6.901 34.2 38.2 60 74.5 60h90c41.4 0 75-33.6 75-75v-121c0-6-3.6-11.4-9.3-13.801z" fill="#d5e8fe"/></g><g><path d="m377.006 90.012c-24.814 0-45-20.186-45-45s20.186-45 45-45 45 20.186 45 45-20.186 45-45 45z" fill="#467ce8"/></g><path d="m15.006 61.012c-8.401 0-15 6.599-15 15v60c0 5.099.601 10.199 1.5 15h13.5c41.4 0 76-33.6 76-75v-15z" fill="#47568c"/><g><path d="m232.949 441.26-99.77-106.155-95.29 146.907 17.827 15h49.703l57.472-15z" fill="#edf5ff"/><path d="m.006 497.012c0 8.291 6.709 15 15 15h91c2.593 0 5.142-.674 7.397-1.948l49.488-28.052h-125.002-22.883c-8.291 0-15 6.709-15 15z" fill="#47568c"/></g><g><path d="m511.215 296.911h-148.418l26.865 185.101 20.186 15h47.961l26.541-15z" fill="#d5e8fe"/><path d="m481.845 499.18 2.505-17.168h-94.688-12.656c-8.291 0-15 6.709-15 15s6.709 15 15 15h90c7.441 0 13.77-5.464 14.839-12.832z" fill="#29376d"/></g><g><path d="m437.006 361.012c-41.353 0-75-33.647-75-75s33.647-75 75-75 75 33.647 75 75-33.647 75-75 75z" fill="#467ce8"/></g><circle cx="437.005" cy="286.011" fill="#29376d" r="15"/><g><path d="m196.006 451.012c-41.353 0-75-33.647-75-75s33.647-75 75-75 75 33.647 75 75-33.647 75-75 75z" fill="#66b3ff"/></g><circle cx="196.005" cy="376.011" fill="#47568c" r="15"/></g></svg>