<svg id="Capa_1" enable-background="new 0 0 512 512" height="512" viewBox="0 0 512 512" width="512" xmlns="http://www.w3.org/2000/svg"><g><circle cx="256" cy="437" fill="#47568c" r="75"/><path d="m331 437c0-41.353-33.647-75-75-75v150c41.353 0 75-33.647 75-75z" fill="#29376d"/><circle cx="256" cy="437" fill="#edf5ff" r="45"/><path d="m301 437c0-24.853-20.147-45-45-45v90c24.853 0 45-20.147 45-45z" fill="#b5dbff"/><g><g><g><path d="m452.582 202.709-30-61c-3.706-7.412-.703-16.421 6.709-20.127 7.427-3.677 16.406-.703 20.127 6.709l30 61c3.706 7.412.703 16.421-6.709 20.127-7.487 3.718-16.439.646-20.127-6.709z" fill="#47568c"/></g></g></g><g><path d="m363.52 324.32c-4.6-6.899-2.739-16.201 4.16-20.801l90-60c6.899-4.614 16.201-2.739 20.801 4.16s2.739 16.201-4.16 20.801l-90 60c-7.02 4.653-16.281 2.632-20.801-4.16z" fill="#47568c"/></g><path d="m451 1.518-15 28.482-15-28.482c-34.191 6.969-60 37.266-60 73.482 0 41.353 33.647 75 75 75s76-33.647 76-75c0-36.216-26.809-66.513-61-73.482z" fill="#f03800"/><path d="m436 90c8.291 0 15-6.709 15-15v-73.482c-4.849-.989-9.864-1.518-15-1.518s-10.151.529-15 1.518v73.482c0 8.291 6.709 15 15 15z" fill="#cd0000"/><g><path d="m466 271c-24.814 0-45-20.186-45-45s20.186-45 45-45 46 20.186 46 45-21.186 45-46 45z" fill="#29376d"/></g><g><path d="m39.291 209.418c-7.412-3.706-10.415-12.715-6.709-20.127l30-61c3.706-7.412 12.715-10.386 20.127-6.709 7.412 3.706 10.415 12.715 6.709 20.127l-30 61c-3.691 7.361-12.647 10.423-20.127 6.709z" fill="#61729b"/></g><g><path d="m127.68 328.48-90-60c-6.899-4.6-8.76-13.901-4.16-20.801 4.57-6.899 13.887-8.774 20.801-4.16l90 60c6.899 4.6 8.76 13.901 4.16 20.801-4.522 6.794-13.786 8.811-20.801 4.16z" fill="#61729b"/></g><g><path d="m46 271c-24.814 0-46-20.186-46-45s21.186-45 46-45 45 20.186 45 45-20.186 45-45 45z" fill="#47568c"/></g><path d="m91 1.518-15 28.482-15-28.482c-34.191 6.969-61 37.266-61 73.482 0 41.353 34.647 75 76 75s75-33.647 75-75c0-36.216-25.809-66.513-60-73.482z" fill="#ff6c6c"/><path d="m76 90c8.291 0 15-6.709 15-15v-73.482c-4.849-.989-9.864-1.518-15-1.518s-10.151.529-15 1.518v73.482c0 8.291 6.709 15 15 15z" fill="#f03800"/><path d="m256 90c-24.814 0-45 20.186-45 45v30c0 8.291 6.709 16 15 16h30 30c8.291 0 15-7.709 15-16v-30c0-24.814-20.186-45-45-45z" fill="#ff6c6c"/><path d="m301 165v-30c0-24.814-20.186-45-45-45v91h30c8.291 0 15-7.709 15-16z" fill="#f03800"/><path d="m376 150h-120-120c-8.291 0-15 6.709-15 15v212c0 8.291 6.709 15 15 15h120 120c8.291 0 15-6.709 15-15v-212c0-8.291-6.709-15-15-15z" fill="#edf5ff"/><path d="m391 377v-212c0-8.291-6.709-15-15-15h-120v242h120c8.291 0 15-6.709 15-15z" fill="#b5dbff"/><g><path d="m196 271c-8.291 0-15-6.709-15-15v-30c0-8.291 6.709-15 15-15s15 6.709 15 15v30c0 8.291-6.709 15-15 15z" fill="#61729b"/></g><g><path d="m316 271c-8.291 0-15-6.709-15-15v-30c0-8.291 6.709-15 15-15s15 6.709 15 15v30c0 8.291-6.709 15-15 15z" fill="#47568c"/></g><g><path d="m185.395 55.605-30-30c-5.859-5.859-5.859-15.352 0-21.211s15.352-5.859 21.211 0l30 30c5.859 5.859 5.859 15.352 0 21.211-5.86 5.86-15.352 5.86-21.211 0z" fill="#fed843"/></g><g><path d="m305.395 55.605c-5.859-5.859-5.859-15.352 0-21.211l30-30c5.859-5.859 15.352-5.859 21.211 0s5.859 15.352 0 21.211l-30 30c-5.86 5.86-15.352 5.86-21.211 0z" fill="#fabe2c"/></g><path d="m256 0c-8.291 0-15 6.709-15 15v30c0 8.291 6.709 15 15 15s15-6.709 15-15v-30c0-8.291-6.709-15-15-15z" fill="#fed843"/><path d="m271 45v-30c0-8.291-6.709-15-15-15v60c8.291 0 15-6.709 15-15z" fill="#fabe2c"/><circle cx="256" cy="436.998" fill="#47568c" r="15"/><path d="m271 436.998c0-8.284-6.716-15-15-15v30c8.284 0 15-6.716 15-15z" fill="#29376d"/><path d="m316 301h-60-60c-8.291 0-15 6.709-15 15s6.709 15 15 15h60 60c8.291 0 15-6.709 15-15s-6.709-15-15-15z" fill="#ff6c6c"/><path d="m331 316c0-8.291-6.709-15-15-15h-60v30h60c8.291 0 15-6.709 15-15z" fill="#f03800"/></g></svg>