<svg id="Capa_1" enable-background="new 0 0 512 512" height="512" viewBox="0 0 512 512" width="512" xmlns="http://www.w3.org/2000/svg"><g><path d="m256 179.963c-8.291 0-15 6.709-15 15v30c0 8.291 6.709 15 15 15s15-6.709 15-15v-30c0-8.291-6.709-15-15-15z" fill="#47568c"/><path d="m271 224.963v-30c0-8.291-6.709-15-15-15v60c8.291 0 15-6.709 15-15z" fill="#29376d"/><path d="m346 209.963h-90-90c-41.353 0-75 34.647-75 76v121c0 8.291 6.709 15 15 15h45l30-30h75 75l30 30h45c8.291 0 15-6.709 15-15v-121c0-41.352-33.647-76-75-76z" fill="#ff6c6c"/><path d="m361 421.963h45c8.291 0 15-6.709 15-15v-121c0-41.353-33.647-76-75-76h-90v182h75z" fill="#f03800"/><path d="m226 511.963c-8.291 0-15-6.709-15-15v-90c0-8.291 6.709-15 15-15s15 6.709 15 15v90c0 8.291-6.709 15-15 15z" fill="#47568c"/><path d="m286 511.963c-8.291 0-15-6.709-15-15v-90c0-8.291 6.709-15 15-15s15 6.709 15 15v90c0 8.291-6.709 15-15 15z" fill="#29376d"/><g><path d="m181 391.963v105c0 8.399-6.599 15-15 15s-15-6.601-15-15v-75z" fill="#47568c"/></g><g><path d="m361 421.963v75c0 8.399-6.599 15-15 15s-15-6.601-15-15v-105z" fill="#29376d"/></g><g><path d="m467 511.963h-31c-24.814 0-45-20.186-45-45v-121c0-24.814 20.186-45 45-45h31c24.814 0 45 20.186 45 45v121c0 24.815-20.186 45-45 45z" fill="#29376d"/></g><g><g><path d="m76 511.963h-31c-24.814 0-45-20.186-45-45v-121c0-24.814 20.186-45 45-45h31c24.814 0 45 20.186 45 45v121c0 24.815-20.186 45-45 45z" fill="#47568c"/></g></g><circle cx="195.999" cy="285.962" fill="#edf5ff" r="15"/><circle cx="315.999" cy="285.962" fill="#d5e8fe" r="15"/><circle cx="256" cy="285.962" fill="#edf5ff" r="15"/><path d="m271 285.962c0-8.284-6.716-15-15-15v30c8.284 0 15-6.717 15-15z" fill="#d5e8fe"/><g fill="#edf5ff"><path d="m372.675 48.289c-32.168-32.168-74.422-48.252-116.675-48.252s-84.507 16.084-116.675 48.252c-5.859 5.859-5.859 15.352 0 21.211s15.352 5.859 21.211 0c26.323-26.309 60.894-39.463 95.464-39.463s69.141 13.154 95.464 39.463c5.859 5.859 15.352 5.859 21.211 0s5.859-15.352 0-21.211z"/><path d="m256 60.016c-26.882 0-53.771 10.226-74.253 30.694-5.859 5.859-5.859 15.352 0 21.211s15.352 5.859 21.211 0c14.621-14.621 33.832-21.93 53.042-21.928 19.206.002 38.41 7.311 53.027 21.929 5.859 5.859 15.352 5.859 21.211 0s5.859-15.352 0-21.211c-20.46-20.461-47.345-30.695-74.238-30.695z"/><path d="m256 119.985c-11.521 0-23.042 4.387-31.816 13.162-5.859 5.859-5.859 15.352 0 21.211s15.352 5.859 21.211 0c2.93-2.93 6.768-4.395 10.605-4.395s7.676 1.465 10.605 4.395c5.859 5.859 15.352 5.859 21.211 0s5.859-15.352 0-21.211c-8.774-8.774-20.295-13.162-31.816-13.162z"/></g><g fill="#d5e8fe"><path d="m372.675 69.5c5.859-5.859 5.859-15.352 0-21.211-32.168-32.168-74.422-48.252-116.675-48.252v30c34.57 0 69.141 13.154 95.464 39.463 5.859 5.859 15.351 5.859 21.211 0z"/><path d="m330.238 111.921c5.859-5.859 5.859-15.352 0-21.211-20.46-20.46-47.345-30.694-74.238-30.694v29.976c19.206.002 38.41 7.311 53.027 21.929 5.86 5.86 15.352 5.86 21.211 0z"/><path d="m287.816 154.358c5.859-5.859 5.859-15.352 0-21.211-8.774-8.774-20.295-13.162-31.816-13.162v29.978c3.838 0 7.676 1.465 10.605 4.395 5.86 5.859 15.352 5.859 21.211 0z"/></g><path d="m346 330.963h-90-90c-8.401 0-15 6.599-15 15v76h30 75 75 30v-76c0-8.4-6.599-15-15-15z" fill="#47568c"/><path d="m361 421.963v-76c0-8.401-6.599-15-15-15h-90v91h75z" fill="#29376d"/></g></svg>