<svg id="Capa_1" enable-background="new 0 0 512 512" height="512" viewBox="0 0 512 512" width="512" xmlns="http://www.w3.org/2000/svg"><g><g><path d="m196 90h-60c-8.291 0-15-6.709-15-15s6.709-15 15-15h60c8.291 0 15 6.709 15 15s-6.709 15-15 15z" fill="#d5e8fe"/></g><g><g><path d="m376 90h-60c-8.291 0-15-6.709-15-15s6.709-15 15-15h60c8.291 0 15 6.709 15 15s-6.709 15-15 15z" fill="#b5dbff"/></g></g><g><path d="m256 0c-41.353 0-75 33.647-75 75v60c0 8.291 6.709 15 15 15h60 60c8.291 0 15-6.709 15-15v-60c0-41.353-33.647-75-75-75z" fill="#47568c"/></g><g><path d="m331 135v-60c0-41.353-33.647-75-75-75v150h60c8.291 0 15-6.709 15-15z" fill="#29376d"/></g><g><circle cx="256" cy="74.998" fill="#fed843" r="15"/></g><g><path d="m271 74.998c0-8.284-6.716-15-15-15v30c8.284 0 15-6.716 15-15z" fill="#fabe2c"/></g><path d="m406 120h-150-150c-8.284 0-15 6.714-15 15v316h165 165v-316c0-8.286-6.716-15-15-15z" fill="#edf5ff"/><path d="m421 135c0-8.286-6.716-15-15-15h-150v331h165z" fill="#d5e8fe"/><g><path d="m467 512h-31c-24.814 0-45-20.186-45-45v-151c0-24.814 20.186-45 45-45h31c24.814 0 45 20.186 45 45v151c0 24.814-20.186 45-45 45z" fill="#29376d"/></g><g><path d="m76 512h-31c-24.814 0-45-20.186-45-45v-151c0-24.814 20.186-45 45-45h31c24.814 0 45 20.186 45 45v151c0 24.814-20.186 45-45 45z" fill="#47568c"/></g><path d="m346 181h-45l-30 30h-15-15l-30-30h-45c-8.291 0-15 6.709-15 15v180c0 8.291 6.709 15 15 15h90 90c8.291 0 15-6.709 15-15v-180c0-8.291-6.709-15-15-15z" fill="#fed843"/><path d="m361 376v-180c0-8.291-6.709-15-15-15h-45l-30 30h-15v180h90c8.291 0 15-6.709 15-15z" fill="#fabe2c"/><path d="m256 181h-45v60c0 8.291 6.709 15 15 15h30 30c8.291 0 15-6.709 15-15v-60z" fill="#fabe2c"/><path d="m301 241v-60h-45v75h30c8.291 0 15-6.709 15-15z" fill="#ff9100"/></g></svg>