<svg id="Capa_1" enable-background="new 0 0 512 512" height="512" viewBox="0 0 512 512" width="512" xmlns="http://www.w3.org/2000/svg"><g><g><path d="m45 361h-30c-8.291 0-15-6.709-15-15s6.709-15 15-15h18.281l20.893-79.526c2.007-8.071 10.107-12.993 18.179-10.913 8.042 2.007 12.935 10.151 10.913 18.179l-23.72 90.894c-1.67 6.679-7.661 11.366-14.546 11.366z" fill="#d5e8fe"/></g><g><path d="m217.68 338.485-125.039-83.364c-6.899-4.6-8.76-13.901-4.16-20.801 4.585-6.899 13.887-8.774 20.801-4.16l125.039 83.364c6.899 4.6 8.76 13.901 4.16 20.801-4.522 6.794-13.786 8.811-20.801 4.16z" fill="#d5e8fe"/></g><g><path d="m136 512h-30c-8.291 0-15-6.709-15-15s6.709-15 15-15h15v-76c0-8.291 6.709-15 15-15s15 6.709 15 15v91c0 8.291-6.709 15-15 15z" fill="#d5e8fe"/></g><g><path d="m150.561 372.353c-2.021-8.027 2.871-16.172 10.913-18.179l61.787-15.439c8.042-2.036 16.172 2.856 18.179 10.913 2.021 8.027-2.871 16.172-10.913 18.179l-61.787 15.439c-7.939 2.008-16.158-2.795-18.179-10.913z" fill="#d5e8fe"/></g><g><path d="m273.52 334.325c-4.6-6.899-2.739-16.201 4.16-20.801l125.039-83.364c6.899-4.614 16.201-2.739 20.801 4.16s2.739 16.201-4.16 20.801l-125.04 83.364c-7.019 4.653-16.28 2.632-20.8-4.16z" fill="#b5dbff"/></g><g><path d="m497 361h-30c-6.885 0-12.876-4.688-14.546-11.367l-23.72-90.894c-2.021-8.027 2.871-16.172 10.913-18.179 8.042-2.051 16.172 2.871 18.179 10.913l20.893 79.527h18.281c8.291 0 15 6.709 15 15s-6.709 15-15 15z" fill="#b5dbff"/></g><g><path d="m343.261 383.266-61.787-15.439c-8.042-2.007-12.935-10.151-10.913-18.179 1.992-8.057 10.107-12.979 18.179-10.913l61.787 15.439c8.042 2.007 12.935 10.151 10.913 18.179-2.019 8.108-10.23 12.924-18.179 10.913z" fill="#b5dbff"/></g><g><path d="m406 512h-30c-8.291 0-15-6.709-15-15v-91c0-8.291 6.709-15 15-15s15 6.709 15 15v76h15c8.291 0 15 6.709 15 15s-6.709 15-15 15z" fill="#b5dbff"/></g><g><path d="m436 271c-24.814 0-45-20.186-45-45s20.186-45 45-45 45 20.186 45 45-20.186 45-45 45z" fill="#29376d"/></g><g><path d="m376 421c-24.814 0-45-20.186-45-45s20.186-45 45-45 45 20.186 45 45-20.186 45-45 45z" fill="#29376d"/></g><g><path d="m136 421c-24.814 0-45-20.186-45-45s20.186-45 45-45 45 20.186 45 45-20.186 45-45 45z" fill="#47568c"/></g><g><path d="m76 271c-24.814 0-45-20.186-45-45s20.186-45 45-45 45 20.186 45 45-20.186 45-45 45z" fill="#47568c"/></g><path d="m256 252.206h-45v93.794c0 24.814 20.186 45 45 45s45-20.186 45-45v-93.794z" fill="#edf5ff"/><path d="m301 346v-93.794h-45v138.794c24.814 0 45-20.186 45-45z" fill="#d5e8fe"/><path d="m256 0c-74.443 0-135 61.557-135 136s60.557 135 135 135 135-60.557 135-135-60.557-136-135-136z" fill="#66b3ff"/><path d="m391 136c0-74.443-60.557-136-135-136v271c74.443 0 135-60.557 135-135z" fill="#467ce8"/><circle cx="256" cy="136" fill="#edf5ff" r="75"/><path d="m331 136c0-41.353-33.647-75-75-75v150c41.353 0 75-33.647 75-75z" fill="#d5e8fe"/><circle cx="256" cy="136" fill="#47568c" r="45"/><path d="m301 136c0-24.813-20.187-45-45-45v90c24.813 0 45-20.187 45-45z" fill="#29376d"/><circle cx="256" cy="135.998" fill="#edf5ff" r="15"/><path d="m271 135.998c0-8.284-6.716-15-15-15v30c8.284 0 15-6.716 15-15z" fill="#d5e8fe"/></g></svg>