<svg id="Capa_1" enable-background="new 0 0 512 512" height="512" viewBox="0 0 512 512" width="512" xmlns="http://www.w3.org/2000/svg"><g><g><path d="m45 456c-8.291 0-15-6.709-15-15v-61c0-2.578.659-5.112 1.934-7.368l39.789-68.789c4.058-7.236 13.198-9.814 20.435-5.698 7.222 4.072 9.771 13.213 5.698 20.435l-37.856 65.36v57.06c0 8.291-6.709 15-15 15z" fill="#d5e8fe"/></g><g><path d="m55.605 502.605c-5.859-5.859-5.859-15.352 0-21.211 5.845-5.845 5.845-15.155 0-21-5.859-5.859-15.352-5.859-21.211 0-5.845 5.845-5.845 15.155 0 21 5.859 5.859 5.859 15.352 0 21.211s-15.352 5.859-21.211 0c-17.549-17.549-17.549-45.873 0-63.422s46.084-17.549 63.633 0 17.549 45.873 0 63.422c-5.859 5.86-15.351 5.86-21.211 0z" fill="#66b3ff"/></g><g><path d="m467 456c-8.291 0-15-6.709-15-15v-57.06l-37.855-65.361c-4.072-7.222-1.523-16.362 5.698-20.435 7.222-4.087 16.377-1.509 20.435 5.698l39.789 68.789c1.274 2.256 1.934 4.79 1.934 7.368v61c-.001 8.292-6.71 15.001-15.001 15.001z" fill="#b5dbff"/></g><g><path d="m477.605 502.605c-5.859-5.859-5.859-15.352 0-21.211 5.845-5.845 5.845-15.155 0-21-5.859-5.859-15.352-5.859-21.211 0-5.845 5.845-5.845 15.155 0 21 5.859 5.859 5.859 15.352 0 21.211s-15.352 5.859-21.211 0c-17.549-17.549-17.549-45.873 0-63.422s46.084-17.549 63.633 0 17.549 45.873 0 63.422c-5.859 5.86-15.351 5.86-21.211 0z" fill="#467ce8"/></g><path d="m421 275h-165-165c-16.569 0-30 13.431-30 30 0 16.567 13.431 30 30 30h165 165c16.569 0 30-13.433 30-30 0-16.569-13.431-30-30-30z" fill="#47568c"/><path d="m451 305c0-16.569-13.431-30-30-30h-165v60h165c16.569 0 30-13.433 30-30z" fill="#29376d"/><g><path d="m76 65h-61c-8.291 0-15-6.709-15-15s6.709-15 15-15h61c8.291 0 15 6.709 15 15s-6.709 15-15 15z" fill="#47568c"/></g><g><path d="m196 65h-60c-8.291 0-15-6.709-15-15s6.709-15 15-15h60c8.291 0 15 6.709 15 15s-6.709 15-15 15z" fill="#47568c"/></g><g><path d="m152.099 185h-46.099c-8.291 0-15-6.709-15-15v-60c0-8.291 6.709-15 15-15s15 6.709 15 15v45h31.099c8.291 0 15 6.709 15 15s-6.709 15-15 15z" fill="#47568c"/></g><g><path d="m376 65h-60c-8.291 0-15-6.709-15-15s6.709-15 15-15h60c8.291 0 15 6.709 15 15s-6.709 15-15 15z" fill="#29376d"/></g><g><path d="m497 65h-61c-8.291 0-15-6.709-15-15s6.709-15 15-15h61c8.291 0 15 6.709 15 15s-6.709 15-15 15z" fill="#29376d"/></g><g><path d="m406 185h-46.099c-8.291 0-15-6.709-15-15s6.709-15 15-15h31.099v-45c0-8.291 6.709-15 15-15s15 6.709 15 15v60c0 8.291-6.709 15-15 15z" fill="#29376d"/></g><circle cx="256" cy="230" fill="#edf5ff" r="135"/><path d="m391 230c0-74.443-60.557-135-135-135v270c74.443 0 135-60.557 135-135z" fill="#d5e8fe"/><circle cx="256" cy="230" fill="#66b3ff" r="75"/><path d="m331 230c0-41.353-33.647-75-75-75v150c41.353 0 75-33.647 75-75z" fill="#467ce8"/><circle cx="256" cy="229.998" fill="#61729b" r="15"/><path d="m271 229.998c0-8.284-6.716-15-15-15v30c8.284 0 15-6.716 15-15z" fill="#47568c"/><g><path d="m136 125h-60c-8.291 0-15-6.709-15-15v-60c0-24.814 20.186-45 45-45s45 20.186 45 45v60c0 8.291-6.709 15-15 15z" fill="#66b3ff"/></g><g><path d="m436 125h-60c-8.291 0-15-6.709-15-15v-60c0-24.814 20.186-45 45-45s45 20.186 45 45v60c0 8.291-6.709 15-15 15z" fill="#467ce8"/></g></g></svg>