<svg id="Capa_1" enable-background="new 0 0 512 512" height="512" viewBox="0 0 512 512" width="512" xmlns="http://www.w3.org/2000/svg"><g><g><path d="m171.127 90h-35.127c-8.291 0-15-6.709-15-15s6.709-15 15-15h35.127c8.291 0 15 6.709 15 15s-6.709 15-15 15z" fill="#47568c"/></g><g><path d="m376 90h-35.127c-8.291 0-15-6.709-15-15s6.709-15 15-15h35.127c8.291 0 15 6.709 15 15s-6.709 15-15 15z" fill="#29376d"/></g><path d="m406 120h-150-150c-41.353 0-76 33.647-76 75v182h91v-167h135 135v167h91v-182c0-41.353-34.647-75-76-75z" fill="#fabe2c"/><path d="m391 377h91v-182c0-41.353-34.647-75-76-75h-150v90h135z" fill="#ff9100"/><path d="m256 225h-45v199.578c0 30.908 12.539 61.172 34.395 83.027 2.93 2.93 6.768 4.395 10.605 4.395s7.676-1.465 10.605-4.395c21.856-21.855 34.395-52.119 34.395-83.027v-199.578z" fill="#edf5ff"/><path d="m301 424.578v-199.578h-45v287c3.838 0 7.676-1.465 10.605-4.395 21.856-21.855 34.395-52.119 34.395-83.027z" fill="#d5e8fe"/><path d="m256 0c-57.891 0-105 47.109-105 105v120c0 8.291 6.709 15 15 15h90 90c8.291 0 15-6.709 15-15v-120c0-57.891-47.109-105-105-105z" fill="#fed843"/><path d="m361 225v-120c0-57.891-47.109-105-105-105v240h90c8.291 0 15-6.709 15-15z" fill="#fabe2c"/><g><path d="m512 362c0-24.814-20.186-45-45-45h-61c-24.814 0-45 20.186-45 45l30 17.763-30 12.237v45l30 16.302-30 13.698c0 24.814 20.186 45 45 45h61c24.814 0 45-20.186 45-45l-30-13.698 30-16.302v-45l-30-13.303z" fill="#29376d"/></g><g><g><path d="m361 437h151v30h-151z" fill="#47568c"/></g><g><path d="m361 362h151v30h-151z" fill="#47568c"/></g></g><g><path d="m151 362c0-24.814-20.186-45-45-45h-61c-24.814 0-45 20.186-45 45l30 17.763-30 12.237v45l30 16.302-30 13.698c0 24.814 20.186 45 45 45h61c24.814 0 45-20.186 45-45l-30-13.698 30-16.302v-45l-30-13.303z" fill="#47568c"/></g><g><g><path d="m0 437h151v30h-151z" fill="#61729b"/></g><g><path d="m0 362h151v30h-151z" fill="#61729b"/></g></g><g fill="#d5e8fe"><path d="m192.367 301.546 63.633 15.908 56.367 14.092c7.949 2.01 16.161-2.805 18.179-10.913 2.021-8.027-2.871-16.172-10.913-18.179l-63.633-15.908-56.367-15.092c-8.057-2.124-16.187 3.856-18.179 11.913-2.021 8.028 2.871 16.172 10.913 18.179z"/><path d="m319.633 362.454-63.633-15.908-56.367-14.092c-8.057-2.095-16.187 2.856-18.179 10.913-2.021 8.027 2.871 16.172 10.913 18.179l63.633 15.908 56.367 14.092c7.949 2.01 16.161-2.805 18.179-10.913 2.021-8.028-2.871-16.172-10.913-18.179z"/><path d="m319.633 422.454-63.633-15.908-56.367-14.092c-8.057-2.08-16.187 2.871-18.179 10.913-2.021 8.027 2.871 16.172 10.913 18.179l63.633 15.908 56.367 14.092c7.949 2.01 16.161-2.805 18.179-10.913 2.021-8.028-2.871-16.172-10.913-18.179z"/></g><g fill="#b5dbff"><path d="m330.546 320.633c2.021-8.027-2.871-16.172-10.913-18.179l-63.633-15.908v30.908l56.367 14.092c7.949 2.01 16.161-2.805 18.179-10.913z"/><path d="m330.546 380.633c2.021-8.027-2.871-16.172-10.913-18.179l-63.633-15.908v30.908l56.367 14.092c7.949 2.01 16.161-2.805 18.179-10.913z"/><path d="m330.546 440.633c2.021-8.027-2.871-16.172-10.913-18.179l-63.633-15.908v30.908l56.367 14.092c7.949 2.01 16.161-2.805 18.179-10.913z"/></g><circle cx="256" cy="135" fill="#61729b" r="45"/><path d="m301 135c0-24.814-20.186-45-45-45v90c24.814 0 45-20.186 45-45z" fill="#47568c"/></g></svg>