<svg id="Capa_1" enable-background="new 0 0 512 512" height="512" viewBox="0 0 512 512" width="512" xmlns="http://www.w3.org/2000/svg"><g><path d="m475.661 374.293-19.806 1.707 9.444-30.37c-12.158-26.29-30.417-49.11-53.038-66.694l-28.459 6.144 3.351-22.666c-25.356-13.643-55.342-21.414-86.153-21.414h-45-45c-30.815 0-59.802 7.773-85.161 21.418l.936 24.254-26.043-7.73c-22.619 17.582-40.875 40.398-53.031 66.688l9.445 30.37-19.807-1.705c-4.004 14.918-7.339 30.522-7.339 46.705v61h91v-59.405l-12.303-30.503 17.779-.979c4.38-12.371 11.127-23.577 20.09-32.791l-4.898-22.253 29.392 4.669c12.084-6.03 25.519-9.738 39.94-9.738l30-30h15 15l30 30c14.419 0 28.852 3.706 40.934 9.734l25.377-7.552-.882 25.133c8.967 9.214 15.714 20.424 20.094 32.796l17.754.834-12.277 30.652v59.403h90v-61c0-16.183-2.334-31.787-6.339-46.707z" fill="#61729b"/><path d="m301 331c14.419 0 28.852 3.706 40.934 9.734l25.377-7.552-.882 25.133c8.967 9.214 15.714 20.424 20.094 32.796l17.754.834-12.277 30.652v59.403h90v-61c0-16.183-2.334-31.787-6.339-46.707l-19.806 1.707 9.444-30.37c-12.158-26.29-30.417-49.11-53.038-66.694l-28.459 6.144 3.351-22.666c-25.356-13.643-55.342-21.414-86.153-21.414h-45v60h15z" fill="#47568c"/><g><path d="m136 120h-60c-8.291 0-15-6.709-15-15s6.709-15 15-15h60c8.291 0 15 6.709 15 15s-6.709 15-15 15z" fill="#47568c"/></g><g><path d="m437 120h-60c-8.291 0-15-6.709-15-15s6.709-15 15-15h60c8.291 0 15 6.709 15 15s-6.709 15-15 15z" fill="#29376d"/></g><g><path d="m497 512h-120c-8.284 0-15-6.716-15-15v-15c0-16.569 13.431-30 30-30h90c16.569 0 30 13.431 30 30v15c0 8.284-6.716 15-15 15z" fill="#29376d"/></g><path d="m366.429 358.316 45.831-79.38c-7.901-6.141-16.236-11.746-25.107-16.522l-45.22 78.32c9.117 4.548 17.465 10.355 24.496 17.582z" fill="#29376d"/><path d="m386.523 391.112c3.327 9.395 5.477 19.354 5.477 29.888v1.597l83.661-48.303c-2.664-9.924-6.123-19.493-10.362-28.663z" fill="#29376d"/><path d="m100.732 278.941 45.835 79.38c7.031-7.227 15.379-13.035 24.494-17.584l-45.222-78.32c-8.871 4.776-17.206 10.383-25.107 16.524z" fill="#47568c"/><path d="m126.477 391.112-78.776-45.482c-4.239 9.168-7.698 18.741-10.362 28.665l83.661 48.3v-1.595c0-10.534 2.151-20.493 5.477-29.888z" fill="#47568c"/><g><path d="m437 150c-8.291 0-15-6.709-15-15v-60c0-8.291 6.709-15 15-15s15 6.709 15 15v60c0 8.291-6.709 15-15 15z" fill="#467ce8"/></g><g><path d="m76 150c-8.291 0-15-6.709-15-15v-60c0-8.291 6.709-15 15-15s15 6.709 15 15v60c0 8.291-6.709 15-15 15z" fill="#66b3ff"/></g><g><path d="m136 512h-121c-8.284 0-15-6.716-15-15v-15c0-16.569 13.431-30 30-30h91c16.569 0 30 13.431 30 30v15c0 8.284-6.716 15-15 15z" fill="#47568c"/></g><path d="m256 181h-45v150h45 45v-150z" fill="#d5e8fe"/><path d="m256 181h45v150h-45z" fill="#b5dbff"/><path d="m377 0h-121-120c-8.291 0-15 6.709-15 15v181c0 8.291 6.709 15 15 15h120 121c8.291 0 15-6.709 15-15v-181c0-8.291-6.709-15-15-15z" fill="#edf5ff"/><path d="m392 196v-181c0-8.291-6.709-15-15-15h-121v211h121c8.291 0 15-6.709 15-15z" fill="#d5e8fe"/><path d="m317 60h-61-60c-8.291 0-15 6.709-15 15v60c0 8.291 6.709 15 15 15h60 61c8.291 0 15-6.709 15-15v-60c0-8.291-6.709-15-15-15z" fill="#66b3ff"/><path d="m332 135v-60c0-8.291-6.709-15-15-15h-61v90h61c8.291 0 15-6.709 15-15z" fill="#467ce8"/></g></svg>