<svg id="Capa_1" enable-background="new 0 0 512 512" height="512" viewBox="0 0 512 512" width="512" xmlns="http://www.w3.org/2000/svg"><g><path d="m256 180h-45v90h45 45v-90z" fill="#47568c"/><path d="m256 180h45v90h-45z" fill="#29376d"/><path d="m437 240h-181-181c-8.291 0-15 6.709-15 15v152c0 8.291 6.709 15 15 15h106l30-30h45 45l30 30h106c8.291 0 15-6.709 15-15v-152c0-8.291-6.709-15-15-15z" fill="#edf5ff"/><path d="m331 422h106c8.291 0 15-6.709 15-15v-152c0-8.291-6.709-15-15-15h-181v152h45z" fill="#d5e8fe"/><path d="m316 0h-60-60c-57.891 0-105 47.109-105 105s47.109 105 105 105h60 60c57.891 0 105-47.109 105-105s-47.109-105-105-105z" fill="#edf5ff"/><path d="m421 105c0-57.891-47.109-105-105-105h-60v210h60c57.891 0 105-47.109 105-105z" fill="#d5e8fe"/><g><path d="m196 150c-24.814 0-45-20.186-45-45s20.186-45 45-45 45 20.186 45 45-20.186 45-45 45z" fill="#47568c"/><circle cx="196" cy="105" fill="#d5e8fe" r="15"/></g><g><path d="m316 150c-24.814 0-45-20.186-45-45s20.186-45 45-45 45 20.186 45 45-20.186 45-45 45z" fill="#29376d"/><circle cx="316" cy="105" fill="#b5dbff" r="15"/></g><g><path d="m512 362c0-24.814-20.186-45-45-45h-61c-24.814 0-45 20.186-45 45l30 17.763-30 12.237v45l30 16.302-30 13.698c0 24.814 20.186 45 45 45h61c24.814 0 45-20.186 45-45l-30-13.698 30-16.302v-45l-30-13.303z" fill="#29376d"/></g><g><g><path d="m361 437h151v30h-151z" fill="#47568c"/></g><g><path d="m361 362h151v30h-151z" fill="#47568c"/></g></g><g><path d="m151 362c0-24.814-20.186-45-45-45h-61c-24.814 0-45 20.186-45 45l30 17.763-30 12.237v45l30 16.302-30 13.698c0 24.814 20.186 45 45 45h61c24.814 0 45-20.186 45-45l-30-13.698 30-16.302v-45l-30-13.303z" fill="#47568c"/></g><g><g><path d="m0 437h151v30h-151z" fill="#61729b"/></g><g><path d="m0 362h151v30h-151z" fill="#61729b"/></g></g><path d="m316 332h-60-60c-8.291 0-15 6.709-15 15v75h75 75v-75c0-8.291-6.709-15-15-15z" fill="#66b3ff"/><path d="m331 347c0-8.291-6.709-15-15-15h-60v90h75z" fill="#467ce8"/></g></svg>