<svg id="Capa_1" enable-background="new 0 0 512 512" height="512" viewBox="0 0 512 512" width="512" xmlns="http://www.w3.org/2000/svg"><g><path d="m92.157 203.145c-7.266-4.131-16.377-1.523-20.435 5.698l-39.789 68.789c-1.274 2.256-1.933 4.79-1.933 7.368v61h30v-57.06l37.855-65.361c4.073-7.222 1.524-16.362-5.698-20.434z" fill="#d5e8fe"/><g><g><path d="m106 240c-24.814 0-45-20.186-45-45s20.186-45 45-45 45 20.186 45 45-20.186 45-45 45z" fill="#47568c"/></g></g><g><g><path d="m55.605 407.816c-5.859-5.859-5.859-15.352 0-21.211 5.845-5.845 5.845-15.366 0-21.211-5.859-5.859-15.352-5.859-21.211 0-5.845 5.845-5.845 15.366 0 21.211 5.859 5.859 5.859 15.352 0 21.211s-15.352 5.859-21.211 0c-17.549-17.549-17.549-46.084 0-63.633s46.084-17.549 63.633 0 17.549 46.084 0 63.633c-5.859 5.86-15.351 5.86-21.211 0z" fill="#ff6c6c"/></g></g><path d="m480.066 277.632-39.789-68.789c-4.072-7.222-13.184-9.8-20.435-5.698-7.222 4.072-9.771 13.213-5.698 20.435l37.856 65.36v57.06h30v-61c0-2.578-.659-5.112-1.934-7.368z" fill="#b5dbff"/><g><g><path d="m406 240c-24.814 0-45-20.186-45-45s20.186-45 45-45 45 20.186 45 45-20.186 45-45 45z" fill="#29376d"/></g></g><g><g><path d="m477.605 407.816c-5.859-5.859-5.859-15.352 0-21.211 5.845-5.845 5.845-15.366 0-21.211-5.859-5.859-15.352-5.859-21.211 0-5.845 5.845-5.845 15.366 0 21.211 5.859 5.859 5.859 15.352 0 21.211s-15.352 5.859-21.211 0c-17.549-17.549-17.549-46.084 0-63.633s46.084-17.549 63.633 0 17.549 46.084 0 63.633c-5.859 5.86-15.351 5.86-21.211 0z" fill="#f03800"/></g></g><path d="m256 0c-74.443 0-135 60.557-135 135v271c0 8.291 6.709 15 15 15h120 120c8.291 0 15-6.709 15-15v-271c0-74.443-60.557-135-135-135z" fill="#edf5ff"/><path d="m391 406v-271c0-74.443-60.557-135-135-135v421h120c8.291 0 15-6.709 15-15z" fill="#d5e8fe"/><circle cx="256" cy="135" fill="#d5e8fe" r="75"/><path d="m331 135c0-41.353-33.647-75-75-75v150c41.353 0 75-33.647 75-75z" fill="#b5dbff"/><circle cx="256" cy="135" fill="#47568c" r="45"/><path d="m301 135c0-24.813-20.187-45-45-45v90c24.813 0 45-20.187 45-45z" fill="#29376d"/><g><circle cx="256" cy="134.998" fill="#ff6c6c" r="15"/><path d="m256 240c-41.353 0-75 33.647-75 75v122c0 41.353 33.647 75 75 75s75-33.647 75-75v-122c0-41.353-33.647-75-75-75z" fill="#47568c"/></g><path d="m331 437v-122c0-41.353-33.647-75-75-75v272c41.353 0 75-33.647 75-75z" fill="#29376d"/><path d="m271 134.998c0-8.284-6.716-15-15-15v30c8.284 0 15-6.716 15-15z" fill="#f03800"/></g></svg>