<svg id="Capa_1" enable-background="new 0 0 512 512" height="512" viewBox="0 0 512 512" width="512" xmlns="http://www.w3.org/2000/svg"><g><g><path d="m91 151h90v90h-90z" fill="#47568c"/></g><g><path d="m331 151h90v90h-90z" fill="#29376d"/></g><g><path d="m391 346v-180c0-57.891 48.109-105 106-105 8.291 0 15 6.709 15 15v145.137c0 63.208-41.283 119.106-101.254 139.087-9.512 3.23-19.746-3.832-19.746-14.224z" fill="#d5e8fe"/></g><g><path d="m101.254 360.224c-59.971-19.981-101.254-75.879-101.254-139.087v-145.137c0-8.291 6.709-15 15-15 57.891 0 106 47.109 106 105v180c0 10.35-10.207 17.463-19.746 14.224z" fill="#edf5ff"/></g><path d="m256 0c-57.99 0-105 48.01-105 106v270c0 24.814 20.186 45 45 45h60 60c24.814 0 45-20.186 45-45v-270c0-57.99-47.01-106-105-106z" fill="#edf5ff"/><path d="m361 376v-270c0-57.99-47.01-106-105-106v421h60c24.814 0 45-20.186 45-45z" fill="#b5dbff"/><g><circle cx="225.999" cy="225.999" fill="#47568c" r="15"/></g><g><circle cx="285.999" cy="225.999" fill="#29376d" r="15"/></g><g><circle cx="256" cy="136" fill="#66b3ff" r="45"/></g><g><path d="m301 136c0-24.814-20.186-45-45-45v90c24.814 0 45-20.186 45-45z" fill="#467ce8"/></g><path d="m256 301c-24.814 0-45 20.186-45 45v121c0 24.814 20.186 45 45 45s45-20.186 45-45v-121c0-24.814-20.186-45-45-45z" fill="#61729b"/><path d="m301 467v-121c0-24.814-20.186-45-45-45v211c24.814 0 45-20.186 45-45z" fill="#47568c"/></g></svg>