<svg id="Capa_1" enable-background="new 0 0 512 512" height="512" viewBox="0 0 512 512" width="512" xmlns="http://www.w3.org/2000/svg"><g><path d="m92.157 205.145c-7.266-4.131-16.377-1.523-20.435 5.698l-39.789 68.789c-1.274 2.256-1.933 4.79-1.933 7.368v60h30v-56.06l37.855-65.361c4.073-7.222 1.524-16.362-5.698-20.434z" fill="#61729b"/><g><g><path d="m106 242c-24.814 0-45-20.186-45-45s20.186-45 45-45 45 20.186 45 45-20.186 45-45 45z" fill="#47568c"/></g></g><g><path d="m330.253 60.747c-5.859-5.859-5.859-15.352 0-21.211l35.142-35.142c5.859-5.859 15.352-5.859 21.211 0s5.859 15.352 0 21.211l-35.142 35.142c-5.859 5.859-15.352 5.86-21.211 0z" fill="#b5dbff"/></g><g><path d="m160.536 60.747-35.142-35.142c-5.859-5.859-5.859-15.352 0-21.211s15.352-5.859 21.211 0l35.142 35.142c5.859 5.859 5.859 15.352 0 21.211s-15.351 5.86-21.211 0z" fill="#d5e8fe"/></g><g><g><path d="m55.605 408.816c-5.859-5.859-5.859-15.352 0-21.211 5.845-5.845 5.845-15.366 0-21.211-5.859-5.859-15.352-5.859-21.211 0-5.845 5.845-5.845 15.366 0 21.211 5.859 5.859 5.859 15.352 0 21.211s-15.352 5.859-21.211 0c-17.549-17.549-17.549-46.084 0-63.633s46.084-17.549 63.633 0 17.549 46.084 0 63.633c-5.859 5.86-15.351 5.86-21.211 0z" fill="#ff6c6c"/></g></g><path d="m480.066 279.632-39.789-68.789c-4.072-7.222-13.184-9.8-20.435-5.698-7.222 4.072-9.771 13.213-5.698 20.435l37.856 65.36v56.06h30v-60c0-2.578-.659-5.112-1.934-7.368z" fill="#47568c"/><g><g><path d="m406 242c-24.814 0-45-20.186-45-45s20.186-45 45-45 45 20.186 45 45-20.186 45-45 45z" fill="#29376d"/></g></g><g><g><path d="m477.605 408.816c-5.859-5.859-5.859-15.352 0-21.211 5.845-5.845 5.845-15.366 0-21.211-5.859-5.859-15.352-5.859-21.211 0-5.845 5.845-5.845 15.366 0 21.211 5.859 5.859 5.859 15.352 0 21.211s-15.352 5.859-21.211 0c-17.549-17.549-17.549-46.084 0-63.633s46.084-17.549 63.633 0 17.549 46.084 0 63.633c-5.859 5.86-15.351 5.86-21.211 0z" fill="#f03800"/></g></g><path d="m256 362h-45v120h45 45v-120z" fill="#47568c"/><path d="m256 362h45v120h-45z" fill="#29376d"/><path d="m256 0c-74.443 0-135 60.557-135 135v242c0 8.291 6.709 15 15 15h120 120c8.291 0 15-6.709 15-15v-242c0-74.443-60.557-135-135-135z" fill="#edf5ff"/><path d="m391 377v-242c0-74.443-60.557-135-135-135v392h120c8.291 0 15-6.709 15-15z" fill="#d5e8fe"/><path d="m286 272h-15v-15c0-8.291-6.709-15-15-15s-15 6.709-15 15v15h-15c-8.291 0-15 6.709-15 15s6.709 15 15 15h15v15c0 8.291 6.709 15 15 15s15-6.709 15-15v-15h15c8.291 0 15-6.709 15-15s-6.709-15-15-15z" fill="#ff6c6c"/><path d="m271 317v-15h15c8.291 0 15-6.709 15-15s-6.709-15-15-15h-15v-15c0-8.291-6.709-15-15-15v90c8.291 0 15-6.709 15-15z" fill="#f03800"/><path d="m256 60c-41.353 0-75 33.647-75 75v62c0 8.291 6.709 15 15 15h60 60c8.291 0 15-6.709 15-15v-62c0-41.353-33.647-75-75-75z" fill="#47568c"/><path d="m331 197v-62c0-41.353-33.647-75-75-75v152h60c8.291 0 15-6.709 15-15z" fill="#29376d"/><path d="m376 452h-120-120c-8.291 0-15 6.709-15 15v30c0 8.291 6.709 15 15 15h120 120c8.291 0 15-6.709 15-15v-30c0-8.291-6.709-15-15-15z" fill="#edf5ff"/><path d="m391 497v-30c0-8.291-6.709-15-15-15h-120v60h120c8.291 0 15-6.709 15-15z" fill="#d5e8fe"/></g></svg>