<svg height="512" viewBox="0 0 64 64" width="512" xmlns="http://www.w3.org/2000/svg"><g isolation="isolate"><g id="_1" data-name="1"><path d="m8 23h48v29h-48z" fill="#e8e8e6"/><circle cx="56" cy="36" fill="#cacbca" r="8"/><circle cx="56" cy="36" fill="#242d31" r="6"/><path d="m32 12c-13.25 0-24 4.92-24 11h48c0-6.08-10.75-11-24-11z" fill="#525f67"/><path d="m8 23v29h24v-40c-13.25 0-24 4.92-24 11z" opacity=".5" mix-blend-mode="soft-light"/><g fill="#f2f2f2"><path d="m46 52h-28l4-6h20z"/><path d="m22 29h19v1h-19z"/><path d="m22 33h19v1h-19z"/><path d="m22 37h19v1h-19z"/><path d="m22 41h19v1h-19z"/><circle cx="59" cy="34" opacity=".5" r="1"/></g><circle cx="8" cy="36" fill="#cacbca" r="8"/><circle cx="8" cy="36" fill="#242d31" r="6"/><circle cx="5" cy="34" fill="#f2f2f2" opacity=".5" r="1"/></g></g></svg>