<svg height="512" viewBox="0 0 64 64" width="512" xmlns="http://www.w3.org/2000/svg"><g isolation="isolate"><g id="_10" data-name="10"><g fill="#f94b38"><path d="m14.93 23.47h-12.8l-2.13-4.27h14.93z"/><path d="m14.93 32h-10.66l-2.14-4.27h12.8z"/><path d="m14.93 40.53h-8.53l-2.13-4.26h10.66z"/><path d="m49.07 23.47h12.8l2.13-4.27h-14.93z"/><path d="m49.07 32h10.66l2.14-4.27h-12.8z"/><path d="m49.07 40.53h8.53l2.13-4.26h-10.66z"/></g><rect fill="#324d5b" height="17.07" rx="3.42" width="51.2" x="6.4" y="44.8"/><circle cx="32" cy="10.67" fill="#8098a6" r="8.53"/><path d="m32 6.4a21.33 21.33 0 0 1 21.33 21.33v17.07a0 0 0 0 1 0 0h-42.66a0 0 0 0 1 0 0v-17.07a21.33 21.33 0 0 1 21.33-21.33z" fill="#ebeff2"/><circle cx="42.67" cy="18.13" fill="#fff" r="4.27"/><circle cx="48" cy="25.6" fill="#fff" r="1.07"/><path d="m32 2.13a8.54 8.54 0 0 0 -8.1 5.87 21.45 21.45 0 0 0 -11.45 11.2h-12.45l2.13 4.27h9a21.37 21.37 0 0 0 -.43 4.26h-8.57l2.14 4.27h6.4v4.27h-6.4l2.13 4.26h4.27v4.27h-.85a3.42 3.42 0 0 0 -3.42 3.42v10.23a3.42 3.42 0 0 0 3.42 3.42h22.18z" opacity=".3" mix-blend-mode="soft-light"/></g></g></svg>