<svg height="512" viewBox="0 0 64 64" width="512" xmlns="http://www.w3.org/2000/svg"><g isolation="isolate"><g id="_11" data-name="11"><circle cx="59.73" cy="36.8" fill="#f34e27" r="4.27"/><path d="m57.6 31.39h6.4l-5.33 10.74h-1.07z" fill="#f2911d"/><circle cx="4.27" cy="36.8" fill="#f34e27" r="4.27"/><path d="m9 25.07h46a2.62 2.62 0 0 1 2.62 2.62v18.71a0 0 0 0 1 0 0h-51.22a0 0 0 0 1 0 0v-18.71a2.62 2.62 0 0 1 2.6-2.62z" fill="#f2c84a"/><circle cx="17.07" cy="35.73" fill="#f2911d" r="6.4"/><circle cx="17.07" cy="35.73" fill="#313942" r="2.13"/><circle cx="46.93" cy="35.73" fill="#f2911d" r="6.4"/><circle cx="46.93" cy="35.73" fill="#313942" r="2.13"/><path d="m6.4 31.39h-6.4l5.33 10.74h1.07z" fill="#f2911d"/><path d="m10.13 20.8h7.47v4.27h-7.47z" fill="#f2911d"/><rect fill="#f2c649" height="3.2" rx="1.6" width="14.93" x="6.4" y="17.6"/><path d="m28.27 20.8h7.47v4.27h-7.47z" fill="#f2911d"/><rect fill="#f2c649" height="3.2" rx="1.6" width="14.93" x="24.53" y="17.6"/><path d="m46.4 20.8h7.47v4.27h-7.47z" fill="#f2911d"/><rect fill="#f2c649" height="3.2" rx="1.6" width="14.93" x="42.67" y="17.6"/><path d="m32 46.4v-28.8h-5.87a1.6 1.6 0 1 0 0 3.2h2.14v4.27h-10.67v-4.27h2.13a1.6 1.6 0 0 0 0-3.2h-11.73a1.6 1.6 0 1 0 0 3.2h2.13v4.27h-1.13a2.62 2.62 0 0 0 -2.6 2.62v3.7h-6.4l1.21 2.44a4.26 4.26 0 0 0 3.06 7.24 4.4 4.4 0 0 0 .51 0l.55 1.11h1.07v4.22z" opacity=".5" mix-blend-mode="soft-light"/></g></g></svg>