<svg height="512" viewBox="0 0 64 64" width="512" xmlns="http://www.w3.org/2000/svg"><g isolation="isolate"><g id="_12" data-name="12"><path d="m12.55 20.81-8.48-8.23a2.19 2.19 0 0 0 -2-3.3 2.19 2.19 0 0 0 .3 4.37 2.36 2.36 0 0 0 1-.3l8.5 8.24z" fill="#26343f"/><path d="m51.45 20.81 8.48-8.23a2.19 2.19 0 0 1 2-3.3 2.19 2.19 0 0 1 -.3 4.37 2.36 2.36 0 0 1 -.95-.3l-8.5 8.24z" fill="#26343f"/><circle cx="12.31" cy="21.06" fill="#26343f" r="6.56"/><circle cx="51.69" cy="21.06" fill="#26343f" r="6.56"/><path d="m5.74 37.47h52.52a0 0 0 0 1 0 0v15.31a2.19 2.19 0 0 1 -2.19 2.22h-48.14a2.19 2.19 0 0 1 -2.19-2.19v-15.34a0 0 0 0 1 0 0z" fill="#f0f0f0"/><path d="m58.26 35.28v2.19h-52.52v-2.19a26.29 26.29 0 0 1 9.42-20.13 16.76 16.76 0 0 1 1.52-1.15 26 26 0 0 1 13.13-4.88c.72-.06 1.46-.12 2.19-.12s1.47 0 2.19.1a26 26 0 0 1 13.13 4.9 26.33 26.33 0 0 1 6.28 6.4 26.06 26.06 0 0 1 4.66 14.88z" fill="#2d3e4f"/><path d="m32 37.47h-26.26v-2.19a26.06 26.06 0 0 1 4.66-14.91z" fill="#e84c3d"/><path d="m58.26 35.28v2.19h-26.26l21.6-17.1a26.06 26.06 0 0 1 4.66 14.91z" fill="#e84c3d"/><path d="m34.19 9.12v10.88a2.19 2.19 0 1 1 -4.38 0v-10.88c.72-.06 1.46-.12 2.19-.12s1.47.06 2.19.12z" fill="#385061"/><path d="m21.06 11.41v6.37a2.19 2.19 0 0 1 -2.19 2.22h-.1a2.19 2.19 0 0 1 -2.09-2.18v-3.82a25.21 25.21 0 0 1 4.38-2.59z" fill="#385061"/><path d="m47.32 14v3.81a2.19 2.19 0 0 1 -2.09 2.19h-.1a2.19 2.19 0 0 1 -2.19-2.18v-6.41a25.21 25.21 0 0 1 4.38 2.59z" fill="#385061"/><g fill="#dbdddc"><rect height="13.13" rx="1.09" width="2.19" x="11.76" y="39.66"/><rect height="8.75" rx=".89" width="2.19" x="19.42" y="41.85"/><rect height="13.13" rx="1.09" width="2.19" x="27.08" y="39.66"/><rect height="13.13" rx="1.09" width="2.19" x="34.74" y="39.66"/><rect height="8.75" rx=".89" width="2.19" x="42.39" y="41.85"/><rect height="13.13" rx="1.09" width="2.19" x="50.05" y="39.66"/></g><path d="m32 9c-.73 0-1.47 0-2.19.1a26 26 0 0 0 -13.13 4.9 16.76 16.76 0 0 0 -1.52 1.18 6.66 6.66 0 0 0 -2.85-.66 6.51 6.51 0 0 0 -4.46 1.76l-3.78-3.7a2.19 2.19 0 0 0 -2-3.3 2.19 2.19 0 0 0 .3 4.37 2.36 2.36 0 0 0 1-.3l3.82 3.71a6.54 6.54 0 0 0 .48 8.56c-.27.68-.51 1.37-.72 2.08-.06.2-.12.41-.17.62-.15.52-.28 1.05-.39 1.58 0 .25-.1.49-.14.74-.1.54-.17 1.07-.24 1.62 0 .23-.06.46-.08.69-.07.77-.11 1.55-.11 2.33v17.5a2.2 2.2 0 0 0 2.11 2.22h24.07z" opacity=".3" mix-blend-mode="soft-light"/></g></g></svg>