<svg height="512" viewBox="0 0 64 64" width="512" xmlns="http://www.w3.org/2000/svg"><g isolation="isolate"><g id="_13" data-name="13"><path d="m2.7 25.14h4.16a0 0 0 0 1 0 0v14.86a0 0 0 0 1 0 0h-4.16a2.7 2.7 0 0 1 -2.7-2.7v-9.45a2.7 2.7 0 0 1 2.7-2.71z" fill="#313a41"/><path d="m59.85 25.14h4.15a0 0 0 0 1 0 0v14.86a0 0 0 0 1 0 0h-4.15a2.7 2.7 0 0 1 -2.7-2.7v-9.45a2.7 2.7 0 0 1 2.7-2.71z" fill="#313a41" transform="matrix(-1 0 0 -1 121.14 65.14)"/><rect fill="#388cb2" height="36.57" rx="16.93" width="54.86" x="4.57" y="13.71"/><rect fill="#2d3e4f" height="22.86" rx="4.64" width="41.14" x="11.43" y="20.57"/><path d="m32 13.71h-10.5a16.94 16.94 0 0 0 -16 11.43h-2.8a2.7 2.7 0 0 0 -2.7 2.71v9.45a2.7 2.7 0 0 0 2.7 2.7h3.23a16.92 16.92 0 0 0 15.57 10.29h10.5z" opacity=".3" mix-blend-mode="soft-light"/></g></g></svg>