<svg height="512" viewBox="0 0 64 64" width="512" xmlns="http://www.w3.org/2000/svg"><g isolation="isolate"><g id="_14" data-name="14"><rect fill="#dbdddc" height="50.29" rx="4.29" width="45.71" x="9.14" y="6.86"/><path d="m9.14 34.29-9.14-2.29v-9.14l9.14-2.29z" fill="#c2cace"/><path d="m54.86 34.29 9.14-2.29v-9.14l-9.14-2.29z" fill="#c2cace"/><path d="m13.71 20.57h36.57v13.71h-36.57z" fill="#df5a49"/><path d="m16 22.86h32v9.14h-32z" fill="#c64238"/><path d="m17.14 45.71h29.71v4.57h-29.71z" fill="#c2cace"/><path d="m17.14 48h29.71v2.29h-29.71z" fill="#afb8bc"/><path d="m32 6.86h-18.57a4.29 4.29 0 0 0 -4.29 4.28v9.43l-9.14 2.29v9.14l9.14 2.29v18.57a4.29 4.29 0 0 0 4.29 4.28h18.57z" opacity=".3" mix-blend-mode="soft-light"/></g></g></svg>