<svg height="512" viewBox="0 0 64 64" width="512" xmlns="http://www.w3.org/2000/svg"><g isolation="isolate"><g id="_15" data-name="15"><path d="m46.37 8.37a8.09 8.09 0 0 0 -5.72-2.37h-17.3a8.09 8.09 0 0 0 -5.72 2.37l-7.26 8.26a8.09 8.09 0 0 0 -2.37 5.72v31.65h48v-31.65a8.09 8.09 0 0 0 -2.37-5.72z" fill="#edeeef"/><path d="m44 46-6.05 8h-11.9l-6.05-8h-12v16h12 9 6 6 15v-16z" fill="#d6dde1"/><path d="m8 37h-4l-4-16h8z" fill="#324d5b"/><path d="m56 37h4l4-16h-8z" fill="#324d5b"/><circle cx="20" cy="27" fill="#d6dde1" r="6"/><circle cx="20" cy="27" fill="#e25252" r="3"/><circle cx="44" cy="27" fill="#d6dde1" r="6"/><circle cx="44" cy="27" fill="#e25252" r="3"/><path d="m38.92 6a8 8 0 0 0 -13.84 0z" fill="#324d5b"/><rect fill="#bdc3c6" height="2" rx="1" width="16" x="24" y="57"/><g fill="#d6dde1"><rect height="9" rx="1" width="2" x="22" y="37"/><rect height="9" rx="1" width="2" x="31" y="37"/><rect height="9" rx="1" width="2" x="40" y="37"/></g><path d="m32 2a8 8 0 0 0 -6.92 4h-1.73a8.09 8.09 0 0 0 -5.72 2.37l-7.26 8.26a8.09 8.09 0 0 0 -2.37 5.72v-1.35h-8l4 16h4v25h24z" opacity=".4" mix-blend-mode="soft-light"/></g></g></svg>