<svg height="512" viewBox="0 0 64 64" width="512" xmlns="http://www.w3.org/2000/svg"><g isolation="isolate"><g id="_16" data-name="16"><path d="m22.86 52.57-13.72-9.14v11.43l13.72 9.14h18.28l13.72-9.14v-11.43l-13.72 9.14z" fill="#dbdddc"/><path d="m54.86 22.86v20.57l-13.72 9.14h-18.28l-13.72-9.14v-20.57a22.86 22.86 0 1 1 45.72 0z" fill="#313a41"/><path d="m22.86 52.57v-20.57l-13.72-9.14v20.57z" fill="#e84c3d"/><path d="m41.14 52.57v-20.57l13.72-9.14v20.57z" fill="#e84c3d"/><path d="m39.42 1.23-2.85 17.06h-9.14l-2.85-17.06a23 23 0 0 1 14.84 0z" fill="#385061"/><path d="m22.86 52.57h18.29v11.43h-18.29z" fill="#f0f0f0"/><path d="m32 0a22.83 22.83 0 0 0 -22.86 22.86v32l13.72 9.14h9.14z" opacity=".25" mix-blend-mode="soft-light"/></g></g></svg>