<svg height="512" viewBox="0 0 64 64" width="512" xmlns="http://www.w3.org/2000/svg"><g isolation="isolate"><g id="_17" data-name="17"><path d="m12 27h40v18h-40z" fill="#f2766c"/><path d="m12 39-12-6v-12l12 6z" fill="#e25252"/><path d="m4 35-4-2v-12l4 2z" fill="#313a41"/><path d="m52 39 12-6v-12l-12 6z" fill="#e25252"/><path d="m60 35 4-2v-12l-4 2z" fill="#313a41"/><path d="m24 19h16a8 8 0 0 1 8 8 0 0 0 0 1 0 0h-32a0 0 0 0 1 0 0 8 8 0 0 1 8-8z" fill="#e25252"/><circle cx="21" cy="35" fill="#e25252" r="5"/><circle cx="21" cy="35" fill="#2d3e4f" r="2"/><circle cx="43" cy="35" fill="#e25252" r="5"/><circle cx="43" cy="35" fill="#2d3e4f" r="2"/><path d="m32 38a7 7 0 0 0 -7 7h14a7 7 0 0 0 -7-7z" fill="#e25252"/><g fill="#dbdddc"><circle cx="27" cy="29" r="1"/><circle cx="32" cy="29" r="1"/><circle cx="37" cy="29" r="1"/></g><path d="m33 19h-9a8 8 0 0 0 -8 8h-4l-8-4-4-2v12l4 2 8 4v6h21z" opacity=".3" mix-blend-mode="soft-light"/></g></g></svg>