<svg height="512" viewBox="0 0 64 64" width="512" xmlns="http://www.w3.org/2000/svg"><g isolation="isolate"><g id="_18" data-name="18"><path d="m38.4 11.83v-5.16a6.58 6.58 0 0 0 -6.2-6.67 6.4 6.4 0 0 0 -6.6 6.4v5.43a20 20 0 0 0 -12.8 18.84v14.73a9.08 9.08 0 0 0 2.13 5.85l9 10.74a5.65 5.65 0 0 0 4.32 2h7.54a5.65 5.65 0 0 0 4.32-2l9-10.74a9.08 9.08 0 0 0 2.09-5.85v-14.73a20 20 0 0 0 -12.8-18.84z" fill="#dcdedd"/><circle cx="32" cy="6.4" fill="#2d3e4f" r="3.2"/><circle cx="32" cy="27.73" fill="#c64238" r="1.07"/><path d="m8.8 29.87h4a0 0 0 0 1 0 0v12.8a0 0 0 0 1 0 0h-4a2.4 2.4 0 0 1 -2.4-2.4v-8a2.4 2.4 0 0 1 2.4-2.4z" fill="#c2cace"/><path d="m53.6 29.87h4a0 0 0 0 1 0 0v12.8a0 0 0 0 1 0 0h-4a2.4 2.4 0 0 1 -2.4-2.4v-8a2.4 2.4 0 0 1 2.4-2.4z" fill="#c2cace" transform="matrix(-1 0 0 -1 108.8 72.53)"/><circle cx="20.27" cy="36.27" fill="#fede6c" r="3.2"/><circle cx="43.73" cy="36.27" fill="#fede6c" r="3.2"/><path d="m23.47 51.2h17.07v6.4h-17.07z" fill="#c2cace"/><path d="m23.47 51.2h17.07v3.2h-17.07z" fill="#d1d1d1"/><path d="m6.4 37.33a5.33 5.33 0 0 1 -5.33-5.33v-12.53a14.16 14.16 0 0 1 14.14-14.14h10.39v2.14h-10.39a12 12 0 0 0 -12 12v12.53a3.21 3.21 0 0 0 3.2 3.2z" fill="#2d3e4f"/><path d="m57.6 37.33v-2.13a3.21 3.21 0 0 0 3.2-3.2v-12.53a12 12 0 0 0 -12-12h-10.4v-2.14h10.39a14.16 14.16 0 0 1 14.14 14.14v12.53a5.33 5.33 0 0 1 -5.33 5.33z" fill="#2d3e4f"/><path d="m32 0a6.4 6.4 0 0 0 -6.4 6.4v-1.07h-10.39a14.16 14.16 0 0 0 -14.14 14.14v12.53a5.33 5.33 0 0 0 5.33 5.33v2.93a2.41 2.41 0 0 0 2.4 2.41h4v2.73a9.08 9.08 0 0 0 2.13 5.85l9 10.74a5.65 5.65 0 0 0 4.32 2h3.75zm-6.4 11.83a20 20 0 0 0 -12.8 18.84v-.8h-4a2.4 2.4 0 0 0 -2.4 2.4v2.93a3.21 3.21 0 0 1 -3.2-3.2v-12.53a12 12 0 0 1 12-12h10.4z" opacity=".3" mix-blend-mode="soft-light"/></g></g></svg>