<svg height="512" viewBox="0 0 64 64" width="512" xmlns="http://www.w3.org/2000/svg"><g isolation="isolate"><g id="_19" data-name="19"><path d="m56.62 22.72v18.56a5.91 5.91 0 0 1 0 .6 22.69 22.69 0 0 1 -12.31 19.58 22.41 22.41 0 0 1 -10.41 2.54h-3.8a22.41 22.41 0 0 1 -10.41-2.54 22.69 22.69 0 0 1 -12.29-19.58 5.91 5.91 0 0 1 0-.6v-18.56a22.72 22.72 0 0 1 18.45-22.31 22 22 0 0 1 4.25-.41h3.8a22 22 0 0 1 4.25.41 22.72 22.72 0 0 1 18.47 22.31z" fill="#324d5b"/><path d="m2.46 24.62h4.92v14.77h-4.92z" fill="#2d3e4f"/><path d="m0 27.08h2.46v9.85h-2.46z" fill="#c2cace"/><path d="m56.62 24.62h4.92v14.77h-4.92z" fill="#2d3e4f" transform="matrix(-1 0 0 -1 118.15 64)"/><path d="m61.54 27.08h2.46v9.85h-2.46z" fill="#c2cace" transform="matrix(-1 0 0 -1 125.54 64)"/><path d="m19.69 55v6.43a22.69 22.69 0 0 1 -12.29-19.55 13.19 13.19 0 0 1 12.29 13.12z" fill="#d6dde1"/><path d="m56.6 41.88a22.69 22.69 0 0 1 -12.29 19.58v-6.46a13.19 13.19 0 0 1 12.29-13.12z" fill="#d6dde1"/><rect fill="#edeeef" height="12.31" rx="6.15" width="38.15" x="12.92" y="24.62"/><rect fill="#2d3e4f" height="4.92" rx="2.46" width="38.15" x="12.92" y="28.31"/><path d="m38.15.41v14.36h-12.3v-14.36a22 22 0 0 1 4.25-.41h3.8a22 22 0 0 1 4.25.41z" fill="#edeeef"/><path d="m32 0h-1.9a22 22 0 0 0 -4.25.41 22.72 22.72 0 0 0 -18.47 22.31v1.9h-4.92v2.46h-2.46v9.84h2.46v2.46h4.92v1.9a5.91 5.91 0 0 0 0 .6 22.69 22.69 0 0 0 12.31 19.58 22.41 22.41 0 0 0 10.41 2.54h1.9z" opacity=".3" mix-blend-mode="soft-light"/></g></g></svg>