<svg height="512" viewBox="0 0 64 64" width="512" xmlns="http://www.w3.org/2000/svg"><g isolation="isolate"><g id="_2" data-name="2"><g fill="#334d5c"><path d="m9.51 28h-7a2.51 2.51 0 0 0 -2.36 3.39l3.32 9.11a3.15 3.15 0 0 0 3 2.08h4.41v-14.58z"/><path d="m54.49 28h7a2.51 2.51 0 0 1 2.35 3.36l-3.31 9.14a3.15 3.15 0 0 1 -3 2.08h-4.37v-14.58z"/><path d="m57.91 28.63-10 35.11h-31.78l-5.33-18.66-4.71-16.45a12 12 0 0 1 -.42-4.41 26.45 26.45 0 0 1 52.66 0 12 12 0 0 1 -.42 4.41z"/></g><path d="m11.62 47.97 4.51 15.77h31.74l4.51-15.76-7.15-8.04h-26.46z" fill="#293949"/><rect fill="#de362b" height="5.29" rx="2.65" width="37.04" x="13.48" y="18.77"/><path d="m47.87 18.77h-31.74a2.66 2.66 0 0 0 -2.41 1.56 2.63 2.63 0 0 1 1.09-.23h31.74a2.65 2.65 0 0 1 2.45 3.73 2.65 2.65 0 0 0 -1.09-5.06z" fill="#bc2926"/><path d="m5.67 24.22a11.61 11.61 0 0 0 .33 3.78h-3.5a2.51 2.51 0 0 0 -2.35 3.39l3.32 9.11a3.15 3.15 0 0 0 3 2.08h3.65l.72 2.5 5.33 18.66h15.83v-63.48a26.44 26.44 0 0 0 -26.33 23.96z" opacity=".3" mix-blend-mode="soft-light"/></g></g></svg>