<svg height="512" viewBox="0 0 64 64" width="512" xmlns="http://www.w3.org/2000/svg"><g isolation="isolate"><g id="_20" data-name="20"><path d="m4 39-4-2v-4l4-2z" fill="#d6dde1"/><path d="m60 39 4-2v-4l-4-2z" fill="#d6dde1"/><rect fill="#388cb2" height="28" rx="2.97" width="48" x="8" y="21"/><path d="m4 29h4v12h-4z" fill="#286d7f"/><path d="m56 29h4v12h-4z" fill="#286d7f"/><path d="m56 29v16l-24-4-24 4v-16z" fill="#f2c84a"/><path d="m16.12 43.65 3.88 5.35h12v-8z" fill="#2d7791"/><path d="m47.88 43.65-3.88 5.35h-12v-8z" fill="#286d7f"/><path d="m29.33 15h5.33a3.33 3.33 0 0 1 3.34 3.33v2.67a0 0 0 0 1 0 0h-12a0 0 0 0 1 0 0v-2.67a3.33 3.33 0 0 1 3.33-3.33z" fill="#2d7791"/><path d="m32 15h-2.67a3.33 3.33 0 0 0 -3.33 3.33v2.67h-15a3 3 0 0 0 -3 3v5h-4v2l-4 2v4l4 2v2h4v5a3 3 0 0 0 3 3h21z" opacity=".3" mix-blend-mode="soft-light"/></g></g></svg>