<svg height="512" viewBox="0 0 64 64" width="512" xmlns="http://www.w3.org/2000/svg"><g isolation="isolate"><g id="_3" data-name="3"><circle cx="5.71" cy="34.29" fill="#f2c63d" r="5.71"/><path d="m9.14 27.43h-8l5.72 13.71h4.57v-13.71z" fill="#f8d563"/><circle cx="58.29" cy="34.29" fill="#f2c63d" r="5.71"/><path d="m54.86 27.43h8l-5.72 13.71h-4.57v-13.71z" fill="#f8d563"/><path d="m52.22 59.43h-40.44l-4.54-28.77a21.14 21.14 0 0 1 4.2-16.53 26.15 26.15 0 0 1 20.56-9.56 26.15 26.15 0 0 1 20.56 9.56 21.14 21.14 0 0 1 4.2 16.53z" fill="#fede6c"/><path d="m32 4.57a26.15 26.15 0 0 0 -20.56 9.56 20.89 20.89 0 0 0 -4.44 13.3h-5.86l1 2.42a5.69 5.69 0 0 0 3.57 10.15c.22 0 .43 0 .64-.06l.51 1.2h2l2.89 18.29h20.25z" opacity=".3" mix-blend-mode="soft-light"/><circle cx="32" cy="32" fill="#4e4d4e" r="10.29"/><circle cx="32" cy="32" fill="#5b5b5a" r="6.86"/><circle cx="35.43" cy="29.71" fill="#fff" opacity=".5" r="1.14"/></g></g></svg>