<svg height="512" viewBox="0 0 64 64" width="512" xmlns="http://www.w3.org/2000/svg"><g isolation="isolate"><g id="_4" data-name="4"><circle cx="12.91" cy="28.18" fill="#273644" r="8.91"/><circle cx="51.09" cy="28.18" fill="#273644" r="8.91"/><path d="m53.64 21.82v20.36a21.64 21.64 0 0 1 -43.28 0v-20.36a21.64 21.64 0 0 1 43.28 0z" fill="#e84c3d"/><path d="m53.64 42.18v-11.45h-43.28v11.45a21.64 21.64 0 0 0 43.28 0z" fill="#fae3dd"/><path d="m15.45 43.94v-13.21h-5.09v11.45a21.61 21.61 0 0 0 10.94 18.82 27 27 0 0 1 -5.85-17.06z" fill="#e84c3d"/><path d="m48.55 43.94v-13.21h5.09v11.45a21.61 21.61 0 0 1 -10.94 18.82 27 27 0 0 0 5.85-17.06z" fill="#e84c3d"/><rect fill="#314356" height="15.27" rx="7.64" width="48.36" x="7.82" y="20.55"/><path d="m37.24.82-5.24 12.09-5.24-12.09a21.77 21.77 0 0 1 10.48 0z" fill="#314356"/><rect fill="#e84c3d" height="5.09" rx="2.55" width="35.64" x="14.18" y="25.64"/><path d="m47.27 25.64h-30.54a2.53 2.53 0 0 0 -2.32 1.5 2.43 2.43 0 0 1 1-.23h30.59a2.55 2.55 0 0 1 2.55 2.54 2.6 2.6 0 0 1 -.23 1.05 2.54 2.54 0 0 0 -1-4.86z" fill="#dd2f26"/><rect fill="#f7d2cb" height="2.55" rx="1.27" width="16.55" x="24.36" y="49.82"/><path d="m26.76.82a21.63 21.63 0 0 0 -16.27 18.8 8.9 8.9 0 0 0 -.13 17.1v5.46c0 .67 0 1.32.1 2l.06.5c.06.59.15 1.18.26 1.75v.18c.13.6.28 1.19.46 1.77.05.19.12.38.18.57.15.46.31.9.49 1.34.07.17.13.34.2.5.21.49.44 1 .69 1.43.12.23.25.46.38.69s.35.59.54.89.45.69.69 1 .4.56.62.82.42.52.64.77l.46.51q.72.77 1.5 1.47l.23.2c.3.26.6.5.92.74l.37.28a21.5 21.5 0 0 0 12.85 4.23v-63.64a21.55 21.55 0 0 0 -5.24.64z" opacity=".3" mix-blend-mode="soft-light"/></g></g></svg>