<svg height="512" viewBox="0 0 64 64" width="512" xmlns="http://www.w3.org/2000/svg"><g isolation="isolate"><g id="_5" data-name="5"><circle cx="8.3" cy="30.81" fill="#d6dde1" r="8.3"/><circle cx="55.7" cy="30.81" fill="#d6dde1" r="8.3"/><path d="m32 9.48a26.07 26.07 0 0 1 26.07 26.08v7.11a0 0 0 0 1 0 0h-52.14a0 0 0 0 1 0 0v-7.11a26.07 26.07 0 0 1 26.07-26.08z" fill="#f7f7f7"/><path d="m17.19 42.67v11.85h-10.59a3 3 0 0 1 -3-3.05v-5.76a3 3 0 0 1 3-3z" fill="#d6dee1"/><path d="m17.19 42.67h14.81v11.85h-14.81z" fill="#f4f4f4"/><path d="m32 42.67h14.81v11.85h-14.81z" fill="#fff"/><path d="m60.44 45.71v5.76a3 3 0 0 1 -3 3.05h-10.63v-11.85h10.59a3 3 0 0 1 3.04 3.04z" fill="#d6dee1"/><circle cx="18.96" cy="28.44" fill="#e8e6e6" r="7.11"/><circle cx="18.96" cy="28.44" fill="#223440" r="4.74"/><circle cx="45.04" cy="28.44" fill="#e8e6e6" r="7.11"/><circle cx="45.04" cy="28.44" fill="#223440" r="4.74"/><circle cx="17.78" cy="27.26" fill="#fff" opacity=".5" r="1.19"/><circle cx="46.22" cy="27.26" fill="#fff" opacity=".5" r="1.19"/><path d="m32 9.48a26.05 26.05 0 0 0 -22.62 13.12 7.85 7.85 0 0 0 -1.08-.08 8.29 8.29 0 0 0 -2.37 16.24v3.91h.67a3 3 0 0 0 -3 3v5.76a3 3 0 0 0 3 3.05h25.4z" opacity=".3" mix-blend-mode="soft-light"/></g></g></svg>