<svg height="512" viewBox="0 0 64 64" width="512" xmlns="http://www.w3.org/2000/svg"><g isolation="isolate"><g id="_6" data-name="6"><path d="m14.1 63.85c-3.45-3.19-11.67-11.59-13.6-20.77a16.88 16.88 0 0 1 .31-9.21c.57-1.67 1.62-4.78 4.83-6.5a10.14 10.14 0 0 1 8.13-.4l-1.41 3.82a6.15 6.15 0 0 0 -4.8.17c-1.79 1-2.43 2.84-2.9 4.21a13 13 0 0 0 -.18 7.07c1.74 8.26 9.92 16.34 12.38 18.62z" fill="#374f67"/><path d="m10.06 23.18h8a0 0 0 0 1 0 0v10.82a0 0 0 0 1 0 0h-8a2.89 2.89 0 0 1 -2.89-2.89v-5.03a2.89 2.89 0 0 1 2.89-2.9z" fill="#e43c39"/><path d="m27.28.12h14a2.48 2.48 0 0 1 2.51 2.48v8.4a0 0 0 0 1 0 0h-19a0 0 0 0 1 0 0v-8.4a2.48 2.48 0 0 1 2.49-2.48z" fill="#e43c39"/><path d="m34.29 4.19a21.71 21.71 0 0 1 21.71 21.71v38a0 0 0 0 1 0 0h-43.41a0 0 0 0 1 0 0v-38a21.71 21.71 0 0 1 21.7-21.71z" fill="#ef6843"/><path d="m34.29 39.46a21.71 21.71 0 0 0 -21.7 21.71v2.71h43.41v-2.71a21.71 21.71 0 0 0 -21.71-21.71z" fill="#f5a00f"/><circle cx="34.29" cy="23.18" fill="#e43c39" r="9.5"/><path d="m34.29 63.88v-63.76h-7a2.48 2.48 0 0 0 -2.49 2.48v3.8a21.71 21.71 0 0 0 -12 16.78h-2.74a2.9 2.9 0 0 0 -2.9 2.9v.66a9.24 9.24 0 0 0 -1.52.63c-3.21 1.72-4.26 4.83-4.83 6.5a16.88 16.88 0 0 0 -.31 9.21c1.69 8 8.18 15.45 12.09 19.32v1.48zm-29.81-21.64a13 13 0 0 1 .18-7.07 7.33 7.33 0 0 1 2.51-4 2.88 2.88 0 0 0 2.89 2.83h2.53v22.45c-3.21-3.67-6.99-8.9-8.11-14.21z" opacity=".5" mix-blend-mode="soft-light"/><circle cx="34.29" cy="23.18" fill="#375067" r="6.78"/><circle cx="37.01" cy="21.83" fill="#fff" opacity=".5" r="1.36"/></g></g></svg>