<svg height="512" viewBox="0 0 64 64" width="512" xmlns="http://www.w3.org/2000/svg"><g isolation="isolate"><g id="_7" data-name="7"><circle cx="4.74" cy="30.81" fill="#262d31" r="4.74"/><path d="m7.11 24.75h-5.92l3.55 11.99h2.37z" fill="#313a41"/><circle cx="59.26" cy="30.81" fill="#262d31" r="4.74"/><path d="m56.89 24.75h5.92l-3.55 11.99h-2.37z" fill="#313a41"/><rect fill="#dcdedd" height="33.19" rx="5.15" width="52.15" x="5.93" y="15.41"/><rect fill="#313a41" height="30.17" rx="4.68" width="47.41" x="8.3" y="18.1"/><circle cx="18.96" cy="30.81" fill="#45525a" r="5.93"/><circle cx="45.04" cy="30.81" fill="#45525a" r="5.93"/><path d="m32 15.41h-20.92a5.14 5.14 0 0 0 -5.15 5.15v4.19h-4.74l.68 2.31a4.71 4.71 0 0 0 2.51 8.46l.36 1.22h1.19v6.7a5.14 5.14 0 0 0 5.15 5.15h20.92z" opacity=".3" mix-blend-mode="soft-light"/></g></g></svg>