<svg height="512" viewBox="0 0 64 64" width="512" xmlns="http://www.w3.org/2000/svg"><g isolation="isolate"><g id="_8" data-name="8"><rect fill="#388cb2" height="28" rx="1.62" width="50" x="7" y="22.5"/><path d="m7 39.5-7-2v-5l7-2z" fill="#e9e9e9"/><path d="m57 39.5 7-2v-5l-7-2z" fill="#e9e9e9"/><path d="m53 22.5c-4.68-5.45-12.34-9-21-9s-16.32 3.55-21 9z" fill="#4d91ae"/><path d="m26 37.07-15 3.43v-12h15z" fill="#df5a49"/><path d="m39 37.07 15 3.43v-12h-15z" fill="#df5a49"/><path d="m22 46.5h20v4h-20z" fill="#e9e9e9"/><path d="m32 13.5c-8.66 0-16.32 3.55-21 9h-2.38a1.61 1.61 0 0 0 -1.62 1.62v6.38l-7 2v5l7 2v9.38a1.61 1.61 0 0 0 1.62 1.62h23.38z" opacity=".3" mix-blend-mode="soft-light"/></g></g></svg>