<svg height="512" viewBox="0 0 64 64" width="512" xmlns="http://www.w3.org/2000/svg"><g isolation="isolate"><g id="_9" data-name="9"><rect fill="#f2766c" height="38.4" rx="4.51" width="51.2" x="6.4" y="19.2"/><path d="m6.4 40.53h-5.33l-1.07-12.8h6.4z" fill="#e25252"/><path d="m62.93 40.53h-5.33v-12.8h6.4z" fill="#e25252"/><g fill="#f2766c"><path d="m12.8 6.4a3.19 3.19 0 0 0 -1.07 6.2v6.6h2.14v-6.6a3.19 3.19 0 0 0 -1.07-6.2z"/><path d="m25.6 6.4a3.19 3.19 0 0 0 -1.07 6.2v6.6h2.14v-6.6a3.19 3.19 0 0 0 -1.07-6.2z"/><path d="m38.4 6.4a3.19 3.19 0 0 0 -1.07 6.2v6.6h2.14v-6.6a3.19 3.19 0 0 0 -1.07-6.2z"/><path d="m54.4 9.6a3.2 3.2 0 1 0 -4.27 3v6.6h2.14v-6.6a3.18 3.18 0 0 0 2.13-3z"/></g><path d="m16.53 24.53v4.27h13.87v17.07h3.2v-17.07h13.87v-4.27z" fill="#f3f2f0"/><path d="m19.2 53.33h25.6v4.27h-25.6z" fill="#f3f2f0"/><circle cx="18.13" cy="38.4" fill="#e25252" r="6.4"/><circle cx="18.13" cy="38.4" fill="#313a41" r="4.27"/><circle cx="45.87" cy="38.4" fill="#e25252" r="6.4"/><circle cx="45.87" cy="38.4" fill="#313a41" r="4.27"/><circle cx="19.2" cy="37.33" fill="#fff" opacity=".2" r="1.07"/><circle cx="44.8" cy="37.33" fill="#fff" opacity=".2" r="1.07"/><path d="m32 19.2h-5.33v-6.6a3.2 3.2 0 1 0 -2.14 0v6.6h-10.66v-6.6a3.2 3.2 0 1 0 -2.14 0v6.6h-.82a4.51 4.51 0 0 0 -4.51 4.51v4h-6.4l1.07 12.8h5.33v12.58a4.51 4.51 0 0 0 4.51 4.51h21.09z" opacity=".3" mix-blend-mode="soft-light"/></g></g></svg>