<svg id="Capa_1" enable-background="new 0 0 512 512" height="512" viewBox="0 0 512 512" width="512" xmlns="http://www.w3.org/2000/svg"><g><path d="m507.66 55.7-23.32 18.88c-22.92-28.33-56.94-44.58-93.34-44.58-50.76 0-96.35 33.28-113.46 82.81l-21.54-7.44-21.54 7.44c-17.11-49.53-62.7-82.81-113.46-82.81-36.4 0-70.42 16.25-93.34 44.58l-23.32-18.88c28.65-35.4 71.17-55.7 116.66-55.7 59.32 0 110.67 36.08 135 86.5 24.39-50.55 75.83-86.5 135-86.5 45.49 0 88.01 20.3 116.66 55.7z" fill="#deecf1"/><path d="m507.66 55.7-23.32 18.88c-22.92-28.33-56.94-44.58-93.34-44.58-50.76 0-96.35 33.28-113.46 82.81l-21.54-7.44v-18.87c24.39-50.55 75.83-86.5 135-86.5 45.49 0 88.01 20.3 116.66 55.7z" fill="#c6e2e7"/><path d="m136 92c-74.991 0-136 60.561-136 135v38.077l78.75 51.923-78.75 51.923v8.077c0 74.439 61.009 135 136 135 49.927 0 95.575-27.375 119.129-71.442v-277.116c-23.553-44.067-69.201-71.442-119.129-71.442z" fill="#ff7b4a"/><path d="m512 227c0-74.439-61.009-135-136-135-49.928 0-95.576 27.375-119.13 71.442v277.116c23.555 44.067 69.203 71.442 119.13 71.442 74.991 0 136-60.561 136-135v-8.077l-78.75-51.923 78.75-51.923z" fill="#ff435b"/><g><circle cx="256" cy="122" fill="#704c55" r="30"/></g><g><path d="m286 182v240c0 16.54-13.46 30-30 30-.29 0-.58 0-.87-.02-16.14-.46-29.13-13.73-29.13-29.98v-240c0-16.53 13.46-30 30-30s30 13.46 30 30z" fill="#704c55"/></g><g><path d="m136 242c-24.813 0-45-20.187-45-45s20.187-45 45-45 45 20.187 45 45-20.187 45-45 45z" fill="#ffdfea"/></g><g><path d="m376 242c-24.813 0-45-20.187-45-45s20.187-45 45-45 45 20.187 45 45-20.187 45-45 45z" fill="#ffbfbf"/></g><g><path d="m136 452c-24.813 0-45-20.187-45-45s20.187-45 45-45 45 20.187 45 45-20.187 45-45 45z" fill="#ffdfea"/></g><g><path d="m376 452c-24.813 0-45-20.187-45-45s20.187-45 45-45 45 20.187 45 45-20.187 45-45 45z" fill="#ffbfbf"/></g><g fill="#5b362a"><path d="m256 152v-60c16.54 0 30 13.46 30 30s-13.46 30-30 30z"/><path d="m286 182v240c0 16.54-13.46 30-30 30v-300c16.54 0 30 13.46 30 30z"/></g></g></svg>