<svg id="Capa_1" enable-background="new 0 0 512 512" height="512" viewBox="0 0 512 512" width="512" xmlns="http://www.w3.org/2000/svg"><g><g><g><g><path d="m351.23 496.06c-1.75.65-43.42 15.94-95.23 15.94s-93.48-15.29-95.23-15.94l10.46-87.12c.37.14 38.58 14.06 84.77 14.06 46.47 0 84.39-13.92 84.77-14.06z" fill="#704c55"/></g></g></g><path d="m351.23 496.06c-1.75.65-43.42 15.94-95.23 15.94v-89c46.47 0 84.39-13.92 84.77-14.06z" fill="#5b362a"/><path d="m421 0c-33.084 0-60 26.916-60 60v17c0 9.015-2.652 17.708-7.669 25.139l58.203 68.729c38.439-17.869 65.083-56.7 68.97-99.823h.496v-11.045c0-33.084-26.916-60-60-60z" fill="#38211a"/><path d="m151 77v-17c0-33.084-26.916-60-60-60s-60 26.916-60 60v11.046h.497c3.881 43.066 30.478 81.93 68.97 99.823l58.203-68.729c-5.018-7.432-7.67-16.125-7.67-25.14z" fill="#5b362a"/><path d="m421 167c0 23.45-11.31 45.6-30 59.69v35.56l-270-.16v-35.4c-18.69-14.09-30-36.24-30-59.69 0-32.23 20.53-60.46 50.66-70.76 24.62-39.78 67.87-64.24 114.34-64.24s89.72 24.46 114.34 64.24c30.13 10.3 50.66 38.53 50.66 70.76z" fill="#704c55"/><path d="m421 167c0 23.45-11.31 45.6-30 59.69v35.56l-135-.08v-230.17c46.47 0 89.72 24.46 114.34 64.24 30.13 10.3 50.66 38.53 50.66 70.76z" fill="#5b362a"/><path d="m91 437h75v75h-75z" fill="#ffe6b3"/><path d="m346 437h75v75h-75z" fill="#ffca80"/><g><path d="m151 152h30v30h-30z" fill="#5b362a"/></g><g><g><g><g><path d="m351.62 242.02-.39-.02-95.23.07-94.85.06-.77.02c-55.73 2.91-99.38 48.91-99.38 104.71v60.14c0 24.81 20.19 45 45 45h68.49c17.23 0 32.8-3.57 46.29-10.61 11.02-5.75 23.12-8.63 35.22-8.63s24.2 2.88 35.22 8.63c13.49 7.04 29.06 10.61 46.29 10.61h68.49c24.81 0 45-20.19 45-45v-54.91c0-56.91-42.82-107.11-99.38-110.07z" fill="#c86e59"/></g></g></g></g><path d="m451 352.09v54.91c0 24.81-20.19 45-45 45h-68.49c-17.23 0-32.8-3.57-46.29-10.61-11.02-5.75-23.12-8.63-35.22-8.63v-190.69l95.23-.07.39.02c56.56 2.96 99.38 53.16 99.38 110.07z" fill="#a34f3e"/><g><path d="m331 152h30v30h-30z" fill="#38211a"/></g><g><g><g><g><path d="m166 392c-24.813 0-45-20.187-45-45s20.187-45 45-45 45 20.187 45 45-20.187 45-45 45z" fill="#704c55"/></g></g></g></g><g><g><g><g><path d="m346 392c-24.813 0-45-20.187-45-45s20.187-45 45-45 45 20.187 45 45-20.187 45-45 45z" fill="#5b362a"/></g></g></g></g></g></svg>