<svg id="Capa_1" enable-background="new 0 0 512 512" height="512" viewBox="0 0 512 512" width="512" xmlns="http://www.w3.org/2000/svg"><g><g><g><g><path d="m354.96 419.03c-1.81 1.35-44.9 32.97-98.96 32.97-54.05 0-97.15-31.62-98.96-32.97l17.92-94.06c.34.25 37.16 27.03 81.04 27.03s80.7-26.78 81.07-27.05z" fill="#5b362a"/></g></g></g><path d="m354.96 419.03c-1.81 1.35-44.9 32.97-98.96 32.97v-100c43.88 0 80.7-26.78 81.07-27.05z" fill="#38211a"/><path d="m91 377v60c0 41.355 33.645 75 75 75v-135z" fill="#ffe6b3"/><path d="m346 377v135c41.355 0 75-33.645 75-75v-68.027z" fill="#ffca80"/><path d="m451 165c0 23.45-11.31 45.6-30 59.69v40.34h-330v-40.34c-18.69-14.09-30-36.24-30-59.69 0-29.91 17.82-56.61 45.01-68.46 26.31-57.66 84.1-96.54 149.99-96.54 65.97 0 123.71 38.95 149.99 96.54 27.19 11.85 45.01 38.55 45.01 68.46z" fill="#c78f2c"/><path d="m451 165c0 23.45-11.31 45.6-30 59.69v40.34h-165v-265.03c65.97 0 123.71 38.95 149.99 96.54 27.19 11.85 45.01 38.55 45.01 68.46z" fill="#9d7123"/><g><g><g><g><path d="m376 242h-23.78l-96.22 20-96.22-20h-23.78c-41.35 0-75 33.64-75 75s33.65 75 75 75h61.82c12.51 0 24.26-4.87 33.11-13.71l11.36-11.36c3.17-3.18 7.4-4.93 11.89-4.93h3.64c4.49 0 8.72 1.75 11.89 4.93l11.36 11.36c8.85 8.84 20.6 13.71 33.11 13.71h61.82c41.36 0 75-33.64 75-75s-33.64-75-75-75z" fill="#704c55"/></g></g></g></g><path d="m451 317c0 41.36-33.64 75-75 75h-61.82c-12.51 0-24.26-4.87-33.11-13.71l-11.36-11.36c-3.17-3.18-7.4-4.93-11.89-4.93h-1.82v-100l96.22-20h23.78c41.36 0 75 33.64 75 75z" fill="#5b362a"/><g><path d="m352.22 242-96.22 96.21-96.22-96.21z" fill="#5b362a"/><path d="m352.22 242-96.22 96.21v-96.21z" fill="#38211a"/></g><g><path d="m121 150h30v30h-30z" fill="#5b362a"/></g><g><path d="m361 150h30v30h-30z" fill="#38211a"/></g></g></svg>