<svg id="Capa_1" enable-background="new 0 0 512 512" height="512" viewBox="0 0 512 512" width="512" xmlns="http://www.w3.org/2000/svg"><g><g><path d="m241 315h30v197h-30z" fill="#ff435b"/></g><path d="m256 315h15v197h-15z" fill="#d0004f"/><g><path d="m512 165h-166c-41.355 0-75-33.645-75-75h166c41.355 0 75 33.645 75 75z" fill="#efe2dd"/></g><g><g><g><g><path d="m512 285h-166c-41.355 0-75-33.645-75-75h166c41.355 0 75 33.645 75 75z" fill="#efe2dd"/></g></g></g></g><g><g><path d="m166 165h-166c0-41.355 33.645-75 75-75h166c0 41.355-33.645 75-75 75z" fill="#fff5f5"/></g></g><g><g><path d="m166 285h-166c0-41.355 33.645-75 75-75h166c0 41.355-33.645 75-75 75z" fill="#fff5f5"/></g></g><g><path d="m256 54c-24.81 0-45 20.19-45 45v186c0 24.81 20.19 45 45 45s45-20.19 45-45v-186c0-24.81-20.19-45-45-45z" fill="#ff7b4a"/></g><path d="m301 99v186c0 24.81-20.19 45-45 45v-276c24.81 0 45 20.19 45 45z" fill="#ff435b"/><g><circle cx="226" cy="30" fill="#704c55" r="30"/></g><g><circle cx="286" cy="30" fill="#5b362a" r="30"/></g></g></svg>