<svg id="Capa_1" enable-background="new 0 0 512 512" height="512" viewBox="0 0 512 512" width="512" xmlns="http://www.w3.org/2000/svg"><g><path d="m391 0c-33.084 0-60 26.916-60 60v15c0 1.682-.093 3.371-.275 5.019l51.536 88.508c20.259-9.583 37.408-24.619 49.596-43.481 10.522-16.286 16.877-34.767 18.64-54.001h.503v-11.045c0-33.084-26.916-60-60-60z" fill="#607882"/><path d="m181 75v-15c0-33.084-26.916-60-60-60s-60 26.916-60 60v11.046h.515c3.923 42.014 29.997 79.587 68.659 97.686l53.385-78.725c-1.698-4.802-2.559-9.851-2.559-15.007z" fill="#87a0af"/><g><path d="m391 165.31v-.31c0-57.9-47.1-105-105-105h-60c-57.9 0-105 47.1-105 105v.31c-18.69 14.09-30 36.24-30 59.69s11.31 45.6 30 59.69v92.31c0 40.59 23.81 77.4 60.23 94.6 2.32 22.66 21.51 40.4 44.77 40.4h60c23.26 0 42.45-17.74 44.77-40.4 36.42-17.2 60.23-54.01 60.23-94.6v-92.31c18.69-14.09 30-36.24 30-59.69s-11.31-45.6-30-59.69z" fill="#b4d2d7"/></g><path d="m421 225c0 23.45-11.31 45.6-30 59.69v92.31c0 40.59-23.81 77.4-60.23 94.6-2.32 22.66-21.51 40.4-44.77 40.4h-30v-452h30c57.9 0 105 47.1 105 105v.31c18.69 14.09 30 36.24 30 59.69z" fill="#87a0af"/><g><path d="m241 422h-30c0-16.542-13.458-30-30-30v-30c33.084 0 60 26.916 60 60z" fill="#474f54"/></g><g><path d="m301 422h-30c0-33.084 26.916-60 60-60v30c-16.542 0-30 13.458-30 30z" fill="#32393f"/></g><g><path d="m151 210h30v30h-30z" fill="#474f54"/></g><g><path d="m331 210h30v30h-30z" fill="#32393f"/></g><g><path d="m299.59 305.79-43.59-171.78-43.57 171.71c-.95 3.67-1.43 7.46-1.43 11.28 0 24.81 20.19 45 45 45s45-20.19 45-45c0-3.82-.48-7.61-1.41-11.21z" fill="#fff5f5"/></g><path d="m301 317c0 24.81-20.19 45-45 45v-227.99l43.59 171.78c.93 3.6 1.41 7.39 1.41 11.21z" fill="#e1d3ce"/></g></svg>