<svg id="Capa_1" enable-background="new 0 0 512 512" height="512" viewBox="0 0 512 512" width="512" xmlns="http://www.w3.org/2000/svg"><g><g><path d="m416.812 182h-78.839v-30h57.215l27.702-83.103 32.504-32.504 21.212 21.214-27.496 27.496z" fill="#5b362a"/></g><g><path d="m455.394 357.607-32.504-32.504-27.702-83.103h-49.188v-30h70.812l32.298 96.897 27.496 27.496z" fill="#5b362a"/></g><g><path d="m391 512h-30v-47.434l26.656-79.968-48.364-24.181 13.416-26.834 71.636 35.819-33.344 100.032z" fill="#5b362a"/></g><g><path d="m56.606 357.607-21.212-21.214 27.496-27.496 32.298-96.897h70.812v30h-49.188l-27.702 83.103z" fill="#704c55"/></g><g><path d="m174.027 182h-78.839l-32.298-96.897-27.496-27.496 21.212-21.214 32.504 32.504 27.702 83.103h57.215z" fill="#704c55"/></g><g><path d="m151 512h-30v-42.566l-33.344-100.032 71.636-35.819 13.416 26.834-48.364 24.181 26.656 79.968z" fill="#704c55"/></g><g><path d="m391 0v30h-75c-24.81 0-45 20.19-45 45h-30c0-24.81-20.19-45-45-45h-75v-30h75c24.51 0 46.31 11.81 60 30.05 13.69-18.24 35.49-30.05 60-30.05z" fill="#5b362a"/></g><path d="m391 0v30h-75c-24.81 0-45 20.19-45 45h-15v-44.95c13.69-18.24 35.49-30.05 60-30.05z" fill="#38211a"/><path d="m301 107v30h-90v-30c0-24.81 20.19-45 45-45s45 20.19 45 45z" fill="#59c36a"/><path d="m301 107v30h-45v-75c24.81 0 45 20.19 45 45z" fill="#00a66c"/><path d="m361 197v150c0 57.9-47.1 105-105 105s-105-47.1-105-105v-150l75-10h60z" fill="#59c36a"/><path d="m361 197v150c0 57.9-47.1 105-105 105v-265h30z" fill="#00a66c"/><path d="m361 197h-75c0 16.57-13.43 30-30 30s-30-13.43-30-30h-75c0-41.36 33.65-75 75-75h60c41.35 0 75 33.64 75 75z" fill="#97de3d"/><path d="m361 197h-75c0 16.57-13.43 30-30 30v-105h30c41.35 0 75 33.64 75 75z" fill="#59c36a"/></g></svg>