<svg id="Capa_1" enable-background="new 0 0 512 512" height="512" viewBox="0 0 512 512" width="512" xmlns="http://www.w3.org/2000/svg"><g><path d="m105 0c-57.897 0-105 47.103-105 105 0 18.103 5.703 32.08 8.372 42.951 8.51-1.589 25.858-12.297 47.194-2.303l-29.699 29.698c7.554 4.764 32.423 34.654 79.133 34.654 5.265 0 10.558-.395 15.732-1.173l89.016-96.498c.167-2.42.252-4.886.252-7.33 0-57.896-47.103-104.999-105-104.999z" fill="#87a0af"/><path d="m407 0c-57.897 0-105 47.103-105 105 0 2.436.085 4.9.252 7.326l89.017 96.501c5.173.778 10.466 1.173 15.731 1.173 46.724 0 71.97-30.137 79.132-34.654l-29.698-29.698c21.34-9.996 38.683.714 47.195 2.303 2.737-11.148 8.371-24.905 8.371-42.951 0-57.897-47.103-105-105-105z" fill="#607882"/><g><g><g><g><path d="m405.82 188.47c-21.51-64.03-66.83-96.47-134.82-96.47h-30c-67.99 0-113.31 32.44-134.82 96.47-27.33 11.78-45.18 38.4-45.18 68.53 0 23.57 11.41 45.8 30.26 59.88 2.73 110.92 38.82 195.12 149.74 195.12h30c110.95 0 147.01-84.26 149.74-195.12 18.85-14.08 30.26-36.31 30.26-59.88 0-30.13-17.85-56.75-45.18-68.53z" fill="#b4d2d7"/></g></g></g></g><path d="m451 257c0 23.57-11.41 45.8-30.26 59.88-2.73 110.86-38.79 195.12-149.74 195.12h-15v-420h15c67.99 0 113.31 32.44 134.82 96.47 27.33 11.78 45.18 38.4 45.18 68.53z" fill="#87a0af"/><path d="m321.01 443.43c-16.04 5.69-32.87 8.57-50.01 8.57h-30c-17.14 0-33.97-2.88-50.01-8.57l10.02-28.28c12.82 4.55 26.27 6.85 39.99 6.85v-45h30v45c13.72 0 27.17-2.3 39.99-6.85z" fill="#474f54"/><path d="m321.01 443.43c-16.04 5.69-32.87 8.57-50.01 8.57h-15v-75h15v45c13.72 0 27.17-2.3 39.99-6.85z" fill="#32393f"/><g><path d="m361 242h30v30h-30z" fill="#32393f"/></g><g><path d="m121 242h30v30h-30z" fill="#474f54"/></g><g><path d="m256 212c-45.54 0-75 74.26-75 120 0 48.57 30.09 60 75 60 44.44 0 75-11.1 75-60 0-45.69-29.43-120-75-120z" fill="#474f54"/></g><path d="m331 332c0 48.9-30.56 60-75 60v-180c45.57 0 75 74.31 75 120z" fill="#32393f"/></g></svg>