<svg id="Capa_1" enable-background="new 0 0 512 512" height="512" viewBox="0 0 512 512" width="512" xmlns="http://www.w3.org/2000/svg"><g><path d="m126.976 11.979c-10.447-7.837-22.887-11.979-35.976-11.979-33.084 0-60 26.916-60 60 0 27.055 18.225 50.875 44.318 57.926l35.966 9.719 54.141-86.829z" fill="#754727"/><path d="m421 0c-13.089 0-25.529 4.142-35.975 11.978l-38.45 28.838 54.141 86.829 35.966-9.719c26.093-7.051 44.318-30.871 44.318-57.926 0-33.084-26.916-60-60-60z" fill="#754727"/><path d="m256 0c-90.98 0-165 74.02-165 165v30c0 65.779 38.694 123.667 96.298 150.054 3.548 18.555 8.552 36.725 14.982 54.156-12.95 7.87-21.28 21.87-21.28 37.79v30c0 24.81 20.19 45 45 45 11.51 0 22.03-4.35 30-11.49 7.97 7.14 18.49 11.49 30 11.49 24.81 0 45-20.19 45-45v-30c0-15.92-8.33-29.92-21.28-37.79 6.43-17.432 11.434-35.602 14.982-54.156 57.561-26.369 96.298-84.23 96.298-150.054v-30c0-90.98-74.02-165-165-165z" fill="#c78f2c"/><path d="m256 0v500.51c7.97 7.14 18.49 11.49 30 11.49 24.81 0 45-20.19 45-45v-30c0-15.92-8.33-29.92-21.28-37.79 6.43-17.432 11.434-35.602 14.982-54.156 57.561-26.369 96.298-84.23 96.298-150.054v-30c0-90.98-74.02-165-165-165z" fill="#9d7123"/><g><path d="m181 150h30v30h-30z" fill="#5b362a"/></g><g><path d="m301 150h30v30h-30z" fill="#38211a"/></g></g></svg>