<svg id="Capa_1" enable-background="new 0 0 512 512" height="512" viewBox="0 0 512 512" width="512" xmlns="http://www.w3.org/2000/svg"><g><g><path d="m391 86.57v-11.57c0-41.35-33.65-75-75-75h-120c-41.35 0-75 33.65-75 75v11.57c-38.21 36.74-60 87.54-60 140.43v180c0 57.9 47.1 105 105 105h180c57.9 0 105-47.1 105-105v-180c0-52.89-21.79-103.69-60-140.43z" fill="#474f54"/></g><path d="m451 227v180c0 57.9-47.1 105-105 105h-90v-512h60c41.35 0 75 33.65 75 75v11.57c38.21 36.74 60 87.54 60 140.43z" fill="#32393f"/><g><path d="m328.49 153.02c-28.05-4.57-55.75 6.68-72.49 28.97-16.73-22.27-44.41-33.54-72.49-28.97-35.63 5.79-62.51 38.98-62.51 77.19v89.68l30 75v12.11c0 24.81 20.19 45 45 45h120c24.81 0 45-20.19 45-45v-12.11l30-75v-89.68c0-38.21-26.88-71.4-62.51-77.19z" fill="#b4d2d7"/></g><path d="m391 230.21v89.68l-30 75v12.11c0 24.81-20.19 45-45 45h-60v-270.01c16.74-22.29 44.44-33.54 72.49-28.97 35.63 5.79 62.51 38.98 62.51 77.19z" fill="#87a0af"/><g><path d="m181 212h30v30h-30z" fill="#474f54"/></g><g><path d="m301 212h30v30h-30z" fill="#32393f"/></g><g><path d="m317.82 348.82-8.79 8.79-21.21-21.22 8.78-8.79c5.87-5.86 5.87-15.34 0-21.2-5.86-5.87-15.34-5.87-21.2 0l-19.4 19.39-19.4-19.39c-5.86-5.87-15.34-5.87-21.2 0-5.87 5.86-5.87 15.34 0 21.2l8.78 8.79-21.21 21.22-8.79-8.79c-17.59-17.59-17.59-46.05 0-63.64 16.95-16.95 44.17-17.52 61.82-1.72 17.65-15.8 44.87-15.23 61.82 1.72 17.59 17.59 17.59 46.05 0 63.64z" fill="#87a0af"/></g><path d="m317.82 348.82-8.79 8.79-21.21-21.22 8.78-8.79c5.87-5.86 5.87-15.34 0-21.2-5.86-5.87-15.34-5.87-21.2 0l-19.4 19.39v-42.33c17.65-15.8 44.87-15.23 61.82 1.72 17.59 17.59 17.59 46.05 0 63.64z" fill="#607882"/><g><g><path d="m351.23 377.94-10.46 28.12c-.37-.14-38.58-14.06-84.77-14.06-46.47 0-84.39 13.92-84.77 14.06l-10.46-28.12c1.75-.65 43.42-15.94 95.23-15.94s93.48 15.29 95.23 15.94z" fill="#474f54"/></g></g><path d="m351.23 377.94-10.46 28.12c-.37-.14-38.58-14.06-84.77-14.06v-30c51.81 0 93.48 15.29 95.23 15.94z" fill="#32393f"/></g></svg>