<svg id="Capa_1" enable-background="new 0 0 512 512" height="512" viewBox="0 0 512 512" width="512" xmlns="http://www.w3.org/2000/svg"><g><path d="m485.63 361c-36.99 53.79-104.31 75-169.63 75h-120c-65.35 0-132.65-21.22-169.63-75l52.7-14.5c27.17 0 53.22-10.79 72.43-30s45.26-30 72.43-30h62.07c27.17 0 53.22 10.79 72.43 30s45.26 30 72.42 30z" fill="#59c36a"/><path d="m485.63 361c-36.99 53.79-104.31 75-169.63 75h-60v-149.5h30c27.17 0 53.22 10.79 72.43 30s45.26 30 72.42 30z" fill="#00a66c"/><path d="m512 271c0 34.31-9.01 64.76-26.37 90h-67.2c-27.17 0-53.22-10.79-72.43-30s-45.26-30-72.43-30h-35.14c-27.17 0-53.22 10.79-72.43 30s-45.26 30-72.43 30h-67.2c-17.36-25.24-26.37-55.69-26.37-90 0-42.46 27.75-113.86 71.25-129.11l116.52-20.28c23.05-10.36 46.01-15.61 68.23-15.61s45.18 5.25 68.23 15.61l116.52 20.28c43.5 15.25 71.25 86.65 71.25 129.11z" fill="#97de3d"/><path d="m512 271c0 34.31-9.01 64.76-26.37 90h-67.2c-27.17 0-53.22-10.79-72.43-30s-45.26-30-72.43-30h-17.57v-195c22.22 0 45.18 5.25 68.23 15.61l116.52 20.28c43.5 15.25 71.25 86.65 71.25 129.11z" fill="#59c36a"/><g><path d="m136 226c-41.355 0-75-33.645-75-75s33.645-75 75-75 75 33.645 75 75-33.645 75-75 75z" fill="#fff261"/></g><g><path d="m121 136h30v30h-30z" fill="#5b362a"/></g><g><g><g><g><path d="m376 226c-41.355 0-75-33.645-75-75s33.645-75 75-75 75 33.645 75 75-33.645 75-75 75z" fill="#fabe2c"/></g></g></g></g><g><path d="m361 136h30v30h-30z" fill="#38211a"/></g><g><g><g><path d="m211 226h30v30h-30z" fill="#59c36a"/></g></g></g><g><path d="m271 226h30v30h-30z" fill="#00a66c"/></g></g></svg>