<svg id="Capa_1" enable-background="new 0 0 512 512" height="512" viewBox="0 0 512 512" width="512" xmlns="http://www.w3.org/2000/svg"><g><path d="m106 0h-45v105c0 38.229 20.806 73.469 54.299 91.967l113.984-117.052c-21.721-48.547-70.112-79.915-123.283-79.915z" fill="#a34f3e"/><path d="m406 0c-53.17 0-101.562 31.368-123.283 79.915l113.983 117.053c33.493-18.499 54.3-53.738 54.3-91.968v-105z" fill="#873f2e"/><g><path d="m372.63 155.15c-30.55-62.29-70.78-95.15-116.63-95.15s-86.08 32.86-116.63 95.15c-44.03 16.75-62.5 69.89-36.33 110.18-7.67 37.13-12.04 77.45-12.04 111.67 0 126.98 59.75 135 165 135 108.29 0 165-10.08 165-135 0-34.22-4.37-74.54-12.04-111.67 26.18-40.3 7.69-93.43-36.33-110.18z" fill="#c86e59"/></g><path d="m408.96 265.33c7.67 37.13 12.04 77.45 12.04 111.67 0 124.92-56.71 135-165 135v-452c45.85 0 86.08 32.86 116.63 95.15 44.02 16.75 62.51 69.88 36.33 110.18z" fill="#a34f3e"/><g><path d="m151 210h30v30h-30z" fill="#5b362a"/></g><g><path d="m169.979 362h-63.979c-41.355 0-75-33.645-75-75h30c0 24.813 20.187 45 45 45h63.979z" fill="#ffe6b3"/></g><g><path d="m406 362h-63.979v-30h63.979c24.813 0 45-20.187 45-45h30c0 41.355-33.645 75-75 75z" fill="#ffca80"/></g><g><path d="m331 210h30v30h-30z" fill="#38211a"/></g><g><path d="m312.02 302h-112.04c-27.09 0-48 23.77-44.65 50.58l7.5 60c2.81 22.47 22.01 39.42 44.65 39.42h97.04c22.64 0 41.84-16.95 44.65-39.42l7.5-60c3.36-26.88-17.64-50.58-44.65-50.58z" fill="#ffa7b3"/></g><path d="m356.67 352.58-7.5 60c-2.81 22.47-22.01 39.42-44.65 39.42h-48.52v-150h56.02c27.01 0 48.01 23.7 44.65 50.58z" fill="#ff8596"/><g><path d="m211 362h30v30h-30z" fill="#5b362a"/></g><g><path d="m271 362h30v30h-30z" fill="#38211a"/></g></g></svg>