<svg id="Capa_1" enable-background="new 0 0 512 512" height="512" viewBox="0 0 512 512" width="512" xmlns="http://www.w3.org/2000/svg"><g><path d="m121 0c-49.626 0-90 40.374-90 90 0 40.695 27.429 76.451 66.703 86.952l113.123-92.585c-2.93-47.309-42.386-84.367-89.826-84.367z" fill="#474f54"/><path d="m391 0c-47.44 0-86.896 37.058-89.826 84.367l113.123 92.585c39.274-10.501 66.703-46.257 66.703-86.952 0-49.626-40.374-90-90-90z" fill="#32393f"/><g><g><path d="m256 60c-107.52 0-195 87.48-195 195v62c0 107.52 87.48 195 195 195s195-87.48 195-195v-62c0-107.52-87.48-195-195-195z" fill="#575f64"/></g></g><path d="m451 255v62c0 107.52-87.48 195-195 195v-452c107.52 0 195 87.48 195 195z" fill="#474f54"/><g><g><g><g><path d="m256 272c-57.9 0-105 53.83-105 120s47.1 120 105 120 105-53.83 105-120-47.1-120-105-120z" fill="#ffe1ba"/></g></g></g></g><path d="m361 392c0 66.17-47.1 120-105 120v-240c57.9 0 105 53.83 105 120z" fill="#ffbfab"/><g><path d="m121 242h30v30h-30z" fill="#474f54"/></g><g><path d="m361 242h30v30h-30z" fill="#32393f"/></g><g><g><g><g><path d="m271 414v23h-30v-23l15-4z" fill="#474f54"/></g></g></g><path d="m271 414v23h-15v-27z" fill="#32393f"/><g><g><g><g><path d="m256 334.57c-28.66 0-42.73 19.6-45 21.22v10.85c0 12.74 5.43 24.93 14.9 33.45l15.1 13.91h30l15.1-13.91c9.47-8.52 14.9-20.71 14.9-33.45v-10.85c-2.25-1.61-16.35-21.22-45-21.22z" fill="#474f54"/></g></g></g></g><path d="m301 355.79v10.85c0 12.74-5.43 24.93-14.9 33.45l-15.1 13.91h-15v-79.43c28.65 0 42.75 19.61 45 21.22z" fill="#32393f"/></g></g></svg>