<svg id="Capa_1" enable-background="new 0 0 512 512" height="512" viewBox="0 0 512 512" width="512" xmlns="http://www.w3.org/2000/svg"><g><path d="m136 0c-75.333 0-136 90.86-136 165 0 66.729 49.57 105 136 105l67.011-244.926c-20.8-16.404-43.971-25.074-67.011-25.074z" fill="#9d7123"/><path d="m416.606 364.394c-16.512-16.513-25.606-38.468-25.606-61.82v-85.8l-87.736 90.002c10.015 47.452 52.15 83.224 102.736 83.224h36.213z" fill="#ffca80"/><path d="m376 0c-23.04 0-46.211 8.67-67.011 25.074l67.808 244.925c85.923-.235 135.203-38.506 135.203-104.999 0-73.538-60.198-165-136-165z" fill="#754727"/><path d="m121 216.773v85.8c0 23.352-9.094 45.307-25.606 61.82l-25.607 25.607h36.213c50.251 0 92.657-35.469 102.736-83.225z" fill="#ffe6b3"/><g><g><g><g><path d="m379.23 97.95c-19.83-54.6-65.43-97.95-123.23-97.95-57.76 0-103.39 43.31-123.23 97.95-25.25 12.54-41.77 38.63-41.77 67.05s16.52 54.5 41.77 67.05c6.93 19.09 16.66 36.19 28.98 50.91 19.69 23.54 31.09 48.24 33.86 73.39l16.93 155.65h86.92l16.93-155.62c2.77-25.18 14.17-49.88 33.86-73.42 12.32-14.72 22.05-31.82 28.98-50.91 25.25-12.55 41.77-38.63 41.77-67.05s-16.52-54.51-41.77-67.05z" fill="#c78f2c"/></g></g></g></g><path d="m421 165c0 28.42-16.52 54.5-41.77 67.05-6.93 19.09-16.66 36.19-28.98 50.91-19.69 23.54-31.09 48.24-33.86 73.42l-16.93 155.62h-43.46v-512c57.8 0 103.4 43.35 123.23 97.95 25.25 12.54 41.77 38.63 41.77 67.05z" fill="#9d7123"/><g><path d="m151 150h30v30h-30z" fill="#474f54"/></g><g><path d="m331 150h30v30h-30z" fill="#32393f"/></g></g></svg>