<svg id="Capa_1" enable-background="new 0 0 512 512" height="512" viewBox="0 0 512 512" width="512" xmlns="http://www.w3.org/2000/svg"><g><path d="m76.001 0h-15v215.951l168.068-110.662c-24.934-61.794-84.96-105.289-153.068-105.289z" fill="#ff9100"/><path d="m436.001 0c-67.987 0-128.085 43.375-153.068 105.288l168.068 110.662v-215.95z" fill="#ff641a"/><path d="m211.351 452h-40.48c-85.87 0-122.92-62.62-135.03-90l13.93-15c70.6 0 133.55 41.86 161.58 105z" fill="#fff5f5"/><path d="m462.231 347c-70.6 0-133.55 41.86-161.58 105h40.48c86.98 0 123.4-62.61 135.19-90z" fill="#e1d3ce"/><path d="m481.001 349.43c-.02.02-1.39 4.92-4.68 12.57h-14.09c-61.94 0-118.03 35.85-144.97 90-2.9 5.82-5.45 11.85-7.65 18.08h-53.61l-53.62-.01c-2.19-6.22-4.74-12.26-7.64-18.07-26.94-54.15-83.02-90-144.97-90h-13.93c-3.38-7.65-4.82-12.55-4.84-12.57.01-1.52-.08-8.34.31-17.43 6.22-150.5 106.17-240 224.69-240 118.5 0 218.47 89.49 224.69 240 .38 8.97.3 15.87.31 17.43z" fill="#fabe2c"/><path d="m481.001 349.43c-.02.02-1.39 4.92-4.68 12.57h-14.09c-61.94 0-118.03 35.85-144.97 90-2.9 5.82-5.45 11.85-7.65 18.08h-53.61v-378.08c118.5 0 218.47 89.49 224.69 240 .38 8.97.3 15.87.31 17.43z" fill="#ff9100"/><g><path d="m211.001 302h-30c0-16.542-13.458-30-30-30v-30c33.084 0 60 26.916 60 60z" fill="#5b362a"/></g><g><path d="m331.001 302h-30c0-33.084 26.916-60 60-60v30c-16.542 0-30 13.458-30 30z" fill="#38211a"/></g><path d="m309.611 470.08c-1.07 3.05-2.07 6.14-2.97 9.28-5.49 19.22-23.28 32.64-43.27 32.64h-14.74c-19.99 0-37.78-13.42-43.27-32.64-.9-3.14-1.9-6.24-2.98-9.29 9.87-19.61 30.17-33.07 53.62-33.07s43.75 13.46 53.61 33.08z" fill="#704c55"/><path d="m309.611 470.08c-1.07 3.05-2.07 6.14-2.97 9.28-5.49 19.22-23.28 32.64-43.27 32.64h-7.37v-75c23.45 0 43.75 13.46 53.61 33.08z" fill="#5b362a"/></g></svg>