<svg id="Capa_1" enable-background="new 0 0 512 512" height="512" viewBox="0 0 512 512" width="512" xmlns="http://www.w3.org/2000/svg"><g><path d="m481 294.94c0 88.23-63.84 165.41-150.69 179.88-60.06 10.01-63.62 29.82-74.31 37.18-10.98-7.55-14-27.13-74.32-37.18-86.84-14.47-150.68-91.65-150.68-179.88.08-152.38-.18-143.3.23-150.84l56.75-110.45c26.97-21.7 60.92-33.65 95.59-33.65 26.6 0 51.85 8.78 72.43 24.97 20.58-16.19 45.83-24.97 72.43-24.97 34.67 0 68.62 11.95 95.59 33.65l56.75 110.45c.14 2.56.2 95.6.23 150.84z" fill="#ff9100"/><path d="m481 294.94c0 88.23-63.84 165.41-150.69 179.88-60.06 10.01-63.62 29.82-74.31 37.18v-487.03c20.58-16.19 45.83-24.97 72.43-24.97 34.67 0 68.62 11.95 95.59 33.65l56.75 110.45c.14 2.56.2 95.6.23 150.84z" fill="#ff641a"/><path d="m331 345v30c0 24.81-20.19 45-45 45h-60c-24.81 0-45-20.19-45-45v-30z" fill="#ffbfab"/><path d="m331 345v30c0 24.81-20.19 45-45 45h-30v-75z" fill="#f89580"/><g><path d="m378.77 155.88c-12.84-38.52-54.62-59.41-93.14-46.57-12.59 3.77-18.49 7.43-29.63 7.43s-17.04-3.66-29.63-7.43c-38.52-12.84-80.3 8.05-93.14 46.57-7.05 21.14-5.44 41.47 4.65 58.79 8.83 15.15 13.12 29.03 13.12 42.43v57.9c0 24.81 20.19 45 45 45h45l14.83-24.25.17.27 15 23.98h45c24.81 0 45-20.19 45-45v-61.5c0-12.05 3.9-24.56 12.26-39.39 10.4-18.43 12.25-38.02 5.51-58.23z" fill="#ffe1ba"/></g><path d="m373.26 214.11c-8.36 14.83-12.26 27.34-12.26 39.39v61.5c0 24.81-20.19 45-45 45h-45l-15-23.98v-219.28c11.14 0 17.04-3.66 29.63-7.43 38.52-12.84 80.3 8.05 93.14 46.57 6.74 20.21 4.89 39.8-5.51 58.23z" fill="#ffbfab"/><path d="m296.61 265.61-25.61 25.6v68.79h-30v-68.79l-25.61-25.6 21.22-21.22 19.39 19.4 19.39-19.4z" fill="#c86e59"/><path d="m296.61 265.61-25.61 25.6v68.79h-15v-96.21l19.39-19.4z" fill="#a34f3e"/><g><path d="m98.364 181.033-14.485-1.368c-38.256-3.612-67.879-35.81-67.879-74.665 0-41.355 33.645-75 75-75 27.512 0 52.772 15.026 65.925 39.214l6.984 12.845-12.662 7.311c-28.959 16.72-47.131 45.736-51.074 77.226z" fill="#ffe1ba"/></g><g><path d="m413.636 181.033-1.808-14.438c-4.05-32.333-22.81-60.907-51.075-77.225l-12.663-7.311 6.985-12.846c13.153-24.187 38.413-39.213 65.925-39.213 41.355 0 75 33.645 75 75 0 38.887-29.653 71.056-67.878 74.665z" fill="#ffbfab"/></g><g><path d="m172.708 148.042h30v67.082h-30z" fill="#5b362a" transform="matrix(.447 -.894 .894 .447 -58.651 268.268)"/></g><g><path d="m290.751 166.583h67.082v30h-67.082z" fill="#38211a" transform="matrix(.894 -.447 .447 .894 -46.97 164.198)"/></g></g></svg>