<svg id="Capa_1" enable-background="new 0 0 512 512" height="512" viewBox="0 0 512 512" width="512" xmlns="http://www.w3.org/2000/svg"><g><g><g><g><path d="m512 301v75h-512v-75c0-9.96.58-19.79 1.7-29.45l58.2-134.29c10.82-12.84 22.89-24.61 36.02-35.12l25.08 5.19-.22-22.77c18.64-11.61 38.89-20.88 60.33-27.43h149.76c21.44 6.54 41.7 15.82 60.36 27.43l-2.23 24.11 27.07-6.53c13.14 10.51 25.21 22.28 36.04 35.13l58.19 134.25c1.12 9.67 1.7 19.51 1.7 29.48z" fill="#c86e59"/></g></g></g><path d="m512 301v75h-256v-318.87h74.87c21.44 6.54 41.7 15.82 60.36 27.43l-2.23 24.11 27.07-6.53c13.14 10.51 25.21 22.28 36.04 35.13l58.19 134.25c1.12 9.67 1.7 19.51 1.7 29.48z" fill="#a34f3e"/><g><g><g><g><path d="m181 466h-181v-15c0-52.854 39.629-96.713 91-103.952v-16.048c0-24.813 20.187-45 45-45s45 20.187 45 45z" fill="#97de3d"/></g></g></g></g><g><g><g><g><path d="m512 466h-181v-135c0-24.813 20.187-45 45-45s45 20.187 45 45v16.048c51.371 7.239 91 51.097 91 103.952z" fill="#59c36a"/></g></g></g></g><path d="m256 136c-42.878 0-77.189-36.054-74.89-78.87 23.69-7.24 48.84-11.13 74.89-11.13 26.04 0 51.18 3.89 74.87 11.13 2.309 43.447-32.698 78.87-74.87 78.87z" fill="#704c55"/><path d="m256 136v-90c26.04 0 51.18 3.89 74.87 11.13 2.309 43.447-32.698 78.87-74.87 78.87z" fill="#5b362a"/><path d="m121 211c0 41.36-33.64 75-75 75-16.22 0-31.55-5.06-44.3-14.45 5.88-50.77 26.8-97.05 58.2-134.29 36.023 6.87 61.1 38.563 61.1 73.74z" fill="#704c55"/><path d="m510.3 271.52c-12.43 9.12-27.77 14.48-44.3 14.48-41.36 0-75-33.64-75-75 0-37.011 26.517-67.235 61.11-73.73 31.39 37.23 52.3 83.5 58.19 134.25z" fill="#5b362a"/><g><g><g><path d="m240.46 204.25-21.21 21.21-123.33-123.32c7.92-6.34 16.22-12.21 24.86-17.58z" fill="#704c55"/></g></g></g><g><g><g><path d="m416.07 102.14-123.32 123.32-21.21-21.21 119.69-119.69c8.63 5.37 16.93 11.24 24.84 17.58z" fill="#5b362a"/></g></g></g><path d="m361 301v30l-75 15-30 30-30-30-75-15v-30c0-57.9 47.1-105 105-105s105 47.1 105 105z" fill="#97de3d"/><path d="m361 301v30l-75 15-30 30v-180c57.9 0 105 47.1 105 105z" fill="#59c36a"/><g><g><path d="m211 256h30v30h-30z" fill="#5b362a"/></g></g><g><path d="m271 256h30v30h-30z" fill="#38211a"/></g><path d="m361 331c0 57.9-47.1 105-105 105s-105-47.1-105-105h75l30 30 30-30z" fill="#59c36a"/><path d="m361 331c0 57.9-47.1 105-105 105v-75l30-30z" fill="#00a66c"/></g></svg>