<svg id="Capa_1" enable-background="new 0 0 512 512" height="512" viewBox="0 0 512 512" width="512" xmlns="http://www.w3.org/2000/svg"><g><g><g><g><g><g><path d="m406 210h-46.755c-13.601-21.922-28.245-31.428-28.245-64.44v-25.56h150v15c0 41.355-33.645 75-75 75z" fill="#f89580"/></g></g></g></g></g><g><g><g><g><path d="m152.755 210h-46.755c-41.355 0-75-33.645-75-75v-15h150v25.56c0 33.101-14.792 42.756-28.245 64.44z" fill="#ffbfab"/></g></g></g></g><g><g><g><g><g><path d="m370.68 173.95c-6.24-6.62-9.68-16.7-9.68-28.39v-10.56h-30c0 8.27-6.73 15-15 15h-16.94c-1.918 2.128-12.226 30-43.06 30-31.002 0-41.05-27.77-43.06-30h-16.94c-8.27 0-15-6.73-15-15h-30v10.56c0 21.02-9.63 27.64-14.81 34.44h-.62c-1.9 4.13-14.57 19.49-14.57 45 0 19.03 7.22 37.16 20.32 51.05 6.24 6.62 9.68 16.7 9.68 28.39v97.47c0 58.2 44.94 110.04 105 110.09h.08c57.68 0 104.92-46.67 104.92-105v-102.56c0-11.69 3.44-21.77 9.67-28.39 13.11-13.89 20.33-32.02 20.33-51.05 0-18.55-6.94-36.88-20.32-51.05z" fill="#ffe1ba"/></g></g></g></g></g><g><path d="m391 225c0 19.03-7.22 37.16-20.33 51.05-6.23 6.62-9.67 16.7-9.67 28.39v102.56c0 58.33-47.24 105-104.92 105h-.08v-332c31.002 0 41.05-27.77 43.06-30h16.94c8.27 0 15-6.73 15-15h30v10.56c0 11.69 3.44 21.77 9.68 28.39 13.38 14.17 20.32 32.5 20.32 51.05z" fill="#ffbfab"/></g><g><g><g><g><g><path d="m359.07 61.93c-5.62-18.46-22.8-31.93-43.07-31.93h-.31c-14.09-18.69-36.24-30-59.69-30s-45.6 11.31-59.69 30h-.31c-20.27 0-37.45 13.47-43.07 31.93-18.46 5.62-31.93 22.8-31.93 43.07s13.47 37.45 31.93 43.07c5.62 18.46 22.8 31.93 43.07 31.93h.31c14.09 18.69 36.24 30 59.69 30s45.6-11.31 59.69-30h.31c20.27 0 37.45-13.47 43.07-31.93 18.46-5.62 31.93-22.8 31.93-43.07s-13.47-37.45-31.93-43.07z" fill="#fff5f5"/></g></g></g></g></g><g><g><g><path d="m391 105c0 20.27-13.47 37.45-31.93 43.07-5.62 18.46-22.8 31.93-43.07 31.93h-.31c-14.09 18.69-36.24 30-59.69 30v-210c23.45 0 45.6 11.31 59.69 30h.31c20.27 0 37.45 13.47 43.07 31.93 18.46 5.62 31.93 22.8 31.93 43.07z" fill="#e1d3ce"/></g></g></g><g><path d="m241 375h30v62h-30z" fill="#c86e59"/></g><path d="m256 375h15v62h-15z" fill="#a34f3e"/><g><g><path d="m181 210h30v30h-30z" fill="#575f64"/></g></g><g><g><path d="m301 210h30v30h-30z" fill="#474f54"/></g></g><g><path d="m211 422h90v30h-90z" fill="#c86e59"/></g><path d="m256 422h45v30h-45z" fill="#a34f3e"/><g><g><path d="m256 302.57c-28.66 0-42.73 19.6-45 21.22v10.85c0 12.74 5.43 24.93 14.9 33.45l15.1 13.91h30l15.1-13.91c9.47-8.52 14.9-20.71 14.9-33.45v-10.85c-2.25-1.61-16.35-21.22-45-21.22z" fill="#575f64"/></g><path d="m301 323.79v10.85c0 12.74-5.43 24.93-14.9 33.45l-15.1 13.91h-15v-79.43c28.65 0 42.75 19.61 45 21.22z" fill="#474f54"/></g></g></svg>