<svg id="Capa_1" enable-background="new 0 0 512 512" height="512" viewBox="0 0 512 512" width="512" xmlns="http://www.w3.org/2000/svg"><g><g><path d="m403.151 0c-11.414 0-22.473 4.091-31.139 11.52l-69.559 59.622 148.547 112.809v-136.102c0-26.384-21.465-47.849-47.849-47.849z" fill="#607882"/></g><g><g><g><path d="m139.988 11.52c-8.667-7.429-19.725-11.52-31.139-11.52-26.384 0-47.849 21.465-47.849 47.849v136.102l148.547-112.81z" fill="#87a0af"/></g></g></g><path d="m256 60c-124.57 0-225 97.88-225 255v6.16l89.72 90.72 12.78 2.94 55.41 66.01.02.02 30.81 31.15h72.52l30.81-31.15.01-.01 43.17-55.59 25.32-13.66.01-.01 89.42-90.42v-6.16c0-159.53-102.58-255-225-255z" fill="#b4d2d7"/><path d="m481 315v6.16l-89.42 90.42-.01.01-25.32 13.66-43.17 55.59-.01.01-30.81 31.15h-36.26v-452c122.42 0 225 95.47 225 255z" fill="#87a0af"/><path d="m383.039 265.403c-23.749-37.752-81.844-26.379-90.591 17.355-3.378 16.889 1.531 35.068 14.732 46.131 41.248 34.568 54.38 97.9 15.89 151.96l68.506-69.267c23.452-53.451 16.645-106.149-8.537-146.179z" fill="#474f54"/><path d="m204.82 328.89c13.201-11.063 18.084-29.37 14.706-46.259-8.748-43.74-66.843-55.1-90.598-17.346-25.248 40.127-31.995 93.005-8.212 146.592l68.214 68.972c-38.49-54.059-25.358-117.391 15.89-151.959z" fill="#575f64"/><g><path d="m151 270h30v30h-30z" fill="#474f54"/></g><g><path d="m331 270h30v30h-30z" fill="#32393f"/></g><g><g><path d="m271 442v23h-30v-23l15-4z" fill="#474f54"/></g><path d="m271 442v23h-15v-27z" fill="#32393f"/><g><path d="m256 362.57c-28.66 0-42.73 19.6-45 21.22v10.85c0 12.74 5.43 24.93 14.9 33.45l15.1 13.91h30l15.1-13.91c9.47-8.52 14.9-20.71 14.9-33.45v-10.85c-2.25-1.61-16.35-21.22-45-21.22z" fill="#474f54"/></g><path d="m301 383.79v10.85c0 12.74-5.43 24.93-14.9 33.45l-15.1 13.91h-15v-79.43c28.65 0 42.75 19.61 45 21.22z" fill="#32393f"/></g></g></svg>