<svg id="Capa_1" enable-background="new 0 0 512 512" height="512" viewBox="0 0 512 512" width="512" xmlns="http://www.w3.org/2000/svg"><g><path d="m451 122c-23.615 0-45.116 13.928-54.775 35.484l30.541 79.416c7.658 3.384 15.813 5.1 24.234 5.1 33.084 0 60-26.916 60-60s-26.916-60-60-60z" fill="#873f2e"/><path d="m61 122c-33.084 0-60 26.916-60 60s26.916 60 60 60c8.422 0 16.576-1.716 24.234-5.1l30.541-79.416c-9.659-21.555-31.159-35.484-54.775-35.484z" fill="#a34f3e"/><g><g><g><g><path d="m367.2 95.12c7.37-8.78 20.33-12.59 32.09-6.7l13.42-26.84c-35.35-17.67-74.68-22.95-112.82-15.47 12.82-10.25 28.9-16.11 46.11-16.11v-30h-30c-20.68 0-40.77 2.49-60 7.2-112.21 27.41-195 129.91-195 249.8v60c0 107.52 87.48 195 195 195s195-87.48 195-195v-60c0-64.79-31.79-125.58-83.8-161.88z" fill="#c86e59"/></g></g></g></g><path d="m451 257v60c0 107.52-87.48 195-195 195v-504.8c19.23-4.71 39.32-7.2 60-7.2h30v30c-17.21 0-33.29 5.86-46.11 16.11 38.14-7.48 77.47-2.2 112.82 15.47l-13.42 26.84c-11.76-5.89-24.72-2.08-32.09 6.7 52.01 36.3 83.8 97.09 83.8 161.88z" fill="#a34f3e"/><g><path d="m391 242c0-49.63-40.37-90-90-90-15.88 0-31.24 4.23-45 12.32-13.76-8.09-29.12-12.32-45-12.32-49.63 0-90 40.37-90 90 0 19.46 6.14 37.98 17.52 53.35-11.5 15.74-17.52 33.38-17.52 51.65 0 63.3 66.92 105 135 105 67.68 0 135-41.39 135-105 0-18.27-6.01-35.91-17.51-51.65 11.37-15.37 17.51-33.89 17.51-53.35z" fill="#ffe1ba"/></g><path d="m373.49 295.35c11.5 15.74 17.51 33.38 17.51 51.65 0 63.61-67.32 105-135 105v-287.68c13.76-8.09 29.12-12.32 45-12.32 49.63 0 90 40.37 90 90 0 19.46-6.14 37.98-17.51 53.35z" fill="#ffbfab"/><g><path d="m331 347c0 28.72-44.35 45-75 45-30.18 0-75-16.05-75-45h30c0-1.04-.21-1.67-.27-1.81 1.66 3.74 16.41 16.81 45.27 16.81s43.61-13.07 45.27-16.81c-.06.14-.27.77-.27 1.81z" fill="#c86e59"/></g><path d="m331 347c0 28.72-44.35 45-75 45v-30c28.86 0 43.61-13.07 45.27-16.81-.06.14-.27.77-.27 1.81z" fill="#a34f3e"/><g><path d="m181 212h30v30h-30z" fill="#5b362a"/></g><g><path d="m301 212h30v30h-30z" fill="#38211a"/></g><g><path d="m301 317h-30c0-8.27-6.73-15-15-15s-15 6.73-15 15h-30c0-24.81 20.19-45 45-45s45 20.19 45 45z" fill="#ffbfab"/></g><path d="m301 317h-30c0-8.27-6.73-15-15-15v-30c24.81 0 45 20.19 45 45z" fill="#f89580"/></g></svg>