<svg id="Capa_1" enable-background="new 0 0 512 512" height="512" viewBox="0 0 512 512" width="512" xmlns="http://www.w3.org/2000/svg"><g><g><path d="m421 135c0 41.35-33.64 75-75 75l-15-75 45-7.333z" fill="#d0004f"/></g><g><path d="m181 512h-30v-90l30-30c33.084 0 60 26.916 60 60s-26.916 60-60 60z" fill="#00a0aa"/></g><path d="m346 0-15 135h150c0-74.439-60.561-135-135-135z" fill="#ff435b"/><path d="m91 0v15c0 36.22 25.81 66.52 60 73.49v333.51c52.34 0 99.94-20.73 135-54.42l30-185.58-30-182z" fill="#00c8c8"/><path d="m346 150v77c0 55.18-23.04 105.08-60 140.58v-367.58z" fill="#fabe2c"/><path d="m346 0v150h-60c-41.36 0-75-33.65-75-75s33.64-75 75-75z" fill="#fff5f5"/><path d="m286 0h60v150h-60z" fill="#efe2dd"/><g><g><g><g><path d="m31 234.5v-22.5h255v22.5c0 70.416-57.084 127.5-127.5 127.5-70.416 0-127.5-57.084-127.5-127.5z" fill="#64e1dc"/></g></g></g></g><g><path d="m271 60h30v30h-30z" fill="#5b362a"/></g><path d="m286 60h15v30h-15z" fill="#38211a"/></g></svg>