<svg id="Capa_1" enable-background="new 0 0 512 512" height="512" viewBox="0 0 512 512" width="512" xmlns="http://www.w3.org/2000/svg"><g><path d="m140.172 11.68-.184-.161c-8.667-7.428-19.725-11.519-31.139-11.519-26.384 0-47.849 21.465-47.849 47.849v130.924l148.801-105.411z" fill="#87a0af"/><path d="m403.151 0c-11.414 0-22.474 4.091-31.14 11.52l-70.077 62.069 149.066 110.221v-135.961c0-26.384-21.465-47.849-47.849-47.849z" fill="#607882"/><g><g><g><g><path d="m256 62c-125.97-.04-225 102.46-225 225v225h195l30-14.67 30 14.67h195v-216.19c0-124.67-97.6-233.81-225-233.81z" fill="#b4d2d7"/></g></g></g></g><path d="m481 295.81v216.19h-195l-30-14.67v-435.33c127.4 0 225 109.14 225 233.81z" fill="#87a0af"/><path d="m331 428.5v38.5c0 24.81-20.19 45-45 45h-60c-24.81 0-45-20.19-45-45v-38.5z" fill="#e1d3ce"/><path d="m331 428.5v38.5c0 24.81-20.19 45-45 45h-30v-83.5z" fill="#cdbfba"/><path d="m391 281.03v-54.03c0-41.35-33.64-75-75-75-24.51 0-46.31 11.82-60 30.05-13.69-18.23-35.49-30.05-60-30.05-41.36 0-75 33.65-75 75v54.03c-19.39 21.57-30 49.17-30 78.4v41.84l60-30v20.73c0 33.08 26.92 60 60 60 17.91 0 34-7.9 45-20.38 11 12.48 27.09 20.38 45 20.38 33.08 0 60-26.92 60-60v-20.73l60 30v-41.84c0-29.23-10.61-56.83-30-78.4z" fill="#fff5f5"/><path d="m421 359.43v41.84l-60-30v20.73c0 33.08-26.92 60-60 60-17.91 0-34-7.9-45-20.38v-249.57c13.69-18.23 35.49-30.05 60-30.05 41.36 0 75 33.65 75 75v54.03c19.39 21.57 30 49.17 30 78.4z" fill="#e1d3ce"/><g><path d="m296.61 357.61-40.61 40.6-40.61-40.6 21.22-21.22 19.39 19.4 19.39-19.4z" fill="#474f54"/></g><path d="m296.61 357.61-40.61 40.6v-42.42l19.39-19.4z" fill="#32393f"/><g><path d="m181 242h30v30h-30z" fill="#474f54"/></g><g><path d="m301 242h30v30h-30z" fill="#32393f"/></g></g></svg>