<svg id="Capa_1" enable-background="new 0 0 512 512" height="512" viewBox="0 0 512 512" width="512" xmlns="http://www.w3.org/2000/svg"><g><path d="m449.28 205.13-48.92 246.56c-6.99 34.95-37.92 60.31-73.55 60.31h-141.62c-35.63 0-66.56-25.36-73.54-60.29l-48.93-246.58z" fill="#59c36a"/><path d="m449.28 205.13-48.92 246.56c-6.99 34.95-37.92 60.31-73.55 60.31h-70.81v-306.87z" fill="#00a66c"/><g><path d="m181 407h30v45h-30z" fill="#fff5f5"/></g><g><path d="m301 407h30v45h-30z" fill="#e1d3ce"/></g><g><path d="m241 407h30v45h-30z" fill="#fff5f5"/></g><path d="m256 407h15v45h-15z" fill="#e1d3ce"/><path d="m451 195v1.47l-1.72 8.66c-5.222 3.787-57.569 20.139-78.02 81.53l-36.67 111.8-3.59 10.54h-150l-8.84-26.55-31.44-95.85c-20.525-61.614-72.903-77.774-78-81.47l-1.72-8.66v-1.47c0-35.45 11.79-69.82 33.36-97.73-2.23-7.17-3.36-14.63-3.36-22.27 0-41.35 33.65-75 75-75 25.96 0 49.81 13.54 63.37 34.89 8.95-3.25 17.86-4.89 26.63-4.89s17.68 1.64 26.63 4.89c13.56-21.35 37.41-34.89 63.37-34.89 41.35 0 75 33.65 75 75 0 7.64-1.13 15.1-3.36 22.27 21.57 27.91 33.36 62.28 33.36 97.73z" fill="#97de3d"/><path d="m451 195v1.47l-1.72 8.66c-5.222 3.787-57.569 20.139-78.02 81.53l-36.67 111.8-3.59 10.54h-75v-379c8.77 0 17.68 1.64 26.63 4.89 13.56-21.35 37.41-34.89 63.37-34.89 41.35 0 75 33.65 75 75 0 7.64-1.13 15.1-3.36 22.27 21.57 27.91 33.36 62.28 33.36 97.73z" fill="#59c36a"/><g><path d="m151 60h30v30h-30z" fill="#5b362a"/></g><g><path d="m331 60h30v30h-30z" fill="#38211a"/></g><g><g><g><path d="m181 180h150v30h-150z" fill="#59c36a"/></g></g></g><g><g><g><path d="m211 240h90v30h-90z" fill="#59c36a"/></g></g></g><g fill="#00a66c"><path d="m256 240h45v30h-45z"/><path d="m256 180h75v30h-75z"/></g></g></svg>