<svg id="Capa_1" enable-background="new 0 0 512 512" height="512" viewBox="0 0 512 512" width="512" xmlns="http://www.w3.org/2000/svg"><g><path d="m391 197v150c0 58.97-16.03 105-75 105h-120c-58.97 0-75-46.03-75-105v-150c0-58.97 16.03-105 75-105h120c58.97 0 75 46.03 75 105z" fill="#64e1dc"/><path d="m391 197v150c0 58.97-16.03 105-75 105h-60v-360h60c58.97 0 75 46.03 75 105z" fill="#00c8c8"/><g><path d="m145.271 332h-39.271c-41.355 0-75-33.645-75-75s33.645-75 75-75h39.271l4.146 8.292c20.885 41.771 20.885 91.646 0 133.416z" fill="#ff7b4a"/></g><g><g><g><g><path d="m406 332h-39.271l-4.146-8.292c-20.885-41.771-20.885-91.646 0-133.416l4.146-8.292h39.271c41.355 0 75 33.645 75 75s-33.645 75-75 75z" fill="#ff435b"/></g></g></g></g><g><path d="m280.36 0h-48.72l-52.37 93.54 76.73 167 76.73-167.14z" fill="#00c8c8"/></g><path d="m332.73 93.4-76.73 167.14v-260.54h24.36z" fill="#00a0aa"/><g><path d="m91 242h30v30h-30z" fill="#5b362a"/></g><g><path d="m391 242h30v30h-30z" fill="#38211a"/></g><g><path d="m271 347v90c0 16.85-5.58 32.41-15 44.94-13.69 18.24-35.49 30.06-60 30.06h-120c-24.81 0-45-20.19-45-45s20.19-45 45-45h15v30h-15c-8.27 0-15 6.73-15 15s6.73 15 15 15h120c24.81 0 45-20.19 45-45v-90z" fill="#ff7b4a"/></g><path d="m271 347v90c0 16.85-5.58 32.41-15 44.94v-134.94z" fill="#ff435b"/><g><path d="m271 272h30v30h-30z" fill="#00a0aa"/></g><g><g><g><path d="m211 272h30v30h-30z" fill="#00c8c8"/></g></g></g><g><g><g><path d="m354.96 364.97-17.92 24.06c-.34-.25-37.16-27.03-81.04-27.03s-80.7 26.78-81.07 27.05l-17.89-24.08c1.81-1.35 44.91-32.97 98.96-32.97s97.15 31.62 98.96 32.97z" fill="#00c8c8"/></g></g></g><path d="m354.96 364.97-17.92 24.06c-.34-.25-37.16-27.03-81.04-27.03v-30c54.05 0 97.15 31.62 98.96 32.97z" fill="#00a0aa"/></g></svg>