<svg id="Capa_1" enable-background="new 0 0 512 512" height="512" viewBox="0 0 512 512" width="512" xmlns="http://www.w3.org/2000/svg"><g><path d="m76 32h-45v15c0 57.653 46.192 103.857 102.887 104.979l41.862-47.846c-14.209-43.145-54.295-72.133-99.749-72.133z" fill="#5b362a"/><path d="m436 32c-47.672 0-87.102 31.564-100.248 73.689l40.261 46.311c57.889-.007 104.987-47.11 104.987-105v-15z" fill="#38211a"/><path d="m414.81 272-98.81 15 87.01 15c-4.2 8.22-9.15 16.19-14.87 23.82-17.75 23.71-27.14 50.18-27.14 76.55v34.63c0 .6-.03 1.2-.05 1.8h-104.95l-104.95-.01c-.02-.6-.05-1.19-.05-1.79v-34.52c0-27-8.98-52.97-25.98-75.12-6.11-7.97-11.47-16.46-16-25.36l86.98-15-98.77-15c-8.45-29.74-8.11-61.2-.41-90l69.18-15-58.02-15c26.1-53.67 61.67-69.28 115.06-86.8l32.96.05 32.98.05c48.59 9.86 91.04 41.67 114 86.7l-56.98 15 68.73 15c8.27 29.2 8.44 60.42.08 90z" fill="#fff5f5"/><path d="m414.81 272-98.81 15 87.01 15c-4.2 8.22-9.15 16.19-14.87 23.82-17.75 23.71-27.14 50.18-27.14 76.55v34.63c0 .6-.03 1.2-.05 1.8h-104.95v-373.55l32.98.05c48.59 9.86 91.04 41.67 114 86.7l-56.98 15 68.73 15c8.27 29.2 8.44 60.42.08 90z" fill="#e1d3ce"/><path d="m360.95 438.8c-.84 35.41-26.33 64.84-59.95 71.69l-15-58.49-15 60h-30l-15-60-15 58.49c-33.63-6.85-59.12-36.28-59.95-71.7 20.48-36.85 59.8-61.79 104.95-61.79s84.47 24.94 104.95 61.8z" fill="#704c55"/><path d="m360.95 438.8c-.84 35.41-26.33 64.84-59.95 71.69l-15-58.49-15 60h-15v-135c45.15 0 84.47 24.94 104.95 61.8z" fill="#5b362a"/><g><g><g><g><path d="m211 0v143.21l45 45 45-45v-143.21z" fill="#704c55"/></g></g></g></g><path d="m301 0v143.21l-45 45v-188.21z" fill="#5b362a"/><g><path d="m196 272v30h-86.98c-4.91-9.59-8.86-19.64-11.79-30z" fill="#704c55"/></g><g><path d="m414.81 272c-2.9 10.25-6.83 20.3-11.8 30h-87.01v-30z" fill="#5b362a"/></g><g><path d="m166 152v30h-69.18c2.75-10.29 6.47-20.36 11.16-30z" fill="#704c55"/></g><g><path d="m414.73 182h-68.73v-30h56.98c4.91 9.64 8.84 19.69 11.75 30z" fill="#5b362a"/></g><g><path d="m241 452v60h-15c-5.14 0-10.16-.52-15-1.51v-58.49z" fill="#5b362a"/></g><g><path d="m301 452v58.49c-4.85.99-9.86 1.51-15 1.51h-15v-60z" fill="#38211a"/></g><g><path d="m151 212h30v30h-30z" fill="#5b362a"/></g><g><path d="m331 212h30v30h-30z" fill="#38211a"/></g><g><path d="m241 167h30v135h-30z" fill="#704c55"/></g><path d="m256 167h15v135h-15z" fill="#5b362a"/></g></svg>