<svg id="Capa_1" enable-background="new 0 0 512 512" height="512" viewBox="0 0 512 512" width="512" xmlns="http://www.w3.org/2000/svg"><g><path d="m76 0h-45v15c0 57.653 46.192 103.857 102.887 104.979l41.862-47.846c-14.209-43.145-54.295-72.133-99.749-72.133z" fill="#a34f3e"/><path d="m436 0c-47.672 0-87.102 31.564-100.248 73.689l40.261 46.311c57.889-.007 104.987-47.11 104.987-105v-15z" fill="#873f2e"/><g><path d="m421 195c0 35.95-11.36 70.12-32.86 98.82-16.76 22.39-27.14 65.99-27.14 93.55v36.51h-105l-105-.01v-36.39c0-28.02-9.93-71.21-25.98-92.12-16.93-22.06-28.05-48.21-32.18-75.63-11.13-74.06 27.1-152.5 102.9-179.25l60.26 4.26 55.67 3.93 40.64 11.88c42.86 29.03 68.69 76.23 68.69 134.45z" fill="#c86e59"/><path d="m421 195c0 35.95-11.36 70.12-32.86 98.82-16.76 22.39-27.14 65.99-27.14 93.55v36.51h-105v-379.14l55.67 3.93 40.64 11.88c42.86 29.03 68.69 76.23 68.69 134.45z" fill="#a34f3e"/><path d="m256 362c-45.18 0-84.53 24.97-105 61.87v13.13c0 36.21 25.8 66.52 60 73.49l15-58.49 15 59.99c5.6-.01 10.58-.01 15-.01 5.96-.02 10.9-.03 15-.04l15-59.94s16.67 58.17 15 58.49c34.39-7.03 60-37.66 60-73.49v-13.12c-20.47-36.9-59.81-61.88-105-61.88z" fill="#ffe1ba"/><path d="m361 423.88v13.12c0 35.83-25.61 66.46-60 73.49 1.67-.32-15-58.49-15-58.49l-15 59.94c-4.1.01-9.04.02-15 .04v-149.98c45.19 0 84.53 24.98 105 61.88z" fill="#ffbfab"/></g><g><g><g><path d="m241 452v59.99c-4.57 0-9.55.01-14.99.01-5.14 0-10.16-.52-15.01-1.51v-58.49z" fill="#704c55"/></g></g></g><g><path d="m301 452v58.49c-3.12.64-6.32 1.08-9.57 1.32-.46.03-1.18.08-20.43.13v-59.94z" fill="#5b362a"/></g><g><g><g><path d="m151 180h30v30h-30z" fill="#5b362a"/></g></g></g><g><path d="m331 180h30v30h-30z" fill="#38211a"/></g><path d="m301 105c0 31 27.97 41.15 36.48 49.29-12.85 6.64-37.9 31.58-81.48 24.53-64.08-10.25-95.65-85.37-60.26-138.34 19.02-6.73 39.52-10.03 60.26-9.74 34.43.44 68.27 10.79 96.31 29.81-27.75-3.55-51.31 17.55-51.31 44.45z" fill="#a34f3e"/><path d="m301 105c0 31 27.97 41.15 36.48 49.29-12.85 6.64-37.9 31.58-81.48 24.53v-148.08c34.43.44 68.27 10.79 96.31 29.81-27.75-3.55-51.31 17.55-51.31 44.45z" fill="#873f2e"/></g></svg>