<svg id="Capa_1" enable-background="new 0 0 512 512" height="512" viewBox="0 0 512 512" width="512" xmlns="http://www.w3.org/2000/svg"><g><g><path d="m334.608 476.65c-19.92 22.47-48.56 35.35-78.57 35.35s-58.65-12.88-78.57-35.35l22.44-19.9h112.26z" fill="#e1d3ce"/></g><path d="m334.608 476.65c-19.92 22.47-48.56 35.35-78.57 35.35v-55.25h56.13z" fill="#cdbfba"/><g><g><g><path d="m211.038 105c0-57.897-47.103-105-105-105h-15v88.833c0 52.009 18.968 102.462 53.41 142.065l66.59-48.898z" fill="#e1d3ce"/></g></g></g><g><path d="m421.037 0h-15c-57.896 0-104.999 47.103-104.999 105v77l66.59 48.898c34.442-39.602 53.41-90.055 53.41-142.065z" fill="#cdbfba"/></g><g><g><path d="m391.038 303.741v-16.741c0-74.44-60.56-135-135-135s-135 60.56-135 135v16.74c-.92 1.63-39.51 35.77-27.9 94.49 7.87 39.82 39.91 72.46 79.73 81.22 23.55 5.18 47.27 2.32 68.17-7.78l15-26.34 15 26.34c14.05 6.79 29.38 10.31 45.08 10.31 51.51 0 93.62-37.2 102.82-83.74 11.28-57.059-27.41-93.63-27.9-94.499z" fill="#fff5f5"/></g></g><path d="m418.938 398.241c-9.2 46.54-51.31 83.74-102.82 83.74-15.7 0-31.03-3.52-45.08-10.31l-15-26.34v-293.331c74.44 0 135 60.56 135 135v16.74c.49.87 39.18 37.441 27.9 94.501z" fill="#e1d3ce"/><g><g><path d="m181.038 272h30v30h-30z" fill="#5b362a"/></g></g><g><g><path d="m301.038 272h30v30h-30z" fill="#38211a"/></g></g><g><path d="m271.038 407v64.67c-5.19-2.51-10.21-5.46-15-8.85-4.79 3.39-9.81 6.34-15 8.85v-64.67z" fill="#ffa7b3"/></g><path d="m271.038 407v64.67c-5.19-2.51-10.21-5.46-15-8.85v-55.82z" fill="#ff8596"/><g><g><path d="m256.038 334.571c-28.66 0-42.73 19.6-45 21.22v10.85c0 12.74 5.43 24.93 14.9 33.45l15.1 13.91h30l15.1-13.91c9.47-8.52 14.9-20.71 14.9-33.45v-10.85c-2.25-1.611-16.35-21.22-45-21.22z" fill="#704c55"/></g><path d="m301.038 355.791v10.85c0 12.74-5.43 24.93-14.9 33.45l-15.1 13.91h-15v-79.43c28.65 0 42.75 19.609 45 21.22z" fill="#5b362a"/></g></g></svg>