<svg id="Capa_1" enable-background="new 0 0 512 512" height="512" viewBox="0 0 512 512" width="512" xmlns="http://www.w3.org/2000/svg"><g><g><path d="m139.781 150.01c-43.44 0-78.781 35.341-78.781 78.78v1.367c0 56.705 22.003 113.07 64.394 155.459l8.787 8.787 21.213-21.213z" fill="#87a0af"/><path d="m372.219 150.01c43.44 0 78.781 35.341 78.781 78.78v1.367c0 56.705-22.003 113.07-64.394 155.459l-8.787 8.787-21.213-21.213z" fill="#607882"/></g><path d="m391 135.01v120c0 43.78-8.91 86.31-26.47 126.4l-36.53 62.6c-29.25 39.01-65.6 62.67-72 67.98-6.35-5.27-42.78-29.02-72-67.98l-36.53-62.6c-17.56-40.09-26.47-82.62-26.47-126.4v-120z" fill="#b4d2d7"/><path d="m391 135.01v120c0 43.78-8.91 86.31-26.47 126.4l-36.53 62.6c-29.25 39.01-65.6 62.67-72 67.98v-376.98z" fill="#87a0af"/><g><path d="m391 135.01c0 74.44-60.56 135-135 135s-135-60.56-135-135c0-17.18 3.23-33.63 9.11-48.76h251.78c5.88 15.13 9.11 31.58 9.11 48.76z" fill="#fff5f5"/><path d="m391 135.01c0 74.44-60.56 135-135 135v-183.76h125.89c5.88 15.13 9.11 31.58 9.11 48.76z" fill="#e1d3ce"/><path d="m367.69 59.25-111.69 41.06-111.69-41.06c24.31-35.73 65.31-59.24 111.69-59.24s87.38 23.51 111.69 59.24z" fill="#b4d2d7"/><path d="m367.69 59.25-111.69 41.06v-100.3c46.38 0 87.38 23.51 111.69 59.24z" fill="#87a0af"/></g><path d="m421 30.01c0 33.19-27.04 60-60 60h-30c-33.08 0-60 26.92-60 60v60h-30v-60c0-33.08-26.92-60-60-60h-30c-32.93 0-60-26.79-60-60h30c0 16.68 13.6 30 30 30h30c30.43 0 58.39 15.31 75 40.3 16.64-25.04 44.63-40.3 75-40.3h30c16.42 0 30-13.36 30-30z" fill="#87a0af"/><path d="m421 30.01c0 33.19-27.04 60-60 60h-30c-33.08 0-60 26.92-60 60v60h-15v-109.7c16.64-25.04 44.63-40.3 75-40.3h30c16.42 0 30-13.36 30-30z" fill="#607882"/><g><path d="m181 120.01h30v30h-30z" fill="#474f54"/></g><g><g><g><path d="m301 120.01h30v30h-30z" fill="#32393f"/></g></g></g><g><path d="m0 390.01h136v30h-136z" fill="#97de3d"/><path d="m376 390.01h136v30h-136z" fill="#59c36a"/><path d="m196 390.01h120v30h-120z" fill="#97de3d"/><path d="m256 390.01h60v30h-60z" fill="#59c36a"/></g><g><path d="m211 450.01h-90v-45c0-24.813 20.187-45 45-45s45 20.187 45 45z" fill="#fabe2c"/></g><g><path d="m391 450.01h-90v-45c0-24.813 20.187-45 45-45s45 20.187 45 45z" fill="#ff9100"/></g></g></svg>