<svg id="Capa_1" enable-background="new 0 0 512 512" height="512" viewBox="0 0 512 512" width="512" xmlns="http://www.w3.org/2000/svg"><g><g><path d="m136 92c-8.271 0-15-6.729-15-15v-45h-30v45c0 5.258.915 10.305 2.58 15h-18.58c-24.813 0-45-20.187-45-45v-47h-30v47c0 41.355 33.645 75 75 75h61c24.813 0 45 20.187 45 45v1.388h30v-1.388c0-41.355-33.645-75-75-75z" fill="#704c55"/><path d="m482 0v47c0 24.813-20.187 45-45 45h-18.58c1.665-4.695 2.58-9.742 2.58-15v-45h-30v45c0 8.271-6.729 15-15 15-41.355 0-75 33.645-75 75v1.388h30v-1.388c0-24.813 20.187-45 45-45h61c41.355 0 75-33.645 75-75v-47z" fill="#5b362a"/></g><g><path d="m163.178 242h-57.178c-41.355 0-75-33.645-75-75v-15h75c36.856 0 68.395 26.876 74.097 63.339l-16.918 2.646v24.015z" fill="#a34f3e"/></g><g><g><g><g><path d="m406 242h-57.179v-24.015l-16.919-2.646c5.695-36.411 37.189-63.339 74.098-63.339h75v15c0 41.355-33.645 75-75 75z" fill="#873f2e"/></g></g></g></g><g><g><g><g><path d="m370.67 235.95c-6.24-6.62-9.67-16.7-9.67-28.39 0-30.64-24.92-55.56-55.56-55.56h-98.88c-30.64 0-55.56 24.92-55.56 55.56 0 11.69-3.43 21.77-9.67 28.39-13.11 13.9-20.33 32.03-20.33 51.05s7.22 37.15 20.33 51.05c6.24 6.62 9.67 16.7 9.67 28.39v35.47c0 53.69 38.08 101.31 90 108.98l15-13.06 15 13.12c49.13-6.94 90-49.33 90-103.95v-40.56c0-11.69 3.43-21.77 9.67-28.39 13.11-13.9 20.33-32.03 20.33-51.05s-7.22-37.15-20.33-51.05z" fill="#c86e59"/></g></g></g></g><path d="m391 287c0 19.02-7.22 37.15-20.33 51.05-6.24 6.62-9.67 16.7-9.67 28.39v40.56c0 54.62-40.87 97.01-90 103.95l-15-13.12v-345.83h49.44c30.64 0 55.56 24.92 55.56 55.56 0 11.69 3.43 21.77 9.67 28.39 13.11 13.9 20.33 32.03 20.33 51.05z" fill="#a34f3e"/><g><path d="m181 272h30v30h-30z" fill="#5b362a"/></g><g><path d="m301 272h30v30h-30z" fill="#38211a"/></g><g><g><path d="m271 442v68.95c-4.9.7-9.88 1.05-14.92 1.05h-.08c-5.11 0-10.11-.38-15-1.11v-68.89l15-4z" fill="#a34f3e"/></g><path d="m271 442v68.95c-4.9.7-9.88 1.05-14.92 1.05h-.08v-74z" fill="#873f2e"/><g><path d="m256 362.57c-28.66 0-42.73 19.6-45 21.22v10.85c0 12.74 5.43 24.93 14.9 33.45l15.1 13.91h30l15.1-13.91c9.47-8.52 14.9-20.71 14.9-33.45v-10.85c-2.25-1.61-16.35-21.22-45-21.22z" fill="#704c55"/></g><path d="m301 383.79v10.85c0 12.74-5.43 24.93-14.9 33.45l-15.1 13.91h-15v-79.43c28.65 0 42.75 19.61 45 21.22z" fill="#5b362a"/></g></g></svg>