<svg id="Capa_1" enable-background="new 0 0 512 512" height="512" viewBox="0 0 512 512" width="512" xmlns="http://www.w3.org/2000/svg"><g><path d="m380.377 0h-49.377v15c0 21.657-5.715 43.403-16.526 62.887l63.855 72.719 33.631-16.815c24.081-12.041 39.04-36.245 39.04-63.168 0-38.942-31.682-70.623-70.623-70.623z" fill="#873f2e"/><path d="m181 15v-15h-49.377c-38.941 0-70.623 31.681-70.623 70.623 0 26.923 14.959 51.127 39.04 63.167l33.631 16.815 63.64-72.599c-10.671-19.229-16.311-41.016-16.311-63.006z" fill="#a34f3e"/><g><path d="m405.29 300.75c14.44 25.29 19.11 55.11 13.15 84.28-10.5 51.39-56.84 94.97-117.43 94.97l-45.01-1.27-45.01 1.27c-60.59 0-106.93-43.58-117.43-94.97-5.96-29.17-1.29-58.99 13.15-84.28-10.2-13.07-15.71-28.95-15.71-45.75 0-23.45 11.31-45.6 30-59.69v-30.31c0-35.58 17.79-67.07 44.93-86.07l90.07-.06 90.07.06c27.14 19 44.93 50.49 44.93 86.07v30.31c18.69 14.09 30 36.24 30 59.69 0 16.8-5.51 32.68-15.71 45.75z" fill="#ff9100"/><path d="m405.29 300.75c14.44 25.29 19.11 55.11 13.15 84.28-10.5 51.39-56.84 94.97-117.43 94.97l-45.01-1.27v-399.86l90.07.06c27.14 19 44.93 50.49 44.93 86.07v30.31c18.69 14.09 30 36.24 30 59.69 0 16.8-5.51 32.68-15.71 45.75z" fill="#ff641a"/><path d="m345.9 78.81c-51.7 13.36-89.9 60.31-89.9 116.19 0-55.87-38.46-102.66-90.07-116.07 17.03-11.92 37.75-18.93 60.07-18.93h60c22.25 0 42.9 6.96 59.9 18.81z" fill="#704c55"/><path d="m345.9 78.81c-51.7 13.36-89.9 60.31-89.9 116.19v-135h30c22.25 0 42.9 6.96 59.9 18.81z" fill="#5b362a"/></g><g><path d="m151 240h30v30h-30z" fill="#5b362a"/></g><g><path d="m331 240h30v30h-30z" fill="#38211a"/></g><path d="m211 405h90v107h-90z" fill="#fff7cc"/><path d="m256 405h45v107h-45z" fill="#ffe6b3"/><g><g><g><g><path d="m271 382v23h-30v-23l15-4z" fill="#a34f3e"/></g></g></g><path d="m271 382v23h-15v-27z" fill="#873f2e"/><g><path d="m256 302.57c-28.66 0-42.73 19.6-45 21.22v10.85c0 12.74 5.43 24.93 14.9 33.45l15.1 13.91h30l15.1-13.91c9.47-8.52 14.9-20.71 14.9-33.45v-10.85c-2.25-1.61-16.35-21.22-45-21.22z" fill="#704c55"/></g><path d="m301 323.79v10.85c0 12.74-5.43 24.93-14.9 33.45l-15.1 13.91h-15v-79.43c28.65 0 42.75 19.61 45 21.22z" fill="#5b362a"/></g><g><g><g><path d="m181 390h150v30h-150z" fill="#a34f3e"/></g></g></g><path d="m256 390h75v30h-75z" fill="#873f2e"/></g></svg>