<svg id="Capa_1" enable-background="new 0 0 512 512" height="512" viewBox="0 0 512 512" width="512" xmlns="http://www.w3.org/2000/svg"><g><path d="m421 224.996c0 23.47-11.32 45.63-30.03 59.72-.49 23.17-6.19 46.26-16.55 66.99-8.53 17.05-13.42 38.5-13.42 58.83v9.35h-210v-9.35c0-20.33-4.89-41.78-13.42-58.83-10.36-20.73-16.06-43.82-16.55-66.99-18.71-14.09-30.03-36.25-30.03-59.72 0-24.65 13.13-58.48 37.46-72.64l127.54-22.86 127.54 22.86c24.33 14.16 37.46 47.99 37.46 72.64z" fill="#c86e59"/><path d="m421 224.996c0 23.47-11.32 45.63-30.03 59.72-.49 23.17-6.19 46.26-16.55 66.99-8.53 17.05-13.42 38.5-13.42 58.83v9.35h-105v-290.39l127.54 22.86c24.33 14.16 37.46 47.99 37.46 72.64z" fill="#a34f3e"/><path d="m361 419.887v17.11c0 41.35-33.64 75-75 75h-60c-41.36 0-75-33.65-75-75v-17.11c27.06-26.53 64.12-42.89 105-42.89s77.94 16.359 105 42.89z" fill="#704c55"/><path d="m361 419.887v17.11c0 41.35-33.64 75-75 75h-30v-135c40.88-.001 77.94 16.359 105 42.89z" fill="#5b362a"/><g><path d="m151 209.996h30v30h-30z" fill="#5b362a"/></g><g><path d="m331 209.996h30v30h-30z" fill="#38211a"/></g><g><path d="m211 421.996h30v30h-30z" fill="#5b362a"/></g><g><path d="m271 421.996h30v30h-30z" fill="#38211a"/></g><path d="m512 29.996v45c0 57.9-47.55 105-106 105h-90c-24.51 0-46.31-11.82-60-30.05-13.69 18.23-35.49 30.05-60 30.05h-90c-58.45 0-106-47.1-106-105v-45h30c0 33.08 26.92 60 60 60h19.21c6.5 0 11.79-5.29 11.79-11.79 0-34.63 21.25-65.33 51.68-74.66 32.4-9.93 64.79 1.69 83.32 26.5 18.54-24.82 50.93-36.43 83.32-26.5 30.43 9.33 51.68 40.03 51.68 74.66 0 6.5 5.29 11.79 11.79 11.79h19.21c33.08 0 60-26.92 60-60h30z" fill="#fff5f5"/><path d="m512 29.996v45c0 57.9-47.55 105-106 105h-90c-24.51 0-46.31-11.82-60-30.05v-119.9c18.54-24.82 50.93-36.43 83.32-26.5 30.43 9.33 51.68 40.03 51.68 74.66 0 6.5 5.29 11.79 11.79 11.79h19.21c33.08 0 60-26.92 60-60h30z" fill="#e1d3ce"/></g></svg>