<svg id="Capa_1" enable-background="new 0 0 512 512" height="512" viewBox="0 0 512 512" width="512" xmlns="http://www.w3.org/2000/svg"><g><path d="m445.55 60.23c-.09 0-6.84.01-189.55-.03-49.27 0-111.32-.01-189.49-.02-39.66 37.25-65.35 88.83-66.46 145.96l27.52 115c27.09 51.26 72.38 92.02 128.03 113.21 89.73 34.19 85.56 62.96 100.4 77.65 14.42-14.27 11-43.59 100.4-77.65 55.74-21.23 101.02-62.03 128.07-113.29l27.48-114.91c-1.11-57.16-26.79-108.68-66.4-145.92z" fill="#ffe1ba"/><path d="m511.95 206.15-27.48 114.91c-27.05 51.26-72.33 92.06-128.07 113.29-89.4 34.06-85.98 63.38-100.4 77.65v-451.8c182.71.04 189.46.03 189.55.03 39.61 37.24 65.29 88.76 66.4 145.92z" fill="#ffbfab"/><path d="m445.55 60.23h-44.89l-.39-.02c-66.48-3.46-120.02 45.76-129.27 105.91v13.88h-30v-13.88c-9.33-60.49-63.14-109.41-129.19-105.96l-.78.02h-44.52c39.6-37.23 93.14-60.18 150.07-60.18h78.84c56.91 0 110.49 22.97 150.13 60.23z" fill="#c86e59"/><path d="m445.55 60.23h-44.89l-.39-.02c-66.48-3.46-120.02 45.76-129.27 105.91v13.88h-15v-180h39.42c56.91 0 110.49 22.97 150.13 60.23z" fill="#a34f3e"/><g><g><g><g><path d="m165.87 143.52c-17.12-20.72-43.55-28.52-68.95-20.35-42.824 13.772-77.295 44.403-96.87 82.97-.04 1.39-.05 2.78-.05 4.18.05 39.72 9.96 77.49 27.57 110.82 12.082-44.414 50.041-71.18 91.12-71.18h.09c49.663 0 83.086-62.866 47.09-106.44z" fill="#c86e59"/></g></g></g></g><path d="m511.95 206.15c-20.58-40.07-54.86-69.48-96.87-82.98-25.4-8.17-51.83-.37-68.95 20.35-35.842 43.387-2.767 106.44 47.09 106.44h.09c40.917 0 79.085 26.773 91.16 71.1 17.59-33.33 27.48-71.08 27.53-110.74 0-1.39-.01-2.78-.05-4.17z" fill="#a34f3e"/><path d="m241 315h30v60h-30z" fill="#a34f3e"/><path d="m256 315h15v60h-15z" fill="#873f2e"/><path d="m91 180h30v30h-30z" fill="#5b362a"/><g><path d="m391 180h30v30h-30z" fill="#38211a"/></g><g><path d="m256 210c-41.35 0-75 33.65-75 75 0 47.23 42.65 45.24 67.18 45.04 3.02-.02 5.58-.03 7.82-.03 6.37 0 10.26.07 15.07.07 33.73 0 59.93-7.51 59.93-45.08 0-41.35-33.65-75-75-75z" fill="#704c55"/></g><path d="m331 285c0 37.57-26.2 45.08-59.93 45.08-4.81 0-8.7-.07-15.07-.07v-120.01c41.35 0 75 33.65 75 75z" fill="#5b362a"/><path d="m356.61 355.61c-22.18 22.18-51.67 34.39-83.04 34.39h-35.14c-31.37 0-60.86-12.21-83.04-34.39l21.22-21.22c16.51 16.52 38.46 25.61 61.82 25.61h35.14c23.36 0 45.31-9.09 61.82-25.61z" fill="#a34f3e"/><path d="m356.61 355.61c-22.18 22.18-51.67 34.39-83.04 34.39h-17.57v-30h17.57c23.36 0 45.31-9.09 61.82-25.61z" fill="#873f2e"/></g></svg>