<svg id="Capa_1" enable-background="new 0 0 512 512" height="512" viewBox="0 0 512 512" width="512" xmlns="http://www.w3.org/2000/svg"><g><path d="m374.3 395.67c-23.71 52.63-69.04 85.33-118.3 85.33s-94.59-32.7-118.3-85.33l118.3-94.67z" fill="#704c55"/><path d="m374.3 395.67c-23.71 52.63-69.04 85.33-118.3 85.33v-180z" fill="#5b362a"/><g><path d="m208.477 91.094c-6.316-18-23.387-30.094-42.477-30.094v-30c31.811 0 60.257 20.158 70.785 50.161z" fill="#5b362a"/></g><g><path d="m303.523 91.094-28.308-9.934c10.528-30.002 38.974-50.16 70.785-50.16v30c-19.09 0-36.161 12.094-42.477 30.094z" fill="#38211a"/></g><path d="m331 136v30h-150v-30c0-41.35 33.65-75 75-75s75 33.65 75 75z" fill="#704c55"/><path d="m331 136v30h-75v-105c41.35 0 75 33.65 75 75z" fill="#5b362a"/><path d="m512 346v75h-76c-80.97 0-150.56-49.61-180-120.02-29.44 70.41-99.03 120.02-180 120.02h-76v-75c0-107.52 87.93-195 196-195h120c108.07 0 196 87.48 196 195z" fill="#ff7b4a"/><path d="m512 346v75h-76c-80.97 0-150.56-49.61-180-120.02v-149.98h60c108.07 0 196 87.48 196 195z" fill="#ff435b"/><g><path d="m406 361c-24.813 0-45-20.187-45-45s20.187-45 45-45 45 20.187 45 45-20.187 45-45 45z" fill="#38211a"/></g><g><path d="m106 361c-24.813 0-45-20.187-45-45s20.187-45 45-45 45 20.187 45 45-20.187 45-45 45z" fill="#5b362a"/></g><g><path d="m166 226h30v30h-30z" fill="#5b362a"/></g><g><path d="m316 226h30v30h-30z" fill="#38211a"/></g></g></svg>