<svg id="Capa_1" enable-background="new 0 0 512 512" height="512" viewBox="0 0 512 512" width="512" xmlns="http://www.w3.org/2000/svg"><g><path d="m190.12 416.374c-39.105 2.55-69.12 34.966-69.12 74.841v20.785h30v-20.785c0-24.073 17.657-43.377 41.049-44.903l43.466-2.769-1.907-29.939z" fill="#ff435b"/><path d="m321.88 416.374-43.488-2.771-1.907 29.939 43.466 2.769c23.392 1.525 41.049 20.83 41.049 44.903v20.786h30v-20.785c0-39.797-29.937-72.286-69.12-74.841z" fill="#d0004f"/><path d="m132.83 358.621c-40.556 1.17-72.83 34.348-72.83 74.968v1.411h30v-1.411c0-24.516 19.193-44.273 43.695-44.981z" fill="#ff435b"/><path d="m379.17 358.621-.865 29.987c24.502.707 43.695 20.465 43.695 44.981v1.411h30v-1.411c0-40.569-32.226-73.797-72.83-74.968z" fill="#d0004f"/><path d="m105 330v-30h-30c-41.355 0-75 33.645-75 75h30c0-24.813 20.187-45 45-45z" fill="#ff435b"/><path d="m437 300h-30v30h30c24.813 0 45 20.187 45 45h30c0-41.355-33.645-75-75-75z" fill="#d0004f"/><g><g><path d="m211 150h30v46.266h-30z" fill="#704c55"/><path d="m271 150h30v46.266h-30z" fill="#5b362a"/></g></g><path d="m452 180c0 16.54-13.46 30-30 30h-55.333l33.82 60h21.513c39.19 0 72.53-25.04 84.87-60z" fill="#d0004f"/><path d="m422 90h-51.97c10.37 17.93 29.76 30 51.97 30h30l34.667-14.333 25.333-45.667-60-60h-60c-33.14 0-60 26.86-60 60h90z" fill="#d0004f"/><path d="m90 210c-16.54 0-30-13.46-30-30l-54.87 30c12.34 34.96 45.68 60 84.87 60h21.513l33.82-60z" fill="#ff435b"/><path d="m90 90h51.97c-10.37 17.93-29.76 30-51.97 30h-30l-46.333-16-13.667-44 60-60h60c33.14 0 60 26.86 60 60h-90z" fill="#ff435b"/><g><g><path d="m256 180c-110.15 0-166 45.42-166 135 0 22.83 9.3 44.34 27.64 63.95 32.68 34.94 91.97 59.95 138.36 71.5 46.18-11.5 105.59-36.47 138.36-71.5 18.34-19.61 27.64-41.12 27.64-63.95 0-89.58-55.85-135-166-135z" fill="#ff7b4a"/></g></g><path d="m422 315c0 22.83-9.3 44.34-27.64 63.95-32.77 35.03-92.18 60-138.36 71.5v-270.45c110.15 0 166 45.42 166 135z" fill="#ff435b"/><path d="m60 120v60c0 16.57-13.43 30-30 30h-24.88c-3.32-9.38-5.12-19.48-5.12-30v-120z" fill="#ff7b4a"/><path d="m452 120v60c0 16.57 13.43 30 30 30h24.88c3.32-9.38 5.12-19.48 5.12-30v-120z" fill="#ff435b"/></g></svg>