<svg id="Capa_1" enable-background="new 0 0 512 512" height="512" viewBox="0 0 512 512" width="512" xmlns="http://www.w3.org/2000/svg"><g><path d="m406 92c-30.787 0-58.915 19.295-69.994 48.013l28.364 41.987h72.63c41.355 0 75-33.645 75-75v-15z" fill="#ff9100"/><path d="m175.994 140.013c-11.079-28.718-39.207-48.013-69.994-48.013h-106v15c0 41.355 33.645 75 75 75h72.63z" fill="#ffb64c"/><path d="m421 227c0 27.65-15.13 52.96-39.5 66.08-12.45 6.7-20.5 21.51-20.5 37.71v106.21c0 .6-.03 1.2-.05 1.8h-209.9c-.02-.6-.05-1.2-.05-1.8v-106.21c0-16.2-8.05-31.01-20.51-37.71-24.36-13.12-39.49-38.43-39.49-66.08s15.13-52.96 39.49-66.08c12.46-6.7 20.51-21.51 20.51-37.71v-78.21c0-24.81 20.19-45 45-45s45 20.19 45 45v62c0 8.27 6.73 15 15 15s15-6.73 15-15v-62c0-24.81 20.19-45 45-45s45 20.19 45 45v78.21c0 16.2 8.05 31.01 20.51 37.71 24.36 13.12 39.49 38.43 39.49 66.08z" fill="#ffd396"/><path d="m421 227c0 27.65-15.13 52.96-39.5 66.08-12.45 6.7-20.5 21.51-20.5 37.71v106.21c0 .6-.03 1.2-.05 1.8h-104.95v-316.8c8.27 0 15-6.73 15-15v-62c0-24.81 20.19-45 45-45s45 20.19 45 45v78.21c0 16.2 8.05 31.01 20.51 37.71 24.36 13.12 39.49 38.43 39.49 66.08z" fill="#ffb64c"/><path d="m360.95 438.8c-.96 40.52-34.2 73.2-74.95 73.2h-60c-40.75 0-73.99-32.68-74.95-73.2 20.48-36.86 59.8-61.8 104.95-61.8s84.47 24.94 104.95 61.8z" fill="#704c55"/><path d="m360.95 438.8c-.96 40.52-34.2 73.2-74.95 73.2h-30v-135c45.15 0 84.47 24.94 104.95 61.8z" fill="#5b362a"/><g><path d="m151 212h30v30h-30z" fill="#5b362a"/></g><g><path d="m331 212h30v30h-30z" fill="#38211a"/></g><g><path d="m271 422h30v30h-30z" fill="#38211a"/></g><g><path d="m211 422h30v30h-30z" fill="#5b362a"/></g></g></svg>