<svg id="Capa_1" enable-background="new 0 0 512 512" height="512" viewBox="0 0 512 512" width="512" xmlns="http://www.w3.org/2000/svg"><g><path d="m409.328.072c-40.338-1.746-74.24 28.462-77.982 67.745 0 45.2 36.642 81.842 81.842 81.842h.001c39.365-3.751 69.569-37.767 67.737-78.142-1.749-38.536-33.058-69.777-71.598-71.445z" fill="#a34f3e"/><path d="m411.742 119.64c-27.44-.755-49.622-22.938-50.377-50.378 2.836-22.481 21.784-39.262 44.641-39.262.67 0 1.352.015 2.025.044 23.025.996 41.881 19.811 42.926 42.833 1.068 23.562-16.056 43.832-39.215 46.763z" fill="#ff9100"/><path d="m102.672.072c40.338-1.746 74.24 28.462 77.982 67.745 0 45.2-36.642 81.842-81.842 81.842h-.001c-39.365-3.751-69.569-37.767-67.737-78.142 1.749-38.536 33.058-69.777 71.598-71.445z" fill="#c86e59"/><path d="m100.268 119.64c27.44-.755 49.622-22.938 50.377-50.378-2.836-22.481-21.785-39.262-44.641-39.262-.67 0-1.352.015-2.025.044-23.026.996-41.881 19.811-42.926 42.833-1.069 23.562 16.055 43.832 39.215 46.763z" fill="#fabe2c"/><path d="m451.005 227c0 55.63-23.85 108.75-65.44 145.74h-259.12c-41.59-36.99-65.44-90.11-65.44-145.74 0-107.52 87.48-195 195-195s195 87.48 195 195z" fill="#fed843"/><path d="m451.005 227c0 55.63-23.85 108.75-65.44 145.74h-129.56v-340.74c107.52 0 195 87.48 195 195z" fill="#fabe2c"/><path d="m361.005 422.01v44.99c0 24.81-20.19 45-45 45h-120c-24.81 0-45-20.19-45-45v-44.99z" fill="#ffe6b3"/><path d="m361.005 422.01v44.99c0 24.81-20.19 45-45 45h-60v-89.99z" fill="#ffca80"/><g><path d="m330.995 227.59-29.98-1.18c-.01.2-.81 20.49-1.23 41.6-.32 15.68-.34 26.47-.17 34.02.006.322.015.62.022.93h29.988c-.39-16 .27-47.83 1.37-75.37z" fill="#a34f3e"/><path d="m212.235 268.01c-.43-21.11-1.23-41.4-1.24-41.6l-29.98 1.18c1.1 27.54 1.76 59.35 1.38 75.37h29.988c.007-.311.015-.608.022-.93.16-7.54.14-18.34-.17-34.02z" fill="#c86e59"/></g><g><path d="m197.62 253.221-60-30 13.416-26.833 59.959 30.022z" fill="#5b362a"/></g><g><path d="m241.005 182h30v30h-30z" fill="#c86e59"/></g><path d="m256.005 182h15v30h-15z" fill="#a34f3e"/><g><path d="m181.005 122h30v30h-30z" fill="#c86e59"/></g><g><path d="m301.005 122h30v30h-30z" fill="#a34f3e"/></g><g><path d="m304.172 209.804h67.082v30h-67.082z" fill="#38211a" transform="matrix(.894 -.447 .447 .894 -64.882 174.757)"/></g><g><path d="m338.475 303.89-82.47 13.78h-.01l-82.47-13.78c-28.34 3.62-52.52 13.98-52.52 58.11 0 49.63 40.37 90 90 90 10.32 0 20.42-1.79 30-5.26l15-33.51 1-2.23 14 35.74c9.58 3.47 19.68 5.26 30 5.26 49.63 0 90-40.37 90-90 0-44.13-24.19-54.49-52.53-58.11z" fill="#fff7cc"/></g><path d="m391.005 362c0 49.63-40.37 90-90 90-10.32 0-20.42-1.79-30-5.26l-14-35.74-1 2.23v-95.56l82.47-13.78c28.34 3.62 52.53 13.98 52.53 58.11z" fill="#ffe6b3"/><g><path d="m241.005 377h30v69.74h-30z" fill="#a34f3e"/></g><path d="m256.005 377h15v69.74h-15z" fill="#873f2e"/><path d="m338.475 303.89c-.08.17-28.86 58.99-30.77 62.89-7.5 15.32-23.36 25.22-40.42 25.22h-22.56c-17.06 0-32.92-9.9-40.42-25.22-.97-1.97-30.73-62.78-30.78-62.89 7.01-.9 14.27-1.38 21.48-1.86l1-.03h120.5l.5.03c7.21.48 14.47.96 21.47 1.86z" fill="#704c55"/><path d="m338.475 303.89c-.08.17-28.86 58.99-30.77 62.89-7.5 15.32-23.36 25.22-40.42 25.22h-11.28v-90h60.5l.5.03c7.21.48 14.47.96 21.47 1.86z" fill="#5b362a"/></g></svg>