<svg id="Capa_1" enable-background="new 0 0 512 512" height="512" viewBox="0 0 512 512" width="512" xmlns="http://www.w3.org/2000/svg"><g><path d="m361.005 422.01v44.99c0 24.81-20.19 45-45 45h-120c-24.81 0-45-20.19-45-45v-44.99z" fill="#ffe6b3"/><path d="m361.005 422.01v44.99c0 24.81-20.19 45-45 45h-60v-89.99z" fill="#ffca80"/><path d="m102.672.072c40.338-1.746 74.24 28.462 77.982 67.745 0 45.2-36.642 81.842-81.842 81.842h-.001c-39.365-3.751-69.569-37.767-67.737-78.142 1.749-38.536 33.058-69.777 71.598-71.445z" fill="#c86e59"/><path d="m100.268 119.64c27.44-.755 49.622-22.938 50.377-50.378-2.836-22.481-21.785-39.262-44.641-39.262-.67 0-1.352.015-2.025.044-23.026.996-41.881 19.811-42.926 42.833-1.069 23.562 16.055 43.832 39.215 46.763z" fill="#fabe2c"/><path d="m451.005 227c0 55.63-23.85 108.75-65.44 145.74h-259.12c-41.59-36.99-65.44-90.11-65.44-145.74 0-53.76 21.87-102.51 57.18-137.82l137.82-57.18 137.82 57.18c35.31 35.31 57.18 84.06 57.18 137.82z" fill="#ff9100"/><g><path d="m151 178.459h30v67.082h-30z" fill="#5b362a" transform="matrix(.447 -.894 .894 .447 -97.856 265.666)"/></g><path d="m409.328.072c-40.338-1.746-74.24 28.462-77.982 67.745 0 45.2 36.642 81.842 81.842 81.842h.001c39.365-3.751 69.569-37.767 67.737-78.142-1.749-38.536-33.058-69.777-71.598-71.445z" fill="#a34f3e"/><path d="m411.742 119.64c-27.44-.755-49.622-22.938-50.377-50.378 2.836-22.481 21.784-39.262 44.641-39.262.67 0 1.352.015 2.025.044 23.025.996 41.881 19.811 42.926 42.833 1.068 23.562-16.056 43.832-39.215 46.763z" fill="#ff9100"/><path d="m451.005 227c0 55.63-23.85 108.75-65.44 145.74h-129.56v-340.74l137.82 57.18c35.31 35.31 57.18 84.06 57.18 137.82z" fill="#ff641a"/><g><path d="m312.459 197h67.082v30h-67.082z" fill="#38211a" transform="matrix(.894 -.447 .447 .894 -58.281 177.112)"/></g><g><g><g><g><path d="m338.475 303.89-82.47 13.78h-.01l-82.47-13.78c-28.34 3.62-52.52 13.98-52.52 58.11 0 49.63 40.37 90 90 90 10.32 0 20.42-1.79 30-5.26l15-33.51 1-2.23 14 35.74c9.58 3.47 19.68 5.26 30 5.26 49.63 0 90-40.37 90-90 0-44.13-24.19-54.49-52.53-58.11z" fill="#fff7cc"/></g></g></g></g><path d="m391.005 362c0 49.63-40.37 90-90 90-10.32 0-20.42-1.79-30-5.26l-14-35.74-1 2.23v-95.56l82.47-13.78c28.34 3.62 52.53 13.98 52.53 58.11z" fill="#ffe6b3"/><g><g><g><path d="m241.005 377h30v69.74h-30z" fill="#a34f3e"/></g></g></g><path d="m256.005 377h15v69.74h-15z" fill="#873f2e"/><path d="m338.475 303.89c-.08.17-28.86 58.99-30.77 62.89-7.5 15.32-23.36 25.22-40.42 25.22h-22.56c-17.06 0-32.92-9.9-40.42-25.22-.97-1.97-30.73-62.78-30.78-62.89 7.01-.9 14.27-1.38 21.48-1.86l1-.03h120.5l.5.03c7.21.48 14.47.96 21.47 1.86z" fill="#704c55"/><path d="m338.475 303.89c-.08.17-28.86 58.99-30.77 62.89-7.5 15.32-23.36 25.22-40.42 25.22h-11.28v-90h60.5l.5.03c7.21.48 14.47.96 21.47 1.86z" fill="#5b362a"/><path d="m271.005 62.69v30.14c30.34 3.35 58.47 16.8 80.42 38.75l-21.21 21.21c-16.27-16.26-36.9-26.54-59.21-29.72v30.43c14.3 2.9 27.45 9.92 38.02 20.48l-21.22 21.22c-4.83-4.83-10.56-8.43-16.8-10.64v27.44h-30v-27.44c-6.24 2.21-11.97 5.81-16.8 10.64l-21.22-21.22c10.57-10.56 23.72-17.58 38.02-20.48v-30.43c-22.31 3.18-42.94 13.46-59.21 29.72l-21.21-21.21c21.95-21.95 50.08-35.4 80.42-38.75v-30.14c-38.35 3.48-74.17 20.24-101.62 47.69l-21.2-21.2c36.42-36.42 85.61-57.18 137.82-57.18 52.68 0 101.72 21.08 137.82 57.18l-21.2 21.2c-27.11-27.11-62.84-44.17-101.62-47.69z" fill="#704c55"/><path d="m271.005 62.69v30.14c30.34 3.35 58.47 16.8 80.42 38.75l-21.21 21.21c-16.27-16.26-36.9-26.54-59.21-29.72v30.43c14.3 2.9 27.45 9.92 38.02 20.48l-21.22 21.22c-4.83-4.83-10.56-8.43-16.8-10.64v27.44h-15v-180c52.68 0 101.72 21.08 137.82 57.18l-21.2 21.2c-27.11-27.11-62.84-44.17-101.62-47.69z" fill="#5b362a"/></g></svg>