<svg id="Capa_1" enable-background="new 0 0 512 512" height="512" viewBox="0 0 512 512" width="512" xmlns="http://www.w3.org/2000/svg"><g><g><path d="m256 0c-141.16 0-256 114.39-256 255v92c0 90.98 74.47 165 166 165v-30c-41.36 0-75-33.65-75-75v-150c0-41.35 33.64-75 75-75s75 33.65 75 75h30c0-41.35 33.64-75 75-75s75 33.65 75 75v150c0 41.35-33.64 75-75 75v30c91.53 0 166-74.02 166-165v-92c0-140.61-114.84-255-256-255z" fill="#704c55"/></g><path d="m512 255v92c0 90.98-74.47 165-166 165v-30c41.36 0 75-33.65 75-75v-150c0-41.35-33.64-75-75-75s-75 33.65-75 75h-15v-257c141.16 0 256 114.39 256 255z" fill="#5b362a"/><g><path d="m346 152c-38.15 0-71.61 20.45-90 50.96-18.39-30.51-51.85-50.96-90-50.96-57.9 0-105 47.1-105 105v150c0 57.9 47.1 105 105 105h180c57.9 0 105-47.1 105-105v-150c0-57.9-47.1-105-105-105z" fill="#fff5f5"/></g><path d="m451 257v150c0 57.9-47.1 105-105 105h-90v-309.04c18.39-30.51 51.85-50.96 90-50.96 57.9 0 105 47.1 105 105z" fill="#e1d3ce"/><g><path d="m316 302c-8.27 0-15-6.73-15-15 0-24.81-20.19-45-45-45s-45 20.19-45 45c0 8.27-6.73 15-15 15-24.81 0-45 20.19-45 45s20.19 45 45 45h17.57c4.03 0 7.66 1.31 9.73 3.49l32.7 32.73 32.41-32.44.29-.29c2.07-2.18 5.7-3.49 9.73-3.49h17.57c24.81 0 45-20.19 45-45s-20.19-45-45-45z" fill="#fabe2c"/></g><path d="m361 347c0 24.81-20.19 45-45 45h-17.57c-4.03 0-7.66 1.31-9.73 3.49l-.29.29-32.41 32.44v-186.22c24.81 0 45 20.19 45 45 0 8.27 6.73 15 15 15 24.81 0 45 20.19 45 45z" fill="#ff9100"/><g><path d="m331 242h30v30h-30z" fill="#38211a"/></g><g><path d="m151 242h30v30h-30z" fill="#5b362a"/></g></g></svg>