<svg id="Capa_1" enable-background="new 0 0 512 512" height="512" viewBox="0 0 512 512" width="512" xmlns="http://www.w3.org/2000/svg"><g><path d="m331 257v60l-75 17-75-17v-60l75-12.5z" fill="#5b362a"/><path d="m331 257v60l-75 17v-89.5z" fill="#38211a"/><g><path d="m331 107c0 24.81-20.19 45-45 45h-60c-24.81 0-45-20.19-45-45s20.19-45 45-45v30c-8.27 0-15 6.73-15 15s6.73 15 15 15h60c8.27 0 15-6.73 15-15s-6.73-15-15-15v-30c24.81 0 45 20.19 45 45z" fill="#5b362a"/></g><path d="m331 107c0 24.81-20.19 45-45 45h-30v-30h30c8.27 0 15-6.73 15-15s-6.73-15-15-15v-30c24.81 0 45 20.19 45 45z" fill="#38211a"/><g><path d="m196 242h-105v-75h30v45h75z" fill="#5b362a"/></g><g><path d="m421 242h-105v-30h75v-45h30z" fill="#38211a"/></g><g><path d="m331 512c-47.515 0-86.548-33.158-89.783-75h-.217v-5.625h30c0 27.915 26.916 50.625 60 50.625s60-22.71 60-50.625v-13.125h30v13.125c0 44.457-40.374 80.625-90 80.625z" fill="#704c55"/></g><g><path d="m406 422c-24.813 0-45-20.187-45-45 0-7.895 2.079-15.668 6.013-22.481l38.987-67.514 38.987 67.513c3.934 6.815 6.013 14.588 6.013 22.482 0 24.813-20.187 45-45 45z" fill="#ff9100"/></g><path d="m331 197v60h-150v-60c0-41.35 33.65-75 75-75s75 33.65 75 75z" fill="#704c55"/><path d="m331 197v60h-75v-135c41.35 0 75 33.65 75 75z" fill="#5b362a"/><path d="m331 377c0 41.35-33.65 75-75 75s-75-33.65-75-75l75-15z" fill="#5b362a"/><path d="m331 377c0 41.35-33.65 75-75 75v-90z" fill="#38211a"/><path d="m181 317h150v60h-150z" fill="#704c55"/><path d="m256 317h75v60h-75z" fill="#5b362a"/><path d="m121 62v15c0 8.271-6.729 15-15 15s-15-6.729-15-15v-32c0-8.271 6.729-15 15-15v-30c-24.813 0-45 20.187-45 45v92c0 24.813 20.187 45 45 45s45-20.187 45-45v-75z" fill="#704c55"/><path d="m406 0v30c8.271 0 15 6.729 15 15v32c0 8.271-6.729 15-15 15s-15-6.729-15-15v-15h-30v75c0 24.813 20.187 45 45 45s45-20.187 45-45v-92c0-24.813-20.187-45-45-45z" fill="#5b362a"/></g></svg>