<svg id="Capa_1" enable-background="new 0 0 512 512" height="512" viewBox="0 0 512 512" width="512" xmlns="http://www.w3.org/2000/svg"><g><g><path d="m406 30h-17.56l-42.44 90h75c15.981 0 30 14.953 30 32h30v-47c0-41.355-33.645-75-75-75z" fill="#704c55"/><g><path d="m181 347h30v150h-30z" fill="#5b362a"/></g><g><g><g><path d="m0 482h512v30h-512z" fill="#64e1dc"/></g></g></g><path d="m256 482h256v30h-256z" fill="#00c8c8"/><g><g><path d="m301 392v60h-30v-30h-159.27l40.85-81.71 26.84 13.42-19.15 38.29z" fill="#704c55"/></g></g><path d="m301 392v60h-30v-30h-15v-30z" fill="#5b362a"/><g><path d="m346 0h-30c-24.81 0-45 20.19-45 45v107h-45c-90.98 0-165 74.02-165 165v45h60l17.33-17.33 12.67 17.33h105c49.63 0 90-40.37 90-90v-152c33.08 0 60-26.92 60-60s-26.92-60-60-60z" fill="#ffa7b3"/></g><path d="m406 60c0 33.08-26.92 60-60 60v152c0 49.63-40.37 90-90 90v-210h15v-107c0-24.81 20.19-45 45-45h30c33.08 0 60 26.92 60 60z" fill="#ff8596"/></g><g><path d="m256 212v30c-57.9 0-105 47.1-105 105v15h-30v-15c0-74.44 60.56-135 135-135z" fill="#ffc9d0"/></g></g></svg>