<svg id="Capa_1" enable-background="new 0 0 512 512" height="512" viewBox="0 0 512 512" width="512" xmlns="http://www.w3.org/2000/svg"><g><g><path d="m421 465v47h-30v-47c0-8.27-6.73-15-15-15h-90c-11.51 0-22.04-4.35-30-11.5-9.2-8.24-15-20.2-15-33.5v-30h30v30c0 8.27 6.73 15 15 15h90c24.81 0 45 20.19 45 45z" fill="#704c55"/></g><path d="m421 465v47h-30v-47c0-8.27-6.73-15-15-15h-90c-11.51 0-22.04-4.35-30-11.5v-63.5h15v30c0 8.27 6.73 15 15 15h90c24.81 0 45 20.19 45 45z" fill="#5b362a"/><g><g><g><g><path d="m353.8 43.48c-12.2-26.28-38.6-43.48-67.8-43.48-11.51 0-22.03 4.35-30 11.49-7.97-7.14-18.49-11.49-30-11.49-29.2 0-55.6 17.2-67.8 43.48-92.04 36.56-158.2 141.9-158.2 241.52v22.16l39.43-15.78c64.57-25.83 139.1 5.34 165.1 70.33 6.87 17.19 23.27 28.29 41.78 28.29h19.38c18.51 0 34.91-11.1 41.78-28.29 25.95-64.88 100.41-96.21 165.1-70.33l39.43 15.78v-22.16c0-99.44-66.01-204.9-158.2-241.52z" fill="#704c55"/></g></g></g></g><path d="m512 285v22.16l-39.43-15.78c-64.69-25.88-139.15 5.45-165.1 70.33-6.87 17.19-23.27 28.29-41.78 28.29h-9.69v-378.51c7.97-7.14 18.49-11.49 30-11.49 29.2 0 55.6 17.2 67.8 43.48 92.19 36.62 158.2 142.08 158.2 241.52z" fill="#5b362a"/><g><path d="m196 128.787h30v42.426h-30z" fill="#efe2dd" transform="matrix(.707 -.707 .707 .707 -44.266 193.134)"/></g><g><path d="m196 218.787h30v42.426h-30z" fill="#efe2dd" transform="matrix(.707 -.707 .707 .707 -107.905 219.494)"/></g><g><path d="m279.787 135h42.426v30h-42.426z" fill="#e1d3ce" transform="matrix(.707 -.707 .707 .707 -17.905 256.773)"/></g><g><path d="m279.787 225h42.426v30h-42.426z" fill="#e1d3ce" transform="matrix(.707 -.707 .707 .707 -81.545 283.134)"/></g></g></svg>