<svg height="512" viewBox="0 0 64 64" width="512" xmlns="http://www.w3.org/2000/svg"><g id="flat"><path d="m56 33a3 3 0 0 1 -3-3h2a1 1 0 1 0 1-1 1 1 0 0 1 -1-1v-13h2v12.171a3 3 0 0 1 -1 5.829z" fill="#f9bb4b"/><path d="m54 37-2 3h-37l-2-3h-10v4l4 9h46l8-9v-4z" fill="#4da19a"/><path d="m5.222 46 1.778 4h46l3.556-4z" fill="#f9bb4b"/><path d="m6 40h2v2h-2z" fill="#8ec13f"/><path d="m10 40h2v2h-2z" fill="#8ec13f"/><path d="m55 40h2v2h-2z" fill="#8ec13f"/><path d="m13 37 2 3h6v-8h-14v5z" fill="#cb2e5c"/><path d="m21 32h14v8h-14z" fill="#ffd782"/><path d="m35 32h14v8h-14z" fill="#cb2e5c"/><path d="m9 24h14v8h-14z" fill="#f9bb4b"/><path d="m23 24h14v8h-14z" fill="#f98c96"/><path d="m23 16h14v8h-14z" fill="#4da19a"/><path d="m26 16h2v5h-2z" fill="#327c73"/><path d="m30 16h2v5h-2z" fill="#327c73"/><g fill="#d3843d"><path d="m12 27h2v5h-2z"/><path d="m16 24h2v5h-2z"/><path d="m24 32h2v5h-2z"/><path d="m28 32h2v5h-2z"/></g><path d="m32 27h2v5h-2z" fill="#db527d"/><path d="m28 24h2v5h-2z" fill="#db527d"/><path d="m16 32h2v5h-2z" fill="#b11e48"/><path d="m38 32h2v5h-2z" fill="#b11e48"/><path d="m42 32h2v5h-2z" fill="#b11e48"/><path d="m41 20h4v12h-4z" fill="#2d75bb"/><path d="m45 23 10-10 2 2-12 14z" fill="#50b4f8"/></g></svg>