<svg height="512" viewBox="0 0 64 64" width="512" xmlns="http://www.w3.org/2000/svg"><g id="flat"><path d="m49 9h2v5h-2z" fill="#66342e"/><path d="m49 28h2v10h-2z" fill="#66342e"/><path d="m18.97 45.242-2.081.079 5.511-22.044-9.581 15.969-1.109-2.034 12.433-20.727a1 1 0 0 1 1.827.757z" fill="#f9bb4b"/><path d="m38.058 45.336-10-28a1 1 0 0 1 1.742-.936l15.678 20.9-1.048 1.939-12.266-16.354 8 22.4z" fill="#f9bb4b"/><path d="m44 41a4 4 0 0 1 -4 4h-23a4 4 0 0 1 -4-4h-10v4h2l3 10c.938 3.188 3.768 4 6 4h27a6.384 6.384 0 0 0 6-5l2-9v-5.25z" fill="#ad6327"/><path d="m6.2 49h41.911l.889-4h-9-23-12z" fill="#d3843d"/><path d="m3 37h10v4h-10z" fill="#d3843d"/><path d="m61 37-17 4v-4l17-2z" fill="#d3843d"/><path d="m26 52h2v2h-2z" fill="#f9bb4b"/><path d="m30 52h2v2h-2z" fill="#f9bb4b"/><path d="m22 52h2v2h-2z" fill="#f9bb4b"/><path d="m29 17h-4l-2-2v-3h8v3z" fill="#ad6327"/><g fill="#66342e"><path d="m25 17h4v24h-4z"/><path d="m10 30h2v7h-2z"/><path d="m10 8h2v18h-2z"/></g><path d="m21 4h6v4h-6z" fill="#b11e48"/><path d="m26 4h2v8h-2z" fill="#66342e"/><path d="m41 14h18v14h-18z" fill="#cfdfe8"/><path d="m54 20h-3v-3h-2v3h-3v2h3v3h2v-3h3z" fill="#b11e48"/><path d="m38 13h24v2h-24z" fill="#ad6327"/><path d="m22 41h10v4h-10z" fill="#ad6327"/><path d="m5 8h5v4h-5z" fill="#b11e48"/><path d="m5 16v16s3-3 11-1z" fill="#ffd782"/></g></svg>