<svg height="512" viewBox="0 0 64 64" width="512" xmlns="http://www.w3.org/2000/svg"><g id="flat"><path d="m59.211 40.016-3.633-7.266 2.422.25 3 6z" fill="#d3843d"/><path d="m56.945 41.753-5.567-3.712 3.622-.041 3.055 2.089z" fill="#d3843d"/><path d="m24 12-13-3s1 6-1 9l14 2z" fill="#aabece"/><path d="m7.02 43.196-2-10 1.96-.392 2.165 10.824z" fill="#d3843d"/><path d="m6.12 54a4.4 4.4 0 0 1 -.12-1 9.162 9.162 0 0 1 1.44-4.12l.56-.88v-1l-5-2v-2h46v11z" fill="#394d5c"/><path d="m61 41-12 6v-4l12-4z" fill="#f9bb4b"/><g fill="#7d8d9c"><path d="m20 48v2h-9a1.185 1.185 0 0 1 -.32-.05l-3.24-1.07c.32-.54.56-.88.56-.88v-1l3.16 1z"/><path d="m36 48h13v2h-13z"/><path d="m32 48h2v2h-2z"/><path d="m28 48h2v2h-2z"/><path d="m49 54v1a3 3 0 0 1 -3 3h-38a12.753 12.753 0 0 1 -1.88-4z"/></g><path d="m17 39h18v4h-18z" fill="#f9bb4b"/><path d="m36 10h6v6h-6z" fill="#cfdfe8"/><path d="m38 7h2v3h-2z" fill="#d3843d"/><path d="m24 5h2v34h-2z" fill="#d3843d"/><path d="m38 16h2v27h-2z" fill="#d3843d"/><path d="m48.8 33.837 9.2-.837s-7-7-11-14v13.4z" fill="#cfdfe8"/><path d="m45 30v9l10-1z" fill="#aabece"/><path d="m33 9h12v2h-12z" fill="#66342e"/><path d="m45 39-5 4v-17l5 4" fill="#cfdfe8"/><path d="m38 39h-14v-18l14 5z" fill="#aabece"/><path d="m26 8v8h11s-8-3-11-8z" fill="#cfdfe8"/><path d="m29 32h-2v-5a1 1 0 0 1 1.243-.97l4 1-.486 1.94-2.757-.689z" fill="#f4f4e6"/><path d="m24 35-22-2a21.084 21.084 0 0 0 6-16l16 2z" fill="#cfdfe8"/><path d="m21 27h-2v-4.117l-7.124-.891.248-1.984 8 1a1 1 0 0 1 .876.992z" fill="#f4f4e6"/><path d="m19 29h2v2h-2z" fill="#f4f4e6"/><path d="m22 7h7v2h-7z" fill="#66342e"/><path d="m35 20h8v6h-8z" fill="#cfdfe8"/><path d="m32 19h15v2h-15z" fill="#66342e"/></g></svg>