<svg height="512" viewBox="0 0 64 64" width="512" xmlns="http://www.w3.org/2000/svg"><g id="flat"><path d="m5 41.612h2v4.388h-2z" fill="#32b1cc"/><path d="m3 41h8v2h-8z" fill="#2a68b0"/><path d="m8 41v-3l3-2h2l2 2v3z" fill="#aabece"/><path d="m8 33-3 2 3 3 3-2z" fill="#394d5c"/><path d="m54.172 35h5.657v2h-5.657z" fill="#394d5c" transform="matrix(.707 -.707 .707 .707 -8.761 50.849)"/><path d="m52 55h-42a3.154 3.154 0 0 1 -3-2l-1-4h-3v-4h58l-5 4-1 3c-.241 1.447-1.533 3-3 3z" fill="#aabece"/><path d="m3 45v4h3 50l5-4z" fill="#7d8d9c"/><path d="m42 45h-33l2-4h29z" fill="#394d5c"/><path d="m44 45v-3l2-2h4l5 5z" fill="#394d5c"/><path d="m50.672 37.379h5.657v4.243h-5.657z" fill="#5a6470" transform="matrix(.707 -.707 .707 .707 -12.261 49.399)"/><path d="m37 41h-20l2-6h16z" fill="#7d8d9c"/><path d="m21 31h10v4h-10z" fill="#aabece"/><path d="m24 19h4v12h-4z" fill="#394d5c"/><path d="m20 22h11v2h-11z" fill="#2a68b0"/><path d="m28 19h-4l-2-4h8z" fill="#aabece"/><path d="m23 9h2v6h-2z" fill="#2a68b0"/><path d="m27 11h2v4h-2z" fill="#2a68b0"/><g fill="#fff69a"><circle cx="23" cy="37" r="2"/><circle cx="31" cy="37" r="2"/></g></g></svg>