<svg height="512" viewBox="0 0 64 64" width="512" xmlns="http://www.w3.org/2000/svg"><g id="flat"><path d="m5 39h31v8h-31z" fill="#394d5c"/><path d="m51 57h-44l-4-4v-6h24a4 4 0 0 0 4-4h30l-3.64 10z" fill="#c83528"/><circle cx="36" cy="49" fill="#f3e56d" r="2"/><circle cx="44" cy="49" fill="#f3e56d" r="2"/><circle cx="52" cy="49" fill="#f3e56d" r="2"/><path d="m57.36 53s-3.88 4-6.36 4h-44l-4-4z" fill="#7fcac9"/><g fill="#f4f4e6"><path d="m8 42h2v2h-2z"/><path d="m12 42h2v2h-2z"/><path d="m16 42h2v2h-2z"/><path d="m20 42h2v2h-2z"/></g><path d="m3 35h35v4h-35z" fill="#7d8d9c"/><path d="m45 31h-22l22-22z" fill="#7fcac9"/><path d="m44 7h2v36h-2z" fill="#2d75bb"/><path d="m38 28h-6a1 1 0 0 1 -.707-1.707l7-7 1.414 1.414-5.293 5.293h3.586z" fill="#f4f4e6"/><path d="m40 26h2v2h-2z" fill="#f4f4e6"/></g></svg>