<svg height="512" viewBox="0 0 64 64" width="512" xmlns="http://www.w3.org/2000/svg"><g id="flat"><path d="m16 19h2v6h-2z" fill="#66342e"/><path d="m40 19h2v6h-2z" fill="#66342e"/><g fill="#f9bb4b"><path d="m10.949 47.316-2.292.55 4.394-13.182 2.438-.987z"/><path d="m23.105 43.447-4.875-9.75 2.665.856 4.488 8.977z"/><path d="m33.848 43.53h-2.359l5.557-8.891 2.948-.942z"/><path d="m53.293 46.707-12.102-12.102 2.516-.312 11.902 11.902z"/></g><path d="m61 47-13.143 4 1.143-4 12-2z" fill="#d3843d"/><path d="m7.889 51h-4.889v-4h4z" fill="#d3843d"/><path d="m49 47-1.71 6-.29 1a6.881 6.881 0 0 1 -7 5h-27a4.114 4.114 0 0 1 -4-3l-.67-3-.44-2-.89-4z" fill="#ad6327"/><path d="m12 47h4v4h-4z" fill="#f9bb4b"/><path d="m21 47h4v4h-4z" fill="#f9bb4b"/><path d="m30 47h4v4h-4z" fill="#f9bb4b"/><path d="m39 47h4v4h-4z" fill="#f9bb4b"/><path d="m47.86 51-.57 2h-38.96l-.44-2z" fill="#66342e"/><path d="m27 54h2v2h-2z" fill="#f9bb4b"/><path d="m31 54h2v2h-2z" fill="#f9bb4b"/><path d="m23 54h2v2h-2z" fill="#f9bb4b"/><path d="m22 21a12.133 12.133 0 0 0 -5-1 12.133 12.133 0 0 0 -5 1v-8h10z" fill="#ffd782"/><path d="m25 37a20.687 20.687 0 0 0 -8-2 20.687 20.687 0 0 0 -8 2v-12h16z" fill="#ffd782"/><path d="m19 9h-4l-2-4h8z" fill="#ffd782"/><path d="m16 9h2v5h-2z" fill="#66342e"/><path d="m21 43h14v4h-14z" fill="#d3843d"/><path d="m16 35h2v12h-2z" fill="#66342e"/><path d="m16 28h2v2h-2z" fill="#f4f4e6"/><path d="m20 28h2v2h-2z" fill="#f4f4e6"/><path d="m12 28h2v2h-2z" fill="#f4f4e6"/><path d="m46 21a13 13 0 0 0 -10 0v-8h10z" fill="#ffd782"/><path d="m49 37a20.687 20.687 0 0 0 -8-2 20.687 20.687 0 0 0 -8 2v-12h16z" fill="#ffd782"/><path d="m43 9h-4l-2-4h8z" fill="#ffd782"/><path d="m40 9h2v5h-2z" fill="#66342e"/><path d="m40 35h2v12h-2z" fill="#66342e"/><path d="m40 28h2v2h-2z" fill="#f4f4e6"/><path d="m44 28h2v2h-2z" fill="#f4f4e6"/><path d="m36 28h2v2h-2z" fill="#f4f4e6"/><path d="m9 12h16v2h-16z" fill="#ad6327"/><path d="m6 24h22v2h-22z" fill="#ad6327"/><path d="m33 12h16v2h-16z" fill="#ad6327"/><path d="m30 24h22v2h-22z" fill="#ad6327"/></g></svg>