<svg height="512" viewBox="0 0 64 64" width="512" xmlns="http://www.w3.org/2000/svg"><g id="flat"><path d="m46 35-2 3h-41l4 10h46l8-9v-4z" fill="#195c85"/><path d="m55 38h2v2h-2z" fill="#f4f4e6"/><path d="m51 38h2v2h-2z" fill="#f4f4e6"/><path d="m47 38h2v2h-2z" fill="#f4f4e6"/><path d="m5.4 44 1.6 4h46l3.556-4z" fill="#4481c3"/><path d="m5 32h12v6h-12z" fill="#d3843d"/><path d="m17 32h12v6h-12z" fill="#ad6327"/><path d="m29 32h12v6h-12z" fill="#d3843d"/><path d="m19 20h12v6h-12z" fill="#ad6327"/><path d="m7 20h12v6h-12z" fill="#d3843d"/><path d="m7 26h12v6h-12z" fill="#f9bb4b"/><path d="m19 26h12v6h-12z" fill="#ffd782"/><g fill="#66342e"><path d="m10 20h2v3h-2z"/><path d="m14 20h2v3h-2z"/><path d="m10 29h2v3h-2z"/><path d="m14 29h2v3h-2z"/><path d="m22 20h2v3h-2z"/><path d="m26 20h2v3h-2z"/><path d="m22 26h2v3h-2z"/><path d="m26 26h2v3h-2z"/><path d="m8 32h2v3h-2z"/><path d="m12 32h2v3h-2z"/><path d="m20 32h2v3h-2z"/><path d="m24 32h2v3h-2z"/><path d="m32 32h2v3h-2z"/><path d="m36 32h2v3h-2z"/></g><path d="m49 31h8v4h-8z" fill="#50b4f8"/><path d="m51 23h2a2 2 0 0 1 2 2v6a0 0 0 0 1 0 0h-4a0 0 0 0 1 0 0v-8a0 0 0 0 1 0 0z" fill="#195c85"/><path d="m43 15h-4v4h3l9 9v-5z" fill="#7fcac9"/><path d="m40 29a3 3 0 0 1 -3-3h2a1 1 0 1 0 1-1 1 1 0 0 1 -1-1v-5h2v4.171a3 3 0 0 1 -1 5.829z" fill="#f9bb4b"/></g></svg>