<svg height="512" viewBox="0 0 64 64" width="512" xmlns="http://www.w3.org/2000/svg"><g id="flat"><path d="m29 14c-2 0-2 1-4 1s-2-1-4-1v5c2 0 2 1 4 1s2-1 4-1 2 1 4 1v-5c-2 0-2-1-4-1z" fill="#dd3e46"/><path d="m3 46 6-6h52s-3.42 5.68-3.65 6z" fill="#f4f3d7"/><path d="m57.35 46c-1.55 2.25-3.59 4-6.35 4h-48v-4z" fill="#e97424"/><path d="m14 40h2v3h-2z" fill="#f9bb4b"/><path d="m26 40h2v3h-2z" fill="#f9bb4b"/><path d="m37 40h2v3h-2z" fill="#f9bb4b"/><path d="m49 40h2v3h-2z" fill="#f9bb4b"/><path d="m49 40h-30l3-8h27z" fill="#e97424"/><path d="m20.5 36h-9.5l2-4h9z" fill="#ce5909"/><path d="m47 32h-22l2-6h20z" fill="#f4f3d7"/><path d="m37 20h4v6h-4z" fill="#ce5909"/><path d="m52 36h2v4h-2z" fill="#32b1cc"/><path d="m56 36h2v4h-2z" fill="#32b1cc"/><path d="m32 14h2v12h-2z" fill="#195c85"/><g fill="#fff69a"><path d="m23 35h2v2h-2z"/><path d="m28 35h2v2h-2z"/><path d="m33 35h2v2h-2z"/><path d="m38 35h2v2h-2z"/><path d="m43 35h2v2h-2z"/></g><path d="m49 35h11v2h-11z" fill="#195c85"/></g></svg>