<svg height="512" viewBox="0 0 64 64" width="512" xmlns="http://www.w3.org/2000/svg"><g id="flat"><g fill="#f9bb4b"><path d="m6.895 46.447-2.513.553 2.723-5.447 2.763-1.053z"/><path d="m29 47a1 1 0 0 1 -.895-.553l-3.105-6.259 1.189-2.045 2.811 5.621 1.105-2.211 2.77-.924-2.975 5.818a1 1 0 0 1 -.9.553z"/><path d="m45 47a1 1 0 0 1 -.9-.553l-2.73-5.259 2.52.365 1 2.008 1.833-4.561 1.839.938-2.633 6.433a1 1 0 0 1 -.887.628z"/><path d="m58.849 43.218-7.037-5.075h3.703l5.485 3.857z"/><path d="m36.678 24.266-13.874-12.807-.482 2.275 5.63 5.198 2.048 8.068 3.191 4.64-2.559-10.234 12.163 11.227-2.608-4.758z"/><path d="m10.316 17.948-.316-1.948 10.224-4.462-.908 2.41z"/></g><path d="m45 46v12a3 3 0 0 1 -3 3h-34v-11l-5-2v-2z" fill="#ad6327"/><path d="m61 44-16 7v-5l16-4z" fill="#d3843d"/><path d="m20 51v2h-9a1.185 1.185 0 0 1 -.32-.05l-2.68-.89v-2.06l3.16 1z" fill="#66342e"/><path d="m32 51h13v2h-13z" fill="#66342e"/><path d="m28 51h2v2h-2z" fill="#66342e"/><path d="m24 51h2v2h-2z" fill="#66342e"/><path d="m8 61h34a3 3 0 0 0 3-3v-1h-37z" fill="#d3843d"/><path d="m19 42h-16s7-12 7-26l9 4z" fill="#ffd782"/><path d="m23 22 4 2v18h-4z" fill="#ffd782"/><path d="m30 27v15h15z" fill="#ffd782"/><path d="m36.678 24.266 10.322 16.734 8.515-2.857z" fill="#ffd782"/><path d="m17 7h8v4h-8z" fill="#ad6327"/><path d="m21 3a2 2 0 0 1 2 2v2a0 0 0 0 1 0 0h-4a0 0 0 0 1 0 0v-2a2 2 0 0 1 2-2z" fill="#d3843d"/><path d="m11.9 31.447-1.79-.894a22.26 22.26 0 0 0 1.89-8.553 1 1 0 0 1 .416-.811.99.99 0 0 1 .9-.136l6 2 1.684 2.681-7.063-2.368a22.8 22.8 0 0 1 -2.037 8.081z" fill="#f4f4e6"/><path d="m10 33h2v2h-2z" fill="#f4f4e6"/><path d="m8 37h2v2h-2z" fill="#f4f4e6"/><path d="m19 11h4v35h-4z" fill="#66342e"/></g></svg>