<svg height="512" viewBox="0 0 64 64" width="512" xmlns="http://www.w3.org/2000/svg"><g id="flat"><path d="m36 13c-2 0-2 1-4 1s-2-1-4-1v5c2 0 2 1 4 1s2-1 4-1 2 1 4 1v-5c-2 0-2-1-4-1z" fill="#dd3e46"/><path d="m16.232 17.64-4.232-5.078-4.232 5.078-1.768-.64 5.232-6.64a1.033 1.033 0 0 1 1.536 0l5.232 6.64z" fill="#32b1cc"/><path d="m12 31a1 1 0 0 1 -.895-.553l-5.105-10.447 1.9-.447 4.1 8.211 4.105-8.211 1.895.447-5.1 10.447a1 1 0 0 1 -.9.553z" fill="#32b1cc"/><path d="m18 20-6 2-6-2v-3h12z" fill="#394d5c"/><path d="m9 8h6v2h-6z" fill="#50b4f8"/><path d="m17.122 47.479-5.122-9.391-5.122 9.391h-2.278l6.526-11.958a1.04 1.04 0 0 1 1.756 0l6.411 11.741z" fill="#32b1cc"/><path d="m11 6h2v41h-2z" fill="#2a68b0"/><path d="m56 51-1 3c-.241 1.447-1.533 3-3 3h-42a3.154 3.154 0 0 1 -3-2l-1-4z" fill="#7d8d9c"/><path d="m29 31v-3l-3-2h-3l-2 2v3z" fill="#aabece"/><path d="m29 23 3 2-3 3-3-2z" fill="#394d5c"/><path d="m3 47v4h3 50l5-4z" fill="#394d5c"/><path d="m29 41h22v6h-22z" fill="#7d8d9c"/><path d="m31 37h4v4h-4z" fill="#aabece"/><path d="m35 37h4v4h-4z" fill="#5a6470"/><path d="m39 37h4v4h-4z" fill="#aabece"/><path d="m43 37h4v4h-4z" fill="#5a6470"/><path d="m47 37h14v4h-14z" fill="#394d5c"/><path d="m34 29h12v8h-12z" fill="#7d8d9c"/><path d="m46 29h12v4h-12z" fill="#394d5c"/><path d="m37 32h2v2h-2z" fill="#fff69a"/><path d="m41 32h2v2h-2z" fill="#fff69a"/><path d="m46 29h-12l2-4h8z" fill="#394d5c"/><path d="m21 41h8v6h-8z" fill="#aabece"/><path d="m21 31h8v6h-8z" fill="#7d8d9c"/><path d="m23 37h4v4h-4z" fill="#394d5c"/><path d="m39 13h2v12h-2z" fill="#2d75bb"/><g fill="#f4f4e6"><circle cx="32" cy="53" r="2"/><circle cx="16" cy="53" r="2"/><circle cx="24" cy="53" r="2"/></g></g></svg>