<svg height="512" viewBox="0 0 64 64" width="512" xmlns="http://www.w3.org/2000/svg"><g id="flat"><path d="m15 25h6v10h-6z" fill="#394d5c"/><path d="m43 25h6v10h-6z" fill="#394d5c"/><g fill="#da1c4b"><path d="m3 29h12a0 0 0 0 1 0 0v6a0 0 0 0 1 0 0h-8a4 4 0 0 1 -4-4v-2a0 0 0 0 1 0 0z"/><path d="m49 29h12a0 0 0 0 1 0 0v2a4 4 0 0 1 -4 4h-8a0 0 0 0 1 0 0v-6a0 0 0 0 1 0 0z"/><path d="m21 29h22v6h-22z"/></g><path d="m21 25h22v4h-22z" fill="#f9bb4b"/><path d="m49 25h8a4 4 0 0 1 4 4 0 0 0 0 1 0 0h-12a0 0 0 0 1 0 0v-4a0 0 0 0 1 0 0z" fill="#f9bb4b"/><path d="m7 25h8a0 0 0 0 1 0 0v4a0 0 0 0 1 0 0h-12a0 0 0 0 1 0 0 4 4 0 0 1 4-4z" fill="#f9bb4b"/><path d="m25 25h-6l-.751-2.254a2.846 2.846 0 0 1 2.7-3.746 2.847 2.847 0 0 1 2.7 1.946z" fill="#32b1cc"/><path d="m42 25h-6l-.751-2.254a2.846 2.846 0 0 1 2.7-3.746 2.847 2.847 0 0 1 2.7 1.946z" fill="#32b1cc"/><path d="m28.707 39.707-1.414-1.414 13.293-13.293a1 1 0 0 1 1.414 0 1 1 0 0 1 0 1.414z" fill="#394d5c"/><path d="m26 37 4 4-5 5a2.828 2.828 0 0 1 -4-4z" fill="#f9bb4b"/></g></svg>