<svg height="512" viewBox="0 0 64 64" width="512" xmlns="http://www.w3.org/2000/svg"><g id="flat"><path d="m26 25h-11v-10h8z" fill="#195c85"/><path d="m21.052 25.316-1.773-5.316h-1.279v-2h2a1 1 0 0 1 .948.684l2.259 6.789z" fill="#f4f4e6"/><path d="m14 12h2v3h-2z" fill="#f9bb4b"/><path d="m18 12h2v3h-2z" fill="#f9bb4b"/><path d="m22 12h2v3h-2z" fill="#f9bb4b"/><path d="m41 25h-30l-2 8h32v-4h18v-4z" fill="#92cdde"/><path d="m41 33h-34l-2 8h36v-4h16v-4z" fill="#cdeef6"/><path d="m58.714 45-1.714 3c-1.133 1.511-3.111 3-5 3h-42c-1.515 0-3.322-.645-4-2l-1.5-4z" fill="#50b4f8"/><path d="m58.714 45 2.286-4h-58l1.5 4z" fill="#195c85"/><path d="m11 45h2v3h-2z" fill="#f4f4e6"/><path d="m15 45h2v3h-2z" fill="#f4f4e6"/><path d="m19 45h2v3h-2z" fill="#f4f4e6"/><path d="m47 45h2v3h-2z" fill="#f4f4e6"/><path d="m43 45h2v3h-2z" fill="#f4f4e6"/><g fill="#fcf05a"><path d="m8 36h2v2h-2z"/><path d="m12 36h2v2h-2z"/><path d="m16 36h2v2h-2z"/><path d="m20 36h2v2h-2z"/><path d="m24 36h2v2h-2z"/><path d="m28 36h2v2h-2z"/><path d="m32 36h2v2h-2z"/><path d="m20 28h2v2h-2z"/><path d="m16 28h2v2h-2z"/><path d="m12 28h2v2h-2z"/><path d="m24 28h2v2h-2z"/><path d="m28 28h2v2h-2z"/><path d="m32 28h2v2h-2z"/><path d="m36 28h2v2h-2z"/><path d="m36 36h2v2h-2z"/></g><path d="m41 37h18v4h-18z" fill="#32b1cc"/><path d="m41 29h14v4h-14z" fill="#32b1cc"/><path d="m56 25h-28l2-4h24z" fill="#195c85"/><path d="m41 12h2v9h-2z" fill="#87cee9"/><path d="m39 14h6v2h-6z" fill="#195c85"/><path d="m45 18h2v3h-2z" fill="#87cee9"/><path d="m49 16h2v5h-2z" fill="#87cee9"/><path d="m12 14h14v2h-14z" fill="#87cee9"/></g></svg>