<svg height="512" viewBox="0 0 64 64" width="512" xmlns="http://www.w3.org/2000/svg"><g id="flat"><path d="m29 2h2v3h-2z" fill="#87cee9"/><path d="m33 2h2v3h-2z" fill="#87cee9"/><path d="m49 61h-41v-12h51l-2 6a9.034 9.034 0 0 1 -8 6z" fill="#394d5c"/><path d="m8 59h-2l-2-4h4z" fill="#7d8d9c"/><path d="m3 50h5v2h-5z" fill="#32b1cc"/><path d="m48 49-4.5 4h-28.5l-6 8h5l3-4h22 2 4l9-8z" fill="#7d8d9c"/><path d="m53 43h4v6h-4z" fill="#da1c4b"/><path d="m61 43h-8v-2l8-2z" fill="#b11e48"/><path d="m8 43h4v6h-4z" fill="#da1c4b" transform="matrix(-1 0 0 -1 20 92)"/><path d="m4 43h8v-2l-8-2z" fill="#b11e48"/><path d="m20 13h4v4h-4z" fill="#394d5c" transform="matrix(-1 0 0 -1 44 30)"/><path d="m16 10 4 3h4v-2l-8-6z" fill="#b11e48"/><path d="m16 34h33v15h-33z" fill="#da1c4b"/><path d="m20 37h5v2h-5z" fill="#ffd782"/><path d="m20 41h5v2h-5z" fill="#ffd782"/><path d="m29 38h6v7h-6z" fill="#fff69a"/><path d="m39 38h6v7h-6z" fill="#fff69a"/><path d="m30 21h-16l2-4h14z" fill="#da1c4b"/><path d="m30 13h4v21h-4z" fill="#394d5c"/><path d="m30 34h-12v-9l-2-4h14z" fill="#cfdfe8"/><path d="m22 25h4v5h-4z" fill="#50b4f8"/><path d="m40 13h4v4h-4z" fill="#394d5c"/><path d="m48 10-4 3h-4v-2l8-6z" fill="#b11e48"/><path d="m34 21h16l-2-4h-14z" fill="#da1c4b"/><path d="m34 34h12v-9l2-4h-14z" fill="#cfdfe8"/><path d="m38 25h4v5h-4z" fill="#50b4f8" transform="matrix(-1 0 0 -1 80 55)"/><path d="m28 9h8v4h-8z" fill="#da1c4b"/><path d="m30 5h4v4h-4z" fill="#ffd782"/><path d="m38 6h-12a1 1 0 0 1 -1-1v-3h2v2h10v-2h2v3a1 1 0 0 1 -1 1z" fill="#32b1cc"/><path d="m16 5s-9-3-12 0 3 3 3 3-3 1-3 3 4 2 7 0 5-1 5-1z" fill="#87cee9"/><path d="m48 5s9-3 12 0-3 3-3 3 3 1 3 3-4 2-7 0-5-1-5-1z" fill="#87cee9"/><path d="m56 24a2 2 0 0 0 4 0c0-2-4-4-4-4z" fill="#2d75bb"/><path d="m8 21a2 2 0 0 1 -4 0c0-2 4-4 4-4z" fill="#2d75bb"/><path d="m19 34h2v11h-2z" fill="#f9bb4b"/><path d="m24 34h2v11h-2z" fill="#f9bb4b"/><path d="m8 56h-5a1 1 0 0 1 -1-1v-7h2v6h4z" fill="#87cee9"/></g></svg>