<svg height="512" viewBox="0 0 64 64" width="512" xmlns="http://www.w3.org/2000/svg"><g id="flat"><path d="m16 11c-2 0-2 1-4 1s-2-1-4-1v5c2 0 2 1 4 1s2-1 4-1 2 1 4 1v-5c-2 0-2-1-4-1z" fill="#b11e48"/><path d="m3 21v2a2 2 0 0 0 2 2v2a2 2 0 0 0 2 2h1v4h6v-10a2 2 0 0 0 -2-2z" fill="#cfdfe8"/><path d="m53 41h-40a5 5 0 0 1 -5-5v-3h45z" fill="#5a6470"/><path d="m5 25h6v2h-6z" fill="#7d8d9c"/><path d="m8 29h3v2h-3z" fill="#7d8d9c"/><path d="m59 17a4 4 0 0 0 -4 4 2 2 0 0 0 -2 2v18h3a4.1 4.1 0 0 0 4-5l-3-11a2 2 0 0 0 2-2v-2a2 2 0 0 0 2-2v-2z" fill="#cfdfe8"/><path d="m23 33h18a0 0 0 0 1 0 0v1a3 3 0 0 1 -3 3h-12a3 3 0 0 1 -3-3v-1a0 0 0 0 1 0 0z" fill="#7d8d9c"/><g fill="#fff69a"><path d="m11 36h2v2h-2z"/><path d="m15 36h2v2h-2z"/><path d="m48 36h2v2h-2z"/><path d="m44 36h2v2h-2z"/></g><path d="m34 19h12a2 2 0 0 1 2 2v4a0 0 0 0 1 0 0h-16a0 0 0 0 1 0 0v-4a2 2 0 0 1 2-2z" fill="#5a6470"/><path d="m34 25h12v8h-12z" fill="#cfdfe8"/><path d="m19 11h2v22h-2z" fill="#d3843d"/><path d="m24 29h6v4h-6z" fill="#f9bb4b"/><path d="m37 19h6v6h-6z" fill="#7d8d9c"/><path d="m24.707 45.707-1.414-1.414 11.293-11.293a1 1 0 0 1 1.414 0 1 1 0 0 1 0 1.414z" fill="#d3843d"/><path d="m22 43 4 4-5 5h-4v-4z" fill="#f9bb4b"/></g></svg>