<svg height="512" viewBox="0 0 64 64" width="512" xmlns="http://www.w3.org/2000/svg"><g id="flat"><g fill="#7fcac9"><path d="m43 36h2v4h-2z"/><path d="m47 36h2v4h-2z"/><path d="m55 36h2v9h-2z"/><path d="m51 36h2v4h-2z"/></g><path d="m41 35h18v2h-18z" fill="#2d75bb"/><path d="m3 44h6v2h-6z" fill="#7fcac9"/><path d="m51 54h-48v-4l6-6h52l-3 5c-.21.34-.42.68-.65 1z" fill="#50b4f8"/><path d="m57.35 50c-1.55 2.25-3.59 4-6.35 4h-48v-4z" fill="#195c85"/><path d="m11 40h42v4h-42z" fill="#4481c3"/><path d="m15 24h24v16h-24z" fill="#f9bb4b"/><path d="m39 24h-26v-4h28z" fill="#e97424"/><path d="m27 16h8v4h-8z" fill="#4481c3"/><path d="m33 16h-4l2-6h4z" fill="#cdeef6"/><path d="m31 28h8v8h-8z" fill="#f3e56d"/><circle cx="23" cy="32" fill="#f4f4e6" r="4"/><circle cx="17" cy="46" fill="#f3e56d" r="2"/><circle cx="32" cy="46" fill="#f3e56d" r="2"/><circle cx="48" cy="46" fill="#f3e56d" r="2"/></g></svg>