<svg height="512" viewBox="0 0 64 64" width="512" xmlns="http://www.w3.org/2000/svg"><g id="flat"><path d="m28 15h2v4h-2z" fill="#87cee9"/><path d="m17.807 36.591h-2.481l12.604-17.186.877 2.186z" fill="#82b5bc"/><rect fill="#394d5c" height="6" rx="3" width="58" x="3" y="42"/><path d="m54 42h-47l-2-3v-3h54v3z" fill="#e1462b"/><path d="m47 36h-22l2-8h18z" fill="#f9bb4b"/><path d="m30 28-2-4v-5h3l1 3 4 6z" fill="#394d5c"/><path d="m25 18h9v2h-9z" fill="#32b1cc"/><path d="m56 36h-6l2-4h4z" fill="#f9bb4b"/><path d="m7 30h8v6h-8z" fill="#f9bb4b"/><path d="m11 20h6v10h-6z" fill="#394d5c"/><path d="m11 30h-8v-4l8-2z" fill="#7d8d9c"/><path d="m29 31h2v2h-2z" fill="#fff69a"/><path d="m33 31h2v2h-2z" fill="#fff69a"/><path d="m37 31h2v2h-2z" fill="#fff69a"/><path d="m41 31h2v2h-2z" fill="#fff69a"/><g fill="#b11e48"><path d="m11 39h2v3h-2z"/><path d="m15 39h2v3h-2z"/><path d="m29 39h2v3h-2z"/><path d="m33 39h2v3h-2z"/><path d="m45 39h2v3h-2z"/><path d="m49 39h2v3h-2z"/></g><path d="m52 28h8v4h-8z" fill="#394d5c"/><path d="m43 28h-6l2-4h4z" fill="#394d5c"/><path d="m39 20h8v4h-8z" fill="#7d8d9c"/></g></svg>