<svg height="512" viewBox="0 0 64 64" width="512" xmlns="http://www.w3.org/2000/svg"><g id="flat"><path d="m57.191 41.588-9.031-12.418 1.588-1.216 9.832 13.518z" fill="#f9bb4b"/><path d="m26 7h2v29h-2z" fill="#d3843d"/><path d="m7.97 43.242-2.088.109 4.879-19.515 1.209 3.406z" fill="#f9bb4b"/><path d="m29 13v4l-3.39-.38-2.16-.24-12.45-1.38 5-6 9.84 3.03 1.96.6z" fill="#da1c4b"/><path d="m29 16-18-1-1 6 19 1z" fill="#b11e48"/><path d="m29 21h-19l1 6h18z" fill="#da1c4b"/><path d="m29 26-18 1 3 5 15-2z" fill="#b11e48"/><path d="m27.8 12.63-2.19 3.99-15.14 27.61-1.87-.75 14.85-27.1 2.39-4.35z" fill="#f9bb4b"/><path d="m47 10h2v34h-2z" fill="#d3843d"/><path d="m50 14v4l-3.76-.47-2.22-.28-10.02-1.25 5-4 7.56 1.37 2.14.39z" fill="#b11e48"/><path d="m50 17-16-1-1 5 17 1z" fill="#da1c4b"/><path d="m50 21h-17l1 5 16 1z" fill="#b11e48"/><path d="m50 26h-16l3 5 13-1z" fill="#da1c4b"/><path d="m41 36h2v3h-2z" fill="#f9bb4b"/><path d="m37 36h2v3h-2z" fill="#f9bb4b"/><path d="m48.7 13.76-2.46 3.77-14.4 22.02-1.68-1.1 13.86-21.2 2.54-3.88z" fill="#f9bb4b"/><path d="m43 44.278v-5.278h-12v5.944z" fill="#da1c4b"/><path d="m31 44.944v-8.944h-16v9.833z" fill="#b11e48"/><path d="m18 39h2v2h-2z" fill="#fff69a"/><path d="m22 39h2v2h-2z" fill="#fff69a"/><path d="m26 39h2v2h-2z" fill="#fff69a"/><path d="m61 41v3l-13 3-.82 2.05-.78 1.95-.8 2-1.6 4h-32l-1.67-3-1.11-2-2.22-4h-4v-5h7l2 2 36-2 3-2z" fill="#9c2d20"/><g fill="#d3843d"><path d="m10 48v2h-1.89l-1.11-2z"/><path d="m48 47-.82 2.05-18.13.95-.1-2z"/><path d="m25 47h2v2h-2z"/><path d="m21 47h2v2h-2z"/></g><path d="m30 52v2h-19.67l-1.11-2z" fill="#66342e"/><path d="m46.4 51-.8 2h-11.6v-2z" fill="#66342e"/></g></svg>