<svg height="512" viewBox="0 0 64 64" width="512" xmlns="http://www.w3.org/2000/svg"><g id="flat"><path d="m37 24h-2v-3h-2v3h-2v-4a1 1 0 0 1 1-1h4a1 1 0 0 1 1 1z" fill="#4481c3"/><path d="m53 36h-43a6.074 6.074 0 0 1 -6-5l-1-7h58l-2 7c-.953 2.858-2.987 5-6 5z" fill="#9bc499"/><path d="m59.857 28 1.143-4h-58l.571 4z" fill="#4da19a"/><g fill="#f4f4e6"><path d="m31 31h2v2h-2z"/><path d="m35 31h2v2h-2z"/><path d="m27 31h2v2h-2z"/></g><path d="m23 24h-14l2-4h10z" fill="#394d5c"/><path d="m23 24-2-4v-3h4v3l3 4z" fill="#50b4f8"/><path d="m16.707 40.707-1.414-1.414 15.293-15.293a1 1 0 0 1 1.414 0 1 1 0 0 1 0 1.414z" fill="#f9bb4b"/><path d="m14 38 4 4-5 5a2.828 2.828 0 0 1 -4-4z" fill="#cb2e5c"/></g></svg>