<svg height="512" viewBox="0 0 64 64" width="512" xmlns="http://www.w3.org/2000/svg"><g id="flat"><path d="m56.482 45.268-6.001-7.202 2.519-.066 5.712 6.814z" fill="#d3843d"/><path d="m7.832 48.555-2.277-.19 4.613-6.92 2.512-.163z" fill="#d3843d"/><path d="m25.857 47.515-2.282-.083 3.568-5.947 2.188.24z" fill="#d3843d"/><path d="m17 42h-12l12-22z" fill="#b11e48"/><path d="m33 42h-12l12-30z" fill="#b11e48"/><path d="m34 42 19-4-19-26a35.548 35.548 0 0 1 4 16c0 9-4 14-4 14z" fill="#b11e48"/><g fill="#da1c4b"><path d="m41.165 37.986-.33-1.972 4.319-.72-2.935-3.669 1.562-1.25 4 5a1 1 0 0 1 -.616 1.611z"/><path d="m14 39h-3a1 1 0 0 1 -.857-1.515l3-5 1.714 1.03-2.091 3.485h1.234z"/><path d="m26 37h2v2h-2z"/><path d="m28 33h2v2h-2z"/></g><path d="m33 9h2v39h-2z" fill="#f9bb4b"/><path d="m17 17h2v31h-2z" fill="#f9bb4b"/><path d="m51 46-3.299 5.32 13.299-5.32v-2z" fill="#f9bb4b"/><path d="m48.978 50.043-.978 1.957c-1.446 2.41-5.19 4-8 4h-30c-1.515 0-3.322-.645-4-2l-1.042-2.083z" fill="#66342e"/><path d="m51 46-48 2 1.958 3.917 44.02-1.874z" fill="#ad6327"/></g></svg>