<svg height="512" viewBox="0 0 64 64" width="512" xmlns="http://www.w3.org/2000/svg"><g id="flat"><path d="m39 14-1-4-3.553-2.895a.987.987 0 0 0 -.689-.075l-10.758 2.67 2.671 1.414 8.213-2.054 2.764 2.94h-2.648v2z" fill="#d3843d"/><path d="m21.986 45.164-2.14.677 1.168-7.005 2.194-1.002z" fill="#f9bb4b"/><path d="m5.994 45.11-2.058.408 1.07-9.628 2.158-1.305z" fill="#f9bb4b"/><path d="m9.004 16.053-2.352-1.324 8.032-2.677.632 1.896z" fill="#d3843d"/><path d="m15 36h-12s3-13 3-22l9 4z" fill="#dc6c54"/><path d="m34 39h-14l2-30 12 4z" fill="#dc6c54"/><path d="m34.447 41.895-.894-1.79 6.05-3.025-1.603 2.92z" fill="#d3843d"/><path d="m53 36-15 4v-30z" fill="#dc6c54"/><path d="m45 45v10a3 3 0 0 1 -3 3h-33l-2-4 .61-3.07.39-1.93-5-2v-2z" fill="#9de0d5"/><path d="m61 43-16 7v-5l16-4z" fill="#d3843d"/><g fill="#d1f5c9"><path d="m20 50v2h-9a1.185 1.185 0 0 1 -.32-.05l-3.07-1.02.39-1.93 3.16 1z"/><path d="m32 50h13v2h-13z"/><path d="m28 50h2v2h-2z"/><path d="m24 50h2v2h-2z"/></g><path d="m9 58h33a3 3 0 0 0 3-3v-1h-38z" fill="#4a9d86"/><path d="m14 10h2v35h-2z" fill="#f9bb4b"/><path d="m33 5h2v40h-2z" fill="#f9bb4b"/><path d="m8.97 29.242-1.94-.484a43.156 43.156 0 0 0 .97-8.758h2a44.488 44.488 0 0 1 -1.03 9.242z" fill="#f4f4e6"/><path d="m7 31h2v2h-2z" fill="#f4f4e6"/><path d="m42.2 35.98-.4-1.96 3.717-.744-2.416-4.829 1.79-.894 3 6a1 1 0 0 1 -.7 1.427z" fill="#f4f4e6"/><path d="m29 36h-5a1 1 0 0 1 -.994-1.11l1-9 1.988.22-.877 7.89h3.883z" fill="#f4f4e6"/></g></svg>