<svg height="512" viewBox="0 0 64 64" width="512" xmlns="http://www.w3.org/2000/svg"><g id="flat"><path d="m52 51h-42c-1.515 0-3.322-.645-4-2l-3-12h58l-4 11c-1.133 1.511-3.111 3-5 3z" fill="#5a6470"/><path d="m59.545 41 1.455-4h-58l1 4z" fill="#e5e4be"/><path d="m5 29h50v8h-50z" fill="#f4f2ce"/><path d="m7 21h46v8h-46z" fill="#e5e4be"/><path d="m15 13h6v8h-6z" fill="#f4f2ce"/><path d="m15 9h6v4h-6z" fill="#dd3e46"/><path d="m27 13h6v8h-6z" fill="#f4f2ce"/><path d="m27 9h6v4h-6z" fill="#dd3e46"/><path d="m39 13h6v8h-6z" fill="#f4f2ce"/><path d="m39 9h6v4h-6z" fill="#dd3e46"/><path d="m47 18h2v3h-2z" fill="#7fcac9"/><path d="m11 18h2v3h-2z" fill="#7fcac9"/><path d="m7 18h2v3h-2z" fill="#7fcac9"/><path d="m51 18h2v3h-2z" fill="#7fcac9"/><g fill="#f9bb4b"><path d="m11 24h2v2h-2z"/><path d="m17 24h2v2h-2z"/><path d="m41 24h2v2h-2z"/><path d="m47 24h2v2h-2z"/><path d="m23 24h2v2h-2z"/><path d="m29 24h2v2h-2z"/><path d="m35 24h2v2h-2z"/><path d="m8 32h2v2h-2z"/><path d="m14 32h2v2h-2z"/><path d="m38 32h2v2h-2z"/><path d="m44 32h2v2h-2z"/><path d="m49 32h2v2h-2z"/><path d="m20 32h2v2h-2z"/><path d="m26 32h2v2h-2z"/><path d="m32 32h2v2h-2z"/></g><path d="m9 44h2v2h-2z" fill="#fff69a"/><path d="m15 44h2v2h-2z" fill="#fff69a"/><path d="m39 44h2v2h-2z" fill="#fff69a"/><path d="m45 44h2v2h-2z" fill="#fff69a"/><path d="m50 44h2v2h-2z" fill="#fff69a"/><path d="m21 44h2v2h-2z" fill="#fff69a"/><path d="m27 44h2v2h-2z" fill="#fff69a"/><path d="m33 44h2v2h-2z" fill="#fff69a"/></g></svg>