<svg height="512" viewBox="0 0 64 64" width="512" xmlns="http://www.w3.org/2000/svg"><g id="flat"><path d="m52 36h2v8h-2z" fill="#66342e"/><path d="m11 37h2v10.1h-2z" fill="#66342e"/><path d="m47.23 57a7.448 7.448 0 0 1 -6.23 4h-25a9.969 9.969 0 0 1 -7.07-2.93 9.38 9.38 0 0 1 -.93-1.07l-1.16-2a9.881 9.881 0 0 1 -.84-4 3 3 0 0 1 -3-3l1-4h7v2h34.57l.57-2 14.86-2v3l-11 5-.44 1.11-1.56 3.89z" fill="#ad6327"/><g fill="#66342e"><path d="m8 49h4v2h-4z"/><path d="m13 55v2h-5a9.669 9.669 0 0 1 -1.16-2z"/><path d="m48 55a7.735 7.735 0 0 1 -.77 2h-6.23v-2z"/><path d="m21 56h2v2h-2z"/><path d="m29 56h2v2h-2z"/></g><path d="m26 3c-2 0-2 1-4 1s-2-1-4-1v5c2 0 2 1 4 1s2-1 4-1 2 1 4 1v-5c-2 0-2-1-4-1z" fill="#b11e48"/><path d="m37 21h-14s1-1 1-4-1-4-1-4h14s1 1 1 4-1 4-1 4z" fill="#195c85"/><path d="m38 42h-17a41.263 41.263 0 0 0 1-9 27.673 27.673 0 0 0 -1-8h17a27.673 27.673 0 0 1 1 8 41.263 41.263 0 0 1 -1 9z" fill="#195c85"/><path d="m29 3h2v10h-2z" fill="#66342e"/><path d="m29 21h2v5h-2z" fill="#66342e"/><path d="m59 36h-13a12.133 12.133 0 0 0 1-5 12.133 12.133 0 0 0 -1-5h13a12.133 12.133 0 0 1 1 5 12.133 12.133 0 0 1 -1 5z" fill="#195c85"/><path d="m29 42h2v4h-2z" fill="#66342e"/><path d="m20 12h20v2h-20z" fill="#f9bb4b"/><path d="m19 24h22v2h-22z" fill="#f9bb4b"/><path d="m45 17v5c2 0 2-1 4-1s2 1 4 1v-5c-2 0-2-1-4-1s-2 1-4 1z" fill="#195c85"/><path d="m52 16h2v10h-2z" fill="#66342e"/><path d="m43 25h19v2h-19z" fill="#f9bb4b"/><path d="m18 37h-13a12.133 12.133 0 0 0 1-5 12.133 12.133 0 0 0 -1-5h13a12.133 12.133 0 0 1 1 5 12.133 12.133 0 0 1 -1 5z" fill="#195c85"/><path d="m4 9v5c2 0 2-1 4-1s2 1 4 1v-5c-2 0-2-1-4-1s-2 1-4 1z" fill="#b11e48"/><path d="m11 8h2v10h-2z" fill="#66342e"/><path d="m14 22h-4l-1-4h6z" fill="#ad6327"/><path d="m11 22h2v5h-2z" fill="#66342e"/><path d="m28 16h2v2h-2z" fill="#f4f4e6"/><path d="m32 16h2v2h-2z" fill="#f4f4e6"/><path d="m34 32c0-1.657-1.791-3-4-3s-4 1.343-4 3a3.533 3.533 0 0 0 2 3l-1 3h6l-1-3a3.533 3.533 0 0 0 2-3z" fill="#f4f4e6"/><path d="m14 51h27v2h-27z" fill="#66342e"/><circle cx="27" cy="52" fill="#fff69a" r="2"/><circle cx="35" cy="52" fill="#fff69a" r="2"/><circle cx="19" cy="52" fill="#fff69a" r="2"/></g></svg>