<svg height="512" viewBox="0 0 64 64" width="512" xmlns="http://www.w3.org/2000/svg"><g id="flat"><path d="m52.359 46.769-5.359-4.469-5.359 4.467-2.5-.512 7.219-6.026a1 1 0 0 1 1.282 0l7.389 6.191z" fill="#d3843d"/><path d="m46 39h2v8h-2z" fill="#66342e"/><path d="m53.35 16.759-6.35-5.442-6.35 5.442-1.3-1.518 7-6a1 1 0 0 1 1.3 0l7 6z" fill="#d3843d"/><path d="m15.241 47.65-5.241-6.114-5.241 6.114-1.518-1.3 6-7a1.031 1.031 0 0 1 1.518 0l6 7z" fill="#d3843d"/><path d="m3 46h58v4h-58z" fill="#ad6327"/><path d="m3 54h58v4h-58z" fill="#ad6327"/><g fill="#d3843d"><circle cx="24" cy="52" r="2"/><circle cx="32" cy="52" r="2"/><circle cx="40" cy="52" r="2"/><circle cx="48" cy="52" r="2"/><circle cx="56" cy="52" r="2"/><circle cx="8" cy="52" r="2"/><circle cx="16" cy="52" r="2"/></g><path d="m17 36h4v10h-4z" fill="#f9bb4b"/><path d="m29 36h4v10h-4z" fill="#f9bb4b"/><path d="m36 36h-22l4-6h14z" fill="#66342e"/><path d="m56 39h-18s2-4 2-12-2-12-2-12h18s2 4 2 12-2 12-2 12z" fill="#cfdfe8"/><path d="m46 5h2v10h-2z" fill="#66342e"/><path d="m3 20h7v5h-7z" fill="#b11e48"/><path d="m48 18h2v2h-2z" fill="#32b1cc"/><path d="m43 19h2v2h-2z" fill="#32b1cc"/><path d="m53 19h2v2h-2z" fill="#32b1cc"/><path d="m48 31.707h2v4.293h-2z" fill="#32b1cc"/><path d="m50.5 30.379h2v4.243h-2z" fill="#32b1cc" transform="matrix(.707 -.707 .707 .707 -7.897 45.935)"/><path d="m44.379 31.5h4.243v2h-4.243z" fill="#32b1cc" transform="matrix(.707 -.707 .707 .707 -9.361 42.399)"/><path d="m52 25c0 1.657-1.343 8-3 8s-3-6.343-3-8 1.343-2 3-2 3 .343 3 2z" fill="#e97424"/><path d="m9 19h2v27h-2z" fill="#66342e"/></g></svg>