<svg height="512" viewBox="0 0 64 64" width="512" xmlns="http://www.w3.org/2000/svg"><g id="flat"><path d="m58 55c-1.355 2.71-3.97 5-7 5h-39c-1.889 0-3.867-1.489-5-3l-4-5 58-4z" fill="#50b4f8"/><path d="m6.033 55.791 53.201-3.669 1.766-4.122-58 4z" fill="#195c85"/><path d="m47 48.966v-3.966h-26l-1.965 5.894z" fill="#87cee9"/><path d="m32 5a2 2 0 0 1 2 2v38a0 0 0 0 1 0 0h-4a0 0 0 0 1 0 0v-38a2 2 0 0 1 2-2z" fill="#50b4f8"/><path d="m30 41h-20l20-32z" fill="#ffd782"/><path d="m34 41h20l-20-32z" fill="#ffd782"/><g fill="#f9bb4b"><path d="m27 20h3v2h-3z"/><path d="m27 25h3v2h-3z"/><path d="m27 30h3v2h-3z"/><path d="m27 35h3v2h-3z"/><path d="m47 38h-5v-2h3.2l-4.043-6.47 1.7-1.06 5 8a1 1 0 0 1 -.857 1.53z"/><path d="m38 36h2v2h-2z"/></g></g></svg>