<svg height="512" viewBox="0 0 64 64" width="512" xmlns="http://www.w3.org/2000/svg"><g id="flat"><g fill="#66342e"><path d="m57.294 35.708-7.829-7.811 1.985-.844 8.675 8.655z"/><path d="m47 29h2v8h-2z"/><path d="m44.838 38.334-10.001-3.334 2.614-1.237 9.863 3.288z"/><path d="m14.747 44.665-1.494-1.33 9.358-10.528 1.685 1.115z"/><path d="m4.8 37.6-1.6-1.2 3-4 2.39.147z"/></g><path d="m3 37h2v5h-2z" fill="#f9bb4b"/><path d="m7 37h2v5h-2z" fill="#f9bb4b"/><path d="m11 37h2v5h-2z" fill="#f9bb4b"/><path d="m12 11h2v9h-2z" fill="#66342e"/><path d="m33 12h2v12h-2z" fill="#66342e"/><path d="m47 8h2v8h-2z" fill="#66342e"/><path d="m44 41a4 4 0 0 1 -4 4h-23a4 4 0 0 1 -4-4h-10v4h2l3 10c.937 3.188 3.768 4 6 4h27a6.384 6.384 0 0 0 6-5l2-9v-5.25z" fill="#ad6327"/><path d="m61 37-17 4v-4l17-2z" fill="#d3843d"/><path d="m6.2 49h41.911l.889-4h-9-23-12z" fill="#f9bb4b"/><path d="m26 52h2v2h-2z" fill="#fcf05a"/><path d="m30 52h2v2h-2z" fill="#fcf05a"/><path d="m22 52h2v2h-2z" fill="#fcf05a"/><path d="m18 33h-14v-24c15 6 14 24 14 24z" fill="#ffd782"/><path d="m52 29h-14v-24c15 6 14 24 14 24z" fill="#ffd782"/><path d="m38 35h-16v-28c15 6 16 28 16 28z" fill="#ffd782"/><path d="m10.993 34h4v2h-4z" fill="#66342e" transform="matrix(.003 -1 1 .003 -22.051 47.873)"/><path d="m33 35h2v10h-2z" fill="#66342e"/><path d="m20 41h10v4h-10z" fill="#d3843d"/><path d="m12 30h-4a1 1 0 0 1 -1-1v-5h2v4h3z" fill="#f9bb4b"/><path d="m30 32h-4a1 1 0 0 1 -1-1v-5h2v4h3z" fill="#f9bb4b"/><path d="m46 26h-4a1 1 0 0 1 -1-1v-5h2v4h3z" fill="#f9bb4b"/><path d="m32 30h2v2h-2z" fill="#f9bb4b"/><path d="m2 36h14v2h-14z" fill="#d3843d"/></g></svg>