<svg height="512" viewBox="0 0 64 64" width="512" xmlns="http://www.w3.org/2000/svg"><g id="flat"><path d="m45 37-2 3h-40v1l4 9h46l8-9v-4z" fill="#dc6c54"/><path d="m30 20h-10l2-4h6z" fill="#8b3123"/><path d="m32 16h2v4h-2z" fill="#7fcac9"/><path d="m36 14h2v6h-2z" fill="#7fcac9"/><path d="m5.222 46 1.778 4h46l3.556-4z" fill="#f9bb4b"/><path d="m55 40h2v2h-2z" fill="#fff69a"/><path d="m51 40h2v2h-2z" fill="#fff69a"/><path d="m47 40h2v2h-2z" fill="#fff69a"/><path d="m41 40h-32l2-12h30z" fill="#8b3123"/><path d="m15 32h6v8h-6z" fill="#f4f4e6"/><circle cx="27" cy="34" fill="#fff69a" r="2"/><circle cx="35" cy="34" fill="#fff69a" r="2"/><g fill="#7fcac9"><path d="m46 33h2v4h-2z"/><path d="m50 33h2v4h-2z"/><path d="m54 33h2v4h-2z"/><path d="m58 33h2v4h-2z"/></g><path d="m44 32h18v2h-18z" fill="#2d75bb"/><path d="m19 20h20v8h-20z" fill="#dc6c54"/><path d="m22 23h2v2h-2z" fill="#fff69a"/><path d="m26 23h2v2h-2z" fill="#fff69a"/><path d="m30 23h2v2h-2z" fill="#fff69a"/><path d="m34 23h2v2h-2z" fill="#fff69a"/><path d="m11 14c-2 0-2 1-4 1s-2-1-4-1v5c2 0 2 1 4 1s2-1 4-1 2 1 4 1v-5c-2 0-2-1-4-1z" fill="#dd3e46"/><path d="m14 14h2v14h-2z" fill="#7fcac9"/></g></svg>