<svg height="512" viewBox="0 0 64 64" width="512" xmlns="http://www.w3.org/2000/svg"><g id="flat"><path d="m44 44h2v4h-2z" fill="#d3843d"/><path d="m48 44h2v4h-2z" fill="#d3843d"/><path d="m52 44h2v4h-2z" fill="#d3843d"/><path d="m39 43h17v2h-17z" fill="#195c85"/><path d="m37 35h-8l2-20h4z" fill="#92cdde"/><path d="m7 35h32v8h-32z" fill="#cdeef6"/><path d="m58.714 55-1.714 3c-1.133 1.511-3.111 3-5 3h-42c-1.515 0-3.322-.645-4-2l-1.5-4z" fill="#b11e48"/><path d="m58.714 55 2.286-4h-58l1.5 4z" fill="#cdeef6"/><path d="m11 55h2v3h-2z" fill="#f98c96"/><path d="m15 55h2v3h-2z" fill="#f98c96"/><path d="m19 55h2v3h-2z" fill="#f98c96"/><path d="m47 55h2v3h-2z" fill="#f98c96"/><path d="m43 55h2v3h-2z" fill="#f98c96"/><path d="m5 43h36v8h-36z" fill="#92cdde"/><path d="m41 47h16v4h-16z" fill="#32b1cc"/><g fill="#fff69a"><path d="m8 46h2v2h-2z"/><path d="m12 46h2v2h-2z"/><path d="m16 46h2v2h-2z"/><path d="m20 46h2v2h-2z"/><path d="m24 46h2v2h-2z"/><path d="m28 46h2v2h-2z"/><path d="m32 46h2v2h-2z"/><path d="m18 38h2v2h-2z"/><path d="m14 38h2v2h-2z"/><path d="m10 38h2v2h-2z"/><path d="m22 38h2v2h-2z"/><path d="m26 38h2v2h-2z"/><path d="m30 38h2v2h-2z"/><path d="m34 38h2v2h-2z"/><path d="m36 46h2v2h-2z"/></g><path d="m7 27h8v8h-8z" fill="#92cdde"/><path d="m15 30h10v5h-10z" fill="#32b1cc"/><path d="m10 30h2v2h-2z" fill="#fff69a"/><path d="m18 22h6v4h-6z" fill="#b11e48" transform="matrix(-1 0 0 -1 42 48)"/><path d="m23 22h2v8h-2z" fill="#d3843d"/><path d="m8 24h2v3h-2z" fill="#d3843d"/><path d="m12 23h2v4h-2z" fill="#d3843d"/><path d="m35.4 19-.4-4h-4l-.4 4z" fill="#b11e48"/><path d="m29.4 31h7.2l-.4-4h-6.4z" fill="#b11e48"/><path d="m29 9a2 2 0 1 0 2-2 1.225 1.225 0 0 0 -.19.02 2.887 2.887 0 0 0 .19-1.02 2.993 2.993 0 0 0 -5.98-.2 2.95 2.95 0 0 0 -4.04 0 2.993 2.993 0 1 0 -5.76 1.32 2.992 2.992 0 1 0 3.56 1.76c.47-.12.22 2.12 4.22 2.12a2.975 2.975 0 0 0 2.02-.8 1.995 1.995 0 0 0 3.98-.2z" fill="#aabece"/></g></svg>