<svg height="512" viewBox="0 0 64 64" width="512" xmlns="http://www.w3.org/2000/svg"><g id="flat"><path d="m7 32h-4v14h4a4 4 0 0 0 4-4v-6a4 4 0 0 0 -4-4z" fill="#b11e48"/><path d="m61 39a6.009 6.009 0 0 1 -6 6h-36l-16-6 16-6h36z" fill="#394d5c"/><path d="m61 39h-19a5.522 5.522 0 0 1 -4-2l-3-4h20a6 6 0 0 1 6 6z" fill="#87cee9"/><path d="m13 38h2v2h-2z" fill="#b11e48"/><path d="m17 38h2v2h-2z" fill="#b11e48"/><circle cx="32" cy="39" fill="#f4f4e6" r="2"/><circle cx="24" cy="39" fill="#f4f4e6" r="2"/><path d="m27 29h16v4h-16z" fill="#7d8d9c"/><path d="m29 25h4v4h-4z" fill="#b11e48"/><path d="m30 17h2v8h-2z" fill="#7fcac9"/><path d="m36 21h2v8h-2z" fill="#7fcac9"/><path d="m47 29h4v4h-4z" fill="#7d8d9c"/><path d="m47 25h8v4h-8z" fill="#394d5c"/></g></svg>