<svg height="512" viewBox="0 0 64 64" width="512" xmlns="http://www.w3.org/2000/svg"><g id="flat"><path d="m59 49a1.006 1.006 0 0 1 -.555-.168l-10.445-9.332.589-1.979 8.018 6.679-3.631-12.2 2.932 1.581 4 14a1 1 0 0 1 -.908 1.419z" fill="#d3843d"/><path d="m46.733 23.642-8.729-10.474.616-2.387 7.149 8.578z" fill="#d3843d"/><path d="m14 44h-11l4-18 7 4z" fill="#92cdde"/><path d="m14 50a1 1 0 0 1 -1-1v-25h2v22.149l4.453-5.568.8 2.232-5.468 6.812a1 1 0 0 1 -.785.375z" fill="#d3843d"/><path d="m44 38h2v11h-2z" fill="#d3843d"/><path d="m27 28-5-2-4 18h17v-6z" fill="#cdeef6"/><path d="m34 38h2v11h-2z" fill="#d3843d"/><path d="m22.874 49.485h-2.287l7.413-13.344 1.425 1.552z" fill="#d3843d"/><path d="m38.8 49.6-2.8.4 5.8-7.732 3.2-.935z" fill="#d3843d"/><path d="m61 49-13.89 4.227 1.89-4.227 12-2z" fill="#b5554e"/><path d="m7.889 53h-4.889v-4h4z" fill="#b5554e"/><path d="m49 49-1.71 6-.29 1a6.881 6.881 0 0 1 -7 5h-27a4.114 4.114 0 0 1 -4-3l-.67-3-.44-2-.89-4z" fill="#66342e"/><g fill="#f9bb4b"><path d="m12 49h4v4h-4z"/><path d="m21 49h4v4h-4z"/><path d="m30 49h4v4h-4z"/><path d="m39 49h4v4h-4z"/></g><path d="m47.86 53-.57 2h-38.96l-.44-2z" fill="#ad6327"/><path d="m27 56h2v2h-2z" fill="#f9bb4b"/><path d="m31 56h2v2h-2z" fill="#f9bb4b"/><path d="m23 56h2v2h-2z" fill="#f9bb4b"/><path d="m20 24h-12l2-6h8z" fill="#92cdde"/><path d="m19 14h-10l2-6h6z" fill="#92cdde"/><path d="m13 14h2v4h-2z" fill="#d3843d"/><path d="m13 5h2v3h-2z" fill="#d3843d"/><path d="m41 24h-12l2-6h8z" fill="#cdeef6"/><path d="m40 14h-10l2-6h6z" fill="#cdeef6"/><path d="m34 14h2v4h-2z" fill="#d3843d"/><path d="m34 5h2v3h-2z" fill="#d3843d"/><path d="m34 24h2v4h-2z" fill="#d3843d"/><path d="m41 28h-14v12a20.687 20.687 0 0 1 8-2 18.543 18.543 0 0 1 6 1.173z" fill="#92cdde"/><path d="m41 24v21a12.365 12.365 0 0 1 11-4z" fill="#cdeef6"/><path d="m45.769 19.359-.769 18.641a11.906 11.906 0 0 1 10.908-4.419z" fill="#92cdde"/><path d="m32 32h2v2h-2z" fill="#f4f4e6"/><path d="m36 32h2v2h-2z" fill="#f4f4e6"/></g></svg>