<svg height="512" viewBox="0 0 64 64" width="512" xmlns="http://www.w3.org/2000/svg"><g id="flat"><path d="m52.414 42.085-10.188-12.452.426-2.637 10.734 13.118z" fill="#f9bb4b"/><path d="m11.293 42.121-.547-2.281 13.052-13.052-.091 2.919z" fill="#f9bb4b"/><path d="m39.514 18.874-8.514-4.73-8.514 4.73-.972-1.748 9-5a1 1 0 0 1 .972 0l9 5z" fill="#f9bb4b"/><path d="m27 5c-2 0-2 1-4 1s-2-1-4-1v5c2 0 2 1 4 1s2-1 4-1 2 1 4 1v-5c-2 0-2-1-4-1z" fill="#da1c4b"/><path d="m30 5h2v13h-2z" fill="#66342e"/><path d="m58.893 39h-4.893a2 2 0 0 0 -2 2v10h-40v-10a2 2 0 0 0 -2-2h-4.893a2.075 2.075 0 0 0 -2.08 1.664 2 2 0 0 0 1.973 2.336h3.333l-1.333 8v2a6 6 0 0 0 6 6h38a6 6 0 0 0 6-6v-2l-1.333-8h3.333a2 2 0 0 0 1.973-2.336 2.075 2.075 0 0 0 -2.08-1.664z" fill="#ad6327"/><path d="m30 51h4v4h-4z" fill="#f9bb4b"/><path d="m34 51h4v4h-4z" fill="#ffd782"/><path d="m38 51h4a0 0 0 0 1 0 0v2a2 2 0 0 1 -2 2h-2a0 0 0 0 1 0 0v-4a0 0 0 0 1 0 0z" fill="#f9bb4b"/><path d="m22 51h4a0 0 0 0 1 0 0v4a0 0 0 0 1 0 0h-2a2 2 0 0 1 -2-2v-2a0 0 0 0 1 0 0z" fill="#f9bb4b"/><path d="m26 51h4v4h-4z" fill="#ffd782"/><g fill="#f4f4e6"><path d="m17 54h2v2h-2z"/><path d="m13 54h2v2h-2z"/><path d="m45 54h2v2h-2z"/><path d="m49 54h2v2h-2z"/></g><path d="m41 42h-20s2-4 2-12-2-12-2-12h20s2 4 2 12-2 12-2 12z" fill="#da1c4b"/><path d="m29 42h-4s2-4 2-12-2-12-2-12h4s2 4 2 12-2 12-2 12z" fill="#f4f4e6"/><path d="m37 42h-4s2-4 2-12-2-12-2-12h4s2 4 2 12-2 12-2 12z" fill="#f4f4e6"/><path d="m30 42h2v9h-2z" fill="#66342e"/><path d="m19 41h25v2h-25z" fill="#d3843d"/><path d="m19 17h25v2h-25z" fill="#d3843d"/></g></svg>