<svg height="512" viewBox="0 0 64 64" width="512" xmlns="http://www.w3.org/2000/svg"><g id="flat"><g fill="#7fcac9"><path d="m36 32h2v4h-2z"/><path d="m40 32h2v4h-2z"/><path d="m44 32h2v4h-2z"/><path d="m48 32h2v4h-2z"/><path d="m52 32h2v4h-2z"/><path d="m56 32h2v4h-2z"/></g><path d="m29 31h31v2h-31z" fill="#2d75bb"/><path d="m36 36-6 6h-27l1 3a4.517 4.517 0 0 0 4 3h45c3.013 0 5.047-2.142 6-5l2-7z" fill="#4481c3"/><path d="m59.857 40 1.143-4h-25l-4 4z" fill="#50b4f8"/><path d="m52 43h2v2h-2z" fill="#f4f4e6"/><path d="m48 43h2v2h-2z" fill="#f4f4e6"/><path d="m44 43h2v2h-2z" fill="#f4f4e6"/><path d="m30 42h-23l2-3-2-3h29z" fill="#195c85"/><path d="m34 36h-24l2-4-2-4h20z" fill="#f9bb4b"/><path d="m16 31h2v2h-2z" fill="#e97424"/><path d="m20 31h2v2h-2z" fill="#e97424"/><path d="m24 31h2v2h-2z" fill="#e97424"/><path d="m21 28h-10l2-4h6z" fill="#e97424"/><path d="m23 24h2v4h-2z" fill="#7fcac9"/><path d="m27 15h2v13h-2z" fill="#7fcac9"/></g></svg>