<svg id="icecream" enable-background="new 0 0 64 64" height="512" viewBox="0 0 64 64" width="512" xmlns="http://www.w3.org/2000/svg"><path d="m9.469 54.531c-1.171-1.172-1.171-3.07 0-4.242l9.192-9.189 4.239 4.239-9.193 9.192c-1.171 1.168-3.067 1.168-4.238 0z" fill="#f0bd80"/><path d="m21.49 43.925-9.19 9.192c-.898.895-2.262 1.126-3.405.577.142.31.338.593.577.837 1.171 1.171 3.071 1.171 4.242 0l9.186-9.192z" fill="#dcad73"/><path d="m15.126 37.561 11.313 11.313c1.562 1.562 4.095 1.562 5.657 0l19.8-19.8c4.686-4.686 4.686-12.284 0-16.97s-12.284-4.686-16.97 0l-19.8 19.8c-1.613 1.509-1.478 4.183 0 5.657z" fill="#aad0d7"/><path d="m34.925 12.105-19.8 19.8c-1.562 1.562-1.562 4.095 0 5.657l1.414 1.414c-1.562-1.562-1.562-4.095 0-5.657l21.214-21.214c3.625-3.626 9.406-3.923 13.383-.687-4.763-4.012-11.804-3.714-16.211.687z" fill="#c8e6e8"/><path d="m52.582 12.865c3.237 3.976 2.942 9.756-.682 13.382l-21.218 21.213c-1.562 1.562-4.095 1.562-5.657 0l1.414 1.414c1.562 1.562 4.095 1.562 5.657 0l19.8-19.8c4.402-4.405 4.7-11.447.686-16.209z" fill="#94c1c6"/><path d="m43.41 8.59c-3.183-.004-6.237 1.261-8.485 3.515l-3.515 3.515v15.863c-.022 1.005.679 1.881 1.664 2.08 1.089.186 2.122-.547 2.308-1.636.019-.111.029-.224.028-.337v-3.5c0-.828.672-1.5 1.5-1.5s1.5.672 1.5 1.5v9.33c-.034 1.638 1.207 3.022 2.839 3.166 1.654.089 3.068-1.18 3.157-2.835.003-.055.004-.11.004-.165v-7.853c-.028-1.318.936-2.449 2.242-2.63 1.373-.142 2.602.855 2.745 2.229.009.086.013.172.013.258v.83c-.034 1.638 1.207 3.022 2.839 3.166 1.654.089 3.068-1.18 3.157-2.835.003-.055.004-.11.004-.165v-10c-.002-6.626-5.374-11.996-12-11.996z" fill="#856448"/><path d="m34.925 12.105-3.515 3.515v2.828l6.343-6.343c3.625-3.626 9.406-3.923 13.383-.687-4.763-4.012-11.804-3.714-16.211.687z" fill="#9c7864"/></svg>