<svg id="icecream" viewBox="0 0 64 64" xmlns="http://www.w3.org/2000/svg"><rect fill="#aad0d7" height="22" rx="6" transform="matrix(.707 -.707 .707 .707 -9.805 33.429)" width="44" x="13.45" y="17.55"/><path d="m47.471 9.458 1.414 1.415a6 6 0 0 0 -8.486 0l-22.627 22.627a6 6 0 0 0 0 8.485l-1.414-1.414a6 6 0 0 1 0-8.485l22.627-22.628a6 6 0 0 1 8.486 0z" fill="#c8e6e8"/><path d="m54.542 16.529-1.415-1.414a6 6 0 0 1 0 8.486l-22.627 22.627a6 6 0 0 1 -8.485 0l1.414 1.414a6 6 0 0 0 8.485 0l22.628-22.627a6 6 0 0 0 0-8.486z" fill="#94c1c6"/><path d="m41.642 8.358h6v22h-6z" fill="#f7e491" transform="matrix(.707 -.707 .707 .707 -.613 37.237)"/><path d="m37.399 12.601h6v22h-6z" fill="#f3d357" transform="matrix(.707 -.707 .707 .707 -4.855 35.479)"/><path d="m27.5 22.5h6v22h-6z" fill="#f7e491" transform="matrix(.707 -.707 .707 .707 -14.755 31.379)"/><path d="m23.257 26.743h6v22h-6z" fill="#f3d357" transform="matrix(.707 -.707 .707 .707 -18.997 29.621)"/><path d="m34.571 11.287h6v2h-6z" fill="#ffebb9" transform="matrix(.707 -.707 .707 .707 2.316 30.165)"/><path d="m30.328 15.529h6v2h-6z" fill="#f7e491" transform="matrix(.707 -.707 .707 .707 -1.926 28.408)"/><path d="m20.429 25.429h6v2h-6z" fill="#ffebb9" transform="matrix(.707 -.707 .707 .707 -11.826 24.308)"/><path d="m16.186 29.672h6v2h-6z" fill="#f7e491" transform="matrix(.707 -.707 .707 .707 -16.069 22.55)"/><path d="m48.713 25.429h6v2h-6z" fill="#f5dc6e" transform="matrix(.707 -.707 .707 .707 -3.542 44.308)"/><path d="m44.471 29.672h6v2h-6z" fill="#f0c44b" transform="matrix(.707 -.707 .707 .707 -7.784 42.55)"/><path d="m34.571 39.571h6v2h-6z" fill="#f5dc6e" transform="matrix(.707 -.707 .707 .707 -17.684 38.45)"/><path d="m30.328 43.814h6v2h-6z" fill="#f0c44b" transform="matrix(.707 -.707 .707 .707 -21.926 36.692)"/><path d="m8.58 55.42a3 3 0 0 1 0-4.242l9.192-9.193 4.243 4.243-9.193 9.192a3 3 0 0 1 -4.242 0z" fill="#f0bd80"/><path d="m20.6 44.814-9.193 9.192a2.992 2.992 0 0 1 -3.407.577 2.973 2.973 0 0 0 4.82.837l9.193-9.192z" fill="#dcad73"/></svg>