<svg id="icecream" viewBox="0 0 64 64" xmlns="http://www.w3.org/2000/svg"><path d="m9.879 54.531a3 3 0 0 1 0-4.242l9.192-9.189 4.243 4.243-9.193 9.192a3 3 0 0 1 -4.242-.004z" fill="#f0bd80"/><path d="m21.9 43.925-9.192 9.192a2.992 2.992 0 0 1 -3.406.577 2.973 2.973 0 0 0 4.82.837l9.193-9.192z" fill="#dcad73"/><path d="m15.536 37.561 11.313 11.313a4 4 0 0 0 5.657 0l19.8-19.8a12 12 0 0 0 0-16.97 12 12 0 0 0 -16.97 0l-19.8 19.8a4 4 0 0 0 0 5.657z" fill="#f7e491"/><path d="m52.305 12.105a10 10 0 0 0 -14.142 0l-21.213 21.213a4 4 0 0 0 0 5.657l-1.414-1.414a4 4 0 0 1 0-5.657l19.8-19.8a12 12 0 0 1 16.969.001z" fill="#ffebb9"/><path d="m52.305 12.105a10 10 0 0 1 0 14.142l-21.213 21.213a4 4 0 0 1 -5.657 0l1.414 1.414a4 4 0 0 0 5.657 0l19.8-19.8a12 12 0 0 0 -.001-16.969z" fill="#f5dc6e"/><path d="m52.305 12.105a12 12 0 0 1 0 16.97l-7.7 7.7a2.076 2.076 0 0 1 -2.648.294 2 2 0 0 1 -.257-3.047l2.475-2.475a1.5 1.5 0 0 0 -2.121-2.121l-3.064 3.065a3.115 3.115 0 0 1 -4.246.231 3 3 0 0 1 -.117-4.354l2.021-2.02a2.6 2.6 0 0 0 .274-3.445 2.5 2.5 0 0 0 -3.709-.192l-.587.588a3.114 3.114 0 0 1 -4.245.231 3 3 0 0 1 -.118-4.354l7.072-7.071a12 12 0 0 1 16.97 0z" fill="#856448"/><path d="m35.335 12.105-7.072 7.071a3 3 0 0 0 -.581 3.41l10.481-10.481a10 10 0 0 1 13.382-.687 11.994 11.994 0 0 0 -16.21.687z" fill="#9c7864"/><path d="m52.992 12.865a10 10 0 0 1 -.687 13.382l-10.6 10.6a2 2 0 0 0 .249.226 2.076 2.076 0 0 0 2.648-.294l4.167-4.167 3.535-3.536a11.994 11.994 0 0 0 .688-16.211z" fill="#755840"/></svg>