<svg id="icecream" viewBox="0 0 64 64" xmlns="http://www.w3.org/2000/svg"><path d="m34.546 14.954h11v18h-11z" fill="#a6cd6c" transform="matrix(.707 -.707 .707 .707 -5.209 35.333)"/><path d="m37.571 13.7 12.729 12.729 3.536-3.536a6 6 0 0 0 0-8.485l-4.243-4.243a6 6 0 0 0 -8.485 0z" fill="#856448"/><path d="m26.768 22.732h11v18h-11z" fill="#eb78aa" transform="matrix(.707 -.707 .707 .707 -12.987 32.111)"/><path d="m18.479 41.278 4.243 4.243a6 6 0 0 0 8.485 0l3.536-3.536-12.728-12.728-3.536 3.536a6 6 0 0 0 0 8.485z" fill="#f05a3c"/><path d="m49.592 10.165 1.414 1.415a6 6 0 0 0 -8.485 0l-3.536 3.535-1.414-1.415 3.536-3.536a6 6 0 0 1 8.485.001z" fill="#9c7864"/><path d="m28.889 17.297h11v2h-11z" fill="#b9dc8f" transform="matrix(.707 -.707 .707 .707 -2.866 29.676)"/><path d="m21.111 25.075h11v2h-11z" fill="#fa91be" transform="matrix(.707 -.707 .707 .707 -10.644 26.454)"/><path d="m23.429 30.672-3.536 3.535a6 6 0 0 0 0 8.485l-1.414-1.414a6 6 0 0 1 0-8.485l3.536-3.536z" fill="#fa765a"/><path d="m53.835 14.408-1.415-1.414a6 6 0 0 1 0 8.485l-3.535 3.536 1.415 1.414 3.536-3.536a6 6 0 0 0 -.001-8.485z" fill="#755840"/><path d="m40.203 28.611h11v2h-11z" fill="#94be55" transform="matrix(.707 -.707 .707 .707 -7.552 40.99)"/><path d="m32.425 36.389h11v2h-11z" fill="#dc699b" transform="matrix(.707 -.707 .707 .707 -15.33 37.768)"/><path d="m33.328 40.571-3.535 3.536a6 6 0 0 1 -8.485 0l1.414 1.414a6 6 0 0 0 8.485 0l3.536-3.536z" fill="#dc4b36"/><path d="m9.287 54.713a3 3 0 0 1 0-4.242l9.192-9.193 4.243 4.243-9.193 9.192a3 3 0 0 1 -4.242 0z" fill="#f0bd80"/><path d="m21.308 44.107-9.193 9.193a2.99 2.99 0 0 1 -3.4.577 2.97 2.97 0 0 0 4.819.837l9.193-9.192z" fill="#dcad73"/></svg>