<svg id="icecream" viewBox="0 0 64 64" xmlns="http://www.w3.org/2000/svg"><rect fill="#4590d8" height="24" rx="4" transform="matrix(.707 -.707 .707 .707 -9.968 34.572)" width="44" x="14.749" y="17.318"/><path d="m15.536 39.218 2.828 2.828 31.113-31.113-2.829-2.828a4 4 0 0 0 -5.657 0l-25.455 25.456a4 4 0 0 0 0 5.657z" fill="#f09b32"/><path d="m24.021 47.7 2.828 2.828a4 4 0 0 0 5.657 0l25.456-25.453a4 4 0 0 0 0-5.656l-2.828-2.829z" fill="#f05a3c"/><path d="m31.092 49.117 25.456-25.456a4 4 0 0 0 0-5.657l1.414 1.415a4 4 0 0 1 0 5.656l-25.456 25.456a4 4 0 0 1 -5.657 0l-1.414-1.414a4 4 0 0 0 5.657 0z" fill="#dc4b36"/><path d="m46.648 8.105 1.414 1.414a4 4 0 0 0 -5.656 0l-25.456 25.456a4 4 0 0 0 0 5.657l-1.414-1.414a4 4 0 0 1 0-5.657l25.455-25.456a4 4 0 0 1 5.657 0z" fill="#f5aa59"/><path d="m9.879 56.188a3 3 0 0 1 0-4.243l9.192-9.192 4.243 4.247-9.193 9.192a3 3 0 0 1 -4.242-.004z" fill="#f0bd80"/><path d="m21.9 45.581-9.192 9.193a2.992 2.992 0 0 1 -3.406.577 2.973 2.973 0 0 0 4.82.837l9.192-9.188z" fill="#dcad73"/></svg>