<svg id="icecream" viewBox="0 0 64 64" xmlns="http://www.w3.org/2000/svg"><path d="m45.945 8.156 9.9 9.9a2.05 2.05 0 0 1 -.067 2.9l-25.322 30.973a2.05 2.05 0 0 1 -2.9.068l-15.556-15.557a2.05 2.05 0 0 1 .068-2.9l30.981-25.317a2.05 2.05 0 0 1 2.896-.067z" fill="#f3d357"/><path d="m43.049 8.223a2.05 2.05 0 0 1 2.9-.067l1.41 1.414a2.05 2.05 0 0 0 -2.9.067l-30.974 25.322a2.049 2.049 0 0 0 -.067 2.895l-1.418-1.414a2.05 2.05 0 0 1 .068-2.9z" fill="#f7e491"/><path d="m29.041 50.515 25.322-30.978a2.05 2.05 0 0 0 .067-2.9l1.414 1.414a2.05 2.05 0 0 1 -.067 2.9l-25.321 30.978a2.05 2.05 0 0 1 -2.9.068l-1.414-1.415a2.049 2.049 0 0 0 2.899-.067z" fill="#f0c44b"/><path d="m8.468 55.532a3 3 0 0 1 0-4.243l9.192-9.189 4.24 4.24-9.192 9.192a3 3 0 0 1 -4.24 0z" fill="#f0bd80"/><path d="m20.489 44.925-9.189 9.193a2.99 2.99 0 0 1 -3.4.577 2.971 2.971 0 0 0 4.82.837l9.18-9.192z" fill="#dcad73"/><g fill="#f0c44b"><path d="m22.964 37.5-2.427-2.426a1 1 0 0 1 .049-1.46l21.119-18.478a1 1 0 0 1 1.366.045l1.106 1.107a1 1 0 0 1 0 1.414l-19.8 19.8a1 1 0 0 1 -1.413-.002z"/><path d="m47.712 19.823 1.107 1.106a1 1 0 0 1 .045 1.366l-18.479 21.119a1 1 0 0 1 -1.46.049l-2.425-2.427a1 1 0 0 1 0-1.414l19.8-19.8a1 1 0 0 1 1.412.001z"/></g></svg>