<svg id="icecream" viewBox="0 0 64 64" xmlns="http://www.w3.org/2000/svg"><path d="m10.974 53.026a3 3 0 0 1 0-4.242l9.9-9.9 4.243 4.243-9.9 9.9a3 3 0 0 1 -4.243-.001z" fill="#f0bd80"/><path d="m23.7 41.713-9.9 9.9a2.99 2.99 0 0 1 -3.406.577 2.961 2.961 0 0 0 .578.837 3 3 0 0 0 4.242 0l9.9-9.9z" fill="#dcad73"/><path d="m15.6 28.73 35.47-18.409a1.934 1.934 0 0 1 2.608 2.609l-18.408 35.47a2.015 2.015 0 0 1 -2.7.861 40.065 40.065 0 0 1 -17.827-17.83 2.017 2.017 0 0 1 .857-2.701z" fill="#f05a3c"/><path d="m20.677 26.1a40.048 40.048 0 0 0 17.223 17.223l-2.63 5.077a2.016 2.016 0 0 1 -2.7.861 40.065 40.065 0 0 1 -17.827-17.83 2.017 2.017 0 0 1 .861-2.7z" fill="#a6cd6c"/><g fill="#755840"><path d="m42.864 21.545-.478 1.332a1.057 1.057 0 0 1 -1.714.451 1.057 1.057 0 0 1 .451-1.714l1.332-.478a.316.316 0 0 1 .409.409z"/><path d="m40.036 27.909-.478 1.332a1.057 1.057 0 0 1 -1.714.451 1.056 1.056 0 0 1 .45-1.714l1.333-.478a.316.316 0 0 1 .409.409z"/><path d="m36.5 24.373-.478 1.332a1.057 1.057 0 0 1 -1.714.451 1.057 1.057 0 0 1 .451-1.714l1.332-.478a.316.316 0 0 1 .409.409z"/><path d="m30.136 27.2-.478 1.332a1.057 1.057 0 0 1 -1.714.451 1.057 1.057 0 0 1 .451-1.714l1.332-.478a.316.316 0 0 1 .409.409z"/><path d="m33.672 30.737-.478 1.333a1.056 1.056 0 0 1 -1.714.45 1.056 1.056 0 0 1 .451-1.714l1.332-.478a.316.316 0 0 1 .409.409z"/><path d="m37.207 34.273-.478 1.327a1.057 1.057 0 0 1 -1.714.451 1.057 1.057 0 0 1 .451-1.714l1.332-.478a.316.316 0 0 1 .409.414z"/></g><path d="m20.677 26.096-5.073 2.634z" fill="#a6cd6c"/><path d="m22.309 41.837c-.209-.2.2.2 0 0s.2.209 0 0c.231.219-.236-.214 0 0 .214.236-.219-.231 0 0-.02-.02.02.019 0 0z" fill="#dc4b36"/><path d="m37.9 43.323c-.567-.294-1.113-.618-1.663-.937l16.027-30.871a1.87 1.87 0 0 0 .156-1.35 1.927 1.927 0 0 1 1.258 2.765l-18.408 35.47z" fill="#dc4b36"/><path d="" fill="#a6cd6c"/><path d="m22.309 41.837c.2.2-.209-.2 0 0-.209-.201.205.205 0 0z" fill="#a6cd6c"/><path d="m32.57 49.257a45.972 45.972 0 0 1 -10.261-7.42c-.219-.231.214.236 0 0a39.5 39.5 0 0 0 8.846 6.006 2.017 2.017 0 0 0 2.7-.861l2.385-4.6c.55.319 1.1.643 1.663.937l-2.633 5.081a2.015 2.015 0 0 1 -2.7.857z" fill="#94be55"/><path d="m16.158 32.845a34.433 34.433 0 0 0 6.151 8.992 35.187 35.187 0 0 1 -7.566-10.406 2.017 2.017 0 0 1 .861-2.7l5.073-2.631c.293.567.6 1.122.921 1.671l-4.58 2.377a2.015 2.015 0 0 0 -.86 2.697z" fill="#b9dc8f"/><path d="m51.07 10.321a1.927 1.927 0 0 1 2.764 1.258 1.871 1.871 0 0 0 -1.35.157l-30.884 16.031c-.318-.549-.628-1.1-.921-1.671z" fill="#fa765a"/></svg>