<svg id="icecream" viewBox="0 0 64 64" xmlns="http://www.w3.org/2000/svg"><path d="m52.305 10.924a11.977 11.977 0 0 0 -1.36-1.153h-1.014l-.249.657a2.789 2.789 0 0 1 -2.608 1.8h-4.368a5.6 5.6 0 0 1 -.715 1.59 5.276 5.276 0 0 1 -4.012 2.359 5.562 5.562 0 0 1 -1.258-.043 5.378 5.378 0 0 1 -3.357-1.906h-1.335l-16.493 16.495a4 4 0 0 0 0 5.657l11.313 11.314a4 4 0 0 0 5.657 0l19.8-19.8a12 12 0 0 0 0-16.971" fill="#4590d8"/><path d="m48.916 9.771a1.993 1.993 0 0 1 -1.916 1.458h-5.05a4.457 4.457 0 0 1 -7.246 3h-2.675l-16.493 16.494a4 4 0 0 0 0 5.657l1.414 1.414a4 4 0 0 1 0-5.657l16.4-16.4a6.5 6.5 0 0 0 10.15-2.508h3.5a3.987 3.987 0 0 0 3.945-3.458z" fill="#64a4e3"/><path d="m52.992 11.684a10 10 0 0 1 -.687 13.382l-21.213 21.213a4 4 0 0 1 -5.657 0l1.414 1.415a4 4 0 0 0 5.657 0l19.8-19.8a12 12 0 0 0 .686-16.21z" fill="#4682cc"/><path d="m52.992 11.684a10.2 10.2 0 0 0 -.687-.76c.244.244.468.501.687.76z" fill="#4682cc"/><path d="m9.879 53.351a3 3 0 0 1 0-4.243l9.192-9.193 4.243 4.243-9.193 9.193a3 3 0 0 1 -4.242 0z" fill="#f0bd80"/><path d="m21.9 42.744-9.192 9.192a2.99 2.99 0 0 1 -3.406.577 2.972 2.972 0 0 0 4.82.838l9.193-9.193z" fill="#dcad73"/><path d="m51.545 10.237c.26.219.516.443.76.687a10.2 10.2 0 0 0 -.76-.687z" fill="#ffebb9"/></svg>