<svg id="icecream" viewBox="0 0 64 64" xmlns="http://www.w3.org/2000/svg"><path d="m46.59 13.852h-11.038a10 10 0 0 0 -7.071 2.929l-13.355 13.356a4 4 0 0 0 0 5.656l11.313 11.314a4 4 0 0 0 5.657 0l19.8-19.8z" fill="#f05a3c"/><path d="m30.682 45.693a4 4 0 0 1 -5.657 0l1.414 1.414a4 4 0 0 0 5.657 0l19.8-19.8v-2.827z" fill="#dc4b36"/><path d="m9.469 52.764a3 3 0 0 1 0-4.243l9.192-9.192 4.239 4.243-9.193 9.192a3 3 0 0 1 -4.238 0z" fill="#f0bd80"/><path d="m21.49 42.157-9.19 9.193a2.99 2.99 0 0 1 -3.405.577 2.951 2.951 0 0 0 .577.837 3 3 0 0 0 4.242 0l9.186-9.192z" fill="#dcad73"/><g fill="#fa765a"><path d="m52.936 11.542a3.031 3.031 0 0 0 -4.3-.516 13.175 13.175 0 0 1 -8.154 2.826h-4.93a10 10 0 0 0 -7.071 2.929l-13.355 13.356a4 4 0 0 0 0 5.656l1.414 1.415a4 4 0 0 1 0-5.657l13.806-13.807a.624.624 0 0 1 1.064.441v11.531a2.074 2.074 0 0 0 1.664 2.084 2 2 0 0 0 2.336-1.972v-3.5a1.5 1.5 0 0 1 3 0v9.33a3.115 3.115 0 0 0 2.839 3.166 3 3 0 0 0 3.161-3v-7.859a2.6 2.6 0 0 1 2.242-2.629 2.5 2.5 0 0 1 2.758 2.487v.83a3.115 3.115 0 0 0 2.839 3.166 3 3 0 0 0 3.161-3v-10a11.9 11.9 0 0 0 -2.474-7.277z"/><circle cx="41.59" cy="45.643" r="2"/></g></svg>