<svg id="icecream" viewBox="0 0 64 64" xmlns="http://www.w3.org/2000/svg"><rect fill="#f09b32" height="16" rx="3" transform="matrix(.707 -.707 .707 .707 -9.366 33.611)" width="44" x="13.889" y="20.111"/><circle cx="47.203" cy="13.969" fill="#f5aa59" r="2"/><path d="m47.91 9.019 1.414 1.414a3 3 0 0 0 -4.243 0l-26.87 26.867a3 3 0 0 0 0 4.243l-1.411-1.411a3 3 0 0 1 0-4.243l26.87-26.87a3 3 0 0 1 4.24 0z" fill="#f5aa59"/><path d="m54.981 16.09-1.414-1.414a3 3 0 0 1 0 4.243l-26.867 26.87a3 3 0 0 1 -4.243 0l1.411 1.411a3 3 0 0 0 4.243 0l26.87-26.87a3 3 0 0 0 0-4.24z" fill="#e1872d"/><path d="m9.019 54.981a3 3 0 0 1 0-4.243l9.192-9.192 4.243 4.243-9.192 9.192a3 3 0 0 1 -4.243 0z" fill="#f0bd80"/><path d="m21.04 44.374-9.193 9.193a2.99 2.99 0 0 1 -3.4.577 2.971 2.971 0 0 0 4.82.837l9.192-9.192z" fill="#dcad73"/></svg>