<svg id="icecream" viewBox="0 0 64 64" xmlns="http://www.w3.org/2000/svg"><path d="m17.156 39.066 7.778 7.778a4 4 0 0 0 5.657 0l21.92-21.92a9 9 0 0 0 0-12.728l-.707-.707a9 9 0 0 0 -12.728 0l-21.92 21.92a4 4 0 0 0 0 5.657z" fill="#f7e491"/><path d="m52.992 12.728a7 7 0 0 1 -.481 9.367l-23.334 23.335a4 4 0 0 1 -5.657 0l1.414 1.414a4 4 0 0 0 5.657 0l21.92-21.92a8.994 8.994 0 0 0 .481-12.196z" fill="#f5dc6e"/><path d="m39.076 11.489-21.92 21.92a4 4 0 0 0 0 5.657l1.414 1.414a4 4 0 0 1 0-5.657l23.335-23.334a7 7 0 0 1 9.367-.481 8.994 8.994 0 0 0 -12.196.481z" fill="#ffebb9"/><rect fill="#755840" height="4" rx="1" width="2" x="47.445" y="17.444"/><rect fill="#755840" height="4" rx="1" width="2" x="43.556" y="13.555"/><g fill="#eb78aa"><rect height="2" rx="1" width="4" x="36.016" y="17.913"/><rect height="2" rx="1" width="4" x="39.551" y="21.449"/><rect height="2" rx="1" width="4" x="43.087" y="24.985"/></g><g fill="#755840"><rect height="4" rx="1" width="2" x="37.546" y="27.343"/><rect height="4" rx="1" width="2" x="33.657" y="23.454"/><rect height="4" rx="1" width="2" x="27.646" y="37.243"/><rect height="4" rx="1" width="2" x="23.757" y="33.354"/></g><rect fill="#eb78aa" height="2" rx="1" width="4" x="26.116" y="27.813"/><rect fill="#eb78aa" height="2" rx="1" width="4" x="29.652" y="31.349"/><rect fill="#eb78aa" height="2" rx="1" width="4" x="33.187" y="34.884"/><path d="m9.731 54.269a3 3 0 0 1 0-4.243l9.193-9.192 4.242 4.242-9.192 9.193a3 3 0 0 1 -4.243 0z" fill="#f0bd80"/><path d="m21.752 43.662-9.192 9.192a2.992 2.992 0 0 1 -3.406.578 2.971 2.971 0 0 0 4.82.837l9.192-9.193z" fill="#dcad73"/></svg>