<svg id="icecream" viewBox="0 0 64 64" xmlns="http://www.w3.org/2000/svg"><path d="m15.536 37.561 11.313 11.313a4 4 0 0 0 5.657 0l19.8-19.8a12 12 0 0 0 0-16.97 12 12 0 0 0 -16.97 0l-19.8 19.8a4 4 0 0 0 0 5.657z" fill="#f05a3c"/><path d="m35.335 12.105-19.8 19.8a4 4 0 0 0 0 5.657l1.414 1.414a4 4 0 0 1 0-5.657l21.214-21.214a10 10 0 0 1 13.382-.687 11.994 11.994 0 0 0 -16.21.687z" fill="#fa765a"/><path d="m52.992 12.864a10 10 0 0 1 -.687 13.383l-21.213 21.213a4 4 0 0 1 -5.657 0l1.414 1.414a4 4 0 0 0 5.657 0l19.8-19.8a12 12 0 0 0 .686-16.21z" fill="#dc4b36"/><rect fill="#fa765a" height="2" rx="1" transform="matrix(.707 -.707 .707 .707 -8.331 30.966)" width="30" x="18.213" y="24.54"/><rect fill="#fa765a" height="2" rx="1" transform="matrix(.707 -.707 .707 .707 -10.675 36.623)" width="30" x="23.87" y="30.197"/><path d="m9.879 54.531a3 3 0 0 1 0-4.242l9.192-9.189 4.243 4.243-9.193 9.192a3 3 0 0 1 -4.242-.004z" fill="#f0bd80"/><path d="m21.9 43.925-9.192 9.192a2.992 2.992 0 0 1 -3.406.577 2.973 2.973 0 0 0 4.82.837l9.193-9.192z" fill="#dcad73"/></svg>