<svg id="icecream" viewBox="0 0 64 64" xmlns="http://www.w3.org/2000/svg"><path d="m19.368 27.661 16.971 16.971 15.561-15.557a12 12 0 0 0 0-16.97 12 12 0 0 0 -16.97 0z" fill="#eb78aa"/><path d="m52.582 12.864a10 10 0 0 1 -.682 13.383l-16.975 16.971 1.414 1.414 15.561-15.557a12 12 0 0 0 .682-16.211z" fill="#dc699b"/><path d="m34.925 12.105-15.557 15.556 1.414 1.414 16.971-16.97a10 10 0 0 1 13.383-.687 12 12 0 0 0 -16.211.687z" fill="#fa91be"/><path d="m9.469 54.531a3 3 0 0 1 0-4.242l9.192-9.189 4.239 4.239-9.193 9.192a3 3 0 0 1 -4.238 0z" fill="#f0bd80"/><path d="m21.49 43.925-9.19 9.192a2.99 2.99 0 0 1 -3.405.577 2.951 2.951 0 0 0 .577.837 3 3 0 0 0 4.242 0l9.186-9.192z" fill="#dcad73"/><circle cx="44.117" cy="15.64" fill="#fa91be" r="3"/><path d="m15.126 37.561 11.313 11.313a4 4 0 0 0 5.657 0l4.243-4.242-16.971-16.971-4.242 4.239a4 4 0 0 0 0 5.661z" fill="#f3d357"/><path d="m20.782 29.075-4.242 4.243a4 4 0 0 0 0 5.657l-1.414-1.414a4 4 0 0 1 0-5.657l4.242-4.243z" fill="#f7e491"/><path d="m30.682 47.46 4.243-4.242 1.414 1.414-4.239 4.242a4 4 0 0 1 -5.657 0l-1.418-1.414a4 4 0 0 0 5.657 0z" fill="#f0c44b"/></svg>