<svg id="icecream" viewBox="0 0 64 64" xmlns="http://www.w3.org/2000/svg"><path d="m15.536 37.561 11.313 11.313a4 4 0 0 0 5.657 0l19.8-19.8a12 12 0 0 0 0-16.97 12 12 0 0 0 -16.97 0l-19.8 19.8a4 4 0 0 0 0 5.657z" fill="#856448"/><path d="m35.335 12.105-19.8 19.8a4 4 0 0 0 0 5.657l1.414 1.414a4 4 0 0 1 0-5.657l21.214-21.214a10 10 0 0 1 13.382-.687 11.994 11.994 0 0 0 -16.21.687z" fill="#9c7864"/><path d="m52.992 12.864a10 10 0 0 1 -.687 13.383l-21.213 21.213a4 4 0 0 1 -5.657 0l1.414 1.414a4 4 0 0 0 5.657 0l19.8-19.8a12 12 0 0 0 .686-16.21z" fill="#755840"/><path d="m9.879 54.531a3 3 0 0 1 0-4.242l9.192-9.189 4.243 4.243-9.193 9.192a3 3 0 0 1 -4.242-.004z" fill="#f0bd80"/><path d="m21.9 43.925-9.192 9.192a2.992 2.992 0 0 1 -3.406.577 2.973 2.973 0 0 0 4.82.837l9.193-9.192z" fill="#dcad73"/><g fill="#f9ecb7"><circle cx="39.577" cy="24.833" r="1"/><circle cx="50.891" cy="24.833" r="1"/><circle cx="39.577" cy="13.519" r="1"/><circle cx="45.234" cy="30.49" r="1"/><circle cx="33.92" cy="19.176" r="1"/><circle cx="45.234" cy="13.519" r="1"/><circle cx="39.577" cy="19.176" r="1"/><circle cx="45.234" cy="19.176" r="1"/><circle cx="45.234" cy="24.833" r="1"/><circle cx="50.891" cy="19.176" r="1"/></g></svg>