<svg id="icecream" viewBox="0 0 64 64" xmlns="http://www.w3.org/2000/svg"><path d="m9.788 54.621a3 3 0 0 1 0-4.242l9.193-9.193 4.242 4.243-9.192 9.192a3 3 0 0 1 -4.243 0z" fill="#f0bd80"/><path d="m21.809 44.015-9.192 9.192a2.99 2.99 0 0 1 -3.406.577 2.957 2.957 0 0 0 .577.837 3 3 0 0 0 4.243 0l9.192-9.192z" fill="#dcad73"/><path d="m54.666 14.646-4.9-4.9a4.088 4.088 0 0 0 -5.492-.346l-8.018 6.638 12.118 12.115 6.637-8.017a4.09 4.09 0 0 0 -.345-5.49z" fill="#f09b32"/><path d="m16.254 38.459 9.7 9.7a4.058 4.058 0 0 0 6-.167l7.454-9-13.983-13.992-9 7.454a4.057 4.057 0 0 0 -.171 6.005z" fill="#eb78aa"/><path d="m36.256 16.036-10.831 8.967 13.982 13.982 8.967-10.832z" fill="#f3d357"/><path d="m45.738 10.863a4.091 4.091 0 0 1 5.49.345l-1.465-1.464a4.088 4.088 0 0 0 -5.489-.344l-8.018 6.638 1.465 1.462z" fill="#f5aa59"/><path d="m17.886 33.922 9-7.454-1.461-1.468-9 7.454a4.057 4.057 0 0 0 -.167 6l1.465 1.465a4.057 4.057 0 0 1 .163-5.997z" fill="#fa91be"/><path d="m37.721 17.5-1.465-1.464-10.831 8.967 1.465 1.465z" fill="#f5db76"/><path d="m55.011 20.136a4.09 4.09 0 0 0 -.345-5.49l-1.466-1.464a4.09 4.09 0 0 1 .346 5.49l-6.638 8.017 1.465 1.464z" fill="#e1872d"/><path d="m39.407 38.985-1.465-1.465-7.454 9a4.057 4.057 0 0 1 -6 .167l1.465 1.465a4.058 4.058 0 0 0 6-.167z" fill="#dc699b"/><path d="m48.374 28.153-1.465-1.464-8.967 10.831 1.465 1.465z" fill="#f0c44b"/></svg>