<svg id="icecream" viewBox="0 0 64 64" xmlns="http://www.w3.org/2000/svg"><path d="m18.847 39.463-4.209-4.209a3.957 3.957 0 0 1 .106-5.784l27.2-23.978a3.977 3.977 0 0 1 5.417.261l2.6 2.6a3.966 3.966 0 0 1 .085 5.606l-25.593 25.588a3.965 3.965 0 0 1 -5.606-.084z" fill="#a6cd6c"/><path d="m41.946 5.492a3.977 3.977 0 0 1 5.417.261l1.3 1.3a3.823 3.823 0 0 0 -5.3-.146l-27.2 23.978a3.957 3.957 0 0 0 -.106 5.784l-1.414-1.414a3.957 3.957 0 0 1 .106-5.784z" fill="#b9dc8f"/><path d="m23.039 38.133 25.59-25.591a3.825 3.825 0 0 0 .032-5.49l1.3 1.3a3.966 3.966 0 0 1 .085 5.606l-25.593 25.589a3.965 3.965 0 0 1 -5.606-.084l-1.414-1.414a3.965 3.965 0 0 0 5.606.084z" fill="#94be55"/><path d="m24.537 45.153 4.209 4.209a3.957 3.957 0 0 0 5.784-.106l23.978-27.2a3.977 3.977 0 0 0 -.261-5.417l-2.6-2.6a3.966 3.966 0 0 0 -5.606-.085l-25.588 25.593a3.965 3.965 0 0 0 .084 5.606z" fill="#a6cd6c"/><path d="m58.508 22.054a3.977 3.977 0 0 0 -.261-5.417l-1.3-1.3a3.823 3.823 0 0 1 .146 5.3l-23.978 27.2a3.957 3.957 0 0 1 -5.784.106l1.414 1.414a3.957 3.957 0 0 0 5.784-.106z" fill="#94be55"/><path d="m25.867 40.961 25.591-25.59a3.825 3.825 0 0 1 5.49-.032l-1.3-1.3a3.966 3.966 0 0 0 -5.606-.085l-25.589 25.593a3.965 3.965 0 0 0 .084 5.606l1.414 1.414a3.965 3.965 0 0 1 -.084-5.606z" fill="#b9dc8f"/><circle cx="45.734" cy="9.074" fill="#b9dc8f" r="1.5"/><path d="m5.429 48.672a3 3 0 0 1 0-4.243l9.192-9.192 4.243 4.243-9.193 9.192a3 3 0 0 1 -4.242 0z" fill="#f0bd80"/><path d="m17.449 38.065-9.192 9.193a2.992 2.992 0 0 1 -3.406.577 2.973 2.973 0 0 0 4.82.837l9.193-9.192z" fill="#dcad73"/><path d="m15.328 58.571a3 3 0 0 0 4.243 0l9.192-9.192-4.243-4.243-9.192 9.193a3 3 0 0 0 0 4.242z" fill="#f0bd80"/><path d="m25.935 46.551-9.193 9.192a2.992 2.992 0 0 0 -.577 3.406 2.973 2.973 0 0 1 -.837-4.82l9.192-9.193z" fill="#dcad73"/><circle cx="54.926" cy="18.266" fill="#b9dc8f" r="1.5"/></svg>