<svg id="icecream" viewBox="0 0 64 64" xmlns="http://www.w3.org/2000/svg"><path d="m14.6 57.891a3 3 0 0 1 0-4.243l9.192-9.192 4.238 4.244-9.193 9.193a3 3 0 0 1 -4.237-.002z" fill="#f0bd80"/><path d="m26.615 47.284-9.192 9.192a2.992 2.992 0 0 1 -3.406.578 2.973 2.973 0 0 0 4.82.837l9.193-9.191z" fill="#dcad73"/><path d="m6.109 49.405a3 3 0 0 1 0-4.242l9.191-9.193 4.242 4.243-9.192 9.192a3 3 0 0 1 -4.241 0z" fill="#f0bd80"/><path d="m18.13 38.8-9.192 9.191a2.992 2.992 0 0 1 -3.406.577 2.957 2.957 0 0 0 .577.837 3 3 0 0 0 4.243 0l9.192-9.192z" fill="#dcad73"/><path d="m45.923 5.817 2.2 2.2a2 2 0 0 1 -.043 2.869l-31.246 29.445-5.288-5.288a2 2 0 0 1 .13-2.948l31.548-26.395a2 2 0 0 1 2.699.117z" fill="#a6cd6c"/><path d="m53.2 15.833a2 2 0 0 0 -.036-2.781l-2.195-2.213a2 2 0 0 0 -2.79-.049l-31.345 29.541 6.835 6.835z" fill="#ece6e2"/><path d="m58.183 18.077-2.2-2.2a2 2 0 0 0 -2.869.043l-29.445 31.246 5.288 5.288a2 2 0 0 0 2.948-.13l26.395-31.548a2 2 0 0 0 -.117-2.699z" fill="#f3d357"/><path d="m58.3 20.776a2 2 0 0 0 -.121-2.7l-1.4-1.4a2 2 0 0 1 .11 2.685l-26.4 31.547a2 2 0 0 1 -2.948.131l1.414 1.414a2 2 0 0 0 2.948-.13z" fill="#f0c44b"/><path d="m13.091 33.509 31.547-26.4a2 2 0 0 1 2.685.11l-1.4-1.4a2 2 0 0 0 -2.7-.121l-31.547 26.402a2 2 0 0 0 -.13 2.948l1.414 1.414a2 2 0 0 1 .131-2.953z" fill="#b9dc8f"/><path d="m48.12 8.018-2.2-2.2-.012-.01.8.8a2 2 0 0 1 -.043 2.869l-31.245 29.44 1.414 1.414 31.243-29.444a2 2 0 0 0 .043-2.869z" fill="#94be55"/><path d="m13.091 33.509 31.547-26.4a2 2 0 0 1 2.687.111l-1.4-1.405a2 2 0 0 0 -2.7-.12l-31.549 26.405a2 2 0 0 0 -.13 2.948l1.414 1.414a2 2 0 0 1 .131-2.953z" fill="#b9dc8f"/><path d="m53.2 15.832a2 2 0 0 0 -.036-2.78l-2.2-2.213c-.019-.02-.043-.034-.063-.053l.845.852a2 2 0 0 1 .036 2.78l-29.527 31.334 1.414 1.414z" fill="#e3dfd9"/><path d="m52.319 12.2-1.351-1.362a2 2 0 0 0 -2.79-.049l-31.344 29.542 1.414 1.414 31.344-29.545a1.993 1.993 0 0 1 2.727 0z" fill="#f5f1ee"/><path d="m57.4 17.294.8.795-.009-.012-2.2-2.2a2 2 0 0 0 -2.869.043l-29.453 31.246 1.414 1.414 29.444-31.242a2 2 0 0 1 2.873-.044z" fill="#f7e491"/></svg>