<svg id="icecream" viewBox="0 0 64 64" xmlns="http://www.w3.org/2000/svg"><path d="m15.126 37.561 11.313 11.313a4 4 0 0 0 5.657 0l19.8-19.8a12 12 0 0 0 0-16.97 12 12 0 0 0 -16.97 0l-19.8 19.8a4 4 0 0 0 0 5.657z" fill="#ece6e2"/><path d="m51.9 12.105a10 10 0 0 0 -14.142 0l-21.218 21.213a4 4 0 0 0 0 5.657l-1.414-1.414a4 4 0 0 1 0-5.657l19.8-19.8a12 12 0 0 1 16.974.001z" fill="#f5f1ee"/><path d="m51.9 12.105a10 10 0 0 1 0 14.142l-21.218 21.213a4 4 0 0 1 -5.657 0l1.414 1.414a4 4 0 0 0 5.657 0l19.8-19.8a12 12 0 0 0 .004-16.969z" fill="#e3dfd9"/><path d="m9.469 54.531a3 3 0 0 1 0-4.242l9.192-9.189 4.239 4.239-9.193 9.192a3 3 0 0 1 -4.238 0z" fill="#f0bd80"/><path d="m21.49 43.925-9.19 9.192a2.99 2.99 0 0 1 -3.405.577 2.951 2.951 0 0 0 .577.837 3 3 0 0 0 4.242 0l9.186-9.192z" fill="#dcad73"/><path d="m15.126 37.561 1.9 1.9h24.483l7.2-7.195h-33.879a3.986 3.986 0 0 0 .296 5.295z" fill="#a6cd6c"/><path d="m54.882 24.086h-31.939l7.2-7.2h24.68a12.02 12.02 0 0 1 .585 3.708 11.872 11.872 0 0 1 -.526 3.492z" fill="#f05a3c"/><path d="m16.54 33.318 1.052-1.052h-2.762a3.986 3.986 0 0 0 .3 5.3l1.414 1.414a4 4 0 0 1 -.004-5.662z" fill="#b9dc8f"/><path d="m22.943 24.086h2.829l7.204-7.204h-2.829z" fill="#fa765a"/><path d="m48.705 32.266h-2.829l-7.195 7.195h2.828z" fill="#94be55"/><path d="m55.408 20.59a12.02 12.02 0 0 0 -.585-3.708h-.276a10.008 10.008 0 0 1 -1.02 7.2h1.355a11.872 11.872 0 0 0 .526-3.492z" fill="#dc4b36"/></svg>