<svg id="icecream" viewBox="0 0 64 64" xmlns="http://www.w3.org/2000/svg"><path d="m6.279 57.721a3 3 0 0 1 0-4.242l11.314-11.314 4.242 4.242-11.314 11.314a3 3 0 0 1 -4.242 0z" fill="#f0bd80"/><path d="m20.421 44.993-11.314 11.314a2.99 2.99 0 0 1 -3.4.577 2.97 2.97 0 0 0 4.819.837l11.309-11.314z" fill="#dcad73"/><path d="m55.145 23.23a15.079 15.079 0 0 0 -9.171-5.2 15.079 15.079 0 0 0 -5.2-9.171 15.444 15.444 0 0 0 -20.765 1.2 20.8 20.8 0 0 0 -6.019 16.476l1.7 19.871a2.089 2.089 0 0 0 1.9 1.9l19.871 1.7a20.8 20.8 0 0 0 16.485-6.006 15.444 15.444 0 0 0 1.199-20.77z" fill="#f05a3c"/><path d="m55.145 23.23a15.266 15.266 0 0 0 -1.609-1.63c.064.073.133.137.2.211a15.447 15.447 0 0 1 -1.2 20.766 20.8 20.8 0 0 1 -16.485 6.023l-19.871-1.7a2.1 2.1 0 0 1 -.407-.08 2.084 2.084 0 0 0 1.821 1.494l19.871 1.7a20.8 20.8 0 0 0 16.481-6.014 15.444 15.444 0 0 0 1.199-20.77z" fill="#dc4b36"/><path d="m15.4 27.949a20.8 20.8 0 0 1 6.015-16.481 15.447 15.447 0 0 1 20.766-1.2c.074.062.138.131.211.2a15.266 15.266 0 0 0 -1.622-1.613 15.444 15.444 0 0 0 -20.765 1.2 20.8 20.8 0 0 0 -6.015 16.48l1.7 19.871a2.084 2.084 0 0 0 1.494 1.821 2.1 2.1 0 0 1 -.08-.407z" fill="#fa765a"/><path d="m54.951 23.018a15.057 15.057 0 0 0 -7.8-4.75c.094.389.178.779.242 1.173a15.077 15.077 0 0 1 7.558 3.577z" fill="#f05a3c"/><path d="m55.145 23.23a15.079 15.079 0 0 0 -9.171-5.2 15.079 15.079 0 0 0 -5.2-9.171 15.336 15.336 0 0 0 -18.777-.473l13.459 13.459-7.145 7.145a3.789 3.789 0 1 0 5.359 5.359l4.466-4.466a3.79 3.79 0 0 1 5.359 5.36l-.893.893a3.789 3.789 0 1 0 5.359 5.364l3.573-3.573 4.084 4.085a15.336 15.336 0 0 0 -.473-18.782z" fill="#856448"/><path d="m53.536 21.6a15.08 15.08 0 0 0 -7.562-3.578c.094.389.193 1.472.256 1.865 2.475-.35 5.102-.223 7.306 1.713z" fill="#9c7864"/><path d="m42.185 10.269c.074.062.138.131.211.2a15.266 15.266 0 0 0 -1.626-1.614 15.336 15.336 0 0 0 -18.777-.473l1.415 1.418a15.336 15.336 0 0 1 18.777.469z" fill="#9c7864"/><path d="m53.731 21.815c-.062-.074-.131-.138-.2-.211a14.964 14.964 0 0 1 2.082 20.4l-1.413-1.412a15.336 15.336 0 0 0 -.469-18.777z" fill="#755840"/><g fill="#9c7864"><path d="m29.725 30.4 7.145-7.145-1.414-1.414-7.145 7.149a3.789 3.789 0 0 0 0 5.359 3.708 3.708 0 0 0 .813.6 3.781 3.781 0 0 1 .601-4.549z"/><path d="m43.5 35.243-.893.893a3.74 3.74 0 0 0 .813 5.96 3.779 3.779 0 0 1 .6-4.546l.893-.893a3.789 3.789 0 0 0 0-5.359l-1.413-1.415a3.79 3.79 0 0 1 0 5.36z"/></g></svg>