<svg id="icecream" viewBox="0 0 64 64" xmlns="http://www.w3.org/2000/svg"><path d="m9.176 54.824a3 3 0 0 1 0-4.243l9.192-9.192 4.243 4.243-9.192 9.192a3 3 0 0 1 -4.243 0z" fill="#f0bd80"/><path d="m21.2 44.218-9.2 9.192a2.99 2.99 0 0 1 -3.4.577 2.971 2.971 0 0 0 4.82.837l9.192-9.192z" fill="#dcad73"/><path d="m51.6 12.4a14 14 0 0 0 -19.8 0l-12.725 12.726a14 14 0 0 0 19.8 19.8l12.725-12.726a14 14 0 0 0 0-19.8z" fill="#856448"/><path d="m51.6 12.4c-.238-.239-.491-.454-.743-.672a13.989 13.989 0 0 1 -.671 19.056l-12.726 12.726a13.99 13.99 0 0 1 -19.056.672c.218.251.433.5.671.743a14 14 0 0 0 19.8 0l12.725-12.725a14 14 0 0 0 0-19.8z" fill="#755840"/><path d="m20.49 26.54 12.728-12.728a13.989 13.989 0 0 1 19.056-.671c-.218-.252-.433-.505-.672-.743a14 14 0 0 0 -19.8 0l-12.727 12.728a14 14 0 0 0 0 19.8c.239.238.492.453.743.671a13.99 13.99 0 0 1 .672-19.057z" fill="#9c7864"/><g fill="#755840"><circle cx="19.782" cy="35.732" r="1"/><circle cx="40.996" cy="14.519" r="1"/><circle cx="49.481" cy="23.004" r="1"/><circle cx="35.339" cy="37.146" r="1"/><circle cx="28.268" cy="44.218" r="1"/><circle cx="41.703" cy="22.297" r="1"/><circle cx="42.41" cy="30.075" r="1"/><circle cx="33.925" cy="21.59" r="1"/><circle cx="27.561" cy="36.439" r="1"/><circle cx="34.632" cy="29.368" r="1"/><circle cx="26.854" cy="28.661" r="1"/></g></svg>