<svg id="icecream" viewBox="0 0 64 64" xmlns="http://www.w3.org/2000/svg"><path d="m9.807 54.193a3 3 0 0 1 0-4.243l9.193-9.192 4.242 4.242-9.192 9.193a3 3 0 0 1 -4.243 0z" fill="#f0bd80"/><path d="m21.828 43.586-9.193 9.193a2.99 2.99 0 0 1 -3.4.577 2.971 2.971 0 0 0 4.82.837l9.187-9.193z" fill="#dcad73"/><path d="m27.3 49.054-12.354-12.354a3.262 3.262 0 0 1 .171-4.779l23.974-20.66a9.664 9.664 0 0 1 13.142.5 9.664 9.664 0 0 1 .5 13.142l-20.659 23.98a3.261 3.261 0 0 1 -4.774.171z" fill="#ece6e2"/><path d="m52.735 24.909a9.664 9.664 0 0 0 -.5-13.142 9.564 9.564 0 0 0 -.745-.67 9.663 9.663 0 0 1 -.167 12.4l-20.663 23.972a3.262 3.262 0 0 1 -4.778.171l1.418 1.414a3.262 3.262 0 0 0 4.779-.171z" fill="#e3dfd9"/><path d="m16.531 33.34 23.974-20.661a9.663 9.663 0 0 1 12.4-.167 9.564 9.564 0 0 0 -.67-.745 9.664 9.664 0 0 0 -13.142-.5l-23.976 20.658a3.262 3.262 0 0 0 -.171 4.779l1.414 1.414a3.262 3.262 0 0 1 .171-4.778z" fill="#f5f1ee"/><g fill="#aad0d7"><path d="m27.65 21.125 15.225 15.225 3.274-3.798-14.701-14.701z"/><path d="m20.054 27.671 16.275 16.275 3.273-3.798-15.75-15.75z"/><path d="m16.256 30.944-1.139.981a3.262 3.262 0 0 0 -.171 4.779l12.354 12.35a3.262 3.262 0 0 0 4.779-.171l.981-1.139z"/><path d="m35.246 14.578 14.176 14.176 2.945-3.419-13.702-13.702z"/></g><g fill="#c8e6e8"><path d="m32.863 19.266-1.415-1.415-3.798 3.274 1.415 1.414z"/><path d="m25.266 25.812-1.414-1.414-3.798 3.273 1.414 1.414z"/><path d="m16.531 33.34 1.139-.982-1.414-1.414-1.139.981a3.262 3.262 0 0 0 -.171 4.779l1.414 1.414a3.262 3.262 0 0 1 .171-4.778z"/><path d="m40.079 13.047-1.414-1.414-3.419 2.945 1.415 1.415z"/></g><path d="m44.734 31.137 1.415 1.415-3.274 3.798-1.414-1.415z" fill="#94c1c6"/><path d="m38.188 38.734 1.414 1.414-3.273 3.798-1.414-1.414z" fill="#94c1c6"/><path d="m30.66 47.469.982-1.139 1.414 1.414-.981 1.139a3.262 3.262 0 0 1 -4.779.171l-1.414-1.414a3.262 3.262 0 0 0 4.778-.171z" fill="#94c1c6"/><path d="m50.953 23.921 1.414 1.414-2.945 3.419-1.415-1.415z" fill="#94c1c6"/><path d="m54.832 20.729a9.676 9.676 0 0 0 -11.561-11.561z" fill="#aad0d7"/><path d="m43.271 9.168 1.417 1.417c2.825-.631 5.2-.728 7.545 1.182a9.668 9.668 0 0 0 -8.962-2.599z" fill="#c8e6e8"/><path d="m54.832 20.729a9.668 9.668 0 0 0 -2.6-8.962c1.91 2.346 1.813 4.72 1.182 7.545" fill="#94c1c6"/></svg>