<svg id="icecream" viewBox="0 0 64 64" xmlns="http://www.w3.org/2000/svg"><path d="m9.289 54.711a3 3 0 0 1 0-4.242l9.192-9.193 4.243 4.243-9.193 9.192a3 3 0 0 1 -4.242 0z" fill="#f0bd80"/><path d="m21.309 44.105-9.192 9.195a2.992 2.992 0 0 1 -3.406.577 2.961 2.961 0 0 0 .578.837 3 3 0 0 0 4.242 0l9.193-9.192z" fill="#dcad73"/><path d="m55.344 17.232-27.674 31.723a1 1 0 0 1 -1.461.05l-11.209-11.214a1 1 0 0 1 .05-1.461l31.718-27.674a1 1 0 0 1 1.365.047l7.167 7.164a1 1 0 0 1 .044 1.365z" fill="#ece6e2"/><path d="m55.344 17.232-27.674 31.723a1 1 0 0 1 -1.461.05l-11.209-11.214a1 1 0 0 1 .05-1.461l31.718-27.674a1 1 0 0 1 1.365.047l7.167 7.164a1 1 0 0 1 .044 1.365z" fill="#ece6e2"/><path d="m55.3 15.867-.754-.754-28.994 33.234.657.658a1 1 0 0 0 1.461-.05l27.674-31.723a1 1 0 0 0 -.044-1.365z" fill="#e3dfd9"/><path d="m46.768 8.656-31.723 27.674a1 1 0 0 0 -.045 1.461l.658.657 33.229-28.991-.754-.757a1 1 0 0 0 -1.365-.044z" fill="#f5f1ee"/><g fill="#f05a3c"><path d="m50.636 22.628 3.489-4h-18.788l-4.585 4z"/><path d="m54.058 14.628-4-4h-5.55l-4.585 4z"/><path d="m19.833 42.628 4 4h5.867l3.489-4z"/><path d="m43.657 30.628 3.49-4h-20.98l-4.586 4z"/><path d="m36.679 38.628 3.489-4h-23.168l-1.951 1.7a1 1 0 0 0 -.049 1.463l.838.837z"/><path d="m19.833 42.628 4 4h5.867l3.489-4z"/></g><g fill="#fa765a"><path d="m35.337 18.628-4.585 4h3.036l4.585-4z"/><path d="m44.508 10.628-4.585 4h3.035l4.586-4z"/><path d="m26.167 26.628-4.586 4h3.036l4.585-4z"/><path d="m17 34.628-1.951 1.7a1 1 0 0 0 -.049 1.463l.658.657 4.378-3.82z"/></g><path d="m50.636 22.628 3.489-4h-2.648l-3.489 4z" fill="#dc4b36"/><path d="m43.657 30.628 3.49-4h-2.648l-3.49 4z" fill="#dc4b36"/><path d="m36.679 38.628 3.489-4h-2.648l-3.489 4z" fill="#dc4b36"/><path d="m29.7 46.628 3.489-4h-2.648l-3.489 4z" fill="#dc4b36"/></svg>