<svg id="icecream" viewBox="0 0 64 64" xmlns="http://www.w3.org/2000/svg"><path d="m53.754 13.945a2.749 2.749 0 0 0 -3.7-3.7l-12.254 6.266 9.689 9.689z" fill="#f05a3c"/><path d="m21.229 24.979a8.638 8.638 0 0 0 -2.177 13.8l6.17 6.17a8.638 8.638 0 0 0 13.8-2.177l1.771-3.466-16.1-16.1z" fill="#4590d8"/><path d="m37.798 16.511-13.103 6.697 16.097 16.097 6.697-13.103z" fill="#ece6e2"/><path d="m10.823 53.177a3 3 0 0 1 0-4.243l9.193-9.193 4.243 4.243-9.193 9.193a3 3 0 0 1 -4.243 0z" fill="#f0bd80"/><path d="m22.844 42.57-9.192 9.192a2.99 2.99 0 0 1 -3.406.577 2.97 2.97 0 0 0 4.82.838l9.193-9.193z" fill="#dcad73"/><path d="m20.467 27.977a8.639 8.639 0 0 1 2.176-1.584l3.466-1.771-1.409-1.414-3.466 1.771a8.638 8.638 0 0 0 -2.177 13.8l1.415 1.414a8.637 8.637 0 0 1 -.005-12.216z" fill="#64a4e3"/><path d="m37.798 16.511-13.103 6.697 1.414 1.414 13.103-6.697z" fill="#f5f1ee"/><path d="m47.489 26.2 6.265-12.257a2.749 2.749 0 0 0 -.5-3.195l-7.179 14.04z" fill="#dc4b36"/><path d="m36.023 43.533a8.639 8.639 0 0 0 1.584-2.176l1.771-3.466 1.414 1.414-1.771 3.466a8.638 8.638 0 0 1 -13.8 2.177l-1.414-1.415a8.637 8.637 0 0 0 12.216 0z" fill="#4682cc"/><path d="m47.489 26.202-6.697 13.103-1.414-1.414 6.697-13.103z" fill="#e3dfd9"/><path d="m53.818 11.6a2.726 2.726 0 0 0 -3.763-1.35l-12.255 6.261 1.414 1.414 12.255-6.265a2.741 2.741 0 0 1 2.349-.06z" fill="#fa765a"/></svg>