<svg id="icecream" viewBox="0 0 64 64" xmlns="http://www.w3.org/2000/svg"><path d="m9.025 54.975a3 3 0 0 1 0-4.243l9.192-9.192 4.243 4.243-9.192 9.192a3 3 0 0 1 -4.243 0z" fill="#f0bd80"/><path d="m21.046 44.368-9.193 9.193a2.99 2.99 0 0 1 -3.4.577 2.971 2.971 0 0 0 4.82.837l9.192-9.192z" fill="#dcad73"/><path d="m54.955 21.2a4.09 4.09 0 0 0 -.345-5.49l-6.317-6.32a4.09 4.09 0 0 0 -5.49-.345l-27.853 23.055a4.059 4.059 0 0 0 -.167 6l11.111 11.117a4.059 4.059 0 0 0 6-.167z" fill="#f05a3c"/><path d="m44.268 10.51a4.09 4.09 0 0 1 5.49.345l-1.465-1.465a4.09 4.09 0 0 0 -5.49-.345l-27.853 23.055a4.059 4.059 0 0 0 -.167 6l1.465 1.465a4.058 4.058 0 0 1 .167-6z" fill="#fa765a"/><path d="m54.955 21.2a4.09 4.09 0 0 0 -.345-5.49l-1.465-1.465a4.09 4.09 0 0 1 .345 5.49l-23.059 27.85a4.058 4.058 0 0 1 -6 .167l1.465 1.465a4.059 4.059 0 0 0 6-.167z" fill="#dc4b36"/><path d="m17.51 46.49a15 15 0 0 1 -3.263-16.318 2 2 0 0 1 3.263-.653l16.971 16.971a2 2 0 0 1 -.653 3.263 15 15 0 0 1 -16.318-3.263z" fill="#ece6e2"/><path d="m34.481 46.49-1.414-1.414a2 2 0 0 1 -.653 3.263c-5.289 2.178-10.642 1.88-14.9-1.849a15 15 0 0 0 16.318 3.263 2 2 0 0 0 .649-3.263z" fill="#e3dfd9"/><path d="m15.662 31.588a2 2 0 0 1 3.264-.653l-1.414-1.414a2 2 0 0 0 -3.264.652 15 15 0 0 0 3.264 16.318c-3.73-4.261-4.027-9.614-1.85-14.903z" fill="#f5f1ee"/><g fill="#dc4b36"><path d="m45.087 14.67a1 1 0 0 0 -1.414 0l-16.973 16.97a1 1 0 0 0 1.414 1.415l16.97-16.971a1 1 0 0 0 .003-1.414z"/><path d="m49.33 18.913a1 1 0 0 0 -1.414 0l-16.971 16.97a1 1 0 1 0 1.415 1.417l16.97-16.97a1 1 0 0 0 0-1.417z"/></g></svg>