<svg id="icecream" viewBox="0 0 64 64" xmlns="http://www.w3.org/2000/svg"><path d="m8.507 55.493a3 3 0 0 1 0-4.243l11.314-11.314 4.243 4.243-11.314 11.314a3 3 0 0 1 -4.243 0z" fill="#f0bd80"/><path d="m22.649 42.765-11.313 11.314a2.992 2.992 0 0 1 -3.406.577 2.971 2.971 0 0 0 .577.837 3 3 0 0 0 4.243 0l11.314-11.314z" fill="#dcad73"/><circle cx="35.377" cy="28.623" fill="#856448" r="20"/><path d="m22.582 15.827c7.583-7.583 19.088-8.488 26.937-1.346a20 20 0 0 0 -28.284 28.284c-7.142-7.85-6.235-19.354 1.347-26.938z" fill="#9c7864"/><path d="m48.173 41.418c7.583-7.583 8.488-19.088 1.346-26.937a20 20 0 0 1 -28.284 28.284c7.85 7.142 19.354 6.235 26.938-1.347z" fill="#755840"/><path d="m50.226 13.774a20.988 20.988 0 0 0 -21.408-5.1 1.008 1.008 0 0 0 -.4 1.668l8.564 8.564-6.998 6.994a3.934 3.934 0 0 0 -.292 5.363 3.789 3.789 0 0 0 5.5.148l4.313-4.311a3.934 3.934 0 0 1 5.363-.292 3.788 3.788 0 0 1 .148 5.5l-.741.742a3.934 3.934 0 0 0 -.292 5.363 3.789 3.789 0 0 0 5.5.147l3.573-3.572.6.6a1.008 1.008 0 0 0 1.668-.4 20.988 20.988 0 0 0 -5.098-21.414z" fill="#f7e491"/><path d="m50.226 13.774a20.988 20.988 0 0 0 -21.408-5.1 1.008 1.008 0 0 0 -.4 1.668l.19.191a19.549 19.549 0 0 1 21.618 3.241z" fill="#ffebb9"/><path d="m55.323 35.182a20.988 20.988 0 0 0 -5.1-21.408 19.549 19.549 0 0 1 3.241 21.626l.191.19a1.008 1.008 0 0 0 1.668-.408z" fill="#f5dc6e"/><g fill="#ffebb9"><path d="m31.246 27.469 7.146-7.146-1.414-1.414-7.146 7.146a3.74 3.74 0 0 0 .813 5.96 3.781 3.781 0 0 1 .601-4.546z"/><path d="m45.016 32.307-.893.893a3.789 3.789 0 0 0 0 5.359 3.708 3.708 0 0 0 .813.6 3.781 3.781 0 0 1 .6-4.546l.893-.893a3.789 3.789 0 0 0 0-5.359l-1.414-1.414a3.789 3.789 0 0 1 .001 5.36z"/></g></svg>