<svg id="icecream" viewBox="0 0 64 64" xmlns="http://www.w3.org/2000/svg"><path d="m8.458 55.542a3 3 0 0 1 0-4.243l9.193-9.192 4.242 4.242-9.193 9.193a3 3 0 0 1 -4.242 0z" fill="#f0bd80"/><path d="m20.479 44.935-9.192 9.192a2.992 2.992 0 0 1 -3.406.578 2.971 2.971 0 0 0 4.82.837l9.192-9.193z" fill="#dcad73"/><path d="m28.573 22.677h7.5v18h-7.5z" fill="#aad0d7" transform="matrix(.707 -.707 .707 .707 -12.932 32.134)"/><path d="m30.732 46-3.889 3.889a2 2 0 0 1 -2.828 0l-9.9-9.9a2 2 0 0 1 0-2.828l3.885-3.893z" fill="#856448"/><path d="m39.18 12.07h7.5v18h-7.5z" fill="#f05a3c" transform="matrix(.707 -.707 .707 .707 -2.325 36.527)"/><path d="m55.835 18.065-9.9-9.9a2 2 0 0 0 -2.828 0l-3.889 3.89 12.727 12.727 3.89-3.889a2 2 0 0 0 0-2.828z" fill="#a6cd6c"/><path d="m34.23 36.334h7.5v2h-7.5z" fill="#94c1c6" transform="matrix(.707 -.707 .707 .707 -15.275 37.791)"/><path d="m44.837 25.727h7.5v2h-7.5z" fill="#dc4b36" transform="matrix(.707 -.707 .707 .707 -4.668 42.184)"/><path d="m22.916 25.02h7.5v2h-7.5z" fill="#c8e6e8" transform="matrix(.707 -.707 .707 .707 -10.588 26.477)"/><path d="m33.877 17.374h7.5v18h-7.5z" fill="#f7e491" transform="matrix(.707 -.707 .707 .707 -7.628 34.331)"/><path d="m39.533 31.03h7.5v2h-7.5z" fill="#f5dc6e" transform="matrix(.707 -.707 .707 .707 -9.971 39.987)"/><path d="m28.22 19.717h7.5v2h-7.5z" fill="#ffebb9" transform="matrix(.707 -.707 .707 .707 -5.285 28.674)"/><path d="m23.27 27.98h7.5v18h-7.5z" fill="#ece6e2" transform="matrix(.707 -.707 .707 .707 -18.235 29.937)"/><path d="m28.927 41.637h7.5v2h-7.5z" fill="#e3dfd9" transform="matrix(.707 -.707 .707 .707 -20.578 35.594)"/><path d="m17.613 30.323h7.5v2h-7.5z" fill="#f5f1ee" transform="matrix(.707 -.707 .707 .707 -15.892 24.28)"/><path d="m33.523 14.413h7.5v2h-7.5z" fill="#fa765a" transform="matrix(.707 -.707 .707 .707 .018 30.87)"/><path d="m24.015 49.885-1.415-1.414a2 2 0 0 0 2.828 0l3.889-3.89 1.415 1.419-3.889 3.889a2 2 0 0 1 -2.828-.004z" fill="#755840"/><path d="m15.529 38.571a2 2 0 0 0 0 2.828l-1.414-1.414a2 2 0 0 1 0-2.828l3.885-3.889 1.415 1.414z" fill="#9c7864"/><path d="m40.632 13.469 3.889-3.889a2 2 0 0 1 2.828 0l-1.414-1.415a2 2 0 0 0 -2.828 0l-3.889 3.89z" fill="#b9dc8f"/><path d="m54.42 19.479-3.889 3.889 1.414 1.414 3.89-3.889a2 2 0 0 0 0-2.828l-1.415-1.414a2 2 0 0 1 0 2.828z" fill="#94be55"/></svg>