<svg id="icecream" viewBox="0 0 64 64" xmlns="http://www.w3.org/2000/svg"><path d="m9.123 54.877a3 3 0 0 1 0-4.242l9.192-9.193 4.243 4.243-9.193 9.192a3 3 0 0 1 -4.242 0z" fill="#f0bd80"/><path d="m21.143 44.271-9.192 9.192a2.992 2.992 0 0 1 -3.406.577 2.961 2.961 0 0 0 .578.837 3 3 0 0 0 4.242 0l9.193-9.192z" fill="#dcad73"/><rect fill="#ece6e2" height="7" rx="3.5" transform="matrix(.707 .707 -.707 .707 33.129 -10.53)" width="16" x="21.275" y="31.225"/><rect fill="#f05a3c" height="7" rx="3.5" transform="matrix(.707 .707 -.707 .707 35.179 -5.58)" width="16" x="16.325" y="36.175"/><rect fill="#ece6e2" height="7" rx="3.5" transform="matrix(.707 .707 -.707 .707 29.028 -20.429)" width="16" x="31.175" y="21.325"/><rect fill="#f05a3c" height="7" rx="3.5" transform="matrix(.707 .707 -.707 .707 31.078 -15.48)" width="16" x="26.225" y="26.275"/><rect fill="#ece6e2" height="7" rx="3.5" transform="matrix(.707 .707 -.707 .707 24.928 -30.329)" width="16" x="41.074" y="11.426"/><path d="m44.831 10.683a3.5 3.5 0 0 1 4.95 0l-1.414-1.414a3.5 3.5 0 1 0 -4.95 4.95l1.414 1.414a3.5 3.5 0 0 1 0-4.95z" fill="#f5f1ee"/><path d="m54.731 15.633-1.414-1.414a3.5 3.5 0 0 1 -4.95 4.95l1.414 1.414a3.5 3.5 0 0 0 4.95-4.95z" fill="#e3dfd9"/><rect fill="#f05a3c" height="7" rx="3.5" transform="matrix(.707 .707 -.707 .707 26.978 -25.379)" width="16" x="36.124" y="16.376"/><rect fill="#ece6e2" height="7" rx="3.5" transform="matrix(.707 .707 -.707 .707 37.229 -.63)" width="16" x="11.376" y="41.124"/><path d="m34.932 20.583a3.5 3.5 0 0 1 4.95 0l-1.414-1.414a3.5 3.5 0 0 0 -4.95 4.949l1.414 1.414a3.5 3.5 0 0 1 0-4.949z" fill="#f5f1ee"/><path d="m44.831 25.532-1.414-1.414a3.5 3.5 0 1 1 -4.949 4.95l1.414 1.414a3.5 3.5 0 0 0 4.949-4.95z" fill="#e3dfd9"/><path d="m25.032 30.482a3.5 3.5 0 0 1 4.95 0l-1.414-1.414a3.5 3.5 0 1 0 -4.95 4.95l1.414 1.414a3.5 3.5 0 0 1 0-4.95z" fill="#f5f1ee"/><path d="m34.932 35.432-1.414-1.414a3.5 3.5 0 0 1 -4.95 4.95l1.414 1.414a3.5 3.5 0 0 0 4.95-4.95z" fill="#e3dfd9"/><path d="m15.133 40.382a3.5 3.5 0 0 1 4.95 0l-1.414-1.414a3.5 3.5 0 1 0 -4.95 4.949l1.414 1.414a3.5 3.5 0 0 1 0-4.949z" fill="#f5f1ee"/><path d="m25.032 45.331-1.414-1.414a3.5 3.5 0 0 1 -4.949 4.95l1.414 1.414a3.5 3.5 0 0 0 4.949-4.95z" fill="#e3dfd9"/><path d="m39.882 15.633a3.5 3.5 0 0 1 4.949 0l-1.414-1.414a3.5 3.5 0 1 0 -4.949 4.95l1.414 1.414a3.5 3.5 0 0 1 0-4.95z" fill="#fa765a"/><path d="m49.781 20.583-1.414-1.414a3.5 3.5 0 0 1 -4.95 4.949l1.414 1.414a3.5 3.5 0 0 0 4.95-4.949z" fill="#dc4b36"/><path d="m29.982 25.532a3.5 3.5 0 0 1 4.95 0l-1.414-1.414a3.5 3.5 0 1 0 -4.95 4.95l1.414 1.414a3.5 3.5 0 0 1 0-4.95z" fill="#fa765a"/><path d="m39.882 30.482-1.414-1.414a3.5 3.5 0 0 1 -4.95 4.95l1.414 1.414a3.5 3.5 0 0 0 4.95-4.95z" fill="#dc4b36"/><path d="m20.083 35.432a3.5 3.5 0 0 1 4.949 0l-1.414-1.414a3.5 3.5 0 0 0 -4.949 4.95l1.414 1.414a3.5 3.5 0 0 1 0-4.95z" fill="#fa765a"/><path d="m29.982 40.382-1.414-1.414a3.5 3.5 0 0 1 -4.95 4.949l1.414 1.414a3.5 3.5 0 0 0 4.95-4.949z" fill="#dc4b36"/></svg>