<svg id="icecream" viewBox="0 0 64 64" xmlns="http://www.w3.org/2000/svg"><path d="m17.247 29.782-2.121 2.118a4 4 0 0 0 0 5.657l11.313 11.317a4 4 0 0 0 5.657 0l2.122-2.121z" fill="#856448"/><path d="m51.9 29.075a12 12 0 0 0 -16.97-16.97l-17.683 17.677 16.971 16.971z" fill="#ece6e2"/><path d="m51.9 12.105a10 10 0 0 0 -14.142 0l-19.097 19.095 14.139 14.139 19.1-19.092a10 10 0 0 0 0-14.142z" fill="none"/><path d="m15.126 31.9a4 4 0 0 0 0 5.657l1.414 1.414a4 4 0 0 1 0-5.657l2.121-2.114-1.414-1.415z" fill="#9c7864"/><path d="m34.925 12.105-17.678 17.677 1.414 1.418 19.092-19.095a10 10 0 0 1 14.142 0 12 12 0 0 0 -16.97 0z" fill="#f5f1ee"/><path d="m32.8 45.339-2.118 2.121a4 4 0 0 1 -5.657 0l1.414 1.414a4 4 0 0 0 5.657 0l2.122-2.121z" fill="#755840"/><g fill="#e3dfd9"><path d="m51.9 12.105a10 10 0 0 1 0 14.142l-19.1 19.092 1.415 1.414 17.685-17.678a12 12 0 0 0 0-16.97z"/><path d="m42 13.519a1 1 0 0 0 -1.415 0l-16.974 16.971a1 1 0 1 0 1.414 1.41l16.975-16.967a1 1 0 0 0 0-1.414z"/><path d="m50.481 22a1 1 0 0 0 -1.414 0l-16.967 16.975a1 1 0 0 0 1.414 1.414l16.971-16.97a1 1 0 0 0 -.004-1.419z"/><rect height="2" rx="1" transform="matrix(.707 -.707 .707 .707 -6.795 34.676)" width="30" x="23.46" y="24.54"/></g><path d="m9.469 54.531a3 3 0 0 1 0-4.242l9.192-9.189 4.239 4.239-9.193 9.192a3 3 0 0 1 -4.238 0z" fill="#f0bd80"/><path d="m21.49 43.925-9.19 9.192a2.99 2.99 0 0 1 -3.405.577 2.951 2.951 0 0 0 .577.837 3 3 0 0 0 4.242 0l9.186-9.192z" fill="#dcad73"/></svg>