<svg id="icecream" viewBox="0 0 64 64" xmlns="http://www.w3.org/2000/svg"><path d="m5.221 58.779a3 3 0 0 1 0-4.243l9.192-9.192 4.243 4.243-9.192 9.192a3 3 0 0 1 -4.243 0z" fill="#f0bd80"/><path d="m17.242 48.172-9.193 9.193a2.99 2.99 0 0 1 -3.4.577 2.971 2.971 0 0 0 4.82.837l9.192-9.192z" fill="#dcad73"/><path d="m48.682 38.653 9.218-9.219a6 6 0 0 0 -8.485-8.485l-3.886 3.886a20.646 20.646 0 0 0 -6.364-6.364l3.886-3.886a6 6 0 0 0 -8.485-8.485l-9.219 9.218a21 21 0 1 0 23.335 23.335z" fill="#eb78aa"/><path d="m14.413 22.717a20.893 20.893 0 0 1 12.348-5.985l9.219-9.218c2.1-2.1 4.728-3.083 7.071-1.414a6 6 0 0 0 -8.485 0l-9.219 9.218a20.98 20.98 0 0 0 -12.347 35.682c-7.5-8.241-6.549-20.321 1.413-28.283z" fill="#fa91be"/><g fill="#dc699b"><circle cx="34.919" cy="41.809" r="2"/><circle cx="22.191" cy="29.081" r="2"/><ellipse cx="24.666" cy="40.041" rx="2" ry="3.5" transform="matrix(.707 -.707 .707 .707 -21.088 29.169)"/></g><path d="m49.415 20.949-3.886 3.886a20.506 20.506 0 0 1 1.031 1.8l4.269-4.269c2.1-2.1 4.728-3.083 7.071-1.414a6 6 0 0 0 -8.485-.003z" fill="#fa91be"/><g fill="#dc699b"><path d="m48.682 38.653 9.218-9.219a6 6 0 0 0 0-8.485c1.669 2.343.688 4.969-1.414 7.071l-9.218 9.219a20.893 20.893 0 0 1 -5.985 12.348c-7.962 7.962-20.042 8.913-28.283 1.413a20.98 20.98 0 0 0 35.682-12.347z"/><path d="m43.051 6.1c1.669 2.343.688 4.969-1.414 7.071l-4.269 4.269a20.506 20.506 0 0 1 1.8 1.031l3.886-3.886a6 6 0 0 0 -.003-8.485z"/></g></svg>