<svg id="icecream" viewBox="0 0 64 64" xmlns="http://www.w3.org/2000/svg"><path d="m25.889 20.111h20v16h-20z" fill="#f3d357" transform="matrix(.707 -.707 .707 .707 -9.366 33.611)"/><path d="m54.981 20.333a3 3 0 0 0 0-4.243l-7.071-7.071a3 3 0 0 0 -4.243 0l-6.367 6.364 11.317 11.317z" fill="#ece6e2"/><path d="m16.8 35.889a3 3 0 0 0 0 4.243l7.068 7.068a3 3 0 0 0 4.243 0l6.364-6.364-11.314-11.311z" fill="#f05a3c"/><circle cx="47.203" cy="13.969" fill="#f5f1ee" r="2"/><path d="m9.019 54.981a3 3 0 0 1 0-4.243l9.192-9.192 4.243 4.243-9.192 9.192a3 3 0 0 1 -4.243 0z" fill="#f0bd80"/><path d="m21.04 44.374-9.193 9.193a2.99 2.99 0 0 1 -3.4.577 2.971 2.971 0 0 0 4.82.837l9.192-9.192z" fill="#dcad73"/><path d="m16.8 35.889a3 3 0 0 0 0 4.243l1.414 1.414a3 3 0 0 1 0-4.243l6.364-6.364-1.414-1.414z" fill="#fa765a"/><path d="m45.081 10.433a3 3 0 0 1 4.243 0l-1.414-1.414a3 3 0 0 0 -4.243 0l-6.367 6.364 1.418 1.417z" fill="#f5f1ee"/><path d="m26.7 45.789a3 3 0 0 1 -4.243 0l1.411 1.411a3 3 0 0 0 4.243 0l6.364-6.364-1.414-1.414z" fill="#dc4b36"/><path d="m54.981 20.333a3 3 0 0 0 0-4.243l-1.414-1.414a3 3 0 0 1 0 4.243l-6.367 6.363 1.417 1.418z" fill="#e3dfd9"/><path d="m25.889 22.111h20v12h-20z" fill="none" transform="matrix(.707 -.707 .707 .707 -9.366 33.611)"/><path d="m20.939 22.161h20v2h-20z" fill="#f7e491" transform="matrix(.707 -.707 .707 .707 -7.315 28.661)"/><path d="m30.839 32.061h20v2h-20z" fill="#f0c44b" transform="matrix(.707 -.707 .707 .707 -11.416 38.561)"/></svg>