<svg id="icecream" viewBox="0 0 64 64" xmlns="http://www.w3.org/2000/svg"><path d="m10.163 54.246a3 3 0 0 1 0-4.242l9.193-9.193 4.244 4.243-9.192 9.192a3 3 0 0 1 -4.245 0z" fill="#f0bd80"/><path d="m22.184 43.64-9.192 9.192a2.99 2.99 0 0 1 -3.406.577 2.957 2.957 0 0 0 .577.837 3 3 0 0 0 4.243 0l9.194-9.192z" fill="#dcad73"/><path d="m29.089 51.959-16.638-16.639a2 2 0 0 1 .164-2.976l26.585-21.266a10.057 10.057 0 0 1 13.392.742 10.057 10.057 0 0 1 .742 13.392l-21.269 26.582a2 2 0 0 1 -2.976.165z" fill="#c8e6e8"/><path d="m39.2 11.078-26.585 21.266a2 2 0 0 0 -.164 2.976l1.414 1.415a2 2 0 0 1 .165-2.976l26.582-21.266c3.738-2.99 8.345-3.65 11.978-.673a10.057 10.057 0 0 0 -13.39-.742z" fill="#def0f1"/><path d="m32.065 51.8 21.267-26.588a10.057 10.057 0 0 0 -.742-13.392c2.977 3.633 2.317 8.24-.673 11.978l-21.266 26.582a2 2 0 0 1 -2.976.165l1.415 1.414a2 2 0 0 0 2.975-.159z" fill="#aad0d7"/><path d="m22 37a7 7 0 0 0 14 0z" fill="#f0c44b"/><path d="m22 37a6 6 0 0 0 12 0z" fill="#f3d357"/><path d="m49.761 23.134a6 6 0 0 0 0-8.486l-4.242 4.243z" fill="#f0c44b"/><path d="m38.982 30.047-6.417-6.417 6.417-4.583 4.583 4.583z" fill="#f05a3c"/><circle cx="46.226" cy="16.77" fill="#def0f1" r="3"/><path d="m48.347 18.891a2.99 2.99 0 0 0 .577-3.4l-3.405 3.4.863.864a2.976 2.976 0 0 0 1.965-.864z" fill="#f7e491"/><path d="m38.95 27.485 3.529-4.941-3.497-3.497-4.941 3.529z" fill="#fa765a"/></svg>