<svg id="icecream" viewBox="0 0 64 64" xmlns="http://www.w3.org/2000/svg"><path d="m8.406 55.657a3 3 0 0 1 0-4.243l9.194-9.192 4.243 4.242-9.192 9.193a3 3 0 0 1 -4.245 0z" fill="#f0bd80"/><path d="m20.427 45.05-9.193 9.192a2.991 2.991 0 0 1 -3.4.578 2.971 2.971 0 0 0 4.82.837l9.192-9.193z" fill="#dcad73"/><path d="m53.9 16.968-14.678-3.851a3.45 3.45 0 0 0 -3.316.9l-.006.006a3.45 3.45 0 0 0 1.564 5.777l14.675 3.851a3.45 3.45 0 0 0 3.315-.9l.006-.007a3.449 3.449 0 0 0 -1.56-5.776z" fill="#4590d8"/><path d="m42.583 28.282-14.675-3.852a3.451 3.451 0 0 0 -3.315.9l-.007.006a3.45 3.45 0 0 0 1.564 5.774l14.675 3.852a3.451 3.451 0 0 0 3.315-.9l.006-.006a3.449 3.449 0 0 0 -1.563-5.774z" fill="#aad0d7"/><path d="m36.926 33.938-14.675-3.851a3.448 3.448 0 0 0 -3.315.9l-.006.006a3.449 3.449 0 0 0 1.563 5.776l14.675 3.852a3.451 3.451 0 0 0 3.315-.9l.007-.006a3.451 3.451 0 0 0 -1.564-5.777z" fill="#4590d8"/><path d="m31.269 39.6-14.675-3.856a3.45 3.45 0 0 0 -3.315.9l-.006.007a3.449 3.449 0 0 0 1.563 5.776l14.675 3.851a3.45 3.45 0 0 0 3.316-.9l.006-.006a3.451 3.451 0 0 0 -1.564-5.772z" fill="#ece6e2"/><path d="m48.24 22.625-14.675-3.852a3.453 3.453 0 0 0 -3.316.9l-.006.006a3.451 3.451 0 0 0 1.564 5.777l14.675 3.851a3.448 3.448 0 0 0 3.315-.9l.003-.007a3.449 3.449 0 0 0 -1.56-5.775z" fill="#ece6e2"/><path d="m25.612 45.252-11.688-3.067 8.749 8.749a3.2 3.2 0 0 0 4.16.4 3.466 3.466 0 0 0 .324-.284l.013-.011.006-.006a3.45 3.45 0 0 0 -1.564-5.781z" fill="#aad0d7"/><path d="m28.11 47.9a3.411 3.411 0 0 1 -.934 1.718l-.006.006-.028.028a3.215 3.215 0 0 1 -4.484-.143l-6.817-6.818-2.89-1.475 9.722 9.722a3.2 3.2 0 0 0 4.163.394 3.555 3.555 0 0 0 .334-.293l.006-.007a3.407 3.407 0 0 0 .934-3.132z" fill="#94c1c6"/><path d="m43.121 14.14 11.688 3.067-8.749-8.749a3.2 3.2 0 0 0 -4.159-.4 3.507 3.507 0 0 0 -.325.285l-.013.011-.006.006a3.451 3.451 0 0 0 1.564 5.78z" fill="#aad0d7"/><path d="m40.624 11.5a3.4 3.4 0 0 1 .933-1.718l.006-.007.028-.027a3.215 3.215 0 0 1 4.484.143l6.817 6.809 2.89 1.476-9.722-9.718a3.2 3.2 0 0 0 -4.16-.394 3.416 3.416 0 0 0 -.334.293l-.006.006a3.405 3.405 0 0 0 -.936 3.137z" fill="#c8e6e8"/><path d="m50.736 25.269a3.4 3.4 0 0 1 -.933 1.718l-.006.007a3.45 3.45 0 0 1 -3.315.9l-16.973-4.457a3.389 3.389 0 0 0 2.3 2.017l14.675 3.851a3.45 3.45 0 0 0 3.315-.9l.001-.005a3.406 3.406 0 0 0 .936-3.131z" fill="#e3dfd9"/><path d="m45.075 30.931a3.406 3.406 0 0 1 -.933 1.718l-.006.006a3.45 3.45 0 0 1 -3.316.9l-16.972-4.455a3.387 3.387 0 0 0 2.3 2.017l14.672 3.85a3.453 3.453 0 0 0 3.316-.9l.006-.006a3.4 3.4 0 0 0 .933-3.13z" fill="#94c1c6"/><path d="m33.761 42.244a3.4 3.4 0 0 1 -.933 1.718l-.006.007a3.45 3.45 0 0 1 -3.315.9l-16.973-4.457a3.389 3.389 0 0 0 2.3 2.017l14.673 3.851a3.45 3.45 0 0 0 3.315-.9l.006-.006a3.406 3.406 0 0 0 .933-3.13z" fill="#e3dfd9"/><path d="m56.389 19.617a3.4 3.4 0 0 1 -.934 1.718l-.006.006a3.451 3.451 0 0 1 -3.315.9l-16.972-4.457a3.385 3.385 0 0 0 2.3 2.017l14.675 3.852a3.451 3.451 0 0 0 3.315-.9l.006-.006a3.4 3.4 0 0 0 .931-3.13z" fill="#4682cc"/><path d="m39.418 36.587a3.4 3.4 0 0 1 -.933 1.718l-.006.007a3.452 3.452 0 0 1 -3.316.9l-16.972-4.457a3.387 3.387 0 0 0 2.3 2.017l14.674 3.851a3.45 3.45 0 0 0 3.316-.9l.006-.006a3.405 3.405 0 0 0 .931-3.13z" fill="#4682cc"/><path d="m48.24 22.625-14.675-3.852a3.453 3.453 0 0 0 -3.316.9l-.006.006a3.4 3.4 0 0 0 -.933 3.132 3.4 3.4 0 0 1 .933-1.718l.006-.006a3.45 3.45 0 0 1 3.316-.9l16.972 4.454a3.387 3.387 0 0 0 -2.297-2.016z" fill="#f5f1ee"/><path d="m31.274 39.591-14.674-3.852a3.451 3.451 0 0 0 -3.315.9l-.007.006a3.406 3.406 0 0 0 -.933 3.132 3.409 3.409 0 0 1 .933-1.718l.007-.006a3.451 3.451 0 0 1 3.315-.9l16.972 4.455a3.383 3.383 0 0 0 -2.298-2.017z" fill="#f5f1ee"/><path d="m53.9 16.964-14.674-3.852a3.453 3.453 0 0 0 -3.316.9l-.006.006a3.4 3.4 0 0 0 -.933 3.132 3.4 3.4 0 0 1 .929-1.72l.006-.006a3.45 3.45 0 0 1 3.316-.9l16.978 4.457a3.387 3.387 0 0 0 -2.3-2.017z" fill="#64a4e3"/><path d="m36.931 33.934-14.675-3.852a3.451 3.451 0 0 0 -3.315.9l-.007.006a3.4 3.4 0 0 0 -.934 3.13 3.4 3.4 0 0 1 .933-1.718l.007-.006a3.451 3.451 0 0 1 3.315-.9l16.972 4.455a3.387 3.387 0 0 0 -2.296-2.015z" fill="#64a4e3"/><path d="m42.588 28.277-14.675-3.852a3.452 3.452 0 0 0 -3.316.9l-.006.006a3.4 3.4 0 0 0 -.933 3.132 3.406 3.406 0 0 1 .933-1.718l.006-.006a3.45 3.45 0 0 1 3.316-.9l16.972 4.454a3.387 3.387 0 0 0 -2.297-2.016z" fill="#c8e6e8"/></svg>