<svg id="Capa_1" enable-background="new 0 0 512 512" height="512" viewBox="0 0 512 512" width="512" xmlns="http://www.w3.org/2000/svg"><g><ellipse cx="256" cy="338.864" fill="#fb4a59" rx="124.078" ry="153.647"/><g fill="#f82f40"><path d="m342.782 229.071c-3.554 2.05-7.273 3.987-11.157 5.79-9.56 4.45-19.223 10.405-30.411 18.749-13.712 10.23-29.35 15.638-45.215 15.638s-31.503-5.408-45.215-15.638c-11.188-8.344-20.851-14.299-30.411-18.749-3.884-1.803-7.603-3.74-11.157-5.79 22.365-27.135 52.993-43.855 86.782-43.855s64.419 16.72 86.784 43.855z"/><path d="m380.074 338.868c0 84.856-55.547 153.641-124.075 153.641-7.108 0-14.072-.742-20.851-2.163 58.597-12.28 103.224-75.42 103.224-151.478s-44.627-139.208-103.224-151.488c6.779-1.422 13.743-2.163 20.851-2.163 68.528-.001 124.075 68.795 124.075 153.651z"/><circle cx="168.102" cy="36.17" r="36.17"/><circle cx="343.897" cy="36.17" r="36.17"/></g><path d="m380.064 36.17c0 19.975-16.194 36.17-36.17 36.17-4.378 0-8.571-.773-12.445-2.194 13.846-5.079 23.725-18.379 23.725-33.975s-9.88-28.897-23.725-33.975c3.874-1.423 8.067-2.196 12.446-2.196 19.975 0 36.169 16.194 36.169 36.17z" fill="#e22334"/><path d="m371.035 155.537c0-12.857-5.02-24.953-13.859-35.511-8.305-9.921-12.464-22.497-11.922-35.424.022-.526.033-1.054.033-1.584 0-31.964-39.975-57.876-89.288-57.876s-89.288 25.912-89.288 57.876c0 .53.011 1.058.033 1.584.542 12.927-3.617 25.503-11.922 35.424-8.839 10.558-13.859 22.655-13.859 35.511 0 24.995 18.974 47.115 48.095 60.643 12.112 5.627 23.34 12.924 34.045 20.911 9.914 7.396 21.082 11.555 32.897 11.555s22.982-4.159 32.897-11.555c10.705-7.986 21.932-15.284 34.045-20.911 29.119-13.528 48.093-35.648 48.093-60.643z" fill="#fb4a59"/><path d="m371.04 155.537c0 24.992-18.976 47.11-48.099 60.647-12.115 5.625-23.344 12.919-34.048 20.913-9.91 7.386-21.077 11.548-32.894 11.548-5.068 0-10.003-.762-14.783-2.225 6.367-1.937 12.434-5.099 18.09-9.323 10.704-7.994 21.933-15.288 34.048-20.913 29.123-13.537 48.099-35.655 48.099-60.647 0-12.857-5.027-24.951-13.866-35.51-8.303-9.921-12.465-22.499-11.919-35.428.021-.525.031-1.051.031-1.576 0-28.701-32.214-52.508-74.472-57.082 4.801-.525 9.735-.793 14.773-.793 49.315 0 89.286 25.909 89.286 57.876 0 .525-.01 1.051-.031 1.576-.546 12.929 3.616 25.507 11.919 35.428 8.839 10.558 13.866 22.652 13.866 35.509z" fill="#f82f40"/><g id="XMLID_289_"><path d="m223.11 109.687c-.012 0-.022 0-.034 0l-.118-.001c-4.267-.018-7.711-3.492-7.693-7.76s3.505-7.721 7.76-7.693l.118.001c4.267.018 7.711 3.492 7.693 7.76-.019 4.255-3.475 7.693-7.726 7.693z" fill="#e22334"/></g><g id="XMLID_85_"><path d="m289.009 109.687c-.012 0-.022 0-.034 0l-.118-.001c-4.267-.018-7.711-3.492-7.693-7.76.018-4.256 3.474-7.693 7.725-7.693h.034l.118.001c4.267.018 7.711 3.492 7.693 7.76-.018 4.255-3.473 7.693-7.725 7.693z" fill="#e22334"/></g><g><g><g><ellipse cx="138.017" cy="266.576" fill="#fb4a59" rx="41.535" ry="62.283" transform="matrix(.709 -.706 .706 .709 -147.867 175.022)"/><g><path d="m162.264 335.375c-1.319.103-2.637.154-3.976.154-8.499 0-17.4-2.009-26.136-5.81.258-5.563.752-11.054 1.494-16.442 9.313 4.914 18.914 7.345 27.444 6.696 4.244-.34 7.963 2.854 8.293 7.108.319 4.256-2.865 7.975-7.119 8.294z" fill="#f82f40"/></g><g><path d="m192.87 261.614c-1.082.515-2.225.762-3.358.762-2.874 0-5.625-1.607-6.964-4.368-3.667-7.592-9.004-15.02-15.422-21.469-.7-.701-1.411-1.401-2.143-2.071 3.111-4.182 6.418-8.149 9.91-11.878 1.082.979 2.143 1.998 3.183 3.049 7.726 7.757 13.918 16.39 18.389 25.651 1.855 3.845.248 8.46-3.595 10.324z" fill="#f82f40"/></g></g></g><g><g><ellipse cx="373.982" cy="266.576" fill="#fb4a59" rx="62.283" ry="41.535" transform="matrix(.706 -.709 .709 .706 -78.788 343.552)"/><path d="m403.418 295.878c-20.49 20.583-47.11 28.526-64.685 20.748 11.147-3.678 22.602-10.704 32.605-20.748 24.271-24.374 30.761-57.257 14.505-73.442-2.524-2.514-5.46-4.481-8.695-5.913 15.916-5.223 31.215-3.606 40.775 5.913 16.257 16.185 9.766 49.068-14.505 73.442z" fill="#f82f40"/><g><path d="m379.848 329.668c-8.839 3.832-17.822 5.862-26.259 5.862-1.298 0-2.586-.051-3.853-.144-4.255-.33-7.438-4.038-7.118-8.293.329-4.255 4.028-7.438 8.293-7.119 8.478.649 18.059-1.741 27.444-6.686.731 5.368 1.236 10.838 1.493 16.38z" fill="#e22334"/></g><g><path d="m347.295 234.84c-.464.443-.927.896-1.391 1.36-6.418 6.449-11.755 13.866-15.422 21.469-1.339 2.761-4.09 4.368-6.964 4.368-1.133 0-2.277-.247-3.358-.773-3.843-1.854-5.45-6.469-3.595-10.312 4.471-9.261 10.662-17.894 18.389-25.652.814-.814 1.628-1.607 2.462-2.38 3.471 3.74 6.778 7.727 9.879 11.92z" fill="#e22334"/></g></g></g></g><g><g><ellipse cx="164.628" cy="436.622" fill="#fb4a59" rx="54.493" ry="75.378"/><g><path d="m239.569 393.818c-4.049 1.35-8.427-.835-9.776-4.883l-1.731-5.161c-3.976-11.94-15.113-19.955-27.691-19.955h-35.747c-10.786 0-20.717 5.295-28.629 14.196-1.267-5.965-2.256-12.084-2.926-18.317 9.426-7.397 20.233-11.332 31.555-11.332h35.747c19.244 0 36.262 12.259 42.351 30.514l1.731 5.161c1.348 4.049-.836 8.427-4.884 9.777z" fill="#f82f40"/></g><g><path d="m234.057 437.652c0 17.873-4.182 34.923-11.909 49.067-4.863-1.7-9.591-3.76-14.186-6.15 6.645-11.682 10.642-26.63 10.642-42.917 0-4.265 3.462-7.726 7.726-7.726 4.266 0 7.727 3.461 7.727 7.726z" fill="#f82f40"/></g></g><g><ellipse cx="347.371" cy="436.622" fill="#fb4a59" rx="54.493" ry="75.378"/><path d="m401.863 436.622c0 41.63-24.395 75.378-54.497 75.378-5.378 0-10.58-1.082-15.484-3.091 22.551-9.23 39.013-38.096 39.013-72.288s-16.462-63.057-39.013-72.288c4.904-2.009 10.106-3.091 15.484-3.091 30.102.001 54.497 33.75 54.497 75.38z" fill="#f82f40"/><g><path d="m378.932 359.698c-.67 6.233-1.659 12.352-2.926 18.317-7.922-8.901-17.853-14.196-28.639-14.196h-35.737c-12.094 0-23.57 12.774-27.691 25.116-1.36 4.049-5.738 6.233-9.777 4.883-4.049-1.35-6.233-5.728-4.883-9.776 5.913-17.729 22.365-35.675 42.351-35.675h35.737c11.321-.001 22.128 3.934 31.565 11.331z" fill="#f82f40"/></g><g><path d="m304.037 480.569c-4.595 2.39-9.323 4.45-14.186 6.15-7.736-14.134-11.909-31.194-11.909-49.067 0-4.265 3.461-7.726 7.726-7.726s7.726 3.461 7.726 7.726c.002 16.287 3.999 31.235 10.643 42.917z" fill="#f82f40"/></g></g></g><g><circle cx="256" cy="192.439" fill="#f82f40" r="26.831"/><path d="m282.862 126.9c19.546 0 35.25 16.451 34.021 36.262-1.096 17.672-15.992 31.748-33.697 31.913-8.914.083-17.041-3.26-23.158-8.788-2.296-2.075-5.76-2.075-8.056 0-6.117 5.528-14.245 8.871-23.158 8.788-17.705-.165-32.6-14.242-33.696-31.913-1.229-19.811 14.475-36.262 34.021-36.262z" fill="#fb8189"/><path d="m256 153.458c-9.867 0-18.857-5.664-23.116-14.564-3.933-8.219 2.058-17.728 11.17-17.728h23.892c9.112 0 15.103 9.509 11.17 17.728-4.26 8.9-13.25 14.564-23.116 14.564z" fill="#e22334"/></g></g></svg>