<svg id="Capa_1" enable-background="new 0 0 512 512" height="512" viewBox="0 0 512 512" width="512" xmlns="http://www.w3.org/2000/svg"><g><g><path d="m244.076 427.692c0 23.189-9.903 43.399-24.573 54.087h80.607c-14.67-10.688-24.573-30.897-24.573-54.087 0-25.318 11.803-47.086 28.73-56.783h-88.919c16.925 9.697 28.728 31.465 28.728 56.783z" fill="#3ad1e0"/><path d="m304.267 370.913c-11.681 6.688-20.927 19.13-25.524 34.516-6.262.477-12.584.71-18.937.71s-12.676-.233-18.937-.71c-4.597-15.385-13.843-27.828-25.524-34.516z" fill="#20bfd5"/></g><g><path d="m330.833 512h-142.054c-10.36 0-18.758-8.398-18.758-18.758 0-10.36 8.398-18.758 18.758-18.758h142.054c10.36 0 18.758 8.398 18.758 18.758 0 10.36-8.398 18.758-18.758 18.758z" fill="#a8e7ef"/><path d="m349.591 493.245c0 5.176-2.101 9.864-5.49 13.254-3.4 3.4-8.088 5.501-13.264 5.501h-29.969c5.176 0 9.875-2.101 13.264-5.501 3.4-3.39 5.501-8.078 5.501-13.254 0-10.362-8.403-18.765-18.765-18.765h29.969c10.351 0 18.754 8.403 18.754 18.765z" fill="#70d9e6"/><g><path d="m160.94 268.926c-3.237 0-6.238-2.081-7.26-5.332l-61.289-195.133c-1.26-4.01.97-8.283 4.981-9.543 4.015-1.259 8.283.971 9.543 4.981l61.29 195.132c1.26 4.01-.97 8.283-4.981 9.543-.76.238-1.529.352-2.284.352z" fill="#fcb44d"/></g><g><path d="m181.486 273.252c-2.068 0-4.129-.838-5.631-2.489l-119.651-131.479c-2.83-3.109-2.603-7.923.506-10.752 3.109-2.83 7.923-2.603 10.752.506l119.651 131.479c2.83 3.109 2.603 7.923-.506 10.752-1.459 1.328-3.293 1.983-5.121 1.983z" fill="#fb9927"/></g><path d="m453.241 117.472-82.803 54.949-39.512-39.512 54.949-82.803c3.546-5.344 11.098-6.099 15.632-1.565l53.298 53.298c4.535 4.535 3.779 12.087-1.564 15.633z" fill="#fcb44d"/><path d="m453.239 117.471-82.803 54.945-20.379-20.379 82.803-54.945c5.348-3.542 6.099-11.092 1.563-15.629l20.378 20.378c4.538 4.537 3.787 12.088-1.562 15.63z" fill="#fca62f"/><path d="m401.776 112.285-13.996 13.995 20.815 20.815-12.95 8.586-18.633-18.633-17.994 17.994c-1.106 1.106-2.456 1.796-3.877 2.08l-8.971-8.971c.284-1.411.974-2.76 2.081-3.867l18.004-18.004-18.592-18.592 8.586-12.94 20.764 20.774 13.995-13.995-23.596-23.596 8.586-12.95 25.778 25.778 20.977-20.977 10.757 10.768-20.977 20.977 25.818 25.818-12.929 8.586z" fill="#fb9927"/><g><circle cx="259.806" cy="242.927" fill="#aee097" r="136.217"/><g><path d="m274.878 285.916c-4.204 0-7.612-3.408-7.612-7.612v-35.815c0-4.204 3.408-7.612 7.612-7.612s7.611 3.408 7.611 7.612v35.815c.001 4.204-3.407 7.612-7.611 7.612z" fill="#99d980"/></g><g><path d="m141.756 285.916c-4.204 0-7.611-3.408-7.611-7.612v-51.908c0-4.204 3.408-7.611 7.611-7.611 4.204 0 7.611 3.408 7.611 7.611v51.908c.001 4.204-3.407 7.612-7.611 7.612z" fill="#99d980"/></g><g><ellipse cx="253.938" cy="134.162" fill="#99d980" rx="47.885" ry="12.763"/></g><path d="m396.021 242.929c0 75.232-60.983 136.215-136.215 136.215-5.612 0-11.143-.335-16.573-1.005 67.418-8.17 119.643-65.591 119.643-135.211s-52.225-127.041-119.643-135.211c5.43-.67 10.961-1.005 16.573-1.005 75.232.001 136.215 60.984 136.215 136.217z" fill="#99d980"/></g><circle cx="253.938" cy="88.662" fill="#fb4a59" r="39.155"/><path d="m293.093 88.659c0 21.627-17.527 39.154-39.154 39.154-4.526 0-8.87-.771-12.919-2.182 15.284-5.338 26.244-19.871 26.244-36.972 0-17.09-10.961-31.633-26.244-36.972 4.049-1.411 8.393-2.182 12.919-2.182 21.628 0 39.154 17.537 39.154 39.154z" fill="#f82f40"/><g><path d="m263.365 87.486c-2.628 0-5.185-1.363-6.596-3.802-2.105-3.639-.861-8.295 2.778-10.4 23.384-13.527 37.91-38.692 37.91-65.673 0-4.204 3.408-7.611 7.612-7.611s7.611 3.408 7.611 7.611c0 32.397-17.439 62.611-45.51 78.85-1.201.695-2.512 1.025-3.805 1.025z" fill="#e22334"/></g><path d="m267.642 79.936c-1.488-1.2-2.591-2.842-3.088-4.688-.322-1.195-.531-2.674-.528-4.494.007-3.68-2.441-7.019-6.052-7.73-3.565-.702-6.808 1.07-8.307 3.926-.538 1.035-.853 2.202-.863 3.451-.01 1.045.02 2.07.091 3.034.467 6.282 2.588 11.032 5.156 14.391 1.694 2.08 3.706 3.75 5.328 4.922.03.021 2.821 1.877 4.425 2.689 1.106.568 2.294.832 3.451.832 2.771 0 5.45-1.512 6.789-4.151 1.908-3.745.426-8.332-3.319-10.24-1.237-.628-2.271-1.302-3.083-1.942z" fill="#e22334"/><g><path d="m433.165 267.306c-7.195 66.352-82.062 118.536-173.359 118.536s-166.164-52.184-173.36-118.536c-.609-5.612 3.887-10.484 9.53-10.484h327.66c5.642 0 10.138 4.871 9.529 10.484z" fill="#a8e7ef"/><g><path d="m267.265 256.822v102.674c0 5.43-2.202 10.341-5.754 13.894s-8.464 5.754-13.894 5.754c-10.849 0-19.648-8.799-19.648-19.648v-42.543c0-5.43-2.202-10.341-5.754-13.894-3.552-3.552-8.464-5.754-13.894-5.754s-10.341 2.202-13.904 5.754c-3.552 3.552-5.754 8.464-5.754 13.894 0 10.484-8.231 19.12-18.704 19.607h-.041c-11.306.538-20.551-8.291-20.551-19.607v-60.131z" fill="#70d9e6"/></g><path d="m433.165 267.306c-7.195 66.352-82.062 118.536-173.359 118.536-6.282 0-12.483-.244-18.592-.731 82.681-6.526 148.059-56.021 154.757-117.806.599-5.612-3.887-10.484-9.53-10.484h37.195c5.642.001 10.138 4.872 9.529 10.485z" fill="#70d9e6"/></g><path d="" style="fill:none;stroke:#000;stroke-width:15;stroke-linecap:round;stroke-linejoin:round;stroke-miterlimit:10"/><path d="m149.368 226.396v65.101c0 11.315 9.247 20.138 20.55 19.608l.043-.002c10.47-.492 18.706-9.124 18.706-19.606 0-10.852 8.798-19.65 19.65-19.65 10.852 0 19.65 8.798 19.65 19.65v42.539c0 10.852 8.798 19.65 19.65 19.65 10.852 0 19.65-8.798 19.65-19.65v-88.503z" fill="#aee097"/></g><g><path d="m205.719 186.474c-3.267 0-6.287-2.12-7.282-5.41l-2.533-8.373c-1.217-4.024 1.058-8.272 5.082-9.489 4.022-1.214 8.273 1.058 9.489 5.082l2.533 8.373c1.217 4.024-1.058 8.272-5.082 9.489-.735.222-1.477.328-2.207.328z" fill="#fb4a59"/></g><g><path d="m196.191 242.383c-3.268 0-6.288-2.121-7.282-5.41l-2.532-8.373c-1.217-4.024 1.058-8.272 5.082-9.489 4.024-1.22 8.272 1.058 9.489 5.082l2.532 8.373c1.217 4.024-1.058 8.272-5.082 9.489-.735.222-1.477.328-2.207.328z" fill="#fca62f"/></g><g><path d="m331.86 210.442c-3.4 0-6.497-2.294-7.372-5.74-1.034-4.074 1.43-8.216 5.504-9.25l8.479-2.154c4.076-1.033 8.216 1.43 9.251 5.504 1.034 4.074-1.43 8.216-5.504 9.251l-8.479 2.153c-.628.16-1.259.236-1.879.236z" fill="#fb4a59"/></g><g><path d="m308.919 176.389c-1.085 0-2.186-.233-3.232-.725l-7.917-3.721c-3.805-1.788-5.44-6.322-3.651-10.126 1.787-3.805 6.323-5.44 10.126-3.651l7.917 3.721c3.805 1.788 5.44 6.322 3.651 10.126-1.297 2.758-4.036 4.376-6.894 4.376z" fill="#fca62f"/></g><g><path d="m262.401 214.163c-1.085 0-2.186-.233-3.232-.725l-7.918-3.721c-3.805-1.788-5.44-6.322-3.651-10.126 1.788-3.805 6.322-5.439 10.126-3.651l7.918 3.721c3.805 1.788 5.44 6.322 3.651 10.126-1.297 2.758-4.037 4.376-6.894 4.376z" fill="#fb4a59"/></g></g></svg>