<svg id="Capa_1" enable-background="new 0 0 512 512" height="512" viewBox="0 0 512 512" width="512" xmlns="http://www.w3.org/2000/svg"><g><g><g><circle cx="232.507" cy="153.071" fill="#fee7c9" r="123.033"/><path d="m355.538 153.072c0 67.945-55.087 123.032-123.032 123.032-8.21 0-16.238-.802-24.002-2.344 56.457-11.164 99.031-60.953 99.031-120.688s-42.574-109.524-99.031-120.688c7.764-1.543 15.791-2.344 24.002-2.344 67.945 0 123.032 55.087 123.032 123.032z" fill="#ffd597"/><circle cx="163.444" cy="235.2" fill="#ba7c65" r="123.033"/><path d="m286.476 235.195c0 67.955-55.087 123.042-123.032 123.042-6.779 0-13.437-.548-19.912-1.614 58.477-9.509 103.121-60.253 103.121-121.429 0-61.166-44.644-111.909-103.121-121.419 6.475-1.066 13.132-1.614 19.912-1.614 67.945.002 123.032 55.089 123.032 123.034z" fill="#a96a53"/><g><g fill="#fcc16d"><path d="m121.692 146.983-71.06-30.243-.152-.386c-2.101-5.196.416-11.113 5.622-13.203l31.826-12.828c5.196-2.091 11.113.416 13.203 5.622z"/><path d="m166.955 259.308-71.06-30.243-31.238-77.515 71.061 30.243z"/><path d="m174.597 305.434-31.826 12.818c-5.196 2.101-11.113-.416-13.203-5.622l-21.475-53.291 71.061 30.243 1.066 2.639c2.101 5.206-.416 11.112-5.623 13.213z"/></g><path d="m121.692 146.983-32.719-13.924-12.067-29.634c-1.218-3.034-3.735-5.155-6.658-5.978l17.679-7.124c5.196-2.091 11.113.416 13.203 5.622z" fill="#fca62f"/><path d="m166.955 259.308-32.13-13.68-31.644-77.688 32.537 13.853z" fill="#fca62f"/><path d="m174.597 305.434-13.244 5.338-14.167-34.8 31.968 13.609 1.066 2.639c2.101 5.207-.416 11.113-5.623 13.214z" fill="#fca62f"/><path d="m117.656 136.94 21.915 54.39-71.075-30.249-18.02-44.722c-1.073-2.664-.934-5.521.159-7.942z" fill="#fff2e3"/><path d="m139.574 191.333-32.496-13.833-22.205-54.508 32.78 13.944z" fill="#fee7c9"/><path d="m162.2 247.49 18.024 44.732c1.073 2.664.93 5.512-.159 7.942l-67.021-28.523-21.919-54.399z" fill="#fff2e3"/><path d="m180.067 300.167-27.868-11.864-22.205-54.519 32.202 13.701 18.024 44.735c1.076 2.67.933 5.511-.153 7.947z" fill="#fee7c9"/></g><circle cx="353.211" cy="120.869" fill="#fb4a59" r="54.714"/><path d="m407.925 120.871c0 30.213-24.499 54.711-54.711 54.711-6.028 0-11.833-.974-17.263-2.781 21.759-7.226 37.459-27.746 37.459-51.931 0-24.194-15.7-44.705-37.459-51.931 5.43-1.806 11.235-2.781 17.263-2.781 30.212.001 54.711 24.49 54.711 54.713z" fill="#f82f40"/><g><path d="m366.38 116.201c-2.628 0-5.184-1.363-6.596-3.802-2.105-3.639-.861-8.295 2.777-10.4 33.609-19.441 54.486-55.609 54.486-94.388 0-4.204 3.407-7.611 7.612-7.611s7.612 3.408 7.612 7.611c0 44.195-23.79 85.412-62.085 107.565-1.201.695-2.512 1.025-3.806 1.025z" fill="#e22334"/></g><g><path d="m379.582 124.149c-14.886 0-26.997-12.111-26.997-26.996 0-4.204 3.407-7.611 7.612-7.611s7.611 3.408 7.611 7.611c0 6.492 5.281 11.773 11.774 11.773 4.204 0 7.611 3.408 7.611 7.611s-3.407 7.612-7.611 7.612z" fill="#e22334"/></g><circle cx="348.556" cy="281.118" fill="#fcc16d" r="123.033"/><path d="m471.588 281.118c0 67.945-55.087 123.032-123.032 123.032-6.779 0-13.437-.548-19.912-1.614 58.476-9.509 103.12-60.253 103.12-121.419s-44.644-111.909-103.12-121.419c6.475-1.066 13.132-1.614 19.912-1.614 67.945.002 123.032 55.089 123.032 123.034z" fill="#fcb44d"/><path d="m41.285 328.705 155.315 155.325h-136.946z" fill="#fb4a59"/><path d="m401.643 484.03h-150.433l-168.255-168.254h150.434z" fill="#fb4a59"/><path d="m472.248 315.776-19.486 164.763-164.774-164.763z" fill="#fb4a59"/><g fill="#f82f40"><path d="m472.248 315.776-19.486 164.763-38.991-38.991 14.868-125.772z"/><path d="m41.285 328.705 21.068 21.069h-18.582z"/><path d="m267.387 349.774h-150.434l-33.998-33.998h150.434z"/><path d="m472.248 315.776-4.019 33.998h-146.243l-33.998-33.998z"/></g><path d="m99.599 315.776 33.998 33.998h-88.568l-1.42-1.421-3.857-32.577z" fill="#fb4a59"/><path d="m338.752 349.774h-88.577l-33.999-33.998h88.578z" fill="#fb4a59"/><g><path d="m267.853 484.03h-88.577l-135.667-135.677-3.857-32.577h59.847z" fill="#70d9e6"/><path d="m133.597 349.774h-88.568l-1.42-1.421-3.857-32.577h59.847z" fill="#22c7db"/><path d="m454.528 465.56-2.182 18.47h-67.915l-168.255-168.254h88.578z" fill="#70d9e6"/><g fill="#22c7db"><path d="m454.528 465.56-2.182 18.47h-43.599l6.79-57.461z"/><path d="m338.752 349.774h-88.577l-33.999-33.998h88.578z"/></g></g><path d="m453.549 473.885-2.915 24.618c-.918 7.697-7.442 13.497-15.189 13.497h-358.89c-7.747 0-14.272-5.8-15.189-13.497l-2.915-24.618z" fill="#fc9aa1"/><g><path d="m295.823 512h-88.577l-38.119-38.118h88.578z" fill="#d4f2f6"/><path d="m453.544 473.882-2.913 24.621c-.913 7.693-7.439 13.498-15.182 13.498h-23.048l-7.439-7.439-30.679-30.679h79.261z" fill="#d4f2f6"/><path d="m453.544 473.882-2.913 24.621c-.913 7.693-7.439 13.498-15.182 13.498h-23.048l-7.439-7.439c1.086-1.806 1.807-3.856 2.07-6.059l2.913-24.621z" fill="#a8e7ef"/></g><path d="m471.175 329.472h-430.351c-16 0-28.971-12.971-28.971-28.971v-.259c0-16 12.971-28.971 28.971-28.971h430.351c16 0 28.971 12.971 28.971 28.971v.259c0 16-12.971 28.971-28.971 28.971z" fill="#fb6672"/><path d="m500.146 300.238v.264c0 16.004-12.97 28.974-28.974 28.974h-35.957c16.004 0 28.974-12.97 28.974-28.974v-.264c0-15.994-12.97-28.964-28.974-28.964h35.957c16.004 0 28.974 12.97 28.974 28.964z" fill="#fb4a59"/></g><g><path d="m334.506 235.086c-3.399 0-6.497-2.294-7.372-5.74-1.035-4.074 1.43-8.216 5.504-9.251l8.48-2.153c4.072-1.033 8.216 1.43 9.251 5.504s-1.43 8.216-5.504 9.251l-8.48 2.153c-.628.16-1.258.236-1.879.236z" fill="#ffd597"/></g><g><path d="m391.844 243.89c-3.399 0-6.497-2.294-7.372-5.74-1.035-4.075 1.43-8.216 5.504-9.251l8.479-2.153c4.072-1.034 8.216 1.429 9.251 5.503 1.035 4.075-1.43 8.216-5.504 9.251l-8.479 2.153c-.628.161-1.258.237-1.879.237z" fill="#fb4a59"/></g><g><path d="m375.152 212.574c-3.54 0-6.711-2.483-7.449-6.086l-1.755-8.57c-.843-4.118 1.812-8.141 5.93-8.984 4.118-.846 8.14 1.811 8.984 5.93l1.755 8.57c.843 4.118-1.812 8.141-5.93 8.984-.515.105-1.028.156-1.535.156z" fill="#f82f40"/></g><g><path d="m289.716 245.97c-2.003 0-4.003-.786-5.498-2.346l-6.052-6.318c-2.908-3.036-2.805-7.854.231-10.762 3.038-2.909 7.855-2.804 10.762.231l6.052 6.318c2.908 3.036 2.805 7.854-.231 10.762-1.475 1.414-3.371 2.115-5.264 2.115z" fill="#fee7c9"/></g><g id="XMLID_53_"><path d="m207.316 177.875c-.012 0-.025 0-.037 0h-.105c-4.204-.02-7.596-3.444-7.576-7.647.02-4.192 3.424-7.576 7.611-7.576h.037.105c4.204.02 7.596 3.444 7.576 7.647-.02 4.192-3.425 7.576-7.611 7.576z" fill="#865240"/></g><g id="XMLID_60_"><path d="m180.019 206.492h-.105c-4.204 0-7.611-3.408-7.611-7.611 0-4.204 3.408-7.611 7.611-7.611h.105c4.204 0 7.611 3.408 7.611 7.611s-3.408 7.611-7.611 7.611z" fill="#a96a53"/></g><g id="XMLID_62_"><path d="m207.262 211.12h-.105c-4.204 0-7.611-3.408-7.611-7.611 0-4.204 3.408-7.611 7.611-7.611h.105c4.204 0 7.611 3.408 7.611 7.611.001 4.203-3.407 7.611-7.611 7.611z" fill="#925b46"/></g></g><g><g id="XMLID_64_"><path d="m201.356 81.778c-.012 0-.025 0-.037 0h-.105c-4.204-.02-7.596-3.444-7.576-7.647.02-4.192 3.424-7.576 7.611-7.576h.037.105c4.204.02 7.596 3.444 7.576 7.647-.021 4.192-3.425 7.576-7.611 7.576z" fill="#ffd597"/></g><g id="XMLID_63_"><path d="m246.866 104.673h-.105c-4.204 0-7.611-3.408-7.611-7.611s3.408-7.611 7.611-7.611h.105c4.204 0 7.611 3.408 7.611 7.611s-3.407 7.611-7.611 7.611z" fill="#fcb44d"/></g></g></g></svg>