<svg id="Capa_1" enable-background="new 0 0 512 512" height="512" viewBox="0 0 512 512" width="512" xmlns="http://www.w3.org/2000/svg"><g><g><path d="m461.573 100.226-16.339 177.449c-44.473 23.395-106.83 34.995-173.421-18.461-90.378-72.556-172.514-72.978-212.918-66.993l-8.468-91.995z" fill="#fcc16d"/><path d="m461.573 100.226-16.339 177.449c-15.432 8.128-33.028 14.824-52.21 17.863l17.977-195.312z" fill="#fcb44d"/><path d="m447.026 258.184-12.146 131.915c-8.262-1.576-16.782-2.4-25.497-2.4-59.019 0-109.22 37.777-127.732 90.47-2.915-2.926-4.584-6.923-4.347-11.219.155-2.668.227-5.347.227-8.046 0-81.281-65.89-147.172-147.172-147.172-21.098 0-41.166 4.44-59.308 12.434l-13.835-150.23c39.775-6.243 122.942-6.84 214.597 66.735 67.487 54.177 130.627 41.537 175.213 17.513z" fill="#fff2e3"/><path d="m447.026 258.184-12.146 131.915c-8.262-1.576-16.782-2.4-25.497-2.4-8.561 0-16.936.793-25.054 2.318l10.425-113.299c19.245-3.298 36.871-10.241 52.272-18.534z" fill="#fee7c9"/><path d="m457.13 148.436 4.438-48.21h-411.136l4.437 48.21z" fill="#fcb44d"/><path d="m461.568 66.825h-411.136l10.634-46.779c2.665-11.725 13.089-20.046 25.113-20.046h339.641c12.024 0 22.449 8.321 25.114 20.046z" fill="#70d9e6"/><path d="m461.573 66.828h-38.776l-10.631-46.78c-2.669-11.724-13.095-20.048-25.117-20.048h38.776c12.022 0 22.448 8.324 25.105 20.047z" fill="#22c7db"/><path d="m491.19 67.755v32.914c0 14.227-11.528 25.755-25.755 25.755h-141.288v-15.556c0-5.697-4.605-10.302-10.302-10.302h-116.72c-5.697 0-10.302 4.605-10.302 10.302v15.556h-140.259c-14.227 0-25.755-11.528-25.755-25.755v-32.914c0-14.217 11.528-25.755 25.755-25.755h418.872c14.227.001 25.754 11.538 25.754 25.755z" fill="#fb8189"/><path d="m335.618 126.427h-159.236v-25.358c0-5.69 4.612-10.302 10.302-10.302h138.632c5.69 0 10.302 4.612 10.302 10.302z" fill="#fb4a59"/><path d="m491.19 67.755v32.914c0 14.227-11.528 25.755-25.755 25.755h-42.639c14.227 0 25.755-11.528 25.755-25.755v-32.914c0-14.217-11.528-25.755-25.755-25.755h42.639c14.227.001 25.755 11.538 25.755 25.755z" fill="#fb6672"/><path d="m190.42 401.676c-10.825-10.825-10.825-28.375 0-39.2l122.838-122.838c10.825-10.825 28.375-10.825 39.2 0 10.825 10.825 10.825 28.375 0 39.2l-122.838 122.838c-10.825 10.825-28.375 10.825-39.2 0z" fill="#fee7c9"/><path d="m360.574 259.235c0 7.098-2.71 14.196-8.118 19.604l-122.839 122.839c-10.827 10.827-28.371 10.827-39.198 0-3.781-3.77-6.233-8.365-7.366-13.207 9.045 2.143 18.945-.309 25.991-7.366l122.839-122.839c5.419-5.419 8.118-12.506 8.118-19.594 0-2.153-.247-4.296-.752-6.397 4.842 1.133 9.436 3.585 13.207 7.366 5.408 5.408 8.118 12.506 8.118 19.594z" fill="#ffd597"/><path d="m435.942 378.602-10.126 110.003c-1.217 13.258-12.332 23.395-25.642 23.395h-141.939c-.051-1.607-.082-3.224-.082-4.842 0-74.75 60.595-135.345 135.345-135.345 14.825 0 29.093 2.38 42.444 6.789z" fill="#fb8189"/><path d="m435.942 378.602-10.126 110.003c-1.217 13.258-12.332 23.395-25.642 23.395h-50.572c13.31 0 24.426-10.137 25.652-23.395l10.734-116.586c2.483-.134 4.986-.206 7.51-.206 14.824 0 29.093 2.38 42.444 6.789z" fill="#fb6672"/><path d="m319.397 490.346c0 8.829-4.183 16.668-10.673 21.654h-196.898c-13.31 0-24.426-10.137-25.641-23.395l-15.824-171.876c22.242-13.516 48.367-21.294 76.295-21.294 81.281 0 147.172 65.89 147.172 147.172 0 2.697-.075 5.378-.221 8.041-.35 6.358 3.476 12.08 9.319 14.612 3.231 1.4 6.139 3.406 8.58 5.873 4.883 4.934 7.891 11.723 7.891 19.213z" fill="#70d9e6"/><path d="m319.397 490.346c0 8.829-4.183 16.668-10.673 21.654h-45.4c6.49-4.986 10.673-12.826 10.673-21.654 0-7.489-3.008-14.278-7.891-19.213-2.442-2.472-5.347-4.471-8.581-5.872-5.841-2.534-9.663-8.252-9.313-14.608.144-2.668.216-5.347.216-8.046 0-73.565-53.971-134.511-124.466-145.431 7.397-1.143 14.979-1.741 22.695-1.741 81.281 0 147.172 65.89 147.172 147.172 0 2.699-.072 5.378-.216 8.046-.35 6.356 3.472 12.074 9.313 14.608 3.235 1.401 6.14 3.4 8.581 5.872 4.882 4.934 7.89 11.723 7.89 19.213z" fill="#22c7db"/><g><path d="m149.483 383.869c-8.279 0-16.062-3.224-21.915-9.078-5.396-5.396-8.604-12.546-9.029-20.132-.239-4.261 3.021-7.908 7.281-8.147 4.259-.241 7.907 3.02 8.148 7.281.212 3.788 1.821 7.365 4.527 10.071 2.936 2.936 6.838 4.552 10.989 4.552s8.053-1.617 10.988-4.552c2.707-2.707 4.316-6.284 4.528-10.072.24-4.26 3.886-7.516 8.148-7.281 4.26.239 7.52 3.887 7.281 8.147-.426 7.587-3.633 14.736-9.03 20.133-5.855 5.854-13.638 9.078-21.916 9.078z" fill="#22c7db"/></g><g><path d="m364.169 450.395c-6.932 0-13.86-2.637-19.137-7.913-4.712-4.711-7.513-10.956-7.886-17.582-.239-4.261 3.019-7.909 7.28-8.149 4.272-.233 7.909 3.019 8.149 7.28.159 2.829 1.361 5.501 3.383 7.524 4.527 4.527 11.893 4.528 16.423 0 2.022-2.022 3.224-4.694 3.383-7.524.239-4.261 3.909-7.509 8.149-7.28 4.261.24 7.519 3.888 7.28 8.149-.373 6.626-3.174 12.871-7.886 17.582-5.277 5.275-12.208 7.913-19.138 7.913z" fill="#fb6672"/></g></g><g><path d="m163.321 433.286c-3.451 0-6.595-2.328-7.483-5.826-1.05-4.136 1.452-8.34 5.588-9.39l8.607-2.186c4.133-1.053 8.34 1.45 9.39 5.587 1.05 4.136-1.452 8.34-5.588 9.39l-8.607 2.186c-.637.161-1.277.239-1.907.239z" fill="#fb6672"/></g><g><path d="m208.942 397.104c-1.65 0-3.312-.526-4.718-1.612l-7.028-5.429c-3.376-2.609-4-7.461-1.391-10.838 2.609-3.378 7.462-4 10.838-1.392l7.028 5.429c3.376 2.609 4 7.461 1.391 10.838-1.523 1.971-3.809 3.004-6.12 3.004z" fill="#ffd597"/></g><g><path d="m228.361 480.717c-3.594 0-6.812-2.52-7.561-6.178l-1.782-8.7c-.856-4.181 1.839-8.264 6.019-9.12s8.263 1.838 9.12 6.019l1.782 8.7c.856 4.181-1.839 8.264-6.019 9.12-.524.108-1.045.159-1.559.159z" fill="#fb6672"/></g><g><path d="m127.285 485.992c-3.594 0-6.812-2.52-7.561-6.178l-1.782-8.7c-.856-4.181 1.839-8.264 6.019-9.12 4.181-.858 8.263 1.839 9.12 6.019l1.782 8.7c.856 4.181-1.839 8.264-6.019 9.12-.524.108-1.045.159-1.559.159z" fill="#fcb44d"/></g></g></svg>