<svg id="Capa_1" enable-background="new 0 0 512 512" height="512" viewBox="0 0 512 512" width="512" xmlns="http://www.w3.org/2000/svg"><g><g><g><path d="m8.951 499.799c-11.935-11.935-11.935-31.285 0-43.22l198.883-198.883c11.935-11.935 31.285-11.935 43.22 0 11.935 11.935 11.935 31.285 0 43.22l-198.883 198.883c-11.935 11.935-31.285 11.935-43.22 0z" fill="#ffd597"/><path d="m260.004 279.301c0 7.824-2.981 15.648-8.955 21.611l-198.883 198.883c-11.926 11.937-31.285 11.937-43.211 0-3.796-3.785-6.386-8.331-7.76-13.142 10.34 2.971 21.938.391 30.079-7.75l198.884-198.883c5.963-5.963 8.945-13.787 8.945-21.611 0-2.855-.402-5.709-1.195-8.469 4.811 1.374 9.357 3.965 13.142 7.76 5.973 5.964 8.954 13.788 8.954 21.601z" fill="#fcc16d"/></g></g><path d="m105.895 299.765 137.493 75.012-19.752 19.752c-12.388 12.388-32.466 12.388-44.854 0l-64.566-64.556c-8.178-8.188-10.955-19.742-8.321-30.208z" fill="#fff2e3"/><path d="m180.225 219.098 141.592 77.249-56.368 56.369-141.592-77.25z" fill="#fff2e3"/><path d="m258.634 140.689 141.592 77.25-56.348 56.347-141.592-77.249z" fill="#fff2e3"/><path d="m337.358 61.965 141.592 77.249-56.673 56.674-141.592-77.25z" fill="#fff2e3"/><path d="m500.381 116.808-140.962-76.904 27.371-27.37c12.388-12.378 32.476-12.378 44.854 0l64.566 64.566c10.792 10.791 12.185 27.411 4.171 39.708z" fill="#fff2e3"/><g fill="#fee7c9"><path d="m478.96 139.214-24.96 24.96-133.505-72.835c-2.644-1.444-5.045-3.234-7.16-5.34l24.034-24.034z"/><path d="m400.226 217.939-24.838 24.838-133.495-72.835c-2.655-1.434-5.055-3.224-7.171-5.33l23.912-23.912z"/><path d="m321.817 296.347-25.041 25.041-133.495-72.835c-2.645-1.444-5.045-3.234-7.16-5.34l24.105-24.105z"/><path d="m243.398 374.777-19.762 19.752c-1.963 1.963-4.119 3.621-6.418 4.953l-73.679-40.206-29.313-29.313c-8.198-8.188-10.964-19.742-8.32-30.198z"/><path d="m208.257 355.604 35.141 19.173-19.762 19.752c-12.388 12.388-32.466 12.388-44.854 0l-27.147-27.157c12.388 12.388 32.466 12.388 44.854 0z"/><path d="m321.817 296.347-56.368 56.369-35.131-19.173 56.368-56.368z"/><path d="m400.226 217.949-56.348 56.337-35.131-19.172 56.338-56.338z"/><path d="m478.96 139.214-56.673 56.674-35.141-19.173 56.673-56.673z"/><path d="m500.391 116.808-34.51-18.827 3.173-3.173c12.388-12.388 12.388-32.466 0-44.854l27.156 27.146c10.792 10.791 12.185 27.411 4.181 39.708z"/></g><g><g><path d="m472.413 150.131-141.792-77.36c-6.196-3.38-7.403-11.767-2.412-16.757l23.95-23.95c3.317-3.317 8.422-4.052 12.54-1.805l141.792 77.36c6.196 3.38 7.403 11.767 2.412 16.757l-23.95 23.95c-3.317 3.316-8.423 4.051-12.54 1.805z" fill="#83d167"/><path d="m508.896 124.375-23.946 23.946c-3.319 3.319-8.418 4.052-12.537 1.817l-37.971-20.716 34.614-34.614c1.637-1.637 3.058-3.417 4.261-5.293l33.171 18.099c6.198 3.387 7.402 11.767 2.408 16.761z" fill="#6bc94d"/></g><g><path d="m393.804 228.739-141.792-77.36c-6.196-3.38-7.403-11.767-2.412-16.757l23.95-23.95c3.317-3.317 8.422-4.052 12.54-1.805l141.792 77.36c6.196 3.38 7.403 11.767 2.412 16.757l-23.95 23.95c-3.317 3.317-8.422 4.052-12.54 1.805z" fill="#fcb44d"/><path d="m430.293 202.978-23.953 23.953c-3.319 3.319-8.418 4.052-12.53 1.809l-37.971-20.716 39.533-39.533 32.506 17.733c6.198 3.387 7.401 11.768 2.415 16.754z" fill="#fca62f"/></g><g><path d="m315.196 307.348-141.792-77.36c-6.196-3.38-7.403-11.767-2.412-16.757l23.95-23.95c3.317-3.317 8.422-4.052 12.54-1.805l141.792 77.36c6.196 3.38 7.403 11.767 2.412 16.757l-23.95 23.95c-3.317 3.316-8.423 4.051-12.54 1.805z" fill="#83d167"/><path d="m351.682 281.589-23.953 23.953c-3.312 3.312-8.418 4.052-12.53 1.809l-37.971-20.716 39.533-39.533 32.506 17.733c6.205 3.379 7.402 11.767 2.415 16.754z" fill="#6bc94d"/></g><g><path d="m236.587 385.956-141.792-77.36c-6.196-3.38-7.403-11.767-2.412-16.757l23.95-23.95c3.317-3.317 8.422-4.052 12.54-1.805l141.792 77.36c6.196 3.38 7.403 11.767 2.412 16.757l-23.95 23.95c-3.317 3.317-8.422 4.052-12.54 1.805z" fill="#fcb44d"/><path d="m273.072 360.2-23.946 23.946c-3.319 3.319-8.426 4.06-12.537 1.817l-37.971-20.716 39.541-39.541 32.506 17.733c6.197 3.386 7.4 11.767 2.407 16.761z" fill="#fca62f"/></g></g></g></svg>