<svg id="Capa_1" enable-background="new 0 0 512 512" height="512" viewBox="0 0 512 512" width="512" xmlns="http://www.w3.org/2000/svg"><g><g><path d="m154.503 315.378-145.787 145.787c-11.626 11.626-11.619 30.486.007 42.112s30.486 11.633 42.112.007l145.788-145.788z" fill="#ffd597"/><path d="m196.62 357.494-145.781 145.791c-11.631 11.621-30.493 11.621-42.114-.01-3.369-3.358-5.759-7.325-7.17-11.538 10.384 3.492 22.303 1.102 30.576-7.16l145.781-145.791z" fill="#fcc16d"/><path d="m154.503 315.378-37.919 37.919c5.704 8.122 12.129 15.771 19.231 22.873 7.11 7.11 14.766 13.542 22.888 19.246l37.919-37.919z" fill="#fcc16d"/><circle cx="254.409" cy="85.617" fill="#fcb44d" r="85.617"/><path d="m314.948 146.162c-33.436 33.436-87.64 33.428-121.075-.007-5.536-5.536-10.162-11.648-13.855-18.138 32.678 18.663 75.03 14.045 102.93-13.855s32.518-70.252 13.862-102.937c6.49 3.693 12.602 8.319 18.138 13.855 33.436 33.435 33.436 87.646 0 121.082z" fill="#fca62f"/><circle cx="426.383" cy="257.591" fill="#fcb44d" r="85.617"/><path d="m486.921 318.134c-33.436 33.436-87.64 33.428-121.075-.007-5.536-5.536-10.162-11.648-13.855-18.138 32.685 18.67 75.037 14.052 102.937-13.848s32.518-70.252 13.855-102.944c6.49 3.693 12.602 8.319 18.138 13.855 33.435 33.435 33.435 87.647 0 121.082z" fill="#fca62f"/><path d="m364.962 361.604c-19.532 19.543-43.072 32.636-67.971 39.281-3.915-46.286-23.591-91.47-59.009-126.877-35.407-35.407-80.591-55.084-126.867-58.998 6.645-24.9 19.738-48.439 39.281-67.971 59.246-59.256 155.321-59.256 214.566 0 59.256 59.245 59.256 155.319 0 214.565z" fill="#925b46"/><path d="m364.962 361.604c-19.532 19.543-43.072 32.636-67.971 39.281-1.164-13.763-3.719-27.434-7.675-40.775 15.813-7.294 30.627-17.462 43.659-30.493 53.817-53.817 58.741-138.003 14.804-197.393 5.996 4.44 11.754 9.375 17.183 14.814 59.256 59.246 59.256 155.32 0 214.566z" fill="#865240"/><path d="m307.635 397.62c-53.23 18.515-114.724 6.511-157.249-36.014s-54.521-104.011-36.006-157.241c48.676 2.473 96.608 22.295 133.78 59.467s57.002 85.112 59.475 133.788z" fill="#fff2e3"/><path d="m307.635 397.623c-53.228 18.51-114.723 6.505-157.25-36.022-5.434-5.434-10.373-11.174-14.795-17.17 48.522 35.891 113.587 39.169 165.125 9.805 3.875 14.22 6.184 28.767 6.92 43.387z" fill="#fee7c9"/></g><g><g><g id="XMLID_84_"><path d="m242.376 213.354c-1.993 0-3.985-.766-5.497-2.296l-.083-.083c-2.999-3.036-2.969-7.928.066-10.927 3.035-3 7.928-2.97 10.927.066l.082.083c2.999 3.036 2.969 7.928-.066 10.927-1.505 1.487-3.468 2.23-5.429 2.23z" fill="#fff2e3"/></g><g id="XMLID_83_"><path d="m306.456 277.434c-1.985 0-3.97-.76-5.48-2.28l-.083-.083c-3.008-3.026-2.993-7.919.033-10.927s7.919-2.993 10.927.033l.083.083c3.008 3.026 2.993 7.919-.033 10.927-1.508 1.499-3.478 2.247-5.447 2.247z" fill="#fff2e3"/></g></g></g></g></svg>