<svg id="Capa_1" enable-background="new 0 0 512 512" height="512" viewBox="0 0 512 512" width="512" xmlns="http://www.w3.org/2000/svg"><g><g><path d="m98.641 446.073 74.303-74.303-32.764-32.764-74.303 74.303c-17.411-5.535-37.226-1.411-51.036 12.398-19.717 19.717-19.717 51.685 0 71.402s51.685 19.717 71.402 0c13.809-13.81 17.932-33.626 12.398-51.036z" fill="#d4f2f6"/><g fill="#a8e7ef"><path d="m114.017 349.843h49.845v46.334h-49.845z" transform="matrix(.707 -.707 .707 .707 -223.064 207.497)"/><path d="m84.915 498.386c-20.04 18.658-50.782 18.064-70.118-1.323-3.941-3.952-7.089-8.393-9.443-13.123 18.902 9.433 42.481 6.262 58.235-9.491 12.145-12.145 16.796-28.945 13.97-44.67-.761-4.235.623-8.572 3.666-11.614l69.058-69.058 22.663 22.663-74.301 74.301c5.7 17.956 1.134 38.475-13.73 52.315z"/></g></g><g><g><path d="m511.947 78.135c0 15.511-4.604 31.115-14.018 44.618l-187.557 269.244-190.421-190.42 269.245-187.557c31.043-21.629 73.117-17.891 99.876 8.858 15.109 15.119 22.875 35.121 22.875 55.257z" fill="#fb4a59"/><path d="m511.947 78.135c0 15.501-4.604 31.105-14.018 44.618l-187.557 269.244-27.346-27.346 187.558-269.254c9.404-13.503 14.018-29.107 14.018-44.618 0-13.874-3.687-27.675-10.918-39.86 5.5 3.265 10.691 7.261 15.388 11.958 15.109 15.11 22.875 35.112 22.875 55.258z" fill="#f82f40"/><path d="m315.319 384.897-48.137 69.098-27.349-27.339v-.01l-181.879-181.879 69.098-48.137z" fill="#aee097"/><path d="m315.319 384.897-48.137 69.098v.01l-27.349-27.349v-.01l48.136-69.099z" fill="#83d167"/><path d="m240.5 480.682-209.233-209.233c-10.06-10.06-10.06-26.372 0-36.432 10.06-10.06 26.372-10.06 36.432 0l209.233 209.233c10.06 10.06 10.06 26.372 0 36.432-10.061 10.06-26.372 10.06-36.432 0z" fill="#d4f2f6"/><path d="m276.929 480.678c-5.026 5.037-11.618 7.55-18.21 7.55s-13.184-2.513-18.22-7.55l-23.586-23.586c5.037 5.037 11.628 7.55 18.22 7.55s13.184-2.513 18.21-7.55c10.063-10.052 10.063-26.367 0-36.43l23.586 23.586c10.063 10.063 10.063 26.377 0 36.43z" fill="#a8e7ef"/></g><g><g><path d="m377.036 135.858c-3.451 0-6.594-2.328-7.481-5.826-1.05-4.135 1.45-8.338 5.586-9.388l8.593-2.182c4.135-1.052 8.338 1.451 9.388 5.586s-1.451 8.338-5.586 9.388l-8.593 2.183c-.638.162-1.278.239-1.907.239z" fill="#a96a53"/></g><g><path d="m313.062 269.238c-1.995 0-3.989-.768-5.5-2.3l-6.226-6.312c-2.996-3.037-2.963-7.928.075-10.924 3.037-2.997 7.928-2.962 10.924.075l6.226 6.312c2.996 3.037 2.963 7.928-.075 10.924-1.505 1.485-3.465 2.225-5.424 2.225z" fill="#a96a53"/></g><g><path d="m447.302 106.287c-.515 0-1.036-.052-1.561-.159-4.179-.857-6.872-4.941-6.015-9.12l1.782-8.685c.857-4.179 4.943-6.869 9.12-6.015 4.179.857 6.872 4.941 6.015 9.12l-1.782 8.685c-.75 3.656-3.968 6.174-7.559 6.174z" fill="#865240"/></g><g><path d="m384.002 205.827c-1.181 0-2.38-.272-3.504-.845-3.801-1.939-5.309-6.591-3.371-10.391l4.029-7.898c1.938-3.801 6.591-5.311 10.391-3.371 3.801 1.939 5.309 6.591 3.371 10.391l-4.029 7.898c-1.365 2.676-4.076 4.216-6.887 4.216z" fill="#865240"/></g></g><g><g><path d="m314.14 208.622c-4.154 0-7.584-3.299-7.716-7.48l-.281-8.861c-.135-4.264 3.212-7.83 7.476-7.965 4.267-.151 7.83 3.212 7.965 7.476l.281 8.861c.135 4.264-3.212 7.83-7.476 7.965-.083.003-.167.004-.249.004z" fill="#865240"/></g><g><path d="m385.551 86.737c-.602 0-1.214-.071-1.826-.219-4.146-1.005-6.693-5.181-5.688-9.327l2.088-8.616c1.004-4.145 5.178-6.693 9.327-5.688 4.146 1.005 6.693 5.181 5.688 9.327l-2.088 8.616c-.856 3.535-4.018 5.907-7.501 5.907z" fill="#865240"/></g></g><g><path d="m223.655 223.902c-3.45 0-6.594-2.328-7.481-5.826-1.05-4.135 1.45-8.338 5.586-9.388l8.593-2.183c4.136-1.049 8.339 1.452 9.388 5.586 1.05 4.135-1.451 8.338-5.586 9.388l-8.593 2.182c-.638.163-1.278.241-1.907.241z" fill="#865240"/></g><g><path d="m299.28 143.126c-3.451 0-6.594-2.328-7.482-5.826-1.05-4.135 1.451-8.338 5.586-9.388l8.593-2.182c4.137-1.051 8.339 1.451 9.388 5.586 1.05 4.135-1.45 8.338-5.586 9.388l-8.593 2.183c-.637.162-1.277.239-1.906.239z" fill="#a96a53"/></g></g></g></svg>