<svg id="Capa_1" enable-background="new 0 0 512 512" height="512" viewBox="0 0 512 512" width="512" xmlns="http://www.w3.org/2000/svg"><g><path d="m120.108 338.286v145.992c0 15.308 12.414 27.722 27.722 27.722s27.722-12.414 27.722-27.722v-145.992z" fill="#ffd597"/><path d="m175.553 338.291v145.987c0 15.308-12.414 27.722-27.722 27.722-5.996 0-11.559-1.906-16.091-5.151 7.036-5.038 11.62-13.269 11.62-22.571v-145.987z" fill="#fcc16d"/><path d="m120.108 338.286h55.444v37.194h-55.444z" fill="#fcc16d"/><path d="m336.446 338.286v145.992c0 15.308 12.414 27.722 27.722 27.722s27.722-12.414 27.722-27.722v-145.992z" fill="#ffd597"/><path d="m391.891 338.291v145.987c0 15.308-12.414 27.722-27.722 27.722-5.996 0-11.559-1.906-16.091-5.151 7.036-5.038 11.62-13.269 11.62-22.571v-145.987z" fill="#fcc16d"/><path d="m336.446 338.286h55.444v37.194h-55.444z" fill="#fcc16d"/><path d="m273.313 49.913h-34.628c-8.721 0-16.498-5.491-19.416-13.71l-4.173-11.754h-10.302v303.364h25.696l1.393-3.151c3.298-7.461 10.687-12.274 18.845-12.274h10.542c8.157 0 15.547 4.813 18.845 12.274l1.393 3.151h25.696v-303.364h-10.302l-4.173 11.754c-2.918 8.219-10.694 13.71-19.416 13.71z" fill="#22c7db"/><path d="m250.333 312.402c-8.005.144-15.205 4.924-18.451 12.259l-1.391 3.152h-25.693v-303.367h10.302l4.172 11.754c2.73 7.695 9.715 12.991 17.74 13.65z" fill="#1fb2cc"/><path d="m307.199 24.446v303.368h-25.693l-1.391-3.152c-3.245-7.335-10.446-12.115-18.451-12.259l13.32-262.552c8.025-.659 15.01-5.954 17.74-13.65l4.172-11.754h10.303z" fill="#1fb2cc"/><path d="m204.769 354.873h-113.877c-14.737 0-26.468-12.342-25.721-27.06l15.394-303.364c.695-13.699 12.005-24.449 25.721-24.449h83.089c13.717 0 25.026 10.75 25.721 24.449l15.394 303.364c.747 14.718-10.984 27.06-25.721 27.06z" fill="#a8e7ef"/><path d="m204.769 354.877h-34.614c14.742 0 26.465-12.342 25.724-27.063l-15.392-303.368c-.7-13.691-12.012-24.446-25.723-24.446h34.614c13.712 0 25.023 10.755 25.724 24.446l15.391 303.368c.741 14.721-10.983 27.063-25.724 27.063z" fill="#70d9e6"/><path d="m421.107 354.873h-113.877c-14.737 0-26.468-12.342-25.721-27.06l15.394-303.364c.695-13.699 12.005-24.449 25.721-24.449h83.089c13.717 0 25.026 10.75 25.721 24.449l15.394 303.364c.747 14.718-10.984 27.06-25.721 27.06z" fill="#a8e7ef"/><path d="m421.107 354.877h-34.614c14.742 0 26.465-12.342 25.724-27.063l-15.392-303.368c-.7-13.691-12.012-24.446-25.723-24.446h34.614c13.712 0 25.023 10.755 25.724 24.446l15.391 303.368c.741 14.721-10.982 27.063-25.724 27.063z" fill="#70d9e6"/><g fill="#22c7db"><path d="m160.708 312.464h-25.755c-2.845 0-5.151-2.306-5.151-5.151v-246.876c0-9.957 8.071-18.028 18.028-18.028 9.957 0 18.028 8.071 18.028 18.028v246.876c.001 2.845-2.306 5.151-5.15 5.151z"/><path d="m377.046 312.464h-25.755c-2.845 0-5.151-2.306-5.151-5.151v-246.876c0-9.957 8.071-18.028 18.028-18.028 9.957 0 18.028 8.071 18.028 18.028v246.876c.001 2.845-2.306 5.151-5.15 5.151z"/></g></g></svg>