<svg id="Capa_1" enable-background="new 0 0 512 512" height="512" viewBox="0 0 512 512" width="512" xmlns="http://www.w3.org/2000/svg"><g><g><path d="m8.722 503.278c-11.629-11.629-11.629-30.483 0-42.112l193.787-193.787c11.629-11.629 30.483-11.629 42.112 0 11.629 11.629 11.629 30.483 0 42.112l-193.787 193.787c-11.629 11.629-30.483 11.629-42.112 0z" fill="#ffd597"/><path d="m253.342 288.43c0 7.623-2.905 15.247-8.726 21.057l-193.787 193.787c-11.62 11.631-30.483 11.631-42.104 0-3.698-3.688-6.222-8.118-7.561-12.805 10.075 2.895 21.376.381 29.309-7.551l193.787-193.787c5.81-5.81 8.715-13.434 8.715-21.057 0-2.781-.391-5.563-1.164-8.252 4.687 1.339 9.117 3.863 12.805 7.561 5.821 5.811 8.726 13.434 8.726 21.047z" fill="#fcc16d"/><path d="m253.342 288.43c0 7.623-2.905 15.247-8.726 21.057l-104.47 104.471c-8.396-5.244-16.246-11.497-23.426-18.677-7.232-7.232-13.454-15.102-18.667-23.437l104.461-104.46c11.62-11.631 30.483-11.631 42.103 0 5.82 5.81 8.725 13.433 8.725 21.046z" fill="#fcc16d"/><path d="m131.285 380.715c-43.568-43.568-43.568-114.205 0-157.772l70.583-70.583 157.772 157.772-70.583 70.583c-43.567 43.568-114.205 43.568-157.772 0z" fill="#fff2e3"/><path d="m359.636 310.136-70.578 70.578c-9.56 9.55-20.408 17.008-31.997 22.365-4.904-6.655-7.551-14.67-7.551-23.097 0-10.436 4.059-20.243 11.435-27.619l9.035-9.024c-3.801 1.216-7.819 1.844-11.93 1.844-10.425 0-20.233-4.069-27.609-11.445-7.376-7.366-11.445-17.173-11.445-27.609 0-4.11.639-8.118 1.854-11.929l-30.71 30.71c-7.376 7.376-17.183 11.435-27.619 11.435-10.425 0-20.233-4.059-27.609-11.435s-11.435-17.183-11.435-27.619c0-10.425 4.059-20.233 11.435-27.609l30.699-30.71c-3.801 1.216-7.809 1.844-11.919 1.844-10.436 0-20.243-4.059-27.619-11.435-.134-.134-.268-.268-.391-.402 1.772-2.06 3.647-4.08 5.604-6.037l70.578-70.578z" fill="#fee7c9"/><path d="m359.636 310.136-70.578 70.578c-43.566 43.566-114.206 43.566-157.772 0-4.986-4.986-9.405-10.333-13.248-15.947 43.432 29.741 103.234 25.322 141.815-13.258l70.578-70.578z" fill="#fee7c9"/><path d="m140.646 188.722c-7.205 7.205-7.205 18.886 0 26.09 7.205 7.205 18.886 7.205 26.09 0 7.205-7.205 18.886-7.205 26.09 0 7.205 7.205 7.205 18.886 0 26.09l-43.345 43.346c-7.205 7.205-7.205 18.886 0 26.09 7.205 7.205 18.886 7.205 26.09 0l43.345-43.345c7.205-7.205 18.886-7.205 26.09 0 7.205 7.205 7.205 18.886 0 26.09-7.205 7.205-7.205 18.886 0 26.09 7.205 7.205 18.886 7.205 26.09 0 7.205-7.205 18.886-7.205 26.09 0 7.205 7.205 7.205 18.886 0 26.09l-21.673 21.673c-7.205 7.205-7.205 18.886 0 26.09s18.886 7.205 26.09 0l172.57-172.57c50.432-50.432 50.432-132.2 0-182.632-50.432-50.432-132.2-50.432-182.632 0z" fill="#925b46"/><path d="m474.172 220.459-172.566 172.565c-7.201 7.211-18.883 7.211-26.095 0-7.201-7.201-7.201-18.883 0-26.084l21.675-21.675c3.235-3.224 5.007-7.356 5.336-11.569l142.443-142.443c45.462-45.462 49.943-116.38 13.444-166.858 5.522 3.987 10.796 8.468 15.762 13.434 50.438 50.427 50.438 132.192.001 182.63z" fill="#865240"/></g><g><path d="m316.906 109.328c-3.451 0-6.595-2.328-7.483-5.826-1.05-4.136 1.452-8.34 5.588-9.39l8.607-2.186c4.133-1.05 8.34 1.45 9.39 5.587 1.05 4.136-1.452 8.34-5.588 9.39l-8.607 2.186c-.637.162-1.277.239-1.907.239z" fill="#ba7c65"/></g><g><path d="m345.548 239.828c-1.995 0-3.989-.768-5.501-2.301l-6.235-6.322c-2.996-3.038-2.963-7.93.075-10.927 3.036-2.996 7.929-2.963 10.927.075l6.235 6.322c2.996 3.038 2.963 7.93-.075 10.927-1.505 1.486-3.466 2.226-5.426 2.226z" fill="#a96a53"/></g><g><path d="m365.65 101.344c-.515 0-1.037-.052-1.561-.159-4.18-.858-6.873-4.942-6.015-9.122l1.785-8.699c.857-4.18 4.945-6.869 9.122-6.016 4.18.858 6.873 4.942 6.015 9.122l-1.785 8.699c-.75 3.655-3.97 6.175-7.561 6.175z" fill="#7b4b39"/></g><g><path d="m451.79 120.589c-1.995 0-3.989-.768-5.501-2.301l-6.235-6.322c-2.996-3.038-2.963-7.93.075-10.927 3.036-2.996 7.929-2.963 10.927.075l6.235 6.322c2.996 3.038 2.963 7.93-.075 10.927-1.506 1.485-3.466 2.226-5.426 2.226z" fill="#7b4b39"/></g><g><path d="m253.336 170.24c-3.451 0-6.595-2.329-7.483-5.827l-2.185-8.607c-1.05-4.136 1.452-8.34 5.588-9.39 4.134-1.05 8.34 1.451 9.39 5.588l2.185 8.607c1.05 4.136-1.452 8.34-5.588 9.39-.637.161-1.277.239-1.907.239z" fill="#865240"/></g><g><path d="m281.545 249.16c-1.181 0-2.38-.272-3.505-.845-3.801-1.939-5.311-6.593-3.371-10.394l4.035-7.91c1.939-3.801 6.591-5.31 10.393-3.372 3.801 1.939 5.311 6.593 3.371 10.394l-4.035 7.91c-1.365 2.677-4.076 4.217-6.888 4.217z" fill="#865240"/></g><g><path d="m391.876 191.769c-1.181 0-2.38-.272-3.505-.846-3.801-1.939-5.311-6.592-3.371-10.393l4.035-7.91c1.939-3.801 6.592-5.311 10.393-3.371 3.801 1.939 5.311 6.592 3.371 10.393l-4.035 7.91c-1.365 2.677-4.076 4.217-6.888 4.217z" fill="#a96a53"/></g></g></svg>