<svg id="Capa_1" enable-background="new 0 0 512 512" height="512" viewBox="0 0 512 512" width="512" xmlns="http://www.w3.org/2000/svg"><g><path d="m5.485 506.516c-7.312-7.312-7.312-19.166 0-26.478l271.208-271.208c7.312-7.312 19.166-7.312 26.478 0 7.312 7.312 7.312 19.166 0 26.478l-271.208 271.208c-7.312 7.312-19.166 7.312-26.478 0z" fill="#f3eae6"/><path d="m308.654 222.065c0 4.801-1.823 9.591-5.481 13.248l-32.389 32.389c-4.862-3.863-9.539-8.025-14-12.486-4.481-4.481-8.643-9.158-12.476-14.01l32.379-32.379c7.314-7.304 19.172-7.304 26.486 0 3.658 3.657 5.481 8.448 5.481 13.238z" fill="#e0d3ce"/><g><path d="m459.974 31.585c-35.337 26.785-71.599 57.263-106.325 91.989-34.732 34.732-65.196 70.98-91.989 106.324-18.335-22.487-28.679-49.309-31.054-76.698 18.991-27.295 42.447-55.399 69.633-82.584 27.39-27.39 55.727-51.006 83.218-70.062 27.332 2.388 54.081 12.732 76.517 31.031z" fill="#83d167"/><path d="m442.12 212.495c-26.909 26.909-54.707 50.161-81.739 69.035-28.264-2.127-56.011-12.741-79.102-31.855 35.279-26.902 70.936-58.014 105.698-92.775 34.754-34.754 65.881-70.427 92.768-105.691 19.071 23.034 29.684 50.708 31.833 78.92-18.948 27.237-42.353 55.261-69.458 82.366z" fill="#83d167"/><path d="m383.465.545c27.317 2.404 54.073 12.755 76.502 31.047-8.938 6.767-17.927 13.775-26.938 21.023-3.154-3.912-6.541-7.692-10.176-11.327-14.89-14.89-32.278-25.751-50.824-32.584 3.824-2.804 7.641-5.529 11.436-8.159z" fill="#54c032"/><path d="m447.998 206.544c19.836-37.726 21.395-82.555 4.655-121.396 9.448-11.327 18.488-22.655 27.091-33.939 19.071 23.048 29.684 50.722 31.833 78.92-17.57 25.249-38.964 51.174-63.579 76.415z" fill="#54c032"/><path d="m396.871 2.437c-29.628 19.82-60.41 45.062-90.081 74.734-29.489 29.489-54.592 60.059-74.361 89.518-8.141-44.083 4.831-91.302 38.931-125.402 34.151-34.15 81.464-47.115 125.606-38.886.029.102 0 .117-.095.036z" fill="#fcb44d"/><path d="m381.973 12.804c-11.198-5.13-22.922-8.726-34.872-10.765.113-.021.227-.041.35-.062 16.39-2.771 33.162-2.627 49.511.423.031.103 0 .123-.093.041-4.935 3.306-9.91 6.757-14.896 10.363z" fill="#fb9927"/><path d="m395.022 164.95c-34.575 34.575-70.13 65.233-105.151 91.295-6.497-4.582-12.694-9.786-18.512-15.603-5.81-5.81-11.013-12.008-15.596-18.504 26.061-35.021 56.712-70.583 91.287-105.158s70.144-65.233 105.158-91.287c6.497 4.582 12.694 9.786 18.504 15.596 5.817 5.817 11.021 12.015 15.603 18.512-26.053 35.013-56.718 70.574-91.293 105.149z" fill="#fcb44d"/><path d="m457.114 96.929c-6.119-18.657-16.236-36.293-30.359-51.561 8.499-6.82 16.998-13.382 25.456-19.677 6.49 4.585 12.692 9.787 18.502 15.597 5.821 5.82 11.023 12.012 15.607 18.512-9.179 12.332-18.925 24.725-29.206 37.129z" fill="#fb9927"/><path d="m509.565 115.132c-19.82 29.628-45.063 60.41-74.734 90.081-29.489 29.489-60.059 54.592-89.518 74.361 44.083 8.141 91.302-4.831 125.402-38.931 34.151-34.151 47.116-81.465 38.887-125.607-.103-.029-.117.001-.037.096z" fill="#fcb44d"/><path d="m470.713 240.639c-33.635 33.635-80.025 46.719-123.591 39.25 27.733-4.759 54.322-17.843 75.729-39.25 17.441-17.441 29.36-38.313 35.737-60.451 19.563-21.716 36.674-43.69 50.973-65.056-.072-.093-.062-.124.041-.093 8.231 44.144-4.739 91.45-38.889 125.6z" fill="#fb9927"/></g></g></svg>