<svg id="Capa_1" enable-background="new 0 0 512 512" height="512" viewBox="0 0 512 512" width="512" xmlns="http://www.w3.org/2000/svg"><g><path d="m8.722 503.278c-11.629-11.629-11.629-30.483 0-42.112l193.786-193.786c11.629-11.629 30.483-11.629 42.112 0 11.629 11.629 11.629 30.483 0 42.112l-193.786 193.786c-11.629 11.629-30.483 11.629-42.112 0z" fill="#ffd597"/><path d="m253.342 288.43c0 7.623-2.905 15.247-8.726 21.057l-193.787 193.787c-11.62 11.631-30.483 11.631-42.104 0-3.698-3.688-6.222-8.118-7.561-12.805 10.075 2.895 21.376.381 29.309-7.551l193.787-193.787c5.81-5.81 8.715-13.434 8.715-21.057 0-2.781-.391-5.563-1.164-8.252 4.687 1.339 9.117 3.863 12.805 7.561 5.821 5.811 8.726 13.434 8.726 21.047z" fill="#fcc16d"/><path d="m253.342 288.43c0 7.623-2.905 15.247-8.726 21.057l-106.85 106.85-42.103-42.103 106.85-106.85c11.62-11.631 30.483-11.631 42.103 0 5.821 5.81 8.726 13.433 8.726 21.046z" fill="#fcc16d"/><g><path d="m474.172 220.459-108.911 108.91c-45.606-41.784-116.462-40.579-160.615 3.575-23.972 23.972-35.284 55.805-33.934 87.194l-112.527-112.526c-10.065-10.055-10.065-26.362 0-36.427l132.625-132.626c45.606 41.856 116.513 40.682 160.698-3.503 36.438-36.448 43.618-91.078 21.541-134.686 3.266-.246 6.542-.37 9.807-.37 33.048 0 66.096 12.609 91.315 37.828 50.438 50.428 50.438 132.193.001 182.631z" fill="#e6f6e0"/><path d="m474.172 220.459-108.911 108.91c-11.249-10.322-24.034-18.008-37.581-23.086l116.163-116.153c45.266-45.266 49.902-115.761 13.918-166.199 5.759 4.1 11.249 8.736 16.411 13.897 50.437 50.428 50.437 132.193 0 182.631z" fill="#d6efca"/><g><path d="m384.863.016c-33.713-.524-67.593 12.085-93.321 37.814l-108.655 108.655c49.323 49.323 129.292 49.323 178.623-.007 39.634-39.636 47.421-99.055 23.353-146.462z" fill="#83d167"/><path d="m336.196 121.164c-35.352 35.352-92.651 35.352-127.995.007l83.342-83.342c15.828-15.829 34.731-26.69 54.807-32.576 24.789 35.308 21.395 84.362-10.154 115.911z" fill="#c2e8b1"/><g><path d="m375.202 57.175c0 4.265-3.451 7.726-7.726 7.726h-103.008l15.453-15.453h87.555c4.275.001 7.726 3.452 7.726 7.727z" fill="#83d167"/></g><g><path d="m348.479 133.46c-1.504 1.504-3.482 2.256-5.46 2.256s-3.956-.752-5.46-2.256l-70.825-70.825 10.93-10.92 70.815 70.815c3.019 3.018 3.019 7.912 0 10.93z" fill="#83d167"/></g><g><path d="m279.921 49.449v104.419c0 4.265-3.461 7.726-7.726 7.726s-7.726-3.461-7.726-7.726v-88.966z" fill="#83d167"/></g></g><g><path d="m195.955 320.059c-24.41 24.41-36.75 56.345-36.983 88.339l45.419 45.419c10.06 10.06 26.363 10.06 36.422 0l133.765-133.765c-49.324-49.323-129.292-49.323-178.623.007z" fill="#83d167"/><path d="m195.951 320.057c-24.405 24.415-36.746 56.351-36.983 88.338l45.421 45.421c10.065 10.065 26.362 10.065 36.427 0l36.726-36.726 97.033-97.033c-49.316-49.325-129.289-49.325-178.624 0z" fill="#83d167"/><path d="m374.574 320.057-133.759 133.758c-10.065 10.065-26.362 10.065-36.427 0l-30.329-30.328c10.055 10.055 26.362 10.055 36.417 0l128.484-128.474c12.888 6.047 24.962 14.392 35.614 25.044z" fill="#6bc94d"/><path d="m349.264 345.365-108.451 108.451c-8.836 8.836-22.494 9.907-32.503 3.22-21.664-34.907-17.344-81.36 12.959-111.664 35.351-35.351 92.651-35.351 127.995-.007z" fill="#c2e8b1"/><path d="m349.262 345.368-108.447 108.447c-8.839 8.839-22.499 9.91-32.502 3.224-5.161-8.303-8.839-17.266-11.044-26.507 4.842-.948 9.457-3.297 13.207-7.046l100.824-100.813c13.897 4.152 26.991 11.724 37.962 22.695z" fill="#aee097"/><g><path d="m292.994 401.637-15.453 15.453h-90.862c-4.265 0-7.726-3.451-7.726-7.726 0-4.265 3.462-7.726 7.726-7.726h106.315z" fill="#83d167"/></g><g><path d="m290.727 403.903-10.93 10.93-70.258-70.258c-3.018-3.018-3.018-7.912 0-10.93s7.912-3.018 10.93 0z" fill="#83d167"/></g><g><path d="m292.994 314.133v87.503l-15.453 15.453v-102.956c0-4.265 3.462-7.726 7.726-7.726 4.265 0 7.727 3.461 7.727 7.726z" fill="#83d167"/></g><path d="m292.994 340.98-15.453 15.452v34.285l-17.142-17.143-10.93 10.931 17.132 17.132h-34.275l-15.452 15.452h60.667l15.453-15.452z" fill="#6bc94d"/></g></g></g></svg>