<svg id="Capa_1" enable-background="new 0 0 512 512" height="512" viewBox="0 0 512 512" width="512" xmlns="http://www.w3.org/2000/svg"><g><path d="m23.272 333.058h465.456v70.444h-465.456z" fill="#a96a53"/><path d="m23.272 427.34h465.456v59.956c0 5.687-4.615 10.302-10.302 10.302h-444.852c-5.687 0-10.302-4.615-10.302-10.302z" fill="#a96a53"/><path d="m439.516 333.058h49.212v70.444h-49.212z" fill="#925b46"/><path d="m439.516 427.34h49.212v59.956c0 5.687-4.615 10.302-10.302 10.302h-49.212c5.687 0 10.302-4.615 10.302-10.302z" fill="#925b46"/><path d="m23.272 333.058h19.862c-6.078 3.091-12.846 4.729-19.862 4.729z" fill="#fcb44d"/><path d="m72.484 333.058h87.761v11.25c0 24.199-19.687 43.875-43.886 43.875-.515 0-1.051-.01-1.576-.031-23.715-.834-42.299-20.346-42.299-44.401z" fill="#925b46"/><path d="m282.939 333.058h39.394c-5.944 3.029-12.671 4.729-19.79 4.729-.525 0-1.051-.01-1.576-.031-6.562-.227-12.64-1.876-18.028-4.698z" fill="#fcb44d"/><path d="m351.755 333.058h87.761v11.25c0 24.199-19.687 43.875-43.875 43.875-.525 0-1.061-.01-1.586-.031-23.715-.834-42.299-20.346-42.299-44.401v-10.693z" fill="#925b46"/><g><path d="m23.272 393.694h465.456v43.268h-465.456z" fill="#fee7c9"/></g><path d="m439.516 393.694h49.212v43.268h-49.212z" fill="#ffd597"/><path d="m23.272 204.059h465.456v140.342h-465.456z" fill="#fb4a59"/><path d="m23.272 204.059v133.728c11.723 0 22.736-4.564 31.029-12.846 8.283-8.293 12.846-19.306 12.846-31.029 0-1.473 1.195-2.668 2.668-2.668h.124c1.329.051 2.545 1.586 2.545 3.224v49.284c0 .216 0 .433.01.649h87.751v-75.605c0-1.638 1.216-3.173 2.545-3.224h.124c1.463 0 2.668 1.195 2.668 2.668 0 24.189 19.676 43.875 43.875 43.875 24.189 0 43.875-19.687 43.875-43.875 0-1.473 1.195-2.668 2.668-2.668h.113c1.339.052 2.555 1.587 2.555 3.224v20.016c0 27.485 17.791 48.079 42.299 48.944.525.021 1.051.031 1.576.031 24.199 0 43.875-19.687 43.875-43.875 0-1.473 1.205-2.668 2.668-2.668h.124c1.329.051 2.545 1.586 2.545 3.224v49.284c0 .216 0 .433.01.649h136.963v-140.342z" fill="#f82f40"/><path d="m208.995 96.509c11.174 18.575 10.844 40.862 1.066 58.562-20.218.346-40.072-9.799-51.246-28.374-9.818-16.32-10.752-35.501-4.208-51.912 1.678-4.208 6.004-6.809 10.507-6.319 17.567 1.913 34.063 11.722 43.881 28.043z" fill="#83d167"/><path d="m210.064 155.073c-4.306.072-8.602-.33-12.795-1.195 2.792-13.835.618-28.711-7.232-41.753-8.798-14.618-22.952-24.014-38.446-27.186.701-3.472 1.71-6.871 3.018-10.158 1.679-4.203 6.006-6.81 10.508-6.315 17.565 1.916 34.058 11.723 43.875 28.042 11.178 18.574 10.849 40.867 1.072 58.565z" fill="#6bc94d"/><path d="m303.005 96.509c-11.174 18.575-10.844 40.862-1.066 58.562 20.218.346 40.072-9.799 51.246-28.374 9.818-16.32 10.752-35.501 4.208-51.912-1.678-4.208-6.004-6.809-10.507-6.319-17.567 1.913-34.063 11.722-43.881 28.043z" fill="#83d167"/><path d="m353.187 126.692c-11.178 18.585-31.029 28.721-51.252 28.382-.628-1.144-1.226-2.308-1.772-3.482 12.218-4.409 23.066-12.888 30.287-24.9 10.456-17.379 10.838-38.014 2.833-55.084 4.343-1.564 8.859-2.616 13.448-3.128 4.559-.509 8.962 2.048 10.661 6.308 6.544 16.409 5.61 35.586-4.205 51.904z" fill="#6bc94d"/><path d="m197.056 111.909c0-37.623 17.628-71.128 45.074-92.713 8.127-6.392 19.614-6.392 27.742-.001 27.452 21.585 45.072 55.091 45.072 92.714 0 27.358-26.39 49.536-58.944 49.536s-58.944-22.178-58.944-49.536z" fill="#fb4a59"/><path d="m314.947 111.909c0 27.362-26.393 49.531-58.947 49.531-4.986 0-9.818-.515-14.443-1.494 25.569-5.419 44.494-24.869 44.494-48.037 0-37.354-17.369-70.66-44.494-92.253.185-.155.381-.309.577-.464 8.128-6.387 19.615-6.387 27.743 0 27.444 21.583 45.07 55.095 45.07 92.717z" fill="#f82f40"/><g><g><g id="XMLID_115_"><path d="m226.052 110.383c-.011 0-.023 0-.034 0l-.116-.001c-4.268-.019-7.712-3.492-7.693-7.76.019-4.256 3.474-7.693 7.726-7.693h.034l.116.001c4.267.019 7.712 3.492 7.693 7.76-.019 4.256-3.475 7.693-7.726 7.693z" fill="#865240"/></g><g id="XMLID_117_"><path d="m256.052 110.383c-.011 0-.022 0-.034 0l-.117-.001c-4.267-.019-7.711-3.492-7.693-7.76.019-4.256 3.474-7.693 7.726-7.693h.034l.117.001c4.267.019 7.711 3.492 7.693 7.76-.019 4.256-3.475 7.693-7.726 7.693z" fill="#865240"/></g><g id="XMLID_118_"><path d="m286.052 110.383c-.011 0-.022 0-.034 0l-.117-.001c-4.267-.019-7.711-3.492-7.693-7.76.019-4.256 3.474-7.693 7.726-7.693h.034l.117.001c4.267.019 7.711 3.492 7.693 7.76-.019 4.256-3.475 7.693-7.726 7.693z" fill="#865240"/></g></g><g><g id="XMLID_126_"><path d="m256.052 53.356c-.011 0-.022 0-.034 0l-.117-.001c-4.267-.019-7.711-3.492-7.693-7.76.019-4.256 3.474-7.693 7.726-7.693h.034l.117.001c4.267.019 7.711 3.492 7.693 7.76-.019 4.256-3.475 7.693-7.726 7.693z" fill="#865240"/></g></g><g><g id="XMLID_122_"><path d="m241.052 81.87c-.011 0-.022 0-.034 0l-.117-.001c-4.267-.019-7.711-3.492-7.693-7.76.019-4.256 3.474-7.693 7.726-7.693h.034l.117.001c4.267.019 7.711 3.492 7.693 7.76-.019 4.255-3.475 7.693-7.726 7.693z" fill="#865240"/></g><g id="XMLID_120_"><path d="m271.052 81.87c-.011 0-.022 0-.034 0l-.117-.001c-4.267-.019-7.711-3.492-7.693-7.76.019-4.256 3.474-7.693 7.726-7.693h.034l.117.001c4.267.019 7.711 3.492 7.693 7.76-.019 4.255-3.475 7.693-7.726 7.693z" fill="#865240"/></g></g></g><circle cx="146.561" cy="166.139" fill="#a96a53" r="41.868"/><path d="m188.43 166.138c0 23.128-18.749 41.867-41.867 41.867-5.707 0-11.147-1.144-16.112-3.204 15.133-6.315 25.765-21.242 25.765-38.663 0-17.41-10.631-32.348-25.765-38.663 4.965-2.06 10.405-3.204 16.112-3.204 23.118 0 41.867 18.749 41.867 41.867z" fill="#925b46"/><circle cx="219.52" cy="166.139" fill="#a96a53" r="41.868"/><path d="m261.388 166.138c0 23.128-18.749 41.867-41.867 41.867-5.707 0-11.147-1.144-16.112-3.204 15.133-6.315 25.765-21.242 25.765-38.663 0-17.41-10.631-32.348-25.765-38.663 4.965-2.06 10.405-3.204 16.112-3.204 23.118 0 41.867 18.749 41.867 41.867z" fill="#925b46"/><circle cx="292.48" cy="166.139" fill="#a96a53" r="41.868"/><path d="m334.345 166.138c0 23.128-18.739 41.867-41.866 41.867-5.707 0-11.147-1.144-16.102-3.214 15.133-6.305 25.765-21.232 25.765-38.652 0-17.41-10.631-32.337-25.765-38.652 4.955-2.071 10.395-3.214 16.102-3.214 23.127-.002 41.866 18.747 41.866 41.865z" fill="#925b46"/><circle cx="365.439" cy="166.139" fill="#a96a53" r="41.868"/><path d="m407.303 166.138c0 23.128-18.739 41.867-41.867 41.867-5.707 0-11.147-1.144-16.102-3.204 15.123-6.315 25.765-21.242 25.765-38.663 0-17.41-10.642-32.348-25.765-38.663 4.955-2.06 10.395-3.204 16.102-3.204 23.128 0 41.867 18.749 41.867 41.867z" fill="#925b46"/><g><path d="m0 294.23c0 9.527 5.813 18.259 14.789 21.451 16.415 5.838 31.757-6.175 31.757-21.771 0-13.135 10.881-23.728 24.121-23.258 12.611.448 22.424 11.196 22.424 23.815v49.282c0 12.619 9.813 23.367 22.424 23.815 13.24.471 24.121-10.123 24.121-23.258v-75.513c0-12.619 9.813-23.367 22.424-23.815 13.24-.471 24.121 10.123 24.121 23.258 0 12.853 10.42 23.273 23.273 23.273s23.273-10.42 23.273-23.273c0-13.135 10.881-23.728 24.121-23.258 12.611.448 22.424 11.196 22.424 23.815v20.017c0 17.166 9.813 27.907 22.424 28.356 13.24.471 24.121-10.123 24.121-23.258s10.881-23.728 24.121-23.258c12.611.448 22.424 11.196 22.424 23.815v49.282c0 12.619 9.813 23.367 22.424 23.815 13.24.471 24.121-10.123 24.121-23.258v-100.234c0-12.619 9.813-23.367 22.424-23.815 13.24-.471 24.121 10.123 24.121 23.258v49.84c0 12.619 9.813 23.367 22.424 23.815 13.243.47 24.124-10.123 24.124-23.258v-92.271c0-14.224-11.531-25.755-25.755-25.755h-460.49c-14.224 0-25.755 11.531-25.755 25.755z" fill="#fee7c9"/><path d="m512 201.638v92.273c0 13.135-10.879 23.725-24.117 23.262-7.057-.258-13.238-3.729-17.297-8.942 3.091-3.946 4.935-8.921 4.935-14.32v-92.273c0-14.227-11.528-25.755-25.755-25.755h36.479c14.227 0 25.755 11.528 25.755 25.755z" fill="#ffd597"/></g></g></svg>