<svg id="Capa_1" enable-background="new 0 0 512 512" height="512" viewBox="0 0 512 512" width="512" xmlns="http://www.w3.org/2000/svg"><g><g><path d="m387.415 93.6c-11.199 18.616-10.868 40.952-1.069 58.69 20.263.346 40.16-9.821 51.359-28.437 9.852-16.376 10.778-35.626 4.193-52.087-1.672-4.179-5.966-6.761-10.441-6.279-17.629 1.902-34.19 11.737-44.042 28.113z" fill="#83d167"/><path d="m437.705 123.849c-11.199 18.62-31.098 28.785-51.356 28.447-.624-1.126-1.208-2.262-1.75-3.419 12.335-4.402 23.277-12.928 30.555-25.028 9.858-16.368 10.779-35.622 4.197-52.082-.45-1.126-1.095-2.139-1.894-3.009 4.514-1.648 9.223-2.754 14.003-3.265 4.473-.481 8.762 2.098 10.441 6.275 6.583 16.459 5.651 35.713-4.196 52.081z" fill="#6bc94d"/><path d="m278.424 102.372c0-39.499 18.507-74.675 47.322-97.337 8.532-6.71 20.592-6.711 29.125-.001 28.822 22.662 47.32 57.839 47.32 97.339 0 28.722-27.706 52.006-61.884 52.006s-61.883-23.285-61.883-52.007z" fill="#fb4a59"/><path d="m402.195 102.373c0 28.723-27.71 52-61.889 52-5.067 0-9.991-.512-14.699-1.474 27.085-5.538 47.189-26.062 47.189-50.526 0-39.44-18.436-74.561-47.179-97.235.041-.031.092-.072.133-.102 8.527-6.715 20.585-6.715 29.122 0 28.816 22.663 47.323 57.835 47.323 97.337z" fill="#f82f40"/><g><g><g id="XMLID_129_"><path d="m307.926 102.394c-.01 0-.021 0-.031 0h-.126c-4.24-.017-7.664-3.468-7.647-7.708.017-4.229 3.451-7.647 7.677-7.647h.031l.126.001c4.24.017 7.664 3.468 7.647 7.708-.017 4.229-3.452 7.646-7.677 7.646z" fill="#865240"/></g><g id="XMLID_128_"><path d="m340.364 102.394c-.01 0-.02 0-.031 0h-.126c-4.24-.017-7.664-3.468-7.647-7.708.017-4.229 3.451-7.647 7.677-7.647h.031l.126.001c4.24.017 7.664 3.468 7.647 7.708-.018 4.229-3.452 7.646-7.677 7.646z" fill="#865240"/></g><g id="XMLID_125_"><path d="m372.801 102.394c-.01 0-.021 0-.031 0h-.125c-4.24-.017-7.664-3.468-7.647-7.708.017-4.229 3.451-7.647 7.677-7.647h.031l.125.001c4.24.017 7.664 3.468 7.647 7.708-.017 4.229-3.451 7.646-7.677 7.646z" fill="#865240"/></g></g><g><g id="XMLID_124_"><path d="m340.364 40.732c-.01 0-.02 0-.031 0h-.126c-4.24-.017-7.664-3.468-7.647-7.708.017-4.229 3.451-7.647 7.677-7.647h.031.126c4.24.017 7.664 3.468 7.647 7.708-.018 4.23-3.452 7.647-7.677 7.647z" fill="#865240"/></g></g><g><g id="XMLID_123_"><path d="m324.144 71.563c-.01 0-.021 0-.031 0l-.125-.001c-4.24-.017-7.664-3.468-7.647-7.708.017-4.229 3.451-7.647 7.677-7.647h.031.125c4.24.017 7.664 3.468 7.647 7.708-.017 4.231-3.451 7.648-7.677 7.648z" fill="#865240"/></g><g id="XMLID_119_"><path d="m356.583 71.563c-.01 0-.021 0-.031 0l-.126-.001c-4.24-.017-7.664-3.468-7.647-7.708.017-4.229 3.451-7.647 7.677-7.647h.031.126c4.24.017 7.664 3.468 7.647 7.708-.017 4.231-3.452 7.648-7.677 7.648z" fill="#865240"/></g></g></g><circle cx="303.748" cy="158.221" fill="#a96a53" r="41.96"/><path d="m345.711 158.223c0 23.175-18.794 41.959-41.959 41.959-4.35 0-8.547-.665-12.488-1.883 17.074-5.323 29.46-21.251 29.46-40.075s-12.386-34.752-29.46-40.075c3.941-1.218 8.138-1.883 12.488-1.883 23.165-.002 41.959 18.782 41.959 41.957z" fill="#925b46"/><circle cx="376.867" cy="158.221" fill="#a96a53" r="41.96"/><path d="m418.829 158.223c0 23.175-18.784 41.959-41.959 41.959-4.35 0-8.547-.665-12.488-1.883 17.074-5.323 29.47-21.251 29.47-40.075s-12.396-34.752-29.47-40.075c3.941-1.218 8.138-1.883 12.488-1.883 23.175-.002 41.959 18.782 41.959 41.957z" fill="#925b46"/><path d="m470.748 201.205v300.559c0 5.65-4.586 10.236-10.236 10.236h-409.023c-4.801 0-8.834-3.306-9.929-7.769h371.005v-62.186h-371.313v-56.75h371.036v-48.029h-371.036v-60.097h369.132v-55.276h-369.132v-46.278c0-5.65 4.586-10.236 10.236-10.236h383.432c19.787-.001 35.828 16.039 35.828 35.826z" fill="#c58d7c"/><path d="m470.748 201.205v300.559c0 5.65-4.586 10.236-10.236 10.236h-39.625c5.65 0 10.236-4.586 10.236-10.236v-300.559c0-19.787-16.04-35.827-35.827-35.827h39.625c19.786 0 35.827 16.04 35.827 35.827z" fill="#ba7c65"/><path d="m424.102 231.429v36.716c0 11.307-9.166 20.473-20.473 20.473h-362.376v-77.661h362.377c11.306-.001 20.472 9.165 20.472 20.472z" fill="#fb4a59"/><path d="m424.101 231.433v36.707c0 11.311-9.161 20.473-20.473 20.473h-39.502c11.311 0 20.473-9.161 20.473-20.473v-36.707c0-11.311-9.161-20.473-20.473-20.473h39.502c11.311 0 20.473 9.162 20.473 20.473z" fill="#f82f40"/><path d="m424.102 345.226v32.504c0 11.307-9.166 20.473-20.473 20.473h-362.376v-73.449h362.377c11.306-.001 20.472 9.165 20.472 20.472z" fill="#fee7c9"/><path d="m424.101 345.23v32.5c0 11.301-9.161 20.473-20.473 20.473h-39.502c11.311 0 20.473-9.172 20.473-20.473v-32.5c0-11.311-9.161-20.473-20.473-20.473h39.502c11.311 0 20.473 9.162 20.473 20.473z" fill="#ffd597"/><path d="m41.253 434.337h362.377c11.307 0 20.473 9.166 20.473 20.473v36.716c0 11.307-9.166 20.473-20.473 20.473h-352.141c-5.653 0-10.236-4.583-10.236-10.236z" fill="#ffd597"/><path d="m424.101 454.81v36.718c0 11.301-9.161 20.473-20.473 20.473h-39.502c11.311 0 20.473-9.172 20.473-20.473v-36.718c0-11.311-9.161-20.473-20.473-20.473h39.502c11.311 0 20.473 9.162 20.473 20.473z" fill="#fcc16d"/></g><g id="XMLID_130_"><path d="m102.859 257.465c-.01 0-.02 0-.03 0h-.13c-4.24-.017-7.664-3.467-7.648-7.707.016-4.23 3.45-7.648 7.677-7.648h.03l.13.001c4.24.016 7.664 3.467 7.648 7.707-.017 4.229-3.451 7.647-7.677 7.647z" fill="#e22334"/></g><g id="XMLID_131_"><path d="m129.355 263.677h-.13c-4.24 0-7.677-3.437-7.677-7.677s3.437-7.677 7.677-7.677h.13c4.24 0 7.677 3.437 7.677 7.677s-3.437 7.677-7.677 7.677z" fill="#e22334"/></g><g id="XMLID_132_"><path d="m256.065 254.273c-.01 0-.02 0-.03 0l-.13-.001c-4.24-.016-7.664-3.467-7.648-7.707.016-4.23 3.45-7.648 7.677-7.648h.03.13c4.24.016 7.664 3.467 7.648 7.707-.016 4.231-3.45 7.649-7.677 7.649z" fill="#f82f40"/></g></g></svg>