<svg id="Capa_1" enable-background="new 0 0 512 512" height="512" viewBox="0 0 512 512" width="512" xmlns="http://www.w3.org/2000/svg"><g><g><g><circle cx="137.28" cy="180.61" fill="#fb4a59" r="39.745"/><path d="m177.026 180.607c0 21.953-17.791 39.744-39.744 39.744-4.595 0-9.004-.783-13.114-2.215 15.514-5.419 26.64-20.171 26.64-37.529 0-17.348-11.126-32.111-26.64-37.529 4.11-1.432 8.52-2.215 13.114-2.215 21.953 0 39.744 17.801 39.744 39.744z" fill="#f82f40"/><g><path d="m146.849 179.417c-2.668 0-5.263-1.383-6.695-3.859-2.136-3.693-.874-8.42 2.819-10.557 23.736-13.731 38.482-39.276 38.482-66.664 0-4.267 3.459-7.726 7.726-7.726s7.726 3.459 7.726 7.726c0 32.886-17.702 63.555-46.197 80.04-1.217.705-2.548 1.04-3.861 1.04z" fill="#e22334"/></g><path d="m151.192 171.755c-1.511-1.218-2.63-2.885-3.134-4.759-.327-1.213-.539-2.714-.536-4.561.007-3.736-2.478-7.125-6.143-7.847-3.619-.713-6.911 1.086-8.433 3.986-.546 1.051-.865 2.236-.876 3.503-.01 1.061.021 2.102.093 3.08.474 6.377 2.627 11.198 5.233 14.608 1.719 2.111 3.761 3.807 5.408 4.996.03.022 2.864 1.906 4.492 2.73 1.123.577 2.328.845 3.503.845 2.812 0 5.532-1.535 6.892-4.213 1.937-3.801.433-8.458-3.369-10.395-1.257-.64-2.306-1.324-3.13-1.973z" fill="#e22334"/></g><g><circle cx="249.922" cy="174.429" fill="#fb4a59" r="39.745"/><path d="m289.668 174.426c0 21.953-17.791 39.744-39.744 39.744-4.595 0-9.004-.783-13.114-2.215 15.514-5.419 26.64-20.171 26.64-37.529 0-17.348-11.126-32.111-26.64-37.529 4.11-1.432 8.52-2.215 13.114-2.215 21.953 0 39.744 17.801 39.744 39.744z" fill="#f82f40"/><g><path d="m259.491 173.236c-2.668 0-5.263-1.383-6.695-3.859-2.136-3.693-.874-8.42 2.819-10.557 23.737-13.731 38.482-39.276 38.482-66.664 0-4.267 3.459-7.726 7.726-7.726s7.726 3.459 7.726 7.726c0 32.886-17.702 63.555-46.197 80.04-1.217.704-2.548 1.04-3.861 1.04z" fill="#e22334"/></g><path d="m263.835 165.574c-1.511-1.218-2.63-2.885-3.134-4.759-.327-1.213-.539-2.714-.536-4.561.007-3.736-2.478-7.125-6.143-7.847-3.619-.713-6.911 1.086-8.433 3.986-.546 1.051-.865 2.236-.876 3.503-.01 1.061.021 2.102.093 3.08.474 6.377 2.627 11.198 5.233 14.608 1.719 2.111 3.761 3.807 5.408 4.996.03.022 2.864 1.906 4.492 2.73 1.123.577 2.328.845 3.503.845 2.812 0 5.532-1.535 6.892-4.213 1.937-3.801.433-8.458-3.369-10.395-1.257-.64-2.306-1.324-3.13-1.973z" fill="#e22334"/></g><g><circle cx="362.564" cy="180.61" fill="#fb4a59" r="39.745"/><path d="m402.311 180.607c0 21.953-17.791 39.744-39.744 39.744-4.595 0-9.004-.783-13.114-2.215 15.514-5.419 26.64-20.171 26.64-37.529 0-17.348-11.126-32.111-26.64-37.529 4.11-1.432 8.52-2.215 13.114-2.215 21.952 0 39.744 17.801 39.744 39.744z" fill="#f82f40"/><g><path d="m372.134 179.417c-2.668 0-5.263-1.383-6.695-3.859-2.137-3.693-.874-8.42 2.819-10.557 23.736-13.731 38.482-39.276 38.482-66.664 0-4.267 3.459-7.726 7.726-7.726 4.268 0 7.726 3.459 7.726 7.726 0 32.886-17.701 63.556-46.196 80.04-1.219.705-2.55 1.04-3.862 1.04z" fill="#e22334"/></g><path d="m376.477 171.755c-1.511-1.218-2.63-2.885-3.134-4.759-.327-1.213-.539-2.714-.536-4.561.007-3.736-2.478-7.125-6.143-7.847-3.619-.713-6.911 1.086-8.433 3.986-.546 1.051-.865 2.236-.876 3.503-.01 1.061.021 2.102.093 3.08.474 6.377 2.627 11.198 5.233 14.608 1.719 2.111 3.761 3.807 5.408 4.996.03.022 2.864 1.906 4.492 2.73 1.123.577 2.328.845 3.503.845 2.812 0 5.532-1.535 6.892-4.213 1.937-3.801.433-8.458-3.369-10.395-1.257-.64-2.306-1.324-3.13-1.973z" fill="#e22334"/></g></g><g><g><path d="m256 239.579c-68.837 0-135.654 7.871-197.32 22.86v66.622h394.641v-66.622c-61.667-14.99-128.484-22.86-197.321-22.86z" fill="#fb4a59"/></g><g><path d="m453.321 262.439v66.622h-53.899v-77.655c18.337 3.09 36.334 6.768 53.899 11.033z" fill="#f82f40"/></g><g><path d="m58.68 323.631h394.641v80.472h-394.641z" fill="#fb8189"/></g><g><path d="m399.427 323.631h53.894v80.472h-53.894z" fill="#fb6672"/></g><g fill="#c58d7c"><path d="m155.825 302.595-30.905 37.426h-66.24v-37.426z"/><path d="m256.361 302.595-30.906 37.426h-71.381l30.905-37.426z"/><path d="m356.896 302.595-30.906 37.426h-71.381l30.906-37.426z"/><path d="m453.321 302.595v37.426h-98.177l30.906-37.426z"/></g><g><g><path d="m191.162 302.599-30.905 37.427h-40.485l30.906-37.427z" fill="#925b46"/></g><g><path d="m291.695 302.599-30.906 37.427h-40.484l30.905-37.427z" fill="#925b46"/></g><g><path d="m392.228 302.599-30.906 37.427h-40.484l30.905-37.427z" fill="#925b46"/></g></g><path d="m399.427 302.599h53.894v37.426h-53.894z" fill="#ba7c65"/><g><path d="m256 204.557c-68.837 0-135.654 7.871-197.32 22.86v48.295c60.976-15.907 127.958-24.282 197.32-24.282s136.344 8.375 197.321 24.281v-48.295c-61.667-14.988-128.484-22.859-197.321-22.859z" fill="#ffd597"/></g><g><path d="m399.427 216.377v47.546c18.4 3.3 36.4 7.226 53.894 11.789v-48.295c-17.568-4.27-35.562-7.947-53.894-11.04z" fill="#fcc16d"/></g><path d="m463.417 191.943c-2.907-.703-6.019-.879-9.242-.368-11.492 1.823-19.763 12.064-19.763 23.699v165.352h-356.824v-165.352c0-11.636-8.272-21.877-19.764-23.699-3.223-.511-6.334-.334-9.24.368l-30.724 7.567c-12.586 3.1-20.275 15.817-17.173 28.402l.001.005c3.102 12.586 15.82 20.275 28.406 17.174l1.549-.382v157.106c0 14.224 11.531 25.754 25.754 25.754h399.203c14.224 0 25.754-11.531 25.754-25.754v-157.106l1.549.382c12.587 3.101 25.304-4.587 28.406-17.174 3.102-12.588-4.588-25.307-17.176-28.408z" fill="#fcc16d"/><path d="m494.136 199.505-12.97-3.194c1.617 3.204 2.503 6.799 2.503 10.508 0 1.865-.227 3.76-.69 5.645-2.924 11.873-14.398 19.378-26.254 17.592-.844-.127-1.703.061-2.381.579-.038.029-.075.058-.113.086-.754.575-1.199 1.467-1.199 2.415v168.674c0 14.227-11.538 25.754-25.754 25.754h28.32c14.224 0 25.754-11.531 25.754-25.754v-157.101l1.556.381c12.589 3.101 25.301-4.584 28.402-17.173.464-1.885.69-3.781.69-5.635 0-10.549-7.16-20.14-17.864-22.777z" fill="#fcb44d"/></g></g></svg>