<svg id="Capa_1" enable-background="new 0 0 512 512" height="512" viewBox="0 0 512 512" width="512" xmlns="http://www.w3.org/2000/svg"><g><g><path d="m395.867 217.793v72.253h-395.867v-142.39c124.163 0 241.287 15.569 329.786 43.848 26.059 8.332 47.874 17.175 66.081 26.289z" fill="#fb8189"/><path d="m395.867 217.793v72.253h-45.423v-91.513c17.185 6.225 32.253 12.67 45.423 19.26z" fill="#fb6672"/><path d="m395.867 278.83v59.959c0 8.634-6.997 15.642-15.642 15.642h-380.225v-75.601z" fill="#a96a53"/><path d="m350.439 278.83v75.601h29.786c8.644 0 15.642-7.007 15.642-15.642v-59.959z" fill="#925b46"/><g><path d="m329.788 149.506c26.059 8.332 47.874 17.174 66.08 26.288v66.174c-17.957-12.378-45.006-25.527-83.536-37.832-83.015-26.528-193.936-41.137-312.332-41.137v-41.621c0-8.696 7.096-15.74 15.792-15.647 118.275 1.263 229.258 16.697 313.996 43.775z" fill="#fb4a59"/></g><g><path d="m350.439 156.533v61.501c19.158 8.015 34.104 16.128 45.429 23.935v-66.174c-13.17-6.594-28.241-13.044-45.429-19.262z" fill="#f82f40"/></g><g><path d="m509.978 170.666c5.875-14.952-1.484-31.835-16.436-37.709l-62.329-24.485c-3.79-1.808-8.031-2.823-12.509-2.823-16.064 0-29.087 13.023-29.087 29.087v197.796c0 8.639-7.003 15.642-15.642 15.642h-373.975v42.535c0 8.639 7.003 15.642 15.642 15.642h380.009c28.795 0 52.138-23.343 52.138-52.138v-176.726l24.484 9.616c14.951 5.871 31.831-1.487 37.705-16.437z" fill="#fcc16d"/></g><path d="m509.977 170.67c-5.871 14.943-22.753 22.305-37.707 16.434l-24.484-9.614v176.718c0 28.801-23.337 52.138-52.139 52.138h-28.885c28.801 0 52.139-23.337 52.139-52.138v-198.96c0-7.352 7.404-12.399 14.244-9.708l10.24 4.025c14.953 5.871 31.836-1.491 37.707-16.434.594-1.502 1.043-3.014 1.366-4.536l11.085 4.359c14.953 5.88 22.305 22.763 16.434 37.716z" fill="#fcb44d"/></g><g><path d="m95.365 303.256h-40.433c-5.759 0-10.428-4.669-10.428-10.428v-40.432c0-5.759 4.669-10.428 10.428-10.428h40.432c5.759 0 10.428 4.669 10.428 10.428v40.432c0 5.759-4.668 10.428-10.427 10.428z" fill="#fee7c9"/><path d="m105.79 252.401v40.428c0 5.756-4.672 10.428-10.428 10.428h-28.186c5.767 0 10.428-4.672 10.428-10.428v-40.428c0-5.766-4.661-10.428-10.428-10.428h28.186c5.757 0 10.428 4.661 10.428 10.428z" fill="#ffd597"/></g><g><path d="m204.584 303.256h-40.432c-5.759 0-10.428-4.669-10.428-10.428v-40.432c0-5.759 4.669-10.428 10.428-10.428h40.432c5.759 0 10.428 4.669 10.428 10.428v40.432c0 5.759-4.668 10.428-10.428 10.428z" fill="#fee7c9"/><path d="m215.01 252.401v40.428c0 5.756-4.672 10.428-10.428 10.428h-28.186c5.767 0 10.428-4.672 10.428-10.428v-40.428c0-5.766-4.661-10.428-10.428-10.428h28.186c5.757 0 10.428 4.661 10.428 10.428z" fill="#ffd597"/></g><g><path d="m313.804 303.256h-40.432c-5.759 0-10.428-4.669-10.428-10.428v-40.432c0-5.759 4.669-10.428 10.428-10.428h40.432c5.759 0 10.428 4.669 10.428 10.428v40.432c0 5.759-4.669 10.428-10.428 10.428z" fill="#fee7c9"/><path d="m324.23 252.401v40.428c0 5.756-4.672 10.428-10.428 10.428h-28.186c5.767 0 10.428-4.672 10.428-10.428v-40.428c0-5.766-4.661-10.428-10.428-10.428h28.186c5.757 0 10.428 4.661 10.428 10.428z" fill="#ffd597"/></g><g id="XMLID_97_"><path d="m51.367 212.611h-.108c-4.32 0-7.821-3.502-7.821-7.821s3.501-7.821 7.821-7.821h.108c4.32 0 7.821 3.502 7.821 7.821s-3.502 7.821-7.821 7.821z" fill="#fb6672"/></g><g id="XMLID_134_"><path d="m78.077 200.657h-.108c-4.32 0-7.821-3.502-7.821-7.821s3.501-7.821 7.821-7.821h.108c4.32 0 7.821 3.502 7.821 7.821s-3.501 7.821-7.821 7.821z" fill="#fb6672"/></g><g id="XMLID_136_"><path d="m134.162 218.868h-.108c-4.32 0-7.821-3.502-7.821-7.821s3.501-7.821 7.821-7.821h.108c4.32 0 7.821 3.502 7.821 7.821s-3.501 7.821-7.821 7.821z" fill="#fb4a59"/></g><g id="XMLID_137_"><path d="m241.587 234.106c-.013 0-.025 0-.038 0l-.108-.001c-4.32-.02-7.804-3.538-7.784-7.857.02-4.307 3.518-7.784 7.82-7.784h.038l.108.001c4.32.02 7.804 3.538 7.784 7.857-.021 4.307-3.519 7.784-7.82 7.784z" fill="#f82f40"/></g><g id="XMLID_140_"><path d="m215.067 218.868c-.013 0-.025 0-.038 0l-.108-.001c-4.32-.02-7.804-3.538-7.784-7.857.02-4.307 3.518-7.784 7.82-7.784h.038l.108.001c4.32.02 7.804 3.538 7.784 7.857-.02 4.307-3.518 7.784-7.82 7.784z" fill="#fb6672"/></g></g></svg>