<svg id="Capa_1" enable-background="new 0 0 512 512" height="512" viewBox="0 0 512 512" width="512" xmlns="http://www.w3.org/2000/svg"><g><g><path d="m475.355 261.928c5.289-14.091 8.133-28.922 8.133-44.244 0-92.049-101.85-166.669-227.488-166.669s-227.488 74.62-227.488 166.669c0 15.322 2.844 30.153 8.133 44.244z" fill="#ba7c65"/><path d="m483.487 217.682c0 15.319-2.843 30.154-8.128 44.247h-46.997c5.295-14.093 8.138-28.928 8.138-44.247 0-86.237-89.4-157.176-203.998-165.778 7.726-.587 15.566-.886 23.499-.886 125.641 0 227.486 74.617 227.486 166.664z" fill="#a96a53"/><g fill="#fcc16d"><path d="m61.057 234.778 80.108 233.328h-20.934c-9.282 0-17.719-5.429-21.562-13.887l-96.518-212.219c-7.036-15.473 4.028-33.316 21.026-33.502h.371c12.331 0 23.293 6.696 29.051 16.658 2.164 3.729 5.048 6.995 8.458 9.622z"/><path d="m175.13 232.965 34.604 235.141h-44.587l-58.277-237.624c1.453-1.638 2.74-3.42 3.843-5.326 5.759-9.962 16.73-16.658 29.062-16.658 12.331 0 23.293 6.696 29.051 16.658 1.689 2.916 3.821 5.543 6.304 7.809z"/><path d="m285.062 225.156c1.339 2.328 2.977 4.471 4.842 6.397l-11.61 236.552h-44.587l-11.61-236.552c1.865-1.926 3.503-4.069 4.842-6.397 5.769-9.962 16.73-16.658 29.062-16.658 12.33 0 23.292 6.696 29.061 16.658z"/><path d="m405.13 230.482-58.278 237.624h-44.587l34.604-235.141c2.483-2.266 4.615-4.893 6.305-7.809 5.759-9.962 16.72-16.658 29.051-16.658s23.303 6.696 29.062 16.658c1.103 1.906 2.391 3.688 3.843 5.326z"/><path d="m509.849 242-96.518 212.219c-3.843 8.458-12.28 13.887-21.562 13.887h-20.934l80.108-233.328c3.41-2.627 6.295-5.893 8.458-9.622 5.759-9.962 16.72-16.658 29.052-16.658h.371c16.997.185 28.061 18.028 21.025 33.502z"/></g><path d="m509.849 241.995-96.518 212.23c-3.843 8.458-12.28 13.887-21.562 13.887h-44.01c45.225-94.541 107.809-236.346 111.642-242.96 5.759-9.952 16.72-16.648 29.052-16.648h.371c16.997.184 28.061 18.017 21.025 33.491z" fill="#fcb44d"/><path d="m459.401 225.16-83.414 242.95h-34.285l59.586-242.95c5.759 9.952 16.72 16.648 29.051 16.648s23.293-6.696 29.062-16.648z" fill="#fb9927"/><path d="m343.175 225.16-35.758 242.95h-34.274l11.919-242.95c5.759 9.952 16.72 16.648 29.051 16.648s23.293-6.696 29.062-16.648z" fill="#fb9927"/><path d="m238.858 468.11h-34.274l-35.758-242.95c5.769 9.952 16.73 16.648 29.062 16.648 12.331 0 23.292-6.696 29.051-16.648z" fill="#fb9927"/><path d="m170.299 468.11h-34.285l-83.415-242.95c5.769 9.952 16.73 16.648 29.062 16.648s23.293-6.696 29.051-16.648z" fill="#fb9927"/><g id="XMLID_78_"><path d="m224.838 180.891c-.013 0-.025 0-.037 0l-.107-.001c-4.268-.02-7.71-3.495-7.69-7.763.02-4.255 3.476-7.69 7.725-7.69h.037l.107.001c4.268.02 7.71 3.495 7.69 7.763-.02 4.255-3.476 7.69-7.725 7.69z" fill="#a96a53"/></g><g id="XMLID_247_"><path d="m90.471 189.627c-.013 0-.025 0-.037 0l-.107-.001c-4.268-.02-7.71-3.495-7.69-7.763.02-4.255 3.476-7.69 7.725-7.69h.037l.107.001c4.268.02 7.71 3.495 7.69 7.763-.019 4.255-3.475 7.69-7.725 7.69z" fill="#a96a53"/></g><g id="XMLID_248_"><path d="m218.947 109.099c-.013 0-.025 0-.037 0l-.107-.001c-4.268-.02-7.71-3.495-7.69-7.763.02-4.255 3.476-7.69 7.725-7.69h.037l.107.001c4.268.02 7.71 3.495 7.69 7.763-.019 4.255-3.475 7.69-7.725 7.69z" fill="#865240"/></g><g id="XMLID_243_"><path d="m241.133 156.034c-.013 0-.025 0-.037 0l-.107-.001c-4.268-.02-7.71-3.495-7.69-7.763.02-4.255 3.476-7.69 7.725-7.69h.037l.107.001c4.268.02 7.71 3.495 7.69 7.763-.02 4.255-3.476 7.69-7.725 7.69z" fill="#865240"/></g><g id="XMLID_244_"><path d="m287.717 188.573c-.013 0-.025 0-.037 0l-.107-.001c-4.268-.02-7.71-3.495-7.69-7.763.02-4.255 3.476-7.69 7.725-7.69h.037l.107.001c4.268.02 7.71 3.495 7.69 7.763-.02 4.255-3.476 7.69-7.725 7.69z" fill="#fee7c9"/></g><g id="XMLID_245_"><path d="m429.878 188.573h-.107c-4.268 0-7.726-3.459-7.726-7.726s3.459-7.726 7.726-7.726h.107c4.268 0 7.726 3.459 7.726 7.726s-3.459 7.726-7.726 7.726z" fill="#865240"/></g><g id="XMLID_246_"><path d="m343.228 103.312h-.107c-4.268 0-7.726-3.459-7.726-7.726s3.459-7.726 7.726-7.726h.107c4.268 0 7.726 3.459 7.726 7.726s-3.458 7.726-7.726 7.726z" fill="#a96a53"/></g></g><g><path d="m316.412 115.753 69.106 10.579c3.763.576 5.622 4.894 3.456 8.024l-22.753 32.865c-.962 1.39-2.545 2.219-4.235 2.219h-37.347c-2.442 0-4.548-1.714-5.044-4.105l-9.006-43.444c-.729-3.517 2.273-6.682 5.823-6.138z" fill="#865240"/><path d="m388.977 134.36-22.757 32.863c-.958 1.391-2.545 2.215-4.234 2.215h-32.544c1.947 0 3.77-.958 4.883-2.555l26.229-37.901c1.422-2.05 1.35-4.543.206-6.439l24.755 3.791c3.761.578 5.625 4.894 3.462 8.026z" fill="#7b4b39"/></g><g><path d="m304.504 79.352-32.164 18.337c-1.504.858-3.366.78-4.794-.199l-32.265-22.135c-2.064-1.416-2.584-4.24-1.159-6.298l16.074-23.218c.844-1.219 2.232-1.946 3.715-1.946h34.848c1.711 0 3.276.967 4.041 2.498l13.508 27.016c1.073 2.145.281 4.756-1.804 5.945z" fill="#865240"/><path d="m304.501 79.348-32.163 18.337c-1.504.865-3.369.783-4.79-.196l-15.865-10.889 23.9-13.629c2.081-1.185 2.874-3.801 1.803-5.944l-11.569-23.138h22.942c1.71 0 3.276.968 4.038 2.503l13.506 27.012c1.083 2.153.289 4.759-1.802 5.944z" fill="#7b4b39"/></g><g><path d="m109.892 136.925 42.715-24.352c1.914-1.091 4.332-.678 5.776.986l23.732 27.367c1.382 1.593 1.508 3.92.308 5.654l-17.027 24.595c-.863 1.246-2.281 1.989-3.797 1.989h-35.615c-1.749 0-3.348-.988-4.13-2.553l-13.805-27.61c-1.098-2.193-.288-4.861 1.843-6.076z" fill="#fee7c9"/><path d="m182.424 146.578-17.029 24.601c-.865 1.247-2.277 1.988-3.791 1.988h-26.496c1.514 0 2.926-.742 3.791-1.988l17.029-24.601c1.195-1.731 1.071-4.059-.309-5.656l-17.451-20.12 14.443-8.231c1.906-1.092 4.327-.68 5.769.989l23.736 27.362c1.379 1.597 1.503 3.926.308 5.656z" fill="#ffd597"/></g></g></svg>