<svg id="Capa_1" enable-background="new 0 0 512 512" height="512" viewBox="0 0 512 512" width="512" xmlns="http://www.w3.org/2000/svg"><g><g><circle cx="256" cy="112.191" fill="#fb4a59" r="48.595"/><path d="m304.594 112.196c0 26.836-21.758 48.594-48.594 48.594-6.325 0-12.362-1.205-17.905-3.41 17.966-7.129 30.679-24.673 30.679-45.184 0-20.521-12.712-38.065-30.679-45.194 5.542-2.205 11.579-3.41 17.905-3.41 26.836 0 48.594 21.757 48.594 48.604z" fill="#f82f40"/><path d="m463.407 176.851v49.016h-414.813v-49.016c0-14.227 11.528-25.755 25.755-25.755h363.304c14.226 0 25.754 11.528 25.754 25.755z" fill="#a96a53"/><path d="m48.594 270.937h414.813v111.764h-414.813z" fill="#a96a53"/><path d="m463.407 176.851v49.016h-48.594v-49.016c0-14.227-11.528-25.755-25.755-25.755h48.594c14.227 0 25.755 11.528 25.755 25.755z" fill="#925b46"/><path d="m414.813 270.937h48.594v111.764h-48.594z" fill="#925b46"/><path d="m48.594 214.493h414.813v70.959h-414.813z" fill="#dcf1d1"/><path d="m414.813 214.493h48.594v70.959h-48.594z" fill="#c2e8b1"/><g><g fill="#faf7f7"><path d="m162.985 508.116 55.135.01h-104.872c-8.087 0-15.638-4.069-20.099-10.817l-89.142-134.943c-8.839-13.372-2.4-31.472 12.888-36.273l3.431-1.071c5.8-1.813 12.074-1.38 17.554 1.236l37.787 17.966c4.955 2.359 10.518 2.926 15.772 1.71z"/><path d="m318.707 345.78-24.827 162.346h-75.76l-23.354-162.016c4.996.979 10.23.34 14.917-1.885l35.974-17.111c6.542-3.111 14.144-3.111 20.686 0l35.974 17.111c5.151 2.451 10.961 2.966 16.39 1.555z"/><path d="m507.993 362.366-89.142 134.944c-4.461 6.748-12.012 10.817-20.099 10.817h-104.872l55.135-.01 72.607-161.965c4.935.917 10.085.268 14.711-1.926l37.787-17.966c5.481-2.617 11.754-3.049 17.554-1.236l3.43 1.071c15.289 4.799 21.728 22.899 12.889 36.271z"/></g><path d="m312.578 346.562-23.849 161.563h-30.627s23.519-166.673 24.302-173.38l19.913 9.478c3.255 1.546 6.758 2.329 10.261 2.339z" fill="#f3eae6"/><path d="m507.993 362.365-89.142 134.944c-4.461 6.758-12.012 10.817-20.099 10.817h-44.957c8.097 0 15.648-4.059 20.109-10.817l89.142-134.944c6.408-9.694 4.78-21.881-2.431-29.68l13.506-6.428c5.481-2.617 11.754-3.049 17.554-1.236l3.43 1.071c15.288 4.801 21.727 22.901 12.888 36.273z" fill="#f3eae6"/><path d="m425.75 346.544-71.587 161.569v.01h-65.439l23.852-161.569c3.562.021 7.134-.765 10.433-2.336l35.972-17.106c6.547-3.111 14.142-3.111 20.689 0l35.972 17.106c3.195 1.53 6.652 2.305 10.108 2.326z" fill="#e0d3ce"/><path d="m425.753 346.542-71.587 161.574v.01h-39.641v-.01l77.284-175.234 23.828 11.342c3.204 1.524 6.655 2.297 10.116 2.318z" fill="#cdbfbb"/><path d="m157.837 508.124v-.01l-71.587-161.57c3.457-.021 6.914-.796 10.109-2.326l35.972-17.106c6.547-3.111 14.141-3.111 20.688 0l35.972 17.106c3.3 1.571 6.872 2.357 10.433 2.336l23.852 161.569h-65.439z" fill="#e0d3ce"/><path d="m223.271 508.126h-37.653l-27.835-178.747 31.204 14.845c3.307 1.566 6.871 2.349 10.436 2.328z" fill="#cdbfbb"/></g><g><path d="m267.698 109.012c-2.668 0-5.263-1.383-6.695-3.858-2.137-3.694-.875-8.421 2.818-10.557 29.553-17.097 47.91-48.898 47.91-82.997 0-4.268 3.459-7.726 7.726-7.726s7.726 3.459 7.726 7.726c0 39.596-21.314 76.523-55.624 96.372-1.217.705-2.548 1.04-3.861 1.04z" fill="#e22334"/></g><g><path d="m279.422 116.07c-13.754 0-24.944-11.189-24.944-24.943 0-4.268 3.459-7.726 7.726-7.726s7.726 3.459 7.726 7.726c0 5.232 4.258 9.49 9.491 9.49 4.267 0 7.726 3.459 7.726 7.726s-3.458 7.727-7.725 7.727z" fill="#e22334"/></g></g><g><g><path d="m114.669 260.789c-2.23 0-4.443-.961-5.97-2.817l-6.962-8.46c-2.712-3.295-2.239-8.164 1.056-10.875 3.296-2.712 8.164-2.236 10.875 1.056l6.962 8.46c2.712 3.295 2.239 8.164-1.056 10.875-1.439 1.185-3.177 1.761-4.905 1.761z" fill="#a96a53"/></g><g><path d="m211.213 260.789c-2.23 0-4.443-.961-5.97-2.817l-6.962-8.46c-2.712-3.295-2.239-8.164 1.056-10.875 3.296-2.712 8.165-2.236 10.875 1.056l6.962 8.46c2.712 3.295 2.239 8.164-1.056 10.875-1.438 1.185-3.177 1.761-4.905 1.761z" fill="#a96a53"/></g><g><path d="m307.758 260.789c-2.23 0-4.443-.961-5.97-2.817l-6.962-8.46c-2.712-3.295-2.239-8.164 1.056-10.875 3.296-2.712 8.165-2.236 10.875 1.056l6.962 8.46c2.712 3.295 2.239 8.164-1.056 10.875-1.439 1.185-3.178 1.761-4.905 1.761z" fill="#a96a53"/></g><g><path d="m404.302 260.789c-2.23 0-4.443-.961-5.97-2.817l-6.962-8.46c-2.712-3.295-2.239-8.164 1.056-10.875 3.296-2.712 8.164-2.236 10.875 1.056l6.962 8.46c2.712 3.295 2.239 8.164-1.056 10.875-1.439 1.185-3.177 1.761-4.905 1.761z" fill="#a96a53"/></g></g></g></svg>