<svg id="Capa_1" enable-background="new 0 0 512 512" height="512" viewBox="0 0 512 512" width="512" xmlns="http://www.w3.org/2000/svg"><g><g><g><path d="m511.27 446.575c0 36.138-29.287 65.425-65.425 65.425h-379.69c-18.069 0-34.423-7.324-46.267-19.158-11.833-11.844-19.158-28.198-19.158-46.267 0-32.183 16.919-82.909 45.579-133.326h419.382c28.66 50.417 45.579 101.143 45.579 133.326z" fill="#fcb44d"/><g fill="#fca62f"><path d="m481.911 344.395c-.247.216-.462.401-.647.565l-.216.185c-.051.041-.072.082-.072.092v49.287c0 24.048-19.579 43.637-43.637 43.637h-.863c-24.058 0-43.637-19.589-43.637-43.637v-48.743c0-.39-.318-.719-.719-.719h-.853c-.39 0-.719.329-.719.719v98.749c0 24.058-19.579 43.637-43.637 43.637h-.853c-24.058 0-43.637-19.579-43.637-43.637v-59.457c0-.39-.329-.719-.719-.719h-.699c-.544 0-.863.39-.894.452l.021 20.73c0 24.294-19.764 44.058-44.069 44.058-24.294 0-44.058-19.764-44.058-44.058v-59.755c0-.39-.318-.719-.719-.719h-.853c-.401 0-.719.329-.719.719v98.749c0 24.058-19.579 43.637-43.637 43.637h-.853c-24.058 0-43.637-19.579-43.637-43.637v-49.79c0-.401-.318-.719-.719-.719h-.709c-.544 0-.853.38-.894.442.092 11.669-4.448 22.692-12.748 30.961-8.177 8.197-19.117 12.738-30.756 12.738h-.966c-24.058 0-43.637-19.589-43.637-43.637v-49.246c0-.031 0-.113-.134-.195-.329-.175-.668-.37-.986-.575 4.89-10.324 10.334-20.802 16.292-31.259h419.361c5.929 10.426 11.353 20.852 16.222 31.145z"/><path d="m511.27 446.585c0 36.128-29.287 65.415-65.425 65.415h-33.016c36.128 0 65.415-29.287 65.415-65.415 0-32.183-16.908-82.919-45.579-133.336h33.016c28.67 50.417 45.589 101.153 45.589 133.336z"/></g></g><path d="m471.015 305.519c-48.825-82.81-127.499-162.679-215.015-162.679-89.65 0-170.024 83.804-218.527 168.728-.625 1.095-1.112 2.272-1.346 3.511-.909 4.818 1.453 9.106 5.312 11.247 6.663 3.696 11.176 10.796 11.176 18.956v49.235c0 12.252 9.932 22.183 22.183 22.183h.961c6.095 0 11.61-2.468 15.601-6.47 4.028-4.017 6.501-9.577 6.47-15.718-.063-12.187 10.145-21.955 22.332-21.955h.701c12.252 0 22.183 9.932 22.183 22.183v49.788c0 12.252 9.932 22.183 22.183 22.183h.838c12.252 0 22.183-9.932 22.183-22.183v-98.738c0-12.252 9.932-22.183 22.183-22.183h.849c12.252 0 22.183 9.932 22.183 22.183v59.751c0 12.483 10.119 22.602 22.602 22.602 12.483 0 22.602-10.119 22.602-22.602v-20.686c-.063-12.187 10.145-21.955 22.332-21.955h.69c12.252 0 22.183 9.932 22.183 22.183v59.445c0 12.252 9.932 22.183 22.183 22.183h.849c12.252 0 22.183-9.932 22.183-22.183v-98.738c0-12.252 9.932-22.183 22.183-22.183h.838c12.252 0 22.183 9.932 22.183 22.183v48.726c0 12.251 9.932 22.183 22.183 22.183h.849c12.252 0 22.183-9.932 22.183-22.183v-49.235c0-6.503 2.87-12.321 7.406-16.288.555-.485 1.124-.956 1.624-1.497 5.722-6.182 6.528-15.107 2.477-21.977z" fill="#83d167"/><path d="m473.549 314.819c0 2.725-.601 5.451-1.813 7.972-1.137 2.404-2.843 4.474-4.839 6.223-4.528 3.97-7.382 9.775-7.382 16.267v49.24c0 12.243-9.936 22.179-22.179 22.179h-.858c-6.331 0-12.05-2.661-16.084-6.921 3.788-3.981 6.095-9.356 6.095-15.258v-49.24c0-6.492 2.865-12.297 7.382-16.267 2.006-1.749 3.702-3.82 4.85-6.223 1.202-2.522 1.803-5.247 1.803-7.972 0-3.219-.848-6.438-2.532-9.303-45.722-77.556-117.634-152.536-198.484-161.732 5.461-.622 10.955-.944 16.492-.944 87.513 0 166.185 79.874 215.017 162.676 1.685 2.865 2.532 6.084 2.532 9.303z" fill="#6bc94d"/><path d="m399.416 212.466c-34.4 12.028-85.882 19.668-143.416 19.668s-109.016-7.64-143.416-19.668c41.589-40.881 90.915-69.626 143.416-69.626s101.816 28.745 143.416 69.626z" fill="#6bc94d"/><circle cx="256" cy="95.305" fill="#fb4a59" r="50.614"/><path d="m306.613 95.306c0 27.951-22.662 50.613-50.613 50.613-7.092 0-13.852-1.459-19.979-4.11 18.016-7.747 30.623-25.655 30.623-46.504s-12.608-38.756-30.623-46.503c6.127-2.65 12.887-4.11 19.979-4.11 27.951.001 50.613 22.663 50.613 50.614z" fill="#f82f40"/><g><path d="m268.184 91.649c-2.66 0-5.248-1.379-6.676-3.847-2.13-3.684-.872-8.396 2.811-10.527 26.25-15.186 44.04-40.987 48.809-70.788.673-4.202 4.62-7.053 8.825-6.391 4.201.673 7.062 4.624 6.39 8.825-5.503 34.4-26.027 64.176-56.308 81.693-1.215.701-2.542 1.035-3.851 1.035z" fill="#e22334"/></g><g><path d="m280.395 99.003c-14.136 0-25.636-11.5-25.636-25.637 0-4.255 3.449-7.704 7.704-7.704s7.704 3.449 7.704 7.704c0 5.64 4.588 10.228 10.228 10.228 4.255 0 7.704 3.449 7.704 7.704 0 4.256-3.45 7.705-7.704 7.705z" fill="#e22334"/></g><circle cx="156.936" cy="162.014" fill="#ffd597" r="40.449"/><path d="m197.382 162.014c0 22.34-18.112 40.452-40.452 40.452-5.343 0-10.429-1.03-15.097-2.908 14.85-5.987 25.344-20.548 25.344-37.544s-10.494-31.557-25.344-37.544c4.668-1.878 9.754-2.908 15.097-2.908 22.34 0 40.452 18.113 40.452 40.452z" fill="#fcc16d"/><circle cx="222.979" cy="162.014" fill="#fb8189" r="40.449"/><path d="m263.425 162.014c0 22.34-18.112 40.452-40.452 40.452-5.333 0-10.429-1.03-15.097-2.908 14.861-5.998 25.344-20.548 25.344-37.544s-10.483-31.546-25.344-37.533c4.667-1.888 9.764-2.919 15.097-2.919 22.34 0 40.452 18.113 40.452 40.452z" fill="#fb6672"/><circle cx="289.021" cy="162.014" fill="#ffd597" r="40.449"/><path d="m329.468 162.014c0 22.34-18.112 40.452-40.441 40.452-5.344 0-10.44-1.03-15.108-2.908 14.85-5.987 25.344-20.548 25.344-37.544s-10.494-31.557-25.344-37.544c4.667-1.878 9.764-2.908 15.108-2.908 22.329 0 40.441 18.113 40.441 40.452z" fill="#fcc16d"/><circle cx="355.064" cy="162.014" fill="#fb8189" r="40.449"/><path d="m395.51 162.014c0 22.34-18.112 40.452-40.441 40.452-5.344 0-10.44-1.041-15.108-2.919 14.861-5.987 25.344-20.537 25.344-37.533s-10.483-31.546-25.344-37.533c4.667-1.878 9.764-2.919 15.108-2.919 22.329 0 40.441 18.113 40.441 40.452z" fill="#fb6672"/></g><g><path d="m344.009 274.123c-14.865 0-26.959-12.094-26.959-26.959 0-4.255 3.449-7.704 7.704-7.704s7.704 3.449 7.704 7.704c0 6.369 5.181 11.55 11.55 11.55s11.55-5.181 11.55-11.55c0-4.255 3.449-7.704 7.704-7.704s7.704 3.449 7.704 7.704c.002 14.865-12.091 26.959-26.957 26.959z" fill="#c2e8b1"/></g><g><path d="m291.06 320.835c-14.865 0-26.959-12.094-26.959-26.96 0-4.255 3.449-7.704 7.704-7.704s7.704 3.449 7.704 7.704c0 6.369 5.181 11.551 11.55 11.551s11.55-5.182 11.55-11.551c0-4.255 3.449-7.704 7.704-7.704s7.704 3.449 7.704 7.704c.002 14.866-12.092 26.96-26.957 26.96z" fill="#c2e8b1"/></g></g></svg>