<svg id="Capa_1" enable-background="new 0 0 512 512" height="512" viewBox="0 0 512 512" width="512" xmlns="http://www.w3.org/2000/svg"><g><g><path d="m512 256c0-10.853-6.135-21.225-17.305-30.763-8.921-7.618-11.447-20.503-6.064-30.926 6.74-13.049 8.503-24.968 4.404-35.014-4.2-10.291-14.16-17.689-28.652-22.283-11.622-3.684-19.037-14.846-17.927-26.987 1.384-15.139-1.577-27.189-9.432-35.05-7.674-7.667-19.347-10.664-33.989-9.508-11.695.923-22.595-6.401-26.159-17.578-4.463-13.995-11.645-23.669-21.648-27.874-10.242-4.306-22.514-2.497-36.009 4.502-10.826 5.614-23.964 2.963-31.767-6.408-9.729-11.684-20.34-18.111-31.452-18.111s-21.723 6.427-31.451 18.11c-7.803 9.371-20.941 12.021-31.767 6.408-13.496-6.998-25.768-8.808-36.009-4.502-10.003 4.205-17.185 13.879-21.648 27.874-3.565 11.177-14.464 18.501-26.159 17.578-14.642-1.155-26.315 1.841-33.989 9.508-7.855 7.862-10.816 19.911-9.432 35.05 1.11 12.141-6.305 23.304-17.927 26.987-14.492 4.593-24.452 11.992-28.652 22.283-4.099 10.046-2.336 21.964 4.404 35.014 5.383 10.423 2.857 23.308-6.064 30.926-11.171 9.539-17.306 19.911-17.306 30.764s6.135 21.224 17.305 30.763c8.921 7.618 11.447 20.503 6.064 30.926-6.74 13.05-8.503 24.968-4.404 35.014 4.2 10.291 14.16 17.689 28.652 22.283 11.622 3.684 19.037 14.846 17.927 26.987-1.384 15.139 1.577 27.189 9.432 35.05 7.674 7.667 19.347 10.664 33.989 9.508 11.695-.923 22.595 6.401 26.159 17.578 4.463 13.995 11.645 23.669 21.648 27.874 10.241 4.306 22.513 2.496 36.009-4.502 10.826-5.614 23.964-2.963 31.767 6.408 9.729 11.684 20.34 18.111 31.452 18.111s21.723-6.427 31.451-18.11c7.803-9.371 20.941-12.022 31.767-6.408 13.496 6.998 25.768 8.808 36.009 4.502 10.003-4.205 17.185-13.879 21.648-27.874 3.565-11.177 14.464-18.501 26.159-17.578 14.642 1.155 26.315-1.841 33.989-9.508 7.855-7.862 10.816-19.911 9.432-35.05-1.11-12.141 6.305-23.303 17.927-26.987 14.492-4.593 24.452-11.992 28.652-22.283 4.099-10.046 2.336-21.964-4.404-35.014-5.383-10.423-2.857-23.308 6.064-30.926 11.171-9.54 17.306-19.911 17.306-30.764z" fill="#fcc16d"/><path d="m488.636 317.687c6.737 13.052 8.499 24.972 4.399 35.016-4.203 10.292-14.165 17.688-28.649 22.283-11.62 3.688-19.038 14.845-17.925 26.991 1.38 15.133-1.586 27.186-9.436 35.047-7.675 7.665-19.347 10.662-33.986 9.509-11.703-.927-22.602 6.397-26.167 17.575-4.461 14-11.641 23.674-21.644 27.877-10.24 4.306-22.51 2.493-36.005-4.502-3.503-1.813-7.242-2.771-10.961-2.905 4.759-5.058 8.468-11.96 11.188-20.47 3.564-11.178 14.464-18.502 26.156-17.575 14.639 1.154 26.311-1.844 33.986-9.509 7.86-7.86 10.817-19.913 9.436-35.047-1.113-12.146 6.305-23.303 17.925-26.991 14.495-4.595 24.446-11.991 28.649-22.283 4.1-10.044 2.338-21.963-4.399-35.016-5.388-10.425-2.864-23.303 6.057-30.926 11.178-9.539 17.307-19.903 17.307-30.761s-6.13-21.222-17.307-30.761c-8.921-7.623-11.445-20.501-6.057-30.926 6.737-13.052 8.499-24.972 4.399-35.016-4.203-10.292-14.155-17.688-28.649-22.283-11.62-3.688-19.038-14.845-17.925-26.991 1.38-15.133-1.576-27.187-9.436-35.047-7.675-7.665-19.347-10.662-33.986-9.509-11.693.927-22.592-6.397-26.156-17.575-2.72-8.509-6.428-15.412-11.188-20.47 3.719-.134 7.458-1.092 10.961-2.905 13.495-6.995 25.765-8.808 36.005-4.502 10.003 4.203 17.183 13.877 21.644 27.877 3.564 11.177 14.464 18.502 26.167 17.575 14.639-1.154 26.311 1.844 33.986 9.509 7.85 7.86 10.817 19.913 9.436 35.047-1.113 12.146 6.305 23.303 17.925 26.991 14.484 4.595 24.446 11.991 28.649 22.283 4.1 10.044 2.338 21.963-4.399 35.016-5.388 10.425-2.864 23.303 6.057 30.926 11.167 9.539 17.307 19.903 17.307 30.761s-6.14 21.222-17.307 30.761c-8.921 7.624-11.445 20.501-6.057 30.926z" fill="#fcb44d"/><path d="m182.942 256c0 46.507-5.223 90.81-14.668 131.112-1.236 5.275-8.784 5.275-10.021 0-9.445-40.302-14.668-84.605-14.668-131.112s5.223-90.81 14.668-131.112c1.236-5.275 8.784-5.275 10.021 0 9.445 40.302 14.668 84.605 14.668 131.112z" fill="#f98824"/><path d="m275.679 256c0 56.32-5.207 109.974-14.625 158.794-1.069 5.543-9.038 5.543-10.107 0-9.418-48.82-14.625-102.475-14.625-158.794s5.207-109.974 14.625-158.794c1.069-5.543 9.038-5.543 10.107 0 9.418 48.82 14.625 102.474 14.625 158.794z" fill="#fb9927"/><path d="m368.415 256c0 46.507-5.223 90.81-14.668 131.112-1.236 5.275-8.784 5.275-10.021 0-9.445-40.302-14.668-84.605-14.668-131.112s5.223-90.81 14.668-131.112c1.236-5.275 8.784-5.275 10.021 0 9.445 40.302 14.668 84.605 14.668 131.112z" fill="#f98824"/></g><g id="XMLID_151_"><path d="m82.836 196.986h-.131c-4.268 0-7.726-3.459-7.726-7.726 0-4.268 3.459-7.726 7.726-7.726h.131c4.268 0 7.726 3.459 7.726 7.726s-3.458 7.726-7.726 7.726z" fill="#fcb44d"/></g><g id="XMLID_221_"><path d="m98.499 218.401h-.131c-4.268 0-7.726-3.459-7.726-7.726s3.459-7.726 7.726-7.726h.131c4.268 0 7.726 3.459 7.726 7.726s-3.458 7.726-7.726 7.726z" fill="#fb9927"/></g><g id="XMLID_223_"><path d="m75.875 332.9h-.132c-4.268 0-7.726-3.459-7.726-7.726s3.459-7.726 7.726-7.726h.132c4.268 0 7.726 3.459 7.726 7.726s-3.458 7.726-7.726 7.726z" fill="#fcb44d"/></g><g id="XMLID_224_"><path d="m410.196 218.401h-.131c-4.268 0-7.726-3.459-7.726-7.726s3.459-7.726 7.726-7.726h.131c4.268 0 7.726 3.459 7.726 7.726s-3.458 7.726-7.726 7.726z" fill="#fb9927"/></g><g id="XMLID_225_"><path d="m422.335 247.988h-.132c-4.268 0-7.726-3.459-7.726-7.726s3.459-7.726 7.726-7.726h.132c4.268 0 7.726 3.459 7.726 7.726s-3.458 7.726-7.726 7.726z" fill="#fb9927"/></g><g id="XMLID_226_"><path d="m308.327 413.33h-.132c-4.268 0-7.726-3.459-7.726-7.726 0-4.268 3.459-7.726 7.726-7.726h.132c4.268 0 7.726 3.459 7.726 7.726s-3.458 7.726-7.726 7.726z" fill="#f98824"/></g><g id="XMLID_227_"><path d="m222.934 100.775h-.131c-4.268 0-7.726-3.459-7.726-7.726 0-4.268 3.459-7.726 7.726-7.726h.131c4.268 0 7.726 3.459 7.726 7.726s-3.459 7.726-7.726 7.726z" fill="#fcb44d"/></g></g></svg>