<svg id="Capa_1" enable-background="new 0 0 512 512" height="512" viewBox="0 0 512 512" width="512" xmlns="http://www.w3.org/2000/svg"><g><path d="m5.485 506.516c-7.312-7.312-7.312-19.166 0-26.478l205.432-205.432c7.312-7.312 19.166-7.312 26.478 0 7.312 7.312 7.312 19.166 0 26.478l-205.432 205.432c-7.312 7.312-19.166 7.312-26.478 0z" fill="#f3eae6"/><path d="m242.876 287.844c0 4.79-1.823 9.581-5.481 13.238l-46.976 46.986c-4.77-3.997-9.375-8.21-13.825-12.661-4.45-4.45-8.664-9.055-12.661-13.825l46.986-46.976c7.314-7.314 19.161-7.314 26.476 0 3.657 3.657 5.481 8.448 5.481 13.238z" fill="#e0d3ce"/><g><circle cx="324.059" cy="187.942" fill="#ffc5c9" r="187.94"/><path d="m456.957 320.84c-44.05 44.05-104.532 61.656-161.727 52.838 38.086-5.893 74.719-23.498 104.058-52.838 73.4-73.4 73.4-192.396 0-265.796-29.34-29.339-65.973-46.945-104.059-52.837 57.195-8.818 117.677 8.787 161.727 52.838 73.39 73.4 73.39 192.395.001 265.795z" fill="#fcb5ba"/><g><g><g><path d="m430.329 139.757c-20.71 20.71-48.696 29.693-75.731 26.952-4.926-.499-8.809-4.382-9.309-9.307-2.744-27.029 6.244-55.02 26.954-75.73 7.223-7.223 15.328-13.017 23.972-17.386 7.149-3.613 15.488 2.119 14.842 10.103-.458 5.661-.401 11.355.172 17.009.503 4.971 4.401 8.868 9.372 9.369 5.657.571 11.353.627 17.015.17 7.984-.645 13.715 7.694 10.102 14.843-4.368 8.645-10.166 16.754-17.389 23.977z" fill="#fb6672"/></g><g><path d="m447.716 115.784c-4.368 8.643-10.168 16.751-17.389 23.972-20.707 20.717-48.696 29.69-75.728 26.95-4.924-.494-8.808-4.378-9.313-9.303-.206-1.988-.34-3.997-.412-5.996 24.796.649 49.788-8.478 68.723-27.413 6.882-6.882 12.475-14.567 16.761-22.757 2.421-.01 4.842-.103 7.263-.299 7.983-.648 13.711 7.696 10.095 14.846z" fill="#fb4a59"/></g></g><g><g><path d="m404.42 275.315c-25.926-13.626-42.813-37.683-48.224-64.312-.986-4.852 1.568-9.712 6.123-11.653 24.995-10.647 54.393-10.376 80.318 3.251 8.971 4.715 16.857 10.677 23.561 17.565 5.657 5.812 2.824 15.561-5.089 17.338-5.539 1.244-10.957 2.989-16.183 5.213-4.597 1.956-7.161 6.836-6.164 11.732 1.135 5.571 2.772 11.027 4.89 16.298 2.987 7.432-3.274 15.381-11.174 14.054-9.551-1.605-19.016-4.733-28.058-9.486z" fill="#fb6672"/></g><g><path d="m432.479 284.805c-9.55-1.607-19.017-4.739-28.062-9.488-25.919-13.629-42.814-37.684-48.223-64.314-.989-4.852 1.566-9.715 6.119-11.651 2.174-.927 4.378-1.772 6.614-2.524 6.655 24.075 22.849 45.441 46.708 57.978 8.241 4.337 16.854 7.324 25.548 9.014.731 2.338 1.556 4.646 2.472 6.923 2.989 7.438-3.274 15.381-11.176 14.062z" fill="#fb4a59"/></g></g><g><g><path d="m267.499 289.799c4.456-28.948 21.714-52.74 45.136-66.515 4.267-2.51 9.695-1.675 13.01 2.001 18.195 20.175 27.498 48.063 23.042 77.011-1.542 10.016-4.616 19.413-8.949 27.992-3.657 7.239-13.797 7.731-18.051.825-2.977-4.834-6.389-9.389-10.191-13.608-3.345-3.711-8.793-4.549-13.098-2.014-4.897 2.883-9.522 6.204-13.816 9.918-6.134 5.306-15.656 1.788-16.966-6.216-1.554-9.487-1.659-19.377-.117-29.394z" fill="#fb6672"/></g><g><path d="m348.685 302.297c-1.535 10.013-4.615 19.409-8.942 27.99-3.657 7.242-13.804 7.737-18.059.824-1.082-1.751-2.215-3.472-3.42-5.151 3.266-7.376 5.625-15.308 6.902-23.663 4.234-27.475-3.935-53.991-20.336-73.874 2.514-1.854 5.12-3.564 7.809-5.141 4.265-2.514 9.694-1.669 13.011 1.998 18.193 20.183 27.496 48.069 23.035 77.017z" fill="#fb4a59"/></g></g><g><g><path d="m222.202 244.502c28.948-4.456 52.74-21.714 66.515-45.136 2.51-4.267 1.675-9.695-2.001-13.01-20.175-18.195-48.063-27.498-77.011-23.042-10.016 1.542-19.413 4.616-27.992 8.949-7.239 3.657-7.731 13.797-.825 18.051 4.834 2.977 9.389 6.389 13.608 10.191 3.711 3.345 4.549 8.793 2.014 13.098-2.883 4.897-6.204 9.522-9.918 13.816-5.306 6.134-1.788 15.656 6.216 16.966 9.487 1.554 19.377 1.659 29.394.117z" fill="#fb6672"/></g><g><path d="m288.718 199.362c-13.773 23.426-37.571 40.682-66.518 45.142-6.037.927-12.032 1.257-17.925 1.03 25.147-6.233 45.719-22.334 58.143-43.463 2.514-4.265 1.679-9.694-1.999-13.011-15.968-14.392-36.767-23.22-59.091-24.065 2.74-.68 5.532-1.236 8.375-1.679 28.948-4.461 56.835 4.842 77.016 23.035 3.668 3.317 4.513 8.746 1.999 13.011z" fill="#fb4a59"/></g></g><g><g><path d="m236.686 107.581c13.626 25.926 37.683 42.813 64.312 48.224 4.852.986 9.712-1.568 11.653-6.123 10.647-24.995 10.376-54.393-3.251-80.318-4.715-8.971-10.677-16.857-17.565-23.561-5.812-5.657-15.561-2.824-17.338 5.089-1.244 5.539-2.989 10.957-5.213 16.183-1.956 4.597-6.836 7.161-11.732 6.164-5.571-1.135-11.027-2.772-16.298-4.89-7.432-2.987-15.381 3.274-14.054 11.174 1.605 9.551 4.734 19.016 9.486 28.058z" fill="#fb6672"/></g><g><path d="m312.649 149.687c-1.937 4.553-6.799 7.108-11.651 6.119-3.946-.804-7.829-1.854-11.631-3.152 10.271-24.796 9.848-53.806-3.616-79.426-3.482-6.604-7.634-12.63-12.331-18.028.391-1.422.752-2.864 1.071-4.306 1.782-7.912 11.528-10.745 17.338-5.089 6.892 6.706 12.857 14.587 17.575 23.56 13.619 25.929 13.897 55.32 3.245 80.322z" fill="#fb4a59"/></g></g><g><path d="m340.697 87.641c-.391 0-.787-.03-1.185-.091-4.218-.649-7.11-4.595-6.461-8.812l1.733-11.258c.649-4.217 4.597-7.108 8.812-6.461 4.218.649 7.11 4.595 6.461 8.812l-1.733 11.258c-.588 3.819-3.879 6.552-7.627 6.552z" fill="#fb6672"/></g><g><path d="m432.078 179.041c-3.748 0-7.039-2.732-7.627-6.552-.649-4.217 2.243-8.162 6.461-8.812l11.258-1.733c4.214-.653 8.162 2.243 8.812 6.461.649 4.217-2.243 8.162-6.461 8.812l-11.258 1.733c-.398.062-.794.091-1.185.091z" fill="#fb6672"/></g><g><path d="m380.217 302.505c-2.779 0-5.463-1.503-6.846-4.133l-5.552-10.563c-1.985-3.777-.532-8.449 3.245-10.434 3.776-1.985 8.448-.533 10.434 3.245l5.552 10.563c1.985 3.777.533 8.449-3.244 10.434-1.148.602-2.378.888-3.589.888z" fill="#fb6672"/></g><g><path d="m227.781 145.071c-1.212 0-2.441-.286-3.588-.888l-10.563-5.552c-3.777-1.985-5.23-6.657-3.245-10.434s6.656-5.229 10.434-3.244l10.563 5.552c3.777 1.985 5.23 6.656 3.245 10.434-1.382 2.628-4.068 4.132-6.846 4.132z" fill="#fb6672"/></g><g><path d="m238.716 281.011c-1.977 0-3.955-.755-5.463-2.263-3.018-3.017-3.018-7.909 0-10.927l8.3-8.3c3.017-3.017 7.909-3.017 10.926 0 3.018 3.017 3.018 7.909 0 10.927l-8.3 8.3c-1.508 1.509-3.485 2.263-5.463 2.263z" fill="#fb6672"/></g></g></g></g></svg>