<svg id="Capa_1" enable-background="new 0 0 512 512" height="512" viewBox="0 0 512 512" width="512" xmlns="http://www.w3.org/2000/svg"><g><path d="m62.225 257.562h249.2v135.224h-249.2z" fill="#fb8189" transform="matrix(.707 -.707 .707 .707 -175.213 227.346)"/><path d="m223.426 109.746h222.428v135.224h-222.428z" fill="#fee7c9" transform="matrix(.707 -.707 .707 .707 -27.397 288.574)"/><g><path d="m28.681 271.462h249.201v40.341h-249.201z" fill="#fb6672" transform="matrix(.707 -.707 .707 .707 -161.32 193.803)"/><path d="m189.881 123.642h222.43v40.341h-222.43z" fill="#ffd597" transform="matrix(.707 -.707 .707 .707 -13.506 255.019)"/><path d="m383.631 60.657-322.973 322.973c-13.876 13.876-36.374 13.876-50.25 0-13.876-13.876-13.876-36.374 0-50.25l322.973-322.973c13.876-13.876 36.374-13.876 50.25 0 13.876 13.876 13.876 36.374 0 50.25z" fill="#a96a53"/><path d="m394.033 35.531c0 9.096-3.472 18.183-10.405 25.126l-322.97 322.97c-13.877 13.876-36.375 13.876-50.252 0-4.698-4.687-7.798-10.374-9.313-16.37 11.734 2.987 24.704-.113 33.893-9.303l322.97-322.97c6.933-6.943 10.405-16.03 10.405-25.126 0-2.946-.361-5.893-1.102-8.767 5.996 1.514 11.682 4.615 16.37 9.313 6.933 6.944 10.404 16.03 10.404 25.127z" fill="#925b46"/><path d="m501.592 178.618-322.973 322.972c-13.876 13.876-36.374 13.876-50.25 0-13.876-13.876-13.876-36.374 0-50.25l322.973-322.973c13.876-13.876 36.374-13.876 50.25 0 13.876 13.877 13.876 36.374 0 50.251z" fill="#a96a53"/><path d="m511.999 153.496c0 9.096-3.461 18.193-10.405 25.126l-322.97 322.97c-13.877 13.877-36.375 13.877-50.252 0-4.687-4.698-7.788-10.364-9.302-16.359 11.744 2.977 24.704-.134 33.882-9.313l322.97-322.97c6.943-6.933 10.405-16.03 10.405-25.126 0-2.946-.361-5.882-1.092-8.756 5.996 1.514 11.662 4.615 16.359 9.303 6.943 6.932 10.405 16.029 10.405 25.125z" fill="#925b46"/></g><g id="XMLID_143_"><path d="m220.964 316.294h-.107c-4.268 0-7.726-3.459-7.726-7.726s3.459-7.726 7.726-7.726h.107c4.268 0 7.726 3.459 7.726 7.726s-3.458 7.726-7.726 7.726z" fill="#fb6672"/></g><g id="XMLID_145_"><path d="m191.869 316.295c-.026 0-.05 0-.075 0l-.106-.001c-4.267-.041-7.693-3.533-7.653-7.8.04-4.241 3.492-7.653 7.724-7.653h.075l.106.001c4.268.041 7.693 3.533 7.653 7.8-.04 4.242-3.492 7.653-7.724 7.653z" fill="#fb4a59"/></g><g id="XMLID_146_"><path d="m149.711 370.068h-.107c-4.268 0-7.726-3.459-7.726-7.726s3.459-7.726 7.726-7.726h.107c4.268 0 7.726 3.459 7.726 7.726s-3.459 7.726-7.726 7.726z" fill="#fb6672"/></g><g id="XMLID_147_"><path d="m130.085 408.968h-.107c-4.268 0-7.726-3.459-7.726-7.726s3.459-7.726 7.726-7.726h.107c4.268 0 7.726 3.459 7.726 7.726s-3.458 7.726-7.726 7.726z" fill="#fb6672"/></g><g id="XMLID_148_"><path d="m376.705 143.087c-.025 0-.05 0-.074 0l-.107-.001c-4.268-.04-7.694-3.532-7.654-7.799.04-4.242 3.492-7.654 7.724-7.654h.074l.107.001c4.268.04 7.694 3.532 7.654 7.799-.04 4.243-3.492 7.654-7.724 7.654z" fill="#ffd597"/></g><g id="XMLID_149_"><path d="m364.456 176.958c-.025 0-.05 0-.074 0l-.107-.001c-4.268-.04-7.694-3.532-7.654-7.799.04-4.242 3.492-7.654 7.724-7.654h.074l.107.001c4.268.04 7.694 3.532 7.654 7.799-.04 4.243-3.491 7.654-7.724 7.654z" fill="#fcc16d"/></g><g id="XMLID_150_"><path d="m299.769 215.917c-.025 0-.05 0-.074 0l-.107-.001c-4.268-.04-7.694-3.532-7.654-7.799.04-4.242 3.492-7.654 7.724-7.654h.074l.107.001c4.268.04 7.694 3.532 7.654 7.799-.04 4.242-3.491 7.654-7.724 7.654z" fill="#ffd597"/></g></g></svg>