<svg id="Capa_1" enable-background="new 0 0 512 512" height="512" viewBox="0 0 512 512" width="512" xmlns="http://www.w3.org/2000/svg"><g><g><g><g><g><path d="m332.497 100.299h-152.994c-5.782 0-11.203 2.809-14.538 7.532l-27.693 39.225h118.728 118.728l-27.693-39.225c-3.335-4.723-8.756-7.532-14.538-7.532z" fill="#a96a53"/><path d="m374.728 147.058h-30.813l-27.691-39.229c-3.338-4.718-8.757-7.531-14.546-7.531h30.823c5.779 0 11.198 2.812 14.536 7.531z" fill="#925b46"/></g><g><path d="m384 154.267v83.938c0 9.828-7.967 17.796-17.796 17.796h-220.408c-9.828 0-17.796-7.967-17.796-17.796v-83.938c0-5.69 4.612-10.302 10.302-10.302h235.396c5.69 0 10.302 4.612 10.302 10.302z" fill="#925b46"/><path d="m384 154.27v83.939c0 9.828-7.963 17.791-17.791 17.791h-30.823c9.828 0 17.802-7.963 17.802-17.791v-83.939c0-5.697-4.615-10.302-10.302-10.302h30.813c5.686 0 10.301 4.605 10.301 10.302z" fill="#865240"/></g><path d="m241.288 228.251c5.777 0 9.848-5.713 7.92-11.158-5.745-16.226-23.697-28.064-44.954-28.064s-39.21 11.838-44.954 28.064c-1.928 5.445 2.143 11.158 7.92 11.158z" fill="#fcb44d"/><path d="m241.289 228.247h-28.423c5.769 0 9.838-5.707 7.912-11.157-4.399-12.445-15.988-22.303-30.73-26.218 4.481-1.205 9.251-1.844 14.206-1.844 21.253 0 39.209 11.837 44.957 28.062 1.927 5.45-2.143 11.157-7.922 11.157z" fill="#fca62f"/><path d="m270.712 171.716c-5.777 0-9.848 5.713-7.92 11.158 5.745 16.226 23.697 28.064 44.954 28.064s39.21-11.838 44.954-28.064c1.928-5.445-2.143-11.158-7.92-11.158z" fill="#fcb44d"/><path d="m352.703 182.878c-5.748 16.225-23.694 28.062-44.957 28.062-4.739 0-9.313-.587-13.629-1.69 15.03-3.812 26.857-13.763 31.318-26.373 1.926-5.45-2.143-11.157-7.922-11.157h27.269c5.778.001 9.848 5.708 7.921 11.158z" fill="#fca62f"/></g></g></g><g><g><g><g><g><path d="m204.497 256h-152.994c-5.782 0-11.203 2.809-14.538 7.532l-27.693 39.226h118.728 118.728l-27.693-39.225c-3.335-4.724-8.756-7.533-14.538-7.533z" fill="#a96a53"/><path d="m246.728 302.76h-30.813l-27.691-39.229c-3.338-4.718-8.757-7.531-14.546-7.531h30.823c5.779 0 11.198 2.812 14.536 7.531z" fill="#925b46"/></g><g><path d="m256 309.968v83.938c0 9.828-7.967 17.796-17.796 17.796h-220.408c-9.829 0-17.796-7.968-17.796-17.796v-83.938c0-5.69 4.612-10.302 10.302-10.302h235.396c5.69.001 10.302 4.613 10.302 10.302z" fill="#925b46"/><path d="m256 309.971v83.939c0 9.828-7.963 17.791-17.791 17.791h-30.823c9.828 0 17.802-7.963 17.802-17.791v-83.939c0-5.697-4.615-10.302-10.302-10.302h30.813c5.686 0 10.301 4.605 10.301 10.302z" fill="#865240"/></g><path d="m113.288 383.953c5.777 0 9.848-5.713 7.92-11.158-5.745-16.226-23.697-28.064-44.954-28.064s-39.21 11.838-44.954 28.064c-1.928 5.445 2.143 11.158 7.92 11.158z" fill="#fcb44d"/><path d="m113.289 383.949h-28.423c5.769 0 9.838-5.707 7.912-11.157-4.399-12.445-15.988-22.303-30.73-26.218 4.481-1.205 9.251-1.844 14.206-1.844 21.253 0 39.209 11.837 44.957 28.062 1.927 5.449-2.143 11.157-7.922 11.157z" fill="#fca62f"/><path d="m142.712 327.417c-5.777 0-9.848 5.713-7.92 11.158 5.745 16.227 23.697 28.064 44.954 28.064s39.21-11.838 44.954-28.064c1.928-5.445-2.143-11.158-7.92-11.158z" fill="#fcb44d"/><path d="m224.703 338.579c-5.748 16.225-23.694 28.062-44.957 28.062-4.739 0-9.313-.587-13.629-1.69 15.03-3.812 26.857-13.763 31.318-26.373 1.926-5.45-2.143-11.157-7.922-11.157h27.269c5.778.001 9.848 5.709 7.921 11.158z" fill="#fca62f"/></g></g></g><g><g><g><g><path d="m460.497 256h-152.994c-5.782 0-11.203 2.809-14.538 7.532l-27.693 39.225h118.728 118.728l-27.693-39.225c-3.335-4.723-8.756-7.532-14.538-7.532z" fill="#a96a53"/><path d="m502.728 302.76h-30.813l-27.691-39.229c-3.338-4.718-8.757-7.531-14.546-7.531h30.823c5.779 0 11.198 2.812 14.536 7.531z" fill="#925b46"/></g><g><path d="m512 309.968v83.938c0 9.828-7.967 17.796-17.796 17.796h-220.408c-9.828 0-17.796-7.967-17.796-17.796v-83.938c0-5.69 4.612-10.302 10.302-10.302h235.396c5.69.001 10.302 4.613 10.302 10.302z" fill="#925b46"/><path d="m512 309.971v83.939c0 9.828-7.963 17.791-17.791 17.791h-30.823c9.828 0 17.802-7.963 17.802-17.791v-83.939c0-5.697-4.615-10.302-10.302-10.302h30.813c5.686 0 10.301 4.605 10.301 10.302z" fill="#865240"/></g><path d="m369.288 383.953c5.777 0 9.848-5.713 7.92-11.158-5.745-16.226-23.697-28.064-44.954-28.064s-39.21 11.838-44.954 28.064c-1.928 5.445 2.143 11.158 7.92 11.158z" fill="#fcb44d"/><path d="m369.289 383.949h-28.423c5.769 0 9.838-5.707 7.912-11.157-4.399-12.445-15.988-22.303-30.73-26.218 4.481-1.205 9.251-1.844 14.206-1.844 21.253 0 39.209 11.837 44.957 28.062 1.927 5.449-2.143 11.157-7.922 11.157z" fill="#fca62f"/><path d="m398.712 327.417c-5.777 0-9.848 5.713-7.92 11.158 5.745 16.227 23.697 28.064 44.954 28.064s39.21-11.838 44.954-28.064c1.928-5.445-2.143-11.158-7.92-11.158z" fill="#fcb44d"/><path d="m480.703 338.579c-5.748 16.225-23.694 28.062-44.957 28.062-4.739 0-9.313-.587-13.629-1.69 15.03-3.812 26.857-13.763 31.318-26.373 1.926-5.45-2.143-11.157-7.922-11.157h27.269c5.778.001 9.848 5.709 7.921 11.158z" fill="#fca62f"/></g></g></g></g></g></svg>