<svg id="Capa_1" enable-background="new 0 0 512 512" height="512" viewBox="0 0 512 512" width="512" xmlns="http://www.w3.org/2000/svg"><g><path d="m256 42.905c-141.382 0-256 162.985-256 364.035v.371c.01 20.109 16.452 36.355 36.571 36.355h438.857c20.119 0 36.561-16.246 36.571-36.355v-.371c.001-201.05-114.617-364.035-255.999-364.035z" fill="#925b46"/><path d="m381.414 369.761h-15.288v63.109c0 3.977-1.164 7.685-3.173 10.796h-33.553c-2.009-3.111-3.173-6.82-3.173-10.796v-43.164c0-5.512-2.235-10.498-5.841-14.103-3.606-3.606-8.592-5.841-14.103-5.841-11.013 0-19.944 8.932-19.944 19.944v53.961h-39.899v-10.767c0-5.511-2.225-10.497-5.841-14.103-3.606-3.616-8.592-5.841-14.103-5.841-11.013 0-19.944 8.921-19.944 19.944v10.765h-39.889v-73.905h-36.077c-13.104 0-22.86-12.084-20.15-24.91 21.427-101.554 78.52-174.182 145.564-174.182s124.137 72.628 145.565 174.183c2.709 12.826-7.047 24.91-20.151 24.91z" fill="#865240"/><path d="m512 406.94v.371c-.01 20.109-16.452 36.355-36.571 36.355h-48.305c20.119 0 36.561-16.246 36.571-36.355v-.371c0-189.461-101.792-345.121-231.842-362.428 7.953-1.071 16.009-1.607 24.147-1.607 141.382 0 256 162.985 256 364.035z" fill="#865240"/><path d="m401.569 317.924c-21.435-101.561-78.52-174.19-145.569-174.19s-124.134 72.629-145.569 174.19c-2.707 12.825 7.049 24.902 20.156 24.903h36.071v96.141c0 11.016 8.93 19.946 19.946 19.946 11.016 0 19.946-8.93 19.946-19.946v-33c0-11.016 8.93-19.946 19.946-19.946 11.016 0 19.946 8.93 19.946 19.946v43.181c0 11.016 8.93 19.946 19.946 19.946 11.016 0 19.946-8.93 19.946-19.946v-86.376c0-11.016 8.93-19.946 19.946-19.946 11.016 0 19.946 8.93 19.946 19.946v33.897c0 11.016 8.93 19.946 19.946 19.946 11.016 0 19.946-8.93 19.946-19.946v-53.843h15.29c13.112 0 22.868-12.077 20.161-24.903z" fill="#fcb44d"/><g><path d="m380.116 249.94c-3.194 7.335-10.621 12.269-19.233 11.857-5.316-.247-10.065-2.565-13.485-6.15-3.41-3.575-5.501-8.427-5.501-13.742 0-5.512-2.235-10.498-5.841-14.114-3.616-3.606-8.602-5.841-14.113-5.841-5.512 0-10.498 2.236-14.103 5.841-3.606 3.616-5.841 8.602-5.841 14.114v43.175c0 11.023-8.932 19.944-19.944 19.944-5.511 0-10.498-2.236-14.103-5.841-3.606-3.606-5.841-8.592-5.841-14.103v-141.135c48.324 3.193 90.963 44.143 118.005 105.995z" fill="#fca62f"/></g><g><path d="m166.663 294.362v48.47h-15.453v-48.47c0-4.265 3.451-7.726 7.726-7.726 4.265-.001 7.727 3.461 7.727 7.726z" fill="#fca62f"/></g><g><g><path d="m381.785 148.175v61.804c0 11.51-9.407 20.485-20.904 19.945-10.628-.499-18.989-9.261-18.989-19.901 0-11.016-8.93-19.946-19.946-19.946-11.016 0-19.946 8.93-19.946 19.946v43.181c0 11.016-8.93 19.946-19.946 19.946-11.016 0-19.946-8.93-19.946-19.946v-141.348z" fill="#925b46"/></g><g><g><path d="m262.624 111.855v32.131c-2.194-.165-4.409-.247-6.624-.247-2.967 0-5.903.144-8.829.422v-32.306c0-4.265 3.461-7.726 7.726-7.726 4.266-.001 7.727 3.461 7.727 7.726z" fill="#865240"/></g><g><path d="m392.602 191.859v25.332c0 7.696-3.029 14.835-8.53 20.078-2.225 2.112-4.718 3.812-7.417 5.058-2.225-4.749-4.553-9.354-6.985-13.815 1.37-.556 2.637-1.381 3.729-2.421 2.421-2.308 3.75-5.47 3.75-8.901v-25.332c0-4.275 3.461-7.726 7.726-7.726 4.266 0 7.727 3.451 7.727 7.727z" fill="#865240"/></g></g></g><g><path d="m381.579 313.503v29.329h-15.453v-29.329c0-4.265 3.451-7.726 7.726-7.726 4.266-.001 7.727 3.46 7.727 7.726z" fill="#fca62f"/></g><g><path d="m224.295 334.306c-14.789 0-26.82-12.032-26.82-26.821v-45.34c0-4.268 3.459-7.726 7.726-7.726s7.726 3.459 7.726 7.726v45.34c0 6.269 5.1 11.368 11.368 11.368s11.368-5.1 11.368-11.368v-11.344c0-4.268 3.459-7.726 7.726-7.726s7.726 3.459 7.726 7.726v11.344c0 14.788-12.032 26.821-26.82 26.821z" fill="#fb9927"/></g><g><path d="m330.821 302.088c-4.267 0-7.726-3.459-7.726-7.726v-6.961c0-4.268 3.459-7.726 7.726-7.726s7.726 3.459 7.726 7.726v6.961c0 4.268-3.459 7.726-7.726 7.726z" fill="#fb9927"/></g><g><path d="m226.98 219.712c-4.267 0-7.726-3.459-7.726-7.726v-6.962c0-4.268 3.459-7.726 7.726-7.726s7.726 3.459 7.726 7.726v6.962c.001 4.267-3.459 7.726-7.726 7.726z" fill="#fb9927"/></g></g></svg>