<svg id="Capa_1" enable-background="new 0 0 512 512" height="512" viewBox="0 0 512 512" width="512" xmlns="http://www.w3.org/2000/svg"><g><path d="m172.312 89.771h170.196v336.896h-170.196z" fill="#865240"/><g fill="#a96a53"><path d="m416.26 511.999h-149.855c-5.747 0-10.405-4.659-10.405-10.405l-15-64.874 15-84.981c0-5.747 4.659-10.405 10.405-10.405l71.952-12 77.903 12c5.747 0 10.405 4.659 10.405 10.405v149.855c0 5.746-4.659 10.405-10.405 10.405z"/><path d="m416.26 170.666-74.927 12-74.927-12c-5.747 0-10.405-4.659-10.405-10.405l-12-79.502 12-70.353c0-5.747 4.659-10.405 10.405-10.405h149.854c5.747 0 10.405 4.659 10.405 10.405v149.855c0 5.747-4.659 10.405-10.405 10.405z"/><path d="m245.594 341.333-77.903 12-71.951-12c-5.747 0-10.405-4.659-10.405-10.405v-149.855c0-5.747 4.659-10.405 10.405-10.405l74.927-12 74.927 12c5.747 0 10.405 4.659 10.405 10.405l12.001 74.927-12 74.927c0 5.747-4.659 10.406-10.406 10.406z"/></g><g><g><g><path d="m245.594 170.666h-149.855c-5.747 0-10.405-4.659-10.405-10.405v-149.855c0-5.747 4.659-10.405 10.405-10.405h149.855c5.747 0 10.406 4.659 10.406 10.405v149.855c0 5.747-4.659 10.405-10.406 10.405z" fill="#865240"/><path d="m256.001 10.405v149.857c0 5.744-4.662 10.405-10.405 10.405h-29.301c5.754 0 10.405-4.662 10.405-10.405v-149.857c-.001-5.743-4.652-10.405-10.406-10.405h29.301c5.744 0 10.406 4.662 10.406 10.405z" fill="#7b4b39"/><g><g><path d="m256 159.74v.525c0 5.738-4.656 10.405-10.405 10.405h-.515l-39.116-39.106c-3.018-3.018-3.018-7.912 0-10.93s7.912-3.018 10.93 0z" fill="#7b4b39"/></g><g><path d="m135.366 50.036c-1.504 1.504-3.482 2.266-5.46 2.266s-3.956-.762-5.47-2.266l-39.106-39.116v-.515c0-5.749 4.667-10.405 10.405-10.405h.525l39.106 39.106c3.018 3.018 3.018 7.911 0 10.93z" fill="#925b46"/></g><g><path d="m135.366 131.554-39.106 39.116h-.525c-5.738 0-10.405-4.667-10.405-10.405v-.525l39.116-39.116c3.018-3.008 7.912-3.008 10.92 0 3.018 3.018 3.018 7.912 0 10.93z" fill="#7b4b39"/></g><g><path d="m256 10.405v.515l-39.106 39.116c-1.514 1.504-3.492 2.266-5.46 2.266-1.978 0-3.956-.762-5.47-2.266-3.018-3.018-3.018-7.912 0-10.93l39.116-39.106h.515c5.749 0 10.405 4.656 10.405 10.405z" fill="#7b4b39"/></g></g><g><g><path d="m256 159.74v.525c0 5.738-4.656 10.405-10.405 10.405h-.515l-39.116-39.106c-3.018-3.018-3.018-7.912 0-10.93s7.912-3.018 10.93 0z" fill="#925b46"/></g><g><path d="m256 159.74v.525c0 5.738-4.656 10.405-10.405 10.405h-.515l-18.378-18.379v-21.85z" fill="#865240"/></g><g><path d="m135.366 131.554-39.106 39.116h-.525c-5.738 0-10.405-4.667-10.405-10.405v-.525l39.116-39.116c3.018-3.008 7.912-3.008 10.92 0 3.018 3.018 3.018 7.912 0 10.93z" fill="#925b46"/></g><g><path d="m256 10.405v.515l-39.106 39.116c-1.514 1.504-3.492 2.266-5.46 2.266-1.978 0-3.956-.762-5.47-2.266-3.018-3.018-3.018-7.912 0-10.93l39.116-39.106h.515c5.749 0 10.405 4.656 10.405 10.405z" fill="#925b46"/></g><g><path d="m256 10.405v.515l-29.298 29.309v-21.85l18.378-18.379h.515c5.749 0 10.405 4.656 10.405 10.405z" fill="#865240"/></g></g><g><path d="m200.39 130.664h-59.446c-8.62 0-15.608-6.988-15.608-15.608v-59.445c0-8.62 6.988-15.608 15.608-15.608h59.446c8.62 0 15.608 6.988 15.608 15.608v59.446c0 8.62-6.988 15.607-15.608 15.607z" fill="#ba7c65"/><path d="m216.003 55.606v59.456c0 8.615-6.992 15.608-15.608 15.608h-32.704c8.626 0 15.608-6.992 15.608-15.608v-59.456c0-8.616-6.982-15.608-15.608-15.608h32.704c8.615 0 15.608 6.992 15.608 15.608z" fill="#a96a53"/></g></g><g><path d="m256.001 181.072v149.857c0 5.744-4.662 10.405-10.405 10.405h-29.301c5.754 0 10.405-4.662 10.405-10.405v-149.857c0-5.744-4.651-10.405-10.405-10.405h29.301c5.743-.001 10.405 4.661 10.405 10.405z" fill="#925b46"/><g><g><path d="m256 330.403v.525c0 5.738-4.656 10.405-10.405 10.405h-.515l-39.116-39.106c-3.018-3.018-3.018-7.912 0-10.93s7.912-3.018 10.93 0z" fill="#ba7c65"/></g><g><path d="m256 330.402v.525c0 5.738-4.656 10.405-10.405 10.405h-.515l-18.378-18.379v-21.85z" fill="#a96a53"/></g><g><path d="m135.366 220.703c-1.504 1.504-3.482 2.266-5.46 2.266s-3.956-.762-5.47-2.266l-39.106-39.116v-.515c0-5.748 4.667-10.405 10.405-10.405h.525l39.106 39.106c3.018 3.018 3.018 7.912 0 10.93z" fill="#ba7c65"/></g><g><path d="m135.366 302.217-39.106 39.116h-.525c-5.738 0-10.405-4.667-10.405-10.405v-.525l39.116-39.116c3.018-3.008 7.912-3.008 10.92 0 3.018 3.018 3.018 7.911 0 10.93z" fill="#ba7c65"/></g><g><path d="m256 181.072v.515l-39.106 39.116c-1.514 1.504-3.492 2.266-5.46 2.266-1.978 0-3.956-.762-5.47-2.266-3.018-3.018-3.018-7.912 0-10.93l39.116-39.106h.515c5.749 0 10.405 4.657 10.405 10.405z" fill="#ba7c65"/></g><g><path d="m256 181.072v.515l-29.298 29.309v-21.85l18.378-18.378h.515c5.749-.001 10.405 4.656 10.405 10.404z" fill="#a96a53"/></g></g><g><path d="m200.39 301.331h-59.446c-8.62 0-15.608-6.988-15.608-15.608v-59.446c0-8.62 6.988-15.608 15.608-15.608h59.446c8.62 0 15.608 6.988 15.608 15.608v59.446c0 8.62-6.988 15.608-15.608 15.608z" fill="#c58d7c"/><path d="m216.003 226.272v59.456c0 8.615-6.992 15.608-15.608 15.608h-32.704c8.626 0 15.608-6.992 15.608-15.608v-59.456c0-8.616-6.982-15.608-15.608-15.608h32.704c8.615 0 15.608 6.992 15.608 15.608z" fill="#ba7c65"/></g></g><g><path d="m245.594 511.999h-149.855c-5.747 0-10.405-4.659-10.405-10.405v-149.855c0-5.747 4.659-10.405 10.405-10.405h149.855c5.747 0 10.405 4.659 10.405 10.405v149.855c.001 5.746-4.658 10.405-10.405 10.405z" fill="#865240"/><path d="m256.001 351.738v149.857c0 5.744-4.662 10.405-10.405 10.405h-29.301c5.754 0 10.405-4.662 10.405-10.405v-149.857c0-5.744-4.651-10.405-10.405-10.405h29.301c5.743 0 10.405 4.661 10.405 10.405z" fill="#7b4b39"/><g><g><path d="m256 501.069v.525c0 5.738-4.656 10.405-10.405 10.405h-.515l-39.116-39.106c-3.018-3.018-3.018-7.912 0-10.93s7.912-3.018 10.93 0z" fill="#925b46"/></g><g><path d="m256 501.07v.525c0 5.738-4.656 10.405-10.405 10.405h-.515l-18.378-18.379v-21.85z" fill="#865240"/></g><g><path d="m135.366 472.883-39.106 39.116h-.525c-5.738 0-10.405-4.667-10.405-10.405v-.525l39.116-39.116c3.018-3.008 7.912-3.008 10.92 0 3.018 3.018 3.018 7.912 0 10.93z" fill="#925b46"/></g><g><path d="m135.366 391.37c-1.504 1.504-3.482 2.266-5.46 2.266s-3.956-.762-5.47-2.266l-39.106-39.116v-.515c0-5.748 4.667-10.405 10.405-10.405h.525l39.106 39.106c3.018 3.018 3.018 7.911 0 10.93z" fill="#925b46"/></g><g><path d="m256 351.738v.515l-39.106 39.116c-1.514 1.504-3.492 2.266-5.46 2.266-1.978 0-3.956-.762-5.47-2.266-3.018-3.018-3.018-7.912 0-10.93l39.116-39.106h.515c5.749.001 10.405 4.657 10.405 10.405z" fill="#925b46"/></g><g><path d="m256 351.735v.515l-29.298 29.309v-21.85l18.378-18.378h.515c5.749-.001 10.405 4.655 10.405 10.404z" fill="#865240"/></g></g><g><path d="m200.39 471.997h-59.446c-8.62 0-15.608-6.988-15.608-15.608v-59.446c0-8.62 6.988-15.608 15.608-15.608h59.446c8.62 0 15.608 6.988 15.608 15.608v59.446c0 8.62-6.988 15.608-15.608 15.608z" fill="#ba7c65"/><path d="m216.003 396.938v59.456c0 8.615-6.992 15.608-15.608 15.608h-32.704c8.626 0 15.608-6.992 15.608-15.608v-59.456c0-8.616-6.982-15.608-15.608-15.608h32.704c8.615 0 15.608 6.993 15.608 15.608z" fill="#a96a53"/></g></g></g><g><g><path d="m426.666 10.405v149.857c0 5.744-4.662 10.405-10.405 10.405h-29.301c5.754 0 10.405-4.662 10.405-10.405v-149.857c0-5.743-4.652-10.405-10.406-10.405h29.301c5.744 0 10.406 4.662 10.406 10.405z" fill="#925b46"/><g><g><path d="m426.665 159.74v.525c0 5.738-4.656 10.405-10.405 10.405h-.515l-39.116-39.106c-3.018-3.018-3.018-7.912 0-10.93s7.912-3.018 10.93 0z" fill="#ba7c65"/></g><g><path d="m426.67 159.74v.525c0 5.748-4.667 10.405-10.405 10.405h-.525l-18.379-18.379v-21.85l29.298 29.298h.011z" fill="#a96a53"/></g><g><path d="m306.035 50.036c-1.504 1.504-3.482 2.266-5.46 2.266s-3.956-.762-5.47-2.266l-39.105-39.116v-.515c0-5.749 4.666-10.405 10.404-10.405h.525l39.106 39.106c3.019 3.018 3.019 7.911 0 10.93z" fill="#ba7c65"/></g><g><path d="m306.035 131.554-39.105 39.116h-.525c-5.738 0-10.405-4.667-10.405-10.405v-.525l39.116-39.116c3.018-3.008 7.912-3.008 10.92 0 3.018 3.018 3.018 7.912-.001 10.93z" fill="#ba7c65"/></g><g><path d="m426.665 10.405v.515l-39.106 39.116c-1.514 1.504-3.492 2.266-5.46 2.266-1.978 0-3.956-.762-5.47-2.266-3.018-3.018-3.018-7.912 0-10.93l39.116-39.106h.515c5.748 0 10.405 4.656 10.405 10.405z" fill="#ba7c65"/></g><g><path d="m426.66 10.405v.515l-29.298 29.309v-21.85l18.378-18.379h.515c2.874 0 5.48 1.164 7.355 3.049 1.886 1.886 3.05 4.482 3.05 7.356z" fill="#a96a53"/></g></g><g><path d="m371.055 130.664h-59.446c-8.62 0-15.608-6.988-15.608-15.608v-59.445c0-8.62 6.988-15.608 15.608-15.608h59.446c8.62 0 15.608 6.988 15.608 15.608v59.446c0 8.62-6.988 15.607-15.608 15.607z" fill="#c58d7c"/><path d="m386.668 55.606v59.456c0 8.615-6.992 15.608-15.608 15.608h-32.704c8.626 0 15.608-6.992 15.608-15.608v-59.456c0-8.616-6.982-15.608-15.608-15.608h32.704c8.616 0 15.608 6.992 15.608 15.608z" fill="#ba7c65"/></g></g><g><path d="m416.26 341.333h-149.855c-5.747 0-10.405-4.659-10.405-10.405v-149.855c0-5.747 4.659-10.405 10.405-10.405h149.855c5.747 0 10.405 4.659 10.405 10.405v149.855c0 5.746-4.659 10.405-10.405 10.405z" fill="#865240"/><path d="m426.666 181.072v149.857c0 5.744-4.662 10.405-10.405 10.405h-29.301c5.754 0 10.405-4.662 10.405-10.405v-149.857c0-5.744-4.651-10.405-10.405-10.405h29.301c5.743-.001 10.405 4.661 10.405 10.405z" fill="#7b4b39"/><g><g><path d="m426.665 330.403v.525c0 5.738-4.656 10.405-10.405 10.405h-.515l-39.116-39.106c-3.018-3.018-3.018-7.912 0-10.93s7.912-3.018 10.93 0z" fill="#925b46"/></g><g><path d="m426.67 330.402v.525c0 5.748-4.667 10.405-10.405 10.405h-.525l-18.379-18.379v-21.85l29.298 29.298h.011z" fill="#865240"/></g><g><path d="m306.035 302.217-39.106 39.116h-.525c-5.738 0-10.405-4.667-10.405-10.405v-.525l39.116-39.116c3.018-3.008 7.912-3.008 10.92 0 3.019 3.018 3.019 7.911 0 10.93z" fill="#925b46"/></g><g><path d="m306.035 220.703c-1.504 1.504-3.482 2.266-5.46 2.266s-3.956-.762-5.47-2.266l-39.105-39.116v-.515c0-5.748 4.667-10.405 10.405-10.405h.525l39.106 39.106c3.018 3.018 3.018 7.912-.001 10.93z" fill="#925b46"/></g><g><path d="m426.665 181.072v.515l-39.106 39.116c-1.514 1.504-3.492 2.266-5.46 2.266-1.978 0-3.956-.762-5.47-2.266-3.018-3.018-3.018-7.912 0-10.93l39.116-39.106h.515c5.748 0 10.405 4.657 10.405 10.405z" fill="#925b46"/></g><g><path d="m426.66 181.072v.515l-29.298 29.309v-21.85l18.379-18.378h.515c2.874 0 5.48 1.164 7.355 3.049 1.885 1.885 3.049 4.481 3.049 7.355z" fill="#865240"/></g></g><g><path d="m371.055 301.331h-59.446c-8.62 0-15.608-6.988-15.608-15.608v-59.446c0-8.62 6.988-15.608 15.608-15.608h59.446c8.62 0 15.608 6.988 15.608 15.608v59.446c0 8.62-6.988 15.608-15.608 15.608z" fill="#ba7c65"/><path d="m386.668 226.272v59.456c0 8.615-6.992 15.608-15.608 15.608h-32.704c8.626 0 15.608-6.992 15.608-15.608v-59.456c0-8.616-6.982-15.608-15.608-15.608h32.704c8.616 0 15.608 6.992 15.608 15.608z" fill="#a96a53"/></g></g><g><path d="m426.666 351.738v149.857c0 5.744-4.662 10.405-10.405 10.405h-29.301c5.754 0 10.405-4.662 10.405-10.405v-149.857c0-5.744-4.651-10.405-10.405-10.405h29.301c5.743 0 10.405 4.661 10.405 10.405z" fill="#925b46"/><g><g><path d="m426.665 501.069v.525c0 5.738-4.656 10.405-10.405 10.405h-.515l-39.116-39.106c-3.018-3.018-3.018-7.912 0-10.93s7.912-3.018 10.93 0z" fill="#ba7c65"/></g><g><path d="m426.67 501.07v.525c0 5.749-4.667 10.405-10.405 10.405h-.525l-18.379-18.379v-21.85l29.298 29.298h.011z" fill="#a96a53"/></g><g><path d="m306.035 472.883-39.106 39.116h-.525c-5.738 0-10.405-4.667-10.405-10.405v-.525l39.116-39.116c3.018-3.008 7.912-3.008 10.92 0 3.019 3.018 3.019 7.912 0 10.93z" fill="#ba7c65"/></g><g><path d="m306.035 391.37c-1.504 1.504-3.482 2.266-5.46 2.266s-3.956-.762-5.47-2.266l-39.105-39.116v-.515c0-5.748 4.667-10.405 10.405-10.405h.525l39.106 39.106c3.018 3.018 3.018 7.911-.001 10.93z" fill="#ba7c65"/></g><g><path d="m426.665 351.738v.515l-39.106 39.116c-1.514 1.504-3.492 2.266-5.46 2.266-1.978 0-3.956-.762-5.47-2.266-3.018-3.018-3.018-7.912 0-10.93l39.116-39.106h.515c5.748.001 10.405 4.657 10.405 10.405z" fill="#ba7c65"/></g><g><path d="m426.66 351.735v.515l-29.298 29.309v-21.85l18.379-18.378h.515c2.874 0 5.48 1.164 7.355 3.049 1.885 1.884 3.049 4.481 3.049 7.355z" fill="#a96a53"/></g></g><g><path d="m371.055 471.997h-59.446c-8.62 0-15.608-6.988-15.608-15.608v-59.446c0-8.62 6.988-15.608 15.608-15.608h59.446c8.62 0 15.608 6.988 15.608 15.608v59.446c0 8.62-6.988 15.608-15.608 15.608z" fill="#c58d7c"/><path d="m386.668 396.938v59.456c0 8.615-6.992 15.608-15.608 15.608h-32.704c8.626 0 15.608-6.992 15.608-15.608v-59.456c0-8.616-6.982-15.608-15.608-15.608h32.704c8.616 0 15.608 6.993 15.608 15.608z" fill="#ba7c65"/></g></g></g></g></g></svg>