<svg id="Capa_1" enable-background="new 0 0 512 512" height="512" viewBox="0 0 512 512" width="512" xmlns="http://www.w3.org/2000/svg"><g><path d="m162.807 45.99h186.389v69.537h-186.389z" fill="#70d9e6"/><path d="m315.173 45.99h34.022v69.537h-34.022z" fill="#3ad1e0"/><path d="m409.735 145.307v8.355h-307.468v-8.355c0-14.649 8.86-27.846 22.427-33.378l38.117-15.566h186.38l38.117 15.566c13.567 5.532 22.427 18.729 22.427 33.378z" fill="#a8e7ef"/><path d="m409.735 145.307v8.355h-46.121v-8.355c0-14.649-8.86-27.846-22.417-33.378l-38.117-15.566h46.111l38.117 15.566c13.567 5.532 22.427 18.729 22.427 33.378z" fill="#70d9e6"/><path d="m102.267 145.307h307.468v61.1h-307.468z" fill="#925b46"/><path d="m102.267 361.439h307.468v62.996c0 48.357-39.198 87.565-87.565 87.565h-132.337c-48.367 0-87.565-39.209-87.565-87.565v-62.996z" fill="#925b46"/><g fill="#865240"><path d="m102.267 361.439h307.468v36.376h-307.468z"/><path d="m363.614 145.307h46.121v61.1h-46.121z"/><path d="m363.614 361.439h46.121v62.996c0 48.357-39.198 87.565-87.565 87.565h-46.121c48.367 0 87.565-39.209 87.565-87.565z"/></g><path d="m369.873 65.196h-227.744c-9.327 0-16.888-7.561-16.888-16.888v-31.42c.001-9.327 7.562-16.888 16.888-16.888h227.744c9.327 0 16.888 7.561 16.888 16.888v31.421c0 9.326-7.561 16.887-16.888 16.887z" fill="#22c7db"/><path d="m386.762 16.885v31.421c0 9.333-7.561 16.895-16.885 16.895h-227.752c-9.323 0-16.885-7.562-16.885-16.895v-31.421c0-9.324 7.562-16.885 16.885-16.885h227.753c9.323 0 16.884 7.561 16.884 16.885z" fill="#22c7db"/><path d="m386.762 16.885v31.421c0 9.333-7.561 16.895-16.885 16.895h-40.661c9.323 0 16.885-7.562 16.885-16.895v-31.421c0-9.324-7.562-16.885-16.885-16.885h40.661c9.324 0 16.885 7.561 16.885 16.885z" fill="#1fb2cc"/><path d="m409.735 194.663v180.519h-152.714c-9.107-69.939-82.559-125.548-154.754-132.285v-48.233h307.468z" fill="#22c7db"/><path d="m363.614 194.663h46.121v180.519h-46.121z" fill="#1fb2cc"/><path d="m102.265 227.651c81.48 0 170.269 66.052 170.269 147.532h-170.269z" fill="#fcc16d"/><g><g><path d="m154.972 294.411-19.05-.001c-4.268 0-7.726-3.46-7.726-7.726 0-4.268 3.46-7.726 7.726-7.726l19.05.001c4.268 0 7.726 3.46 7.726 7.726 0 4.268-3.459 7.726-7.726 7.726z" fill="#fff2e3"/></g><g><path d="m204.498 321.729-68.575-.002c-4.268 0-7.726-3.46-7.726-7.726 0-4.268 3.46-7.726 7.726-7.726l68.575.002c4.268 0 7.726 3.46 7.726 7.726 0 4.268-3.459 7.726-7.726 7.726z" fill="#fff2e3"/></g><g><path d="m204.498 349.046-68.575-.002c-4.268 0-7.726-3.46-7.726-7.726 0-4.268 3.46-7.726 7.726-7.726l68.575.002c4.268 0 7.726 3.46 7.726 7.726 0 4.268-3.459 7.726-7.726 7.726z" fill="#fff2e3"/></g></g><g><path d="m294.31 251.847h59.192v59.192h-59.192z" fill="#925b46" transform="matrix(.707 -.707 .707 .707 -104.14 311.469)"/><g><path d="m320.999 284.35-18.02 18.02c-1.606 1.606-4.209 1.606-5.814 0l-18.02-18.02c-1.606-1.606-1.606-4.209 0-5.814l18.02-18.02c1.606-1.606 4.209-1.606 5.814 0l18.02 18.02c1.606 1.606 1.606 4.209 0 5.814z" fill="#a96a53"/></g><g><path d="m344.834 260.516-18.02 18.02c-1.606 1.606-4.209 1.606-5.814 0l-18.02-18.02c-1.606-1.606-1.606-4.209 0-5.814l18.02-18.02c1.606-1.606 4.209-1.606 5.814 0l18.02 18.02c1.606 1.605 1.606 4.208 0 5.814z" fill="#925b46"/></g><g><path d="m344.834 308.185-18.02 18.02c-1.606 1.606-4.209 1.606-5.814 0l-18.02-18.02c-1.606-1.606-1.606-4.209 0-5.814l18.02-18.02c1.606-1.606 4.209-1.606 5.814 0l18.02 18.02c1.606 1.605 1.606 4.208 0 5.814z" fill="#925b46"/></g><g><path d="m368.669 284.35-18.02 18.02c-1.606 1.606-4.209 1.606-5.814 0l-18.02-18.02c-1.606-1.606-1.606-4.209 0-5.814l18.02-18.02c1.606-1.606 4.209-1.606 5.814 0l18.02 18.02c1.605 1.606 1.605 4.209 0 5.814z" fill="#a96a53"/></g></g></g></svg>