<svg id="Capa_1" enable-background="new 0 0 512 512" height="512" viewBox="0 0 512 512" width="512" xmlns="http://www.w3.org/2000/svg"><g><path d="m425.254 232.013c0 108.032-50.619 204.24-129.427 266.221-23.336 18.353-56.321 18.354-79.659.004-78.829-61.981-129.422-158.191-129.422-266.225 0-78.557 75.777-142.239 169.254-142.239s169.254 63.683 169.254 142.239z" fill="#fb4a59"/><path d="m425.25 232.009c0 108.036-50.613 204.245-129.423 266.222-17.822 14.021-41.269 17.328-61.75 9.941 6.336-2.287 12.393-5.604 17.905-9.941 78.81-61.976 129.433-158.186 129.433-266.222 0-72.309-64.212-132.019-147.338-141.053 7.18-.783 14.495-1.185 21.922-1.185 93.48 0 169.251 63.686 169.251 142.238z" fill="#f82f40"/><path d="m425.25 232.009c0 30.102-3.925 59.287-11.311 87.072-.216.01-.423.021-.608.031-.597.021-1.154.031-1.71.031-25.755 0-46.709-20.954-46.709-46.699 0-3.029-2.472-5.501-5.501-5.501l-.216.01c-4.151.144-5.264 7.108-5.264 11.198v50.17c0 25.611-19.769 46.389-44.999 47.306-.577.021-1.143.031-1.7.031-12.465 0-24.199-4.862-33.018-13.681-8.829-8.829-13.691-20.552-13.691-33.028v-28.32c0-3.029-2.452-5.491-5.47-5.491h-.155c-2.998.083-5.347 2.493-5.347 5.491v28.206c.052 12.424-4.78 24.199-13.609 33.059-8.829 8.87-20.583 13.743-33.09 13.743-.814 0-1.638-.021-2.462-.062-24.797-1.257-44.236-22.015-44.236-47.255v-94.396c0-3.029-2.473-5.501-5.501-5.501l-.216.01c-2.854.103-5.275 2.895-5.275 6.109v37.262c0 25.621-19.769 46.4-45.009 47.306-.505.021-1.185.031-1.947.031h-.134c-7.386-27.805-11.322-57.011-11.322-87.134 0-78.552 75.771-142.238 169.25-142.238s169.25 63.688 169.25 142.24z" fill="#f82f40"/><path d="m425.25 232.009c0 22.602-2.215 44.679-6.449 66.035-2.225.258-4.852.422-6.233.474-14.845.525-27.053-11.342-27.053-26.074s-12.198-26.61-27.053-26.084c-14.134.505-25.137 12.548-25.137 31.792v50.17c0 14.155-10.992 26.198-25.147 26.713-14.835.525-27.053-11.363-27.053-26.084v-28.32c0-14.443-11.713-26.095-26.074-26.095-.227 0-.464 0-.69.01-14.144.371-25.415 11.94-25.415 26.084v28.206c.062 14.917-12.404 26.95-27.485 26.167-13.959-.711-24.704-12.692-24.704-26.682v-94.396c0-14.732-12.208-26.61-27.053-26.084-14.134.505-25.147 12.548-25.147 26.702v37.262c0 14.155-11.002 26.208-25.137 26.713-1.37.052-3.946 0-6.161-.165-4.275-21.448-6.511-43.639-6.511-66.344 0-78.552 75.771-142.238 169.25-142.238s169.252 63.686 169.252 142.238z" fill="#a96a53"/><ellipse cx="256" cy="153.661" fill="#925b46" rx="94.66" ry="20.583"/><path d="m425.25 232.009c0 22.602-2.215 44.679-6.449 66.035-2.225.258-4.852.422-6.233.474-14.845.525-27.053-11.342-27.053-26.074 0-5.748-1.865-11.064-5.017-15.381.608-8.272.917-16.627.917-25.054 0-72.309-64.201-132.019-147.327-141.053 7.18-.783 14.485-1.185 21.912-1.185 93.479 0 169.25 63.686 169.25 142.238z" fill="#925b46"/><g><path d="m340.579 127.978c-22.951 22.951-55.46 30.521-84.715 22.706-7.809-29.249-.238-61.758 22.713-84.709 21.21-21.21 50.578-29.279 78.001-24.222 4.167.768 7.45 4.051 8.219 8.218 5.063 27.428-3.007 56.797-24.218 78.007z" fill="#54c032"/><path d="m340.579 127.98c-22.953 22.953-55.455 30.514-84.713 22.705-.803-3.008-1.442-6.058-1.916-9.128 21.943-.371 43.773-8.921 60.524-25.672 20.594-20.593 28.794-48.862 24.621-75.585 5.852-.093 11.713.391 17.482 1.453 4.172.773 7.448 4.049 8.221 8.221 5.059 27.424-3.008 56.795-24.219 78.006z" fill="#4ba72d"/><path d="m171.42 127.977c22.951 22.951 55.459 30.522 84.714 22.707 7.809-29.249.239-61.758-22.712-84.709-21.21-21.21-50.578-29.28-78.001-24.224-4.167.768-7.45 4.051-8.219 8.218-5.062 27.429 3.008 56.797 24.218 78.008z" fill="#54c032"/><path d="m256.134 150.686c-7.242 1.926-14.67 2.926-22.118 2.977.896-23.54-7.654-47.368-25.61-65.335-17.276-17.276-39.961-25.827-62.594-25.672.144-4.245.618-8.489 1.391-12.682.773-4.172 4.049-7.459 8.221-8.221 27.424-5.058 56.794 3.008 77.996 24.22 22.951 22.953 30.523 55.466 22.714 84.713z" fill="#4ba72d"/><path d="m299.842 74.086c0 32.457-17.634 60.798-43.847 75.958-26.204-15.161-43.838-43.501-43.837-75.959 0-29.995 15.06-56.468 38.027-72.283 3.49-2.403 8.133-2.403 11.623-.001 22.974 15.816 38.034 42.289 38.034 72.285z" fill="#83d167"/><path d="m299.845 74.091c0 29.144-14.227 54.981-36.118 70.918-2.472 1.813-5.058 3.492-7.726 5.037-2.668-1.545-5.254-3.224-7.726-5.037-21.891-15.937-36.118-41.774-36.118-70.918 0-29.999 15.061-56.474 38.034-72.288 3.482-2.4 8.128-2.4 11.62 0 22.972 15.813 38.034 42.289 38.034 72.288z" fill="#83d167"/><path d="m299.845 74.091c0 32.451-17.637 60.792-43.845 75.956-5.553-3.214-10.724-7.016-15.412-11.332 17.482-16.03 28.433-39.044 28.444-64.624 0-25.59-10.961-48.615-28.433-64.634 3.008-2.781 6.212-5.336 9.591-7.654 3.482-2.4 8.128-2.4 11.621 0 22.972 15.813 38.034 42.289 38.034 72.288z" fill="#6bc94d"/></g><g><path d="m294.111 254.876c-16.073 0-29.151-13.076-29.151-29.15v-14.374c0-4.268 3.459-7.726 7.726-7.726s7.726 3.459 7.726 7.726v14.374c0 7.552 6.145 13.697 13.698 13.697 7.552 0 13.697-6.145 13.697-13.697v-36.008c0-4.268 3.459-7.726 7.726-7.726s7.726 3.459 7.726 7.726v36.008c.002 16.074-13.075 29.15-29.148 29.15z" fill="#925b46"/></g><g><g id="XMLID_92_"><path d="m185.009 389.141h-.177c-4.268 0-7.726-3.459-7.726-7.726s3.459-7.726 7.726-7.726h.177c4.268 0 7.726 3.459 7.726 7.726s-3.458 7.726-7.726 7.726z" fill="#925b46"/></g><g id="XMLID_91_"><path d="m256.09 389.188c-.015 0-.03 0-.045 0l-.177-.001c-4.267-.024-7.706-3.503-7.682-7.771.024-4.252 3.479-7.682 7.725-7.682h.045l.177.001c4.267.024 7.706 3.503 7.682 7.771-.024 4.252-3.479 7.682-7.725 7.682z" fill="#925b46"/></g><g id="XMLID_90_"><path d="m327.169 389.235c-.015 0-.03 0-.045 0l-.177-.001c-4.267-.024-7.706-3.503-7.682-7.771.024-4.251 3.479-7.682 7.725-7.682h.045l.177.001c4.267.024 7.706 3.503 7.682 7.771-.024 4.252-3.479 7.682-7.725 7.682z" fill="#925b46"/></g></g><g><g id="XMLID_89_"><path d="m144.833 326.409h-.177c-4.268 0-7.726-3.459-7.726-7.726s3.459-7.726 7.726-7.726h.177c4.268 0 7.726 3.459 7.726 7.726s-3.458 7.726-7.726 7.726z" fill="#925b46"/></g><g id="XMLID_86_"><path d="m370.435 326.55h-.177c-4.268 0-7.726-3.459-7.726-7.726s3.459-7.726 7.726-7.726h.177c4.268 0 7.726 3.459 7.726 7.726s-3.459 7.726-7.726 7.726z" fill="#925b46"/></g></g><g><g id="XMLID_236_"><path d="m256.09 488.266c-.015 0-.03 0-.045 0l-.177-.001c-4.267-.024-7.706-3.503-7.682-7.771.024-4.251 3.479-7.682 7.725-7.682h.045l.177.001c4.267.024 7.706 3.503 7.682 7.771-.024 4.251-3.479 7.682-7.725 7.682z" fill="#925b46"/></g></g><g><g id="XMLID_228_"><path d="m222.095 440.069h-.178c-4.268 0-7.726-3.459-7.726-7.726s3.459-7.726 7.726-7.726h.178c4.268 0 7.726 3.459 7.726 7.726s-3.459 7.726-7.726 7.726z" fill="#925b46"/></g><g id="XMLID_95_"><path d="m290.085 440.117c-.015 0-.029 0-.044 0l-.178-.001c-4.268-.024-7.707-3.503-7.683-7.77.024-4.253 3.479-7.683 7.725-7.683h.044l.178.001c4.268.024 7.707 3.503 7.683 7.77-.024 4.252-3.479 7.683-7.725 7.683z" fill="#925b46"/></g></g><g><path d="m263.726 83.743v61.265c-2.472 1.813-5.058 3.492-7.726 5.037-2.668-1.545-5.254-3.224-7.726-5.037v-61.265c0-4.275 3.461-7.726 7.726-7.726s7.726 3.451 7.726 7.726z" fill="#54c032"/></g></g></svg>