<svg id="Capa_1" enable-background="new 0 0 512 512" height="512" viewBox="0 0 512 512" width="512" xmlns="http://www.w3.org/2000/svg"><g><g><g><path d="m42.19 294.479c-20.989 0-38.054-16.805-38.472-37.695-.432-21.591 17.671-39.264 39.266-39.264h426.032c21.595 0 39.698 17.673 39.266 39.264-.418 20.889-17.482 37.695-38.472 37.695z" fill="#fff2e3"/></g></g><g><path d="m508.281 256.783c-.412 20.892-17.482 37.694-38.467 37.694h-45.73c20.985 0 38.055-16.802 38.467-37.694.433-21.593-17.668-39.26-39.26-39.26h45.73c21.592 0 39.693 17.667 39.26 39.26z" fill="#fee7c9"/></g><path d="m505.963 243.051c-7.057 3.781-15.113 5.924-23.663 5.924h-452.6c-8.55 0-16.607-2.143-23.663-5.924 5.512-14.876 20.181-25.528 36.942-25.528h426.042c16.761 0 31.431 10.652 36.942 25.528z" fill="#fee7c9"/><path d="m487.454 348.499c0 54.04-103.626 97.848-231.454 97.848s-231.454-43.808-231.454-97.848v-25.964h462.909v25.964z" fill="#fca62f"/><path d="m483.409 366.741c2.641-5.911 4.045-12.007 4.045-18.242v-25.964h-462.908v25.964c0 6.236 1.404 12.331 4.045 18.242z" fill="#fb9927"/><path d="m487.451 322.539v25.961c0 47.368-79.612 86.875-185.35 95.899 79.818-16.359 135.273-52.446 135.273-94.344v-27.516z" fill="#fb9927"/><path d="m29.697 283.631h452.607c16.401 0 29.697 13.296 29.697 29.697 0 16.401-13.296 29.696-29.697 29.696h-452.607c-16.401 0-29.697-13.296-29.697-29.697 0-16.401 13.296-29.696 29.697-29.696z" fill="#fcc16d"/><path d="m512 313.329c0 8.2-3.327 15.628-8.695 20.995-5.378 5.367-12.805 8.695-21.005 8.695h-45.73c8.2 0 15.628-3.327 20.995-8.695 5.378-5.367 8.705-12.795 8.705-20.995 0-16.4-13.3-29.7-29.7-29.7h45.73c16.4.001 29.7 13.3 29.7 29.7z" fill="#fcb44d"/><path d="m24.546 163.501c0-54.04 103.626-97.848 231.454-97.848s231.454 43.808 231.454 97.848v25.964h-462.908z" fill="#fca62f"/><path d="m487.451 163.5v25.961h-50.077v-27.598c0-41.485-54.023-77.295-132.172-93.994 104.192 9.539 182.249 48.727 182.249 95.631z" fill="#fb9927"/><path d="m482.303 228.369h-452.606c-16.401 0-29.697-13.295-29.697-29.696 0-16.401 13.296-29.697 29.697-29.697h452.607c16.401 0 29.697 13.296 29.697 29.697-.001 16.401-13.297 29.696-29.698 29.696z" fill="#fcc16d"/><path d="m512 198.67c0 8.2-3.327 15.628-8.695 21.005-5.378 5.367-12.805 8.695-21.005 8.695h-45.73c8.2 0 15.628-3.327 20.995-8.695 5.378-5.378 8.705-12.805 8.705-21.005 0-16.401-13.3-29.69-29.7-29.69h45.73c16.4.001 29.7 13.29 29.7 29.69z" fill="#fcb44d"/></g></svg>