<svg id="Capa_1" enable-background="new 0 0 512 512" height="512" viewBox="0 0 512 512" width="512" xmlns="http://www.w3.org/2000/svg"><g><g><g><g fill="#c2e8b1"><path d="m186.916 65.458h-92.324l-10.518-28.907c-1.968-5.429.824-11.425 6.253-13.403l61.862-22.52c5.429-1.968 11.425.834 13.403 6.253z"/><path d="m244.781 224.466h-92.314l-34.356-94.395h92.314z"/><path d="m301.678 380.765h-92.324l-33.368-91.696h92.314z"/><path d="m329.884 488.851-61.862 22.52c-5.429 1.968-11.425-.835-13.403-6.253l-21.747-59.74h92.325l10.94 30.071c1.968 5.429-.824 11.424-6.253 13.402z"/></g><path d="m186.916 65.458h-39.054l-16.75-46.028c-1.926-5.275-7.654-8.066-12.96-6.397l34.037-12.403c5.429-1.968 11.425.834 13.403 6.253z" fill="#aee097"/><path d="m244.781 224.466h-39.043l-34.357-94.395h39.044z" fill="#aee097"/><path d="m301.678 380.765h-39.054l-33.367-91.696h39.043z" fill="#aee097"/><path d="m329.884 488.851-34.48 12.548c5.429-1.978 8.221-7.974 6.253-13.403l-15.514-42.618h39.054l10.94 30.071c1.968 5.429-.824 11.424-6.253 13.402z" fill="#aee097"/></g><g><path d="m298.042 370.793 30.563 83.969-92.097.592-30.558-83.959z" fill="#83d167"/><path d="m259.087 371.044 38.955-.251 30.563 83.969-38.956.251z" fill="#6bc94d"/><path d="m240.872 213.72 30.563 83.969-92.1.581-30.559-83.959z" fill="#83d167"/><path d="m201.916 213.97 38.956-.25 30.563 83.969-38.956.251z" fill="#6bc94d"/><path d="m183.699 56.636 30.562 83.969-92.097.592-30.558-83.96z" fill="#83d167"/><path d="m183.699 56.636 30.562 83.969-38.956.251-30.562-83.969z" fill="#6bc94d"/></g></g><g><g><g fill="#22c7db"><path d="m85.609 374.563 31.74 86.607-24.456 20.521c-4.419 3.708-11.023 3.132-14.732-1.288l-42.32-50.427c-3.709-4.419-3.132-11.023 1.288-14.732z"/><path d="m213.958 266.868 31.74 86.597-75.728 63.552-31.74-86.607z"/><path d="m341.443 159.895 31.74 86.607-74.863 62.81-31.73-86.607z"/><path d="m474.872 161.172-49.057 41.166-31.74-86.607 25.033-21.005c4.419-3.709 11.023-3.132 14.732 1.288l42.32 50.437c3.708 4.419 3.131 11.012-1.288 14.721z"/></g><path d="m103.925 424.537 13.423 36.633-24.456 20.521c-4.419 3.708-11.023 3.132-14.732-1.288l-23.58-28.103c3.709 4.419 10.302 4.996 14.721 1.288z" fill="#1fb2cc"/><path d="m245.698 353.465-75.728 63.552-13.423-36.633 75.728-63.552z" fill="#1fb2cc"/><path d="m373.183 246.502-74.863 62.81-13.424-36.634 74.863-62.809z" fill="#1fb2cc"/><path d="m474.872 161.172-49.057 41.166-13.423-36.633 38.889-32.636c4.419-3.708 4.996-10.312 1.288-14.731l23.591 28.113c3.708 4.419 3.131 11.012-1.288 14.721z" fill="#1fb2cc"/></g><g><path d="m178.206 410.106-68.452 57.438-32.055-86.34 68.444-57.432z" fill="#d4f2f6"/><path d="m164.646 373.585 13.56 36.521-68.452 57.438-13.56-36.521z" fill="#a8e7ef"/><path d="m306.253 302.661-68.452 57.438-32.046-86.347 68.444-57.431z" fill="#d4f2f6"/><path d="m292.694 266.14 13.559 36.521-68.452 57.438-13.559-36.521z" fill="#a8e7ef"/><path d="m434.309 195.209-68.452 57.439-32.055-86.34 68.444-57.432z" fill="#d4f2f6"/><path d="m434.309 195.209-68.452 57.439-13.559-36.521 68.452-57.438z" fill="#a8e7ef"/></g></g></g></svg>