<svg id="Capa_1" enable-background="new 0 0 512 512" height="512" viewBox="0 0 512 512" width="512" xmlns="http://www.w3.org/2000/svg"><g><g><path d="m475.671 222.6-253.048 253.049c-48.439 48.439-126.974 48.439-175.412 0-48.439-48.439-48.439-126.974 0-175.412l253.047-253.049c48.439-48.439 126.974-48.439 175.412 0 48.44 48.439 48.44 126.974.001 175.412z" fill="#22c7db"/><g fill="#1fb2cc"><path d="m447.201 25.895c-.022.109-.058.203-.087.305-.131.392-.457 1.748.66 2.865 17.111 17.111 17.111 44.936.007 62.039-17.111 17.111-44.935 17.111-62.046 0-1.103-1.103-2.901-1.103-4.004 0l-.087.087c-1.088 1.175-1.059 2.785.073 3.917 17.104 17.104 17.104 44.928 0 62.032-.37.37-.754.74-1.139 1.095-17.365 16.175-44.29 15.523-61.299-1.487l-14.79-14.79c-1.11-1.11-2.909-1.11-4.011-.007l-.087.087c-.986 1.059-.762 3.083.486 4.33l50.542 50.542c17.104 17.104 17.104 44.943.007 62.039-.37.37-.754.74-1.139 1.095-17.365 16.175-44.29 15.523-61.299-1.487l-34.969-34.969c-1.24-1.24-3.264-1.465-4.323-.479l-.08.08c-1.11 1.11-1.11 2.909-.007 4.011 17.104 17.104 17.111 44.936.007 62.039-.37.37-.754.74-1.139 1.095-17.365 16.175-44.29 15.523-61.299-1.487l-9.546-9.546c-1.248-1.248-3.271-1.472-4.33-.486l-.08.08c-1.11 1.11-1.11 2.909 0 4.018 17.104 17.104 17.111 44.936.007 62.039-17.111 17.111-44.943 17.104-62.047 0-1.11-1.11-2.909-1.11-4.011-.007l-.087.087c-.987 1.059-.762 3.083.486 4.33l45.697 45.697c17.104 17.104 17.104 44.943.007 62.039-.37.37-.754.74-1.139 1.095-17.365 16.175-44.29 15.523-61.299-1.487l-34.969-34.969c-1.24-1.24-3.264-1.465-4.323-.479l-.08.08c-1.11 1.11-1.11 2.909-.007 4.011 12.73 12.73 16.378 32.336 9.096 48.787-1.349 3.046-3.228 5.781-5.578 8.131-.094.094-.189.189-.29.276-2.561-2.183-5.056-4.475-7.478-6.898-24.221-24.215-36.334-55.956-36.327-87.705 0-31.741 12.113-63.483 36.333-87.702l253.046-253.046c39.793-39.793 99.91-46.902 146.942-21.297z"/><path d="m475.671 47.184c24.219 24.219 36.333 55.961 36.326 87.71 0 31.741-12.106 63.49-36.326 87.71l-253.046 253.045c-48.439 48.439-126.98 48.439-175.419 0-5.128-5.128-9.705-10.59-13.746-16.328 48.396 34.15 115.773 29.558 159.084-13.753l253.046-253.045c24.22-24.22 36.333-55.961 36.333-87.702.007-25.032-7.522-50.056-22.58-71.382 5.737 4.04 11.199 8.617 16.328 13.745z"/></g></g><path d="m427.945 14.338c-.791-4.645-4.17-8.453-8.708-9.722-41.723-11.664-88.342-1.128-121.161 31.691l-261.75 261.75c-24.22 24.22-36.326 55.969-36.326 87.71 0 29.208 10.265 58.411 30.773 81.758 1.247 1.419 3.068 2.199 4.957 2.184l.069-.001c2.579-.022 4.949-1.516 5.993-3.874 3.794-8.566 2.181-18.946-4.843-25.97-9.321-9.321-9.118-24.553.617-33.62 9.263-8.624 23.85-7.964 32.808.994l34.969 34.969c8.951 8.951 23.538 9.611 32.808.979 9.727-9.06 9.93-24.292.609-33.613l-45.702-45.702c-8.951-8.951-9.618-23.545-.987-32.815 9.06-9.727 24.299-9.923 33.613-.609 9.125 9.125 23.908 9.125 33.033 0 9.118-9.118 9.118-23.9-.007-33.025-9.313-9.313-9.11-24.56.617-33.62 9.263-8.624 23.857-7.957 32.808.994l9.55 9.55c8.951 8.951 23.538 9.611 32.808.979 9.727-9.06 9.93-24.292.609-33.613s-9.11-24.56.617-33.62c9.263-8.624 23.85-7.964 32.808.994l34.969 34.969c8.951 8.951 23.538 9.611 32.808.979 9.727-9.06 9.93-24.292.609-33.613l-50.547-50.547c-8.951-8.951-9.618-23.545-.986-32.815 9.06-9.727 24.299-9.923 33.613-.609l14.795 14.795c8.951 8.951 23.538 9.611 32.808.979 9.727-9.06 9.937-24.285.617-33.605-8.951-8.951-9.212-23.139-.58-32.409 9.06-9.727 24.292-9.93 33.613-.609 9.118 9.118 23.908 9.125 33.033 0 9.118-9.118 9.11-23.908-.007-33.025-6.413-6.413-8.29-15.618-5.678-23.691.574-1.787.666-3.696.351-5.547z" fill="#fb8189"/><g id="XMLID_660_"><path d="m105.496 295.049c-.623 0-1.255-.075-1.886-.234-4.139-1.038-6.652-5.235-5.614-9.374l2.696-10.746c1.039-4.139 5.237-6.656 9.374-5.614 4.139 1.038 6.652 5.235 5.614 9.374l-2.696 10.746c-.879 3.507-4.029 5.848-7.488 5.848z" fill="#fb4a59"/></g><g id="XMLID_661_"><path d="m242.046 181.607c-.622 0-1.255-.075-1.886-.234l-10.746-2.696c-4.139-1.038-6.652-5.235-5.614-9.374 1.038-4.14 5.236-6.657 9.374-5.614l10.746 2.696c4.139 1.038 6.652 5.235 5.614 9.374-.879 3.508-4.028 5.848-7.488 5.848z" fill="#fb4a59"/></g><g id="XMLID_664_"><path d="m161.357 241.885c-.623 0-1.255-.075-1.886-.234l-10.746-2.696c-4.139-1.038-6.652-5.235-5.614-9.374s5.236-6.656 9.374-5.614l10.746 2.696c4.139 1.038 6.652 5.235 5.614 9.374-.88 3.507-4.03 5.848-7.488 5.848z" fill="#fb4a59"/></g><g id="XMLID_667_"><path d="m307.005 91.85c-.623 0-1.256-.075-1.886-.234l-10.745-2.696c-4.139-1.038-6.652-5.235-5.614-9.374 1.039-4.14 5.241-6.657 9.374-5.614l10.745 2.696c4.139 1.038 6.652 5.235 5.614 9.374-.88 3.508-4.029 5.848-7.488 5.848z" fill="#fb4a59"/></g></g></svg>