<svg id="Capa_1" enable-background="new 0 0 512 512" height="512" viewBox="0 0 512 512" width="512" xmlns="http://www.w3.org/2000/svg"><g><path d="m258.676 5.447c-139.877 0-253.276 113.398-253.276 253.276s113.398 253.275 253.275 253.275 253.276-113.398 253.276-253.275-113.398-253.276-253.275-253.276zm-6.653 344.06c-50.144 0-90.796-40.64-90.796-90.785s40.652-90.785 90.796-90.785c50.133 0 90.785 40.64 90.785 90.785s-40.651 90.785-90.785 90.785z" fill="#fcb44d"/><path d="m511.953 258.723c0 139.876-113.4 253.277-253.277 253.277-8.558 0-17.012-.427-25.352-1.26 127.977-12.712 227.926-120.699 227.926-252.017s-99.949-239.306-227.926-252.018c8.339-.833 16.794-1.26 25.352-1.26 139.877 0 253.277 113.401 253.277 253.278z" fill="#fca62f"/><path d="m506.071 204.198c-1.156.573-2.363 1.062-3.592 1.489-1.031.344-2.093 1.687-2.093 3.321v70.849c0 11.89-4.633 23.072-13.035 31.484-8.412 8.412-19.594 13.035-31.484 13.035-.531 0-1.062 0-1.603-.021-24.071-.864-42.926-20.656-42.926-45.06v-18.959c0-1.791-1.281-3.394-2.749-3.446h-.125c-1.593 0-2.884 1.291-2.884 2.874 0 24.55-19.969 44.519-44.519 44.519-.531 0-1.072 0-1.603-.021-9.193-.323-17.616-3.415-24.529-8.475 5.06-11.317 7.881-23.863 7.881-37.064 0-50.141-40.656-90.787-90.787-90.787-50.141 0-90.798 40.646-90.798 90.787 0 3.498.198 6.955.593 10.359h-.125c-2.082 0-4.154-.239-6.174-.718-20.198-4.758-34.295-22.572-34.295-43.332 0-1.583-1.291-2.874-2.874-2.874h-.125c-1.468.052-2.759 1.666-2.759 3.446v102.084c0 24.55-19.969 44.519-44.519 44.519-.531 0-1.062 0-1.603-.021-24.071-.864-42.926-20.656-42.926-45.06v-50.193c0-1.78-1.291-3.394-2.748-3.446l-.125-.01c-.645 0-1.208.198-1.718.583-4.467 3.394-9.985 5.32-15.586 5.424-.562-6.851-.843-13.774-.843-20.76 0-139.877 113.401-253.277 253.277-253.277 121.158-.002 222.45 85.08 247.396 198.751z" fill="#fca62f"/><path d="" style="fill:none;stroke:#000;stroke-width:15;stroke-linecap:round;stroke-linejoin:round;stroke-miterlimit:10"/><path d="m502.563 172.188c-35.599-100.332-131.355-172.188-243.887-172.188-140.94 0-255.532 112.711-258.628 252.907-.036 1.652.676 3.237 1.922 4.323l.058.051c2.037 1.775 5.029 1.847 7.178.21 4.192-3.193 9.479-5.022 15.203-4.817 12.837.458 22.832 11.401 22.832 24.259v50.193c0 12.848 9.995 23.79 22.843 24.248 13.483.479 24.56-10.307 24.56-23.686v-102.084c0-12.848 9.995-23.8 22.843-24.258 13.483-.479 24.56 10.318 24.56 23.686 0 11.217 7.783 20.603 18.245 23.068 2.209.52 4.532-.238 6.099-1.88.012-.013.025-.026.037-.039.904-.947 1.507-2.132 1.751-3.418 7.467-39.498 42.164-69.371 83.844-69.371 47.122 0 85.332 38.199 85.332 85.332 0 .156 0 .323-.01.479h.01c0 12.848 9.995 23.79 22.842 24.248 13.483.479 24.56-10.307 24.56-23.686s11.088-24.165 24.571-23.686c12.837.458 22.832 11.4 22.832 24.259v18.959c0 12.848 9.995 23.79 22.843 24.248 13.483.479 24.56-10.307 24.56-23.686v-70.851c0-10.496 6.664-19.764 16.159-23.021 2.334-.8 4.373-2.283 5.713-4.354l.051-.079c1.801-2.782 2.185-6.243 1.077-9.366z" fill="#99d980"/><path d="m501.49 181.553-.052.083c-1.343 2.072-3.384 3.55-5.716 4.352-9.495 3.259-16.158 12.525-16.158 23.02v70.849c0 13.378-11.078 24.165-24.56 23.686-8.527-.302-15.794-5.227-19.719-12.254 1.884-3.394 2.946-7.288 2.946-11.432v-70.849c0-10.495 6.663-19.761 16.158-23.02 2.332-.802 4.373-2.28 5.716-4.352l.052-.083c1.801-2.78 2.186-6.247 1.072-9.37-33.389-94.108-119.72-163.177-223.178-171.36 6.809-.552 13.681-.823 20.625-.823 112.537 0 208.29 71.859 243.886 172.183 1.114 3.124.729 6.591-1.072 9.37z" fill="#83d167"/><g id="XMLID_257_"><path d="m160.214 172.449c-.008 0-.015 0-.023 0l-11.004-.033c-4.268-.013-7.716-3.483-7.703-7.749.013-4.26 3.47-7.703 7.725-7.703h.024l11.004.033c4.268.013 7.716 3.483 7.703 7.749-.012 4.259-3.469 7.703-7.726 7.703z" fill="#6bc94d"/></g><g id="XMLID_279_"><path d="m350.139 66.721c-.009 0-.016 0-.024 0l-11.004-.033c-4.268-.013-7.716-3.483-7.703-7.749.013-4.26 3.47-7.703 7.726-7.703h.023l11.004.033c4.268.013 7.716 3.483 7.703 7.749-.013 4.26-3.47 7.703-7.725 7.703z" fill="#6bc94d"/></g><g id="XMLID_270_"><path d="m234.134 100.198c-.009 0-.017 0-.025 0l-11.004-.034c-4.267-.013-7.715-3.483-7.702-7.751.013-4.259 3.47-7.702 7.725-7.702h.025l11.004.034c4.267.013 7.715 3.483 7.702 7.751-.013 4.259-3.47 7.702-7.725 7.702z" fill="#c2e8b1"/></g><g id="XMLID_282_"><path d="m422.227 128.104c-.008 0-.015 0-.023 0-4.268-.013-7.716-3.483-7.703-7.749l.033-11.004c.013-4.26 3.47-7.703 7.725-7.703h.024c4.268.013 7.716 3.483 7.703 7.749l-.033 11.004c-.012 4.259-3.469 7.703-7.726 7.703z" fill="#6bc94d"/></g><g id="XMLID_285_"><path d="m410.516 218.257c-.009 0-.017 0-.025 0-4.267-.013-7.715-3.483-7.702-7.751l.034-11.004c.013-4.259 3.47-7.702 7.725-7.702h.025c4.267.013 7.715 3.483 7.702 7.751l-.034 11.004c-.013 4.258-3.469 7.702-7.725 7.702z" fill="#6bc94d"/></g><g id="XMLID_283_"><path d="m300.769 88.832c-.009 0-.016 0-.024 0-4.268-.013-7.716-3.483-7.703-7.749l.033-11.004c.013-4.26 3.47-7.703 7.726-7.703h.023c4.268.013 7.716 3.483 7.703 7.749l-.033 11.004c-.013 4.259-3.47 7.703-7.725 7.703z" fill="#6bc94d"/></g><g id="XMLID_284_"><path d="m184.961 133.605c-.008 0-.015 0-.023 0-4.268-.013-7.716-3.483-7.703-7.749l.033-11.003c.013-4.26 3.47-7.703 7.726-7.703h.023c4.268.013 7.716 3.483 7.703 7.749l-.033 11.003c-.013 4.259-3.47 7.703-7.726 7.703z" fill="#c2e8b1"/></g><g id="XMLID_281_"><path d="m464.372 172.433c-.008 0-.015 0-.023 0l-11.004-.033c-4.268-.013-7.716-3.483-7.703-7.749.013-4.26 3.47-7.703 7.725-7.703h.024l11.004.033c4.268.013 7.716 3.483 7.703 7.749-.012 4.259-3.469 7.703-7.726 7.703z" fill="#6bc94d"/></g><g id="XMLID_255_"><path d="m82.582 145.678c-2.627 0-5.187-1.34-6.636-3.758-2.192-3.66-1.002-8.405 2.659-10.599l9.545-5.717c3.658-2.192 8.404-1.002 10.599 2.659 2.192 3.66 1.002 8.405-2.659 10.599l-9.545 5.717c-1.242.745-2.611 1.099-3.963 1.099z" fill="#c2e8b1"/></g><g id="XMLID_280_"><path d="m370.964 125.461c-2.627 0-5.187-1.34-6.636-3.758-2.192-3.66-1.002-8.405 2.659-10.599l9.545-5.717c3.659-2.192 8.404-1.002 10.599 2.659 2.192 3.66 1.002 8.405-2.659 10.599l-9.545 5.717c-1.243.745-2.612 1.099-3.963 1.099z" fill="#c2e8b1"/></g><g id="XMLID_277_"><path d="m345.372 186.28c-2.627 0-5.188-1.34-6.636-3.758-2.192-3.661-1.002-8.406 2.659-10.599l9.545-5.716c3.661-2.191 8.406-1.002 10.599 2.659 2.192 3.661 1.002 8.406-2.659 10.599l-9.545 5.716c-1.243.745-2.612 1.099-3.963 1.099z" fill="#c2e8b1"/></g><g id="XMLID_272_"><path d="m248.579 45.283c-2.627 0-5.187-1.34-6.636-3.758-2.192-3.66-1.002-8.405 2.659-10.599l9.545-5.717c3.658-2.191 8.404-1.003 10.599 2.659 2.192 3.66 1.002 8.405-2.659 10.599l-9.545 5.717c-1.242.745-2.611 1.099-3.963 1.099z" fill="#6bc94d"/></g><g id="XMLID_254_"><path d="m51.78 207.254c-1.366 0-2.749-.362-4.002-1.123l-9.513-5.775c-3.648-2.214-4.81-6.966-2.596-10.614s6.967-4.809 10.614-2.596l9.513 5.775c3.648 2.214 4.81 6.966 2.596 10.614-1.454 2.395-4.002 3.719-6.612 3.719z" fill="#6bc94d"/></g><g id="XMLID_275_"><path d="m283.474 145.707c-1.366 0-2.75-.362-4.002-1.123l-9.514-5.775c-3.648-2.213-4.81-6.966-2.596-10.614 2.215-3.647 6.967-4.809 10.614-2.596l9.514 5.775c3.648 2.213 4.81 6.966 2.596 10.614-1.454 2.395-4.001 3.719-6.612 3.719z" fill="#6bc94d"/></g><g id="XMLID_271_"><path d="m164.964 77.829c-1.366 0-2.749-.362-4.002-1.123l-9.513-5.775c-3.648-2.214-4.81-6.966-2.596-10.614s6.967-4.81 10.614-2.596l9.513 5.775c3.648 2.214 4.81 6.966 2.596 10.614-1.454 2.395-4.002 3.719-6.612 3.719z" fill="#6bc94d"/></g></g></svg>