<svg id="Capa_1" enable-background="new 0 0 512 512" height="512" viewBox="0 0 512 512" width="512" xmlns="http://www.w3.org/2000/svg"><g><path d="m5.484 506.516c-7.312-7.312-7.312-19.166 0-26.478l205.433-205.433c7.312-7.312 19.166-7.312 26.478 0 7.312 7.312 7.312 19.166 0 26.478l-205.433 205.433c-7.312 7.312-19.166 7.312-26.478 0z" fill="#f3eae6"/><path d="m242.875 287.843c0 4.79-1.823 9.591-5.481 13.238l-46.904 46.904c-9.591-8.025-18.451-16.885-26.476-26.476l46.904-46.904c7.314-7.314 19.161-7.314 26.476 0 3.658 3.657 5.481 8.448 5.481 13.238z" fill="#e0d3ce"/><g><circle cx="324.058" cy="187.941" fill="#ffd3d7" r="187.941"/><path d="m512 187.936c0 103.801-84.145 187.946-187.946 187.946-9.663 0-19.161-.732-28.423-2.132 90.306-13.701 159.513-91.676 159.513-185.814 0-94.128-69.208-172.102-159.513-185.803 9.261-1.402 18.759-2.133 28.422-2.133 103.801 0 187.947 84.145 187.947 187.936z" fill="#ffc5c9"/><g><path d="m464.439 312.907c-34.427 38.644-84.564 62.973-140.385 62.973-19.069 0-37.466-2.842-54.808-8.113-50.633-28.381-84.926-82.58-84.926-144.633 0-76.606 62.333-138.938 138.949-138.938 61.857 0 112.18 50.333 112.18 112.19 0 46.664-37.962 84.626-84.626 84.626-31.854 0-57.775-25.921-57.775-57.775 0-19.865 16.154-36.019 36.008-36.019 9.994 0 18.087 8.103 18.087 18.087 0 9.943-8.01 18.004-17.922 18.087.093 11.844 9.746 21.446 21.601 21.446 26.717 0 48.452-21.735 48.452-48.452 0-41.91-34.096-76.017-76.006-76.017-56.669 0-102.775 46.106-102.775 102.765 0 71.407 58.095 129.492 129.492 129.492 41.269 0 93.018-17.374 114.009-39.285.145-.155.29-.299.445-.434z" fill="#fb6672"/></g><path d="m464.436 312.907c-34.429 38.642-84.557 62.975-140.383 62.975-9.653 0-19.141-.732-28.402-2.132 22.396-3.4 43.494-10.755 62.563-21.335 39.683-2.081 86.154-18.595 105.779-39.075.144-.155.289-.299.443-.433z" fill="#fb4a59"/></g></g></svg>