<svg id="Capa_1" enable-background="new 0 0 512 512" height="512" viewBox="0 0 512 512" width="512" xmlns="http://www.w3.org/2000/svg"><g><path d="m256 6.59c-136.951 0-247.977 111.026-247.977 247.977s111.026 247.976 247.977 247.976 247.977-111.026 247.977-247.977-111.026-247.976-247.977-247.976zm-6.377 329.764c-45.175 0-81.797-36.613-81.797-81.787s36.623-81.787 81.797-81.787c45.165 0 81.787 36.613 81.787 81.787s-36.622 81.787-81.787 81.787z" fill="#a96a53"/><path d="m503.976 254.567c0 136.946-111.03 247.976-247.976 247.976-10.128 0-20.126-.611-29.934-1.793 122.831-14.777 218.043-119.365 218.043-246.183s-95.212-231.407-218.043-246.184c9.808-1.182 19.806-1.793 29.934-1.793 136.946 0 247.976 111.03 247.976 247.977z" fill="#925b46"/><g><path d="m74.497 437.538c-4.012 0-7.341-3.17-7.503-7.213l-13.391-335.287c-.165-4.146 3.061-7.642 7.208-7.807 4.161-.14 7.642 3.062 7.807 7.208l13.392 335.285c.165 4.147-3.061 7.643-7.208 7.808-.102.004-.204.006-.305.006z" fill="#fee7c9"/></g><g><path d="m132.958 482.923c-.103 0-.205-.002-.309-.006-4.146-.168-7.372-3.666-7.203-7.812l18.344-452.493c.168-4.146 3.636-7.376 7.812-7.203 4.146.168 7.372 3.666 7.203 7.812l-18.344 452.493c-.164 4.042-3.494 7.209-7.503 7.209z" fill="#fee7c9"/></g><g><path d="m285.312 512c-.099 0-.198-.002-.296-.006-4.147-.161-7.378-3.653-7.216-7.799l7.263-186.901c.161-4.147 3.687-7.394 7.799-7.216 4.147.161 7.378 3.653 7.216 7.799l-7.263 186.901c-.158 4.047-3.488 7.222-7.503 7.222z" fill="#fee7c9"/></g><g><path d="m229.041 512c-4.014 0-7.343-3.173-7.503-7.218l-6.948-176.623c-.163-4.146 3.066-7.64 7.212-7.803 4.151-.171 7.639 3.066 7.803 7.212l6.948 176.623c.163 4.146-3.066 7.64-7.212 7.803-.1.004-.2.006-.3.006z" fill="#fee7c9"/></g><g><path d="m215.497 191.227c-4.014 0-7.343-3.172-7.503-7.218l-6.932-176.199c-.163-4.146 3.066-7.64 7.212-7.803 4.169-.179 7.64 3.066 7.803 7.212l6.932 176.199c.163 4.146-3.066 7.64-7.212 7.803-.1.004-.2.006-.3.006z" fill="#fee7c9"/></g><g><path d="m298.386 202.777c-.1 0-.201-.002-.301-.006-4.146-.163-7.375-3.658-7.211-7.804l7.413-187.749c.163-4.146 3.652-7.382 7.804-7.211 4.146.163 7.375 3.658 7.211 7.804l-7.413 187.749c-.16 4.046-3.49 7.217-7.503 7.217z" fill="#fee7c9"/></g><g><path d="m437.416 437.538c-.101 0-.203-.002-.305-.006-4.146-.165-7.373-3.661-7.207-7.808l13.393-335.286c.161-4.043 3.492-7.213 7.503-7.213.101 0 .203.002.305.006 4.146.165 7.373 3.661 7.207 7.808l-13.393 335.286c-.161 4.043-3.491 7.213-7.503 7.213z" fill="#fee7c9"/></g><g><path d="m378.969 482.923c-4.01 0-7.338-3.167-7.503-7.209l-18.349-452.493c-.168-4.146 3.057-7.644 7.203-7.812 4.169-.178 7.644 3.058 7.812 7.203l18.349 452.493c.168 4.146-3.057 7.644-7.203 7.812-.103.004-.207.006-.309.006z" fill="#fee7c9"/></g></g></svg>