<svg id="Capa_1" enable-background="new 0 0 512 512" height="512" viewBox="0 0 512 512" width="512" xmlns="http://www.w3.org/2000/svg"><g><ellipse cx="256" cy="150.181" fill="#fca62f" rx="66.713" ry="131.863"/><path d="m322.715 150.181c0 72.824-29.865 131.863-66.715 131.863-6.202 0-12.208-1.669-17.905-4.811 28.145-15.463 48.8-66.498 48.8-127.052s-20.655-111.589-48.8-127.052c5.697-3.142 11.703-4.811 17.905-4.811 36.85 0 66.715 59.04 66.715 131.863z" fill="#fb9927"/><g><path d="m274.27 173.658c-.044 0-.087 0-.131-.001-4.267-.071-7.668-3.588-7.597-7.854.086-5.127.129-10.382.129-15.621 0-24.86-.976-49.025-2.824-69.883-.377-4.251 2.764-8.002 7.015-8.378 4.247-.368 8.001 2.765 8.378 7.014 1.887 21.304 2.884 45.941 2.884 71.248 0 5.323-.044 10.666-.131 15.878-.07 4.221-3.516 7.597-7.723 7.597z" fill="#f98824"/></g><g><path d="m237.737 174.105c-4.206 0-7.651-3.373-7.723-7.595-.092-5.385-.138-10.879-.138-16.329 0-11.681.212-23.279.63-34.47.159-4.265 3.749-7.544 8.009-7.434 4.264.16 7.592 3.745 7.433 8.009-.41 11.001-.619 22.404-.619 33.894 0 5.362.046 10.768.136 16.065.072 4.267-3.327 7.785-7.594 7.857-.044.003-.089.003-.134.003z" fill="#fcc16d"/></g><path d="m481.249 231.387c0 124.405-100.855 225.249-225.249 225.249-123.921 0-224.106-99.217-225.239-223.137-.154-16.967 1.566-33.522 4.976-49.449 69.249 5.728 143.309 8.818 220.263 8.818s151.004-3.091 220.263-8.818c3.266 15.268 4.986 31.102 4.986 47.337z" fill="#925b46"/><path d="m481.249 231.387c0 124.405-100.855 225.249-225.249 225.249-8.19 0-16.277-.433-24.24-1.277 113.062-12.033 201.133-107.716 201.133-223.972 0-15.01-1.463-29.679-4.265-43.865 16.112-1.02 31.997-2.174 47.636-3.472 3.265 15.258 4.985 31.102 4.985 47.337z" fill="#865240"/><path d="m478.2 194.201c-69.815 5.82-144.524 8.973-222.2 8.973-77.665 0-152.384-3.152-222.19-8.973 1.865-11.239 4.564-22.19 8.025-32.791 2.977-9.138 11.888-14.968 21.459-14.113 60.327 5.408 125.177 8.345 192.706 8.345s132.378-2.936 192.706-8.345c9.55-.855 18.471 4.955 21.448 14.072 3.472 10.621 6.171 21.582 8.046 32.832z" fill="#fee7c9"/><path d="m478.2 194.201c-15.69 1.308-31.637 2.483-47.8 3.513-1.875-12.476-4.759-24.621-8.592-36.345-1.587-4.831-4.832-8.725-8.952-11.198 12.115-.855 24.065-1.823 35.85-2.874 9.55-.855 18.471 4.955 21.448 14.072 3.472 10.621 6.171 21.582 8.046 32.832z" fill="#ffd597"/><g><g><g><g><g fill="#faf7f7"><path d="m162.985 493.672 55.135.01h-104.872c-8.087 0-15.638-4.069-20.099-10.817l-89.142-134.943c-8.839-13.372-2.4-31.472 12.888-36.273l3.431-1.071c5.8-1.823 12.074-1.38 17.554 1.226l37.787 17.977c5.213 2.472 11.085 2.977 16.576 1.504z"/><path d="m317.976 331.521-24.096 162.161h-75.76l-23.241-161.996c4.965.948 10.147.309 14.804-1.906l35.974-17.111c6.542-3.111 14.144-3.111 20.686 0l35.974 17.111c4.924 2.339 10.436 2.916 15.659 1.741z"/><path d="m507.993 347.922-89.142 134.944c-4.461 6.748-12.012 10.817-20.099 10.817h-104.872l55.135-.01 70.619-162.418c5.522 1.514 11.456 1.02 16.699-1.473l37.787-17.977c5.481-2.606 11.754-3.049 17.554-1.226l3.43 1.071c15.289 4.8 21.728 22.9 12.889 36.272z"/></g><path d="m312.578 332.116-23.849 161.563h-30.627s23.519-166.673 24.302-173.38l19.913 9.478c3.255 1.546 6.758 2.329 10.261 2.339z" fill="#f3eae6"/><path d="m507.993 347.919-89.142 134.944c-4.461 6.758-12.012 10.817-20.099 10.817h-44.957c8.097 0 15.648-4.059 20.109-10.817l89.142-134.944c6.408-9.694 4.78-21.881-2.431-29.68l13.506-6.428c5.481-2.617 11.754-3.049 17.554-1.236l3.43 1.071c15.288 4.801 21.727 22.901 12.888 36.273z" fill="#f3eae6"/><path d="m425.75 332.098-71.587 161.569v.01h-65.439l23.852-161.569c3.562.021 7.134-.765 10.433-2.336l35.972-17.106c6.547-3.111 14.142-3.111 20.689 0l35.972 17.106c3.195 1.53 6.652 2.305 10.108 2.326z" fill="#e0d3ce"/><path d="m425.753 332.095-71.587 161.574v.01h-39.641v-.01l77.284-175.234 23.828 11.342c3.204 1.525 6.655 2.298 10.116 2.318z" fill="#cdbfbb"/><path d="m157.837 493.678v-.01l-71.587-161.57c3.457-.021 6.914-.796 10.109-2.326l35.972-17.106c6.547-3.111 14.141-3.111 20.688 0l35.972 17.106c3.3 1.571 6.872 2.357 10.433 2.336l23.852 161.569h-65.439z" fill="#e0d3ce"/><path d="m223.271 493.679h-37.653l-27.835-178.747 31.204 14.845c3.307 1.566 6.871 2.349 10.436 2.328z" fill="#cdbfbb"/></g></g></g></g><g id="XMLID_71_"><path d="m136.331 264.05c-.025 0-.05 0-.075 0l-.106-.001c-4.267-.041-7.693-3.532-7.652-7.8.04-4.241 3.491-7.653 7.724-7.653h.075l.106.001c4.267.041 7.693 3.532 7.652 7.8-.039 4.241-3.491 7.653-7.724 7.653z" fill="#ffd597"/></g><g id="XMLID_72_"><path d="m171.717 281.719h-.107c-4.267 0-7.726-3.459-7.726-7.726s3.459-7.726 7.726-7.726h.107c4.267 0 7.726 3.459 7.726 7.726s-3.459 7.726-7.726 7.726z" fill="#ffd597"/></g><g id="XMLID_73_"><path d="m376.498 246.874h-.107c-4.267 0-7.726-3.459-7.726-7.726s3.459-7.726 7.726-7.726h.107c4.267 0 7.726 3.459 7.726 7.726s-3.459 7.726-7.726 7.726z" fill="#865240"/></g><g id="XMLID_74_"><path d="m344.698 259.057h-.107c-4.267 0-7.726-3.459-7.726-7.726s3.459-7.726 7.726-7.726h.107c4.267 0 7.726 3.459 7.726 7.726s-3.459 7.726-7.726 7.726z" fill="#7b4b39"/></g><g id="XMLID_75_"><path d="m109.171 281.719h-.107c-4.267 0-7.726-3.459-7.726-7.726s3.459-7.726 7.726-7.726h.107c4.267 0 7.726 3.459 7.726 7.726s-3.458 7.726-7.726 7.726z" fill="#865240"/></g></g></svg>