<svg id="Capa_1" enable-background="new 0 0 512 512" height="512" viewBox="0 0 512 512" width="512" xmlns="http://www.w3.org/2000/svg"><g><g><g><g><g><circle cx="254.533" cy="295.51" fill="#925b46" r="216.488"/><g fill="#865240"><path d="m471.017 295.511c0 119.565-96.924 216.489-216.489 216.489-9.789 0-19.42-.648-28.853-1.914 105.928-14.097 187.635-104.788 187.635-214.575s-81.707-200.477-187.635-214.574c9.433-1.265 19.065-1.914 28.853-1.914 119.565 0 216.489 96.923 216.489 216.488z"/><ellipse cx="294.422" cy="190.009" rx="90.102" ry="25.629"/></g></g><g><g><path d="m306.542 326.914c-32.401 0-67.637-5.555-105.24-16.62-90.218-26.549-162.013-75-165.025-77.048-3.475-2.365-4.375-7.098-2.011-10.574 2.363-3.475 7.098-4.376 10.573-2.013.721.49 73.089 49.297 161.075 75.124 116.071 34.073 202.984 14.099 258.317-59.366 2.529-3.358 7.301-4.029 10.659-1.5s4.03 7.302 1.5 10.66c-32.851 43.615-76.77 69.99-130.535 78.391-12.579 1.965-25.696 2.946-39.313 2.946z" fill="#ffd597"/></g><g><path d="m239.481 372.783c-62.731 0-131.855-8.807-205.476-26.18-4.091-.966-6.625-5.065-5.66-9.157.965-4.091 5.063-6.626 9.156-5.66 163.673 38.625 272.905 26.529 335.717 9.58 67.803-18.297 97.478-46.007 97.77-46.284 3.038-2.894 7.852-2.788 10.754.243 2.9 3.032 2.809 7.831-.214 10.74-1.272 1.223-31.957 30.191-102.946 49.618-41.256 11.289-87.803 17.044-138.35 17.1-.248 0-.501 0-.751 0z" fill="#ffd597"/></g><g><path d="m279.237 446.248c-19.305 0-39.649-1.348-60.964-4.048-91.469-11.586-170.572-44.633-171.36-44.966-3.873-1.633-5.688-6.096-4.055-9.969 1.633-3.874 6.098-5.688 9.97-4.057.772.325 78.212 32.649 167.659 43.928 118.094 14.893 199.988-11.916 243.418-79.678 2.269-3.54 6.977-4.568 10.515-2.301 3.539 2.269 4.569 6.976 2.301 10.515-25.921 40.444-65.001 67.704-116.154 81.025-24.44 6.364-51.652 9.551-81.33 9.551z" fill="#ffd597"/></g></g></g><g><circle cx="314.961" cy="98.811" fill="#fee7c9" r="91.198"/></g><g><path d="m406.157 98.809c0 50.365-40.828 91.203-91.193 91.203-8.649 0-17.005-1.203-24.932-3.451 38.244-10.855 66.251-46.036 66.251-87.752 0-41.717-28.006-76.886-66.251-87.742 7.927-2.248 16.283-3.451 24.932-3.451 50.365 0 91.193 40.828 91.193 91.193z" fill="#ffd597"/></g><g><path d="m386.251 171.998c-52.691 0-96.941-23.04-128.059-66.701-23.467-32.928-31.101-65.607-31.415-66.983-.934-4.098 1.631-8.178 5.729-9.113 4.094-.939 8.173 1.627 9.111 5.721.072.311 7.417 31.481 29.266 61.95 28.781 40.14 68.069 60.276 116.716 59.897h.063c4.174 0 7.576 3.368 7.61 7.55.034 4.203-3.346 7.638-7.55 7.673-.487.004-.984.006-1.471.006z" fill="#865240"/></g></g><g><path d="m355.086 121.259c-18.259 0-33.954-4.666-46.958-13.999-42.024-30.161-38.984-97.209-38.834-100.048.222-4.198 3.797-7.439 8.002-7.199 4.196.221 7.418 3.8 7.2 7.995-.031.613-2.717 61.654 32.551 86.915 21.369 15.306 52.979 14.805 93.956-1.492 3.909-1.556 8.332.354 9.885 4.26 1.554 3.906-.354 8.332-4.26 9.885-22.936 9.122-43.492 13.683-61.542 13.683z" fill="#865240"/></g></g><g fill="#fcc16d"><path d="m413.31 295.51c0-3.88-.1-7.75-.31-11.58 19.31-11.98 36.41-27.83 51.23-47.51 2.53-3.36 7.3-4.03 10.66-1.5s4.03 7.3 1.5 10.66c-17.85 23.7-38.97 42.31-63.16 55.71.05-1.92.08-3.85.08-5.78z"/><path d="m476.72 355.67c-25.84 40.33-64.76 67.54-115.68 80.91 5.6-6.51 10.82-13.36 15.63-20.52 37.53-13.65 66.68-36.54 87.23-68.6 2.27-3.54 6.98-4.57 10.52-2.3s4.57 6.97 2.3 10.51z"/><path d="m481.53 306.07c-1.08 1.04-23.6 22.3-74.3 40.57 1.41-5.78 2.57-11.66 3.5-17.61 41.39-16.32 60.03-33.73 60.26-33.95 3.04-2.89 7.85-2.79 10.75.24 2.9 3.04 2.81 7.84-.21 10.75z"/></g><g fill="#7b4b39"><path d="m395.27 164.32c.04 4.2-3.34 7.64-7.55 7.67-.49.01-.98.01-1.47.01-19.86 0-38.51-3.27-55.71-9.68 3.73-3.84 7.12-8.01 10.13-12.45 14.5 4.72 30.16 7.03 46.93 6.9h.06c4.18 0 7.58 3.37 7.61 7.55z"/><path d="m416.63 107.58c-22.94 9.12-43.49 13.68-61.54 13.68-.54 0-1.07 0-1.6-.01 1.26-4.92 2.1-10.01 2.51-15.22 15.85-.13 34.22-4.33 55-12.6 3.91-1.55 8.33.36 9.89 4.26 1.55 3.91-.36 8.33-4.26 9.89z"/></g></g></svg>