<svg id="Capa_1" enable-background="new 0 0 512 512" height="512" viewBox="0 0 512 512" width="512" xmlns="http://www.w3.org/2000/svg"><g><g><path d="m491.664 319.282c0 130.153-105.511 103.616-235.664 103.616s-235.664 26.537-235.664-103.616c0-51.354 92.222-189.141 162.223-274.245 18.058-21.964 45.008-34.666 73.441-34.666s55.383 12.702 73.442 34.666c3.266 3.977 6.593 8.066 9.951 12.259-48.192 8.859-84.702 51.087-84.702 101.833 0 57.185 46.358 103.554 103.544 103.554 37.849 0 70.949-20.305 88.997-50.602 26.291 44.638 44.432 84.423 44.432 107.201z" fill="#925b46"/><path d="m339.393 57.296c-17.163 3.152-32.832 10.539-45.905 21.036-9.004-11.713-17.884-22.901-26.435-33.296-11.239-13.66-25.909-23.735-42.237-29.412 9.91-3.441 20.439-5.254 31.184-5.254 28.433 0 55.383 12.712 73.442 34.666 3.265 3.978 6.593 8.067 9.951 12.26z" fill="#865240"/><path d="m491.664 319.282c0 106.181-70.217 108.076-166.756 105.171 62.954-3.585 104.378-23.622 104.378-105.171 0-15.885-8.829-40.043-23.097-68.352 17.019-8.901 31.245-22.396 41.042-38.838 26.292 44.647 44.433 84.423 44.433 107.19z" fill="#865240"/><path d="m457.308 229.672c-22.056 31.266-58.473 51.684-99.649 51.684-67.322 0-121.891-54.569-121.891-121.891 0-56.537 38.488-104.09 90.697-117.863 1.02 1.113 2.009 2.256 2.977 3.431 43.102 52.394 94.622 124.775 127.866 184.639z" fill="#aee097"/><path d="m457.308 229.676c-11.136 15.793-25.94 28.814-43.175 37.839-26.332-58.401-82.456-141.052-131.987-203.739 12.918-10.209 27.939-17.853 44.318-22.169 1.02 1.112 2.009 2.256 2.977 3.43 10.807 13.145 22.149 27.537 33.604 42.68-8.118 2.895-13.918 10.642-13.918 19.749 0 11.59 9.385 20.974 20.974 20.974 6.84 0 12.919-3.276 16.751-8.344 26.148 36.541 51.325 75.131 70.456 109.58z" fill="#99d980"/><path d="m389.965 124.449c-4.749 5.645-11.868 9.231-19.821 9.231-14.32 0-25.93-11.6-25.93-25.92 0-10.765 6.562-19.985 15.896-23.9 9.931 13.042 19.975 26.681 29.855 40.589z" fill="#ffd597"/></g><g><path d="m112.264 281.354c-1.597 0-3.208-.493-4.59-1.515-3.43-2.538-4.153-7.377-1.615-10.807l6.091-8.231c2.539-3.431 7.378-4.151 10.807-1.616 3.43 2.538 4.153 7.377 1.615 10.807l-6.091 8.231c-1.516 2.048-3.851 3.131-6.217 3.131z" fill="#aee097"/></g><g><path d="m182.816 248.385c-1.597 0-3.208-.493-4.59-1.515-3.43-2.538-4.153-7.377-1.615-10.807l6.091-8.231c2.538-3.432 7.376-4.153 10.807-1.616 3.43 2.538 4.153 7.377 1.615 10.807l-6.091 8.231c-1.516 2.048-3.851 3.131-6.217 3.131z" fill="#7b4b39"/></g><g><path d="m189.977 177.982c-1.597 0-3.208-.493-4.59-1.515l-8.232-6.092c-3.43-2.539-4.153-7.377-1.615-10.807 2.539-3.431 7.378-4.151 10.807-1.616l8.232 6.092c3.43 2.539 4.153 7.377 1.615 10.807-1.515 2.049-3.85 3.131-6.217 3.131z" fill="#fee7c9"/></g><g><path d="m236.515 282.303c-3.763 0-7.059-2.753-7.632-6.586l-1.514-10.129c-.631-4.22 2.279-8.153 6.499-8.784 4.221-.631 8.152 2.28 8.783 6.5l1.514 10.129c.631 4.22-2.279 8.153-6.499 8.784-.387.058-.772.086-1.151.086z" fill="#7b4b39"/></g><g><path d="m190.731 136.349c-3.762 0-7.059-2.752-7.632-6.586l-1.514-10.129c-.631-4.22 2.279-8.153 6.499-8.784 4.223-.63 8.153 2.279 8.784 6.5l1.514 10.129c.631 4.22-2.279 8.153-6.499 8.784-.388.057-.772.086-1.152.086z" fill="#aee097"/></g><g><circle cx="321.86" cy="199.762" fill="#fee7c9" r="25.922"/><path d="m347.779 199.765c0 14.309-11.6 25.919-25.919 25.919-4.502 0-8.736-1.154-12.424-3.173 8.046-4.389 13.506-12.939 13.506-22.746 0-9.818-5.46-18.368-13.506-22.757 3.688-2.019 7.922-3.173 12.424-3.173 14.319.001 25.919 11.611 25.919 25.93z" fill="#ffd597"/></g><g><g><g><g fill="#faf7f7"><path d="m162.985 501.613 55.135.01h-104.872c-8.087 0-15.638-4.059-20.099-10.807l-89.142-134.942c-8.839-13.372-2.4-31.482 12.888-36.273l3.43-1.071c5.8-1.823 12.074-1.381 17.554 1.226l37.787 17.966c5.213 2.493 11.116 2.998 16.607 1.504z"/><path d="m319.892 338.938-26.012 162.686h-75.76l-25.394-162.491c5.594 1.607 11.631 1.133 16.957-1.411l35.974-17.101c6.542-3.111 14.144-3.111 20.686 0l35.974 17.101c5.532 2.637 11.806 3.049 17.575 1.216z"/><path d="m507.993 355.874-89.142 134.944c-4.461 6.748-12.012 10.807-20.099 10.807h-104.872l54.105-.01 70.403-162.789c5.862 1.958 12.3 1.587 17.946-1.102l37.787-17.966c5.481-2.607 11.754-3.05 17.554-1.226l3.43 1.071c15.288 4.789 21.727 22.899 12.888 36.271z"/></g><path d="m312.578 340.065-23.849 161.563h-30.627s23.519-166.673 24.302-173.38l19.913 9.478c3.255 1.546 6.758 2.329 10.261 2.339z" fill="#f3eae6"/><path d="m507.993 355.868-89.142 134.943c-4.461 6.758-12.012 10.817-20.099 10.817h-44.957c8.097 0 15.648-4.059 20.109-10.817l89.142-134.943c6.408-9.694 4.78-21.881-2.431-29.68l13.506-6.428c5.481-2.617 11.754-3.049 17.554-1.236l3.43 1.071c15.288 4.801 21.727 22.901 12.888 36.273z" fill="#f3eae6"/><path d="m425.75 340.047-71.587 161.569v.01h-65.439l23.852-161.569c3.562.021 7.134-.765 10.433-2.336l35.972-17.106c6.547-3.111 14.142-3.111 20.689 0l35.972 17.106c3.195 1.53 6.652 2.305 10.108 2.326z" fill="#e0d3ce"/><path d="m425.753 340.045-71.587 161.574v.01h-39.641v-.01l77.284-175.234 23.828 11.342c3.204 1.524 6.655 2.297 10.116 2.318z" fill="#cdbfbb"/><path d="m157.837 501.627v-.01l-71.587-161.57c3.457-.021 6.914-.796 10.109-2.326l35.972-17.106c6.547-3.111 14.141-3.111 20.688 0l35.972 17.106c3.3 1.571 6.872 2.357 10.433 2.336l23.852 161.569h-65.439z" fill="#e0d3ce"/><path d="m223.271 501.629h-37.653l-27.835-178.747 31.204 14.845c3.307 1.566 6.871 2.349 10.436 2.328z" fill="#cdbfbb"/></g></g></g></g></svg>