<svg id="Capa_1" enable-background="new 0 0 512 512" height="512" viewBox="0 0 512 512" width="512" xmlns="http://www.w3.org/2000/svg"><g><g><g><path d="m495.299 412.581h-478.598c31.777-33.762 126.895-58.276 239.299-58.276s207.522 24.514 239.299 58.276z" fill="#fcb44d"/><path d="m495.301 412.577h-61.512c-28.835-30.627-109.817-53.652-208.55-57.639 10.075-.423 20.346-.629 30.761-.629 112.403.001 207.52 24.509 239.301 58.268z" fill="#fca62f"/><path d="m16.701 448.494h478.597c-31.776 33.762-126.894 58.276-239.298 58.276s-207.522-24.514-239.299-58.276z" fill="#fb9927"/><path d="m495.301 448.489c-10.281 10.92-27.197 20.882-49.171 29.35h-380.26c-21.974-8.468-38.889-18.43-49.171-29.35z" fill="#f98824"/><path d="m485.3 457.238h-458.6c-14.746 0-26.7-11.954-26.7-26.7 0-14.746 11.954-26.7 26.7-26.7h458.6c14.746 0 26.7 11.954 26.7 26.7 0 14.746-11.954 26.7-26.7 26.7z" fill="#fee7c9"/><path d="m512 430.533c0 7.376-2.988 14.052-7.819 18.883-4.832 4.832-11.507 7.819-18.883 7.819h-42.608c7.376 0 14.052-2.988 18.883-7.819s7.819-11.507 7.819-18.883c0-14.742-11.96-26.692-26.702-26.692h42.608c14.752 0 26.702 11.95 26.702 26.692z" fill="#ffd597"/></g><path d="m495.299 269.386h-478.598c31.777-33.762 126.895-58.276 239.299-58.276s207.522 24.514 239.299 58.276z" fill="#fcb44d"/><path d="m495.301 269.382h-61.512c-28.835-30.627-109.817-53.652-208.55-57.639 10.075-.423 20.346-.629 30.761-.629 112.403.001 207.52 24.509 239.301 58.268z" fill="#fca62f"/><path d="m16.701 305.299h478.597c-31.776 33.762-126.894 58.276-239.298 58.276s-207.522-24.514-239.299-58.276z" fill="#fb9927"/><path d="m495.301 305.294c-10.281 10.92-27.197 20.882-49.171 29.35h-380.26c-21.974-8.468-38.889-18.43-49.171-29.35z" fill="#f98824"/><path d="m512 287.338c0 7.376-2.988 14.052-7.819 18.883-4.832 4.832-11.507 7.819-18.883 7.819h-458.596c-14.752 0-26.702-11.95-26.702-26.702 0-7.376 2.988-14.041 7.819-18.873s11.507-7.819 18.883-7.819h458.596c14.752 0 26.702 11.95 26.702 26.692z" fill="#fee7c9"/><path d="m512 287.338c0 7.376-2.988 14.052-7.819 18.883-4.832 4.831-11.507 7.819-18.883 7.819h-42.608c7.376 0 14.052-2.988 18.883-7.819s7.819-11.507 7.819-18.883c0-14.742-11.96-26.692-26.702-26.692h42.608c14.752 0 26.702 11.95 26.702 26.692z" fill="#ffd597"/><path d="m319.393 70.352h-82.498c-8.534 0-15.453-6.918-15.453-15.453v-34.216c0-8.534 6.918-15.453 15.453-15.453h82.498c8.534 0 15.453 6.918 15.453 15.453v34.217c0 8.534-6.919 15.452-15.453 15.452z" fill="#fcc16d"/><path d="m334.85 20.686v34.212c0 8.54-6.923 15.453-15.453 15.453h-35.685c8.54 0 15.453-6.912 15.453-15.453v-34.212c0-8.54-6.913-15.453-15.453-15.453h35.685c8.53 0 15.453 6.913 15.453 15.453z" fill="#fcb44d"/><path d="m495.299 126.191h-478.598c31.777-33.762 126.895-58.276 239.299-58.276s207.522 24.514 239.299 58.276z" fill="#fcb44d"/><path d="m495.301 126.187h-61.512c-28.835-30.627-109.817-53.652-208.55-57.639 10.075-.423 20.346-.629 30.761-.629 112.403.001 207.52 24.509 239.301 58.268z" fill="#fca62f"/><path d="m16.701 162.103h478.597c-31.776 33.763-126.894 58.276-239.298 58.276s-207.522-24.513-239.299-58.276z" fill="#fb9927"/><path d="m495.301 162.099c-10.281 10.92-27.197 20.882-49.171 29.35h-380.26c-21.974-8.468-38.889-18.43-49.171-29.35z" fill="#f98824"/><path d="m485.3 170.847h-458.6c-14.746 0-26.7-11.954-26.7-26.7 0-14.746 11.954-26.7 26.7-26.7h458.6c14.746 0 26.7 11.954 26.7 26.7 0 14.746-11.954 26.7-26.7 26.7z" fill="#fee7c9"/><path d="m512 144.143c0 7.376-2.988 14.052-7.819 18.883-4.832 4.831-11.507 7.819-18.883 7.819h-42.608c7.376 0 14.052-2.988 18.883-7.819s7.819-11.507 7.819-18.883c0-14.742-11.96-26.692-26.702-26.692h42.608c14.752 0 26.702 11.95 26.702 26.692z" fill="#ffd597"/><path d="m365.748 64.715c4.976.805 8.62 5.124 8.62 10.165v140.706c0 5.511-2.236 10.497-5.841 14.103-3.616 3.616-8.602 5.841-14.113 5.841-11.013 0-19.944-8.922-19.944-19.944v-58.617c0-5.511-2.235-10.497-5.841-14.103-3.658-3.669-8.737-5.905-14.344-5.84-11.004.129-19.704 9.441-19.704 20.446v101.32c0 5.512-2.235 10.498-5.841 14.113-3.658 3.658-8.736 5.905-14.342 5.84-11.013-.129-19.716-9.454-19.716-20.468v-64.294c0-5.512-2.225-10.497-5.841-14.103-3.606-3.606-8.592-5.841-14.103-5.841-11.013 0-19.944 8.921-19.944 19.944v19.058c0 5.512-2.235 10.497-5.841 14.103-3.616 3.606-8.602 5.841-14.103 5.841-11.023 0-19.944-8.932-19.944-19.944v-142.976c0-5.291 4.002-9.735 9.268-10.255 22.753-2.248 46.864-3.459 71.828-3.459 39.362 0 76.601 3.004 109.746 8.364z" fill="#ffd597"/><path d="m374.368 74.884v140.702c0 5.512-2.236 10.497-5.841 14.103-3.616 3.616-8.602 5.841-14.113 5.841-10.075 0-18.42-7.469-19.749-17.194.124-.896.185-1.823.185-2.751v-146.882c0-3.595-1.854-6.82-4.718-8.664 12.3 1.267 24.199 2.833 35.613 4.677 4.976.804 8.623 5.12 8.623 10.168z" fill="#fcc16d"/></g><g><path d="m247.114 139.447c-13.479 0-24.445-10.966-24.445-24.446 0-4.268 3.459-7.726 7.726-7.726s7.726 3.459 7.726 7.726c0 4.959 4.034 8.993 8.992 8.993s8.992-4.034 8.992-8.993v-18.832c0-4.268 3.459-7.726 7.726-7.726s7.726 3.459 7.726 7.726v18.832c.001 13.48-10.964 24.446-24.443 24.446z" fill="#fcc16d"/></g></g></svg>