<svg id="Capa_1" enable-background="new 0 0 512 512" height="512" viewBox="0 0 512 512" width="512" xmlns="http://www.w3.org/2000/svg"><g><g><path d="m208.995 98.712c11.174 18.575 10.844 40.862 1.066 58.562-20.218.346-40.072-9.799-51.246-28.374-9.818-16.32-10.752-35.501-4.208-51.912 1.678-4.208 6.004-6.809 10.507-6.319 17.566 1.913 34.063 11.722 43.881 28.043z" fill="#83d167"/><path d="m210.064 157.277c-4.306.072-8.602-.33-12.795-1.195 2.792-13.835.618-28.711-7.232-41.753-8.798-14.618-22.952-24.013-38.446-27.186.701-3.472 1.71-6.871 3.018-10.158 1.679-4.203 6.006-6.81 10.508-6.315 17.565 1.916 34.058 11.723 43.875 28.041 11.178 18.574 10.848 40.867 1.072 58.566z" fill="#6bc94d"/><path d="m303.004 98.712c-11.174 18.575-10.844 40.862-1.066 58.562 20.218.346 40.072-9.799 51.246-28.374 9.818-16.32 10.752-35.501 4.208-51.912-1.678-4.208-6.004-6.809-10.507-6.319-17.566 1.913-34.062 11.722-43.881 28.043z" fill="#83d167"/><path d="m353.187 128.895c-11.177 18.584-31.029 28.721-51.251 28.382-.628-1.144-1.226-2.308-1.772-3.482 12.218-4.409 23.066-12.888 30.287-24.899 10.456-17.379 10.837-38.014 2.833-55.084 4.343-1.564 8.859-2.616 13.448-3.128 4.559-.509 8.962 2.048 10.661 6.308 6.543 16.408 5.608 35.585-4.206 51.903z" fill="#6bc94d"/><path d="m197.056 114.112c0-37.623 17.628-71.128 45.074-92.713 8.127-6.392 19.614-6.392 27.742-.001 27.452 21.585 45.072 55.091 45.072 92.714 0 27.358-26.39 49.536-58.943 49.536s-58.945-22.178-58.945-49.536z" fill="#f82f40"/><path d="m314.947 114.112c0 27.362-26.393 49.531-58.947 49.531-4.986 0-9.818-.515-14.443-1.494 25.569-5.419 44.493-24.869 44.493-48.037 0-37.354-17.369-70.66-44.493-92.253.185-.155.381-.309.577-.464 8.128-6.387 19.615-6.387 27.743 0 27.443 21.583 45.07 55.095 45.07 92.717z" fill="#e22334"/><g><g><g id="XMLID_70_"><path d="m226.051 112.587h-.117c-4.268 0-7.726-3.459-7.726-7.726 0-4.268 3.459-7.726 7.726-7.726h.117c4.268 0 7.726 3.459 7.726 7.726.001 4.267-3.458 7.726-7.726 7.726z" fill="#865240"/></g><g id="XMLID_69_"><path d="m256.05 112.587h-.116c-4.268 0-7.726-3.459-7.726-7.726 0-4.268 3.459-7.726 7.726-7.726h.116c4.268 0 7.726 3.459 7.726 7.726.001 4.267-3.458 7.726-7.726 7.726z" fill="#865240"/></g><g id="XMLID_68_"><path d="m286.05 112.587h-.116c-4.268 0-7.726-3.459-7.726-7.726 0-4.268 3.459-7.726 7.726-7.726h.116c4.268 0 7.726 3.459 7.726 7.726.001 4.267-3.458 7.726-7.726 7.726z" fill="#865240"/></g></g><g><g id="XMLID_67_"><path d="m256.05 55.559h-.116c-4.268 0-7.726-3.459-7.726-7.726s3.459-7.726 7.726-7.726h.116c4.268 0 7.726 3.459 7.726 7.726s-3.458 7.726-7.726 7.726z" fill="#865240"/></g></g><g><g id="XMLID_66_"><path d="m241.051 84.073h-.117c-4.268 0-7.726-3.459-7.726-7.726s3.459-7.726 7.726-7.726h.117c4.268 0 7.726 3.459 7.726 7.726s-3.458 7.726-7.726 7.726z" fill="#865240"/></g><g id="XMLID_65_"><path d="m271.05 84.073h-.116c-4.268 0-7.726-3.459-7.726-7.726s3.459-7.726 7.726-7.726h.116c4.268 0 7.726 3.459 7.726 7.726s-3.458 7.726-7.726 7.726z" fill="#865240"/></g></g></g></g><g><path d="m490.283 359.978h-468.566l27.011-147.522h414.544z" fill="#fcc16d"/><path d="m496.537 495.395h-481.084c-9.642 0-16.936-8.746-15.195-18.234l12.723-69.506h486.039l12.723 69.506c1.74 9.488-5.554 18.234-15.206 18.234z" fill="#fcc16d"/><g fill="#fcb44d"><path d="m470.803 253.54h-19.8v46.039c0 23.323-18.976 42.31-42.31 42.31-23.333 0-42.31-18.986-42.31-42.31v-44.937c0-.608-.494-1.102-1.102-1.102s-1.102.494-1.102 1.102v93.983c0 23.323-18.976 42.31-42.31 42.31-23.333 0-42.309-18.986-42.309-42.31v-48.017c0-.608-.494-1.102-1.102-1.102s-1.102.494-1.102 1.102c0 23.323-18.976 42.31-42.31 42.31-23.333 0-42.309-18.986-42.309-42.31v-47.068h-151.54l7.52-41.083h414.565z"/><path d="m490.283 359.978h-48.068l-27.011-147.522h48.068z"/><path d="m496.547 495.395h-48.068c9.642 0 16.936-8.746 15.195-18.244l-12.723-69.496h48.068l12.723 69.496c1.741 9.498-5.553 18.244-15.195 18.244z"/></g><path d="m501.883 423.337h-491.767l13.671-74.708h464.425z" fill="#83d167"/><path d="m364.179 348.629c0 23.323-18.976 42.31-42.31 42.31-23.333 0-42.309-18.986-42.309-42.31z" fill="#6bc94d"/><path d="m501.883 423.337h-48.068l-13.671-74.708h48.068z" fill="#6bc94d"/><path d="m467.022 232.936h-21.17c-8.534 0-15.453 6.918-15.453 15.453v51.19c0 11.988-9.718 21.706-21.706 21.706-11.988 0-21.706-9.718-21.706-21.706v-44.937c0-11.988-9.718-21.706-21.706-21.706-11.988 0-21.706 9.718-21.706 21.706v93.983c0 11.988-9.718 21.706-21.706 21.706-11.988 0-21.706-9.718-21.706-21.706v-48.017c0-11.988-9.718-21.706-21.706-21.706-11.988 0-21.706 9.718-21.706 21.706 0 11.988-9.718 21.706-21.706 21.706-11.988 0-21.706-9.718-21.706-21.706v-52.22c0-8.534-6.918-15.453-15.453-15.453h-152.908l15.903-86.835c1.344-7.339 7.739-12.669 15.2-12.669h359.837c7.461 0 13.856 5.33 15.2 12.669z" fill="#fb4a59"/><path d="m467.022 232.94h-21.17c-8.53 0-15.453 6.912-15.453 15.453v51.19c0 11.981-9.715 21.706-21.706 21.706-5.841 0-11.136-2.308-15.03-6.047 4.111-3.956 6.676-9.509 6.676-15.659v-51.19c0-8.54 6.913-15.453 15.453-15.453h3.163l-15.896-86.834c-1.35-7.345-7.747-12.671-15.205-12.671h48.068c7.459 0 13.856 5.326 15.195 12.661z" fill="#f82f40"/></g><g><path d="m293.605 243.149c-15.21 0-27.585-12.375-27.585-27.585v-26.071c0-4.268 3.459-7.726 7.726-7.726s7.726 3.459 7.726 7.726v26.071c0 6.69 5.443 12.133 12.133 12.133s12.134-5.443 12.134-12.133v-26.071c0-4.268 3.459-7.726 7.726-7.726 4.268 0 7.726 3.459 7.726 7.726v26.071c0 15.209-12.375 27.585-27.586 27.585z" fill="#fb8189"/></g><g><path d="m209.946 201.247c-15.21 0-27.585-12.375-27.585-27.585 0-4.268 3.459-7.726 7.726-7.726 4.268 0 7.726 3.459 7.726 7.726 0 6.69 5.443 12.133 12.133 12.133s12.134-5.443 12.134-12.133c0-4.268 3.459-7.726 7.726-7.726s7.726 3.459 7.726 7.726c0 15.21-12.375 27.585-27.586 27.585z" fill="#f82f40"/></g></g></svg>