<svg id="Capa_1" enable-background="new 0 0 512 512" height="512" viewBox="0 0 512 512" width="512" xmlns="http://www.w3.org/2000/svg"><g><g><path d="m490.102 181.328-120.806 13.711-52.337-52.337 13.711-120.806c.412-5.451 2.699-10.788 6.868-14.957 9.252-9.252 24.252-9.252 33.504 0s9.252 24.252 0 33.504-9.252 24.252 0 33.504 24.252 9.252 33.504 0 24.252-9.252 33.504 0 9.252 24.252 0 33.504-9.252 24.252 0 33.504 24.252 9.252 33.504 0 24.252-9.252 33.504 0 9.252 24.252 0 33.504c-4.168 4.17-9.505 6.457-14.956 6.869z" fill="#31a7fb"/><path d="m505.054 174.46c-4.162 4.172-9.498 6.459-14.948 6.871l-120.809 13.712-19.161-19.161 112.99-12.826c5.45-.412 10.786-2.699 14.958-6.871 5.924-5.924 8.056-14.216 6.387-21.84 7.263-1.195 14.979 1.01 20.583 6.614 9.261 9.251 9.261 24.25 0 33.501z" fill="#1c96f9"/><g><path d="m347.718 155.34c-1.101 0-2.218-.236-3.28-.735-3.863-1.814-5.523-6.415-3.709-10.278l13.69-29.146c1.815-3.863 6.417-5.522 10.278-3.708 3.863 1.814 5.523 6.415 3.709 10.278l-13.69 29.146c-1.315 2.8-4.096 4.443-6.998 4.443z" fill="#1785f8"/></g><g><path d="m366.682 175.504c-2.645 0-5.221-1.359-6.662-3.802-2.168-3.675-.946-8.412 2.729-10.58l34.186-20.165c3.675-2.166 8.412-.946 10.58 2.729s.946 8.412-2.729 10.58l-34.186 20.165c-1.232.727-2.583 1.073-3.918 1.073z" fill="#1785f8"/></g><path d="m21.896 330.67 120.806-13.711 52.337 52.337-13.711 120.806c-.412 5.451-2.699 10.788-6.868 14.957-9.252 9.252-24.252 9.252-33.504 0s-9.252-24.252 0-33.504 9.252-24.252 0-33.504-24.252-9.252-33.504 0-24.252 9.252-33.504 0-9.252-24.252 0-33.504 9.252-24.252 0-33.504-24.252-9.252-33.504 0-24.252 9.252-33.504 0-9.252-24.252 0-33.504c4.168-4.17 9.504-6.457 14.956-6.869z" fill="#31a7fb"/><path d="m195.043 369.297-3.152 27.763c-20.161-3.358-37.632-12.084-51.251-25.703-13.722-13.722-22.427-31.235-25.754-51.251l27.815-3.152z" fill="#1c96f9"/><path d="m195.043 369.297-13.712 120.809c-.412 5.45-2.699 10.786-6.871 14.948-9.251 9.261-24.25 9.261-33.501 0-1.741-1.741-3.152-3.688-4.234-5.759 2.081-1.092 4.028-2.514 5.769-4.254 4.172-4.172 6.459-9.509 6.871-14.958l15.7-140.763z" fill="#1c96f9"/><g><path d="m139.803 405.226c-1.505 0-3.024-.439-4.359-1.353-3.521-2.411-4.42-7.22-2.008-10.74l23.267-33.968c2.411-3.52 7.22-4.419 10.74-2.008 3.521 2.411 4.42 7.22 2.008 10.74l-23.267 33.968c-1.496 2.185-3.917 3.361-6.381 3.361z" fill="#1785f8"/></g><g><path d="m122.804 368.168c-2.473 0-4.903-1.185-6.398-3.386-2.398-3.529-1.48-8.335 2.05-10.732l22.922-15.57c3.53-2.398 8.335-1.481 10.733 2.05 2.398 3.529 1.48 8.335-2.05 10.732l-22.922 15.57c-1.33.903-2.841 1.336-4.335 1.336z" fill="#1785f8"/></g><g fill="#fb4a59"><path d="m193.756 317.213c16.751 16.751 25.528 38.477 26.331 60.472-25.518 2.009-48.666-4.677-64.881-20.892-16.431-16.431-23.076-39.95-20.82-65.87 21.614 1.061 42.898 9.818 59.37 26.29z"/><path d="m297.753 347.573c-19.666 13.846-40.507 23.158-60.554 27.547-2.967-25.744-10.147-50.242-30.112-70.207-19.862-19.862-44.215-28.289-69.815-31.843 4.595-19.759 13.938-40.249 27.66-59.555 31.596 6.449 61.687 21.902 86.154 46.368 24.858 24.859 40.414 55.538 46.667 87.69z"/><path d="m363.283 271.061c-8.952 18.677-21.881 37.107-38.498 53.724-3.4 3.389-6.861 6.634-10.395 9.715-9.972-32.719-27.877-63.521-53.714-89.358-23.972-23.972-52.23-38.807-82.332-48.501 2.833-3.193 5.79-6.346 8.87-9.426 15.648-15.648 32.883-28.021 50.438-36.891 27.413 13.918 53.116 32.327 76.007 55.228 19.945 19.944 36.489 42.021 49.624 65.509z"/><path d="m372.318 247.944c-13.763-21.695-30.04-42.021-48.655-60.636-18.203-18.203-38.045-34.161-59.194-47.749 35.953-10.765 70.434-6.243 92.325 15.648 21.973 21.974 26.433 56.64 15.524 92.737z"/></g><path d="m211.321 342.01c5.398 11.26 8.324 23.426 8.767 35.675-25.528 2.009-48.666-4.667-64.881-20.892-5.46-5.46-9.828-11.692-13.166-18.543 19.481 9.467 43.896 10.477 69.28 3.76z" fill="#f82f40"/><path d="m297.764 347.583c-19.666 13.836-40.517 23.148-60.564 27.537-1.535-13.351-4.213-26.362-9.21-38.58 18.595-7.294 37.251-18.564 54.445-33.532 7.231 14.205 12.341 29.225 15.329 44.575z" fill="#f82f40"/><path d="m363.293 271.061c-8.952 18.677-21.891 37.107-38.508 53.724-3.4 3.4-6.861 6.634-10.395 9.715-4.605-15.133-10.92-29.844-18.924-43.855 18.152-18.739 31.688-39.631 40.208-60.523 10.457 13.021 19.656 26.723 27.619 40.939z" fill="#f82f40"/><path d="m372.318 247.944c-8.808-13.897-18.657-27.228-29.484-39.909 5.79-24.199 4.481-47.357-4.584-65.993 6.851 3.338 13.083 7.706 18.543 13.166 21.974 21.973 26.445 56.639 15.525 92.736z" fill="#f82f40"/><g><path d="m375.187 236.899c-11.932-20.338-26.552-39.3-43.67-56.418s-36.08-31.738-56.418-43.67c-16.725 3.628-34.018 10.679-50.707 20.943 28.395 11.568 54.983 28.861 77.987 51.865s40.298 49.592 51.865 77.987c10.264-16.689 17.315-33.982 20.943-50.707z" fill="#31a7fb"/></g><path d="m375.19 236.899c-3.626 16.72-10.683 34.016-20.943 50.705-6.366-15.628-14.464-30.699-24.302-44.936 8.035-15.885 13.197-32.028 15.298-47.46 11.321 13.063 21.335 27.022 29.947 41.691z" fill="#1c96f9"/><g><path d="m272.396 239.601c-25.022-25.022-55.201-41.813-87.158-50.372-11.116 11.407-20.506 23.623-28.103 36.16 31.542 4.676 61.896 19.122 86.124 43.35s38.673 54.582 43.35 86.124c12.537-7.598 24.753-16.987 36.16-28.103-8.56-31.957-25.351-62.136-50.373-87.159z" fill="#31a7fb"/></g><path d="m304.098 281.176c8.221 14.495 14.453 29.824 18.667 45.585-11.404 11.116-23.622 20.5-36.159 28.103-2.256-15.185-6.768-30.091-13.547-44.174 6.882-5.305 13.588-11.188 20.016-17.616 3.873-3.873 7.551-7.849 11.023-11.898z" fill="#1c96f9"/><g><path d="m215.242 296.755c-20.906-20.906-47.953-32.001-75.372-33.297-4.341 14.117-6.33 28.038-5.835 41.062 18.852-.102 37.719 7.022 52.069 21.372s21.475 33.217 21.373 52.069c13.025.495 26.945-1.493 41.062-5.835-1.296-27.417-12.39-54.465-33.297-75.371z" fill="#31a7fb"/></g><path d="m239.114 331.696c5.625 12.888 8.767 26.61 9.426 40.434-14.113 4.337-28.041 6.325-41.063 5.831.062-11.466-2.555-22.942-7.85-33.398 12.919-2.225 26.27-6.552 39.487-12.867z" fill="#1c96f9"/></g></g></svg>