<svg id="Capa_1" enable-background="new 0 0 512 512" height="512" viewBox="0 0 512 512" width="512" xmlns="http://www.w3.org/2000/svg"><g><g><g><path d="m435.63 141.754 59.898-2.778c15.94-.739 22.411-20.87 9.886-30.758l-15.027-11.864c-3.128-2.47-5.304-5.947-6.158-9.84l-8.2-37.393c-1.442-6.574-6.576-11.708-13.149-13.149l-37.393-8.2c-3.893-.854-7.37-3.03-9.84-6.158l-11.865-15.028c-9.888-12.524-30.019-6.054-30.758 9.886l-2.778 59.898c-.225 4.846 1.602 9.562 5.032 12.992l47.361 47.361c3.429 3.429 8.146 5.256 12.991 5.031z" fill="#865240"/><path d="m495.528 138.982-59.9 2.775c-4.844.226-9.557-1.603-12.988-5.034l-30.901-30.901c3.431 3.431 8.144 5.259 12.988 5.034l59.9-2.775c15.938-.743 22.407-20.877 9.885-30.762l-15.028-11.866c-3.125-2.469-5.303-5.944-6.155-9.841l-5.004-22.837 14.554 3.191c6.578 1.45 11.706 6.578 13.156 13.156l8.195 37.391c.852 3.897 3.03 7.372 6.155 9.841l15.028 11.866c12.522 9.885 6.054 30.019-9.885 30.762z" fill="#7b4b39"/><g><path d="m395.388 99.065c-1.64 0-3.292-.519-4.694-1.594-3.387-2.596-4.029-7.446-1.433-10.832l15.673-20.453c2.596-3.387 7.446-4.029 10.832-1.434 3.387 2.596 4.029 7.446 1.433 10.832l-15.673 20.453c-1.52 1.986-3.816 3.028-6.138 3.028z" fill="#7b4b39"/></g><g><path d="m410.807 116.43c-1.793 0-3.521-.679-5.205-2.363-3.017-3.018-3.015-7.909.003-10.927 1.002-1.001 24.25-16.161 38.68-26.816 3.434-2.536 8.27-1.807 10.805 1.626s1.807 8.271-1.626 10.805c-.093.068-9.343 6.896-18.606 13.506-5.478 3.909-9.902 6.988-13.151 9.152-3.943 2.624-7.535 5.017-10.9 5.017z" fill="#7b4b39"/></g><path d="m76.37 370.246-59.898 2.778c-15.94.739-22.411 20.87-9.886 30.758l15.027 11.864c3.128 2.47 5.304 5.947 6.158 9.84l8.2 37.393c1.442 6.573 6.576 11.708 13.149 13.149l37.393 8.2c3.893.854 7.37 3.03 9.84 6.158l11.864 15.027c9.888 12.524 30.019 6.054 30.758-9.886l2.778-59.898c.225-4.846-1.602-9.562-5.032-12.992l-47.361-47.361c-3.428-3.428-8.145-5.255-12.99-5.03z" fill="#865240"/><path d="m108.22 505.413-11.866-15.028c-2.469-3.125-5.944-5.303-9.841-6.155l-37.391-8.195c-6.578-1.45-11.706-6.578-13.156-13.156l-3.191-14.554 22.837 5.004c3.897.852 7.372 3.03 9.841 6.155l11.866 15.028c9.885 12.522 30.019 6.053 30.762-9.885l2.775-59.9c.226-4.844-1.603-9.557-5.034-12.988l30.901 30.901c3.431 3.431 5.259 8.144 5.034 12.988l-2.775 59.9c-.743 15.939-20.877 22.407-30.762 9.885z" fill="#7b4b39"/><path d="m140.33 466.427c-4.174-2.703-8.13-5.886-11.786-9.543l-73.428-73.428c-3.657-3.657-6.84-7.612-9.543-11.786l30.799-1.428c4.844-.226 9.557 1.603 12.988 5.034l47.364 47.364c3.431 3.431 5.259 8.144 5.034 12.988z" fill="#7b4b39"/><g><path d="m66.565 419.152c-2.624 0-5.182-1.336-6.631-3.749-2.197-3.658-1.013-8.404 2.645-10.603l23.179-13.924c3.656-2.195 8.404-1.013 10.602 2.645 2.197 3.658 1.013 8.404-2.645 10.603l-23.179 13.924c-1.245.748-2.617 1.104-3.971 1.104z" fill="#7b4b39"/></g><g><path d="m93.837 454.829c-1.249 0-2.517-.304-3.692-.944-3.746-2.043-5.128-6.735-3.085-10.482l19.071-34.979c2.042-3.747 6.734-5.128 10.482-3.086 3.746 2.043 5.128 6.735 3.085 10.482l-19.07 34.98c-1.403 2.572-4.054 4.029-6.791 4.029z" fill="#7b4b39"/></g><path d="m141.825 223.899 146.275 146.276-72.144 72.143c-20.119 20.12-52.735 20.12-72.844 0l-73.431-73.431c-20.119-20.109-20.119-52.725 0-72.844z" fill="#925b46"/><path d="m443.946 214.329-24.096 24.096-146.275-146.275 24.096-24.096c20.119-20.119 52.735-20.119 72.844 0l73.431 73.431c20.12 20.109 20.12 52.725 0 72.844z" fill="#925b46"/><path d="m256.886 338.961 31.214 31.215-72.144 72.143c-20.119 20.12-52.725 20.12-72.844 0l-31.214-31.214c20.109 20.109 52.725 20.119 72.844 0z" fill="#865240"/><path d="m443.946 214.329-24.096 24.096-31.214-31.214 24.096-24.096c20.109-20.119 20.109-52.735 0-72.844l31.214 31.214c20.12 20.12 20.109 52.725 0 72.844z" fill="#865240"/><path d="m285.357 80.369-126.639 126.639 145.572 146.976 127.341-127.341z" fill="#fb4a59"/><path d="m431.629 226.644-127.34 127.339-31.068-31.359 127.194-127.194z" fill="#f82f40"/><path d="m171.475 194.251-40.082 40.082 145.572 146.976 40.784-40.784z" fill="#fcb44d"/><path d="m317.751 340.522-40.786 40.786-31.069-31.36 40.641-40.64z" fill="#fb9927"/></g></g><g><path d="m338.495 224.044c-1.977 0-3.955-.755-5.463-2.263l-42.813-42.814c-3.018-3.018-3.018-7.909 0-10.928 3.018-3.017 7.91-3.015 10.927 0l42.813 42.814c3.018 3.018 3.018 7.909 0 10.928-1.509 1.509-3.487 2.263-5.464 2.263z" fill="#fee7c9"/></g><g><path d="m338.918 269.412c-1.977 0-3.955-.755-5.463-2.263l-88.604-88.604c-3.018-3.018-3.018-7.909 0-10.928 3.017-3.016 7.909-3.016 10.927 0l88.604 88.604c3.018 3.018 3.018 7.909 0 10.928-1.51 1.509-3.487 2.263-5.464 2.263z" fill="#fee7c9"/></g></g></svg>