<svg id="Capa_1" enable-background="new 0 0 512 512" height="512" viewBox="0 0 512 512" width="512" xmlns="http://www.w3.org/2000/svg"><g><path d="m490.102 181.328-120.806 13.711-52.337-52.337 13.711-120.806c.412-5.451 2.699-10.788 6.868-14.957 9.252-9.252 24.252-9.252 33.504 0s9.252 24.252 0 33.504-9.252 24.252 0 33.504 24.252 9.252 33.504 0 24.252-9.252 33.504 0 9.252 24.252 0 33.504-9.252 24.252 0 33.504 24.252 9.252 33.504 0 24.252-9.252 33.504 0 9.252 24.252 0 33.504c-4.168 4.17-9.505 6.457-14.956 6.869z" fill="#fcc16d"/><path d="m505.054 174.46c-4.162 4.172-9.498 6.459-14.948 6.871l-120.809 13.712-19.161-19.161 112.99-12.826c5.45-.412 10.786-2.699 14.958-6.871 5.924-5.924 8.056-14.216 6.387-21.84 7.263-1.195 14.979 1.01 20.583 6.614 9.261 9.251 9.261 24.25 0 33.501z" fill="#fcb44d"/><path d="m21.896 330.67 120.806-13.711 52.337 52.337-13.711 120.806c-.412 5.451-2.699 10.788-6.868 14.957-9.252 9.252-24.252 9.252-33.504 0s-9.252-24.252 0-33.504 9.252-24.252 0-33.504-24.252-9.252-33.504 0-24.252 9.252-33.504 0-9.252-24.252 0-33.504 9.252-24.252 0-33.504-24.252-9.252-33.504 0-24.252 9.252-33.504 0-9.252-24.252 0-33.504c4.168-4.17 9.504-6.457 14.956-6.869z" fill="#fcc16d"/><path d="m195.043 369.297-13.712 120.809c-.412 5.45-2.699 10.786-6.871 14.948-9.251 9.261-24.25 9.261-33.501 0-1.741-1.741-3.152-3.688-4.234-5.759 2.081-1.092 4.028-2.514 5.769-4.254 4.172-4.172 6.459-9.509 6.871-14.958l15.7-140.763z" fill="#fcb44d"/><g><g><g><path d="m350.81 149.16c-1.101 0-2.218-.236-3.28-.735-3.862-1.814-5.523-6.415-3.708-10.278l13.69-29.147c1.814-3.863 6.418-5.522 10.278-3.708 3.862 1.814 5.523 6.415 3.708 10.278l-13.69 29.147c-1.315 2.8-4.096 4.443-6.998 4.443z" fill="#fb9927"/></g><g><path d="m376.39 165.422c-2.645 0-5.22-1.359-6.662-3.802-2.168-3.675-.946-8.412 2.729-10.58l27.569-16.263c3.676-2.165 8.412-.945 10.58 2.729 2.168 3.675.946 8.412-2.729 10.58l-27.569 16.263c-1.232.726-2.584 1.073-3.918 1.073z" fill="#fb9927"/></g><g><path d="m136.715 405.227c-1.655 0-3.322-.529-4.731-1.622-3.371-2.617-3.984-7.47-1.368-10.841l18.042-23.251c2.616-3.371 7.471-3.982 10.841-1.368 3.371 2.617 3.984 7.47 1.368 10.841l-18.042 23.252c-1.523 1.962-3.805 2.989-6.11 2.989z" fill="#fb9927"/></g><g><path d="m111.49 374.865c-2.884 0-5.651-1.622-6.977-4.397-1.84-3.85-.21-8.463 3.64-10.303l25.24-12.06c3.851-1.838 8.463-.209 10.302 3.641 1.84 3.85.21 8.463-3.64 10.303l-25.24 12.06c-1.074.513-2.209.756-3.325.756z" fill="#fb9927"/></g></g><path d="m373.286 332.316c7.489 0 14.938-.412 22.314-1.236-26.754 49.655-79.242 83.403-139.6 83.403-86.824 0-157.35-69.836-158.473-156.392 16.277-13.125 36.324-20.233 57.67-20.233 33.316 0 46.976 11.837 71.783 33.326 29.782 25.807 70.557 61.132 146.306 61.132z" fill="#3ad1e0"/><path d="m137.684 175.563c-6.284 0-12.548.288-18.77.865 27.454-47.192 78.561-78.911 137.086-78.911 85.196 0 154.692 67.23 158.328 151.529-16.431 13.609-36.819 20.974-58.555 20.974-33.316 0-46.976-11.837-71.783-33.326-29.783-25.806-70.557-61.131-146.306-61.131z" fill="#3ad1e0"/><path d="m373.286 332.316c7.489 0 14.938-.412 22.314-1.236-26.754 49.655-79.242 83.403-139.6 83.403-9.704 0-19.192-.876-28.412-2.534 48.655-8.808 89.574-39.827 111.888-82.178 10.435 1.638 21.675 2.545 33.81 2.545z" fill="#22c7db"/><path d="m227.588 100.051c9.22-1.659 18.708-2.534 28.412-2.534 85.196 0 154.692 67.23 158.328 151.529-16.112 13.341-36.025 20.686-57.288 20.964.412-4.615.618-9.292.618-14.011 0-77.819-56.093-142.555-130.07-155.948z" fill="#22c7db"/><path d="m414.483 256c0 34.181-10.817 65.839-29.226 91.717-10.044 1.679-20.253 2.545-30.545 2.545-68.569 0-105.48-31.977-132.44-55.331-22.458-19.46-34.83-30.174-64.984-30.174-21.345 0-41.269 7.85-56.732 22.241-1.999-10.024-3.039-20.387-3.039-30.998 0-34.181 10.817-65.839 29.226-91.717 10.044-1.679 20.253-2.545 30.545-2.545 68.569 0 105.48 31.977 132.44 55.331 22.458 19.46 34.83 30.174 64.984 30.174 21.345 0 41.269-7.85 56.732-22.242 1.999 10.025 3.039 20.388 3.039 30.999z" fill="#fcc16d"/><path d="m414.483 256c0 34.181-10.817 65.839-29.226 91.717-10.044 1.679-20.253 2.545-30.545 2.545-9.55 0-18.482-.618-26.857-1.751 18.76-26.033 29.803-57.979 29.803-92.51 0-2.957-.082-5.882-.258-8.798 20.325-.628 39.229-8.416 54.043-22.2 2 10.023 3.04 20.386 3.04 30.997z" fill="#fcb44d"/></g></g></svg>