<svg id="Capa_1" enable-background="new 0 0 512 512" height="512" viewBox="0 0 512 512" width="512" xmlns="http://www.w3.org/2000/svg"><g><g><path d="m160.991 326.189-155.849 155.848c-6.855 6.855-6.855 17.971 0 24.825 6.855 6.855 17.964 6.847 24.818-.007l155.848-155.848z" fill="#f3eae6"/><path d="m160.991 326.189-34.599 34.599c3.365 4.72 7.161 9.215 11.386 13.44s8.719 8.02 13.432 11.378l34.599-34.599z" fill="#e0d3ce"/></g><g><circle cx="213.476" cy="298.522" fill="#64b9fc" r="86.451"/><g fill="#31a7fb"><path d="m299.908 297.689c-20.564-3.795-40.218-13.629-56.09-29.502-15.873-15.873-25.707-35.526-29.502-56.105 21.846.211 43.627 8.647 60.294 25.314 16.666 16.667 25.101 38.447 25.298 60.293z"/><path d="m274.602 359.651c-33.763 33.763-88.499 33.763-122.255.007-6.134-6.134-11.153-12.959-15.05-20.222 32.736 17.585 74.403 12.573 102.033-15.057s32.642-69.297 15.057-102.034c7.262 3.897 14.088 8.916 20.222 15.05 33.756 33.757 33.756 88.492-.007 122.256z"/></g></g><g><circle cx="319.512" cy="192.487" fill="#fcb44d" r="86.451"/><g fill="#fca62f"><path d="m405.941 191.657c-20.564-3.795-40.218-13.629-56.09-29.502-15.873-15.873-25.707-35.526-29.502-56.105 21.846.211 43.627 8.646 60.294 25.313 16.666 16.667 25.101 38.448 25.298 60.294z"/><path d="m380.642 253.611c-33.764 33.764-88.499 33.763-122.255.007-6.133-6.133-11.152-12.959-15.05-20.222 32.736 17.585 74.404 12.573 102.034-15.057 27.623-27.623 32.634-69.29 15.05-102.026 7.263 3.897 14.088 8.916 20.222 15.049 33.755 33.757 33.755 88.493-.001 122.249z"/></g></g><g><circle cx="425.547" cy="86.451" fill="#fb8189" r="86.451"/><path d="m486.674 147.578c-33.764 33.764-88.499 33.763-122.255.007-6.134-6.133-11.153-12.959-15.05-20.222 32.737 17.585 74.403 12.573 102.034-15.057 27.63-27.63 32.642-69.297 15.057-102.033 7.263 3.897 14.088 8.916 20.222 15.05 33.756 33.756 33.756 88.492-.008 122.255z" fill="#fb6672"/></g></g></svg>