<svg id="Capa_1" enable-background="new 0 0 512 512" height="512" viewBox="0 0 512 512" width="512" xmlns="http://www.w3.org/2000/svg"><g><path d="m5.483 506.475c-7.311-7.311-7.311-19.164 0-26.475l205.411-205.411c7.311-7.311 19.164-7.311 26.475 0 7.311 7.311 7.311 19.164 0 26.475l-205.411 205.411c-7.311 7.311-19.164 7.311-26.475 0z" fill="#f3eae6"/><path d="m242.855 287.823c0 4.79-1.834 9.591-5.481 13.238l-46.986 46.987c-4.76-3.976-9.364-8.19-13.805-12.63-4.471-4.471-8.695-9.097-12.661-13.856l46.976-46.976c7.304-7.304 19.161-7.304 26.476 0 3.647 3.656 5.481 8.446 5.481 13.237z" fill="#e0d3ce"/><g><path d="m510.043 214.68c-5.542 38.848-23.251 76.275-53.126 106.16-8.633 8.633-17.894 16.256-27.65 22.86-.165-1.865-.36-3.75-.587-5.625-6.871-50.623-35.315-95.498-76.79-123.539 9.622 20.264 15.772 42.062 18.08 64.458 3.286 31.905-1.236 64.263-13.094 94.014-51.942 9.169-106.984-3.606-150.252-38.302 1.885-.659 3.647-1.36 5.202-2.102 46.338-21.665 80.715-62.182 95.137-110.137-16.473 15.226-35.459 27.588-56.155 36.458-29.484 12.64-61.739 17.966-93.674 15.494-24.312-46.884-27.537-101.864-9.673-150.901 1.267 1.453 2.565 2.967 3.915 4.533 35.273 36.829 84.547 56.382 134.511 54.754-19.687-10.755-37.468-24.796-52.477-41.578-21.376-23.89-36.705-52.735-44.586-83.764.762-.804 1.545-1.597 2.328-2.38 38.941-38.941 90.718-57.216 141.712-54.837-1.123 1.741-2.184 3.431-3.152 5.007-24.652 44.658-28.618 97.558-12.136 144.761 4.389-21.994 12.486-43.154 24.014-62.491 16.431-27.547 39.415-50.808 66.694-67.59 17.544 8.798 33.996 20.511 48.635 35.15 23.55 23.55 39.538 51.808 47.975 81.735-1.854-.433-3.74-.865-5.666-1.277-50.19-9.272-101.648 3.698-141.238 34.284 22.262-2.802 44.885-1.813 66.879 3.008 31.316 6.872 60.624 21.295 85.174 41.847z" fill="#925b46"/><g fill="#865240"><path d="m296.301 373.833c23.777-3.523 47.007-11.62 68.27-24.281-2.071 7.963-4.636 15.793-7.696 23.457-20.006 3.533-40.486 3.801-60.574.824z"/><path d="m510.043 214.68c-5.542 38.848-23.251 76.275-53.126 106.16-8.633 8.633-17.894 16.256-27.65 22.86-.165-1.865-.36-3.75-.587-5.625-1.772-13.032-4.965-25.682-9.447-37.756 25.971-34.727 38.364-76.398 37.179-117.75 19.408 7.799 37.539 18.636 53.631 32.111z"/><path d="m332.862.248c-1.123 1.741-2.184 3.431-3.152 5.007-.773 1.401-1.525 2.812-2.256 4.224-10.199-3.369-20.614-5.82-31.153-7.386 12.104-1.794 24.363-2.412 36.561-1.845z"/><path d="m504.892 136.819c-1.854-.433-3.74-.865-5.666-1.277-16.936-3.132-34.016-3.729-50.736-1.968-8.664-28.732-24.343-55.795-47.038-78.489-5.965-5.965-12.238-11.445-18.76-16.431 8.005-6.892 16.555-13.166 25.59-18.718 17.544 8.798 33.996 20.511 48.635 35.15 23.549 23.548 39.537 51.806 47.975 81.733z"/></g><g><g><path d="m324.033 187.964c-35.788-59.629-34.651-131.121-3.235-187.888 33.886-.589 67.896 7.937 98.041 25.577-56.342 32.202-94.455 92.751-94.806 162.311z" fill="#d4f2f6"/></g><path d="m390.82 45.246c-21.86-18.78-47.017-31.699-73.4-38.766 1.082-2.153 2.205-4.296 3.379-6.408 33.883-.587 67.899 7.943 98.042 25.579-9.942 5.688-19.316 12.25-28.021 19.595z" fill="#a8e7ef"/><g><path d="m324.033 187.964c45.24-52.817 113.419-74.362 177.209-62.523 11.282 31.958 13.956 66.919 6.761 101.097-48.376-43.258-117.874-60.252-183.97-38.574z" fill="#d4f2f6"/></g><path d="m508.003 226.537c-15.339-13.712-32.801-24.796-51.602-32.822.731-23.735-3.029-47.594-11.25-70.176 18.615-2.163 37.54-1.535 56.093 1.906 11.281 31.957 13.95 66.911 6.759 101.092z" fill="#a8e7ef"/><g><path d="m324.033 187.964c64.326 26.43 106.132 84.436 114.859 148.726-26.82 20.72-59.185 34.205-93.898 38.072 25.938-59.486 20.32-130.811-20.961-186.798z" fill="#d4f2f6"/></g><path d="m426.34 290.12c6.13 14.866 10.374 30.524 12.548 46.575-26.816 20.717-59.184 34.202-93.891 38.065 2.606-5.985 4.904-12.105 6.871-18.306 17.904-8.839 34.686-20.717 49.582-35.613 9.541-9.54 17.834-19.842 24.89-30.721z" fill="#a8e7ef"/><g><path d="m324.033 187.964c-6.074 69.278-48.998 126.462-107.772 153.939-27.767-19.432-50.279-46.314-64.308-78.3 64.511 7.046 130.927-19.557 172.08-75.639z" fill="#d4f2f6"/></g><g><path d="m324.033 187.964c-67.592 16.361-135.487-6.061-180.29-52.987 9.551-32.518 27.838-62.433 53.672-85.94 13.918 63.385 60.332 117.832 126.618 138.927z" fill="#d4f2f6"/></g><circle cx="324.033" cy="187.964" fill="#a8e7ef" r="43.952"/><path d="m355.114 219.048c-12.712 12.712-31.286 16.009-47.038 9.879 5.511-2.132 10.683-5.429 15.133-9.879 17.163-17.173 17.163-44.998 0-62.161-4.45-4.45-9.622-7.747-15.133-9.88 15.751-6.13 34.326-2.833 47.038 9.88 17.163 17.163 17.163 44.988 0 62.161z" fill="#70d9e6"/></g></g></g></svg>