<svg id="Capa_1" enable-background="new 0 0 512 512" height="512" viewBox="0 0 512 512" width="512" xmlns="http://www.w3.org/2000/svg"><g><g><g><g><path d="m140.098 47.753h231.803v86.48h-231.803z" fill="#a8e7ef"/><path d="m329.59 47.753h42.312v86.48h-42.312z" fill="#70d9e6"/><path d="m415.164 512h-318.328c-17.689 0-32.03-14.34-32.03-32.03v-308.703c0-18.218 11.022-34.625 27.888-41.513l47.404-19.359h231.803l47.404 19.359c16.866 6.888 27.888 23.295 27.888 41.513v308.703c.001 17.69-14.339 32.03-32.029 32.03z" fill="#eaf9fa"/><path d="m64.806 210.262h382.388v52.21h-382.388z" fill="#d4f2f6"/><path d="m447.191 171.268v308.704c0 17.688-14.34 32.028-32.028 32.028h-51.622c17.688 0 32.028-14.34 32.028-32.028v-308.704c0-18.224-11.023-34.624-27.887-41.516l-47.409-19.357h51.633l47.399 19.357c16.863 6.891 27.886 23.292 27.886 41.516z" fill="#d4f2f6"/><path d="m397.617 71.638h-283.234c-11.599 0-21.002-9.403-21.002-21.002v-29.634c0-11.599 9.403-21.002 21.002-21.002h283.234c11.599 0 21.002 9.403 21.002 21.002v29.634c0 11.599-9.403 21.002-21.002 21.002z" fill="#22c7db"/><path d="m418.621 20.999v29.634c0 11.607-9.404 21.011-20.999 21.011h-283.244c-11.595 0-20.998-9.404-20.998-21.011v-29.634c-.001-11.595 9.403-20.999 20.998-20.999h283.245c11.594 0 20.998 9.404 20.998 20.999z" fill="#22c7db"/><path d="m418.621 20.999v29.634c0 11.607-9.404 21.011-20.999 21.011h-50.568c11.595 0 20.999-9.404 20.999-21.011v-29.634c-.001-11.595-9.404-20.999-20.999-20.999h50.568c11.595 0 20.999 9.404 20.999 20.999z" fill="#1fb2cc"/></g><g><g><circle cx="255.999" cy="332.621" fill="#83d167" r="48.534"/><path d="m304.534 332.617c0 26.808-21.725 48.533-48.533 48.533-5.611 0-10.995-.956-16.014-2.705 18.945-6.617 32.531-24.631 32.531-45.828 0-21.184-13.586-39.211-32.531-45.828 5.019-1.749 10.404-2.705 16.014-2.705 26.808 0 48.533 21.738 48.533 48.533z" fill="#6bc94d"/></g></g><g><g><circle cx="207.465" cy="395.727" fill="#fb4a59" r="48.534"/><path d="m256.001 395.723c0 26.808-21.725 48.533-48.533 48.533-5.611 0-10.995-.956-16.014-2.705 18.945-6.617 32.531-24.631 32.531-45.828 0-21.184-13.586-39.211-32.531-45.828 5.019-1.749 10.404-2.705 16.014-2.705 26.807 0 48.533 21.738 48.533 48.533z" fill="#f82f40"/></g><g><circle cx="304.534" cy="395.727" fill="#fcb44d" r="48.534"/><path d="m353.07 395.723c0 26.808-21.725 48.533-48.533 48.533-5.611 0-10.995-.956-16.014-2.705 18.945-6.617 32.531-24.631 32.531-45.828 0-21.184-13.586-39.211-32.531-45.828 5.019-1.749 10.404-2.705 16.014-2.705 26.807 0 48.533 21.738 48.533 48.533z" fill="#fb9927"/></g></g></g><g><g><circle cx="158.93" cy="458.83" fill="#fcb44d" r="48.534"/><path d="m207.466 458.826c0 26.808-21.725 48.533-48.533 48.533-5.611 0-10.995-.956-16.014-2.705 18.945-6.617 32.531-24.631 32.531-45.828 0-21.184-13.586-39.211-32.531-45.828 5.019-1.749 10.404-2.705 16.014-2.705 26.808 0 48.533 21.738 48.533 48.533z" fill="#fb9927"/></g><g><circle cx="255.999" cy="458.83" fill="#64b9fc" r="48.534"/><path d="m304.535 458.826c0 26.808-21.725 48.533-48.533 48.533-5.611 0-10.995-.956-16.014-2.705 18.945-6.617 32.531-24.631 32.531-45.828 0-21.184-13.586-39.211-32.531-45.828 5.019-1.749 10.404-2.705 16.014-2.705 26.808 0 48.533 21.738 48.533 48.533z" fill="#31a7fb"/></g><g><circle cx="353.068" cy="458.83" fill="#fb4a59" r="48.534"/><path d="m401.604 458.826c0 26.808-21.725 48.533-48.533 48.533-5.611 0-10.995-.956-16.014-2.705 18.945-6.617 32.531-24.631 32.531-45.828 0-21.184-13.586-39.211-32.531-45.828 5.019-1.749 10.404-2.705 16.014-2.705 26.808 0 48.533 21.738 48.533 48.533z" fill="#f82f40"/></g></g></g><g><path d="m443.517 239.178h-375.034c-5.69 0-10.302-4.612-10.302-10.302v-38.568c0-5.69 4.612-10.302 10.302-10.302h375.035c5.69 0 10.302 4.612 10.302 10.302v38.568c-.001 5.69-4.613 10.302-10.303 10.302z" fill="#22c7db"/><path d="m453.815 190.305v38.57c0 5.687-4.605 10.302-10.302 10.302h-44.978c5.697 0 10.302-4.615 10.302-10.302v-38.57c0-5.687-4.605-10.302-10.302-10.302h44.978c5.697.001 10.302 4.616 10.302 10.302z" fill="#1fb2cc"/></g></g></svg>