<svg id="Capa_1" enable-background="new 0 0 512 512" height="512" viewBox="0 0 512 512" width="512" xmlns="http://www.w3.org/2000/svg"><g><path d="m5.43 506.57c-7.241-7.241-7.241-18.98 0-26.22l268.566-268.566c7.24-7.24 18.98-7.24 26.22 0 7.24 7.24 7.24 18.98 0 26.22l-268.565 268.566c-7.241 7.24-18.98 7.24-26.221 0z" fill="#f3eae6"/><path d="m305.645 224.888c0 4.749-1.803 9.498-5.429 13.114l-27.228 27.228c-4.821-3.822-9.447-7.953-13.856-12.362s-8.54-9.035-12.362-13.856l27.228-27.228c7.242-7.242 18.976-7.242 26.218 0 3.626 3.626 5.429 8.365 5.429 13.104z" fill="#e0d3ce"/><g><path d="m257.257 60.646 194.097 194.097c-54.373 37.375-129.319 31.894-177.655-16.442s-53.817-123.282-16.442-177.655z" fill="#64b9fc"/><path d="m487.565 218.511-194.076-194.076c54.373-37.365 129.298-31.874 177.624 16.452s53.817 123.251 16.452 177.624z" fill="#64b9fc"/><g fill="#31a7fb"><path d="m451.344 254.732c-10.477 7.201-21.727 12.795-33.399 16.813l-177.49-177.49c4.018-11.672 9.612-22.922 16.813-33.399z"/><path d="m423.045 226.433 28.309 28.309c-54.373 37.375-129.319 31.894-177.655-16.442-4.801-4.811-9.189-9.88-13.145-15.164 47.873 35.851 113.526 36.964 162.491 3.297z"/><path d="m487.565 218.511-28.299-28.299c33.646-48.965 32.533-114.598-3.317-162.47 5.285 3.956 10.353 8.334 15.164 13.145 48.326 48.326 53.817 123.251 16.452 177.624z"/></g><path d="m442.351 264.126-194.477-194.477c-15.075-15.075-15.075-39.515 0-54.59 15.075-15.075 39.515-15.075 54.59 0l194.477 194.477c15.075 15.075 15.075 39.515 0 54.59-15.074 15.074-39.515 15.074-54.59 0z" fill="#8dcafc"/><path d="m496.943 264.129c-7.532 7.532-17.417 11.298-27.295 11.298-9.885.007-19.755-3.759-27.295-11.298l-28.308-28.308c7.54 7.54 17.417 11.313 27.302 11.306 9.878 0 19.756-3.773 27.288-11.305 15.079-15.079 15.079-39.511 0-54.59l28.308 28.308c15.071 15.07 15.078 39.51 0 54.589z" fill="#64b9fc"/></g></g></svg>