<svg id="Capa_1" enable-background="new 0 0 512 512" height="512" viewBox="0 0 512 512" width="512" xmlns="http://www.w3.org/2000/svg"><g><g fill="#f8f3f1"><path d="m168.826 116.781c-15.391-15.401-15.391-40.363 0-55.764l18.214-18.214c9.622-9.622 20.264-17.627 31.565-24.003-.165 11.899 1.38 24.034 4.821 36.067 4.471 15.7 11.754 29.834 21.139 42.021-.587.546-1.174 1.113-1.751 1.689l-18.214 18.204c-7.706 7.706-17.791 11.548-27.887 11.548-10.096.001-20.181-3.842-27.887-11.548z"/><path d="m267.095 46.255c-4.152-14.598-5.542-29.319-4.481-43.608 9.168-1.761 18.471-2.647 27.773-2.647 28.237 0 56.475 8.128 80.9 24.405-12.187 6.212-23.622 14.423-33.821 24.621-10.168 10.168-18.368 21.562-24.57 33.707-9.931-3.523-20.542-4.636-30.895-3.338-6.397-10.023-11.465-21.128-14.906-33.14z"/><path d="m147.831 438.61c9.89 9.89 17.925 20.923 24.106 32.688l-29.154 29.154c-7.706 7.695-17.791 11.548-27.887 11.548s-20.181-3.853-27.887-11.548c-15.401-15.401-15.401-40.373 0-55.774l29.473-29.473c11.26 6.077 21.83 13.886 31.349 23.405z"/><path d="m254.568 388.667-53.538 53.538c-6.181-11.754-14.227-22.788-24.117-32.677-9.519-9.519-20.089-17.328-31.338-23.416l53.539-53.538c11.26 6.088 21.83 13.897 31.338 23.406 9.899 9.889 17.935 20.922 24.116 32.687z"/><path d="m337.405 305.83-53.755 53.755c-6.171-11.765-14.216-22.798-24.117-32.688-9.509-9.509-20.078-17.317-31.338-23.406l53.425-53.425c11.693 5.831 22.643 13.629 32.399 23.385 9.736 9.735 17.534 20.697 23.386 32.379z"/><path d="m426.845 198.588c-7.108 18.554-18.152 35.953-33.11 50.911l-26.96 26.96c-5.882-11.94-13.794-23.128-23.735-33.069-9.55-9.56-20.274-17.245-31.699-23.045l26.62-26.62c3.606-3.595 6.707-7.5 9.323-11.631 12.651-1.36 25.703-.907 38.858 1.587 14.711 2.782 28.372 7.902 40.703 14.907z"/><path d="m435.704 161.862c-13.969-9.066-29.916-15.618-47.306-18.914-10.436-1.978-20.81-2.679-30.957-2.194-.938-11.672-4.893-23.148-11.888-33.151 5.532-9.292 12.311-18.049 20.315-26.053 11.497-11.486 24.559-20.449 38.508-26.888 24.91 30.956 35.346 69.712 31.328 107.2z"/></g><path d="m357.514 30.401c-11.476-11.487-24.395-20.655-38.168-27.516 18.234 3.667 35.912 10.838 51.942 21.52-4.275 2.174-8.447 4.595-12.506 7.263-.424-.423-.846-.845-1.268-1.267z" fill="#e0d3ce"/><path d="m151.818 442.782c8.087 8.787 14.793 18.378 20.119 28.515l-29.154 29.154c-7.706 7.696-17.791 11.549-27.887 11.549s-20.181-3.853-27.887-11.548c-.484-.484-.948-.968-1.401-1.473 7.675-1.36 15.02-5.007 20.954-10.941z" fill="#e0d3ce"/><path d="m254.568 388.667-53.538 53.538c-5.326-10.127-12.033-19.718-20.13-28.505l53.549-53.549c8.086 8.788 14.793 18.379 20.119 28.516z" fill="#e0d3ce"/><path d="m337.405 305.83-53.755 53.755c-5.316-10.137-12.033-19.728-20.119-28.515l53.982-53.982c8.127 8.798 14.761 18.491 19.892 28.742z" fill="#e0d3ce"/><path d="m426.845 198.588c-7.108 18.554-18.152 35.953-33.11 50.911l-26.96 26.96c-5.069-10.292-11.651-20.027-19.749-28.886l10.487-10.487c15.35-15.35 26.568-33.254 33.656-52.343 12.806 2.925 24.766 7.643 35.676 13.845z" fill="#e0d3ce"/><path d="m435.704 161.862c-10.848-7.036-22.88-12.558-35.861-16.225 2.194-27.042-3.111-54.579-15.927-79.231 6.531-4.564 13.382-8.478 20.459-11.744 24.911 30.956 35.347 69.712 31.329 107.2z" fill="#e0d3ce"/><path d="m206.207 437.025-41.318 41.318c-5.159-12.074-12.667-23.388-22.524-33.246-9.857-9.857-21.164-17.372-33.239-22.531l41.311-41.311c12.074 5.159 23.381 12.674 33.239 22.531s17.373 21.165 22.531 33.239z" fill="#fb8189"/><path d="m206.211 437.023-41.321 41.321c-4.533-10.601-10.879-20.624-19.048-29.587l41.321-41.321c8.159 8.963 14.515 18.976 19.048 29.587z" fill="#fb6672"/><path d="m288.983 354.25-41.318 41.318c-5.159-12.074-12.667-23.388-22.524-33.246-9.857-9.857-21.164-17.372-33.239-22.531l41.311-41.311c12.074 5.159 23.381 12.674 33.239 22.531s17.373 21.165 22.531 33.239z" fill="#fb8189"/><path d="m288.986 354.248-41.321 41.321c-4.533-10.611-10.879-20.624-19.048-29.587l41.321-41.321c8.159 8.953 14.515 18.977 19.048 29.587z" fill="#fb6672"/><path d="m371.759 271.474-41.318 41.318c-5.159-12.074-12.667-23.388-22.524-33.246-9.857-9.857-21.164-17.372-33.239-22.531l41.311-41.311c12.074 5.159 23.381 12.674 33.239 22.531s17.372 21.165 22.531 33.239z" fill="#fb8189"/><path d="m371.761 271.473-41.321 41.321c-4.533-10.611-10.889-20.635-19.038-29.597l41.31-41.31c8.16 8.952 14.516 18.975 19.049 29.586z" fill="#fb6672"/><path d="m422.767 208.169c-11.426-7.564-24.511-13.036-38.822-15.748-15.825-2.998-31.475-2.321-46.101 1.429l.119-.119c13.134-13.134 19.701-30.353 19.701-47.571 0-3.82-.328-7.647-.976-11.419 12.276-2.168 25.152-2.189 38.139.272 15.469 2.935 29.509 9.083 41.555 17.63-.83 19.038-5.368 37.937-13.615 55.526z" fill="#fb8189"/><path d="m436.384 152.642c-.834 19.038-5.367 37.942-13.619 55.527-10.415-6.892-22.2-12.043-35.047-14.958 8.066-18.111 12.259-37.53 12.589-57.01 13.31 3.255 25.467 8.91 36.077 16.441z" fill="#fb6672"/><path d="m372.902 86.027c-9.341 9.341-16.577 19.979-21.694 31.342-3.214-6.797-7.633-13.169-13.252-18.787-8.679-8.679-19.136-14.493-30.206-17.435 5.166-13.266 13.12-25.71 23.841-36.431 10.345-10.345 22.294-18.111 35.044-23.291 9.641 5.905 18.745 13.029 27.097 21.381 6.023 6.023 11.412 12.444 16.159 19.171-13.475 5.165-26.121 13.181-36.989 24.05z" fill="#fb8189"/><path d="m409.888 61.976c-7.798 2.988-15.319 6.933-22.376 11.847-7.067-15.751-17.07-30.493-29.999-43.422-1.04-1.04-2.081-2.05-3.142-3.039 3.977-2.256 8.077-4.234 12.259-5.934 9.642 5.903 18.749 13.021 27.104 21.376 6.017 6.027 11.405 12.445 16.154 19.172z" fill="#fb6672"/><path d="m290.97 78.881c-17.407-.16-34.877 6.407-48.164 19.694l-2.761 2.761c-10.185-11.509-18.028-25.431-22.524-41.207-3.674-12.89-4.803-25.912-3.681-38.523 17.54-10.805 36.878-17.554 56.67-20.251-1.819 13.908-.885 28.408 3.2 42.754 3.694 12.938 9.627 24.629 17.26 34.772z" fill="#fb8189"/></g></svg>