<svg id="Capa_1" enable-background="new 0 0 512 512" height="512" viewBox="0 0 512 512" width="512" xmlns="http://www.w3.org/2000/svg"><g><g><g><g><path d="m235.18 360.213h-151.437v63.284h229.906c.464 0 .917 0 1.38-.021-38.58-.607-70.835-27.33-79.849-63.263zm78.469-104.213-63.294-9-46.658 9h-119.954v61.213h151.972c9.725-34.892 41.475-60.595 79.314-61.193-.463-.02-.917-.02-1.38-.02z" fill="#fb6672"/></g><g fill="#fb4a59"><path d="m315.029 423.477c-.464.021-.917.021-1.38.021h-187.874c39.188 0 72.102-26.919 81.23-63.284h28.175c9.014 35.932 41.269 62.655 79.849 63.263z"/><path d="m125.775 256h187.874c.464 0 .917 0 1.38.021-37.839.597-69.589 26.301-79.314 61.193h-29.257c-9.838-35.315-42.247-61.214-80.683-61.214z"/></g><path d="m397.392 339.743c0 10.848-2.071 21.242-5.831 30.771h-307.818v-61.543h307.818c3.761 9.52 5.831 19.914 5.831 30.772z" fill="#83d167"/><g><path d="m397.392 339.743c0 10.848-2.071 21.242-5.831 30.771h-187.863c3.76-9.519 5.831-19.903 5.831-30.761 0-10.868-2.071-21.253-5.831-30.782h187.864c3.76 9.52 5.83 19.914 5.83 30.772z" fill="#54c032"/></g><g><path d="m83.747 256c-46.248 0-83.747 37.49-83.747 83.747 0 46.248 37.499 83.747 83.747 83.747s83.747-37.499 83.747-83.747c0-46.257-37.499-83.747-83.747-83.747z" fill="#e0d3ce"/></g><g><path d="m167.497 339.75c0 46.249-37.499 83.748-83.748 83.748-6.298 0-12.429-.691-18.326-2.018 37.432-8.349 65.422-41.779 65.422-81.731 0-39.962-27.99-73.382-65.422-81.731 5.897-1.326 12.028-2.018 18.326-2.018 46.249.001 83.748 37.489 83.748 83.75z" fill="#cdbfbb"/></g><g><g><path d="m77.346 351.642c0 7.974 6.49 14.464 14.464 14.464 14.433 0 26.177-11.734 26.177-26.177 0-20.841-16.957-37.797-37.797-37.797-27.351 0-49.603 22.242-49.603 49.593 0 31.132 22.149 58.051 52.653 63.995l22.963 4.728c-7.149 1.988-14.68 3.049-22.458 3.049-14.464 0-28.072-3.667-39.95-10.127-17.647-14.927-28.66-37.241-28.66-61.646 0-35.871 29.185-65.046 65.056-65.046 29.36 0 53.25 23.89 53.25 53.25 0 22.963-18.677 41.63-41.63 41.63-16.493 0-29.916-13.423-29.916-29.916 0-10.055 8.18-18.234 18.234-18.234 4.265 0 7.726 3.461 7.726 7.726s-3.461 7.726-7.726 7.726c-1.537.001-2.783 1.247-2.783 2.782z" fill="#fb4a59"/></g></g></g></g><g><g><g><path d="m428.257 256h-129.577v61.213h210.25c-9.838-35.304-42.227-61.213-80.673-61.213zm-129.577 104.213v63.284h129.576c39.188 0 72.092-26.919 81.219-63.284z" fill="#fb8189"/></g><g fill="#fb6672"><path d="m385.638 256h42.619c38.436 0 70.835 25.899 80.673 61.213h-42.619c-9.838-35.314-42.237-61.213-80.673-61.213z"/><path d="m509.476 360.213c-9.127 36.365-42.031 63.284-81.219 63.284h-42.619c39.188 0 72.092-26.919 81.219-63.284z"/></g><path d="m512 339.738c0 10.857-2.073 21.246-5.83 30.777h-207.492v-61.543h207.492c3.757 9.52 5.83 19.909 5.83 30.766z" fill="#aee097"/><g><path d="m512 339.738c0 10.857-2.073 21.246-5.83 30.777h-42.615c3.757-9.531 5.83-19.909 5.83-30.766 0-10.868-2.073-21.246-5.83-30.777h42.615c3.757 9.52 5.83 19.909 5.83 30.766z" fill="#83d167"/></g><g><path d="m298.677 256c-46.248 0-83.747 37.49-83.747 83.747 0 46.248 37.499 83.747 83.747 83.747s83.747-37.499 83.747-83.747c0-46.257-37.499-83.747-83.747-83.747z" fill="#f3eae6"/></g><g><path d="m382.426 339.75c0 46.249-37.499 83.748-83.748 83.748-6.298 0-12.429-.691-18.326-2.018 37.432-8.349 65.422-41.779 65.422-81.731 0-39.962-27.99-73.382-65.422-81.731 5.897-1.326 12.028-2.018 18.326-2.018 46.249.001 83.748 37.489 83.748 83.75z" fill="#e0d3ce"/></g><g><g><path d="m292.273 351.642c0 7.974 6.49 14.464 14.464 14.464 14.443 0 26.187-11.734 26.187-26.177 0-20.841-16.967-37.797-37.808-37.797-27.351 0-49.603 22.242-49.603 49.593 0 31.091 22.087 57.968 52.519 63.974l25.548 4.028c-7.86 2.452-16.225 3.771-24.899 3.771-14.453 0-28.052-3.657-39.92-10.106-.01.01-.01 0-.021-.01-17.668-14.938-28.68-37.251-28.68-61.656 0-35.871 29.185-65.046 65.056-65.046 29.36 0 53.26 23.89 53.26 53.25 0 22.963-18.677 41.63-41.64 41.63-16.493 0-29.916-13.423-29.916-29.916 0-10.055 8.18-18.234 18.234-18.234 4.275 0 7.726 3.461 7.726 7.726s-3.451 7.726-7.726 7.726c-1.535-.001-2.781 1.245-2.781 2.78z" fill="#fb6672"/></g></g></g></g><g><g><g><path d="m186.823 192.716v63.284h129.577c39.198 0 72.102-26.919 81.23-63.284zm129.577-104.213h-129.577v63.274h210.806c-9.127-36.355-42.031-63.274-81.229-63.274z" fill="#fb8189"/></g><g fill="#fb6672"><path d="m355.011 192.716h42.619c-9.128 36.355-42.032 63.284-81.23 63.284h-42.619c39.198 0 72.102-26.929 81.23-63.284z"/><path d="m273.781 88.503h42.619c39.188 0 72.092 26.908 81.23 63.274h-42.619c-9.138-36.366-42.042-63.274-81.23-63.274z"/></g><path d="m400.149 172.241c0 10.857-2.073 21.246-5.83 30.777h-207.492v-61.543h207.492c3.757 9.519 5.83 19.908 5.83 30.766z" fill="#aee097"/><g><path d="m400.149 172.241c0 10.857-2.073 21.246-5.83 30.777h-42.615c3.757-9.531 5.83-19.909 5.83-30.766 0-10.868-2.073-21.246-5.83-30.777h42.615c3.757 9.519 5.83 19.908 5.83 30.766z" fill="#83d167"/></g><g><path d="m186.826 88.502c-46.248 0-83.747 37.49-83.747 83.747 0 46.248 37.499 83.747 83.747 83.747s83.747-37.499 83.747-83.747c0-46.256-37.499-83.747-83.747-83.747z" fill="#f3eae6"/></g><g><path d="m270.575 172.252c0 46.249-37.499 83.748-83.748 83.748-6.298 0-12.429-.691-18.326-2.018 37.432-8.349 65.422-41.779 65.422-81.731 0-39.962-27.99-73.382-65.422-81.731 5.897-1.326 12.028-2.018 18.326-2.018 46.249.001 83.748 37.489 83.748 83.75z" fill="#e0d3ce"/></g><g><g><path d="m180.426 184.145c0 7.974 6.49 14.464 14.464 14.464 14.433 0 26.177-11.734 26.177-26.177 0-20.841-16.957-37.797-37.808-37.797-27.341 0-49.593 22.242-49.593 49.593 0 31.132 22.139 58.051 52.653 63.995.072.021.155.031.227.052l21.747 4.945c-6.851 1.813-14.052 2.781-21.469 2.781-14.453 0-28.042-3.657-39.909-10.106-.01.01-.01.01-.01 0-17.678-14.938-28.691-37.251-28.691-61.666 0-35.871 29.185-65.046 65.046-65.046 29.37 0 53.26 23.89 53.26 53.25 0 22.963-18.677 41.63-41.63 41.63-16.493 0-29.916-13.423-29.916-29.917 0-10.055 8.18-18.234 18.234-18.234 4.265 0 7.726 3.451 7.726 7.726 0 4.265-3.461 7.726-7.726 7.726-1.536-.001-2.782 1.246-2.782 2.781z" fill="#fb6672"/></g></g></g></g></g></svg>