<svg id="Capa_1" enable-background="new 0 0 512 512" height="512" viewBox="0 0 512 512" width="512" xmlns="http://www.w3.org/2000/svg"><g><g><g><g><path d="m266.488 334.798h-254.867l18.234-60.121c3.358-11.095 13.588-18.677 25.188-18.677h98.979l29.282-6 39.772 6c11.59 0 21.819 7.582 25.178 18.677z" fill="#ffd597"/><path d="m266.488 334.798h-50.428l-18.234-60.121c-3.369-11.095-13.598-18.677-25.188-18.677h50.438c11.59 0 21.819 7.582 25.178 18.677z" fill="#fcc16d"/><path d="m251.778 403.286h-225.435c-17.668 0-30.308-17.05-25.198-33.955l12.033-39.683h251.746l12.033 39.683c5.129 16.905-7.522 33.955-25.179 33.955z" fill="#925b46"/><path d="m251.778 403.286h-50.438c17.668 0 30.308-17.05 25.188-33.955l-12.033-39.683h50.427l12.033 39.683c5.131 16.905-7.52 33.955-25.177 33.955z" fill="#865240"/></g><g><path d="m500.381 334.798h-254.867l18.234-60.121c3.358-11.095 13.588-18.677 25.178-18.677l37.14-6 36.311 6h94.593c11.59 0 21.819 7.582 25.178 18.677z" fill="#ffd597"/><path d="m500.381 334.798h-50.427l-18.234-60.121c-3.369-11.095-13.598-18.677-25.188-18.677h50.438c11.59 0 21.819 7.582 25.178 18.677z" fill="#fcc16d"/><path d="m485.671 403.286h-225.435c-17.668 0-30.308-17.05-25.198-33.955l12.033-39.683h251.746l12.032 39.683c5.129 16.905-7.521 33.955-25.178 33.955z" fill="#925b46"/><path d="m485.671 403.286h-50.438c17.668 0 30.308-17.05 25.188-33.955l-12.032-39.683h50.427l12.032 39.683c5.13 16.905-7.52 33.955-25.177 33.955z" fill="#865240"/></g></g><g><path d="m383.424 187.503h-254.846l18.224-60.111c3.358-11.095 13.588-18.677 25.188-18.677h168.033c11.59 0 21.819 7.582 25.178 18.677z" fill="#ffd597"/><path d="m383.424 187.503h-50.427l-18.224-60.111c-3.369-11.095-13.598-18.677-25.188-18.677h50.438c11.59 0 21.819 7.582 25.178 18.677z" fill="#fcc16d"/><path d="m368.724 256h-225.435c-17.668 0-30.308-17.05-25.198-33.955l12.033-39.693h251.746l12.032 39.693c5.13 16.906-7.52 33.955-25.178 33.955z" fill="#925b46"/><path d="m368.724 256h-50.438c17.668 0 30.308-17.06 25.188-33.955l-12.032-39.693h50.427l12.032 39.693c5.131 16.906-7.519 33.955-25.177 33.955z" fill="#865240"/></g></g><g id="XMLID_96_"><path d="m187.411 219.534c-.013 0-.025 0-.038 0l-.106-.001c-4.267-.02-7.71-3.496-7.69-7.763s3.453-7.736 7.763-7.69l.106.001c4.267.02 7.71 3.496 7.69 7.763-.019 4.255-3.475 7.69-7.725 7.69z" fill="#7b4b39"/></g><g id="XMLID_107_"><path d="m215.257 234.871c-.013 0-.025 0-.037 0l-.107-.001c-4.267-.02-7.71-3.495-7.69-7.763.02-4.255 3.476-7.69 7.725-7.69h.037l.107.001c4.267.02 7.71 3.495 7.69 7.763-.02 4.255-3.475 7.69-7.725 7.69z" fill="#7b4b39"/></g><g id="XMLID_108_"><path d="m318.339 214.312h-.107c-4.268 0-7.726-3.459-7.726-7.726s3.459-7.726 7.726-7.726h.107c4.268 0 7.726 3.459 7.726 7.726s-3.458 7.726-7.726 7.726z" fill="#ba7c65"/></g><g id="XMLID_109_"><path d="m427.188 367.829c-.013 0-.025 0-.037 0h-.107c-4.268-.02-7.71-3.495-7.69-7.763.02-4.255 3.476-7.69 7.725-7.69h.037l.107.001c4.268.02 7.71 3.495 7.69 7.763-.02 4.254-3.476 7.689-7.725 7.689z" fill="#865240"/></g><g id="XMLID_110_"><path d="m185.055 367.828h-.107c-4.267 0-7.726-3.459-7.726-7.726s3.459-7.726 7.726-7.726h.107c4.267 0 7.726 3.459 7.726 7.726s-3.459 7.726-7.726 7.726z" fill="#865240"/></g><g id="XMLID_111_"><path d="m151.472 382.225c-.013 0-.025 0-.037 0l-.107-.001c-4.267-.02-7.71-3.495-7.69-7.763.02-4.255 3.476-7.69 7.725-7.69h.037l.107.001c4.267.02 7.71 3.495 7.69 7.763-.02 4.255-3.475 7.69-7.725 7.69z" fill="#ba7c65"/></g><g id="XMLID_112_"><path d="m402.341 377.905h-.107c-4.268 0-7.726-3.459-7.726-7.726s3.459-7.726 7.726-7.726h.107c4.268 0 7.726 3.459 7.726 7.726.001 4.267-3.458 7.726-7.726 7.726z" fill="#865240"/></g><g id="XMLID_113_"><path d="m46.443 367.829c-.013 0-.025 0-.037 0h-.107c-4.267-.02-7.71-3.495-7.69-7.763.02-4.255 3.476-7.69 7.725-7.69h.037l.107.001c4.267.02 7.71 3.495 7.69 7.763-.02 4.254-3.475 7.689-7.725 7.689z" fill="#865240"/></g></g></svg>