<svg id="Capa_1" enable-background="new 0 0 512 512" height="512" viewBox="0 0 512 512" width="512" xmlns="http://www.w3.org/2000/svg"><g><g><circle cx="291.839" cy="137.5" fill="#6bc94d" r="89.644"/><path d="m291.839 0c-75.934 0-137.503 61.555-137.503 137.503 0 75.934 61.569 137.503 137.503 137.503s137.503-61.569 137.503-137.503c0-75.948-61.569-137.503-137.503-137.503zm0 203.747c-36.58 0-66.244-29.664-66.244-66.244 0-36.597 29.664-66.244 66.244-66.244s66.244 29.647 66.244 66.244c0 36.58-29.664 66.244-66.244 66.244z" fill="#99d980"/><path d="m291.839 0c-7.247 0-14.365.557-21.312 1.641 65.82 10.242 116.19 67.161 116.19 135.862 0 68.687-50.371 125.62-116.19 135.862 6.947 1.084 14.065 1.64 21.312 1.64 75.934 0 137.503-61.569 137.503-137.503 0-75.947-61.569-137.502-137.503-137.502z" fill="#83d167"/><path d="m291.839 71.259c-7.364 0-14.435 1.207-21.058 3.432 26.249 8.796 45.169 33.579 45.169 62.812 0 29.216-18.919 54.016-45.169 62.812 6.623 2.225 13.694 3.432 21.058 3.432 36.58 0 66.244-29.664 66.244-66.244 0-36.597-29.664-66.244-66.244-66.244z" fill="#54c032"/></g><g><circle cx="162.798" cy="332.817" fill="#fca62f" r="89.644"/><path d="m162.798 195.318c-75.934 0-137.503 61.555-137.503 137.503 0 75.934 61.569 137.503 137.503 137.503s137.503-61.569 137.503-137.503c0-75.949-61.569-137.503-137.503-137.503zm0 203.746c-36.58 0-66.244-29.664-66.244-66.244 0-36.597 29.664-66.244 66.244-66.244s66.244 29.647 66.244 66.244c0 36.58-29.664 66.244-66.244 66.244z" fill="#fcc16d"/><path d="m162.798 195.318c-7.247 0-14.365.557-21.312 1.641 65.82 10.242 116.19 67.161 116.19 135.862 0 68.687-50.371 125.62-116.19 135.862 6.947 1.084 14.065 1.64 21.312 1.64 75.934 0 137.503-61.569 137.503-137.503 0-75.948-61.569-137.502-137.503-137.502z" fill="#fcb44d"/><path d="m162.798 266.576c-7.364 0-14.435 1.207-21.058 3.432 26.249 8.796 45.169 33.579 45.169 62.812 0 29.216-18.919 54.016-45.169 62.812 6.623 2.225 13.694 3.432 21.058 3.432 36.58 0 66.244-29.664 66.244-66.244 0-36.597-29.664-66.244-66.244-66.244z" fill="#fb9927"/></g><g><circle cx="349.202" cy="374.494" fill="#fb4a59" r="89.644"/><path d="m349.202 236.994c-75.934 0-137.503 61.555-137.503 137.503 0 75.934 61.569 137.503 137.503 137.503s137.503-61.569 137.503-137.503c0-75.948-61.569-137.503-137.503-137.503zm0 203.747c-36.58 0-66.244-29.664-66.244-66.244 0-36.597 29.664-66.244 66.244-66.244s66.244 29.647 66.244 66.244c0 36.58-29.664 66.244-66.244 66.244z" fill="#fb6672"/><path d="m349.202 236.994c-7.247 0-14.365.557-21.312 1.641 65.82 10.242 116.19 67.161 116.19 135.862 0 68.687-50.371 125.62-116.19 135.862 6.947 1.084 14.065 1.64 21.312 1.64 75.934 0 137.503-61.569 137.503-137.503 0-75.947-61.569-137.502-137.503-137.502z" fill="#fb4a59"/><path d="m349.202 308.253c-7.364 0-14.435 1.207-21.058 3.432 26.249 8.796 45.169 33.579 45.169 62.812 0 29.216-18.919 54.016-45.169 62.812 6.623 2.225 13.694 3.432 21.058 3.432 36.58 0 66.244-29.664 66.244-66.244 0-36.597-29.664-66.244-66.244-66.244z" fill="#f82f40"/></g></g></svg>