<svg height="512pt" viewBox="0 -10 512.00003 512" width="512pt" xmlns="http://www.w3.org/2000/svg"><path d="m305.722656 67.496094c-18.960937 0-38.625-7.921875-43.570312-24.929688-1.210938-4.15625 1.179687-8.507812 5.335937-9.714844 4.15625-1.207031 8.507813 1.179688 9.714844 5.335938 2.808594 9.644531 18.800781 15.539062 35.65625 13.132812.933594-.132812 2.195313-.34375 3.65625-.671874-3.351563-2.085938-6.585937-4.605469-9.613281-7.636719-8.371094-8.367188-10.222656-18.816407-4.949219-27.945313 6.464844-11.199218 22.042969-17.546875 34.726563-14.152344 5.441406 1.460938 18.09375 7.023438 18.09375 27.148438 0 5.835938-1.308594 11.257812-3.757813 16.101562 12.019531.199219 21.675781-2.640624 21.855469-2.695312 4.144531-1.25 8.515625 1.082031 9.777344 5.21875 1.257812 4.136719-1.0625 8.507812-5.195313 9.773438-1.164063.359374-19.601563 5.839843-39.644531 2.191406-6.203125 4.085937-13.894532 6.929687-22.738282 8.191406-3.050781.433594-6.191406.652344-9.347656.652344zm23.867188-51.8125c-5.355469 0-11.652344 3.054687-14.0625 7.222656-.71875 1.242188-2.398438 4.160156 2.460937 9.019531 4.726563 4.726563 10.304688 7.75 16.058594 9.609375 2.996094-3.300781 5.050781-7.679687 5.050781-13.472656 0-10.269531-4.871094-11.574219-6.472656-12.003906-.953125-.253906-1.976562-.375-3.035156-.375zm0 0" fill="#75bc83"/><path d="m273.445312 96.539062-17.441406 36.589844-7.609375-16.179687-9.5625-20.316407c7.703125-25.617187 4.367188-53.753906-10.003906-77.207031 9.992187-2.476562 20.339844-4.078125 30.917969-4.753906 5.027344-.324219 10.105468-.441406 15.214844-.347656 8.5 28.136719 7.371093 56.835937-1.515626 82.214843zm0 0" fill="#75bc83"/><path d="m256.003906 103.683594-7.609375 13.265625-9.5625-20.316407c7.703125-25.617187 4.367188-53.753906-10.003906-77.207031 9.992187-2.476562 20.339844-4.078125 30.917969-4.753906 8.382812 28.019531 5.109375 63.738281-3.742188 89.011719zm0 0" fill="#279e5c"/><path d="m366.164062 136.3125c0-86.515625-110.164062-32.628906-110.164062-32.628906s-110.164062-53.886719-110.164062 32.628906" fill="#75bc83"/><path d="m255.632812 103.503906v32.808594h-109.792968c0-83.605469 102.886718-36.089844 109.792968-32.808594zm0 0" fill="#279e5c"/><path d="m512 312.769531c0 99.21875-80.425781 179.644531-179.644531 179.644531-13.097657 0-25.867188-1.402343-38.171875-4.066406h-76.359375c-12.300781 2.664063-25.074219 4.066406-38.179688 4.066406-99.21875 0-179.644531-80.425781-179.644531-179.644531s80.425781-179.644531 179.644531-179.644531c13.105469 0 25.878907 1.398438 38.179688 4.066406h76.359375c12.304687-2.667968 25.074218-4.066406 38.171875-4.066406 99.21875 0 179.644531 80.425781 179.644531 179.644531zm0 0" fill="#f7a35f"/><path d="m258.765625 137.191406v351.15625h-40.941406c-12.300781 2.664063-25.074219 4.066406-38.179688 4.066406-99.21875 0-179.644531-80.425781-179.644531-179.644531s80.425781-179.644531 179.644531-179.644531c13.105469 0 25.878907 1.398438 38.179688 4.066406zm0 0" fill="#f4702f"/><path d="m410.5625 312.769531c0 99.214844-80.429688 179.644531-179.644531 179.644531-99.214844 0-179.644531-80.429687-179.644531-179.644531 0-99.214843 80.429687-179.644531 179.644531-179.644531 99.214843 0 179.644531 80.429688 179.644531 179.644531zm0 0" fill="#f7a35f"/><path d="m435.644531 312.769531c0 99.214844-80.429687 179.644531-179.640625 179.644531-99.214844 0-179.644531-80.429687-179.644531-179.644531 0-99.214843 80.429687-179.644531 179.644531-179.644531 99.210938 0 179.640625 80.429688 179.640625 179.644531zm0 0" fill="#f7a35f"/><path d="m254.632812 492.402344c-98.589843-.730469-178.273437-80.875-178.273437-179.632813 0-98.757812 79.683594-178.902343 178.273437-179.636719-57.890624 1.246094-104.601562 81.191407-104.601562 179.636719 0 98.445313 46.710938 178.390625 104.601562 179.632813zm0 0" fill="#f4702f"/><path d="m457.941406 312.765625c0 99.21875-80.425781 179.644531-179.644531 179.644531-3.730469 0-7.429687-.117187-11.101563-.347656 93.996094-5.777344 168.453126-83.84375 168.453126-179.296875 0-95.46875-74.480469-173.53125-168.492188-179.289063 3.6875-.230468 7.398438-.347656 11.140625-.347656 99.21875 0 179.644531 80.425782 179.644531 179.636719zm0 0" fill="#f4702f"/><path d="m273.304688 326.019531c-11.148438 4.191407-23.460938 4.191407-34.605469 0-5.125-1.925781-10.894531-.015625-13.757813 4.652344-.039062.0625-.078125.128906-.117187.195313-3.683594 6.011718-1.078125 13.964843 5.507812 16.476562 16.519531 6.296875 34.820313 6.296875 51.339844 0 6.585937-2.511719 9.191406-10.464844 5.507813-16.476562-.039063-.066407-.078126-.132813-.121094-.195313-2.859375-4.667969-8.628906-6.578125-13.753906-4.652344zm0 0" fill="#2a2d49"/><path d="m330.636719 329.164062c5.949219-6.382812 13.550781-11.390624 22.4375-14.265624 8.886719-2.878907 17.980469-3.273438 26.539062-1.589844 12.707031-13.632813 17.847657-33.5625 11.699219-52.550782-9.023438-27.875-38.9375-43.160156-66.8125-34.136718-27.878906 9.023437-43.160156 38.9375-34.136719 66.816406 6.144531 18.988281 21.988281 32.125 40.273438 35.726562zm0 0" fill="#fff"/><path d="m182.390625 329.164062c-5.949219-6.382812-13.546875-11.390624-22.4375-14.265624-8.886719-2.878907-17.980469-3.273438-26.539063-1.589844-12.707031-13.632813-17.847656-33.5625-11.699218-52.550782 9.023437-27.875 38.9375-43.160156 66.816406-34.136718 27.875 9.023437 43.160156 38.9375 34.136719 66.816406-6.148438 18.988281-21.988281 32.125-40.277344 35.726562zm0 0" fill="#fff"/><path d="m357.75 277.257812c0 9.90625-8.03125 17.9375-17.9375 17.9375s-17.9375-8.03125-17.9375-17.9375 8.03125-17.9375 17.9375-17.9375 17.9375 8.03125 17.9375 17.9375zm0 0" fill="#2a2d49"/><path d="m190.128906 277.257812c0 9.90625-8.03125 17.9375-17.9375 17.9375s-17.9375-8.03125-17.9375-17.9375 8.03125-17.9375 17.9375-17.9375 17.9375 8.03125 17.9375 17.9375zm0 0" fill="#2a2d49"/><g fill="#f96eb3"><path d="m390.828125 359.382812c0-9.234374-13.101563-16.722656-29.261719-16.722656-16.164062 0-29.265625 7.488282-29.265625 16.722656 0 9.238282 13.101563 16.722657 29.265625 16.722657 16.160156 0 29.261719-7.484375 29.261719-16.722657zm0 0"/><path d="m179.703125 359.382812c0-9.234374-13.101563-16.722656-29.265625-16.722656-16.160156 0-29.261719 7.488282-29.261719 16.722656 0 9.238282 13.101563 16.722657 29.261719 16.722657 16.164062 0 29.265625-7.484375 29.265625-16.722657zm0 0"/></g></svg>