<svg height="511pt" viewBox="0 -21 511.99964 511" width="511pt" xmlns="http://www.w3.org/2000/svg"><path d="m416.15625 469.292969h-320.3125c-65.191406 0-108.75-62.453125-92.386719-121.039063 2.128907-7.617187 5.265625-15.160156 9.507813-22.507812l108.90625-188.632813 51.253906-88.761719c36.832031-63.800781 128.917969-63.800781 165.75 0l51.25 88.761719 108.910156 188.632813c4.230469 7.335937 7.375 14.890625 9.507813 22.507812 16.363281 58.585938-27.1875 121.039063-92.386719 121.039063zm0 0" fill="#ffc45a"/><path d="m254.992188.515625c-21.234376.492187-42.328126 16.4375-54.472657 47.835937l-34.300781 88.761719-72.902344 188.632813c-2.84375 7.347656-4.941406 14.890625-6.375 22.507812-10.949218 58.585938 18.214844 121.039063 61.847656 121.039063h-52.945312c-65.191406 0-108.75-62.453125-92.386719-121.039063 2.128907-7.617187 5.265625-15.160156 9.507813-22.507812l108.90625-188.632813 51.253906-88.761719c18.222656-31.566406 49.976562-47.511718 81.867188-47.835937zm0 0" fill="#ff9227"/><path d="m319.328125 227.863281c0 17.890625-7.417969 34.054688-19.363281 45.574219-11.386719-11-26.890625-17.769531-43.96875-17.769531-17.082032 0-32.582032 6.769531-43.96875 17.769531-11.933594-11.519531-19.351563-27.683594-19.351563-45.574219 0-34.980469 28.347657-63.332031 63.320313-63.332031 34.980468 0 63.332031 28.351562 63.332031 63.332031zm0 0" fill="#fff"/><path d="m274.808594 222.523438c0 10.386718-8.421875 18.804687-18.808594 18.804687s-18.804688-8.417969-18.804688-18.804687c0-10.386719 8.417969-18.808594 18.804688-18.808594s18.808594 8.421875 18.808594 18.808594zm0 0" fill="#2a2d49"/><path d="m390.125 137.113281h-268.253906l51.253906-88.761719c18.160156-31.472656 49.777344-47.417968 81.574219-47.835937h.292969c32.558593-.34375 65.273437 15.601563 83.882812 47.835937zm0 0" fill="#e7e8f0"/><path d="m416.15625 469.292969h-320.3125c-65.191406 0-108.75-62.453125-92.386719-121.039063h505.085938c16.363281 58.585938-27.1875 121.039063-92.386719 121.039063zm0 0" fill="#f96eb3"/><path d="m148.789062 469.292969h-52.945312c-65.191406 0-108.75-62.453125-92.386719-121.039063h83.484375c-10.949218 58.585938 18.214844 121.039063 61.847656 121.039063zm0 0" fill="#d83a6f"/><path d="m254.992188.515625c-21.234376.492187-42.328126 16.4375-54.472657 47.835937l-34.300781 88.761719h-44.347656l51.253906-88.761719c18.160156-31.472656 49.777344-47.417968 81.574219-47.835937zm0 0" fill="#cabfde"/><path d="m256.003906 324.835938c-23.511718 0-47.019531-5.671876-68.449218-17.019532-3.824219-2.023437-5.285157-6.765625-3.257813-10.59375 2.027344-3.824218 6.765625-5.28125 10.59375-3.257812 38.269531 20.261718 83.957031 20.261718 122.222656 0 3.828125-2.027344 8.570313-.566406 10.59375 3.257812 2.027344 3.828125.566407 8.566406-3.257812 10.59375-21.429688 11.347656-44.9375 17.019532-68.445313 17.019532zm0 0" fill="#f96eb3"/></svg>