<svg height="512pt" viewBox="-4 0 512 512" width="512pt" xmlns="http://www.w3.org/2000/svg"><path d="m69.058594 343.367188c-38.140625 0-69.058594-30.917969-69.058594-69.058594s30.917969-69.0625 69.058594-69.0625h366.367187c38.140625 0 69.0625 30.921875 69.0625 69.0625s-30.921875 69.058594-69.0625 69.058594" fill="#ffc0ad"/><path d="m435.425781 293.742188c-4.332031 0-7.84375-3.511719-7.84375-7.84375 0-23.476563 11.609375-31.792969 18.53125-34.65625 10.914063-4.519532 24.816407-1.402344 33.804688 7.585937 3.0625 3.0625 3.0625 8.03125 0 11.09375-3.066407 3.066406-8.03125 3.066406-11.09375 0-4.550781-4.550781-11.574219-6.308594-16.703125-4.183594-5.707032 2.363281-8.847656 9.519531-8.847656 20.160157 0 4.332031-3.511719 7.84375-7.847657 7.84375zm0 0" fill="#ef9f87"/><path d="m69.058594 293.742188c-4.332032 0-7.84375-3.511719-7.84375-7.84375 0-10.640626-3.140625-17.796876-8.847656-20.160157-5.125-2.125-12.152344-.367187-16.703126 4.183594-3.0625 3.066406-8.03125 3.066406-11.09375 0-3.066406-3.0625-3.066406-8.03125 0-11.09375 8.988282-8.988281 22.886719-12.109375 33.804688-7.585937 6.917969 2.867187 18.53125 11.179687 18.53125 34.65625 0 4.332031-3.511719 7.84375-7.847656 7.84375zm0 0" fill="#ef9f87"/><path d="m435.429688 127.078125v199.984375c0 20.21875-3.246094 39.730469-9.25 58.003906-1.765626 5.386719-3.777344 10.660156-6.003907 15.816406-28.234375 65.132813-92.609375 111.074219-167.84375 111.117188-26.113281.011719-50.945312-5.441406-73.425781-15.273438h-.011719c-5.734375-2.511718-11.320312-5.304687-16.726562-8.367187-32.648438-18.464844-59.0625-46.679687-75.296875-80.664063-2.417969-5.0625-4.613282-10.253906-6.570313-15.558593-7.269531-19.726563-11.234375-41.058594-11.234375-63.316407v-201.742187c0-10.167969 1.191406-20.0625 3.460938-29.539063 1.234375-5.230468 2.804687-10.335937 4.6875-15.296874 18.117187-48.054688 64.53125-82.242188 118.929687-82.242188h112.203125c28.359375 0 54.542969 9.289062 75.6875 24.992188 4.914063 3.648437 9.558594 7.644531 13.890625 11.957031 21.414063 21.277343 35.285157 50.136719 37.25 82.222656.167969 2.613281.253907 5.25.253907 7.90625zm0 0" fill="#e7e8f0"/><path d="m250.839844 511.992188c-100.53125-.746094-181.78125-82.476563-181.78125-183.171876v-201.742187c0-70.179687 56.886718-127.078125 127.070312-127.078125h23.109375c-41.28125 0-74.753906 56.898438-74.753906 127.078125v201.742187c0 100.371094 47.480469 181.894532 106.355469 183.171876zm0 0" fill="#cabfde"/><path d="m435.429688 205.242188v92.683593l-290.898438 36.082031-74.890625 9.289063-.574219.074219v-164.195313l75.421875 5.367188zm0 0" fill="#ffe8d0"/><path d="m435.429688 283.0625v14.863281l-290.898438 36.082031-74.890625 9.289063-.574219.074219v-14.550782zm0 0" fill="#ffc0ad"/><path d="m144.53125 334.007812-74.890625 9.289063c-.386719-4.78125-.578125-9.601563-.578125-14.476563v-149.644531l75.425781 5.367188v144.277343c0 1.734376.007813 3.460938.042969 5.1875zm0 0" fill="#ffc0ad"/><path d="m226.707031 270.007812c0 30.371094-24.621093 54.992188-54.996093 54.992188-30.371094 0-54.992188-24.621094-54.992188-54.992188 0-30.375 24.621094-54.996093 54.992188-54.996093 30.375 0 54.996093 24.621093 54.996093 54.996093zm0 0" fill="#fff"/><path d="m377.441406 305.113281v.011719l-16.128906 1.996094c-2.722656.128906-5.460938.460937-8.203125 1.015625l-52.890625 6.558593c-8.953125-6.695312-16.003906-16.128906-19.707031-27.585937-9.542969-29.46875 6.609375-61.089844 36.078125-70.628906 29.46875-9.542969 61.09375 6.621093 70.621094 36.078125 6.070312 18.726562 1.75 38.316406-9.769532 52.554687zm0 0" fill="#fff"/><path d="m351.738281 270.007812c0 10.46875-8.488281 18.957032-18.960937 18.957032s-18.960938-8.488282-18.960938-18.957032c0-10.472656 8.488282-18.960937 18.960938-18.960937s18.960937 8.488281 18.960937 18.960937zm0 0" fill="#2a2d49"/><path d="m190.671875 270.007812c0 10.46875-8.488281 18.957032-18.960937 18.957032-10.46875 0-18.960938-8.488282-18.960938-18.957032 0-10.472656 8.492188-18.960937 18.960938-18.960937 10.472656 0 18.960937 8.488281 18.960937 18.960937zm0 0" fill="#2a2d49"/><g fill="#cabfde"><path d="m435.429688 127.078125v7.890625l-362.902344-37.429688c1.234375-5.230468 2.804687-10.335937 4.6875-15.296874l100.351562 10.347656 206.46875-67.597656c4.914063 3.648437 9.558594 7.644531 13.890625 11.957031l-182.019531 59.605469 219.269531 22.617187c.167969 2.613281.253907 5.25.253907 7.90625zm0 0"/><path d="m426.179688 385.066406c-1.765626 5.386719-3.777344 10.660156-6.003907 15.816406l-80.882812 1.652344-160.386719 94.191406h-.011719c-5.734375-2.511718-11.320312-5.304687-16.726562-8.367187l145.019531-85.164063-220.316406 4.5c-2.417969-5.0625-4.613282-10.253906-6.570313-15.558593l256.5-5.25h.03125zm0 0"/></g></svg>