<svg height="512pt" viewBox="0 0 512.00002 512" width="512pt" xmlns="http://www.w3.org/2000/svg"><path d="m512 77.058594v121.207031c0 16.742187-1.523438 32.617187-4.273438 46.8125h-503.453124c-2.75-14.195313-4.273438-30.070313-4.273438-46.8125v-121.207031c0-42.558594 34.496094-77.058594 77.058594-77.058594h54.65625c29.960937 0 55.925781 17.097656 68.667968 42.070312h111.234376c12.742187-24.972656 38.707031-42.070312 68.667968-42.070312h54.65625c42.5625 0 77.058594 34.5 77.058594 77.058594zm0 0" fill="#75bc83"/><path d="m365.144531 97.4375c12.980469 45.160156-112.789062 3.132812-112.789062 3.132812l31.257812-58.5h28.003907c12.742187-24.972656 38.707031-42.070312 68.667968-42.070312h27.15625c-27.15625 0-55.28125 52.273438-42.296875 97.4375zm0 0" fill="#279e5c"/><path d="m59.53125 77.058594v121.207031c0 16.742187 1.527344 32.617187 4.273438 46.808594h-59.53125c-2.75-14.191407-4.273438-30.066407-4.273438-46.808594v-121.207031c0-42.5625 34.496094-77.058594 77.058594-77.058594h54.65625c.8125 0 1.617187.0117188 2.421875.0429688-41.421875 1.2929692-74.605469 35.2812502-74.605469 77.0156252zm0 0" fill="#279e5c"/><path d="m73.109375 322.226562c-38.082031 0-68.953125-30.871093-68.953125-68.953124 0-38.078126 30.871094-68.949219 68.953125-68.949219h365.78125c38.082031 0 68.953125 30.871093 68.953125 68.949219 0 38.082031-30.871094 68.953124-68.953125 68.953124" fill="#ffc0ad"/><path d="m438.890625 272.675781c-4.324219 0-7.832031-3.503906-7.832031-7.832031 0-23.4375 11.59375-31.738281 18.503906-34.601562 10.898438-4.515626 24.773438-1.398438 33.75 7.574218 3.058594 3.058594 3.058594 8.019532 0 11.078125-3.058594 3.058594-8.019531 3.058594-11.078125 0-4.542969-4.542969-11.554687-6.300781-16.675781-4.179687-5.695313 2.359375-8.832032 9.507812-8.832032 20.128906 0 4.328125-3.507812 7.832031-7.835937 7.832031zm0 0" fill="#ef9f87"/><path d="m73.109375 272.675781c-4.328125 0-7.835937-3.503906-7.835937-7.832031 0-10.621094-3.136719-17.769531-8.832032-20.128906-5.117187-2.117188-12.132812-.363282-16.675781 4.179687-3.058594 3.058594-8.019531 3.058594-11.078125 0-3.058594-3.058593-3.058594-8.019531 0-11.078125 8.976562-8.972656 22.851562-12.089844 33.75-7.574218 6.910156 2.863281 18.503906 11.164062 18.503906 34.601562 0 4.328125-3.507812 7.832031-7.832031 7.832031zm0 0" fill="#ef9f87"/><path d="m438.890625 168.949219v157.882812c0 101.261719-81.542969 184.597657-182.804687 184.648438-101.046876.050781-182.976563-81.859375-182.976563-182.894531v-159.636719c0-70.070313 56.804687-126.875 126.875-126.875h112.03125c70.070313 0 126.875 56.804687 126.875 126.875zm0 0" fill="#ffe8d0"/><path d="m254.597656 511.46875c-100.367187-.742188-181.488281-82.34375-181.488281-182.878906v-159.640625c0-70.070313 56.792969-126.875 126.867187-126.875h23.070313c-41.214844 0-74.636719 56.804687-74.636719 126.875v159.640625c0 100.210937 47.40625 181.605468 106.1875 182.878906zm0 0" fill="#ffc0ad"/><g fill="#fff"><path d="m291.132812 394.648438c10.144532 2.558593 20.054688 6.246093 29.539063 11.082031 18.402344 9.371093 22.558594 33.871093 8.417969 48.933593l-.335938.355469c-9.535156 10.148438-24.5625 12.53125-37.023437 6.296875-11.207031-5.609375-23.46875-8.417968-35.730469-8.417968s-24.523438 2.808593-35.71875 8.417968c-12.460938 6.234375-27.5 3.851563-37.035156-6.296875l-.324219-.355469c-14.140625-15.050781-9.996094-39.5625 8.417969-48.933593 9.484375-4.824219 19.394531-8.523438 29.535156-11.082031"/><path d="m326.722656 335.089844c6.277344-6.734375 14.296875-12.019532 23.679688-15.054688 9.378906-3.035156 18.972656-3.457031 28.007812-1.675781 13.410156-14.390625 18.835938-35.417969 12.347656-55.460937-9.523437-29.417969-41.09375-45.546876-70.515624-36.027344-29.417969 9.523437-45.546876 41.097656-36.023438 70.515625 6.488281 20.039062 23.207031 33.902343 42.503906 37.703125zm0 0"/><path d="m185.28125 335.089844c-6.277344-6.734375-14.300781-12.019532-23.679688-15.054688-9.378906-3.035156-18.976562-3.457031-28.007812-1.675781-13.414062-14.390625-18.835938-35.417969-12.351562-55.460937 9.523437-29.417969 41.09375-45.546876 70.515624-36.027344 29.421876 9.523437 45.550782 41.097656 36.027344 70.515625-6.488281 20.039062-23.207031 33.902343-42.503906 37.703125zm0 0"/></g><path d="m355.335938 280.3125c0 10.457031-8.476563 18.933594-18.929688 18.933594-10.457031 0-18.929688-8.476563-18.929688-18.933594 0-10.453125 8.472657-18.929688 18.929688-18.929688 10.453125 0 18.929688 8.476563 18.929688 18.929688zm0 0" fill="#474d6b"/><path d="m194.527344 280.3125c0 10.457031-8.476563 18.933594-18.929688 18.933594-10.457031 0-18.929687-8.476563-18.929687-18.933594 0-10.453125 8.472656-18.929688 18.929687-18.929688 10.453125 0 18.929688 8.476563 18.929688 18.929688zm0 0" fill="#474d6b"/><path d="m316.378906 345.535156c0 33.34375-27.03125 60.378906-60.378906 60.378906-33.34375 0-60.375-27.035156-60.375-60.378906s27.03125-60.375 60.375-60.375c33.347656 0 60.378906 27.03125 60.378906 60.375zm0 0" fill="#f96eb3"/><path d="m237.402344 345.535156c0-26 16.4375-48.160156 39.488281-56.660156-6.511719-2.402344-13.546875-3.714844-20.890625-3.714844-33.34375 0-60.375 27.03125-60.375 60.375 0 33.347656 27.03125 60.378906 60.375 60.378906 7.34375 0 14.378906-1.316406 20.890625-3.71875-23.050781-8.496093-39.488281-30.65625-39.488281-56.660156zm0 0" fill="#d83a6f"/><path d="m405.355469 371.445312c0-9.230468-13.09375-16.710937-29.246094-16.710937-16.148437 0-29.242187 7.480469-29.242187 16.710937 0 9.226563 13.09375 16.710938 29.242187 16.710938 16.152344 0 29.246094-7.484375 29.246094-16.710938zm0 0" fill="#f96eb3"/><path d="m165.136719 371.445312c0-9.230468-13.09375-16.710937-29.246094-16.710937-16.148437 0-29.242187 7.480469-29.242187 16.710937 0 9.226563 13.09375 16.710938 29.242187 16.710938 16.152344 0 29.246094-7.484375 29.246094-16.710938zm0 0" fill="#f96eb3"/><path d="m377.789062 181.1875c-4.957031 2.003906-10.675781 2.113281-15.988281-.140625-16.433593-6.976563-35.476562.71875-42.457031 17.148437-4.507812 10.621094-16.773438 15.574219-27.390625 11.0625-10.617187-4.507812-15.570313-16.769531-11.0625-27.390624 15.980469-37.632813 59.601563-55.253907 97.238281-39.273438 10.617188 4.507812 15.574219 16.773438 11.0625 27.390625-2.253906 5.308594-6.445312 9.203125-11.402344 11.203125zm0 0" fill="#fff"/><path d="m134.214844 181.1875c4.957031 2.003906 10.675781 2.113281 15.984375-.140625 16.433593-6.976563 35.480469.71875 42.457031 17.148437 4.511719 10.621094 16.773438 15.574219 27.390625 11.0625 10.621094-4.507812 15.574219-16.769531 11.0625-27.390624-15.980469-37.632813-59.601563-55.253907-97.238281-39.273438-10.617188 4.507812-15.570313 16.773438-11.0625 27.390625 2.253906 5.308594 6.449218 9.203125 11.40625 11.203125zm0 0" fill="#fff"/><path d="m311.410156 444.15625c-1.328125 0-2.675781-.335938-3.910156-1.050781-31.765625-18.332031-71.234375-18.332031-103.003906 0-3.746094 2.164062-8.535156.878906-10.699219-2.867188-2.160156-3.746093-.878906-8.539062 2.871094-10.699219 36.597656-21.121093 82.066406-21.121093 118.664062 0 3.746094 2.160157 5.03125 6.949219 2.871094 10.699219-1.453125 2.511719-4.085937 3.917969-6.792969 3.917969zm0 0" fill="#f96eb3"/></svg>