<svg height="512pt" viewBox="-46 0 512 512.00001" width="512pt" xmlns="http://www.w3.org/2000/svg"><path d="m419.222656 372.625c0 24.914062-20.195312 45.113281-45.113281 45.113281h-35.523437c-19.832032 0-36.15625 15.945313-36.21875 35.777344v33.140625c-5.808594 3.460938-11.8125 6.601562-18.007813 9.40625v-43.3125c0-4.332031-3.515625-7.847656-7.847656-7.847656-4.34375 0-7.851563 3.515625-7.851563 7.847656v49.558594c-5.554687 1.917968-11.238281 3.570312-17.023437 4.941406v-45.699219c0-4.332031-3.515625-7.847656-7.847657-7.847656-4.34375 0-7.847656 3.515625-7.847656 7.847656v48.710938c-6.039062.878906-12.171875 1.464843-18.398437 1.726562v-43.195312c0-4.332031-3.515625-7.847657-7.847657-7.847657-4.34375 0-7.847656 3.515626-7.847656 7.847657v43.207031c-6.214844-.25-12.359375-.816406-18.398437-1.683594v-48.765625c0-4.332031-3.515625-7.847656-7.847657-7.847656-.335937 0-.660156.019531-.972656.0625-3.882812.472656-6.875 3.777344-6.875 7.785156v45.804688c-5.785156-1.339844-11.46875-2.972657-17.023437-4.867188v-49.738281c0-4.332031-3.519531-7.847656-7.851563-7.847656-4.339844 0-7.847656 3.515625-7.847656 7.847656v43.59375c-6.257812-2.78125-12.328125-5.910156-18.1875-9.363281v-33.464844c-.0625-19.832031-16.386719-35.777344-36.214844-35.777344h-35.515625c-12.453125 0-23.734375-5.054687-31.898437-13.21875-8.160156-8.160156-13.214844-19.441406-13.214844-31.894531 0-18.238281 10.832031-33.9375 26.390625-41.050781-.011719-.878907-.019531-1.769531-.019531-2.648438v-201.804687c0-70.207032 56.914062-127.121094 127.121094-127.121094h112.238281c70.207031 0 127.121093 56.914062 127.121093 127.121094v200.046875c0 1.476562-.019531 2.929687-.0625 4.394531 7.796876 3.558594 14.410157 9.25 19.066407 16.355469 4.65625 7.097656 7.367187 15.582031 7.367187 24.707031zm0 0" fill="#e7e8f0"/><path d="m174.628906 428.796875v24.96875c-3.882812.472656-6.875 3.777344-6.875 7.785156v45.804688c-5.785156-1.339844-11.46875-2.972657-17.023437-4.867188v-49.738281c0-4.332031-3.519531-7.847656-7.851563-7.847656-4.339844 0-7.847656 3.515625-7.847656 7.847656v43.59375c-6.257812-2.78125-12.328125-5.910156-18.1875-9.363281v-33.464844c-.0625-19.832031-16.386719-35.777344-36.214844-35.777344h-35.515625c-12.453125 0-23.734375-5.054687-31.898437-13.21875-8.160156-8.160156-13.214844-19.441406-13.214844-31.894531 0-18.238281 10.832031-33.9375 26.390625-41.050781-.011719-.878907-.019531-1.769531-.019531-2.648438v-201.804687c0-70.207032 56.914062-127.121094 127.121094-127.121094h54.089843c-54.089843 0-94.167969 110.179688-94.167969 168.246094 0 0-38.824218 28.828125-38.824218 84.394531 70.144531 7.910156 64.15625 72.328125 64.15625 72.328125s-66.144532-4.394531-66.144532 44.183594c0 48.585937 102.027344 59.644531 102.027344 59.644531zm0 0" fill="#cabfde"/><path d="m209.609375 391.128906s5.824219 20.78125 25.113281 14.128906c45.515625-15.695312-25.113281-83.1875-25.113281-83.1875s-70.632813 67.492188-25.113281 83.1875c19.289062 6.652344 25.113281-14.128906 25.113281-14.128906zm0 0" fill="#2a2d49"/><path d="m392.851562 188.011719v41.09375c-3.984374-25.585938-15.707031-36.5625-28.878906-48.886719-18.28125-17.101562-38.992187-36.492188-38.992187-95.152344 0-4.332031 3.507812-7.851562 7.847656-7.851562 4.332031 0 7.847656 3.519531 7.847656 7.851562 0 51.847656 16.523438 67.316406 34.019531 83.691406 6.269532 5.859376 12.613282 11.792969 18.15625 19.253907zm0 0" fill="#cabfde"/><path d="m94.242188 85.066406c0 58.660156-20.71875 78.050782-39 95.152344-13.15625 12.316406-24.863282 23.28125-28.871094 48.824219v-41.039063c5.546875-7.453125 11.886718-13.386718 18.144531-19.246094 17.507813-16.375 34.03125-31.84375 34.03125-83.691406 0-4.332031 3.515625-7.851562 7.847656-7.851562s7.847657 3.519531 7.847657 7.851562zm0 0" fill="#f2f2f2"/><g fill="#2a2d49"><path d="m280.464844 324.976562c6.289062-6.746093 14.324218-12.042968 23.722656-15.085937 9.398438-3.039063 19.011719-3.460937 28.0625-1.675781 13.4375-14.417969 18.871094-35.488282 12.371094-55.566406-9.539063-29.476563-41.171875-45.636719-70.648438-36.097657-29.476562 9.542969-45.636718 41.171875-36.097656 70.652344 6.5 20.078125 23.253906 33.964844 42.589844 37.773437zm0 0"/><path d="m138.75 324.976562c-6.289062-6.746093-14.328125-12.042968-23.726562-15.085937-9.394532-3.039063-19.011719-3.460937-28.0625-1.675781-13.4375-14.417969-18.871094-35.488282-12.371094-55.566406 9.542968-29.476563 41.171875-45.636719 70.648437-36.097657 29.480469 9.542969 45.640625 41.171875 36.097657 70.652344-6.5 20.078125-23.253907 33.964844-42.585938 37.773437zm0 0"/></g></svg>