<svg height="511pt" viewBox="-45 1 511 511.99998" width="511pt" xmlns="http://www.w3.org/2000/svg"><path d="m327.394531 62.503906c0 27.460938-17.71875 50.792969-42.339843 59.179688-6.324219 2.160156-13.105469 3.324218-20.164063 3.324218-34.527344 0-62.503906-27.984374-62.503906-62.503906 0-34.519531 27.976562-62.503906 62.503906-62.503906 7.058594 0 13.839844 1.164062 20.164063 3.324219 24.621093 8.386719 42.339843 31.71875 42.339843 59.179687zm0 0" fill="#d83a6f"/><path d="m218.691406 62.503906c0 27.460938-17.71875 50.792969-42.339844 59.179688-6.324218 2.160156-13.105468 3.324218-20.164062 3.324218-34.527344 0-62.503906-27.984374-62.503906-62.503906 0-34.519531 27.976562-62.503906 62.503906-62.503906 7.054688 0 13.839844 1.164062 20.164062 3.324219 24.621094 8.386719 42.339844 31.71875 42.339844 59.179687zm0 0" fill="#279e5c"/><path d="m218.691406 62.503906c0 27.460938-17.71875 50.792969-42.339844 59.179688-24.628906-8.378906-42.351562-31.707032-42.351562-59.179688s17.722656-50.800781 42.351562-59.179687c24.621094 8.386719 42.339844 31.71875 42.339844 59.179687zm0 0" fill="#75bc83"/><path d="m327.394531 62.503906c0 27.460938-17.71875 50.792969-42.339843 59.179688-24.628907-8.378906-42.351563-31.707032-42.351563-59.179688s17.722656-50.800781 42.351563-59.179687c24.621093 8.386719 42.339843 31.71875 42.339843 59.179687zm0 0" fill="#f96eb3"/><path d="m273.039062 145.390625c0 27.460937-17.722656 50.792969-42.339843 59.179687-6.324219 2.160157-13.109375 3.324219-20.164063 3.324219-34.53125 0-62.503906-27.984375-62.503906-62.503906s27.972656-62.503906 62.503906-62.503906c7.054688 0 13.839844 1.164062 20.164063 3.324219 24.617187 8.386718 42.339843 31.71875 42.339843 59.179687zm0 0" fill="#ff9227"/><path d="m164.335938 145.390625c0 27.460937-17.722657 50.792969-42.339844 59.179687-6.324219 2.160157-13.109375 3.324219-20.164063 3.324219-34.53125 0-62.503906-27.984375-62.503906-62.503906s27.972656-62.503906 62.503906-62.503906c7.054688 0 13.839844 1.164062 20.164063 3.324219 24.617187 8.386718 42.339844 31.71875 42.339844 59.179687zm0 0" fill="#d83a6f"/><path d="m381.753906 145.390625c0 27.460937-17.722656 50.792969-42.34375 59.179687-6.320312 2.160157-13.105468 3.324219-20.164062 3.324219-34.527344 0-62.503906-27.984375-62.503906-62.503906s27.976562-62.503906 62.503906-62.503906c7.058594 0 13.84375 1.164062 20.164062 3.324219 24.621094 8.386718 42.34375 31.71875 42.34375 59.179687zm0 0" fill="#44347c"/><path d="m381.753906 145.390625c0 27.460937-17.722656 50.792969-42.34375 59.179687-24.628906-8.378906-42.347656-31.707031-42.347656-59.179687s17.71875-50.800781 42.347656-59.179687c24.621094 8.386718 42.34375 31.71875 42.34375 59.179687zm0 0" fill="#655c96"/><path d="m164.335938 145.390625c0 27.460937-17.722657 50.792969-42.339844 59.179687-24.632813-8.378906-42.351563-31.707031-42.351563-59.179687s17.71875-50.800781 42.351563-59.179687c24.617187 8.386718 42.339844 31.71875 42.339844 59.179687zm0 0" fill="#f96eb3"/><path d="m273.039062 145.390625c0 27.460937-17.722656 50.792969-42.339843 59.179687-24.632813-8.378906-42.351563-31.707031-42.351563-59.179687s17.71875-50.800781 42.351563-59.179687c24.617187 8.386718 42.339843 31.71875 42.339843 59.179687zm0 0" fill="#ffc45a"/><path d="m420.570312 372.34375c0 24.964844-20.238281 45.203125-45.203124 45.203125h-35.597657c-19.871093 0-36.226562 15.980469-36.289062 35.851563v33.207031c-5.820313 3.46875-11.839844 6.613281-18.046875 9.425781v-43.398438c0-4.34375-3.523438-7.867187-7.863282-7.867187-4.351562 0-7.867187 3.523437-7.867187 7.867187v49.65625c-5.566406 1.921876-11.257813 3.578126-17.058594 4.949219v-45.789062c0-4.339844-3.523437-7.863281-7.863281-7.863281-4.351562 0-7.863281 3.523437-7.863281 7.863281v48.808593c-6.050781.882813-12.195313 1.46875-18.433594 1.730469v-43.28125c0-4.34375-3.523437-7.867187-7.867187-7.867187-4.347657 0-7.863282 3.523437-7.863282 7.867187v43.292969c-6.226562-.25-12.382812-.816406-18.433594-1.6875v-48.863281c0-4.339844-3.523437-7.863281-7.863281-7.863281-.335937 0-.660156.019531-.976562.0625-3.886719.472656-6.886719 3.785156-6.886719 7.800781v45.894531c-5.800781-1.339844-11.492188-2.976562-17.058594-4.875v-49.835938c0-4.34375-3.523437-7.867187-7.867187-7.867187-4.351563 0-7.863281 3.523437-7.863281 7.867187v43.679688c-6.269532-2.789062-12.351563-5.921875-18.222657-9.382812v-33.53125c-.0625-19.871094-16.421875-35.851563-36.292969-35.851563h-35.585937c-12.476563 0-23.78125-5.066406-31.960937-13.242187-8.175782-8.179688-13.242188-19.484376-13.242188-31.960938 0-18.277344 10.851562-34.003906 26.445312-41.136719-.011718-.878906-.023437-1.769531-.023437-2.652343v-157.636719h367.226563v155.875c0 1.480469-.023438 2.9375-.0625 4.40625 7.808593 3.5625 14.4375 9.269531 19.101562 16.386719 4.667969 7.109374 7.382812 15.613281 7.382812 24.757812zm0 0" fill="#e7e8f0"/><path d="m175.480469 428.628906v25.019532c-3.886719.472656-6.886719 3.785156-6.886719 7.800781v45.894531c-5.800781-1.339844-11.492188-2.976562-17.058594-4.875v-49.835938c0-4.34375-3.523437-7.867187-7.867187-7.867187-4.351563 0-7.863281 3.523437-7.863281 7.867187v43.679688c-6.269532-2.789062-12.351563-5.921875-18.222657-9.382812v-33.53125c-.0625-19.871094-16.421875-35.851563-36.292969-35.851563h-35.585937c-12.476563 0-23.78125-5.066406-31.960937-13.242187-8.175782-8.179688-13.242188-19.484376-13.242188-31.960938 0-18.277344 10.851562-34.003906 26.445312-41.136719-.011718-.878906-.023437-1.769531-.023437-2.652343v-157.636719h83.265625c-9.886719 9.089843-34.945312 36.507812-34.945312 81.199219 70.28125 7.925781 64.285156 72.476562 64.285156 72.476562s-66.277344-4.40625-66.277344 44.269531c0 48.683594 102.230469 59.765625 102.230469 59.765625zm0 0" fill="#cabfde"/><path d="m210.535156 389.855469s5.835938 20.820312 25.164063 14.152343c45.609375-15.726562-25.164063-83.355468-25.164063-83.355468s-70.773437 67.628906-25.164062 83.355468c19.328125 6.667969 25.164062-14.152343 25.164062-14.152343zm0 0" fill="#2a2d49"/><path d="m281.535156 323.566406c6.300782-6.761718 14.355469-12.066406 23.769532-15.117187 9.417968-3.046875 19.054687-3.464844 28.121093-1.679688 13.464844-14.445312 18.910157-35.558593 12.398438-55.679687-9.5625-29.535156-41.257813-45.730469-70.792969-36.167969-29.539062 9.558594-45.730469 41.253906-36.167969 70.792969 6.511719 20.117187 23.296875 34.035156 42.671875 37.851562zm0 0" fill="#f96eb3"/><path d="m139.53125 323.566406c-6.300781-6.761718-14.351562-12.066406-23.769531-15.117187-9.417969-3.046875-19.050781-3.464844-28.121094-1.679688-13.464844-14.445312-18.910156-35.558593-12.398437-55.679687 9.5625-29.535156 41.257812-45.730469 70.792968-36.167969 29.539063 9.558594 45.730469 41.253906 36.171875 70.792969-6.515625 20.117187-23.300781 34.035156-42.675781 37.851562zm0 0" fill="#ffc45a"/></svg>