<svg height="511pt" viewBox="1 1 511.99998 511" width="511pt" xmlns="http://www.w3.org/2000/svg"><path d="m499.460938 131.875h-486.921876c-6.925781 0-12.539062-5.617188-12.539062-12.542969v-106.292969c0-6.925781 5.613281-12.539062 12.539062-12.539062h486.921876c6.921874 0 12.539062 5.613281 12.539062 12.539062v106.292969c0 6.925781-5.617188 12.542969-12.539062 12.542969zm0 0" fill="#f7a35f"/><path d="m25.859375 131.875h457.148437v380.625h-457.148437zm0 0" fill="#e7e8f0"/><path d="m27.425781 182.035156 76.195313-20.898437 76.195312 20.898437 76.191406-20.898437 76.191407 20.898437 76.1875-20.898437 76.1875 20.898437v-50.160156h-457.148438zm0 0" fill="#cabfde"/><path d="m179.058594 66.1875c0 19.582031-15.871094 35.457031-35.453125 35.457031s-35.457031-15.875-35.457031-35.457031 15.875-35.457031 35.457031-35.457031 35.453125 15.875 35.453125 35.457031zm0 0" fill="#2a2d49"/><path d="m403.851562 66.1875c0 19.582031-15.875 35.457031-35.457031 35.457031s-35.453125-15.875-35.453125-35.457031 15.871094-35.457031 35.453125-35.457031 35.457031 15.875 35.457031 35.457031zm0 0" fill="#2a2d49"/><path d="m354.375 232.726562-14.777344 14.777344-14.777344-14.777344c-6.527343-6.527343-17.113281-6.527343-23.640624 0-6.527344 6.53125-6.527344 17.117188 0 23.644532l14.777343 14.777344-14.777343 14.777343c-6.527344 6.527344-6.527344 17.113281 0 23.640625 6.527343 6.53125 17.113281 6.53125 23.640624 0l14.777344-14.777344 14.777344 14.777344c6.53125 6.53125 17.117188 6.53125 23.644531 0 6.527344-6.527344 6.527344-17.113281 0-23.640625l-14.777343-14.777343 14.777343-14.777344c6.527344-6.527344 6.527344-17.113282 0-23.644532-6.527343-6.527343-17.113281-6.527343-23.644531 0zm0 0" fill="#f96eb3"/><path d="m187.179688 232.726562-14.777344 14.777344-14.777344-14.777344c-6.53125-6.527343-17.117188-6.527343-23.644531 0-6.527344 6.53125-6.527344 17.117188 0 23.644532l14.777343 14.777344-14.777343 14.777343c-6.527344 6.527344-6.527344 17.113281 0 23.640625 6.527343 6.53125 17.113281 6.53125 23.644531 0l14.777344-14.777344 14.777344 14.777344c6.527343 6.53125 17.113281 6.53125 23.640624 0 6.527344-6.527344 6.527344-17.113281 0-23.640625l-14.777343-14.777343 14.777343-14.777344c6.527344-6.527344 6.527344-17.113282 0-23.644532-6.527343-6.527343-17.113281-6.527343-23.640624 0zm0 0" fill="#f96eb3"/><path d="m289.832031 355.78125h-67.664062c-29.179688 0-52.832031 23.65625-52.832031 52.832031v17.328125h173.328124v-17.328125c0-29.175781-23.652343-52.832031-52.832031-52.832031zm0 0" fill="#2a2d49"/><g fill="#f96eb3"><path d="m183.472656 425.9375c11.808594-22.914062 39.832032-39.035156 72.527344-39.035156s60.71875 16.121094 72.527344 39.035156"/><path d="m307.628906 482.214844c-11.542968 0-20.898437-9.355469-20.898437-20.898438v-35.375h41.796875v35.375c0 11.542969-9.355469 20.898438-20.898438 20.898438zm0 0"/></g></svg>