<svg height="512pt" viewBox="0 -6 512.00127 512" width="512pt" xmlns="http://www.w3.org/2000/svg"><path d="m489.074219 265.289062c-22.53125-43.964843 13.097656-66.921874 13.097656-66.921874-24.425781-24.425782 2.222656-71.59375 2.222656-71.59375l-70.855469 41.058593v151.96875c6.21875 0 11.898438-1.164062 17.085938-3.3125 0-35.351562 38.449219-51.199219 38.449219-51.199219zm0 0" fill="#279e5c"/><path d="m433.53125 223.324219c-3.398438 0-6.492188-2.296875-7.367188-5.742188-1.027343-4.074219 1.4375-8.207031 5.511719-9.234375l68.628907-17.355468c4.070312-1.03125 8.207031 1.4375 9.238281 5.507812 1.027343 4.074219-1.4375 8.207031-5.511719 9.238281l-68.628906 17.351563c-.625.160156-1.253906.234375-1.871094.234375zm0 0" fill="#0d7f3b"/><path d="m489.082031 272.894531c-.40625 0-.816406-.03125-1.226562-.097656l-55.535157-9.019531c-4.144531-.671875-6.960937-4.578125-6.289062-8.722656.675781-4.148438 4.585938-6.964844 8.726562-6.289063l55.535157 9.019531c4.144531.671875 6.957031 4.578125 6.285156 8.722656-.605469 3.734376-3.835937 6.386719-7.496094 6.386719zm0 0" fill="#0d7f3b"/><path d="m433.542969 175.4375c-2.621094 0-5.175781-1.359375-6.585938-3.792969-2.105469-3.636719-.867187-8.289062 2.769531-10.394531l70.855469-41.058594c3.632813-2.105468 8.285157-.867187 10.394531 2.765625 2.105469 3.636719.867188 8.289063-2.769531 10.394531l-70.855469 41.058594c-1.203124.695313-2.511718 1.027344-3.808593 1.027344zm0 0" fill="#0d7f3b"/><path d="m22.925781 265.289062c22.53125-43.964843-13.097656-66.921874-13.097656-66.921874 24.425781-24.425782-2.222656-71.59375-2.222656-71.59375l70.855469 41.058593v151.96875c-6.21875 0-11.898438-1.164062-17.085938-3.3125 0-35.351562-38.449219-51.199219-38.449219-51.199219zm0 0" fill="#279e5c"/><path d="m78.46875 223.324219c-.617188 0-1.246094-.078125-1.871094-.234375l-68.632812-17.351563c-4.070313-1.03125-6.535156-5.164062-5.507813-9.234375 1.03125-4.074218 5.164063-6.539062 9.234375-5.511718l68.632813 17.355468c4.074219 1.027344 6.539062 5.164063 5.507812 9.234375-.867187 3.445313-3.964843 5.742188-7.363281 5.742188zm0 0" fill="#0d7f3b"/><path d="m22.917969 272.894531c-3.664063 0-6.890625-2.652343-7.496094-6.386719-.671875-4.144531 2.140625-8.050781 6.285156-8.722656l55.535157-9.019531c4.148437-.675781 8.050781 2.140625 8.726562 6.289063.671875 4.144531-2.140625 8.050781-6.289062 8.722656l-55.535157 9.019531c-.410156.066406-.820312.097656-1.226562.097656zm0 0" fill="#0d7f3b"/><path d="m78.457031 175.4375c-1.296875 0-2.605469-.332031-3.804687-1.027344l-70.859375-41.058594c-3.632813-2.105468-4.871094-6.757812-2.765625-10.394531 2.105468-3.632812 6.757812-4.871093 10.390625-2.765625l70.859375 41.058594c3.632812 2.105469 4.871094 6.757812 2.765625 10.394531-1.410157 2.433594-3.964844 3.792969-6.585938 3.792969zm0 0" fill="#0d7f3b"/><path d="m433.539062 156.398438v163.402343c0 98.296875-79.160156 179.195313-177.453124 179.242188-98.09375.050781-177.625-79.460938-177.625-177.542969v-165.101562c0-68.019532 55.144531-123.164063 123.164062-123.164063h108.75c68.019531 0 123.164062 55.144531 123.164062 123.164063zm0 0" fill="#75bc83"/><path d="m254.636719 499.03125c-97.429688-.71875-176.175781-79.933594-176.175781-177.527344v-165.105468c0-68.019532 55.132812-123.164063 123.152343-123.164063h22.394531c-40.003906 0-72.449218 55.144531-72.449218 123.164063v165.105468c0 97.28125 46.019531 176.292969 103.078125 177.527344zm0 0" fill="#279e5c"/><path d="m352.40625 414.289062c0-53.246093-43.164062-96.40625-96.40625-96.40625s-96.40625 43.160157-96.40625 96.40625zm0 0" fill="#2a2d49"/><path d="m324.652344 307.539062c6.09375-6.539062 13.878906-11.667968 22.984375-14.617187 9.105469-2.945313 18.421875-3.351563 27.191406-1.625 13.015625-13.96875 18.28125-34.382813 11.984375-53.835937-9.242188-28.558594-39.890625-44.21875-68.449219-34.972657-28.558593 9.242188-44.21875 39.890625-34.972656 68.449219 6.296875 19.453125 22.527344 32.914062 41.261719 36.601562zm0 0" fill="#fff"/><path d="m187.347656 307.539062c-6.09375-6.539062-13.878906-11.667968-22.984375-14.617187-9.105469-2.945313-18.421875-3.351563-27.191406-1.625-13.015625-13.96875-18.28125-34.382813-11.984375-53.835937 9.246094-28.558594 39.890625-44.21875 68.449219-34.972657 28.558593 9.242188 44.21875 39.890625 34.972656 68.449219-6.296875 19.453125-22.527344 32.914062-41.261719 36.601562zm0 0" fill="#fff"/><path d="m352.425781 254.367188c0 10.148437-8.226562 18.375-18.375 18.375-10.148437 0-18.375-8.226563-18.375-18.375 0-10.152344 8.226563-18.378907 18.375-18.378907 10.148438 0 18.375 8.226563 18.375 18.378907zm0 0" fill="#2a2d49"/><path d="m196.324219 254.367188c0 10.148437-8.226563 18.375-18.375 18.375-10.148438 0-18.375-8.226563-18.375-18.375 0-10.152344 8.226562-18.378907 18.375-18.378907 10.148437 0 18.375 8.226563 18.375 18.378907zm0 0" fill="#2a2d49"/><path d="m310.351562 382.300781c-8.832031 0-15.992187 7.160157-15.992187 15.996094v15.992187h31.988281v-15.992187c0-8.832031-7.160156-15.996094-15.996094-15.996094zm0 0" fill="#fff"/><path d="m201.648438 382.300781c-8.835938 0-15.992188 7.160157-15.992188 15.996094v15.992187h31.984375v-15.992187c0-8.832031-7.160156-15.996094-15.992187-15.996094zm0 0" fill="#fff"/><path d="m256 382.300781c-8.832031 0-15.992188 7.160157-15.992188 15.996094v15.992187h31.984376v-15.992187c0-8.832031-7.160157-15.996094-15.992188-15.996094zm0 0" fill="#fff"/><g fill="#0d7f3b"><path d="m363.242188 342.714844c-3.632813 0-6.847657-2.613282-7.484376-6.3125-.714843-4.132813 2.054688-8.0625 6.183594-8.785156 1.570313-.277344 37.804688-7.054688 37.804688-36.609376 0-4.199218 3.40625-7.605468 7.605468-7.605468 4.199219 0 7.601563 3.40625 7.601563 7.605468 0 33.9375-32.976563 48.589844-50.410156 51.59375-.4375.078126-.875.113282-1.300781.113282zm0 0"/><path d="m377.1875 370.542969c-4.347656 0-7.316406-.511719-7.695312-.578125-4.132813-.753906-6.871094-4.710938-6.121094-8.84375.75-4.121094 4.695312-6.859375 8.8125-6.125.882812.148437 20.066406 3.234375 28.578125-11.519532 2.097656-3.640624 6.75-4.886718 10.386719-2.789062 3.640624 2.101562 4.886718 6.75 2.789062 10.386719-9.6875 16.789062-26.808594 19.46875-36.75 19.46875zm0 0"/><path d="m148.757812 342.714844c-.429687 0-.863281-.035156-1.296874-.109375-17.4375-3.007813-50.414063-17.660157-50.414063-51.597657 0-4.199218 3.402344-7.601562 7.601563-7.601562 4.199218 0 7.605468 3.402344 7.605468 7.601562 0 29.566407 36.261719 36.339844 37.808594 36.613282 4.125.730468 6.890625 4.667968 6.167969 8.796875-.644531 3.691406-3.847657 6.296875-7.472657 6.296875zm0 0"/><path d="m134.8125 370.542969c-9.9375 0-27.0625-2.675781-36.75-19.46875-2.097656-3.636719-.851562-8.285157 2.789062-10.386719 3.636719-2.09375 8.285157-.851562 10.386719 2.789062 8.527344 14.78125 27.769531 11.660157 28.582031 11.519532 4.128907-.707032 8.066407 2.042968 8.796876 6.164062.730468 4.121094-1.992188 8.054688-6.109376 8.804688-.378906.066406-3.351562.578125-7.695312.578125zm0 0"/></g><path d="m425.558594 112.71875c-6.691406 7.675781-16.535156 12.53125-27.515625 12.53125-20.15625 0-36.496094-16.34375-36.496094-36.496094 0-14.328125 8.25-26.726562 20.265625-32.699218 19.679688 14.03125 35.050781 33.710937 43.746094 56.664062zm0 0" fill="#83c65d"/><path d="m425.570312 112.710938-.011718.007812" fill="#5cc64a"/><path d="m403.113281 165.296875c0 10.921875-8.851562 19.773437-19.769531 19.773437s-19.769531-8.851562-19.769531-19.773437c0-10.917969 8.851562-19.769531 19.769531-19.769531s19.769531 8.851562 19.769531 19.769531zm0 0" fill="#83c65d"/><path d="m348.363281 129.132812c0 12.9375-10.492187 23.421876-23.417969 23.421876-12.9375 0-23.421874-10.484376-23.421874-23.421876s10.484374-23.417968 23.421874-23.417968c12.925782 0 23.417969 10.480468 23.417969 23.417968zm0 0" fill="#83c65d"/><path d="m86.449219 112.71875c6.691406 7.675781 16.535156 12.53125 27.515625 12.53125 20.15625 0 36.5-16.34375 36.5-36.496094 0-14.328125-8.253906-26.726562-20.269532-32.699218-19.675781 14.03125-35.046874 33.710937-43.746093 56.664062zm0 0" fill="#83c65d"/><path d="m86.449219 112.71875-.011719-.007812" fill="#5cc64a"/><path d="m148.4375 165.296875c0 10.921875-8.851562 19.773437-19.769531 19.773437-10.921875 0-19.773438-8.851562-19.773438-19.773437 0-10.917969 8.851563-19.769531 19.773438-19.769531 10.917969 0 19.769531 8.851562 19.769531 19.769531zm0 0" fill="#83c65d"/><path d="m163.644531 129.132812c0 12.9375 10.492188 23.421876 23.421875 23.421876 12.933594 0 23.417969-10.484376 23.417969-23.421876s-10.484375-23.417968-23.417969-23.417968c-12.929687 0-23.421875 10.480468-23.421875 23.417968zm0 0" fill="#83c65d"/><path d="m256 159.214844c-4.199219 0-7.605469-3.40625-7.605469-7.605469v-144.003906c0-4.199219 3.40625-7.605469 7.605469-7.605469s7.605469 3.40625 7.605469 7.605469v144.007812c0 4.199219-3.40625 7.601563-7.605469 7.601563zm0 0" fill="#0d7f3b"/></svg>