<svg height="511pt" viewBox="-49 1 511 511.99997" width="511pt" xmlns="http://www.w3.org/2000/svg"><path d="m49.707031 367.917969h332.257813v74.898437h-51.390625s-5.671875 14.972656-11.191407 20.492188c-7.492187 7.488281-17.835937 12.117187-29.253906 12.117187-19.84375 0-36.417968-13.957031-40.449218-32.597656l-87.875 9.390625c-2.019532 4.128906-4.714844 7.871094-7.921876 11.089844-7.480468 7.488281-17.824218 12.117187-29.257812 12.117187-16.332031 0-30.445312-9.453125-37.175781-23.195312" fill="#cabfde"/><path d="m207.378906 0c-114.253906 0-206.878906 92.625-206.878906 206.878906v263.746094c0 22.851562 18.527344 41.375 41.375 41.375 22.851562 0 41.378906-18.523438 41.378906-41.375v-.210938c0-22.851562 18.523438-41.375 41.375-41.375 22.851563 0 41.375 18.523438 41.375 41.375v.210938c0 22.851562 18.523438 41.375 41.375 41.375 22.851563 0 41.375-18.523438 41.375-41.375v-19.015625c0-22.851563 18.527344-41.378906 41.378906-41.378906 22.847657 0 41.375 18.527343 41.375 41.378906v19.015625c0 22.851562 18.523438 41.375 41.375 41.375 22.851563 0 41.375-18.523438 41.375-41.375v-263.746094c0-114.253906-92.621093-206.878906-206.878906-206.878906zm0 0" fill="#e7e8f0"/><path d="m207.378906 0c-57.46875 0-104.0625 92.621094-104.0625 206.878906v228.058594c-12.015625 7.242188-20.0625 20.417969-20.0625 35.472656v.210938c0 11.421875-4.628906 21.765625-12.117187 29.257812-7.484375 7.492188-17.828125 12.121094-29.257813 12.121094-22.851562 0-41.378906-18.527344-41.378906-41.378906v-263.742188c0-114.257812 92.628906-206.878906 206.878906-206.878906zm0 0" fill="#cabfde"/><path d="m233.679688 295.398438c-16.941407 6.371093-35.660157 6.371093-52.601563 0-7.792969-2.929688-16.5625-.027344-20.910156 7.070312-.0625.097656-.121094.195312-.183594.296875-5.597656 9.136719-1.636719 21.226563 8.375 25.042969 25.113281 9.574218 52.925781 9.574218 78.039063 0 10.011718-3.816406 13.972656-15.90625 8.375-25.042969-.0625-.101563-.121094-.199219-.183594-.296875-4.347656-7.097656-13.117188-10-20.910156-7.070312zm0 0" fill="#2a2d49"/><path d="m261.375 276.523438c5.953125-6.386719 13.558594-11.398438 22.453125-14.277344 8.894531-2.875 17.992187-3.273438 26.558594-1.585938 12.714843-13.644531 17.859375-33.585937 11.707031-52.589844-9.03125-27.894531-38.964844-43.1875-66.863281-34.160156-27.894531 9.03125-43.1875 38.964844-34.160157 66.863282 6.152344 19.003906 22.007813 32.148437 40.304688 35.75zm0 0" fill="#fff"/><path d="m153.382812 276.523438c-5.953124-6.386719-13.558593-11.398438-22.453124-14.277344-8.894532-2.875-17.992188-3.273438-26.554688-1.585938-12.71875-13.644531-17.859375-33.585937-11.710938-52.589844 9.03125-27.894531 38.964844-43.1875 66.863282-34.160156 27.894531 9.03125 43.191406 38.964844 34.160156 66.863282-6.152344 19.003906-22.003906 32.148437-40.304688 35.75zm0 0" fill="#fff"/><g fill="#2a2d49"><path d="m288.503906 224.585938c0 9.910156-8.035156 17.949218-17.949218 17.949218-9.910157 0-17.949219-8.039062-17.949219-17.949218 0-9.914063 8.039062-17.949219 17.949219-17.949219 9.914062 0 17.949218 8.035156 17.949218 17.949219zm0 0"/><path d="m162.152344 224.585938c0 9.910156-8.035156 17.949218-17.949219 17.949218s-17.949219-8.039062-17.949219-17.949218c0-9.914063 8.035156-17.949219 17.949219-17.949219s17.949219 8.035156 17.949219 17.949219zm0 0"/></g></svg>