<svg height="512pt" viewBox="0 -11 512.00108 512" width="512pt" xmlns="http://www.w3.org/2000/svg"><path d="m359.054688 96.898438 68.882812-96.898438s79.15625 117.390625 22.082031 181.777344" fill="#f4702f"/><path d="m152.945312 96.898438-68.882812-96.898438s-79.152344 117.390625-22.082031 181.777344" fill="#f4702f"/><path d="m390.640625 122.398438 96.230469 96.230468c33.507812 33.503906 33.507812 87.824219 0 121.328125l-94.40625 94.410157c-75.367188 75.367187-197.5625 75.367187-272.929688 0l-94.40625-94.410157c-33.503906-33.503906-33.503906-87.824219 0-121.328125l96.230469-96.230468c74.363281-74.359376 194.921875-74.359376 269.28125 0zm0 0" fill="#f7a35f"/><path d="m254.59375 490.882812c-48.914062-.347656-97.730469-19.191406-135.050781-56.511718l-94.414063-94.414063c-33.503906-33.503906-33.503906-87.824219 0-121.328125l96.234375-96.222656c36.824219-36.824219 84.980469-55.414062 133.25-55.761719-29.257812.578125-58.398437 19.160157-80.71875 55.761719l-58.695312 96.222656c-20.433594 33.503906-20.433594 87.824219 0 121.328125l57.578125 94.414063c22.625 37.085937 52.167968 55.929687 81.816406 56.511718zm0 0" fill="#f4702f"/><path d="m327.367188 287.554688c6.332031-6.796876 14.425781-12.128907 23.890624-15.191407 9.464844-3.0625 19.148438-3.488281 28.265626-1.691406 13.535156-14.519531 19.007812-35.742187 12.460937-55.964844-9.609375-29.6875-41.46875-45.964843-71.15625-36.355469-29.6875 9.613282-45.964844 41.46875-36.355469 71.15625 6.546875 20.222657 23.417969 34.214844 42.894532 38.046876zm0 0" fill="#fff"/><path d="m184.632812 287.554688c-6.332031-6.796876-14.425781-12.128907-23.890624-15.191407-9.464844-3.0625-19.148438-3.488281-28.265626-1.691406-13.535156-14.519531-19.007812-35.742187-12.460937-55.964844 9.609375-29.6875 41.46875-45.964843 71.15625-36.355469 29.6875 9.613282 45.964844 41.46875 36.355469 71.15625-6.546875 20.222657-23.417969 34.214844-42.894532 38.046876zm0 0" fill="#fff"/><path d="m356.238281 232.28125c0 10.550781-8.550781 19.101562-19.101562 19.101562s-19.101563-8.550781-19.101563-19.101562 8.550782-19.101562 19.101563-19.101562 19.101562 8.550781 19.101562 19.101562zm0 0" fill="#353959"/><path d="m193.964844 232.28125c0 10.550781-8.550782 19.101562-19.101563 19.101562s-19.101562-8.550781-19.101562-19.101562 8.550781-19.101562 19.101562-19.101562 19.101563 8.550781 19.101563 19.101562zm0 0" fill="#353959"/><path d="m450.019531 181.78125-41.433593-38.65625 19.351562-143.125s79.160156 117.386719 22.082031 181.78125zm0 0" fill="#ffe8d0"/><path d="m61.984375 181.78125 41.429687-38.65625-19.351562-143.125s-79.160156 117.386719-22.078125 181.78125zm0 0" fill="#ffe8d0"/><path d="m320.441406 425.175781c-4.363281 0-7.902344-3.539062-7.902344-7.902343v-32.304688c0-4.363281 3.539063-7.902344 7.902344-7.902344 4.367188 0 7.90625 3.539063 7.90625 7.902344v32.304688c0 4.363281-3.539062 7.902343-7.90625 7.902343zm0 0" fill="#fff"/><path d="m209.789062 426.757812c-4.363281 0-7.902343-3.539062-7.902343-7.90625v-32.027343c0-4.367188 3.539062-7.90625 7.902343-7.90625 4.367188 0 7.90625 3.539062 7.90625 7.90625v32.027343c0 4.367188-3.539062 7.90625-7.90625 7.90625zm0 0" fill="#fff"/><path d="m275.65625 271.3125h140.691406c0 37.019531-20.265625 71.0625-52.808594 88.703125l-58.515624 31.726563c-13.050782 7.074218-27.65625 10.777343-42.496094 10.777343-23.648438 0-46.328125-9.390625-63.046875-26.113281" fill="#f7a35f"/><path d="m424.253906 271.320312c0 29.507813-11.898437 57.207032-32.269531 77.359376-7.210937 7.121093-15.484375 13.308593-24.675781 18.285156l-58.523438 31.734375c-14.152344 7.671875-30.152344 11.730469-46.257812 11.730469-25.925782 0-50.304688-10.097657-68.640625-28.4375-3.089844-3.078126-3.089844-8.082032 0-11.171876 3.085937-3.085937 8.09375-3.085937 11.179687 0 15.347656 15.347657 35.75 23.796876 57.460938 23.796876 13.480468 0 26.875-3.390626 38.722656-9.820313l58.523438-31.722656c6.589843-3.574219 12.628906-7.875 18.042968-12.773438 17.347656-15.664062 28.277344-37.4375 30.292969-61.078125h-132.449219c-4.375 0-7.902344-3.539062-7.902344-7.902344 0-4.375 3.527344-7.90625 7.902344-7.90625h140.691406c4.363282 0 7.902344 3.53125 7.902344 7.90625zm0 0" fill="#f4702f"/><path d="m424.253906 271.320312c0 29.507813-11.898437 57.207032-32.269531 77.359376-4.964844-2.40625-9.707031-5.207032-14.167969-8.378907-20.171875-14.3125-34.757812-35.972656-39.847656-61.078125-1.042969-5.132812-1.6875-10.410156-1.898438-15.808594h80.28125c4.363282 0 7.902344 3.53125 7.902344 7.90625zm0 0" fill="#353959"/></svg>