<svg height="512pt" viewBox="-4 0 512 512.00105" width="512pt" xmlns="http://www.w3.org/2000/svg"><path d="m69.058594 343.367188c-38.140625 0-69.058594-30.917969-69.058594-69.058594s30.917969-69.0625 69.058594-69.0625h366.367187c38.140625 0 69.0625 30.921875 69.0625 69.0625s-30.921875 69.058594-69.0625 69.058594" fill="#ffc0ad"/><path d="m435.425781 293.742188c-4.332031 0-7.84375-3.511719-7.84375-7.847657 0-23.472656 11.609375-31.789062 18.53125-34.65625 10.914063-4.519531 24.816407-1.398437 33.804688 7.585938 3.0625 3.066406 3.0625 8.035156 0 11.097656-3.066407 3.0625-8.03125 3.0625-11.097657 0-4.546874-4.550781-11.570312-6.308594-16.703124-4.1875-5.703126 2.363281-8.84375 9.523437-8.84375 20.160156 0 4.335938-3.515626 7.847657-7.847657 7.847657zm0 0" fill="#ef9f87"/><path d="m69.058594 293.742188c-4.332032 0-7.84375-3.511719-7.84375-7.847657 0-10.636719-3.140625-17.796875-8.847656-20.160156-5.128907-2.125-12.152344-.363281-16.703126 4.1875-3.0625 3.0625-8.03125 3.066406-11.09375 0-3.0625-3.0625-3.0625-8.03125 0-11.09375 8.988282-8.988281 22.886719-12.109375 33.804688-7.589844 6.921875 2.867188 18.53125 11.183594 18.53125 34.660157 0 4.332031-3.511719 7.84375-7.847656 7.84375zm0 0" fill="#ef9f87"/><path d="m435.425781 127.078125v199.980469c0 101.421875-81.671875 184.890625-183.09375 184.941406-101.210937.050781-183.269531-81.988281-183.269531-183.183594v-201.738281c0-70.183594 56.894531-127.078125 127.078125-127.078125h112.207031c70.183594 0 127.078125 56.894531 127.078125 127.078125zm0 0" fill="#ffe8d0"/><path d="m250.730469 511.988281c-100.46875-.816406-181.664063-82.515625-181.664063-183.171875v-201.738281c0-70.179687 56.894532-127.078125 127.078125-127.078125h20.105469c-45.042969 0-81.550781 56.898438-81.550781 127.078125v201.738281c0 100.375 51.800781 181.894532 116.03125 183.171875zm0 0" fill="#ffc0ad"/><path d="m435.425781 172.585938v154.472656c0 101.421875-81.675781 184.886718-183.09375 184.941406-.535156 0-1.070312 0-1.601562-.011719-.710938-.011719-1.421875-.011719-2.144531-.03125-.074219.011719-.148438.011719-.21875 0-99.378907-2.0625-179.300782-83.269531-179.300782-183.140625v-156.230468c0-53.65625 33.253906-99.546876 80.277344-118.179688 14.476562-5.742188 30.273438-8.902344 46.800781-8.902344h112.203125c70.183594 0 127.078125 56.898438 127.078125 127.082032zm0 0" fill="#e7e8f0"/><path d="m250.730469 511.988281c-.710938-.011719-1.421875-.011719-2.144531-.03125-.074219.011719-.148438.011719-.21875 0-99.378907-2.0625-179.300782-83.269531-179.300782-183.140625v-156.230468c0-53.65625 33.253906-99.546876 80.277344-118.179688-9.226562 20.597656-14.644531 45.640625-14.644531 72.671875v201.738281c0 100.375 51.800781 181.894532 116.03125 183.171875zm0 0" fill="#cabfde"/><path d="m323.078125 309.175781c6.289063-6.746093 14.320313-12.039062 23.714844-15.078125 9.394531-3.042968 19.007812-3.460937 28.054687-1.679687 13.433594-14.410157 18.867188-35.476563 12.367188-55.546875-9.535156-29.46875-41.15625-45.625-70.625-36.085938-29.46875 9.539063-45.621094 41.160156-36.085938 70.628906 6.5 20.070313 23.246094 33.957032 42.574219 37.761719zm0 0" fill="#fff"/><path d="m181.410156 309.175781c-6.289062-6.746093-14.320312-12.039062-23.714844-15.078125-9.398437-3.042968-19.007812-3.460937-28.054687-1.679687-13.433594-14.410157-18.867187-35.476563-12.367187-55.546875 9.535156-29.46875 41.15625-45.625 70.625-36.085938 29.46875 9.539063 45.621093 41.160156 36.082031 70.628906-6.496094 20.070313-23.242188 33.957032-42.570313 37.761719zm0 0" fill="#fff"/><path d="m351.738281 254.3125c0 10.472656-8.488281 18.960938-18.960937 18.960938s-18.960938-8.488282-18.960938-18.960938 8.488282-18.960938 18.960938-18.960938 18.960937 8.488282 18.960937 18.960938zm0 0" fill="#474d6b"/><path d="m190.671875 254.3125c0 10.472656-8.488281 18.960938-18.960937 18.960938-10.46875 0-18.960938-8.488282-18.960938-18.960938s8.492188-18.960938 18.960938-18.960938c10.472656 0 18.960937 8.488282 18.960937 18.960938zm0 0" fill="#474d6b"/><path d="m413.980469 118.890625h55.703125v55.699219h-55.703125zm0 0" fill="#353a59"/><path d="m224.394531 23.175781h55.699219v55.703125h-55.699219zm0 0" fill="#353a59"/><path d="m34.632812 119.003906h55.699219v55.703125h-55.699219zm0 0" fill="#353a59"/><path d="m97.03125 341.699219 61.195312-9.414063-47.074218 61.191406zm0 0" fill="#f96eb3"/><path d="m403.507812 341.699219-61.195312-9.414063 47.070312 61.191406zm0 0" fill="#f96eb3"/><path d="m252.242188 192.734375 47.199218-48.75h-94.394531zm0 0" fill="#f96eb3"/><g fill="#353a59"><path d="m234.460938 363.664062c0 10.398438-8.429688 18.828126-18.828126 18.828126-10.398437 0-18.828124-8.429688-18.828124-18.828126 0-10.398437 8.429687-18.828124 18.828124-18.828124 10.398438 0 18.828126 8.429687 18.828126 18.828124zm0 0"/><path d="m234.460938 430.359375c0 10.398437-8.429688 18.828125-18.828126 18.828125-10.398437 0-18.828124-8.429688-18.828124-18.828125s8.429687-18.832031 18.828124-18.832031c10.398438 0 18.828126 8.433594 18.828126 18.832031zm0 0"/><path d="m307.691406 363.664062c0 10.398438-8.429687 18.828126-18.828125 18.828126-10.398437 0-18.828125-8.429688-18.828125-18.828126 0-10.398437 8.429688-18.828124 18.828125-18.828124 10.398438 0 18.828125 8.429687 18.828125 18.828124zm0 0"/><path d="m307.691406 430.359375c0 10.398437-8.429687 18.828125-18.828125 18.828125-10.398437 0-18.828125-8.429688-18.828125-18.828125s8.429688-18.832031 18.828125-18.832031c10.398438 0 18.828125 8.433594 18.828125 18.832031zm0 0"/><path d="m375.417969 126.738281c0 10.398438-8.429688 18.828125-18.828125 18.828125-10.398438 0-18.828125-8.429687-18.828125-18.828125 0-10.398437 8.429687-18.828125 18.828125-18.828125 10.398437 0 18.828125 8.429688 18.828125 18.828125zm0 0"/><path d="m166.734375 126.738281c0 10.398438-8.429687 18.828125-18.828125 18.828125s-18.828125-8.429687-18.828125-18.828125c0-10.398437 8.429687-18.828125 18.828125-18.828125s18.828125 8.429688 18.828125 18.828125zm0 0"/></g></svg>