<svg height="512pt" viewBox="1 1 511.99998 511.99998" width="512pt" xmlns="http://www.w3.org/2000/svg"><path d="m512 256c0 141.386719-114.613281 256-256 256s-256-114.613281-256-256 114.613281-256 256-256 256 114.613281 256 256zm0 0" fill="#ffc45a"/><path d="m312.425781 505.761719c-18.152343 4.085937-37.042969 6.238281-56.425781 6.238281-141.386719 0-256-114.613281-256-256s114.613281-256 256-256c19.382812 0 38.273438 2.152344 56.425781 6.238281-114.238281 25.695313-199.578125 127.757813-199.578125 249.761719s85.339844 224.066406 199.578125 249.761719zm0 0" fill="#ff9227"/><path d="m329.640625 323.429688c6.28125-6.738282 14.304687-12.027344 23.691406-15.0625 9.382813-3.039063 18.984375-3.457032 28.019531-1.679688 13.417969-14.394531 18.84375-35.433594 12.355469-55.484375-9.527343-29.433594-41.113281-45.566406-70.546875-36.039063-29.433594 9.527344-45.570312 41.109376-36.042968 70.542969 6.492187 20.050781 23.21875 33.921875 42.523437 37.722657zm0 0" fill="#fff"/><path d="m188.136719 323.429688c-6.28125-6.738282-14.304688-12.027344-23.691407-15.0625-9.382812-3.039063-18.984374-3.457032-28.019531-1.679688-13.417969-14.394531-18.84375-35.433594-12.355469-55.484375 9.527344-29.433594 41.113282-45.566406 70.546876-36.039063 29.433593 9.527344 45.570312 41.109376 36.042968 70.542969-6.492187 20.050781-23.21875 33.921875-42.523437 37.722657zm0 0" fill="#fff"/><path d="m358.269531 268.628906c0 10.457032-8.480469 18.9375-18.941406 18.9375-10.457031 0-18.9375-8.480468-18.9375-18.9375 0-10.460937 8.480469-18.941406 18.9375-18.941406 10.460937 0 18.941406 8.480469 18.941406 18.941406zm0 0" fill="#353959"/><path d="m197.386719 268.628906c0 10.457032-8.476563 18.9375-18.9375 18.9375-10.460938 0-18.9375-8.480468-18.9375-18.9375 0-10.460937 8.476562-18.941406 18.9375-18.941406 10.460937 0 18.9375 8.480469 18.9375 18.941406zm0 0" fill="#353959"/><path d="m498.734375 102.023438c0 30.453124-24.679687 55.132812-55.128906 55.132812h-76.523438s-.019531 0-.050781 0h-48.753906c-32.277344 0-58.445313-18.367188-58.445313-41.019531 0-22.621094 26.070313-40.957031 58.257813-41.023438 1.601562-37.757812 22.476562-68.242187 49-72.277343 1.984375-.304688 3.996094-.464844 6.027344-.464844 23.046874 0 42.785156 19.878906 51.027343 48.074218 6.046875-2.285156 12.605469-3.542968 19.464844-3.542968 30.445313 0 55.125 24.679687 55.125 55.121094zm0 0" fill="#555a80"/><path d="m367.03125 157.15625h-48.753906c-32.277344 0-58.449219-18.367188-58.449219-41.019531 0-22.621094 26.070313-40.957031 58.261719-41.023438 1.597656-37.757812 22.476562-68.242187 49-72.277343 1.984375-.304688 3.992187-.464844 6.027344-.464844-14.230469 0-36.414063 49.464844-27.25 81.769531 0 0-45.332032-5.828125-45.332032 33.761719 0 38.9375 64.363282 39.253906 66.496094 39.253906zm0 0" fill="#353959"/><path d="m279.359375 350.816406c-15.046875 5.65625-31.671875 5.65625-46.71875 0-6.917969-2.601562-14.710937-.023437-18.570313 6.277344-.054687.089844-.109374.175781-.164062.265625-4.972656 8.113281-1.453125 18.851563 7.4375 22.242187 22.304688 8.5 47.007812 8.5 69.308594 0 8.894531-3.390624 12.410156-14.128906 7.4375-22.242187-.050782-.089844-.105469-.175781-.160156-.265625-3.863282-6.300781-11.652344-8.878906-18.570313-6.277344zm0 0" fill="#f96eb3"/></svg>