<svg height="512pt" viewBox="-30 0 512 512" width="512pt" xmlns="http://www.w3.org/2000/svg"><path d="m446.269531 236.929688-36.917969-17.25s55.027344 73.707031 27.519532 152.109374l-28.28125-26.515624s16.371094 90.175781-21.902344 128.449218l-9.054688-42.078125s-11.648437 65.007813-53.675781 80.355469l-10.097656-22.5625h-.515625c-25.84375 14.175781-55.460938 22.257812-86.984375 22.269531-5.007813 0-9.972656-.199219-14.886719-.585937-.011718 0-.019531 0-.03125-.007813-26.191406-2.09375-50.832031-9.714843-72.746094-21.675781l-10.097656 22.5625c-42.03125-15.347656-53.675781-80.355469-53.675781-80.355469l-9.054687 42.078125c-20.628907-20.625-25.386719-56.328125-25.386719-84.859375 0-24.425781 3.484375-43.589843 3.484375-43.589843l-28.28125 26.515624c-27.507813-78.402343 27.515625-152.109374 27.515625-152.109374l-36.925781 17.25c0-47.046876 36.925781-94.082032 36.925781-94.082032l-43.199219 14.113282c0-56.457032 62.480469-97.230469 62.480469-97.230469h-38.957031c24.382812-44.625 79.980468-59.730469 146.683593-59.730469h112.140625c66.703125 0 122.300782 15.105469 146.683594 59.730469h-38.957031s62.46875 40.773437 62.46875 97.230469l-43.191407-14.113282s36.917969 47.035156 36.917969 94.082032zm0 0" fill="#655c96"/><path d="m211.441406 511.113281c-26.191406-2.09375-50.832031-9.714843-72.746094-21.675781l-10.097656 22.5625c-42.03125-15.347656-53.675781-80.355469-53.675781-80.355469l-9.054687 42.078125c-20.628907-20.625-25.386719-56.328125-25.386719-84.859375 0-24.425781 3.484375-43.589843 3.484375-43.589843l-28.28125 26.515624c-27.507813-78.402343 27.515625-152.109374 27.515625-152.109374l-36.925781 17.25c0-47.046876 36.925781-94.082032 36.925781-94.082032l-43.199219 14.113282c0-56.457032 62.480469-97.230469 62.480469-97.230469h-38.957031c24.382812-44.625 79.980468-59.730469 146.683593-59.730469h28.886719c-71.09375 0-104.550781 44.945312-112.914062 83.628906l37.636718-7.316406s-43.910156 25.089844-43.910156 103.503906l37.085938-16.257812s-48.242188 47.964844-52.421876 106.515625l43.910157-25.785157s-32.753907 61.332032-29.273438 113.605469l34.15625-20.210937s-25.332031 57.347656 0 104.550781l19.519531-19.519531s31.007813 79.195312 78.558594 88.398437zm0 0" fill="#44347c"/><g fill="#fff"><path d="m201.265625 406.816406c-4.332031 0-7.839844-3.511718-7.839844-7.839844v-25.132812c0-4.332031 3.507813-7.84375 7.839844-7.84375s7.84375 3.511719 7.84375 7.84375v25.132812c0 4.328126-3.511719 7.839844-7.84375 7.839844zm0 0"/><path d="m251.285156 406.816406c-4.332031 0-7.839844-3.511718-7.839844-7.839844v-25.132812c0-4.332031 3.507813-7.84375 7.839844-7.84375 4.332032 0 7.84375 3.511719 7.84375 7.84375v25.132812c0 4.328126-3.511718 7.839844-7.84375 7.839844zm0 0"/><path d="m297.070312 314.230469c6.285157-6.742188 14.3125-12.03125 23.703126-15.070313 9.390624-3.039062 18.996093-3.457031 28.039062-1.679687 13.421875-14.402344 18.851562-35.453125 12.359375-55.515625-9.53125-29.449219-41.136719-45.59375-70.585937-36.0625-29.453126 9.535156-45.597657 41.136718-36.0625 70.585937 6.492187 20.0625 23.226562 33.9375 42.546874 37.742188zm0 0"/><path d="m155.480469 314.230469c-6.28125-6.742188-14.3125-12.03125-23.699219-15.070313-9.390625-3.039062-18.996094-3.457031-28.039062-1.679687-13.425782-14.402344-18.855469-35.453125-12.363282-55.515625 9.535156-29.449219 41.136719-45.59375 70.589844-36.0625 29.449219 9.535156 45.59375 41.136718 36.0625 70.585937-6.496094 20.0625-23.230469 33.9375-42.550781 37.742188zm0 0"/></g><path d="m325.710938 259.398438c0 10.464843-8.480469 18.949218-18.949219 18.949218-10.464844 0-18.949219-8.484375-18.949219-18.949218 0-10.464844 8.484375-18.949219 18.949219-18.949219 10.46875 0 18.949219 8.484375 18.949219 18.949219zm0 0" fill="#353959"/><path d="m164.738281 259.398438c0 10.464843-8.484375 18.949218-18.949219 18.949218-10.464843 0-18.949218-8.484375-18.949218-18.949218 0-10.464844 8.484375-18.949219 18.949218-18.949219 10.464844 0 18.949219 8.484375 18.949219 18.949219zm0 0" fill="#353959"/><path d="m251.285156 376.457031c-10.003906 0-18.980468-4.496093-25.007812-11.574219-6.03125 7.078126-15.007813 11.574219-25.011719 11.574219-18.113281 0-32.851563-14.738281-32.851563-32.851562 0-4.332031 3.507813-7.839844 7.839844-7.839844 4.332032 0 7.84375 3.507813 7.84375 7.839844 0 9.464843 7.699219 17.167969 17.167969 17.167969 9.464844 0 17.167969-7.703126 17.167969-17.167969 0-4.332031 3.511718-7.839844 7.84375-7.839844 4.328125 0 7.839844 3.507813 7.839844 7.839844 0 9.464843 7.703124 17.167969 17.167968 17.167969 9.46875 0 17.171875-7.703126 17.171875-17.167969 0-4.332031 3.507813-7.839844 7.839844-7.839844s7.839844 3.507813 7.839844 7.839844c0 18.113281-14.738281 32.851562-32.851563 32.851562zm0 0" fill="#44347c"/><path d="m116.996094 163.558594 53.144531 13.722656c6.289063 1.621094 12.703125-2.160156 14.328125-8.449219 1.621094-6.289062-2.160156-12.703125-8.449219-14.328125l-53.144531-13.71875c-6.289062-1.625-12.703125 2.15625-14.328125 8.449219-1.621094 6.289063 2.160156 12.703125 8.449219 14.324219zm0 0" fill="#44347c"/><path d="m335.554688 163.558594-53.140626 13.722656c-6.292968 1.621094-12.707031-2.160156-14.328124-8.449219-1.625-6.289062 2.15625-12.703125 8.445312-14.328125l53.144531-13.71875c6.289063-1.625 12.703125 2.15625 14.328125 8.449219 1.625 6.289063-2.160156 12.703125-8.449218 14.324219zm0 0" fill="#44347c"/></svg>