<svg height="512pt" viewBox="0 -73 512.00166 512" width="512pt" xmlns="http://www.w3.org/2000/svg"><g fill="#353959"><path d="m7.925781 284.941406c-.625 0-1.261719-.074218-1.898437-.230468-4.242188-1.042969-6.839844-5.332032-5.796875-9.578126l30.617187-124.566406c.578125-2.355468 2.207032-4.316406 4.414063-5.320312 2.210937-1.003906 4.753906-.9375 6.910156.175781l49.828125 25.738281c3.886719 2.007813 5.410156 6.785156 3.402344 10.667969-2.007813 3.886719-6.78125 5.410156-10.667969 3.402344l-40.90625-21.128907-28.21875 114.8125c-.890625 3.609376-4.125 6.027344-7.683594 6.027344zm0 0"/><path d="m25.183594 365.050781c-.84375 0-1.703125-.136719-2.546875-.421875-4.140625-1.410156-6.355469-5.90625-4.949219-10.046875l40.113281-118.007812c1.398438-4.109375 5.84375-6.328125 9.972657-4.972657l38.160156 12.566407c4.15625 1.367187 6.414062 5.84375 5.046875 9.996093-1.367188 4.152344-5.839844 6.410157-9.996094 5.042969l-30.714844-10.109375-37.589843 110.582032c-1.121094 3.296874-4.199219 5.371093-7.496094 5.371093zm0 0"/><path d="m11.082031 138.207031c-1.550781 0-3.113281-.453125-4.484375-1.398437-3.601562-2.484375-4.511718-7.414063-2.027344-11.011719l56.152344-81.492187c1.335938-1.9375 3.457032-3.179688 5.800782-3.394532 2.328124-.214844 4.65625.625 6.316406 2.289063l41.5 41.5c3.09375 3.09375 3.09375 8.105469 0 11.195312-3.09375 3.09375-8.105469 3.09375-11.195313 0l-34.777343-34.777343-50.757813 73.664062c-1.539063 2.226562-4.011719 3.425781-6.527344 3.425781zm0 0"/><path d="m504.074219 284.941406c-3.558594 0-6.796875-2.417968-7.683594-6.027344l-28.21875-114.8125-40.90625 21.128907c-3.886719 2.003906-8.660156.484375-10.664063-3.402344-2.007812-3.886719-.484374-8.664063 3.398438-10.667969l49.832031-25.738281c2.15625-1.113281 4.699219-1.175781 6.90625-.175781 2.210938 1.003906 3.835938 2.964844 4.414063 5.320312l30.617187 124.566406c1.042969 4.246094-1.550781 8.535157-5.796875 9.578126-.636718.15625-1.273437.230468-1.898437.230468zm0 0"/><path d="m486.816406 365.050781c-3.296875 0-6.375-2.074219-7.496094-5.371093l-37.589843-110.582032-30.71875 10.109375c-4.152344 1.367188-8.628907-.890625-9.996094-5.042969-1.367187-4.15625.894531-8.628906 5.046875-9.996093l38.164062-12.566407c4.121094-1.355468 8.574219.863282 9.96875 4.972657l40.117188 118.007812c1.40625 4.140625-.808594 8.636719-4.949219 10.046875-.84375.285156-1.703125.421875-2.546875.421875zm0 0"/><path d="m500.917969 138.207031c-2.515625 0-4.988281-1.199219-6.527344-3.425781l-50.757813-73.660156-34.777343 34.773437c-3.09375 3.09375-8.105469 3.09375-11.195313 0-3.09375-3.089843-3.09375-8.101562 0-11.195312l41.5-41.5c1.660156-1.664063 3.992188-2.5 6.316406-2.285157 2.34375.210938 4.464844 1.453126 5.800782 3.390626l56.152344 81.492187c2.484374 3.601563 1.574218 8.53125-2.023438 11.011719-1.375.945312-2.9375 1.398437-4.488281 1.398437zm0 0"/></g><path d="m434.1875 178.195312c0 98.410157-79.773438 178.1875-178.183594 178.1875-98.421875 0-178.195312-79.777343-178.195312-178.1875 0-95.769531 75.53125-173.875 170.277344-178.027343 2.628906-.1132815 5.269531-.167969 7.917968-.167969 2.648438 0 5.289063.0546875 7.917969.179688 94.734375 4.140624 170.265625 82.25 170.265625 178.015624zm0 0" fill="#555a80"/><path d="m288.203125 353.484375c-10.4375 1.914063-21.207031 2.90625-32.195313 2.90625-98.421874 0-178.199218-79.789063-178.199218-178.199219 0-98.40625 79.777344-178.1835935 178.199218-178.1835935 10.988282 0 21.757813.9921875 32.195313 2.9023435-83.046875 15.148438-145.996094 87.863282-145.996094 175.28125 0 87.421875 62.949219 160.136719 145.996094 175.292969zm0 0" fill="#353959"/><path d="m327.484375 255.230469c6.34375-6.804688 14.449219-12.148438 23.929687-15.214844 9.484376-3.070313 19.183594-3.492187 28.3125-1.695313 13.554688-14.542968 19.039063-35.800781 12.480469-56.054687-9.625-29.738281-41.535156-46.039063-71.273437-36.414063-29.738282 9.625-46.039063 41.535157-36.414063 71.273438 6.558594 20.253906 23.457031 34.269531 42.964844 38.105469zm0 0" fill="#fff"/><path d="m184.515625 255.230469c-6.34375-6.804688-14.449219-12.148438-23.933594-15.214844-9.480469-3.070313-19.179687-3.492187-28.308593-1.695313-13.554688-14.542968-19.039063-35.800781-12.480469-56.054687 9.625-29.738281 41.535156-46.039063 71.273437-36.414063 29.734375 9.625 46.039063 41.535157 36.414063 71.273438-6.558594 20.253906-23.457031 34.269531-42.964844 38.105469zm0 0" fill="#fff"/><path d="m356.402344 199.867188c0 10.566406-8.566406 19.132812-19.132813 19.132812-10.566406 0-19.132812-8.566406-19.132812-19.132812 0-10.566407 8.566406-19.132813 19.132812-19.132813 10.566407 0 19.132813 8.566406 19.132813 19.132813zm0 0" fill="#353959"/><path d="m193.863281 199.867188c0 10.566406-8.566406 19.132812-19.132812 19.132812-10.566407 0-19.132813-8.566406-19.132813-19.132812 0-10.566407 8.566406-19.132813 19.132813-19.132813 10.566406 0 19.132812 8.566406 19.132812 19.132813zm0 0" fill="#353959"/><path d="m281.253906 308.328125c-10.101562 0-19.164062-4.539063-25.253906-11.6875-6.089844 7.148437-15.152344 11.6875-25.253906 11.6875-18.289063 0-33.171875-14.878906-33.171875-33.171875 0-4.371094 3.542969-7.917969 7.917969-7.917969s7.917968 3.546875 7.917968 7.917969c0 9.558594 7.777344 17.335938 17.335938 17.335938s17.335937-7.777344 17.335937-17.335938c0-4.371094 3.542969-7.917969 7.917969-7.917969s7.917969 3.546875 7.917969 7.917969c0 9.558594 7.777343 17.335938 17.335937 17.335938s17.335938-7.777344 17.335938-17.335938c0-4.371094 3.542968-7.917969 7.917968-7.917969s7.917969 3.546875 7.917969 7.917969c0 18.292969-14.882812 33.171875-33.171875 33.171875zm0 0" fill="#353959"/><path d="m324.03125 89.164062c-1.160156 3.21875-4.203125 5.226563-7.441406 5.226563-.898438 0-1.808594-.160156-2.695313-.476563-16.054687-5.804687-32.839843-9.132812-49.972656-9.914062v63.183594c0 4.371094-3.546875 7.917968-7.917969 7.917968-4.382812 0-7.917968-3.546874-7.917968-7.917968v-63.183594c-17.15625.78125-33.929688 4.109375-49.976563 9.914062-4.105469 1.476563-8.644531-.644531-10.132813-4.75-1.488281-4.117187.632813-8.65625 4.75-10.144531 17.777344-6.429687 36.367188-10.082031 55.359376-10.875v-67.972656c2.628906-.1171875 5.269531-.171875 7.917968-.171875 2.648438 0 5.289063.0546875 7.917969.179688v67.964843c18.980469.792969 37.570313 4.445313 55.359375 10.875 4.117188 1.488281 6.238281 6.027344 4.75 10.144531zm0 0" fill="#353959"/></svg>