<svg height="512pt" viewBox="0 -5 512.0001 512" width="512pt" xmlns="http://www.w3.org/2000/svg"><path d="m440.800781 271.734375-17.859375-12.832031-55.765625-40.050782-69.277343-49.773437s6.207031-38.78125 37.410156-80.703125c24.96875-33.574219 65.96875-69.125 132.664062-88.375 0 0 115.246094 129.332031-27.171875 271.734375zm0 0" fill="#353959"/><path d="m467.976562.00390625s-92.585937 68.44921875-97.613281 195.25781275c-.378906 9.34375-1.464843 17.148437-3.183593 23.59375l-69.277344-49.773438c-.003906 0 20.121094-125.796875 170.074218-169.07812475zm0 0" fill="#555a80"/><path d="m71.199219 271.738281 73.625-52.882812 69.277343-49.773438s-20.125-125.796875-170.074218-169.07812475c0 0-115.246094 129.33203175 27.171875 271.73437475zm0 0" fill="#353959"/><path d="m44.027344.00390625s92.585937 68.44921875 97.613281 195.25781275c.375 9.34375 1.464844 17.148437 3.183594 23.59375l69.277343-49.773438s-20.121093-125.796875-170.074218-169.07812475zm0 0" fill="#555a80"/><path d="m417.109375 407.417969-104.894531 76.210937c-16.757813 12.171875-36.492188 18.257813-56.210938 18.257813-19.730468 0-39.464844-6.085938-56.21875-18.257813l-2.613281-1.894531-92.96875-67.554687-9.316406-6.761719c-33.515625-24.359375-47.539063-67.53125-34.746094-106.925781l35.894531-110.445313 4.179688-12.875c12.808594-39.410156 49.527344-66.09375 90.953125-66.09375h129.660156c41.441406 0 78.160156 26.683594 90.96875 66.09375l18.527344 57.046875 21.53125 66.273438c12.808593 39.394531-1.21875 82.566406-34.746094 106.925781zm0 0" fill="#555a80"/><path d="m256.007812 501.886719c-19.726562 0-39.464843-6.082031-56.226562-18.253907l-2.601562-1.894531-92.976563-67.5625-9.320313-6.757812c-33.507812-24.359375-47.53125-67.535157-34.742187-106.925781l35.894531-110.445313 4.179688-12.875c12.808594-39.414063 49.527344-66.089844 90.957031-66.089844h25.808594c-24.929688 0-47.03125 26.675781-54.742188 66.089844l-2.507812 12.875-21.609375 110.445313c-7.699219 39.390624.742187 82.566406 20.910156 106.925781l5.609375 6.757812 55.953125 67.5625 1.578125 1.894531c10.085937 12.171876 21.953125 18.253907 33.835937 18.253907zm0 0" fill="#353959"/><path d="m270.285156 359.941406h-28.566406c-8.410156 0-15.230469-6.816406-15.230469-15.226562v-2.335938c0-8.410156 6.820313-15.230468 15.230469-15.230468h28.566406c8.410156 0 15.230469 6.820312 15.230469 15.230468v2.335938c0 8.410156-6.820313 15.226562-15.230469 15.226562zm0 0" fill="#353959"/><path d="m328.144531 384.164062c0 39.84375-32.300781 72.140626-72.140625 72.140626-39.84375 0-72.140625-32.296876-72.140625-72.140626zm0 0" fill="#f96eb3"/><path d="m326.757812 330.472656c6.277344-6.734375 14.304688-12.023437 23.6875-15.0625 9.382813-3.035156 18.984376-3.453125 28.023438-1.675781 13.417969-14.394531 18.84375-35.433594 12.351562-55.484375-9.527343-29.433594-41.113281-45.570312-70.546874-36.042969-29.433594 9.527344-45.570313 41.113281-36.042969 70.546875 6.492187 20.050782 23.21875 33.917969 42.527343 37.71875zm0 0" fill="#fff"/><path d="m185.25 330.472656c-6.28125-6.734375-14.304688-12.023437-23.691406-15.0625-9.382813-3.035156-18.984375-3.453125-28.019532-1.675781-13.417968-14.394531-18.84375-35.433594-12.355468-55.484375 9.527344-29.433594 41.113281-45.570312 70.546875-36.042969 29.433593 9.527344 45.570312 41.113281 36.042969 70.546875-6.488282 20.050782-23.21875 33.917969-42.523438 37.71875zm0 0" fill="#fff"/><path d="m355.382812 275.671875c0 10.460937-8.480468 18.941406-18.9375 18.941406-10.460937 0-18.941406-8.480469-18.941406-18.941406 0-10.457031 8.480469-18.9375 18.941406-18.9375 10.457032 0 18.9375 8.480469 18.9375 18.9375zm0 0" fill="#f96eb3"/><path d="m194.5 275.671875c0 10.460937-8.476562 18.941406-18.9375 18.941406s-18.9375-8.480469-18.9375-18.941406c0-10.457031 8.476562-18.9375 18.9375-18.9375s18.9375 8.480469 18.9375 18.9375zm0 0" fill="#f96eb3"/><g fill="#fff"><path d="m229.359375 384.164062v23.144532c0 4.324218-3.511719 7.835937-7.839844 7.835937-4.324219 0-7.835937-3.511719-7.835937-7.835937v-23.144532zm0 0"/><path d="m298.320312 384.164062v23.144532c0 4.324218-3.507812 7.835937-7.835937 7.835937-4.335937 0-7.835937-3.511719-7.835937-7.835937v-23.144532zm0 0"/></g></svg>