<svg height="512pt" viewBox="-42 0 512 512" width="512pt" xmlns="http://www.w3.org/2000/svg"><path d="m248.210938 512c-11.886719 0-23.539063-4.5-33.699219-13.019531-8.777344-7.355469-16.167969-17.578125-20.8125-28.789063-8.519531-20.570312-6.625-40.539062 4.945312-52.109375 3.070313-3.066406 8.039063-3.066406 11.105469 0 3.066406 3.070313 3.066406 8.039063 0 11.105469-6.886719 6.890625-7.492188 20.625-1.539062 34.992188 6.621093 15.984374 21.554687 32.113281 40 32.113281 28.460937 0 47.136718-19.132813 66.910156-39.390625 26.269531-26.90625 56.039062-57.40625 109.550781-28.667969 3.820313 2.050781 5.253906 6.8125 3.203125 10.632813-2.050781 3.820312-6.808594 5.257812-10.632812 3.203124-43.097657-23.144531-64.183594-1.542968-90.878907 25.804688-20.191406 20.683594-43.078125 44.125-78.152343 44.125zm0 0" fill="#f96eb3"/><path d="m204.195312 408.394531s72.199219 13.671875 51.78125 34.089844c-20.414062 20.414063-51.78125-6.285156-51.78125-6.285156s-31.363281 26.699219-51.78125 6.285156c-20.414062-20.417969 51.78125-34.089844 51.78125-34.089844" fill="#44347c"/><path d="m408.394531 204.199219c0 112.773437-91.421875 204.195312-204.199219 204.195312-112.773437 0-204.195312-91.421875-204.195312-204.195312 0-112.777344 91.421875-204.199219 204.195312-204.199219 112.777344 0 204.199219 91.421875 204.199219 204.199219zm0 0" fill="#655c96"/><path d="m255.402344 401.917969c-16.363282 4.230469-33.523438 6.480469-51.207032 6.480469-112.773437 0-204.195312-91.421876-204.195312-204.203126 0-112.773437 91.421875-204.195312 204.195312-204.195312 17.683594 0 34.84375 2.25 51.207032 6.480469-88 22.71875-152.984375 102.625-152.984375 197.714843 0 95.097657 64.984375 175.003907 152.984375 197.722657zm0 0" fill="#44347c"/><path d="m267.648438 151.03125c0 17.925781-7.433594 34.121094-19.398438 45.664062-11.410156-11.023437-26.945312-17.804687-44.058594-17.804687-17.117187 0-32.648437 6.78125-44.058594 17.804687-11.957031-11.542968-19.390624-27.738281-19.390624-45.664062 0-35.054688 28.40625-63.460938 63.449218-63.460938 35.054688 0 63.457032 28.40625 63.457032 63.460938zm0 0" fill="#fff"/><path d="m223.042969 145.675781c0 10.40625-8.4375 18.84375-18.847657 18.84375-10.40625 0-18.84375-8.4375-18.84375-18.84375s8.4375-18.84375 18.84375-18.84375c10.410157 0 18.847657 8.4375 18.847657 18.84375zm0 0" fill="#2a2d49"/><path d="m280.566406 225.824219c0 42.183593-34.195312 76.367187-76.367187 76.367187-42.183594 0-76.367188-34.183594-76.367188-76.367187zm0 0" fill="#f96eb3"/><path d="m174.832031 264c-.585937.132812-1.175781.199219-1.75.199219-3.582031 0-6.828125-2.472657-7.644531-6.125l-6.910156-30.511719c-.132813-.585938-.199219-1.160156-.199219-1.738281h15.894531l6.535156 28.78125c.953126 4.230469-1.699218 8.4375-5.925781 9.394531zm0 0" fill="#fff"/><path d="m250.066406 225.824219c0 .574219-.0625 1.152343-.195312 1.738281l-6.910156 30.507812c-.828126 3.644532-4.0625 6.125-7.65625 6.125-.574219 0-1.160157-.0625-1.738282-.199218-4.230468-.953125-6.886718-5.160156-5.925781-9.390625l6.523437-28.78125zm0 0" fill="#fff"/><path d="m365.171875 147.667969c-8.039063-23.230469-24.835937-38.503907-37.515625-34.117188-12.679688 4.390625-16.441406 26.777344-8.402344 50.007813 8.035156 23.226562 24.832032 38.503906 37.511719 34.113281 12.679687-4.386719 16.445313-26.773437 8.40625-50.003906zm0 0" fill="#6c64af"/><path d="m225.851562 418.828125h-43.3125c-4.335937 0-7.851562-3.515625-7.851562-7.851563 0-4.339843 3.515625-7.855468 7.851562-7.855468h43.3125c4.339844 0 7.851563 3.515625 7.851563 7.855468 0 4.335938-3.511719 7.851563-7.851563 7.851563zm0 0" fill="#f96eb3"/></svg>