<svg height="511pt" viewBox="-7 1 511 511.99998" width="511pt" xmlns="http://www.w3.org/2000/svg"><path d="m84.660156 132.578125c0-34.480469-46.496094-80.976563-46.496094-80.976563l20.117188-20.113281 26.378906 13.320313" fill="#f47a21"/><path d="m408.042969 317.511719 84.164062 194.488281-102.453125-37.761719-45.449218 37.761719-97.949219-34.628906-97.960938 34.628906-45.453125-37.761719-102.441406 37.761719 84.15625-194.488281v-317.511719h323.386719v129.441406c22.726562-22.726562 72.097656-40.75 72.097656-40.75l9.351563 18.703125 7.886718 15.777344c-73.902344 54.605469-89.335937 194.339844-89.335937 194.339844zm0 0" fill="#f7a35f"/><path d="m497.378906 123.171875c-73.902344 54.605469-89.335937 194.339844-89.335937 194.339844s0-18.390625 0-94.667969 81.449219-115.449219 81.449219-115.449219zm0 0" fill="#f4702f"/><path d="m84.660156 0h58.773438v317.511719l-43.914063 157.988281-99.015625 36.5 84.15625-194.488281zm0 0" fill="#f4702f"/><path d="m311.878906 257.457031c6.28125-6.738281 14.304688-12.023437 23.691406-15.0625 9.382813-3.035156 18.984376-3.457031 28.019532-1.675781 13.417968-14.394531 18.84375-35.433594 12.355468-55.484375-9.527343-29.433594-41.113281-45.570313-70.546874-36.042969-29.433594 9.527344-45.570313 41.113282-36.042969 70.546875 6.492187 20.046875 23.21875 33.917969 42.523437 37.71875zm0 0" fill="#fff"/><path d="m180.824219 257.457031c-6.28125-6.738281-14.304688-12.023437-23.691407-15.0625-9.382812-3.035156-18.984374-3.457031-28.019531-1.675781-13.417969-14.394531-18.84375-35.433594-12.355469-55.484375 9.527344-29.433594 41.113282-45.570313 70.546876-36.042969 29.433593 9.527344 45.570312 41.113282 36.042968 70.546875-6.492187 20.046875-23.21875 33.917969-42.523437 37.71875zm0 0" fill="#fff"/><g fill="#353959"><path d="m340.503906 202.65625c0 10.460938-8.476562 18.9375-18.9375 18.9375-10.460937 0-18.9375-8.476562-18.9375-18.9375 0-10.457031 8.476563-18.9375 18.9375-18.9375 10.460938 0 18.9375 8.480469 18.9375 18.9375zm0 0"/><path d="m190.074219 202.65625c0 10.460938-8.480469 18.9375-18.9375 18.9375-10.460938 0-18.941407-8.476562-18.941407-18.9375 0-10.457031 8.480469-18.9375 18.941407-18.9375 10.457031 0 18.9375 8.480469 18.9375 18.9375zm0 0"/><path d="m137.132812 109.933594 53.113282 13.710937c6.289062 1.625 12.699218-2.15625 14.320312-8.441406s-2.15625-12.695313-8.441406-14.320313l-53.113281-13.710937c-6.289063-1.621094-12.699219 2.15625-14.320313 8.441406-1.621094 6.285157 2.15625 12.699219 8.441406 14.320313zm0 0"/><path d="m355.570312 109.933594-53.113281 13.710937c-6.289062 1.625-12.699219-2.15625-14.320312-8.441406-1.625-6.285156 2.15625-12.695313 8.441406-14.320313l53.113281-13.710937c6.285156-1.621094 12.699219 2.15625 14.320313 8.441406 1.621093 6.285157-2.15625 12.699219-8.441407 14.320313zm0 0"/><path d="m345.707031 372.867188c0-54.875-44.480469-99.355469-99.355469-99.355469s-99.359374 44.480469-99.359374 99.355469zm0 0"/></g><path d="m302.367188 339.902344c-9.101563 0-16.480469 7.378906-16.480469 16.484375v16.480469h32.964843v-16.480469c0-9.105469-7.378906-16.484375-16.484374-16.484375zm0 0" fill="#fff"/><path d="m190.335938 339.902344c-9.105469 0-16.484376 7.378906-16.484376 16.484375v16.480469h32.964844v-16.480469c0-9.105469-7.378906-16.484375-16.480468-16.484375zm0 0" fill="#fff"/><path d="m246.351562 339.902344c-9.101562 0-16.480468 7.378906-16.480468 16.484375v16.480469h32.964844v-16.480469c0-9.105469-7.382813-16.484375-16.484376-16.484375zm0 0" fill="#fff"/></svg>