<svg height="512pt" viewBox="0 0 512.00003 512" width="512pt" xmlns="http://www.w3.org/2000/svg"><path d="m26.058594 238.195312v-44.304687c0-106.910156 86.980468-193.890625 193.890625-193.890625h72.109375c106.910156 0 193.878906 86.980469 193.878906 193.890625v44.285156l-41.839844-47.421875c-1.671875-82.410156-69.230468-148.945312-152.039062-148.945312h-72.109375c-82.808594 0-150.378907 66.535156-152.050781 148.957031" fill="#555a80"/><path d="m362.910156 144.140625c0 19.992187-16.199218 36.203125-36.207031 36.203125h-138.734375c-10.003906 0-19.054688-4.054688-25.597656-10.605469-6.550782-6.554687-10.609375-15.605469-10.609375-25.597656 0-19.996094 16.210937-36.207031 36.207031-36.207031h138.734375c10.003906 0 19.054687 4.058594 25.609375 10.609375 6.550781 6.554687 10.597656 15.605469 10.597656 25.597656zm0 0" fill="#279e5c"/><path d="m362.910156 144.140625c0 19.992187-16.199218 36.203125-36.207031 36.203125h-91.765625c-10 0-19.050781-4.054688-25.59375-10.605469-6.554688-6.554687-10.609375-15.605469-10.609375-25.597656 0-19.996094 16.210937-36.207031 36.203125-36.207031h91.765625c10.003906 0 19.054687 4.058594 25.609375 10.609375 6.550781 6.554687 10.597656 15.605469 10.597656 25.597656zm0 0" fill="#75bc83"/><path d="m512 331.4375c0 99.21875-80.425781 179.644531-179.644531 179.644531-13.097657 0-25.867188-1.398437-38.171875-4.0625h-76.359375c-12.300781 2.664063-25.074219 4.0625-38.179688 4.0625-99.21875 0-179.644531-80.425781-179.644531-179.644531s80.425781-179.644531 179.644531-179.644531c13.105469 0 25.878907 1.402343 38.179688 4.066406h76.359375c12.304687-2.664063 25.074218-4.066406 38.171875-4.066406 99.21875 0 179.644531 80.425781 179.644531 179.644531zm0 0" fill="#f7a35f"/><path d="m258.765625 155.859375v351.160156h-40.941406c-12.300781 2.664063-25.074219 4.0625-38.179688 4.0625-99.21875 0-179.644531-80.425781-179.644531-179.644531s80.425781-179.644531 179.644531-179.644531c13.105469 0 25.878907 1.402343 38.179688 4.066406zm0 0" fill="#f4702f"/><path d="m457.9375 331.441406c0 99.21875-80.425781 179.644532-179.644531 179.644532-3.730469 0-7.429688-.117188-11.097657-.347657 93.992188-5.777343 168.449219-83.84375 168.449219-179.296875 0-95.46875-74.476562-173.53125-168.492187-179.292968 3.691406-.226563 7.402344-.34375 11.140625-.34375 99.21875 0 179.644531 80.425781 179.644531 179.636718zm0 0" fill="#f4702f"/><path d="m410.5625 331.441406c0 99.210938-80.429688 179.640625-179.644531 179.640625-99.214844 0-179.644531-80.429687-179.644531-179.640625 0-99.214844 80.429687-179.644531 179.644531-179.644531 99.214843 0 179.644531 80.429687 179.644531 179.644531zm0 0" fill="#f7a35f"/><path d="m435.644531 331.441406c0 99.210938-80.429687 179.640625-179.640625 179.640625-99.214844 0-179.644531-80.429687-179.644531-179.640625 0-99.214844 80.429687-179.644531 179.644531-179.644531 99.210938 0 179.640625 80.429687 179.640625 179.644531zm0 0" fill="#f7a35f"/><path d="m254.632812 511.074219c-98.589843-.734375-178.273437-80.875-178.273437-179.636719 0-98.757812 79.683594-178.902344 178.273437-179.632812-57.890624 1.242187-104.601562 81.1875-104.601562 179.632812s46.710938 178.390625 104.601562 179.636719zm0 0" fill="#f4702f"/><path d="m330.636719 347.832031c5.949219-6.378906 13.550781-11.386719 22.4375-14.265625s17.980469-3.273437 26.539062-1.589844c12.707031-13.632812 17.847657-33.558593 11.699219-52.546874-9.023438-27.878907-38.9375-43.160157-66.8125-34.136719-27.878906 9.023437-43.160156 38.9375-34.136719 66.8125 6.144531 18.992187 21.988281 32.125 40.273438 35.726562zm0 0" fill="#fff"/><path d="m182.390625 347.832031c-5.949219-6.378906-13.546875-11.386719-22.4375-14.265625-8.886719-2.878906-17.980469-3.273437-26.539063-1.589844-12.707031-13.632812-17.847656-33.558593-11.699218-52.546874 9.023437-27.878907 38.9375-43.160157 66.816406-34.136719 27.875 9.023437 43.160156 38.9375 34.136719 66.8125-6.148438 18.992187-21.988281 32.125-40.277344 35.726562zm0 0" fill="#fff"/><path d="m357.75 295.929688c0 9.90625-8.03125 17.9375-17.9375 17.9375s-17.9375-8.03125-17.9375-17.9375 8.03125-17.9375 17.9375-17.9375 17.9375 8.03125 17.9375 17.9375zm0 0" fill="#474d6b"/><path d="m190.128906 295.929688c0 9.90625-8.03125 17.9375-17.9375 17.9375s-17.9375-8.03125-17.9375-17.9375 8.03125-17.9375 17.9375-17.9375 17.9375 8.03125 17.9375 17.9375zm0 0" fill="#474d6b"/><path d="m345.972656 380.472656c0 48.054688-38.953125 87-87 87s-87-38.945312-87-87h98.664063v31.082032h42.851562v-31.082032zm0 0" fill="#2a2d49"/></svg>