<svg id="Capa_1" enable-background="new 0 0 511.99 511.99" height="512" viewBox="0 0 511.99 511.99" width="512" xmlns="http://www.w3.org/2000/svg"><g><path d="m255.995 446.953c-48.462 0-94.904-15.542-130.77-43.765-36.212-28.495-58.688-67.422-63.285-109.61-.897-8.235 5.051-15.639 13.287-16.537 8.233-.896 15.639 5.051 16.537 13.287 7.867 72.188 78.471 126.625 164.231 126.625s156.365-54.437 164.231-126.625c.897-8.236 8.308-14.191 16.537-13.287 8.235.897 14.184 8.301 13.287 16.537-4.597 42.188-27.072 81.116-63.285 109.61-35.866 28.222-82.308 43.765-130.77 43.765z" fill="#8e4712"/><path d="m386.765 403.188c36.212-28.495 58.688-67.422 63.285-109.61.897-8.235-5.051-15.639-13.287-16.537-8.229-.904-15.64 5.051-16.537 13.287-7.867 72.188-78.471 126.625-164.231 126.625v30c48.462 0 94.904-15.543 130.77-43.765z" fill="#70380f"/><path d="m270.995 496.99v-51.45c52.986-9.99 94.629-72.283 99.497-152.68.5-8.27-5.797-15.379-14.066-15.879-8.276-.498-15.379 5.798-15.879 14.066-3.769 62.256-33.094 112.609-69.551 123.645v-122.739c0-8.284-6.716-15-15-15s-15 6.716-15 15v122.739c-36.457-11.036-65.782-61.389-69.551-123.645-.5-8.269-7.593-14.557-15.879-14.066-8.269.5-14.566 7.61-14.066 15.879 4.868 80.397 46.511 142.69 99.497 152.68v51.45z" fill="#b46e3d"/><path d="m270.995 496.99v-51.45c52.986-9.99 94.629-72.283 99.497-152.68.5-8.27-5.797-15.379-14.066-15.879-8.276-.498-15.379 5.798-15.879 14.066-3.769 62.256-33.094 112.609-69.551 123.645v-122.739c0-8.284-6.716-15-15-15v220.037z" fill="#8e4712"/><path d="m375.995 511.99h-240c-8.284 0-15-6.716-15-15s6.716-15 15-15h240c8.284 0 15 6.716 15 15s-6.716 15-15 15z" fill="#8ee26b"/><path d="m375.995 481.99h-120v30h120c8.284 0 15-6.716 15-15s-6.716-15-15-15z" fill="#00a763"/><path d="m455.995 306.953h-400c-30.327 0-55-24.673-55-55 0-16.265 7.271-31.345 19.203-41.578-7.713-13.696-9.388-30.354-3.825-45.637 5.563-15.284 17.553-26.968 32.266-32.502-2.564-15.508 1.56-31.733 12.015-44.194 10.454-12.459 25.72-19.338 41.437-19.506 2.895-15.45 12.319-29.287 26.405-37.419 14.085-8.133 30.781-9.376 45.609-4.159 8.004-13.528 21.593-23.307 37.611-26.13 16.015-2.827 32.131 1.716 44.28 11.691 12.149-9.975 28.261-14.514 44.28-11.691 16.017 2.824 29.606 12.603 37.61 26.131 14.829-5.22 31.521-3.975 45.609 4.158 14.085 8.132 23.509 21.969 26.404 37.419 15.718.167 30.981 7.046 41.437 19.506 10.455 12.46 14.58 28.686 12.015 44.194 14.714 5.533 26.702 17.217 32.265 32.502 5.563 15.284 3.889 31.942-3.825 45.638 11.933 10.232 19.203 25.313 19.203 41.578.001 30.326-24.672 54.999-54.999 54.999z" fill="#ffb400"/><g fill="#f59600"><path d="m491.792 210.375c7.713-13.696 9.388-30.354 3.825-45.638-5.563-15.285-17.551-26.969-32.265-32.502 2.564-15.508-1.56-31.733-12.015-44.194-10.455-12.46-25.718-19.339-41.437-19.506-2.895-15.45-12.319-29.287-26.404-37.419-14.088-8.133-30.781-9.378-45.609-4.158-8.004-13.528-21.593-23.307-37.61-26.131-16.019-2.823-32.131 1.716-44.28 11.691v294.435h200c30.327 0 55-24.673 55-55-.002-16.265-7.273-31.345-19.205-41.578z"/><circle cx="110.995" cy="229.99" r="15"/><circle cx="140.995" cy="174.99" r="15"/><circle cx="170.995" cy="229.99" r="15"/></g></g></svg>