<svg id="Capa_1" enable-background="new 0 0 512 512" height="512" viewBox="0 0 512 512" width="512" xmlns="http://www.w3.org/2000/svg"><g><g><path d="m206 497v-115h100v115z" fill="#b46e3d"/><path d="m256 382h50v115h-50z" fill="#8e4712"/></g><g><path d="m217.599 430.056c-6.166 0-12.396-.808-18.557-2.458-19.76-5.295-35.82-18.468-44.838-36.254-19.909 1.083-39.35-6.237-53.816-20.704-14.465-14.465-21.787-33.903-20.704-53.816-17.786-9.018-30.959-25.078-36.254-44.837-5.294-19.76-1.917-40.255 8.978-56.958-10.895-16.704-14.272-37.199-8.977-56.958 5.294-19.76 18.467-35.82 36.253-44.838-1.083-19.913 6.239-39.351 20.704-53.815 14.465-14.466 33.905-21.791 53.816-20.704 9.019-17.787 25.079-30.959 44.838-36.254 19.76-5.294 40.255-1.917 56.958 8.978 16.704-10.895 37.199-14.271 56.957-8.978 19.761 5.294 35.821 18.467 44.839 36.254 19.929-1.086 39.35 6.238 53.815 20.704 14.466 14.465 21.788 33.903 20.704 53.815 17.787 9.018 30.96 25.078 36.255 44.838 5.294 19.76 1.916 40.255-8.979 56.958 10.895 16.703 14.272 37.198 8.979 56.958-5.295 19.76-18.468 35.82-36.255 44.838 1.084 19.913-6.238 39.35-20.704 53.815-14.465 14.465-33.895 21.788-53.815 20.704-9.018 17.787-25.078 30.959-44.839 36.253-19.763 5.296-40.255 1.916-56.957-8.977-11.496 7.498-24.789 11.436-38.401 11.436z" fill="#59b154"/><path d="m312.957 427.597c19.761-5.294 35.821-18.467 44.839-36.253 19.921 1.084 39.351-6.239 53.815-20.704 14.466-14.465 21.788-33.903 20.704-53.815 17.787-9.018 30.96-25.078 36.255-44.838 5.294-19.76 1.916-40.255-8.979-56.958 10.895-16.703 14.272-37.198 8.979-56.958-5.295-19.76-18.468-35.82-36.255-44.838 1.084-19.913-6.238-39.35-20.704-53.815-14.466-14.466-33.887-21.79-53.815-20.704-9.018-17.787-25.078-30.959-44.839-36.254-19.758-5.295-40.253-1.919-56.957 8.975v407.185c16.702 10.893 37.194 14.273 56.957 8.977z" fill="#337030"/></g><g><path d="m376 512h-240c-8.284 0-15-6.716-15-15s6.716-15 15-15h240c8.284 0 15 6.716 15 15s-6.716 15-15 15z" fill="#8ee26b"/><path d="m376 482h-120v30h120c8.284 0 15-6.716 15-15s-6.716-15-15-15z" fill="#00a763"/></g><path d="m160 254c-19.299 0-35-15.701-35-35s15.701-35 35-35 35 15.701 35 35-15.701 35-35 35z" fill="#ffb400"/><path d="m352 254c-19.299 0-35-15.701-35-35s15.701-35 35-35 35 15.701 35 35-15.701 35-35 35z" fill="#f59600"/><path d="m256 346c-19.299 0-35-15.701-35-35s15.701-35 35-35 35 15.701 35 35-15.701 35-35 35z" fill="#ffb400"/><path d="m291 311c0-19.299-15.701-35-35-35v70c19.299 0 35-15.701 35-35z" fill="#f59600"/></g></svg>