<svg id="Capa_1" enable-background="new 0 0 512 512" height="512" viewBox="0 0 512 512" width="512" xmlns="http://www.w3.org/2000/svg"><g><path d="m377 450h-242c-24.813 0-45-20.187-45-45v-30c0-8.284 6.716-15 15-15s15 6.716 15 15v30c0 8.271 6.729 15 15 15h242c8.271 0 15-6.729 15-15v-30c0-8.284 6.716-15 15-15s15 6.716 15 15v30c0 24.813-20.187 45-45 45z" fill="#8e4712"/><path d="m407 360c-8.284 0-15 6.716-15 15v30c0 8.271-6.729 15-15 15h-121v30h121c24.813 0 45-20.187 45-45v-30c0-8.284-6.716-15-15-15z" fill="#70380f"/><path d="m377 270h-242c-24.813 0-45-20.187-45-45v-30c0-8.284 6.716-15 15-15s15 6.716 15 15v30c0 8.271 6.729 15 15 15h242c8.271 0 15-6.729 15-15v-30c0-8.284 6.716-15 15-15s15 6.716 15 15v30c0 24.813-20.187 45-45 45z" fill="#8e4712"/><path d="m407 180c-8.284 0-15 6.716-15 15v30c0 8.271-6.729 15-15 15h-121v30h121c24.813 0 45-20.187 45-45v-30c0-8.284-6.716-15-15-15z" fill="#70380f"/><path d="m241 497v-422c0-8.284 6.716-15 15-15s15 6.716 15 15v422z" fill="#b46e3d"/><path d="m271 497v-422c0-8.284-6.716-15-15-15v437z" fill="#8e4712"/><path d="m356 512h-200c-8.284 0-15-6.716-15-15s6.716-15 15-15h200c8.284 0 15 6.716 15 15s-6.716 15-15 15z" fill="#8ee26b"/><path d="m356 482h-100v30h100c8.284 0 15-6.716 15-15s-6.716-15-15-15z" fill="#00a763"/><path d="m346 90h-180c-8.284 0-15-6.716-15-15v-10c0-35.841 29.159-65 65-65h80c35.841 0 65 29.159 65 65v10c0 8.284-6.716 15-15 15z" fill="#59b154"/><g fill="#337030"><path d="m296 0h-40v90h90c8.284 0 15-6.716 15-15v-10c0-35.841-29.159-65-65-65z"/><path d="m497 210h-180c-8.284 0-15-6.716-15-15v-10c0-35.841 29.159-65 65-65h80c35.841 0 65 29.159 65 65v10c0 8.284-6.716 15-15 15z"/><path d="m497 390h-180c-8.284 0-15-6.716-15-15v-10c0-35.841 29.159-65 65-65h80c35.841 0 65 29.159 65 65v10c0 8.284-6.716 15-15 15z"/></g><path d="m195 210h-180c-8.284 0-15-6.716-15-15v-10c0-35.841 29.159-65 65-65h80c35.841 0 65 29.159 65 65v10c0 8.284-6.716 15-15 15z" fill="#59b154"/><path d="m195 390h-180c-8.284 0-15-6.716-15-15v-10c0-35.841 29.159-65 65-65h80c35.841 0 65 29.159 65 65v10c0 8.284-6.716 15-15 15z" fill="#59b154"/></g></svg>