<svg id="Capa_1" enable-background="new 0 0 512 512" height="512" viewBox="0 0 512 512" width="512" xmlns="http://www.w3.org/2000/svg"><g><path d="m316 360c-7.013 0-14.056-.896-20.966-2.665h-78.068c-6.91 1.769-13.953 2.665-20.966 2.665-27.765 0-53.07-13.22-68.881-35.267-9.989 3.467-20.543 5.267-31.119 5.267-52.383 0-95-42.617-95-95 0-43.69 30.03-81.119 70.991-91.835-.659-4.366-.991-8.761-.991-13.165 0-49.626 40.374-90 90-90 7.293 0 14.462.861 21.434 2.569 14.996-25.937 43.009-42.569 73.566-42.569s58.57 16.632 73.566 42.569c6.972-1.708 14.141-2.569 21.434-2.569 49.626 0 90 40.374 90 90 0 4.404-.332 8.799-.991 13.165 40.961 10.716 70.991 48.145 70.991 91.835 0 52.383-42.617 95-95 95-10.576 0-21.13-1.8-31.118-5.267-15.812 22.047-41.117 35.267-68.882 35.267z" fill="#ff8c44"/><path d="m295.034 357.335c6.91 1.769 13.953 2.665 20.966 2.665 27.765 0 53.07-13.22 68.882-35.267 9.988 3.467 20.542 5.267 31.118 5.267 52.383 0 95-42.617 95-95 0-43.69-30.03-81.119-70.991-91.835.659-4.366.991-8.761.991-13.165 0-49.626-40.374-90-90-90-7.293 0-14.462.861-21.434 2.569-14.996-25.937-43.009-42.569-73.566-42.569v357.335z" fill="#ff4d05"/><path d="m316 292c-3.839 0-7.678-1.464-10.606-4.394-5.858-5.858-5.858-15.355 0-21.213l60-60c5.857-5.858 15.355-5.858 21.213 0s5.858 15.355 0 21.213l-60 60c-2.929 2.93-6.768 4.394-10.607 4.394z" fill="#8e4712"/><path d="m196 292c-3.839 0-7.678-1.464-10.606-4.394l-60-60c-5.858-5.858-5.858-15.355 0-21.213 5.857-5.858 15.355-5.858 21.213 0l60 60c5.858 5.858 5.858 15.355 0 21.213-2.929 2.93-6.768 4.394-10.607 4.394z" fill="#b46e3d"/><path d="m256 292c-8.284 0-15-6.716-15-15v-120c0-8.284 6.716-15 15-15s15 6.716 15 15v120c0 8.284-6.716 15-15 15z" fill="#b46e3d"/><path d="m271 277v-120c0-8.284-6.716-15-15-15v150c8.284 0 15-6.716 15-15z" fill="#8e4712"/><path d="m162.774 504.078c-2.609-4.877-2.324-10.795.745-15.398 24.52-36.78 37.48-79.586 37.48-123.791v-3.168c0-26.94-6.368-53.917-18.416-78.013-2.325-4.65-2.077-10.172.656-14.594s7.562-7.114 12.76-7.114h120c5.198 0 10.026 2.692 12.76 7.114 2.733 4.422 2.981 9.944.656 14.594-12.047 24.097-18.415 51.073-18.415 78.013v3.168c0 44.204 12.961 87.01 37.48 123.791 3.069 4.603 3.354 10.521.745 15.398z" fill="#b46e3d"/><path d="m311 364.889v-3.168c0-26.94 6.368-53.917 18.416-78.013 2.325-4.65 2.077-10.172-.656-14.594-2.734-4.422-7.562-7.114-12.76-7.114h-60v242.078h93.226c2.609-4.877 2.324-10.795-.745-15.398-24.52-36.781-37.481-79.587-37.481-123.791z" fill="#8e4712"/><path d="m396 512h-280c-8.284 0-15-6.716-15-15s6.716-15 15-15h280c8.284 0 15 6.716 15 15s-6.716 15-15 15z" fill="#8ee26b"/><path d="m396 482h-140v30h140c8.284 0 15-6.716 15-15s-6.716-15-15-15z" fill="#00a763"/></g></svg>