<svg id="Capa_1" enable-background="new 0 0 512 512" height="512" viewBox="0 0 512 512" width="512" xmlns="http://www.w3.org/2000/svg"><g><path d="m256 370c-8.284 0-15-6.716-15-15v-91.809c0-8.284 6.716-15 15-15s15 6.716 15 15v91.809c0 8.284-6.716 15-15 15z" fill="#b46e3d"/><path d="m296 370c-3.839 0-7.678-1.464-10.606-4.394-5.858-5.858-5.858-15.355 0-21.213l91.808-91.808c5.857-5.858 15.355-5.858 21.213 0s5.858 15.355 0 21.213l-91.808 91.808c-2.929 2.93-6.768 4.394-10.607 4.394z" fill="#8e4712"/><path d="m216 370c-3.839 0-7.678-1.464-10.606-4.394l-91.809-91.809c-5.858-5.858-5.858-15.355 0-21.213 5.857-5.858 15.355-5.858 21.213 0l91.809 91.809c5.858 5.858 5.858 15.355 0 21.213-2.929 2.93-6.768 4.394-10.607 4.394z" fill="#b46e3d"/><path d="m271 355v-91.809c0-8.284-6.716-15-15-15v121.809c8.284 0 15-6.716 15-15z" fill="#8e4712"/><path d="m201 497v-142c0-8.284 6.716-15 15-15h80c8.284 0 15 6.716 15 15v142z" fill="#b46e3d"/><path d="m296 340h-40v157h55v-142c0-8.284-6.716-15-15-15z" fill="#8e4712"/><path d="m361 512h-210c-8.284 0-15-6.716-15-15s6.716-15 15-15h210c8.284 0 15 6.716 15 15s-6.716 15-15 15z" fill="#8ee26b"/><path d="m361 482h-105v30h105c8.284 0 15-6.716 15-15s-6.716-15-15-15z" fill="#00a763"/><path d="m433.808 278.192-355.616-.001c-2.967 0-5.867-.88-8.333-2.528l-42.192-28.191c-4.166-2.783-6.667-7.462-6.667-12.472s2.501-9.688 6.667-12.472l28.681-19.165-21.397-27.066c-3.111-3.935-4.049-9.165-2.5-13.936 1.55-4.771 5.381-8.452 10.211-9.808l33.219-9.329-11.938-32.372c-1.735-4.703-1.005-9.961 1.944-14.015s7.725-6.37 12.736-6.163l34.456 1.396-1.395-34.454c-.203-5.009 2.11-9.788 6.164-12.737 4.054-2.948 9.313-3.677 14.015-1.943l32.369 11.94 9.329-33.217c1.356-4.83 5.038-8.662 9.809-10.211 4.772-1.551 10.001-.61 13.936 2.5l27.059 21.397 19.163-28.68c2.783-4.164 7.462-6.665 12.472-6.665s9.688 2.501 12.472 6.667l19.165 28.681 27.066-21.397c3.935-3.111 9.164-4.048 13.936-2.5 4.771 1.55 8.452 5.381 9.808 10.211l9.329 33.219 32.372-11.938c4.703-1.734 9.962-1.005 14.015 1.944 4.054 2.949 6.366 7.728 6.163 12.736l-1.396 34.456 34.454-1.395c5.01-.206 9.788 2.11 12.737 6.164s3.678 9.313 1.943 14.015l-11.94 32.37 33.217 9.329c4.83 1.356 8.662 5.038 10.211 9.809s.611 10.001-2.5 13.936l-21.397 27.059 28.68 19.163c4.164 2.782 6.665 7.461 6.665 12.471s-2.501 9.688-6.667 12.472l-42.192 28.193c-2.466 1.648-5.366 2.527-8.333 2.527z" fill="#8ee26b"/><path d="m433.808 278.192c2.967 0 5.867-.88 8.333-2.528l42.192-28.193c4.166-2.783 6.667-7.461 6.667-12.471s-2.501-9.689-6.667-12.472l-28.68-19.163 21.397-27.059c3.111-3.935 4.05-9.165 2.5-13.936-1.549-4.771-5.381-8.453-10.211-9.809l-33.217-9.329 11.94-32.37c1.734-4.703 1.005-9.961-1.943-14.015s-7.727-6.37-12.737-6.164l-34.454 1.395 1.396-34.456c.203-5.008-2.109-9.787-6.163-12.736-4.053-2.949-9.312-3.678-14.015-1.944l-32.372 11.938-9.329-33.219c-1.356-4.83-5.037-8.661-9.808-10.211-4.771-1.549-10.001-.612-13.936 2.5l-27.066 21.397-19.163-28.68c-2.784-4.166-7.462-6.667-12.472-6.667v278.192z" fill="#00a763"/></g></svg>