<svg id="Capa_1" enable-background="new 0 0 512 512" height="512" viewBox="0 0 512 512" width="512" xmlns="http://www.w3.org/2000/svg"><g><path d="m256 270c-8.284 0-15-6.716-15-15v-83.795c0-8.284 6.716-15 15-15s15 6.716 15 15v83.795c0 8.284-6.716 15-15 15z" fill="#b48e6e"/><path d="m295.986 270.001c-2.859 0-5.749-.816-8.307-2.521-6.893-4.595-8.756-13.908-4.161-20.801l49.634-74.452c4.596-6.894 13.908-8.754 20.801-4.161 6.893 4.595 8.756 13.908 4.161 20.801l-49.634 74.452c-2.89 4.337-7.647 6.682-12.494 6.682z" fill="#7d5c40"/><path d="m216.014 270.001c-4.847 0-9.604-2.345-12.495-6.681l-49.634-74.452c-4.595-6.893-2.732-16.206 4.161-20.801s16.205-2.733 20.801 4.161l49.634 74.452c4.595 6.893 2.732 16.206-4.161 20.801-2.557 1.705-5.447 2.52-8.306 2.52z" fill="#b48e6e"/><path d="m271 255v-83.795c0-8.284-6.716-15-15-15v113.795c8.284 0 15-6.716 15-15z" fill="#7d5c40"/><path d="m171.114 495.155 30-242c.931-7.513 7.315-13.155 14.886-13.155h80c7.571 0 13.955 5.642 14.886 13.155l30 242z" fill="#b48e6e"/><path d="m296 240h-40v255.155h84.886l-30-242c-.931-7.513-7.315-13.155-14.886-13.155z" fill="#7d5c40"/><path d="m396 512h-280c-8.284 0-15-6.716-15-15s6.716-15 15-15h280c8.284 0 15 6.716 15 15s-6.716 15-15 15z" fill="#8ee26b"/><path d="m396 482h-140v30h140c8.284 0 15-6.716 15-15s-6.716-15-15-15z" fill="#00a763"/><path d="m366 200c-15.423 0-30.207-5.644-41.774-15.445-10.035 9.735-23.613 15.445-38.226 15.445-10.723 0-21.131-3.205-30-9.056-8.869 5.851-19.277 9.056-30 9.056-14.613 0-28.191-5.71-38.226-15.445-11.567 9.801-26.351 15.445-41.774 15.445-35.841 0-65-29.159-65-65 0-30.716 21.413-56.523 50.097-63.276 1.699-28.808 25.675-51.724 54.903-51.724 5.983 0 11.855.969 17.44 2.851 11.983-14.074 31.447-22.851 52.56-22.851s40.577 8.777 52.56 22.851c5.585-1.882 11.457-2.851 17.44-2.851 29.228 0 53.204 22.916 54.903 51.724 28.684 6.753 50.097 32.56 50.097 63.276 0 35.841-29.159 65-65 65z" fill="#00a763"/><path d="m286 200c14.613 0 28.191-5.71 38.226-15.445 11.567 9.801 26.351 15.445 41.774 15.445 35.841 0 65-29.159 65-65 0-30.716-21.413-56.523-50.097-63.276-1.699-28.808-25.675-51.724-54.903-51.724-5.983 0-11.855.969-17.44 2.851-11.983-14.074-31.447-22.851-52.56-22.851v190.944c8.869 5.851 19.277 9.056 30 9.056z" fill="#007845"/></g></svg>