<svg id="Capa_1" enable-background="new 0 0 512 512" height="512" viewBox="0 0 512 512" width="512" xmlns="http://www.w3.org/2000/svg"><g><path d="m351 497v-82c0-8.284 6.716-15 15-15s15 6.716 15 15v82z" fill="#b46e3d"/><path d="m381 497v-82c0-8.284-6.716-15-15-15v97z" fill="#8e4712"/><path d="m131 497v-82c0-8.284 6.716-15 15-15s15 6.716 15 15v82z" fill="#b46e3d"/><path d="m161 497v-82c0-8.284-6.716-15-15-15v97z" fill="#8e4712"/><path d="m146 430c-24.548 0-47.944-10.555-64.189-28.958s-23.817-42.927-20.772-67.285l36.356-290.85c3.058-24.461 23.954-42.907 48.605-42.907s45.547 18.446 48.605 42.907l36.356 290.85c3.045 24.358-4.526 48.882-20.772 67.285s-39.641 28.958-64.189 28.958z" fill="#59b154"/><path d="m210.189 401.042c16.246-18.403 23.817-42.927 20.772-67.285l-36.356-290.85c-3.058-24.461-23.954-42.907-48.605-42.907v430c24.548 0 47.944-10.555 64.189-28.958z" fill="#337030"/><path d="m366 430c-24.548 0-47.943-10.554-64.188-28.957-16.246-18.403-23.817-42.927-20.772-67.286l36.356-290.85c3.056-24.46 23.952-42.907 48.604-42.907s45.548 18.447 48.604 42.908l36.356 290.849c3.045 24.358-4.526 48.883-20.772 67.286-16.245 18.403-39.64 28.957-64.188 28.957z" fill="#59b154"/><path d="m430.188 401.043c16.246-18.403 23.817-42.927 20.772-67.286l-36.356-290.849c-3.056-24.461-23.952-42.908-48.604-42.908v430c24.548 0 47.943-10.554 64.188-28.957z" fill="#337030"/><path d="m446 512h-380c-8.284 0-15-6.716-15-15s6.716-15 15-15h380c8.284 0 15 6.716 15 15s-6.716 15-15 15z" fill="#8ee26b"/><path d="m446 482h-190v30h190c8.284 0 15-6.716 15-15s-6.716-15-15-15z" fill="#00a763"/></g></svg>