<svg id="Capa_1" enable-background="new 0 0 512 512" height="512" viewBox="0 0 512 512" width="512" xmlns="http://www.w3.org/2000/svg"><g><path d="m241 497v-62c0-8.284 6.716-15 15-15s15 6.716 15 15v62z" fill="#b46e3d"/><path d="m271 497v-62c0-8.284-6.716-15-15-15v77z" fill="#8e4712"/><path d="m356 512h-200c-8.284 0-15-6.716-15-15s6.716-15 15-15h200c8.284 0 15 6.716 15 15s-6.716 15-15 15z" fill="#8ee26b"/><path d="m356 482h-100v30h100c8.284 0 15-6.716 15-15s-6.716-15-15-15z" fill="#00a763"/><path d="m256 450c-17.713 0-34.642-7.375-46.827-20.085-1.063.057-2.12.085-3.173.085-35.841 0-65-29.159-65-65 0-6.874 1.147-13.731 3.369-20.313-14.674-12.185-23.369-30.219-23.369-49.687 0-4.029.402-8.075 1.202-12.107-13.44-12.206-21.202-29.424-21.202-47.893s7.762-35.687 21.202-47.893c-.8-4.032-1.202-8.078-1.202-12.107 0-19.468 8.695-37.502 23.369-49.687-2.222-6.582-3.369-13.439-3.369-20.313 0-32.326 23.723-59.216 54.671-64.18 9.722-24.218 33.492-40.82 60.329-40.82s50.607 16.602 60.329 40.82c30.948 4.964 54.671 31.854 54.671 64.18 0 6.874-1.147 13.731-3.369 20.313 14.674 12.185 23.369 30.219 23.369 49.687 0 4.029-.402 8.075-1.202 12.107 13.44 12.206 21.202 29.424 21.202 47.893s-7.762 35.687-21.202 47.893c.8 4.032 1.202 8.078 1.202 12.107 0 19.468-8.695 37.502-23.369 49.687 2.222 6.582 3.369 13.439 3.369 20.313 0 35.841-29.159 65-65 65-1.053 0-2.109-.028-3.173-.085-12.185 12.71-29.114 20.085-46.827 20.085z" fill="#8ee26b"/><path d="m302.827 429.915c1.063.057 2.12.085 3.173.085 35.841 0 65-29.159 65-65 0-6.874-1.147-13.731-3.369-20.313 14.674-12.185 23.369-30.219 23.369-49.687 0-4.029-.402-8.075-1.202-12.107 13.44-12.206 21.202-29.424 21.202-47.893s-7.762-35.687-21.202-47.893c.8-4.032 1.202-8.078 1.202-12.107 0-19.468-8.695-37.502-23.369-49.687 2.222-6.582 3.369-13.439 3.369-20.313 0-32.326-23.723-59.216-54.671-64.18-9.722-24.218-33.492-40.82-60.329-40.82v450c17.713 0 34.642-7.375 46.827-20.085z" fill="#00a763"/></g></svg>