<svg id="Capa_1" enable-background="new 0 0 512 512" height="512" viewBox="0 0 512 512" width="512" xmlns="http://www.w3.org/2000/svg"><g><path d="m331 497v-230c0-8.284 6.716-15 15-15s15 6.716 15 15v230z" fill="#b46e3d"/><path d="m361 497v-230c0-8.284-6.716-15-15-15v245z" fill="#8e4712"/><path d="m346 282c-25.261 0-47.226-15.887-55.962-38.408-2.323.272-4.671.408-7.038.408-33.084 0-60-26.916-60-60 0-16.064 6.242-30.953 17.029-41.947-7.714-10.246-12.029-22.832-12.029-36.053 0-32.967 26.726-59.81 59.648-59.999 6.323-26.355 30.086-46.001 58.352-46.001s52.029 19.646 58.352 46.001c32.922.189 59.648 27.032 59.648 59.999 0 13.221-4.315 25.807-12.029 36.053 10.787 10.994 17.029 25.883 17.029 41.947 0 33.084-26.916 60-60 60-2.367 0-4.715-.136-7.038-.408-8.736 22.521-30.701 38.408-55.962 38.408z" fill="#8ee26b"/><path d="m401.962 243.592c2.323.272 4.671.408 7.038.408 33.084 0 60-26.916 60-60 0-16.064-6.242-30.953-17.029-41.947 7.714-10.246 12.029-22.832 12.029-36.053 0-32.967-26.726-59.81-59.648-59.999-6.323-26.355-30.086-46.001-58.352-46.001v282c25.261 0 47.226-15.887 55.962-38.408z" fill="#00a763"/><path d="m151 497v-230c0-8.284 6.716-15 15-15s15 6.716 15 15v230z" fill="#b46e3d"/><path d="m181 497v-230c0-8.284-6.716-15-15-15v245z" fill="#8e4712"/><path d="m166 282c-25.261 0-47.226-15.887-55.962-38.408-2.323.272-4.671.408-7.038.408-33.084 0-60-26.916-60-60 0-16.064 6.242-30.953 17.029-41.947-7.714-10.246-12.029-22.832-12.029-36.053 0-32.967 26.726-59.81 59.648-59.999 6.323-26.355 30.086-46.001 58.352-46.001s52.029 19.646 58.352 46.001c32.922.189 59.648 27.032 59.648 59.999 0 13.221-4.315 25.807-12.029 36.053 10.787 10.994 17.029 25.883 17.029 41.947 0 33.084-26.916 60-60 60-2.367 0-4.715-.136-7.038-.408-8.736 22.521-30.701 38.408-55.962 38.408z" fill="#8ee26b"/><path d="m221.962 243.592c2.323.272 4.671.408 7.038.408 33.084 0 60-26.916 60-60 0-16.064-6.242-30.953-17.029-41.947 7.714-10.246 12.029-22.832 12.029-36.053 0-32.967-26.726-59.81-59.648-59.999-6.323-26.355-30.086-46.001-58.352-46.001v282c25.261 0 47.226-15.887 55.962-38.408z" fill="#00a763"/><path d="m406 512h-300c-8.284 0-15-6.716-15-15s6.716-15 15-15h300c8.284 0 15 6.716 15 15s-6.716 15-15 15z" fill="#8ee26b"/><path d="m406 482h-150v30h150c8.284 0 15-6.716 15-15s-6.716-15-15-15z" fill="#00a763"/></g></svg>