<svg id="Capa_1" enable-background="new 0 0 512 512" height="512" viewBox="0 0 512 512" width="512" xmlns="http://www.w3.org/2000/svg"><g><path d="m177.237 435c-43.224 0-82.055-26.882-97.702-66.484-19.051-3.456-36.877-12.963-51.015-27.371-16.659-16.975-26.397-38.925-27.42-61.805-1.925-43.051 25.42-81.251 64.794-94.428-5.361-16.114-6.34-33.521-2.669-50.55 6.525-30.272 27.893-55.422 57.159-67.276 15.422-6.247 31.192-8.381 47.054-6.388 5.915-15.224 15.738-28.847 28.502-39.285 16.886-13.808 38.216-21.413 60.063-21.413 26.801 0 51.734 11.031 69.699 30.558 9.581-1.043 19.254-.628 28.868 1.252 25.683 5.022 48.399 21.232 62.324 44.474 10.56 17.625 15.203 36.059 13.884 55.001 39.852 7.013 70.226 41.883 70.226 83.715 0 19.259-6.479 37.666-18.168 52.511 19.591 19.466 30.048 46.883 27.878 74.995-1.728 22.384-11.469 43.532-27.431 59.548-15.963 16.017-37.078 25.83-59.457 27.63-20.02 1.612-39.612-2.958-56.649-13.211-10.731-6.459-19.967-14.853-27.319-24.749-12.394 8.573-27.192 13.276-42.621 13.276-13.325 0-26.199-3.497-37.502-10.044-19.733 25.035-50.05 40.044-82.498 40.044z" fill="#f9d5e7"/><path d="m259.735 394.956c11.303 6.547 24.177 10.044 37.502 10.044 15.429 0 30.227-4.703 42.62-13.276 7.353 9.896 16.588 18.29 27.319 24.749 17.038 10.253 36.63 14.823 56.649 13.211 22.378-1.801 43.494-11.613 59.457-27.63 15.962-16.016 25.704-37.165 27.431-59.548 2.169-28.111-8.288-55.529-27.878-74.995 11.689-14.846 18.168-33.252 18.168-52.511 0-41.832-30.374-76.702-70.226-83.715 1.319-18.942-3.324-37.376-13.884-55.001-13.925-23.242-36.642-39.452-62.324-44.474-9.613-1.88-19.287-2.296-28.868-1.252-17.964-19.527-42.897-30.558-69.698-30.558v399.426c1.282-1.452 2.527-2.942 3.732-4.47z" fill="#eca0e2"/><path d="m271.003 497v-161.494l67.126-24.409c7.786-2.831 11.802-11.438 8.971-19.223-2.831-7.786-11.439-11.802-19.223-8.971l-56.874 20.681v-73.082c13.713-12.617 35.133-12.284 48.431 1.014 12.277 12.277 28.6 19.039 45.962 19.039s33.685-6.761 45.962-19.039l7.071-7.071c5.858-5.858 5.858-15.355 0-21.213-5.857-5.858-15.355-5.858-21.213 0l-7.071 7.071c-6.611 6.61-15.4 10.251-24.749 10.251s-18.138-3.641-24.749-10.251c-18.797-18.797-46.331-23.637-69.645-14.552v-34.538l45.606-45.606c5.858-5.858 5.858-15.355 0-21.213-5.857-5.858-15.355-5.858-21.213 0l-39.394 39.394-19.394-19.394c-5.857-5.858-15.355-5.858-21.213 0s-5.858 15.355 0 21.213l25.606 25.606v57.574l-54.394-54.394c-5.857-5.858-15.355-5.858-21.213 0s-5.858 15.355 0 21.213l75.606 75.606v52.078c-8.582 1.917-17.439.574-25.1-3.849-8.096-4.674-13.888-12.222-16.307-21.252-4.494-16.771-15.25-30.788-30.285-39.469s-32.553-10.986-49.325-6.493l-4.545 1.218c-8.001 2.145-12.75 10.371-10.605 18.373s10.369 12.75 18.373 10.604l4.543-1.218c18.643-4.995 37.872 6.108 42.867 24.749 4.493 16.771 15.249 30.788 30.285 39.469 10.016 5.783 21.13 8.737 32.394 8.736 2.564 0 5.137-.162 7.706-.47v153.312z" fill="#b46e3d"/><path d="m271.003 497v-161.494l67.126-24.409c7.786-2.831 11.802-11.438 8.971-19.223-2.831-7.786-11.439-11.802-19.223-8.971l-56.874 20.681v-73.082c13.713-12.617 35.133-12.284 48.431 1.014 12.277 12.277 28.6 19.039 45.962 19.039s33.685-6.761 45.962-19.039l7.071-7.071c5.858-5.858 5.858-15.355 0-21.213-5.857-5.858-15.355-5.858-21.213 0l-7.071 7.071c-6.611 6.61-15.4 10.251-24.749 10.251s-18.138-3.641-24.749-10.251c-18.797-18.797-46.331-23.637-69.645-14.552v-34.538l45.606-45.606c5.858-5.858 5.858-15.355 0-21.213-5.857-5.858-15.355-5.858-21.213 0l-39.394 39.394v363.212z" fill="#8e4712"/><path d="m366.003 512h-220c-8.284 0-15-6.716-15-15s6.716-15 15-15h220c8.284 0 15 6.716 15 15s-6.716 15-15 15z" fill="#8ee26b"/><path d="m366.003 482h-110v30h110c8.284 0 15-6.716 15-15s-6.716-15-15-15z" fill="#00a763"/></g></svg>