<svg id="Capa_1" enable-background="new 0 0 512 512" height="512" viewBox="0 0 512 512" width="512" xmlns="http://www.w3.org/2000/svg"><g><path d="m351 295v-80c0-8.284 6.716-15 15-15s15 6.716 15 15v80z" fill="#70380f"/><g fill="#8e4712"><path d="m206 310c-8.284 0-15-6.716-15-15v-80c0-8.284 6.716-15 15-15s15 6.716 15 15v80c0 8.284-6.716 15-15 15z"/><path d="m126 310c-8.284 0-15-6.716-15-15v-80c0-8.284 6.716-15 15-15s15 6.716 15 15v80c0 8.284-6.716 15-15 15z"/><path d="m271 295v-80c0-8.284 6.716-15 15-15s15 6.716 15 15v80z"/></g><path d="m301 295v-80c0-8.284-6.716-15-15-15v95z" fill="#70380f"/><path d="m406 310c30.327 0 55-24.673 55-55v-40c0-8.284-6.716-15-15-15s-15 6.716-15 15v40c0 13.785-11.215 25-25 25h-120v30z" fill="#8e4712"/><path d="m496 230h-420c-8.284 0-15-6.716-15-15v-30c0-28.643 22.006-52.242 50-54.775v-5.225c0-28.643 22.006-52.242 50-54.775v-15.225c0-30.327 24.673-55 55-55h140c30.327 0 55 24.673 55 55v15.225c27.994 2.533 50 26.132 50 54.775v5.225c27.994 2.533 50 26.132 50 54.775v30c0 8.284-6.716 15-15 15z" fill="#8ee26b"/><path d="m231 370h-105c-8.284 0-15 6.716-15 15v112h-110v-92c0-69.036 55.964-125 125-125h160v35c0 30.376-24.624 55-55 55z" fill="#b46e3d"/><path d="m461 130.225v-5.225c0-28.643-22.006-52.242-50-54.775v-15.225c0-30.327-24.673-55-55-55h-70v230h210c8.284 0 15-6.716 15-15v-30c0-28.643-22.006-52.242-50-54.775z" fill="#00a763"/><path d="m271 512h-255c-8.284 0-15-6.716-15-15v-15h270c8.284 0 15 6.716 15 15 0 8.284-6.716 15-15 15z" fill="#8ee26b"/></g></svg>