<svg id="Capa_1" enable-background="new 0 0 512 512" height="512" viewBox="0 0 512 512" width="512" xmlns="http://www.w3.org/2000/svg"><g><path d="m221 497v-107h70v107z" fill="#b46e3d"/><path d="m256 390h35v107h-35z" fill="#8e4712"/><path d="m356 512h-200c-8.284 0-15-6.716-15-15s6.716-15 15-15h200c8.284 0 15 6.716 15 15s-6.716 15-15 15z" fill="#8ee26b"/><path d="m356 482h-100v30h100c8.284 0 15-6.716 15-15s-6.716-15-15-15z" fill="#00a763"/><path d="m396 420h-280c-5.805 0-11.088-3.349-13.565-8.598-2.477-5.25-1.704-11.457 1.986-15.938l74.117-90c2.85-3.46 7.097-5.464 11.579-5.464h131.766c4.482 0 8.729 2.004 11.579 5.464l74.117 90c3.689 4.481 4.464 10.688 1.986 15.938s-7.76 8.598-13.565 8.598z" fill="#fff05a"/><path d="m333.462 305.464c-2.85-3.46-7.097-5.464-11.579-5.464h-65.883v120h140c5.805 0 11.088-3.349 13.565-8.598s1.703-11.457-1.986-15.938z" fill="#ffd228"/><path d="m376 330h-240c-5.858 0-11.18-3.41-13.627-8.732-2.448-5.322-1.574-11.582 2.239-16.03l68.571-80c2.85-3.325 7.01-5.238 11.389-5.238h102.857c4.379 0 8.539 1.914 11.389 5.238l68.571 80c3.813 4.448 4.687 10.708 2.239 16.03s-7.77 8.732-13.628 8.732z" fill="#ffd228"/><path d="m318.817 225.238c-2.85-3.325-7.01-5.238-11.389-5.238h-51.428v110h120c5.858 0 11.18-3.41 13.628-8.732 2.447-5.322 1.573-11.582-2.239-16.03z" fill="#ffb400"/><path d="m366 250h-220c-6.067 0-11.537-3.655-13.858-9.26s-1.038-12.057 3.252-16.347l70-70c2.812-2.812 6.628-4.393 10.606-4.393h80c3.979 0 7.794 1.581 10.606 4.394l70 70c4.29 4.29 5.573 10.742 3.252 16.347-2.322 5.604-7.791 9.259-13.858 9.259z" fill="#fff05a"/><path d="m306.606 154.394c-2.812-2.813-6.628-4.394-10.606-4.394h-40v100h110c6.067 0 11.536-3.655 13.858-9.26 2.321-5.605 1.038-12.057-3.252-16.347z" fill="#ffd228"/><path d="m346 180h-180c-6.067 0-11.537-3.655-13.858-9.26s-1.038-12.057 3.252-16.347l70-70c2.812-2.812 6.628-4.393 10.606-4.393h40c3.979 0 7.794 1.581 10.606 4.394l70 70c4.29 4.29 5.573 10.742 3.252 16.347-2.322 5.604-7.791 9.259-13.858 9.259z" fill="#ffd228"/><path d="m286.606 84.394c-2.812-2.813-6.628-4.394-10.606-4.394h-20v100h90c6.067 0 11.536-3.655 13.858-9.26 2.321-5.605 1.038-12.057-3.252-16.347z" fill="#ffb400"/><path d="m326 110h-140c-5.886 0-11.228-3.442-13.66-8.802s-1.505-11.646 2.371-16.076l70-80c2.849-3.255 6.963-5.122 11.289-5.122 4.325 0 8.44 1.867 11.289 5.123l70 80c3.875 4.429 4.803 10.716 2.37 16.076-2.431 5.359-7.773 8.801-13.659 8.801z" fill="#fff05a"/><path d="m326 110c5.886 0 11.228-3.442 13.659-8.802 2.433-5.36 1.505-11.646-2.37-16.076l-70-80c-2.849-3.255-6.964-5.122-11.289-5.122v110z" fill="#ffd228"/></g></svg>