<svg id="Capa_1" enable-background="new 0 0 512 512" height="512" viewBox="0 0 512 512" width="512" xmlns="http://www.w3.org/2000/svg"><g><path d="m241 315v-100c0-8.284 6.716-15 15-15s15 6.716 15 15v100z" fill="#8e4712"/><path d="m271 315v-100c0-8.284-6.716-15-15-15v115z" fill="#70380f"/><path d="m336 330h-160c-30.327 0-55-24.673-55-55v-60c0-8.284 6.716-15 15-15s15 6.716 15 15v60c0 13.785 11.215 25 25 25h160c13.785 0 25-11.215 25-25v-40c0-8.284 6.716-15 15-15s15 6.716 15 15v40c0 30.327-24.673 55-55 55z" fill="#b46e3d"/><path d="m376 220c-8.284 0-15 6.716-15 15v40c0 13.785-11.215 25-25 25h-80v30h80c30.327 0 55-24.673 55-55v-40c0-8.284-6.716-15-15-15z" fill="#8e4712"/><path d="m211 497v-197h90v197z" fill="#b46e3d"/><path d="m256 300h45v197h-45z" fill="#8e4712"/><path d="m356 512h-200c-8.284 0-15-6.716-15-15s6.716-15 15-15h200c8.284 0 15 6.716 15 15s-6.716 15-15 15z" fill="#8ee26b"/><path d="m356 482h-100v30h100c8.284 0 15-6.716 15-15s-6.716-15-15-15z" fill="#00a763"/><path d="m331.741 133.269c5.265-14.919 3.949-31.677-4.188-45.769-8.136-14.092-21.992-23.61-37.543-26.511-2.899-15.553-12.418-29.407-26.511-37.544-14.09-8.136-30.847-9.452-45.769-4.187-10.287-12.018-25.458-19.258-41.73-19.258s-31.443 7.24-41.731 19.258c-14.922-5.265-31.679-3.949-45.769 4.187-14.093 8.137-23.611 21.991-26.511 37.544-15.551 2.901-29.407 12.419-37.543 26.511-8.137 14.092-9.452 30.85-4.188 45.769-12.018 10.288-19.258 25.459-19.258 41.731 0 30.327 24.673 55 55 55h240c30.327 0 55-24.673 55-55 0-16.272-7.24-31.443-19.259-41.731z" fill="#f9d5e7"/><path d="m296 230c30.327 0 55-24.673 55-55 0-16.272-7.24-31.443-19.259-41.731 5.265-14.919 3.949-31.677-4.188-45.769-8.136-14.092-21.992-23.61-37.543-26.511-2.899-15.553-12.418-29.407-26.511-37.544-14.09-8.136-30.847-9.452-45.769-4.187-10.287-12.018-25.458-19.258-41.73-19.258v230z" fill="#eca0e2"/><path d="m466 250h-180c-24.813 0-45-20.187-45-45 0-12.448 5.176-24.108 13.885-32.452-3.371-11.58-2.023-24.267 4.201-35.048s16.538-18.291 28.252-21.162c2.872-11.714 10.382-22.028 21.162-28.251 10.782-6.225 23.47-7.572 35.049-4.201 8.343-8.71 20.003-13.886 32.451-13.886s24.108 5.177 32.452 13.885c11.579-3.371 24.266-2.024 35.048 4.201 10.781 6.224 18.291 16.537 21.162 28.251 11.714 2.872 22.027 10.381 28.251 21.162 6.225 10.781 7.571 23.468 4.202 35.048 8.708 8.345 13.885 20.005 13.885 32.453 0 24.813-20.187 45-45 45z" fill="#f9d5e7"/><path d="m466 250c24.813 0 45-20.187 45-45 0-12.448-5.177-24.108-13.885-32.452 3.369-11.58 2.022-24.267-4.202-35.048s-16.537-18.291-28.251-21.162c-2.871-11.714-10.381-22.027-21.162-28.251-10.782-6.226-23.469-7.572-35.048-4.201-8.344-8.709-20.004-13.886-32.452-13.886v180z" fill="#eca0e2"/></g></svg>