<svg id="Capa_1" enable-background="new 0 0 512 512" height="512" viewBox="0 0 512 512" width="512" xmlns="http://www.w3.org/2000/svg"><g><path d="m416 390c-18.706 0-36.411-6.927-50-19.106-13.589 12.179-31.294 19.106-50 19.106-41.355 0-75-33.645-75-75 0-11.295 2.482-22.198 7.265-32.178-17.111-14.068-27.265-35.087-27.265-57.822 0-24.321 11.983-46.868 31.163-60.758-7.214-11.726-11.163-25.329-11.163-39.242 0-36.736 26.551-67.388 61.469-73.777 6.336-29.247 32.415-51.223 63.531-51.223s57.195 21.976 63.531 51.223c34.918 6.389 61.469 37.041 61.469 73.777 0 13.913-3.949 27.517-11.163 39.242 19.18 13.89 31.163 36.437 31.163 60.758 0 22.735-10.154 43.754-27.265 57.822 4.783 9.98 7.265 20.883 7.265 32.178 0 41.355-33.645 75-75 75z" fill="#8ee26b"/><path d="m416 390c41.355 0 75-33.645 75-75 0-11.295-2.482-22.198-7.265-32.178 17.111-14.068 27.265-35.087 27.265-57.822 0-24.321-11.983-46.868-31.163-60.758 7.214-11.725 11.163-25.329 11.163-39.242 0-36.736-26.551-67.388-61.469-73.777-6.336-29.247-32.415-51.223-63.531-51.223v370.894c13.589 12.179 31.294 19.106 50 19.106z" fill="#00a763"/><path d="m381 497v-185.787l45.606-45.606c5.858-5.858 5.858-15.355 0-21.213-5.857-5.858-15.355-5.858-21.213 0l-24.393 24.393v-87.574l45.606-45.606c5.858-5.858 5.858-15.355 0-21.213-5.857-5.858-15.355-5.858-21.213 0l-24.393 24.393v-23.787c0-8.284-6.716-15-15-15s-15 6.716-15 15v103.787l-24.394-24.394c-5.857-5.858-15.355-5.858-21.213 0s-5.858 15.355 0 21.213l45.607 45.607v235.787z" fill="#b46e3d"/><path d="m381 497v-185.787l45.606-45.606c5.858-5.858 5.858-15.355 0-21.213-5.857-5.858-15.355-5.858-21.213 0l-24.393 24.393v-87.574l45.606-45.606c5.858-5.858 5.858-15.355 0-21.213-5.857-5.858-15.355-5.858-21.213 0l-24.393 24.393v-23.787c0-8.284-6.716-15-15-15v397z" fill="#8e4712"/><path d="m196 390c-18.706 0-36.411-6.927-50-19.106-13.589 12.179-31.294 19.106-50 19.106-41.355 0-75-33.645-75-75 0-11.295 2.482-22.198 7.265-32.178-17.111-14.068-27.265-35.087-27.265-57.822 0-24.321 11.983-46.868 31.163-60.758-7.214-11.726-11.163-25.329-11.163-39.242 0-36.736 26.551-67.388 61.469-73.777 6.336-29.247 32.415-51.223 63.531-51.223s57.195 21.976 63.531 51.223c34.918 6.389 61.469 37.041 61.469 73.777 0 13.913-3.949 27.517-11.163 39.242 19.18 13.89 31.163 36.437 31.163 60.758 0 22.735-10.154 43.754-27.265 57.822 4.783 9.98 7.265 20.883 7.265 32.178 0 41.355-33.645 75-75 75z" fill="#8ee26b"/><path d="m196 390c41.355 0 75-33.645 75-75 0-11.295-2.482-22.198-7.265-32.178 17.111-14.068 27.265-35.087 27.265-57.822 0-24.321-11.983-46.868-31.163-60.758 7.214-11.725 11.163-25.329 11.163-39.242 0-36.736-26.551-67.388-61.469-73.777-6.336-29.247-32.415-51.223-63.531-51.223v370.894c13.589 12.179 31.294 19.106 50 19.106z" fill="#00a763"/><path d="m161 497v-185.787l45.606-45.606c5.858-5.858 5.858-15.355 0-21.213-5.857-5.858-15.355-5.858-21.213 0l-24.393 24.393v-87.574l45.606-45.606c5.858-5.858 5.858-15.355 0-21.213-5.857-5.858-15.355-5.858-21.213 0l-24.393 24.393v-23.787c0-8.284-6.716-15-15-15s-15 6.716-15 15v103.787l-24.394-24.394c-5.857-5.858-15.355-5.858-21.213 0s-5.858 15.355 0 21.213l45.607 45.607v235.787z" fill="#b46e3d"/><path d="m161 497v-185.787l45.606-45.606c5.858-5.858 5.858-15.355 0-21.213-5.857-5.858-15.355-5.858-21.213 0l-24.393 24.393v-87.574l45.606-45.606c5.858-5.858 5.858-15.355 0-21.213-5.857-5.858-15.355-5.858-21.213 0l-24.393 24.393v-23.787c0-8.284-6.716-15-15-15v397z" fill="#8e4712"/><path d="m456 512h-400c-8.284 0-15-6.716-15-15s6.716-15 15-15h400c8.284 0 15 6.716 15 15s-6.716 15-15 15z" fill="#8ee26b"/><path d="m456 482h-200v30h200c8.284 0 15-6.716 15-15s-6.716-15-15-15z" fill="#00a763"/></g></svg>