<svg id="Capa_1" enable-background="new 0 0 512 512" height="512" viewBox="0 0 512 512" width="512" xmlns="http://www.w3.org/2000/svg"><g><path d="m211 75h90v422h-90z" fill="#b46e3d"/><path d="m256 75h45v422h-45z" fill="#8e4712"/><path d="m211 412h90v30h-90z" fill="#8e4712"/><path d="m256 412h45v30h-45z" fill="#70380f"/><g fill="#8e4712"><path d="m356 180h-200c-30.327 0-55-24.673-55-55v-20c0-8.284 6.716-15 15-15s15 6.716 15 15v20c0 13.785 11.215 25 25 25h200c13.785 0 25-11.215 25-25v-20c0-8.284 6.716-15 15-15s15 6.716 15 15v20c0 30.327-24.673 55-55 55z"/><path d="m396 270h-280c-30.327 0-55-24.673-55-55v-20c0-8.284 6.716-15 15-15s15 6.716 15 15v20c0 13.785 11.215 25 25 25h280c13.785 0 25-11.215 25-25v-20c0-8.284 6.716-15 15-15s15 6.716 15 15v20c0 30.327-24.673 55-55 55z"/><path d="m436 360h-360c-30.327 0-55-24.673-55-55v-20c0-8.284 6.716-15 15-15s15 6.716 15 15v20c0 13.785 11.215 25 25 25h360c13.785 0 25-11.215 25-25v-20c0-8.284 6.716-15 15-15s15 6.716 15 15v20c0 30.327-24.673 55-55 55z"/></g><path d="m396 90c-8.284 0-15 6.716-15 15v20c0 13.785-11.215 25-25 25h-100v30h100c30.327 0 55-24.673 55-55v-20c0-8.284-6.716-15-15-15z" fill="#70380f"/><path d="m436 180c-8.284 0-15 6.716-15 15v20c0 13.785-11.215 25-25 25h-140v30h140c30.327 0 55-24.673 55-55v-20c0-8.284-6.716-15-15-15z" fill="#70380f"/><path d="m476 270c-8.284 0-15 6.716-15 15v20c0 13.785-11.215 25-25 25h-180v30h180c30.327 0 55-24.673 55-55v-20c0-8.284-6.716-15-15-15z" fill="#70380f"/><path d="m296 90h-80c-30.327 0-55-24.673-55-55v-20c0-8.284 6.716-15 15-15s15 6.716 15 15v20c0 13.785 11.215 25 25 25h80c13.785 0 25-11.215 25-25v-20c0-8.284 6.716-15 15-15s15 6.716 15 15v20c0 30.327-24.673 55-55 55z" fill="#8e4712"/><path d="m336 0c-8.284 0-15 6.716-15 15v20c0 13.785-11.215 25-25 25h-40v30h40c30.327 0 55-24.673 55-55v-20c0-8.284-6.716-15-15-15z" fill="#70380f"/><path d="m386 512h-260c-8.284 0-15-6.716-15-15s6.716-15 15-15h260c8.284 0 15 6.716 15 15s-6.716 15-15 15z" fill="#8ee26b"/><path d="m386 482h-130v30h130c8.284 0 15-6.716 15-15s-6.716-15-15-15z" fill="#00a763"/></g></svg>