<svg id="Capa_1" enable-background="new 0 0 512 512" height="512" viewBox="0 0 512 512" width="512" xmlns="http://www.w3.org/2000/svg"><g><path d="m131 292h-80c-8.284 0-15-6.716-15-15 0-8.284 6.716-15 15-15h80z" fill="#8e4712"/><path d="m151 92h-80c-8.284 0-15-6.716-15-15 0-8.284 6.716-15 15-15h80z" fill="#8e4712"/><path d="m196.978 364.191-136.585-136.584c-5.858-5.858-5.858-15.355 0-21.213 5.858-5.858 15.355-5.858 21.213 0l136.584 136.584z" fill="#8e4712"/><path d="m217.654 164.868-137.261-137.261c-5.858-5.858-5.858-15.355 0-21.213 5.858-5.858 15.355-5.858 21.213 0l137.261 137.261z" fill="#8e4712"/><g fill="#70380f"><path d="m378.138 334.718-30.001-50c-4.262-7.104-1.959-16.318 5.145-20.58 7.104-4.262 16.317-1.959 20.579 5.145l30.001 50z"/><path d="m381 322h80c8.284 0 15 6.716 15 15 0 8.284-6.716 15-15 15h-80z"/><path d="m351 142h80c8.284 0 15 6.716 15 15 0 8.284-6.716 15-15 15h-80z"/><path d="m311.602 427.612-21.213-21.213 140.005-140.005c5.858-5.858 15.355-5.858 21.213 0 5.858 5.858 5.858 15.355 0 21.213z"/><path d="m291.864 237.349-21.213-21.213 129.742-129.743c5.858-5.858 15.355-5.858 21.213 0 5.858 5.858 5.858 15.355 0 21.213z"/></g><path d="m166.08 495.452 47.937-462.107c1.971-19.01 17.871-33.345 36.983-33.345 19.111 0 35.011 14.335 36.983 33.345l47.937 462.107z" fill="#b46e3d"/><path d="m335.92 495.452-47.937-462.107c-1.972-19.01-17.872-33.345-36.983-33.345v495.452z" fill="#8e4712"/><path d="m401 512h-300c-8.284 0-15-6.716-15-15s6.716-15 15-15h300c8.284 0 15 6.716 15 15s-6.716 15-15 15z" fill="#8ee26b"/><path d="m401 482h-150v30h150c8.284 0 15-6.716 15-15s-6.716-15-15-15z" fill="#00a763"/></g></svg>