<svg id="Capa_1" enable-background="new 0 0 512 512" height="512" viewBox="0 0 512 512" width="512" xmlns="http://www.w3.org/2000/svg"><g><path d="m401.15 82.881 10-70c1.172-8.201 8.769-13.899 16.971-12.728 8.201 1.171 13.899 8.77 12.729 16.97l-10 70z" fill="#7d5c40"/><path d="m455.37 63.287 50 40c6.47 5.175 7.518 14.614 2.343 21.083-2.962 3.703-7.322 5.63-11.723 5.63-3.286 0-6.595-1.075-9.36-3.288l-50-40z" fill="#7d5c40"/><path d="m81.15 117.121-10-70c-1.171-8.201 4.527-15.799 12.729-16.97 8.193-1.176 15.799 4.527 16.971 12.728l10 70z" fill="#b48e6e"/><path d="m75.37 116.713-50 40c-2.765 2.212-6.074 3.288-9.36 3.288-4.4 0-8.76-1.927-11.723-5.63-5.175-6.469-4.127-15.909 2.343-21.083l50-40z" fill="#b48e6e"/><path d="m184.284 203.782c-3.839 0-7.678-1.464-10.606-4.394-5.858-5.858-5.858-15.355 0-21.213l7.071-7.071c6.61-6.611 10.251-15.4 10.251-24.749s-3.641-18.138-10.251-24.749c-12.277-12.277-19.038-28.6-19.038-45.962s6.761-33.685 19.038-45.962l7.071-7.071c5.857-5.858 15.355-5.858 21.213 0s5.858 15.355 0 21.213l-7.071 7.071c-6.61 6.611-10.251 15.4-10.251 24.749s3.641 18.138 10.251 24.749c12.277 12.277 19.038 28.6 19.038 45.962s-6.761 33.685-19.038 45.962l-7.071 7.071c-2.929 2.929-6.768 4.394-10.607 4.394z" fill="#b48e6e"/><path d="m396 150c-8.284 0-15-6.716-15-15v-10c0-35.841 29.159-65 65-65 19.299 0 35-15.701 35-35v-10c0-8.284 6.716-15 15-15s15 6.716 15 15v10c0 35.841-29.159 65-65 65-19.299 0-35 15.701-35 35v10c0 8.284-6.716 15-15 15z" fill="#7d5c40"/><path d="m293.713 113.602-35-50c-4.751-6.787-3.101-16.14 3.687-20.891 6.784-4.75 16.139-3.101 20.89 3.687l35 50z" fill="#7d5c40"/><path d="m88.844 272.401c-4.729 0-9.383-2.23-12.301-6.399l-37.831-54.044c-4.751-6.787-3.101-16.14 3.687-20.891 6.784-4.75 16.139-3.101 20.89 3.687l37.831 54.044c4.751 6.787 3.101 16.14-3.687 20.891-2.618 1.832-5.619 2.712-8.589 2.712z" fill="#b48e6e"/><path d="m116 180c-8.284 0-15-6.716-15-15v-10c0-19.299-15.701-35-35-35-35.841 0-65-29.159-65-65v-10c0-8.284 6.716-15 15-15s15 6.716 15 15v10c0 19.299 15.701 35 35 35 35.841 0 65 29.159 65 65v10c0 8.284-6.716 15-15 15z" fill="#b48e6e"/><path d="m58.427 282.969c-16.646 0-33.29-6.335-45.962-19.007l-7.071-7.072c-5.858-5.858-5.858-15.355 0-21.213 5.857-5.858 15.355-5.858 21.213 0l7.071 7.071c6.61 6.61 15.4 10.251 24.749 10.251s18.138-3.641 24.748-10.251c25.344-25.344 66.58-25.344 91.924 0l7.071 7.07c5.857 5.857 5.858 15.355.001 21.213-5.859 5.857-15.354 5.858-21.214 0l-7.071-7.071c-6.611-6.611-15.4-10.252-24.749-10.252s-18.138 3.641-24.748 10.251c-12.672 12.674-29.318 19.01-45.962 19.01z" fill="#b48e6e"/><g fill="#7d5c40"><path d="m461.072 228.156 46.451 55.741c5.304 6.364 4.443 15.823-1.921 21.126-2.804 2.336-6.209 3.477-9.595 3.477-4.298 0-8.564-1.837-11.531-5.397l-46.451-55.741z"/><path d="m453.573 253.145c-17.362 0-33.685-6.762-45.961-19.039-13.646-13.646-35.851-13.646-49.498 0l-7.071 7.071c-5.857 5.858-15.355 5.858-21.213 0s-5.858-15.355 0-21.213l7.071-7.071c12.276-12.277 28.6-19.039 45.962-19.039s33.685 6.762 45.961 19.039c6.611 6.61 15.4 10.251 24.749 10.251s18.138-3.641 24.749-10.251l7.071-7.071c5.857-5.858 15.355-5.858 21.213 0s5.858 15.355 0 21.213l-7.071 7.071c-12.276 12.278-28.599 19.039-45.962 19.039z"/><path d="m319.328 181.819c-3.839 0-7.676-1.464-10.605-4.392l-3.328-3.328c-25.345-25.345-25.345-66.582-.001-91.925 6.61-6.611 10.251-15.399 10.251-24.749 0-9.349-3.641-18.138-10.251-24.749l-7.071-7.07c-5.857-5.857-5.858-15.355-.001-21.213 5.859-5.857 15.354-5.858 21.214 0l7.071 7.071c12.277 12.277 19.038 28.6 19.038 45.962s-6.761 33.686-19.038 45.962c-13.646 13.646-13.646 35.851 0 49.498l3.327 3.325c5.858 5.857 5.859 15.354.003 21.213-2.929 2.93-6.77 4.395-10.609 4.395z"/><path d="m196 300c-3.94 0-7.768-1.554-10.606-4.394l-78.786-78.787c-17.546-17.545-17.546-46.094 0-63.639 8.498-8.5 19.799-13.181 31.819-13.181s23.32 4.681 31.819 13.181l62.04 62.04c4.354 4.354 5.605 10.929 3.153 16.578l-25.68 59.174c-1.977 4.555-6.079 7.836-10.957 8.764-.932.177-1.87.264-2.802.264z"/></g><path d="m313.412 272.587c-3.675 0-7.354-1.343-10.241-4.041l-43.86-40.993c-2.971-2.777-4.687-6.64-4.756-10.706-.068-4.065 1.517-7.985 4.392-10.86l82.808-82.808c17.545-17.545 46.095-17.546 63.64 0 17.544 17.545 17.544 46.094.001 63.639l-81.375 81.375c-2.925 2.925-6.765 4.394-10.609 4.394z" fill="#5c452e"/><path d="m142.142 502.74c-2.321-5.605-1.038-12.057 3.252-16.347 22.96-22.961 35.606-53.49 35.606-85.961v-125.432c0-41.355 33.645-75 75-75s75 33.645 75 75v125.432c0 32.472 12.646 63 35.606 85.962 4.29 4.29 5.573 10.742 3.252 16.347h-227.716z" fill="#b48e6e"/><path d="m369.858 502.74c2.321-5.605 1.038-12.057-3.252-16.347-22.961-22.961-35.606-53.49-35.606-85.961v-125.432c0-41.355-33.645-75-75-75v302.74z" fill="#7d5c40"/><path d="m436 512h-360c-8.284 0-15-6.716-15-15s6.716-15 15-15h360c8.284 0 15 6.716 15 15s-6.716 15-15 15z" fill="#8ee26b"/><path d="m436 482h-180v30h180c8.284 0 15-6.716 15-15s-6.716-15-15-15z" fill="#00a763"/></g></svg>