<svg id="Capa_1" enable-background="new 0 0 512 512" height="512" viewBox="0 0 512 512" width="512" xmlns="http://www.w3.org/2000/svg"><g><path d="m336 140h-50c-24.813 0-45-20.187-45-45v-60c0-8.284 6.716-15 15-15s15 6.716 15 15v60c0 8.271 6.729 15 15 15h50z" fill="#8e4712"/><path d="m286 140h50v-30h-50c-8.271 0-15-6.729-15-15v-60c0-8.284-6.716-15-15-15v108.505c7.968 7.142 18.483 11.495 30 11.495z" fill="#70380f"/><path d="m241 335v-160c0-8.284 6.716-15 15-15s15 6.716 15 15v160z" fill="#8e4712"/><path d="m271 335v-160c0-8.284-6.716-15-15-15v175z" fill="#70380f"/><path d="m351 335v162h-190v-162z" fill="#8e4712"/><path d="m256 335h95v162h-95z" fill="#70380f"/><path d="m416 90h50c8.271 0 15-6.729 15-15v-60c0-8.284 6.716-15 15-15s15 6.716 15 15v60c0 24.813-20.187 45-45 45h-50z" fill="#70380f"/><path d="m336 160h50c8.271 0 15-6.729 15-15v-90c0-8.284 6.716-15 15-15s15 6.716 15 15v90c0 24.813-20.187 45-45 45h-50z" fill="#70380f"/><path d="m416 270h-50c-24.813 0-45-20.187-45-45v-100c0-8.284 6.716-15 15-15s15 6.716 15 15v100c0 8.271 6.729 15 15 15h50z" fill="#70380f"/><g fill="#8e4712"><path d="m96 70h50c8.271 0 15-6.729 15-15v-40c0-8.284 6.716-15 15-15s15 6.716 15 15v40c0 24.813-20.187 45-45 45h-50z"/><path d="m96 140h-50c-24.813 0-45-20.187-45-45v-40c0-8.284 6.716-15 15-15s15 6.716 15 15v40c0 8.271 6.729 15 15 15h50z"/><path d="m176 190h-50c-24.813 0-45-20.187-45-45v-90c0-8.284 6.716-15 15-15s15 6.716 15 15v90c0 8.271 6.729 15 15 15h50z"/><path d="m96 240h50c8.271 0 15-6.729 15-15v-80c0-8.284 6.716-15 15-15s15 6.716 15 15v80c0 24.813-20.187 45-45 45h-50z"/></g><path d="m416 512h-320c-8.284 0-15-6.716-15-15s6.716-15 15-15h320c8.284 0 15 6.716 15 15s-6.716 15-15 15z" fill="#8ee26b"/><path d="m416 482h-160v30h160c8.284 0 15-6.716 15-15s-6.716-15-15-15z" fill="#00a763"/><g><path d="m126 350c-24.813 0-45-20.187-45-45v-35h-35c-24.813 0-45-20.187-45-45v-50c0-8.284 6.716-15 15-15s15 6.716 15 15v50c0 8.271 6.729 15 15 15h50c8.284 0 15 6.716 15 15v50c0 8.271 6.729 15 15 15h260c8.271 0 15-6.729 15-15v-50c0-8.284 6.716-15 15-15h50c8.271 0 15-6.729 15-15v-50c0-8.284 6.716-15 15-15s15 6.716 15 15v50c0 24.813-20.187 45-45 45h-35v35c0 24.813-20.187 45-45 45z" fill="#8e4712"/></g><path d="m496 160c-8.284 0-15 6.716-15 15v50c0 8.271-6.729 15-15 15h-50c-8.284 0-15 6.716-15 15v50c0 8.271-6.729 15-15 15h-130v30h130c24.813 0 45-20.187 45-45v-35h35c24.813 0 45-20.187 45-45v-50c0-8.284-6.716-15-15-15z" fill="#70380f"/></g></svg>