<svg id="Capa_1" enable-background="new 0 0 512 512" height="512" viewBox="0 0 512 512" width="512" xmlns="http://www.w3.org/2000/svg"><g><path d="m191 497v-145h130v145z" fill="#b46e3d"/><path d="m256 352h65v145h-65z" fill="#8e4712"/><path d="m406 512h-300c-8.284 0-15-6.716-15-15s6.716-15 15-15h300c8.284 0 15 6.716 15 15s-6.716 15-15 15z" fill="#8ee26b"/><path d="m406 482h-150v30h150c8.284 0 15-6.716 15-15s-6.716-15-15-15z" fill="#00a763"/><path d="m256 400c-73.455 0-142.513-28.604-194.454-80.545-2.813-2.813-4.394-6.628-4.394-10.606s1.581-7.793 4.394-10.606l69.766-69.766c2.813-2.813 6.628-4.394 10.606-4.394h228.164c3.978 0 7.793 1.581 10.606 4.394l69.766 69.766c2.813 2.813 4.394 6.628 4.394 10.606 0 3.979-1.581 7.793-4.394 10.606-51.941 51.94-120.999 80.545-194.454 80.545z" fill="#59b154"/><path d="m380.689 228.476c-2.813-2.813-6.628-4.394-10.606-4.394h-114.083v175.918c73.455 0 142.513-28.604 194.454-80.545 2.813-2.813 4.394-6.628 4.394-10.606s-1.581-7.793-4.394-10.606z" fill="#337030"/><path d="m256 290c-57.428 0-111.419-22.364-152.028-62.973-2.813-2.813-4.394-6.628-4.394-10.606 0-3.979 1.581-7.793 4.394-10.606l77.083-77.083c2.813-2.813 6.628-4.394 10.606-4.394h128.677c3.978 0 7.793 1.58 10.606 4.394l77.083 77.083c2.813 2.813 4.394 6.628 4.394 10.606s-1.58 7.793-4.394 10.606c-40.607 40.609-94.599 62.973-152.027 62.973z" fill="#337030"/><path d="m330.945 128.732c-2.813-2.813-6.628-4.394-10.606-4.394h-64.339v165.662c57.428 0 111.419-22.364 152.028-62.973 2.813-2.813 4.394-6.628 4.394-10.606 0-3.979-1.581-7.793-4.394-10.606z" fill="#3b4a17"/><path d="m256 169.927c-39.692 0-79.384-15.108-109.601-45.326-5.858-5.858-5.858-15.355 0-21.213l98.995-98.995c5.857-5.858 15.355-5.858 21.213 0l98.995 98.995c5.858 5.858 5.858 15.355 0 21.213-30.218 30.218-69.91 45.326-109.602 45.326z" fill="#59b154"/><path d="m365.601 124.601c5.858-5.858 5.858-15.355 0-21.213l-98.994-98.994c-2.929-2.929-6.768-4.394-10.607-4.394v169.927c39.692 0 79.384-15.108 109.601-45.326z" fill="#337030"/></g></svg>