<svg id="Capa_1" enable-background="new 0 0 512 512" height="512" viewBox="0 0 512 512" width="512" xmlns="http://www.w3.org/2000/svg"><g><path d="m196 290h-70c-35.841 0-65-29.159-65-65v-70c0-8.284 6.716-15 15-15s15 6.716 15 15v70c0 19.299 15.701 35 35 35h70c8.284 0 15 6.716 15 15s-6.716 15-15 15z" fill="#7d5c40"/><path d="m256 230c-30.327 0-55-24.673-55-55v-110c0-8.284 6.716-15 15-15s15 6.716 15 15v110c0 13.785 11.215 25 25 25s25-11.215 25-25v-110c0-8.284 6.716-15 15-15s15 6.716 15 15v110c0 30.327-24.673 55-55 55z" fill="#7d5c40"/><g fill="#5c452e"><path d="m311 175v-110c0-8.284-6.716-15-15-15s-15 6.716-15 15v110c0 13.785-11.215 25-25 25v30c30.327 0 55-24.673 55-55z"/><path d="m366 240h45c13.785 0 25-11.215 25-25v-40c0-8.284 6.716-15 15-15s15 6.716 15 15v40c0 30.327-24.673 55-55 55h-45z"/><path d="m336 330h-20c-8.284 0-15-6.716-15-15s6.716-15 15-15h20c8.271 0 15-6.729 15-15v-170c0-8.284 6.716-15 15-15s15 6.716 15 15v170c0 24.813-20.187 45-45 45z"/></g><path d="m142.142 502.74c-2.321-5.605-1.038-12.057 3.252-16.347 22.96-22.961 35.606-53.489 35.606-85.961v-125.432c0-41.355 33.645-75 75-75s75 33.645 75 75v125.432c0 32.472 12.646 63 35.606 85.962 4.29 4.29 5.573 10.742 3.252 16.347h-227.716z" fill="#b48e6e"/><path d="m369.858 502.74c2.321-5.605 1.038-12.057-3.252-16.347-22.96-22.961-35.606-53.489-35.606-85.961v-125.432c0-41.355-33.645-75-75-75v302.74z" fill="#7d5c40"/><path d="m436 512h-360c-8.284 0-15-6.716-15-15s6.716-15 15-15h360c8.284 0 15 6.716 15 15s-6.716 15-15 15z" fill="#8ee26b"/><path d="m436 482h-180v30h180c8.284 0 15-6.716 15-15s-6.716-15-15-15z" fill="#00a763"/><path d="m321 80h-130c-22.091 0-40-17.909-40-40 0-22.091 17.909-40 40-40h130c22.091 0 40 17.909 40 40 0 22.091-17.909 40-40 40z" fill="#8ee26b"/><path d="m321 0h-65v80h65c22.091 0 40-17.909 40-40 0-22.091-17.909-40-40-40z" fill="#00a763"/><path d="m406 120h-80c-19.33 0-35-15.67-35-35 0-19.33 15.67-35 35-35h80c19.33 0 35 15.67 35 35 0 19.33-15.67 35-35 35z" fill="#007845"/><path d="m476 180h-50c-19.33 0-35-15.67-35-35 0-19.33 15.67-35 35-35h50c19.33 0 35 15.67 35 35 0 19.33-15.67 35-35 35z" fill="#00a763"/><path d="m116 160h-80c-19.33 0-35-15.67-35-35 0-19.33 15.67-35 35-35h80c19.33 0 35 15.67 35 35 0 19.33-15.67 35-35 35z" fill="#8ee26b"/></g></svg>