<svg id="Capa_1" enable-background="new 0 0 512 512" height="512" viewBox="0 0 512 512" width="512" xmlns="http://www.w3.org/2000/svg"><g><path d="m396 390h-280c-24.813 0-45-20.187-45-45v-160c0-102.009 82.991-185 185-185 102.01 0 185 82.991 185 185v160c0 24.813-20.187 45-45 45z" fill="#ff8c44"/><path d="m396 390c24.813 0 45-20.187 45-45v-160c0-102.009-82.99-185-185-185v390z" fill="#ff4d05"/><path d="m256 260c-8.284 0-15-6.716-15-15v-90c0-8.284 6.716-15 15-15s15 6.716 15 15v90c0 8.284-6.716 15-15 15z" fill="#b46e3d"/><path d="m271 245v-90c0-8.284-6.716-15-15-15v120c8.284 0 15-6.716 15-15z" fill="#8e4712"/><path d="m181 497v-175.944c0-17.55-8.718-33.84-23.321-43.575-5.8-3.867-8.172-11.22-5.724-17.748l30-80c1.791-4.775 5.885-8.313 10.87-9.393 4.984-1.08 10.176.447 13.782 4.054l49.393 49.393 49.394-49.393c3.605-3.606 8.795-5.133 13.782-4.054 4.984 1.08 9.078 4.618 10.869 9.393l30 80c2.448 6.527.076 13.881-5.725 17.748-14.603 9.735-23.32 26.025-23.32 43.575v175.944z" fill="#b46e3d"/><path d="m331 497v-175.944c0-17.55 8.718-33.84 23.32-43.575 5.801-3.867 8.173-11.22 5.725-17.748l-30-80c-1.791-4.775-5.885-8.313-10.869-9.393-4.987-1.08-10.177.447-13.782 4.054l-49.394 49.393v273.213z" fill="#8e4712"/><path d="m396 512h-280c-8.284 0-15-6.716-15-15s6.716-15 15-15h280c8.284 0 15 6.716 15 15s-6.716 15-15 15z" fill="#8ee26b"/><path d="m396 482h-140v30h140c8.284 0 15-6.716 15-15s-6.716-15-15-15z" fill="#00a763"/></g></svg>