<svg id="Capa_1" enable-background="new 0 0 512 512" height="512" viewBox="0 0 512 512" width="512" xmlns="http://www.w3.org/2000/svg"><g><path d="m366 370h-220c-57.897 0-105-47.103-105-105 0-29.891 12.895-58.326 34.98-78.138-3.308-10.301-4.98-20.976-4.98-31.862 0-27.934 10.849-54.223 30.548-74.024 17.556-17.646 40.303-28.297 64.814-30.516 18.999-31.338 52.584-50.46 89.638-50.46s70.639 19.122 89.638 50.46c24.512 2.219 47.259 12.87 64.814 30.516 19.699 19.801 30.548 46.09 30.548 74.024 0 10.886-1.672 21.561-4.98 31.862 22.085 19.812 34.98 48.247 34.98 78.138 0 57.897-47.103 105-105 105z" fill="#8ee26b"/><path d="m366 370c57.897 0 105-47.103 105-105 0-29.891-12.895-58.326-34.98-78.138 3.308-10.301 4.98-20.976 4.98-31.862 0-27.934-10.849-54.223-30.548-74.024-17.556-17.646-40.303-28.297-64.814-30.516-18.999-31.338-52.584-50.46-89.638-50.46v370z" fill="#00a763"/><path d="m326 270h-30c-8.284 0-15-6.716-15-15s6.716-15 15-15h30c8.271 0 15-6.729 15-15v-70c0-8.284 6.716-15 15-15s15 6.716 15 15v70c0 24.813-20.187 45-45 45z" fill="#8e4712"/><path d="m216 300h-30c-24.813 0-45-20.187-45-45v-50c0-8.284 6.716-15 15-15s15 6.716 15 15v50c0 8.271 6.729 15 15 15h30c8.284 0 15 6.716 15 15s-6.716 15-15 15z" fill="#b46e3d"/><path d="m172.947 504.391c-2.663-4.703-2.59-10.474.19-15.108 18.228-30.379 27.863-65.163 27.863-100.593v-193.69c0-8.284 6.716-15 15-15h80c8.284 0 15 6.716 15 15v193.69c0 35.429 9.635 70.213 27.862 100.592 2.78 4.634 2.854 10.406.19 15.108h-166.105z" fill="#b46e3d"/><path d="m311 388.69v-193.69c0-8.284-6.716-15-15-15h-40v324.391h83.053c2.663-4.703 2.59-10.474-.19-15.108-18.228-30.379-27.863-65.163-27.863-100.593z" fill="#8e4712"/><path d="m396 512h-280c-8.284 0-15-6.716-15-15s6.716-15 15-15h280c8.284 0 15 6.716 15 15s-6.716 15-15 15z" fill="#8ee26b"/><path d="m396 482h-140v30h140c8.284 0 15-6.716 15-15s-6.716-15-15-15z" fill="#00a763"/></g></svg>