<svg id="Capa_1" enable-background="new 0 0 512 512" height="512" viewBox="0 0 512 512" width="512" xmlns="http://www.w3.org/2000/svg"><g><path d="m181.058 495.691 28.038-320c.679-7.747 7.166-13.691 14.942-13.691h63.924c7.776 0 14.264 5.944 14.942 13.691l28.038 320z" fill="#b46e3d"/><g fill="#8e4712"><path d="m287.962 162h-31.962v333.691h74.942l-28.038-320c-.678-7.747-7.166-13.691-14.942-13.691z"/><path d="m191.194 380h44.806c8.284 0 15-6.716 15-15s-6.716-15-15-15h-42.177z"/><path d="m201.709 260h34.291c8.284 0 15-6.716 15-15s-6.716-15-15-15h-31.663z"/></g><path d="m312.92 290h-36.92c-8.284 0-15 6.716-15 15s6.716 15 15 15h39.549z" fill="#70380f"/><path d="m323.434 410h-47.434c-8.284 0-15 6.716-15 15s6.716 15 15 15h50.063z" fill="#70380f"/><path d="m416 512h-320c-8.284 0-15-6.716-15-15s6.716-15 15-15h320c8.284 0 15 6.716 15 15s-6.716 15-15 15z" fill="#8ee26b"/><path d="m416 482h-160v30h160c8.284 0 15-6.716 15-15s-6.716-15-15-15z" fill="#00a763"/><path d="m428.876 13.626c-1.604-5.294-5.99-9.277-11.415-10.362l-2.07-.414c-47.904-9.582-97.138 5.323-131.686 39.871-11.46 11.461-20.744 24.544-27.705 38.652-6.961-14.108-16.245-27.19-27.705-38.651-34.548-34.549-83.779-49.456-131.686-39.872l-2.07.414c-5.425 1.084-9.812 5.067-11.415 10.362-1.603 5.294-.162 11.042 3.75 14.953l117.775 117.775c.091.091.183.181.276.27l38.106 36.194c2.829 2.688 6.543 4.125 10.332 4.125.878 0 1.76-.087 2.636-.244.876.157 1.758.244 2.636.244 3.789 0 7.503-1.437 10.332-4.125l38.106-36.194c.094-.088.186-.178.276-.27l117.777-117.775c3.912-3.911 5.353-9.658 3.75-14.953z" fill="#59b154"/><path d="m417.461 3.264-2.07-.414c-47.904-9.582-97.138 5.323-131.686 39.871-11.46 11.46-20.744 24.543-27.705 38.651v105.327c.876.157 1.758.244 2.636.244 3.789 0 7.503-1.437 10.332-4.125l38.106-36.194c.094-.088.186-.178.276-.27l117.776-117.775c3.912-3.912 5.353-9.659 3.75-14.953-1.604-5.295-5.99-9.278-11.415-10.362z" fill="#337030"/><path d="m488.481 167.291-1.172-1.758c-27.1-40.653-72.45-64.923-121.309-64.923-42.588 0-82.505 18.445-110 50.102-27.494-31.657-67.411-50.102-110-50.102-48.859 0-94.209 24.27-121.311 64.924l-1.171 1.757c-3.068 4.603-3.354 10.521-.743 15.397s7.694 7.922 13.225 7.922h220 220c5.531 0 10.614-3.044 13.225-7.921s2.325-10.795-.744-15.398z" fill="#337030"/><path d="m487.31 165.533c-27.101-40.653-72.451-64.923-121.31-64.923-42.588 0-82.505 18.445-110 50.102v39.898h220c5.531 0 10.614-3.044 13.225-7.921s2.325-10.794-.743-15.397z" fill="#3b4a17"/><path d="m386.814 200.359c-34.339-34.34-83.184-49.263-130.815-40.032-47.631-9.228-96.476 5.693-130.814 40.032-34.548 34.547-49.453 83.776-39.872 131.687l.414 2.07c1.086 5.424 5.068 9.811 10.362 11.414 1.431.433 2.894.644 4.346.644 3.92 0 7.753-1.539 10.607-4.394l144.958-144.957 144.957 144.957c2.854 2.855 6.688 4.394 10.607 4.394 1.452 0 2.915-.211 4.346-.644 5.294-1.603 9.276-5.99 10.362-11.414l.414-2.071c9.582-47.91-5.324-97.139-39.872-131.686z" fill="#59b154"/><path d="m256 160.327v36.496l144.957 144.957c2.854 2.855 6.688 4.394 10.607 4.394 1.452 0 2.915-.211 4.346-.644 5.294-1.603 9.276-5.99 10.362-11.414l.414-2.071c9.581-47.91-5.324-97.139-39.872-131.686-34.338-34.34-83.184-49.263-130.814-40.032z" fill="#337030"/></g></svg>