<svg id="Capa_1" enable-background="new 0 0 512 512" height="512" viewBox="0 0 512 512" width="512" xmlns="http://www.w3.org/2000/svg"><g><path d="m181.06 495.652 26.163-290c.698-7.73 7.177-13.652 14.939-13.652h67.674c7.762 0 14.242 5.922 14.939 13.652l26.163 290z" fill="#b46e3d"/><g fill="#8e4712"><path d="m289.837 192h-33.837v303.652h74.939l-26.163-290c-.697-7.73-7.178-13.652-14.939-13.652z"/><path d="m188.419 414.089 101.894 81.563h40.626l-.574-6.367-138.713-111.034z"/><path d="m195.151 339.471 130.943 102.477-3.698-40.989-124.035-97.071z"/><path d="m201.892 264.746 116.436 91.124-3.698-40.989-109.528-85.718z"/></g><path d="m256 307.091 62.328 48.779-3.698-40.989-58.63-45.885z" fill="#70380f"/><path d="m256 387.091 70.094 54.857-3.698-40.989-66.396-51.962z" fill="#70380f"/><path d="m256 429.759v38.427l34.313 27.466h40.626l-.574-6.367z" fill="#70380f"/><path d="m433.35 20.503c-13.22-13.221-30.8-20.503-49.497-20.503s-36.276 7.282-49.497 20.503l-78.356 78.357-78.356-78.357c-13.221-13.221-30.8-20.503-49.498-20.503-18.697 0-36.276 7.282-49.497 20.503-3.905 3.905-3.905 10.237 0 14.143l169.705 169.705c1.953 1.952 4.512 2.929 7.071 2.929.192 0 .383-.016.575-.027.191.011.381.028.574.028 2.652 0 5.195-1.054 7.071-2.929l169.705-169.706c3.906-3.906 3.906-10.238 0-14.143z" fill="#8ee26b"/><path d="m499.596 163.948c-3.246-18.414-13.469-34.461-28.785-45.186s-33.894-14.847-52.306-11.596l-118.177 20.838c-18.5 3.261-34.013 13.563-44.309 27.651-10.714-14.678-26.4-24.486-44.349-27.651l-118.177-20.837c-38.009-6.709-74.389 18.769-81.091 56.781-.46 2.611.135 5.3 1.657 7.472 1.521 2.173 3.843 3.652 6.455 4.112l235.488 41.522 235.483-41.522c5.439-.959 9.07-6.145 8.111-11.584z" fill="#00a763"/><path d="m482.142 260.019c-6.395-17.569-19.249-31.598-36.194-39.5l-108.758-50.714c-28.331-13.21-61.08-5.756-81.177 16.133-7.508-8.211-16.926-14.555-27.68-18.469-17.569-6.395-36.578-5.564-53.524 2.337l-108.757 50.713c-16.946 7.902-29.8 21.93-36.195 39.5s-5.564 36.579 2.337 53.525c1.697 3.639 5.303 5.775 9.069 5.775 1.415 0 2.853-.302 4.22-.938l210.516-98.166 210.516 98.166c1.367.637 2.805.938 4.22.938 3.767 0 7.373-2.138 9.07-5.775 7.902-16.946 8.733-35.955 2.337-53.525z" fill="#8ee26b"/><path d="m383.853 0c-18.697 0-36.276 7.282-49.497 20.503l-78.356 78.357v108.393c.191.011.381.028.574.028 2.652 0 5.195-1.054 7.071-2.929l169.705-169.706c3.905-3.905 3.905-10.237 0-14.143-13.22-13.221-30.8-20.503-49.497-20.503z" fill="#00a763"/><path d="m470.811 118.763c-15.316-10.725-33.894-14.847-52.306-11.596l-118.177 20.838c-18.5 3.261-34.013 13.563-44.309 27.651-.007-.009-.014-.017-.02-.026v61.425h.003l235.483-41.522c5.439-.959 9.07-6.146 8.111-11.584-3.246-18.415-13.468-34.462-28.785-45.186z" fill="#007845"/><path d="m445.948 220.519-108.758-50.714c-28.331-13.21-61.08-5.756-81.177 16.133-.005-.005-.009-.01-.014-.015v34.292l210.516 98.166c1.367.637 2.805.938 4.22.938 3.767 0 7.373-2.138 9.07-5.775 7.901-16.946 8.732-35.955 2.337-53.525-6.394-17.57-19.249-31.598-36.194-39.5z" fill="#00a763"/><path d="m406 512h-300c-8.284 0-15-6.716-15-15s6.716-15 15-15h300c8.284 0 15 6.716 15 15s-6.716 15-15 15z" fill="#8ee26b"/><path d="m406 482h-150v30h150c8.284 0 15-6.716 15-15s-6.716-15-15-15z" fill="#00a763"/><path d="m216 250c-22.056 0-40-17.944-40-40s17.944-40 40-40 40 17.944 40 40-17.944 40-40 40z" fill="#c8a680"/><path d="m296 250c-22.056 0-40-17.944-40-40s17.944-40 40-40 40 17.944 40 40-17.944 40-40 40z" fill="#b46e3d"/></g></svg>