<svg id="Capa_1" enable-background="new 0 0 512 512" height="512" viewBox="0 0 512 512" width="512" xmlns="http://www.w3.org/2000/svg"><g><path d="m386 300h-90c-8.284 0-15-6.716-15-15s6.716-15 15-15h90c13.785 0 25-11.215 25-25v-30c0-8.284 6.716-15 15-15s15 6.716 15 15v30c0 30.327-24.673 55-55 55z" fill="#70380f"/><path d="m216 300h-90c-30.327 0-55-24.673-55-55v-30c0-8.284 6.716-15 15-15s15 6.716 15 15v30c0 13.785 11.215 25 25 25h90c8.284 0 15 6.716 15 15s-6.716 15-15 15z" fill="#8e4712"/><path d="m256 377c-66.274 0-120 53.726-120 120h240c0-66.274-53.726-120-120-120z" fill="#8e4712"/><path d="m376 497c0-66.274-53.726-120-120-120v120z" fill="#70380f"/><path d="m211 497v-337h90v337z" fill="#b46e3d"/><path d="m256 160h45v337h-45z" fill="#8e4712"/><path d="m456 512h-400c-8.284 0-15-6.716-15-15s6.716-15 15-15h400c8.284 0 15 6.716 15 15s-6.716 15-15 15z" fill="#8ee26b"/><path d="m456 482h-200v30h200c8.284 0 15-6.716 15-15s-6.716-15-15-15z" fill="#00a763"/><path d="m326 90h-140c-24.853 0-45-20.147-45-45 0-24.853 20.147-45 45-45h140c24.853 0 45 20.147 45 45 0 24.853-20.147 45-45 45z" fill="#00a763"/><path d="m326 0h-70v90h70c24.853 0 45-20.147 45-45 0-24.853-20.147-45-45-45z" fill="#007845"/><g><path d="m396 180h-280c-30.376 0-55-24.624-55-55 0-30.376 24.624-55 55-55h280c30.376 0 55 24.624 55 55 0 30.376-24.624 55-55 55z" fill="#8ee26b"/></g><path d="m396 70h-140v110h140c30.376 0 55-24.624 55-55 0-30.376-24.624-55-55-55z" fill="#00a763"/><path d="m136 220h-100c-19.33 0-35-15.67-35-35 0-19.33 15.67-35 35-35h100c19.33 0 35 15.67 35 35 0 19.33-15.67 35-35 35z" fill="#00a763"/><path d="m476 220h-100c-19.33 0-35-15.67-35-35 0-19.33 15.67-35 35-35h100c19.33 0 35 15.67 35 35 0 19.33-15.67 35-35 35z" fill="#007845"/></g></svg>