<svg id="Capa_1" enable-background="new 0 0 512 512" height="512" viewBox="0 0 512 512" width="512" xmlns="http://www.w3.org/2000/svg"><g><g fill="#8e4712"><path d="m71 277v-60c0-8.284 6.716-15 15-15s15 6.716 15 15v60z"/><path d="m116 322h-60c-8.284 0-15-6.716-15-15s6.716-15 15-15h60z"/><path d="m131 337v-60c0-8.284 6.716-15 15-15s15 6.716 15 15v60z"/><path d="m197.278 403.278c-3.839 0-7.678-1.465-10.606-4.394l-161.278-161.278c-5.858-5.857-5.858-15.355 0-21.213 5.857-5.857 15.355-5.857 21.213 0l161.278 161.278c5.858 5.857 5.858 15.355 0 21.213-2.929 2.929-6.768 4.394-10.607 4.394z"/><path d="m131 177v-60c0-8.284 6.716-15 15-15s15 6.716 15 15v60z"/><path d="m126 172h-60c-8.284 0-15-6.716-15-15s6.716-15 15-15h60z"/><path d="m212.315 258.315c-3.839 0-7.678-1.465-10.606-4.394l-136.315-136.315c-5.858-5.857-5.858-15.355 0-21.213 5.857-5.857 15.355-5.857 21.213 0l136.315 136.315c5.858 5.857 5.858 15.355 0 21.213-2.929 2.93-6.768 4.394-10.607 4.394z"/><path d="m161 77v-60c0-8.284 6.716-15 15-15s15 6.716 15 15v60z"/><path d="m224.534 140.534c-3.839 0-7.678-1.465-10.606-4.394l-98.534-98.534c-5.858-5.857-5.858-15.355 0-21.213 5.857-5.857 15.355-5.857 21.213 0l98.534 98.534c5.858 5.857 5.858 15.355 0 21.213-2.929 2.929-6.768 4.394-10.607 4.394z"/></g><path d="m321 77v-60c0-8.284 6.716-15 15-15s15 6.716 15 15v60z" fill="#70380f"/><path d="m287.467 140.534c-3.839 0-7.678-1.465-10.606-4.394-5.858-5.857-5.858-15.355 0-21.213l98.533-98.534c5.857-5.857 15.355-5.857 21.213 0s5.858 15.355 0 21.213l-98.533 98.534c-2.929 2.929-6.768 4.394-10.607 4.394z" fill="#70380f"/><path d="m351 177v-60c0-8.284 6.716-15 15-15s15 6.716 15 15v60z" fill="#70380f"/><path d="m386 142h60c8.284 0 15 6.716 15 15s-6.716 15-15 15h-60z" fill="#70380f"/><path d="m299.684 258.315c-3.839 0-7.678-1.464-10.606-4.394-5.858-5.857-5.858-15.355 0-21.213l136.316-136.314c5.857-5.858 15.355-5.858 21.213 0 5.858 5.857 5.858 15.355 0 21.213l-136.317 136.315c-2.929 2.929-6.769 4.393-10.606 4.393z" fill="#70380f"/><path d="m411 277v-60c0-8.284 6.716-15 15-15s15 6.716 15 15v60z" fill="#70380f"/><path d="m396 292h60c8.284 0 15 6.716 15 15s-6.716 15-15 15h-60z" fill="#70380f"/><path d="m351 337v-60c0-8.284 6.716-15 15-15s15 6.716 15 15v60z" fill="#70380f"/><path d="m314.722 403.278c-3.839 0-7.678-1.465-10.606-4.394-5.858-5.857-5.858-15.355 0-21.213l161.278-161.278c5.857-5.857 15.355-5.857 21.213 0s5.858 15.355 0 21.213l-161.279 161.279c-2.929 2.928-6.767 4.393-10.606 4.393z" fill="#70380f"/><path d="m171.08 495.452 47.937-462.106c1.972-19.01 17.872-33.346 36.983-33.346s35.011 14.336 36.983 33.346l47.937 462.106z" fill="#b46e3d"/><path d="m340.92 495.452-47.937-462.106c-1.972-19.01-17.872-33.346-36.983-33.346v495.452z" fill="#8e4712"/><path d="m436 512h-360c-8.284 0-15-6.716-15-15s6.716-15 15-15h360c8.284 0 15 6.716 15 15s-6.716 15-15 15z" fill="#8ee26b"/><path d="m436 482h-180v30h180c8.284 0 15-6.716 15-15s-6.716-15-15-15z" fill="#00a763"/></g></svg>