<svg id="Capa_1" enable-background="new 0 0 512 512" height="512" viewBox="0 0 512 512" width="512" xmlns="http://www.w3.org/2000/svg"><g><path d="m306 410c-17.658 0-35.042-5.01-50-14.271-14.958 9.261-32.342 14.271-50 14.271-52.383 0-95-42.617-95-95 0-1.798.053-3.599.157-5.401-32.658-12.231-55.157-43.748-55.157-79.599 0-18.649 5.931-36.353 17.151-51.196 7.3-9.657 16.673-17.678 27.252-23.457-2.903-8.076-4.403-16.632-4.403-25.347 0-41.355 33.645-75 75-75 2.991 0 5.964.176 8.908.525 4.227-13.188 11.844-25.138 22.248-34.642 14.74-13.466 33.862-20.883 53.844-20.883s39.104 7.417 53.845 20.884c10.403 9.504 18.021 21.453 22.248 34.642 2.943-.35 5.916-.526 8.907-.526 41.355 0 75 33.645 75 75 0 8.715-1.5 17.271-4.403 25.347 10.58 5.779 19.953 13.8 27.252 23.457 11.22 14.843 17.151 32.547 17.151 51.196 0 35.851-22.499 67.368-55.157 79.599.104 1.803.157 3.604.157 5.401 0 52.383-42.617 95-95 95z" fill="#00a763"/><path d="m306 410c52.383 0 95-42.617 95-95 0-1.798-.053-3.599-.157-5.401 32.658-12.231 55.157-43.748 55.157-79.599 0-18.649-5.931-36.353-17.151-51.196-7.3-9.657-16.673-17.678-27.252-23.457 2.903-8.076 4.403-16.632 4.403-25.347 0-41.355-33.645-75-75-75-2.991 0-5.964.176-8.908.525-4.227-13.188-11.844-25.138-22.248-34.642-14.74-13.466-33.862-20.883-53.844-20.883v395.729c14.958 9.261 32.342 14.271 50 14.271z" fill="#007845"/><circle cx="200" cy="134" fill="#fff05a" r="15"/><circle cx="308" cy="188" fill="#ffd228" r="15"/><circle cx="363" cy="235" fill="#ffd228" r="15"/><circle cx="143" cy="244" fill="#fff05a" r="15"/><circle cx="201" cy="325" fill="#fff05a" r="15"/><path d="m271 497v-155.787l45.606-45.606c5.858-5.857 5.858-15.355 0-21.213-5.857-5.857-15.355-5.857-21.213 0l-24.393 24.393v-138.787c0-8.284-6.716-15-15-15s-15 6.716-15 15v99.787l-24.394-24.394c-5.857-5.857-15.355-5.857-21.213 0s-5.858 15.355 0 21.213l45.607 45.607v194.787z" fill="#b46e3d"/><path d="m271 497v-155.787l45.606-45.606c5.858-5.857 5.858-15.355 0-21.213-5.857-5.857-15.355-5.857-21.213 0l-24.393 24.393v-138.787c0-8.284-6.716-15-15-15v352z" fill="#8e4712"/><path d="m356 512h-200c-8.284 0-15-6.716-15-15s6.716-15 15-15h200c8.284 0 15 6.716 15 15s-6.716 15-15 15z" fill="#8ee26b"/><path d="m356 482h-100v30h100c8.284 0 15-6.716 15-15s-6.716-15-15-15z" fill="#00a763"/></g></svg>