<svg id="Capa_1" enable-background="new 0 0 512 512" height="512" viewBox="0 0 512 512" width="512" xmlns="http://www.w3.org/2000/svg"><g><path d="m411 496.593v-19.593c0-35.841-29.159-65-65-65h-180c-35.841 0-65 29.159-65 65v19.6h-30v-19.6c0-52.383 42.617-95 95-95h180c52.383 0 95 42.617 95 95v19.593z" fill="#8e4712"/><path d="m346 382h-90v30h90c35.841 0 65 29.159 65 65v19.593h30v-19.593c0-52.383-42.617-95-95-95z" fill="#70380f"/><path d="m346 492.441c-8.284 0-15-6.716-15-15v-10.441c0-30.327-24.673-55-55-55h-40c-30.327 0-55 24.673-55 55v10.43c0 8.284-6.716 15-15 15s-15-6.716-15-15v-10.43c0-46.869 38.131-85 85-85h40c46.869 0 85 38.131 85 85v10.441c0 8.285-6.716 15-15 15z" fill="#b46e3d"/><path d="m276 382h-20v30h20c30.327 0 55 24.673 55 55v10.441c0 8.284 6.716 15 15 15s15-6.716 15-15v-10.441c0-46.869-38.131-85-85-85z" fill="#8e4712"/><path d="m241 497v-202c0-8.284 6.716-15 15-15s15 6.716 15 15v202z" fill="#b46e3d"/><path d="m271 497v-202c0-8.284-6.716-15-15-15v217z" fill="#8e4712"/><path d="m0 497v-20c0-8.284 6.725-15.001 15.009-15 23.596.002 35.937 6.149 46.825 11.574 9.45 4.707 16.914 8.426 33.458 8.426 16.549 0 24.016-3.719 33.469-8.427 10.892-5.425 23.237-11.573 46.843-11.573 23.612 0 35.961 6.148 46.855 11.572 9.457 4.709 16.927 8.428 33.485 8.428 16.55 0 24.017-3.719 33.47-8.427 10.893-5.425 23.238-11.573 46.846-11.573 23.619 0 35.971 6.147 46.869 11.571 9.461 4.709 16.935 8.429 33.501 8.429s24.04-3.72 33.501-8.429c10.896-5.423 23.246-11.57 46.858-11.571 8.285-.001 15.01 6.715 15.01 15v20c0 8.284-6.716 15-15 15h-481.999c-8.284 0-15-6.716-15-15z" fill="#78e0ea"/><path d="m496.99 462c-23.612.002-35.962 6.148-46.858 11.571-9.463 4.709-16.936 8.429-33.502 8.429s-24.04-3.72-33.501-8.429c-10.899-5.424-23.25-11.571-46.869-11.571-23.607 0-35.953 6.148-46.845 11.573-9.443 4.703-16.905 8.417-33.415 8.426v30.001h241c8.284 0 15-6.716 15-15v-20c0-8.285-6.726-15.001-15.01-15z" fill="#3cccdd"/><path d="m256 310c-35.946 0-68.409-20.446-84.453-51.515-9.555 4.258-19.976 6.515-30.547 6.515-41.355 0-75-33.645-75-75 0-38.087 28.534-69.633 65.349-74.382 4.812-64.561 58.881-115.618 124.651-115.618s119.839 51.057 124.651 115.618c36.815 4.749 65.349 36.295 65.349 74.382 0 41.355-33.645 75-75 75-10.571 0-20.992-2.257-30.547-6.515-16.044 31.069-48.507 51.515-84.453 51.515z" fill="#8ee26b"/><path d="m340.453 258.485c9.555 4.258 19.976 6.515 30.547 6.515 41.355 0 75-33.645 75-75 0-38.087-28.534-69.633-65.349-74.382-4.812-64.561-58.881-115.618-124.651-115.618v310c35.946 0 68.409-20.446 84.453-51.515z" fill="#00a763"/></g></svg>