<svg id="Capa_1" enable-background="new 0 0 512 512" height="512" viewBox="0 0 512 512" width="512" xmlns="http://www.w3.org/2000/svg"><g><g fill="#00a763"><path d="m177.599 153.813c-16.777 0-33.346-5.972-46.307-17.237l-6.133-5.331c-6.252-5.435-6.916-14.909-1.481-21.161s14.91-6.916 21.162-1.481l6.133 5.331c10.736 9.332 25.788 12.335 39.283 7.837 7.861-2.619 16.354 1.628 18.974 9.487s-1.628 16.354-9.487 18.974c-7.223 2.406-14.704 3.581-22.144 3.581z"/><path d="m75 164.923c-39.388 0-69.896-33.565-71.175-34.994-5.1-5.695-5.1-14.316 0-20.012 1.279-1.429 31.787-34.994 71.175-34.994s69.896 33.565 71.175 34.994c5.1 5.695 5.1 14.316 0 20.012-1.28 1.428-31.787 34.994-71.175 34.994z"/><path d="m317 391c-8.284 0-15-6.716-15-15s6.716-15 15-15c24.813 0 45-20.187 45-45 0-8.284 6.716-15 15-15s15 6.716 15 15c0 41.356-33.645 75-75 75z"/><path d="m437 361.961c-39.387 0-69.896-33.564-71.175-34.994-5.101-5.695-5.101-14.316 0-20.012 1.279-1.43 31.788-34.994 71.175-34.994s69.896 33.564 71.175 34.994c5.101 5.695 5.101 14.316 0 20.012-1.28 1.43-31.788 34.994-71.175 34.994z"/></g><path d="m200 497c0-39.924-6.456-78.998-19.189-116.135-1.571-4.583-.833-9.642 1.983-13.584 2.816-3.941 7.362-6.281 12.206-6.281h122c4.844 0 9.391 2.34 12.206 6.281 2.815 3.942 3.555 9.001 1.983 13.583-12.733 37.141-19.189 76.214-19.189 116.136z" fill="#ffd228"/><path d="m317 361h-61v136h56c0-39.922 6.456-78.995 19.189-116.136 1.571-4.582.832-9.641-1.983-13.583-2.815-3.941-7.362-6.281-12.206-6.281z" fill="#ffb400"/><path d="m317 151h-122c-4.844 0-9.39-2.34-12.206-6.281-2.815-3.942-3.554-9.001-1.983-13.584 12.733-37.138 19.189-76.211 19.189-116.135 0-8.284 6.716-15 15-15h82c8.284 0 15 6.716 15 15 0 39.923 6.456 78.997 19.189 116.135 1.571 4.583.832 9.642-1.983 13.584-2.815 3.941-7.361 6.281-12.206 6.281z" fill="#ffd228"/><path d="m312 15c0-8.284-6.716-15-15-15h-41v151h61c4.845 0 9.391-2.34 12.206-6.281 2.815-3.942 3.555-9.001 1.983-13.584-12.733-37.138-19.189-76.212-19.189-116.135z" fill="#ffb400"/><path d="m396 512h-280c-8.284 0-15-6.716-15-15s6.716-15 15-15h280c8.284 0 15 6.716 15 15s-6.716 15-15 15z" fill="#8ee26b"/><path d="m396 482h-140v30h140c8.284 0 15-6.716 15-15s-6.716-15-15-15z" fill="#00a763"/><path d="m312 256c0-39.258 6.456-77.995 19.189-115.136.544-1.586.792-3.23.792-4.864h-151.963c0 1.635.248 3.278.792 4.865 12.734 37.138 19.19 75.875 19.19 115.135s-6.456 77.997-19.189 115.135c-.544 1.587-.793 3.23-.792 4.865h151.963c0-1.635-.248-3.278-.792-4.865-12.734-37.138-19.19-75.875-19.19-115.135z" fill="#ffb400"/><path d="m331.982 136h-75.982v240h75.982c0-1.635-.248-3.278-.792-4.865-12.734-37.138-19.19-75.875-19.19-115.135 0-39.258 6.456-77.995 19.189-115.136.544-1.586.793-3.229.793-4.864z" fill="#f59600"/><path d="m135.009 134.925c-1.02 0-2.053-.104-3.087-.321-1.877-.394-46.199-10.031-65.893-44.142-19.693-34.111-5.879-77.314-5.281-79.137 2.381-7.265 9.846-11.572 17.33-10.006 1.877.394 46.199 10.031 65.893 44.143 19.694 34.11 5.879 77.313 5.282 79.136-2.053 6.26-7.882 10.327-14.244 10.327z" fill="#8ee26b"/><path d="m376.99 331.964c-6.361 0-12.189-4.066-14.243-10.327-.598-1.822-14.412-45.026 5.282-79.137 19.693-34.11 64.015-43.749 65.893-44.143 7.473-1.568 14.949 2.741 17.331 10.007.598 1.822 14.411 45.025-5.282 79.136s-64.015 43.749-65.893 44.143c-1.033.216-2.067.321-3.088.321z" fill="#8ee26b"/></g></svg>