<svg id="Capa_1" enable-background="new 0 0 512 512" height="512" viewBox="0 0 512 512" width="512" xmlns="http://www.w3.org/2000/svg"><g><path d="m301 80h-130c-22.091 0-40-17.909-40-40 0-22.091 17.909-40 40-40h130c22.091 0 40 17.909 40 40 0 22.091-17.909 40-40 40z" fill="#00a763"/><path d="m301 0h-45v80h45c22.091 0 40-17.909 40-40 0-22.091-17.909-40-40-40z" fill="#007845"/><path d="m256 262c-8.284 0-15-6.716-15-15v-102c0-8.284 6.716-15 15-15s15 6.716 15 15v102c0 8.284-6.716 15-15 15z" fill="#8e4712"/><path d="m271 247v-102c0-8.284-6.716-15-15-15v132c8.284 0 15-6.716 15-15z" fill="#70380f"/><path d="m356 160h-179.992c-24.853 0-45-20.147-45-45 0-24.853 20.147-45 45-45h179.992c24.853 0 45 20.147 45 45 0 24.853-20.147 45-45 45z" fill="#8ee26b"/><path d="m366 370h-40.656c-8.284 0-15-6.716-15-15s6.716-15 15-15h40.656c13.785 0 25-11.215 25-25v-80c0-8.284 6.716-15 15-15s15 6.716 15 15v80c0 30.327-24.673 55-55 55z" fill="#70380f"/><path d="m186.014 390h-40.014c-30.327 0-55-24.673-55-55v-70c0-8.284 6.716-15 15-15s15 6.716 15 15v70c0 13.785 11.215 25 25 25h40.014c8.284 0 15 6.716 15 15s-6.716 15-15 15z" fill="#8e4712"/><path d="m201.819 501.889c-13.814-40.073-20.819-82.091-20.819-124.889 0-42.795 7.005-84.813 20.819-124.889 2.085-6.05 7.781-10.111 14.181-10.111h80c6.4 0 12.095 4.061 14.181 10.111 13.814 40.073 20.819 82.091 20.819 124.889 0 42.795-7.005 84.813-20.819 124.889z" fill="#b46e3d"/><path d="m296 242h-40v259.889h54.181c13.814-40.076 20.819-82.094 20.819-124.889 0-42.798-7.005-84.816-20.819-124.889-2.086-6.05-7.781-10.111-14.181-10.111z" fill="#8e4712"/><path d="m256 372c-8.284 0-15-6.716-15-15v-40c0-8.284 6.716-15 15-15s15 6.716 15 15v40c0 8.284-6.716 15-15 15z" fill="#8e4712"/><path d="m356 70h-100v90h100c24.853 0 45-20.147 45-45 0-24.853-20.147-45-45-45z" fill="#00a763"/><path d="m446 180h-80c-19.33 0-35-15.67-35-35 0-19.33 15.67-35 35-35h80c19.33 0 35 15.67 35 35 0 19.33-15.67 35-35 35z" fill="#007845"/><path d="m476 240h-140c-19.33 0-35-15.67-35-35 0-19.33 15.67-35 35-35h140c19.33 0 35 15.67 35 35 0 19.33-15.67 35-35 35z" fill="#00a763"/><path d="m146 210h-80c-19.33 0-35-15.67-35-35 0-19.33 15.67-35 35-35h80c19.33 0 35 15.67 35 35 0 19.33-15.67 35-35 35z" fill="#00a763"/><path d="m176 270h-140c-19.33 0-35-15.67-35-35 0-19.33 15.67-35 35-35h140c19.33 0 35 15.67 35 35 0 19.33-15.67 35-35 35z" fill="#8ee26b"/><path d="m271 357v-40c0-8.284-6.716-15-15-15v70c8.284 0 15-6.716 15-15z" fill="#70380f"/><path d="m396 512h-280c-8.284 0-15-6.716-15-15s6.716-15 15-15h280c8.284 0 15 6.716 15 15s-6.716 15-15 15z" fill="#8ee26b"/><path d="m396 482h-140v30h140c8.284 0 15-6.716 15-15s-6.716-15-15-15z" fill="#00a763"/></g></svg>