<svg id="Capa_1" enable-background="new 0 0 512 512" height="512" viewBox="0 0 512 512" width="512" xmlns="http://www.w3.org/2000/svg"><g><path d="m27.986 300.003c-2.415 0-4.865-.585-7.138-1.817-7.282-3.949-9.983-13.055-6.034-20.337l32-59c3.949-7.281 13.054-9.983 20.337-6.034 7.282 3.949 9.983 13.055 6.034 20.337l-32 59c-2.716 5.009-7.873 7.851-13.199 7.851z" fill="#8ee26b"/><path d="m465.989 440.001c-3.181 0-6.386-1.007-9.106-3.09l-33.637-25.746c-6.578-5.035-7.829-14.45-2.794-21.028 5.037-6.578 14.45-7.83 21.028-2.794l33.637 25.746c6.578 5.035 7.829 14.45 2.794 21.028-2.953 3.858-7.412 5.884-11.922 5.884z" fill="#00a763"/><path d="m416.32 101.688c-8.241 0-14.946-6.653-14.998-14.906l-.322-51.688c-.052-8.284 6.622-15.042 14.906-15.094h.096c8.241 0 14.946 6.653 14.998 14.906l.322 51.688c.052 8.284-6.622 15.042-14.906 15.094-.031 0-.064 0-.096 0z" fill="#00a763"/><path d="m93.068 162.5c-1.446 0-2.917-.211-4.373-.654-7.926-2.412-12.395-10.793-9.981-18.718l12.937-42.496c2.411-7.926 10.787-12.398 18.718-9.981 7.926 2.412 12.395 10.793 9.981 18.718l-12.937 42.496c-1.969 6.469-7.915 10.635-14.345 10.635z" fill="#8ee26b"/><path d="m176.891 280.672c-.206 0-.412-.004-.618-.013l-105.693-4.355c-39.578-1.632-70.58-33.939-70.58-73.548 0-24.185 11.317-46.07 31.051-60.046 19.744-13.983 44.161-17.398 66.991-9.363l76.205 26.785c5.578 1.961 9.483 7.014 9.975 12.905l7.616 91.389c.357 4.288-1.144 8.522-4.121 11.628-2.835 2.956-6.749 4.618-10.826 4.618z" fill="#00a763"/><path d="m322.381 435.027c-3.676 0-7.262-1.353-10.041-3.856-3.479-3.135-5.295-7.716-4.908-12.383l4.928-59.445c.442-5.328 3.687-10.019 8.517-12.312l80.076-38.009c17.34-8.233 37.382-7.022 53.609 3.237 16.226 10.26 25.913 27.846 25.913 47.043 0 26.729-19.063 49.73-45.328 54.69l-109.981 20.773c-.927.176-1.859.262-2.785.262z" fill="#007845"/><path d="m339.956 223.002c-3.754 0-7.405-1.41-10.199-4.002-3.379-3.134-5.129-7.646-4.749-12.237l7.091-85.518c.427-5.148 3.473-9.715 8.063-12.087l69.275-35.796c21.973-11.354 47.701-10.452 68.826 2.409 21.125 12.864 33.737 35.308 33.737 60.042 0 34.76-24.915 63.955-59.242 69.42l-110.442 17.583c-.787.124-1.576.186-2.36.186zm76.366-136.314h.01z" fill="#007845"/><path d="m181.052 498.239-31.695-382.346c-2.479-29.731 7.688-59.381 27.894-81.34 20.205-21.958 48.908-34.553 78.749-34.553s58.544 12.595 78.75 34.554c20.205 21.959 30.372 51.608 27.894 81.347l-31.695 382.339h-149.897z" fill="#8ee26b"/><path d="m330.948 498.239 31.696-382.339c2.479-29.738-7.688-59.388-27.894-81.347-20.206-21.958-48.909-34.553-78.75-34.553v498.239z" fill="#00a763"/><path d="m391 512h-270c-8.284 0-15-6.716-15-15s6.716-15 15-15h270c8.284 0 15 6.716 15 15s-6.716 15-15 15z" fill="#b46e3d"/><path d="m66.009 190c-4.339 0-8.643-1.872-11.607-5.489l-41-50c-5.253-6.405-4.318-15.856 2.088-21.109 6.406-5.256 15.858-4.318 21.109 2.088l41 50c5.253 6.405 4.318 15.856-2.088 21.109-2.789 2.288-6.157 3.401-9.502 3.401z" fill="#8ee26b"/><path d="m174.862 78.852c-4.585 0-9.11-2.094-12.055-6.058l-28.851-38.851c-4.938-6.651-3.551-16.047 3.1-20.986 6.652-4.938 16.046-3.551 20.986 3.1l28.851 38.851c4.938 6.651 3.551 16.047-3.1 20.986-2.687 1.995-5.822 2.958-8.931 2.958z" fill="#00a763"/><path d="m106.018 320.001c-.455 0-.913-.021-1.376-.063-8.25-.75-14.33-8.046-13.58-16.297l5-55c.75-8.251 8.026-14.324 16.297-13.58 8.25.75 14.33 8.046 13.58 16.297l-5 55c-.709 7.788-7.251 13.643-14.921 13.643z" fill="#8ee26b"/><g fill="#00a763"><path d="m405.991 242.004c-6.569 0-12.6-4.35-14.444-10.989l-15-54c-2.217-7.982 2.456-16.25 10.438-18.468 7.979-2.218 16.25 2.455 18.468 10.438l15 54c2.217 7.982-2.456 16.25-10.438 18.468-1.343.373-2.695.551-4.024.551z"/><path d="m220.997 150.004c-1.757 0-3.543-.311-5.285-.967-7.752-2.921-11.669-11.572-8.749-19.325l19.796-52.55c2.921-7.753 11.571-11.67 19.325-8.749 7.752 2.921 11.669 11.572 8.749 19.325l-19.796 52.55c-2.265 6.011-7.974 9.716-14.04 9.716z"/><path d="m265.993 320c-3.451 0-6.919-1.184-9.747-3.604l-30-25.677c-6.294-5.387-7.028-14.855-1.642-21.149 5.386-6.293 14.855-7.03 21.149-1.642l30 25.677c6.294 5.387 7.028 14.855 1.642 21.149-2.965 3.466-7.171 5.246-11.402 5.246z"/><path d="m496.01 220.001c-4.4 0-8.76-1.927-11.723-5.631l-40-50c-5.175-6.469-4.127-15.908 2.343-21.083 6.466-5.177 15.907-4.128 21.083 2.343l40 50c5.175 6.469 4.127 15.908-2.343 21.083-2.765 2.213-6.074 3.288-9.36 3.288z"/></g><path d="m275.754 293.604-19.754-16.907v39.488l.246.211c2.828 2.421 6.296 3.604 9.747 3.604 4.23 0 8.437-1.78 11.402-5.246 5.387-6.294 4.653-15.763-1.641-21.15z" fill="#007845"/><path d="m391 482h-135v30h135c8.284 0 15-6.716 15-15s-6.716-15-15-15z" fill="#8e4712"/><path d="m384.019 454.002c-.692 0-1.393-.048-2.099-.146-8.204-1.148-13.924-8.73-12.775-16.936l7-50c1.148-8.203 8.715-13.93 16.936-12.775 8.204 1.148 13.924 8.73 12.775 16.936l-7 50c-1.05 7.497-7.475 12.921-14.837 12.921z" fill="#00a763"/><path d="m369.018 285.003c-.907 0-1.825-.083-2.749-.254l-54-10c-8.146-1.508-13.526-9.335-12.018-17.48 1.508-8.146 9.341-13.521 17.48-12.018l54 10c8.146 1.508 13.526 9.335 12.018 17.48-1.337 7.223-7.642 12.272-14.731 12.272z" fill="#007845"/><path d="m155.981 414.001c-7.574 0-14.081-5.719-14.897-13.419-.874-8.238 5.096-15.625 13.334-16.498l66-7c8.229-.881 15.625 5.096 16.498 13.334.874 8.238-5.096 15.625-13.334 16.498l-66 7c-.537.058-1.071.085-1.601.085z" fill="#00a763"/></g></svg>