<svg id="Capa_1" enable-background="new 0 0 512 512" height="512" viewBox="0 0 512 512" width="512" xmlns="http://www.w3.org/2000/svg"><g><path d="m306 410c-17.658 0-35.042-5.01-50-14.271-14.958 9.261-32.342 14.271-50 14.271-52.383 0-95-42.617-95-95 0-6.395.65-12.763 1.939-19.032-20.165-17.933-31.939-43.763-31.939-70.968 0-26.463 10.844-51.273 30.004-69.215-.003-.263-.004-.524-.004-.785 0-41.905 27.422-78.407 66.61-90.629 7.292-36.884 39.786-64.371 78.39-64.371s71.098 27.487 78.39 64.371c39.188 12.222 66.61 48.724 66.61 90.629 0 .261-.001.522-.004.785 19.162 17.942 30.004 42.751 30.004 69.215 0 27.205-11.774 53.035-31.939 70.968 1.289 6.269 1.939 12.637 1.939 19.032 0 52.383-42.617 95-95 95z" fill="#ff8c44"/><path d="m306 410c52.383 0 95-42.617 95-95 0-6.395-.65-12.763-1.939-19.032 20.165-17.933 31.939-43.763 31.939-70.968 0-26.464-10.842-51.273-30.004-69.215.002-.263.004-.524.004-.785 0-41.905-27.422-78.407-66.61-90.629-7.292-36.884-39.786-64.371-78.39-64.371v395.729c14.958 9.261 32.342 14.271 50 14.271z" fill="#ff4d05"/><path d="m271 497v-135.787l45.606-45.606c5.858-5.857 5.858-15.355 0-21.213-5.857-5.857-15.355-5.857-21.213 0l-24.393 24.393v-37.574l65.606-65.606c5.858-5.857 5.858-15.355 0-21.213-5.857-5.857-15.355-5.857-21.213 0l-44.393 44.393v-47.574l45.606-45.606c5.858-5.857 5.858-15.355 0-21.213-5.857-5.857-15.355-5.857-21.213 0l-24.393 24.393v-53.787c0-8.284-6.716-15-15-15s-15 6.716-15 15v53.787l-24.394-24.394c-5.857-5.857-15.355-5.857-21.213 0s-5.858 15.355 0 21.213l45.607 45.607v47.574l-44.394-44.394c-5.857-5.857-15.355-5.857-21.213 0s-5.858 15.355 0 21.213l65.607 65.607v37.574l-24.394-24.394c-5.857-5.857-15.355-5.857-21.213 0s-5.858 15.355 0 21.213l45.607 45.607v135.787z" fill="#b46e3d"/><path d="m271 497v-135.787l45.606-45.606c5.858-5.857 5.858-15.355 0-21.213-5.857-5.857-15.355-5.857-21.213 0l-24.393 24.393v-37.574l65.606-65.606c5.858-5.857 5.858-15.355 0-21.213-5.857-5.857-15.355-5.857-21.213 0l-44.393 44.393v-47.574l45.606-45.606c5.858-5.857 5.858-15.355 0-21.213-5.857-5.857-15.355-5.857-21.213 0l-24.393 24.393v-53.787c0-8.284-6.716-15-15-15v417z" fill="#8e4712"/><path d="m356 512h-200c-8.284 0-15-6.716-15-15s6.716-15 15-15h200c8.284 0 15 6.716 15 15s-6.716 15-15 15z" fill="#8ee26b"/><path d="m356 482h-100v30h100c8.284 0 15-6.716 15-15s-6.716-15-15-15z" fill="#00a763"/></g></svg>