<svg id="Capa_1" enable-background="new 0 0 512 512" height="512" viewBox="0 0 512 512" width="512" xmlns="http://www.w3.org/2000/svg"><g><path d="m421 497v-102c0-8.284 6.716-15 15-15s15 6.716 15 15v102z" fill="#b46e3d"/><path d="m451 497v-102c0-8.284-6.716-15-15-15v117z" fill="#8e4712"/><path d="m475.361 410h-78.723c-6.692 0-12.575-4.433-14.419-10.865-14.08-49.107-21.219-97.601-21.219-144.135 0-70.551 16.761-133.891 30.822-174.603 15.258-44.18 30.443-71.566 31.082-72.711 2.65-4.746 7.66-7.686 13.096-7.686s10.446 2.94 13.097 7.687c.639 1.145 15.823 28.531 31.082 72.711 14.06 40.711 30.821 104.051 30.821 174.602 0 46.534-7.139 95.028-21.22 144.135-1.844 6.432-7.727 10.865-14.419 10.865z" fill="#59b154"/><path d="m475.361 410c6.692 0 12.575-4.433 14.419-10.865 14.081-49.107 21.22-97.601 21.22-144.135 0-70.551-16.761-133.891-30.822-174.603-15.258-44.18-30.443-71.566-31.082-72.711-2.65-4.746-7.66-7.686-13.096-7.686v410z" fill="#337030"/><path d="m301 497v-102c0-8.284 6.716-15 15-15s15 6.716 15 15v102z" fill="#b46e3d"/><path d="m331 497v-102c0-8.284-6.716-15-15-15v117z" fill="#8e4712"/><path d="m355.361 410h-78.723c-6.692 0-12.575-4.433-14.419-10.865-14.08-49.107-21.219-97.601-21.219-144.135 0-70.551 16.761-133.891 30.822-174.603 15.258-44.18 30.443-71.566 31.082-72.711 2.65-4.746 7.66-7.686 13.096-7.686s10.446 2.94 13.097 7.687c.639 1.145 15.823 28.531 31.082 72.711 14.06 40.711 30.821 104.051 30.821 174.602 0 46.534-7.139 95.028-21.22 144.135-1.844 6.432-7.727 10.865-14.419 10.865z" fill="#59b154"/><path d="m355.361 410c6.692 0 12.575-4.433 14.419-10.865 14.081-49.107 21.22-97.601 21.22-144.135 0-70.551-16.761-133.891-30.822-174.603-15.258-44.18-30.443-71.566-31.082-72.711-2.65-4.746-7.66-7.686-13.096-7.686v410z" fill="#337030"/><path d="m181 497v-102c0-8.284 6.716-15 15-15s15 6.716 15 15v102z" fill="#b46e3d"/><path d="m211 497v-102c0-8.284-6.716-15-15-15v117z" fill="#8e4712"/><path d="m235.361 410h-78.723c-6.692 0-12.575-4.433-14.419-10.865-14.08-49.107-21.219-97.601-21.219-144.135 0-70.551 16.761-133.891 30.822-174.603 15.258-44.18 30.443-71.566 31.082-72.711 2.65-4.746 7.66-7.686 13.096-7.686s10.446 2.94 13.097 7.687c.639 1.145 15.823 28.531 31.082 72.711 14.06 40.711 30.821 104.051 30.821 174.602 0 46.534-7.139 95.028-21.22 144.135-1.844 6.432-7.727 10.865-14.419 10.865z" fill="#59b154"/><path d="m235.361 410c6.692 0 12.575-4.433 14.419-10.865 14.081-49.107 21.22-97.601 21.22-144.135 0-70.551-16.761-133.891-30.822-174.603-15.258-44.18-30.443-71.566-31.082-72.711-2.65-4.746-7.66-7.686-13.096-7.686v410z" fill="#337030"/><path d="m61 497v-102c0-8.284 6.716-15 15-15s15 6.716 15 15v102z" fill="#b46e3d"/><path d="m91 497v-102c0-8.284-6.716-15-15-15v117z" fill="#8e4712"/><path d="m115.361 410h-78.722c-6.692 0-12.575-4.433-14.419-10.865-14.081-49.107-21.22-97.601-21.22-144.135 0-70.551 16.761-133.891 30.822-174.603 15.258-44.179 30.443-71.566 31.081-72.71 2.651-4.747 7.661-7.687 13.097-7.687s10.446 2.94 13.097 7.687c.639 1.145 15.823 28.531 31.082 72.711 14.06 40.711 30.821 104.051 30.821 174.602 0 46.534-7.139 95.028-21.22 144.135-1.844 6.432-7.727 10.865-14.419 10.865z" fill="#59b154"/><path d="m115.361 410c6.692 0 12.575-4.433 14.419-10.865 14.081-49.107 21.22-97.601 21.22-144.135 0-70.551-16.761-133.891-30.822-174.603-15.258-44.179-30.443-71.566-31.081-72.71-2.651-4.747-7.661-7.687-13.097-7.687v410z" fill="#337030"/><path d="m497 512h-482c-8.284 0-15-6.716-15-15s6.716-15 15-15h482c8.284 0 15 6.716 15 15s-6.716 15-15 15z" fill="#8ee26b"/><path d="m497 482h-241v30h241c8.284 0 15-6.716 15-15s-6.716-15-15-15z" fill="#00a763"/></g></svg>