<svg id="Capa_1" enable-background="new 0 0 512 512" height="512" viewBox="0 0 512 512" width="512" xmlns="http://www.w3.org/2000/svg"><g><path d="m336 340c-14.342 0-28.118-4.056-40.169-11.776l-87.438 4.325c-10.133 4.884-21.258 7.451-32.393 7.451-17.119 0-33.859-5.927-47.138-16.688-7.454-6.042-13.658-13.463-18.297-21.759-10.574 5.518-22.376 8.447-34.565 8.447-41.355 0-75-33.645-75-75 0-25.146 12.445-48.136 32.659-61.928-1.768-5.878-2.659-11.919-2.659-18.072 0-34.662 27.274-63.074 61.488-64.906 6.93-34.24 37.258-60.094 73.512-60.094 7.61 0 15.191 1.173 22.432 3.44 15.931-20.903 40.771-33.44 67.568-33.44s51.637 12.537 67.568 33.44c7.241-2.267 14.822-3.44 22.432-3.44 36.254 0 66.582 25.854 73.513 60.094 34.213 1.832 61.487 30.244 61.487 64.906 0 6.153-.891 12.194-2.659 18.072 20.215 13.792 32.659 36.781 32.659 61.928 0 41.355-33.645 75-75 75-12.188 0-23.991-2.93-34.565-8.448-4.639 8.296-10.843 15.718-18.297 21.76-13.279 10.761-30.019 16.688-47.138 16.688z" fill="#00a763"/><path d="m295.831 328.224c12.051 7.72 25.827 11.776 40.169 11.776 17.119 0 33.859-5.927 47.138-16.688 7.454-6.042 13.658-13.464 18.297-21.76 10.574 5.518 22.377 8.448 34.565 8.448 41.355 0 75-33.645 75-75 0-25.147-12.444-48.136-32.659-61.928 1.768-5.878 2.659-11.919 2.659-18.072 0-34.662-27.274-63.074-61.487-64.906-6.931-34.24-37.259-60.094-73.513-60.094-7.61 0-15.191 1.173-22.432 3.44-15.931-20.903-40.771-33.44-67.568-33.44v330.194z" fill="#007845"/><path d="m181.017 496.293 9.739-206.461-66.596-85.623c-4.006-5.151-4.223-12.302-.535-17.687s10.434-7.766 16.685-5.89l78.534 23.56-7.77-77.7c-.67-6.699 3.206-13.023 9.479-15.469 6.274-2.443 13.407-.409 17.446 4.977l54.328 72.438 90.73-18.146c6.639-1.323 13.349 1.959 16.369 8.022 3.019 6.063 1.601 13.397-3.462 17.897l-84.375 75 19.354 224.501z" fill="#b46e3d"/><path d="m383.059 170.291-90.73 18.146-36.329-48.437v356.002l74.944-.291-19.354-224.501 84.375-75c5.063-4.5 6.48-11.834 3.462-17.897-3.02-6.063-9.73-9.345-16.368-8.022z" fill="#8e4712"/><path d="m406 512h-300c-8.284 0-15-6.716-15-15s6.716-15 15-15h300c8.284 0 15 6.716 15 15s-6.716 15-15 15z" fill="#8ee26b"/><path d="m406 482h-150v30h150c8.284 0 15-6.716 15-15s-6.716-15-15-15z" fill="#00a763"/></g></svg>