<svg id="Capa_1" enable-background="new 0 0 512 512" height="512" viewBox="0 0 512 512" width="512" xmlns="http://www.w3.org/2000/svg"><g><path d="m211 497v-202c0-8.284 6.716-15 15-15h60c8.284 0 15 6.716 15 15v202z" fill="#b46e3d"/><path d="m286 280h-30v217h45v-202c0-8.284-6.716-15-15-15z" fill="#8e4712"/><path d="m356 512h-200c-8.284 0-15-6.716-15-15s6.716-15 15-15h200c8.284 0 15 6.716 15 15s-6.716 15-15 15z" fill="#8ee26b"/><path d="m356 482h-100v30h100c8.284 0 15-6.716 15-15s-6.716-15-15-15z" fill="#00a763"/><path d="m286 330c-10.519 0-20.723-2.564-30-7.486-9.277 4.922-19.481 7.486-30 7.486-17.206 0-33.325-6.735-45.318-18.523-10.652 5.553-22.575 8.523-34.682 8.523-28.275 0-53.599-15.686-66.379-40.092-1.211.062-2.419.092-3.621.092-41.355 0-75-33.645-75-75 0-18.107 6.551-35.585 18.446-49.213 8.556-9.801 19.458-17.155 31.557-21.435.339-34.447 27.613-62.57 61.725-64.271 6.759-28.674 32.563-50.081 63.272-50.081 8.418 0 16.65 1.626 24.349 4.768 14.071-15.71 34.037-24.768 55.651-24.768s41.58 9.058 55.651 24.768c7.699-3.142 15.931-4.768 24.349-4.768 30.709 0 56.513 21.407 63.272 50.081 34.111 1.701 61.386 29.824 61.725 64.271 12.099 4.279 23.001 11.634 31.557 21.435 11.895 13.628 18.446 31.106 18.446 49.213 0 41.355-33.645 75-75 75-1.202 0-2.41-.03-3.621-.092-12.78 24.406-38.104 40.092-66.379 40.092-12.107 0-24.03-2.97-34.682-8.523-11.993 11.788-28.112 18.523-45.318 18.523z" fill="#8ee26b"/><path d="m286 330c17.206 0 33.325-6.735 45.318-18.523 10.652 5.553 22.575 8.523 34.682 8.523 28.275 0 53.599-15.686 66.379-40.092 1.211.062 2.419.092 3.621.092 41.355 0 75-33.645 75-75 0-18.107-6.551-35.585-18.446-49.213-8.556-9.801-19.458-17.155-31.557-21.435-.339-34.447-27.613-62.57-61.725-64.271-6.759-28.674-32.563-50.081-63.272-50.081-8.418 0-16.65 1.626-24.349 4.768-14.071-15.71-34.037-24.768-55.651-24.768v322.514c9.277 4.922 19.481 7.486 30 7.486z" fill="#00a763"/><g fill="#ff4d05"><circle cx="336" cy="240" r="15"/><circle cx="386" cy="155" r="15"/><circle cx="321" cy="130" r="15"/></g><circle cx="256" cy="195" fill="#ff8c44" r="15"/><circle cx="151" cy="140" fill="#ff8c44" r="15"/><circle cx="151" cy="230" fill="#ff8c44" r="15"/><path d="m271 195c0-8.284-6.716-15-15-15v30c8.284 0 15-6.716 15-15z" fill="#ff4d05"/></g></svg>