<svg id="Capa_1" enable-background="new 0 0 512 512" height="512" viewBox="0 0 512 512" width="512" xmlns="http://www.w3.org/2000/svg"><g><path d="m256 250c-35.841 0-65-29.159-65-65v-80c0-8.284 6.716-15 15-15s15 6.716 15 15v80c0 19.299 15.701 35 35 35s35-15.701 35-35v-80c0-8.284 6.716-15 15-15s15 6.716 15 15v80c0 35.841-29.159 65-65 65z" fill="#7d5c40"/><path d="m321 185v-80c0-8.284-6.716-15-15-15s-15 6.716-15 15v80c0 19.299-15.701 35-35 35v30c35.841 0 65-29.159 65-65z" fill="#5c452e"/><path d="m366 110h-220c-30.376 0-55-24.624-55-55 0-30.376 24.624-55 55-55h220c30.376 0 55 24.624 55 55 0 30.376-24.624 55-55 55z" fill="#337030"/><path d="m366 0h-110v110h110c30.376 0 55-24.624 55-55 0-30.376-24.624-55-55-55z" fill="#3b4a17"/><path d="m376 320h-60c-8.284 0-15-6.716-15-15s6.716-15 15-15h60c19.299 0 35-15.701 35-35v-60c0-8.284 6.716-15 15-15s15 6.716 15 15v60c0 35.841-29.159 65-65 65z" fill="#5c452e"/><path d="m196 350h-60c-35.841 0-65-29.159-65-65v-100c0-8.284 6.716-15 15-15s15 6.716 15 15v100c0 19.299 15.701 35 35 35h60c8.284 0 15 6.716 15 15s-6.716 15-15 15z" fill="#7d5c40"/><path d="m142.142 502.74c-2.321-5.605-1.038-12.057 3.252-16.347 22.96-22.96 35.606-53.49 35.606-85.961v-105.432c0-41.355 33.645-75 75-75s75 33.645 75 75v105.432c0 32.472 12.646 63.001 35.606 85.962 4.29 4.29 5.573 10.741 3.252 16.347h-227.716z" fill="#b48e6e"/><path d="m369.858 502.74c2.321-5.605 1.038-12.057-3.252-16.347-22.96-22.96-35.606-53.49-35.606-85.961v-105.432c0-41.355-33.645-75-75-75v282.74z" fill="#7d5c40"/><path d="m406 512h-300c-8.284 0-15-6.716-15-15s6.716-15 15-15h300c8.284 0 15 6.716 15 15s-6.716 15-15 15z" fill="#8ee26b"/><path d="m406 482h-150v30h150c8.284 0 15-6.716 15-15s-6.716-15-15-15z" fill="#00a763"/><path d="m466 200h-80c-24.853 0-45-20.147-45-45 0-24.853 20.147-45 45-45h80c24.853 0 45 20.147 45 45 0 24.853-20.147 45-45 45z" fill="#337030"/><path d="m116 190h-60c-30.376 0-55-24.624-55-55 0-30.376 24.624-55 55-55h60c30.376 0 55 24.624 55 55 0 30.376-24.624 55-55 55z" fill="#59b154"/></g></svg>