<svg id="Capa_1" enable-background="new 0 0 512 512" height="512" viewBox="0 0 512 512" width="512" xmlns="http://www.w3.org/2000/svg"><g><path d="m191.77 492.257 20-60c2.042-6.125 7.773-10.257 14.23-10.257h60c6.457 0 12.188 4.132 14.23 10.257l20 60z" fill="#b46e3d"/><path d="m286 422h-30v70.257h64.23l-20-60c-2.041-6.125-7.773-10.257-14.23-10.257z" fill="#8e4712"/><path d="m306 452h-100c-4.822 0-9.349-2.317-12.168-6.229-2.819-3.911-3.586-8.939-2.062-13.514l20-60c2.042-6.125 7.773-10.257 14.23-10.257h60c6.457 0 12.188 4.132 14.23 10.257l20 60c1.524 4.574.757 9.603-2.062 13.514-2.819 3.912-7.346 6.229-12.168 6.229z" fill="#8e4712"/><path d="m300.23 372.257c-2.041-6.125-7.773-10.257-14.23-10.257h-30v90h50c4.822 0 9.349-2.317 12.168-6.229 2.819-3.911 3.586-8.939 2.062-13.514z" fill="#70380f"/><path d="m306 392h-100c-4.822 0-9.349-2.317-12.168-6.229-2.819-3.911-3.586-8.939-2.062-13.514l20-60c2.042-6.125 7.773-10.257 14.23-10.257h60c6.457 0 12.188 4.132 14.23 10.257l20 60c1.524 4.574.757 9.603-2.062 13.514-2.819 3.912-7.346 6.229-12.168 6.229z" fill="#b46e3d"/><path d="m300.23 312.257c-2.041-6.125-7.773-10.257-14.23-10.257h-30v90h50c4.822 0 9.349-2.317 12.168-6.229 2.819-3.911 3.586-8.939 2.062-13.514z" fill="#8e4712"/><path d="m306 332h-100c-4.822 0-9.349-2.317-12.168-6.229-2.819-3.911-3.586-8.939-2.062-13.514l20-60c2.042-6.125 7.773-10.257 14.23-10.257h60c6.457 0 12.188 4.132 14.23 10.257l20 60c1.524 4.574.757 9.603-2.062 13.514-2.819 3.912-7.346 6.229-12.168 6.229z" fill="#8e4712"/><path d="m300.23 252.257c-2.041-6.125-7.773-10.257-14.23-10.257h-30v90h50c4.822 0 9.349-2.317 12.168-6.229 2.819-3.911 3.586-8.939 2.062-13.514z" fill="#70380f"/><path d="m306 272h-100c-4.822 0-9.349-2.317-12.168-6.229-2.819-3.911-3.586-8.939-2.062-13.514l20-60c2.042-6.125 7.773-10.257 14.23-10.257h60c6.457 0 12.188 4.132 14.23 10.257l20 60c1.524 4.574.757 9.603-2.062 13.514-2.819 3.912-7.346 6.229-12.168 6.229z" fill="#b46e3d"/><path d="m300.23 192.257c-2.041-6.125-7.773-10.257-14.23-10.257h-30v90h50c4.822 0 9.349-2.317 12.168-6.229 2.819-3.911 3.586-8.939 2.062-13.514z" fill="#8e4712"/><path d="m386 512h-260c-8.284 0-15-6.716-15-15s6.716-15 15-15h260c8.284 0 15 6.716 15 15s-6.716 15-15 15z" fill="#8ee26b"/><path d="m386 482h-130v30h130c8.284 0 15-6.716 15-15s-6.716-15-15-15z" fill="#00a763"/><path d="m460.537 266.628c-1.002-2.622-25.202-64.614-81.774-97.276-11.901-6.871-25.136-12.355-39.337-16.3-26.933-7.483-55.754-6.212-83.425 3.632-27.672-9.845-56.494-11.115-83.424-3.633-14.202 3.945-27.438 9.43-39.338 16.301-56.572 32.662-80.771 94.654-81.774 97.276-1.613 4.221-1.238 8.943 1.021 12.855s6.161 6.599 10.622 7.312c1.078.173 11.676 1.795 27.56 1.795 24.97 0 62.994-4.012 97.571-23.976 32.752-18.91 54.61-47.376 67.763-69.478 13.153 22.101 35.01 50.568 67.763 69.478 34.582 19.966 72.602 23.976 97.571 23.976 15.879 0 26.482-1.622 27.56-1.795 4.461-.713 8.363-3.399 10.622-7.312 2.257-3.912 2.632-8.634 1.019-12.855z" fill="#8ee26b"/><path d="m378.763 169.352c-11.901-6.871-25.137-12.355-39.338-16.3-26.933-7.483-55.754-6.212-83.425 3.632v38.453c13.153 22.101 35.01 50.568 67.763 69.478 34.582 19.966 72.602 23.976 97.571 23.976 15.879 0 26.482-1.622 27.56-1.795 4.461-.713 8.363-3.399 10.622-7.312 2.259-3.912 2.634-8.635 1.021-12.855-1.002-2.623-25.202-64.615-81.774-97.277z" fill="#00a763"/><path d="m480.105 135.931c-.394-4.5-2.795-8.584-6.537-11.115-2.326-1.575-57.702-38.476-122.781-32.78-13.692 1.198-27.679 4.297-41.574 9.211-20.113 7.112-38.205 19.028-53.214 34.912-15.009-15.883-33.101-27.8-53.214-34.912-13.895-4.914-27.882-8.013-41.574-9.211-65.078-5.692-120.455 31.206-122.781 32.78-3.742 2.531-6.143 6.615-6.537 11.115-.394 4.501 1.262 8.939 4.507 12.082 2.017 1.954 50.147 47.91 115.224 53.604 4.712.412 9.363.604 13.953.604 37.143-.002 69.822-12.586 90.421-22.941 20.599 10.355 53.276 22.941 90.422 22.941 4.587 0 9.244-.192 13.953-.604 65.077-5.694 113.207-51.65 115.224-53.604 3.247-3.143 4.903-7.581 4.508-12.082z" fill="#00a763"/><path d="m346.422 202.221c4.587 0 9.244-.192 13.953-.604 65.077-5.694 113.207-51.65 115.224-53.604 3.246-3.143 4.901-7.581 4.507-12.082-.394-4.5-2.795-8.584-6.537-11.115-2.326-1.575-57.702-38.476-122.781-32.78-13.692 1.198-27.679 4.297-41.574 9.211-20.113 7.112-38.205 19.028-53.214 34.912v43.122c20.599 10.354 53.276 22.94 90.422 22.94z" fill="#007845"/><path d="m426.021 5.359c-2.904-3.461-7.232-5.443-11.73-5.356-2.808.045-69.337 1.583-119.378 43.571v.001c-10.528 8.834-20.208 19.396-28.772 31.391-3.805 5.33-7.176 10.931-10.139 16.746-2.963-5.815-6.334-11.416-10.139-16.746-8.564-11.995-18.244-22.557-28.772-31.391 0 0 0 0 0-.001-50.044-41.988-116.573-43.526-119.381-43.571-4.512-.096-8.826 1.896-11.73 5.356-2.904 3.461-4.093 8.046-3.238 12.482.532 2.757 13.599 68.008 63.641 109.999 37.502 31.467 83.823 40.313 108.097 42.787.025.002.049.001.074.004.447.043.896.065 1.347.068.033 0 .067.005.101.005.489 0 .975-.027 1.458-.075.02-.002.041-.001.061-.003 24.274-2.474 70.596-11.32 108.098-42.788 50.042-41.99 63.108-107.241 63.64-109.998.855-4.435-.335-9.02-3.238-12.481z" fill="#8ee26b"/><path d="m414.29.003c-2.808.045-69.337 1.583-119.378 43.571v.001c-10.528 8.834-20.208 19.396-28.772 31.391-3.805 5.33-7.176 10.931-10.139 16.746v78.994h.001c.489 0 .975-.027 1.458-.075.02-.002.041-.001.061-.003 24.274-2.474 70.596-11.32 108.098-42.788 50.042-41.99 63.108-107.241 63.64-109.998.855-4.437-.334-9.021-3.238-12.482-2.905-3.462-7.233-5.444-11.731-5.357z" fill="#00a763"/></g></svg>