<svg id="Capa_1" enable-background="new 0 0 512 512" height="512" viewBox="0 0 512 512" width="512" xmlns="http://www.w3.org/2000/svg"><g><path d="m201 497v-257h110v257z" fill="#b46e3d"/><path d="m256 240h55v257h-55z" fill="#8e4712"/><path d="m386 512h-260c-8.284 0-15-6.716-15-15s6.716-15 15-15h260c8.284 0 15 6.716 15 15s-6.716 15-15 15z" fill="#8ee26b"/><path d="m386 482h-130v30h130c8.284 0 15-6.716 15-15s-6.716-15-15-15z" fill="#00a763"/><path d="m201 420h20c8.284 0 15 6.716 15 15 0 8.284-6.716 15-15 15h-20z" fill="#8e4712"/><path d="m276 375c0 8.284 6.716 15 15 15h20v-30h-20c-8.284 0-15 6.716-15 15z" fill="#70380f"/><path d="m201 300v30h20c8.284 0 15-6.716 15-15 0-8.284-6.716-15-15-15z" fill="#8e4712"/><path d="m476 390c19.33 0 35-15.67 35-35v-145.281c0-27.324-8.164-53.546-23.608-75.828-15.778-22.764-37.721-39.273-63.458-47.745-16.674-5.488-33.82-7.302-51.142-5.422-18.183-48.146-64.417-80.724-116.792-80.724s-98.609 32.577-116.792 80.724c-17.318-1.878-34.469-.065-51.142 5.422-25.736 8.472-47.68 24.981-63.458 47.745-15.444 22.282-23.608 48.504-23.608 75.828v160.281c0 22.091 17.909 40 40 40 22.091 0 40-17.909 40-40v-110h60v65c0 19.33 15.67 35 35 35 19.33 0 35-15.67 35-35v-55h90v110c0 22.091 17.909 40 40 40 22.091 0 40-17.909 40-40v-80h60v55c0 19.33 15.67 35 35 35z" fill="#8ee26b"/><g fill="#00a763"><path d="m301 270v110c0 22.091 17.909 40 40 40 22.091 0 40-17.909 40-40v-80h60v55c0 19.33 15.67 35 35 35 19.33 0 35-15.67 35-35v-145.281c0-27.324-8.164-53.546-23.608-75.828-15.778-22.764-37.721-39.273-63.458-47.745-16.674-5.488-33.82-7.302-51.142-5.422-18.183-48.146-64.417-80.724-116.792-80.724v270z"/><path d="m256 120c-8.284 0-15-6.716-15-15v-30c0-8.284 6.716-15 15-15s15 6.716 15 15v30c0 8.284-6.716 15-15 15z"/><path d="m256 210c-8.284 0-15-6.716-15-15v-30c0-8.284 6.716-15 15-15s15 6.716 15 15v30c0 8.284-6.716 15-15 15z"/><path d="m196 160c-8.284 0-15-6.716-15-15v-30c0-8.284 6.716-15 15-15s15 6.716 15 15v30c0 8.284-6.716 15-15 15z"/><path d="m136 200c-8.284 0-15-6.716-15-15v-30c0-8.284 6.716-15 15-15s15 6.716 15 15v30c0 8.284-6.716 15-15 15z"/></g><path d="m316 160c-8.284 0-15-6.716-15-15v-30c0-8.284 6.716-15 15-15s15 6.716 15 15v30c0 8.284-6.716 15-15 15z" fill="#007845"/><path d="m376 200c-8.284 0-15-6.716-15-15v-30c0-8.284 6.716-15 15-15s15 6.716 15 15v30c0 8.284-6.716 15-15 15z" fill="#007845"/><path d="m436 240c-8.284 0-15-6.716-15-15v-30c0-8.284 6.716-15 15-15s15 6.716 15 15v30c0 8.284-6.716 15-15 15z" fill="#007845"/><path d="m271 195v-30c0-8.284-6.716-15-15-15v60c8.284 0 15-6.716 15-15z" fill="#007845"/><path d="m271 105v-30c0-8.284-6.716-15-15-15v60c8.284 0 15-6.716 15-15z" fill="#007845"/></g></svg>