<svg id="Capa_1" enable-background="new 0 0 512 512" height="512" viewBox="0 0 512 512" width="512" xmlns="http://www.w3.org/2000/svg"><g><path d="m321 335v-80c0-8.284 6.716-15 15-15s15 6.716 15 15v80z" fill="#70380f"/><path d="m386 350h-190c-8.284 0-15-6.716-15-15v-80c0-8.284 6.716-15 15-15s15 6.716 15 15v65h175c19.299 0 35-15.701 35-35v-30c0-8.284 6.716-15 15-15s15 6.716 15 15v30c0 35.841-29.159 65-65 65z" fill="#b46e3d"/><path d="m436 240c-8.284 0-15 6.716-15 15v30c0 19.299-15.701 35-35 35h-130v30h130c35.841 0 65-29.159 65-65v-30c0-8.284-6.716-15-15-15z" fill="#8e4712"/><path d="m196 390h-50c-35.841 0-65-29.159-65-65v-70c0-8.284 6.716-15 15-15s15 6.716 15 15v70c0 19.299 15.701 35 35 35h50c8.284 0 15 6.716 15 15s-6.716 15-15 15z" fill="#8e4712"/><g><path d="m181 497v-177h150v177z" fill="#b46e3d"/><path d="m256 320h75v177h-75z" fill="#8e4712"/></g><path d="m436 270h-360c-41.355 0-75-33.645-75-75 0-37.324 27.404-68.367 63.149-74.064 10.751-41.198 48.267-70.936 91.851-70.936 5.271 0 10.521.439 15.708 1.313 16.139-31.166 48.505-51.313 84.292-51.313 35.786 0 68.153 20.147 84.292 51.313 5.187-.874 10.437-1.313 15.708-1.313 43.587 0 81.102 29.734 91.852 70.936 35.745 5.697 63.148 36.74 63.148 74.064 0 41.355-33.645 75-75 75z" fill="#59b154"/><path d="m436 270c41.355 0 75-33.645 75-75 0-37.324-27.403-68.367-63.148-74.064-10.75-41.202-48.265-70.936-91.852-70.936-5.271 0-10.521.439-15.708 1.313-16.139-31.166-48.506-51.313-84.292-51.313v270z" fill="#337030"/><path d="m396 512h-280c-8.284 0-15-6.716-15-15s6.716-15 15-15h280c8.284 0 15 6.716 15 15s-6.716 15-15 15z" fill="#8ee26b"/><path d="m396 482h-140v30h140c8.284 0 15-6.716 15-15s-6.716-15-15-15z" fill="#00a763"/><circle cx="256" cy="75" fill="#337030" r="15"/><circle cx="256" cy="185" fill="#337030" r="15"/><circle cx="316" cy="135" fill="#3b4a17" r="15"/><circle cx="376" cy="195" fill="#3b4a17" r="15"/><circle cx="196" cy="135" fill="#337030" r="15"/><circle cx="136" cy="195" fill="#337030" r="15"/><g fill="#3b4a17"><path d="m271 185c0-8.284-6.716-15-15-15v30c8.284 0 15-6.716 15-15z"/><path d="m271 75c0-8.284-6.716-15-15-15v30c8.284 0 15-6.716 15-15z"/></g></g></svg>