<svg id="Capa_1" enable-background="new 0 0 512 512" height="512" viewBox="0 0 512 512" width="512" xmlns="http://www.w3.org/2000/svg"><g><path d="m76 360c-8.284 0-15-6.716-15-15v-140c0-8.284 6.716-15 15-15s15 6.716 15 15v140c0 8.284-6.716 15-15 15z" fill="#8ee26b"/><path d="m146 400c-8.284 0-15-6.716-15-15v-84.592c0-8.284 6.716-15 15-15s15 6.716 15 15v84.592c0 8.284-6.716 15-15 15z" fill="#8ee26b"/><path d="m436 410c-8.284 0-15-6.716-15-15v-120c0-8.284 6.716-15 15-15s15 6.716 15 15v120c0 8.284-6.716 15-15 15z" fill="#00a763"/><path d="m366 430c-8.284 0-15-6.716-15-15v-60c0-8.284 6.716-15 15-15s15 6.716 15 15v60c0 8.284-6.716 15-15 15z" fill="#00a763"/><path d="m356 370c-25.95 0-50.771-10.702-68.69-29.493l-71.206-27.711c-12.81 4.783-26.272 7.204-40.104 7.204-63.411 0-115-51.589-115-115 0-58.356 43.695-106.701 100.085-114.037 2.122-50.519 43.885-90.963 94.915-90.963 48.39 0 88.445 36.365 94.271 83.203 41.094 10.82 70.729 48.283 70.729 91.797 0 9.291-1.345 18.409-4.009 27.235 21.487 17.951 34.009 44.365 34.009 72.765 0 52.383-42.617 95-95 95z" fill="#8ee26b"/><path d="m287.31 340.507c17.919 18.791 42.74 29.493 68.69 29.493 52.383 0 95-42.617 95-95 0-28.4-12.522-54.814-34.009-72.765 2.664-8.826 4.009-17.944 4.009-27.235 0-43.514-29.635-80.977-70.729-91.797-5.826-46.838-45.881-83.203-94.271-83.203v328.322z" fill="#00a763"/><path d="m215.99 260.001c-3.286 0-6.595-1.075-9.36-3.288l-62.5-50c-6.47-5.175-7.518-14.614-2.343-21.083 5.173-6.469 14.614-7.519 21.083-2.343l62.5 50c6.47 5.175 7.518 14.614 2.343 21.083-2.962 3.703-7.322 5.631-11.723 5.631z" fill="#8e4712"/><path d="m256 0c-5.104 0-10.112.411-15 1.19v93.81c0 8.284 6.716 15 15 15s15-6.716 15-15v-93.793c-4.889-.779-9.895-1.207-15-1.207z" fill="#00a763"/><g fill="#007845"><path d="m271 95v-93.793c-4.889-.779-9.895-1.207-15-1.207v110c8.284 0 15-6.716 15-15z"/><path d="m350.271 83.203c-2.8-22.516-13.526-42.596-29.271-57.395v129.192c0 8.284 6.716 15 15 15s15-6.716 15-15v-71.589c-.244-.066-.484-.143-.729-.208z"/><path d="m356 300c-8.284 0-15-6.716-15-15v-40c0-8.284 6.716-15 15-15s15 6.716 15 15v40c0 8.284-6.716 15-15 15z"/></g><path d="m172.584 503.708c-2.541-5.082-1.993-11.163 1.416-15.708 17.411-23.215 27-51.981 27-81v-212c0-4.619 2.128-8.98 5.769-11.823 3.641-2.842 8.388-3.85 12.869-2.729l80 20c6.677 1.669 11.362 7.669 11.362 14.552v192c0 29.019 9.589 57.785 27 81 3.409 4.545 3.957 10.626 1.416 15.708z" fill="#b46e3d"/><path d="m311 407v-192c0-6.883-4.685-12.883-11.362-14.552l-43.638-10.909v314.169h83.416c2.541-5.082 1.993-11.163-1.416-15.708-17.411-23.215-27-51.981-27-81z" fill="#8e4712"/><path d="m386 512h-260c-8.284 0-15-6.716-15-15s6.716-15 15-15h260c8.284 0 15 6.716 15 15s-6.716 15-15 15z" fill="#8ee26b"/><path d="m386 482h-130v30h130c8.284 0 15-6.716 15-15s-6.716-15-15-15z" fill="#00a763"/></g></svg>