<svg id="Capa_1" enable-background="new 0 0 512 512" height="512" viewBox="0 0 512 512" width="512" xmlns="http://www.w3.org/2000/svg"><g><path d="m326 350h-140c-30.327 0-55-24.673-55-55v-40c0-8.284 6.716-15 15-15s15 6.716 15 15v40c0 13.785 11.215 25 25 25h140c13.785 0 25-11.215 25-25v-40c0-8.284 6.716-15 15-15s15 6.716 15 15v40c0 30.327-24.673 55-55 55z" fill="#8e4712"/><path d="m366 240c-8.284 0-15 6.716-15 15v40c0 13.785-11.215 25-25 25h-70v30h70c30.327 0 55-24.673 55-55v-40c0-8.284-6.716-15-15-15z" fill="#70380f"/><path d="m256 350c-8.284 0-15-6.716-15-15v-80c0-8.284 6.716-15 15-15s15 6.716 15 15v80c0 8.284-6.716 15-15 15z" fill="#8e4712"/><path d="m271 335v-80c0-8.284-6.716-15-15-15v110c8.284 0 15-6.716 15-15z" fill="#70380f"/><path d="m341 335v162h-170v-162z" fill="#b46e3d"/><path d="m256 335h85v162h-85z" fill="#8e4712"/><path d="m426 350h-340c-30.327 0-55-24.673-55-55v-40c0-8.284 6.716-15 15-15s15 6.716 15 15v40c0 13.785 11.215 25 25 25h340c13.785 0 25-11.215 25-25v-40c0-8.284 6.716-15 15-15s15 6.716 15 15v40c0 30.327-24.673 55-55 55z" fill="#b46e3d"/><path d="m466 240c-8.284 0-15 6.716-15 15v40c0 13.785-11.215 25-25 25h-170v30h170c30.327 0 55-24.673 55-55v-40c0-8.284-6.716-15-15-15z" fill="#8e4712"/><path d="m396 512h-280c-8.284 0-15-6.716-15-15s6.716-15 15-15h280c8.284 0 15 6.716 15 15s-6.716 15-15 15z" fill="#8ee26b"/><path d="m396 482h-140v30h140c8.284 0 15-6.716 15-15s-6.716-15-15-15z" fill="#00a763"/><path d="m496 270h-480c-8.284 0-15-6.716-15-15 0-41.777 30.295-76.611 70.07-83.688 1.787-46.599 37.302-84.7 82.768-90.538 10.998-46.842 52.881-80.774 102.162-80.774s91.164 33.932 102.162 80.774c45.466 5.838 80.98 43.939 82.768 90.538 39.775 7.077 70.07 41.911 70.07 83.688 0 8.284-6.716 15-15 15z" fill="#8ee26b"/><path d="m276 420c-8.284 0-15-6.716-15-15v-20c0-8.284 6.716-15 15-15s15 6.716 15 15v20c0 8.284-6.716 15-15 15z" fill="#70380f"/><path d="m236 460c-8.284 0-15-6.716-15-15v-20c0-8.284 6.716-15 15-15s15 6.716 15 15v20c0 8.284-6.716 15-15 15z" fill="#8e4712"/><path d="m496 270c8.284 0 15-6.716 15-15 0-41.777-30.295-76.611-70.07-83.688-1.787-46.599-37.302-84.7-82.768-90.538-10.998-46.842-52.881-80.774-102.162-80.774v270z" fill="#00a763"/><circle cx="211" cy="200" fill="#00a763" r="15"/><circle cx="281" cy="100" fill="#007845" r="15"/><circle cx="151" cy="160" fill="#00a763" r="15"/></g></svg>