<svg id="Capa_1" enable-background="new 0 0 512 512" height="512" viewBox="0 0 512 512" width="512" xmlns="http://www.w3.org/2000/svg"><g><path d="m161.619 492.736 16.29-54.942c.015-.05.03-.099.045-.147 13.853-45.023 8.395-94.304-14.978-135.204-2.653-4.643-2.634-10.347.05-14.972 2.684-4.624 7.627-7.471 12.974-7.471h160c5.347 0 10.29 2.847 12.974 7.471 2.684 4.625 2.703 10.329.05 14.972-23.372 40.9-28.831 90.181-14.978 135.204.015.049.03.098.045.147l16.29 54.942z" fill="#b46e3d"/><path d="m348.974 287.471c-2.684-4.624-7.627-7.471-12.974-7.471h-80v212.736h94.381l-16.29-54.942c-.015-.05-.03-.099-.045-.147-13.853-45.023-8.395-94.304 14.978-135.204 2.653-4.643 2.634-10.347-.05-14.972z" fill="#8e4712"/><path d="m256 370c-8.284 0-15-6.716-15-15v-60c0-8.284 6.716-15 15-15s15 6.716 15 15v60c0 8.284-6.716 15-15 15z" fill="#00a763"/><path d="m386 380c-8.284 0-15-6.716-15-15v-70c0-8.284 6.716-15 15-15s15 6.716 15 15v70c0 8.284-6.716 15-15 15z" fill="#007845"/><path d="m446 410c-8.284 0-15-6.716-15-15v-100.899c0-8.284 6.716-15 15-15s15 6.716 15 15v100.899c0 8.284-6.716 15-15 15z" fill="#007845"/><path d="m66 380c-8.284 0-15-6.716-15-15v-70.899c0-8.284 6.716-15 15-15s15 6.716 15 15v70.899c0 8.284-6.716 15-15 15z" fill="#00a763"/><path d="m126 410c-8.284 0-15-6.716-15-15v-100c0-8.284 6.716-15 15-15s15 6.716 15 15v100c0 8.284-6.716 15-15 15z" fill="#00a763"/><path d="m271 355v-60c0-8.284-6.716-15-15-15v90c8.284 0 15-6.716 15-15z" fill="#007845"/><path d="m436 310h-360c-41.355 0-75-33.645-75-75 0-26.335 13.543-50.151 35.375-63.67-.251-2.121-.375-4.226-.375-6.33 0-21.639 11.687-41.218 30.026-51.771.939-32.268 27.481-58.229 59.974-58.229 4.712 0 9.383.579 13.981 1.728 11.24-13.646 27.934-21.728 46.019-21.728 2.103 0 4.208.124 6.331.375 13.517-21.832 37.334-35.375 63.669-35.375s50.152 13.543 63.669 35.375c2.123-.251 4.228-.375 6.331-.375 18.085 0 34.779 8.082 46.019 21.728 4.598-1.149 9.269-1.728 13.981-1.728 32.493 0 59.035 25.961 59.974 58.229 18.339 10.553 30.026 30.132 30.026 51.771 0 2.104-.124 4.209-.375 6.33 21.832 13.519 35.375 37.335 35.375 63.67 0 41.355-33.645 75-75 75z" fill="#8ee26b"/><path d="m436 310c41.355 0 75-33.645 75-75 0-26.335-13.543-50.151-35.375-63.67.25-2.121.375-4.227.375-6.33 0-21.639-11.687-41.218-30.026-51.771-.939-32.268-27.481-58.229-59.974-58.229-4.712 0-9.383.579-13.981 1.728-11.24-13.646-27.934-21.728-46.019-21.728-2.103 0-4.208.124-6.331.375-13.517-21.832-37.334-35.375-63.669-35.375v310z" fill="#00a763"/><path d="m406 512h-300c-8.284 0-15-6.716-15-15s6.716-15 15-15h300c8.284 0 15 6.716 15 15s-6.716 15-15 15z" fill="#8ee26b"/><path d="m406 482h-150v30h150c8.284 0 15-6.716 15-15s-6.716-15-15-15z" fill="#00a763"/></g></svg>