<svg id="Capa_1" enable-background="new 0 0 512 512" height="512" viewBox="0 0 512 512" width="512" xmlns="http://www.w3.org/2000/svg"><g><path d="m296 432h-80c-8.284 0-15-6.716-15-15v-97h-30c-57.897 0-105-47.103-105-105v-30c0-8.284 6.716-15 15-15h50c8.284 0 15 6.716 15 15v30c0 8.271 6.729 15 15 15h83.919c22.666-19.391 51.225-30 81.081-30 8.271 0 15-6.729 15-15v-50c0-8.284 6.716-15 15-15h60c8.284 0 15 6.716 15 15v60c0 57.897-47.103 105-105 105-8.271 0-15 6.729-15 15v102c0 8.284-6.716 15-15 15z" fill="#b46e3d"/><path d="m416 120h-60c-8.284 0-15 6.716-15 15v50c0 8.271-6.729 15-15 15-25.174 0-49.425 7.543-70 21.533v210.467h40c8.284 0 15-6.716 15-15v-102c0-8.271 6.729-15 15-15 57.897 0 105-47.103 105-105v-60c0-8.284-6.716-15-15-15z" fill="#8e4712"/><path d="m457 150h-180c-24.813 0-45-20.187-45-45 0-19.733 12.77-36.542 30.479-42.597 3.744-29.51 29.009-52.403 59.521-52.403 10.765 0 21.065 2.824 30.113 8.133 11.932-11.553 27.846-18.133 44.887-18.133 26.746 0 50.04 16.155 59.892 40h.108c30.327 0 55 24.673 55 55s-24.673 55-55 55z" fill="#337030"/><path d="m457 40c-.036 0-.072 0-.108 0-9.852-23.845-33.146-40-59.892-40-17.041 0-32.955 6.58-44.887 18.133-9.048-5.309-19.348-8.133-30.113-8.133-30.512 0-55.777 22.893-59.521 52.403-2.244.767-4.409 1.709-6.479 2.806v79.573c6.274 3.325 13.419 5.218 21 5.218h180c30.327 0 55-24.673 55-55s-24.673-55-55-55z" fill="#3b4a17"/><path d="m165 200h-110c-30.327 0-55-24.673-55-55s24.673-55 55-55c5.447 0 10.801.795 15.923 2.343 10.177-13.786 26.424-22.343 44.077-22.343 25.165 0 46.436 16.985 52.948 40.096 23.445 1.523 42.052 21.082 42.052 44.904 0 24.813-20.187 45-45 45z" fill="#337030"/><path d="m436 372v60h-80v-60c0-22.091 17.909-40 40-40 22.091 0 40 17.909 40 40z" fill="#e5dad1"/><path d="m416 512h-320c-35.841 0-65-29.159-65-65v-30c0-8.284 6.716-15 15-15h420c8.284 0 15 6.716 15 15v30c0 35.841-29.159 65-65 65z" fill="#e5dad1"/><path d="m466 402h-210v110h160c35.841 0 65-29.159 65-65v-30c0-8.284-6.716-15-15-15z" fill="#cbb5a3"/></g></svg>