<svg id="Capa_1" enable-background="new 0 0 512 512" height="512" viewBox="0 0 512 512" width="512" xmlns="http://www.w3.org/2000/svg"><g><path d="m426 390h-280c-46.869 0-85-38.131-85-85 0-6.264.696-12.475 2.077-18.57-19.819-13.882-32.077-36.801-32.077-61.43 0-4.734.459-9.456 1.371-14.126-19.825-16.047-31.371-39.941-31.371-65.874 0-46.869 38.131-85 85-85 1.203 0 2.417.028 3.636.084 12.789-24.395 38.126-40.084 66.364-40.084 12.642 0 24.991 3.214 35.954 9.227 15.991-18.322 39.356-29.227 64.046-29.227 27.094 0 51.983 12.689 67.873 33.891 7.053-2.566 14.523-3.891 22.127-3.891 26.843 0 50.347 16.645 60.045 40.679 3.303-.452 6.625-.679 9.955-.679 41.355 0 75 33.645 75 75 0 17.592-6.183 34.455-17.272 47.818 4.783 10.008 7.272 20.94 7.272 32.182 0 4.734-.459 9.456-1.371 14.126 19.824 16.047 31.371 39.941 31.371 65.874 0 46.869-38.131 85-85 85z" fill="#ffd228"/><path d="m426 390c46.869 0 85-38.131 85-85 0-25.933-11.547-49.827-31.371-65.874.912-4.67 1.371-9.392 1.371-14.126 0-11.242-2.489-22.174-7.272-32.182 11.089-13.363 17.272-30.226 17.272-47.818 0-41.355-33.645-75-75-75-3.33 0-6.652.227-9.955.679-9.698-24.034-33.202-40.679-60.045-40.679-7.604 0-15.074 1.325-22.127 3.891-15.89-21.202-40.779-33.891-67.873-33.891v390z" fill="#ffb400"/><path d="m221.049 258.381c-3.219 0-6.461-1.031-9.199-3.161l-87.916-68.38c-6.54-5.086-7.717-14.51-2.631-21.049 5.087-6.54 14.512-7.719 21.049-2.631l87.916 68.38c6.54 5.086 7.717 14.51 2.631 21.049-2.957 3.802-7.38 5.792-11.85 5.792z" fill="#7d5c40"/><path d="m286.007 230c-4.228 0-8.429-1.776-11.396-5.238-5.392-6.29-4.663-15.759 1.627-21.15l70-60c6.288-5.392 15.759-4.664 21.15 1.627 5.392 6.29 4.663 15.759-1.627 21.15l-70 60c-2.827 2.424-6.299 3.611-9.754 3.611z" fill="#5c452e"/><path d="m295.494 299.848c-4.471 0-8.894-1.99-11.851-5.792-5.087-6.539-3.908-15.963 2.631-21.049l70.517-54.847c6.54-5.088 15.964-3.908 21.049 2.631 5.087 6.539 3.908 15.963-2.631 21.049l-70.517 54.847c-2.737 2.128-5.98 3.161-9.198 3.161z" fill="#5c452e"/><path d="m201 497v-192.558c0-60.83 14.379-121.742 41.583-176.15 2.542-5.082 7.735-8.292 13.417-8.292s10.876 3.21 13.416 8.292c27.205 54.409 41.584 115.321 41.584 176.15v192.558z" fill="#b48e6e"/><g fill="#7d5c40"><path d="m311 497v-192.558c0-60.829-14.379-121.741-41.584-176.15-2.54-5.082-7.734-8.292-13.416-8.292v377z"/><path d="m201 427v30h20c8.284 0 15-6.716 15-15s-6.716-15-15-15z"/><path d="m201 307v30h20c8.284 0 15-6.716 15-15s-6.716-15-15-15z"/></g><path d="m311 372h-20c-8.284 0-15 6.716-15 15s6.716 15 15 15h20z" fill="#5c452e"/><path d="m386 512h-260c-8.284 0-15-6.716-15-15s6.716-15 15-15h260c8.284 0 15 6.716 15 15s-6.716 15-15 15z" fill="#8ee26b"/><path d="m386 482h-130v30h130c8.284 0 15-6.716 15-15s-6.716-15-15-15z" fill="#00a763"/></g></svg>