<svg id="Capa_1" enable-background="new 0 0 512 512" height="512" viewBox="0 0 512 512" width="512" xmlns="http://www.w3.org/2000/svg"><g><path d="m346 350c-20.825 0-40.46-7.431-55.964-21.056h-68.072c-15.504 13.625-35.139 21.056-55.964 21.056-45.25 0-82.355-35.545-84.865-80.179-1.707.119-3.419.179-5.135.179-41.355 0-75-33.645-75-75 0-36.241 25.841-66.562 60.063-73.506 1.851-50.766 43.727-91.494 94.937-91.494 12.19 0 24.198 2.357 35.427 6.898 5.015-8.467 11.683-15.969 19.576-21.898 13.062-9.813 28.622-15 44.997-15 28.363 0 54.139 16.289 66.775 40.944 4.398-.628 8.816-.944 13.225-.944 43.444 0 80.61 29.245 91.645 70.016 46.113.879 83.355 38.664 83.355 84.984 0 45.634-36.146 82.983-81.312 84.921-7.072 39.779-41.908 70.079-83.688 70.079z" fill="#00a763"/><path d="m290.036 328.944c15.504 13.625 35.139 21.056 55.964 21.056 41.78 0 76.616-30.3 83.688-70.079 45.166-1.938 81.312-39.287 81.312-84.921 0-46.32-37.242-84.105-83.355-84.984-11.035-40.771-48.201-70.016-91.645-70.016-4.409 0-8.827.316-13.225.944-12.636-24.655-38.412-40.944-66.775-40.944v328.944z" fill="#007845"/><path d="m156 170h30c8.271 0 15-6.729 15-15v-40c0-8.284 6.716-15 15-15s15 6.716 15 15v40c0 24.813-20.187 45-45 45h-30z" fill="#8e4712"/><path d="m156 215h-60c-8.284 0-15-6.716-15-15s6.716-15 15-15h60z" fill="#8e4712"/><path d="m356 200h30c8.271 0 15-6.729 15-15v-10c0-8.284 6.716-15 15-15s15 6.716 15 15v10c0 24.813-20.187 45-45 45h-30z" fill="#70380f"/><path d="m356 200h-35c-30.327 0-55-24.673-55-55v-40c0-8.284 6.716-15 15-15s15 6.716 15 15v40c0 13.785 11.215 25 25 25h35z" fill="#70380f"/><path d="m256 280c-8.284 0-15-6.716-15-15v-40c0-8.284 6.716-15 15-15s15 6.716 15 15v40c0 8.284-6.716 15-15 15z" fill="#8e4712"/><path d="m271 265v-40c0-8.284-6.716-15-15-15v70c8.284 0 15-6.716 15-15z" fill="#70380f"/><path d="m355.591 485.468c-27.479-22.847-44.591-55.771-44.591-91.508v-143.96h-115c-13.785 0-25-11.215-25-25v-80c0-8.284-6.716-15-15-15s-15 6.716-15 15v80c0 30.327 24.673 55 55 55h5v113.96c0 35.737-17.112 68.66-44.591 91.507-4.81 3.999-6.64 10.576-4.563 16.497h208.309c2.076-5.92.246-12.497-4.564-16.496z" fill="#b46e3d"/><path d="m316 280c30.327 0 55-24.673 55-55v-80c0-8.284-6.716-15-15-15s-15 6.716-15 15v80c0 13.785-11.215 25-25 25h-60v251.965h104.154c2.077-5.921.247-12.498-4.563-16.497-27.479-22.847-44.591-55.771-44.591-91.508v-113.96z" fill="#8e4712"/><path d="m396 512h-280c-8.284 0-15-6.716-15-15s6.716-15 15-15h280c8.284 0 15 6.716 15 15s-6.716 15-15 15z" fill="#8ee26b"/><path d="m396 482h-140v30h140c8.284 0 15-6.716 15-15s-6.716-15-15-15z" fill="#00a763"/></g></svg>