<svg id="Capa_1" enable-background="new 0 0 512 512" height="512" viewBox="0 0 512 512" width="512" xmlns="http://www.w3.org/2000/svg"><g><path d="m446 291c-2.151 0-4.35-.133-6.551-.396h-108.404c-8.284 0-15-6.716-15-15v-234.243c0-6.542 4.239-12.329 10.477-14.302 11.937-3.774 24.37-5.806 36.956-6.036 36.591-.687 71.038 13.055 97.1 38.643 26.067 25.595 40.422 59.807 40.422 96.334v80c0 30.327-24.673 55-55 55z" fill="#d061e7"/><path d="m201 497v-377h109.096l.904 376.957z" fill="#b46e3d"/><path d="m256 120v376.979l55-.022-.904-376.957z" fill="#8e4712"/><path d="m341 345.021v39.979c0 19.33-15.67 35-35 35-19.33 0-35-15.67-35-35v-77.26c0-27.02 11.162-53.182 30.625-71.777 1.576-1.506 3.462-2.65 5.525-3.354l62.43-21.265c2.058-.699 4.241-.944 6.402-.719 48.468 5.088 85.018 45.66 85.018 94.375v100c0 19.33-15.67 35-35 35-19.33 0-35-15.67-35-35v-59.979c0-13.807-11.193-25-25-25-13.807 0-25 11.193-25 25z" fill="#f9d5e7"/><path d="m386 512h-260c-8.284 0-15-6.716-15-15s6.716-15 15-15h260c8.284 0 15 6.716 15 15s-6.716 15-15 15z" fill="#8ee26b"/><path d="m386 482h-130v30h130c8.284 0 15-6.716 15-15s-6.716-15-15-15z" fill="#00a763"/><path d="m221 340v-182.675c0-8.284-6.716-15-15-15h-68.378c-9.518-2.006-19.123-2.713-28.582-2.1-54.976 3.561-98.04 50.937-98.04 107.858v61.917c0 22.091 17.909 40 40 40 22.091 0 40-17.909 40-40v-15l50 .435v44.565c0 22.091 17.909 40 40 40 22.091 0 40-17.909 40-40z" fill="#eca0e2"/><path d="m341 270.002c-27.614 0-50-22.386-50-50v-35c0-19.33-15.67-35-35-35-19.33 0-35 15.67-35 35v15c0 27.614-22.386 50-50 50-27.614 0-50-22.386-50-50v-63.697c0-35.539 13.54-69.227 38.127-94.857 24.732-25.783 57.874-40.486 93.319-41.399h.001c36.276-.955 70.626 12.312 96.798 37.33 26.954 25.764 41.755 61.736 41.755 99.023v83.6c0 27.615-22.386 50-50 50z" fill="#f9d5e7"/><path d="m430 197c-8.284 0-15-6.716-15-15v-30c0-8.284 6.716-15 15-15s15 6.716 15 15v30c0 8.284-6.716 15-15 15z" fill="#eca0e2"/><path d="m349.246 37.378c-25.317-24.199-58.285-37.402-93.246-37.376v150c19.33 0 35 15.67 35 35v35c0 27.614 22.386 50 50 50 27.614 0 50-22.386 50-50v-83.6c0-37.287-14.801-73.259-41.754-99.024z" fill="#eca0e2"/><g fill="#d061e7"><path d="m80 249c-8.284 0-15-6.716-15-15v-20c0-8.284 6.716-15 15-15s15 6.716 15 15v20c0 8.284-6.716 15-15 15z"/><path d="m306 120c-8.284 0-15-6.716-15-15v-20c0-8.284 6.716-15 15-15s15 6.716 15 15v20c0 8.284-6.716 15-15 15z"/></g></g></svg>