<svg id="Layer_1" height="512" viewBox="0 0 512 512" width="512" xmlns="http://www.w3.org/2000/svg" data-name="Layer 1"><path d="m292.84 213.98-83.45 24.86a16.005 16.005 0 0 0 -11.43 15.34v112.33l59.52 10.88 184.48-1.27v-97.6z" fill="#fea92a"/><path d="m441.96 336.12h11.6a41.27 41.27 0 0 1 0 82.54h-158.81a41.27 41.27 0 0 1 0-82.54z" fill="#6d7486"/><circle cx="454.38" cy="377.48" fill="#4a5160" r="20.09"/><circle cx="373.18" cy="377.48" fill="#4a5160" r="20.09"/><path d="m283.48 377.39a41.381 41.381 0 0 1 41.27-41.27h-30a41.27 41.27 0 0 0 0 82.54h30a41.389 41.389 0 0 1 -41.27-41.27z" fill="#596070"/><circle cx="295.35" cy="377.48" fill="#4a5160" r="20.09"/><path d="m239.39 238.84 54.645-16.279-1.655-8.444-82.99 24.723a16.005 16.005 0 0 0 -11.43 15.34v112.33l30 5.484v-117.814a16.005 16.005 0 0 1 11.43-15.34z" fill="#ffcc8f"/><path d="m311.44 83.81a26.016 26.016 0 0 0 -26 26h175.12v-26z" fill="#fea92a"/><path d="m149.32 248.19h-12.57l-16.96 95.3-72.4 60.34-35.43-.43v24.79h93.36a39.242 39.242 0 0 0 38.78-33.22l20.13-129.38a15.082 15.082 0 0 0 -14.91-17.4z" fill="#eadf53"/><path d="m173.71 313.65h-16.96l-7.62 48.98.58.09h22a7 7 0 0 0 7-7v-35.07c0-3.87-1.13-7-5-7z" fill="#b0b5ca"/><path d="m197.96 328.07v20.23h-19-.25v-20.23h.25z" fill="#6d7486"/><path d="m359.25 110.06v169.06h83.79v-58.14-111.17z" fill="#eadf53"/><path d="m359.764 176.06h-62.281l-5.13 37.92 12.6 64.29h33.271l21.629.23z" fill="#fff655"/><path d="m416.19 109.81v50.07a16.183 16.183 0 0 1 -16.19 16.18h-39.75v-66.25z" fill="#6addc7"/><path d="m360.25 109.81v66.25h-62.28l8.97-66.25z" fill="#a3efe0"/><path d="m441.96 296.52h-109.19l6.57-18.02 20.91-57.38h83.79 38.92l9.55 59.16-23.55 16.24z" fill="#cad9ea"/><path d="m323.06 91.43a25.882 25.882 0 0 1 18.38-7.62h-30a26.016 26.016 0 0 0 -26 26h30a25.917 25.917 0 0 1 7.62-18.38z" fill="#ffcc8f"/><path d="m322.38 214.117-.027-.137 5.13-37.92h-29.513-.487l-5.13 37.92.027.137 1.655 8.444z" fill="#fff9ab"/><path d="m327.97 176.06 8.97-66.25h-21.5-8.5l-8.97 66.25h29.513z" fill="#cafff5"/><path d="m149.32 248.19h-12.57l-16.96 95.3-72.4 60.34-35.43-.43v10.93l45.43-.5 72.4-60.34 19.964-105.282c-.145-.008-.287-.018-.434-.018z" fill="#fff6a4"/><g fill="#333944"><path d="m506.036 377.483a6 6 0 0 0 -5.592-5.979 46.841 46.841 0 0 0 -3.262-12.3 5.993 5.993 0 0 0 -5.976-10.354 47.667 47.667 0 0 0 -9-9.02 5.995 5.995 0 0 0 -10.329-6.012 46.9 46.9 0 0 0 -12.334-3.305 5.994 5.994 0 0 0 -11.9-.393h-10.114a5.992 5.992 0 0 0 -11.851 0h-13.564a5.992 5.992 0 0 0 -11.851 0h-10.118a5.992 5.992 0 0 0 -11.852 0h-10.117a5.992 5.992 0 0 0 -11.852 0h-10.118a5.992 5.992 0 0 0 -11.852 0h-10.118a5.992 5.992 0 0 0 -11.851 0h-11.6a5.994 5.994 0 0 0 -11.9.376 46.858 46.858 0 0 0 -12.362 3.282 6 6 0 0 0 -10.341 5.981 47.624 47.624 0 0 0 -9.047 9.043 6 6 0 0 0 -5.989 10.336 46.918 46.918 0 0 0 -3.289 12.369 6 6 0 0 0 .024 11.947 46.838 46.838 0 0 0 3.325 12.329 5.988 5.988 0 0 0 6.027 10.314 47.642 47.642 0 0 0 9.017 8.971 5.989 5.989 0 0 0 10.362 5.963 46.853 46.853 0 0 0 12.263 3.245 5.994 5.994 0 0 0 11.937.378h11.54a6 6 0 0 0 11.909 0h10.061a6 6 0 0 0 11.908 0h10.07a6 6 0 0 0 11.908 0h10.061a6 6 0 0 0 11.908 0h10.061a6 6 0 0 0 11.909 0h13.506a6 6 0 0 0 11.909 0h10.061a5.994 5.994 0 0 0 11.938-.394 46.91 46.91 0 0 0 12.231-3.26 5.989 5.989 0 0 0 10.352-6 47.676 47.676 0 0 0 8.961-8.944 5.99 5.99 0 0 0 6.019-10.335 46.933 46.933 0 0 0 3.3-12.257 6 6 0 0 0 5.612-5.981zm-52.479 35.175h-158.808a35.267 35.267 0 1 1 0-70.534h158.808a35.267 35.267 0 1 1 0 70.534z"/><path d="m320.843 371.94q-.266-1.224-.643-2.4a6 6 0 0 0 -5.556-9.6q-.832-.913-1.748-1.748a6 6 0 0 0 -9.6-5.554q-1.178-.378-2.4-.643a6 6 0 0 0 -11.088 0q-1.224.266-2.4.642a6 6 0 0 0 -9.6 5.556q-.915.831-1.748 1.747a6 6 0 0 0 -5.556 9.6q-.378 1.177-.643 2.4a6 6 0 0 0 0 11.088q.266 1.223.643 2.4a6 6 0 0 0 5.556 9.6q.833.913 1.748 1.747a6 6 0 0 0 9.6 5.555q1.179.378 2.4.643a6 6 0 0 0 11.088 0q1.223-.265 2.4-.643a6 6 0 0 0 9.6-5.555q.915-.833 1.748-1.747a6 6 0 0 0 5.556-9.6q.378-1.176.643-2.4a6 6 0 0 0 0-11.087zm-25.491 19.633a14.09 14.09 0 1 1 14.089-14.09 14.105 14.105 0 0 1 -14.089 14.09z"/><path d="m483.578 377.483a6 6 0 0 0 -3.707-5.544q-.265-1.223-.643-2.4a6 6 0 0 0 -5.555-9.6q-.832-.913-1.748-1.747a6 6 0 0 0 -9.6-5.556q-1.178-.376-2.4-.642a6 6 0 0 0 -11.088 0q-1.222.266-2.4.642a6 6 0 0 0 -9.6 5.555q-.915.833-1.748 1.748a6 6 0 0 0 -5.557 9.6q-.376 1.177-.642 2.4a6 6 0 0 0 0 11.088q.264 1.223.642 2.4a6 6 0 0 0 5.557 9.6q.833.913 1.748 1.747a6 6 0 0 0 9.6 5.555q1.179.378 2.4.643a6 6 0 0 0 11.088 0q1.223-.265 2.4-.643a6 6 0 0 0 9.6-5.555q.913-.833 1.748-1.747a6 6 0 0 0 5.555-9.6q.378-1.177.643-2.4a6 6 0 0 0 3.707-5.544zm-29.2 14.09a14.09 14.09 0 1 1 14.089-14.09 14.106 14.106 0 0 1 -14.086 14.09z"/><path d="m398.674 371.94q-.265-1.224-.643-2.4a6 6 0 0 0 -5.555-9.6q-.834-.915-1.749-1.749a6 6 0 0 0 -9.6-5.554q-1.178-.378-2.4-.643a6 6 0 0 0 -11.088 0q-1.222.266-2.4.642a6 6 0 0 0 -9.6 5.555q-.916.833-1.748 1.748a6 6 0 0 0 -5.557 9.6q-.378 1.177-.643 2.4a6 6 0 0 0 0 11.087q.266 1.223.643 2.4a6 6 0 0 0 5.557 9.6q.831.913 1.748 1.747a6 6 0 0 0 9.6 5.555q1.18.378 2.4.643a6 6 0 0 0 11.088 0q1.222-.265 2.4-.643a6 6 0 0 0 9.6-5.555q.915-.833 1.748-1.747a6 6 0 0 0 5.556-9.6q.378-1.176.643-2.4a6 6 0 0 0 0-11.087zm-25.491 19.633a14.09 14.09 0 1 1 14.089-14.09 14.106 14.106 0 0 1 -14.089 14.09z"/></g><path d="m243.106 163.352a6 6 0 0 1 -6-6v-26.912a8.972 8.972 0 0 0 -5.013-8.085l-4.093-2.031a6 6 0 1 1 5.332-10.75l4.094 2.031a20.9 20.9 0 0 1 11.681 18.835v26.912a6 6 0 0 1 -6.001 6z" fill="#d4e1f4"/><path d="m253.92 157.35v68.22l-22.63 6.74v-74.96h11.82z" fill="#fff655"/></svg>