<svg id="Layer_1" height="512" viewBox="0 0 512 512" width="512" xmlns="http://www.w3.org/2000/svg" data-name="Layer 1"><path d="m219 282.16v36.71l21 20.4h260.69v-57.11z" fill="#5a616d"/><path d="m125.3 177.73-10.24 19.77 17.76 43.55.07.5 24.86 16.08a29.973 29.973 0 0 1 13.7 24.34l.87 34.9 46.68 1v-140.14z" fill="#cad7e5"/><path d="m171.45 281.97a29.973 29.973 0 0 0 -13.7-24.34l-24.86-16.08-.07-.5-43.32 5.78-49.38 12.49a29.117 29.117 0 0 0 -21.93 26.6l-.26 4.59 32.99 55.54h.07a54.765 54.765 0 1 1 109.53 0h.09l11.71-29.18z" fill="#d4e1f4"/><path d="m140.91 346.11a35.145 35.145 0 1 1 -4.71-17.58 34.86 34.86 0 0 1 4.71 17.58z" fill="#7d8496"/><path d="m430.29 315.67a35.152 35.152 0 1 1 -12.86 12.86 34.9 34.9 0 0 1 12.86-12.86z" fill="#7d8496"/><path d="m356.11 381.26a35.15 35.15 0 1 1 34.49-41.99 35.813 35.813 0 0 1 .66 6.84 35.145 35.145 0 0 1 -35.15 35.15z" fill="#7d8496"/><path d="m238 312.87h-73.39a4 4 0 0 0 -4 4v38.8a4.005 4.005 0 0 0 4 4h73.39a4.005 4.005 0 0 0 4-4v-38.8a4 4 0 0 0 -4-4z" fill="#b0b5ca"/><path d="m447.87 263.17v18.99h-89.94v-18.99a4.012 4.012 0 0 1 4-4h81.94a4.012 4.012 0 0 1 4 4z" fill="#cad7e5"/><path d="m212 130.81v46.92h-86.7c50.83-50.83 86.7-46.92 86.7-46.92z" fill="#d4e1f4"/><path d="m157.76 197.5v25.01a17.373 17.373 0 0 1 -15.08 17.22l-9.86 1.32-43.32 5.78 25.56-49.33z" fill="#688db5"/><path d="m42.5 318.1v.23h-26.12l1.55-27.82h24.57z" fill="#fb6771"/><path d="m16.38 318.33h34.54v39.55h-31.62a7.987 7.987 0 0 1 -7.99-7.99v-31.56z" fill="#6d7486"/><path d="m443.41 363.68a35.1 35.1 0 0 1 17.449-50.226 35.139 35.139 0 0 0 -43.429 15.076 35.145 35.145 0 0 0 0 35.15 35.122 35.122 0 0 0 43.434 15.083 34.895 34.895 0 0 1 -17.454-15.083z" fill="#666e7f"/><path d="m96.59 346.11a35.143 35.143 0 0 1 22.15-32.659 35.151 35.151 0 1 0 .005 65.314 35.083 35.083 0 0 1 -22.155-32.655z" fill="#666e7f"/><path d="m351.65 363.68a35.137 35.137 0 0 1 0-35.15 35.2 35.2 0 0 1 17.463-15.08 35.164 35.164 0 0 0 -43.443 15.08 35.145 35.145 0 0 0 0 35.15 35.129 35.129 0 0 0 43.43 15.086 34.743 34.743 0 0 1 -4.582-2.216 35.149 35.149 0 0 1 -12.868-12.87z" fill="#666e7f"/><circle cx="105.76" cy="346.11" fill="#59b4e2" r="16.62"/><circle cx="356.11" cy="346.11" fill="#59b4e2" r="16.62"/><circle cx="447.87" cy="346.11" fill="#59b4e2" r="16.62"/><path d="m42.5 315.817 1.41-25.307.26-4.59a29.117 29.117 0 0 1 21.93-26.6l49.38-12.49 1.929-3.724-27.909 3.724-49.38 12.49a29.117 29.117 0 0 0 -21.93 26.6l-.26 4.59h24.57z" fill="#bccee2"/><path d="m151.28 177.73c24.5-24.495 45.513-36.275 60.72-41.91v-5.01s-35.87-3.91-86.7 46.92z" fill="#bccee2"/><path d="m141.04 197.5 10.24-19.77h-25.98l-10.24 19.77z" fill="#aec1d1"/><path d="m141.04 197.5h-25.98l-25.56 49.33 27.909-3.724z" fill="#9ebfdd"/><path d="m17.93 290.51-1.55 27.82h11.98l.14-27.82z" fill="#ffb8bf"/><path d="m37.29 349.89v-31.56h-25.98v31.56a7.987 7.987 0 0 0 7.99 7.99h25.98a7.987 7.987 0 0 1 -7.99-7.99z" fill="#a6adbc"/><g fill="#515866"><path d="m105.757 371.438a6 6 0 0 0 -6 6v3.293a34.291 34.291 0 0 0 12 0v-3.293a6 6 0 0 0 -6-6z"/><path d="m105.757 320.775a6 6 0 0 0 6-6v-3.286a34.581 34.581 0 0 0 -12-.009v3.295a6 6 0 0 0 6 6z"/><path d="m80.425 346.106a6 6 0 0 0 -6-6h-3.294a34.548 34.548 0 0 0 .008 12h3.286a6 6 0 0 0 6-6z"/><path d="m140.381 340.106h-3.293a6 6 0 1 0 0 12h3.293a34.291 34.291 0 0 0 0-12z"/><path d="m83.819 358.772a6 6 0 0 0 -8.2-2.2l-2.857 1.649a35.054 35.054 0 0 0 6.01 10.387l2.847-1.644a6 6 0 0 0 2.2-8.192z"/><path d="m127.694 333.441a6 6 0 0 0 8.2 2.2l2.857-1.649a34.325 34.325 0 0 0 -6.009-10.387l-2.848 1.644a6 6 0 0 0 -2.2 8.192z"/><path d="m118.422 368.044a6 6 0 0 0 -2.195 8.2l1.648 2.855a34.341 34.341 0 0 0 10.387-6.01l-1.644-2.846a6 6 0 0 0 -8.196-2.199z"/><path d="m90.1 324.974a6 6 0 0 0 5.19-9l-1.654-2.865a35.107 35.107 0 0 0 -10.387 6.009l1.65 2.857a6 6 0 0 0 5.201 2.999z"/><path d="m93.092 368.044a6 6 0 0 0 -8.2 2.2l-1.645 2.848a34.325 34.325 0 0 0 10.391 6.008l1.649-2.856a6 6 0 0 0 -2.195-8.2z"/><path d="m118.422 324.168a5.995 5.995 0 0 0 8.2-2.195l1.644-2.847a35.024 35.024 0 0 0 -10.386-6.009l-1.649 2.855a6 6 0 0 0 2.191 8.196z"/><path d="m127.694 358.772a6 6 0 0 0 2.2 8.2l2.847 1.644a35.112 35.112 0 0 0 3.463-4.932 34.711 34.711 0 0 0 2.548-5.454l-2.858-1.65a6 6 0 0 0 -8.2 2.192z"/><path d="m78.618 336.442a6 6 0 0 0 3.005-11.2l-2.856-1.642a35.076 35.076 0 0 0 -6.01 10.387l2.866 1.654a5.97 5.97 0 0 0 2.995.801z"/><path d="m356.113 371.438a6 6 0 0 0 -6 6v3.294a34.323 34.323 0 0 0 12 0v-3.293a6 6 0 0 0 -6-6.001z"/><path d="m356.113 320.775a6 6 0 0 0 6-6v-3.3a34.744 34.744 0 0 0 -12 .014v3.286a6 6 0 0 0 6 6z"/><path d="m330.782 346.106a6 6 0 0 0 -6-6h-3.3a34.451 34.451 0 0 0 0 12h3.294a6 6 0 0 0 6.006-6z"/><path d="m390.742 340.106h-3.3a6 6 0 1 0 0 12h3.287a35.352 35.352 0 0 0 .529-6 35.768 35.768 0 0 0 -.516-6z"/><path d="m334.176 358.772a6 6 0 0 0 -8.2-2.2l-2.858 1.65a34.664 34.664 0 0 0 2.548 5.454 35.1 35.1 0 0 0 3.463 4.931l2.847-1.643a6 6 0 0 0 2.2-8.192z"/><path d="m378.051 333.441a6 6 0 0 0 8.2 2.2l2.863-1.653a35.085 35.085 0 0 0 -6.014-10.388l-2.856 1.649a6 6 0 0 0 -2.193 8.192z"/><path d="m368.777 368.044a6 6 0 0 0 -2.194 8.2l1.65 2.856a34.336 34.336 0 0 0 10.386-6.009l-1.645-2.849a6 6 0 0 0 -8.197-2.198z"/><path d="m340.453 324.974a6 6 0 0 0 5.191-9l-1.644-2.857a35.03 35.03 0 0 0 -10.387 6.009l1.643 2.847a6 6 0 0 0 5.197 3.001z"/><path d="m343.447 368.044a6 6 0 0 0 -8.2 2.2l-1.643 2.846a35.036 35.036 0 0 0 4.932 3.464 34.664 34.664 0 0 0 5.454 2.548l1.65-2.858a6 6 0 0 0 -2.193-8.2z"/><path d="m368.777 324.168a6 6 0 0 0 8.2-2.194l1.652-2.861a35.117 35.117 0 0 0 -10.388-6.006l-1.655 2.865a6 6 0 0 0 2.191 8.196z"/><path d="m378.051 358.772a6 6 0 0 0 2.2 8.2l2.847 1.644a35.054 35.054 0 0 0 6.01-10.387l-2.857-1.649a6 6 0 0 0 -8.2 2.192z"/><path d="m328.974 336.442a6 6 0 0 0 3.006-11.2l-2.848-1.644a34.628 34.628 0 0 0 -6.017 10.382l2.865 1.654a5.966 5.966 0 0 0 2.994.808z"/><path d="m447.869 371.438a6 6 0 0 0 -6 6v3.291a34.259 34.259 0 0 0 12 0v-3.294a6 6 0 0 0 -6-5.997z"/><path d="m447.869 320.775a6 6 0 0 0 6-6v-3.286a34.291 34.291 0 0 0 -12 0v3.286a6 6 0 0 0 6 6z"/><path d="m422.538 346.106a6 6 0 0 0 -6-6h-3.293a34.451 34.451 0 0 0 0 12h3.29a6 6 0 0 0 6.003-6z"/><path d="m473.2 346.106a6 6 0 0 0 6 6h3.291a34.419 34.419 0 0 0 0-12h-3.3a6 6 0 0 0 -5.991 6z"/><path d="m425.932 358.772a6 6 0 0 0 -8.2-2.2l-2.854 1.648a34.731 34.731 0 0 0 2.549 5.456 35.1 35.1 0 0 0 3.461 4.93l2.844-1.642a6 6 0 0 0 2.2-8.192z"/><path d="m469.807 333.441a6 6 0 0 0 8.2 2.2l2.863-1.653a34.651 34.651 0 0 0 -6.017-10.382l-2.853 1.639a6 6 0 0 0 -2.193 8.196z"/><path d="m460.535 368.044a6 6 0 0 0 -2.2 8.2l1.649 2.857a34.638 34.638 0 0 0 5.452-2.547 35.062 35.062 0 0 0 4.934-3.465l-1.643-2.845a6 6 0 0 0 -8.192-2.2z"/><path d="m432.21 324.974a6 6 0 0 0 5.189-9l-1.646-2.851a34.3 34.3 0 0 0 -10.387 6.008l1.643 2.845a6 6 0 0 0 5.201 2.998z"/><path d="m435.205 368.044a6 6 0 0 0 -8.2 2.195l-1.644 2.846a34.034 34.034 0 0 0 10.387 6.009l1.647-2.853a6 6 0 0 0 -2.19-8.197z"/><path d="m460.535 324.169a6 6 0 0 0 8.2-2.2l1.643-2.846a35.076 35.076 0 0 0 -10.387-6.01l-1.648 2.856a6 6 0 0 0 2.192 8.2z"/><path d="m469.807 358.772a6 6 0 0 0 2.2 8.2l2.844 1.642a34.374 34.374 0 0 0 6.011-10.386l-2.862-1.652a6 6 0 0 0 -8.193 2.196z"/><path d="m420.73 336.442a6 6 0 0 0 3-11.2l-2.843-1.642a34.593 34.593 0 0 0 -6.018 10.382l2.861 1.652a5.973 5.973 0 0 0 3 .808z"/></g></svg>