<svg id="Layer_1" height="512" viewBox="0 0 512 512" width="512" xmlns="http://www.w3.org/2000/svg" data-name="Layer 1"><path d="m422.62 240.22-232.96-2.71.51 40.61 25.81 57.82h143.53a56.948 56.948 0 0 1 91.07-34.6l.01-.01 12.33-11.89z" fill="#7878a0"/><path d="m478.365 314.3a5.99 5.99 0 0 1 -4.646-2.2l-55.742-68.08a6 6 0 1 1 9.285-7.6l55.738 68.074a6 6 0 0 1 -4.639 9.8z" fill="#626289"/><path d="m458.68 139.38-211.03 10.64a3.975 3.975 0 0 1 -3.07-1.21l-38.83-39.98-129.41 11.24v24.3l115.5-1.29 16.28 43.38 264.36-33.61z" fill="#f9d438"/><path d="m415.53 403.17a56.957 56.957 0 1 1 49.32-28.48 56.889 56.889 0 0 1 -49.32 28.48z" fill="#6d7486"/><path d="m136.92 289.27a56.95 56.95 0 1 1 -56.95 56.95 56.941 56.941 0 0 1 56.95-56.95z" fill="#6d7486"/><path d="m215.98 335.94 12.61 28.24h49.61v-28.59z" fill="#f9d438"/><path d="m14.28 304.3v23.5h49.74l6.66-23.5z" fill="#6d7486"/><path d="m35.94 237.51a12.63 12.63 0 0 0 -12.63 12.63v54.16h47.37l13.38-38.36h100.67v-28.43z" fill="#ccd3df"/><path d="m127.66 161.24v.1l-20.75 53.88-22.85-54.11z" fill="#d4e1f4"/><path d="m168.14 161.37-10.83-.03v53.92l-50.4-.04-10.59 22.29h88.41v-59.49a16.651 16.651 0 0 0 -16.59-16.65z" fill="#b0b5ca"/><path d="m157.31 161.34v53.92l-50.4-.04 20.75-53.88v-.1z" fill="#85dedb"/><path d="m334.39 307.3h-62.47a7.164 7.164 0 0 0 -7.14 7.14v27.01a7.164 7.164 0 0 0 7.14 7.14h62.47a7.157 7.157 0 0 0 7.14-7.14v-27.01a7.157 7.157 0 0 0 -7.14-7.14z" fill="#b0b5ca"/><path d="m211.09 227.12h-26.36v38.82l5.44 12.18h38.42z" fill="#6d7486"/><path d="m497.72 177.5v34.18l-31.83 12.1-30.71-66.11-.01-.08 37.31-4.74z" fill="#f19c39"/><path d="m435.18 157.67-.01-.08-55.32 7.04.02.18 35.14 78.3 50.88-19.33z" fill="#e83"/><path d="m269.12 178.71-54.8 6.96 32.7 91.25 38.37 15.44 27.88-10.59z" fill="#f19c39"/><path d="m324.57 171.94 39.56 90.5-50.86 19.33-44.15-103.06 55.41-7.05z" fill="#e83"/><path d="m379.87 164.81 35.14 78.3-50.88 19.33-39.56-90.5-.04-.28 55.32-7.03z" fill="#f19c39"/><path d="m14.28 304.3h30v23.5h-30z" fill="#949caf"/><path d="m53.31 304.3v-54.16a12.63 12.63 0 0 1 12.63-12.63h-30a12.63 12.63 0 0 0 -12.63 12.63v54.16z" fill="#e9f2ff"/><path d="m106.91 215.22-10.59 22.29h30l9.162-22.267z" fill="#c9cfe2"/><path d="m127.66 161.24v.1l-20.75 53.88 28.572.023 21.828-53.052v-.851z" fill="#a9fffb"/><path d="m76.34 120.07v24.3l30-.335v-26.571z" fill="#ffe98d"/><path d="m221.84 143.08-29.875.334 16.155 43.046 28.634-3.641z" fill="#ffe98d"/><path d="m271.096 276.92-34.342-94.099-22.434 2.849.001.002 32.699 91.248 38.37 15.44 15.433-5.862z" fill="#ffcea1"/><path d="m109.97 346.22a56.959 56.959 0 0 1 41.952-54.94 56.951 56.951 0 1 0 0 109.879 56.967 56.967 0 0 1 -41.952-54.939z" fill="#575f72"/><path d="m396.21 374.69a56.96 56.96 0 0 1 34.308-83.418 56.947 56.947 0 1 0 .012 109.9 57.027 57.027 0 0 1 -34.32-26.482z" fill="#575f72"/><path d="m415.53 319.29a26.925 26.925 0 1 1 -26.93 26.93 26.927 26.927 0 0 1 26.93-26.93z" fill="#b0b5ca"/><path d="m136.92 319.29a26.925 26.925 0 1 1 -26.93 26.93 26.927 26.927 0 0 1 26.93-26.93z" fill="#b0b5ca"/><path d="m233.284 296.576a6 6 0 0 0 -6-6h-28.838a5.972 5.972 0 0 0 -2.476.538l5.117 11.462h26.2a6 6 0 0 0 5.997-6z" fill="#626289"/><path d="m241.978 316.045a6 6 0 0 0 -6-6h-28.839a5.978 5.978 0 0 0 -2.477.54l5.116 11.46h26.2a6 6 0 0 0 6-6z" fill="#626289"/><g fill="#485060"><path d="m136.923 390.979a6 6 0 0 0 -6 6v5.875a57.03 57.03 0 0 0 12 0v-5.874a6 6 0 0 0 -6-6.001z"/><path d="m136.923 301.454a6 6 0 0 0 6-6v-5.867a57.03 57.03 0 0 0 -12 0v5.868a6 6 0 0 0 6 5.999z"/><path d="m92.16 346.216a6 6 0 0 0 -6-6h-5.873a57.03 57.03 0 0 0 0 12h5.873a6 6 0 0 0 6-6z"/><path d="m193.553 340.216h-5.868a6 6 0 0 0 0 12h5.869a57.03 57.03 0 0 0 0-12z"/><path d="m98.158 368.6a6 6 0 0 0 -8.2-2.2l-5.085 2.936a56.87 56.87 0 0 0 6.006 10.389l5.079-2.932a6 6 0 0 0 2.2-8.193z"/><path d="m175.688 323.835a6 6 0 0 0 8.2 2.2l5.081-2.934a56.841 56.841 0 0 0 -6-10.389l-5.077 2.932a6 6 0 0 0 -2.204 8.191z"/><path d="m159.3 384.981a6 6 0 0 0 -2.2 8.2l2.937 5.085a56.862 56.862 0 0 0 10.388-6.006l-2.932-5.079a6 6 0 0 0 -8.193-2.2z"/><path d="m111.547 308.256a6 6 0 0 0 5.191-9l-2.934-5.081a56.9 56.9 0 0 0 -10.39 6l2.931 5.077a6 6 0 0 0 5.202 3.004z"/><path d="m114.541 384.981a6 6 0 0 0 -8.2 2.2l-2.932 5.079a56.817 56.817 0 0 0 10.389 6.007l2.936-5.086a6 6 0 0 0 -2.193-8.2z"/><path d="m159.3 307.451a6 6 0 0 0 8.2-2.2l2.93-5.076a56.866 56.866 0 0 0 -10.389-6l-2.933 5.081a6 6 0 0 0 2.192 8.195z"/><path d="m175.688 368.6a6 6 0 0 0 2.2 8.2l5.078 2.931a56.8 56.8 0 0 0 6-10.389l-5.083-2.935a6 6 0 0 0 -8.195 2.193z"/><path d="m92.956 326.836a6 6 0 0 0 3-11.2l-5.078-2.933a56.87 56.87 0 0 0 -6.001 10.397l5.084 2.935a5.97 5.97 0 0 0 2.995.801z"/><path d="m415.529 390.979a6 6 0 0 0 -6 6v5.876a57.3 57.3 0 0 0 12 0v-5.876a6 6 0 0 0 -6-6z"/><path d="m415.529 301.454a6 6 0 0 0 6-6v-5.854a56.41 56.41 0 0 0 -12-.01v5.869a6 6 0 0 0 6 5.995z"/><path d="m370.767 346.216a6 6 0 0 0 -6-6h-5.86a56.149 56.149 0 0 0 -.011 12h5.871a6 6 0 0 0 6-6z"/><path d="m472.164 340.216h-5.873a6 6 0 0 0 0 12h5.874a57.21 57.21 0 0 0 0-12z"/><path d="m376.764 368.6a6 6 0 0 0 -8.2-2.2l-5.085 2.936a56.4 56.4 0 0 0 6.009 10.387l5.076-2.93a6 6 0 0 0 2.2-8.193z"/><path d="m454.294 323.836a6 6 0 0 0 8.2 2.195l5.086-2.937a56.38 56.38 0 0 0 -6.008-10.387l-5.079 2.933a6 6 0 0 0 -2.199 8.196z"/><path d="m437.91 384.981a6 6 0 0 0 -2.2 8.2l2.94 5.093a56.783 56.783 0 0 0 10.39-6l-2.938-5.088a6 6 0 0 0 -8.192-2.205z"/><path d="m390.154 308.256a6 6 0 0 0 5.19-9l-2.937-5.087a56.865 56.865 0 0 0 -10.39 6l2.935 5.084a6 6 0 0 0 5.202 3.003z"/><path d="m393.148 384.981a6 6 0 0 0 -8.2 2.2l-2.937 5.087a56.808 56.808 0 0 0 10.389 6l2.94-5.092a6 6 0 0 0 -2.192-8.195z"/><path d="m437.91 307.451a6 6 0 0 0 8.2-2.2l2.93-5.075a56.652 56.652 0 0 0 -10.381-6.018l-2.941 5.093a6 6 0 0 0 2.192 8.2z"/><path d="m454.294 368.6a6 6 0 0 0 2.2 8.2l5.077 2.931a57.036 57.036 0 0 0 3.282-5.035 56.277 56.277 0 0 0 2.73-5.351l-5.089-2.938a6 6 0 0 0 -8.2 2.193z"/><path d="m371.562 326.836a6 6 0 0 0 3.006-11.2l-5.076-2.932a55.685 55.685 0 0 0 -6 10.391l5.08 2.932a5.966 5.966 0 0 0 2.99.809z"/></g></svg>