<svg id="Layer_1" height="512" viewBox="0 0 512 512" width="512" xmlns="http://www.w3.org/2000/svg" data-name="Layer 1"><path d="m500.92 343.39v49.1h-26.88a74.409 74.409 0 0 0 -21.04-49.01l.1-.09z" fill="#6d7486"/><path d="m73.62 395.44a52.049 52.049 0 1 1 26.03 45.08 52.058 52.058 0 0 1 -26.03-45.08z" fill="#6d7486"/><path d="m399.56 343.39a52.049 52.049 0 1 1 -45.08 26.03 52 52 0 0 1 45.08-26.03z" fill="#6d7486"/><path d="m465.1 129.72v153.18h-249.26v59.19h-38.12a74.484 74.484 0 0 1 19.89 33.74q.885 3.27 1.47 6.66h127.07a74.539 74.539 0 0 1 126.85-39.01l.1-.09h47.82v-201.83z" fill="#989fa9"/><path d="m25.58 331.32h62.06a74.607 74.607 0 0 0 -35.39 51.19l-.13-.02h-33.03a8.015 8.015 0 0 1 -8.01-8.01v-28.66a14.506 14.506 0 0 1 14.45-14.5z" fill="#6d7486"/><path d="m177.72 275.25v66.84a74.557 74.557 0 0 0 -90.08-10.77h-62.11v-27.66h32.26l13.78-28.41z" fill="#749739"/><path d="m169.72 83.51v63.58h-90.96a38.178 38.178 0 0 0 -13.28 2.37z" fill="#749739"/><path d="m169.72 147.09h-90.96a38.178 38.178 0 0 0 -13.28 2.37l-.01.01a38.243 38.243 0 0 0 -24.89 33.83l-.05 51.9-3.78 3.37a33.515 33.515 0 0 0 -11.22 25.02v40.07h32.26l13.78-28.41h106.15v-120.15a8.006 8.006 0 0 0 -8-8.01z" fill="#81c83d"/><rect fill="#d4e1f4" height="47.27" rx="6" width="74.439" x="235.78" y="356.17"/><path d="m201.54 64.51h273.56v228.39h-273.56z" fill="#d4e1f4"/><path d="m90.64 183.3h29.01v51.9h-29.01z" fill="#6bd6d1"/><path d="m90.64 183.3v51.9h-50.11v-49.88c0-.68.02-1.35.05-2.02z" fill="#85dedb"/><path d="m103.62 395.44a52.076 52.076 0 0 1 37.052-49.84 52.049 52.049 0 1 0 0 99.693 52.083 52.083 0 0 1 -37.052-49.853z" fill="#596070"/><path d="m384.48 421.47a52.066 52.066 0 0 1 30.08-75.879 52.049 52.049 0 1 0 0 99.7 52.134 52.134 0 0 1 -30.08-23.821z" fill="#596070"/><path d="m201.54 64.51h30v228.39h-30z" fill="#eef6ff"/><circle cx="125.67" cy="395.44" fill="#d4e1f4" r="20"/><circle cx="399.56" cy="395.44" fill="#d4e1f4" r="20"/><path d="m52.25 382.51v-.02h-.13z" fill="#6d7486"/><path d="m41.08 374.48v-28.66a14.506 14.506 0 0 1 14.45-14.5h-30a14.506 14.506 0 0 0 -14.45 14.5v28.66a8.015 8.015 0 0 0 8.01 8.01h30a8.015 8.015 0 0 1 -8.01-8.01z" fill="#a0a9bc"/><path d="m55.53 331.32v-27.66h-30v27.66z" fill="#81c83d"/><path d="m78.76 147.09h20.466l70.494-44.6v-18.98l-104.24 65.95q.774-.287 1.565-.541a38.22 38.22 0 0 1 11.715-1.829z" fill="#81c83d"/><path d="m70.58 183.3a38.243 38.243 0 0 1 24.89-33.83l.01-.01 3.746-2.37h-20.466a38.22 38.22 0 0 0 -11.715 1.829q-.79.253-1.565.541l-.01.01a38.243 38.243 0 0 0 -24.89 33.83z" fill="#acef65"/><path d="m55.53 303.66v-40.07a33.515 33.515 0 0 1 11.22-25.02l3.78-3.37h-30l-3.78 3.37a33.515 33.515 0 0 0 -11.22 25.02v40.07z" fill="#acef65"/><path d="m70.53 185.32c0-.68.02-1.35.05-2.02h-30c-.03.67-.05 1.34-.05 2.02v49.88h30z" fill="#b6fffb"/><path d="m474.1 401.443a6 6 0 0 1 -6-6 68.536 68.536 0 1 0 -137.071 0 6 6 0 0 1 -12 0 80.536 80.536 0 1 1 161.071 0 6 6 0 0 1 -6 6z" fill="#575e70"/><path d="m200.212 401.443a6 6 0 0 1 -6-6 68.539 68.539 0 0 0 -137.078 0 6 6 0 0 1 -12 0 80.539 80.539 0 1 1 161.078 0 6 6 0 0 1 -6 6z" fill="#575e70"/><path d="m153.381 191.6h-7.681a6 6 0 1 1 0-12h7.678a6 6 0 0 1 0 12z" fill="#749739"/><path d="m153.381 216.9h-7.681a6 6 0 0 1 0-12h7.678a6 6 0 1 1 0 12z" fill="#749739"/><path d="m153.381 241.2h-7.681a6 6 0 0 1 0-12h7.678a6 6 0 0 1 0 12z" fill="#749739"/><path d="m278.544 249.9a6 6 0 0 1 -6-6v-128.4a6 6 0 1 1 12 0v128.4a6 6 0 0 1 -6 6z" fill="#b2c3d8"/><path d="m338.544 249.9a6 6 0 0 1 -6-6v-128.4a6 6 0 1 1 12 0v128.4a6 6 0 0 1 -6 6z" fill="#b2c3d8"/><path d="m398.544 249.9a6 6 0 0 1 -6-6v-128.4a6 6 0 1 1 12 0v128.4a6 6 0 0 1 -6 6z" fill="#b2c3d8"/><path d="m52.25 382.51v-.02h-.13z" fill="#6d7486"/><g fill="#4b515e"><path d="m125.673 435.838a6 6 0 0 0 -6 6v5.3a51.677 51.677 0 0 0 12 0v-5.3a6 6 0 0 0 -6-6z"/><path d="m125.673 355.049a6 6 0 0 0 6-6v-5.3a50.882 50.882 0 0 0 -12 0v5.3a6 6 0 0 0 6 6z"/><path d="m85.278 395.443a6 6 0 0 0 -6-6h-5.3a51.312 51.312 0 0 0 -.006 12h5.309a6 6 0 0 0 5.997-6z"/><path d="m177.365 389.443h-5.3a6 6 0 1 0 0 12h5.3a51.312 51.312 0 0 0 -.006-12z"/><path d="m90.69 415.641a6 6 0 0 0 -8.2-2.2l-4.602 2.659a51.953 51.953 0 0 0 6.012 10.389l4.594-2.652a6 6 0 0 0 2.196-8.196z"/><path d="m160.656 375.246a6 6 0 0 0 8.2 2.2l4.6-2.655a52.013 52.013 0 0 0 -6-10.391l-4.6 2.654a6 6 0 0 0 -2.2 8.192z"/><path d="m145.87 430.427a6 6 0 0 0 -2.2 8.2l2.654 4.6a51.243 51.243 0 0 0 10.389-6l-2.651-4.59a6 6 0 0 0 -8.192-2.21z"/><path d="m102.481 361.266a6 6 0 0 0 5.191-9l-2.658-4.6a52.046 52.046 0 0 0 -10.39 6l2.655 4.6a6 6 0 0 0 5.202 3z"/><path d="m105.476 430.426a6 6 0 0 0 -8.2 2.2l-2.649 4.588a51.44 51.44 0 0 0 10.388 6.008l2.654-4.6a6 6 0 0 0 -2.193-8.196z"/><path d="m145.87 360.46a5.995 5.995 0 0 0 8.2-2.195l2.655-4.6a52.006 52.006 0 0 0 -10.389-6l-2.658 4.6a6 6 0 0 0 2.192 8.195z"/><path d="m160.656 415.641a6 6 0 0 0 2.2 8.2l4.594 2.653a51.939 51.939 0 0 0 6.01-10.387l-4.6-2.658a6 6 0 0 0 -8.204 2.192z"/><path d="m85.488 378.247a6 6 0 0 0 3.006-11.2l-4.594-2.647a51.986 51.986 0 0 0 -6 10.39l4.6 2.657a5.966 5.966 0 0 0 2.988.8z"/><path d="m399.561 435.838a6 6 0 0 0 -6 6v5.3a51.677 51.677 0 0 0 12 0v-5.3a6 6 0 0 0 -6-6z"/><path d="m399.561 355.049a6 6 0 0 0 6-6v-5.31a51.75 51.75 0 0 0 -12 0v5.31a6 6 0 0 0 6 6z"/><path d="m359.166 395.443a6 6 0 0 0 -6-6h-5.307a51.677 51.677 0 0 0 0 12h5.306a6 6 0 0 0 6.001-6z"/><path d="m451.261 389.443h-5.305a6 6 0 0 0 0 12h5.3a51.677 51.677 0 0 0 0-12z"/><path d="m364.578 415.641a6 6 0 0 0 -8.2-2.2l-4.6 2.656a50.225 50.225 0 0 0 6.022 10.38l4.579-2.644a6 6 0 0 0 2.199-8.192z"/><path d="m434.544 375.246a6 6 0 0 0 8.2 2.2l4.6-2.655a51.454 51.454 0 0 0 -6.014-10.391l-4.59 2.651a6 6 0 0 0 -2.196 8.195z"/><path d="m419.758 430.426a6 6 0 0 0 -2.2 8.2l2.655 4.6a50.5 50.5 0 0 0 10.387-6.026l-2.644-4.58a6 6 0 0 0 -8.198-2.194z"/><path d="m376.369 361.266a6 6 0 0 0 5.191-9l-2.661-4.608a51.936 51.936 0 0 0 -10.386 6.011l2.654 4.6a6 6 0 0 0 5.202 2.997z"/><path d="m379.363 430.426a6 6 0 0 0 -8.2 2.2l-2.642 4.576a50.525 50.525 0 0 0 10.381 6.019l2.654-4.6a6 6 0 0 0 -2.193-8.195z"/><path d="m419.758 360.461a6 6 0 0 0 8.2-2.2l2.653-4.6a51.94 51.94 0 0 0 -10.386-6.012l-2.66 4.608a6 6 0 0 0 2.193 8.204z"/><path d="m434.544 415.641a6 6 0 0 0 2.2 8.2l4.581 2.645a50.371 50.371 0 0 0 6.017-10.383l-4.6-2.654a6 6 0 0 0 -8.198 2.192z"/><path d="m359.377 378.247a6 6 0 0 0 3-11.2l-4.587-2.647a51.387 51.387 0 0 0 -6.008 10.388l4.6 2.655a5.967 5.967 0 0 0 2.995.804z"/></g></svg>