<svg id="Layer_1" height="512" viewBox="0 0 512 512" width="512" xmlns="http://www.w3.org/2000/svg" data-name="Layer 1"><path d="m427.37 367h-221.27a41.27 41.27 0 1 0 0 82.54h221.27a41.27 41.27 0 0 0 0-82.54z" fill="#716b70"/><circle cx="428.19" cy="408.36" fill="#edb740" r="20.09"/><circle cx="354.36" cy="408.36" fill="#edb740" r="20.09"/><circle cx="280.53" cy="408.36" fill="#edb740" r="20.09"/><path d="m262.78 341.59h87.45v25.41h-87.45z" fill="#d8a43d"/><path d="m194.83 408.27a41.381 41.381 0 0 1 41.27-41.27h-30a41.27 41.27 0 1 0 0 82.54h30a41.4 41.4 0 0 1 -41.27-41.27z" fill="#595058"/><path d="m262.78 341.59h30v25.41h-30z" fill="#efbc62"/><circle cx="206.7" cy="408.36" fill="#edb740" r="20.09"/><path d="m166.5 290.07-98.21-204.64.02-.12a14.29 14.29 0 0 0 1.86.12 14.127 14.127 0 0 0 13.87-11.46l82.46 131.85z" fill="#fb6771"/><path d="m466.33 226.32-14.01-110.25a25.063 25.063 0 0 0 -24.69-20.76h-110.01a14.005 14.005 0 0 0 -14 13.89l-.76 96.62h-136.36v114.26h271.04a29.435 29.435 0 0 0 29.43-29.43v-57.01a42.826 42.826 0 0 0 -.64-7.32z" fill="#f9d438"/><path d="m232.76 320.08h145.721v21.51h-145.721z" fill="#edb740"/><path d="m429.15 124 10.01 92.83h-48.72v-101.76h28.77a9.991 9.991 0 0 1 9.94 8.93z" fill="#54bee2"/><path d="m333.62 109.2a14.005 14.005 0 0 1 14-13.89h-30a14.005 14.005 0 0 0 -14 13.89l-.76 96.62h30z" fill="#ffed9f"/><path d="m166.5 205.82h30v114.26h-30z" fill="#ffed9f"/><path d="m390.44 216.83v20.7h-65.9v-112.46a10 10 0 0 1 10-10h55.9z" fill="#76cef4"/><path d="m348.54 125.07a10 10 0 0 1 10-10h-24a10 10 0 0 0 -10 10v112.46h24z" fill="#a9e9ff"/><path d="m324.54 237.53h65.9v33.81h-65.9z" fill="#edb740"/><path d="m324.54 237.53h24v33.81h-24z" fill="#ffd37b"/><path d="m232.76 320.08h30v21.51h-30z" fill="#ffd683"/><g fill="#423c41"><path d="m479.848 408.361a6 6 0 0 0 -5.593-5.98 46.883 46.883 0 0 0 -3.262-12.295 5.994 5.994 0 0 0 -5.976-10.355 47.715 47.715 0 0 0 -8.994-9.019 6 6 0 0 0 -10.33-6.012 46.9 46.9 0 0 0 -12.335-3.306 5.994 5.994 0 0 0 -11.9-.392h-10.117a5.992 5.992 0 0 0 -11.852 0h-10.118a5.992 5.992 0 0 0 -11.851 0h-10.12a5.992 5.992 0 0 0 -11.851 0h-10.117a5.992 5.992 0 0 0 -11.852 0h-10.118a5.992 5.992 0 0 0 -11.852 0h-10.118a5.992 5.992 0 0 0 -11.851 0h-10.118a5.992 5.992 0 0 0 -11.851 0h-10.118a5.992 5.992 0 0 0 -11.852 0h-10.118a5.992 5.992 0 0 0 -11.852 0h-11.6a5.994 5.994 0 0 0 -11.9.376 46.9 46.9 0 0 0 -12.361 3.281 6 6 0 0 0 -10.341 5.981 47.669 47.669 0 0 0 -9.049 9.044 6 6 0 0 0 -5.987 10.335 46.89 46.89 0 0 0 -3.289 12.369 6 6 0 0 0 .023 11.947 46.916 46.916 0 0 0 3.326 12.329 5.989 5.989 0 0 0 6.027 10.315 47.731 47.731 0 0 0 9.017 8.971 5.989 5.989 0 0 0 10.362 5.962 46.873 46.873 0 0 0 12.263 3.246 5.994 5.994 0 0 0 11.937.377h11.54a6 6 0 0 0 11.908 0h10.062a6 6 0 0 0 11.908 0h10.062a6 6 0 0 0 11.908 0h10.06a6 6 0 0 0 11.909 0h10.061a6 6 0 0 0 11.908 0h10.062a6 6 0 0 0 11.908 0h10.062a6 6 0 0 0 11.908 0h10.061a6 6 0 0 0 11.908 0h10.062a6 6 0 0 0 11.908 0h10.065a5.994 5.994 0 0 0 11.938-.394 46.888 46.888 0 0 0 12.236-3.269 5.989 5.989 0 0 0 10.351-6 47.646 47.646 0 0 0 8.961-8.944 5.99 5.99 0 0 0 6.019-10.335 46.871 46.871 0 0 0 3.3-12.257 6 6 0 0 0 5.613-5.975zm-52.48 35.174h-221.268a35.267 35.267 0 1 1 0-70.533h221.268a35.267 35.267 0 1 1 0 70.533z"/><path d="m232.19 402.817q-.264-1.222-.642-2.4a6 6 0 0 0 -5.556-9.6q-.834-.915-1.749-1.749a6 6 0 0 0 -9.6-5.555q-1.179-.376-2.4-.642a6 6 0 0 0 -11.088 0q-1.222.266-2.4.642a6 6 0 0 0 -9.6 5.556q-.915.832-1.748 1.748a6 6 0 0 0 -5.555 9.6q-.378 1.177-.643 2.4a6 6 0 0 0 0 11.088q.265 1.223.643 2.4a6 6 0 0 0 5.555 9.6q.834.915 1.748 1.747a6 6 0 0 0 9.6 5.555q1.179.378 2.4.643a6 6 0 0 0 11.088 0q1.224-.267 2.4-.644a6 6 0 0 0 9.6-5.554q.917-.832 1.748-1.748a6 6 0 0 0 5.557-9.6q.378-1.177.642-2.4a6 6 0 0 0 0-11.087zm-25.49 19.633a14.09 14.09 0 1 1 14.09-14.089 14.105 14.105 0 0 1 -14.09 14.089z"/><path d="m457.389 408.361a6 6 0 0 0 -3.706-5.544q-.266-1.222-.643-2.4a6 6 0 0 0 -5.556-9.6q-.833-.915-1.749-1.749a6 6 0 0 0 -9.6-5.555q-1.177-.376-2.4-.642a6 6 0 0 0 -11.087 0q-1.224.266-2.4.642a6 6 0 0 0 -9.6 5.555q-.917.832-1.75 1.749a6 6 0 0 0 -5.555 9.6q-.378 1.177-.643 2.4a6 6 0 0 0 0 11.087q.266 1.224.643 2.4a6 6 0 0 0 5.556 9.6q.832.915 1.749 1.748a5.995 5.995 0 0 0 9.6 5.554q1.179.378 2.4.643a6 6 0 0 0 11.087 0q1.224-.266 2.4-.643a6 6 0 0 0 9.6-5.554q.916-.832 1.748-1.748a6 6 0 0 0 5.557-9.6q.378-1.177.643-2.4a6 6 0 0 0 3.706-5.543zm-29.2 14.089a14.09 14.09 0 1 1 14.09-14.089 14.1 14.1 0 0 1 -14.088 14.089z"/><path d="m306.022 402.817q-.265-1.222-.643-2.4a6 6 0 0 0 -5.556-9.6q-.831-.915-1.749-1.749a6 6 0 0 0 -9.6-5.555q-1.179-.376-2.4-.642a6 6 0 0 0 -11.088 0q-1.222.266-2.4.642a6 6 0 0 0 -9.6 5.555q-.915.832-1.749 1.749a6 6 0 0 0 -5.555 9.6q-.378 1.177-.643 2.4a6 6 0 0 0 0 11.087q.266 1.224.643 2.4a6 6 0 0 0 5.556 9.6q.833.915 1.748 1.748a6 6 0 0 0 9.6 5.554q1.179.378 2.4.644a6 6 0 0 0 11.088 0q1.224-.267 2.4-.644a6 6 0 0 0 9.6-5.554q.916-.832 1.748-1.748a6 6 0 0 0 5.557-9.6q.378-1.177.643-2.4a6 6 0 0 0 0-11.087zm-25.492 19.633a14.09 14.09 0 1 1 14.09-14.089 14.105 14.105 0 0 1 -14.09 14.089z"/><path d="m379.852 402.817q-.265-1.222-.643-2.4a6 6 0 0 0 -5.556-9.6q-.831-.915-1.748-1.748a6 6 0 0 0 -9.6-5.556q-1.177-.376-2.4-.642a6 6 0 0 0 -11.088 0q-1.221.266-2.4.642a6 6 0 0 0 -9.6 5.556q-.915.832-1.748 1.748a6 6 0 0 0 -5.555 9.6q-.378 1.177-.643 2.4a6 6 0 0 0 0 11.088q.266 1.223.643 2.4a6 6 0 0 0 5.555 9.6q.832.915 1.748 1.747a6 6 0 0 0 9.6 5.555q1.179.378 2.4.643a6 6 0 0 0 11.088 0q1.224-.266 2.4-.643a6 6 0 0 0 9.6-5.555q.915-.832 1.747-1.747a6 6 0 0 0 5.557-9.6q.378-1.177.643-2.4a6 6 0 0 0 0-11.088zm-25.492 19.633a14.09 14.09 0 1 1 14.09-14.089 14.1 14.1 0 0 1 -14.09 14.089z"/></g><path d="m52.357 79.133h12v120.873h-12z" fill="#d4e1f4"/><path d="m59.665 306.6q-.543 0-1.09-.021a27.506 27.506 0 0 1 -5.588-54.169.948.948 0 0 0 .667-.94v-17.885a6 6 0 1 1 12 0v17.882a12.915 12.915 0 0 1 -9.764 12.584 15.505 15.505 0 1 0 17.4 22.429 6 6 0 1 1 10.545 5.727 27.357 27.357 0 0 1 -24.17 14.393z" fill="#d4e1f4"/><path d="m184.316 142-109.232-77.171 6.955-9.779 109.232 77.171z" fill="#d4e1f4"/><path d="m221.7 241.653h-27.9a6 6 0 0 1 0-12h27.9a6 6 0 0 1 0 12z" fill="#e2bf30"/><path d="m221.7 259.653h-27.9a6 6 0 1 1 0-12h27.9a6 6 0 1 1 0 12z" fill="#e2bf30"/><path d="m221.7 277.653h-27.9a6 6 0 0 1 0-12h27.9a6 6 0 0 1 0 12z" fill="#e2bf30"/><rect fill="#fb6771" height="33.48" rx="4" width="30.61" x="44.35" y="200.11"/><path d="m302.9 200.94-.04 4.88h-43.82l-74.41-56.96a11 11 0 0 1 12.75-17.93l105.48 70.01z" fill="#bed0e5"/><path d="m70.171 51.176a20.126 20.126 0 1 0 20.129 20.124 20.149 20.149 0 0 0 -20.129-20.124z" fill="#49bdff"/></svg>