<svg id="Layer_1" height="512" viewBox="0 0 512 512" width="512" xmlns="http://www.w3.org/2000/svg" data-name="Layer 1"><path d="m102.06 384.33a52.05 52.05 0 1 1 52.05 52.05 52.052 52.052 0 0 1 -52.05-52.05z" fill="#6d7486"/><path d="m443.05 384.33a52.035 52.035 0 1 1 -6.97-26.03 51.668 51.668 0 0 1 6.97 26.03z" fill="#6d7486"/><path d="m35.617 201.462c-.289 0-.578 0-.869-.016a21.966 21.966 0 0 1 -5.14-43.08v-30.077a6 6 0 0 1 12 0v31.889a9.683 9.683 0 0 1 -7.863 9.53 9.966 9.966 0 1 0 10.627 14.536 6 6 0 1 1 10.545 5.728 21.846 21.846 0 0 1 -19.3 11.49z" fill="#d4e1f4"/><path d="m154.11 359.71a24.615 24.615 0 1 1 -24.61 24.62 24.614 24.614 0 0 1 24.61-24.62z" fill="#b0b5ca"/><path d="m391 359.71a24.615 24.615 0 1 1 -24.61 24.62 24.614 24.614 0 0 1 24.61-24.62z" fill="#b0b5ca"/><path d="m128.06 384.33a52.073 52.073 0 0 1 39.052-50.413 52.05 52.05 0 1 0 0 100.826 52.083 52.083 0 0 1 -39.052-50.413z" fill="#596070"/><path d="m371.92 410.35a52.052 52.052 0 0 1 32.08-76.428 52.051 52.051 0 1 0 0 100.814 52.114 52.114 0 0 1 -32.08-24.386z" fill="#596070"/><path d="m444.46 75.63-17.23 42.28.95 18.86h15.84a14.235 14.235 0 0 0 14.23-14.23v-32.68a14.239 14.239 0 0 0 -13.79-14.23z" fill="#ff981d"/><path d="m444.02 75.62h-32.82l-11.87 29.1v.01l27.9 13.18 17.23-42.28c-.15-.01-.29-.01-.44-.01z" fill="#e68231"/><path d="m377.93 75.62-24.93 61.15h33.21l13.12-32.04v-.01l11.87-29.1z" fill="#ff981d"/><path d="m377.93 75.62-24.93 61.15h-33.27l24.93-61.15z" fill="#e68231"/><path d="m311.39 75.62-24.93 61.15h33.27l24.93-61.15z" fill="#ff981d"/><path d="m278.12 75.62-24.93 61.15h-33.27l24.93-61.15z" fill="#ff981d"/><path d="m278.12 75.62-24.93 61.15h33.27l24.93-61.15z" fill="#e68231"/><path d="m244.85 75.62-24.93 61.15h-33.26l24.92-61.15z" fill="#e68231"/><path d="m173.51 75.62v61.15h13.15l24.92-61.15z" fill="#ff981d"/><path d="m19.89 84.36h30.61v43.47h-30.61z" fill="#fb6771"/><path d="m366.99 214.13-68.2 95.36 156.26.28v-95.64z" fill="#ff981d"/><path d="m455.05 244.01.49 88.27h36.82v-63.43z" fill="#999"/><path d="m391 309.66v.13a74.544 74.544 0 0 1 71.92 54.92q.9 3.285 1.49 6.68l.13-.02v-61.58z" fill="#fadf4a"/><path d="m464.54 332.28h27.82v39.09h-27.82z" fill="#6d7486"/><path d="m186.12 257.65v26.07h131.1l18.64-26.07z" fill="#999"/><path d="m317.22 283.72-18.43 25.77-112.67-.21v-25.56z" fill="#898890"/><path d="m174.12 208.56h-53.3v60.56h65.3v-48.56a12 12 0 0 0 -12-12z" fill="#74d8f7"/><path d="m82.8 208.56a11.993 11.993 0 0 0 -10.61 6.38l-28.67 54.18h77.3v-60.56z" fill="#88dbfc"/><path d="m186.12 309.28v-40.16h-115.55l-27.05 32.2v49l44.05.01.15.08a74.572 74.572 0 0 1 138.33 14.3c.59 2.19 1.08 4.4 1.47 6.66h90.06a74.574 74.574 0 0 1 73.42-61.58v-.13z" fill="#fadf4a"/><path d="m87.57 350.33-52.05-.01v34l44.05.01a74.212 74.212 0 0 1 8.15-33.92z" fill="#6d7486"/><path d="m50.5 93.48h33.03v25.23h-33.03z" fill="#ff981d"/><path d="m83.53 84.36h89.98v43.47h-89.98z" fill="#fb6771"/><path d="m427.23 117.91a21.008 21.008 0 0 0 -20.04-14.71 20.986 20.986 0 0 0 -20.98 20.98v116.24a20.985 20.985 0 1 0 41.97 0v-116.24a20.918 20.918 0 0 0 -.95-6.27z" fill="#898890"/><path d="m259.22 136.77v23.34a8.711 8.711 0 0 0 8.71 8.71h16.66a8.711 8.711 0 0 0 8.71-8.71v-23.34z" fill="#b6c9e0"/><path d="m295.65 344.06h-46.43a4 4 0 0 0 -4 4v33.27a4.005 4.005 0 0 0 4 4h46.43a4.005 4.005 0 0 0 4-4v-33.27a4 4 0 0 0 -4-4z" fill="#898890"/><path d="m42.52 269.12h32.05v36.2h-32.05z" fill="#fb6771"/><path d="m19.89 84.36h18v43.47h-18z" fill="#ffc7cf"/><path d="m82.8 208.56a11.993 11.993 0 0 0 -10.61 6.38l-28.67 54.18h24l34.67-54.18a11.993 11.993 0 0 1 10.61-6.38z" fill="#caf3ff"/><path d="m43.52 305.32h24v45h-24z" fill="#ffeea9"/><path d="m35.52 350.323h30v34.001h-30z" fill="#a2aabc"/><path d="m42.52 269.12h25v36.2h-25z" fill="#ffc7cf"/><path d="m341.476 250.542-68.347-41.768a6 6 0 0 1 -2.871-5.119v-34.838h12v31.473l65.476 40.01z" fill="#d4e1f4"/><path d="m465.535 390.325a6 6 0 0 1 -6-6 68.536 68.536 0 1 0 -137.071 0 6 6 0 0 1 -12 0 80.536 80.536 0 1 1 161.071 0 6 6 0 0 1 -6 6z" fill="#f9d438"/><path d="m228.651 390.325a6 6 0 0 1 -6-6 68.539 68.539 0 1 0 -137.078 0 6 6 0 0 1 -12 0 80.539 80.539 0 1 1 161.078 0 6 6 0 0 1 -6 6z" fill="#f9d438"/><g fill="#4b515e"><path d="m154.112 424.72a6 6 0 0 0 -6 6v5.3a50.882 50.882 0 0 0 12 0v-5.3a6 6 0 0 0 -6-6z"/><path d="m154.112 343.931a6 6 0 0 0 6-6v-5.3a50.882 50.882 0 0 0 -12 0v5.3a6 6 0 0 0 6 6z"/><path d="m113.717 384.325a6 6 0 0 0 -6-6h-5.3a50.811 50.811 0 0 0 0 12h5.3a6 6 0 0 0 6-6z"/><path d="m205.805 378.325h-5.3a6 6 0 0 0 0 12h5.3a50.953 50.953 0 0 0 0-12z"/><path d="m119.129 404.523a6 6 0 0 0 -8.2-2.2l-4.6 2.657a52.009 52.009 0 0 0 6 10.39l4.6-2.656a6 6 0 0 0 2.2-8.191z"/><path d="m189.1 364.128a6 6 0 0 0 8.2 2.2l4.6-2.655a51.986 51.986 0 0 0 -6-10.39l-4.595 2.653a6 6 0 0 0 -2.205 8.192z"/><path d="m174.31 419.308a6 6 0 0 0 -2.2 8.2l2.658 4.6a51.986 51.986 0 0 0 10.39-6l-2.655-4.6a6 6 0 0 0 -8.193-2.2z"/><path d="m130.92 350.147a6 6 0 0 0 5.191-9l-2.654-4.6a51.969 51.969 0 0 0 -10.391 6l2.652 4.594a6 6 0 0 0 5.202 3.006z"/><path d="m133.915 419.308a6 6 0 0 0 -8.2 2.2l-2.655 4.6a51.99 51.99 0 0 0 10.39 6l2.658-4.6a6 6 0 0 0 -2.193-8.2z"/><path d="m174.31 349.342a6 6 0 0 0 8.2-2.2l2.653-4.594a51.969 51.969 0 0 0 -10.391-6l-2.655 4.6a6 6 0 0 0 2.193 8.194z"/><path d="m189.1 404.522a6 6 0 0 0 2.2 8.2l4.6 2.656a52.013 52.013 0 0 0 6-10.391l-4.6-2.656a6 6 0 0 0 -8.2 2.191z"/><path d="m113.928 367.129a6 6 0 0 0 3.005-11.2l-4.6-2.654a51.99 51.99 0 0 0 -6.005 10.39l4.6 2.656a5.97 5.97 0 0 0 3 .808z"/><path d="m350.605 384.325a6 6 0 0 0 -6-6h-5.305a51.677 51.677 0 0 0 0 12h5.306a6 6 0 0 0 5.999-6z"/><path d="m442.7 378.325h-5.3a6 6 0 0 0 0 12h5.3a51.751 51.751 0 0 0 0-12z"/><path d="m391 424.72a6 6 0 0 0 -6 6v5.311a51.75 51.75 0 0 0 12 0v-5.311a6 6 0 0 0 -6-6z"/><path d="m391 343.931a6 6 0 0 0 6-6v-5.3a51.75 51.75 0 0 0 -12 0v5.3a6 6 0 0 0 6 6z"/><path d="m356.017 404.522a6 6 0 0 0 -8.2-2.195l-4.6 2.656a51.469 51.469 0 0 0 6.008 10.387l4.592-2.652a6 6 0 0 0 2.2-8.196z"/><path d="m425.982 364.128a6 6 0 0 0 8.2 2.2l4.6-2.655a51.277 51.277 0 0 0 -6.006-10.389l-4.592 2.652a6 6 0 0 0 -2.202 8.192z"/><path d="m411.2 419.308a6 6 0 0 0 -2.2 8.2l2.661 4.609a51.94 51.94 0 0 0 10.386-6.012l-2.654-4.6a6 6 0 0 0 -8.193-2.197z"/><path d="m367.808 350.147a6 6 0 0 0 5.191-9l-2.658-4.6a51.939 51.939 0 0 0 -10.388 6.008l2.653 4.6a6 6 0 0 0 5.202 2.992z"/><path d="m370.8 419.308a6 6 0 0 0 -8.2 2.2l-2.654 4.6a51.94 51.94 0 0 0 10.386 6.012l2.668-4.62a6 6 0 0 0 -2.2-8.192z"/><path d="m411.2 349.342a6 6 0 0 0 8.2-2.2l2.652-4.6a51.983 51.983 0 0 0 -10.387-6.009l-2.658 4.6a6 6 0 0 0 2.193 8.209z"/><path d="m425.983 404.523a6 6 0 0 0 2.2 8.195l4.592 2.652a51.731 51.731 0 0 0 6.011-10.385l-4.6-2.658a6 6 0 0 0 -8.203 2.196z"/><path d="m350.815 367.129a6 6 0 0 0 3.006-11.2l-4.592-2.652a51.277 51.277 0 0 0 -6.006 10.389l4.6 2.655a5.966 5.966 0 0 0 2.992.808z"/></g></svg>