<svg id="Layer_1" enable-background="new 0 0 512 512" height="512" viewBox="0 0 512 512" width="512" xmlns="http://www.w3.org/2000/svg"><path d="m64.2 80.1h12v38.2h-12z" fill="#d4e1f4"/><path d="m124.8 46.6h12v124.6h-12z" fill="#d4e1f4" transform="matrix(-.539 .843 -.843 -.539 292.937 57.24)"/><path d="m70.2 54.4c-8.7-.1-15.8 6.8-15.9 15.5s6.8 15.8 15.5 15.9 15.8-6.8 15.9-15.5c0-.1 0-.1 0-.2.1-8.6-6.9-15.6-15.5-15.7z" fill="#fb6771"/><path d="m-8.2 211h111.6v12h-111.6z" fill="#d4e1f4" transform="matrix(-.34 .94 -.94 -.34 267.845 246.094)"/><path d="m37.4 282h12v42.6h-12z" fill="#d4e1f4" transform="matrix(-.821 .572 -.572 -.821 252.285 527.446)"/><ellipse cx="25.1" cy="278.5" fill="#fb6771" rx="15.5" ry="15.7"/><path d="m457.9 369.8h-221.3c-22.8 0-41.3 18.5-41.3 41.3s18.5 41.3 41.3 41.3h221.3c22.8 0 41.3-18.5 41.3-41.3s-18.5-41.3-41.3-41.3z" fill="#6d7486"/><path d="m225.4 411c.1-22.8 18.5-41.2 41.3-41.3h-30c-22.8 0-41.3 18.5-41.3 41.3s18.5 41.3 41.3 41.3h30c-22.9 0-41.3-18.5-41.3-41.3z" fill="#596070"/><circle cx="458.7" cy="411.1" fill="#8787af" r="20.1"/><circle cx="384.9" cy="411.1" fill="#8787af" r="20.1"/><circle cx="237.2" cy="411.1" fill="#8787af" r="20.1"/><circle cx="311" cy="411.1" fill="#8787af" r="20.1"/><path d="m231 293.2v6.2 31.3h160.6v-37.5z" fill="#edb740"/><path d="m336.3 268.3v25h-105.3v-11.6c0-8.3.6-16.6 1.9-24.8.5-3.1 1.1-6.2 1.8-9.2h37.3l15.8 20.6z" fill="#f9d438"/><path d="m336.3 268.3h55.4v25h-55.4z" fill="#e8aa46"/><path d="m378.8 164.6h-42.6v103.7h55.4v-90.9c0-7.1-5.7-12.8-12.8-12.8z" fill="#55d8d8"/><path d="m229.6 148.2c-14.2-7.8-30.1-11.8-46.3-11.9h-56.5v33.1l59.8 5.3 54 54.7 35.3-55.9z" fill="#f9d438"/><path d="m106.1 167.6-19.7-1.7c-8.1-.8-14.1-8-13.3-16.1.7-7.6 7.1-13.3 14.7-13.3h38.9v33.1z" fill="#edb740"/><path d="m82.8 112.3 23.3 24.1h-18.3c-8.2 0-14.8 6.6-14.8 14.8 0 7.6 5.8 14 13.3 14.7l19.7 1.7-17.4 12.5-10.3 127.7c-6.4-3.3-14.1-2.5-19.7 2.1v-.1-197.5z" fill="#f9d438"/><path d="m82.8 311.2 15.1 15.6-38.7 28.7-11.7-34.7 9.9-9.9c.4-.4.8-.8 1.2-1.1 7.2-5.9 17.7-5.4 24.2 1.4z" fill="#d4e1f4"/><path d="m145.6 363.4 24.4-15.6s0 68.9-44.9 80.4c-15.6 3.9-32.2-.3-44.1-11.1l-27-24.1 5.3-37.7 38.7-28.7 3 27.1z" fill="#b0b5ca"/><path d="m336.3 164.6v103.7h-48.4l-15.8-20.6h-37.4c1.5-6.2 3.4-12.3 5.8-18.2 3.8-9.4 8.7-18.3 14.6-26.5l20.8-29.4 6.4-9z" fill="#7ce5e9"/><path d="m488.6 235.4h-97v85.4h97c7.7 0 14-6.3 14-14v-57.4c0-7.7-6.2-14-14-14z" fill="#f9d438"/><path d="m468.1 216.6h-40.2c-2.2 0-4 1.8-4 4v14.8h48.2v-14.8c0-2.2-1.8-4-4-4z" fill="#b0b5ca"/><path d="m292.3 330.7h88.5v39.1h-88.5z" fill="#7878a0"/><path d="m261 293.2h-30v6.2 31.3h30v-31.3z" fill="#ffd98d"/><path d="m261 281.6c0-8.3.6-16.6 1.9-24.8.5-3.1 1.1-6.2 1.8-9.2h-30c-.7 3.1-1.3 6.1-1.8 9.2-1.3 8.2-1.9 16.5-1.9 24.8v11.6h30z" fill="#ffe98d"/><path d="m77.5 320.8 7.4-7.4-2.1-2.2c-6.5-6.7-17-7.3-24.2-1.3-.4.3-.8.7-1.2 1.1l-9.9 9.9 11.7 34.7 24-17.8z" fill="#b8c2d1"/><path d="m83.9 393.1 5.3-37.7-6-17.8-24 17.8-5.3 37.7 27 24.1c12 10.8 28.5 15 44.1 11.1 1.1-.3 2.2-.6 3.3-1-6.4-2.1-12.4-5.6-17.5-10.1z" fill="#9ca4bc"/><path d="m270.5 229.4c3.8-9.4 8.7-18.3 14.5-26.5l20.8-29.4 6.4-9h-30l-6.4 9-20.8 29.4c-5.8 8.2-10.7 17.1-14.6 26.5-2.4 5.9-4.4 12-5.8 18.2h30c1.6-6.2 3.5-12.3 5.9-18.2z" fill="#bff"/><path d="m292.3 330.7h30v39.1h-30z" fill="#7878a0"/><path d="m248 304.8h17.3v12h-17.3z" fill="#f4f8fc"/><g fill="#d8b72e"><path d="m469.1 268.6h-11.7c-3.3 0-6-2.7-6-6s2.7-6 6-6h11.7c3.3 0 6 2.7 6 6s-2.7 6-6 6z"/><path d="m469.1 286.5h-11.7c-3.3 0-6-2.7-6-6s2.7-6 6-6h11.7c3.3 0 6 2.7 6 6s-2.7 6-6 6z"/><path d="m469.1 304.5h-11.7c-3.3 0-6-2.7-6-6s2.7-6 6-6h11.7c3.3 0 6 2.7 6 6s-2.7 6-6 6z"/><path d="m430.4 268.6h-10.7c-3.3 0-6-2.7-6-6s2.7-6 6-6h10.7c3.3 0 6 2.7 6 6s-2.7 6-6 6z"/><path d="m430.4 286.5h-10.7c-3.3 0-6-2.7-6-6s2.7-6 6-6h10.7c3.3 0 6 2.7 6 6s-2.7 6-6 6z"/><path d="m430.4 304.5h-10.7c-3.3 0-6-2.7-6-6s2.7-6 6-6h10.7c3.3 0 6 2.7 6 6s-2.7 6-6 6z"/></g><path d="m447.6 172.2c-3.3 0-6-2.7-6-6v-26.4c0-8.2 6.7-14.9 14.9-14.9h3.3c3.3 0 6 2.7 6 6s-2.7 6-6 6h-3.3c-1.6 0-2.9 1.3-2.9 2.9v26.4c0 3.3-2.6 6-6 6z" fill="#d4e1f4"/><path d="m285.6 416.7c.2.8.4 1.6.6 2.4-2 2.6-1.5 6.4 1.1 8.4 1.3 1 2.9 1.4 4.5 1.2.6.6 1.1 1.2 1.7 1.7-.4 3.3 1.9 6.3 5.2 6.7 1.6.2 3.2-.2 4.4-1.2.8.3 1.6.5 2.4.6 1.3 3.1 4.8 4.5 7.8 3.2 1.5-.6 2.6-1.8 3.2-3.2.8-.2 1.6-.4 2.4-.6 2.6 2 6.4 1.5 8.4-1.1 1-1.3 1.4-2.9 1.2-4.4.6-.6 1.2-1.1 1.7-1.7 3.3.4 6.3-1.9 6.7-5.2.2-1.6-.2-3.2-1.2-4.4.3-.8.5-1.6.6-2.4 3.1-1.3 4.5-4.8 3.2-7.8-.6-1.5-1.8-2.6-3.2-3.2-.2-.8-.4-1.6-.6-2.4 2-2.6 1.5-6.4-1.1-8.4-1.3-1-2.9-1.4-4.4-1.2-.6-.6-1.1-1.2-1.7-1.7.4-3.3-1.9-6.3-5.2-6.7-1.6-.2-3.2.2-4.4 1.2-.8-.3-1.6-.5-2.4-.6-1.3-3.1-4.8-4.5-7.8-3.2-1.5.6-2.6 1.8-3.2 3.2-.8.2-1.6.4-2.4.6-2.6-2-6.4-1.5-8.4 1.1-1 1.3-1.4 2.9-1.2 4.4-.6.6-1.2 1.1-1.7 1.7-3.3-.4-6.3 1.9-6.7 5.2-.2 1.6.2 3.2 1.2 4.4-.3.8-.5 1.6-.6 2.4-3.1 1.3-4.5 4.8-3.2 7.8.4 1.4 1.6 2.6 3.1 3.2zm25.4-19.6c7.8 0 14.1 6.3 14.1 14.1s-6.3 14.1-14.1 14.1-14.1-6.3-14.1-14.1c.1-7.8 6.4-14.1 14.1-14.1z" fill="#424956"/><path d="m504.8 405.2c-.5-4.2-1.6-8.4-3.3-12.3 2.7-1.9 3.5-5.6 1.6-8.3-1.7-2.5-4.9-3.3-7.6-2-2.6-3.4-5.6-6.4-9-9 1.4-3 .2-6.6-2.8-8-2.7-1.3-5.9-.4-7.5 2-3.9-1.7-8.1-2.8-12.3-3.3-.3-3.3-3.2-5.7-6.5-5.5-2.8.2-5 2.3-5.4 5.1h-10.1c-.5-3.3-3.5-5.5-6.8-5-2.6.4-4.6 2.4-5 5h-10.1c-.5-3.3-3.5-5.5-6.8-5-2.6.4-4.6 2.4-5 5h-10.1c-.5-3.3-3.5-5.5-6.8-5-2.6.4-4.6 2.4-5 5h-10.1c-.5-3.3-3.5-5.5-6.8-5-2.6.4-4.6 2.4-5 5h-10.4c-.5-3.3-3.5-5.5-6.8-5-2.6.4-4.6 2.4-5 5h-10.2c-.5-3.3-3.5-5.5-6.8-5-2.6.4-4.6 2.4-5 5h-10.2c-.5-3.3-3.5-5.5-6.8-5-2.6.4-4.6 2.4-5 5h-10.1c-.5-3.3-3.5-5.5-6.8-5-2.6.4-4.6 2.4-5 5h-10.1c-.5-3.3-3.5-5.5-6.8-5-2.6.4-4.6 2.4-5 5h-11.6c-.5-3.3-3.5-5.5-6.8-5-2.7.4-4.8 2.6-5.1 5.4-4.2.5-8.4 1.6-12.4 3.3-1.9-2.7-5.7-3.3-8.4-1.4-2.3 1.7-3.2 4.8-2 7.4-3.4 2.6-6.5 5.6-9.1 9-3-1.4-6.6 0-7.9 3-1.2 2.6-.4 5.7 2 7.4-1.7 4-2.8 8.1-3.3 12.4-3.3.3-5.7 3.2-5.4 6.5.3 2.9 2.6 5.1 5.4 5.4.5 4.2 1.7 8.4 3.3 12.3-2.7 1.9-3.4 5.6-1.6 8.3 1.7 2.5 4.9 3.3 7.6 2 2.6 3.4 5.6 6.4 9 9-1.5 3-.3 6.6 2.7 8 2.7 1.3 6 .5 7.7-2.1 3.9 1.6 8 2.7 12.3 3.2.2 3.3 3 5.8 6.3 5.7 2.9-.2 5.3-2.4 5.6-5.3h11.5c.4 3.3 3.4 5.6 6.7 5.2 2.7-.3 4.9-2.5 5.2-5.2h10.1c.4 3.3 3.4 5.6 6.7 5.2 2.7-.3 4.9-2.5 5.2-5.2h10.1c.4 3.3 3.4 5.6 6.7 5.2 2.7-.3 4.9-2.5 5.2-5.2h10.1c.4 3.3 3.4 5.6 6.7 5.2 2.7-.3 4.9-2.5 5.2-5.2h10.1c.4 3.3 3.4 5.6 6.7 5.2 2.7-.3 4.9-2.5 5.2-5.2h10.1c.4 3.3 3.4 5.6 6.7 5.2 2.7-.3 4.9-2.5 5.2-5.2h9.9c.4 3.3 3.4 5.6 6.7 5.2 2.7-.3 4.9-2.5 5.2-5.2h10.1c.4 3.3 3.4 5.6 6.7 5.2 2.7-.3 4.9-2.5 5.2-5.2h10.1c.4 3.3 3.4 5.6 6.7 5.2 2.7-.3 4.9-2.5 5.2-5.2h10.1c.4 3.3 3.4 5.6 6.7 5.3 2.9-.3 5.1-2.7 5.3-5.6 4.2-.5 8.3-1.6 12.2-3.3 1.8 2.8 5.5 3.6 8.3 1.8 2.6-1.7 3.5-5.1 2.1-7.8 3.4-2.6 6.4-5.6 9-8.9 2.9 1.5 6.6.3 8.1-2.6 1.4-2.7.5-6-2-7.7 1.7-3.9 2.8-8 3.3-12.3 3.3-.2 5.8-3.1 5.6-6.4-.4-3.1-2.8-5.5-5.8-5.7zm-46.9 41.1h-221.3c-19.5-.1-35.2-16-35.1-35.5.1-19.3 15.7-35 35.1-35.1h221.3c19.5.1 35.2 16 35.1 35.5-.1 19.4-15.8 35-35.1 35.1z" fill="#424956"/><path d="m262.7 405.6c-.2-.8-.4-1.6-.6-2.4 2-2.6 1.5-6.4-1.1-8.4-1.3-1-2.9-1.4-4.4-1.2-.6-.6-1.1-1.2-1.7-1.7.4-3.3-1.9-6.3-5.2-6.7-1.6-.2-3.2.2-4.4 1.2-.8-.3-1.6-.5-2.4-.6-1.3-3.1-4.8-4.5-7.8-3.2-1.5.6-2.6 1.8-3.2 3.2-.8.2-1.6.4-2.4.6-2.6-2-6.4-1.5-8.4 1.1-1 1.3-1.4 2.9-1.2 4.4-.6.6-1.2 1.1-1.7 1.7-3.3-.4-6.3 1.9-6.7 5.2-.2 1.6.2 3.2 1.2 4.4-.3.8-.5 1.6-.6 2.4-3.1 1.3-4.5 4.8-3.2 7.8.6 1.5 1.8 2.6 3.2 3.2.2.8.4 1.6.6 2.4-2 2.6-1.5 6.4 1.1 8.4 1.3 1 2.9 1.4 4.5 1.2.6.6 1.1 1.2 1.7 1.7-.4 3.3 1.9 6.3 5.2 6.7 1.6.2 3.2-.2 4.4-1.2.8.3 1.6.5 2.4.6 1.3 3.1 4.8 4.5 7.8 3.2 1.5-.6 2.6-1.8 3.2-3.2l2.4-.6c2.6 2 6.4 1.5 8.4-1.1 1-1.3 1.4-2.9 1.2-4.4.6-.6 1.2-1.1 1.7-1.7 3.3.4 6.3-1.9 6.7-5.2.2-1.6-.2-3.2-1.2-4.4.3-.8.5-1.6.6-2.4 3.1-1.3 4.5-4.8 3.2-7.8-.6-1.4-1.8-2.6-3.3-3.2zm-25.5 19.6c-7.8 0-14.1-6.3-14.1-14.1s6.3-14.1 14.1-14.1 14.1 6.3 14.1 14.1c0 7.8-6.3 14.1-14.1 14.1z" fill="#424956"/><path d="m478 393.6c-.6-.6-1.1-1.2-1.7-1.7.4-3.3-1.9-6.3-5.2-6.7-1.6-.2-3.2.2-4.4 1.2-.8-.3-1.6-.5-2.4-.6-1.3-3.1-4.8-4.5-7.8-3.2-1.5.6-2.6 1.8-3.2 3.2-.8.2-1.6.4-2.4.6-2.6-2-6.4-1.5-8.4 1.1-1 1.3-1.4 2.9-1.2 4.4-.6.6-1.2 1.1-1.7 1.7-3.3-.4-6.3 1.9-6.7 5.2-.2 1.6.2 3.2 1.2 4.4-.3.8-.5 1.6-.6 2.4-3.1 1.3-4.5 4.8-3.2 7.8.6 1.5 1.8 2.6 3.2 3.2.2.8.4 1.6.6 2.4-2 2.6-1.5 6.4 1.1 8.4 1.3 1 2.9 1.4 4.5 1.2.6.6 1.1 1.2 1.7 1.7-.4 3.3 1.9 6.3 5.2 6.7 1.6.2 3.2-.2 4.4-1.2.8.3 1.6.5 2.4.6 1.3 3.1 4.8 4.5 7.8 3.2 1.5-.6 2.6-1.8 3.2-3.2.8-.2 1.6-.4 2.4-.6 2.6 2 6.4 1.5 8.4-1.1 1-1.3 1.4-2.9 1.2-4.4.6-.6 1.2-1.1 1.7-1.7.3 0 .5.1.8.1 3.3 0 6-2.7 6-6 0-1.3-.4-2.6-1.2-3.7.3-.8.5-1.6.6-2.4 3.1-1.3 4.5-4.8 3.2-7.8-.6-1.5-1.8-2.6-3.2-3.2-.2-.8-.4-1.6-.6-2.4 2-2.6 1.5-6.4-1.1-8.4-1.4-1-3-1.4-4.6-1.2zm-19.3 31.6c-7.8 0-14.1-6.3-14.1-14.1s6.3-14.1 14.1-14.1 14.1 6.3 14.1 14.1c0 7.8-6.3 14.1-14.1 14.1z" fill="#424956"/><path d="m410.4 405.6c-.2-.8-.4-1.6-.6-2.4 2-2.6 1.5-6.4-1.1-8.4-1.3-1-2.9-1.4-4.4-1.2-.6-.6-1.1-1.2-1.7-1.7.4-3.3-1.9-6.3-5.2-6.7-1.6-.2-3.2.2-4.4 1.2-.8-.3-1.6-.5-2.4-.6-1.3-3.1-4.8-4.5-7.8-3.2-1.5.6-2.6 1.8-3.2 3.2-.8.2-1.6.4-2.4.6-2.6-2-6.4-1.5-8.4 1.1-1 1.3-1.4 2.9-1.2 4.4-.6.6-1.2 1.1-1.7 1.7-3.3-.4-6.3 1.9-6.7 5.2-.2 1.6.2 3.2 1.2 4.4-.3.8-.5 1.6-.6 2.4-3.1 1.3-4.5 4.8-3.2 7.8.6 1.5 1.8 2.6 3.2 3.2.2.8.4 1.6.6 2.4-2 2.6-1.5 6.4 1.1 8.4 1.3 1 2.9 1.4 4.5 1.2.6.6 1.1 1.2 1.7 1.7-.4 3.3 1.9 6.3 5.2 6.7 1.6.2 3.2-.2 4.4-1.2.8.3 1.6.5 2.4.6 1.3 3.1 4.8 4.5 7.8 3.2 1.5-.6 2.6-1.8 3.2-3.2.8-.2 1.6-.4 2.4-.6 2.6 2 6.4 1.5 8.4-1.1 1-1.3 1.4-2.9 1.2-4.4.6-.6 1.2-1.1 1.7-1.7 3.3.4 6.3-1.9 6.7-5.1.2-1.6-.2-3.2-1.2-4.5.3-.8.5-1.6.6-2.4 3.1-1.3 4.5-4.8 3.2-7.8-.7-1.4-1.9-2.6-3.3-3.2zm-25.5 19.6c-7.8 0-14.1-6.3-14.1-14.1s6.3-14.1 14.1-14.1 14.1 6.3 14.1 14.1c0 7.8-6.3 14.1-14.1 14.1z" fill="#424956"/><path d="m459.4 166.2v50.4h-22.6v-50.4h10.8z" fill="#ccd3df"/></svg>