<svg id="Layer_1" height="512" viewBox="0 0 512 512" width="512" xmlns="http://www.w3.org/2000/svg" data-name="Layer 1"><path d="m191.54 143.98v62.63h-39.18v-33.08h18.19v-33.48l.08-.4z" fill="#b0b5ca"/><path d="m458.241 152.535-360.53-74.735a6 6 0 0 0 -4.664-6.928l-38.832-8.172a6 6 0 0 0 -7.108 4.64l-10.395 49.583a6 6 0 0 0 4.636 7.1l40.068 8.3a5.991 5.991 0 0 0 5.536-3.691l373.048 77.336a5.994 5.994 0 0 0 7.093-4.657l5.56-26.821a18.594 18.594 0 0 0 -14.412-21.955zm-381.465-33.314-27.089-5.7 7.933-37.84 27.089 5.7zm12.744-2.305 5.738-27.369 30.928 6.411-23.5 23.687zm27.189 5.636 19.3-19.453 9.974 25.52zm31.144-22.1 29.271 6.068-19.3 19.453zm19.793 32.662 19.3-19.453 9.974 25.52zm31.145-22.1 29.271 6.068-19.3 19.452zm19.793 32.662 19.3-19.453 9.974 25.52zm31.145-22.1 29.271 6.059-19.3 19.452zm19.793 32.662 19.3-19.453 9.974 25.52zm31.145-22.1 29.27 6.068-19.3 19.452zm19.793 32.661 19.3-19.452 9.974 25.52zm31.145-22.1 29.27 6.067-19.3 19.453zm19.795 32.647 19.3-19.453 10.324 25.593zm31.144-22.1 29.271 6.067-18.893 19.387zm20.116 32.664 18.974-19.455 9.974 25.52zm38.249-13.854-1.456 7.024-5.973-15.28 2.325.482a6.58 6.58 0 0 1 5.102 7.772z" fill="#d4e1f4"/><path d="m476.2 276.14-21.32-17.17v107.34h30.31v-71.4a24.091 24.091 0 0 0 -8.99-18.77z" fill="#6d7486"/><path d="m485.19 366.31h7.38v37.73h-38.16a59.164 59.164 0 0 0 -13.53-37.73z" fill="#d4e1f4"/><path d="m393.81 365.65a39.39 39.39 0 1 1 -39.39 39.39 39.4 39.4 0 0 1 39.39-39.39z" fill="#6d7486"/><path d="m454.88 289.38v76.93h-14.01a59.235 59.235 0 0 0 -45.8-21.61h-2.52a59.271 59.271 0 0 0 -45.81 21.61h-57.9v-76.93z" fill="#ffb85a"/><path d="m232.07 289.38h56.77v76.93h-56.77z" fill="#fb6771"/><path d="m288.84 366.31h57.9a59.164 59.164 0 0 0 -13.53 37.73h-120.78v-37.73z" fill="#d4e1f4"/><path d="m79.63 366.31.03.03a59.141 59.141 0 0 0 -13.51 37.7h-39.87a6.867 6.867 0 0 1 -6.85-6.85v-24.03a6.865 6.865 0 0 1 5.54-6.72 6.328 6.328 0 0 1 1.31-.13z" fill="#d4e1f4"/><path d="m126.75 365.65a39.39 39.39 0 1 1 -39.39 39.39 39.4 39.4 0 0 1 39.39-39.39z" fill="#6d7486"/><path d="m193.73 205.61h-121.11a18.8 18.8 0 0 0 -16.81 10.38c-1.44 2.87-3.1 6.23-4.88 9.92l.02.01-26 72.7v67.69l.02.13a6.328 6.328 0 0 1 1.31-.13h53.35l.03.03a59.228 59.228 0 0 1 45.83-21.64h2.52a59.343 59.343 0 0 1 59.34 59.34h25.08v-180.03a18.706 18.706 0 0 0 -18.7-18.4z" fill="#ef5854"/><path d="m232.07 205.61v83.77h56.77 166.04v-83.77z" fill="#ef5854"/><path d="m288.84 205.61h108.09v31.33h-108.09z" fill="#ffb85a"/><path d="m123.08 187.61v18h-33.51v-18a16.755 16.755 0 0 1 33.51 0z" fill="#43a2ff"/><path d="m135.68 225.92h54.86v49.4h-54.86z" fill="#a0eaea"/><path d="m114.41 225.92v49.27l-89.46 23.43v-2c0-14.54 15.28-48.63 25.98-70.71l.02.01z" fill="#a0eaea"/><circle cx="393.81" cy="405.04" fill="#c5d5e8" r="9.31"/><circle cx="126.75" cy="405.04" fill="#c5d5e8" r="9.31"/><path d="m380.42 405.04a39.405 39.405 0 0 1 26.39-37.183 39.39 39.39 0 1 0 0 74.367 39.4 39.4 0 0 1 -26.39-37.184z" fill="#575f72"/><path d="m113.36 405.04a39.405 39.405 0 0 1 26.39-37.183 39.39 39.39 0 1 0 0 74.367 39.4 39.4 0 0 1 -26.39-37.184z" fill="#575f72"/><path d="m45.43 397.19v-24.03a6.865 6.865 0 0 1 5.54-6.72l-.02-.13h-24.67a6.328 6.328 0 0 0 -1.31.13 6.865 6.865 0 0 0 -5.54 6.72v24.03a6.867 6.867 0 0 0 6.85 6.85h26a6.867 6.867 0 0 1 -6.85-6.85z" fill="#c5d5e8"/><path d="m50.95 366.31v-69.69a32.239 32.239 0 0 1 .445-4.926l-26.445 6.926v67.69l.02.13a6.328 6.328 0 0 1 1.31-.13z" fill="#ff8894"/><path d="m76.925 225.92.005-.01c1.78-3.69 3.44-7.05 4.88-9.92a18.8 18.8 0 0 1 16.81-10.38h-26a18.8 18.8 0 0 0 -16.81 10.38c-1.44 2.87-3.1 6.23-4.88 9.92l.02.01z" fill="#ff8894"/><path d="m115.57 205.61v-18a16.646 16.646 0 0 1 3.756-10.528 16.946 16.946 0 0 0 -1.166-1.3 16.737 16.737 0 0 0 -28.59 11.83v18h26z" fill="#49bdff"/><path d="m76.925 225.92h-25.975l-.02-.01c-10.7 22.08-25.98 56.17-25.98 70.71v2l26.45-6.926c2.567-16.319 15.9-45.903 25.525-65.774z" fill="#c5fffd"/><path d="m434.96 179.24 8.93 26.37h-38.25v-21.54a15.06 15.06 0 0 1 29.32-4.83z" fill="#b0b5ca"/></svg>