<svg id="Layer_1" height="512" viewBox="0 0 512 512" width="512" xmlns="http://www.w3.org/2000/svg" data-name="Layer 1"><path d="m192.05 98.95h-122.77v154.55h81.13l47.49 46.54h43.48.6v-66.6l45.71-37.21z" fill="#9eefdf"/><path d="m222.86 63.56h-157.82a17.7 17.7 0 0 0 0 35.39h157.82a17.7 17.7 0 0 0 0-35.39z" fill="#ec575b"/><path d="m400.64 415.59h-.01c.01-.1.01-.2.01-.3v-22.37h92.22a11.335 11.335 0 0 1 0 22.67z" fill="#b0b5ca"/><path d="m397.31 207.13a11.321 11.321 0 0 0 -19.34 8.01v200.15a11.332 11.332 0 0 0 22.66.3c.01-.1.01-.2.01-.3v-200.15a11.317 11.317 0 0 0 -3.33-8.01z" fill="#e2e4ed"/><path d="m310.97 142.38v157.51.03l26.76-.04v-157.5z" fill="#e2e4ed"/><path d="m337.73 236.94h40.24v38.86h-40.24z" fill="#ccd3df"/><path d="m287.69 299.87v.09l-45.71.08v-66.6l13.16-10.71 32.55-26.5z" fill="#6d7486"/><path d="m27.98 315.21v48.03h-11.75a8.44 8.44 0 0 1 -8.42-8.42v-31.19a8.446 8.446 0 0 1 8.42-8.42z" fill="#fff655"/><path d="m150.41 253.5h-94.16a28.274 28.274 0 0 0 -28.27 28.27v96.1l24.28 8.7v-.47l145.64.47v-86.53z" fill="#ec575b"/><path d="m341.58 299.87-143.68.17v47.22h97.59a50.532 50.532 0 0 1 49 39.17h16.24v-67.41a19.145 19.145 0 0 0 -19.15-19.15z" fill="#fb6771"/><path d="m197.9 347.26h97.44a50.683 50.683 0 0 0 -49.47 39.31h-47.97z" fill="#de3c44"/><path d="m295.49 347.26a50.532 50.532 0 0 1 49 39.17 51.154 51.154 0 0 1 1.32 11.69 50.6 50.6 0 0 1 -101.19-.54 49.941 49.941 0 0 1 1.25-11.01 50.683 50.683 0 0 1 49.47-39.31z" fill="#6d7486"/><path d="m295.53 377.61a20.237 20.237 0 1 1 -20.55 20 20.267 20.267 0 0 1 20.55-20z" fill="#4a5160"/><path d="m99.28 253.5v-154.55h-4.24-25.76v154.55h16.97z" fill="#dcfff8"/><path d="m77.35 81.26a17.754 17.754 0 0 1 17.69-17.7h-30a17.7 17.7 0 0 0 0 35.39h30a17.741 17.741 0 0 1 -17.69-17.69z" fill="#ff979f"/><path d="m57.98 281.77a28.274 28.274 0 0 1 28.27-28.27h-30a28.274 28.274 0 0 0 -28.27 28.27v96.1l24.28 8.7v-.47l28.949.093-23.229-8.323z" fill="#ff979f"/><path d="m274.62 397.58a49.941 49.941 0 0 1 1.25-11.01 50.65 50.65 0 0 1 34.421-37.047 50.125 50.125 0 0 0 -14.8-2.263h-.15a50.683 50.683 0 0 0 -49.47 39.31 49.941 49.941 0 0 0 -1.25 11.01 50.56 50.56 0 0 0 65.525 48.6 50.713 50.713 0 0 1 -35.526-48.6z" fill="#596070"/><path d="m176.29 386.57v.19a62.016 62.016 0 0 1 -124.03-.19v-.47a62.016 62.016 0 0 1 124.03.47z" fill="#6d7486"/><path d="m114.67 361.63a24.8 24.8 0 1 1 -25.2 24.5 24.825 24.825 0 0 1 25.2-24.5z" fill="#4a5160"/><path d="m168.72 229.77h-43.85l-8.15-41.55a12.876 12.876 0 0 0 -25.3 4.8l11.11 60.48h66.19a11.865 11.865 0 1 0 0-23.73z" fill="#6d7486"/><path d="m82.26 386.57v-.47a61.949 61.949 0 0 1 47.111-59.845 62.123 62.123 0 0 0 -77.111 59.845v.47a61.956 61.956 0 0 0 76.933 60.03 62.152 62.152 0 0 1 -46.933-60.03z" fill="#596070"/><path d="m261.758 186.964a6 6 0 0 0 -8.436-.913l-34.029 27.378a6 6 0 1 0 7.522 9.349l12.168-9.79 11.582 13.629 9.145-7.771-11.373-13.383 12.507-10.063a6 6 0 0 0 .914-8.436z" fill="#b0b5ca"/></svg>