<svg id="Layer_1" height="512" viewBox="0 0 512 512" width="512" xmlns="http://www.w3.org/2000/svg" data-name="Layer 1"><path d="m121.59 139.651a6 6 0 0 1 -6-6v-13.851a6 6 0 0 1 12 0v13.85a6 6 0 0 1 -6 6.001z" fill="#fb6771"/><path d="m499.52 231.64-18.99 51.22-19-51.22z" fill="#77db87"/><path d="m428.46 142.46h-47.14l48.55 132.81v50.42h58.96v-20.44z" fill="#4ca987"/><path d="m441.01 121.29h-67.43l7.74 21.17h59.69a10.585 10.585 0 1 0 0-21.17z" fill="#d8ff33"/><g fill="#6d7486"><path d="m352.77 302.92v.95a67.088 67.088 0 0 1 53.58 26.7l23.52-20v-7.65z"/><path d="m375.54 332.67a45.548 45.548 0 1 1 -22.77-6.1 45.5 45.5 0 0 1 22.77 6.1z"/><path d="m342.87 302.92h-182.79v13.08a67.2 67.2 0 0 1 26.03 36.48h102.14a67.122 67.122 0 0 1 64.52-48.61v-.95z"/><path d="m167.13 372.11a45.537 45.537 0 1 1 -6.1-22.77 45.3 45.3 0 0 1 6.1 22.77z"/><path d="m19.33 325.48a6.867 6.867 0 0 0 -6.85 6.85v39.03a6.867 6.867 0 0 0 6.85 6.85h35.16v-7.24a66.864 66.864 0 0 1 17.77-45.49z"/></g><path d="m82.19 133.73a34.475 34.475 0 0 0 -33.6 26.77l-10.46 58.96v.05h61.44v-85.78z" fill="#a0eaea"/><path d="m99.57 133.73h60.51v85.78h-60.51z" fill="#8de2df"/><path d="m160.08 302.92v13.08a67.118 67.118 0 0 0 -87.82 9.48h-30.31a61.558 61.558 0 0 1 61.56-61.56h56.57z" fill="#e2f95a"/><path d="m35.05 219.51-11.59 44.53v61.44h18.49a61.558 61.558 0 0 1 61.56-61.56h56.57v-44.41z" fill="#aeea59"/><path d="m204.24 105.82h120.09v169.45h-120.09z" fill="#77db87"/><path d="m367.92 105.82h-18.5v169.45h80.45z" fill="#77db87"/><path d="m179.15 94.36h25.09v180.91h-25.09z" fill="#4ca987"/><path d="m160.08 275.27v27.65h8.48l17.55-27.65z" fill="#7ce5e9"/><path d="m186.11 275.27-17.55 27.65h24.9l17.55-27.65z" fill="#55d8d8"/><path d="m235.91 275.27-17.55 27.65h-24.9l17.55-27.65z" fill="#7ce5e9"/><path d="m260.81 275.27-17.55 27.65h-24.9l17.55-27.65z" fill="#55d8d8"/><path d="m285.72 275.27-17.55 27.65h-24.91l17.55-27.65z" fill="#7ce5e9"/><path d="m310.62 275.27-17.55 27.65h-24.9l17.55-27.65z" fill="#55d8d8"/><path d="m310.62 275.27-17.55 27.65h24.9l17.55-27.65z" fill="#7ce5e9"/><path d="m335.52 275.27-17.55 27.65h24.9l17.55-27.65z" fill="#55d8d8"/><path d="m385.32 275.27-17.55 27.65h-15-9.9l17.55-27.65z" fill="#7ce5e9"/><path d="m429.87 275.27v8.28l-12.3 19.37h-24.9l17.55-27.65z" fill="#7ce5e9"/><path d="m410.22 275.27-17.55 27.65h-24.9l17.55-27.65z" fill="#55d8d8"/><path d="m456.72 325.69-17.55 27.65h-9.3v-27.65z" fill="#55d8d8"/><path d="m479.62 325.69-17.55 27.65h-22.9l17.55-27.65z" fill="#7ce5e9"/><path d="m488.83 325.69v27.65h-26.76l17.55-27.65z" fill="#55d8d8"/><path d="m266.9 352.48v17.54a8.213 8.213 0 0 1 -8.19 8.19h-42.16a8.22 8.22 0 0 1 -8.19-8.19v-38.94a8.213 8.213 0 0 1 8.19-8.19h42.16a8.207 8.207 0 0 1 8.19 8.19z" fill="#a1a1c4"/><path d="m343.33 394.88a45.551 45.551 0 0 1 24.44-65.772 45.536 45.536 0 1 0 -.02 86 45.644 45.644 0 0 1 -24.42-20.228z" fill="#575f72"/><path d="m106.05 372.11a45.555 45.555 0 0 1 30.54-43 45.529 45.529 0 1 0 .019 86 45.538 45.538 0 0 1 -30.559-43z" fill="#575f72"/><circle cx="352.77" cy="372.11" fill="#4b5466" r="21.53"/><circle cx="121.59" cy="372.11" fill="#4b5466" r="21.53"/><path d="m204.24 105.82h30v169.45h-30z" fill="#61c16c"/><path d="m367.92 105.82h-18.59v169.45h30.09v-137.995z" fill="#61c16c"/><path d="m324.33 94.36h25.09v180.91h-25.09z" fill="#4ca987"/><path d="m42.48 371.36v-39.03a6.867 6.867 0 0 1 6.85-6.85h-30a6.867 6.867 0 0 0 -6.85 6.85v39.03a6.867 6.867 0 0 0 6.85 6.85h30a6.867 6.867 0 0 1 -6.85-6.85z" fill="#969eb2"/><path d="m67.13 219.51 1-.05 10.46-58.96a34.482 34.482 0 0 1 20.98-24.376v-2.394h-17.38a34.475 34.475 0 0 0 -33.6 26.77l-10.46 58.96v.05z" fill="#cafffe"/><path d="m53.46 289.659v-25.619l12.59-44.53h-31l-11.59 44.53v61.44h18.49a61.263 61.263 0 0 1 11.51-35.821z" fill="#e0ffb0"/><path d="m44.37 178.67a10.539 10.539 0 0 1 4.33 8.53v21.68a10.576 10.576 0 0 1 -10.57 10.58h-6.15a10.584 10.584 0 0 1 -10.58-10.58v-21.68a10.584 10.584 0 0 1 10.58-10.58h6.15a10.462 10.462 0 0 1 6.24 2.05z" fill="#6d7486"/><path d="m188.692 384.209a6 6 0 0 1 -6-6v-7.242a61.1 61.1 0 1 0 -122.2 0v7.242a6 6 0 0 1 -12 0v-7.242a73.1 73.1 0 1 1 146.2 0v7.242a6 6 0 0 1 -6 6z" fill="#575f70"/><path d="m419.87 384.209a6 6 0 0 1 -6-6v-7.242a61.1 61.1 0 1 0 -122.2 0v7.242a6 6 0 0 1 -12 0v-7.242a73.1 73.1 0 1 1 146.2 0v7.242a6 6 0 0 1 -6 6z" fill="#575f70"/></svg>