<svg id="Layer_1" height="512" viewBox="0 0 512 512" width="512" xmlns="http://www.w3.org/2000/svg" data-name="Layer 1"><path d="m451.61 382.45a52.068 52.068 0 1 1 -6.97-26.02 51.834 51.834 0 0 1 6.97 26.02z" fill="#6d7486"/><path d="m177.72 382.45a52.035 52.035 0 1 1 -26.02-45.08 52.045 52.045 0 0 1 26.02 45.08z" fill="#6d7486"/><path d="m384.48 408.48a52.091 52.091 0 0 1 30.074-75.88 52.049 52.049 0 1 0 .006 99.7 52.117 52.117 0 0 1 -30.08-23.82z" fill="#596070"/><path d="m103.62 382.45a52.083 52.083 0 0 1 37.051-49.85 52.051 52.051 0 1 0 0 99.694 52.068 52.068 0 0 1 -37.051-49.844z" fill="#596070"/><circle cx="399.56" cy="382.45" fill="#7f8799" r="24.61"/><circle cx="125.67" cy="382.45" fill="#7f8799" r="24.61"/><path d="m466.09 166.15h-236.87l-1-69.27-59.92-19.38-2.65 23.42 29.98 9.81a5.977 5.977 0 0 1 4.13 5.7v169.87h266.33a8.008 8.008 0 0 0 8.01-8.01v-104.13a8.008 8.008 0 0 0 -8.01-8.01z" fill="#f4bd42"/><path d="m399.56 307.91a74.5 74.5 0 0 1 74.54 74.54v-74.54z" fill="#6d6d6d"/><path d="m177.72 307.91v21.19a74.541 74.541 0 0 1 14.83 20.4h140.14a74.534 74.534 0 0 1 66.87-41.59z" fill="#6d6d6d"/><path d="m72.57 262.26a4 4 0 0 0 -3.2 1.6l-21.58 28.8h-22.26v33.67l25.6 56.08a74.542 74.542 0 0 1 126.59-53.32v-66.83z" fill="#49bdff"/><path d="m177.72 148.1v114.16h-105.15a4 4 0 0 0 -3.2 1.6l-21.58 28.8h-22.26v-144.56a14 14 0 0 1 14-14h124.19a14 14 0 0 1 14 14z" fill="#3090fc"/><path d="m51.13 382.41v.04a8 8 0 0 1 -8.01 7.97h-24.03a8.008 8.008 0 0 1 -8.01-8.01v-54.07a8.008 8.008 0 0 1 8.01-8.01h24.03a8 8 0 0 1 8.01 8.01z" fill="#858f9a"/><path d="m298.21 326.34h-68.42a8.008 8.008 0 0 0 -8.01 8.01v40.05a8.008 8.008 0 0 0 8.01 8.01h68.42a8.008 8.008 0 0 0 8.01-8.01v-40.05a8.008 8.008 0 0 0 -8.01-8.01z" fill="#858f9a"/><path d="m500.92 328.4v58.36h-26.82v-4.31-54.05z" fill="#fb6771"/><path d="m221.35 291.3h22.5l47.53-130.15h-24.61z" fill="#e83"/><path d="m303.49 291.3h22.5l47.54-130.15h-24.61z" fill="#e83"/><path d="m430.07 161.15-46.43 130.15h22.5l48.53-130.15z" fill="#e83"/><path d="m151.68 172.14v50.07h-38.04v-60.07h28.04a10 10 0 0 1 10 10z" fill="#85c1cf"/><path d="m49.53 292.66h-24v27.67h24z" fill="#99e0ff"/><path d="m35.08 382.41v-54.07a8.008 8.008 0 0 1 8.01-8.01h-24a8.008 8.008 0 0 0 -8.01 8.01v54.07a8.008 8.008 0 0 0 8.01 8.01h24a8.008 8.008 0 0 1 -8.01-8.01z" fill="#afb8bf"/><path d="m63.53 134.1h-24a14 14 0 0 0 -14 14v144.56h24.26l-.26-144.56a14 14 0 0 1 14-14z" fill="#49bdff"/><path d="m113.64 162.14v60.07h-63.07v-50.07a10 10 0 0 1 10-10z" fill="#97cdd7"/><g fill="#4b515e"><path d="m474.1 388.452a6 6 0 0 1 -6-6 68.536 68.536 0 1 0 -137.071 0 6 6 0 0 1 -12 0 80.536 80.536 0 1 1 161.071 0 6 6 0 0 1 -6 6z"/><path d="m200.212 388.452a6 6 0 0 1 -6-6 68.539 68.539 0 1 0 -137.078 0 6 6 0 0 1 -12 0 80.539 80.539 0 1 1 161.078 0 6 6 0 0 1 -6 6z"/><path d="m125.673 422.846a6 6 0 0 0 -6 6v5.3a50.882 50.882 0 0 0 12 0v-5.3a6 6 0 0 0 -6-6z"/><path d="m125.673 342.057a6 6 0 0 0 6-6v-5.307a51.677 51.677 0 0 0 -12 0v5.308a6 6 0 0 0 6 5.999z"/><path d="m85.278 382.452a6 6 0 0 0 -6-6h-5.309a51.313 51.313 0 0 0 .006 12h5.3a6 6 0 0 0 6.003-6z"/><path d="m177.371 376.452h-5.3a6 6 0 1 0 0 12h5.3a51.313 51.313 0 0 0 .006-12z"/><path d="m90.69 402.649a6 6 0 0 0 -8.2-2.2l-4.6 2.657a51.99 51.99 0 0 0 6 10.39l4.6-2.655a6 6 0 0 0 2.2-8.192z"/><path d="m160.656 362.255a6 6 0 0 0 8.2 2.195l4.6-2.658a51.988 51.988 0 0 0 -6.01-10.386l-4.593 2.653a6 6 0 0 0 -2.197 8.196z"/><path d="m145.87 417.435a6 6 0 0 0 -2.2 8.195l2.656 4.6a51.933 51.933 0 0 0 10.39-6l-2.654-4.6a6 6 0 0 0 -8.192-2.195z"/><path d="m102.481 348.273a6 6 0 0 0 5.191-9l-2.656-4.6a51.241 51.241 0 0 0 -10.387 6.011l2.65 4.59a6 6 0 0 0 5.202 2.999z"/><path d="m105.476 417.434a6 6 0 0 0 -8.2 2.2l-2.654 4.6a51.969 51.969 0 0 0 10.391 6l2.656-4.6a6 6 0 0 0 -2.193-8.2z"/><path d="m145.87 347.468a6 6 0 0 0 8.2-2.195l2.652-4.592a51.046 51.046 0 0 0 -10.388-6.008l-2.656 4.6a6 6 0 0 0 2.192 8.195z"/><path d="m160.656 402.649a6 6 0 0 0 2.2 8.2l4.6 2.654a51.969 51.969 0 0 0 6-10.391l-4.6-2.655a6 6 0 0 0 -8.2 2.192z"/><path d="m85.488 365.255a6 6 0 0 0 3.006-11.2l-4.594-2.649a52.009 52.009 0 0 0 -6.012 10.385l4.6 2.659a5.973 5.973 0 0 0 3 .805z"/><path d="m399.561 422.846a6 6 0 0 0 -6 6v5.305a51.75 51.75 0 0 0 12 0v-5.305a6 6 0 0 0 -6-6z"/><path d="m399.561 342.057a6 6 0 0 0 6-6v-5.307a51.677 51.677 0 0 0 -12 0v5.308a6 6 0 0 0 6 5.999z"/><path d="m359.166 382.452a6 6 0 0 0 -6-6h-5.306a51.6 51.6 0 0 0 0 12h5.306a6 6 0 0 0 6-6z"/><path d="m451.26 376.452h-5.3a6 6 0 0 0 0 12h5.3a51.6 51.6 0 0 0 0-12z"/><path d="m364.578 402.649a6 6 0 0 0 -8.2-2.2l-4.6 2.655a51.229 51.229 0 0 0 6.006 10.39l4.594-2.653a6 6 0 0 0 2.2-8.192z"/><path d="m434.544 362.254a6 6 0 0 0 8.2 2.2l4.6-2.655a50.553 50.553 0 0 0 -6.019-10.38l-4.579 2.644a6 6 0 0 0 -2.202 8.191z"/><path d="m419.758 417.434a6 6 0 0 0 -2.2 8.2l2.659 4.606a51.907 51.907 0 0 0 10.387-6.009l-2.653-4.6a6 6 0 0 0 -8.193-2.197z"/><path d="m376.369 348.273a6 6 0 0 0 5.191-9l-2.658-4.6a50.74 50.74 0 0 0 -10.379 6.023l2.644 4.58a6 6 0 0 0 5.202 2.997z"/><path d="m379.363 417.434a6 6 0 0 0 -8.2 2.2l-2.654 4.6a51.907 51.907 0 0 0 10.387 6.009l2.66-4.607a6 6 0 0 0 -2.193-8.202z"/><path d="m419.758 347.469a6 6 0 0 0 8.2-2.2l2.644-4.581a50.051 50.051 0 0 0 -10.381-6.02l-2.656 4.6a6 6 0 0 0 2.193 8.201z"/><path d="m434.544 402.649a6 6 0 0 0 2.2 8.2l4.593 2.652a51.31 51.31 0 0 0 6.006-10.389l-4.6-2.655a6 6 0 0 0 -8.199 2.192z"/><path d="m359.377 365.255a6 6 0 0 0 3-11.2l-4.579-2.644a50.375 50.375 0 0 0 -6.02 10.38l4.6 2.655a5.967 5.967 0 0 0 2.999.809z"/></g></svg>