<svg id="Layer_1" height="512" viewBox="0 0 512 512" width="512" xmlns="http://www.w3.org/2000/svg" data-name="Layer 1"><path d="m33.452 167.253h-12v-11.182a15.306 15.306 0 0 1 15.288-15.288h47.98v12h-47.98a3.292 3.292 0 0 0 -3.288 3.288z" fill="#d4e1f4"/><path d="m242.67 140.19v139.27l20.61 57.62a48.53 48.53 0 0 1 39.84-20.76h70.72v-176.13z" fill="#9ac5a1"/><path d="m374.61 287.73h-.77v28.59h63.27a48.612 48.612 0 0 1 48.61 48.61h12v-77.2z" fill="#75967a"/><g fill="#6d7486"><path d="m421.8 346.56a42 42 0 1 1 -41.82 42 41.92 41.92 0 0 1 41.82-42z"/><path d="m315.3 346.56a42 42 0 1 1 -41.82 42 41.92 41.92 0 0 1 41.82-42z"/><path d="m134.66 346.56a42 42 0 1 1 -41.83 42 41.912 41.912 0 0 1 41.83-42z"/></g><path d="m133.14 76.24h21.96v41.03h-21.96z" fill="#9ac5a1"/><path d="m21.13 337.93a6.867 6.867 0 0 0 -6.85 6.85v39.03a6.867 6.867 0 0 0 6.85 6.85h48.16v-25.73a48.337 48.337 0 0 1 8.18-27z" fill="#758489"/><path d="m174.89 287.73v32.88a48.545 48.545 0 0 0 -20-4.29h-36.98a48.563 48.563 0 0 0 -40.43 21.61h-20.72a61.548 61.548 0 0 1 61.55-61.55h56.58z" fill="#9ac5a1"/><path d="m40.62 225.96v2.01a12.019 12.019 0 0 1 -7.03 10.91l-8.33 37.62v61.43h31.5a61.548 61.548 0 0 1 61.55-61.55h56.58v-50.42z" fill="#75967a"/><path d="m218.58 278.14a29.677 29.677 0 0 0 -22.94 11.72l-.06-.05v-164.7a16.883 16.883 0 0 0 -16.86-16.87h-23.62v-23h23.62a39.912 39.912 0 0 1 39.86 39.87z" fill="#75967a"/><path d="m114.38 140.19h60.51v85.77h-60.51z" fill="#76d5ff"/><path d="m114.38 140.19v85.77h-73.76v-16.41l9.78-42.6a34.457 34.457 0 0 1 33.6-26.76z" fill="#99e5ff"/><path d="m461.18 229.99 8.46 57.74h-66.32l8.46-57.74a24.959 24.959 0 0 1 49.4 0z" fill="#758489"/><path d="m260.67 158.19v111.54h20.61v28.59h74.56v-140.13z" fill="#bfdde0"/><path d="m174.89 287.73v32.88a48.625 48.625 0 0 1 28.61 44.32h51.01a48.3 48.3 0 0 1 8.77-27.85v-49.35z" fill="#75967a"/><path d="m219.32 268.12a29.75 29.75 0 1 1 -29.75 29.75 29.748 29.748 0 0 1 29.75-29.75z" fill="#9ac5a1"/><path d="m409.98 388.56a42.005 42.005 0 0 1 26.82-39.206 42 42 0 1 0 0 78.413 42 42 0 0 1 -26.82-39.207z" fill="#5c6477"/><path d="m303.48 388.56a42.005 42.005 0 0 1 26.82-39.206 42 42 0 1 0 0 78.413 42 42 0 0 1 -26.82-39.207z" fill="#5c6477"/><path d="m122.83 388.56a42.009 42.009 0 0 1 26.829-39.206 42 42 0 1 0 0 78.413 42 42 0 0 1 -26.829-39.207z" fill="#5c6477"/><path d="m421.8 367.81a20.756 20.756 0 1 1 -21 20.75 20.875 20.875 0 0 1 21-20.75z" fill="#828e93"/><path d="m315.3 367.81a20.756 20.756 0 1 1 -21 20.75 20.875 20.875 0 0 1 21-20.75z" fill="#828e93"/><path d="m134.66 367.81a20.756 20.756 0 1 1 -21 20.75 20.881 20.881 0 0 1 21-20.75z" fill="#828e93"/><path d="m290.67 269.73v-111.54h-30v111.54h20.61v28.59h30v-28.59z" fill="#e1feff"/><path d="m44.28 383.81v-39.03a6.867 6.867 0 0 1 6.85-6.85h-30a6.867 6.867 0 0 0 -6.85 6.85v39.03a6.867 6.867 0 0 0 6.85 6.85h30a6.867 6.867 0 0 1 -6.85-6.85z" fill="#a6b8bc"/><path d="m40.62 225.96v2.01a12.019 12.019 0 0 1 -7.03 10.91l-8.33 37.62v61.43h30v-49.239a82.046 82.046 0 0 1 3.545-23.855l11.815-38.876z" fill="#acc6af"/><path d="m84 140.19a34.457 34.457 0 0 0 -33.6 26.76l-9.78 42.6v16.41h30l9.78-59.01a34.457 34.457 0 0 1 33.6-26.76z" fill="#c7f3ff"/><path d="m335.808 214.118v-5.5a6 6 0 1 0 -12 0v5.5h-6v-5.5a6 6 0 1 0 -12 0v5.5h-6.067a6 6 0 0 0 0 12h6.067v5.5a6 6 0 1 0 12 0v-5.5h6v5.5a6 6 0 1 0 12 0v-5.5h20.031v-12z" fill="#82adad"/><path d="m485.719 396.663a6 6 0 0 1 -6-6v-25.732a42.662 42.662 0 0 0 -42.613-42.612h-133.984a42.66 42.66 0 0 0 -42.611 42.612v25.732a6 6 0 0 1 -12 0v-25.732a54.674 54.674 0 0 1 54.611-54.612h133.984a54.674 54.674 0 0 1 54.613 54.612v25.732a6 6 0 0 1 -6 6z" fill="#648468"/><path d="m203.5 396.663a6 6 0 0 1 -6-6v-25.732a42.661 42.661 0 0 0 -42.612-42.612h-36.98a42.66 42.66 0 0 0 -42.611 42.612v25.732a6 6 0 0 1 -12 0v-25.732a54.673 54.673 0 0 1 54.611-54.612h36.98a54.673 54.673 0 0 1 54.612 54.612v25.732a6 6 0 0 1 -6 6z" fill="#648468"/><path d="m28.62 160.16h-2.34a12.035 12.035 0 0 0 -12 12v55.81a12.035 12.035 0 0 0 12 12h2.34a11.84 11.84 0 0 0 4.97-1.09 12.019 12.019 0 0 0 7.03-10.91v-55.81a12.035 12.035 0 0 0 -12-12z" fill="#9ac5a1"/><circle cx="436.48" cy="231.62" fill="#ccc" r="7"/></svg>