<svg id="Layer_1" height="512" viewBox="0 0 512 512" width="512" xmlns="http://www.w3.org/2000/svg" data-name="Layer 1"><path d="m82.09 123.7h23.98v31.14h-23.98z" fill="#68876c"/><path d="m275.19 294.54-11.62 28.11h-60.79l-41.1-28.11z" fill="#d2c976"/><path d="m263.57 322.65-7.84 18.95h-79.7l26.75-18.95z" fill="#c5b65d"/><path d="m365.82 201.9v84.55h-87.28v-63.6h-75-.43v-20.95h.2 49.85 52.97 16.43z" fill="#75967a"/><path d="m500.31 294.54v43.49h-22.78l-.62.19-13.33-43.68h.01z" fill="#8a6243"/><path d="m476.91 338.22-13.33-43.68-.34-1.11a9.832 9.832 0 0 0 -9.41-6.98h-175.29l-22.81 55.15 24.72 8.41h180.15l17.34-8.41z" fill="#a38056"/><path d="m202.78 322.65-26.75 18.95-14.35-47.06z" fill="#8a6243"/><path d="m161.68 294.54-2.47-8.09h-67.14a20 20 0 0 0 -19.13 14.17l-9.93 32.55-2.57 8.43 19.27 8.41h76.59l19.73-8.41z" fill="#a38056"/><path d="m43.42 298.75-.34 34.42h-31.39l10.79-34.42h.11z" fill="#a38056"/><path d="m43.42 285.76v12.99h-20.83v-60.26a20.959 20.959 0 0 1 20.83-20.96z" fill="#68876c"/><path d="m469.96 208.88-.03-.04-43.11-47.46h-270.25l-25.9 27.94-28.3 5.33-.35-.04-58.6 11.15-.34 127.41h19.93l9.93-32.55a20 20 0 0 1 19.13-14.17h67.14l2.47 8.09h113.51l3.35-8.09v-63.6h-75.43v-20.95h187.42v84.55h63.3a9.832 9.832 0 0 1 9.41 6.98l.34 1.11h36.73v-61.66z" fill="#9ac5a1"/><path d="m108.1 252.29h51.11v34.16h-51.11z" fill="#75967a"/><path d="m390.53 286.45v13.77h-24.71v-13.77-84.55h9.71 15z" fill="#68876c"/><path d="m422.31 315.93a34.08 34.08 0 1 1 -34.08 34.08 34.082 34.082 0 0 1 34.08-34.08z" fill="#6d7486"/><path d="m366.82 350.01a34.08 34.08 0 1 1 -34.08-34.08 34.082 34.082 0 0 1 34.08 34.08z" fill="#6d7486"/><path d="m118.01 315.93a34.08 34.08 0 1 1 -34.08 34.08 34.082 34.082 0 0 1 34.08-34.08z" fill="#6d7486"/><g fill="#6addc7"><path d="m253.16 145.32h52.97v16.06h-52.97z"/><path d="m322.56 145.32h52.97v16.06h-52.97z"/><path d="m444.06 146.35-.28-1.03h-48.73v16.06h30.77l18.25-14.99z"/><path d="m420.82 179.32h-26.29v22.58l34.55-.34z"/><path d="m322.56 179.32h52.971v22.58h-52.971z"/><path d="m253.16 179.32h52.97v22.58h-52.97z"/></g><path d="m115.71 208.61.35.04 28.3-5.33 25.901-27.94h269.276l-12.717-14h-270.25l-25.9 27.94-28.3 5.33-.35-.04-58.6 11.15-.34 127.41h13.728l.302-113.41z" fill="#c3e5c6"/><path d="m85.37 154.84v31.91a26.914 26.914 0 0 1 -12.31 22.61l-29.64 19.16v57.24l49.26-67.41a49.452 49.452 0 0 0 3.57-5.63 50.129 50.129 0 0 0 5.77-18.11 51.183 51.183 0 0 0 .35-5.94v-33.83z" fill="#75967a"/><path d="m203.11 222.85v4.19h-37.63l-26.26-20.87 25.26-24.82h38.63v20.55z" fill="#68876c"/><path d="m322.66 350.01a34.091 34.091 0 0 1 22.08-31.9 34.08 34.08 0 1 0 0 63.8 34.09 34.09 0 0 1 -22.08-31.9z" fill="#596070"/><path d="m107.93 350.01a34.091 34.091 0 0 1 22.08-31.9 34.08 34.08 0 1 0 0 63.8 34.09 34.09 0 0 1 -22.08-31.9z" fill="#596070"/><path d="m412.23 350.01a34.091 34.091 0 0 1 22.08-31.9 34.08 34.08 0 1 0 0 63.8 34.09 34.09 0 0 1 -22.08-31.9z" fill="#596070"/><circle cx="422.31" cy="350.01" fill="#ccd3df" r="13"/><circle cx="332.74" cy="350.01" fill="#ccd3df" r="13"/><circle cx="118.01" cy="350.01" fill="#ccd3df" r="13"/><path d="m466.975 350.011a6 6 0 0 0 -3.611-5.5 5.993 5.993 0 0 0 -2.924-10.293 5.989 5.989 0 0 0 -5.4-9.329 5.963 5.963 0 0 0 -7.6-7.6 5.99 5.99 0 0 0 -9.33-5.4 5.991 5.991 0 0 0 -10.408-2.789 5.99 5.99 0 0 0 -10.775 0 5.99 5.99 0 0 0 -10.407 2.788 5.99 5.99 0 0 0 -9.331 5.4 5.963 5.963 0 0 0 -7.6 7.6 5.99 5.99 0 0 0 -5.4 9.33 5.989 5.989 0 0 0 -2.789 10.408 5.99 5.99 0 0 0 0 10.775 5.986 5.986 0 0 0 2.791 10.4 6 6 0 0 0 4.973 9.356c.143 0 .286-.018.43-.028a5.945 5.945 0 0 0 7.6 7.608 5.981 5.981 0 0 0 9.329 5.4 5.979 5.979 0 0 0 10.4 2.785 5.989 5.989 0 0 0 10.783 0 5.982 5.982 0 0 0 10.4-2.785 5.986 5.986 0 0 0 9.33-5.4 5.962 5.962 0 0 0 7.6-7.608c.144.01.287.028.43.028a6 6 0 0 0 4.974-9.356 5.99 5.99 0 0 0 2.925-10.29 6 6 0 0 0 3.61-5.5zm-44.667 28.079a28.079 28.079 0 1 1 28.079-28.079 28.112 28.112 0 0 1 -28.079 28.079z" fill="#393e49"/><path d="m377.037 350.011a6 6 0 0 0 -3.372-5.388 5.991 5.991 0 0 0 -2.787-10.409 5.99 5.99 0 0 0 -5.4-9.328 5.963 5.963 0 0 0 -7.6-7.6 5.99 5.99 0 0 0 -9.33-5.4 5.991 5.991 0 0 0 -10.408-2.789 5.99 5.99 0 0 0 -10.775 0 5.99 5.99 0 0 0 -10.408 2.787 5.99 5.99 0 0 0 -9.33 5.4 5.963 5.963 0 0 0 -7.6 7.6 5.989 5.989 0 0 0 -5.4 9.329 5.991 5.991 0 0 0 -2.727 10.487 6 6 0 0 0 0 10.631 5.987 5.987 0 0 0 2.708 10.476 6 6 0 0 0 4.973 9.357c.143 0 .287-.018.431-.028a5.945 5.945 0 0 0 7.6 7.608 5.982 5.982 0 0 0 9.329 5.4 5.979 5.979 0 0 0 10.4 2.784 5.99 5.99 0 0 0 10.784 0 5.983 5.983 0 0 0 10.4-2.785 5.985 5.985 0 0 0 9.328-5.4 5.963 5.963 0 0 0 7.6-7.609c.143.01.287.028.43.028a6 6 0 0 0 4.973-9.357 5.986 5.986 0 0 0 2.791-10.4 5.994 5.994 0 0 0 3.39-5.394zm-44.293 28.079a28.112 28.112 0 0 1 -28.044-26.812 5.5 5.5 0 0 0 0-2.535 28.077 28.077 0 1 1 28.047 29.347z" fill="#393e49"/><path d="m158.758 355.252a6 6 0 0 0 0-10.482 5.993 5.993 0 0 0 -2.618-10.555 5.989 5.989 0 0 0 -5.4-9.329 5.963 5.963 0 0 0 -7.6-7.6 5.99 5.99 0 0 0 -9.329-5.4 5.991 5.991 0 0 0 -10.408-2.788 5.991 5.991 0 0 0 -10.776 0 5.99 5.99 0 0 0 -10.407 2.788 5.99 5.99 0 0 0 -9.331 5.4 5.963 5.963 0 0 0 -7.6 7.6 5.99 5.99 0 0 0 -5.4 9.33 5.992 5.992 0 0 0 -2.681 10.5 6 6 0 0 0 0 10.587 5.988 5.988 0 0 0 2.683 10.5 6 6 0 0 0 4.974 9.356c.142 0 .286-.018.429-.028a5.945 5.945 0 0 0 7.6 7.608 5.981 5.981 0 0 0 9.329 5.4 5.98 5.98 0 0 0 10.405 2.786 5.989 5.989 0 0 0 10.783 0 5.982 5.982 0 0 0 10.405-2.785 5.985 5.985 0 0 0 9.329-5.4 5.962 5.962 0 0 0 7.6-7.609c.144.01.288.028.431.028a6 6 0 0 0 4.973-9.357 5.989 5.989 0 0 0 2.621-10.55zm-40.751 22.838a28.113 28.113 0 0 1 -28.039-26.6 5.355 5.355 0 0 0 0-2.963 28.075 28.075 0 0 1 56.044-.461 5.865 5.865 0 0 0 0 3.885 28.112 28.112 0 0 1 -28.005 26.139z" fill="#393e49"/><path d="m452.9 145.24a34 34 0 1 1 -8.83 1.15 34.067 34.067 0 0 1 8.83-1.15z" fill="#6d7486"/><path d="m451.08 201.56a34.076 34.076 0 0 1 13.808-54.146 34.082 34.082 0 1 0 0 63.788 34.169 34.169 0 0 1 -13.808-9.642z" fill="#596070"/><circle cx="452.9" cy="179.32" fill="#ccd3df" r="13"/><path d="m493.816 184.7a5.989 5.989 0 0 0 0-10.775 5.99 5.99 0 0 0 -2.788-10.409 5.989 5.989 0 0 0 -5.4-9.329 5.963 5.963 0 0 0 -7.6-7.6 5.99 5.99 0 0 0 -9.33-5.4 5.99 5.99 0 0 0 -10.409-2.788 5.974 5.974 0 0 0 -10.762.013 5.99 5.99 0 0 0 -10.42 2.775 5.99 5.99 0 0 0 -9.33 5.4 5.963 5.963 0 0 0 -7.6 7.6 5.99 5.99 0 0 0 -5.4 9.33 5.989 5.989 0 0 0 -2.788 10.408 5.99 5.99 0 0 0 0 10.775 5.985 5.985 0 0 0 2.79 10.4 6 6 0 0 0 4.973 9.356c.144 0 .287-.017.431-.027a5.945 5.945 0 0 0 7.6 7.608 5.981 5.981 0 0 0 9.329 5.4 5.979 5.979 0 0 0 10.4 2.786 5.989 5.989 0 0 0 10.783 0 5.982 5.982 0 0 0 10.406-2.784 5.985 5.985 0 0 0 9.329-5.4 5.913 5.913 0 0 0 1.952.348 5.977 5.977 0 0 0 5.649-7.957c.144.01.287.027.431.027a5.995 5.995 0 0 0 4.972-9.356 5.985 5.985 0 0 0 2.791-10.4zm-40.916 22.694a28.079 28.079 0 1 1 28.079-28.079 28.111 28.111 0 0 1 -28.079 28.079z" fill="#393e49"/></svg>