<svg id="Layer_1" height="512" viewBox="0 0 512 512" width="512" xmlns="http://www.w3.org/2000/svg" data-name="Layer 1"><path d="m158.168 264.819a6 6 0 0 1 -6-6v-116.536a26.357 26.357 0 0 0 -8.133-18.99l-9.828-9.371a6 6 0 1 1 8.281-8.684l9.828 9.371a38.4 38.4 0 0 1 11.852 27.674v116.536a6 6 0 0 1 -6 6z" fill="#d4e1f4"/><path d="m468.28 171.42h-294.64l17.11-17.11a44.023 44.023 0 0 1 31.12-12.89h194.47a44.022 44.022 0 0 1 28.18 10.2z" fill="#7ccdb4"/><path d="m173.64 171.42h294.641v142.23h-294.641z" fill="#57b284"/><path d="m11.35 289.16v41.17a9.984 9.984 0 0 0 9.98 9.99h28.82v-51.16z" fill="#fb6771"/><path d="m137.16 208.25.13-52.31a9.451 9.451 0 0 0 -9.46-9.48h-61.81a18.8 18.8 0 0 0 -16.81 10.37c-1.7 3.39-3.7 7.45-5.85 11.94l-21.39 52.95-.52-.16c-1.93 6.36-3.1 11.88-3.1 15.91v51.69h31.8a40.521 40.521 0 0 1 7.68-15.67c6.16-7.83 16.99-15.67 35.61-15.67h50.54l.15-40.01z" fill="#8397c9"/><path d="m93.44 257.82c-18.62 0-29.45 7.84-35.61 15.67a40.521 40.521 0 0 0 -7.68 15.67v51.16l8.49-22.77c11.44-23.92 25.59-33.15 52.11-33.15h33.23v-26.58z" fill="#8aa5db"/><path d="m143.98 284.4h-33.23c-26.52 0-40.67 9.23-52.11 33.15l-8.49 22.77 6.13 11.23h126.42z" fill="#8397c9"/><path d="m143.98 257.82v26.58l16.93 29.37.21-.12h12.52v-55.83z" fill="#6d7486"/><path d="m421.51 291.05h-198.76l-18.74 22.6h-42.89l-.21.12 21.79 37.78h261.16v-37.9z" fill="#b0b5ca"/><path d="m468.28 313.65v26.67l-24.42 11.23v-37.9z" fill="#fb6771"/><path d="m115.66 180.1v29.93h-50.55l-14.69 11.69h-28.45l-.52-.16c4.8-15.9 14.31-37 21.9-52.79h60.98a11.327 11.327 0 0 1 11.33 11.33z" fill="#60d7ea"/><path d="m136.35 318.45a45.515 45.515 0 0 1 22.34 33.16 46.277 46.277 0 0 1 .43 6.27 45.54 45.54 0 1 1 -91.08 0 46.277 46.277 0 0 1 .43-6.27 45.078 45.078 0 0 1 5.67-16.49 45.544 45.544 0 0 1 62.21-16.67z" fill="#6d7486"/><path d="m311.47 357.86a45.577 45.577 0 1 1 -.44-6.31 45.3 45.3 0 0 1 .44 6.31z" fill="#6d7486"/><path d="m424.98 357.75a45.535 45.535 0 1 1 -90.65-6.2 45.056 45.056 0 0 1 5.68-16.57 45.528 45.528 0 0 1 84.97 22.77z" fill="#6d7486"/><path d="m213.6 200.85h42.82v27.96h-42.82z" fill="#3b885c"/><path d="m379.57 200.85h42.82v27.96h-42.82z" fill="#3b885c"/><path d="m296.58 200.85h42.83v27.96h-42.83z" fill="#3b885c"/><path d="m490.82 204.1h-12.72a9.852 9.852 0 0 0 -9.82 9.83v71.4a9.85 9.85 0 0 0 9.82 9.82h12.72a9.852 9.852 0 0 0 9.83-9.82v-71.4a9.854 9.854 0 0 0 -9.83-9.83z" fill="#6d7486"/><path d="m104.14 380.65a45.273 45.273 0 0 1 -6.1-22.77 46.277 46.277 0 0 1 .43-6.27 45.078 45.078 0 0 1 5.67-16.49 45.571 45.571 0 0 1 24.44-20.232 45.553 45.553 0 0 0 -60.11 36.722 46.277 46.277 0 0 0 -.43 6.27 45.55 45.55 0 0 0 60.54 43 45.585 45.585 0 0 1 -24.44-20.233z" fill="#596070"/><path d="m256.5 380.63a45.548 45.548 0 0 1 24.433-65.772 45.541 45.541 0 1 0 0 86 45.577 45.577 0 0 1 -24.433-20.228z" fill="#596070"/><path d="m370.01 380.52a45.551 45.551 0 0 1 24.44-65.772 45.536 45.536 0 1 0 -.02 86 45.644 45.644 0 0 1 -24.42-20.228z" fill="#596070"/><path d="m113.58 336.35a21.535 21.535 0 1 1 -21.53 21.53 21.531 21.531 0 0 1 21.53-21.53z" fill="#959dad"/><circle cx="265.93" cy="357.86" fill="#959dad" r="21.53"/><circle cx="379.45" cy="357.75" fill="#959dad" r="21.53"/><path d="m203.64 171.42 17.11-17.11a44.023 44.023 0 0 1 31.12-12.89h-30a44.023 44.023 0 0 0 -31.12 12.89l-17.11 17.11z" fill="#9aedd1"/><path d="m173.64 171.42v142.23h30v-142.23z" fill="#7ccdb4"/><path d="m41.35 330.33v-41.17h-30v41.17a9.984 9.984 0 0 0 9.98 9.99h28.82v-.076a9.983 9.983 0 0 1 -8.8-9.914z" fill="#ffb0b8"/><path d="m73.36 168.77c2.15-4.49 4.15-8.55 5.85-11.94a18.8 18.8 0 0 1 16.81-10.37h-30a18.8 18.8 0 0 0 -16.81 10.37c-1.7 3.39-3.7 7.45-5.85 11.94z" fill="#a7bdea"/><path d="m48.35 289.16v-51.69c0-4.03 1.17-9.55 3.1-15.91.087-.287.186-.588.276-.879l-1.306 1.039h-28.45l-.3-.092-.223-.068c-1.93 6.36-3.1 11.88-3.1 15.91v51.69h30z" fill="#a7bdea"/><path d="m21.97 221.72h28.45l1.306-1.039c4.874-15.794 14.174-36.406 21.624-51.911h-30c-7.59 15.79-17.1 36.89-21.9 52.79l.223.068z" fill="#9cf6ff"/><g fill="#545b68"><path d="m491.556 216.446a6 6 0 0 0 0 12h9.092v-12z"/><path d="m485.556 240.907a6 6 0 0 0 6 6h9.092v-12h-9.092a6 6 0 0 0 -6 6z"/><path d="m485.556 259.369a6 6 0 0 0 6 6h9.092v-12h-9.092a6 6 0 0 0 -6 6z"/><path d="m485.556 277.83a6 6 0 0 0 6 6h9.092v-12h-9.092a6 6 0 0 0 -6 6z"/><path d="m483.368 222.446a6 6 0 0 0 -6-6h-9.093v12h9.093a6 6 0 0 0 6-6z"/><path d="m477.368 234.907h-9.093v12h9.093a6 6 0 0 0 0-12z"/><path d="m477.368 253.369h-9.093v12h9.093a6 6 0 0 0 0-12z"/><path d="m477.368 271.83h-9.093v12h9.093a6 6 0 0 0 0-12z"/></g></svg>