<svg id="Layer_1" height="512" viewBox="0 0 512 512" width="512" xmlns="http://www.w3.org/2000/svg" data-name="Layer 1"><path d="m252.4 71.45h-190.23a22.3 22.3 0 0 1 22.3-22.3h145.63a22.3 22.3 0 0 1 22.3 22.3z" fill="#b0b5ca"/><path d="m62.17 71.45h190.23v21.73h-190.23z" fill="#6d7486"/><path d="m268.95 256.2a13.665 13.665 0 1 1 0 27.33h-76.79l-32.86-52.54h-19.34v-26.16a9.585 9.585 0 0 1 9.59-9.59h13.1a15.982 15.982 0 0 1 13.55 7.51l33.46 53.45z" fill="#6d7486"/><path d="m192.16 283.53-32.86-52.54h-19.34-77.79v48.5l-23 25.49v91.1h204.5v-112.55z" fill="#f9d438"/><path d="m243.67 283.53v112.55h7.75a12.374 12.374 0 0 0 12.38-12.37v-100.18z" fill="#edb740"/><path d="m462.26 257.02v24.95h-153.36v-59.62l11.91-16.43 11.05-15.24h64.05a66.34 66.34 0 0 1 66.35 66.34z" fill="#edb740"/><path d="m462.26 281.97h-153.36v100.67a13.3 13.3 0 0 0 13.3 13.29h170.22l1.14-80.39z" fill="#f9d438"/><path d="m76.74 93.18h24.44v137.81h-24.44z" fill="#d4e1f4"/><path d="m226.22 396.08v.22a66.921 66.921 0 0 1 -133.84-.22v-.51a66.921 66.921 0 0 1 133.84.51z" fill="#6d7486"/><path d="m159.72 369.17a26.767 26.767 0 1 1 -27.18 26.45 26.8 26.8 0 0 1 27.18-26.45z" fill="#edb740"/><path d="m263.8 357.38h45.1v22.06h-45.1z" fill="#b0b5ca"/><path d="m263.8 336.54h45.1v20.84h-45.1z" fill="#ccd3df"/><path d="m39.17 358.69v20.96h-10.24a10.48 10.48 0 1 1 0-20.96z" fill="#fb6771"/><path d="m122.38 396.08v-.51a66.834 66.834 0 0 1 52.045-64.851 67.007 67.007 0 0 0 -82.045 64.851v.51a66.8 66.8 0 0 0 81.809 65.063 67.038 67.038 0 0 1 -51.809-65.063z" fill="#596070"/><path d="m92.17 71.45a22.3 22.3 0 0 1 22.3-22.3h-30a22.3 22.3 0 0 0 -22.3 22.3z" fill="#ccd3df"/><path d="m62.17 71.45v21.73h30v-21.73z" fill="#b0b5ca"/><path d="m92.17 279.49v-48.5h-30v48.5l-23 25.49v91.1h30v-91.1z" fill="#ffe98d"/><path d="m338.9 281.97v-59.62l11.91-16.43 11.05-15.24h-30l-11.05 15.24-11.91 16.43v59.62z" fill="#ffd98d"/><path d="m338.9 382.64v-100.67h-30v100.67a13.3 13.3 0 0 0 13.3 13.29h30a13.3 13.3 0 0 1 -13.3-13.29z" fill="#ffe98d"/><path d="m467.36 395.93v.37a66.921 66.921 0 0 1 -133.84-.37v-.36a66.92 66.92 0 0 1 133.84.36z" fill="#6d7486"/><path d="m400.86 369.17a26.767 26.767 0 1 1 -27.18 26.45 26.8 26.8 0 0 1 27.18-26.45z" fill="#edb740"/><path d="m363.52 395.93v-.36a66.835 66.835 0 0 1 52.045-64.851 67.007 67.007 0 0 0 -82.045 64.851v.36a66.8 66.8 0 0 0 81.809 65.213 67.037 67.037 0 0 1 -51.809-65.213z" fill="#596070"/><path d="m324.389 201.107-18.932-14.075 11.007-14a6 6 0 1 0 -9.434-7.416l-29.13 37.053a6 6 0 1 0 9.434 7.416l10.7-13.615 19.19 14.267z" fill="#d4e1f4"/><path d="m127.247 260.289h-39.506a6 6 0 1 1 0-12h39.506a6 6 0 1 1 0 12z" fill="#d6b630"/><path d="m379.023 258.289h-39.5a6 6 0 0 1 0-12h39.5a6 6 0 0 1 0 12z" fill="#f4f8fc"/><path d="m127.247 280.289h-39.506a6 6 0 1 1 0-12h39.506a6 6 0 1 1 0 12z" fill="#d6b630"/></svg>