<svg id="Layer_1" height="512" viewBox="0 0 512 512" width="512" xmlns="http://www.w3.org/2000/svg" data-name="Layer 1"><path d="m455.09 316.92h-213.76l-73.77-6.65h-53.23c-26.52 0-40.67 9.23-52.11 33.15l-8.49 17.76 8.16 22.51h424.94z" fill="#ccd3df"/><path d="m53.73 315.02v46.16h-28.82a9.982 9.982 0 0 1 -9.98-9.98v-26.19a9.984 9.984 0 0 1 9.98-9.99z" fill="#fb6771"/><path d="m167.56 283.69v26.58h-53.23c-26.52 0-40.67 9.23-52.11 33.15l-8.49 17.76v-46.16a40.517 40.517 0 0 1 7.68-15.66c6.16-7.84 16.99-15.67 35.61-15.67z" fill="#b0b5ca"/><path d="m231.97 199.96-15.65 7.71 12.18 29.4.04-.02 16.88-7.62z" fill="#6d7486"/><path d="m213.12 199.96-.02-.01-9.94 11.54v23.35a20.777 20.777 0 0 1 -20.56 20.78v28.07h65.01v-.52z" fill="#b0b5ca"/><path d="m165.9 190.73a18.7 18.7 0 0 0 -18.7-18.4h-77.6a18.8 18.8 0 0 0 -16.81 10.37c-1.7 3.39-3.7 7.45-5.85 11.94l-23.39 58.94-.19-.05a44.165 44.165 0 0 0 -1.43 9.81v51.68h31.8a40.517 40.517 0 0 1 7.68-15.66c6.16-7.84 16.99-15.67 35.61-15.67h70.54z" fill="#ffb666"/><path d="m196.84 179.24a16.745 16.745 0 1 1 -16.74 16.74 16.74 16.74 0 0 1 16.74-16.74z" fill="#6d7486"/><path d="m138.24 200.85v32.84a6.21 6.21 0 0 1 -6.21 6.21h-28.7v-45.26h28.7a6.21 6.21 0 0 1 6.21 6.21z" fill="#57c0c2"/><path d="m103.33 194.64v45.26h-23.64l-19.69 13.68h-36.45l-.19-.05c3.89-16.25 14.96-40.99 23.57-58.89z" fill="#80d3d0"/><path d="m122.16 338.22a45.535 45.535 0 1 1 -45.54 45.53 45.524 45.524 0 0 1 45.54-45.53z" fill="#777f91"/><path d="m288.51 338.19a45.535 45.535 0 1 1 -45.53 45.54 45.541 45.541 0 0 1 45.53-45.54z" fill="#777f91"/><path d="m411.03 338.08a45.535 45.535 0 1 1 -45.54 45.54 45.539 45.539 0 0 1 45.54-45.54z" fill="#777f91"/><path d="m461.14 283.69h-293.58v26.58l25.32 50.67h30.34l18.11-44.02h213.76l20.94 44.05.06-.03h20.98z" fill="#d4e1f4"/><path d="m435.35 138.4-31.34 56.24v89.05h28.35v-.71-92.76l49.61-17.89v-57.99z" fill="#b0b5ca"/><path d="m491.16 235.09a11.526 11.526 0 0 1 -8.95 12.94l-9.03 1.98a11.54 11.54 0 0 1 -13.73-8.79l-12.38-56.31 34.9-12.58z" fill="#6d7486"/><path d="m446.3 95.18a13.084 13.084 0 0 0 -17.33-6.49l-23.84 10.85 23.36 51.16 6.86-12.3 24.79-12.8z" fill="#6d7486"/><path d="m420 165.94-15.99 28.7v25.28a47.136 47.136 0 0 1 -5.93 3.22l-76.13 34.82c-.52.24-1.05.47-1.57.68a46.628 46.628 0 0 1 -17.63 3.39l-26.52.12a21.093 21.093 0 0 1 -21.44-12.21l-4.17-9.12 41.86-11.39a109.674 109.674 0 0 0 13.55-5.14l77.04-35.22a111.079 111.079 0 0 0 12.75-6.88z" fill="#36b3ea"/><path d="m420.04 132.19-181.2 82.83 11.78 25.8 41.86-11.39a109.674 109.674 0 0 0 13.55-5.14l77.04-35.22a111.079 111.079 0 0 0 12.75-6.88l24.18-16.25 8.49-15.24z" fill="#49bdff"/><path d="m407.8 105.38-41.17 11.18a119.871 119.871 0 0 0 -14.89 5.64l-75.73 34.63a118.809 118.809 0 0 0 -14.01 7.56l-35.4 23.81 12.24 26.82 181.2-82.83z" fill="#36b3ea"/><path d="m407.8 105.38-41.17 11.18a119.871 119.871 0 0 0 -14.89 5.64l-75.73 34.63a118.809 118.809 0 0 0 -14.01 7.56l-35.4 23.81-4.65-10.17a21.109 21.109 0 0 1 4.81-24.2l20.78-23.71a44.361 44.361 0 0 1 11.8-7.88l77.17-35.29a44.294 44.294 0 0 1 13.69-3.75l33.11-.38a18.86 18.86 0 0 1 19.17 10.92l2.65 5.8z" fill="#49bdff"/><path d="m106.62 383.75a45.537 45.537 0 0 1 30.539-42.99 45.536 45.536 0 1 0 0 85.989 45.552 45.552 0 0 1 -30.539-42.999z" fill="#575f72"/><path d="m272.98 383.73a45.547 45.547 0 0 1 30.531-43 45.535 45.535 0 1 0 0 85.989 45.532 45.532 0 0 1 -30.531-42.989z" fill="#575f72"/><path d="m395.49 383.62a45.55 45.55 0 0 1 30.538-43 45.535 45.535 0 1 0 0 85.987 45.536 45.536 0 0 1 -30.538-42.987z" fill="#575f72"/><circle cx="122.16" cy="383.75" fill="#9090ba" r="21.53"/><circle cx="288.51" cy="383.73" fill="#9090ba" r="21.53"/><circle cx="411.03" cy="383.62" fill="#9090ba" r="21.53"/><path d="m44.93 351.2v-26.19a9.983 9.983 0 0 1 8.8-9.914v-.076h-28.82a9.984 9.984 0 0 0 -9.98 9.99v26.19a9.982 9.982 0 0 0 9.98 9.98h28.82v-.08a9.98 9.98 0 0 1 -8.8-9.9z" fill="#ffa1af"/><path d="m51.93 263.34a44.073 44.073 0 0 1 1.418-9.76h-29.798l-.19-.05a44.165 44.165 0 0 0 -1.43 9.81v51.68h30z" fill="#ffd7b0"/><path d="m76.93 194.64h.01c2.15-4.49 4.15-8.55 5.85-11.94a18.8 18.8 0 0 1 16.81-10.37h-30a18.8 18.8 0 0 0 -16.81 10.37c-1.7 3.39-3.7 7.45-5.85 11.94z" fill="#ffd7b0"/><path d="m53.36 253.53.19.05-.19-.05c3.89-16.25 14.96-40.99 23.57-58.89h-30c-8.61 17.9-19.68 42.64-23.57 58.89l.19.05h29.8z" fill="#a4fff8"/><path d="m234.76 170.83 20.78-23.71a44.361 44.361 0 0 1 11.8-7.88l77.17-35.29a44.294 44.294 0 0 1 13.69-3.75l33.11-.38a18.872 18.872 0 0 1 15.69 5.78l.8-.217-2.67-5.84-2.65-5.8a18.86 18.86 0 0 0 -19.17-10.92l-33.11.38a44.294 44.294 0 0 0 -13.69 3.75l-77.17 35.29a44.361 44.361 0 0 0 -11.8 7.88l-20.78 23.71a21.109 21.109 0 0 0 -4.81 24.2l4.65 10.17 1.473-.991a21.1 21.1 0 0 1 6.687-16.382z" fill="#a1e2ff"/><g fill="#485060"><path d="m122.159 418.34a6 6 0 0 0 -6 6v4.544a44.538 44.538 0 0 0 12 0v-4.544a6 6 0 0 0 -6-6z"/><path d="m122.159 349.164a6 6 0 0 0 6-6v-4.538a44.538 44.538 0 0 0 -12 0v4.538a6 6 0 0 0 6 6z"/><path d="m87.571 383.752a6 6 0 0 0 -6-6h-4.545a44.538 44.538 0 0 0 0 12h4.545a6 6 0 0 0 6-6z"/><path d="m92.2 401.045a6 6 0 0 0 -8.2-2.195l-3.946 2.278a45.44 45.44 0 0 0 6.011 10.385l3.935-2.272a6 6 0 0 0 2.2-8.196z"/><path d="m152.113 366.458a6 6 0 0 0 8.2 2.2l3.943-2.276a45.49 45.49 0 0 0 -6.011-10.387l-3.932 2.27a6 6 0 0 0 -2.2 8.193z"/><path d="m139.453 413.706a6 6 0 0 0 -2.2 8.2l2.279 3.947a45.447 45.447 0 0 0 10.385-6.013l-2.271-3.934a6 6 0 0 0 -8.193-2.2z"/><path d="m101.87 354.6a6 6 0 0 0 5.19-9l-2.275-3.942a45.45 45.45 0 0 0 -10.387 6.01l2.271 3.933a6 6 0 0 0 5.201 2.999z"/><path d="m104.865 413.706a6 6 0 0 0 -8.2 2.195l-2.265 3.935a45.472 45.472 0 0 0 10.386 6.012l2.278-3.946a6 6 0 0 0 -2.199-8.196z"/><path d="m139.453 353.8a6 6 0 0 0 8.2-2.2l2.27-3.932a45.428 45.428 0 0 0 -10.387-6.01l-2.276 3.942a6 6 0 0 0 2.193 8.2z"/><path d="m152.113 401.045a6 6 0 0 0 2.2 8.2l3.932 2.271a45.471 45.471 0 0 0 6.01-10.387l-3.941-2.275a6 6 0 0 0 -8.201 2.191z"/><path d="m87 369.458a6 6 0 0 0 3-11.2l-3.934-2.271a45.447 45.447 0 0 0 -6.013 10.385l3.947 2.279a5.979 5.979 0 0 0 3 .807z"/><path d="m288.513 418.316a6 6 0 0 0 -6 6v4.539a44.592 44.592 0 0 0 12 0v-4.538a6 6 0 0 0 -6-6.001z"/><path d="m288.513 349.14a6 6 0 0 0 6-6v-4.54a44.538 44.538 0 0 0 -12 0v4.544a6 6 0 0 0 6 5.996z"/><path d="m253.925 383.728a6 6 0 0 0 -6-6h-4.539a44.538 44.538 0 0 0 0 12h4.539a6 6 0 0 0 6-6z"/><path d="m333.644 377.728h-4.544a6 6 0 0 0 0 12h4.543a44.538 44.538 0 0 0 0-12z"/><path d="m258.559 401.022a6 6 0 0 0 -8.2-2.2l-3.943 2.276a45.428 45.428 0 0 0 6.01 10.387l3.933-2.271a6 6 0 0 0 2.2-8.192z"/><path d="m318.467 366.434a6 6 0 0 0 8.2 2.2l3.945-2.278a45.407 45.407 0 0 0 -6.012-10.385l-3.933 2.27a6 6 0 0 0 -2.2 8.193z"/><path d="m305.807 413.682a6 6 0 0 0 -2.2 8.2l2.276 3.942a45.443 45.443 0 0 0 10.386-6.01l-2.269-3.936a6 6 0 0 0 -8.193-2.196z"/><path d="m268.224 354.579a6 6 0 0 0 5.191-9l-2.279-3.947a45.444 45.444 0 0 0 -10.385 6.012l2.272 3.935a6 6 0 0 0 5.201 3z"/><path d="m271.219 413.682a6 6 0 0 0 -8.2 2.2l-2.271 3.933a45.432 45.432 0 0 0 10.387 6.011l2.276-3.944a6 6 0 0 0 -2.192-8.2z"/><path d="m305.807 353.774a6 6 0 0 0 8.2-2.2l2.271-3.934a45.48 45.48 0 0 0 -10.385-6.012l-2.278 3.946a6 6 0 0 0 2.192 8.2z"/><path d="m318.467 401.022a6 6 0 0 0 2.2 8.2l3.934 2.271a45.444 45.444 0 0 0 6.012-10.385l-3.946-2.278a6 6 0 0 0 -8.2 2.192z"/><path d="m253.357 369.435a6 6 0 0 0 3.005-11.2l-3.933-2.27a45.483 45.483 0 0 0 -6.009 10.387l3.942 2.276a5.983 5.983 0 0 0 2.995.807z"/><path d="m411.026 418.205a6 6 0 0 0 -6 6v4.539a44.538 44.538 0 0 0 12 0v-4.539a6 6 0 0 0 -6-6z"/><path d="m411.026 349.028a6 6 0 0 0 6-6v-4.542a44.538 44.538 0 0 0 -12 0v4.542a6 6 0 0 0 6 6z"/><path d="m376.438 383.616a6 6 0 0 0 -6-6h-4.538a44.592 44.592 0 0 0 0 12h4.543a6 6 0 0 0 5.995-6z"/><path d="m381.072 400.911a6 6 0 0 0 -8.2-2.2l-3.946 2.278a45.487 45.487 0 0 0 6.012 10.386l3.934-2.271a6 6 0 0 0 2.2-8.193z"/><path d="m440.98 366.322a6 6 0 0 0 8.2 2.2l3.943-2.276a45.52 45.52 0 0 0 -6.011-10.386l-3.931 2.269a6 6 0 0 0 -2.201 8.193z"/><path d="m428.32 413.57a6 6 0 0 0 -2.2 8.2l2.277 3.943a45.468 45.468 0 0 0 10.386-6.011l-2.27-3.932a6 6 0 0 0 -8.193-2.2z"/><path d="m390.737 354.467a6 6 0 0 0 5.191-9l-2.277-3.944a45.48 45.48 0 0 0 -10.385 6.012l2.27 3.932a6 6 0 0 0 5.201 3z"/><path d="m393.732 413.57a6 6 0 0 0 -8.2 2.2l-2.271 3.932a45.511 45.511 0 0 0 10.387 6.011l2.276-3.943a6 6 0 0 0 -2.192-8.2z"/><path d="m428.32 353.663a6 6 0 0 0 8.2-2.2l2.27-3.932a45.512 45.512 0 0 0 -10.386-6.013l-2.277 3.945a6 6 0 0 0 2.193 8.2z"/><path d="m440.98 400.911a6 6 0 0 0 2.2 8.2l3.932 2.27a45.447 45.447 0 0 0 6.011-10.386l-3.944-2.277a6 6 0 0 0 -8.199 2.193z"/><path d="m375.871 369.323a6 6 0 0 0 3-11.2l-3.932-2.27a45.487 45.487 0 0 0 -6.012 10.386l3.944 2.277a5.976 5.976 0 0 0 3 .807z"/><path d="m450.991 377.616a6 6 0 0 0 0 12h4.947c.074 0 .145-.008.218-.011a44.539 44.539 0 0 0 0-11.978c-.073 0-.144-.011-.217-.011z"/><path d="m167.284 377.752h-3.439a6 6 0 1 0 0 12h3.439a44.538 44.538 0 0 0 0-12z"/></g></svg>