<svg id="Layer_1" height="512" viewBox="0 0 512 512" width="512" xmlns="http://www.w3.org/2000/svg" data-name="Layer 1"><path d="m426.27 325.11a59.27 59.27 0 1 1 -59.27 59.27 59.275 59.275 0 0 1 59.27-59.27z" fill="#6d7486"/><path d="m166.31 325.11a59.27 59.27 0 1 1 -59.27 59.27 59.275 59.275 0 0 1 59.27-59.27z" fill="#6d7486"/><path d="m397 384.38a59.291 59.291 0 0 1 44.268-57.351 59.27 59.27 0 1 0 0 114.7 59.291 59.291 0 0 1 -44.268-57.349z" fill="#596070"/><circle cx="426.27" cy="384.38" fill="#444a56" r="28"/><path d="m137.04 384.38a59.3 59.3 0 0 1 44.27-57.35 59.27 59.27 0 1 0 0 114.7 59.3 59.3 0 0 1 -44.27-57.35z" fill="#596070"/><circle cx="166.31" cy="384.38" fill="#444a56" r="28"/><path d="m208.51 224.97-13.5-11.23-26.71-22.23h-.01l-19.8 32.04 63.22 73.72h12.95v-.13z" fill="#8fb592"/><path d="m294.56 297.14v.13h-69.9v-.13l-16.15-72.17a5.314 5.314 0 0 1 5.19-6.45h8.82a5.319 5.319 0 0 1 5 3.52l18.27 51h34.6a14 14 0 0 1 13.99 13.76z" fill="#6d7486"/><path d="m337.64 61.02v62.41c-15.53 0-28.13-13.97-28.13-31.21s12.6-31.2 28.13-31.2z" fill="#49bdff"/><path d="m320.09 140.43-116.93-5.31-34.86 56.39 26.71 22.23 20.25-52.88h118.64z" fill="#739937"/><path d="m347.59 250.7-27.11 46.57h-25.92v-.13l-.18-10.34a14 14 0 0 0 -13.99-13.76h-34.6l-18.27-51a5.319 5.319 0 0 0 -5-3.52h-8.82a5.314 5.314 0 0 0 -5.19 6.45l-13.5-11.23 20.25-52.88h118.64l35.46 52.45z" fill="#a0eaea"/><path d="m369.36 213.31-48.88 83.96h-108.77l57.91 67.53h37.86v-35.69l63.7-52.39h102.5v-27.14z" fill="#9ac5a1"/><path d="m371.18 276.72-63.7 52.39v45.39h18.83v-36.32l52.87-40.91h109.69v-20.55z" fill="#739937"/><path d="m46.99 256.27v89.46h-23.86a4.012 4.012 0 0 1 -4-4v-81.46a4.012 4.012 0 0 1 4-4z" fill="#6d7486"/><path d="m89.8 165.55a18.526 18.526 0 0 0 -16.33 18.39v39.61h75.02l43.34-70.1z" fill="#75967a"/><path d="m211.71 297.27h-102.26-35.88l-.03-18.46h.03 122.31z" fill="#5fcda4"/><path d="m195.88 278.81h-122.31-.03l-.02-18.46h.05 106.48z" fill="#8dc63f"/><path d="m180.05 260.35h-106.48-.05l-.03-18.46h.08 90.65z" fill="#5fcda4"/><path d="m164.22 241.89h-90.65-.08l-.02-18.34h75.02z" fill="#8dc63f"/><path d="m19.13 260.27v81.46a4.012 4.012 0 0 0 4 4h23.86v-89.46h-23.86a4.012 4.012 0 0 0 -4 4z" fill="#6d7486"/><path d="m89.8 165.55a18.526 18.526 0 0 0 -16.33 18.39v17.35h22a8 8 0 0 0 8-8v-9.35a18.526 18.526 0 0 1 16.33-18.39l69.656-8.261 2.374-3.839z" fill="#a1c4a5"/><path d="m33.13 341.73v-81.46a4.012 4.012 0 0 1 4-4h-14a4.012 4.012 0 0 0 -4 4v81.46a4.012 4.012 0 0 0 4 4h14a4.012 4.012 0 0 1 -4-4z" fill="#9aa3b5"/><path d="m73.47 201.29h-26.48v163.51h24.43l38.03-67.53z" fill="#739937"/><path d="m46.99 201.29h20v163.51h-20z" fill="#a0c15f"/><path d="m325.51 92.22a32.245 32.245 0 0 1 12.13-25.655v-5.545c-15.53 0-28.13 13.97-28.13 31.2s12.6 31.21 28.13 31.21v-5.546a32.256 32.256 0 0 1 -12.13-25.664z" fill="#9ce1ff"/><path d="m492.865 390.381a6 6 0 0 0 0-12h-1.617c-.155-1.694-.38-3.368-.662-5.022l1.563-.419a6 6 0 1 0 -3.105-11.591l-1.554.416c-.589-1.59-1.249-3.144-1.956-4.673l1.409-.814a6 6 0 1 0 -6-10.392l-1.427.824c-.977-1.377-2-2.723-3.074-4.018l1.161-1.161a6 6 0 0 0 -8.487-8.485l-1.16 1.16c-1.3-1.078-2.641-2.1-4.017-3.074l.824-1.427a6 6 0 0 0 -10.393-6l-.813 1.409c-1.53-.707-3.083-1.367-4.673-1.956l.416-1.554a6 6 0 0 0 -11.592-3.1l-.419 1.563c-1.654-.282-3.327-.507-5.021-.662v-1.617a6 6 0 0 0 -12 0v1.612c-1.695.155-3.368.38-5.023.662l-.419-1.564a6 6 0 0 0 -11.592 3.107l.416 1.553c-1.59.589-3.143 1.25-4.672 1.956l-.814-1.409a6 6 0 0 0 -10.392 6l.824 1.427c-1.377.978-2.723 2-4.019 3.074l-1.16-1.16a6 6 0 1 0 -8.484 8.485l1.16 1.16c-1.079 1.3-2.1 2.641-3.074 4.019l-1.428-.824a6 6 0 0 0 -6 10.392l1.409.814c-.707 1.529-1.367 3.083-1.956 4.673l-1.553-.416a6 6 0 1 0 -3.1 11.591l1.563.418c-.283 1.655-.508 3.329-.663 5.023h-1.617a6 6 0 0 0 0 12h1.617c.155 1.694.38 3.368.663 5.023l-1.563.419a6 6 0 1 0 3.1 11.591l1.553-.417c.59 1.59 1.25 3.144 1.956 4.673l-1.409.814a6 6 0 1 0 6 10.393l1.428-.825c.977 1.377 2 2.723 3.074 4.019l-1.16 1.159a6 6 0 1 0 8.484 8.486l1.16-1.161c1.3 1.079 2.642 2.1 4.019 3.075l-.824 1.427a6 6 0 1 0 10.392 6l.814-1.409c1.529.706 3.083 1.366 4.672 1.956l-.416 1.553a6 6 0 1 0 11.592 3.106l.419-1.564c1.655.283 3.328.508 5.023.663v1.618a6 6 0 0 0 12 0v-1.618c1.694-.155 3.367-.38 5.021-.663l.419 1.563a6 6 0 1 0 11.592-3.1l-.416-1.554c1.589-.589 3.143-1.25 4.673-1.956l.813 1.409a6 6 0 0 0 10.393-6l-.824-1.427c1.376-.977 2.722-2 4.017-3.074l1.16 1.16a6 6 0 0 0 8.487-8.486l-1.161-1.16c1.079-1.3 2.1-2.641 3.074-4.018l1.427.825a6 6 0 1 0 6-10.393l-1.409-.814c.706-1.529 1.366-3.083 1.956-4.673l1.554.417a6 6 0 1 0 3.105-11.591l-1.563-.419c.282-1.655.507-3.329.662-5.023zm-66.6 47.268a53.268 53.268 0 1 1 53.267-53.268 53.329 53.329 0 0 1 -53.264 53.268z" fill="#444a56"/><path d="m232.907 378.381h-1.617c-.155-1.694-.38-3.368-.663-5.023l1.563-.418a6 6 0 1 0 -3.1-11.591l-1.553.416c-.589-1.59-1.25-3.145-1.956-4.673l1.408-.814a6 6 0 1 0 -6-10.392l-1.426.823c-.978-1.377-2-2.722-3.075-4.018l1.161-1.16a6 6 0 1 0 -8.485-8.485l-1.16 1.16c-1.3-1.078-2.642-2.1-4.019-3.074l.825-1.427a6 6 0 0 0 -10.393-6l-.813 1.409c-1.53-.706-3.083-1.367-4.673-1.956l.416-1.553a6 6 0 0 0 -11.597-3.105l-.419 1.564c-1.655-.282-3.328-.507-5.022-.662v-1.617a6 6 0 0 0 -12 0v1.615c-1.695.155-3.368.38-5.022.662l-.419-1.563a6 6 0 0 0 -11.592 3.1l.416 1.554c-1.589.589-3.143 1.249-4.672 1.956l-.814-1.409a6 6 0 1 0 -10.392 6l.824 1.427c-1.377.977-2.723 2-4.018 3.074l-1.16-1.16a6 6 0 0 0 -8.486 8.485l1.16 1.161c-1.078 1.3-2.1 2.641-3.074 4.018l-1.427-.824a6 6 0 1 0 -6 10.392l1.409.814c-.707 1.529-1.367 3.083-1.956 4.673l-1.554-.416a6 6 0 1 0 -3.1 11.591l1.563.419c-.282 1.654-.507 3.328-.662 5.022h-1.622a6 6 0 0 0 0 12h1.617c.155 1.694.38 3.368.663 5.023l-1.564.419a6 6 0 1 0 3.1 11.591l1.554-.417c.59 1.59 1.25 3.144 1.956 4.673l-1.409.814a6 6 0 1 0 6 10.393l1.427-.825c.977 1.377 2 2.723 3.074 4.018l-1.16 1.16a6 6 0 0 0 8.486 8.486l1.16-1.16c1.3 1.078 2.641 2.1 4.018 3.074l-.824 1.427a6 6 0 1 0 10.392 6l.814-1.409c1.529.706 3.083 1.367 4.672 1.956l-.416 1.554a6 6 0 1 0 11.592 3.1l.419-1.563c1.654.283 3.327.508 5.022.663v1.618a6 6 0 0 0 12 0v-1.618c1.694-.155 3.367-.38 5.022-.663l.419 1.564a6 6 0 0 0 11.592-3.106l-.416-1.553c1.59-.59 3.143-1.25 4.673-1.956l.813 1.409a6 6 0 0 0 10.393-6l-.825-1.427c1.377-.978 2.723-2 4.019-3.075l1.16 1.161a6 6 0 1 0 8.485-8.486l-1.161-1.16c1.078-1.3 2.1-2.64 3.075-4.017l1.426.824a6 6 0 1 0 6-10.393l-1.409-.813c.707-1.53 1.367-3.084 1.957-4.674l1.553.417a6 6 0 1 0 3.1-11.591l-1.563-.419c.283-1.655.508-3.329.663-5.023h1.617a6 6 0 1 0 0-12zm-66.6 59.268a53.268 53.268 0 1 1 53.268-53.268 53.328 53.328 0 0 1 -53.266 53.268z" fill="#444a56"/><path d="m300.571 139.269h-12v-32.825a20.245 20.245 0 0 1 20.222-20.221h.688v12h-.688a8.231 8.231 0 0 0 -8.222 8.221z" fill="#d4e1f4"/><path d="m350.711 245.569-24.411-14.846 8.485-13.85a6 6 0 1 0 -10.232-6.268l-22.191 36.22a6 6 0 1 0 10.233 6.269l7.435-12.138 24.442 14.866z" fill="#6d7486"/></svg>