<svg id="Layer_1" height="512" viewBox="0 0 512 512" width="512" xmlns="http://www.w3.org/2000/svg" data-name="Layer 1"><path d="m412.11 342.2v5.8h-19.16v-5.8a9.583 9.583 0 0 1 9.58-9.59c.15 0 .29 0 .43.01a9.594 9.594 0 0 1 9.15 9.58z" fill="#6d7486"/><path d="m325.63 273.9 11.76 8.94-23.99 30.82-11.66-9.08 23.88-30.67z" fill="#d4e1f4"/><path d="m408.88 309.44-129.04-97.68 78.14-103.22-53.87-41.36-13.35 17.63 35.27 26.71-78.21 103.32 155.14 117.77h49.05l17.27-23.17z" fill="#ed8115"/><path d="m294.93 299.28-37.93 48.72h40.6l22.61-29.04z" fill="#6d7486"/><path d="m222.49 348v14.27h-44.66v20.98h234.28v-35.25z" fill="#898890"/><path d="m105.3 370.28a40.591 40.591 0 1 1 -62.84 33.95c0-1.07.04-2.13.12-3.19h3.27a7.149 7.149 0 0 0 7.15-7.15v-8.72a14.613 14.613 0 0 1 14.5-14.62z" fill="#6d7486"/><path d="m193.09 233.88h23.75v88.8h-23.75z" fill="#c1cfe0"/><path d="m92.95 285.82 9.23 19.2-85.11 20.61v-6.68a17.894 17.894 0 0 1 13.51-17.34z" fill="#ff838f"/><path d="m102.18 305.02-85.11 20.61v45.6a7.918 7.918 0 0 1 2.96-.57h14.84v-8.78a21.6 21.6 0 0 1 21.6-21.6h49.39a3.983 3.983 0 0 1 3.61 2.29l18.98 40.68h49.38v-78.23z" fill="#ef5854"/><path d="m34.87 370.66v30.38h-14.84a8.008 8.008 0 0 1 -8.01-8.01v-14.35a8.008 8.008 0 0 1 5.05-7.45 7.918 7.918 0 0 1 2.96-.57z" fill="#898890"/><path d="m363.91 383.25a40.594 40.594 0 1 1 -34.75-19.61 40.334 40.334 0 0 1 34.75 19.61z" fill="#6d7486"/><path d="m143.3 238.88h34.53v66.14h-34.53z" fill="#55d8d8"/><path d="m143.3 238.88v66.14h-41.12l-9.23-19.2 11.36-36.92a14.18 14.18 0 0 1 13.55-10.02z" fill="#7ce5e9"/><path d="m213.63 193.2v40.68h-16.36v-34.86z" fill="#d4e1f4"/><path d="m194.16 362.27v47.56a4 4 0 0 0 4 4h66.79a4 4 0 0 0 4-4v-47.56z" fill="#ccd3df"/><path d="m287.41 164.325h87.831v62.661h-87.831z" fill="#f4bd42" transform="matrix(.604 -.797 .797 .604 -24.646 341.743)"/><path d="m403.1 184.88-4.83 6.37-53.01 70.03-15.46-11.7 53.01-70.03 4.83-6.38z" fill="#f98d3d"/><path d="m351.515 214.499h87.831v59.363h-87.831z" fill="#f4bd42" transform="matrix(.604 -.797 .797 .604 -37.922 412.093)"/><path d="m465.89 232.41-4.82 6.37-53.01 70.03-13.81-10.44-1.66-1.26 53.01-70.03 4.83-6.38z" fill="#f98d3d"/><path d="m408.06 308.81 53.01-70.03 38.91 29.46-30.7 41.2h-60.4l-14.63-11.07z" fill="#f4bd42"/><path d="m318.57 404.23a40.563 40.563 0 0 1 25.59-37.71 40.587 40.587 0 1 0 0 75.426 40.589 40.589 0 0 1 -25.59-37.716z" fill="#596070"/><path d="m73.237 404.23a40.563 40.563 0 0 1 25.59-37.71 40.587 40.587 0 1 0 0 75.426 40.589 40.589 0 0 1 -25.59-37.716z" fill="#596070"/><path d="m83.05 394.64a9.6 9.6 0 1 1 -9.6 9.59 9.594 9.594 0 0 1 9.6-9.59z" fill="#9b9ba3"/><path d="m329.16 394.64a9.6 9.6 0 1 1 -9.6 9.59 9.594 9.594 0 0 1 9.6-9.59z" fill="#9b9ba3"/><path d="m109.47 342.57a3.983 3.983 0 0 0 -3.61-2.29h-49.39a21.6 21.6 0 0 0 -21.6 21.6v39.16h10.98a7.149 7.149 0 0 0 7.15-7.15v-8.72a14.613 14.613 0 0 1 14.5-14.62l54.99-.39z" fill="#fb6771"/><path d="m20.03 370.66h14.04v-43.71a17.837 17.837 0 0 1 .611-4.616l-17.611 3.3v45.6a7.9 7.9 0 0 1 2.96-.57z" fill="#ff838f"/><path d="m97.789 295.886a14.975 14.975 0 0 0 10.637-10.112l8.884-28.874a14.18 14.18 0 0 1 13.55-10.02h12.44v-8h-25.44a14.18 14.18 0 0 0 -13.55 10.02l-11.36 36.92z" fill="#a6ffff"/><path d="m47.58 309.61 50.209-13.724-4.839-10.066-62.37 15.79a17.894 17.894 0 0 0 -13.51 17.34v6.68l17.611-3.3a17.9 17.9 0 0 1 12.899-12.72z" fill="#ffc7cf"/><path d="m192.153 352.977h-14.32v-12h14.32a6.82 6.82 0 0 0 6.813-6.813v-11.484h12v11.484a18.834 18.834 0 0 1 -18.813 18.813z" fill="#ccd3df"/><path d="m30.02 393.03v-14.35a8 8 0 0 1 4.85-7.353v-.667h-14.84a7.918 7.918 0 0 0 -2.96.57 8.008 8.008 0 0 0 -5.05 7.45v14.35a8.008 8.008 0 0 0 8.01 8.01h14.84v-.649a8.01 8.01 0 0 1 -4.85-7.361z" fill="#bcbbc4"/></svg>