<svg id="Layer_1" height="512" viewBox="0 0 512 512" width="512" xmlns="http://www.w3.org/2000/svg" data-name="Layer 1"><path d="m467.622 243.454c-.623 0-1.246-.02-1.873-.059a29.538 29.538 0 0 1 -10.325-56.377 10.174 10.174 0 0 0 6.2-9.247v-64.755a6 6 0 1 1 12 0v64.755a22.324 22.324 0 0 1 -13.24 20.173 17.457 17.457 0 0 0 -10.26 17.07 17.727 17.727 0 0 0 16.37 16.4 17.509 17.509 0 0 0 14.05-5.648 6 6 0 1 1 8.847 8.107 29.417 29.417 0 0 1 -21.769 9.581z" fill="#d4e1f4"/><path d="m227.05 329.74v-70.6c-.08-23.97-.05-55.68-.02-77.13a14 14 0 0 0 -14-14.01h-87.98a13.994 13.994 0 0 0 -13.56 10.52l-18.63 72.6-.31.18h44.55l-.02 125.51h89.97v-19.61h87.39l.06.04h.01l14.81-27.5z" fill="#ef5854"/><path d="m116.38 251.3h-23.83l-43.29 25.15a30 30 0 0 0 -14.93 25.94v34.35h45.73l.11.11 56.93 1.5v-87.05z" fill="#fb6771"/><path d="m469.62 343.2h24.2v33.61h-24.2z" fill="#fb6771"/><path d="m439.66 329.74 25.36 47.07h4.6v-47.07z" fill="#b0b5ca"/><path d="m472.11 90.52c7.06 4.55 6.44 14.61 2.22 21.66-.04.06-1.76 2.57-4.71 6.84-1.65 2.39-3.69 5.34-6.02 8.72l-17.31-28.43q1.635-1.98 3.03-3.65s11.07-12.68 22.79-5.14z" fill="#ff981d"/><path d="m446.29 99.31 17.31 28.43c-4.15 6.01-9.24 13.38-14.82 21.45l-18.54-30.46c6.27-7.59 11.77-14.25 16.05-19.42z" fill="#ed8115"/><path d="m430.24 118.73 18.54 30.46c-4.69 6.8-9.73 14.08-14.83 21.45l-19.75-32.44v-.01c5.68-6.89 11.11-13.46 16.04-19.46z" fill="#ff981d"/><path d="m414.2 138.2 19.75 32.44c-4.97 7.19-10 14.46-14.84 21.43l-20.96-34.43v-.01c5.45-6.59 10.86-13.14 16.05-19.43z" fill="#ed8115"/><path d="m398.15 157.64 20.96 34.43c-5.3 7.67-10.37 14.97-14.84 21.42l-.01-.01-22.18-36.44c5.29-6.37 10.7-12.91 16.07-19.4z" fill="#ff981d"/><path d="m404.26 213.48.01.01c-5.84 8.4-10.68 15.35-13.77 19.74l-.01.01a43.193 43.193 0 0 0 -6.2-6.76l-18.32-30.09c5.12-6.12 10.55-12.64 16.11-19.35z" fill="#ed8115"/><path d="m365.97 196.39 18.32 30.09a43.615 43.615 0 0 0 -34.63-10.48l-.03-.21c4.81-5.65 10.36-12.24 16.34-19.4z" fill="#ff981d"/><path d="m80.06 336.74h-54.03a7.844 7.844 0 0 0 -7.85 7.85v32.22a7.842 7.842 0 0 0 7.85 7.84h53.59l.55-47.8z" fill="#b0b5ca"/><path d="m399.04 259.14h-30.08a13.45 13.45 0 0 0 -26.9 0h-30.09a43.535 43.535 0 0 1 87.07 0z" fill="#867af4"/><path d="m368.96 259.14h-26.9a13.45 13.45 0 0 1 26.9 0z" fill="#604af3"/><path d="m169.51 189.54h36v61.76h-36z" fill="#77c5f2"/><path d="m167.23 372.89c0 1.32-.05 2.63-.15 3.92a51.025 51.025 0 1 1 .15-3.92z" fill="#6d7486"/><path d="m116.24 361.12a11.765 11.765 0 1 1 -11.77 11.77 11.768 11.768 0 0 1 11.77-11.77z" fill="#999"/><path d="m95.25 372.89a50.941 50.941 0 0 1 23.82-43.15h.01a50.675 50.675 0 0 1 12.164-5.588 51.014 51.014 0 0 0 -42.164 5.588h-.01a51 51 0 0 0 42.17 91.885 51 51 0 0 1 -35.99-48.735z" fill="#596070"/><path d="m122.55 251.3.31-.18 18.63-72.6a13.994 13.994 0 0 1 13.56-10.52h-30a13.994 13.994 0 0 0 -13.56 10.52l-18.63 72.6-.31.18z" fill="#f99b9b"/><path d="m64.33 336.74v-34.35a30 30 0 0 1 14.93-25.94l43.29-25.15h-30l-43.29 25.15a30 30 0 0 0 -14.93 25.94v34.35z" fill="#ffc7cf"/><path d="m48.18 376.81v-32.22a7.844 7.844 0 0 1 7.85-7.85h-30a7.844 7.844 0 0 0 -7.85 7.85v32.22a7.842 7.842 0 0 0 7.85 7.84h30a7.842 7.842 0 0 1 -7.85-7.84z" fill="#d4d9e8"/><path d="m137.1 251.3h-20.72l15.91-61.76h37.22v61.76z" fill="#8ad8ff"/><path d="m302.168 386.131a6 6 0 0 1 -5.277-8.847l27.15-50.389a6 6 0 1 1 10.564 5.693l-27.149 50.388a6 6 0 0 1 -5.288 3.155z" fill="#d84a4a"/><path d="m425.56 259.14h-198.51v70.6h242.57v-31.38z" fill="#f9d438"/><path d="m411.63 329.87a50.987 50.987 0 1 1 -54.54-.13h.01a50.973 50.973 0 0 1 54.53.13z" fill="#6d7486"/><path d="m384.26 361.12a11.765 11.765 0 1 1 -11.77 11.77 11.777 11.777 0 0 1 11.77-11.77z" fill="#999"/><path d="m363.27 372.89a50.941 50.941 0 0 1 23.82-43.15h.01a50.675 50.675 0 0 1 12.164-5.588 51.014 51.014 0 0 0 -42.164 5.588h-.01a51 51 0 0 0 42.17 91.885 51 51 0 0 1 -35.99-48.735z" fill="#596070"/></svg>