<svg id="Layer_1" height="512" viewBox="0 0 512 512" width="512" xmlns="http://www.w3.org/2000/svg" data-name="Layer 1"><path d="m288.21 272.87-81.92-.88-1.29 74.9 67.96.06 25.02-60.83z" fill="#867af4"/><path d="m228.97 227.92v22.79l-35.16-21.38a119.888 119.888 0 0 0 -27.32-12.24v-.01l-8.57-43.63a9.9 9.9 0 0 1 -.17-1.86 10.066 10.066 0 0 1 19.22-4.17l12.32 35.76a12.857 12.857 0 0 0 12.14 8.66h11.46a16.081 16.081 0 0 1 16.08 16.08z" fill="#e2798d"/><path d="m228.97 250.72v-.01l-35.16-21.38a120.326 120.326 0 0 0 -62.41-17.49h-101.78v25.84h3.84a37.913 37.913 0 0 1 36.69 28.36l142.14 39.95h30.96v-46.59z" fill="#49bdff"/><path d="m422.01 289.11-124.03-2.99-25.02 60.83h97.18l53.08-35.85.02-.13z" fill="#3090fc"/><path d="m473.28 212.56a9.114 9.114 0 0 0 -6.79-3.35l-93.14-2.96c-15.13-.49-25.61-2.75-35.62-6.71s-19.55-9.63-32.83-16.91l-47.97 47.83 31.28 42.41 9.77 13.25 124.03 2.99 58.99-59.43z" fill="#49bdff"/><path d="m205 346.89v34.87h107.2l25.62-34.81z" fill="#604af3"/><path d="m82.52 84.81v127.03h-22.6v-127.03a11.3 11.3 0 0 1 22.6 0z" fill="#d4e1f4"/><path d="m481 229.68-4.1 21.84-.17-.03h-64.72v-15.57a6.237 6.237 0 0 1 6.25-6.24z" fill="#d4e1f4"/><path d="m476.9 251.52-4.08 21.78h-.01-60.8v-21.81h64.72z" fill="#c1d3ea"/><path d="m472.82 273.3-4.09 21.81h-.02-53.09l-.42.21-3.19-6.21v-15.81h60.8z" fill="#d4e1f4"/><path d="m468.71 295.11h-53.09l-.42.21 8.04 15.65-.02.13a7.768 7.768 0 0 1 6.33 7.61v2.12l.82-1.95 13.47-2.71h20.94l3.95-21.06z" fill="#c1d3ea"/><path d="m443.84 316.17 2.55 1.08a7.761 7.761 0 0 1 4.13 10.12 7.762 7.762 0 0 1 10.93.02l4.51 4.51a7.756 7.756 0 0 1 0 10.94l-1.5 1.51 1.96-.8a7.773 7.773 0 0 1 10.09 4.26l2.39 5.91a7.768 7.768 0 0 1 -4.24 10.08 7.761 7.761 0 0 1 7.72 7.74v6.38a7.772 7.772 0 0 1 -7.74 7.74h-2.13l1.96.82a7.768 7.768 0 0 1 4.11 10.15l-2.48 5.87a7.772 7.772 0 0 1 -10.13 4.13 7.762 7.762 0 0 1 -.01 10.93l-4.51 4.51a7.768 7.768 0 0 1 -10.95 0l-1.5-1.5.8 1.96a7.769 7.769 0 0 1 -4.27 10.09l-5.91 2.39a7.753 7.753 0 0 1 -10.07-4.24 7.77 7.77 0 0 1 -7.75 7.72h-6.37a7.765 7.765 0 0 1 -7.74-7.74v-2.13l-.83 1.96a7.768 7.768 0 0 1 -10.15 4.11l-5.87-2.48a7.759 7.759 0 0 1 -4.12-10.13 7.774 7.774 0 0 1 -10.94-.01l-4.5-4.51a7.768 7.768 0 0 1 0-10.95l1.5-1.5-1.97.8a7.758 7.758 0 0 1 -10.08-4.27l-2.4-5.91a7.749 7.749 0 0 1 4.25-10.07 7.768 7.768 0 0 1 -7.72-7.74v-6.38a7.759 7.759 0 0 1 7.74-7.74h2.12l-1.95-.83a7.764 7.764 0 0 1 -4.12-10.15l2.49-5.87a7.753 7.753 0 0 1 10.12-4.12 7.762 7.762 0 0 1 .02-10.93l4.5-4.51a7.768 7.768 0 0 1 10.95 0l1.51 1.5-.8-1.97a7.762 7.762 0 0 1 4.26-10.08l5.91-2.4a7.764 7.764 0 0 1 10.08 4.25 7.761 7.761 0 0 1 7.74-7.72h6.37a7.428 7.428 0 0 1 1.42.13 7.768 7.768 0 0 1 6.33 7.61v2.12l.82-1.95a7.764 7.764 0 0 1 10.15-4.12z" fill="#6d7486"/><circle cx="418.62" cy="374.73" fill="#d4e1f4" r="30.5"/><path d="m419.12 374.73a30.472 30.472 0 0 1 15-26.267 30.5 30.5 0 1 0 0 52.532 30.481 30.481 0 0 1 -15-26.265z" fill="#c1d3ea"/><path d="m64.46 237.68a3.84 3.84 0 0 1 -3.84-3.84v-22h-31v25.84h3.84a37.913 37.913 0 0 1 36.69 28.36l29.809 8.378 1.191-8.378a37.913 37.913 0 0 0 -36.69-28.36z" fill="#94deff"/><path d="m292.825 225.579 32.1-32c-5.971-3.1-12.374-6.755-20.021-10.947l-47.97 47.83 31.28 42.41 9.77 13.25 31.825.767-37.756-50.876a8 8 0 0 1 .772-10.434z" fill="#94deff"/><path d="m70.15 266.04a12.1 12.1 0 0 1 8.59 1.14 12.009 12.009 0 0 1 7.03-12.82l9.92-4.35a12.044 12.044 0 0 1 13.69 2.95 12.037 12.037 0 0 1 11.17-8.46l10.82-.26a12.033 12.033 0 0 1 11.8 8.64 12.032 12.032 0 0 1 14.04-4.09l10.08 3.94a12.047 12.047 0 0 1 7.61 11.77 12.034 12.034 0 0 1 13.88 1.91l7.84 7.47a12.031 12.031 0 0 1 2.22 14.45 12.042 12.042 0 0 1 12.83 7.04l4.34 9.91c.1.24.2.47.28.71a12.043 12.043 0 0 1 -3.23 12.99 12.046 12.046 0 0 1 8.47 11.17l.26 10.82a11.839 11.839 0 0 1 -1.42 5.92 12.093 12.093 0 0 1 -7.23 5.88 12.049 12.049 0 0 1 4.1 14.04l-3.95 10.08a11.831 11.831 0 0 1 -3.54 4.87h-.01a12.015 12.015 0 0 1 -8.21 2.74 12.05 12.05 0 0 1 -1.91 13.88l-7.48 7.83a12.031 12.031 0 0 1 -14.45 2.23 12.055 12.055 0 0 1 -7.03 12.83l-9.92 4.34a12.04 12.04 0 0 1 -13.7-2.95 12.033 12.033 0 0 1 -11.16 8.47l-10.83.26a12.038 12.038 0 0 1 -11.79-8.65 12.054 12.054 0 0 1 -14.04 4.1l-10.09-3.95a12.021 12.021 0 0 1 -7.6-11.76 12.032 12.032 0 0 1 -13.88-1.92l-7.84-7.47a12.034 12.034 0 0 1 -2.23-14.45 12.035 12.035 0 0 1 -12.82-7.03l-4.34-9.92a12.037 12.037 0 0 1 2.94-13.7 12.047 12.047 0 0 1 -8.46-11.16l-.26-10.83a12.039 12.039 0 0 1 8.65-11.8 12.018 12.018 0 0 1 -4.1-14.04l3.94-10.08a12.034 12.034 0 0 1 11.77-7.6 12.046 12.046 0 0 1 1.91-13.88l7.47-7.84a11.915 11.915 0 0 1 5.87-3.37z" fill="#6d7486"/><path d="m128.21 281.22a56.59 56.59 0 1 1 -56.59 56.59 56.6 56.6 0 0 1 56.59-56.59z" fill="#d4e1f4"/><path d="m102.62 337.81a56.608 56.608 0 0 1 41.092-54.423 56.59 56.59 0 1 0 0 108.847 56.6 56.6 0 0 1 -41.092-54.424z" fill="#c1d3ea"/><g fill="#515868"><circle cx="128.21" cy="337.81" r="23.05"/><path d="m421.805 444.488h-6.376a13.711 13.711 0 0 1 -10.071-4.4c-.154.069-.311.136-.469.2a13.651 13.651 0 0 1 -10.515-.071l-5.872-2.484a13.7 13.7 0 0 1 -7.336-7.41 13.7 13.7 0 0 1 -9.623-4.014l-4.509-4.509a13.712 13.712 0 0 1 -4.01-10.229 13.706 13.706 0 0 1 -7.859-7.677l-2.4-5.91a13.687 13.687 0 0 1 .051-10.426 13.7 13.7 0 0 1 -3.966-9.644v-6.376a13.708 13.708 0 0 1 4.4-10.07q-.105-.232-.2-.47a13.642 13.642 0 0 1 .07-10.515l2.484-5.872a13.689 13.689 0 0 1 7.41-7.336 13.69 13.69 0 0 1 4.014-9.623l4.509-4.509a13.743 13.743 0 0 1 10.228-4.006 13.71 13.71 0 0 1 7.678-7.862l5.908-2.4a13.706 13.706 0 0 1 10.428.052 13.7 13.7 0 0 1 9.644-3.966h6.376a13.709 13.709 0 0 1 10.068 4.4 13.7 13.7 0 0 1 10.985-.128l5.873 2.484a13.7 13.7 0 0 1 7.336 7.409 13.7 13.7 0 0 1 9.623 4.015l4.509 4.509a13.7 13.7 0 0 1 4.009 10.232q.238.09.475.191a13.647 13.647 0 0 1 7.384 7.484l2.4 5.908a13.7 13.7 0 0 1 -.053 10.427 13.7 13.7 0 0 1 3.967 9.644v6.376a13.707 13.707 0 0 1 -4.4 10.07q.1.232.2.47a13.642 13.642 0 0 1 -.071 10.515l-2.484 5.872a13.7 13.7 0 0 1 -7.409 7.336 13.7 13.7 0 0 1 -4.011 9.625l-4.51 4.509a13.7 13.7 0 0 1 -10.23 4.006c-.062.16-.125.319-.191.477a13.646 13.646 0 0 1 -7.486 7.385l-5.907 2.4a13.7 13.7 0 0 1 -10.428-.052 13.692 13.692 0 0 1 -9.643 3.963zm-14.121-21.866a6 6 0 0 1 6 6v2.124a1.766 1.766 0 0 0 1.743 1.742h6.376a1.766 1.766 0 0 0 1.741-1.736 6 6 0 0 1 11.556-2.252 1.766 1.766 0 0 0 2.267.955l5.907-2.395a1.764 1.764 0 0 0 .96-2.269l-.8-1.97a6 6 0 0 1 9.8-6.5l1.5 1.5a1.765 1.765 0 0 0 2.464 0l4.51-4.509a1.767 1.767 0 0 0 0-2.46 6 6 0 0 1 6.576-9.763 1.766 1.766 0 0 0 2.279-.927l2.485-5.872a1.766 1.766 0 0 0 -.927-2.283l-1.955-.827a6 6 0 0 1 2.337-11.526h2.124a1.766 1.766 0 0 0 1.742-1.743v-6.376a1.766 1.766 0 0 0 -1.738-1.741 6 6 0 0 1 -2.253-11.554 1.767 1.767 0 0 0 .956-2.267l-2.4-5.908a1.763 1.763 0 0 0 -2.268-.96l-1.967.8a6 6 0 0 1 -6.5-9.8l1.5-1.5a1.766 1.766 0 0 0 0-2.464l-4.508-4.509a1.764 1.764 0 0 0 -2.46 0 6 6 0 0 1 -9.763-6.576 1.767 1.767 0 0 0 -.926-2.279l-5.873-2.484a1.766 1.766 0 0 0 -2.285.926l-.826 1.955a6 6 0 0 1 -11.526-2.337v-2.124a1.766 1.766 0 0 0 -1.742-1.742h-6.376a1.764 1.764 0 0 0 -1.741 1.737 6 6 0 0 1 -11.554 2.254 1.768 1.768 0 0 0 -2.268-.956l-5.907 2.4a1.768 1.768 0 0 0 -.961 2.271l.8 1.968a6 6 0 0 1 -9.805 6.5l-1.5-1.5a1.766 1.766 0 0 0 -2.463 0l-4.508 4.509a1.767 1.767 0 0 0 0 2.461 6 6 0 0 1 -6.577 9.762 1.766 1.766 0 0 0 -2.278.926l-2.485 5.873a1.765 1.765 0 0 0 .926 2.283l1.957.828a6 6 0 0 1 -2.338 11.526h-2.112a1.766 1.766 0 0 0 -1.743 1.742v6.376a1.766 1.766 0 0 0 1.738 1.741 6 6 0 0 1 2.254 11.554 1.766 1.766 0 0 0 -.957 2.266l2.4 5.91a1.762 1.762 0 0 0 2.269.959l1.969-.8a6 6 0 0 1 6.5 9.8l-1.5 1.5a1.767 1.767 0 0 0 0 2.464l4.508 4.509a1.768 1.768 0 0 0 2.46 0 6 6 0 0 1 9.764 6.576 1.766 1.766 0 0 0 .927 2.28l5.872 2.484a1.764 1.764 0 0 0 2.282-.925l.829-1.959a6 6 0 0 1 5.512-3.668z"/><path d="m124.764 437.39a17.986 17.986 0 0 1 -13.09-5.672 17.972 17.972 0 0 1 -14.643.706l-10.086-3.943a17.954 17.954 0 0 1 -10.108-9.989 17.912 17.912 0 0 1 -13.326-4.934l-7.84-7.47a17.986 17.986 0 0 1 -5.555-13.568 17.977 17.977 0 0 1 -10.854-9.856l-4.343-9.919a17.964 17.964 0 0 1 -.084-14.212 17.96 17.96 0 0 1 -5.935-12.912l-.26-10.821a17.975 17.975 0 0 1 5.666-13.521 17.981 17.981 0 0 1 -.706-14.645l3.943-10.085a17.965 17.965 0 0 1 9.988-10.108 17.961 17.961 0 0 1 4.935-13.327l7.47-7.839a18.062 18.062 0 0 1 13.564-5.56 17.983 17.983 0 0 1 9.856-10.854l9.919-4.342a17.947 17.947 0 0 1 14.212-.085 17.958 17.958 0 0 1 12.913-5.934l10.825-.26a17.962 17.962 0 0 1 13.523 5.666 17.975 17.975 0 0 1 14.652-.706l10.083 3.943a17.955 17.955 0 0 1 10.11 9.989 17.922 17.922 0 0 1 13.327 4.935l7.839 7.469a17.988 17.988 0 0 1 5.555 13.569 17.978 17.978 0 0 1 10.854 9.855l4.342 9.92a17.953 17.953 0 0 1 .085 14.211 17.953 17.953 0 0 1 5.929 12.909l.261 10.825a17.978 17.978 0 0 1 -5.666 13.523 17.982 17.982 0 0 1 .706 14.644l-3.943 10.085a17.962 17.962 0 0 1 -9.988 10.108 17.965 17.965 0 0 1 -4.935 13.327l-7.471 7.84a17.961 17.961 0 0 1 -13.567 5.555 17.984 17.984 0 0 1 -9.856 10.853l-9.919 4.343a17.97 17.97 0 0 1 -14.211.085 17.962 17.962 0 0 1 -12.913 5.933l-10.826.262c-.144.006-.289.007-.432.007zm-11.509-20.651a6 6 0 0 1 5.759 4.313 6.026 6.026 0 0 0 5.893 4.337l10.825-.262a6.007 6.007 0 0 0 5.58-4.246 6 6 0 0 1 10.167-2.256 6.011 6.011 0 0 0 6.854 1.487l9.919-4.342a6.016 6.016 0 0 0 3.507-6.422 6 6 0 0 1 8.81-6.171 6.011 6.011 0 0 0 7.231-1.1l7.472-7.839a6.011 6.011 0 0 0 .943-6.949 6 6 0 0 1 5.594-8.784 5.987 5.987 0 0 0 5.9-3.795l3.943-10.085a6.012 6.012 0 0 0 -2.061-7.019 6 6 0 0 1 1.865-10.594 6.013 6.013 0 0 0 4.336-5.893l-.261-10.825a6.009 6.009 0 0 0 -4.247-5.581 6 6 0 0 1 -2.256-10.167 6.007 6.007 0 0 0 1.488-6.852l-4.342-9.921a6.013 6.013 0 0 0 -6.423-3.5 6 6 0 0 1 -6.171-8.81 6.014 6.014 0 0 0 -1.1-7.234l-7.839-7.469a6.013 6.013 0 0 0 -6.951-.944 6 6 0 0 1 -8.783-5.6 6.007 6.007 0 0 0 -3.795-5.9l-10.084-3.943a6.013 6.013 0 0 0 -7.02 2.061 6 6 0 0 1 -10.593-1.865 5.992 5.992 0 0 0 -5.893-4.336l-10.826.261a6.009 6.009 0 0 0 -5.58 4.247 6 6 0 0 1 -10.171 2.259 6.009 6.009 0 0 0 -6.853-1.487l-9.919 4.343a6.014 6.014 0 0 0 -3.507 6.422 6 6 0 0 1 -8.811 6.171 6.01 6.01 0 0 0 -7.231 1.1l-7.471 7.839a6.011 6.011 0 0 0 -.943 6.949 6 6 0 0 1 -5.594 8.784 6.02 6.02 0 0 0 -5.9 3.8l-3.941 10.079a6.015 6.015 0 0 0 2.062 7.02 6 6 0 0 1 -1.865 10.594 6.011 6.011 0 0 0 -4.336 5.893l.261 10.826a6.01 6.01 0 0 0 4.246 5.58 6 6 0 0 1 2.257 10.165 6.011 6.011 0 0 0 -1.487 6.855l4.342 9.919a6.008 6.008 0 0 0 6.422 3.505 6 6 0 0 1 6.172 8.81 6.014 6.014 0 0 0 1.1 7.234l7.839 7.469a6.012 6.012 0 0 0 6.948.944 6 6 0 0 1 8.785 5.593 6.009 6.009 0 0 0 3.794 5.9l10.085 3.943a6.013 6.013 0 0 0 7.021-2.062 6 6 0 0 1 4.834-2.449z"/></g><path d="m287.054 200.406-19.624-20.761 11.841-11.119a6 6 0 0 0 -8.215-8.748l-30.965 29.078a6 6 0 0 0 8.215 8.748l10.377-9.744 19.65 20.789z" fill="#ccd3df"/><path d="m390.66 130.088a6 6 0 0 1 -6-6v-29.912a20.9 20.9 0 0 1 11.683-18.835l4.092-2.03a6 6 0 1 1 5.334 10.749l-4.093 2.031a8.973 8.973 0 0 0 -5.016 8.085v29.912a6 6 0 0 1 -6 6z" fill="#d4e1f4"/><path d="m377.84 122.09v84.3l25.64.82v-.15-84.97z" fill="#bccee2"/></svg>