<svg id="Layer_1" height="512" viewBox="0 0 512 512" width="512" xmlns="http://www.w3.org/2000/svg" data-name="Layer 1"><path d="m71.784 225.208a6 6 0 0 1 -6-6v-47.04a10.011 10.011 0 0 1 10-10h20.023a6 6 0 1 1 0 12h-18.023v45.04a6 6 0 0 1 -6 6z" fill="#d4e1f4"/><path d="m110.43 128.46h89.43v23.7h-89.43z" fill="#49bdff"/><path d="m488.07 313.05v-16.79h-288.21v53.54a73.777 73.777 0 0 1 5.27 12.85l.61-.19h136.61a74.519 74.519 0 0 1 143.11 2.29h16.34v-35.24z" fill="#b0b5ca"/><path d="m465.63 383.83a52.049 52.049 0 1 1 -6.97-26.02 51.834 51.834 0 0 1 6.97 26.02z" fill="#6d7486"/><path d="m185.89 383.83a52.049 52.049 0 1 1 -6.97-26.02 51.834 51.834 0 0 1 6.97 26.02z" fill="#6d7486"/><path d="m32.76 337.61 29.85 24.85h-45.92a6.489 6.489 0 0 1 -6.49-6.49v-46.6a6.5 6.5 0 0 1 6.4-6.5l16.16-.23z" fill="#a7adc1"/><path d="m139.26 216.2-43.45 18.72v21.31h-55.05a8 8 0 0 0 -8 8.01v73.37l29.85 24.85a74.532 74.532 0 0 1 137.25-12.66v-133.6z" fill="#49bdff"/><path d="m308.28 328.28h-69.38a8 8 0 0 0 -8 8.01v40.03a8 8 0 0 0 8 8h69.38a8 8 0 0 0 8.01-8v-40.03a8 8 0 0 0 -8.01-8.01z" fill="#989fa9"/><path d="m480.07 232.21h-280.21v64.05h288.21v-56.04a8 8 0 0 0 -8-8.01z" fill="#9ac5a1"/><path d="m259.03 224.9h20.33v71.36h-20.33z" fill="#75967a"/><path d="m338.31 224.9h20.33v71.36h-20.33z" fill="#75967a"/><path d="m417.58 224.9h20.34v71.36h-20.34z" fill="#75967a"/><path d="m103.81 152.16c-2.88 0-8 0-8 8v74.76l43.45-18.72v-64.04z" fill="#8dfff9"/><path d="m199.86 152.16v64.04h-60.6v-64-.04z" fill="#a0eaea"/><path d="m398.5 409.86a52.068 52.068 0 0 1 30.08-75.88 52.05 52.05 0 1 0 0 99.7 52.117 52.117 0 0 1 -30.08-23.82z" fill="#596070"/><path d="m111.79 383.83a52.075 52.075 0 0 1 37.059-49.847 52.049 52.049 0 1 0 0 99.7 52.067 52.067 0 0 1 -37.059-49.853z" fill="#596070"/><circle cx="413.58" cy="383.83" fill="#d4e1f4" r="24.61"/><circle cx="133.84" cy="383.83" fill="#d4e1f4" r="24.61"/><path d="m33.2 355.97-.44-53.33-16.16.23a6.5 6.5 0 0 0 -6.4 6.5v46.6a6.489 6.489 0 0 0 6.49 6.49h23a6.489 6.489 0 0 1 -6.49-6.49z" fill="#cad1e5"/><path d="m118.81 222v-61.84c0-8 5.12-8 8-8h-23c-2.88 0-8 0-8 8v74.76l23-9.909z" fill="#c7fffb"/><path d="m110.43 128.46h23v23.7h-23z" fill="#99e0ff"/><path d="m95.81 234.92v21.31h15a8 8 0 0 0 8-8v-23.219z" fill="#99e0ff"/><path d="m40.76 256.23a8 8 0 0 0 -8 8v38.41l.44 6.73a6.5 6.5 0 0 1 6.4-6.5l8.274-.118a8 8 0 0 0 7.886-8v-30.512a8 8 0 0 1 8-8.01z" fill="#99e0ff"/><path d="m488.073 390.361a6 6 0 0 1 -6-6 68.495 68.495 0 1 0 -136.989 0 6 6 0 0 1 -12 0 80.495 80.495 0 1 1 160.989 0 6 6 0 0 1 -6 6z" fill="#8c93aa"/><path d="m208.34 390.361a6 6 0 0 1 -6-6 68.5 68.5 0 1 0 -137 0 6 6 0 0 1 -12 0 80.5 80.5 0 1 1 161 0 6 6 0 0 1 -6 6z" fill="#8c93aa"/><path d="m211.88 76.134h12v156.079h-12z" fill="#6d7486"/><path d="m68.177 256.23v16.012a6 6 0 0 0 12 0v-16.012z" fill="#40acdb"/><path d="m46.933 272.242a6 6 0 0 0 12 0v-16.012h-12z" fill="#40acdb"/><path d="m193.86 76.12h30.02v33.02h-30.02z" fill="#50dd5a"/><g fill="#4b515e"><path d="m413.579 424.227a6 6 0 0 0 -6 6v5.3a51.75 51.75 0 0 0 12 0v-5.3a6 6 0 0 0 -6-6z"/><path d="m378.6 404.03a6 6 0 0 0 -8.2-2.2l-4.6 2.655a51.257 51.257 0 0 0 6.006 10.389l4.591-2.651a6 6 0 0 0 2.203-8.193z"/><path d="m448.562 363.635a6 6 0 0 0 8.2 2.2l4.6-2.656a51.4 51.4 0 0 0 -6.009-10.388l-4.591 2.651a6 6 0 0 0 -2.2 8.193z"/><path d="m433.776 418.815a6 6 0 0 0 -2.2 8.2l2.659 4.606a51.983 51.983 0 0 0 10.387-6.009l-2.654-4.6a6 6 0 0 0 -8.192-2.197z"/><path d="m390.387 349.655a6 6 0 0 0 5.191-9l-2.66-4.607a51.94 51.94 0 0 0 -10.386 6.012l2.653 4.595a6 6 0 0 0 5.202 3z"/><path d="m393.381 418.815a6 6 0 0 0 -8.2 2.2l-2.653 4.6a51.939 51.939 0 0 0 10.387 6.01l2.659-4.605a6 6 0 0 0 -2.193-8.205z"/><path d="m433.776 348.85a6 6 0 0 0 8.2-2.2l2.654-4.6a51.984 51.984 0 0 0 -10.386-6.011l-2.66 4.608a6 6 0 0 0 2.192 8.203z"/><path d="m448.562 404.03a6 6 0 0 0 2.2 8.2l4.593 2.652a51.272 51.272 0 0 0 6.007-10.389l-4.6-2.656a6 6 0 0 0 -8.2 2.193z"/><path d="m373.394 366.636a6 6 0 0 0 3-11.2l-4.589-2.65a51.387 51.387 0 0 0 -6.008 10.388l4.6 2.655a5.979 5.979 0 0 0 2.997.807z"/><path d="m465.28 377.833h-5.306a6 6 0 0 0 0 12h5.306a51.6 51.6 0 0 0 0-12z"/><path d="m373.184 383.833a6 6 0 0 0 -6-6h-5.3a51.6 51.6 0 0 0 0 12h5.3a6 6 0 0 0 6-6z"/><path d="m133.842 424.227a6 6 0 0 0 -6 6v5.3a51.312 51.312 0 0 0 12 .006v-5.3a6 6 0 0 0 -6-6.006z"/><path d="m98.859 404.03a6 6 0 0 0 -8.2-2.2l-4.6 2.656a52.025 52.025 0 0 0 6 10.391l4.6-2.654a6 6 0 0 0 2.2-8.193z"/><path d="m168.825 363.635a6 6 0 0 0 8.2 2.2l4.6-2.655a51.454 51.454 0 0 0 -6.009-10.388l-4.589 2.65a6 6 0 0 0 -2.202 8.193z"/><path d="m154.039 418.815a6 6 0 0 0 -2.2 8.2l2.658 4.605a51.96 51.96 0 0 0 10.387-6.01l-2.653-4.6a6 6 0 0 0 -8.192-2.195z"/><path d="m110.65 349.655a6 6 0 0 0 5.191-9l-2.657-4.6a51.99 51.99 0 0 0 -10.39 6l2.654 4.6a6 6 0 0 0 5.202 3z"/><path d="m113.645 418.815a6 6 0 0 0 -8.2 2.2l-2.653 4.6a52.017 52.017 0 0 0 10.391 6l2.655-4.6a6 6 0 0 0 -2.193-8.2z"/><path d="m154.039 348.85a6 6 0 0 0 8.2-2.2l2.653-4.595a51.94 51.94 0 0 0 -10.386-6.012l-2.659 4.607a6 6 0 0 0 2.192 8.2z"/><path d="m168.825 404.03a6 6 0 0 0 2.2 8.2l4.591 2.65a51.185 51.185 0 0 0 6.006-10.389l-4.6-2.654a6 6 0 0 0 -8.197 2.193z"/><path d="m93.657 366.636a6 6 0 0 0 3.006-11.2l-4.6-2.654a51.986 51.986 0 0 0 -6 10.39l4.6 2.657a5.973 5.973 0 0 0 2.994.807z"/><path d="m185.54 377.833h-5.3a6 6 0 0 0 0 12h5.3a51.6 51.6 0 0 0 0-12z"/><path d="m93.447 383.833a6 6 0 0 0 -6-6h-5.3a50.882 50.882 0 0 0 0 12h5.3a6 6 0 0 0 6-6z"/><path d="m407.579 338.883a6 6 0 0 0 12 0v-5.656a6.073 6.073 0 0 0 -.107-1.111 51.846 51.846 0 0 0 -11.786 0 5.987 5.987 0 0 0 -.107 1.111z"/><path d="m127.842 338.883a6 6 0 1 0 12 0v-5.656a6.054 6.054 0 0 0 -.107-1.11 51.4 51.4 0 0 0 -11.787 0 6.019 6.019 0 0 0 -.106 1.106z"/></g></svg>