<svg id="Layer_1" height="512" viewBox="0 0 512 512" width="512" xmlns="http://www.w3.org/2000/svg" data-name="Layer 1"><path d="m481.33 267.47h18.31v21.03h-18.31z" fill="#0ff"/><path d="m491.81 328.87h.04v.02l-31.05 36.06-.09.01a48.542 48.542 0 0 0 -19.66-36.09z" fill="#58adf9"/><path d="m462.12 267.47a71.672 71.672 0 0 1 -47.3 17.86h-159.48a71.76 71.76 0 0 1 -52.01-22.36v42.55h278v-38.05z" fill="#6d7486"/><path d="m428.42 116.79a70.947 70.947 0 0 0 -13.6-1.31h-159.48a72.146 72.146 0 0 0 -71.94 71.93v25.98a72.145 72.145 0 0 0 71.94 71.94h159.48a71.672 71.672 0 0 0 47.3-17.86 71.822 71.822 0 0 0 24.64-54.08v-25.98a72.2 72.2 0 0 0 -58.34-70.62z" fill="#fb6771"/><path d="m161.78 192.69a18.691 18.691 0 0 0 -18.69-18.4h-77.61a18.789 18.789 0 0 0 -16.8 10.38c-1.7 3.39-3.7 7.44-5.86 11.93l-25 68.7v75.69l.01.14a7.022 7.022 0 0 1 1.38-.14h31.93s4.56-49.34 68.8-49.34h43.5z" fill="#668ad3"/><path d="m19.21 340.99a7.022 7.022 0 0 0 -1.38.14 6.873 6.873 0 0 0 -5.47 6.71v24.03a6.867 6.867 0 0 0 6.85 6.85h48.16v-10.73a48.361 48.361 0 0 1 8.18-27z" fill="#58adf9"/><path d="m182.68 328.87v15.89a48.614 48.614 0 0 0 -42.72-25.39h-23.98a48.561 48.561 0 0 0 -40.43 21.62h-24.41s4.56-49.34 68.8-49.34h43.5l19.24 13.87z" fill="#4e6cca"/><path d="m361.79 328.87h-179.11v15.89a48.419 48.419 0 0 1 5.9 23.23v10.73h153.49v-10.73a48.558 48.558 0 0 1 19.73-39.11z" fill="#58adf9"/><path d="m401 340.33a39.39 39.39 0 1 1 -39.39 39.39 39.387 39.387 0 0 1 39.39-39.39z" fill="#6d7486"/><path d="m129.26 340.33a39.39 39.39 0 1 1 -39.39 39.39 39.387 39.387 0 0 1 39.39-39.39z" fill="#6d7486"/><path d="m134.12 202.82v21.5a12.888 12.888 0 0 1 -9.55 12.44l-43.14 11.53-.06-.24v-51.45h46.54a6.212 6.212 0 0 1 6.21 6.22z" fill="#92dddb"/><path d="m81.37 248.05.06.24-63.61 17.01c0-14.1 14.38-46.61 25-68.7h38.55z" fill="#98eae8"/><path d="m83.64 153.42h56.48v20.87h-56.48z" fill="#43a2ff"/><path d="m329.27 115.23v.25h-67.95v-4.59a18.053 18.053 0 0 1 18-18h31.95a18.053 18.053 0 0 1 18 18z" fill="#f9ce8a"/><path d="m315.61 378.72v10.5a12.035 12.035 0 0 1 -12 12h-76.66a12.035 12.035 0 0 1 -12-12v-32.46a12.035 12.035 0 0 1 12-12h76.66a12.035 12.035 0 0 1 12 12z" fill="#b0b5ca"/><path d="m401 370.41a9.31 9.31 0 1 1 -9.32 9.31 9.312 9.312 0 0 1 9.32-9.31z" fill="#fb6771"/><path d="m129.26 370.41a9.31 9.31 0 1 1 -9.32 9.31 9.312 9.312 0 0 1 9.32-9.31z" fill="#fb6771"/><path d="m213.4 213.39v-25.98a72.146 72.146 0 0 1 71.94-71.93h-30a72.146 72.146 0 0 0 -71.94 71.93v25.98a72.145 72.145 0 0 0 71.94 71.94h30a72.145 72.145 0 0 1 -71.94-71.94z" fill="#ffa1af"/><path d="m291.32 115.48v-4.59a18.053 18.053 0 0 1 18-18h-30a18.053 18.053 0 0 0 -18 18v4.59z" fill="#ffe8c2"/><path d="m78.68 184.67a18.789 18.789 0 0 1 16.8-10.38h-30a18.789 18.789 0 0 0 -16.8 10.38c-1.7 3.39-3.7 7.44-5.86 11.93h30c2.16-4.49 4.16-8.54 5.86-11.93z" fill="#94c0ff"/><path d="m47.82 340.99v-75.69a40.451 40.451 0 0 1 1.089-8.314l-31.089 8.314v75.69l.01.14a7.022 7.022 0 0 1 1.38-.14z" fill="#94c0ff"/><path d="m42.36 371.87v-24.03a6.873 6.873 0 0 1 5.47-6.71l-.01-.14h-28.61a7.022 7.022 0 0 0 -1.38.14 6.873 6.873 0 0 0 -5.47 6.71v24.03a6.867 6.867 0 0 0 6.85 6.85h30a6.867 6.867 0 0 1 -6.85-6.85z" fill="#71d4ff"/><path d="m72.82 196.6h-30c-10.62 22.09-25 54.6-25 68.7l31.089-8.314c3.538-16.186 15.035-41.923 23.911-60.386z" fill="#d9fffd"/><path d="m391.61 379.72a39.4 39.4 0 0 1 24.39-36.42 39.39 39.39 0 1 0 0 72.85 39.4 39.4 0 0 1 -24.39-36.43z" fill="#575f72"/><path d="m119.87 379.72a39.4 39.4 0 0 1 24.387-36.42 39.39 39.39 0 1 0 0 72.85 39.4 39.4 0 0 1 -24.387-36.43z" fill="#575f72"/><path d="m244.95 389.22v-32.46a12.035 12.035 0 0 1 12-12h-30a12.035 12.035 0 0 0 -12 12v32.46a12.035 12.035 0 0 0 12 12h30a12.035 12.035 0 0 1 -12-12z" fill="#ccd3df"/><path d="m83.64 153.42h30v20.87h-30z" fill="#71d4ff"/><path d="m428.42 96.061a6 6 0 0 0 -6 6v27.886h-36.585v-27.886a6 6 0 1 0 -12 0v203.459a6 6 0 0 0 12 0v-35.462h36.585v35.462a6 6 0 0 0 12 0v-203.459a6 6 0 0 0 -6-6zm-6 45.886v9.368h-36.585v-9.368zm-36.585 73.475v-9.369h36.585v9.369zm36.585 12v9.369h-36.585v-9.369zm-36.585-33.369v-9.369h36.585v9.369zm0-21.369v-9.369h36.585v9.369zm0 85.374v-9.267h36.585v9.267z" fill="#d4e1f4"/><path d="m344.29 267.47h-71.86l-20 38.05h111.86z" fill="#ccd3df"/><path d="m182.68 305.52v23.35h179.11l.01.01a48.375 48.375 0 0 1 28.88-9.51h21.51a48.351 48.351 0 0 1 28.86 9.5h50.8v-23.35z" fill="#b0b5ca"/><g fill="#43a2e8"><path d="m412.186 313.375h-21.5a54.674 54.674 0 0 0 -54.612 54.611v10.733a6 6 0 0 0 12 0v-10.733a42.659 42.659 0 0 1 42.612-42.611h21.5a42.659 42.659 0 0 1 42.614 42.611v10.733a6 6 0 1 0 12 0v-10.733a54.674 54.674 0 0 0 -54.614-54.611z"/><path d="m138.853 313.375h-21.5a54.674 54.674 0 0 0 -54.611 54.611v10.733a6 6 0 1 0 12 0v-10.733a42.659 42.659 0 0 1 42.611-42.611h21.5a42.659 42.659 0 0 1 42.611 42.611v10.733a6 6 0 0 0 12 0v-10.733a54.674 54.674 0 0 0 -54.611-54.611z"/></g></svg>