<svg id="_01-Car" height="512" viewBox="0 0 64 64" width="512" xmlns="http://www.w3.org/2000/svg" data-name="01-Car"><circle cx="49" cy="44" fill="#adadad" r="3"/><circle cx="12" cy="44" fill="#adadad" r="3"/><path d="m63 37v3h-3v-3z" fill="#c2313c"/><path d="m63 27v6a2.006 2.006 0 0 1 -2 2h-1v-5a37.977 37.977 0 0 0 -.37-5h1.37a2.006 2.006 0 0 1 2 2z" fill="#353a4f"/><path d="m59.63 25a37.977 37.977 0 0 1 .37 5v10h-3a6 6 0 0 0 -6-6h-4a6 6 0 0 0 -6 6h-4l3-8v-15h18a64.043 64.043 0 0 1 1.63 8z" fill="#3892d0"/><path d="m58 15v2h-4v-4h2a2.006 2.006 0 0 1 2 2z" fill="#486da3"/><path d="m57 40-1 2h-2.17l1.53-1.54-2.82-2.82-1.54 1.53v-2.17h-4v2.17l-1.54-1.53-2.82 2.82 1.53 1.54h-2.17v1h-1v-3a6 6 0 0 1 6-6h4a6 6 0 0 1 6 6z" fill="#1a1a1a"/><path d="m56 42v4h-2.17l1.53 1.54-2.82 2.82-1.54-1.53v2.17h-4v-2.17l-1.54 1.53-2.82-2.82 1.53-1.54h-2.17v-4h2.17l-1.53-1.54 2.82-2.82 1.54 1.53v-2.17h4v2.17l1.54-1.53 2.82 2.82-1.53 1.54zm-4 2a3 3 0 1 0 -3 3 3 3 0 0 0 3-3z" fill="#303030"/><path d="m44 13h10v4h-10z" fill="#324f78"/><path d="m44 13v4h-4v-2a2.006 2.006 0 0 1 2-2z" fill="#486da3"/><path d="m41 40v3h-21v-3h2 15z" fill="#353a4f"/><path d="m40 18v14l-3 8h-15v-12l4.45-9.89a2 2 0 0 1 1.79-1.11h11.76z" fill="#3892d0"/><path d="m22 31v9h-2a6 6 0 0 0 -6-6h-4a7.613 7.613 0 0 0 -4.12 1.25 3.617 3.617 0 0 0 -1.88 2.75h-2v-3a4 4 0 0 1 4-4z" fill="#2776ab"/><path d="m22 28v3h-16s11-3 16-3z" fill="#4daae8"/><path d="m20 40v3h-1v-1h-2.17l1.53-1.54-2.82-2.82-1.54 1.53v-2.17h-4v2.17l-1.54-1.53-2.82 2.82 1.53 1.54h-2.17v1h-1v-5a3.617 3.617 0 0 1 1.88-2.75 7.613 7.613 0 0 1 4.12-1.25h4a6 6 0 0 1 6 6z" fill="#1a1a1a"/><path d="m19 43v3h-2.17l1.53 1.54-2.82 2.82-1.54-1.53v2.17h-4v-2.17l-1.54 1.53-2.82-2.82 1.53-1.54h-2.17v-4h2.17l-1.53-1.54 2.82-2.82 1.54 1.53v-2.17h4v2.17l1.54-1.53 2.82 2.82-1.53 1.54h2.17zm-4 1a3 3 0 1 0 -3 3 3 3 0 0 0 3-3z" fill="#303030"/><path d="m4 38v3h-3v-3h1z" fill="#12223b"/><path d="m63 17-4 4h-.06c-.47-2.36-.94-4-.94-4z" fill="#273e5e"/><path d="m57 40-1 2h-1v-1.18l.36-.36-.36-.36v-.1a4 4 0 0 0 -4-4h-4a4 4 0 0 0 -4 4v.1l-.36.36.36.36v1.18h-1v1h-1v-3a6 6 0 0 1 6-6h4a6 6 0 0 1 6 6z" fill="#adadad"/><path d="m20 40v3h-1v-1h-1v-1.18l.36-.36-.36-.36v-.1a4 4 0 0 0 -4-4h-4a4 4 0 0 0 -4 4v.1l-.36.36.36.36v1.18h-1v1h-1v-5a3.617 3.617 0 0 1 1.88-2.75 7.613 7.613 0 0 1 4.12-1.25h4a6 6 0 0 1 6 6z" fill="#adadad"/><path d="m22 40a2 2 0 0 0 2 2h13a2 2 0 0 0 2-2h2v3h-21v-3z" fill="#12223b"/><path d="m40 32-3 8h4a6 6 0 0 1 6-6h4a6 6 0 0 1 6 6h3v-6a50.36 50.36 0 0 1 -20-3.885z" fill="#2d87c4"/><path d="m40 30.115c-6.915-3.036-11.674-7.61-12.757-12.84a2 2 0 0 0 -.793.835l-4.45 9.89v12h15l3-8z" fill="#2d87c4"/><path d="m49 45a2.986 2.986 0 0 1 -2.817-2 3 3 0 1 0 5.634 0 2.986 2.986 0 0 1 -2.817 2z" fill="#8f8f8f"/><path d="m12 45a2.986 2.986 0 0 1 -2.817-2 3 3 0 1 0 5.634 0 2.986 2.986 0 0 1 -2.817 2z" fill="#8f8f8f"/><path d="m63 32v1a2.006 2.006 0 0 1 -2 2h-1v-5a37.977 37.977 0 0 0 -.37-5h1.37v7a1 1 0 0 0 2 0z" fill="#12223b"/><path d="m22 39v1h-2a6 6 0 0 0 -6-6h-4a7.613 7.613 0 0 0 -4.12 1.25 3.617 3.617 0 0 0 -1.88 2.75h-1.91a5.99 5.99 0 0 1 5.91-5h8a6 6 0 0 1 6 6z" fill="#186496"/><path d="m49 40a4 4 0 1 0 4 4 4 4 0 0 0 -4-4zm0 7a3 3 0 1 1 3-3 3 3 0 0 1 -3 3z" fill="#404040"/><path d="m12 40a4 4 0 1 0 4 4 4 4 0 0 0 -4-4zm0 7a3 3 0 1 1 3-3 3 3 0 0 1 -3 3z" fill="#404040"/><path d="m43 40.82v1.18h-1v1h-1v-3a1 1 0 0 0 1 1 .985.985 0 0 0 .79-.39z" fill="#6d6d6d"/><path d="m56.6 40.8-.6 1.2h-1v-1.18l.21-.21a.985.985 0 0 0 .79.39 1.053 1.053 0 0 0 .6-.2z" fill="#6d6d6d"/><path d="m6 40.82v1.18h-1v1h-1v-3a1 1 0 0 0 1 1 .985.985 0 0 0 .79-.39z" fill="#6d6d6d"/><path d="m20 40v3h-1v-1h-1v-1.18l.21-.21a.985.985 0 0 0 .79.39 1 1 0 0 0 1-1z" fill="#6d6d6d"/><path d="m16 35a1 1 0 0 1 -1 1h-6a1 1 0 0 1 -.57-1.82 6.874 6.874 0 0 1 1.57-.18h4a5.836 5.836 0 0 1 1.63.23.972.972 0 0 1 .37.77z" fill="#ccc"/><path d="m53 35a1 1 0 0 1 -1 1h-6a1 1 0 0 1 -1-1 .972.972 0 0 1 .37-.77 5.836 5.836 0 0 1 1.63-.23h4a5.836 5.836 0 0 1 1.63.23.972.972 0 0 1 .37.77z" fill="#ccc"/><path d="m61 37v.3a1.7 1.7 0 0 0 1.7 1.7h.3v1h-3v-3z" fill="#ad313b"/><path d="m40 15h4v2h-4z" fill="#3c5d8c"/><path d="m54 15h4v2h-4z" fill="#3c5d8c"/><g fill="#273e5e"><path d="m44 15h10v2h-10z"/><path d="m58.26 18h-18.26v-1h18s.1.36.26 1z"/><path d="m40 17v1h-13.49a1.991 1.991 0 0 1 1.73-1z"/><rect height="2" rx="1" width="3" x="35" y="28"/></g><path d="m55.99 24.84a1 1 0 0 1 -1 1.16h-10.98a1 1 0 0 1 -1.01-1v-4a1 1 0 0 1 1.01-1h10.3a1 1 0 0 1 1 .84z" fill="#f2f9ff"/><path d="m37 20v6h-11l3-6z" fill="#f2f9ff"/><path d="m45 20h-.99a1 1 0 0 0 -1.01 1v4a1 1 0 0 0 1.01 1h10.98a.992.992 0 0 0 .99-1c-6.071 0-10.98-2.239-10.98-5z" fill="#c2e6ff"/><path d="m29 20-3 6h11v-1c-4.422 0-8-2.236-8-5z" fill="#c2e6ff"/><path d="m39.5 17v14.909l-2.968 7.915a.5.5 0 0 0 -.032.176h1.034l2.934-7.824a.5.5 0 0 0 .032-.176v-15z" fill="#273e5e"/><path d="m54.986 26.5h-10.972a1.509 1.509 0 0 1 -1.514-1.5v-4a1.509 1.509 0 0 1 1.514-1.5h10.3a1.505 1.505 0 0 1 1.486 1.252l.676 4a1.488 1.488 0 0 1 -.333 1.211 1.515 1.515 0 0 1 -1.157.537zm-10.972-6a.507.507 0 0 0 -.514.5v4a.507.507 0 0 0 .514.5h10.972a.515.515 0 0 0 .4-.183.484.484 0 0 0 .11-.4l-.676-4a.509.509 0 0 0 -.507-.419z" fill="#3c5d8c"/><path d="m37 26.5h-11a.5.5 0 0 1 -.447-.724l3-6a.5.5 0 0 1 .447-.276h8a.5.5 0 0 1 .5.5v6a.5.5 0 0 1 -.5.5zm-10.191-1h9.691v-5h-7.191z" fill="#3c5d8c"/></svg>