<svg height="512" viewBox="0 0 64 64" width="512" xmlns="http://www.w3.org/2000/svg"><g id="_02-Car" data-name="02-Car"><path d="m45 46a4.619 4.619 0 0 0 .1.99l-.1.01h-7v-11h7.39a6.783 6.783 0 0 0 5.38-2.67c.7.32 1.31.64 1.83.94a12.623 12.623 0 0 0 6.4 1.73v4h4v7h-8l-.1-.01a4.619 4.619 0 0 0 .1-.99 5 5 0 0 0 -10 0z" fill="#db3744"/><path d="m12 41a5 5 0 0 0 -5 5 4.619 4.619 0 0 0 .1.99l-.1.01h-6v-4.33a3.822 3.822 0 0 1 .06-.68 3.966 3.966 0 0 1 2.57-3.08 48.21 48.21 0 0 1 16.37-2.91h18v11h-21l-.1-.01a4.619 4.619 0 0 0 .1-.99 5 5 0 0 0 -5-5z" fill="#db3744"/><path d="m3.63 38.91a3.966 3.966 0 0 0 -2.57 3.08 3.822 3.822 0 0 0 -.06.68v4.33h62v-3c-23.923 0-44.646-2.617-54.986-6.453a45.818 45.818 0 0 0 -4.384 1.363z" fill="#c2313c"/><path d="m38 31v5h-18s5-5 15-5z" fill="#f2f9ff"/><path d="m50.77 33.33a6.783 6.783 0 0 1 -5.38 2.67h-7.39v-5h1a28.346 28.346 0 0 1 11.77 2.33z" fill="#f2f9ff"/><path d="m63 40h-4v-4a3.995 3.995 0 0 1 4 4z" fill="#8d2830"/><circle cx="12" cy="46" fill="#ccc" r="2"/><circle cx="50" cy="46" fill="#ccc" r="2"/><path d="m14 46a2 2 0 1 0 -2 2 2.006 2.006 0 0 0 2-2zm-2 5a5 5 0 0 1 -4.9-4.01 4.619 4.619 0 0 1 -.1-.99 5 5 0 0 1 10 0 4.619 4.619 0 0 1 -.1.99 5 5 0 0 1 -4.9 4.01z" fill="#404040"/><path d="m52 46a2 2 0 1 0 -2 2 2.006 2.006 0 0 0 2-2zm-2-5a5 5 0 0 1 5 5 4.619 4.619 0 0 1 -.1.99 5 5 0 0 1 -9.8 0 4.619 4.619 0 0 1 -.1-.99 5 5 0 0 1 5-5z" fill="#404040"/><path d="m39 31h-1v5h7.39a6.744 6.744 0 0 0 3.549-1.019c-5.581-.195-9.939-1.9-9.939-3.981z" fill="#c2e6ff"/><path d="m27.409 32.07a18.7 18.7 0 0 0 -7.409 3.93h18v-1c-5.059 0-9.3-1.24-10.591-2.93z" fill="#c2e6ff"/><path d="m61.857 40a3.878 3.878 0 0 0 -2.857-2.857v2.857z" fill="#611a1f"/><path d="m17 46a4.619 4.619 0 0 1 -.1.99 5 5 0 0 1 -9.8 0 4.619 4.619 0 0 1 -.1-.99 5.669 5.669 0 0 1 .1-1.01 5 5 0 0 0 9.8 0 5.669 5.669 0 0 1 .1 1.01z" fill="#303030"/><path d="m55 46a4.619 4.619 0 0 1 -.1.99 5 5 0 0 1 -9.8 0 4.619 4.619 0 0 1 -.1-.99 5.669 5.669 0 0 1 .1-1.01 5 5 0 0 0 9.8 0 5.669 5.669 0 0 1 .1 1.01z" fill="#303030"/><rect fill="#611a1f" height="2" rx="1" width="3" x="33" y="38"/><path d="m50 47a2 2 0 0 1 -1.929-1.5 1.966 1.966 0 0 0 -.071.5 2 2 0 0 0 4 0 1.966 1.966 0 0 0 -.071-.5 2 2 0 0 1 -1.929 1.5z" fill="#adadad"/><path d="m12 47a2 2 0 0 1 -1.929-1.5 1.966 1.966 0 0 0 -.071.5 2 2 0 0 0 4 0 1.966 1.966 0 0 0 -.071-.5 2 2 0 0 1 -1.929 1.5z" fill="#adadad"/><path d="m50.77 33.33a28.346 28.346 0 0 0 -11.77-2.33h-4c-10 0-15 5-15 5-.17 0-.34 0-.5.01a.366.366 0 0 0 .04.18.5.5 0 0 0 .46.31h17.5v10.5h1v-10.5h6.89a7.333 7.333 0 0 0 5.78-2.87.262.262 0 0 0 .05-.09zm-29.36 2.17a23.081 23.081 0 0 1 13.59-4h2.5v4zm23.98 0h-6.89v-4h.5a28.309 28.309 0 0 1 10.95 2.02 6.305 6.305 0 0 1 -4.56 1.98z" fill="#ad313b"/><path d="m7 41-5.94.99a3.966 3.966 0 0 1 2.57-3.08.88.88 0 0 1 .15-.05l.22.14z" fill="#ffd45d"/><path d="m7 41-1.6-1.067a7.541 7.541 0 0 1 -4.031 1.052 3.931 3.931 0 0 0 -.309 1.005z" fill="#f0af4c"/><path d="m63 45v2h-8l-.1-.01a4.619 4.619 0 0 0 .1-.99 4.712 4.712 0 0 0 -.1-1 5 5 0 0 0 -9.8 0 4.712 4.712 0 0 0 -.1 1 4.619 4.619 0 0 0 .1.99l-.1.01h-28l-.1-.01a4.619 4.619 0 0 0 .1-.99 4.712 4.712 0 0 0 -.1-1 5 5 0 0 0 -9.8 0 4.712 4.712 0 0 0 -.1 1 4.619 4.619 0 0 0 .1.99l-.1.01h-6v-2h3.589a1.941 1.941 0 0 0 1.826-1.186 6 6 0 0 1 11.17 0 1.941 1.941 0 0 0 1.826 1.186h23.178a1.941 1.941 0 0 0 1.826-1.186 6 6 0 0 1 11.17 0 1.941 1.941 0 0 0 1.826 1.186z" fill="#8d2830"/></g></svg>