<svg height="512" viewBox="0 0 64 64" width="512" xmlns="http://www.w3.org/2000/svg"><g id="_03-Car" data-name="03-Car"><path d="m59 46h-2a5 5 0 0 0 -5-5c6 0 7 5 7 5z" fill="#614116"/><path d="m63 44a2.015 2.015 0 0 1 -2 2h-2s-1-5-7-5a5 5 0 0 0 -5 5h-4s0-9 9-9a11.637 11.637 0 0 1 7.92 3.06 14.609 14.609 0 0 1 3.08 3.94z" fill="#ffd45d"/><path d="m59.99 39.99-.07.07a11.637 11.637 0 0 0 -7.92-3.06c-9 0-9 9-9 9h-24.75a1.746 1.746 0 0 0 1.75-1.75 1.654 1.654 0 0 0 -.09-.54c-.44-1.38-1.81-7.17-8.91-7.67v-.04a37.463 37.463 0 0 1 8-1l1-3s2-7 11-7h9c12.8 0 19.78 14.53 19.99 14.99zm-12.95-5.99a1.957 1.957 0 0 0 1.05-3.61 14.538 14.538 0 0 0 -7.09-2.39h-.04a1.963 1.963 0 0 0 -1.96 1.96v2.08a1.963 1.963 0 0 0 1.96 1.96zm-12.04-2v-2a1.886 1.886 0 0 0 -1.73-2h-5.72a1.7 1.7 0 0 0 -1.52 1.11l-.85 2c-.56 1.33.26 2.89 1.52 2.89h6.57a1.886 1.886 0 0 0 1.73-2z" fill="#f0af4c"/><path d="m52 41a5 5 0 1 1 -5 5 5 5 0 0 1 5-5zm2 5a2 2 0 1 0 -2 2 2.006 2.006 0 0 0 2-2z" fill="#404040"/><circle cx="52" cy="46" fill="#ccc" r="2"/><path d="m49 32.04a1.963 1.963 0 0 1 -1.96 1.96h-6.08a1.963 1.963 0 0 1 -1.96-1.96v-2.08a1.963 1.963 0 0 1 1.96-1.96h.04a14.538 14.538 0 0 1 7.09 2.39 1.946 1.946 0 0 1 .91 1.65z" fill="#f2f9ff"/><path d="m35 30v2a1.886 1.886 0 0 1 -1.73 2h-6.57c-1.26 0-2.08-1.56-1.52-2.89l.85-2a1.7 1.7 0 0 1 1.52-1.11h5.72a1.886 1.886 0 0 1 1.73 2z" fill="#f2f9ff"/><path d="m48.75 32.99a1.961 1.961 0 0 1 -1.71 1.01h-6.08a1.963 1.963 0 0 1 -1.96-1.96v-2.08a1.933 1.933 0 0 1 1.01-1.7c.24 2.59 4.04 4.67 8.74 4.73z" fill="#c2e6ff"/><path d="m34.76 32.99a1.688 1.688 0 0 1 -1.49 1.01h-6.57c-1.26 0-2.08-1.56-1.52-2.89l.85-2a1.831 1.831 0 0 1 .97-1c.09 2.66 3.51 4.81 7.76 4.88z" fill="#c2e6ff"/><path d="m20 32-1 3a37.463 37.463 0 0 0 -8 1v.04c-.32-.03-.65-.04-1-.04a9.978 9.978 0 0 0 -1.96.18l-.04-.18s2-4 12-4z" fill="#ffd45d"/><path d="m19.91 43.71a1.654 1.654 0 0 1 .09.54 1.746 1.746 0 0 1 -1.75 1.75h-4.25a5 5 0 0 0 -10 0h-3s0-8.49 7.04-9.82a9.978 9.978 0 0 1 1.96-.18c.35 0 .68.01 1 .04 7.1.5 8.47 6.29 8.91 7.67z" fill="#ffd45d"/><path d="m9 41a5 5 0 1 1 -5 5 5 5 0 0 1 5-5zm2 5a2 2 0 1 0 -2 2 2.006 2.006 0 0 0 2-2z" fill="#404040"/><circle cx="9" cy="46" fill="#ccc" r="2"/><g fill="#f0af4c"><path d="m20 32-1 3a37.463 37.463 0 0 0 -8 1v.04c-.32-.03-.65-.04-1-.04a9.978 9.978 0 0 0 -1.96.18l-.04-.18a.01.01 0 0 0 .01-.01c1.91-1.27 5.04-1.73 7.06-1.89a2.991 2.991 0 0 0 2.57-2.02c.73-.05 1.52-.08 2.36-.08z"/><path d="m63 44a2.015 2.015 0 0 1 -2 2h-2s-1-5-7-5a5 5 0 0 0 -5 5h-4a11.074 11.074 0 0 1 .52-3h1.189a1.937 1.937 0 0 0 1.709-1.116 5.275 5.275 0 0 1 4.702-2.884h.88a9.993 9.993 0 0 1 8 4h2.42c.27.42.46.77.58 1z"/><path d="m20 44.25a1.746 1.746 0 0 1 -1.75 1.75h-4.25a5 5 0 0 0 -10 0h-3a13.422 13.422 0 0 1 .43-3h1.57a4.021 4.021 0 0 1 1.5-2.38 6.742 6.742 0 0 1 4.5-1.62h2a5.726 5.726 0 0 1 4.53 2.443 3.1 3.1 0 0 0 2.61 1.557h1.55c.1.3.17.54.22.71a1.654 1.654 0 0 1 .09.54z"/></g><rect fill="#9b6b2b" height="2" rx="1" width="3" x="32" y="36"/><path d="m21.369 29.426a9.3 9.3 0 0 0 -1.369 2.574l-1 3a37.463 37.463 0 0 0 -8 1v.04c7.1.5 8.47 6.29 8.91 7.67a1.654 1.654 0 0 1 .09.54 1.746 1.746 0 0 1 -1.75 1.75h24.75a11.394 11.394 0 0 1 1.011-4.242c-11.625-1.118-20.745-6.07-22.642-12.332z" fill="#d79d44"/><path d="m59.99 39.99-.07.07a11.637 11.637 0 0 0 -7.92-3.06c-9 0-9 9-9 9h-24.75a1.746 1.746 0 0 0 1.75-1.75 1.654 1.654 0 0 0 -.09-.54c-.44-1.38-1.81-7.17-8.91-7.67v-.04a35.292 35.292 0 0 1 4.73-.81c2.86 1.37 4.88 3.95 6.02 7.69l.06.21a3.967 3.967 0 0 1 .18.91h13.85a7.978 7.978 0 0 0 6.83-4.058c1.574-2.666 4.443-4.942 9.33-4.942a13.643 13.643 0 0 1 5.83 1.29v.01a32.324 32.324 0 0 1 2.16 3.69z" fill="#bd8836"/><path d="m14 46a4.619 4.619 0 0 1 -.1.99 5 5 0 0 1 -9.8 0 4.619 4.619 0 0 1 -.1-.99 5.669 5.669 0 0 1 .1-1.01 5 5 0 0 0 9.8 0 5.669 5.669 0 0 1 .1 1.01z" fill="#303030"/><path d="m9 47a2 2 0 0 1 -1.929-1.5 1.966 1.966 0 0 0 -.071.5 2 2 0 0 0 4 0 1.966 1.966 0 0 0 -.071-.5 2 2 0 0 1 -1.929 1.5z" fill="#adadad"/><path d="m57 46a4.619 4.619 0 0 1 -.1.99 5 5 0 0 1 -9.8 0 4.619 4.619 0 0 1 -.1-.99 5.669 5.669 0 0 1 .1-1.01 5 5 0 0 0 9.8 0 5.669 5.669 0 0 1 .1 1.01z" fill="#303030"/><path d="m52 47a2 2 0 0 1 -1.929-1.5 1.966 1.966 0 0 0 -.071.5 2 2 0 0 0 4 0 1.966 1.966 0 0 0 -.071-.5 2 2 0 0 1 -1.929 1.5z" fill="#adadad"/><path d="m33.27 34.5h-6.57a2.1 2.1 0 0 1 -1.751-.988 2.79 2.79 0 0 1 -.23-2.6l.85-2a2.209 2.209 0 0 1 1.981-1.412h5.72a2.379 2.379 0 0 1 2.23 2.5v2a2.379 2.379 0 0 1 -2.23 2.5zm-7.629-3.2a1.778 1.778 0 0 0 .141 1.655 1.12 1.12 0 0 0 .918.541h6.57a1.4 1.4 0 0 0 1.23-1.496v-2a1.4 1.4 0 0 0 -1.23-1.5h-5.72a1.217 1.217 0 0 0 -1.06.806z" fill="#9b6b2b"/><path d="m47.04 34.5h-6.08a2.463 2.463 0 0 1 -2.46-2.46v-2.08a2.463 2.463 0 0 1 2.46-2.46h.04a14.976 14.976 0 0 1 7.354 2.466 2.438 2.438 0 0 1 1.146 2.074 2.463 2.463 0 0 1 -2.46 2.46zm-6.08-6a1.462 1.462 0 0 0 -1.46 1.46v2.08a1.462 1.462 0 0 0 1.46 1.46h6.08a1.462 1.462 0 0 0 1.46-1.46 1.444 1.444 0 0 0 -.677-1.227 13.989 13.989 0 0 0 -6.823-2.313z" fill="#9b6b2b"/></g></svg>