<svg height="512" viewBox="0 0 64 64" width="512" xmlns="http://www.w3.org/2000/svg"><g id="_04-Car" data-name="04-Car"><path d="m62 38v-7s-2-6-5-6h-26c-9 0-16 8-16 8a28.109 28.109 0 0 0 -9.2 1.39 13.349 13.349 0 0 0 -4.8 2.61v1 6a2.022 2.022 0 0 0 1.01 1.74 1.95 1.95 0 0 0 .99.26h2a5 5 0 0 1 10 0h31a5 5 0 0 1 10 0h3.59a3.414 3.414 0 0 0 3.41-3.41v-2.18a3.415 3.415 0 0 0 -1-2.41z" fill="#575757"/><path d="m57 29v1c0 3-8 3-8 3s-2-7-3-8h8a4.373 4.373 0 0 1 3 4z" fill="#f2f9ff"/><path d="m49 33h-15v-8h12c1 1 3 8 3 8z" fill="#f2f9ff"/><path d="m34 25v8h-15s7-8 12-8z" fill="#f2f9ff"/><path d="m5.8 34.39-1.8 3.61h-3v-1a13.349 13.349 0 0 1 4.8-2.61z" fill="#ffd45d"/><path d="m62 32v4h-2l-1-4z" fill="#db3744"/><circle cx="10" cy="46" fill="#ccc" r="2"/><circle cx="51" cy="46" fill="#ccc" r="2"/><path d="m12 46a2 2 0 1 0 -2 2 2.006 2.006 0 0 0 2-2zm-2-5a5 5 0 1 1 -5 5 5 5 0 0 1 5-5z" fill="#404040"/><path d="m46 46a5 5 0 1 1 5 5 5 5 0 0 1 -5-5zm5-2a2 2 0 1 0 2 2 2.006 2.006 0 0 0 -2-2z" fill="#404040"/><path d="m63 40.41v2.18a3.414 3.414 0 0 1 -3.41 3.41h-.59s0-4.86-3.78-7h4.78l2-1a3.415 3.415 0 0 1 1 2.41z" fill="#404040"/><path d="m25.468 27.218a39.987 39.987 0 0 0 -6.468 5.782h15v-1c-3.977 0-7.34-2-8.532-4.782z" fill="#c2e6ff"/><path d="m35 25h-1v8h15s-.114-.4-.3-1.008c-7.6-.079-13.7-3.173-13.7-6.992z" fill="#c2e6ff"/><path d="m48 25h-2c1 1 3 8 3 8s4.575 0 6.8-1.3c-4.514-.872-7.8-3.539-7.8-6.7z" fill="#c2e6ff"/><path d="m55.22 39a8.4 8.4 0 0 0 -4.22-1 7.284 7.284 0 0 0 -6.371 2.964c-13.129-.351-24.257-3.588-29.465-8.144l-.164.18a28.109 28.109 0 0 0 -9.2 1.39l-1.8 3.61h-3v6a2.022 2.022 0 0 0 1.01 1.74 1.95 1.95 0 0 0 .99.26h2a5 5 0 0 1 10 0h31a5 5 0 0 1 10 0h3s0-4.86-3.78-7z" fill="#4a4a4a"/><path d="m55.22 39a8.4 8.4 0 0 0 -4.22-1c-4.676 0-6.61 2.729-7.417 5h-26.166c-.807-2.271-2.741-5-7.417-5-7.14 0-7.91 6.38-7.99 7.74a1.95 1.95 0 0 0 .99.26h2a5 5 0 0 1 10 0h31a5 5 0 0 1 10 0h3s0-4.86-3.78-7z" fill="#303030"/><path d="m5.8 34.39a13.349 13.349 0 0 0 -4.8 2.61v1a12.988 12.988 0 0 1 4.184-2.375z" fill="#faf180"/><path d="m60.714 33.856-.464-1.856h-1.25l1 4h2v-1.03a1.5 1.5 0 0 1 -1.286-1.114z" fill="#ad313b"/><path d="m56 46a4.619 4.619 0 0 1 -.1.99 5 5 0 0 1 -9.8 0 4.619 4.619 0 0 1 -.1-.99 5.669 5.669 0 0 1 .1-1.01 5 5 0 0 0 9.8 0 5.669 5.669 0 0 1 .1 1.01z" fill="#303030"/><path d="m51 47a2 2 0 0 1 -1.929-1.5 1.966 1.966 0 0 0 -.071.5 2 2 0 0 0 4 0 1.966 1.966 0 0 0 -.071-.5 2 2 0 0 1 -1.929 1.5z" fill="#adadad"/><path d="m15 46a4.619 4.619 0 0 1 -.1.99 5 5 0 0 1 -9.8 0 4.619 4.619 0 0 1 -.1-.99 5.669 5.669 0 0 1 .1-1.01 5 5 0 0 0 9.8 0 5.669 5.669 0 0 1 .1 1.01z" fill="#303030"/><path d="m10 47a2 2 0 0 1 -1.929-1.5 1.966 1.966 0 0 0 -.071.5 2 2 0 0 0 4 0 1.966 1.966 0 0 0 -.071-.5 2 2 0 0 1 -1.929 1.5z" fill="#adadad"/><g fill="#212121"><rect height="2" rx="1" width="3" x="29" y="35"/><rect height="2" rx="1" width="3" x="44" y="35"/><path d="m61.41 43a1.593 1.593 0 0 1 -1.55-1.23 4.261 4.261 0 0 0 -2.1-2.77h-2.54a7.622 7.622 0 0 1 3.5 5h-.258a1.937 1.937 0 0 1 -1.734-1.19 5.581 5.581 0 0 0 -4.728-2.81h-2a5.881 5.881 0 0 0 -3.33 1.17 4.484 4.484 0 0 0 -1.4 1.644 1.936 1.936 0 0 1 -1.728 1.186h-.272a9.69 9.69 0 0 0 -.27 2h3a5 5 0 0 1 10 0h3.59a3.414 3.414 0 0 0 3.41-3.41v-1.18a1.588 1.588 0 0 1 -1.59 1.59z"/><path d="m18 46h-3a5 5 0 0 0 -10 0h-2a1.95 1.95 0 0 1 -.99-.26 9.906 9.906 0 0 1 .27-1.74h.261a1.936 1.936 0 0 0 1.732-1.186 4.484 4.484 0 0 1 1.4-1.644 5.881 5.881 0 0 1 3.327-1.17h2a5.581 5.581 0 0 1 4.728 2.81 1.939 1.939 0 0 0 1.734 1.19h.268a9.69 9.69 0 0 1 .27 2z"/></g><path d="m34.5 25.5v7h13.834a39.63 39.63 0 0 0 -2.569-7z" fill="none"/><path d="m53.92 25.5h-7.02a52.225 52.225 0 0 1 2.472 6.995c2.2-.054 7.126-.573 7.126-2.495v-1a3.844 3.844 0 0 0 -2.578-3.5z" fill="none"/><path d="m20.14 32.5h13.36v-7h-2.5c-3.78 0-8.93 4.99-10.86 7z" fill="none"/><path d="m55.17 25h-24.17a15.978 15.978 0 0 0 -3.27.34h-.02c-4.41 2.04-8.85 7.07-9.09 7.33a.5.5 0 0 0 .38.83h14.5v12.5h1v-12.5h14.5c.87 0 8.5-.1 8.5-3.5v-1a4.857 4.857 0 0 0 -2.33-4zm-21.67 7.5h-13.36c1.93-2.01 7.08-7 10.86-7h2.5zm1 0v-7h11.265a39.63 39.63 0 0 1 2.569 7zm22-2.5c0 1.922-4.926 2.441-7.126 2.495a52.225 52.225 0 0 0 -2.474-6.995h7.02a3.844 3.844 0 0 1 2.58 3.5z" fill="#303030"/></g></svg>