<svg height="512" viewBox="0 0 64 64" width="512" xmlns="http://www.w3.org/2000/svg"><g id="_05-Pickup_truck" data-name="05-Pickup truck"><circle cx="49" cy="46" fill="#ccc" r="1"/><circle cx="12" cy="46" fill="#ccc" r="1"/><path d="m4.94 36.26-.94 3.74h-2.86l-.14-1v-2s1.55-.34 3.94-.74z" fill="#ffd45d"/><path d="m59 36h3v3h-3z" fill="#db3744"/><path d="m49 47a1 1 0 1 0 -1-1 1 1 0 0 0 1 1zm0-5a4 4 0 1 1 -4 4 4 4 0 0 1 4-4z" fill="#404040"/><path d="m12 47a1 1 0 1 0 -1-1 1 1 0 0 0 1 1zm0-5a4 4 0 1 1 -4 4 4 4 0 0 1 4-4z" fill="#404040"/><path d="m25 28-4 7h-3l3.42-5.99a2 2 0 0 1 1.74-1.01z" fill="#f2f9ff"/><path d="m12 39c7 0 7 7 7 7h-3a4 4 0 0 0 -8 0h-3s0-7 7-7z" fill="#59adbd"/><path d="m49 39c7 0 7 7 7 7h-3a4 4 0 0 0 -8 0h-3s0-7 7-7z" fill="#59adbd"/><path d="m37 36v10h-18s0-7-7-7-7 7-7 7h-3l-.86-6h2.86l.94-3.74a81.213 81.213 0 0 1 13.06-1.26h3l4-7h3l-4 7h10v-7h1a2.006 2.006 0 0 1 2 2z" fill="#428f9e"/><path d="m37 36h22v3h3v4h1v3h-7s0-7-7-7-7 7-7 7h-5z" fill="#3b8391"/><path d="m4.631 37.488.309-1.228c-2.39.4-3.94.74-3.94.74v2l.14 1h.86v-2s1.006-.22 2.631-.512z" fill="#faf180"/><path d="m34 28v7h-10l4-7z" fill="#f2f9ff"/><path d="m37 43v3h-18s0-7-7-7-7 7-7 7h-3l-.86-6h2.86l.94-3.74c1.69-.29 3.81-.61 6.09-.85a3.756 3.756 0 0 0 1.28 2.1 16.938 16.938 0 0 0 6.51 3.21 65.754 65.754 0 0 0 18.18 2.28z" fill="#3b8391"/><rect fill="#2d646e" height="2" rx="1" width="3" x="31" y="37"/><path d="m18 35h3l1.233-2.157a7.757 7.757 0 0 1 -1.127-3.283z" fill="#c2e6ff"/><path d="m27.217 29.37-3.217 5.63h10v-1.052c-3.339-.312-6.031-2.162-6.783-4.578z" fill="#c2e6ff"/><path d="m48 41h2a4.761 4.761 0 0 1 3.675 1.935 2.351 2.351 0 0 0 2.012 1.065 6.382 6.382 0 0 0 -6.687-5 6.382 6.382 0 0 0 -6.687 5 2.351 2.351 0 0 0 2.012-1.065 4.761 4.761 0 0 1 3.675-1.935z" fill="#62bfd1"/><path d="m11 41h2a4.761 4.761 0 0 1 3.675 1.935 2.351 2.351 0 0 0 2.012 1.065 6.382 6.382 0 0 0 -6.687-5 6.382 6.382 0 0 0 -6.687 5 2.351 2.351 0 0 0 2.012-1.065 4.761 4.761 0 0 1 3.675-1.935z" fill="#62bfd1"/><path d="m57 43s0-5-8-5c-7 0-8 4-8 4h-1v-6h-3v10h5s0-7 7-7 7 7 7 7h7v-3z" fill="#33717d"/><path d="m60 36v1a1 1 0 0 0 1 1h1v1h-3v-3z" fill="#ad313b"/><path d="m35 28h-10l-.571 1h9.571a1 1 0 0 1 1 1v5a1 1 0 0 0 1 1h1v-6a2.006 2.006 0 0 0 -2-2z" fill="#62bfd1"/><g fill="#303030"><path d="m12 48a3.989 3.989 0 0 1 -3.859-3 4 4 0 1 0 7.718 0 3.989 3.989 0 0 1 -3.859 3z"/><path d="m49 48a3.989 3.989 0 0 1 -3.859-3 4 4 0 1 0 7.718 0 3.989 3.989 0 0 1 -3.859 3z"/></g></g></svg>