<svg height="512" viewBox="0 0 64 64" width="512" xmlns="http://www.w3.org/2000/svg"><g id="_06-Van" data-name="06-Van"><path d="m44 41h3a4.981 4.981 0 0 0 -1.9 3.02l-.1-.02h-2z" fill="#12223b"/><path d="m56 41 1 3h-2.11a4.949 4.949 0 0 0 -1.89-3z" fill="#12223b"/><path d="m30 18h22v4h-22z" fill="#3c5d8c"/><g fill="#f2f9ff"><rect height="4" rx="1" width="6" x="50" y="25"/><rect height="4" rx="1" width="6" x="41" y="25"/><rect height="4" rx="1" width="6" x="32" y="25"/><rect height="4" rx="1" width="6" x="23" y="25"/><path d="m20 25.8v2.4a.906.906 0 0 1 -.98.8h-9.04c-.76 0-1.23-.68-.84-1.21l1.76-2.4a1.055 1.055 0 0 1 .84-.39h7.28a.906.906 0 0 1 .98.8z"/></g><path d="m54 22c1.54 0 2.81 1.35 3.77 3h-49.77l-.42-.34c.18-.21.35-.4.51-.59a6.014 6.014 0 0 1 4.54-2.07z" fill="#5a80b8"/><path d="m59.99 32h-48.99a8.613 8.613 0 0 0 -8 5v-4c0-2.42 2.56-5.93 4.58-8.34l.42.34h3.74a1.055 1.055 0 0 0 -.84.39l-1.76 2.4c-.39.53.08 1.21.84 1.21h9.04a.906.906 0 0 0 .98-.8v-2.4a.906.906 0 0 0 -.98-.8h4.98a1 1 0 0 0 -1 1v2a1 1 0 0 0 1 1h4a1 1 0 0 0 1-1v-2a1 1 0 0 0 -1-1h5a1 1 0 0 0 -1 1v2a1 1 0 0 0 1 1h4a1 1 0 0 0 1-1v-2a1 1 0 0 0 -1-1h5a1 1 0 0 0 -1 1v2a1 1 0 0 0 1 1h4a1 1 0 0 0 1-1v-2a1 1 0 0 0 -1-1h5a1 1 0 0 0 -1 1v2a1 1 0 0 0 1 1h4a1 1 0 0 0 1-1v-2a1 1 0 0 0 -1-1h2.77a20.877 20.877 0 0 1 1.88 4.62 9.183 9.183 0 0 1 .34 2.38z" fill="#f0f0f0"/><path d="m3 41h9a5.015 5.015 0 0 0 -1.9 3.01l-.1-.01h-9v-3z" fill="#e3e3e3"/><rect fill="#404040" height="7" rx="1" width="3" x="60" y="32"/><path d="m61 41v3h-4l-1-3h-12l-1 3h-21v-12h37.99a2.09 2.09 0 0 1 .01.25v8.75z" fill="#3c5d8c"/><path d="m54.89 44a4.144 4.144 0 0 1 .11 1 5 5 0 0 1 -10 0 4.526 4.526 0 0 1 .1-.98 4.981 4.981 0 0 1 1.9-3.02h6a4.949 4.949 0 0 1 1.89 3zm-2.89 1a2 2 0 1 0 -2 2 2.006 2.006 0 0 0 2-2z" fill="#404040"/><circle cx="50" cy="45" fill="#ccc" r="2"/><path d="m22 32v12h-2l-.1.01a5 5 0 0 0 -4.9-4.01 4.941 4.941 0 0 0 -3 1h-9v-4a8.613 8.613 0 0 1 8-5z" fill="#3c5d8c"/><path d="m11.14 32h-.14a8.613 8.613 0 0 0 -8 5v-4c0-2.23 2.17-5.38 4.09-7.75a11.605 11.605 0 0 0 4.05 6.75z" fill="#e3e3e3"/><path d="m61 41v3h-4l-1-3h-12l-1 3h-21v-6.29a54.532 54.532 0 0 0 16 2.29h22v1z" fill="#273e5e"/><path d="m22 37.71v6.29h-2l-.1.01a5 5 0 0 0 -4.9-4.01 4.941 4.941 0 0 0 -3 1h-9v-4a8.613 8.613 0 0 1 8-5h.14a29.639 29.639 0 0 0 10.86 5.71z" fill="#273e5e"/><path d="m19.9 44.01a4.619 4.619 0 0 1 .1.99 5 5 0 0 1 -10 0 4.619 4.619 0 0 1 .1-.99 5.015 5.015 0 0 1 1.9-3.01 4.941 4.941 0 0 1 3-1 5 5 0 0 1 4.9 4.01zm-2.9.99a2 2 0 1 0 -2 2 2.006 2.006 0 0 0 2-2z" fill="#404040"/><circle cx="15" cy="45" fill="#ccc" r="2"/><path d="m12 25h-.26a1.055 1.055 0 0 0 -.84.39l-1.76 2.4c-.39.53.08 1.21.84 1.21h9.04a.906.906 0 0 0 .98-.8v-.2c-4.422 0-8-1.342-8-3z" fill="#c2e6ff"/><path d="m24 25a1 1 0 0 0 -1 1v2a1 1 0 0 0 1 1h4a1 1 0 0 0 1-1c-2.764 0-5-1.342-5-3z" fill="#c2e6ff"/><path d="m33 25a1 1 0 0 0 -1 1v2a1 1 0 0 0 1 1h4a1 1 0 0 0 1-1c-2.764 0-5-1.342-5-3z" fill="#c2e6ff"/><path d="m42 25a1 1 0 0 0 -1 1v2a1 1 0 0 0 1 1h4a1 1 0 0 0 1-1c-2.764 0-5-1.342-5-3z" fill="#c2e6ff"/><path d="m51 25a1 1 0 0 0 -1 1v2a1 1 0 0 0 1 1h4a1 1 0 0 0 1-1c-2.764 0-5-1.342-5-3z" fill="#c2e6ff"/><path d="m21 32h2v12h-2z" fill="#e3e3e3"/><rect fill="#e3e3e3" height="2" rx="1" width="3" x="17" y="34"/><circle cx="6" cy="38" fill="#ffd45d" r="1"/><path d="m34 22a2 2 0 0 1 2-2h16v-2h-22v4z" fill="#273e5e"/><rect fill="#ccc" height="2" rx="1" width="28" x="27" y="17"/><path d="m28 19h26a1 1 0 0 0 1-1h-28a1 1 0 0 0 1 1z" fill="#adadad"/><path d="m62 37a1 1 0 0 1 -1-1v-4a1 1 0 0 0 -1 1v5a1 1 0 0 0 1 1h1a1 1 0 0 0 1-1v-2a1 1 0 0 1 -1 1z" fill="#292929"/><path d="m20 45a4.619 4.619 0 0 1 -.1.99 5 5 0 0 1 -9.8 0 4.619 4.619 0 0 1 -.1-.99 5.669 5.669 0 0 1 .1-1.01 5 5 0 0 0 9.8 0 5.669 5.669 0 0 1 .1 1.01z" fill="#303030"/><path d="m15 46a2 2 0 0 1 -1.929-1.5 1.966 1.966 0 0 0 -.071.5 2 2 0 0 0 4 0 1.966 1.966 0 0 0 -.071-.5 2 2 0 0 1 -1.929 1.5z" fill="#adadad"/><path d="m55 45a4.619 4.619 0 0 1 -.1.99 5 5 0 0 1 -9.8 0 4.619 4.619 0 0 1 -.1-.99 5.669 5.669 0 0 1 .1-1.01 5 5 0 0 0 9.8 0 5.669 5.669 0 0 1 .1 1.01z" fill="#303030"/><path d="m50 46a2 2 0 0 1 -1.929-1.5 1.966 1.966 0 0 0 -.071.5 2 2 0 0 0 4 0 1.966 1.966 0 0 0 -.071-.5 2 2 0 0 1 -1.929 1.5z" fill="#adadad"/><path d="m8.158 24c-.022.024-.047.045-.068.07-.16.19-.33.38-.51.59l.42.34h49.77a11.15 11.15 0 0 0 -.659-1z" fill="#273e5e"/><path d="m8 41a2 2 0 0 1 -2 2h-5v1h9l.1.01a5.015 5.015 0 0 1 1.9-3.01z" fill="#ccc"/><path d="m28 29.5h-4a1.5 1.5 0 0 1 -1.5-1.5v-2a1.5 1.5 0 0 1 1.5-1.5h4a1.5 1.5 0 0 1 1.5 1.5v2a1.5 1.5 0 0 1 -1.5 1.5zm-4-4a.5.5 0 0 0 -.5.5v2a.5.5 0 0 0 .5.5h4a.5.5 0 0 0 .5-.5v-2a.5.5 0 0 0 -.5-.5z" fill="#273e5e"/><path d="m19.02 24.5h-7.28a1.545 1.545 0 0 0 -1.243.594l-1.76 2.4a1.163 1.163 0 0 0 -.109 1.235 1.482 1.482 0 0 0 1.352.771h9.04a1.4 1.4 0 0 0 1.48-1.3v-2.4a1.4 1.4 0 0 0 -1.48-1.3zm.48 3.7c0 .142-.2.3-.48.3h-9.04a.5.5 0 0 1 -.459-.223.162.162 0 0 1 .022-.191l1.758-2.4a.566.566 0 0 1 .439-.189h7.28c.275 0 .48.158.48.3z" fill="#273e5e"/><path d="m37 29.5h-4a1.5 1.5 0 0 1 -1.5-1.5v-2a1.5 1.5 0 0 1 1.5-1.5h4a1.5 1.5 0 0 1 1.5 1.5v2a1.5 1.5 0 0 1 -1.5 1.5zm-4-4a.5.5 0 0 0 -.5.5v2a.5.5 0 0 0 .5.5h4a.5.5 0 0 0 .5-.5v-2a.5.5 0 0 0 -.5-.5z" fill="#273e5e"/><path d="m46 29.5h-4a1.5 1.5 0 0 1 -1.5-1.5v-2a1.5 1.5 0 0 1 1.5-1.5h4a1.5 1.5 0 0 1 1.5 1.5v2a1.5 1.5 0 0 1 -1.5 1.5zm-4-4a.5.5 0 0 0 -.5.5v2a.5.5 0 0 0 .5.5h4a.5.5 0 0 0 .5-.5v-2a.5.5 0 0 0 -.5-.5z" fill="#273e5e"/><path d="m55 29.5h-4a1.5 1.5 0 0 1 -1.5-1.5v-2a1.5 1.5 0 0 1 1.5-1.5h4a1.5 1.5 0 0 1 1.5 1.5v2a1.5 1.5 0 0 1 -1.5 1.5zm-4-4a.5.5 0 0 0 -.5.5v2a.5.5 0 0 0 .5.5h4a.5.5 0 0 0 .5-.5v-2a.5.5 0 0 0 -.5-.5z" fill="#273e5e"/><path d="m57 44-1-3h-12l-1 3h-1l.621-2.485a2 2 0 0 1 1.941-1.515h10.876a2 2 0 0 1 1.941 1.515l.621 2.485z" fill="#f0f0f0"/><path d="m60 41h1v3h-1z" fill="#db3744"/></g></svg>