<svg height="512" viewBox="0 0 64 64" width="512" xmlns="http://www.w3.org/2000/svg"><g id="_07-Hearse" data-name="07-Hearse"><path d="m62.92 42a6.849 6.849 0 0 1 .08 1 3.995 3.995 0 0 1 -4 4h-4l-.16-.06a2.653 2.653 0 0 0 .16-.94 3 3 0 0 0 -6 0 2.653 2.653 0 0 0 .16.94l-.16.06h-36l-.16-.06a2.653 2.653 0 0 0 .16-.94 3 3 0 0 0 -6 0 2.653 2.653 0 0 0 .16.94l-.16.06h-4a2.006 2.006 0 0 1 -2-2v-2h3v-4l-.03-.1a34.341 34.341 0 0 1 10.03-1.9s3.73-3.73 13.63-5.3l.37 2.3v.04c-4.88.46-11 3.96-11 3.96h23v-4h.94a2.632 2.632 0 0 1 2.56 2 2.632 2.632 0 0 0 2.56 2h13.94v4z" fill="#575757"/><path d="m62.92 42h-2.92v-4h1.6a13.6 13.6 0 0 1 1.32 4z" fill="#c2313c"/><path d="m58 38h-11.94a2.632 2.632 0 0 1 -2.56-2 2.632 2.632 0 0 0 -2.56-2h-11.94c-.33 0-.66.02-1 .04v-.04l-.37-2.3a58.782 58.782 0 0 1 9.37-.7h15.98a7.97 7.97 0 0 1 6.65 3.54 29.229 29.229 0 0 1 1.97 3.46z" fill="#363636"/><path d="m40 34v4h-12v-3.96c.34-.02.67-.04 1-.04z" fill="#f2f9ff"/><path d="m28 34.04v3.96h-11s6.12-3.5 11-3.96z" fill="#f2f9ff"/><path d="m4 39v4h-3v-1.64a2 2 0 0 1 1.3-1.87c.46-.17 1.02-.37 1.67-.59z" fill="#f0af4c"/><circle cx="52" cy="46" fill="#adadad" r="3"/><circle cx="10" cy="46" fill="#adadad" r="3"/><path d="m62.87 44a4.078 4.078 0 0 1 -1.04 1.83 4.025 4.025 0 0 1 -2.83 1.17h-4l-.16-.06a2.653 2.653 0 0 0 .16-.94 2.965 2.965 0 0 0 -.77-2z" fill="#404040"/><path d="m49 46a2.653 2.653 0 0 0 .16.94l-.16.06h-36l-.16-.06a2.653 2.653 0 0 0 .16-.94 3 3 0 0 0 -6 0 2.653 2.653 0 0 0 .16.94l-.16.06h-4a2.006 2.006 0 0 1 -2-2v-2h3v-4l-.03-.1c1.21-.39 2.71-.84 4.33-1.2 1.32 3.6 6.74 6.3 13.23 6.3h28.24a2.965 2.965 0 0 0 -.77 2z" fill="#404040"/><path d="m61.6 38h-1a13.6 13.6 0 0 1 1.32 4h1a13.6 13.6 0 0 0 -1.32-4z" fill="#f24754"/><path d="m61.6 38h-15.54a2.632 2.632 0 0 1 -2.56-2 2.632 2.632 0 0 0 -2.56-2h-11.94c-.33 0-.66.02-1 .04v-.04l-.37-2.3c1.15-.19 2.39-.34 3.72-.46a1.03 1.03 0 0 0 -.35.76 1 1 0 0 0 1 1h11.2a3.359 3.359 0 0 1 2.8 1.5 3.359 3.359 0 0 0 2.8 1.5h11.73a22.434 22.434 0 0 1 1.07 2z" fill="#292929"/><path d="m3.3 40.49c.211-.078.448-.164.7-.253v-1.237l-.03-.1c-.65.22-1.21.42-1.67.59a2 2 0 0 0 -1.3 1.87v1.64h1v-.64a2 2 0 0 1 1.3-1.87z" fill="#ffd45d"/><rect fill="#212121" height="2" rx="1" width="3" x="24" y="40"/><rect fill="#212121" height="2" rx="1" width="3" x="36" y="40"/><path d="m56 36.884a.5.5 0 0 1 -.147-.022l-11-3.384a.5.5 0 0 1 .294-.956l11 3.384a.5.5 0 0 1 -.147.978z" fill="#212121"/><g fill="#363636"><path d="m52 43a3 3 0 1 0 3 3 3 3 0 0 0 -3-3zm0 5a2 2 0 1 1 2-2 2 2 0 0 1 -2 2z"/><path d="m10 43a3 3 0 1 0 3 3 3 3 0 0 0 -3-3zm0 5a2 2 0 1 1 2-2 2 2 0 0 1 -2 2z"/><path d="m61.64 46a4 4 0 0 1 -2.64 1h-4l-.16-.06a2.653 2.653 0 0 0 .16-.94z"/><path d="m7.16 46.94-.16.06h-4a2 2 0 0 1 -1.73-1h5.73a2.653 2.653 0 0 0 .16.94z"/><path d="m49.16 46.94-.16.06h-36l-.16-.06a2.653 2.653 0 0 0 .16-.94h36a2.653 2.653 0 0 0 .16.94z"/></g><path d="m29.36 34h-.36c-.33 0-.66.02-1 .04v3.96h12v-1c-5.128 0-9.419-1.275-10.64-3z" fill="#c2e6ff"/><path d="m17 38h11v-1a15.147 15.147 0 0 1 -6.393-1.2 43.1 43.1 0 0 0 -4.607 2.2z" fill="#c2e6ff"/><path d="m40 33.5h-11c-.331 0-.661.019-1.047.042-4.931.465-10.948 3.879-11.2 4.024a.5.5 0 0 0 .247.934h10.5v8.5h1v-8.5h11.5a.5.5 0 0 0 .5-.5v-4a.5.5 0 0 0 -.5-.5zm-20.958 4a30.817 30.817 0 0 1 8.458-2.884v2.884zm20.458 0h-11v-2.98c.166-.008.335-.02.5-.02h10.5z" fill="#363636"/></g></svg>