<svg height="512" viewBox="0 0 64 64" width="512" xmlns="http://www.w3.org/2000/svg"><g id="_08-Van" data-name="08-Van"><path d="m14 43a4 4 0 0 1 4 4 3.906 3.906 0 0 1 -.12.97 4 4 0 0 1 -7.76 0 3.906 3.906 0 0 1 -.12-.97 4 4 0 0 1 4-4z" fill="#404040"/><path d="m50 43a4 4 0 0 1 4 4 3.906 3.906 0 0 1 -.12.97 4 4 0 0 1 -7.76 0 3.906 3.906 0 0 1 -.12-.97 4 4 0 0 1 4-4z" fill="#404040"/><path d="m54 28 1 6h-11v-6z" fill="#f2f9ff"/><path d="m37 28h7v6h-7z" fill="#f2f9ff"/><path d="m30 28h7v6h-7z" fill="#f2f9ff"/><path d="m27 28v6h-11s6-6 11-6z" fill="#f2f9ff"/><path d="m7 35-1.5 3.74a2 2 0 0 1 -1.85 1.26h-2.65v-2a22.57 22.57 0 0 1 5.92-3.24z" fill="#f0af4c"/><path d="m62 41-3-2-1-9h2.53a42.7 42.7 0 0 1 1.47 11z" fill="#f24754"/><path d="m14 43a4 4 0 0 0 -4 4 3.906 3.906 0 0 0 .12.97l-.12.03h-3s0-8 7-8 7 8 7 8h-3l-.12-.03a3.906 3.906 0 0 0 .12-.97 4 4 0 0 0 -4-4z" fill="#5a80b8"/><path d="m58.9 25h-35.5c1.92-1.77 4.59-4 8.6-4h23.82a1.985 1.985 0 0 1 1.78 1.09 30.564 30.564 0 0 1 1.3 2.91z" fill="#5a80b8"/><path d="m16 34h11v-6c-5 0-11 6-11 6zm-5 0s8-6 10-7a13.434 13.434 0 0 0 2.4-2h6.6v23h-9s0-8-7-8-7 8-7 8h-4l-2-1v-7h2.65a2 2 0 0 0 1.85-1.26l1.5-3.74-.08-.24a12.5 12.5 0 0 1 4.08-.76z" fill="#486da3"/><path d="m50 40c-7 0-7 8-7 8h-1l2-9v-5h11l-1-6h-10v-3h14.9a40.929 40.929 0 0 1 1.63 5h-2.53l1 9 3 2 1 1v4s0 2-3 2h-3s0-8-7-8z" fill="#486da3"/><path d="m44 25v3h-7-7v-3z" fill="#486da3"/><path d="m30 34h7 7v5l-2 9h-12z" fill="#486da3"/><path d="m7 35-.08-.24a22.57 22.57 0 0 0 -5.92 3.24v1a22.767 22.767 0 0 1 5.656-3.142z" fill="#ffd45d"/><path d="m54 47a4 4 0 0 0 -8 0 3.906 3.906 0 0 0 .12.97l-.12.03h-3s0-8 7-8 7 8 7 8h-3l-.12-.03a3.906 3.906 0 0 0 .12-.97z" fill="#5a80b8"/><path d="m58.9 25h-35.5c1.92-1.77 4.59-4 8.6-4a1 1 0 0 0 0 2h24a2 2 0 0 0 1.63-.85 30.34 30.34 0 0 1 1.27 2.85z" fill="#3c5d8c"/><path d="m58.06 44.936c-.86-3.084-3.122-6.436-8.06-6.436a7.613 7.613 0 0 0 -6.62 3.31 9.771 9.771 0 0 0 -1.086 2.078c-4.436-.488-8.575-1.144-12.294-1.928-9.47-1.99-16.29-4.82-18.86-8.07l-.14.11a12.5 12.5 0 0 0 -4.08.76l.08.24-1.5 3.74a2 2 0 0 1 -1.85 1.26h-2.65v7l2 1h4s0-8 7-8 7 8 7 8h22s0-8 7-8a6.429 6.429 0 0 1 6.46 4.9 11.124 11.124 0 0 1 .38 1.557c.012.067.025.138.035.2.015.1.028.194.04.285.009.076.019.152.027.221s.015.145.021.21.012.139.016.2.008.1.01.136c0 .062.006.117.007.159v.057.075h3c3 0 3-2 3-2v-1c-1.668 0-3.31-.027-4.936-.064z" fill="#324f78"/><path d="m56.76 46h-.9a1.03 1.03 0 0 1 -.972-.773 4.188 4.188 0 0 0 -1.558-2.057 5.324 5.324 0 0 0 -6.66 0 4.188 4.188 0 0 0 -1.555 2.057 1.03 1.03 0 0 1 -.972.773h-.9c.51-2.37 2.04-6 6.76-6s6.247 3.63 6.757 6z" fill="#6995d6"/><path d="m20.76 46h-.9a1.03 1.03 0 0 1 -.972-.773 4.188 4.188 0 0 0 -1.558-2.057 5.881 5.881 0 0 0 -3.33-1.17 5.881 5.881 0 0 0 -3.33 1.17 4.188 4.188 0 0 0 -1.555 2.057 1.03 1.03 0 0 1 -.972.773h-.9c.51-2.37 2.04-6 6.76-6s6.247 3.63 6.757 6z" fill="#6995d6"/><circle cx="50" cy="47" fill="#ccc" r="2"/><path d="m50 48a2 2 0 0 1 -1.929-1.5 1.966 1.966 0 0 0 -.071.5 2 2 0 0 0 4 0 1.966 1.966 0 0 0 -.071-.5 2 2 0 0 1 -1.929 1.5z" fill="#adadad"/><circle cx="14" cy="47" fill="#ccc" r="2"/><path d="m14 48a2 2 0 0 1 -1.929-1.5 1.966 1.966 0 0 0 -.071.5 2 2 0 0 0 4 0 1.966 1.966 0 0 0 -.071-.5 2 2 0 0 1 -1.929 1.5z" fill="#adadad"/><path d="m20.467 30.429a30.839 30.839 0 0 0 -4.467 3.571h11v-1c-2.986 0-5.526-1.068-6.533-2.571z" fill="#c2e6ff"/><path d="m31 28h-1v6h7v-1c-3.316 0-6-2.236-6-5z" fill="#c2e6ff"/><path d="m38 28h-1v6h7v-1c-3.316 0-6-2.236-6-5z" fill="#c2e6ff"/><path d="m45 28h-1v6h11l-.167-1c-5.45-.049-9.833-2.265-9.833-5z" fill="#c2e6ff"/><path d="m60.842 38.561a1.981 1.981 0 0 1 -.884-1.515c-.14-1.963-.589-5.366-.819-7.046h-1.139l1 9 3 2c0-.572-.015-1.135-.038-1.692z" fill="#c2313c"/><g fill="#273e5e"><path d="m27 27.5c-5.148 0-11.1 5.9-11.354 6.146a.5.5 0 0 0 .354.854h11a.5.5 0 0 0 .5-.5v-6a.5.5 0 0 0 -.5-.5zm-.5 6h-9.222c1.758-1.55 5.722-4.695 9.222-4.979z"/><path d="m59 25.5a.277.277 0 0 0 .09-.01c-.06-.17-.13-.33-.19-.49s-.13-.34-.2-.5h-34.74c-.2.17-.38.34-.56.5s-.35.33-.52.48a.254.254 0 0 0 .12.02h6.5v22.5h1v-13.5h24.5a.5.5 0 0 0 .493-.582l-1-6a.5.5 0 0 0 -.493-.418h-23.5v-2zm-14.5 3h9.077l.833 5h-9.91zm-7 0h6v5h-6zm-1 0v5h-6v-5z"/><rect height="2" rx="1" width="3" x="24" y="36"/><rect height="2" rx="1" width="3" x="32" y="36"/><path d="m21 48h22a11.033 11.033 0 0 1 .247-2h-22.494a11.033 11.033 0 0 1 .247 2z"/></g></g></svg>