<svg height="512" viewBox="0 0 64 64" width="512" xmlns="http://www.w3.org/2000/svg"><g id="_09-Van" data-name="09-Van"><path d="m54 33.32v1.68h-3v-1.68a1.338 1.338 0 0 1 1.03-1.25 1.474 1.474 0 0 1 1.97 1.25z" fill="#404040"/><path d="m46 33.32v1.68h-3v-1.68a1.338 1.338 0 0 1 1.03-1.25 1.474 1.474 0 0 1 1.97 1.25z" fill="#404040"/><path d="m35 33.32v1.68h-3v-1.68a1.338 1.338 0 0 1 1.03-1.25 1.474 1.474 0 0 1 1.97 1.25z" fill="#404040"/><path d="m54 47a3.906 3.906 0 0 1 -.12.97 4 4 0 0 1 -7.76 0 3.906 3.906 0 0 1 -.12-.97 4 4 0 0 1 8 0z" fill="#404040"/><path d="m62 43a60.724 60.724 0 0 0 -1.19-13.42 5.964 5.964 0 0 0 -5.83-4.58h-32.98a8.386 8.386 0 0 0 -1 .06v22.94h22v-1a7 7 0 0 1 14 0v1h6v-4zm-4-8h-34v-6h31a3 3 0 0 1 3 3z" fill="#e3e3e3"/><path d="m58 32v3h-4v-1.68a1.474 1.474 0 0 0 -1.97-1.25 1.338 1.338 0 0 0 -1.03 1.25v1.68h-5v-1.68a1.474 1.474 0 0 0 -1.97-1.25 1.338 1.338 0 0 0 -1.03 1.25v1.68h-5v-6h17a3 3 0 0 1 3 3z" fill="#f2f9ff"/><path d="m38 29v6h-3v-1.68a1.474 1.474 0 0 0 -1.97-1.25 1.338 1.338 0 0 0 -1.03 1.25v1.68h-8v-6z" fill="#f2f9ff"/><path d="m21 38v10h-1v-1a7 7 0 0 0 -14 0v1h-5v-5.29a1.7 1.7 0 0 1 .5-1.21 1.837 1.837 0 0 0 .37-.55l.13.05h3v-3h-2.55a4.783 4.783 0 0 1 .28-.61 6.106 6.106 0 0 1 2.01-2.22l.26-.17s8.27-9.19 16-9.94zm-3-3v-6h-1c-2 0-8 6-8 6z" fill="#e3e3e3"/><path d="m18 29v6h-9s6-6 8-6z" fill="#f2f9ff"/><path d="m17 47a3.906 3.906 0 0 1 -.12.97 4 4 0 0 1 -7.76 0 3.906 3.906 0 0 1 -.12-.97 4 4 0 0 1 8 0z" fill="#404040"/><path d="m5 38v3h-3l-.13-.05a1.654 1.654 0 0 0 .13-.66 6.108 6.108 0 0 1 .45-2.29z" fill="#f0af4c"/><path d="m62 43c-2 0-3.232.005-4 0a8.942 8.942 0 0 0 -15.452-1.04 118.078 118.078 0 0 1 -21.548-4.22 59.52 59.52 0 0 1 -7.25-2.74h-4.75s.69-.69 1.68-1.6a21.552 21.552 0 0 1 -2.39-1.59 44.088 44.088 0 0 0 -3.29 3.19l-.26.17a6.106 6.106 0 0 0 -2.01 2.22 4.783 4.783 0 0 0 -.28.61h2.55v3h-3l-.13-.05a1.837 1.837 0 0 1 -.37.55 1.7 1.7 0 0 0 -.5 1.21v5.29h8l.12-.03a3.906 3.906 0 0 1 -.12-.97 4 4 0 0 1 8 0 3.906 3.906 0 0 1 -.12.97l.12.03h29l.12-.03a3.906 3.906 0 0 1 -.12-.97 4 4 0 0 1 8 0 3.906 3.906 0 0 1 -.12.97l.12.03h9v-4z" fill="#ccc"/><path d="m3 40.29a6.108 6.108 0 0 1 .45-2.29h-1a6.108 6.108 0 0 0 -.45 2.29 1.654 1.654 0 0 1 -.13.66l.13.05h1l-.13-.05a1.654 1.654 0 0 0 .13-.66z" fill="#ffd45d"/><circle cx="13" cy="47" fill="#ccc" r="2"/><path d="m13 48a2 2 0 0 1 -1.929-1.5 1.966 1.966 0 0 0 -.071.5 2 2 0 0 0 4 0 1.966 1.966 0 0 0 -.071-.5 2 2 0 0 1 -1.929 1.5z" fill="#adadad"/><circle cx="50" cy="47" fill="#ccc" r="2"/><path d="m50 48a2 2 0 0 1 -1.929-1.5 1.966 1.966 0 0 0 -.071.5 2 2 0 0 0 4 0 1.966 1.966 0 0 0 -.071-.5 2 2 0 0 1 -1.929 1.5z" fill="#adadad"/><path d="m57 47v1h-3l-.12-.03a3.906 3.906 0 0 0 .12-.97 4 4 0 0 0 -8 0 3.906 3.906 0 0 0 .12.97l-.12.03h-3v-1a7 7 0 0 1 14 0z" fill="#6d6d6d"/><path d="m20 47v1h-3l-.12-.03a3.906 3.906 0 0 0 .12-.97 4 4 0 0 0 -8 0 3.906 3.906 0 0 0 .12.97l-.12.03h-3v-1a7 7 0 0 1 14 0z" fill="#6d6d6d"/><path d="m19.92 46h-1.063a1.03 1.03 0 0 1 -.972-.773 4.188 4.188 0 0 0 -1.555-2.057 5.881 5.881 0 0 0 -3.33-1.17 5.881 5.881 0 0 0 -3.33 1.17 4.188 4.188 0 0 0 -1.555 2.057 1.03 1.03 0 0 1 -.972.773h-1.063a6.991 6.991 0 0 1 13.84 0z" fill="#8f8f8f"/><path d="m56.92 46h-1.063a1.03 1.03 0 0 1 -.972-.773 4.188 4.188 0 0 0 -1.555-2.057 5.324 5.324 0 0 0 -6.66 0 4.188 4.188 0 0 0 -1.555 2.057 1.03 1.03 0 0 1 -.972.773h-1.063a6.991 6.991 0 0 1 13.84 0z" fill="#8f8f8f"/><g fill="#c2e6ff"><path d="m46 35h5v-1.021a25.188 25.188 0 0 1 -5-.652z"/><path d="m54 34h4v1h-4z"/><path d="m40 29h-2v6h5v-1.68a1.217 1.217 0 0 1 .37-.849c-2.083-.899-3.37-2.121-3.37-3.471z"/><path d="m35 33.836v1.164h3v-1a28.1 28.1 0 0 1 -3-.164z"/><path d="m26 29h-2v6h8v-1.673c-3.585-.865-6-2.475-6-4.327z"/><path d="m13.434 31.024c-2.197 1.742-4.434 3.976-4.434 3.976h9v-1a4.991 4.991 0 0 1 -4.566-2.976z"/></g><path d="m18 28.5h-1c-2.1 0-7.327 5.12-8.354 6.146a.5.5 0 0 0 .354.854h9a.5.5 0 0 0 .5-.5v-6a.5.5 0 0 0 -.5-.5zm-.5 6h-7.271c2.317-2.211 5.62-5 6.771-5h.5z" fill="#adadad"/><path d="m55 28.5h-31a.5.5 0 0 0 -.5.5v6a.5.5 0 0 0 .5.5h13.5v10.5h-16v-20.98a4.048 4.048 0 0 0 -.5.04c-.17.02-.33.04-.5.07v20.87h-.58a5.474 5.474 0 0 1 .08 1v1h23v-1a5.474 5.474 0 0 1 .08-1h-4.58v-10.5h19.5a.5.5 0 0 0 .5-.5v-3a3.5 3.5 0 0 0 -3.5-3.5zm-23 6h-7.5v-5h13v5zm25.5 0h-19v-5h16.5a2.5 2.5 0 0 1 2.5 2.5z" fill="#adadad"/><rect fill="#8f8f8f" height="2" rx="1" width="3" x="16" y="37"/><rect fill="#8f8f8f" height="2" rx="1" width="3" x="23" y="37"/><path d="m8.1 42h-6.942a1.71 1.71 0 0 0 -.158.71v5.29h5v-1a6.977 6.977 0 0 1 2.1-5z" fill="#adadad"/><path d="m55.742 43a6.966 6.966 0 0 1 1.258 4v1h6v-4l-1-1z" fill="#adadad"/></g></svg>