<svg height="512" viewBox="0 0 64 64" width="512" xmlns="http://www.w3.org/2000/svg"><g id="_10-Bus" data-name="10-Bus"><path d="m19 34.2v.21a1.193 1.193 0 0 1 -.06.37l-.74 2.22h-3.2l1.4-2.1a1.191 1.191 0 0 0 .2-.66v-.04a1.2 1.2 0 1 1 2.4 0z" fill="#6995d6"/><path d="m26 34.2v.21a1.193 1.193 0 0 1 -.06.37l-.74 2.22h-3.2l1.4-2.1a1.191 1.191 0 0 0 .2-.66v-.04a1.2 1.2 0 1 1 2.4 0z" fill="#6995d6"/><path d="m33 34.2v.21a1.193 1.193 0 0 1 -.06.37l-.74 2.22h-3.2l1.4-2.1a1.191 1.191 0 0 0 .2-.66v-.04a1.2 1.2 0 1 1 2.4 0z" fill="#6995d6"/><path d="m40 34.2v.21a1.193 1.193 0 0 1 -.06.37l-.74 2.22h-3.2l1.4-2.1a1.191 1.191 0 0 0 .2-.66v-.04a1.2 1.2 0 0 1 2.4 0z" fill="#6995d6"/><path d="m47 34.2v.21a1.193 1.193 0 0 1 -.06.37l-.74 2.22h-3.2l1.4-2.1a1.191 1.191 0 0 0 .2-.66v-.04a1.2 1.2 0 0 1 2.4 0z" fill="#6995d6"/><path d="m63 38v5l-3-1v-1-3z" fill="#f24754"/><path d="m60 38v3h-2v-1h-4v1h-42v-4h44a2.006 2.006 0 0 0 2-2v-5.99a3.992 3.992 0 0 1 3.7 3.12l1.3 5.87z" fill="#59adbd"/><path d="m58 41v5h-4v-5-1h4z" fill="#ccc"/><path d="m12 48v1h-5a2.006 2.006 0 0 1 -2-2v-5s0-.37.04-1h6.96z" fill="#59adbd"/><path d="m4 30h5a7.773 7.773 0 0 0 -2.24 3h-1.76a1 1 0 0 0 -1 1v1.5a1.5 1.5 0 0 1 -3 0v-2.5a3 3 0 0 1 3-3z" fill="#479dad"/><path d="m58 29.01v5.99a2.006 2.006 0 0 1 -2 2h-2.8l.74-2.22a1.193 1.193 0 0 0 .06-.37v-.21a1.2 1.2 0 1 0 -2.4 0v.04a1.191 1.191 0 0 1 -.2.66l-1.4 2.1h-3.8l.74-2.22a1.193 1.193 0 0 0 .06-.37v-.21a1.2 1.2 0 0 0 -2.4 0v.04a1.191 1.191 0 0 1 -.2.66l-1.4 2.1h-3.8l.74-2.22a1.193 1.193 0 0 0 .06-.37v-.21a1.2 1.2 0 0 0 -2.4 0v.04a1.191 1.191 0 0 1 -.2.66l-1.4 2.1h-3.8l.74-2.22a1.193 1.193 0 0 0 .06-.37v-.21a1.2 1.2 0 1 0 -2.4 0v.04a1.191 1.191 0 0 1 -.2.66l-1.4 2.1h-3.8l.74-2.22a1.193 1.193 0 0 0 .06-.37v-.21a1.2 1.2 0 1 0 -2.4 0v.04a1.191 1.191 0 0 1 -.2.66l-1.4 2.1h-3.8l.74-2.22a1.193 1.193 0 0 0 .06-.37v-.21a1.2 1.2 0 1 0 -2.4 0v.04a1.191 1.191 0 0 1 -.2.66l-1.4 2.1h-3v-8h45.79a1.477 1.477 0 0 1 .21.01z" fill="#f2f9ff"/><path d="m6.76 33a7.773 7.773 0 0 1 2.24-3 4.853 4.853 0 0 1 3-1v12h-6.96a23.525 23.525 0 0 1 1.72-8z" fill="#f2f9ff"/><path d="m60 42v-1h-2v5h-4v-5h-19v8h9a3 3 0 0 1 6 0h11a2.006 2.006 0 0 0 2-2v-4z" fill="#428f9e"/><path d="m12 48v1h2a3 3 0 0 1 6 0h9v-8h-17z" fill="#428f9e"/><path d="m29 41h6v8h-6z" fill="#ccc"/><path d="m54 34.2v.21a1.193 1.193 0 0 1 -.06.37l-.74 2.22h-3.2l1.4-2.1a1.191 1.191 0 0 0 .2-.66v-.04a1.2 1.2 0 1 1 2.4 0z" fill="#6995d6"/><path d="m52.987 33.038a1.169 1.169 0 0 0 -.187-.038 1.2 1.2 0 0 0 -1.2 1.2v.04a1.191 1.191 0 0 1 -.2.66l-1.4 2.1h3.2l.333-1h-1.533z" fill="#5a80b8"/><path d="m45.987 33.038a1.169 1.169 0 0 0 -.187-.038 1.2 1.2 0 0 0 -1.2 1.2v.04a1.191 1.191 0 0 1 -.2.66l-1.4 2.1h3.2l.333-1h-1.533z" fill="#5a80b8"/><path d="m38.987 33.038a1.169 1.169 0 0 0 -.187-.038 1.2 1.2 0 0 0 -1.2 1.2v.04a1.191 1.191 0 0 1 -.2.66l-1.4 2.1h3.2l.333-1h-1.533z" fill="#5a80b8"/><path d="m31.987 33.038a1.169 1.169 0 0 0 -.187-.038 1.2 1.2 0 0 0 -1.2 1.2v.04a1.191 1.191 0 0 1 -.2.66l-1.4 2.1h3.2l.333-1h-1.533z" fill="#5a80b8"/><path d="m24.987 33.038a1.169 1.169 0 0 0 -.187-.038 1.2 1.2 0 0 0 -1.2 1.2v.04a1.191 1.191 0 0 1 -.2.66l-1.4 2.1h3.2l.333-1h-1.533z" fill="#5a80b8"/><path d="m17.987 33.038a1.169 1.169 0 0 0 -.187-.038 1.2 1.2 0 0 0 -1.2 1.2v.04a1.191 1.191 0 0 1 -.2.66l-1.4 2.1h3.2l.333-1h-1.533z" fill="#5a80b8"/><g fill="#c2e6ff"><path d="m53.2 37h2.8a2.006 2.006 0 0 0 2-2h-4.133z"/><path d="m46.867 35-.667 2h3.8l1.333-2z"/><path d="m39.867 35-.667 2h3.8l1.333-2z"/><path d="m23.6 34.24v-.04a1.2 1.2 0 0 1 .032-.158c-5.792-1.068-9.632-2.924-9.632-5.042h-2v8h3l1.4-2.1a1.191 1.191 0 0 0 .2-.66v-.04a1.2 1.2 0 1 1 2.4 0v.21a1.193 1.193 0 0 1 -.06.37l-.74 2.22h3.8l1.4-2.1a1.191 1.191 0 0 0 .2-.66z"/><path d="m30.422 34.853c-1.548-.1-3.025-.247-4.423-.437a1.215 1.215 0 0 1 -.059.364l-.74 2.22h3.8l1.4-2.1c.01-.014.013-.032.022-.047z"/><path d="m35 35q-1.075 0-2.123-.031l-.677 2.031h3.8l1.333-2z"/><path d="m5.129 39.83c-.041.44-.072.846-.089 1.17h6.96v-12a5.107 5.107 0 0 0 -1.033.114c-.293 5.464-2.718 9.849-5.838 10.716z"/></g><path d="m6 30v.5a1.5 1.5 0 0 1 -1.5 1.5 1.5 1.5 0 0 0 -1.5 1.5v.5a2 2 0 0 1 -1.911 1.991 1.5 1.5 0 0 0 2.911-.491v-1.5a1 1 0 0 1 1-1h1.76a7.773 7.773 0 0 1 2.24-3z" fill="#33717d"/><path d="m10 41c0 3.316-2.236 6-5 6a2.006 2.006 0 0 0 2 2h5v-8z" fill="#428f9e"/><path d="m35 49h9a3 3 0 0 1 3-3h-12z" fill="#3b8391"/><path d="m61 46h-14a3 3 0 0 1 3 3h11a2.006 2.006 0 0 0 2-2v-3a2 2 0 0 1 -2 2z" fill="#3b8391"/><path d="m27 46a9.988 9.988 0 0 1 -8.651-5h-6.349v8h2a3 3 0 0 1 6 0h9v-3z" fill="#3b8391"/><path d="m29 46h6v3h-6z" fill="#adadad"/><path d="m17.05 37h-5.05v4h6.349a9.927 9.927 0 0 1 -1.299-4z" fill="#479dad"/><path d="m17 49h-5v-1a4 4 0 0 1 4-4h2a4 4 0 0 1 4 4v1z" fill="#212121"/><path d="m47 49h-5v-1a4 4 0 0 1 4-4h2a4 4 0 0 1 4 4v1z" fill="#212121"/><path d="m53.5 48v1h-1.5v-1a4 4 0 0 0 -4-4h-2a4 4 0 0 0 -4 4v1h-1.5v-1a5.51 5.51 0 0 1 5.5-5.5h2a5.51 5.51 0 0 1 5.5 5.5z" fill="#33717d"/><path d="m23.5 48v1h-1.5v-1a4 4 0 0 0 -4-4h-2a4 4 0 0 0 -4 4v-3.77a5.5 5.5 0 0 1 4-1.73h2a5.51 5.51 0 0 1 5.5 5.5z" fill="#33717d"/><path d="m12 41.5a.5.5 0 0 0 .5-.5v-3.5h43.5a2.5 2.5 0 0 0 2.5-2.5v-5.923a3.954 3.954 0 0 0 -.5-.067 1.477 1.477 0 0 0 -.21-.01h-45.79a4.853 4.853 0 0 0 -3 1 7.773 7.773 0 0 0 -2.24 3 23.525 23.525 0 0 0 -1.72 8c-.012.194-.02.353-.026.495.009 0 .017.005.026.005zm.5-12h45v5.5a1.5 1.5 0 0 1 -1.5 1.5h-43.5zm-5.286 3.708a7.237 7.237 0 0 1 2.086-2.808 4.342 4.342 0 0 1 2.2-.873v10.973h-5.928a22.157 22.157 0 0 1 1.642-7.292z" fill="#575757"/><path d="m29 41h6v1h-6z" fill="#f0f0f0"/><path d="m54 40h4v1h-4z" fill="#f0f0f0"/><path d="m54 46h4v1h-4z" fill="#33717d"/><path d="m54 44h4v1h-4z" fill="#8f8f8f"/><path d="m54 42h4v1h-4z" fill="#8f8f8f"/><path d="m61 39v-1h-1v4l3 1v-2a2 2 0 0 1 -2-2z" fill="#c2313c"/><circle cx="17" cy="48" fill="#404040" r="3"/><circle cx="47" cy="48" fill="#404040" r="3"/><circle cx="47" cy="48" fill="#ccc" r="2"/><path d="m47 49a2 2 0 0 1 -1.929-1.5 1.966 1.966 0 0 0 -.071.5 2 2 0 0 0 4 0 1.966 1.966 0 0 0 -.071-.5 2 2 0 0 1 -1.929 1.5z" fill="#adadad"/><circle cx="17" cy="48" fill="#ccc" r="2"/><path d="m17 49a2 2 0 0 1 -1.929-1.5 1.966 1.966 0 0 0 -.071.5 2 2 0 0 0 4 0 1.966 1.966 0 0 0 -.071-.5 2 2 0 0 1 -1.929 1.5z" fill="#adadad"/></g></svg>