<svg height="512" viewBox="0 0 64 64" width="512" xmlns="http://www.w3.org/2000/svg"><g id="_11-Bus" data-name="11-Bus"><path d="m56 46h5v3h-5z" fill="#e3e3e3"/><path d="m56 40h5v3h-5z" fill="#e3e3e3"/><path d="m56 43h5v3h-5z" fill="#adadad"/><path d="m56 37h5v3h-5z" fill="#adadad"/><g fill="#f2f9ff"><rect height="4" rx="1" width="6" x="15" y="37"/><rect height="4" rx="1" width="6" x="24" y="37"/><rect height="4" rx="1" width="6" x="33" y="37"/><rect height="4" rx="1" width="6" x="42" y="37"/><path d="m56.96 25.76c.2.63-.39 1.24-1.18 1.24h-3.56a1.131 1.131 0 0 1 -1.22-1v-2a1.131 1.131 0 0 1 1.22-1h2.94a1.2 1.2 0 0 1 1.19.76z"/><rect height="4" rx="1" width="6" x="42" y="23"/><rect height="4" rx="1" width="6" x="33" y="23"/><rect height="4" rx="1" width="6" x="24" y="23"/><rect height="4" rx="1" width="6" x="15" y="23"/><path d="m12 24v2a1.131 1.131 0 0 1 -1.22 1h-3.56c-.79 0-1.38-.61-1.18-1.24l.61-2a1.2 1.2 0 0 1 1.19-.76h2.94a1.131 1.131 0 0 1 1.22 1z"/></g><path d="m12 36v5h-5l-3 1v-8h7z" fill="#404040"/><circle cx="45" cy="49" fill="#404040" r="3"/><circle cx="7" cy="49" fill="#404040" r="3"/><path d="m12 48v1h-2a3 3 0 0 0 -6 0h-2v-1a5 5 0 1 1 10 0z" fill="#8d2830"/><path d="m50 48v1h-2a3 3 0 0 0 -6 0h-2v-1a5 5 0 1 1 10 0z" fill="#8d2830"/><path d="m53 39a2.006 2.006 0 0 1 2-2h1v12h-3z" fill="#575757"/><path d="m7 41h5v7a5 5 0 0 0 -10 0v1h-1v-6l3-1z" fill="#ad313b"/><path d="m10.78 23h-2.94a1.2 1.2 0 0 0 -1.19.76l-.61 2c-.2.63.39 1.24 1.18 1.24h3.56a1.131 1.131 0 0 0 1.22-1v-2a1.131 1.131 0 0 0 -1.22-1zm9.22 0h-4a1 1 0 0 0 -1 1v2a1 1 0 0 0 1 1h4a1 1 0 0 0 1-1v-2a1 1 0 0 0 -1-1zm9 0h-4a1 1 0 0 0 -1 1v2a1 1 0 0 0 1 1h4a1 1 0 0 0 1-1v-2a1 1 0 0 0 -1-1zm9 0h-4a1 1 0 0 0 -1 1v2a1 1 0 0 0 1 1h4a1 1 0 0 0 1-1v-2a1 1 0 0 0 -1-1zm9 0h-4a1 1 0 0 0 -1 1v2a1 1 0 0 0 1 1h4a1 1 0 0 0 1-1v-2a1 1 0 0 0 -1-1zm8.16 0h-2.94a1.131 1.131 0 0 0 -1.22 1v2a1.131 1.131 0 0 0 1.22 1h3.56c.79 0 1.38-.61 1.18-1.24l-.61-2a1.2 1.2 0 0 0 -1.19-.76zm-.16-3a6 6 0 0 1 6 6v8h-57a2.006 2.006 0 0 1 -2-2v-1l2.2-8.05a3.994 3.994 0 0 1 3.86-2.95z" fill="#db3744"/><path d="m20 37h-4a1 1 0 0 0 -1 1v2a1 1 0 0 0 1 1h4a1 1 0 0 0 1-1v-2a1 1 0 0 0 -1-1zm9 0h-4a1 1 0 0 0 -1 1v2a1 1 0 0 0 1 1h4a1 1 0 0 0 1-1v-2a1 1 0 0 0 -1-1zm9 0h-4a1 1 0 0 0 -1 1v2a1 1 0 0 0 1 1h4a1 1 0 0 0 1-1v-2a1 1 0 0 0 -1-1zm5 4h4a1 1 0 0 0 1-1v-2a1 1 0 0 0 -1-1h-4a1 1 0 0 0 -1 1v2a1 1 0 0 0 1 1zm-32-7h50v3h-6a2.006 2.006 0 0 0 -2 2v10h-3v-1a5 5 0 0 0 -10 0v1h-28v-13z" fill="#db3744"/><path d="m24.06 37.66a1.01 1.01 0 0 1 .94-.66h36v-3h-50l1 2v13h28v-1a5.006 5.006 0 0 1 8.54-3.54 5.028 5.028 0 0 1 1.46 3.54v1h3v-2h-1.079a6.991 6.991 0 0 0 -13.841 0h-16.29a3.616 3.616 0 0 1 -2.784-5.95l.044-.05h-3.05a1 1 0 0 1 -1-1v-2a1 1 0 0 1 1-1h4a1 1 0 0 1 1 1v1.25a11.87 11.87 0 0 1 3.06-1.59z" fill="#8d2830"/><path d="m52.006 23.036a1.074 1.074 0 0 0 -1.006.964v2a1.131 1.131 0 0 0 1.22 1h3.56a1.122 1.122 0 0 0 1.22-1c-2.744 0-4.961-1.323-4.994-2.964z" fill="#c2e6ff"/><path d="m61 29v5h-57a2.006 2.006 0 0 1 -2-2v-1l2.2-8.05a3.994 3.994 0 0 1 3.86-2.95h1.94a8.6 8.6 0 0 0 -.28 3h-1.88a1.2 1.2 0 0 0 -1.19.76l-.61 2c-.2.63.39 1.24 1.18 1.24h3.56a1.265 1.265 0 0 0 .28-.03 8.665 8.665 0 0 0 7.34 4.03h40.6a2.006 2.006 0 0 0 2-2z" fill="#c2313c"/><circle cx="45" cy="49" fill="#6d6d6d" r="2"/><circle cx="7" cy="49" fill="#6d6d6d" r="2"/><path d="m11 34h-7v3h2a4 4 0 0 1 4 4h2v-5z" fill="#292929"/><path d="m7 45c1.37 0 3.387.774 4 2h.9a5 5 0 0 0 -9.8 0h.9c.613-1.226 2.63-2 4-2z" fill="#db3744"/><path d="m45 45c1.37 0 3.387.774 4 2h.9a5 5 0 0 0 -9.8 0h.9c.613-1.226 2.63-2 4-2z" fill="#db3744"/><path d="m1 49h1v-1a4.951 4.951 0 0 1 1.024-3h-2.024z" fill="#7a2329"/><path d="m9.9 41a4.954 4.954 0 0 1 -1.186 2.32 4.909 4.909 0 0 1 3.286 4.68v-7z" fill="#7a2329"/><path d="m60 37h1v12h-1z" fill="#db3744"/><path d="m55 37a2.006 2.006 0 0 0 -2 2v10h1v-7a3.237 3.237 0 0 1 2-3v-2z" fill="#404040"/><path d="m56 37h4v2h-4z" fill="#404040"/><path d="m16 23a1 1 0 0 0 -1 1v2a1 1 0 0 0 1 1h4a1 1 0 0 0 1-1c-2.764 0-5-1.342-5-3z" fill="#c2e6ff"/><path d="m16 37a1 1 0 0 0 -1 1v2a1 1 0 0 0 1 1h4a1 1 0 0 0 1-1c-2.764 0-5-1.342-5-3z" fill="#c2e6ff"/><path d="m25 37a1 1 0 0 0 -1 1v2a1 1 0 0 0 1 1h4a1 1 0 0 0 1-1c-2.764 0-5-1.342-5-3z" fill="#c2e6ff"/><path d="m34 37a1 1 0 0 0 -1 1v2a1 1 0 0 0 1 1h4a1 1 0 0 0 1-1c-2.764 0-5-1.342-5-3z" fill="#c2e6ff"/><path d="m43 37a1 1 0 0 0 -1 1v2a1 1 0 0 0 1 1h4a1 1 0 0 0 1-1c-2.764 0-5-1.342-5-3z" fill="#c2e6ff"/><path d="m25 23a1 1 0 0 0 -1 1v2a1 1 0 0 0 1 1h4a1 1 0 0 0 1-1c-2.764 0-5-1.342-5-3z" fill="#c2e6ff"/><path d="m34 23a1 1 0 0 0 -1 1v2a1 1 0 0 0 1 1h4a1 1 0 0 0 1-1c-2.764 0-5-1.342-5-3z" fill="#c2e6ff"/><path d="m43 23a1 1 0 0 0 -1 1v2a1 1 0 0 0 1 1h4a1 1 0 0 0 1-1c-2.764 0-5-1.342-5-3z" fill="#c2e6ff"/><path d="m7.042 23.249a1 1 0 0 0 -.392.511l-.61 2c-.2.63.39 1.24 1.18 1.24h3.56a1.131 1.131 0 0 0 1.22-1c-2.622 0-4.745-1.212-4.958-2.751z" fill="#c2e6ff"/><path d="m57.437 25.611-.61-2a1.687 1.687 0 0 0 -1.667-1.111h-2.94a1.623 1.623 0 0 0 -1.72 1.5v2a1.623 1.623 0 0 0 1.72 1.5h3.56a1.785 1.785 0 0 0 1.451-.692 1.333 1.333 0 0 0 .206-1.197zm-1.657 1.389h-3.56a1.131 1.131 0 0 1 -1.22-1v-2a1.131 1.131 0 0 1 1.22-1h2.94a1.2 1.2 0 0 1 1.19.76l.61 2c.2.63-.39 1.24-1.18 1.24z" fill="#8d2830"/><path d="m20 22.5h-4a1.5 1.5 0 0 0 -1.5 1.5v2a1.5 1.5 0 0 0 1.5 1.5h4a1.5 1.5 0 0 0 1.5-1.5v-2a1.5 1.5 0 0 0 -1.5-1.5zm1 3.5a1 1 0 0 1 -1 1h-4a1 1 0 0 1 -1-1v-2a1 1 0 0 1 1-1h4a1 1 0 0 1 1 1z" fill="#8d2830"/><path d="m29 22.5h-4a1.5 1.5 0 0 0 -1.5 1.5v2a1.5 1.5 0 0 0 1.5 1.5h4a1.5 1.5 0 0 0 1.5-1.5v-2a1.5 1.5 0 0 0 -1.5-1.5zm1 3.5a1 1 0 0 1 -1 1h-4a1 1 0 0 1 -1-1v-2a1 1 0 0 1 1-1h4a1 1 0 0 1 1 1z" fill="#8d2830"/><path d="m38 22.5h-4a1.5 1.5 0 0 0 -1.5 1.5v2a1.5 1.5 0 0 0 1.5 1.5h4a1.5 1.5 0 0 0 1.5-1.5v-2a1.5 1.5 0 0 0 -1.5-1.5zm1 3.5a1 1 0 0 1 -1 1h-4a1 1 0 0 1 -1-1v-2a1 1 0 0 1 1-1h4a1 1 0 0 1 1 1z" fill="#8d2830"/><path d="m47 22.5h-4a1.5 1.5 0 0 0 -1.5 1.5v2a1.5 1.5 0 0 0 1.5 1.5h4a1.5 1.5 0 0 0 1.5-1.5v-2a1.5 1.5 0 0 0 -1.5-1.5zm1 3.5a1 1 0 0 1 -1 1h-4a1 1 0 0 1 -1-1v-2a1 1 0 0 1 1-1h4a1 1 0 0 1 1 1z" fill="#8d2830"/><path d="m47 36.5h-4a1.5 1.5 0 0 0 -1.5 1.5v2a1.5 1.5 0 0 0 1.5 1.5h4a1.5 1.5 0 0 0 1.5-1.5v-2a1.5 1.5 0 0 0 -1.5-1.5zm1 3.5a1 1 0 0 1 -1 1h-4a1 1 0 0 1 -1-1v-2a1 1 0 0 1 1-1h4a1 1 0 0 1 1 1z" fill="#8d2830"/><path d="m38 36.5h-4a1.5 1.5 0 0 0 -1.5 1.5v2a1.5 1.5 0 0 0 1.5 1.5h4a1.5 1.5 0 0 0 1.5-1.5v-2a1.5 1.5 0 0 0 -1.5-1.5zm1 3.5a1 1 0 0 1 -1 1h-4a1 1 0 0 1 -1-1v-2a1 1 0 0 1 1-1h4a1 1 0 0 1 1 1z" fill="#8d2830"/><path d="m29 36.5h-4a1.5 1.5 0 0 0 -1.5 1.5v2a1.5 1.5 0 0 0 1.5 1.5h4a1.5 1.5 0 0 0 1.5-1.5v-2a1.5 1.5 0 0 0 -1.5-1.5zm1 3.5a1 1 0 0 1 -1 1h-4a1 1 0 0 1 -1-1v-2a1 1 0 0 1 1-1h4a1 1 0 0 1 1 1z" fill="#8d2830"/><path d="m20 36.5h-4a1.5 1.5 0 0 0 -1.5 1.5v2a1.5 1.5 0 0 0 1.5 1.5h4a1.5 1.5 0 0 0 1.5-1.5v-2a1.5 1.5 0 0 0 -1.5-1.5zm1 3.5a1 1 0 0 1 -1 1h-4a1 1 0 0 1 -1-1v-2a1 1 0 0 1 1-1h4a1 1 0 0 1 1 1z" fill="#8d2830"/><path d="m10.78 22.5h-2.94a1.688 1.688 0 0 0 -1.668 1.114l-.609 1.994a1.332 1.332 0 0 0 .206 1.2 1.785 1.785 0 0 0 1.451.692h3.56a1.623 1.623 0 0 0 1.72-1.5v-2a1.623 1.623 0 0 0 -1.72-1.5zm1.22 3.5a1.131 1.131 0 0 1 -1.22 1h-3.56c-.79 0-1.38-.61-1.18-1.24l.61-2a1.2 1.2 0 0 1 1.19-.76h2.94a1.131 1.131 0 0 1 1.22 1z" fill="#8d2830"/><path d="m61 47h2v2h-2z" fill="#db3744"/><path d="m62 47v1h1v1h-2v-2z" fill="#8d2830"/></g></svg>