<svg height="512" viewBox="0 0 64 64" width="512" xmlns="http://www.w3.org/2000/svg"><g id="_12-School_Bus" data-name="12-School Bus"><path d="m60 45h3v3h-3z" fill="#db3744"/><path d="m21 31v17h-4v-12-5z" fill="#f0af4c"/><path d="m25 42v6h-4v-17h4z" fill="#f0af4c"/><path d="m17 36v12h-2v-2a4 4 0 0 0 -4-4h-4a4 4 0 0 0 -4 4v2h-2v-6a6 6 0 0 1 6-6z" fill="#ffd45d"/><circle cx="43" cy="48" fill="#404040" r="4"/><circle cx="9" cy="48" fill="#404040" r="4"/><path d="m15 46v2h-2a4 4 0 0 0 -8 0h-2v-2a4 4 0 0 1 4-4h4a4 4 0 0 1 4 4z" fill="#212121"/><path d="m49 46v2h-2a4 4 0 0 0 -8 0h-2v-2a4 4 0 0 1 4-4h4a4 4 0 0 1 4 4z" fill="#212121"/><path d="m41 42a4 4 0 0 0 -4 4v2h-12v-6z" fill="#ffc551"/><path d="m60 45v3h-11v-2a4 4 0 0 0 -4-4h18v3z" fill="#ffc551"/><path d="m25 42v-11h-11v-.06a3.917 3.917 0 0 1 .42-1.78l.47-.95a4.02 4.02 0 0 1 3.58-2.21h39.53a4 4 0 0 1 3.2 1.6l1 1.33a4.024 4.024 0 0 1 .8 2.4v10.67zm3-6h30v-5h-30z" fill="#ffd45d"/><g fill="#f2f9ff"><path d="m52 31h6v5h-6z"/><path d="m46 31h6v5h-6z"/><path d="m40 31h6v5h-6z"/><path d="m34 31h6v5h-6z"/><path d="m28 31h6v5h-6z"/><path d="m14 31h3v5h-3z"/></g><path d="m34 31h28.973a4.02 4.02 0 0 0 -.773-2.07l-1-1.33a4 4 0 0 0 -3.2-1.6h-39.53a4.02 4.02 0 0 0 -3.58 2.21l-.47.95a3.917 3.917 0 0 0 -.42 1.78v.06z" fill="#ffd45d"/><path d="m25 31h3v3h-3z" fill="#ffc551"/><path d="m58 31h5v3h-5z" fill="#ffc551"/><circle cx="43" cy="48" fill="#ccc" r="2"/><path d="m43 49a2 2 0 0 1 -1.929-1.5 1.966 1.966 0 0 0 -.071.5 2 2 0 0 0 4 0 1.966 1.966 0 0 0 -.071-.5 2 2 0 0 1 -1.929 1.5z" fill="#adadad"/><circle cx="9" cy="48" fill="#ccc" r="2"/><path d="m9 49a2 2 0 0 1 -1.929-1.5 1.966 1.966 0 0 0 -.071.5 2 2 0 0 0 4 0 1.966 1.966 0 0 0 -.071-.5 2 2 0 0 1 -1.929 1.5z" fill="#adadad"/><path d="m60.52 26.89a3.983 3.983 0 0 1 -3.52 2.11h-38a3.981 3.981 0 0 1 -3.35-1.82 3.956 3.956 0 0 1 2.82-1.18h39.53a4.013 4.013 0 0 1 2.52.89z" fill="#faf180"/><path d="m14 31h3v5h-1v-1a2 2 0 0 0 -2-2z" fill="#c2e6ff"/><path d="m29 31h-1v5h6v-1c-2.764 0-5-1.789-5-4z" fill="#c2e6ff"/><path d="m35 31h-1v5h6v-1c-2.764 0-5-1.789-5-4z" fill="#c2e6ff"/><path d="m41 31h-1v5h6v-1c-2.764 0-5-1.789-5-4z" fill="#c2e6ff"/><path d="m47 31h-1v5h6v-1c-2.764 0-5-1.789-5-4z" fill="#c2e6ff"/><path d="m53 31h-1v5h6v-1c-2.764 0-5-1.789-5-4z" fill="#c2e6ff"/><path d="m28.5 31.5h5v4h-5z" fill="none"/><path d="m40.5 31.5h5v4h-5z" fill="none"/><path d="m34.5 31.5h5v4h-5z" fill="none"/><path d="m46.5 31.5h5v4h-5z" fill="none"/><path d="m52.5 31.5h5v4h-5z" fill="none"/><path d="m27.5 36a.5.5 0 0 0 .5.5h30a.5.5 0 0 0 .5-.5v-5h-31zm25-4.5h5v4h-5zm-6 0h5v4h-5zm-6 0h5v4h-5zm-6 0h5v4h-5zm-6 0h5v4h-5z" fill="#bd8836"/><path d="m17 31v17h1v-12a3 3 0 0 1 3-3v-2z" fill="#bd8836"/><path d="m21 31v17h1v-12a3 3 0 0 1 3-3v-2z" fill="#bd8836"/><rect fill="#c2e6ff" height="4" rx="1" width="2" x="22" y="33"/><rect fill="#c2e6ff" height="4" rx="1" width="2" x="18" y="33"/><rect fill="#c2e6ff" height="7" rx="1" width="2" x="22" y="39"/><rect fill="#c2e6ff" height="7" rx="1" width="2" x="18" y="39"/><path d="m19 33a1 1 0 0 0 -1 1v1a1 1 0 0 1 2 0v-1a1 1 0 0 0 -1-1z" fill="#a1d9ff"/><path d="m23 33a1 1 0 0 0 -1 1v1a1 1 0 0 1 2 0v-1a1 1 0 0 0 -1-1z" fill="#a1d9ff"/><path d="m19 39a1 1 0 0 0 -1 1v1a1 1 0 0 1 2 0v-1a1 1 0 0 0 -1-1z" fill="#a1d9ff"/><path d="m23 39a1 1 0 0 0 -1 1v1a1 1 0 0 1 2 0v-1a1 1 0 0 0 -1-1z" fill="#a1d9ff"/><path d="m11 40h-4a6.006 6.006 0 0 0 -6 6v2h2v-2a4 4 0 0 1 4-4h4a4 4 0 0 1 4 4v2h2v-2a6.006 6.006 0 0 0 -6-6z" fill="#d79d44"/><path d="m45 40h-4a6.006 6.006 0 0 0 -6 6v2h2v-2a4 4 0 0 1 4-4h4a4 4 0 0 1 4 4v2h2v-2a6.006 6.006 0 0 0 -6-6z" fill="#d79d44"/><path d="m61 45v1a1 1 0 0 0 1 1h1v1h-3v-3z" fill="#ad313b"/></g></svg>