<svg id="Capa_1" enable-background="new 0 0 64 64" height="512" viewBox="0 0 64 64" width="512" xmlns="http://www.w3.org/2000/svg"><g id="_13-Train"><g fill="#575757"><path d="m60 39v5h-2c.008-2.753-2.217-4.992-4.97-5-.01 0-.02 0-.03 0z"/><path d="m48 39h5c-2.753-.008-4.992 2.217-5 4.97v.03c.001.687.14 1.368.41 2h-6.82c.27-.632.409-1.313.41-2 0-1.327-.525-2.599-1.46-3.54-.168-.167-.349-.321-.54-.46v-1z"/><path d="m29 41h4c-.653.863-1.004 1.917-1 3 .001.687.14 1.368.41 2h-9.68c-.554-.955-1.778-1.281-2.734-.726-.615.357-.995 1.014-.996 1.726v-6z"/><path d="m19 41v6h-6v-2-2-2z"/><path d="m13 43v2h-2-4v-2z"/></g><path d="m7 45v3h-6l5-5h1z" fill="#f0f0f0"/><path d="m17 30 1 3h-5l1-3z" fill="#ffc551"/><path d="m8 27h3v6h-3z" fill="#575757"/><path d="m14 23h3v7h-3z" fill="#575757"/><path d="m19 33v7h-6-5v-7h3 2 5z" fill="#575757"/><path d="m51 30h6v5h-6z" fill="#f2f9ff"/><path d="m40 39v1c-1.778-1.333-4.222-1.333-6 0v-8l6-2z" fill="#ad313b"/><path d="m48 30v9h-8v-9h1 4z" fill="#575757"/><path d="m48 24h15c0 1.657-1.343 3-3 3h-12z" fill="#c2313c"/><path d="m34 26v3h-1-4-1v-3z" fill="#db3744"/><path d="m25 32v9h-6v-1-7-1h4z" fill="#db3744"/><path d="m25 32h4v9h-4z" fill="#db3744"/><path d="m34 32v8c-.385.278-.722.615-1 1h-4v-9z" fill="#db3744"/><path d="m60 27v12h-12v-12zm-3 8v-5h-6v5z" fill="#db3744"/><circle cx="37" cy="44" fill="#303030" r="5"/><circle cx="53" cy="44" fill="#303030" r="5"/><path d="m43 24c.552 0 1 .448 1 1v2h-2v-2c0-.552.448-1 1-1z" fill="#d79d44"/><path d="m17 41v2c0 1.105-.895 2-2 2h-2v2h6v-6z" fill="#404040"/><circle cx="21" cy="47" fill="#303030" r="2"/><path d="m11 43v1h-4v1h6v-2z" fill="#404040"/><path d="m17 33v3c0 1.105-.895 2-2 2h-7v2h11v-7z" fill="#404040"/><path d="m8 31h3v2h-3z" fill="#404040"/><path d="m9.5 25c.828 0 1.5.672 1.5 1.5v.5h-3v-.5c0-.828.672-1.5 1.5-1.5z" fill="#d79d44"/><path d="m30 26v.6c0 .773.627 1.4 1.4 1.4h2.6v1h-6v-3z" fill="#ad313b"/><path d="m33 41h-14v2h8c1.657 0 3 1.343 3 3h2.41c-.27-.632-.409-1.313-.41-2-.004-1.083.347-2.137 1-3z" fill="#404040"/><path d="m21 32v5c0 1.105.895 2 2 2h2v2h-6v-9z" fill="#ad313b"/><path d="m26 32v5c0 1.105.895 2 2 2h1v2h-4v-9z" fill="#ad313b"/><path d="m31 37v-5h-2v9h4c.278-.385.615-.722 1-1v-1h-1c-1.105 0-2-.895-2-2z" fill="#ad313b"/><path d="m37 37c-1.657 0-3-1.343-3-3v6c1.778-1.333 4.222-1.333 6 0v-6c0 1.657-1.343 3-3 3z" fill="#8d2830"/><path d="m53 39h-7v3c0 1.105-.895 2-2 2h-2c-.001.687-.14 1.368-.41 2h6.82c-.27-.632-.409-1.313-.41-2-.008-2.753 2.217-4.992 4.97-5z" fill="#404040"/><path d="m58 40v-1h-5c2.753-.008 4.992 2.217 5 4.97v.03h2v-2c-1.105 0-2-.895-2-2z" fill="#404040"/><path d="m46 30v4c0 1.105-.895 2-2 2h-4v3h8v-9z" fill="#303030"/><path d="m28 26h6v1h-6z" fill="#ffc551"/><path d="m28 26h2v1h-2z" fill="#d79d44"/><path d="m50 25v-1h-2v3h12c.796 0 1.558-.317 2.12-.88.037-.037.064-.081.1-.12h-11.22c-.552 0-1-.448-1-1z" fill="#8d2830"/><path d="m48 27v12h3v-9h1.38c.722-.642 1.654-.997 2.62-1h5v-2z" fill="#c2313c"/><path d="m29 29h4v3h-4z" fill="#ffc551"/><path d="m45 27v3h-4v-3h2z" fill="#db3744"/><path d="m23 29c.552 0 1 .448 1 1v2h-2v-2c0-.552.448-1 1-1z" fill="#d79d44"/><path d="m7 42.75h-1-.008c-.063.001-.124.026-.169.07l-4.823 4.826v.354h6.25v-5c0-.241-.25-.25-.25-.25zm-5.4 5 3.138-3.138-1.88 3.138zm1.839 0 2.7-4.5h.489l-1.8 4.5zm3.308 0h-1.378l1.381-3.45z" fill="#d79d44"/><path d="m8 33-1 2v3l1 2z" fill="#d79d44"/><path d="m15 23v3c0 1.105.895 2 2 2v2h-3v-7z" fill="#404040"/><path d="m13 22h5v1h-5z" fill="#d79d44"/><path d="m33 29h-4v3h1c0-1.105.895-2 2-2h1z" fill="#d79d44"/><path d="m42 27c0 1.105.895 2 2 2h1v1h-4v-3z" fill="#ad313b"/><circle cx="21" cy="47" fill="#f0f0f0" r="1"/><path d="m63 44c0-.552-.448-1-1-1h-4.1c.135.66.135 1.34 0 2h4.1c.552 0 1-.448 1-1z" fill="#303030"/><path d="m24.5 32h1v9h-1z" fill="#ffc551"/><path d="m28.5 32h1v9h-1z" fill="#ffc551"/><path d="m24.5 39h1v2h-1z" fill="#d79d44"/><path d="m28.5 39h1v2h-1z" fill="#d79d44"/><path d="m48.41 42c-.135.323-.239.658-.31 1h-6.2c-.071-.342-.175-.677-.31-1z" fill="#ffc551"/><path d="m52 39v.1c-.726.146-1.41.453-2 .9h-10v-1z" fill="#ffc551"/><path d="m48.41 42c-.135.323-.239.658-.31 1h-2.37c.176-.304.269-.649.27-1z" fill="#d79d44"/><path d="m52 39v.1c-.183.036-.363.083-.54.14-.141.04-.279.094-.41.16-.027-.001-.052.01-.07.03-.059.021-.116.047-.17.08-.09.04-.18.08-.27.13-.06.04-.12.07-.18.11-.12.08-.24.16-.36.25h-4v-1z" fill="#d79d44"/><path d="m40.151 39.8c-1.867-1.4-4.433-1.4-6.3 0-.202.146-.392.308-.569.484-.175.176-.336.366-.482.566-.687.906-1.056 2.013-1.05 3.15 0 .722.147 1.436.432 2.1.266.6.638 1.147 1.1 1.613 2.056 2.043 5.377 2.043 7.433 0 .462-.468.835-1.017 1.1-1.619.284-.664.43-1.378.43-2.1.002-1.393-.55-2.73-1.533-3.717-.175-.173-.362-.332-.561-.477zm.371 1.031c.722.807 1.146 1.837 1.2 2.918h-4.122zm-.35-.358-2.922 2.927v-4.13c.941.04 1.847.365 2.6.931.123.09.219.182.322.273zm-3.422 8.253c-1.081-.054-2.111-.478-2.918-1.2l2.918-2.926zm.5-4.122 2.918 2.918c-.807.722-1.837 1.145-2.918 1.2zm-3.1-4.405c.752-.566 1.659-.89 2.6-.929v4.13l-2.922-2.922c.103-.096.2-.188.322-.279zm-.95.949c.09-.121.182-.217.273-.32l2.927 2.922h-4.13c.04-.941.364-1.849.93-2.602zm-.926 3.1h4.126l-2.919 2.92c-.344-.376-.628-.804-.841-1.268-.217-.524-.341-1.083-.365-1.65zm8.248 2.92-2.922-2.918h4.121c-.023.566-.146 1.124-.363 1.647-.21.465-.492.895-.835 1.273z" fill="#d79d44"/><path d="m58.25 44c.001-1.393-.55-2.729-1.533-3.716-2.056-2.043-5.376-2.043-7.432 0-.984.986-1.536 2.323-1.535 3.716 0 .722.147 1.436.432 2.1.266.6.638 1.147 1.1 1.613 2.056 2.043 5.376 2.043 7.432 0 .983-.985 1.536-2.321 1.536-3.713zm-1.728 3.169-2.922-2.919h4.122c-.054 1.082-.478 2.112-1.2 2.919zm-7.044-6.338 2.922 2.919h-4.126c.055-1.082.48-2.112 1.204-2.919zm8.248 2.919h-4.126l2.918-2.918c.725.805 1.152 1.836 1.208 2.918zm-4.476-.35v-4.126c1.082.054 2.112.478 2.919 1.2zm-3.418-2.918c.807-.722 1.837-1.145 2.918-1.2v4.118zm2.918 4.118v4.122c-1.081-.054-2.111-.478-2.918-1.2zm.5 0 2.918 2.918c-.807.722-1.837 1.145-2.918 1.2zm-4.975-.354h4.125l-2.919 2.92c-.344-.376-.628-.803-.841-1.266-.217-.524-.341-1.083-.365-1.65z" fill="#d79d44"/><path d="m15 22h3v1h-3z" fill="#ffc551"/><path d="m16 32c-.552 0-1-.448-1-1v-1h-1l-1 3h5l-.333-1z" fill="#d79d44"/><path d="m57 35.5h-6c-.276 0-.5-.224-.5-.5v-5c0-.276.224-.5.5-.5h6c.276 0 .5.224.5.5v5c0 .276-.224.5-.5.5zm-5.5-1h5v-4h-5z" fill="#d79d44"/></g></svg>