<svg height="512" viewBox="0 0 64 64" width="512" xmlns="http://www.w3.org/2000/svg"><g id="_14-Tram" data-name="14-Tram"><path d="m20 18-5 3-5-3 5-3z" fill="#f0f0f0"/><path d="m20 24h-10l5-3z" fill="#f0f0f0"/><path d="m59 24h-10l5-3z" fill="#f0f0f0"/><path d="m59 18-5 3-5-3 5-3z" fill="#f0f0f0"/><path d="m9.73 48a2 2 0 1 1 .27-1 2 2 0 0 1 -.27 1z" fill="#292929"/><path d="m13.27 48a2 2 0 1 1 1.73 1 1.995 1.995 0 0 1 -1.73-1z" fill="#292929"/><path d="m50.73 48a2 2 0 1 1 .27-1 2 2 0 0 1 -.27 1z" fill="#292929"/><path d="m54.27 48a2 2 0 1 1 1.73 1 1.995 1.995 0 0 1 -1.73-1z" fill="#292929"/><path d="m63 38v6a1 1 0 0 1 -1 1h-20v-7z" fill="#486da3"/><path d="m63 31v7h-3v-6h-6v6h-3v-6h-6v6h-3v-6.79a3.993 3.993 0 0 0 -.67-2.22l-1.33-1.99h19a4 4 0 0 1 4 4z" fill="#f0f0f0"/><path d="m49 24h10v3h-10z" fill="#404040"/><path d="m42 38v7h-21v-7h3 6 3 6z" fill="#486da3"/><path d="m42 31.21v6.79h-3v-6h-6v6h-3v-6h-6v6h-3v-6.79a3.993 3.993 0 0 0 -.67-2.22l-1.33-1.99h21l1.33 1.99a3.993 3.993 0 0 1 .67 2.22z" fill="#f0f0f0"/><path d="m54 32h6v6h-6z" fill="#c2e6ff"/><path d="m45 32h6v6h-6z" fill="#c2e6ff"/><path d="m33 32h6v6h-6z" fill="#c2e6ff"/><path d="m24 32h6v6h-6z" fill="#c2e6ff"/><path d="m21 38v7h-19a1 1 0 0 1 -1-1v-4h10a5 5 0 1 0 0-10h-7l-.07-.07a9.944 9.944 0 0 1 6.07-2.88c.33-.03.66-.05 1-.05h8l1.33 1.99a3.993 3.993 0 0 1 .67 2.22z" fill="#486da3"/><path d="m20 24v3h-9c-.34 0-.67.02-1 .05v-3.05z" fill="#404040"/><path d="m49 45h7a2 2 0 0 0 -1.73 3h-3.54a2 2 0 0 0 -1.73-3z" fill="#404040"/><path d="m42 45h7a2 2 0 0 0 -1.73 3h-30.54a2 2 0 0 0 -1.73-3z" fill="#404040"/><path d="m8 45h7a2 2 0 0 0 -1.73 3h-3.54a2 2 0 0 0 -1.73-3z" fill="#404040"/><path d="m14.54 31.46a5.006 5.006 0 0 1 -3.54 8.54h-10v-3a9.969 9.969 0 0 1 2.93-7.07l.07.07h7a5.022 5.022 0 0 1 3.54 1.46z" fill="#c2e6ff"/><path d="m52 24v.562a1.438 1.438 0 0 0 1.437 1.438h5.563v1h-10v-3z" fill="#292929"/><path d="m13 24v.562a1.438 1.438 0 0 0 1.438 1.438h5.562v1h-10v-3z" fill="#292929"/><path d="m20.257 23.571-4.285-2.571 4.285-2.571a.5.5 0 0 0 0-.858l-4.285-2.571h.028v-1h2v-2h-6v2h2v1h.028l-4.285 2.571a.5.5 0 0 0 0 .858l4.285 2.571-4.285 2.571a.5.5 0 0 0 .257.929h10a.5.5 0 0 0 .257-.929zm-9.285-5.571 4.028-2.417 4.028 2.417-4.028 2.417zm.833 5.5 3.195-1.917 3.2 1.917z" fill="#ffc551"/><path d="m59.257 23.571-4.285-2.571 4.285-2.571a.5.5 0 0 0 0-.858l-4.285-2.571h.028v-1h2v-2h-6v2h2v1h.028l-4.285 2.571a.5.5 0 0 0 0 .858l4.285 2.571-4.285 2.571a.5.5 0 0 0 .257.929h10a.5.5 0 0 0 .257-.929zm-9.285-5.571 4.028-2.417 4.028 2.417-4.028 2.417zm.833 5.5 3.195-1.917 3.2 1.917z" fill="#ffc551"/><path d="m25 32h-1v6h6v-1a5 5 0 0 1 -5-5z" fill="#a1d9ff"/><path d="m34 32h-1v6h6v-1a5 5 0 0 1 -5-5z" fill="#a1d9ff"/><path d="m46 32h-1v6h6v-1a5 5 0 0 1 -5-5z" fill="#a1d9ff"/><path d="m55 32h-1v6h6v-1a5 5 0 0 1 -5-5z" fill="#a1d9ff"/><path d="m14.54 31.46a5.042 5.042 0 0 0 -2.547-1.36c-.074 4.375-4.959 7.9-10.993 7.9v2h10a5.006 5.006 0 0 0 3.54-8.54z" fill="#a1d9ff"/><path d="m25 38h-4v7h21v-3h-13a4 4 0 0 1 -4-4z" fill="#3c5d8c"/><path d="m24 32h1v-.584a6.007 6.007 0 0 0 -.633-2.683l-.867-1.733h-4.5l1.33 1.99a3.993 3.993 0 0 1 .67 2.22v6.79h3z" fill="#e3e3e3"/><path d="m46 38h-4v7h20a1 1 0 0 0 1-1v-2h-13a4 4 0 0 1 -4-4z" fill="#3c5d8c"/><path d="m45 32h1v-.584a6.007 6.007 0 0 0 -.633-2.683l-.867-1.733h-4.5l1.33 1.99a3.993 3.993 0 0 1 .67 2.22v6.79h3z" fill="#e3e3e3"/><path d="m20.33 28.99-1.33-1.99h-5l1.243 1.243a6 6 0 0 1 1.757 4.242v4.515a4 4 0 0 1 -4 4h-12v3a1 1 0 0 0 1 1h19v-13.79a3.993 3.993 0 0 0 -.67-2.22z" fill="#3c5d8c"/><g fill="#adadad"><path d="m30.5 38h-1v-5.5h-5v5.5h-1v-6a.5.5 0 0 1 .5-.5h6a.5.5 0 0 1 .5.5z"/><path d="m39.5 38h-1v-5.5h-5v5.5h-1v-6a.5.5 0 0 1 .5-.5h6a.5.5 0 0 1 .5.5z"/><path d="m51.5 38h-1v-5.5h-5v5.5h-1v-6a.5.5 0 0 1 .5-.5h6a.5.5 0 0 1 .5.5z"/><path d="m60.5 38h-1v-5.5h-5v5.5h-1v-6a.5.5 0 0 1 .5-.5h6a.5.5 0 0 1 .5.5z"/><path d="m20.746 28.712-1.146-1.712h-1.091a.49.49 0 0 0 .075.278l1.33 1.99a3.488 3.488 0 0 1 .586 1.942v13.79h1v-13.79a4.491 4.491 0 0 0 -.754-2.498z"/><path d="m41.746 28.712-1.146-1.712h-1.091a.49.49 0 0 0 .075.278l1.33 1.99a3.488 3.488 0 0 1 .586 1.942v13.79h1v-13.79a4.491 4.491 0 0 0 -.754-2.498z"/><path d="m16.5 35a5.483 5.483 0 0 0 -5.5-5.5h-6.6c-.158.14-.317.28-.467.43-.182.182-.351.375-.518.57h7.585a4.5 4.5 0 0 1 0 9h-10v1h10a5.506 5.506 0 0 0 5.5-5.5z"/></g><path d="m56 45h-7a2 2 0 0 1 1.721 1h3.558a2 2 0 0 1 1.721-1z" fill="#363636"/><path d="m49 45h-34a2 2 0 0 1 1.721 1h30.558a2 2 0 0 1 1.721-1z" fill="#363636"/><path d="m15 45h-7a2 2 0 0 1 1.721 1h3.558a2 2 0 0 1 1.721-1z" fill="#363636"/><rect fill="#fff" height="2" rx="1" width="7" x="3" y="31"/><path d="m41.5 42h1v3h-1z" fill="#8f8f8f"/><path d="m20.5 42h1v3h-1z" fill="#8f8f8f"/></g></svg>