<svg height="512" viewBox="0 0 64 64" width="512" xmlns="http://www.w3.org/2000/svg"><g id="_15-Train" data-name="15-Train"><path d="m38 44h14v3h-14z" fill="#404040"/><path d="m27.77 47h-9.54a2.965 2.965 0 0 0 .77-2 3 3 0 0 0 -.17-1h8.34a3 3 0 0 0 -.17 1 2.965 2.965 0 0 0 .77 2z" fill="#404040"/><path d="m62.83 44a3 3 0 0 1 -2.52 3.98c-.1.01-.21.02-.31.02a3 3 0 0 1 -2.83-4z" fill="#292929"/><path d="m27.77 47a2.965 2.965 0 0 1 -.77-2 3 3 0 0 1 .17-1h5.66a3 3 0 0 1 -2.83 4 2.94 2.94 0 0 1 -2.23-1z" fill="#292929"/><path d="m18.23 47a2.94 2.94 0 0 1 -2.23 1 3 3 0 0 1 -2.83-4h5.66a3 3 0 0 1 .17 1 2.965 2.965 0 0 1 -.77 2z" fill="#292929"/><path d="m23.41 29.59a1.955 1.955 0 0 1 .59 1.41 2.006 2.006 0 0 1 -2 2h-9a10.5 10.5 0 0 1 2.46-4h6.54a1.955 1.955 0 0 1 1.41.59z" fill="#c2e6ff"/><rect fill="#c2e6ff" height="4" rx="1" width="4" x="55" y="31"/><rect fill="#c2e6ff" height="4" rx="1" width="4" x="47" y="31"/><rect fill="#c2e6ff" height="4" rx="1" width="4" x="39" y="31"/><path d="m35 33v11h-8v-11a2.006 2.006 0 0 1 2-2h4a2.006 2.006 0 0 1 2 2z" fill="#5a80b8"/><path d="m63 26v18h-28v-11a2.006 2.006 0 0 0 -2-2h-4a2.006 2.006 0 0 0 -2 2v11h-20a8.721 8.721 0 0 1 -2-.29v-9.33a25.535 25.535 0 0 1 8-1.38h9a2.006 2.006 0 0 0 2-2 2.015 2.015 0 0 0 -2-2h-6.54a10.113 10.113 0 0 1 7.54-3zm-4 8v-2a1 1 0 0 0 -1-1h-2a1 1 0 0 0 -1 1v2a1 1 0 0 0 1 1h2a1 1 0 0 0 1-1zm-8 0v-2a1 1 0 0 0 -1-1h-2a1 1 0 0 0 -1 1v2a1 1 0 0 0 1 1h2a1 1 0 0 0 1-1zm-8 0v-2a1 1 0 0 0 -1-1h-2a1 1 0 0 0 -1 1v2a1 1 0 0 0 1 1h2a1 1 0 0 0 1-1z" fill="#f0f0f0"/><path d="m13 44-3 4h-8l3-4h2z" fill="#5a80b8"/><path d="m5 34.38v9.33c-1.74-.46-4-1.64-4-4.71 0-2.32 1.8-3.74 4-4.62z" fill="#5a80b8"/><path d="m51 32v2a1 1 0 0 1 -1 1h6a1 1 0 0 1 -1-1v-2a1 1 0 0 1 1-1h-6a1 1 0 0 1 1 1z" fill="#6995d6"/><path d="m59 32v2a1 1 0 0 1 -1 1h5v-4h-5a1 1 0 0 1 1 1z" fill="#6995d6"/><path d="m43 32v2a1 1 0 0 1 -1 1h6a1 1 0 0 1 -1-1v-2a1 1 0 0 1 1-1h-6a1 1 0 0 1 1 1z" fill="#6995d6"/><path d="m39 34v-2a1 1 0 0 1 1-1h-7a2.006 2.006 0 0 1 2 2v2h5a1 1 0 0 1 -1-1z" fill="#6995d6"/><path d="m39.082 31.607a.994.994 0 0 0 -.082.393v2a1 1 0 0 0 1 1h2a1 1 0 0 0 1-1c-1.934 0-3.544-1.026-3.918-2.393z" fill="#a1d9ff"/><path d="m47.082 31.607a.994.994 0 0 0 -.082.393v2a1 1 0 0 0 1 1h2a1 1 0 0 0 1-1c-1.934 0-3.544-1.026-3.918-2.393z" fill="#a1d9ff"/><path d="m55.082 31.607a.994.994 0 0 0 -.082.393v2a1 1 0 0 0 1 1h2a1 1 0 0 0 1-1c-1.934 0-3.544-1.026-3.918-2.393z" fill="#a1d9ff"/><path d="m33 31h-4a2.006 2.006 0 0 0 -2 2v2a2.006 2.006 0 0 1 2-2h4a2.006 2.006 0 0 1 2 2v-2a2.006 2.006 0 0 0 -2-2z" fill="#3c5d8c"/><path d="m4 34.844v4.156a2 2 0 0 1 -2 2h-.6a5.2 5.2 0 0 0 3.6 2.71v-9.33c-.347.139-.678.297-1 .464z" fill="#3c5d8c"/><path d="m10 44-1.406 2.109a2 2 0 0 1 -1.664.891h-4.18l-.75 1h8l3-4z" fill="#3c5d8c"/><path d="m35 44h3 14 5.17 5.66.17v-3h-28z" fill="#e3e3e3"/><path d="m28 26h-5a10.113 10.113 0 0 0 -7.54 3h5.2a12.094 12.094 0 0 1 7.34-3z" fill="#e3e3e3"/><path d="m14 37.568a4.582 4.582 0 0 1 1.152-2.627c.454-.628.961-1.284 1.505-1.941h-3.657a25.535 25.535 0 0 0 -8 1.38v9.33a8.721 8.721 0 0 0 2 .29h20v-3h-9.766a3.338 3.338 0 0 1 -3.234-3.432z" fill="#e3e3e3"/><path d="m23.41 29.59a1.955 1.955 0 0 0 -1.41-.59h-6.54a10.341 10.341 0 0 0 -.851 1h5.891a1.5 1.5 0 0 1 0 3h1.5a2.006 2.006 0 0 0 2-2 1.955 1.955 0 0 0 -.59-1.41z" fill="#a1d9ff"/><g fill="#292929"><path d="m58 30.5h-2a1.5 1.5 0 0 0 -1.5 1.5v2a1.5 1.5 0 0 0 1.5 1.5h2a1.5 1.5 0 0 0 1.5-1.5v-2a1.5 1.5 0 0 0 -1.5-1.5zm1 3.5a1 1 0 0 1 -1 1h-2a1 1 0 0 1 -1-1v-2a1 1 0 0 1 1-1h2a1 1 0 0 1 1 1z"/><path d="m50 30.5h-2a1.5 1.5 0 0 0 -1.5 1.5v2a1.5 1.5 0 0 0 1.5 1.5h2a1.5 1.5 0 0 0 1.5-1.5v-2a1.5 1.5 0 0 0 -1.5-1.5zm1 3.5a1 1 0 0 1 -1 1h-2a1 1 0 0 1 -1-1v-2a1 1 0 0 1 1-1h2a1 1 0 0 1 1 1z"/><path d="m42 30.5h-2a1.5 1.5 0 0 0 -1.5 1.5v2a1.5 1.5 0 0 0 1.5 1.5h2a1.5 1.5 0 0 0 1.5-1.5v-2a1.5 1.5 0 0 0 -1.5-1.5zm1 3.5a1 1 0 0 1 -1 1h-2a1 1 0 0 1 -1-1v-2a1 1 0 0 1 1-1h2a1 1 0 0 1 1 1z"/><path d="m38 44h14v1h-14z"/></g><path d="m21 22h23a1 1 0 0 1 1 1 1 1 0 0 1 -1 1h-23a0 0 0 0 1 0 0v-2a0 0 0 0 1 0 0z" fill="#a1d9ff"/><path d="m21 18h13a1 1 0 0 1 1 1 1 1 0 0 1 -1 1h-13a0 0 0 0 1 0 0v-2a0 0 0 0 1 0 0z" fill="#a1d9ff"/><rect fill="#a1d9ff" height="2" rx="1" width="4" x="37" y="18"/><path d="m35.5 33a2.5 2.5 0 0 0 -2.5-2.5h-4a2.5 2.5 0 0 0 -2.5 2.5v11h1v-11a1.5 1.5 0 0 1 1.5-1.5h4a1.5 1.5 0 0 1 1.5 1.5v11h1z" fill="#292929"/><rect fill="#fff" height="2" rx="1" width="7" x="15" y="30"/></g></svg>