<svg height="512" viewBox="0 0 64 64" width="512" xmlns="http://www.w3.org/2000/svg"><g id="_16-Train" data-name="16-Train"><path d="m6 45h41v1h-41z" fill="#1a1a1a"/><path d="m12.72 24h4.56a1.014 1.014 0 0 1 .95.68l.77 2.32h-8l.77-2.32a1.014 1.014 0 0 1 .95-.68z" fill="#404040"/><path d="m31.07 24h9.86a1.981 1.981 0 0 1 1.66.89l1.41 2.11h-16l1.41-2.11a1.981 1.981 0 0 1 1.66-.89z" fill="#404040"/><path d="m49 29v10h-4v-12h2a2.006 2.006 0 0 1 2 2z" fill="#adadad"/><path d="m45 27v12h-6v-12h5z" fill="#db3744"/><rect fill="#c2e6ff" height="6" rx="1" width="4" x="32" y="30"/><rect fill="#c2e6ff" height="6" rx="1" width="4" x="25" y="30"/><rect fill="#c2e6ff" height="6" rx="1" width="4" x="18" y="30"/><rect fill="#c2e6ff" height="6" rx="1" width="4" x="11" y="30"/><path d="m1.16 33.62 1.6-3.72.24.1h3v6h-5v-1.59a2.143 2.143 0 0 1 .16-.79z" fill="#c2e6ff"/><path d="m14 36a1 1 0 0 0 1-1v-4a1 1 0 0 0 -1-1h-2a1 1 0 0 0 -1 1v4a1 1 0 0 0 1 1zm7 0a1 1 0 0 0 1-1v-4a1 1 0 0 0 -1-1h-2a1 1 0 0 0 -1 1v4a1 1 0 0 0 1 1zm7 0a1 1 0 0 0 1-1v-4a1 1 0 0 0 -1-1h-2a1 1 0 0 0 -1 1v4a1 1 0 0 0 1 1zm8-1v-4a1 1 0 0 0 -1-1h-2a1 1 0 0 0 -1 1v4a1 1 0 0 0 1 1h2a1 1 0 0 0 1-1zm3-8v12h-37.57l-.27-.62a2.143 2.143 0 0 1 -.16-.79v-1.59h5v-6h-3l-.24-.1.72-1.69a2.014 2.014 0 0 1 1.84-1.21z" fill="#adadad"/><path d="m63 42v3h-4-4-1v-1-2h2 4z" fill="#adadad"/><path d="m48.73 44a2 2 0 0 1 -1.73 1h-41.68a2.014 2.014 0 0 1 -1.84-1.21l-.72-1.69.24-.1h46v1a2 2 0 0 1 -.27 1z" fill="#adadad"/><path d="m1.43 39h37.57 6 4v3h-46l-.24.1z" fill="#db3744"/><path d="m60 42h-4-2-1v-12l-2-3v-2h2 10v17z" fill="#db3744"/><path d="m10.73 45h.54a2 2 0 0 0 -.27 1 2 2 0 0 0 -.27-1z" fill="#1a1a1a"/><path d="m14.73 45h.54a2 2 0 0 0 -.27 1 2 2 0 0 0 -.27-1z" fill="#1a1a1a"/><path d="m38.73 45h.54a2 2 0 0 0 -.27 1 2 2 0 0 0 -.27-1z" fill="#1a1a1a"/><path d="m42.73 45h.54a2 2 0 0 0 -.27 1 2 2 0 0 0 -.27-1z" fill="#1a1a1a"/><path d="m43.27 45h3.46a2 2 0 1 1 -3.46 0z" fill="#363636"/><path d="m43 46a2 2 0 1 1 -3.73-1h3.46a2 2 0 0 1 .27 1z" fill="#363636"/><path d="m58.73 45h.54a2 2 0 0 0 -.27 1 2 2 0 0 0 -.27-1z" fill="#1a1a1a"/><path d="m59.27 45h3.46a2 2 0 1 1 -3.46 0z" fill="#363636"/><path d="m59 46a2 2 0 1 1 -3.73-1h3.46a2 2 0 0 1 .27 1z" fill="#363636"/><path d="m39 46a2 2 0 1 1 -3.73-1h3.46a2 2 0 0 1 .27 1z" fill="#363636"/><path d="m11 46a2 2 0 1 1 -3.73-1h3.46a2 2 0 0 1 .27 1z" fill="#363636"/><path d="m15 46a2 2 0 1 1 -3.73-1h3.46a2 2 0 0 1 .27 1z" fill="#363636"/><path d="m19 46a2 2 0 1 1 -3.73-1h3.46a2 2 0 0 1 .27 1z" fill="#363636"/><path d="m49 42v1a2 2 0 0 1 -.27 1h5.27v-2z" fill="#363636"/><g fill="#1a1a1a"><circle cx="45" cy="46" r="1"/><circle cx="41" cy="46" r="1"/><circle cx="61" cy="46" r="1"/><circle cx="57" cy="46" r="1"/><circle cx="37" cy="46" r="1"/><circle cx="17" cy="46" r="1"/><circle cx="13" cy="46" r="1"/><circle cx="9" cy="46" r="1"/></g><path d="m54 45v-3h9v1h-5a2 2 0 0 0 -2 2z" fill="#8f8f8f"/><path d="m7.61 38.526a5.533 5.533 0 0 1 -.288-3.137l1.678-8.389h-3.68a2.014 2.014 0 0 0 -1.84 1.21l-.72 1.69.24.1h3v6h-5v1.59a2.143 2.143 0 0 0 .16.79l.27.62h6.413c-.081-.156-.167-.309-.233-.474z" fill="#8f8f8f"/><path d="m12.742 42h-9.742l-.24.1.72 1.69a2.014 2.014 0 0 0 1.84 1.21h41.68a2 2 0 0 0 2-2v-1z" fill="#8f8f8f"/><path d="m47 42h2v-2a2 2 0 0 1 -2 2z" fill="#db3744"/><path d="m12.742 42a5.516 5.516 0 0 1 -4.9-3h-6.412l1.33 3.1.24-.1z" fill="#ad313b"/><path d="m41 27v6a4 4 0 0 0 4 4v2h-6v-12z" fill="#c2313c"/><path d="m5 30c0 2.764-1.789 5-4 5v1h5v-6z" fill="#a1d9ff"/><path d="m12 32v-2a1 1 0 0 0 -1 1v4a1 1 0 0 0 1 1h2a1 1 0 0 0 1-1 3 3 0 0 1 -3-3z" fill="#a1d9ff"/><path d="m19 32v-2a1 1 0 0 0 -1 1v4a1 1 0 0 0 1 1h2a1 1 0 0 0 1-1 3 3 0 0 1 -3-3z" fill="#a1d9ff"/><path d="m26 32v-2a1 1 0 0 0 -1 1v4a1 1 0 0 0 1 1h2a1 1 0 0 0 1-1 3 3 0 0 1 -3-3z" fill="#a1d9ff"/><path d="m33 32v-2a1 1 0 0 0 -1 1v4a1 1 0 0 0 1 1h2a1 1 0 0 0 1-1 3 3 0 0 1 -3-3z" fill="#a1d9ff"/><path d="m28 29.5h-2a1.5 1.5 0 0 0 -1.5 1.5v4a1.5 1.5 0 0 0 1.5 1.5h2a1.5 1.5 0 0 0 1.5-1.5v-4a1.5 1.5 0 0 0 -1.5-1.5zm1 5.5a1 1 0 0 1 -1 1h-2a1 1 0 0 1 -1-1v-4a1 1 0 0 1 1-1h2a1 1 0 0 1 1 1z" fill="#404040"/><path d="m35 29.5h-2a1.5 1.5 0 0 0 -1.5 1.5v4a1.5 1.5 0 0 0 1.5 1.5h2a1.5 1.5 0 0 0 1.5-1.5v-4a1.5 1.5 0 0 0 -1.5-1.5zm1 5.5a1 1 0 0 1 -1 1h-2a1 1 0 0 1 -1-1v-4a1 1 0 0 1 1-1h2a1 1 0 0 1 1 1z" fill="#404040"/><path d="m21 29.5h-2a1.5 1.5 0 0 0 -1.5 1.5v4a1.5 1.5 0 0 0 1.5 1.5h2a1.5 1.5 0 0 0 1.5-1.5v-4a1.5 1.5 0 0 0 -1.5-1.5zm1 5.5a1 1 0 0 1 -1 1h-2a1 1 0 0 1 -1-1v-4a1 1 0 0 1 1-1h2a1 1 0 0 1 1 1z" fill="#404040"/><path d="m14 29.5h-2a1.5 1.5 0 0 0 -1.5 1.5v4a1.5 1.5 0 0 0 1.5 1.5h2a1.5 1.5 0 0 0 1.5-1.5v-4a1.5 1.5 0 0 0 -1.5-1.5zm1 5.5a1 1 0 0 1 -1 1h-2a1 1 0 0 1 -1-1v-4a1 1 0 0 1 1-1h2a1 1 0 0 1 1 1z" fill="#404040"/><path d="m15.236 26a1.382 1.382 0 0 1 -1.236-2h-1.28a1.014 1.014 0 0 0 -.95.68l-.77 2.32h8l-.332-1z" fill="#1a1a1a"/><path d="m33.236 26a1.382 1.382 0 0 1 -1.236-2h-.93a1.981 1.981 0 0 0 -1.66.89l-1.41 2.11h16l-.668-1z" fill="#1a1a1a"/><path d="m51 27 2 3h10v-3z" fill="#ad313b"/><path d="m55 30v2a8 8 0 0 0 8 8v2h-10v-12z" fill="#c2313c"/><path d="m55 30h2v12h-2z" fill="#8d2830"/><path d="m59 30h2v12h-2z" fill="#8d2830"/></g></svg>