<svg height="512" viewBox="0 0 64 64" width="512" xmlns="http://www.w3.org/2000/svg"><g id="_17-High_speed_train" data-name="17-High speed train"><path d="m1 46h62v3h-62z" fill="#575757"/><path d="m1 40h62v3h-59.03a2.97 2.97 0 0 1 -2.97-2.97z" fill="#324f78"/><path d="m43 36h10v4h-10z" fill="#6995d6"/><path d="m43 27h10v5h-10z" fill="#6995d6"/><path d="m8.95 34.88 17.58-6.91c.23-.09.47-.18.71-.26l.64 1.93a2.338 2.338 0 0 1 -1.4 2.93l-3.08 1.16a20.1 20.1 0 0 1 -7.03 1.27h-7.37z" fill="#c2e6ff"/><path d="m53 32h10v4h-30a2.006 2.006 0 0 1 -2-2 2.015 2.015 0 0 1 2-2z" fill="#c2e6ff"/><path d="m53 36h10v4h-10z" fill="#f0f0f0"/><path d="m53 27h10v5h-10z" fill="#f0f0f0"/><path d="m43 36v4h-42a2.972 2.972 0 0 1 1.89-2.74l6.06-2.38.05.12h7.37a20.1 20.1 0 0 0 7.03-1.27l3.08-1.16a2.338 2.338 0 0 0 1.4-2.93l-.64-1.93a14.04 14.04 0 0 1 4.41-.71h11.35v5h-10a2.015 2.015 0 0 0 -2 2 2.006 2.006 0 0 0 2 2z" fill="#f0f0f0"/><path d="m1 43h62v3h-62z" fill="#292929"/><path d="m6.207 42a1.208 1.208 0 0 1 -1.207-1.207 1.2 1.2 0 0 1 .313-.793h-4.313v.03a2.97 2.97 0 0 0 2.97 2.97h59.03v-1z" fill="#1c314f"/><path d="m5.727 39.685 10.831-4.693c-.063 0-.125.008-.188.008h-7.37l-.05-.12-6.06 2.38a2.972 2.972 0 0 0 -1.89 2.74h4.313a1.182 1.182 0 0 1 .414-.315z" fill="#e3e3e3"/><path d="m27.973 30.045 2.841-1.231a21.994 21.994 0 0 1 8.748-1.814h-7.912a14.04 14.04 0 0 0 -4.41.71l.64 1.93a2.353 2.353 0 0 1 .093.405z" fill="#e3e3e3"/><path d="m53 36h-10v4h3a2 2 0 0 1 2-2h5z" fill="#486da3"/><path d="m27.88 29.64-.64-1.93c-.24.08-.48.17-.71.26l-1.411.555a3.243 3.243 0 0 1 -2.091 3.556l-8.028 2.919h1.37a20.1 20.1 0 0 0 7.03-1.27l3.08-1.16a2.338 2.338 0 0 0 1.4-2.93z" fill="#a1d9ff"/><path d="m34 33.5a1.5 1.5 0 0 1 1.5-1.5h-2.5a2.015 2.015 0 0 0 -2 2 2.006 2.006 0 0 0 2 2h30v-1h-27.5a1.5 1.5 0 0 1 -1.5-1.5z" fill="#a1d9ff"/><g fill="#324f78"><path d="m23.577 34.2 3.076-1.159a2.843 2.843 0 0 0 1.847-2.661 2.81 2.81 0 0 0 -.146-.9l-.636-1.91c-.159.046-.321.085-.478.137s-.316.114-.473.173l.638 1.915a1.836 1.836 0 0 1 -1.1 2.3l-3.078 1.16a19.555 19.555 0 0 1 -6.857 1.245h-6.453l-.967.38-1.579.62h9a20.536 20.536 0 0 0 7.206-1.3z"/><path d="m42 27h1v5h-1z"/><path d="m53 27h1v5h-1z"/><path d="m42 36h1v4h-1z"/><path d="m53 36h1v4h-1z"/></g><path d="m33 35.5a1.5 1.5 0 0 1 -1.5-1.5 1.514 1.514 0 0 1 1.5-1.5h30v-1h-30a2.513 2.513 0 0 0 -2.5 2.5 2.5 2.5 0 0 0 2.5 2.5h30v-1z" fill="#db3744"/><path d="m5 46a2 2 0 0 0 2 2h56v1h-62v-3z" fill="#292929"/><rect fill="#fff" height="2" rx="1" width="7" x="55" y="33"/><rect fill="#fff" height="2" rx="1" width="4" x="50" y="33"/></g></svg>