<svg height="512" viewBox="0 0 64 64" width="512" xmlns="http://www.w3.org/2000/svg"><g id="_18-Skytrain" data-name="18-Skytrain"><path d="m24 34h16l-3 3h-2-6-2z" fill="#404040"/><path d="m29 37h6v26h-6z" fill="#adadad"/><path d="m63 31v3h-23-16-23v-3h9.9 16.1 15 11z" fill="#adadad"/><path d="m27 13h15v4h-15z" fill="#e3e3e3"/><path d="m57 19v8a4 4 0 0 1 -4 4h-11v-4h12v-9a1 1 0 0 0 -1-1h-11v-4h9a6 6 0 0 1 6 6z" fill="#e3e3e3"/><path d="m27 27h15v4h-15z" fill="#e3e3e3"/><path d="m20.23 18.11-3.02 6a2 2 0 0 0 1.79 2.89h8v4h-16.1a3.892 3.892 0 0 1 -3.9-3.9 3.707 3.707 0 0 1 .16-1.1h3.45a4 4 0 0 0 3.52-2.1l5.87-10.9h7v4h-4.97a2.015 2.015 0 0 0 -1.8 1.11z" fill="#e3e3e3"/><path d="m20 13-5.87 10.9a4 4 0 0 1 -3.52 2.1h-3.45a3.971 3.971 0 0 1 .42-.94l5.66-9.2a5.994 5.994 0 0 1 5.11-2.86z" fill="#6995d6"/><path d="m54 18v9h-12v-10h11a1 1 0 0 1 1 1z" fill="#6995d6"/><path d="m27 17h15v10h-15z" fill="#6995d6"/><path d="m27 17v10h-8a2 2 0 0 1 -1.79-2.89l3.02-6a2.015 2.015 0 0 1 1.8-1.11z" fill="#6995d6"/><path d="m21.013 22.3 1.987-5.3h-.97a2.015 2.015 0 0 0 -1.8 1.11l-3.02 6a2 2 0 0 0 1.79 2.89h8v-2h-4.114a2 2 0 0 1 -1.873-2.7z" fill="#5a80b8"/><path d="m30 17h-3v10h15v-2h-4a8 8 0 0 1 -8-8z" fill="#5a80b8"/><path d="m52 25a8 8 0 0 1 -8-8h-2v10h12v-2z" fill="#5a80b8"/><path d="m18.35 13c-.122 0-.242.016-.363.023l-3.927 7.2a7.234 7.234 0 0 1 -5.8 3.74l-.675 1.1a3.971 3.971 0 0 0 -.42.94h3.45a4 4 0 0 0 3.52-2.1l5.865-10.903z" fill="#5a80b8"/><g fill="#ccc"><path d="m55 29h-9a2 2 0 0 1 -2-2h-2v4h11a4 4 0 0 0 4-4 2 2 0 0 1 -2 2z"/><path d="m30 27h-3v4h15v-2h-10a2 2 0 0 1 -2-2z"/><path d="m10 26h-2.84a3.707 3.707 0 0 0 -.16 1.1 3.892 3.892 0 0 0 3.9 3.9h16.1v-2h-14a3 3 0 0 1 -3-3z"/><path d="m42 13h2v4h-2z"/><path d="m27 13h2v4h-2z"/></g><path d="m35 37h-6v26h2v-20a4 4 0 0 1 4-4z" fill="#6d6d6d"/><path d="m24 34 3 3h2a1 1 0 0 1 0-2h10l1-1z" fill="#212121"/><path d="m4 31a2 2 0 0 0 2 2h52a2 2 0 0 0 2-2h3v3h-62v-3z" fill="#6d6d6d"/><path d="m14.57 24.137 5.87-10.9a.475.475 0 0 0 .053-.237h-1.061l-5.744 10.664a3.478 3.478 0 0 1 -3.078 1.836h-3.262a4.237 4.237 0 0 0 -.188.5 3.325 3.325 0 0 0 -.112.5h3.562a4.479 4.479 0 0 0 3.96-2.363z" fill="#4a4a4a"/><path d="m27.5 17.5h14v9h-14z" fill="none"/><path d="m22.03 17.5a1.522 1.522 0 0 0 -1.352.833l-3.022 6a1.5 1.5 0 0 0 1.344 2.167h7.5v-9z" fill="none"/><path d="m53.5 26.5v-8.5a.5.5 0 0 0 -.5-.5h-10.5v9z" fill="none"/><path d="m26.5 27.5h1v3.5h-1z" fill="#404040"/><path d="m26.5 13h1v3.5h-1z" fill="#404040"/><path d="m41.5 13h1v3.5h-1z" fill="#404040"/><path d="m41.5 27.5h1v3.5h-1z" fill="#404040"/><path d="m53 16.5h-30.97a2.528 2.528 0 0 0 -2.246 1.385l-3.021 6a2.5 2.5 0 0 0 2.237 3.615h35a.5.5 0 0 0 .5-.5v-9a1.5 1.5 0 0 0 -1.5-1.5zm-34 10a1.5 1.5 0 0 1 -1.344-2.166l3.022-6a1.522 1.522 0 0 1 1.352-.834h4.47v9zm8.5 0v-9h14v9zm26 0h-11v-9h10.5a.5.5 0 0 1 .5.5z" fill="#4a4a4a"/><rect fill="#fff" height="2" rx="1" width="7" x="34" y="18"/><rect fill="#fff" height="2" rx="1" width="3" x="9" y="23"/><rect fill="#fff" height="2" rx="1" width="7" x="46" y="18"/></g></svg>