<svg height="512" viewBox="0 0 64 64" width="512" xmlns="http://www.w3.org/2000/svg"><g id="_19-Skytrain" data-name="19-Skytrain"><path d="m55 16v1h-4v-1-3h4z" fill="#f0f0f0"/><path d="m13 16v1h-4v-1-3h4z" fill="#f0f0f0"/><path d="m14 16v5h-1-4-1v-5h1v1h4v-1z" fill="#575757"/><path d="m56 16v5h-1-4-1v-5h1v1h4v-1z" fill="#575757"/><g fill="#adadad"><path d="m56 16h7v5h-7z"/><path d="m20 16h6v5h-6z"/><path d="m38 16v5h-4-2v-5z"/><path d="m44 16h6v5h-6z"/><path d="m38 16h6v5h-6z"/><path d="m32 16v5h-2-4v-5z"/><path d="m14 16h6v5h-6z"/><path d="m1 16h7v5h-7z"/><path d="m9 39h4v24h-4z"/><path d="m51 39h4v24h-4z"/></g><path d="m34 21v18h-4v-18h2z" fill="#575757"/><path d="m9 29v2a3 3 0 0 1 -3 3h-3v-7a5.47 5.47 0 0 1 .09-1h2.91a3 3 0 0 1 3 3z" fill="#c2e6ff"/><rect fill="#c2e6ff" height="6" rx="1" width="11" x="16" y="26"/><rect fill="#c2e6ff" height="6" rx="1" width="11" x="37" y="26"/><path d="m61 27v7h-3a3 3 0 0 1 -3-3v-2a3 3 0 0 1 3-3h2.91a5.47 5.47 0 0 1 .09 1z" fill="#c2e6ff"/><path d="m13 21v18h-6a4 4 0 0 1 -4-4v-1h3a3 3 0 0 0 3-3v-2a3 3 0 0 0 -3-3h-2.91a5.99 5.99 0 0 1 5.91-5z" fill="#5a80b8"/><path d="m61 34v1a4 4 0 0 1 -4 4h-6v-18h4a5.99 5.99 0 0 1 5.91 5h-2.91a3 3 0 0 0 -3 3v2a3 3 0 0 0 3 3z" fill="#5a80b8"/><path d="m27 31v-4a1 1 0 0 0 -1-1h-9a1 1 0 0 0 -1 1v4a1 1 0 0 0 1 1h9a1 1 0 0 0 1-1zm-13-10h16v18h-17v-18z" fill="#f0f0f0"/><path d="m48 31v-4a1 1 0 0 0 -1-1h-9a1 1 0 0 0 -1 1v4a1 1 0 0 0 1 1h9a1 1 0 0 0 1-1zm3-10v18h-17v-18z" fill="#f0f0f0"/><path d="m13 35h17v4h-17z" fill="#3c5d8c"/><path d="m34 35h17v4h-17z" fill="#3c5d8c"/><path d="m30 35h4v4h-4z" fill="#363636"/><path d="m13 21h17v2h-17z" fill="#e3e3e3"/><path d="m34 21h17v2h-17z" fill="#e3e3e3"/><path d="m30 21h4v2h-4z" fill="#363636"/><path d="m7 26.181c-.061 3.785-1.824 6.819-4 6.819v1h3a3 3 0 0 0 3-3v-2a2.988 2.988 0 0 0 -2-2.819z" fill="#a1d9ff"/><path d="m57.005 26.181c.056 3.785 1.819 6.819 3.995 6.819v1h-3a3 3 0 0 1 -3-3v-2a2.988 2.988 0 0 1 2.005-2.819z" fill="#a1d9ff"/><path d="m18 28v-2h-1a1 1 0 0 0 -1 1v4a1 1 0 0 0 1 1h9a1 1 0 0 0 1-1h-6a3 3 0 0 1 -3-3z" fill="#a1d9ff"/><path d="m39 28v-2h-1a1 1 0 0 0 -1 1v4a1 1 0 0 0 1 1h9a1 1 0 0 0 1-1h-6a3 3 0 0 1 -3-3z" fill="#a1d9ff"/><path d="m55 39h-4v24h2v-19a2 2 0 0 1 2-2z" fill="#6d6d6d"/><path d="m13 39h-4v24h2v-19a2 2 0 0 1 2-2z" fill="#6d6d6d"/><path d="m13 16v1h-4v-1h-1v5h1v-1a2 2 0 0 1 2-2h3v-2z" fill="#363636"/><path d="m55 16v1h-4v-1h-1v5h1v-1a2 2 0 0 1 2-2h3v-2z" fill="#363636"/><path d="m10 13v1a2 2 0 0 0 2 2h1v1h-4v-4z" fill="#adadad"/><path d="m52 13v1a2 2 0 0 0 2 2h1v1h-4v-4z" fill="#adadad"/><path d="m9 21a5.963 5.963 0 0 0 -4.449 2h4.449a2 2 0 0 1 2 2v10a2 2 0 0 1 -2 2h-5.446a3.983 3.983 0 0 0 3.446 2h6v-18z" fill="#486da3"/><path d="m55 21a5.963 5.963 0 0 1 4.449 2h-4.449a2 2 0 0 0 -2 2v10a2 2 0 0 0 2 2h5.446a3.983 3.983 0 0 1 -3.446 2h-6v-18z" fill="#486da3"/><path d="m30 23h1v12h-1z" fill="#363636"/><path d="m33 23h1v12h-1z" fill="#363636"/><path d="m9.5 31v-2a3.5 3.5 0 0 0 -3.5-3.5h-2.78c-.043.167-.1.328-.13.5s-.03.333-.045.5h2.955a2.5 2.5 0 0 1 2.5 2.5v2a2.5 2.5 0 0 1 -2.5 2.5h-3v1h3a3.5 3.5 0 0 0 3.5-3.5z" fill="#324f78"/><path d="m55.5 31v-2a2.5 2.5 0 0 1 2.5-2.5h2.955c-.015-.167-.015-.34-.045-.5s-.087-.333-.13-.5h-2.78a3.5 3.5 0 0 0 -3.5 3.5v2a3.5 3.5 0 0 0 3.5 3.5h3v-1h-3a2.5 2.5 0 0 1 -2.5-2.5z" fill="#324f78"/><path d="m26 32.5h-9a1.5 1.5 0 0 1 -1.5-1.5v-4a1.5 1.5 0 0 1 1.5-1.5h9a1.5 1.5 0 0 1 1.5 1.5v4a1.5 1.5 0 0 1 -1.5 1.5zm-9-6a.5.5 0 0 0 -.5.5v4a.5.5 0 0 0 .5.5h9a.5.5 0 0 0 .5-.5v-4a.5.5 0 0 0 -.5-.5z" fill="#324f78"/><path d="m47 32.5h-9a1.5 1.5 0 0 1 -1.5-1.5v-4a1.5 1.5 0 0 1 1.5-1.5h9a1.5 1.5 0 0 1 1.5 1.5v4a1.5 1.5 0 0 1 -1.5 1.5zm-9-6a.5.5 0 0 0 -.5.5v4a.5.5 0 0 0 .5.5h9a.5.5 0 0 0 .5-.5v-4a.5.5 0 0 0 -.5-.5z" fill="#324f78"/><path d="m50 21h1v18h-1z" fill="#363636"/><path d="m13 21h1v18h-1z" fill="#363636"/><path d="m7 16v2a2 2 0 0 1 -2 2h-4v1h7v-5z" fill="#8f8f8f"/><path d="m57 16v2a2 2 0 0 0 2 2h4v1h-7v-5z" fill="#8f8f8f"/><path d="m19 16h2v5h-2z" fill="#e3e3e3"/><path d="m25 16h2v5h-2z" fill="#e3e3e3"/><path d="m31 16h2v5h-2z" fill="#e3e3e3"/><path d="m37 16h2v5h-2z" fill="#e3e3e3"/><path d="m43 16h2v5h-2z" fill="#e3e3e3"/><path d="m46 16v3a1 1 0 0 0 1 1h3v1h-5v-5z" fill="#8f8f8f"/><path d="m40 16v3a1 1 0 0 0 1 1h2v1h-4v-5z" fill="#8f8f8f"/><path d="m34 16v3a1 1 0 0 0 1 1h2v1h-4v-5z" fill="#8f8f8f"/><path d="m28 16v3a1 1 0 0 0 1 1h2v1h-4v-5z" fill="#8f8f8f"/><path d="m22 16v3a1 1 0 0 0 1 1h2v1h-4v-5z" fill="#8f8f8f"/><path d="m15 16v3a1 1 0 0 0 1 1h3v1h-5v-5z" fill="#8f8f8f"/><path d="m19 20h2v1h-2z" fill="#adadad"/><path d="m25 20h2v1h-2z" fill="#adadad"/><path d="m31 20h2v1h-2z" fill="#adadad"/><path d="m37 20h2v1h-2z" fill="#adadad"/><path d="m43 20h2v1h-2z" fill="#adadad"/><rect fill="#fff" height="2" rx="1" width="7" x="19" y="27"/><rect fill="#fff" height="2" rx="1" width="7" x="40" y="27"/></g></svg>