<svg height="512" viewBox="0 0 64 64" width="512" xmlns="http://www.w3.org/2000/svg"><g id="_20-Zeppelin" data-name="20-Zeppelin"><path d="m24 43v2h-5l-1.94-2.91a50.01 50.01 0 0 0 6.94.83z" fill="#c2e6ff"/><path d="m24 42.92c.97.05 1.97.08 3 .08a57.894 57.894 0 0 0 5.96-.33l.04.33v3a2.006 2.006 0 0 1 -2 2h-8.93a1.981 1.981 0 0 1 -1.66-.89l-1.41-2.11h5z" fill="#ccc"/><path d="m24 43v-.08a50.01 50.01 0 0 1 -6.94-.83l1.51 2.265a51.413 51.413 0 0 0 5.43.565z" fill="#a1d9ff"/><path d="m32.96 42.67a57.894 57.894 0 0 1 -5.96.33c-1.03 0-2.03-.03-3-.08v2c.97.05 1.97.08 3 .08a57.894 57.894 0 0 0 5.96-.33l.04.33v-2z" fill="#adadad"/><path d="m54 29a2.006 2.006 0 0 1 2 2 2.015 2.015 0 0 1 -2 2h-8a2.006 2.006 0 0 1 -2-2 2.015 2.015 0 0 1 2-2z" fill="#f0f0f0"/><path d="m55 37 2 11h-6.94a3.992 3.992 0 0 1 -3.26-1.68l-3.8-5.32-.05-.11a60.753 60.753 0 0 0 11.89-4.21z" fill="#adadad"/><path d="m57 16-2 9-.16.32a60.753 60.753 0 0 0 -11.89-4.21l.05-.11 3.83-3.83a4 4 0 0 1 2.83-1.17z" fill="#e3e3e3"/><path d="m61 31c0 1.78-2.39 3.8-6.16 5.68a60.753 60.753 0 0 1 -11.89 4.21 75.357 75.357 0 0 1 -9.99 1.78 57.894 57.894 0 0 1 -5.96.33c-1.03 0-2.03-.03-3-.08a50.01 50.01 0 0 1 -6.94-.83c-10.47-2.06-16.06-7.19-16.06-11.09h43a2.006 2.006 0 0 0 2 2h8a2.015 2.015 0 0 0 2-2z" fill="#e3e3e3"/><path d="m42.95 21.11a60.753 60.753 0 0 1 11.89 4.21c.42.21.81.41 1.19.63l-.03.05h-52.36c3.84-3.69 11.78-7 23.36-7a68.231 68.231 0 0 1 15.95 2.11z" fill="#f0f0f0"/><path d="m3.64 26h52.36l.03-.05c3.07 1.69 4.97 3.47 4.97 5.05h-5a2.006 2.006 0 0 0 -2-2h-8a2.015 2.015 0 0 0 -2 2h-43c0-1.56.89-3.32 2.64-5z" fill="#db3744"/><path d="m49.9 46.36 1.1 1.64h-.94a3.992 3.992 0 0 1 -3.26-1.68l-3.8-5.32-.05-.11a60.753 60.753 0 0 0 11.89-4.21l.16.32.4 2.2-3.43 1.14a4.011 4.011 0 0 0 -2.07 6.02z" fill="#8f8f8f"/><path d="m55.41 23.13-.41 1.87-.16.32a60.753 60.753 0 0 0 -11.89-4.21l.05-.11 3.83-3.83a4 4 0 0 1 2.83-1.17h.54l-.51.64a3 3 0 0 0 1.32 4.69c1.33.49 2.86 1.09 4.4 1.8z" fill="#adadad"/><path d="m61 31c0 1.78-2.39 3.8-6.16 5.68a60.753 60.753 0 0 1 -11.89 4.21 75.357 75.357 0 0 1 -9.99 1.78 57.894 57.894 0 0 1 -5.96.33c-1.03 0-2.03-.03-3-.08a50.01 50.01 0 0 1 -6.94-.83c-10.47-2.06-16.06-7.19-16.06-11.09h7.4c3.66 9.01 32.49 8.94 43.6 4z" fill="#ccc"/><path d="m29.87 19.09c-8.37.53-18.15 2.19-21.03 6.91h-5.2c3.84-3.69 11.78-7 23.36-7 .94 0 1.9.03 2.87.09z" fill="#e3e3e3"/><path d="m8 29a4.962 4.962 0 0 0 .4 2h-7.4c0-1.56.89-3.32 2.64-5h5.2a5.666 5.666 0 0 0 -.84 3z" fill="#c2313c"/><path d="m63 30h-2.254a2.445 2.445 0 0 1 .254 1 2.483 2.483 0 0 1 -.259 1h1.259v1a1 1 0 0 0 2 0v-2a1 1 0 0 0 -1-1z" fill="#adadad"/><path d="m44 31a2.006 2.006 0 0 0 2 2h8a2.015 2.015 0 0 0 2-2z" fill="#e3e3e3"/><path d="m55.41 32.41a1.955 1.955 0 0 1 -1.41.59h-8a2 2 0 0 1 -1.721-1 1.963 1.963 0 0 0 -.279 1 2.006 2.006 0 0 0 2 2h8a1.984 1.984 0 0 0 1.721-3 1.938 1.938 0 0 1 -.311.41z" fill="#adadad"/><path d="m24.5 42.933c-.163-.007-.338-.005-.5-.013s-.332-.024-.5-.034v1.614h-4.833l.333.5.334.5h5.166z" fill="#6d6d6d"/><rect fill="#fff" height="2" rx="1" width="7" x="48" y="29"/><g fill="#db3744"><path d="m21 33h5v2h-5z"/><path d="m28 33h2v2h-2z"/></g></g></svg>