<svg height="512" viewBox="0 0 64 64" width="512" xmlns="http://www.w3.org/2000/svg"><g id="_21-Plane" data-name="21-Plane"><path d="m11 32-1.5 1.5a5.719 5.719 0 0 1 -4 1.5h-1.5l1.83-1.83a4 4 0 0 1 2.83-1.17z" fill="#a1d9ff"/><path d="m24 40a2.006 2.006 0 0 1 2 2 2.015 2.015 0 0 1 -2 2h-6a2.006 2.006 0 0 1 -2-2 2.015 2.015 0 0 1 2-2z" fill="#ccc"/><path d="m25.41 41.41a1.955 1.955 0 0 1 -1.41.59h-6a2 2 0 0 1 -1.721-1 1.963 1.963 0 0 0 -.279 1 2.006 2.006 0 0 0 2 2h6a1.984 1.984 0 0 0 1.721-3 1.938 1.938 0 0 1 -.311.41z" fill="#adadad"/><path d="m40 37 4-2h2l-3 4-10 3h-7a2.006 2.006 0 0 0 -2-2l13.28-2.49z" fill="#5a80b8"/><path d="m63 31-5 5h-2.11-4.89l6.49-3.6 2.51-1.4z" fill="#5a80b8"/><path d="m63 20h-4l-11 12h-37l-1.5 1.5a5.719 5.719 0 0 1 -4 1.5h-1.5l-2.19 1.46a1.818 1.818 0 0 0 .07 3.07l3.17 1.9a4.018 4.018 0 0 0 2.06.57h8.89a2.015 2.015 0 0 1 2-2h6l13.28-2.49 2.72-.51 4-2h2l-3 4-10 3h7l15-4 .89-2h-4.89l6.49-3.6z" fill="#f0f0f0"/><path d="m59 20-11 12h9.668l5.332-12z" fill="#6995d6"/><rect fill="#a1d9ff" height="3" rx="1" width="2" x="12" y="34"/><rect fill="#a1d9ff" height="3" rx="1" width="2" x="15" y="34"/><rect fill="#a1d9ff" height="3" rx="1" width="2" x="18" y="34"/><rect fill="#a1d9ff" height="3" rx="1" width="2" x="21" y="34"/><rect fill="#a1d9ff" height="3" rx="1" width="2" x="24" y="34"/><rect fill="#a1d9ff" height="3" rx="1" width="2" x="27" y="34"/><rect fill="#a1d9ff" height="3" rx="1" width="2" x="30" y="34"/><rect fill="#a1d9ff" height="3" rx="1" width="2" x="33" y="34"/><rect fill="#a1d9ff" height="3" rx="1" width="2" x="36" y="34"/><path d="m29.33 39-5.33 1h-6a2.015 2.015 0 0 0 -2 2h-8.89a4.018 4.018 0 0 1 -2.06-.57l-3.17-1.9a1.818 1.818 0 0 1 -.07-3.07l2.19-1.46h1.5a6.222 6.222 0 0 0 2.53-.52l-.77.64a2.2 2.2 0 0 0 1.4 3.88z" fill="#e3e3e3"/><path d="m55.89 36-.89 2-15 4h-7l20-6z" fill="#e3e3e3"/><path d="m61.455 20-4.318 7.915a4 4 0 0 1 -3.512 2.085h-3.792l-1.833 2h9.668l5.332-12z" fill="#5a80b8"/><path d="m62 31-4.452 3.562a2 2 0 0 1 -1.248.438h-3.5l-1.8 1h7l5-5z" fill="#486da3"/><path d="m29 40h2l10-2 4-3h-1l-4 2-2.72.51-13.28 2.49a2.006 2.006 0 0 1 2 2h1a2 2 0 0 1 2-2z" fill="#486da3"/><g fill="#6995d6"><path d="m9.5 32.5a5.719 5.719 0 0 1 -4 1.5h-.5l-1 1h1.5a5.719 5.719 0 0 0 4-1.5l1.5-1.5h-1z"/><path d="m13 34a1 1 0 0 0 -1 1v1a1 1 0 0 1 2 0v-1a1 1 0 0 0 -1-1z"/><path d="m16 34a1 1 0 0 0 -1 1v1a1 1 0 0 1 2 0v-1a1 1 0 0 0 -1-1z"/><path d="m19 34a1 1 0 0 0 -1 1v1a1 1 0 0 1 2 0v-1a1 1 0 0 0 -1-1z"/><path d="m22 34a1 1 0 0 0 -1 1v1a1 1 0 0 1 2 0v-1a1 1 0 0 0 -1-1z"/><path d="m25 34a1 1 0 0 0 -1 1v1a1 1 0 0 1 2 0v-1a1 1 0 0 0 -1-1z"/><path d="m28 34a1 1 0 0 0 -1 1v1a1 1 0 0 1 2 0v-1a1 1 0 0 0 -1-1z"/><path d="m31 34a1 1 0 0 0 -1 1v1a1 1 0 0 1 2 0v-1a1 1 0 0 0 -1-1z"/><path d="m34 34a1 1 0 0 0 -1 1v1a1 1 0 0 1 2 0v-1a1 1 0 0 0 -1-1z"/><path d="m37 34a1 1 0 0 0 -1 1v1a1 1 0 0 1 2 0v-1a1 1 0 0 0 -1-1z"/></g></g></svg>