<svg height="512" viewBox="0 0 64 64" width="512" xmlns="http://www.w3.org/2000/svg"><g id="_22-Truck" data-name="22-Truck"><path d="m8 29v6l-3 3h-4v-2l2.48-5.79a2.014 2.014 0 0 1 1.84-1.21z" fill="#f2f9ff"/><path d="m13 29v11h-4a5.022 5.022 0 0 0 -3.54 1.46 5.313 5.313 0 0 0 -1.44 3.28 1.1 1.1 0 0 0 -.02.26h-3v-7h4l3-3v-6z" fill="#e3e3e3"/><path d="m23 43a2.006 2.006 0 0 0 -2 2h-12a2 2 0 0 0 -3.99-.2l-.99-.06a5.313 5.313 0 0 1 1.44-3.28 5.022 5.022 0 0 1 3.54-1.46h19v5h-3a2.006 2.006 0 0 0 -2-2z" fill="#8f8f8f"/><path d="m7 43a2 2 0 1 1 -2 2 1.275 1.275 0 0 1 .01-.2 2.006 2.006 0 0 1 1.99-1.8z" fill="#292929"/><circle cx="23" cy="45" fill="#292929" r="2"/><circle cx="45" cy="45" fill="#292929" r="2"/><circle cx="52" cy="45" fill="#292929" r="2"/><path d="m61 40v3h-9-7-17v-1-2z" fill="#575757"/><path d="m63 25v15h-2-33-15v-11-4z" fill="#db3744"/><path d="m7 29c0 3.869-2.684 7-6 7v2h4l3-3v-6z" fill="#c2e6ff"/><path d="m5.32 29a2.014 2.014 0 0 0 -1.84 1.21l-2.48 5.79v2.5h4a.469.469 0 0 0 .35-.15l3-3a.469.469 0 0 0 .15-.35v-6zm2.18 5.79-2.71 2.71h-3.29v-1.4l2.44-5.69a1.509 1.509 0 0 1 1.38-.91h2.18z" fill="#6d6d6d"/><path d="m11 29v7a2 2 0 0 1 -2 2h-1a5 5 0 0 0 -4.928 4.149 1 1 0 0 1 -.983.851h-1.089v2h3a1.1 1.1 0 0 1 .02-.26 5.313 5.313 0 0 1 1.44-3.28 5.022 5.022 0 0 1 3.54-1.46h4v-11z" fill="#ccc"/><path d="m1 41h1v2h-1z" fill="#f0af4c"/><circle cx="7" cy="45" fill="#8f8f8f" r="1"/><circle cx="23" cy="45" fill="#8f8f8f" r="1"/><circle cx="45" cy="45" fill="#8f8f8f" r="1"/><circle cx="52" cy="45" fill="#8f8f8f" r="1"/><path d="m31 43a2 2 0 0 1 2-2h28v-1h-33v3z" fill="#363636"/><path d="m25 45h3v-2h-5a2.006 2.006 0 0 1 2 2z" fill="#6d6d6d"/><path d="m11 40h-2a5.022 5.022 0 0 0 -3.54 1.46 5.313 5.313 0 0 0 -1.44 3.28l.99.06a2 2 0 0 1 3.99.2h12a2.006 2.006 0 0 1 2-2h-11.953a1.5 1.5 0 0 1 -.081-3z" fill="#6d6d6d"/><path d="m16 25a12 12 0 0 0 12 12h35v3h-50v-15z" fill="#c2313c"/><g fill="#ad313b"><path d="m13 38h50v2h-50z"/><path d="m60 26h1v12h-1z"/><path d="m57 26h1v12h-1z"/><path d="m54 26h1v12h-1z"/><path d="m51 26h1v12h-1z"/><path d="m48 26h1v12h-1z"/><path d="m45 26h1v12h-1z"/><path d="m42 26h1v12h-1z"/><path d="m39 26h1v12h-1z"/><path d="m36 26h1v12h-1z"/><path d="m33 26h1v12h-1z"/><path d="m30 26h1v12h-1z"/><path d="m27 26h1v12h-1z"/><path d="m24 26h1v12h-1z"/><path d="m21 26h1v12h-1z"/><path d="m18 26h1v12h-1z"/><path d="m15 26h1v12h-1z"/></g></g></svg>