<svg height="512" viewBox="0 0 64 64" width="512" xmlns="http://www.w3.org/2000/svg"><g id="_23-Speed_boat" data-name="23-Speed boat"><path d="m58 30h-23l-3-3h21.34a4 4 0 0 1 2.83 1.17z" fill="#e3e3e3"/><path d="m57 29h-8-15l1 1h15 8z" fill="#ccc"/><path d="m47 22h-5v-3h2z" fill="#ccc"/><path d="m47 27h-5l-4-5h3z" fill="#5a80b8"/><path d="m35 30h-14.6l1.93-1.61a6 6 0 0 1 3.84-1.39h5.83z" fill="#6995d6"/><path d="m35 30h15l3 3h-12l-2 1h-6l-2-1h-9l-4-1 2.4-2z" fill="#3c5d8c"/><path d="m62 38.7v2.3h-53.77a22.335 22.335 0 0 1 -4.07-3.53l-3.16-3.47v-2h17l4 1h9l2 1h6l2-1h16.04a2.007 2.007 0 0 1 1.56.75l2.96 3.7a1.986 1.986 0 0 1 .44 1.25z" fill="#e3e3e3"/><path d="m62 41 1 4h-41.83a22.875 22.875 0 0 1 -12.94-4z" fill="#575757"/><path d="m19 38h13l1 1h2l-1-1h9l2 2h-2l-22-1z" fill="#3c5d8c"/><path d="m20.4 30h-19.4v1l1 1h1l-1-1h1l1 1h1l-1-1h1l1 1h1l-1-1h1l1 1h1l-1-1h1l1 1h1l-1-1h1l1 1h1l-1-1h1l1 1h1l-1-1h1l1 1h1l-1-1h3.2z" fill="#ccc"/><path d="m58.6 33.75a2.007 2.007 0 0 0 -1.56-.75h-16.04l-2 1h19.8z" fill="#ccc"/><path d="m31 33h-9l-4-1h-11-6v2h6 26z" fill="#adadad"/><path d="m17.78 41h-9.55a22.335 22.335 0 0 1 -4.07-3.53l-3.16-3.47h6a33.945 33.945 0 0 0 10.78 7z" fill="#ccc"/><path d="m63 45h-41.83a22.875 22.875 0 0 1 -12.94-4h9.55a15.4 15.4 0 0 0 5.22 1h39.25z" fill="#303030"/><path d="m62 39h-13l1 1h12z" fill="#ccc"/><path d="m51 28h-18l1.091 1.091z" fill="#8f8f8f"/><path d="m33 28h-10.109a5.977 5.977 0 0 0 -.561.39l-1.9 1.582 13.657-.881z" fill="#3c5d8c"/><path d="m51 31-1-1h-15-14.6l-2.4 2 2.545.636 2.455-1.636z" fill="#273e5e"/><path d="m33 34h6l2-1h-10z" fill="#273e5e"/><path d="m43.4 24-2.4-2h-3l4 5h2l-3-3z" fill="#3c5d8c"/><path d="m44 21a1 1 0 0 1 -1-1v-1h-1v3h5l-1-1z" fill="#8f8f8f"/><rect fill="#3c5d8c" height="2" rx="1" width="16" x="32" y="21"/><path d="m33 23h14a1 1 0 0 0 1-1h-16a1 1 0 0 0 1 1z" fill="#273e5e"/></g></svg>