<svg height="512" viewBox="0 0 64 64" width="512" xmlns="http://www.w3.org/2000/svg"><g id="_24-Cargo_ship" data-name="24-Cargo ship"><path d="m56 26 .86 3h-3.86v-3z" fill="#f0f0f0"/><path d="m56.86 29 1.14 4h-4l-1-3v-1z" fill="#db3744"/><path d="m58 33h4v3h-4z" fill="#adadad"/><path d="m54 33h4v3h-8v-6h3z" fill="#f0f0f0"/><path d="m23 34v4h-3.53a3.981 3.981 0 0 1 -2.53-.91l.06-.09v-3z" fill="#5a80b8"/><path d="m23 30v4h-6v-4h3z" fill="#3b8391"/><path d="m47 30v4h-6v-4h3z" fill="#59adbd"/><path d="m23 34h6v4h-6z" fill="#f24754"/><path d="m32 26v4h-3-3v-4z" fill="#3b8391"/><path d="m41 34h6v4h-6z" fill="#3b8391"/><path d="m35 34h6v4h-6z" fill="#324f78"/><path d="m29 34h6v4h-6z" fill="#5a80b8"/><path d="m41 30v4h-6v-4h3z" fill="#5a80b8"/><path d="m29 30v4h-6v-4h3z" fill="#324f78"/><path d="m26 26v4h-3-3v-4z" fill="#db3744"/><path d="m44 26v4h-3-3v-4z" fill="#324f78"/><path d="m38 26v4h-3-3v-4z" fill="#db3744"/><path d="m35 30v4h-6v-4h3z" fill="#f66"/><path d="m19.47 38h28.53l2-2h13l-2 5h-3.31a3.822 3.822 0 0 0 -.68.06l-.01-.06h-52.02a2.275 2.275 0 0 0 .02-.26v-.74l-4-6h14l.89 1.79a3.938 3.938 0 0 0 1.05 1.3 3.981 3.981 0 0 0 2.53.91z" fill="#db3744"/><path d="m57.01 41.06a3.95 3.95 0 0 0 -3.01 2.44 3.986 3.986 0 0 1 -1.46 1.82 4.042 4.042 0 0 1 -2.23.68h-46.57a1.745 1.745 0 0 1 -.55-3.4l.62-.2a1.737 1.737 0 0 0 1.17-1.4h52.02z" fill="#363636"/><path d="m10.98 41a2.275 2.275 0 0 0 .02-.26v-.74l-4-6h-6l4 6v.74a2.275 2.275 0 0 1 -.02.26z" fill="#ad313b"/><path d="m59 41h2v4h-2z" fill="#363636"/><path d="m52.54 45.32a4.042 4.042 0 0 1 -2.23.68h5.69v-2h-2.244a4.021 4.021 0 0 1 -1.216 1.32z" fill="#292929"/><path d="m5 28a1 1 0 0 1 1 1v5a0 0 0 0 1 0 0h-2a0 0 0 0 1 0 0v-5a1 1 0 0 1 1-1z" fill="#ccc"/><path d="m53 26h1v3h-1z" fill="#ccc"/><path d="m56.618 32a2.617 2.617 0 0 1 -2.618-2.618v-.382h-1v1l1 3h4l-.285-1z" fill="#8d2830"/><path d="m59 33v1a1 1 0 0 0 1 1h2v1h-4v-3z" fill="#8f8f8f"/><path d="m51 26h1v4h-1z" fill="#8f8f8f"/><path d="m57 33a2 2 0 0 1 -2 2h-5v1h8v-3z" fill="#ccc"/><path d="m62 36h-4-8l-2 2h14.2l.8-2z" fill="#ad313b"/><path d="m8.041 44a1.738 1.738 0 0 1 1.149-1.4l.62-.2a1.737 1.737 0 0 0 1.17-1.4h-6a1.737 1.737 0 0 1 -1.17 1.4l-.62.2a1.745 1.745 0 0 0 .55 3.4h46.57a3.938 3.938 0 0 0 3.446-2z" fill="#292929"/><path d="m21 26v2a1 1 0 0 0 1 1h4v1h-6v-4z" fill="#ad313b"/><path d="m30 30v2a1 1 0 0 0 1 1h4v1h-6v-4z" fill="#db3744"/><path d="m36 30v2a1 1 0 0 0 1 1h4v1h-6v-4z" fill="#3c5d8c"/><path d="m30 34v2a1 1 0 0 0 1 1h4v1h-6v-4z" fill="#3c5d8c"/><path d="m42 30v2a1 1 0 0 0 1 1h4v1h-6v-4z" fill="#2d646e"/><path d="m42 34v2a1 1 0 0 0 1 1h4v1h-6v-4z" fill="#2d646e"/><path d="m33 26v2a1 1 0 0 0 1 1h4v1h-6v-4z" fill="#ad313b"/><path d="m24 34v2a1 1 0 0 0 1 1h4v1h-6v-4z" fill="#ad313b"/><g fill="#1c314f"><path d="m39 26v2a1 1 0 0 0 1 1h4v1h-6v-4z"/><path d="m36 34v2a1 1 0 0 0 1 1h4v1h-6v-4z"/><path d="m24 30v2a1 1 0 0 0 1 1h4v1h-6v-4z"/></g><path d="m27 26v2a1 1 0 0 0 1 1h4v1h-6v-4z" fill="#33717d"/><path d="m18 30v2a1 1 0 0 0 1 1h4v1h-6v-4z" fill="#33717d"/><path d="m20 37a2 2 0 0 1 -2-2v-1h-1v3l-.06.09a3.981 3.981 0 0 0 2.53.91h3.53v-1z" fill="#3c5d8c"/></g></svg>