<svg height="512" viewBox="0 0 64 64" width="512" xmlns="http://www.w3.org/2000/svg"><g id="_25-Helicopter" data-name="25-Helicopter"><path d="m63.351 25.063-5.503-2.063 5.5-2.063a1 1 0 1 0 -.7-1.874l-7.648 2.869-7.649-2.869a1 1 0 1 0 -.7 1.874l5.501 2.063-5.5 2.063a1 1 0 0 0 .348 1.937 1.029 1.029 0 0 0 .351-.063l7.649-2.869 7.649 2.869a1.029 1.029 0 0 0 .351.063 1 1 0 0 0 .351-1.937z" fill="#ccc"/><circle cx="9" cy="42" fill="#363636" r="2"/><circle cx="23" cy="42" fill="#363636" r="2"/><path d="m22 25v3h-3v-3-1h3z" fill="#8f8f8f"/><path d="m57 21-2 9h-6l3.33-6 1.67-3z" fill="#486da3"/><path d="m8 32 4.69-2.68a9.991 9.991 0 0 1 4.97-1.32h6.94a10.251 10.251 0 0 1 2.75.38l5.65 1.62-4 2h-20.29a3.26 3.26 0 0 0 -.7.07z" fill="#e3e3e3"/><path d="m10 32a5 5 0 0 1 -5 5h-1l.99-2.49a3.985 3.985 0 0 1 3.02-2.44 3.26 3.26 0 0 1 .7-.07z" fill="#f2f9ff"/><path d="m35 30h20.45a1.547 1.547 0 0 1 .1 3.09l-12.94.81a6.015 6.015 0 0 0 -2.95 1l-8.9 5.92a6.973 6.973 0 0 1 -3.88 1.18h-1.88a2 2 0 0 0 -4 0h-10a2 2 0 0 0 -4 0 19.509 19.509 0 0 1 -4.3-.57 2.249 2.249 0 0 1 .55-4.43h1.75a5 5 0 0 0 5-5h19l4-2z" fill="#5a80b8"/><path d="m39 26h-17v-2h17a1 1 0 0 1 1 1 1 1 0 0 1 -1 1z" fill="#ccc"/><path d="m2 24h17a0 0 0 0 1 0 0v2a0 0 0 0 1 0 0h-17a1 1 0 0 1 -1-1 1 1 0 0 1 1-1z" fill="#ccc"/><path d="m19 26h3v2h-3z" fill="#6d6d6d"/><path d="m22 26h17a1 1 0 0 0 1-1h-18z" fill="#adadad"/><path d="m2 26h17v-1h-18a1 1 0 0 0 1 1z" fill="#adadad"/><path d="m29.422 30.789a2 2 0 0 1 -.894.211h-11.028a1.493 1.493 0 0 1 -.106-2.983 9.985 9.985 0 0 0 -4.7 1.3l-4.694 2.683.01.07a3.26 3.26 0 0 1 .7-.07h20.29l4-2-1.271-.364z" fill="#ccc"/><rect fill="#f2f9ff" height="3" rx="1" width="2" x="13" y="35"/><rect fill="#f2f9ff" height="3" rx="1" width="2" x="17" y="35"/><rect fill="#f2f9ff" height="3" rx="1" width="2" x="21" y="35"/><rect fill="#f2f9ff" height="3" rx="1" width="2" x="25" y="35"/><path d="m53.013 26.3 1.987-5.3h-1l-1.67 3-3.33 6h6l.222-1h-.336a2 2 0 0 1 -1.873-2.7z" fill="#324f78"/><circle cx="23" cy="42" fill="#8f8f8f" r="1"/><circle cx="9" cy="42" fill="#8f8f8f" r="1"/><g fill="#a1d9ff"><path d="m9 32c0 2.1-2.021 3.8-4.589 3.967l-.411 1.033h1a5 5 0 0 0 5-5z"/><path d="m14 35a1 1 0 0 0 -1 1v1a1 1 0 0 1 2 0v-1a1 1 0 0 0 -1-1z"/><path d="m18 35a1 1 0 0 0 -1 1v1a1 1 0 0 1 2 0v-1a1 1 0 0 0 -1-1z"/><path d="m22 35a1 1 0 0 0 -1 1v1a1 1 0 0 1 2 0v-1a1 1 0 0 0 -1-1z"/><path d="m26 35a1 1 0 0 0 -1 1v1a1 1 0 0 1 2 0v-1a1 1 0 0 0 -1-1z"/></g><path d="m42.955 33a21.5 21.5 0 0 0 -11.062 3.064l-4.062 2.436a3.493 3.493 0 0 1 -1.8.5h-16.531a3.5 3.5 0 0 1 -3.238-2.181 4.919 4.919 0 0 1 -1.262.181h-1.75a2.249 2.249 0 0 0 -.55 4.43 19.509 19.509 0 0 0 4.3.57 2 2 0 0 1 4 0h10a2 2 0 0 1 4 0h1.88a6.973 6.973 0 0 0 3.88-1.18l8.9-5.92a6.015 6.015 0 0 1 2.95-1l12.94-.81a1.523 1.523 0 0 0 .411-.09z" fill="#486da3"/><rect fill="#6995d6" height="2" rx="1" width="7" x="49" y="30"/></g></svg>