<svg height="512" viewBox="0 0 64 64" width="512" xmlns="http://www.w3.org/2000/svg"><g id="_26-Motorcycle" data-name="26-Motorcycle"><path d="m61 42h2a10.657 10.657 0 0 0 -6-9h-7l-1.5 1.5.5.5.388.866a8 8 0 1 0 11.552 8.124 8.086 8.086 0 0 0 -.007-2.022c0 .014.005.028.007.042zm-8 6a5 5 0 1 1 5-5 5 5 0 0 1 -5 5z" fill="#303030"/><path d="m55.67 38.77a5 5 0 1 0 2.33 4.23 4.963 4.963 0 0 0 -2.33-4.23zm1.6-2.53a7.975 7.975 0 0 1 3.73 6.76 8.1 8.1 0 0 1 -.06.99 8 8 0 1 1 -9.94-8.74 8.239 8.239 0 0 1 2-.25 7.879 7.879 0 0 1 4.27 1.24z" fill="#1a1a1a"/><path d="m55.67 38.77a5 5 0 1 1 -2.67-.77 5 5 0 0 1 2.67.77z" fill="#ccc"/><path d="m36 32v2.5a2.5 2.5 0 0 0 -2.5-2.5z" fill="#212121"/><path d="m63 42h-2l-.06.01a8 8 0 0 0 -7.94-7.01 7.822 7.822 0 0 0 -3.61.87l-.39-.87-.5-.5 1.5-1.5h7a10.657 10.657 0 0 1 6 9z" fill="#303030"/><path d="m57 32v1h-7l-1.5 1.5-.5.5h-12v-3h.78a1.212 1.212 0 0 0 1.22-1.22 1.268 1.268 0 0 0 -.19-.66l.19-.12 4.33 1.24a6.013 6.013 0 0 0 4.98-.78l.69-.46h7z" fill="#4a4a4a"/><path d="m49 35 .39.87a7.87 7.87 0 0 0 -3.33 3.16l-.06-.03h-7l-3-4h12l.5-.5z" fill="#404040"/><path d="m46 39 .06.03a7.954 7.954 0 0 0 -1.06 3.97 8.262 8.262 0 0 0 .06 1h-3.06l-4.85-3.23-1.15-.77v-5l3 4z" fill="#212121"/><path d="m41 47h-14.558a2 2 0 0 1 -1.9-1.368l-.542-1.632h13.75l.25 1z" fill="#adadad"/><path d="m37.81 30.12a1.268 1.268 0 0 1 .19.66 1.212 1.212 0 0 1 -1.22 1.22h-8.76a2.468 2.468 0 0 1 -1.74-.72l-1.56-1.56a2.468 2.468 0 0 1 -.72-1.74v-.51a2.316 2.316 0 0 1 .04-.46 2.564 2.564 0 0 1 .68-1.29 2.488 2.488 0 0 1 1.75-.72 2.562 2.562 0 0 1 1.02.22l9.8 4.46a1.307 1.307 0 0 1 .52.44z" fill="#303030"/><path d="m37 31h-7.98a2.468 2.468 0 0 1 -1.74-.72l-1.56-1.56a2.468 2.468 0 0 1 -.72-1.74v-.51a2.316 2.316 0 0 1 .04-.46 2.578 2.578 0 0 1 .249-.7 2.357 2.357 0 0 0 -1.249 1.7 2.316 2.316 0 0 0 -.04.46v.51a2.468 2.468 0 0 0 .72 1.74l1.56 1.56a2.468 2.468 0 0 0 1.74.72h8.76a1.2 1.2 0 0 0 1.184-1.036 1.273 1.273 0 0 1 -.184.036z" fill="#1a1a1a"/><path d="m37 41 .75 3h-13.75l-1-3z" fill="#ccc"/><path d="m36 40 1.15.77-.15.23h-14l3-3v-.05a2.734 2.734 0 0 0 .5.05h7a2.5 2.5 0 0 0 2.5-2.5z" fill="#303030"/><path d="m36 35v.5a2.5 2.5 0 0 1 -2.5 2.5h-7a2.734 2.734 0 0 1 -.5-.05 2.5 2.5 0 0 1 -2-2.45v-1a2.5 2.5 0 0 1 2.5-2.5h7a2.5 2.5 0 0 1 2.5 2.5z" fill="#e3e3e3"/><path d="m33.5 36h-7a2.734 2.734 0 0 1 -.5-.05 2.5 2.5 0 0 1 -1.948-1.958 2.5 2.5 0 0 0 -.052.508v1a2.5 2.5 0 0 0 2 2.45 2.734 2.734 0 0 0 .5.05h7a2.5 2.5 0 0 0 2.5-2.5v-1a2.577 2.577 0 0 0 -.05-.5 2.5 2.5 0 0 1 -2.45 2z" fill="#ccc"/><path d="m19.8 25.9.48-.76 3.72 1.86.04.01a2.316 2.316 0 0 0 -.04.46v.51a2.468 2.468 0 0 0 .72 1.74l1.56 1.56a2.468 2.468 0 0 0 1.74.72h-1.52a2.5 2.5 0 0 0 -2.5 2.5v1a2.5 2.5 0 0 0 2 2.45v.05l-3 3-3.97-13.89z" fill="#212121"/><path d="m20.28 25.14-.48.76-1.8-.9h-3v-3h8.67l-2.67 2z" fill="#4a4a4a"/><path d="m20 44h-3l-.06-.01a8.1 8.1 0 0 0 .06-.99 7.975 7.975 0 0 0 -3.73-6.76l1.4-2.22a11.959 11.959 0 0 1 5.33 9.98z" fill="#303030"/><path d="m19.03 27.11-1.18 1.88a2 2 0 0 1 .15-3.99l1.8.9z" fill="#ccc"/><path d="m11.67 38.77a5 5 0 1 0 2.33 4.23 4.963 4.963 0 0 0 -2.33-4.23zm1.6-2.53a7.975 7.975 0 0 1 3.73 6.76 8.1 8.1 0 0 1 -.06.99 8 8 0 1 1 -9.94-8.74 8.239 8.239 0 0 1 2-.25 7.879 7.879 0 0 1 4.27 1.24z" fill="#1a1a1a"/><path d="m14.67 34.02-1.4 2.22a7.879 7.879 0 0 0 -4.27-1.24 8.239 8.239 0 0 0 -2 .25v-3.25h1a11.9 11.9 0 0 1 6.67 2.02z" fill="#303030"/><path d="m11.67 38.77a5 5 0 1 1 -2.67-.77 5 5 0 0 1 2.67.77z" fill="#ccc"/><path d="m9 44a1 1 0 0 1 -.845-1.534l12-19a1.006 1.006 0 0 1 .245-.266l4-3a1 1 0 0 1 1.048-.1l4 2a1 1 0 1 1 -.894 1.79l-3.447-1.724-3.359 2.518-11.902 18.85a1 1 0 0 1 -.846.466z"/><circle cx="9" cy="43" fill="#303030" r="2"/><circle cx="53" cy="43" fill="#303030" r="2"/><path d="m37.75 44-.75-3 .15-.23 4.85 3.23h3.06 3.04 4.9 4v3h-10.93-2.07-3l-3-2z" fill="#f0f0f0"/><path d="m48 35a1.006 1.006 0 0 0 .083.413l3.822 8.587h2.095a1 1 0 0 0 -.083-.407l-4-9a1 1 0 0 0 -.917-.593l-.5.5z" fill="#f0f0f0"/><rect fill="#b8b8b8" height="4" rx="2" width="8" x="26" y="33"/><path d="m43 46a1 1 0 0 1 -1-1v-1l-4.85-3.23-.15.23.75 3 .25 1 3 2h16v-1z" fill="#ccc"/><path d="m38 45-.25-1h-3.027a1.987 1.987 0 0 1 .277 1l2 2h4z" fill="#8f8f8f"/><path d="m34.723 44h3.027l-.75-3h-14l.667 2h9.333a1.994 1.994 0 0 1 1.723 1z" fill="#adadad"/><path d="m39.406 37.109-1.406-2.109h-2l3 4h7l.06.03a7.835 7.835 0 0 1 .7-1.03h-5.69a2 2 0 0 1 -1.664-.891z" fill="#303030"/><path d="m49 32-1 1h-7a2 2 0 0 1 -2-2v-.714l-1-.286-.19.12a1.268 1.268 0 0 1 .19.66 1.212 1.212 0 0 1 -1.22 1.22h-.78v3h12l.5-.5 1.5-1.5h7v-1z" fill="#1a1a1a"/></g></svg>