<svg height="512" viewBox="0 0 64 64" width="512" xmlns="http://www.w3.org/2000/svg"><g id="_27-Bicycle" data-name="27-Bicycle"><circle cx="51" cy="39" fill="#363636" r="12"/><circle cx="51" cy="39" fill="#f0f0f0" r="10"/><circle cx="51" cy="39" fill="#4a4a4a" r="3"/><g fill="#8f8f8f"><path d="m51.852 41.862 2.555 6.53c.157-.057.316-.108.469-.172l-2.558-6.537a2.972 2.972 0 0 1 -.466.179z"/><path d="m51 42c-.086 0-.166-.018-.25-.025v7.012c.084 0 .166.013.25.013s.166-.011.25-.013v-7.012c-.084.007-.164.025-.25.025z"/><path d="m49.682 41.683-2.558 6.537c.153.064.312.115.469.172l2.555-6.53a2.972 2.972 0 0 1 -.466-.179z"/><path d="m48 39c0-.086.018-.166.025-.25h-7.012c0 .084-.013.166-.013.25s.011.166.013.25h7.012c-.007-.084-.025-.164-.025-.25z"/><path d="m48.138 39.852-6.53 2.555c.057.157.108.316.172.469l6.537-2.558a3.01 3.01 0 0 1 -.179-.466z"/><path d="m48.719 40.928-4.958 4.958c.115.121.232.238.353.353l4.958-4.958a2.942 2.942 0 0 1 -.353-.353z"/><path d="m60.987 38.75h-7.012c.007.084.025.164.025.25s-.018.166-.025.25h7.012c0-.084.013-.166.013-.25s-.011-.166-.013-.25z"/><path d="m52.928 41.281 4.958 4.958c.121-.115.238-.232.353-.353l-4.958-4.958a2.942 2.942 0 0 1 -.353.353z"/><path d="m53.683 40.318 6.537 2.558c.064-.153.115-.312.172-.469l-6.53-2.555a2.972 2.972 0 0 1 -.179.466z"/><path d="m53.281 37.072 4.958-4.958c-.115-.121-.232-.238-.353-.353l-4.958 4.958a2.942 2.942 0 0 1 .353.353z"/><path d="m51 36c.086 0 .166.018.25.025v-7.012c-.084 0-.166-.013-.25-.013s-.166.011-.25.013v7.012c.084-.007.164-.025.25-.025z"/><path d="m52.318 36.317 2.558-6.537c-.153-.064-.312-.115-.469-.172l-2.555 6.53a2.972 2.972 0 0 1 .466.179z"/><path d="m48.317 37.682-6.537-2.558c-.064.153-.115.312-.172.469l6.53 2.555a3.01 3.01 0 0 1 .179-.466z"/><path d="m53.862 38.148 6.53-2.555c-.057-.157-.108-.316-.172-.469l-6.537 2.558a2.972 2.972 0 0 1 .179.466z"/><path d="m50.148 36.138-2.555-6.53c-.157.057-.316.108-.469.172l2.558 6.537a2.972 2.972 0 0 1 .466-.179z"/><path d="m49.072 36.719-4.958-4.958c-.121.115-.238.232-.353.353l4.958 4.958a2.942 2.942 0 0 1 .353-.353z"/></g><circle cx="13" cy="39" fill="#363636" r="12"/><circle cx="13" cy="39" fill="#f0f0f0" r="10"/><circle cx="13" cy="39" fill="#4a4a4a" r="3"/><path d="m13.852 41.862 2.555 6.53c.157-.057.316-.108.469-.172l-2.558-6.537a2.972 2.972 0 0 1 -.466.179z" fill="#8f8f8f"/><path d="m13 42c-.086 0-.166-.018-.25-.025v7.012c.084 0 .166.013.25.013s.166-.011.25-.013v-7.012c-.084.007-.164.025-.25.025z" fill="#8f8f8f"/><path d="m11.682 41.683-2.558 6.537c.153.064.312.115.469.172l2.555-6.53a2.972 2.972 0 0 1 -.466-.179z" fill="#8f8f8f"/><path d="m10 39c0-.086.018-.166.025-.25h-7.012c0 .084-.013.166-.013.25s.011.166.013.25h7.012c-.007-.084-.025-.164-.025-.25z" fill="#8f8f8f"/><path d="m10.138 39.852-6.53 2.555c.057.157.108.316.172.469l6.537-2.558a3.01 3.01 0 0 1 -.179-.466z" fill="#8f8f8f"/><path d="m10.719 40.928-4.958 4.958c.115.121.232.238.353.353l4.958-4.958a2.942 2.942 0 0 1 -.353-.353z" fill="#8f8f8f"/><path d="m22.987 38.75h-7.012c.007.084.025.164.025.25s-.018.166-.025.25h7.012c0-.084.013-.166.013-.25s-.011-.166-.013-.25z" fill="#8f8f8f"/><path d="m14.928 41.281 4.958 4.958c.121-.115.238-.232.353-.353l-4.958-4.958a2.942 2.942 0 0 1 -.353.353z" fill="#8f8f8f"/><path d="m15.683 40.318 6.537 2.558c.064-.153.115-.312.172-.469l-6.53-2.555a2.972 2.972 0 0 1 -.179.466z" fill="#8f8f8f"/><path d="m15.281 37.072 4.958-4.958c-.115-.121-.232-.238-.353-.353l-4.958 4.958a2.942 2.942 0 0 1 .353.353z" fill="#8f8f8f"/><path d="m13 36c.086 0 .166.018.25.025v-7.012c-.084 0-.166-.013-.25-.013s-.166.011-.25.013v7.012c.084-.007.164-.025.25-.025z" fill="#8f8f8f"/><path d="m14.318 36.317 2.558-6.537c-.153-.064-.312-.115-.469-.172l-2.555 6.53a2.972 2.972 0 0 1 .466.179z" fill="#8f8f8f"/><path d="m10.317 37.682-6.537-2.558c-.064.153-.115.312-.172.469l6.53 2.555a3.01 3.01 0 0 1 .179-.466z" fill="#8f8f8f"/><path d="m15.862 38.148 6.53-2.555c-.057-.157-.108-.316-.172-.469l-6.537 2.558a2.972 2.972 0 0 1 .179.466z" fill="#8f8f8f"/><path d="m12.148 36.138-2.555-6.53c-.157.057-.316.108-.469.172l2.558 6.537a2.972 2.972 0 0 1 .466-.179z" fill="#8f8f8f"/><path d="m11.072 36.719-4.958-4.958c-.121.115-.238.232-.353.353l4.958 4.958a2.942 2.942 0 0 1 .353-.353z" fill="#8f8f8f"/><path d="m42.85 16.46-5-1.25a1.122 1.122 0 0 1 .27-2.21h9.26a1.618 1.618 0 0 1 1.45 2.34l-.38.77a1.643 1.643 0 0 1 -1.45.89h-1.8a1.737 1.737 0 0 1 -.39-.05z" fill="#479dad"/><path d="m23 19h-3l-3.69 8.47-3.74 8.57-.45 1.03a1.343 1.343 0 1 0 2.44 1.12l.57-1.3 3.69-8.39 2.01-4.57 1.05-2.38 18.12 3.45.11.03.67-2.08z" fill="#479dad"/><path d="m36.22 37.19-1.22 3.81-2.54-3.09a3.983 3.983 0 0 1 2.54-.91 4.148 4.148 0 0 1 1.22.19z" fill="#4a4a4a"/><path d="m38.99 40.75-3.99.25 1.22-3.81a3.993 3.993 0 0 1 2.77 3.56z" fill="#4a4a4a"/><path d="m38.99 40.75a2.09 2.09 0 0 1 .01.25 4 4 0 1 1 -6.54-3.09l2.54 3.09z" fill="#4a4a4a"/><path d="m51 36a3 3 0 1 1 -2.75 4.17l1.3-.08a1.544 1.544 0 0 0 1.1-2.52l-.95-1.16.3-.24a3 3 0 0 1 1-.17z" fill="#4a4a4a"/><path d="m51.42 36.94-8.65-10.57a.971.971 0 0 0 -.77-.37h-1.15l2.97-9.3-.97-.24-.97-.24-2.08 6.51-.67 2.1-4.52 14.12-12.9-15.66-.41-.41-.47 1.05-.41.94 13.81 16.76a1 1 0 0 0 .77.37h.06l14.55-.91a2.549 2.549 0 0 0 2.39-2.54 2.467 2.467 0 0 0 -.58-1.61zm-1.93 2.15-13.09.82 3.81-11.91h1.32l8.35 10.21a.5.5 0 0 1 .12.34.538.538 0 0 1 -.51.54z" fill="#33717d"/><path d="m21.12 19-.04-.08.87-2.6a1 1 0 0 0 -.14-.9.983.983 0 0 0 -.81-.42h-3.7l-2.3-1.53-.45-.3a.967.967 0 0 0 -.55-.17h-1a4 4 0 1 0 0 8h4a1 1 0 0 0 0-2h-4a2.015 2.015 0 0 1 -2-2 2.006 2.006 0 0 1 2-2h.7l2.75 1.83a.967.967 0 0 0 .55.17h2.61l-.56 1.68a1.027 1.027 0 0 0 .06.77l.371.742.519-1.192z" fill="#33717d"/><path d="m15 11v2.47l-.45-.3a.967.967 0 0 0 -.55-.17h-1v-2a1 1 0 0 1 2 0z" fill="#4a4a4a"/><path d="m46.082 15.416-5.121-1.024a2.431 2.431 0 0 1 -1.737-1.392h-1.1a1.122 1.122 0 0 0 -.27 2.21l5 1.25 1.96.49a1.737 1.737 0 0 0 .39.05h1.796a1.643 1.643 0 0 0 1.45-.89l.38-.77a1.6 1.6 0 0 0 0-1.443 2.43 2.43 0 0 1 -2.748 1.519z" fill="#3b8391"/></g></svg>