<svg height="512" viewBox="0 0 64 64" width="512" xmlns="http://www.w3.org/2000/svg"><g id="_28-Tram" data-name="28-Tram"><path d="m53 21h4v3h-4z" fill="#f24754"/><path d="m32 10-3 8 2 6h-2l-4-6.55z" fill="#fff"/><path d="m32 10 3 8-2 6h-2l-2-6z" fill="#fff"/><path d="m32 10 7 7.45-4 6.55h-2l2-6z" fill="#fff"/><path d="m24 47a2.653 2.653 0 0 1 -.16.94 2.988 2.988 0 0 1 -5.68 0 2.653 2.653 0 0 1 -.16-.94 3 3 0 0 1 6 0z" fill="#363636"/><path d="m46 47a2.653 2.653 0 0 1 -.16.94 2.988 2.988 0 0 1 -5.68 0 2.653 2.653 0 0 1 -.16-.94 3 3 0 0 1 6 0z" fill="#363636"/><path d="m18 47a2.653 2.653 0 0 0 .16.94l-.16.06h-6v-1h-9v-3h18a3 3 0 0 0 -3 3z" fill="#6d6d6d"/><path d="m40 47a2.653 2.653 0 0 0 .16.94l-.16.06h-16l-.16-.06a2.653 2.653 0 0 0 .16-.94 3 3 0 0 0 -3-3h22a3 3 0 0 0 -3 3z" fill="#6d6d6d"/><path d="m61 44v3h-9v1h-6l-.16-.06a2.653 2.653 0 0 0 .16-.94 3 3 0 0 0 -3-3z" fill="#6d6d6d"/><path d="m5 28a2.012 2.012 0 0 0 -1.76 1.05l-.24-.05v-1a4 4 0 0 1 4-4h50a4 4 0 0 1 4 4v1l-.24.05a2.012 2.012 0 0 0 -1.76-1.05z" fill="#e3e3e3"/><path d="m60.88 29.03-.12.02a2.012 2.012 0 0 0 -1.76-1.05h-54a2.012 2.012 0 0 0 -1.76 1.05l-.12-.02a4 4 0 0 1 3.88-3.03h50a4 4 0 0 1 3.88 3.03z" fill="#adadad"/><path d="m12 28v16h-4v-8-8z" fill="#d79d44"/><path d="m16 41v3h-4v-16h4v8z" fill="#d79d44"/><path d="m52 28v16h-4v-3-5-8z" fill="#d79d44"/><path d="m56 36v8h-4v-16h4z" fill="#d79d44"/><g fill="#f2f9ff"><path d="m8 28v8h-5v-6a2 2 0 0 1 2-2z"/><path d="m16 28h7v8h-7z"/><path d="m23 28h18v8h-18z"/><path d="m41 28h7v8h-7z"/><path d="m61 30v6h-5v-8h3a2 2 0 0 1 2 2z"/></g><path d="m3 36h5v8h-5z" fill="#33717d"/><path d="m56 36h5v8h-5z" fill="#33717d"/><path d="m41 41h7v3h-5-22-5v-3h7z" fill="#428f9e"/><path d="m41 36h7v5h-7z" fill="#33717d"/><path d="m16 36h7v5h-7z" fill="#33717d"/><path d="m23 36h18v5h-18z" fill="#479dad"/><path d="m39.364 17.107-6.208-6.607h2.844a.5.5 0 0 0 0-1h-8a.5.5 0 0 0 0 1h2.844l-6.208 6.607a.5.5 0 0 0 -.063.6l3.841 6.293h1.077a.489.489 0 0 0 -.064-.261l-3.8-6.224 5.031-5.354-2.124 5.663a.5.5 0 0 0 -.007.334l1.946 5.842h1.021a.5.5 0 0 0 -.019-.158l-1.945-5.832 2.47-6.586 2.47 6.586-1.945 5.832a.5.5 0 0 0 -.019.158h1.021l1.948-5.842a.5.5 0 0 0 -.007-.334l-2.124-5.663 5.031 5.354-3.8 6.224a.489.489 0 0 0 -.064.261h1.077l3.841-6.289a.5.5 0 0 0 -.065-.604z" fill="#d79d44"/><path d="m18 30v-2h-2v8h7v-2h-1a4 4 0 0 1 -4-4z" fill="#c2e6ff"/><path d="m6 28v2a3.992 3.992 0 0 1 -3 3.859v2.141h5v-8z" fill="#c2e6ff"/><path d="m43 30v-2h-2v8h7v-2h-1a4 4 0 0 1 -4-4z" fill="#c2e6ff"/><path d="m58 30v-2h-2v8h5v-2.141a3.992 3.992 0 0 1 -3-3.859z" fill="#c2e6ff"/><path d="m25 30v-2h-2v8h18v-2h-12a4 4 0 0 1 -4-4z" fill="#c2e6ff"/><path d="m18 41a2 2 0 0 0 2 2h24a2 2 0 0 0 2-2h2v3h-32v-3z" fill="#2d646e"/><path d="m46 36h2v5h-2z" fill="#2d646e"/><path d="m16 36h2v5h-2z" fill="#2d646e"/><path d="m25 37h14v3h-14z" fill="#ffd45d"/><path d="m48 36.5v-1h-6.5v-7.5h-1v7.5h-17v-7.5h-1v7.5h-6.5v1h6.5v4h-6.5v1h32v-1h-6.5v-4zm-7.5 4h-17v-4h17z" fill="#d79d44"/><path d="m58 36v4a2 2 0 0 0 2 2h1v2h-5v-8z" fill="#26555d"/><path d="m6 36v4a2 2 0 0 1 -2 2h-1v2h5v-8z" fill="#26555d"/><path d="m59 35.5v-7.5h-1v7.5h-2v1h2 1 2v-1z" fill="#d79d44"/><path d="m6 28h-1v7.5h-2v1h2 1 2v-1h-2z" fill="#d79d44"/><rect fill="#f2f9ff" height="6" rx="1" width="2" x="49" y="30"/><rect fill="#f2f9ff" height="6" rx="1" width="2" x="53" y="30"/><path d="m50 30a1 1 0 0 0 -1 1v1a1 1 0 0 1 2 0v-1a1 1 0 0 0 -1-1z" fill="#c2e6ff"/><path d="m54 30a1 1 0 0 0 -1 1v1a1 1 0 0 1 2 0v-1a1 1 0 0 0 -1-1z" fill="#c2e6ff"/><path d="m56 29v-1h-3.5-.5-.5-3.5v1h3.5v14h-3.5v1h3.5.5.5 3.5v-1h-3.5v-14z" fill="#9b6b2b"/><rect fill="#f2f9ff" height="6" rx="1" width="2" x="9" y="30"/><rect fill="#f2f9ff" height="6" rx="1" width="2" x="13" y="30"/><path d="m10 30a1 1 0 0 0 -1 1v1a1 1 0 0 1 2 0v-1a1 1 0 0 0 -1-1z" fill="#c2e6ff"/><path d="m14 30a1 1 0 0 0 -1 1v1a1 1 0 0 1 2 0v-1a1 1 0 0 0 -1-1z" fill="#c2e6ff"/><path d="m16 29v-1h-3.5-.5-.5-3.5v1h3.5v14h-3.5v1h3.5.5.5 3.5v-1h-3.5v-14z" fill="#9b6b2b"/><circle cx="43" cy="47" fill="#6d6d6d" r="2"/><circle cx="21" cy="47" fill="#6d6d6d" r="2"/><path d="m56 44h-13a3 3 0 0 1 3 3 2.653 2.653 0 0 1 -.16.94l.16.06h2v-1a2 2 0 0 1 2-2h11v-1z" fill="#4a4a4a"/><path d="m8 44h13a3 3 0 0 0 -3 3 2.653 2.653 0 0 0 .16.94l-.16.06h-2v-1a2 2 0 0 0 -2-2h-11v-1z" fill="#4a4a4a"/><path d="m52 46h9v1h-9z" fill="#4a4a4a"/><path d="m3 46h9v1h-9z" fill="#4a4a4a"/><path d="m43 44h-22a2.982 2.982 0 0 1 2.224 1h17.552a2.982 2.982 0 0 1 2.224-1z" fill="#4a4a4a"/><path d="m54 21v.125a1.874 1.874 0 0 0 1.875 1.875h1.125v1h-4v-3z" fill="#c2313c"/></g></svg>