<svg height="512" viewBox="0 0 64 64" width="512" xmlns="http://www.w3.org/2000/svg"><g id="_29-Taxi" data-name="29-Taxi"><path d="m59.5 33.56-3.05-.38a12.026 12.026 0 0 1 -2.82-.71l-3.63-1.39v1.92a2.006 2.006 0 0 1 -2 2h-29a2 2 0 0 1 -1.99-1.85 14.362 14.362 0 0 1 -4.09 1.13 62.08 62.08 0 0 0 -6.12 1.12l-2.8 5.6h-2.98c-.01.18-.02.35-.02.53v4.47a2.006 2.006 0 0 0 2 2h4l.1-.01a5 5 0 0 0 9.8 0l.1.01h30l.1-.01a5 5 0 0 0 9.8 0l.1.01 4.33-.72a2.006 2.006 0 0 0 1.67-1.97v-7.78a4 4 0 0 0 -3.5-3.97z" fill="#ffd45d"/><path d="m28 28 1-4h10l1 4-.02.19a25.973 25.973 0 0 0 -3.18-.19h-6.8a14.215 14.215 0 0 0 -1.98.13z" fill="#ffc551"/><path d="m50 31.08v1.92a2.006 2.006 0 0 1 -2 2h-14v-7h2.8a25.973 25.973 0 0 1 3.18.19 27.283 27.283 0 0 1 6.87 1.68z" fill="#f2f9ff"/><path d="m34 28v7h-15a2 2 0 0 1 -1.99-1.85 13.016 13.016 0 0 0 2.59-1.52 17.933 17.933 0 0 1 8.42-3.5 14.215 14.215 0 0 1 1.98-.13z" fill="#f2f9ff"/><path d="m6.8 35.4-2.8 5.6h-2.98a5.987 5.987 0 0 1 4.49-5.29c.41-.1.84-.21 1.29-.31z" fill="#ad313b"/><path d="m8.314 35.067c-.519.109-1.026.22-1.514.333l-2.8 5.6h-2.98c-.01.18-.02.35-.02.53v4.47a2.006 2.006 0 0 0 2 2h4l.1-.01a5 5 0 0 0 9.8 0l.1.01h30l.1-.01a5 5 0 0 0 9.8 0l.1.01 4.33-.72a2.006 2.006 0 0 0 1.67-1.97v-1.31c-28.418 0-51.761-3.909-54.686-8.933z" fill="#ffc551"/><path d="m52 40a7 7 0 0 0 -6.706 5h-26.588a6.991 6.991 0 0 0 -13.626 3h1.92l.1-.01a5 5 0 0 0 9.8 0l.1.01h30l.1-.01a5 5 0 0 0 9.8 0l.1.01 1.966-.327c.021-.222.034-.446.034-.673a7 7 0 0 0 -7-7z" fill="#f0af4c"/><path d="m12 52a5 5 0 0 1 -4.9-4.01 4.619 4.619 0 0 1 -.1-.99 5 5 0 0 1 10 0 4.619 4.619 0 0 1 -.1.99 5 5 0 0 1 -4.9 4.01zm0-7a2 2 0 1 0 2 2 2.006 2.006 0 0 0 -2-2z" fill="#404040"/><path d="m54 47a2 2 0 1 0 -2 2 2.006 2.006 0 0 0 2-2zm-2-5a5 5 0 0 1 5 5 4.619 4.619 0 0 1 -.1.99 5 5 0 0 1 -9.8 0 4.619 4.619 0 0 1 -.1-.99 5 5 0 0 1 5-5z" fill="#404040"/><path d="m6.07 36.859.73-1.459c-.45.1-.88.21-1.29.31a5.987 5.987 0 0 0 -4.49 5.29h1.18a5.969 5.969 0 0 1 3.87-4.141z" fill="#db3744"/><circle cx="12" cy="47" fill="#ccc" r="2"/><circle cx="52" cy="47" fill="#ccc" r="2"/><path d="m57 47a4.619 4.619 0 0 1 -.1.99 5 5 0 0 1 -9.8 0 4.619 4.619 0 0 1 -.1-.99 5.669 5.669 0 0 1 .1-1.01 5 5 0 0 0 9.8 0 5.669 5.669 0 0 1 .1 1.01z" fill="#303030"/><path d="m52 48a2 2 0 0 1 -1.929-1.5 1.966 1.966 0 0 0 -.071.5 2 2 0 0 0 4 0 1.966 1.966 0 0 0 -.071-.5 2 2 0 0 1 -1.929 1.5z" fill="#adadad"/><path d="m17 47a4.619 4.619 0 0 1 -.1.99 5 5 0 0 1 -9.8 0 4.619 4.619 0 0 1 -.1-.99 5.669 5.669 0 0 1 .1-1.01 5 5 0 0 0 9.8 0 5.669 5.669 0 0 1 .1 1.01z" fill="#303030"/><path d="m12 48a2 2 0 0 1 -1.929-1.5 1.966 1.966 0 0 0 -.071.5 2 2 0 0 0 4 0 1.966 1.966 0 0 0 -.071-.5 2 2 0 0 1 -1.929 1.5z" fill="#adadad"/><rect fill="#404040" height="2" rx="1" width="3" x="30" y="37"/><rect fill="#404040" height="2" rx="1" width="3" x="45" y="37"/><path d="m30 24h-1l-1 4 .02.13a14.215 14.215 0 0 1 1.98-.13h6.8a25.973 25.973 0 0 1 3.18.19l.02-.19-.251-1c-5.41-.044-9.749-1.367-9.749-3z" fill="#f0af4c"/><path d="m35 28h-1v7h14a2 2 0 0 0 1.724-1.006c-8.162-.059-14.724-2.715-14.724-5.994z" fill="#c2e6ff"/><path d="m21.885 30.165a20.254 20.254 0 0 0 -2.285 1.465 13.016 13.016 0 0 1 -2.59 1.52 2 2 0 0 0 1.99 1.85h15v-1c-5.529 0-10.234-1.591-12.115-3.835z" fill="#c2e6ff"/><path d="m19 35.5h29a2.5 2.5 0 0 0 2.5-2.5v-1.729l-.5-.191-3.15-1.21a27.283 27.283 0 0 0 -6.87-1.68 25.973 25.973 0 0 0 -3.18-.19h-6.8a14.215 14.215 0 0 0 -1.98.13 17.933 17.933 0 0 0 -8.42 3.5 13.016 13.016 0 0 1 -2.59 1.52c-.155.07-.316.127-.473.19a2.493 2.493 0 0 0 2.463 2.16zm15.5-7h2.3a25.123 25.123 0 0 1 3.126.188 26.814 26.814 0 0 1 6.744 1.649l2.83 1.087v1.576a1.5 1.5 0 0 1 -1.5 1.5h-13.5zm-14.6 3.531a17.592 17.592 0 0 1 8.192-3.406 13.662 13.662 0 0 1 1.908-.125h3.5v6h-14.5a1.5 1.5 0 0 1 -1.431-1.056 13.432 13.432 0 0 0 2.331-1.413z" fill="#303030"/></g></svg>