<svg height="512" viewBox="0 0 64 64" width="512" xmlns="http://www.w3.org/2000/svg"><g id="_30-Pickup_truck" data-name="30-Pickup truck"><path d="m63 18v20h-38v-4-6-10z" fill="#ccc"/><path d="m3 39h4v4h-4z" fill="#ffd45d"/><path d="m25 28v6h-17.46l4.86-5.35a2.029 2.029 0 0 1 1.48-.65z" fill="#f2f9ff"/><path d="m63 38v9h-6a5 5 0 0 0 -10 0h-22v-9z" fill="#db3744"/><path d="m25 34v13h-4a5 5 0 0 0 -10 0h-8a1.955 1.955 0 0 1 -1.41-.59 1.98 1.98 0 0 1 0-2.82 1.955 1.955 0 0 1 1.41-.59h4v-4h-4l4.54-5z" fill="#db3744"/><path d="m21 34s1 9-14 9h-4a1.955 1.955 0 0 0 -1.41.59 1.98 1.98 0 0 0 0 2.82 1.955 1.955 0 0 0 1.41.59h8a5 5 0 0 1 10 0h4v-13z" fill="#ad313b"/><path d="m6 39v1a2 2 0 0 1 -2 2h-1v1h4v-4z" fill="#f0af4c"/><path d="m23 28a4 4 0 0 1 -4 4h-9.643l-1.817 2h17.46v-6z" fill="#c2e6ff"/><path d="m12.4 28.65-4.86 5.35-.325.358a.483.483 0 0 0 .325.142h17.46v-1h-16.33l4.1-4.51a1.522 1.522 0 0 1 1.112-.49h11.118v-.5h-11.12a2.029 2.029 0 0 0 -1.48.65z" fill="#7a2329"/><path d="m57 47h6v-3h-7.023a4.956 4.956 0 0 1 1.023 3z" fill="#c2313c"/><path d="m29 38h-4v9h22a4.951 4.951 0 0 1 1.024-3h-13.024a6 6 0 0 1 -6-6z" fill="#c2313c"/><path d="m59 47a7 7 0 0 0 -14 0z" fill="#ad313b"/><path d="m23 47a7 7 0 0 0 -14 0z" fill="#8d2830"/><circle cx="52" cy="47" fill="#ccc" r="2"/><circle cx="16" cy="47" fill="#ccc" r="2"/><path d="m54 47a2 2 0 1 0 -2 2 2.006 2.006 0 0 0 2-2zm-2-5a5 5 0 1 1 -5 5 5 5 0 0 1 5-5z" fill="#404040"/><path d="m21 47a5 5 0 1 1 -5-5 5 5 0 0 1 5 5zm-5 2a2 2 0 1 0 -2-2 2.006 2.006 0 0 0 2 2z" fill="#404040"/><path d="m57 47a4.619 4.619 0 0 1 -.1.99 5 5 0 0 1 -9.8 0 4.619 4.619 0 0 1 -.1-.99 5.669 5.669 0 0 1 .1-1.01 5 5 0 0 0 9.8 0 5.669 5.669 0 0 1 .1 1.01z" fill="#303030"/><path d="m52 48a2 2 0 0 1 -1.929-1.5 1.966 1.966 0 0 0 -.071.5 2 2 0 0 0 4 0 1.966 1.966 0 0 0 -.071-.5 2 2 0 0 1 -1.929 1.5z" fill="#adadad"/><path d="m21 47a4.619 4.619 0 0 1 -.1.99 5 5 0 0 1 -9.8 0 4.619 4.619 0 0 1 -.1-.99 5.669 5.669 0 0 1 .1-1.01 5 5 0 0 0 9.8 0 5.669 5.669 0 0 1 .1 1.01z" fill="#303030"/><path d="m16 48a2 2 0 0 1 -1.929-1.5 1.966 1.966 0 0 0 -.071.5 2 2 0 0 0 4 0 1.966 1.966 0 0 0 -.071-.5 2 2 0 0 1 -1.929 1.5z" fill="#adadad"/><path d="m29 18a16 16 0 0 0 16 16h18v4h-38v-20z" fill="#adadad"/><path d="m25 18h38v2h-38z" fill="#f0f0f0"/><path d="m25 18v2h4.138a16.094 16.094 0 0 1 -.138-2z" fill="#ccc"/><path d="m25 36h38v2h-38z" fill="#6d6d6d"/><rect fill="#7a2329" height="2" rx="1" width="3" x="19" y="36"/></g></svg>