<svg height="512" viewBox="0 0 56 58" width="512" xmlns="http://www.w3.org/2000/svg"><g id="Page-1" fill="none" fill-rule="evenodd"><g id="001---Cupdead" fill-rule="nonzero" transform="translate(-1 -1)"><path id="Shape" d="m12.19 37.65-5.2-4c-.09170624-1.2404245-.93933087-2.2956114-2.13081147-2.6525945-1.19148061-.356983-2.47967277.0582855-3.2383375 1.0439278-.75866474.9856423-.83043503 2.3372103-.18042063 3.3976555.65001441 1.0604453 1.88698344 1.6098037 3.1095696 1.3810112l8.38 6.47 30.18-.29h7.66c.5630056.6411361 1.3767743 1.0060548 2.23 1 1.6568542 0 3-1.3431458 3-3s-1.3431458-3-3-3c-.8532257-.0060548-1.6669944.3588639-2.23 1h-7.14z" fill="#f9c795"/><path id="Shape" d="m11.72 34.1 3 23.16c.1313358 1.0019841.9894814 1.7485708 2 1.74h22.5c1.0105186.0085708 1.8686642-.7380159 2-1.74l3.06-23.16 1.06-8.1.66-5h-36l.66 5z" fill="#14a085"/><path id="Shape" d="m15.34 34.1 2.37 23.16c-.0058834.8879973.6578666 1.6379486 1.54 1.74h17.5c.8821334-.1020514 1.5458834-.8520027 1.54-1.74l2.37-23.16.83-8.1.51-5h-28l.51 5z" fill="#26b99a"/><path id="Shape" d="m21 56h-2.49c-.5052593.0042854-.9343321-.369008-1-.87l-.27-2c-.071797-.5522847.3177153-1.058203.87-1.13s1.058203.3177153 1.13.87l.14 1.13h1.62c.5522847 0 1 .4477153 1 1s-.4477153 1-1 1z" fill="#81ccb8"/><rect id="Rectangle-path" fill="#c03a2b" height="5" rx="2" width="40" x="8" y="16"/><rect id="Rectangle-path" fill="#ff5364" height="5" rx="2" width="34" x="11" y="16"/><path id="Shape" d="m30 6.79v9.21h-4v-13z" fill="#14a085"/><rect id="Rectangle-path" fill="#26b99a" height="4" rx="2" transform="matrix(.825 .565 -.565 .825 8.436 -16.758)" width="12" x="25.303" y="3.255"/><circle id="Oval" cx="21" cy="34" fill="#fff" r="5"/><circle id="Oval" cx="35" cy="34" fill="#fff" r="5"/><path id="Shape" d="m25 32c-.265803.0015368-.5212812-.1028135-.71-.29l-5.49-5.49-3.35 1.67c-.3211808.1932607-.7234705.1906728-1.0421383-.0067041-.3186678-.1973768-.5001928-.5563928-.4702434-.9300368s.2663431-.6991617.6123817-.8432591l3.36-1.68c.7693587-.3868332 1.6999512-.2377772 2.31.37l5.49 5.49c.1893127.1877666.2957983.4433625.2957983.71s-.1064856.5222334-.2957983.71c-.1887188.1871865-.444197.2915368-.71.29z" fill="#33907c"/><path id="Shape" d="m31 32c-.265803.0015368-.5212812-.1028135-.71-.29-.1893127-.1877666-.2957983-.4433625-.2957983-.71s.1064856-.5222334.2957983-.71l5.49-5.49c.6100488-.6077772 1.5406413-.7568332 2.31-.37l3.36 1.68c.4487927.2700473.6131719.8406385.3768341 1.3080622s-.7933069.6732882-1.2768341.4719378l-3.35-1.67-5.49 5.49c-.1887188.1871865-.444197.2915368-.71.29z" fill="#33907c"/><circle id="Oval" cx="22" cy="35" fill="#35495e" r="2"/><circle id="Oval" cx="34" cy="35" fill="#35495e" r="2"/><path id="Shape" d="m33.52 43.19c-.3980154 1.7938595-.0360512 3.6724539 1 5.19.4084184.655763.5481169 1.4438058.39 2.2-.2482953 1.1765471-1.1751181 2.0911614-2.354854 2.3238348-1.179736.2326733-2.3844177-.2615551-3.0608328-1.2557263s-.6938558-2.2961757-.0443132-3.3081085c.9907435-1.4649651 1.3510844-3.2666694 1-5z" fill="#ff5364"/><path id="Shape" d="m29 41h-2c-.5522847 0-1-.4477153-1-1s.4477153-1 1-1h2c.5522847 0 1 .4477153 1 1s-.4477153 1-1 1z" fill="#33907c"/><path id="Shape" d="m56.87 49c-.1594461.6065224-.4572303 1.1678627-.87 1.64v2.36c0 1.1045695-.8954305 2-2 2h-2c-1.1045695 0-2-.8954305-2-2v-2.36c-.4146016-.4708734-.7126277-1.0326697-.87-1.64-.1733862-.6553931-.1733862-1.3446069 0-2 .4601182-1.7604403 2.0504234-2.9885159 3.87-2.9885159s3.4098818 1.2280756 3.87 2.9885159c.0257655.0852344.0458101.1720943.06.26.1079986.5773702.0875134 1.1714406-.06 1.74z" fill="#f3d55b"/><g fill="#b19046"><path id="Shape" d="m52 48c0 .5522847-.4477153 1-1 1h-1.87c-.1733862-.6553931-.1733862-1.3446069 0-2h1.87c.5522847 0 1 .4477153 1 1z"/><path id="Shape" d="m56.87 49h-1.87c-.5522847 0-1-.4477153-1-1s.4477153-1 1-1h1.87c.0257655.0852344.0458101.1720943.06.26.1079986.5773702.0875134 1.1714406-.06 1.74z"/><path id="Shape" d="m54 53v2h-2v-2c0-.5522847.4477153-1 1-1s1 .4477153 1 1z"/></g><path id="Shape" d="m36.25 8.65c-.6241307.91119472-1.8687117 1.14399404-2.78.52-.6674696-.45704199-.9938866-1.27116467-.8270348-2.06272228.1668519-.79155761.7941118-1.4046554 1.5892727-1.55339054.7951609-.14873513 1.6016184.19618531 2.0433013.87391628.4416828.67773098.4316029 1.55479554-.0255392 2.22219654z" fill="#3f5c6c"/><circle id="Oval" cx="21" cy="34" fill="#fff" r="1"/><circle id="Oval" cx="33" cy="34" fill="#fff" r="1"/><path id="Shape" d="m19 45c-.5522847.0165685-1.0134314-.4177153-1.03-.97-.0165685-.5522847.4177153-1.0134314.97-1.03l18-1c.3572656-.0214359.6988286.1493554.8960254.4480385.1971969.2986831.2200688.6798809.06 1-.1600687.320119-.4787598.5305256-.8360254.5519615l-18 1z" fill="#33907c"/></g></g></svg>