<svg height="512" viewBox="0 0 59 58" width="512" xmlns="http://www.w3.org/2000/svg"><g id="Page-1" fill="none" fill-rule="evenodd"><g id="003---When-Death-Give-You-Lemons" fill-rule="nonzero" transform="translate(-1)"><path id="Shape" d="m59 9c-.5522847 0-1 .44771525-1 1v5h-1v-5c0-.55228475-.4477153-1-1-1s-1 .44771525-1 1v5h-1v-5c0-.55228475-.4477153-1-1-1s-1 .44771525-1 1v8.29c-.0042078.7199299.2803457 1.411503.79 1.92.1373376.1296229.213594.3111858.21.5v5.05c0 .5522847.4477153 1 1 1h4c.265803.0015368.5212812-.1028135.71-.29.1871865-.1887188.2915368-.444197.29-.71v-5.05c-.003594-.1888142.0726624-.3703771.21-.5.5096543-.508497.7942078-1.2000701.79-1.92v-8.29c0-.55228475-.4477153-1-1-1z" fill="#84b5cb"/><path id="Shape" d="m2 25.77v-7.92c-.68101517-.9819514-1.0313032-2.1554163-1-3.35 0-2.5 1.34-4.5 3-4.5s3 2 3 4.5c.0313032 1.1945837-.31898483 2.3680486-1 3.35v7.91z" fill="#84b5cb"/><path id="Shape" d="m49 30h4.79c.5584134.6358638 1.3637446 1.000267 2.21 1 1.6568542 0 3-1.3431458 3-3s-1.3431458-3-3-3c-.8532257-.0060548-1.6669944.3588639-2.23 1h-47.54c-.56300556-.6411361-1.37677432-1.0060548-2.23-1-1.65685425 0-3 1.3431458-3 3s1.34314575 3 3 3c.85322568.0060548 1.66699444-.3588639 2.23-1z" fill="#f9c795"/><path id="Shape" d="m49 29c0 17.34-14.67 19.47-14.67 22.74 0 4.26-4.33 4.26-4.33 4.26s-4.33 0-4.33-4.26c0-3.37-14.67-5.37-14.67-22.74 0-16.34 14.67-20.47 14.67-24.74 0-4.27 4.33-4.26 4.33-4.26s4.33 0 4.33 4.26 14.67 8.4 14.67 24.74z" fill="#f0c419"/><path id="Shape" d="m43 29c0 17.34-10 19.47-10 22.74 0 4.26-3 4.26-3 4.26s-3 0-3-4.26c0-3.37-10-5.37-10-22.74 0-16.34 10-20.47 10-24.74 0-4.27 3-4.26 3-4.26s3 0 3 4.26 10 8.4 10 24.74z" fill="#f3d55b"/><path id="Shape" d="m20 55.15c-.0848119 1.0046932-.7558559 1.8641004-1.71 2.19-1.5575057.6212249-3.2536461.8112203-4.91.55-3.76-.55-2.66-5.54.14-6.63 2-.79 4.47.34 5.71 1.86.5011075.5568019.7757773 1.2809314.77 2.03z" fill="#e57e25"/><path id="Shape" d="m17.43 52.65c-.1191942-.0003659-.2374896-.0206451-.35-.06-.2498194-.0921513-.4525707-.2801309-.5633209-.5222796s-.1203525-.5184677-.0266791-.7677204c.7607195-1.8507981 2.0166808-3.4562142 3.63-4.64.2822398-.2215047.6612115-.2756103.9941601-.1419358.3329485.1336746.5692912.4348209.62.79.0507087.3551792-.0919203.7104311-.3741601.9319358-1.330518.9496285-2.3695133 2.2518359-3 3.76-.1451776.3885864-.5151891.6471965-.93.65z" fill="#f9c795"/><path id="Shape" d="m40 55.15c.0848119 1.0046932.7558559 1.8641004 1.71 2.19 1.5575057.6212249 3.2536461.8112203 4.91.55 3.76-.55 2.66-5.54-.14-6.63-2-.79-4.47.34-5.71 1.86-.5011075.5568019-.7757773 1.2809314-.77 2.03z" fill="#e57e25"/><path id="Shape" d="m42.57 52.65c-.4184725.0013593-.7935361-.2579931-.94-.65-.6294977-1.5033239-1.6690691-2.799323-3-3.74-.436305-.3424165-.5124165-.973695-.17-1.41s.973695-.5124165 1.41-.17c1.6059644 1.1780293 2.855253 2.7768419 3.61 4.62.0936734.2492527.0840711.5255717-.0266791.7677204s-.3135015.4301283-.5633209.5222796c-.1029816.036206-.2108972.0564402-.32.06z" fill="#f9c795"/><path id="Shape" d="m43.81 32.36c-.1.74-.22 1.48-.39 2.22-1.21 5.42-4.7 10.42-13.42 10.42s-12.21-5-13.42-10.42c-.17-.73-.29-1.48-.39-2.22-.3001935-2.9132431-.2363689-5.8525337.19-8.75.0418638-.3065329.2232509-.5764282.4912626-.7309751.2680116-.1545468.5924647-.1763404.8787374-.0590249 3.9074379 1.4994564 8.0651563 2.2393606 12.25 2.18 4.1817085.0607908 8.3364211-.6791825 12.24-2.18.2873582-.1212172.614818-.1014242.8854837.0535221.2706657.1549464.4535423.4273025.4945163.7364779.4213598 2.8978854.4851709 5.8365556.19 8.75z" fill="#ecf0f1"/><path id="Shape" d="m43.81 32.36c-.1.74-.22 1.48-.39 2.22-3.0802751.9042624-6.269962 1.3820425-9.48 1.42l-2 2.61c-.1887926.245247-.4805034.3892561-.79.39h-.15c-.3578664-.0517295-.6599327-.2926178-.79-.63l-1.65-4.37-1.21 1.58c-.1887926.245247-.4805034.3892561-.79.39-3.3841867.0087364-6.7520253-.4694966-10-1.42-.17-.73-.29-1.48-.39-2.22l.47.15c3.0517232.966627 6.2291121 1.478783 9.43 1.52l2-2.61c.2169558-.2882382.572346-.4372728.93-.39.3578664.0517295.6599327.2926178.79.63l1.65 4.37 1.21-1.58c.1887926-.245247.4805034-.3892561.79-.39 3.3571384.0174802 6.6967282-.4851449 9.9-1.49z" fill="#95a5a5"/><path id="Shape" d="m25.93 16.93c.0490788.1859455.0726281.3777045.07.57 0 1.3807119-1.1192881 2.5-2.5 2.5s-2.5-1.1192881-2.5-2.5 1.1192881-2.5 2.5-2.5c.1922955-.0026281.3840545.0209212.57.07" fill="#ecf0f1"/><path id="Shape" d="m27 19c-.265803.0015368-.5212812-.1028135-.71-.29l-5-5c-.2536586-.2536586-.3527235-.623374-.259878-.969878.0928454-.3465041.3634959-.6171546.71-.71.346504-.0928455.7162194.0062194.969878.259878l5 5c.1893127.1877666.2957983.4433625.2957983.71s-.1064856.5222334-.2957983.71c-.1887188.1871865-.444197.2915368-.71.29z" fill="#f29c1f"/><path id="Shape" d="m35.93 15.07c.1859455-.0490788.3777045-.0726281.57-.07 1.3807119 0 2.5 1.1192881 2.5 2.5s-1.1192881 2.5-2.5 2.5-2.5-1.1192881-2.5-2.5c-.0026281-.1922955.0209212-.3840545.07-.57" fill="#ecf0f1"/><path id="Shape" d="m33 19c-.265803.0015368-.5212812-.1028135-.71-.29-.1893127-.1877666-.2957983-.4433625-.2957983-.71s.1064856-.5222334.2957983-.71l5-5c.3921222-.3921221 1.0278778-.3921221 1.42 0 .3921221.3921222.3921221 1.0278778 0 1.42l-5 5c-.1887188.1871865-.444197.2915368-.71.29z" fill="#f29c1f"/><g fill="#cc4b4c"><circle id="Oval" cx="23" cy="18" r="1"/><circle id="Oval" cx="37" cy="18" r="1"/></g></g></g></svg>