<svg height="512" viewBox="0 0 54 59" width="512" xmlns="http://www.w3.org/2000/svg"><g id="Page-1" fill="none" fill-rule="evenodd"><g id="005---Apple-Zombie" fill-rule="nonzero"><g fill="#f9c795"><path id="Shape" d="m3 41c-.07970991.0096348-.16029009.0096348-.24 0-.26935632-.0564908-.50352395-.2214957-.64734157-.4561455s-.18457039-.5181992-.11265843-.7838545l.1-.39c.63340685-2.5758853 2.27207614-4.7907899 4.55-6.15.2269184-.1474693.50391794-.1966707.7677413-.1363682s.49194105.2249592.6322587.4563682c.28399191.4599093.15112301 1.0622484-.3 1.36-1.86108921 1.0973244-3.19922526 2.9007423-3.71 5l-.1.39c-.12589442.4156912-.50572637.7025855-.94.71z"/><circle id="Oval" cx="2.5" cy="42.5" r="2.5"/><path id="Shape" d="m51 41c-.4706972.0137136-.8871845-.3028167-1-.76l-.1-.39c-.5064522-2.0582667-1.8178048-3.8271518-3.64-4.91-.2369542-.1319179-.4101672-.3544195-.479928-.616494-.0697609-.2620745-.0300863-.541244.109928-.773506.2734449-.4586445.8589852-.6215392 1.33-.37h.07c2.2779239 1.3592101 3.9165931 3.5741147 4.55 6.15l.1.39c.0861688.2625888.0598247.5491301-.0727789.7916053-.1326036.2424751-.359642.4192618-.6272211.4883947-.0797099.0096348-.1602901.0096348-.24 0z"/><circle id="Oval" cx="51.5" cy="42.5" r="2.5"/><path id="Shape" d="m14 53.12c-.5522847 0-1-.4477153-1-1v-2.18c-.004044-.7750026.1776977-1.5396895.53-2.23l1.31-2.65c.1180802-.2398973.3273153-.4225148.5809771-.5070687s.5306203-.064001.7690229.0570687c.2437742.1249065.4256416.34434.5031349.6070609.0774932.262721.0438279.5457289-.0931349.7829391l-1.31 2.65c-.1957486.4015691-.2950502.8432901-.29 1.29v2.18c0 .5522847-.4477153 1-1 1z"/></g><path id="Shape" d="m18 56.15c-.0848119 1.0046932-.7558559 1.8641004-1.71 2.19-1.5575057.6212249-3.2536461.8112203-4.91.55-3.76-.55-2.66-5.54.14-6.63 2-.79 4.47.34 5.71 1.86.5011075.5568019.7757773 1.2809314.77 2.03z" fill="#c03a2b"/><path id="Shape" d="m40 53.12c-.5522847 0-1-.4477153-1-1v-2.18c.000289-.4612701-.1057926-.9163945-.31-1.33l-1.3-2.61c-.1932607-.3211808-.1906728-.7234705.0067041-1.0421383.1973768-.3186678.5563928-.5001928.9300368-.4702434s.6991617.2663431.8432591.6123817l1.33 2.65c.335755.6808118.5070149 1.4309302.5 2.19v2.18c0 .5522847-.4477153 1-1 1z" fill="#f9c795"/><path id="Shape" d="m36 56.15c.0848119 1.0046932.7558559 1.8641004 1.71 2.19 1.5575057.6212249 3.2536461.8112203 4.91.55 3.76-.55 2.66-5.54-.14-6.63-2-.79-4.47.34-5.71 1.86-.5011075.5568019-.7757773 1.2809314-.77 2.03z" fill="#c03a2b"/><path id="Shape" d="m27 12.21c-.5224937.0016745-.958203-.3991781-1-.92 0-.06 0-.13 0-.17-.2910824-1.87745953.0613434-3.79818065 1-5.45.3239123-.40212479.9007244-.49151293 1.3311547-.20628803s.5729246.8512619.3288453 1.30628803c-.6669622 1.30305173-.8982977 2.78570204-.66 4.23v.18c.0081149.2703754-.0936485.5325051-.2820716.726581-.1884231.1940758-.4474313.3035408-.7179284.303419z" fill="#cb8252"/><path id="Shape" d="m27.14 8.85c-.1531557-.00248407-.3036937-.04011858-.44-.11l-2.54-1.25c-.3772409-.11172972-.65391-.43428009-.7069046-.82413361s.1275348-.77455301.4612623-.98292799c.3337275-.20837497.7586275-.20169738 1.0856423.0170616l2.58 1.3c.454871.25476936.6376819.81625991.42 1.29-.1617228.33074623-.4921034.54587783-.86.56z" fill="#cb8252"/><path id="Shape" d="m31.23 46.65c1.74.52 3.75.68 6.74-1.13 5.49-3.32 11-13.28 11-22.13-1.0738874 1.2847497-2.7734536 1.8651915-4.4088762 1.5057349-1.6354225-.3594566-2.9349483-1.5990819-3.3711238-3.2157349-.5363431.2183465-1.1109594.3271496-1.69.32-1.1942885.0026629-2.340429-.4705878-3.1849206-1.3150794s-1.3177423-1.9906321-1.3150794-3.1849206c-.0031765-.5689597.1055526-1.1329919.32-1.66-1.2501166-.3317129-2.2964712-1.186398-2.8710534-2.3451388s-.6215767-2.5089764-.1289466-3.7048612c-2.33.63-4 1.42-5.34 1.42-2.17 0-5.47-2.21-10.98-2.21s-11 5.53-11 14.39 5.54 18.81 11 22.13 7.68 0 11 0h.28z" fill="#c03a2b"/><circle id="Oval" cx="19.5" cy="27.5" fill="#fff" r="2.5"/><path id="Shape" d="m19.5 35c-1.9897757.0048972-3.8986006-.7874452-5.3-2.2-.3397768-.3967603-.3169323-.9881942.0524368-1.3575632.369369-.3693691.9608029-.3922136 1.3575632-.0524368 1.0315242 1.0320085 2.430862 1.6118256 3.89 1.6118256s2.8584758-.5798171 3.89-1.6118256c.3967603-.3397768.9881942-.3169323 1.3575632.0524368.3693691.369369.3922136.9608029.0524368 1.3575632-1.4013994 1.4125548-3.3102243 2.2048972-5.3 2.2z" fill="#802f34"/><path id="Shape" d="m34.5 35c-1.9897757.0048972-3.8986006-.7874452-5.3-2.2-.3397768-.3967603-.3169323-.9881942.0524368-1.3575632.369369-.3693691.9608029-.3922136 1.3575632-.0524368 1.0315242 1.0320085 2.430862 1.6118256 3.89 1.6118256s2.8584758-.5798171 3.89-1.6118256c.3967603-.3397768.9881942-.3169323 1.3575632.0524368.3693691.369369.3922136.9608029.0524368 1.3575632-1.4013994 1.4125548-3.3102243 2.2048972-5.3 2.2z" fill="#802f34"/><circle id="Oval" cx="34.5" cy="27.5" fill="#fff" r="2.5"/><path id="Shape" d="m30.87 42h-7.74c-.3148263.0100435-.6159839-.1288334-.8127544-.3747965s-.2661524-.5702606-.1872456-.8752035c.5717058-2.2052632 2.5618356-3.745249 4.84-3.745249s4.2682942 1.5399858 4.84 3.745249c.0762255.294722.0140518.6081166-.1689114.8514186-.1829631.2433021-.4667894.390014-.7710886.3985814z" fill="#3d324c"/><path id="Shape" d="m30.52 42.19c-.3980154 1.7938595-.0360512 3.6724539 1 5.19.4084184.655763.5481169 1.4438058.39 2.2-.2482953 1.1765471-1.1751181 2.0911614-2.354854 2.3238348-1.179736.2326733-2.3844177-.2615551-3.0608328-1.2557263s-.6938558-2.2961757-.0443132-3.3081085c1.0493832-1.508184 1.4125875-3.3895822 1-5.18" fill="#4fba6f"/><path id="Shape" d="m9.06 24.58c-.55228475 0-1-.4477153-1-1-.13567582-3.3303607 1.00128921-6.5875152 3.18-9.11.3810765-.4031679 1.0168321-.4210765 1.42-.04s.4210765 1.0168321.04 1.42c-1.8182544 2.1544168-2.76053265 4.913436-2.64 7.73 0 .5522847-.44771525 1-1 1z" fill="#e64c3c"/><circle id="Oval" cx="15" cy="13.19" fill="#e64c3c" r="1"/><path id="Shape" d="m23.3 7.68c-1.78 0-4.69-.42-6-3-.47-.94-2.43-2.16-3.55-2.71-.4118047-.19780524-.6371976-.64954422-.5476024-1.09752047.0895953-.44797625.471396-.7782765.9276024-.80247953 5.56-.34 9.19.58 10.78 2.76.8770045 1.20462675 1.1086059 2.76233285.62 4.17-.1265805.33183614-.4196694.57163621-.77.63-.4848267.05181675-.9727643.06852694-1.46.05z" fill="#24ae5f"/></g></g></svg>