<svg height="512" viewBox="0 0 57 58" width="512" xmlns="http://www.w3.org/2000/svg"><g id="Page-1" fill="none" fill-rule="evenodd"><g id="006---Strawbury" fill-rule="nonzero"><path id="Shape" d="m9.62 31.1-3.56-2.74c-.09170624-1.2404245-.93933087-2.2956114-2.13081147-2.6525945-1.19148061-.356983-2.47967277.0582855-3.2383375 1.0439278-.75866474.9856423-.83043503 2.3372103-.18042063 3.3976555.65001441 1.0604453 1.88698344 1.6098037 3.1095696 1.3810112l8.38 6.47 32.42-1h6.33c.5675758.646463 1.3898169 1.0119035 2.25 1 1.6568542 0 3-1.3431458 3-3s-1.3431458-3-3-3c-.8532257-.0060548-1.6669944.3588639-2.23 1h-4.88z" fill="#f9c795"/><path id="Shape" d="m15 52.12c-.5522847 0-1-.4477153-1-1v-2.18c-.0028851-.7748694.1787927-1.5392871.53-2.23l.88-1.79c.1607695-.3215391.4808657-.5328839.8397114-.5544229.3588458-.0215391.7019239.15.9000001.45s.221058.6828839.0602885 1.0044229l-.89 1.79c-.2123069.4110607-.3220919.8673546-.32 1.33v2.18c0 .5522847-.4477153 1-1 1z" fill="#f9c795"/><path id="Shape" d="m19 55.15c-.0848119 1.0046932-.7558559 1.8641004-1.71 2.19-1.5575057.6212249-3.2536461.8112203-4.91.55-3.76-.55-2.66-5.54.14-6.63 2-.79 4.47.34 5.71 1.86.5011075.5568019.7757773 1.2809314.77 2.03z" fill="#c03a2b"/><path id="Shape" d="m41 52.12c-.5522847 0-1-.4477153-1-1v-2.18c.000289-.4612701-.1057926-.9163945-.31-1.33l-.89-1.78c-.1932607-.3211808-.1906728-.7234705.0067041-1.0421383.1973768-.3186678.5563928-.5001928.9300368-.4702434s.6991617.2663431.8432591.6123817l.89 1.78c.3512073.6907129.5328851 1.4551306.53 2.23v2.18c0 .5522847-.4477153 1-1 1z" fill="#f9c795"/><path id="Shape" d="m37 55.15c.0848119 1.0046932.7558559 1.8641004 1.71 2.19 1.5575057.6212249 3.2536461.8112203 4.91.55 3.76-.55 2.66-5.54-.14-6.63-2-.79-4.47.34-5.71 1.86-.5011075.5568019-.7757773 1.2809314-.77 2.03z" fill="#c03a2b"/><path id="Shape" d="m24.05 53.89c2.4251812 1.4807213 5.4748188 1.4807213 7.9 0 3.08-1.92 5.51-5.25 7.38-8 3.48-5 6.42-10.55 7.39-16.56.4596762-2.6578881.3609137-5.3823708-.29-8-1.54-5.75-7.08-8.86-12.8-10.56-3.6742367-1.08972628-7.5857633-1.08972628-11.26 0-5.72 1.7-11.26 4.81-12.8 10.56-.6509137 2.6176292-.7496762 5.3421119-.29 8 1 6 3.91 11.56 7.39 16.56 1.87 2.75 4.33 6.11 7.38 8z" fill="#c03a2b"/><path id="Shape" d="m24.68 53.89c1.9659186 1.4800151 4.6740814 1.4800151 6.64 0 2.6-1.92 4.64-5.25 6.22-8 3.1485608-5.0541023 5.2627358-10.6828382 6.22-16.56.3908635-2.6600432.3096197-5.3681713-.24-8-1.29-5.75-6-8.86-10.78-10.56-3.0659991-1.09003281-6.4140009-1.09003281-9.48 0-4.82 1.7-9.49 4.81-10.78 10.56-.5496197 2.6318287-.6308635 5.3399568-.24 8 .9572642 5.8771618 3.0714392 11.5058977 6.22 16.56 1.54 2.75 3.62 6.11 6.22 8z" fill="#e64c3c"/><path id="Shape" d="m28 42c-2.7614237 0-5-2.2385763-5-5v-1c0-.5522847.4477153-1 1-1s1 .4477153 1 1v1c0 1.6568542 1.3431458 3 3 3s3-1.3431458 3-3v-1c0-.5522847.4477153-1 1-1s1 .4477153 1 1v1c0 2.7614237-2.2385763 5-5 5z" fill="#802f34"/><g fill="#c03a2b"><path id="Shape" d="m22 17c-.265803.0015368-.5212812-.1028135-.71-.29-.1893127-.1877666-.2957983-.4433625-.2957983-.71s.1064856-.5222334.2957983-.71l1-1c.3921222-.3921222 1.0278778-.3921222 1.42 0s.3921222 1.0278778 0 1.42l-1 1c-.1887188.1871865-.444197.2915368-.71.29z"/><path id="Shape" d="m34 17c-.265803.0015368-.5212812-.1028135-.71-.29l-1-1c-.3921221-.3921222-.3921221-1.0278778 0-1.42.3921222-.3921221 1.0278778-.3921221 1.42 0l1 1c.1893127.1877666.2957983.4433625.2957983.71s-.1064856.5222334-.2957983.71c-.1887188.1871865-.444197.2915368-.71.29z"/><path id="Shape" d="m23 47c-.265803.0015368-.5212812-.1028135-.71-.29l-1-1c-.3921222-.3921222-.3921222-1.0278778 0-1.42s1.0278778-.3921222 1.42 0l1 1c.1893127.1877666.2957983.4433625.2957983.71s-.1064856.5222334-.2957983.71c-.1887188.1871865-.444197.2915368-.71.29z"/><path id="Shape" d="m26 51c-.265803.0015368-.5212812-.1028135-.71-.29l-1-1c-.3921222-.3921222-.3921222-1.0278778 0-1.42s1.0278778-.3921222 1.42 0l1 1c.1893127.1877666.2957983.4433625.2957983.71s-.1064856.5222334-.2957983.71c-.1887188.1871865-.444197.2915368-.71.29z"/><path id="Shape" d="m33 47c-.265803.0015368-.5212812-.1028135-.71-.29-.1893127-.1877666-.2957983-.4433625-.2957983-.71s.1064856-.5222334.2957983-.71l1-1c.3921222-.3921222 1.0278778-.3921222 1.42 0s.3921222 1.0278778 0 1.42l-1 1c-.1887188.1871865-.444197.2915368-.71.29z"/><path id="Shape" d="m30 51c-.265803.0015368-.5212812-.1028135-.71-.29-.1893127-.1877666-.2957983-.4433625-.2957983-.71s.1064856-.5222334.2957983-.71l1-1c.3921222-.3921222 1.0278778-.3921222 1.42 0s.3921222 1.0278778 0 1.42l-1 1c-.1887188.1871865-.444197.2915368-.71.29z"/><path id="Shape" d="m28 47c-.5522847 0-1-.4477153-1-1v-1c0-.5522847.4477153-1 1-1s1 .4477153 1 1v1c0 .5522847-.4477153 1-1 1z"/><path id="Shape" d="m17 39c-.265803.0015368-.5212812-.1028135-.71-.29l-1-1c-.2536586-.2536586-.3527235-.623374-.259878-.969878.0928454-.3465041.3634959-.6171546.71-.71.346504-.0928455.7162194.0062194.969878.259878l1 1c.1893127.1877666.2957983.4433625.2957983.71s-.1064856.5222334-.2957983.71c-.1887188.1871865-.444197.2915368-.71.29z"/><path id="Shape" d="m39 39c-.265803.0015368-.5212812-.1028135-.71-.29-.1893127-.1877666-.2957983-.4433625-.2957983-.71s.1064856-.5222334.2957983-.71l1-1c.2536586-.2536586.623374-.3527235.969878-.259878.3465041.0928454.6171546.3634959.71.71.0928455.346504-.0062194.7162194-.259878.969878l-1 1c-.1887188.1871865-.444197.2915368-.71.29z"/></g><circle id="Oval" cx="21" cy="27" fill="#fff" r="5"/><circle id="Oval" cx="35" cy="27" fill="#fff" r="5"/><path id="Shape" d="m25 25c-.265803.0015368-.5212812-.1028135-.71-.29l-5.49-5.49-3.35 1.67c-.4835272.2013504-1.0404963-.0045141-1.2768341-.4719378s-.0719586-1.0380149.3768341-1.3080622l3.36-1.68c.7693587-.3868332 1.6999512-.2377772 2.31.37l5.49 5.49c.1893127.1877666.2957983.4433625.2957983.71s-.1064856.5222334-.2957983.71c-.1887188.1871865-.444197.2915368-.71.29z" fill="#802f34"/><path id="Shape" d="m31 25c-.265803.0015368-.5212812-.1028135-.71-.29-.1893127-.1877666-.2957983-.4433625-.2957983-.71s.1064856-.5222334.2957983-.71l5.49-5.49c.6100488-.6077772 1.5406413-.7568332 2.31-.37l3.36 1.68c.4487927.2700473.6131719.8406385.3768341 1.3080622s-.7933069.6732882-1.2768341.4719378l-3.35-1.67-5.49 5.49c-.1887188.1871865-.444197.2915368-.71.29z" fill="#802f34"/><circle id="Oval" cx="21" cy="28" fill="#3f5c6c" r="2"/><circle id="Oval" cx="35" cy="28" fill="#3f5c6c" r="2"/><path id="Shape" d="m17 13c-1.5428159.7882029-2.9613262 1.7990178-4.21 3-.86-.1-3.91-.84-4.77-6 1.30449051-.59521661 2.7426566-.83663539 4.17-.7 2.150677.28190692 3.9858643 1.6935894 4.81 3.7z" fill="#24ae5f"/><path id="Shape" d="m21.08 11.24c-1.4068399.4714992-2.7716291 1.0602318-4.08 1.76-.8326019-1.9947527-2.6661817-3.3937626-4.81-3.67-2.0035489-1.0114021-3.24538872-3.08632564-3.19-5.33 0 0 5.43-3.26 9.89.24-.0514031 2.42295856.6894457 4.79648375 2.11 6.76z" fill="#33907c"/><path id="Shape" d="m28 9c0 .32-.07.66-.09 1-1.8759856.0121511-3.7409315.28819-5.54.82-.43.13-.86.26-1.29.42l-.08-.24c-1.4205543-1.96351625-2.1614031-4.33704144-2.11-6.76.055509-1.47749622.4344116-2.92483591 1.11-4.24 0 0 7 0 8 9z" fill="#24ae5f"/><path id="Shape" d="m48 10c-.86 5.14-3.91 5.88-4.77 6-1.2547869-1.2025892-2.6801334-2.2134732-4.23-3 .8326019-1.9947527 2.6661817-3.3937626 4.81-3.67 1.4312995-.14958567 2.8767168.0815431 4.19.67z" fill="#24ae5f"/><path id="Shape" d="m47 4c.0474802 2.22848184-1.1841524 4.28767834-3.17 5.3-2.1581622.2751635-4.0023902 1.6879262-4.83 3.7-1.2842743-.6785381-2.6221039-1.2504602-4-1.71l.18-.51c1.3051023-1.91628813 1.9797854-4.19203241 1.93-6.51 4.46-3.53 9.89-.27 9.89-.27z" fill="#33907c"/><path id="Shape" d="m37.11 4.24c.0497854 2.31796759-.6248977 4.59371187-1.93 6.51l-.18.51h-.08c-.43-.16-.86-.29-1.29-.42-1.855393-.5579291-3.7825359-.84093608-5.72-.84 0-.34.05-.68.09-1 1-9 8-9 8-9 .6755884 1.31516409 1.054491 2.76250378 1.11 4.24z" fill="#4fba6f"/><path id="Shape" d="m56.87 43c-.1594461.6065224-.4572303 1.1678627-.87 1.64v2.36c0 1.1045695-.8954305 2-2 2h-2c-1.1045695 0-2-.8954305-2-2v-2.36c-.4146016-.4708734-.7126277-1.0326697-.87-1.64-.1733862-.6553931-.1733862-1.3446069 0-2 .4601182-1.7604403 2.0504234-2.9885159 3.87-2.9885159s3.4098818 1.2280756 3.87 2.9885159c.0257655.0852344.0458101.1720943.06.26.1079986.5773702.0875134 1.1714406-.06 1.74z" fill="#f3d55b"/><path id="Shape" d="m52 42c0 .5522847-.4477153 1-1 1h-1.87c-.1733862-.6553931-.1733862-1.3446069 0-2h1.87c.5522847 0 1 .4477153 1 1z" fill="#b19046"/><path id="Shape" d="m56.87 43h-1.87c-.5522847 0-1-.4477153-1-1s.4477153-1 1-1h1.87c.0257655.0852344.0458101.1720943.06.26.1079986.5773702.0875134 1.1714406-.06 1.74z" fill="#b19046"/><path id="Shape" d="m54 47v2h-2v-2c0-.5522847.4477153-1 1-1s1 .4477153 1 1z" fill="#b19046"/><circle id="Oval" cx="20" cy="27" fill="#fff" r="1"/><circle id="Oval" cx="34" cy="27" fill="#fff" r="1"/></g></g></svg>