<svg height="512" viewBox="0 0 58 58" width="512" xmlns="http://www.w3.org/2000/svg"><g id="Page-1" fill="none" fill-rule="evenodd"><g id="007---Melting-Chocolate" fill-rule="nonzero" transform="translate(-1)"><path id="Shape" d="m47 43.24c-.0108391 2.0584507 1.5423598 3.7890344 3.59 4 .18 0 .36 0 .54.06 3.69.51 7.37 2.26 7.83 5.37.36 2.4-1.79 3.78-4.66 4.16-3.9043221.4190133-7.8476398.3012522-11.72-.35-3.574863-.5862742-7.2015672-.7940891-10.82-.62-4 .29-7.9 1-11.83 1.57-5.23.74-11.45 1.21-16.3-1.29-2.21-1.14-3.78-3.73-1.55-5.73 1.28446542-1.0017572 2.8212558-1.6282416 4.44-1.81.83652018-.1403129 1.68201757-.2205182 2.53-.24 2.1895881-.027372 3.9501711-1.8102408 3.95-4v-43.36c0-.55228475.4477153-1 1-1h32c.5522847 0 1 .44771525 1 1z" fill="#804537"/><rect id="Rectangle-path" fill="#a65a47" height="9" rx="1" width="6" x="17" y="4"/><circle id="Oval" cx="39" cy="24" fill="#cbb292" r="4"/><circle id="Oval" cx="40" cy="24" fill="#804537" r="1"/><circle id="Oval" cx="24" cy="34" fill="#cbb292" r="4"/><circle id="Oval" cx="23" cy="34" fill="#804537" r="1"/><g fill="#603429"><path id="Shape" d="m14 55c-3.79 0-5.62-.53-6.14-1.78-.24911022-.6718865-.08077995-1.4274154.43-1.93.3549358-.3668711.92921879-.4075205 1.33229315-.0943035.40307435.313217.50553755.8797456.23770685 1.3143035 1.3345262.4331891 2.7412209.599682 4.14.49.5522847 0 1 .4477153 1 1s-.4477153 1-1 1z"/><path id="Shape" d="m48 54c-.5522847 0-1-.4477153-1-1s.4477153-1 1-1c2.69 0 3.08-.61 3.08-.61-.2241831-.4893045-.0208805-1.068275.46-1.31.2408725-.1197077.5198133-.1373323.7738373-.0488944.254024.088438.4617102.275481.5761627.5188944.2827144.6085617.2414043 1.3183447-.11 1.89-.65 1.05-2.21 1.56-4.78 1.56z"/><path id="Shape" d="m17 51c-.4706972.0137136-.8871845-.3028167-1-.76-.0721245-.2642362-.0327076-.5464907.1090472-.7808586.1417547-.2343679.3734379-.4003323.6409528-.4591414.16 0 3.25-1 3.25-7 0-.5522847.4477153-1 1-1s1 .4477153 1 1c0 7.69-4.56 8.92-4.76 9-.0797099.0096348-.1602901.0096348-.24 0z"/><path id="Shape" d="m45 51c-4 0-5-4.58-5-7 0-.5522847.4477153-1 1-1s1 .4477153 1 1c0 0 0 5 3 5 .5522847 0 1 .4477153 1 1s-.4477153 1-1 1z"/><path id="Shape" d="m34.5 43c-1.5359623-.0090748-2.9626949-.7958482-3.79-2.09-.66413-1.2261733-.80477-2.668634-.39-4l.08-.4c.1969719-1.439183.6508447-2.8312856 1.34-4.11.913589-1.4785217 2.5220595-2.3847023 4.26-2.4h.2c1.9627709.0805543 3.6965118 1.3029761 4.4316524 3.1246586.7351405 1.8216825.335452 3.9050504-1.0216524 5.3253414-.3925961.431322-.6861194.9432811-.86 1.5-.6221282 1.8183393-2.3281915 3.0426907-4.25 3.05z"/></g><path id="Shape" d="m38.17 37.07c-.5899896.6402139-1.033587 1.401154-1.3 2.23-.3041007.9137764-1.1078699 1.5702617-2.0639682 1.6857635-.9560982.1155018-1.893077-.3306918-2.4060318-1.1457635-.55-.86-.23-1.94-.06-2.86.1664039-1.2363359.5381881-2.4361848 1.1-3.55.6651916-1.1113353 1.968498-1.6702929 3.2321575-1.3861968 1.2636596.2840961 2.202318 1.3470926 2.3278425 2.6361968.0892231.8800727-.2145046 1.7546622-.83 2.39z" fill="#2c2f38"/><path id="Shape" d="m19 10c-.5522847 0-1-.44771525-1-1v-3c0-.55228475.4477153-1 1-1s1 .44771525 1 1v3c0 .55228475-.4477153 1-1 1z" fill="#cc6f56"/><rect id="Rectangle-path" fill="#a65a47" height="9" rx="1" width="6" x="27" y="4"/><path id="Shape" d="m29 10c-.5522847 0-1-.44771525-1-1v-3c0-.55228475.4477153-1 1-1s1 .44771525 1 1v3c0 .55228475-.4477153 1-1 1z" fill="#cc6f56"/><rect id="Rectangle-path" fill="#a65a47" height="9" rx="1" width="6" x="37" y="4"/><path id="Shape" d="m39 10c-.5522847 0-1-.44771525-1-1v-3c0-.55228475.4477153-1 1-1s1 .44771525 1 1v3c0 .55228475-.4477153 1-1 1z" fill="#cc6f56"/><rect id="Rectangle-path" fill="#a65a47" height="9" rx="1" width="6" x="17" y="17"/><path id="Shape" d="m19 23c-.5522847 0-1-.4477153-1-1v-3c0-.5522847.4477153-1 1-1s1 .4477153 1 1v3c0 .5522847-.4477153 1-1 1z" fill="#cc6f56"/><rect id="Rectangle-path" fill="#a65a47" height="9" rx="1" width="6" x="27" y="17"/><path id="Shape" d="m29 23c-.5522847 0-1-.4477153-1-1v-3c0-.5522847.4477153-1 1-1s1 .4477153 1 1v3c0 .5522847-.4477153 1-1 1z" fill="#cc6f56"/></g></g></svg>