<svg height="512" viewBox="0 0 58 59" width="512" xmlns="http://www.w3.org/2000/svg"><g id="Page-1" fill="none" fill-rule="evenodd"><g id="008---Noodled" fill-rule="nonzero"><path id="Shape" d="m56 37.51v8.49c0 7.1797017-5.8202983 13-13 13h-28c-7.17970175 0-13-5.8202983-13-13v-8.49z" fill="#2980ba"/><path id="Shape" d="m53.64 23.59c-.1467231-.3647282-.352846-.7026346-.61-1-.6674984-.8091327-1.6610733-1.2784226-2.71-1.28-.5433546-.0036973-1.079215.1268328-1.56.38-.2093513.1018454-.4071532.2258907-.59.37-.0858276-.1811324-.1861542-.3550319-.3-.52-.930095-1.4874274-2.5557671-2.3964459-4.31-2.41-.4776177.0022958-.9524425.0730144-1.41.21-.7911243-1.0037291-1.8688099-1.7431121-3.09-2.12-.0152785.1395832-.0152785.2804168 0 .42.0281721 1.046319-.4910337 2.0316732-1.37 2.6l-4.23 2.76h-9.19c-.3212646-.1583823-.5940998-.400135-.79-.7-.5948233-.9281347-.3264655-2.1625803.6-2.76-.4950233.3222009-1.1071495.4091174-1.6722975.2374513s-1.0255162-.5843574-1.2577025-1.1274513c-.218552-.5329758-.1966854-1.1343055.06-1.65-1.8072884.2071042-3.3742238 1.345314-4.13 3-.9662559-.5381247-2.0540034-.8203883-3.16-.82-2.0766466.0109945-4.02778804.9958211-5.27 2.66-.18602265.2273113-.35008915.4717369-.49.73-.3255301-.0902981-.66220262-.1340655-1-.13-1.05140387-.0008701-2.06087484.4122586-2.81 1.15-2.76.85-4.35 1.85-4.35 2.91v9c0 .71.71 1.39 2 2 1.92163023.8311141 3.93602006 1.4287164 6 1.78v.65c-.01978691 1.0005504.67904087 1.8719802 1.66 2.07.5863545.1012177 1.1873304-.0639042 1.6396536-.4505053.4523232-.386601.7090185-.9545313.7003464-1.5494947 5.6385619.7062505 11.317523 1.040307 17 1 12.27 0 22.76-1.44 27-3.49 1.29-.62 2-1.3 2-2v-9c0-1.08-1.59-2.07-4.36-2.92z" fill="#3b97d3"/><path id="Shape" d="m58 26.5c0 .88-1.09 1.72-3 2.45-.1208928-.915373-.5726418-1.7548435-1.27-2.36.389201-.9621306.389201-2.0378694 0-3 2.68.85 4.27 1.84 4.27 2.91z" fill="#285680"/><path id="Shape" d="m3.59 29.15c-2.29-.78-3.59-1.69-3.59-2.65s1.59-2.06 4.34-2.9c-1.47385702 1.4687467-1.78115319 3.7427384-.75 5.55z" fill="#285680"/><path id="Shape" d="m8 30.3v9c-2.06397994-.3512836-4.07836977-.9488859-6-1.78-1.29-.62-2-1.3-2-2v-9c0 1 1.3 1.87 3.59 2.65 1.44564893.4660103 2.91838534.8433781 4.41 1.13z" fill="#3b97d3"/><circle id="Oval" cx="17.5" cy="48.5" fill="#fff" r="4.5"/><circle id="Oval" cx="40.5" cy="48.5" fill="#fff" r="4.5"/><circle id="Oval" cx="18" cy="47" fill="#2c2f38" r="1"/><circle id="Oval" cx="40" cy="47" fill="#2c2f38" r="1"/><path id="Shape" d="m33 55h-8c-.3148263.0100435-.6159839-.1288334-.8127544-.3747965s-.2661524-.5702606-.1872456-.8752035c.2322896-.8700786.6952573-1.6612696 1.34-2.29 2.0279751-1.9480249 5.2320249-1.9480249 7.26 0 .6666561.6214704 1.1507666 1.4133367 1.4 2.29.0789068.3049429.0095249.6292404-.1872456.8752035s-.4979281.38484-.8127544.3747965z" fill="#fff"/><path id="Shape" d="m33 56h-8c-.634776.0086993-1.2359841-.2844824-1.62-.79-.3719891-.490459-.4974007-1.1248942-.34-1.72.2745491-1.0417115.8276841-1.9889552 1.6-2.74 2.4168642-2.3290884 6.2431358-2.3290884 8.66 0 .7710821.7559847 1.3238501 1.7060547 1.6 2.75.1574007.5951058.0319891 1.229541-.34 1.72-.3732718.4849853-.9480486.7723738-1.56.78zm-4-5c-1.0962553-.0044498-2.1510112.4188875-2.94 1.18-.5095755.50108-.8755978 1.1295333-1.06 1.82h8c-.1915392-.6868244-.5605819-1.3110929-1.07-1.81-.7849126-.7623552-1.8358005-1.1891663-2.93-1.19z" fill="#3b97d3"/><path id="Shape" d="m39.06 17.26c1.2211901.3768879 2.2988757 1.1162709 3.09 2.12.4575575-.1369856.9323823-.2077042 1.41-.21 1.7542329.0135541 3.379905.9225726 4.31 2.41.1138458.1649681.2141724.3388676.3.52.1828468-.1441093.3806487-.2681546.59-.37.480785-.2531672 1.0166454-.3836973 1.56-.38 1.0384093.0104546 2.0192132.4788982 2.68 1.28.257154.2973654.4632769.6352718.61 1 .389201.9621306.389201 2.0378694 0 3 .7442062.587683 1.2403434 1.4336149 1.39 2.37-4.76 1.8-14.59 3-26 3-3.14 0-6.17-.1-9-.28v-.31c-.003191-.8182218-.537961-1.5393509-1.32-1.78h-.12c-2.8378577-.8587641-5.7964355-1.2505392-8.76-1.16-.99221799.0319026-1.78450096.8373903-1.8 1.83-1.48845545-.2902982-2.95784369-.6710033-4.4-1.14-1.03115319-1.8072616-.72385702-4.0812533.75-5.55.74912516-.7377414 1.75859613-1.1508701 2.81-1.15.33779738-.0040655.6744699.0397019 1 .13.13991085-.2582631.30397735-.5026887.49-.73 1.24221196-1.6641789 3.1933534-2.6490055 5.27-2.66 1.1059966-.0003883 2.1937441.2818753 3.16.82.7557762-1.654686 2.3227116-2.7928958 4.13-3z" fill="#f3d55b"/><path id="Shape" d="m20 31.41v6.65c.0086721.5949634-.2480232 1.1628937-.7003464 1.5494947-.4523232.3866011-1.0532991.551723-1.6396536.4505053-1.0001316-.20108-1.7046549-1.1008325-1.66-2.12v-1.88c0-1.1045695-.8954305-2-2-2s-2 .8954305-2 2v4c.0086721.5949634-.2480232 1.1628937-.7003464 1.5494947-.4523232.3866011-1.0532991.551723-1.6396536.4505053-1.00013164-.20108-1.70465486-1.1008325-1.66-2.12v-9.64c-.00052264-1.0042672.79625535-1.8276044 1.8-1.86 2.9635645-.0905392 5.9221423.3012359 8.76 1.16h.12c.7926893.2438665 1.3300539.9807075 1.32 1.81z" fill="#f9eab0"/><path id="Shape" d="m52.59 8-.16.09-11.82 6.91c-.8321008.4654271-1.4037482 1.2878617-1.55 2.23-.0152785.1395832-.0152785.2804168 0 .42.0281721 1.046319-.4910337 2.0316732-1.37 2.6l-4.23 2.75h-9.19c-.3212646-.1583823-.5940998-.400135-.79-.7-.5948233-.9281347-.3264655-2.1625803.6-2.76-.4950233.3222009-1.1071495.4091174-1.6722975.2374513s-1.0255162-.5843574-1.2577025-1.1274513c-.218552-.5329758-.1966854-1.1343055.06-1.65.178211-.3736001.4547655-.6916377.8-.92l9.13-5.9c.8786048-.56637446 1.9886751-.6345699 2.93-.18 1.0111601.4569985 2.1919962.3185291 3.07-.36l11.14-7.93c1.1169618-.93395699 2.6668841-1.15382095 3.9995256-.56735202s2.2175027 1.87783252 2.2833564 3.33232299c.0658537 1.45449046-.6986904 2.82053276-1.972882 3.52502903z" fill="#a5a5a4"/><path id="Shape" d="m24.08 20.54c-.3399921-.0005664-.6564045-.1738399-.84-.46-.2993122-.4614725-.1697438-1.0780393.29-1.38l5.88-3.8c.4639192-.3009952 1.0840048-.1689192 1.385.295s.1689192 1.0840048-.295 1.385l-5.88 3.8c-.1609536.1039672-.3483884.1595034-.54.16z" fill="#56595e"/><path id="Shape" d="m26.25 23.9c-.4428695-.0011432-.832237-.2934465-.9569502-.7183951-.1247131-.4249485.0449371-.8813114.4169502-1.1216049l5.87-3.81c.2236859-.1460271.4964989-.1964871.7576181-.1401304.2611191.0563567.4888355.2148446.6323819.4401304.2974116.4640673.1632328 1.0812901-.3 1.38l-5.88 3.81c-.1609536.1039672-.3483884.1595034-.54.16z" fill="#56595e"/><g fill="#e4c05c"><path id="Shape" d="m37 24h-16c-.5522847 0-1-.4477153-1-1s.4477153-1 1-1h16c.5522847 0 1 .4477153 1 1s-.4477153 1-1 1z"/><path id="Shape" d="m46 28c-.4481524.0233915-.8570061-.2546291-1-.68-.1679543-.5392296-.5499349-.9858529-1.0565935-1.2354011-.5066586-.2495483-1.0935538-.2801325-1.6234065-.0845989-.3394023.114325-.7140146.0388967-.9827241-.1978719-.2687095-.2367685-.3906929-.5989065-.32-.95.0706928-.3510935.3233218-.6378031.6627241-.7521281.6775366-.2004039 1.3898537-.2549354 2.09-.16 1.526377.1883081 2.7953276 1.2647554 3.23 2.74.0999692.2647934.0830461.5595481-.0465721.8111599s-.3597896.4365112-.6334279.5088401c-.1062261.0137097-.2137739.0137097-.32 0z"/><path id="Shape" d="m11 27c-.1083837-.0027187-.2159531-.0195264-.32-.05-.2523526-.0843151-.4607006-.26572-.5789374-.5040704-.11823686-.2383505-.13661326-.5139931-.0510626-.7659296.4106261-1.4797763 1.6593785-2.5753798 3.18-2.79.7001463-.0949354 1.4124634-.0404039 2.09.16.2615382.0737865.4817847.2508344.6100573.4904024s.1535238.5210229.0699427.7795976c-.1757093.5203974-.7382565.801671-1.26.63-.5422992-.2348751-1.1607102-.2178868-1.6892968.0464065s-.9132238.7488291-1.0507032 1.3235935c-.1429939.4253709-.5518476.7033915-1 .68z"/></g></g></g></svg>