<svg height="512" viewBox="0 0 58 58" width="512" xmlns="http://www.w3.org/2000/svg"><g id="Page-1" fill="none" fill-rule="evenodd"><g id="009---Not-Mushroom" fill-rule="nonzero" transform="translate(-1)"><path id="Shape" d="m57 39.34v5.66c0 7.1797017-5.8202983 13-13 13h-28c-7.17970175 0-13-5.8202983-13-13v-5.66z" fill="#cbb292"/><path id="Shape" d="m37 24.64c.3316226-1.3275618.9840443-2.5534279 1.9-3.57.2336942-.2457449.5760087-.3563067.9092991-.2936885s.6121344.2898825.7407009.6036885v.06c1.0460915 2.4746847 2.8261692 4.5688937 5.1 6 2.34 1.52 5.14 2.27 7.76 3.26 1.4383343.4319096 2.7914717 1.1084783 4 2 .9382701.6894127 1.5173442 1.7637394 1.5774205 2.9265083.0600764 1.1627689-.405196 2.2910535-1.2674205 3.0734917-.2233918.2084029-.4680692.3927489-.73.55-.7062887.4352297-1.5203895.6638708-2.35.66-.3374266-.0018147-.6733249-.0454815-1-.13-.3865349.887285-1.0048436 1.654126-1.79 2.22-.9390879.6608352-2.0617503 1.0105743-3.21 1h-.25c-1.4143121-.054417-2.751982-.6569064-3.73-1.68-.5083058 1.212331-1.4006957 2.2241746-2.54 2.88-.9115189.5287605-1.9462206.80813-3 .81-.6139747-.0018622-1.2241618-.0962558-1.81-.28-.7300126-.2180658-1.4097105-.5783057-2-1.06-.4359914.4986175-.9491844.9240275-1.52 1.26-1.1068199.7087125-2.3957647 1.0804567-3.71 1.07h-.16c-1.3152439.0074757-2.6042673-.3677657-3.71-1.08-.5708156-.3359725-1.0840086-.7613825-1.52-1.26-.5902895.4816943-1.2699874.8419342-2 1.06-.5858382.1837442-1.1960253.2781378-1.81.28-1.0537794-.00187-2.0884811-.2812395-3-.81-1.1393043-.6558254-2.0316942-1.667669-2.54-2.88-.9763788 1.02678-2.3142537 1.6329485-3.73 1.69h-.25c-1.1482497.0105743-2.27091214-.3391648-3.21-1-.75409648-.537991-1.35681311-1.261251-1.75-2.1-.34419895.078624-.6971475.1122382-1.05.1-.82961053.0038708-1.64371129-.2247703-2.35-.66-.26193077-.1572511-.50660819-.3415971-.73-.55-.86222447-.7824382-1.32749693-1.9107228-1.26742054-3.0734917s.63915044-2.2370956 1.57742054-2.9265083c1.20852826-.8915217 2.56166565-1.5680904 4-2 2.62-1 5.42-1.74 7.76-3.26 2.2738308-1.4311063 4.0539085-3.5253153 5.1-6v-.06c.1285665-.313806.4074105-.5410703.7407009-.6036885s.6756049.0479436.9092991.2936885c.9068366.9898241 1.5619718 2.1834736 1.91 3.48z" fill="#e4c05c"/><path id="Shape" d="m35 16.66c.09 2.62 1.5 5.23 1.85 7.85v.1h.13c-.1635832.6235692-.247584 1.2653356-.25 1.91h-.15c-.100068.2334833-.2205348.4576854-.36.67-.7316683 1.1184178-1.9735714 1.797525-3.31 1.81h-5.82c-1.3503454.0087413-2.6139468-.6644273-3.36-1.79-.1356563-.2145606-.2559568-.4384533-.36-.67h-.15c.0065476-.6400486-.0673648-1.2783831-.22-1.9h.13s0-.07 0-.1c.35-2.62 1.76-5.23 1.85-7.85z" fill="#fdd7ad"/><circle id="Oval" cx="18" cy="49" fill="#fff" r="4"/><circle id="Oval" cx="42" cy="49" fill="#fff" r="4"/><circle id="Oval" cx="17" cy="49" fill="#2c2f38" r="1"/><circle id="Oval" cx="43" cy="49" fill="#2c2f38" r="1"/><path id="Shape" d="m34 54h-8c-.3148263.0100435-.6159839-.1288334-.8127544-.3747965s-.2661524-.5702606-.1872456-.8752035c.2322896-.8700786.6952573-1.6612696 1.34-2.29 2.0279751-1.9480249 5.2320249-1.9480249 7.26 0 .6666561.6214704 1.1507666 1.4133367 1.4 2.29.0789068.3049429.0095249.6292404-.1872456.8752035s-.4979281.38484-.8127544.3747965z" fill="#fff"/><path id="Shape" d="m42 13.38c-.13 1.44-2.94 2.69-7 3.27-1.6564358.2334041-3.3272008.3503577-5 .35-1.6725649.0036708-3.3433287-.1099412-5-.34-4-.58-6.83-1.83-7-3.27.25-7.9 7.12-13.39 12-13.39s11.75 5.49 12 13.38z" fill="#e64c3c"/><path id="Shape" d="m33.31 6.13c.2190111-.08897551.4536265-.13317841.69-.13 1.1045695 0 2 .8954305 2 2s-.8954305 2-2 2-2-.8954305-2-2c-.0043747-.51130325.1932865-1.00365916.55-1.37" fill="#fff"/><path id="Shape" d="m27.45 6.63c.3567135.36634084.5543747.85869675.55 1.37 0 1.1045695-.8954305 2-2 2s-2-.8954305-2-2 .8954305-2 2-2c.2363735-.00317841.4709889.04102449.69.13" fill="#fff"/><path id="Shape" d="m27.73 7.32c.1726652.18442305.2691275.42736513.27.68 0 .55228475-.4477153 1-1 1s-1-.44771525-1-1 .4477153-1 1-1c.1171841-.00285029.2334722.02109137.34.07" fill="#2c2f38"/><path id="Shape" d="m32.28 7.31c-.1786807.1853775-.2789747.43253046-.28.69 0 .55228475.4477153 1 1 1s1-.44771525 1-1-.4477153-1-1-1c-.1160849-.00139666-.231405.01895396-.34.06" fill="#2c2f38"/><path id="Shape" d="m31 14h-2c-.5522847 0-1-.4477153-1-1s.4477153-1 1-1h2c.5522847 0 1 .4477153 1 1s-.4477153 1-1 1z" fill="#fff"/><path id="Shape" d="m38.53 33.11-1.66 1.27c-1.1127617.8283668-2.6372383.8283668-3.75 0l-1.25-1c-1.1127617-.8283668-2.6372383-.8283668-3.75 0l-1.25.95c-1.109428.8383673-2.640572.8383673-3.75 0l-1.65-1.26c.8431805-1.8043894 1.4224448-3.7206764 1.72-5.69.0199525-.2896568.0199525-.5803432 0-.87h.15c.1040432.2315467.2243437.4554394.36.67.7448427 1.1459992 2.0232695 1.8323522 3.39 1.82h5.82c1.3503454.0087413 2.6139468-.6644273 3.36-1.79.1394652-.2123146.259932-.4365167.36-.67h.15c-.0199525.2896568-.0199525.5803432 0 .87.3061547 1.9742779.89556 3.8940553 1.75 5.7z" fill="#d25627"/><g fill="#b19046"><path id="Shape" d="m9 37c-.42991591.0011098-.81242788-.2726883-.95-.68-.08555066-.2519365-.06717426-.5275791.05106258-.7659296.11823684-.2383504.32658479-.4197553.57893742-.5040704 5.61-1.87 7.47-4.58 7.49-4.6.3239123-.4021248.9007244-.4915129 1.3311547-.206288s.5729246.8512619.3288453 1.306288c-.09.14-2.26 3.31-8.51 5.4-.10404694.0304736-.21161635.0472813-.32.05z"/><path id="Shape" d="m51 37c-.1062261.0137097-.2137739.0137097-.32 0-6.25-2.09-8.42-5.26-8.51-5.4-.2700956-.4568739-.136225-1.0451676.3049684-1.3401824.4411934-.2950149 1.0360053-.1939728 1.3550316.2301824 0 0 2 2.77 7.49 4.61.5201625.1547758.8219329.6961874.68 1.22-.1429939.4253709-.5518476.7033915-1 .68z"/><path id="Shape" d="m21 35.34c-.1234818.0010635-.2459139-.0227428-.36-.07-.2541873-.0822594-.4648892-.2628121-.5851205-.501396-.1202312-.2385839-.1399933-.5153582-.0548795-.768604.16-.42.33-.84.51-1.25v-.1c.7842327-1.684488 1.3230418-3.4726609 1.6-5.31.0197256-.2429336.0197256-.4870664 0-.73.0020364-.573894-.0719401-1.1455303-.22-1.7-.1380712-.5357162.1842838-1.0819288.72-1.22.5357162-.1380711 1.0819288.1842838 1.22.72.1857951.7049705.2799045 1.4309573.28 2.16.0254435.3328478.0254435.6671522 0 1-.2946853 2.0269535-.8807418 4.0006842-1.74 5.86v.11c-.17.41-.34.81-.5 1.21-.1549073.3455208-.4916853.5739105-.87.59z"/><path id="Shape" d="m39 35.34c-.4122928-.0012179-.7815757-.2553481-.93-.64-.16-.4-.33-.8-.49-1.21v-.11c-.8592582-1.8593158-1.4453147-3.8330465-1.74-5.86-.0242569-.332892-.0242569-.667108 0-1 .0076926-.7153587.1017059-1.4271736.28-2.12.0893164-.3465476.3567291-.6191211.7015063-.7150447.3447773-.0959235.7145392-.000624.9700001.25.2554608.2506241.35781.6184971.2684936.9650447-.1942975.7944006-.2617971 1.6145217-.2 2.43.2852847 1.8366777.8272503 3.6241545 1.61 5.31l.05.1c.17.41.34.83.5 1.25.197185.5135854-.0575069 1.0899933-.57 1.29-.1426329.0572765-.297343.0779045-.45.06z"/></g><path id="Shape" d="m32 8c-.4385565-.00338534-.8237305-.292132-.9499631-.71214224-.1262326-.42001025.0359373-.87325915.3999631-1.11785776l3-2c.4550261-.24407932 1.0210631-.10158502 1.306288.32884528.2852249.43043031.1958368 1.00724247-.206288 1.33115472l-3 2c-.1610428.11279204-.3533994.17224772-.55.17z" fill="#802f34"/><path id="Shape" d="m28 8c-.1966006.00224772-.3889572-.05720796-.55-.17l-3-2c-.4021248-.32391225-.4915129-.90072441-.206288-1.33115472.2852249-.4304303.8512619-.5729246 1.306288-.32884528l3 2c.3640258.24459861.5261957.69784751.3999631 1.11785776-.1262326.42001024-.5114066.7087569-.9499631.71214224z" fill="#802f34"/><path id="Shape" d="m34 55h-8c-.634776.0086993-1.2359841-.2844824-1.62-.79-.3719891-.490459-.4974007-1.1248942-.34-1.72.2745491-1.0417115.8276841-1.9889552 1.6-2.74 2.4168642-2.3290884 6.2431358-2.3290884 8.66 0 .7710821.7559847 1.3238501 1.7060547 1.6 2.75.1574007.5951058.0319891 1.229541-.34 1.72-.3732718.4849853-.9480486.7723738-1.56.78zm-4-5c-1.0962553-.0044498-2.1510112.4188875-2.94 1.18-.5095755.50108-.8755978 1.1295333-1.06 1.82h8c-.1915392-.6868244-.5605819-1.3110929-1.07-1.81-.7849126-.7623552-1.8358005-1.1891663-2.93-1.19z" fill="#a59078"/></g></g></svg>