<svg height="512" viewBox="0 0 58 58" width="512" xmlns="http://www.w3.org/2000/svg"><g id="Page-1" fill="none" fill-rule="evenodd"><g id="012---Sliced" fill-rule="nonzero"><path id="Shape" d="m54.18 17.27-12.18 20.73v10.5c0 .893164-.4764973 1.7184816-1.25 2.1650636s-1.7264973.446582-2.5 0-1.25-1.2718996-1.25-2.1650636v-2l-6.21 10.5c-.3888796.6128057-1.0642189.9840863-1.79.9840863s-1.4011204-.3712806-1.79-.9840863l-4.21-7.14v3c.0245723 1.6080135-1.1808579 2.9695426-2.78 3.14-.8330296.0612568-1.6538821-.2275584-2.2650218-.7969432-.6111397-.5693849-.9572274-1.367781-.9549782-2.2030568v-13.07c-.0018287-.1760862-.0501234-.3485672-.14-.5l-2-3.4c-.2288348-.3857457-.6865157-.5719445-1.1196531-.4555097-.4331375.1164348-.7357693.5070187-.7403469.9555097v3.31c.0275378 1.6347542-1.2115903 3.0135024-2.84 3.16-.82299098.0439562-1.62782021-.2526007-2.22552752-.8200443-.5977073-.5674437-.9356455-1.3557925-.93447248-2.1799557v-17.34l-3.17-5.39c.8853355-.0066562 1.73133935-.3666579 2.35-1 5.787767-5.9272918 13.7156425-9.27862103 22-9.3h1.54c8.2843575.02137897 16.212233 3.3727082 22 9.3.6444887.6620673 1.5363698 1.0246207 2.46 1z" fill="#f29c1f"/><path id="Shape" d="m57.47 13.61c.0001224.7684537-.218383 1.5210836-.63 2.17-.5684893.9241295-1.5750156 1.4879356-2.66 1.49-.8994461.0052422-1.7622945-.3557822-2.39-1-5.787767-5.9272918-13.7156425-9.27862103-22-9.3h-1.56c-8.2843575.02137897-16.212233 3.3727082-22 9.3-.61866065.6333421-1.4646645.9933438-2.35 1-1.08753844-.0024553-2.09688582-.5657241-2.67-1.49-.98862329-1.5656118-.77350492-3.6050995.52-4.93 7.07101619-6.94835554 16.5864294-10.84428887 26.5-10.85h1.54c9.9308813-.00739997 19.466637 3.88950957 26.55 10.85.7395148.7274971 1.1541574 1.7226395 1.15 2.76z" fill="#f3d55b"/><circle id="Oval" cx="17.5" cy="20.5" fill="#fff" r="4.5"/><circle id="Oval" cx="39.5" cy="25.5" fill="#fff" r="4.5"/><circle id="Oval" cx="18" cy="19" fill="#2c3e50" r="2"/><path id="Shape" d="m33 37h-8c-.3148263.0100435-.6159839-.1288334-.8127544-.3747965s-.2661524-.5702606-.1872456-.8752035c.2322896-.8700786.6952573-1.6612696 1.34-2.29 2.0279751-1.9480249 5.2320249-1.9480249 7.26 0 .6666561.6214704 1.1507666 1.4133367 1.4 2.29.0789068.3049429.0095249.6292404-.1872456.8752035s-.4979281.38484-.8127544.3747965z" fill="#2c3e50"/><circle id="Oval" cx="32" cy="15" fill="#c03a2b" r="4"/><circle id="Oval" cx="29" cy="45" fill="#c03a2b" r="3"/><circle id="Oval" cx="17" cy="18" fill="#fff" r="1"/><circle id="Oval" cx="40" cy="25" fill="#2c3e50" r="2"/><circle id="Oval" cx="39" cy="24" fill="#fff" r="1"/></g></g></svg>