<svg height="512" viewBox="0 0 53 59" width="512" xmlns="http://www.w3.org/2000/svg"><g id="Page-1" fill="none" fill-rule="evenodd"><g id="013---Original-Nuttah" fill-rule="nonzero" transform="translate(-1)"><path id="Shape" d="m6.2 13.48v.01l-1.97 6.19 3.82 1.21 1.4-4.42-.45-3.47z" fill="#805333"/><path id="Shape" d="m17.43 53.65c-.1191942-.0003659-.2374896-.0206451-.35-.06-.2498194-.0921513-.4525707-.2801309-.5633209-.5222796s-.1203525-.5184677-.0266791-.7677204c.8761204-2.0945568 2.3644397-3.8756601 4.27-5.11.2871216-.2458559.6883341-.3088036 1.036953-.1626914.348619.1461123.5850572.4763105.611086.8534132s-.1628007.7366542-.488039.9292782c-1.5756571 1.0103002-2.8122255 2.4697993-3.55 4.19-.1464639.3920069-.5215275.6513593-.94.65z" fill="#f9c795"/><path id="Shape" d="m42.57 53.65c-.4184725.0013593-.7935361-.2579931-.94-.65-.7502194-1.6958219-1.9764838-3.1374642-3.53-4.15-.3140985-.1949429-.4950264-.5472678-.4704546-.9161266s.2506345-.6940717.5878153-.8456291c.3371809-.1515574.7304686-.1047325 1.0226393.1217557 1.9049691 1.226211 3.3937023 3.0008368 4.27 5.09.0936734.2492527.0840711.5255717-.0266791.7677204s-.3135015.4301283-.5633209.5222796c-.1121529.0407202-.2306881.0610405-.35.06z" fill="#f9c795"/><path id="Shape" d="m20 56.15c-.0848119 1.0046932-.7558559 1.8641004-1.71 2.19-1.5575057.6212249-3.2536461.8112203-4.91.55-3.76-.55-2.66-5.54.14-6.63 2-.79 4.47.34 5.71 1.86.5011075.5568019.7757773 1.2809314.77 2.03z" fill="#35495e"/><path id="Shape" d="m40 56.15c.0848119 1.0046932.7558559 1.8641004 1.71 2.19 1.5575057.6212249 3.2536461.8112203 4.91.55 3.76-.55 2.66-5.54-.14-6.63-2-.79-4.47.34-5.71 1.86-.5011075.5568019-.7757773 1.2809314-.77 2.03z" fill="#35495e"/><path id="Shape" d="m18.71 25.24c-.1822556-.002862-.3609434-.0509702-.52-.14l-5.52-3.32c-2.2680676-1.3678689-3.90083465-3.5796569-4.54-6.15l-.13-.38c-.13807119-.5357162.18428379-1.0819288.72-1.22s1.08192881.1842838 1.22.72l.1.39c.5071379 2.0605145 1.8179668 3.8322942 3.64 4.92l5.52 3.32c.2291251.1369809.3939699.3598867.4578305.6190853.0638605.2591985.0214348.5331709-.1178305.7609147-.1769257.2908502-.4896651.4717115-.83.48z" fill="#f9c795"/><path id="Shape" d="m51 35c-.4677664.0148006-.883234-.2968001-1-.75l-.1-.39c-.5071379-2.0605145-1.8179668-3.8322942-3.64-4.92l-5.63-3.39c-.3478371-.1572029-.5758412-.4987108-.5876816-.8802382-.0118403-.3815275.1945486-.7365164.5319684-.9149856.3374198-.1784693.7470071-.1492845 1.0557132.0752238l5.63 3.39c2.2680676 1.3678689 3.9008346 3.5796569 4.54 6.15l.1.38c.0667762.2572811.0283746.5305617-.1067221.7594755-.1350966.2289138-.3557712.3946234-.6132779.4605245-.0590363.0151074-.1192552.0251439-.18.03z" fill="#f9c795"/><path id="Shape" d="m44 37.21c.0839574 5.0017183-2.5068477 9.6682873-6.796484 12.2418557-4.2896364 2.5735683-9.6264062 2.6631498-14 .235-4.3735938-2.4281499-7.1195586-7.0051374-7.203516-12.0068557-.0825677-2.4397925.4906758-4.8570847 1.66-7 1.6091784-2.8982878 1.6091784-6.4217122 0-9.32-1.1693242-2.1429153-1.7425677-4.5602075-1.66-7 .1297869-7.7319865 6.5030135-13.89478692 14.235-13.765s13.8947869 6.5030135 13.765 14.235c.0002695 2.3279782-.5952948 4.6172859-1.73 6.65-1.5909286 2.8318541-1.5909286 6.2881459 0 9.12 1.1281192 2.0208772 1.7234642 4.2955768 1.73 6.61z" fill="#a56a43"/><path id="Shape" d="m41 37.21c0 7.79-5.2 14.13-11.51 13.79-5.66-.33-10.29-6.22-10.49-13.32-.0761556-2.4007252.3708459-4.7892828 1.31-7 1.2556964-2.9797804 1.2556964-6.3402196 0-9.32-.9391541-2.2107172-1.3861556-4.5992748-1.31-7 .19-7.1 4.82-13 10.48-13.31 6.32-.39 11.52 5.95 11.52 13.74.0115576 2.2868782-.4515374 4.5512763-1.36 6.65-1.2498435 2.9115371-1.2498435 6.2084629 0 9.12.9084626 2.0987237 1.3715576 4.3631218 1.36 6.65z" fill="#cb8252"/><circle id="Oval" cx="8.5" cy="12.5" fill="#35495e" r="2.5"/><circle id="Oval" cx="51.5" cy="36.46" fill="#35495e" r="2.5"/><path id="Shape" d="m2.23 31c-.35562308.0861162-.72988459-.0288706-.97580891-.2998042s-.32423972-.6545484-.20419109-1.0001958l3.18-10 3.82 1.21c.52323428.1673923.8134633.725525.65 1.25l-1.28 4c-.75431588 2.4163888-2.72690867 4.2559551-5.19 4.84z" fill="#a5a5a4"/><path id="Shape" d="m30 40c-6.6 0-11-4.56-5.5-15 1.7474645.6996888 3.6180828 1.0398012 5.5 1 1.8852703.041151 3.759424-.2989858 5.51-1 5.49 10.44 1.09 15-5.51 15z" fill="#35495e"/><circle id="Oval" cx="25" cy="15" fill="#f5efca" r="5"/><circle id="Oval" cx="35" cy="15" fill="#f5efca" r="5"/><circle id="Oval" cx="26" cy="16" fill="#2c3e50" r="2"/><g fill="#805333"><path id="Shape" d="m23 46c-.1568771.0018772-.3116796-.0359634-.45-.11-.490313-.2495756-.6869243-.8483464-.44-1.34l1-2c.2700473-.4487927.8406385-.6131719 1.3080622-.3768341s.6732882.7933069.4719378 1.2768341l-1 2c-.1694502.3362797-.5134418.5488587-.89.55z"/><path id="Shape" d="m37 46c-.3765582-.0011413-.7205498-.2137203-.89-.55l-1-2c-.2013504-.4835272.0045141-1.0404963.4719378-1.2768341s1.0380149-.0719586 1.3080622.3768341l1 2c.2469243.4916536.050313 1.0904244-.44 1.34-.1383204.0740366-.2931229.1118772-.45.11z"/><path id="Shape" d="m30 47.81c-.5522847 0-1-.4477153-1-1v-2c0-.5522847.4477153-1 1-1s1 .4477153 1 1v2c0 .5522847-.4477153 1-1 1z"/><path id="Shape" d="m27 8c-.3765582-.0011413-.7205498-.21372035-.89-.55l-1-2c-.2013504-.48352717.0045141-1.04049627.4719378-1.2768341s1.0380149-.07195864 1.3080622.3768341l1 2c.2469243.49165355.050313 1.09042437-.44 1.34-.1383204.07403657-.2931229.11187716-.45.11z"/><path id="Shape" d="m33 8c-.1568771.00187716-.3116796-.03596343-.45-.11-.490313-.24957563-.6869243-.84834645-.44-1.34l1-2c.2700473-.44879274.8406385-.61317193 1.3080622-.3768341s.6732882.79330693.4719378 1.2768341l-1 2c-.1694502.33627965-.5134418.5488587-.89.55z"/></g><path id="Shape" d="m37.42 36.13c-1.16 2.64-3.99 3.87-7.42 3.87s-6.26-1.23-7.42-3.87c1.18-1.83 4.06-3.13 7.42-3.13s6.24 1.3 7.42 3.13z" fill="#ff5364"/><path id="Shape" d="m29 26-1 3.14c-.1673403.508114-.7049355.7945377-1.22.65-1.6494683-.5282356-2.7715893-2.0580336-2.78-3.79.16-.32.32-.65.5-1 1.4274587.6018607 2.9519847.9406442 4.5 1z" fill="#f5efca"/><path id="Shape" d="m36 26c-.0013034 1.7186307-1.1002936 3.2443351-2.73 3.79-.5150645.1445377-1.0526597-.141886-1.22-.65l-1.05-3.14c1.55137-.0583757 3.0793507-.3971741 4.51-1 .17.34.34.66.49 1z" fill="#f5efca"/><path id="Shape" d="m31 33v3c0 .5522847-.4477153 1-1 1s-1-.4477153-1-1v-3h1z" fill="#df4d60"/><circle id="Oval" cx="25" cy="15" fill="#fff" r="1"/><circle id="Oval" cx="34" cy="16" fill="#2c3e50" r="2"/><circle id="Oval" cx="33" cy="15" fill="#fff" r="1"/></g></g></svg>