<svg height="512" viewBox="0 0 58 37" width="512" xmlns="http://www.w3.org/2000/svg"><g id="Page-1" fill="none" fill-rule="evenodd"><g id="014---Human-centipeas" fill-rule="nonzero" transform="translate(-1)"><g fill="#f9c795"><path id="Shape" d="m6 31c-.55228475 0-1-.4477153-1-1-.06725188-2.8532076.45709124-5.6894272 1.54-8.33.22091391-.5081019.81189803-.7409139 1.31999998-.52.50810196.2209139.74091389.811898.52000002 1.32-.97490475 2.3878155-1.44477017 4.9516464-1.38 7.53 0 .2652165-.10535684.5195704-.29289322.7071068s-.44189029.2928932-.70710678.2928932z"/><path id="Shape" d="m18 30c-.5522847 0-1-.4477153-1-1 .0066005-1.0577444-.0703051-2.1143594-.23-3.16-.0571625-.3572656.0806161-.7178884.3614359-.9460254.2808199-.228137.6620177-.2891286 1-.16.3379824.1291286.5814016.4287598.6385641.7860254.1694817 1.151996.2463944 2.3157191.23 3.48 0 .5522847-.4477153 1-1 1z"/><path id="Shape" d="m42 30c-.5522847 0-1-.4477153-1-1-.0097753-1.1648162.0738257-2.3285422.25-3.48.0571625-.3572656.3005817-.6568968.6385641-.7860254.3379823-.1291286.7191801-.068137 1 .16.2808198.228137.4185984.5887598.3614359.9460254-.166391 1.0451096-.2499842 2.1017278-.25 3.16 0 .5522847-.4477153 1-1 1z"/><path id="Shape" d="m54 31c-.5522847 0-1-.4477153-1-1 .0613643-2.5771431-.4048499-5.1396198-1.37-7.53-.1075849-.2426524-.1142845-.5181224-.0186226-.7657178.0956619-.2475955.2858359-.4470007.5286226-.5542822.2438981-.106972.5203917-.1122338.7681832-.014619.2477915.0976149.446408.2900413.5518168.534619 1.0829088 2.6405728 1.6072519 5.4767924 1.54 8.33 0 .2652165-.1053568.5195704-.2928932.7071068s-.4418903.2928932-.7071068.2928932z"/><path id="Shape" d="m26 34c-.5522847 0-1-.4477153-1-1v-6c0-.5522847.4477153-1 1-1s1 .4477153 1 1v6c0 .5522847-.4477153 1-1 1z"/><path id="Shape" d="m34 34c-.5522847 0-1-.4477153-1-1v-6c0-.5522847.4477153-1 1-1s1 .4477153 1 1v6c0 .5522847-.4477153 1-1 1z"/></g><path id="Shape" d="m52.1 22.34c-1.953795 1.0528177-4.02927 1.8621858-6.18 2.41-5.1717225 1.5076463-10.5330273 2.2653684-15.92 2.25-5.3855241.0251153-10.7468004-.7224998-15.92-2.22-2.1520959-.5573461-4.2276225-1.3768097-6.18-2.44-5.3-3-8.63-10.13-6-16-.57830922-.68960037-.89675224-1.56001129-.9-2.46.01579239-1.04499196.44612173-2.04089596 1.19629391-2.76856297.75017219-.72766702 1.75871782-1.12747175 2.80370609-1.11143703 1.12995908-.01678624 2.21626756.4358423 3 1.25 1.74045362-.42386075 3.5689142-.30522018 5.24.34 5.356068 2.02822585 11.0328113 3.07822014 16.76 3.1 5.7439998-.01578796 11.438209-1.06588009 16.81-3.1 1.6710858-.64522018 3.4995464-.76386075 5.24-.34.7717562-.80147898 1.8373603-1.25300612 2.95-1.25 1.0449883-.01603472 2.0535339.38377001 2.8037061 1.11143703.7501722.72766701 1.1805015 1.72357101 1.1962939 2.76856297-.0025897.9222477-.3361503 1.81292535-.94 2.51 2.67 5.82-.66 12.97-5.96 15.95z" fill="#24ae5f"/><circle id="Oval" cx="12.5" cy="12.5" fill="#1b8347" r="8.5"/><circle id="Oval" cx="12.5" cy="12.5" fill="#4fba6f" r="6.5"/><circle id="Oval" cx="12.5" cy="12.5" fill="#4fba6f" r="6.5"/><path id="Shape" d="m19 12.5c.024088 3.2178257-2.3099167 5.968936-5.4886575 6.4695251-3.1787407.5005891-6.24530259-1.4000383-7.2113425-4.4695251 1.93729233 1.6402486 4.6521731 2.0026698 6.9518866.9280373s3.7634429-3.3896752 3.7481134-5.9280373c.0069703-.67837669-.0943018-1.35352358-.3-2 1.4726515 1.24126009 2.3157471 3.0740765 2.3 5z" fill="#24ae5f"/><path id="Shape" d="m39 16c-.0097117 4.3995921-3.1987806 8.1473001-7.5401187 8.8609448-4.341338.7136446-8.5622967-1.8159768-9.9798813-5.9809448-.319435-.9265281-.4816727-1.8999539-.48-2.88.0000001-4.9705627 4.0294373-8.99999981 9-8.99999981s8.9999999 4.02943711 9 8.99999981z" fill="#1b8347"/><path id="Shape" d="m37 16c-.0027787 3.4257122-2.4844542 6.3461232-5.8648219 6.9016642s-6.6661711-1.4170232-7.7651781-4.6616642c-.2465298-.7210245-.3715652-1.4779955-.37-2.24 0-3.8659932 3.1340068-7 7-7s7 3.1340068 7 7z" fill="#24ae5f"/><path id="Shape" d="m35 13c-.0039482 2.7497507-1.6174393 5.2424974-4.1244741 6.3720642-2.5070348 1.1295669-5.4431908.6867042-7.5055259-1.1320642-.2465298-.7210245-.3715652-1.4779955-.37-2.24.0039482-2.7497507 1.6174393-5.2424974 4.1244741-6.37206424s5.4431908-.68670417 7.5055259 1.13206424c.2465298.7210245.3715652 1.4779955.37 2.24z" fill="#4fba6f"/><circle id="Oval" cx="32" cy="14" fill="#2c3e50" r="1"/><circle id="Oval" cx="12" cy="11" fill="#2c3e50" r="1"/><circle id="Oval" cx="15" cy="11" fill="#2c3e50" r="1"/><path id="Shape" d="m32.33 19.44c-.1492395.0012751-.2966376-.0330035-.43-.1-1.2301981-.4298536-2.5698019-.4298536-3.8 0-.3253853.18509-.7268982.172946-1.0405027-.0314706-.3136044-.2044166-.4867761-.5668689-.4487665-.9392789.0380095-.37241.2808342-.6924041.6292692-.8292505 1.7734742-.6997355 3.7465258-.6997355 5.52 0 .4185524.2026939.6421316.6671721.5394796 1.1207507-.1026519.4535785-.5044382.7765267-.9694796.7792493z" fill="#2c3e50"/><path id="Shape" d="m12.34 16c-.426828-.0013234-.8057653-.2734143-.9434462-.6774289-.137681-.4040146-.0037516-.8508813.3334462-1.1125711 1.1086021-.7418267 2.5261189-.8444351 3.73-.27.4915334.254051.684051.8584666.43 1.35s-.8584666.684051-1.35.43c-.2277769-.1088035-.4775958-.1635583-.73-.16-.3033362-.0121256-.6032125.0680739-.86.23-.1745498.1354677-.3890506.2093122-.61.21z" fill="#2c3e50"/><ellipse id="Oval" cx="5.5" cy="32" fill="#35495e" rx="2.5" ry="2"/><ellipse id="Oval" cx="18.5" cy="31" fill="#35495e" rx="2.5" ry="2"/><ellipse id="Oval" cx="25.5" cy="35" fill="#35495e" rx="2.5" ry="2"/><ellipse id="Oval" cx="34.5" cy="35" fill="#35495e" rx="2.5" ry="2"/><ellipse id="Oval" cx="41.5" cy="31" fill="#35495e" rx="2.5" ry="2"/><ellipse id="Oval" cx="54.5" cy="32" fill="#35495e" rx="2.5" ry="2"/><path id="Shape" d="m56 12.5c0 4.6944204-3.8055796 8.5-8.5 8.5s-8.5-3.8055796-8.5-8.5c0-4.69442037 3.8055796-8.5 8.5-8.5.86841-.0037526 1.7321023.12782552 2.56.39 3.5357345 1.12008141 5.938842 4.40109189 5.94 8.11z" fill="#1b8347"/><path id="Shape" d="m54 12.5c0 3.5898509-2.9101491 6.5-6.5 6.5s-6.5-2.9101491-6.5-6.5c0-3.58985087 2.9101491-6.5 6.5-6.5.6783767-.00697026 1.3535236.09430177 2 .3 2.6879196.86921298 4.5066651 3.37504011 4.5 6.2z" fill="#24ae5f"/><path id="Shape" d="m51 10.5c0 3.5898509-2.9101491 6.5-6.5 6.5-.6783767.0069703-1.3535236-.0943018-2-.3-1.6402486-1.9372923-2.0026698-4.6521731-.9280373-6.95188658 1.0746325-2.2997135 3.3896752-3.76344293 5.9280373-3.74811342.6783767-.00697026 1.3535236.09430177 2 .3.9819628 1.17798245 1.513566 2.66647153 1.5 4.2z" fill="#4fba6f"/><circle id="Oval" cx="48" cy="11" fill="#2c3e50" r="1"/><path id="Shape" d="m47.66 16c-.2209494-.0006878-.4354502-.0745323-.61-.21-.2567875-.1619261-.5566638-.2421256-.86-.23-.2524042-.0035583-.5022231.0511965-.73.16-.4915334.2540509-1.095949.0615334-1.3499999-.43-.254051-.4915334-.0615335-1.095949.4299999-1.35 1.2038811-.5744351 2.6213979-.4718267 3.73.27.3371978.2616898.4711272.7085565.3334462 1.1125711-.1376809.4040146-.5166182.6761055-.9434462.6774289z" fill="#2c3e50"/><ellipse id="Oval" cx="9.201" cy="9.708" fill="#7ed09e" rx="2.5" ry="1.5" transform="matrix(.5 -.866 .866 .5 -3.806 12.822)"/><ellipse id="Oval" cx="25.802" cy="13.292" fill="#7ed09e" rx="2.5" ry="1.5" transform="matrix(.5 -.866 .866 .5 1.39 28.991)"/><ellipse id="Oval" cx="43.804" cy="10.293" fill="#7ed09e" rx="2.5" ry="1.5" transform="matrix(.5 -.866 .866 .5 12.988 43.082)"/><circle id="Oval" cx="28" cy="14" fill="#2c3e50" r="1"/><circle id="Oval" cx="45" cy="11" fill="#2c3e50" r="1"/></g></g></svg>