<svg height="512" viewBox="0 0 58 58" width="512" xmlns="http://www.w3.org/2000/svg"><g id="Page-1" fill="none" fill-rule="evenodd"><g id="015---Souldier" fill-rule="nonzero"><path id="Shape" d="m12 36.08c-4.35369457-.2273007-8.16231801-3.0043402-9.71-7.08l-.23-.61c-.12504297-.3358297-.06142444-.7128587.1668911-.9890639.22831553-.2762052.58664151-.4096245.94000001-.35.35335849.0596245.64806594.3032342.77310889.6390639l.23.61c1.25414893 3.3375037 4.36024902 5.6200166 7.92 5.82.5522847.0138071.9888071.4727153.975 1.025s-.4727153.9888071-1.025.975z" fill="#f09372"/><path id="Shape" d="m46 36.08c-.5522847.0138071-1.0111929-.4227153-1.025-.975s.4227153-1.0111929.975-1.025c3.559751-.1999834 6.6658511-2.4824963 7.92-5.82l.23-.61c.125043-.3358297.4197504-.5794394.7731089-.6390639.3533585-.0596244.7116845.0737948.94.35s.2919341.6532342.1668911.9890639l-.23.61c-1.5408629 4.1041465-5.3715805 6.9015525-9.75 7.12z" fill="#f09372"/><path id="Shape" d="m23 52.85.23.27c.494157.5491238.7683324 1.2612678.77 2-.0848119 1.0046932-.7558559 1.8641004-1.71 2.19-1.5575057.6212249-3.2536461.8112203-4.91.55-3.76-.55-2.66-5.54.14-6.63.7187068-.267033 1.496691-.3327295 2.25-.19z" fill="#7f6e5d"/><path id="Shape" d="m38.23 51.07c.753309-.1427295 1.5312932-.077033 2.25.19 2.8 1.09 3.9 6.08.14 6.63-1.6563539.2612203-3.3524943.0712249-4.91-.55-.9541441-.3258996-1.6251881-1.1853068-1.71-2.19.0016676-.7387322.275843-1.4508762.77-2l.23-.27z" fill="#7f6e5d"/><path id="Shape" d="m46 33.56c0 12.7-7.61 20.44-17 20.44s-17-7.74-17-20.44c.0113757-4.0403509.7428142-8.0463312 2.16-11.83.1540888-.3751172.5194679-.6200329.925-.6200329s.7709112.2449157.925.6200329l.09.2.45 1.07c.114595.263753.3371906.4654062.6109474.5534679.2737568.0880616.5721745.0540071.8190526-.0934679l3.16-1.9c.4749776-.2815765 1.088281-.1248931 1.37.35l1.83 3c.1586289.265616.4312675.442853.7384049.4800225.3071375.0371695.6141844-.0699145.8315951-.2900225l3.09-3.1 3.09 3.09c.2174107.220108.5244576.327192.8315951.2900225.3071374-.0371695.579776-.2144065.7384049-.4800225l1.83-3c.281719-.4748931.8950224-.6315765 1.37-.35l3.14 1.86c.2419458.1577181.5402657.2031292.818182.124546s.5082854-.2734857.631818-.534546l.45-1.05.09-.2c.1540888-.3751172.5194679-.6200329.925-.6200329s.7709112.2449157.925.6200329c1.4148501 3.7773723 2.1462506 7.7763722 2.16 11.81z" fill="#f9c795"/><path id="Shape" d="m46 33.56c0 12.7-7.61 20.44-17 20.44s-17-7.74-17-20.44c.0113757-4.0403509.7428142-8.0463312 2.16-11.83.1540888-.3751172.5194679-.6200329.925-.6200329s.7709112.2449157.925.6200329l.09.2.45 1.07c.114595.263753.3371906.4654062.6109474.5534679.2737568.0880616.5721745.0540071.8190526-.0934679l3.16-1.9c.4749776-.2815765 1.088281-.1248931 1.37.35l1.83 3c.1586289.265616.4312675.442853.7384049.4800225.3071375.0371695.6141844-.0699145.8315951-.2900225l3.09-3.1 3.09 3.09c.2174107.220108.5244576.327192.8315951.2900225.3071374-.0371695.579776-.2144065.7384049-.4800225l1.83-3c.281719-.4748931.8950224-.6315765 1.37-.35l3.14 1.86c.2419458.1577181.5402657.2031292.818182.124546s.5082854-.2734857.631818-.534546l.45-1.05.09-.2c.1540888-.3751172.5194679-.6200329.925-.6200329s.7709112.2449157.925.6200329c1.4148501 3.7773723 2.1462506 7.7763722 2.16 11.81z" fill="#fdd7ad"/><path id="Shape" d="m46 33.56c0 12.44-7.25 20.07-16.33 20.44 6.87-.49 12.33-8.14 12.33-20.44-.005457-3.3683269-.4048366-6.7244581-1.19-10 .2860317-.0821384.5206197-.2874029.64-.56l.45-1.05.09-.2c.1540888-.3751172.5194679-.6200329.925-.6200329s.7709112.2449157.925.6200329c1.4148501 3.7773723 2.1462506 7.7763722 2.16 11.81z" fill="#f9c795"/><path id="Shape" d="m28.33 54c-9.08-.37-16.33-8-16.33-20.44.0113757-4.0403509.7428142-8.0463312 2.16-11.83.1540888-.3751172.5194679-.6200329.925-.6200329s.7709112.2449157.925.6200329l.09.2.45 1.07c.1193803.2725971.3539683.4778616.64.56-.7851634 3.2755419-1.184543 6.6316731-1.19 10 0 12.3 5.46 19.95 12.33 20.44z" fill="#f9c795"/><path id="Shape" d="m41.9 21.9-.45 1.1c-.114595.263753-.3371906.4654062-.6109474.5534679-.2737568.0880616-.5721745.0540071-.8190526-.0934679l-3.16-1.9c-.4749776-.2815765-1.088281-.1248931-1.37.35l-1.83 3c-.1586289.265616-.4312675.442853-.7384049.4800225-.3071375.0371695-.6141844-.0699145-.8315951-.2900225l-3.09-3.1-3.09 3.09c-.2174107.220108-.5244576.327192-.8315951.2900225-.3071374-.0371695-.579776-.2144065-.7384049-.4800225l-1.83-3c-.281719-.4748931-.8950224-.6315765-1.37-.35l-3.14 1.86c-.2419458.1577181-.5402657.2031292-.818182.124546s-.5082854-.2734857-.631818-.534546l-.45-1.1c.49-2.76 2.79-5.15 6.06-6.55l10.33-1c4.99.95 8.77 3.91 9.41 7.55z" fill="#ecf0f1"/><circle id="Oval" cx="21.5" cy="34.5" fill="#fff" r="4.5"/><circle id="Oval" cx="22" cy="33" fill="#35495e" r="2"/><circle id="Oval" cx="36.5" cy="34.5" fill="#fff" r="4.5"/><path id="Shape" d="m33 47h-8c-.3148263.0100435-.6159839-.1288334-.8127544-.3747965s-.2661524-.5702606-.1872456-.8752035c.2322896-.8700786.6952573-1.6612696 1.34-2.29 2.0279751-1.9480249 5.2320249-1.9480249 7.26 0 .6666561.6214704 1.1507666 1.4133367 1.4 2.29.0789068.3049429.0095249.6292404-.1872456.8752035s-.4979281.38484-.8127544.3747965z" fill="#393f4a"/><path id="Shape" d="m23.18 18-1-2.65-.08-.2-3.96-10.15c-.1967584-.493262-.1892619-1.04452567.0208369-1.53225489.2100987-.48772921.6055477-.87187489 1.0991631-1.06774511l5.57-2.21c.493262-.19675841 1.0445257-.18926187 1.5322549.02083687s.8718749.60554777 1.0677451 1.09916313l5.06 13v.11l1.42 3.58z" fill="#e4c05c"/><circle id="Oval" cx="2.5" cy="25.5" fill="#fdd7ad" r="2.5"/><circle id="Oval" cx="55.5" cy="25.5" fill="#fdd7ad" r="2.5"/><circle id="Oval" cx="21" cy="32" fill="#fff" r="1"/><circle id="Oval" cx="36" cy="33" fill="#35495e" r="2"/><circle id="Oval" cx="35" cy="32" fill="#fff" r="1"/></g></g></svg>