<svg height="512" viewBox="0 0 59 58" width="512" xmlns="http://www.w3.org/2000/svg"><g id="Page-1" fill="none" fill-rule="evenodd"><g id="017--Cutcake" fill-rule="nonzero" transform="translate(0 -1)"><path id="Shape" d="m42.28 19-1.94-5.68-2.28-6.44-8.64 3.12-4.59 1.67-23.94 8.74c-.53675243.1849128-.89515364.6923123-.89 1.26-.00159157.4151232.19073906.8071818.52 1.06 2.87177261 2.227266 6.18013301 3.8252279 9.71 4.69h19.7z" fill="#547580"/><rect id="Rectangle-path" fill="#955ba5" height="8" rx="4" width="42" x="8" y="27"/><rect id="Rectangle-path" fill="#b49aca" height="8" rx="4" width="34" x="12" y="19"/><path id="Shape" d="m18.33 59.0000011-3.86-.0000011c-.8742182.0009272-1.6477349-.5660484-1.91-1.4l-4.56-14.6h7z" fill="#f29c1f"/><path id="Shape" d="m50 43-4.56 14.6c-.2622651.8339516-1.0357818 1.4009272-1.91 1.4l-3.86.0000011 3.33-16.0000011z" fill="#f0c419"/><path id="Shape" d="m23.67 59h-5.34l-3.33-16h7z" fill="#f0c419"/><path id="Shape" d="m43 43-3.33 16h-5.34l1.67-16z" fill="#f29c1f"/><path id="Shape" d="m29 43v16h-5.33l-1.67-16z" fill="#f29c1f"/><path id="Shape" d="m36 43-1.67 16h-5.33v-16z" fill="#f0c419"/><path id="Shape" d="m14 35h-6c-2.209139 0-4 1.790861-4 4s1.790861 4 4 4h42c2.209139 0 4-1.790861 4-4s-1.790861-4-4-4z" fill="#894b9d"/><path id="Shape" d="m35 16c-.0049592 2.9840105-2.2020398 5.5108892-5.1564142 5.9304305s-5.7680758-1.3957724-6.6035858-4.2604305c-.1615347-.5418694-.242402-1.1045709-.24-1.67.0022013-2.3081352 1.3282151-4.4103782 3.4102832-5.4066137 2.0820681-.99623543 4.5510161-.70981937 6.3497168.7366137.17.14.33.28.48.43 1.1255399 1.1241389 1.7585996 2.6492372 1.76 4.24z" fill="#df4d60"/><path id="Shape" d="m33 13c-.0022013 2.3081352-1.3282151 4.4103782-3.4102832 5.4066137-2.0820681.9962354-4.5510161.7098194-6.3497168-.7366137-.1615347-.5418694-.242402-1.1045709-.24-1.67.0022013-2.3081352 1.3282151-4.4103782 3.4102832-5.4066137 2.0820681-.99623543 4.5510161-.70981937 6.3497168.7366137.1615347.5418694.242402 1.1045709.24 1.67z" fill="#ff5364"/><g fill="#fff"><path id="Shape" d="m26 16c-.5522847 0-1-.4477153-1-1 0-1.6568542 1.3431458-3 3-3 .5522847 0 1 .4477153 1 1s-.4477153 1-1 1-1 .4477153-1 1-.4477153 1-1 1z"/><circle id="Oval" cx="22" cy="32" r="5"/><circle id="Oval" cx="36" cy="32" r="5"/></g><circle id="Oval" cx="21" cy="33" fill="#2c3e50" r="2"/><circle id="Oval" cx="20" cy="32" fill="#fff" r="1"/><path id="Shape" d="m31 40h-4c-.5522847 0-1-.4477153-1-1s.4477153-1 1-1h4c.5522847 0 1 .4477153 1 1s-.4477153 1-1 1z" fill="#3d324c"/><path id="Shape" d="m40.34 13.33 15.5-6c1.5449523-.48447105 2.4950828-2.03509262 2.2252189-3.63157729s-1.6768662-2.74866515-3.2952189-2.69842271c-.3716621-.00105438-.7406142.06325837-1.09.19l-15.62 5.69z" fill="#603e26"/><circle id="Oval" cx="37" cy="33" fill="#2c3e50" r="2"/><circle id="Oval" cx="36" cy="32" fill="#fff" r="1"/></g></g></svg>