<svg height="512" viewBox="0 0 58 58" width="512" xmlns="http://www.w3.org/2000/svg"><g id="Page-1" fill="none" fill-rule="evenodd"><g id="020---Donut" fill-rule="nonzero"><path id="Shape" d="m22 49.56c-15.52-2.09-21.3-11.38-21.93-22.83h57.87c-.67 11.93-6.94 21.52-23.94 23.05z" fill="#e4c05c"/><path id="Shape" d="m58 24v.5c0 .75 0 1.5-.06 2.23-.86.77-2.08 1.41-3 2.23-1.19 1.11-1.72 3.73-3.67 4.55-1.56.66-4-.67-5.92-.2-1.71.41-3.18 2.71-5.12 3-1.77.24-3.82-1.57-5.75-1.45s-3.57 2.14-5.48 2.14-3.71-2-5.52-2.16-4 1.69-5.75 1.45c-1.94-.26-3.41-2.57-5.11-3-2-.47-4.37.86-5.93.2-1.95-.8-2.48-3.42-3.69-4.49-.87-.81-2.09-1.46-2.95-2.23-.05-.77-.05-1.52-.05-2.27v-.5c0-13.25 13-24 29-24s29 10.75 29 24z" fill="#ff5364"/><path id="Shape" d="m16.31 45.14c-.1159548-.0001364-.2310025-.0204389-.34-.06-3.3324273-1.1036277-6.2925701-3.1116779-8.55-5.8-.22864998-.2822398-.28935812-.6650235-.15925626-1.0041601s.43124816-.5831032.79-.64.72060628.0819203.94925626.3641601c2.025659 2.4012736 4.6770888 4.1942771 7.66 5.18.4544443.1648499.7258984.6311803.6448316 1.1077549-.0810668.4765745-.4914407.8269239-.9748316.8322451z" fill="#f5efca"/><path id="Shape" d="m33 18h-8c-.3148263.0100435-.6159839-.1288334-.8127544-.3747965s-.2661524-.5702606-.1872456-.8752035c.2322896-.8700786.6952573-1.6612696 1.34-2.29 2.0279751-1.9480249 5.2320249-1.9480249 7.26 0 .6666561.6214704 1.1507666 1.4133367 1.4 2.29.0789068.3049429.0095249.6292404-.1872456.8752035s-.4979281.38484-.8127544.3747965z" fill="#fff"/><path id="Shape" d="m34 46v10c0 1.1045695-.8954305 2-2 2s-2-.8954305-2-2v-4c0-1.1045695-.8954305-2-2-2s-2 .8954305-2 2v2c0 1.1045695-.8954305 2-2 2s-2-.8954305-2-2v-8c0-2.21 2.69-4 6-4s6 1.79 6 4z" fill="#802f34"/><path id="Shape" d="m12 28c-.265803.0015368-.5212812-.1028135-.71-.29l-1-1c-.39212217-.3921222-.39212217-1.0278778 0-1.42.3921222-.3921222 1.0278778-.3921222 1.42 0l1 1c.1893127.1877666.2957983.4433625.2957983.71s-.1064856.5222334-.2957983.71c-.1887188.1871865-.444197.2915368-.71.29z" fill="#7ed09e"/><path id="Shape" d="m22 28c-.265803.0015368-.5212812-.1028135-.71-.29l-1-1c-.3921221-.3921222-.3921221-1.0278778 0-1.42.3921222-.3921221 1.0278778-.3921221 1.42 0l1 1c.1893127.1877666.2957983.4433625.2957983.71s-.1064856.5222334-.2957983.71c-.1887188.1871865-.444197.2915368-.71.29z" fill="#955ba5"/><path id="Shape" d="m18 23c-.265803.0015368-.5212812-.1028135-.71-.29-.1893127-.1877666-.2957983-.4433625-.2957983-.71s.1064856-.5222334.2957983-.71l1-1c.3921222-.3921222 1.0278778-.3921222 1.42 0s.3921222 1.0278778 0 1.42l-1 1c-.1887188.1871865-.444197.2915368-.71.29z" fill="#9fc9d3"/><path id="Shape" d="m5 23c-.26580298.0015368-.52128117-.1028135-.71-.29-.18931265-.1877666-.29579832-.4433625-.29579832-.71s.10648567-.5222334.29579832-.71l1-1c.39212217-.3921222 1.02787783-.3921222 1.42 0s.39212217 1.0278778 0 1.42l-1 1c-.18871883.1871865-.44419702.2915368-.71.29z" fill="#9fc9d3"/><path id="Shape" d="m46 28c-.265803.0015368-.5212812-.1028135-.71-.29-.1893127-.1877666-.2957983-.4433625-.2957983-.71s.1064856-.5222334.2957983-.71l1-1c.2536586-.2536586.623374-.3527235.969878-.259878.3465041.0928454.6171546.3634959.71.71.0928455.346504-.0062194.7162194-.259878.969878l-1 1c-.1887188.1871865-.444197.2915368-.71.29z" fill="#7ed09e"/><path id="Shape" d="m36 28c-.265803.0015368-.5212812-.1028135-.71-.29-.1893127-.1877666-.2957983-.4433625-.2957983-.71s.1064856-.5222334.2957983-.71l1-1c.3921222-.3921222 1.0278778-.3921222 1.42 0s.3921222 1.0278778 0 1.42l-1 1c-.1887188.1871865-.444197.2915368-.71.29z" fill="#9fc9d3"/><path id="Shape" d="m24 7c-.265803.00153676-.5212812-.10281349-.71-.29l-1-1c-.3921222-.39212217-.3921222-1.02787783 0-1.42s1.0278778-.39212217 1.42 0l1 1c.1893127.1877666.2957983.44336246.2957983.71s-.1064856.5222334-.2957983.71c-.1887188.18718651-.444197.29153676-.71.29z" fill="#9fc9d3"/><path id="Shape" d="m34 7c-.265803.00153676-.5212812-.10281349-.71-.29-.1893127-.1877666-.2957983-.44336246-.2957983-.71s.1064856-.5222334.2957983-.71l1-1c.2536586-.25365859.623374-.35272356.9698781-.25987808.346504.09284548.6171545.36349596.71.71000002.0928455.34650407-.0062195.7162195-.2598781.96987806l-1 1c-.1887188.18718651-.444197.29153676-.71.29z" fill="#7ed09e"/><path id="Shape" d="m28 29c-.265803.0015368-.5212812-.1028135-.71-.29-.1893127-.1877666-.2957983-.4433625-.2957983-.71s.1064856-.5222334.2957983-.71l1-1c.3921222-.3921222 1.0278778-.3921222 1.42 0s.3921222 1.0278778 0 1.42l-1 1c-.1887188.1871865-.444197.2915368-.71.29z" fill="#7ed09e"/><path id="Shape" d="m40 23c-.265803.0015368-.5212812-.1028135-.71-.29l-1-1c-.3921221-.3921222-.3921221-1.0278778 0-1.42.3921222-.3921221 1.0278778-.3921221 1.42 0l1 1c.1893127.1877666.2957983.4433625.2957983.71s-.1064856.5222334-.2957983.71c-.1887188.1871865-.444197.2915368-.71.29z" fill="#955ba5"/><path id="Shape" d="m53 23c-.265803.0015368-.5212812-.1028135-.71-.29l-1-1c-.3921221-.3921222-.3921221-1.0278778 0-1.42.3921222-.3921221 1.0278778-.3921221 1.42 0l1 1c.1893127.1877666.2957983.4433625.2957983.71s-.1064856.5222334-.2957983.71c-.1887188.1871865-.444197.2915368-.71.29z" fill="#9fc9d3"/><path id="Shape" d="m17 18c-2.7614237 0-5-2.2385763-5-5s2.2385763-5 5-5 5 2.2385763 5 5c0 1.3260824-.5267842 2.597852-1.4644661 3.5355339s-2.2094515 1.4644661-3.5355339 1.4644661zm0-8c-1.6568542 0-3 1.3431458-3 3s1.3431458 3 3 3 3-1.3431458 3-3-1.3431458-3-3-3z" fill="#df4d60"/><path id="Shape" d="m41 18c-2.7614237 0-5-2.2385763-5-5s2.2385763-5 5-5 5 2.2385763 5 5-2.2385763 5-5 5zm0-8c-1.6568542 0-3 1.3431458-3 3s1.3431458 3 3 3 3-1.3431458 3-3-1.3431458-3-3-3z" fill="#df4d60"/><circle id="Oval" cx="17" cy="13" fill="#fff" r="4"/><circle id="Oval" cx="41" cy="13" fill="#fff" r="4"/><circle id="Oval" cx="16" cy="13" fill="#393f4a" r="1"/><circle id="Oval" cx="42" cy="13" fill="#393f4a" r="1"/><path id="Shape" d="m33 19h-8c-.634776.0086993-1.2359841-.2844824-1.62-.79-.3719891-.490459-.4974007-1.1248942-.34-1.72.2745491-1.0417115.8276841-1.9889552 1.6-2.74 2.4168642-2.3290884 6.2431358-2.3290884 8.66 0 .7710821.7559847 1.3238501 1.7060547 1.6 2.75.1574007.5951058.0319891 1.229541-.34 1.72-.3732718.4849853-.9480486.7723738-1.56.78zm-4-5c-1.0962553-.0044498-2.1510112.4188875-2.94 1.18-.5095755.50108-.8755978 1.1295333-1.06 1.82h8c-.1915392-.6868244-.5605819-1.3110929-1.07-1.81-.7849126-.7623552-1.8358005-1.1891663-2.93-1.19z" fill="#df4d60"/></g></g></svg>