<svg height="512" viewBox="0 0 46 58" width="512" xmlns="http://www.w3.org/2000/svg"><g id="Page-1" fill="none" fill-rule="evenodd"><g id="023---Count-Wraptula" fill-rule="nonzero" transform="translate(-1 -1)"><path id="Shape" d="m38.63 23.38c-.3158259.8195492-.7040266 1.6093369-1.16 2.36-.950745 1.5920462-2.3068846 2.9033263-3.93 3.8-1.7183457-1.0813649-3.9848216-.6032801-5.12 1.08-.2679411.4513703-.4127628.9651427-.42 1.49-.42-.1333333-.85-.2533333-1.29-.36-2.22-.5533333-4.4266667-1.1533333-6.62-1.8-2.9334739-.7270736-5.6409127-2.1701248-7.88-4.2-1.0023339-.9746479-1.857917-2.0896006-2.54-3.31 1.3199381-3.3389664 4.1175851-5.8742186 7.57-6.86 2.1927004-.687767 4.5338059-.7501041 6.76-.18 1.0185736-.2664226 2.0671599-.4008567 3.12-.4 1.2156258-.0027194 2.4251067.17247 3.59.52 3.4596872.9928254 6.2632459 3.5341277 7.59 6.88.13.32.23.65.33.98z" fill="#c03a2b"/><path id="Shape" d="m38.69 10.05c-2.38-.47-2.59 2.58-5.36 2.58-1.47 0-2.21 1.42-2.62 2.89-1.1648933-.34753-2.3743742-.5227194-3.59-.52-1.0528401-.0008567-2.1014264.1335774-3.12.4-2.2130199-.5774002-4.5429068-.528933-6.73.14-.38-1.48-1.12-2.91-2.6-2.91-2.77 0-3-3.05-5.36-2.58 2.7228385-5.61421411 8.4510442-9.14316315 14.69-9.05 6.2389558-.09316315 11.9671615 3.43578589 14.69 9.05z" fill="#e4c05c"/><path id="Shape" d="m40 47v7c0 2.7614237-2.2385763 5-5 5h-22c-2.7614237 0-5-2.2385763-5-5v-33.35h.11c.2280654.5538949.56857542 1.0544447 1 1.47.16495131.1515279.36385194.2612662.58.32v.05c.682083 1.2203994 1.5376661 2.3353521 2.54 3.31 2.2362411 2.0284295 4.9400798 3.471393 7.87 4.2 2.1866667.6666667 4.3933333 1.2666667 6.62 1.8.44.1066667.87.2266667 1.29.36 2.3805526.7114798 4.6012398 1.8761521 6.54 3.43 3.2425628 2.539901 5.2295009 6.3570095 5.45 10.47z" fill="#e4c05c"/><path id="Shape" d="m40 20.65v26.35c0-.31 0-.63 0-.94-.1989434-4.1258373-2.1759104-7.9630499-5.42-10.52.324841-.2467794.5968747-.5562177.8-.91.8816841-1.8570903.1175759-4.0783351-1.72-5l-.09-.05c1.6231154-.8966737 2.979255-2.2079538 3.93-3.8.4559734-.7506631.8441741-1.5404508 1.16-2.36-.1-.33-.2-.66-.33-1 .23303-.051031.4475256-.165198.62-.33.07658-.0636685.1438964-.1377165.2-.22.3248427-.368752.5821152-.7918976.76-1.25z" fill="#cb8252"/><circle id="Oval" cx="19.5" cy="23.5" fill="#fff" r="2.5"/><circle id="Oval" cx="19.5" cy="23.5" fill="#35495e" r="1.5"/><circle id="Oval" cx="28.5" cy="23.5" fill="#fff" r="2.5"/><path id="Shape" d="m35.35 34.63c-.2031253.3537823-.475159.6632206-.8.91-1.9417427-1.5549813-4.165925-2.7197058-6.55-3.43.005941-.5205505.1472374-1.030596.41-1.48 1.1351784-1.6832801 3.4016543-2.1613649 5.12-1.08l.09.05c1.8583851.9186225 2.6301736 3.1626088 1.73 5.03z" fill="#fdd7ad"/><path id="Shape" d="m24 17c-.5522847 0-1-.4477153-1-1 .0756189-2.9068184 1.2640015-5.6737456 3.32-7.73.2553099-.27283169.6414289-.38056404 1.0011101-.27932301.3596811.10124104.6329134.39456393.7084228.7605128.0755095.36594888-.0593022.7434671-.3495329.97881021-1.6384589 1.6863394-2.5933537 3.9203659-2.68 6.27 0 .5522847-.4477153 1-1 1z" fill="#4c8056"/><g fill="#b19046"><circle id="Oval" cx="15" cy="51" r="1"/><circle id="Oval" cx="23" cy="45" r="1"/><circle id="Oval" cx="14" cy="38" r="1"/><circle id="Oval" cx="23" cy="38" r="1"/><circle id="Oval" cx="33" cy="45" r="1"/><circle id="Oval" cx="31" cy="54" r="1"/><circle id="Oval" cx="22" cy="54" r="1"/><circle id="Oval" cx="28" cy="49" r="1"/></g><path id="Shape" d="m17.27 15.54c-3.4524149.9857814-6.2500619 3.5210336-7.57 6.86-.21614806-.0587338-.41504869-.1684721-.58-.32-.43142458-.4155553-.7719346-.9161051-1-1.47 0-.09-.07-.19-.11-.29-.16963329-.4229077-.28066105-.8670187-.33-1.32-.14-1.58-.29-4.64-2.29-4.28-.93.17-1.71.93-2.64 1.09-.42821198.1066019-.88163576.0065806-1.22525889-.2702815-.34362314-.2768621-.53781075-.6986305-.52474111-1.1397185.07184288-.8645589.42281582-1.6823258 1-2.33.54036617-.8006887 1.38682614-1.3432913 2.34-1.5 1.42-.15 2.78.22 4.18-.27.05944754-.0110173.11680693-.0312618.17-.06.20729487-.0821349.42146773-.1457174.64-.19 2.38-.47 2.59 2.58 5.36 2.58 1.46 0 2.2 1.43 2.58 2.91z" fill="#24ae5f"/><path id="Shape" d="m47 14.4c.0130696.441088-.181118.8628564-.5247411 1.1397185s-.7970469.3768834-1.2252589.2702815c-.93-.16-1.71-.92-2.64-1.09-2-.36-2.15 2.7-2.29 4.28-.0470218.4491134-.1546673.889787-.32 1.31-.0313833.1000114-.0715393.1970551-.12.29-.1778848.4581024-.4351573.881248-.76 1.25-.0561036.0822835-.12342.1563315-.2.22-.1724744.164802-.38697.278969-.62.33-1.3267541-3.3458723-4.1303128-5.8871746-7.59-6.88.41-1.47 1.15-2.89 2.62-2.89 2.77 0 3-3.05 5.36-2.58.2185323.0442826.4327051.1078651.64.19.0531931.0287382.1105525.0489827.17.06 1.4.49 2.76.12 4.18.27.9458648.1618419 1.7842253.7038854 2.32 1.5.5771842.6476742.9281571 1.4654411 1 2.33z" fill="#24ae5f"/><path id="Shape" d="m24 17c-.5522847 0-1-.4477153-1-1-.0818952-2.350696-1.0374904-4.5863609-2.68-6.27-.2902307-.23534311-.4250424-.61286133-.3495329-.97881021.0755094-.36594887.3487417-.65927176.7084228-.7605128.3596812-.10124103.7458002.00649132 1.0011101.27932301 2.0559985 2.0562544 3.2443811 4.8231816 3.32 7.73 0 .5522847-.4477153 1-1 1z" fill="#24ae5f"/><path id="Shape" d="m22 22h-.16l-6-1c-.3572656-.0571625-.6568968-.3005817-.7860254-.6385641-.1291287-.3379823-.068137-.7191801.16-1 .2281369-.2808198.5887598-.4185984.9460254-.3614359l6 1c.2667921.039191.5064494.1844672.6646048.4028724.1581555.2184051.2214032.4914262.1753952.7571276-.0792284.4890578-.5046072.846376-1 .84z" fill="#802f34"/><path id="Shape" d="m26 22c-.4953928.006376-.9207716-.3509422-1-.84-.046008-.2657014.0172397-.5387225.1753952-.7571276.1581554-.2184052.3978127-.3636814.6646048-.4028724l6-1c.5522847-.0883656 1.0716344.2877153 1.16.84.0883655.5522847-.2877153 1.0716344-.84 1.16l-6 1z" fill="#802f34"/><circle id="Oval" cx="19" cy="23" fill="#fff" r="1"/><circle id="Oval" cx="28.5" cy="23.5" fill="#35495e" r="1.5"/><circle id="Oval" cx="28" cy="23" fill="#fff" r="1"/></g></g></svg>