<svg height="512" viewBox="0 0 58 41" width="512" xmlns="http://www.w3.org/2000/svg"><g id="Page-1" fill="none" fill-rule="evenodd"><g id="025---Water-Felon" fill-rule="nonzero" transform="translate(0 -1)"><path id="Shape" d="m58 13c-.0000002 16.0162576-12.9837424 28.9999996-29 28.9999996s-28.99999976-12.983742-29-28.9999996c0-.5522847.44771525-1 1-1h3c0 13.8071187 11.1928813 25 25 25s25-11.1928813 25-25h3c.5522847 0 1 .4477153 1 1z" fill="#24ae5f"/><path id="Shape" d="m54 12c0 13.8071187-11.1928813 25-25 25s-25-11.1928813-25-25z" fill="#fb7b76"/><g fill="#393f4a"><path id="Shape" d="m27.24 30.16c.43-1.6-1.35-6.57-1.35-6.57s-4 3.42-4.45 5c-.4280207 1.6016258.5233742 3.2469793 2.125 3.675s3.2469793-.5233742 3.675-2.125z"/><path id="Shape" d="m36.56 28.61c-.43-1.6-4.45-5-4.45-5s-1.78 5-1.35 6.57c.4280207 1.6016257 2.0733742 2.5530206 3.675 2.1249999 1.6016257-.4280206 2.5530206-2.0733741 2.125-3.6749999z"/><path id="Shape" d="m14.67 23.71c1-1 5.33-1.78 5.33-1.78s-.8 4.35-1.78 5.33c-.9803054.9803054-2.5696946.9803054-3.55 0s-.9803054-2.5696946 0-3.55z"/><path id="Shape" d="m9.84 17.42c1-.77 4.89-1 4.89-1s-1.13 3.77-2.1 4.54c-.9693642.7074542-2.3240539.5252835-3.07209325-.4131171-.74803931-.9384006-.62364568-2.299612.28209325-3.0868829z"/><path id="Shape" d="m43.33 23.71c-1-1-5.33-1.78-5.33-1.78s.8 4.35 1.78 5.33c.9803054.9803054 2.5696946.9803054 3.55 0s.9803054-2.5696946 0-3.55z"/><path id="Shape" d="m48.16 17.42c-1-.77-4.89-1-4.89-1s1.13 3.77 2.1 4.54c.9693642.7074542 2.3240539.5252835 3.0720933-.4131171.7480393-.9384006.6236456-2.299612-.2820933-3.0868829z"/></g><path id="Shape" d="m55 12c0 14.3594035-11.6405965 26-26 26s-26-11.6405965-26-26h2c0 13.254834 10.745166 24 24 24s24-10.745166 24-24z" fill="#f3d55b"/><path id="Shape" d="m28.25 5.75c.4931644.832367.7522938 1.78250805.75 2.75-.0030909 2.7503073-2.0372998 5.0755441-4.7627908 5.4441883-2.7254909.3686443-5.3043192-1.3326426-6.037934-3.98330455-.7336149-2.65066194.6035315-5.4357601 3.1307248-6.52088375" fill="#fff"/><path id="Shape" d="m29.75 5.75c-.4931644.832367-.7522938 1.78250805-.75 2.75.0030909 2.7503073 2.0372998 5.0755441 4.7627908 5.4441883 2.7254909.3686443 5.3043192-1.3326426 6.037934-3.98330455.7336149-2.65066194-.6035315-5.4357601-3.1307248-6.52088375" fill="#fff"/><path id="Shape" d="m23.5 15c-3.5852925-.0109811-6.4890189-2.9147075-6.5-6.5-.0065894-2.60561098 1.5387803-4.96495403 3.93-6 .508102-.22091388 1.0990861.01189806 1.32.52000001.2209139.50810196-.011898 1.09908608-.52 1.31999999-2.0674849.88453944-3.1646131 3.1595401-2.569509 5.32812372.5951042 2.16858358 2.6997329 3.56495608 4.9291073 3.27034868 2.2293744-.2946075 3.8990366-2.1897451 3.9104017-4.4384724.0018518-.78794268-.2088845-1.56179393-.61-2.24-.2245083-.30870607-.2536931-.71829335-.0752238-1.0557132.1784692-.33741985.5334581-.54380874.9149856-.53196837.3815274.01184037.7230353.23984443.8802382.58768157.5794836.98165035.8867053 2.10007554.89 3.24-.0055066 3.5875675-2.9124325 6.4944934-6.5 6.5z" fill="#df4d60"/><path id="Shape" d="m34.5 15c-3.5875675-.0055066-6.4944934-2.9124325-6.5-6.5-.0002716-1.1467127.3070761-2.27250326.89-3.26.3016091-.41472214.8680449-.53408753 1.311363-.27634441.4433182.25774312.6198266.80905278.408637 1.27634441-.404604.68404038-.6154686 1.4652763-.61 2.26.0013601 2.2513013 1.6662321 4.1551803 3.8972468 4.4567308 2.2310147.3015506 4.341581-1.0920291 4.9405586-3.26218694.5989775-2.17015786-.497968-4.44903145-2.5678054-5.33454386-.3286844-.14290622-.5561617-.45030805-.5967434-.80641016-.0405818-.35610212.1118974-.70680416.4-.92000003.2881026-.21319588.6680591-.25649607.9967434-.11358981 2.8241256 1.22797726 4.4014635 4.2668437 3.7803274 7.28310027-.6211362 3.01625653-3.2708041 5.18465783-6.3503274 5.19689973z" fill="#df4d60"/><circle id="Oval" cx="24" cy="9" fill="#35495e" r="1"/><circle id="Oval" cx="33" cy="9" fill="#35495e" r="1"/><path id="Shape" d="m42 1.68c-.0843151-.25235263-.26572-.46070058-.5040704-.57893742-.2383505-.11823684-.5139931-.13661323-.7659296-.05106258l-11.73 3.95-11.68-3.95c-.3394023-.114325-.7140146-.03889668-.9827242.19787185-.2687095.23676853-.3906928.5989065-.32.95000002.0706929.35109353.3233219.63780315.6627242.75212813l12 4c.2014476.06568459.4185524.06568459.62 0l12-4c.2652181-.06939411.4903168-.24462861.6226507-.48472008s.160297-.52398343.0773493-.78527992z" fill="#4fba6f"/></g></g></svg>