<svg height="512" viewBox="0 0 60 59" width="512" xmlns="http://www.w3.org/2000/svg"><g id="Page-1" fill="none" fill-rule="evenodd"><g id="002---Hot-Dog-Van" fill-rule="nonzero" transform="translate(0 -1)"><path id="Shape" d="m59 60h-58c-.55228475 0-1-.4477153-1-1s.44771525-1 1-1h58c.5522847 0 1 .4477153 1 1s-.4477153 1-1 1z" fill="#7f8c8d"/><path id="Shape" d="m45 54h-42c-1.10320187-.0032948-1.9967052-.8967981-2-2v-25l45 2 3.61 9.02c.2447049.612915.7760202 1.0656555 1.42 1.21l6.4 1.42c.9142776.2039571 1.5658689 1.0132583 1.57 1.95v9.4c-.0032948 1.1032019-.8967981 1.9967052-2 2z" fill="#4fba6f"/><path id="Shape" d="m59 43v2h-2c-.5522847 0-1-.4477153-1-1s.4477153-1 1-1z" fill="#f3d55b"/><path id="Shape" d="m59 48v2h-2c-.5522847 0-1-.4477153-1-1s.4477153-1 1-1z" fill="#ff5364"/><path id="Shape" d="m32 35v5h-27v-5c.0032948-1.1032019.89679813-1.9967052 2-2h23c1.1032019.0032948 1.9967052.8967981 2 2z" fill="#2c3e50"/><path id="Shape" d="m44.483 40h-7.483c-.5522847 0-1-.4477153-1-1v-5c0-.5522847.4477153-1 1-1h5.341c.3999561.0000442.7614173.2383962.919.606l2.143 5c.1325088.3091119.1007618.6641294-.0844899.9448259-.1852516.2806966-.4991938.4494733-.8355101.4491741z" fill="#3b97d3"/><path id="Shape" d="m40 45h-2c-.5522847 0-1-.4477153-1-1s.4477153-1 1-1h2c.5522847 0 1 .4477153 1 1s-.4477153 1-1 1z" fill="#ecf0f1"/><path id="Shape" d="m9 41c-.55228475 0-1-.4477153-1-1v-2c0-.5522847.44771525-1 1-1s1 .4477153 1 1v2c0 .5522847-.44771525 1-1 1z" fill="#f0c419"/><path id="Shape" d="m13 41c-.5522847 0-1-.4477153-1-1v-2c0-.5522847.4477153-1 1-1s1 .4477153 1 1v2c0 .5522847-.4477153 1-1 1z" fill="#c03a2b"/><path id="Shape" d="m32 40v2c-.0032948 1.1032019-.8967981 1.9967052-2 2h-23c-1.10320187-.0032948-1.9967052-.8967981-2-2v-2z" fill="#f29c1f"/><path id="Shape" d="m45.48 39.01c-1.07-1.83-3.85-5.62-8.72-5.98.0784657-.0198114.159072-.0298872.24-.03h5.34c.4012802.000327.7635008.2404951.92.61l2.14 5c.0552245.1259964.0825163.2624554.08.4z" fill="#2980ba"/><circle id="Oval" cx="10" cy="54" fill="#2c3e50" r="5"/><circle id="Oval" cx="10" cy="54" fill="#f5efca" r="2"/><circle id="Oval" cx="50" cy="54" fill="#2c3e50" r="5"/><circle id="Oval" cx="50" cy="54" fill="#f5efca" r="2"/><path id="Shape" d="m36 16.07v9.93h-18v-9.93c2.9582599.6300069 5.9754221.9417804 9 .93 3.0245779.0117804 6.0417401-.2999931 9-.93z" fill="#d25627"/><path id="Shape" d="m52 25v3c0 .5522847-.4477153 1-1 1h-50v-3c.0032948-1.1032019.89679813-1.9967052 2-2h48c.5522847 0 1 .4477153 1 1z" fill="#bdc3c7"/><path id="Shape" d="m47.98 8.87c.1350645 2.1915538-.904544 4.2898112-2.73 5.51-2.8250412 1.798423-5.9627899 3.0501303-9.25 3.69-2.9582599.6300069-5.9754221.9417804-9 .93-3.0245779.0117804-6.0417401-.2999931-9-.93-3.2872101-.6398697-6.4249588-1.891577-9.25-3.69-1.825456-1.2201888-2.8650645-3.3184462-2.73-5.51.1394963-2.66864102 1.97974513-4.94473826 4.56-5.64 1.7457941-.4877144 3.6176904-.18426247 5.12.83 1.71 1.15 5.69 2.5 11.3 2.5s9.59-1.35 11.3-2.5c1.5023096-1.01426247 3.3742059-1.3177144 5.12-.83 2.5802549.69526174 4.4205037 2.97135898 4.56 5.64z" fill="#f29c1f"/><path id="Shape" d="m20.645 11c-.0610743.0002467-.1220279-.0054467-.182-.017-2.6783594-.4118961-5.247359-1.35504123-7.556-2.774-.4432241-.31372073-.5550888-.92382113-.2519991-1.37438185.3030897-.45056071.9103567-.57690526 1.3679991-.28461815 2.0810095 1.26436671 4.3923733 2.10291591 6.8 2.467.5067655.0946105.8585611.55896167.8124716 1.0724188-.0460894.5134571-.4749579.9077335-.9904716.9105812z" fill="#fac176"/><g fill="#d25627"><path id="Shape" d="m10.58 3.23c-2.58025487.69526174-4.4205037 2.97135898-4.56 5.64-1.79808271-.44816775-3.05292384-2.0726648-3.03236002-3.92564427.02056382-1.85297946 1.31114785-3.44922813 3.11873376-3.85738122 1.80758591-.4081531 3.65884704.47866657 4.47362626 2.14302549z"/><path id="Shape" d="m51 5c.0030956 1.83100416-1.2431418 3.42800374-3.02 3.87-.1394963-2.66864102-1.9797451-4.94473826-4.56-5.64.8267261-1.65882588 2.6847234-2.53245311 4.4895935-2.11099928 1.8048701.42145382 3.0838204 2.02758732 3.0904065 3.88099928z"/></g></g></g></svg>