<svg height="512" viewBox="0 0 60 59" width="512" xmlns="http://www.w3.org/2000/svg"><g id="Page-1" fill="none" fill-rule="evenodd"><g id="003---Donut-Van" fill-rule="nonzero"><path id="Shape" d="m25 0c-8.1418088.00308271-14.7945972 6.50053578-14.99 14.64-.01.12-.01.24-.01.36-.00492919 3.2463512 1.0482459 6.4058766 3 9h24c1.6775504-2.2278773 2.6961739-4.8818421 2.94-7.66.04-.44.06-.89.06-1.34-.0027597-8.28312789-6.7168721-14.99724034-15-15zm0 20c-2.7614237 0-5-2.2385763-5-5-.0033129-.1203468.0033767-.2407608.02-.36.2339278-2.6501504 2.5021523-4.65301735 5.1608778-4.5571114 2.6587255.0959059 4.7767471 2.2569942 4.8191222 4.9171114.003647.2078044-.0130999.4154655-.05.62-.3028481 2.5028043-2.4289427 4.3840759-4.95 4.38z" fill="#ff5364"/><path id="Shape" d="m59 59h-58c-.55228475 0-1-.4477153-1-1s.44771525-1 1-1h58c.5522847 0 1 .4477153 1 1s-.4477153 1-1 1z" fill="#7f8c8d"/><path id="Shape" d="m5 53h-2c-1.10320187-.0032948-1.9967052-.8967981-2-2v-25c.0032948-1.1032019.89679813-1.9967052 2-2h50c1.1032019.0032948 1.9967052.8967981 2 2v1c0 .5522847-.4477153 1-1 1h-6v.02l-11 24.98z" fill="#ff5364"/><path id="Shape" d="m45 53h-8v-23c.0032948-1.1032019.8967981-1.9967052 2-2h8.71c.0969604.0013397.1937736.0080164.29.02.6722261.0985737 1.2484375.5316738 1.53 1.15l1.29 2.83h-8.82c-.5522847 0-1 .4477153-1 1v5h12.55l.03.07c.2645742.5827133.792758 1.0030286 1.42 1.13l2.39.48c.9353078.1859544 1.609234 1.0063863 1.61 1.96v1.36h-2c-1.1011688.0081672-1.9918328.8988312-2 2 .0032948 1.1032019.8967981 1.9967052 2 2h2v4c-.0032948 1.1032019-.8967981 1.9967052-2 2z" fill="#b49aca"/><circle id="Oval" cx="10" cy="53" fill="#2c3e50" r="5"/><circle id="Oval" cx="10" cy="53" fill="#f5efca" r="2"/><circle id="Oval" cx="50" cy="53" fill="#2c3e50" r="5"/><circle id="Oval" cx="50" cy="53" fill="#f5efca" r="2"/><path id="Shape" d="m30 33v7h-22v-7c.0032948-1.1032019.89679813-1.9967052 2-2h18c1.1032019.0032948 1.9967052.8967981 2 2z" fill="#2c3e50"/><path id="Shape" d="m39.94 16.34c-.2438261 2.7781579-1.2624496 5.4321227-2.94 7.66h-24c-1.9517541-2.5941234-3.00492919-5.7536488-3-9 0-.12 0-.24.01-.36.4118237.548792.9800496.9601458 1.63 1.18 1.91.58 2.87-1.71 4.33-2.41.7879404-.3812474 1.7114182-.3589052 2.48.06.5524964.3492581 1.0773712.7404068 1.57 1.17-.0166233.1192392-.0233129.2396532-.02.36-.0027076 2.6394839 2.0490399 4.8253037 4.6834158 4.9894558 2.6343759.164152 4.9416024-1.7500534 5.2665842-4.3694558.9632206.4582514 1.8369202 1.0847414 2.58 1.85 1.77 1.66 3.86 1.96 5.84.46.5937421-.4555283 1.1220236-.9905396 1.57-1.59z" fill="#fac176"/><path id="Shape" d="m16 11c-.2651948-.0000566-.5195073-.1054506-.707-.293l-1-1c-.3789722-.39237889-.3735524-1.01608478.0121814-1.40181858.3857338-.38573379 1.0094397-.39115363 1.4018186-.01218142l1 1c.2859079.28599425.3714219.7160366.216678 1.0896546-.1547439.3736179-.5192821.6172591-.923678.6173454z" fill="#f3d55b"/><path id="Shape" d="m34 14c-.4043959-.0000863-.7689341-.2437275-.923678-.6173454-.1547439-.373618-.0692299-.8036603.216678-1.0896546l1-1c.3923789-.3789722 1.0160848-.3735524 1.4018186.0121814s.3911536 1.0094397.0121814 1.4018186l-1 1c-.1874927.1875494-.4418052.2929434-.707.293z" fill="#84b5cb"/><path id="Shape" d="m26 7c-.2651948-.00005664-.5195073-.10545063-.707-.293l-1-1c-.3789722-.39237889-.3735524-1.01608478.0121814-1.40181858.3857338-.38573379 1.0094397-.39115363 1.4018186-.01218142l1 1c.2859079.28599425.3714219.71603662.216678 1.08965456s-.5192821.61725909-.923678.61734544z" fill="#84b5cb"/><path id="Shape" d="m19 8c-.4043959-.00008635-.7689341-.2437275-.923678-.61734544s-.0692299-.80366031.216678-1.08965456l1-1c.2510745-.25995658.6228779-.3642126.9725073-.27269716.3496295.09151544.6226744.3645604.7141899.71418984.0915154.34962943-.0127406.72143285-.2726972.97250732l-1 1c-.1874927.18754937-.4418052.29294336-.707.293z" fill="#7ed09e"/><path id="Shape" d="m31 8c-.4043959-.00008635-.7689341-.2437275-.923678-.61734544s-.0692299-.80366031.216678-1.08965456l1-1c.2510745-.25995658.6228779-.3642126.9725073-.27269716.3496295.09151544.6226744.3645604.7141899.71418984.0915154.34962943-.0127406.72143285-.2726972.97250732l-1 1c-.1874927.18754937-.4418052.29294336-.707.293z" fill="#7ed09e"/><path id="Shape" d="m12 41c-.5522847 0-1-.4477153-1-1v-3c0-.5522847.4477153-1 1-1s1 .4477153 1 1v3c0 .5522847-.4477153 1-1 1z" fill="#f0c419"/><path id="Shape" d="m16 41c-.5522847 0-1-.4477153-1-1v-3c0-.5522847.4477153-1 1-1s1 .4477153 1 1v3c0 .5522847-.4477153 1-1 1z" fill="#c03a2b"/><path id="Shape" d="m53.55 38h-12.55v-5c0-.5522847.4477153-1 1-1h8.82z" fill="#3b97d3"/><path id="Shape" d="m46 43h-2c-.5522847 0-1-.4477153-1-1s.4477153-1 1-1h2c.5522847 0 1 .4477153 1 1s-.4477153 1-1 1z" fill="#ecf0f1"/><path id="Shape" d="m59 43v4h-2c-1.1032019-.0032948-1.9967052-.8967981-2-2 .0081672-1.1011688.8988312-1.9918328 2-2z" fill="#f9eab0"/><path id="Shape" d="m52.84 36.43c-1.57-1.7-4.9-4.21-11.02-4.41.0593483-.011603.1195523-.0182924.18-.02h8.82z" fill="#2980ba"/><rect id="Rectangle-path" fill="#f29c1f" height="4" rx="1" width="26" x="6" y="40"/></g></g></svg>