<svg height="512" viewBox="0 0 60 58" width="512" xmlns="http://www.w3.org/2000/svg"><g id="Page-1" fill="none" fill-rule="evenodd"><g id="004---Taco-Van" fill-rule="nonzero"><path id="Rectangle-path" d="m19 18h14v6h-14z" fill="#d25627"/><path id="Shape" d="m9.8 15.15c-.60877707-1.0638321-1.09201084-2.1947333-1.44-3.37-.49356331-1.2213907-.47916458-2.58926962.04-3.8.49-.84 1.37-1.22 1.89-2.03.61-.95.61-2.33 1.23-3.27.5390446-.71716687 1.3646612-1.16285371 2.26-1.22.847607-.02742082 1.6910183-.13117379 2.52-.31.9027675-.44837363 1.838899-.82616955 2.8-1.13 1.0775875-.0583126 2.1242158.37135585 2.85 1.17.5944217.60512331 1.117811 1.27613525 1.56 2z" fill="#4fba6f"/><path id="Shape" d="m28.49 3.19c.442189-.72386475.9655783-1.39487669 1.56-2 .7257842-.79864415 1.7724125-1.2283126 2.85-1.17.961101.30383045 1.8972325.68162637 2.8 1.13.8289817.17882621 1.672393.28257918 2.52.31.8953388.05714629 1.7209554.50283313 2.26 1.22.62.94.62 2.32 1.23 3.27.52.81 1.4 1.19 1.89 2.03.5191646 1.21073038.5335633 2.5786093.04 3.8-.3479892 1.1752667-.8312229 2.3061679-1.44 3.37z" fill="#4fba6f"/><path id="Shape" d="m43.39 12.55c-.3168015.9010407-.7151178 1.7713116-1.19 2.6l-13.71-11.96c.3940556-.63946602.8495455-1.2389711 1.36-1.79 6.0724882 1.26351113 11.1352242 5.43260316 13.54 11.15z" fill="#24ae5f"/><path id="Shape" d="m23.51 3.19-13.71 11.96c-.47488218-.8286884-.87319849-1.6989593-1.19-2.6 2.4118894-5.71209637 7.4713494-9.87849067 13.54-11.15.5104545.5510289.9659444 1.15053398 1.36 1.79z" fill="#24ae5f"/><path id="Shape" d="m42.61 17.11c.0005314.5014219-.1984223.9824596-.5529813 1.3370187-.3545591.354559-.8355968.5535127-1.3370187.5529813h-29.44c-.563018.0008015-1.0970804-.2494492-1.45675476-.6826054-.35967437-.4331562-.50750852-1.0041143-.40324524-1.5573946.09955066-.5427073.22637806-1.0800549.38-1.61 1.8475836-6.31853641 7.1991782-10.9870318 13.71-11.96 1.6503346-.25333416 3.3296654-.25333416 4.98 0 6.5108218.9729682 11.8624164 5.64146359 13.71 11.96.1536219.5299451.2804493 1.0672927.38 1.61.0194904.1156581.0295236.2327121.03.35z" fill="#f0c419"/><g fill="#e57e25"><circle id="Oval" cx="15" cy="14" r="1"/><circle id="Oval" cx="22" cy="11" r="1"/><circle id="Oval" cx="26" cy="10" r="1"/><circle id="Oval" cx="23" cy="7" r="1"/><circle id="Oval" cx="24" cy="15" r="1"/><circle id="Oval" cx="17" cy="10" r="1"/><circle id="Oval" cx="19" cy="15" r="1"/><circle id="Oval" cx="37" cy="14" r="1"/><circle id="Oval" cx="30" cy="11" r="1"/><circle id="Oval" cx="29" cy="7" r="1"/><circle id="Oval" cx="28" cy="15" r="1"/><circle id="Oval" cx="35" cy="10" r="1"/><circle id="Oval" cx="33" cy="15" r="1"/></g><path id="Shape" d="m59 58h-58c-.55228475 0-1-.4477153-1-1s.44771525-1 1-1h58c.5522847 0 1 .4477153 1 1s-.4477153 1-1 1z" fill="#7f8c8d"/><path id="Shape" d="m5 52h-2c-1.10320187-.0032948-1.9967052-.8967981-2-2v-25c.0032948-1.1032019.89679813-1.9967052 2-2h50c1.1032019.0032948 1.9967052.8967981 2 2v1c0 .5522847-.4477153 1-1 1h-6v.02l-11 24.98z" fill="#f29c1f"/><path id="Shape" d="m45 52h-8v-23c.0032948-1.1032019.8967981-1.9967052 2-2h8.71c.0969604.0013397.1937736.0080164.29.02.6722261.0985737 1.2484375.5316738 1.53 1.15l1.29 2.83h-8.82c-.5522847 0-1 .4477153-1 1v5h12.55l.03.07c.2645742.5827133.792758 1.0030286 1.42 1.13l2.39.48c.9353078.1859544 1.609234 1.0063863 1.61 1.96v1.36h-2c-1.1011688.0081672-1.9918328.8988312-2 2 .0032948 1.1032019.8967981 1.9967052 2 2h2v4c-.0032948 1.1032019-.8967981 1.9967052-2 2z" fill="#f0c419"/><circle id="Oval" cx="10" cy="52" fill="#2c3e50" r="5"/><circle id="Oval" cx="10" cy="52" fill="#f5efca" r="2"/><circle id="Oval" cx="50" cy="52" fill="#2c3e50" r="5"/><circle id="Oval" cx="50" cy="52" fill="#f5efca" r="2"/><path id="Shape" d="m30 32v7h-22v-7c.0032948-1.1032019.89679813-1.9967052 2-2h18c1.1032019.0032948 1.9967052.8967981 2 2z" fill="#2c3e50"/><path id="Shape" d="m12 40c-.5522847 0-1-.4477153-1-1v-3c0-.5522847.4477153-1 1-1s1 .4477153 1 1v3c0 .5522847-.4477153 1-1 1z" fill="#f0c419"/><path id="Shape" d="m16 40c-.5522847 0-1-.4477153-1-1v-3c0-.5522847.4477153-1 1-1s1 .4477153 1 1v3c0 .5522847-.4477153 1-1 1z" fill="#c03a2b"/><path id="Shape" d="m53.55 37h-12.55v-5c0-.5522847.4477153-1 1-1h8.82z" fill="#3b97d3"/><path id="Shape" d="m46 42h-2c-.5522847 0-1-.4477153-1-1s.4477153-1 1-1h2c.5522847 0 1 .4477153 1 1s-.4477153 1-1 1z" fill="#ecf0f1"/><path id="Shape" d="m59 42v4h-2c-1.1032019-.0032948-1.9967052-.8967981-2-2 .0081672-1.1011688.8988312-1.9918328 2-2z" fill="#f9eab0"/><path id="Shape" d="m52.84 35.43c-1.57-1.7-4.9-4.21-11.02-4.41.0593483-.011603.1195523-.0182924.18-.02h8.82z" fill="#2980ba"/><rect id="Rectangle-path" fill="#f29c1f" height="4" rx="1" width="26" x="6" y="39"/></g></g></svg>