<svg height="512" viewBox="0 0 60 54" width="512" xmlns="http://www.w3.org/2000/svg"><g id="Page-1" fill="none" fill-rule="evenodd"><g id="005---Coffee-Van" fill-rule="nonzero"><path id="Shape" d="m39 11c-1.4599861.0053176-2.8477925-.6344202-3.792-1.748-.9285247-1.09546366-1.3178032-2.5491126-1.061-3.962.0701032-.41474261.3922457-.74128162.806-.817-.3099494-.33724258-.3511503-.84195335-.1-1.225 1.3189397-1.98616455 3.8584734-2.76211845 6.0622721-1.85232578s3.4563772 3.25124155 2.9901048 5.5894121c-.4662725 2.33817055-2.5211736 4.02004958-4.9053769 4.01491368zm-3.131-6.221c.209937.22801841.3022765.54049533.25.846-.1540924.8322299.0726656 1.68972763.618 2.337.5641384.66307216 1.3924302 1.04299565 2.263 1.038 1.4360795.01266437 2.6797054-.99420454 2.9661682-2.40147982s-.4645977-2.82017954-1.7913522-3.36991344c-1.3267544-.5497339-2.8570135-.08208275-3.649816 1.11539326-.1500065.22858034-.3870619.38577408-.656.435z" fill="#84b5cb"/><path id="Shape" d="m37 15c0 1.6568542-1.3431458 3-3 3h-20c-1.6568542 0-3-1.3431458-3-3 0-.5522847.4477153-1 1-1h24c.5522847 0 1 .4477153 1 1z" fill="#3b97d3"/><path id="Shape" d="m37.97 1.03c-.1803009 5.22557384-2.8537962 10.0482767-7.19 12.97h-13.56c-4.3362038-2.9217233-7.0096991-7.74442616-7.19-12.97-.0081149-.27037538.0936485-.53250515.2820716-.72658097.1884231-.19407581.4474313-.30354078.7179284-.30341903h25.94c.2704971-.00012175.5295053.10934322.7179284.30341903.1884231.19407582.2901865.45620559.2820716.72658097z" fill="#9fc9d3"/><path id="Shape" d="m18 10c-.2651948-.00005664-.5195073-.10545063-.707-.293-1.4369816-1.55712081-2.5402618-3.39172395-3.242-5.391-.1747981-.52467051.1088295-1.09170188.6335-1.2665s1.0917019.10882949 1.2665.6335c.6070397 1.7033948 1.5446614 3.27006245 2.759 4.61.2862967.28638007.3716214.71715181.2161071 1.0910431-.1555142.37389128-.521165.6170868-.9261071.6159569z" fill="#fff"/><path id="Shape" d="m59 54h-58c-.55228475 0-1-.4477153-1-1s.44771525-1 1-1h58c.5522847 0 1 .4477153 1 1s-.4477153 1-1 1z" fill="#7f8c8d"/><path id="Shape" d="m45 48h-42c-1.10320187-.0032948-1.9967052-.8967981-2-2v-25l45 2 3.61 9.02c.2447049.612915.7760202 1.0656555 1.42 1.21l6.4 1.42c.9142776.2039571 1.5658689 1.0132583 1.57 1.95v9.4c-.0032948 1.1032019-.8967981 1.9967052-2 2z" fill="#f0c419"/><path id="Shape" d="m59 37v2h-2c-.5522847 0-1-.4477153-1-1s.4477153-1 1-1z" fill="#f5efca"/><path id="Shape" d="m59 42v2h-2c-.5522847 0-1-.4477153-1-1s.4477153-1 1-1z" fill="#ff5364"/><path id="Shape" d="m32 29v5h-27v-5c.0032948-1.1032019.89679813-1.9967052 2-2h23c1.1032019.0032948 1.9967052.8967981 2 2z" fill="#2c3e50"/><path id="Shape" d="m44.483 34h-7.483c-.5522847 0-1-.4477153-1-1v-5c0-.5522847.4477153-1 1-1h5.341c.3999561.0000442.7614173.2383962.919.606l2.143 5c.1325088.3091119.1007618.6641294-.0844899.9448259-.1852516.2806966-.4991938.4494733-.8355101.4491741z" fill="#3b97d3"/><path id="Shape" d="m40 39h-2c-.5522847 0-1-.4477153-1-1s.4477153-1 1-1h2c.5522847 0 1 .4477153 1 1s-.4477153 1-1 1z" fill="#ecf0f1"/><path id="Shape" d="m9 35c-.55228475 0-1-.4477153-1-1v-2c0-.5522847.44771525-1 1-1s1 .4477153 1 1v2c0 .5522847-.44771525 1-1 1z" fill="#f0c419"/><path id="Shape" d="m13 35c-.5522847 0-1-.4477153-1-1v-2c0-.5522847.4477153-1 1-1s1 .4477153 1 1v2c0 .5522847-.4477153 1-1 1z" fill="#c03a2b"/><path id="Shape" d="m32 34v2c-.0032948 1.1032019-.8967981 1.9967052-2 2h-23c-1.10320187-.0032948-1.9967052-.8967981-2-2v-2z" fill="#f29c1f"/><path id="Shape" d="m45.48 33.01c-1.07-1.83-3.85-5.62-8.72-5.98.0784657-.0198114.159072-.0298872.24-.03h5.34c.4012802.000327.7635008.2404951.92.61l2.14 5c.0552245.1259964.0825163.2624554.08.4z" fill="#2980ba"/><circle id="Oval" cx="10" cy="48" fill="#2c3e50" r="5"/><circle id="Oval" cx="10" cy="48" fill="#f5efca" r="2"/><circle id="Oval" cx="50" cy="48" fill="#2c3e50" r="5"/><circle id="Oval" cx="50" cy="48" fill="#f5efca" r="2"/><path id="Shape" d="m52 19v3c0 .5522847-.4477153 1-1 1h-50v-3c.0032948-1.1032019.89679813-1.9967052 2-2h48c.5522847 0 1 .4477153 1 1z" fill="#bdc3c7"/></g></g></svg>