<svg height="512" viewBox="0 0 60 57" width="512" xmlns="http://www.w3.org/2000/svg"><g id="Page-1" fill="none" fill-rule="evenodd"><g id="006---Ice-Cream-Truck" fill-rule="nonzero"><path id="Rectangle-path" d="m16 14h18v9h-18z" fill="#e57e25"/><path id="Shape" d="m17 0h23c1.1045695 0 2 .8954305 2 2v12c0 1.1045695-.8954305 2-2 2h-23c-3.3137085 0-6-2.6862915-6-6v-4c0-3.3137085 2.6862915-6 6-6z" fill="#f0c419" transform="matrix(-1 0 0 -1 53 16)"/><path id="Shape" d="m3 6h8v4h-8c-1.1045695 0-2-.8954305-2-2s.8954305-2 2-2z" fill="#cb8252"/><g fill="#fff"><path id="Shape" d="m17 6h-1c-.5522847 0-1-.44771525-1-1s.4477153-1 1-1h1c.5522847 0 1 .44771525 1 1s-.4477153 1-1 1z"/><path id="Shape" d="m36 6h-15c-.5522847 0-1-.44771525-1-1s.4477153-1 1-1h15c.5522847 0 1 .44771525 1 1s-.4477153 1-1 1z"/><path id="Shape" d="m17 12h-1c-.5522847 0-1-.4477153-1-1s.4477153-1 1-1h1c.5522847 0 1 .4477153 1 1s-.4477153 1-1 1z"/><path id="Shape" d="m36 12h-15c-.5522847 0-1-.4477153-1-1s.4477153-1 1-1h15c.5522847 0 1 .4477153 1 1s-.4477153 1-1 1z"/></g><path id="Shape" d="m59 57h-58c-.55228475 0-1-.4477153-1-1s.44771525-1 1-1h58c.5522847 0 1 .4477153 1 1s-.4477153 1-1 1z" fill="#7f8c8d"/><path id="Shape" d="m45 51h-42c-1.10320187-.0032948-1.9967052-.8967981-2-2v-25l45 2 3.61 9.02c.2447049.612915.7760202 1.0656555 1.42 1.21l6.4 1.42c.9142776.2039571 1.5658689 1.0132583 1.57 1.95v9.4c-.0032948 1.1032019-.8967981 1.9967052-2 2z" fill="#ff5364"/><path id="Shape" d="m59 40v2h-2c-.5522847 0-1-.4477153-1-1s.4477153-1 1-1z" fill="#f5efca"/><path id="Shape" d="m59 45v2h-2c-.5522847 0-1-.4477153-1-1s.4477153-1 1-1z" fill="#ff5364"/><path id="Shape" d="m32 32v5h-27v-5c.0032948-1.1032019.89679813-1.9967052 2-2h23c1.1032019.0032948 1.9967052.8967981 2 2z" fill="#2c3e50"/><path id="Shape" d="m44.483 37h-7.483c-.5522847 0-1-.4477153-1-1v-5c0-.5522847.4477153-1 1-1h5.341c.3999561.0000442.7614173.2383962.919.606l2.143 5c.1325088.3091119.1007618.6641294-.0844899.9448259-.1852516.2806966-.4991938.4494733-.8355101.4491741z" fill="#3b97d3"/><path id="Shape" d="m40 42h-2c-.5522847 0-1-.4477153-1-1s.4477153-1 1-1h2c.5522847 0 1 .4477153 1 1s-.4477153 1-1 1z" fill="#ecf0f1"/><path id="Shape" d="m9 38c-.55228475 0-1-.4477153-1-1v-2c0-.5522847.44771525-1 1-1s1 .4477153 1 1v2c0 .5522847-.44771525 1-1 1z" fill="#f0c419"/><path id="Shape" d="m13 38c-.5522847 0-1-.4477153-1-1v-2c0-.5522847.4477153-1 1-1s1 .4477153 1 1v2c0 .5522847-.4477153 1-1 1z" fill="#c03a2b"/><path id="Shape" d="m32 37v2c-.0032948 1.1032019-.8967981 1.9967052-2 2h-23c-1.10320187-.0032948-1.9967052-.8967981-2-2v-2z" fill="#f29c1f"/><path id="Shape" d="m45.48 36.01c-1.07-1.83-3.85-5.62-8.72-5.98.0784657-.0198114.159072-.0298872.24-.03h5.34c.4012802.000327.7635008.2404951.92.61l2.14 5c.0552245.1259964.0825163.2624554.08.4z" fill="#2980ba"/><circle id="Oval" cx="10" cy="51" fill="#2c3e50" r="5"/><circle id="Oval" cx="10" cy="51" fill="#f5efca" r="2"/><circle id="Oval" cx="50" cy="51" fill="#2c3e50" r="5"/><circle id="Oval" cx="50" cy="51" fill="#f5efca" r="2"/><path id="Shape" d="m52 22v3c0 .5522847-.4477153 1-1 1h-50v-3c.0032948-1.1032019.89679813-1.9967052 2-2h48c.5522847 0 1 .4477153 1 1z" fill="#bdc3c7"/></g></g></svg>