<svg height="512" viewBox="0 0 54 58" width="512" xmlns="http://www.w3.org/2000/svg"><g id="Page-1" fill="none" fill-rule="evenodd"><g id="007---Hot-Dog-Stand" fill-rule="nonzero"><path id="Rectangle-path" d="m11 24h14v5h-14z" fill="#7f8c8d"/><path id="Shape" d="m6 45v11c0 1.1045695-.8954305 2-2 2s-2-.8954305-2-2v-11z" fill="#56595e"/><path id="Shape" d="m5 29.87c-.55228475 0-1-.4477153-1-1v-15.87c0-.5522847.44771525-1 1-1s1 .4477153 1 1v15.87c0 .5522847-.44771525 1-1 1z" fill="#a56a43"/><path id="Shape" d="m49 29.87c-.5522847 0-1-.4477153-1-1v-15.87c0-.5522847.4477153-1 1-1s1 .4477153 1 1v15.87c0 .5522847-.4477153 1-1 1z" fill="#a56a43"/><path id="Shape" d="m46.6.8c-.3790439-.5020093-.9709662-.79797047-1.6-.8h-36c-.62903377.00202953-1.22095611.2979907-1.6.8l-5.4 7.2v2c-.00147026 1.8238506 1.23335796 3.416779 3 3.87.32573075.0893041.66226279.1330533 1 .13h2c2.209139 0 4-1.790861 4-4 0 2.209139 1.790861 4 4 4h2c2.209139 0 4-1.790861 4-4 0 2.209139 1.790861 4 4 4h2c2.209139 0 4-1.790861 4-4 0 2.209139 1.790861 4 4 4h2c2.209139 0 4-1.790861 4-4 0 2.209139 1.790861 4 4 4h2c.3377372.0030533.6742693-.0406959 1-.13 1.766642-.453221 3.0014703-2.0461494 3-3.87v-2z" fill="#f3d55b"/><path id="Shape" d="m13 22c-.2651948-.0000566-.5195073-.1054506-.707-.293-1.4929816-1.4958847-1.4929816-3.9181153 0-5.414.3923789-.3789722 1.0160848-.3735524 1.4018186.0121814s.3911536 1.0094397.0121814 1.4018186c-.7127696.7146565-.7127696 1.8713435 0 2.586.2859079.2859943.3714219.7160366.216678 1.0896546-.1547439.3736179-.5192821.6172591-.923678.6173454z" fill="#e57e25"/><path id="Shape" d="m18 22c-.2651948-.0000566-.5195073-.1054506-.707-.293-1.4929816-1.4958847-1.4929816-3.9181153 0-5.414.3923789-.3789722 1.0160848-.3735524 1.4018186.0121814s.3911536 1.0094397.0121814 1.4018186c-.7127696.7146565-.7127696 1.8713435 0 2.586.2859079.2859943.3714219.7160366.216678 1.0896546-.1547439.3736179-.5192821.6172591-.923678.6173454z" fill="#e57e25"/><path id="Shape" d="m23 22c-.2651948-.0000566-.5195073-.1054506-.707-.293-1.4929816-1.4958847-1.4929816-3.9181153 0-5.414.3923789-.3789722 1.0160848-.3735524 1.4018186.0121814s.3911536 1.0094397.0121814 1.4018186c-.7127696.7146565-.7127696 1.8713435 0 2.586.2859079.2859943.3714219.7160366.216678 1.0896546-.1547439.3736179-.5192821.6172591-.923678.6173454z" fill="#e57e25"/><path id="Shape" d="m33 21c-.5522847 0-1-.4477153-1-1v-2c0-.5522847.4477153-1 1-1s1 .4477153 1 1v2c0 .5522847-.4477153 1-1 1z" fill="#7f8c8d"/><path id="Shape" d="m42 21c-.5522847 0-1-.4477153-1-1v-2c0-.5522847.4477153-1 1-1s1 .4477153 1 1v2c0 .5522847-.4477153 1-1 1z" fill="#7f8c8d"/><path id="Shape" d="m26 47h-24v-15h50v13c-.0032948 1.1032019-.8967981 1.9967052-2 2z" fill="#7f8c8d"/><path id="Shape" d="m8 37h-1c-.55228475 0-1-.4477153-1-1s.44771525-1 1-1h1c.55228475 0 1 .4477153 1 1s-.44771525 1-1 1z" fill="#56595e"/><path id="Shape" d="m20 37h-8c-.5522847 0-1-.4477153-1-1s.4477153-1 1-1h8c.5522847 0 1 .4477153 1 1s-.4477153 1-1 1z" fill="#56595e"/><path id="Shape" d="m8 41h-1c-.55228475 0-1-.4477153-1-1s.44771525-1 1-1h1c.55228475 0 1 .4477153 1 1s-.44771525 1-1 1z" fill="#56595e"/><path id="Shape" d="m20 41h-8c-.5522847 0-1-.4477153-1-1s.4477153-1 1-1h8c.5522847 0 1 .4477153 1 1s-.4477153 1-1 1z" fill="#56595e"/><path id="Shape" d="m22 8v2c0 2.209139-1.790861 4-4 4h-2c-2.209139 0-4-1.790861-4-4v-2z" fill="#ff5364"/><path id="Shape" d="m42 8v2c0 2.209139-1.790861 4-4 4h-2c-2.209139 0-4-1.790861-4-4v-2z" fill="#ff5364"/><path id="Shape" d="m15 0-3 8h-10l5.4-7.2c.37904389-.5020093.97096623-.79797047 1.6-.8z" fill="#f0c419"/><path id="Shape" d="m23 0-1 8h-10l3-8z" fill="#df4d60"/><path id="Shape" d="m32 8h-10l1-8h8z" fill="#f0c419"/><path id="Shape" d="m42 8h-10l-1-8h8z" fill="#df4d60"/><path id="Shape" d="m52 8h-10l-3-8h6c.6290338.00202953 1.2209561.2979907 1.6.8z" fill="#f0c419"/><path id="Shape" d="m26 25h-16c-.55228475 0-1-.4477153-1-1s.44771525-1 1-1h16c.5522847 0 1 .4477153 1 1s-.4477153 1-1 1z" fill="#95a5a5"/><path id="Rectangle-path" d="m31 20h4v9h-4z" fill="#f0c419"/><path id="Shape" d="m35 21h-4c-.5522847 0-1-.4477153-1-1s.4477153-1 1-1h4c.5522847 0 1 .4477153 1 1s-.4477153 1-1 1z" fill="#95a5a5"/><path id="Rectangle-path" d="m40 20h4v9h-4z" fill="#e64c3c"/><path id="Shape" d="m44 21h-4c-.5522847 0-1-.4477153-1-1s.4477153-1 1-1h4c.5522847 0 1 .4477153 1 1s-.4477153 1-1 1z" fill="#95a5a5"/><path id="Shape" d="m54 30c-.0081672 1.1011688-.8988312 1.9918328-2 2h-50c-1.10320187-.0032948-1.9967052-.8967981-2-2 .00816722-1.1011688.89883122-1.9918328 2-2h50c1.1032019.0032948 1.9967052.8967981 2 2z" fill="#95a5a5"/><circle id="Oval" cx="37" cy="47" fill="#464f5d" r="11"/><circle id="Oval" cx="37" cy="47" fill="#ecf0f1" r="7"/><g fill="#7f8c8d"><path id="Shape" d="m37 46c-.5522847 0-1-.4477153-1-1v-1c0-.5522847.4477153-1 1-1s1 .4477153 1 1v1c0 .5522847-.4477153 1-1 1z"/><path id="Shape" d="m37 51c-.5522847 0-1-.4477153-1-1v-1c0-.5522847.4477153-1 1-1s1 .4477153 1 1v1c0 .5522847-.4477153 1-1 1z"/><path id="Shape" d="m35 48h-1c-.5522847 0-1-.4477153-1-1s.4477153-1 1-1h1c.5522847 0 1 .4477153 1 1s-.4477153 1-1 1z"/><path id="Shape" d="m40 48h-1c-.5522847 0-1-.4477153-1-1s.4477153-1 1-1h1c.5522847 0 1 .4477153 1 1s-.4477153 1-1 1z"/></g></g></g></svg>