<svg height="512" viewBox="0 0 58 58" width="512" xmlns="http://www.w3.org/2000/svg"><g id="Page-1" fill="none" fill-rule="evenodd"><g id="008---Hot-Dog-Stand" fill-rule="nonzero"><path id="Shape" d="m14.21.01c-.0696736-.00831737-.1398513-.01165917-.21-.01-.0336447-.00163868-.0673461.00173146-.1.01-.035982-.0100211-.074018-.0100211-.11 0-.12 0-.24.01-.36.02-7.07937851.27678735-12.83174948 5.80700431-13.387 12.87-.02517649.2813564.06862407.5603986.25864105.7694172.19001697.2090187.45888336.3289101.74135895.3305828h25.915c.2823753-.0019755.5510558-.1219572.7410066-.3309031s.2838589-.4878116.2589934-.7690969c-.566829-7.20200706-6.5244442-12.78781293-13.748-12.89z" fill="#f0c419"/><path id="Shape" d="m41.26 28 4.05-7.83c.6807619-1.3336816 2.0526229-2.1722558 3.55-2.17h7.14c1.1045695 0 2 .8954305 2 2s-.8954305 2-2 2h-7.14l-3.09 6-1.77 1z" fill="#7f8c8d"/><path id="Shape" d="m6 46v10c0 1.1045695-.8954305 2-2 2s-2-.8954305-2-2v-10z" fill="#56595e"/><path id="Shape" d="m14 25c-.5522847 0-1-.4477153-1-1v-10c0-.5522847.4477153-1 1-1s1 .4477153 1 1v10c0 .5522847-.4477153 1-1 1z" fill="#7f8c8d"/><path id="Shape" d="m13 24h2c.5522847 0 1 .4477153 1 1v4h-4v-4c0-.5522847.4477153-1 1-1z" fill="#bdc3c7"/><path id="Rectangle-path" d="m22 24h15v5h-15z" fill="#7f8c8d"/><path id="Shape" d="m26 47h-24v-16h50v14c-.0032948 1.1032019-.8967981 1.9967052-2 2z" fill="#7f8c8d"/><path id="Shape" d="m54 30c-.0081672 1.1011688-.8988312 1.9918328-2 2h-50c-1.10320187-.0032948-1.9967052-.8967981-2-2-.00282307-.5305905.2101411-1.0395388.59-1.41.3704612-.3798589.87940947-.5928231 1.41-.59h50c1.1032019.0032948 1.9967052.8967981 2 2z" fill="#95a5a5"/><path id="Shape" d="m8 37h-1c-.55228475 0-1-.4477153-1-1s.44771525-1 1-1h1c.55228475 0 1 .4477153 1 1s-.44771525 1-1 1z" fill="#56595e"/><path id="Shape" d="m20 37h-8c-.5522847 0-1-.4477153-1-1s.4477153-1 1-1h8c.5522847 0 1 .4477153 1 1s-.4477153 1-1 1z" fill="#56595e"/><path id="Shape" d="m8 41h-1c-.55228475 0-1-.4477153-1-1s.44771525-1 1-1h1c.55228475 0 1 .4477153 1 1s-.44771525 1-1 1z" fill="#56595e"/><path id="Shape" d="m20 41h-8c-.5522847 0-1-.4477153-1-1s.4477153-1 1-1h8c.5522847 0 1 .4477153 1 1s-.4477153 1-1 1z" fill="#56595e"/><path id="Shape" d="m23 14h-5c0-7.73-1.79-14-4-14 .0701487-.00165917.1403264.00168263.21.01 4.87.17 8.79 6.37 8.79 13.99z" fill="#ff5364"/><path id="Shape" d="m18 14h-8c0-7.61 1.74-13.81 3.9-13.99.0326539-.00826854.0663553-.01163868.1-.01.0369499-.00164352.0739522.00172033.11.01 2.16.2 3.89 6.39 3.89 13.99z" fill="#f3d55b"/><path id="Shape" d="m13.9.01c-2.16.18-3.9 6.38-3.9 13.99h-5c0-7.43 3.73-13.51 8.43-13.97.12-.01.24-.02.36-.02.035982-.0100211.074018-.0100211.11 0z" fill="#ff5364"/><path id="Shape" d="m38 25h-17c-.5522847 0-1-.4477153-1-1s.4477153-1 1-1h17c.5522847 0 1 .4477153 1 1s-.4477153 1-1 1z" fill="#95a5a5"/><path id="Shape" d="m24 22c-.2651948-.0000566-.5195073-.1054506-.707-.293-1.4929816-1.4958847-1.4929816-3.9181153 0-5.414.3923789-.3789722 1.0160848-.3735524 1.4018186.0121814s.3911536 1.0094397.0121814 1.4018186c-.7127696.7146565-.7127696 1.8713435 0 2.586.2859079.2859943.3714219.7160366.216678 1.0896546-.1547439.3736179-.5192821.6172591-.923678.6173454z" fill="#e57e25"/><path id="Shape" d="m29 22c-.2651948-.0000566-.5195073-.1054506-.707-.293-1.4929816-1.4958847-1.4929816-3.9181153 0-5.414.3923789-.3789722 1.0160848-.3735524 1.4018186.0121814s.3911536 1.0094397.0121814 1.4018186c-.7127696.7146565-.7127696 1.8713435 0 2.586.2859079.2859943.3714219.7160366.216678 1.0896546-.1547439.3736179-.5192821.6172591-.923678.6173454z" fill="#e57e25"/><path id="Shape" d="m34 22c-.2651948-.0000566-.5195073-.1054506-.707-.293-1.4929816-1.4958847-1.4929816-3.9181153 0-5.414.3923789-.3789722 1.0160848-.3735524 1.4018186.0121814s.3911536 1.0094397.0121814 1.4018186c-.7127696.7146565-.7127696 1.8713435 0 2.586.2859079.2859943.3714219.7160366.216678 1.0896546-.1547439.3736179-.5192821.6172591-.923678.6173454z" fill="#e57e25"/><path id="Shape" d="m37 36c-6.0751322 0-11 4.9248678-11 11s4.9248678 11 11 11 11-4.9248678 11-11c.0015929-2.9178694-1.1568209-5.716688-3.2200664-7.7799336-2.0632456-2.0632455-4.8620642-3.2216593-7.7799336-3.2200664zm0 18c-3.8659932 0-7-3.1340068-7-7s3.1340068-7 7-7 7 3.1340068 7 7c-.0044086 3.8641657-3.1358343 6.9955914-7 7z" fill="#464f5d"/><circle id="Oval" cx="37" cy="47" fill="#ecf0f1" r="7"/><g fill="#7f8c8d"><path id="Shape" d="m37 46c-.5522847 0-1-.4477153-1-1v-1c0-.5522847.4477153-1 1-1s1 .4477153 1 1v1c0 .5522847-.4477153 1-1 1z"/><path id="Shape" d="m37 51c-.5522847 0-1-.4477153-1-1v-1c0-.5522847.4477153-1 1-1s1 .4477153 1 1v1c0 .5522847-.4477153 1-1 1z"/><path id="Shape" d="m35 48h-1c-.5522847 0-1-.4477153-1-1s.4477153-1 1-1h1c.5522847 0 1 .4477153 1 1s-.4477153 1-1 1z"/><path id="Shape" d="m40 48h-1c-.5522847 0-1-.4477153-1-1s.4477153-1 1-1h1c.5522847 0 1 .4477153 1 1s-.4477153 1-1 1z"/></g></g></g></svg>