<svg height="512" viewBox="0 0 58 58" width="512" xmlns="http://www.w3.org/2000/svg"><g id="Page-1" fill="none" fill-rule="evenodd"><g id="009---Hot-Dog-Trailer" fill-rule="nonzero"><path id="Shape" d="m22.93 50c.0488792.331052.0722813.6653668.07 1 0 3.8659932-3.1340068 7-7 7s-7-3.1340068-7-7c-.00228128-.3346332.02112076-.668948.07-1l6.93-2z" fill="#464f5d"/><path id="Shape" d="m55 47c-.5522847 0-1-.4477153-1-1v-2c0-.5522847.4477153-1 1-1s1 .4477153 1 1v2c0 .5522847-.4477153 1-1 1z" fill="#7f8c8d"/><path id="Shape" d="m46 10v37h-42v-37h2c2.209139 0 4-1.790861 4-4 0 2.209139 1.790861 4 4 4h2c2.209139 0 4-1.790861 4-4 0 2.209139 1.790861 4 4 4h2c2.209139 0 4-1.790861 4-4 0 2.209139 1.790861 4 4 4h2c2.209139 0 4-1.790861 4-4 0 2.209139 1.790861 4 4 4z" fill="#f29c1f"/><path id="Shape" d="m58 48c-.0081672 1.1011688-.8988312 1.9918328-2 2h-52c-1.10320187-.0032948-1.9967052-.8967981-2-2 .00816722-1.1011688.89883122-1.9918328 2-2h52c1.1032019.0032948 1.9967052.8967981 2 2z" fill="#95a5a5"/><path id="Shape" d="m19 51c0 1.6568542-1.3431458 3-3 3s-3-1.3431458-3-3c-.0021256-.3415766.0588994-.6806042.18-1h5.64c.1211006.3193958.1821256.6584234.18 1z" fill="#f5efca"/><path id="Shape" d="m42 17v11c-.0032948-1.1032019-.8967981-1.9967052-2-2h-4v-2c-.0032948-1.1032019-.8967981-1.9967052-2-2h-2c-1.1032019.0032948-1.9967052.8967981-2 2v9h-4v-4c0-.5522847-.4477153-1-1-1h-16c-.55228475 0-1 .4477153-1 1v-12c0-.5522847.44771525-1 1-1h32c.5522847 0 1 .4477153 1 1z" fill="#2c3e50"/><path id="Shape" d="m42 28v5h-12v-7h10c1.1032019.0032948 1.9967052.8967981 2 2z" fill="#95a5a5"/><path id="Shape" d="m36 24v2h-6v-2c.0032948-1.1032019.8967981-1.9967052 2-2h2c1.1032019.0032948 1.9967052.8967981 2 2z" fill="#ff5364"/><path id="Shape" d="m26 29v4h-18v-4c0-.5522847.44771525-1 1-1h16c.5522847 0 1 .4477153 1 1z" fill="#95a5a5"/><g fill="#d25627"><path id="Shape" d="m10 38h-2c-.55228475 0-1-.4477153-1-1s.44771525-1 1-1h2c.5522847 0 1 .4477153 1 1s-.4477153 1-1 1z"/><path id="Shape" d="m23 38h-9c-.5522847 0-1-.4477153-1-1s.4477153-1 1-1h9c.5522847 0 1 .4477153 1 1s-.4477153 1-1 1z"/><path id="Shape" d="m10 42h-2c-.55228475 0-1-.4477153-1-1s.44771525-1 1-1h2c.5522847 0 1 .4477153 1 1s-.4477153 1-1 1z"/><path id="Shape" d="m23 42h-9c-.5522847 0-1-.4477153-1-1s.4477153-1 1-1h9c.5522847 0 1 .4477153 1 1s-.4477153 1-1 1z"/></g><path id="Shape" d="m43 34h-36c-.55228475 0-1-.4477153-1-1s.44771525-1 1-1h36c.5522847 0 1 .4477153 1 1s-.4477153 1-1 1z" fill="#f0c419"/><path id="Shape" d="m44.59.59c-.3761733-.37747734-.8870877-.58975868-1.42-.59h-36.34c-.53291225.00024132-1.04382666.21252266-1.42.59l-5.41 5.41v2c0 2.209139 1.790861 4 4 4h2c2.209139 0 4-1.790861 4-4 0 2.209139 1.790861 4 4 4h2c2.209139 0 4-1.790861 4-4 0 2.209139 1.790861 4 4 4h2c2.209139 0 4-1.790861 4-4 0 2.209139 1.790861 4 4 4h2c2.209139 0 4-1.790861 4-4 0 2.209139 1.790861 4 4 4h2c2.209139 0 4-1.790861 4-4v-2z" fill="#f3d55b"/><path id="Shape" d="m40 6v2c0 2.209139-1.790861 4-4 4h-2c-2.209139 0-4-1.790861-4-4v-2z" fill="#ff5364"/><path id="Shape" d="m20 6v2c0 2.209139-1.790861 4-4 4h-2c-2.209139 0-4-1.790861-4-4v-2z" fill="#ff5364"/><path id="Shape" d="m13 0-3 6h-10l5.41-5.41c.37617334-.37747734.88708775-.58975868 1.42-.59z" fill="#f0c419"/><path id="Shape" d="m21 0-1 6h-10l3-6z" fill="#df4d60"/><path id="Shape" d="m30 6h-10l1-6h8z" fill="#f0c419"/><path id="Shape" d="m40 6h-10l-1-6h8z" fill="#df4d60"/><path id="Shape" d="m50 6h-10l-3-6h6.17c.5329123.00024132 1.0438267.21252266 1.42.59z" fill="#f0c419"/></g></g></svg>