<svg height="512" viewBox="0 0 60 59" width="512" xmlns="http://www.w3.org/2000/svg"><g id="Page-1" fill="none" fill-rule="evenodd"><g id="010---Lolly-Van" fill-rule="nonzero"><path id="Shape" d="m59 59h-58c-.55228475 0-1-.4477153-1-1s.44771525-1 1-1h58c.5522847 0 1 .4477153 1 1s-.4477153 1-1 1z" fill="#7f8c8d"/><path id="Shape" d="m34 21c-.5522847 0-1-.4477153-1-1v-7c0-.5522847.4477153-1 1-1s1 .4477153 1 1v7c0 .5522847-.4477153 1-1 1z" fill="#bdc3c7"/><path id="Shape" d="m7 21c-.55228475 0-1-.4477153-1-1v-5.572c0-.5522847.44771525-1 1-1s1 .4477153 1 1v5.572c0 .5522847-.44771525 1-1 1z" fill="#bdc3c7"/><path id="Shape" d="m42 28v-7c-.0032948-1.1032019-.8967981-1.9967052-2-2h-37c-1.10320187.0032948-1.9967052.8967981-2 2v30c.0032948 1.1032019.89679813 1.9967052 2 2h2c0-2.7614237 2.23857625-5 5-5 2.7614237 0 5 2.2385763 5 5h22z" fill="#ff5364"/><path id="Shape" d="m33 28h-28l2.42-4.03c.36077964-.6005024 1.00945542-.9684647 1.71-.97h19.74c.7005446.0015353 1.3492204.3694976 1.71.97z" fill="#fb7b76"/><path id="Shape" d="m33 30v10h-28v-10c0 1.1045695.8954305 2 2 2s2-.8954305 2-2c0 1.1045695.8954305 2 2 2s2-.8954305 2-2c0 1.1045695.8954305 2 2 2s2-.8954305 2-2c0 1.1045695.8954305 2 2 2s2-.8954305 2-2c0 1.1045695.8954305 2 2 2s2-.8954305 2-2c0 1.1045695.8954305 2 2 2s2-.8954305 2-2c0 1.1045695.8954305 2 2 2s2-.8954305 2-2z" fill="#2c3e50"/><path id="Shape" d="m33 40v2c-.0032948 1.1032019-.8967981 1.9967052-2 2h-24c-1.10320187-.0032948-1.9967052-.8967981-2-2v-2z" fill="#f29c1f"/><path id="Shape" d="m53.55 38 .03.07c.2645742.5827133.792758 1.0030286 1.42 1.13l2.39.48c.9353078.1859544 1.609234 1.0063863 1.61 1.96v9.36c-.0032948 1.1032019-.8967981 1.9967052-2 2h-2c0-2.7614237-2.2385763-5-5-5s-5 2.2385763-5 5h-8v-23c.0032948-1.1032019.8967981-1.9967052 2-2h8.71c.7840573-.0021667 1.49646.4558064 1.82 1.17l1.29 2.83z" fill="#bdc3c7"/><path id="Shape" d="m53.55 38h-12.55v-5c0-.5522847.4477153-1 1-1h8.82z" fill="#3b97d3"/><path id="Shape" d="m52.84 36.43c-1.57-1.7-4.9-4.21-11.02-4.41.0593483-.011603.1195523-.0182924.18-.02h8.82z" fill="#2980ba"/><circle id="Oval" cx="10" cy="53" fill="#2c3e50" r="5"/><circle id="Oval" cx="10" cy="53" fill="#f5efca" r="2"/><circle id="Oval" cx="50" cy="53" fill="#2c3e50" r="5"/><circle id="Oval" cx="50" cy="53" fill="#f5efca" r="2"/><path id="Shape" d="m46 43h-2c-.5522847 0-1-.4477153-1-1s.4477153-1 1-1h2c.5522847 0 1 .4477153 1 1s-.4477153 1-1 1z" fill="#ecf0f1"/><path id="Shape" d="m9 28v2c0 1.1045695-.8954305 2-2 2s-2-.8954305-2-2v-2z" fill="#e64c3c"/><path id="Shape" d="m13 28v2c0 1.1045695-.8954305 2-2 2s-2-.8954305-2-2v-2z" fill="#fff"/><path id="Shape" d="m17 28v2c0 1.1045695-.8954305 2-2 2s-2-.8954305-2-2v-2z" fill="#e64c3c"/><path id="Shape" d="m21 28v2c0 1.1045695-.8954305 2-2 2s-2-.8954305-2-2v-2z" fill="#fff"/><path id="Shape" d="m25 28v2c0 1.1045695-.8954305 2-2 2s-2-.8954305-2-2v-2z" fill="#e64c3c"/><path id="Shape" d="m29 28v2c0 1.1045695-.8954305 2-2 2s-2-.8954305-2-2v-2z" fill="#fff"/><path id="Shape" d="m33 28v2c0 1.1045695-.8954305 2-2 2s-2-.8954305-2-2v-2z" fill="#e64c3c"/><g fill="#e57e25"><path id="Rectangle-path" d="m9 40h2v4h-2z"/><path id="Rectangle-path" d="m15 40h2v4h-2z"/><path id="Rectangle-path" d="m21 40h2v4h-2z"/><path id="Rectangle-path" d="m27 40h2v4h-2z"/></g><path id="Shape" d="m35.51 13.83c-3.0195616.672735-6.1215146-.723551-7.62-3.43-.3338618-.59012191-.5766038-1.22731975-.72-1.89-.6107762-2.76251269.5026943-5.6209323 2.8211978-7.24237163 2.3185035-1.62143932 5.3854459-1.6865805 7.7707054-.16504805s3.6190955 4.33009579 3.1261675 7.11605091c-.492928 2.78595517-2.6155452 5.00065047-5.3780707 5.61136877z" fill="#ff5364"/><path id="Shape" d="m36.929 7.352c-.4689083-.00018446-.8747158-.32616104-.976-.784-.2532251-1.06735433-1.3082542-1.74074891-2.383-1.521-.5190455.07796895-1.0100432-.25862025-1.1244881-.77086012-.114445-.51223988.1866138-1.02579087.6894881-1.17613988 1.0360813-.23125162 2.1216-.04051885 3.0167926.53007026.8951926.5705891 1.526401 1.47408552 1.7542074 2.51092974.0574781.25898856.0096895.53020294-.1328474.7539484-.142537.22374546-.3681397.38168347-.6271526.4390516-.0714776.01377151-.1442303.0198063-.217.018z" fill="#fff"/><path id="Shape" d="m27.89 10.4-20.8 4.6c-.51727963.1153891-1.05921692.0198821-1.50588756-.2653866-.44667065-.2852686-.76124534-.7367776-.87411244-1.2546134-.03142288-.1446117-.04817438-.292025-.05-.44.00671948-.9358207.65717452-1.7437108 1.57-1.95l20.79-4.6c-.0493648.6770459.0011767 1.35767104.15 2.02.1433962.66268025.3861382 1.29987809.72 1.89z" fill="#cf976a"/></g></g></svg>