<svg height="512" viewBox="0 0 60 59" width="512" xmlns="http://www.w3.org/2000/svg"><g id="Page-1" fill="none" fill-rule="evenodd"><g id="011---Soda-and-Meal" fill-rule="nonzero"><path id="Shape" d="m35.19 58h-23.2l-6-17h26.81z" fill="#f29c1f"/><path id="Shape" d="m32.8 41h-27.8c-.67048716-.0005463-1.29609284-.337029-1.66615377-.8961428s-.43533653-1.2664626-.17384623-1.8838572l6.06-14.38c.46294948-1.1152893 1.5524447-1.8416194 2.76-1.84l21.8-.0000027z" fill="#f0c419"/><path id="Shape" d="m46.99 0h-6l-1 4v4c-.2137693 3.531391-1.2698697 6.9602882-3.08 10-.4062371.6772411-.885792 1.3077049-1.43 1.88-.6318208.6518573-1.2009894 1.361644-1.7 2.12-.6295424.9391144-1.1527544 1.9452913-1.56 3-1.4953059 3.8200474-1.6399691 8.0364495-.41 11.95.4252236 1.3249281.7560517 2.6783157.99 4.05.2303946 1.3404492.3275349 2.700413.29 4.06-.0559188 1.9827806-.4272351 3.9440061-1.1 5.81l-.5 1.45c-.4781581 1.2526972-.3280567 2.6585585.4038043 3.7820641s1.9571163 1.8290025 3.2961957 1.8979359h17.59c1.3390794-.0689334 2.5643347-.7744303 3.2961957-1.8979359s.8819624-2.5293669.4038043-3.7820641l-.49-1.45c-.6785144-1.8647923-1.053282-3.8264136-1.11-5.81-.0338879-2.7561841.3988888-5.49823 1.28-8.11 1.2299691-3.9135505 1.0853059-8.1299526-.41-11.95-.7393483-1.904466-1.8471676-3.6443539-3.26-5.12-.5439235-.5737329-1.0203602-1.2078634-1.42-1.89-1.8144252-3.0341603-2.8709173-6.4608992-3.08-9.99v-4z" fill="#a56a43"/><path id="Shape" d="m51.07 17.99-.01.01h-14.15c1.8101303-3.0397118 2.8662307-6.468609 3.08-10v-4h8v4c.2090827 3.5291008 1.2655748 6.9558397 3.08 9.99z" fill="#67b9cc"/><path id="Shape" d="m56.16 36.95c-.8811112 2.61177-1.3138879 5.3538159-1.28 8.11h-21.79c.0375349-1.359587-.0596054-2.7195508-.29-4.06-.2339483-1.3716843-.5647764-2.7250719-.99-4.05-1.2299691-3.9135505-1.0853059-8.1299526.41-11.95h23.53c1.4953059 3.8200474 1.6399691 8.0364495.41 11.95z" fill="#e64c3c"/><path id="Shape" d="m48.99 2v1c0 .55228475-.4477153 1-1 1h-8c-.5522847 0-1-.44771525-1-1v-1c.0032948-1.10320187.8967981-1.9967052 2-2h6c.530433 0 1.0391408.21071368 1.4142136.58578644.3750727.37507276.5857864.88378058.5857864 1.41421356z" fill="#c03a2b"/><g fill="#cf976a"><circle id="Oval" cx="35.991" cy="53" r="1"/><circle id="Oval" cx="37.991" cy="49" r="1"/><circle id="Oval" cx="39.991" cy="53" r="1"/></g><circle id="Oval" cx="43.991" cy="35" fill="#c03a2b" r="6"/><path id="Shape" d="m28.991 47h-4c-.5522847 0-1-.4477153-1-1s.4477153-1 1-1h4c.5522847 0 1 .4477153 1 1s-.4477153 1-1 1z" fill="#e57e25"/><path id="Shape" d="m8.991 38h-1c-.55228475 0-1-.4477153-1-1s.44771525-1 1-1h1c.55228475 0 1 .4477153 1 1s-.44771525 1-1 1z" fill="#f5efca"/><path id="Shape" d="m27.991 38h-15c-.5522847 0-1-.4477153-1-1s.4477153-1 1-1h15c.5522847 0 1 .4477153 1 1s-.4477153 1-1 1z" fill="#f5efca"/><path id="Shape" d="m13 18c-.3669374-.0004154-.7041756-.2017612-.8786258-.5245775-.1744501-.3228163-.1580893-.7152472.0426258-1.0224225l.444-.687c.305-.474.607-.944.924-1.4.5327459-.7003093.679179-1.6209604.39-2.452-.1252964-.2697285-.2813305-.5240809-.465-.758-.3390716-.4267846-.604088-.907465-.784-1.422-.634-2.061.384-3.6 1.388-4.878l1.153-1.47c.3407597-.4346481.9693519-.51075969 1.404-.17s.5107597.9693519.17 1.404l-1.155 1.468c-.927 1.181-1.368 2.017-1.049 3.055.1226105.30520505.2912311.58983663.5.844.2832631.3661818.5185067.7671041.7 1.193.5407848 1.4499065.3128418 3.0748466-.606 4.32-.3.441-.595.893-.887 1.348l-.453.7c-.1850811.2825124-.5002604.4525137-.838.452z" fill="#e57e25"/><path id="Shape" d="m22 18c-.3669374-.0004154-.7041756-.2017612-.8786258-.5245775-.1744501-.3228163-.1580893-.7152472.0426258-1.0224225l.444-.687c.3-.474.607-.944.924-1.4.5327459-.7003093.679179-1.6209604.39-2.452-.1252964-.2697285-.2813305-.5240809-.465-.758-.3390716-.4267846-.604088-.907465-.784-1.422-.634-2.061.384-3.6 1.388-4.878l1.153-1.47c.2204329-.28116802.5741226-.42337845.9278377-.37306199.3537151.05031645.6537178.28551552.787.617.1332822.33148447.0795952.70889397-.1408377.99006199l-1.155 1.468c-.927 1.181-1.368 2.017-1.049 3.055.1226105.30520505.2912311.58983663.5.844.2832631.3661818.5185067.7671041.7 1.193.5407848 1.4499065.3128418 3.0748466-.606 4.32-.3.441-.595.893-.887 1.348l-.453.7c-.1850811.2825124-.5002604.4525137-.838.452z" fill="#e57e25"/><path id="Shape" d="m31 18c-.3669374-.0004154-.7041756-.2017612-.8786258-.5245775-.1744501-.3228163-.1580893-.7152472.0426258-1.0224225l.444-.687c.3-.474.607-.944.924-1.4.5327459-.7003093.679179-1.6209604.39-2.452-.1252964-.2697285-.2813305-.5240809-.465-.758-.3390716-.4267846-.604088-.907465-.784-1.422-.634-2.061.384-3.6 1.388-4.878l1.153-1.47c.3407597-.4346481.9693519-.51075969 1.404-.17s.5107597.9693519.17 1.404l-1.155 1.468c-.927 1.181-1.368 2.017-1.049 3.055.1226105.30520505.2912311.58983663.5.844.2832631.3661818.5185067.7671041.7 1.193.5407848 1.4499065.3128418 3.0748466-.606 4.32-.3.441-.595.893-.887 1.348l-.453.7c-.1850811.2825124-.5002604.4525137-.838.452z" fill="#e57e25"/><path id="Shape" d="m43.991 42c-3.8659932 0-7-3.1340068-7-7s3.1340068-7 7-7 7 3.1340068 7 7c-.0044086 3.8641657-3.1358343 6.9955914-7 7zm0-12c-2.7614237 0-5 2.2385763-5 5s2.2385763 5 5 5 5-2.2385763 5-5c-.0033061-2.7600532-2.2399468-4.9966939-5-5z" fill="#fff"/><path id="Shape" d="m4 59h-3c-.55228475 0-1-.4477153-1-1s.44771525-1 1-1h3c.55228475 0 1 .4477153 1 1s-.44771525 1-1 1z" fill="#d25627"/><path id="Shape" d="m59 59h-51c-.55228475 0-1-.4477153-1-1s.44771525-1 1-1h51c.5522847 0 1 .4477153 1 1s-.4477153 1-1 1z" fill="#d25627"/></g></g></svg>