<svg height="512" viewBox="0 0 60 59" width="512" xmlns="http://www.w3.org/2000/svg"><g id="Page-1" fill="none" fill-rule="evenodd"><g id="012---Soda-and-Burger" fill-rule="nonzero"><path id="Shape" d="m31.9 25.86c-3.3135375-1.9076654-7.0767177-2.8950686-10.9-2.86-9.94 0-18 6.27-18 14-.00189428.4043977.02148462.8085186.07 1.21.1074861 1.0180199.9663216 1.7905403 1.99 1.79h-.06v4h-1c-1.65685425 0-3 1.3431458-3 3s1.34314575 3 3 3v3c0 1.3260824.5267842 2.597852 1.46446609 3.5355339.9376819.9376819 2.20945146 1.4644661 3.53553391 1.4644661h26.19z" fill="#f29c1f"/><path id="Shape" d="m20 19c-.3669374-.0004154-.7041756-.2017612-.8786258-.5245775-.1744501-.3228163-.1580893-.7152472.0426258-1.0224225l.444-.687c.3-.474.607-.944.924-1.4.5327459-.7003093.679179-1.6209604.39-2.452-.1252964-.2697285-.2813305-.5240809-.465-.758-.3390716-.4267846-.604088-.907465-.784-1.422-.634-2.061.384-3.6 1.388-4.878l1.153-1.47c.2204329-.28116802.5741226-.42337845.9278377-.37306199.3537151.05031645.6537178.28551552.787.617.1332822.33148447.0795952.70889397-.1408377.99006199l-1.155 1.468c-.927 1.181-1.368 2.017-1.049 3.055.1226105.305205.2912311.5898366.5.844.2832631.3661818.5185067.7671041.7 1.193.5407848 1.4499065.3128418 3.0748466-.606 4.32-.3.441-.595.893-.887 1.348l-.453.7c-.1850811.2825124-.5002604.4525137-.838.452z" fill="#e57e25"/><path id="Shape" d="m29 19c-.3669374-.0004154-.7041756-.2017612-.8786258-.5245775-.1744501-.3228163-.1580893-.7152472.0426258-1.0224225l.444-.687c.3-.474.607-.944.924-1.4.5327459-.7003093.679179-1.6209604.39-2.452-.1252964-.2697285-.2813305-.5240809-.465-.758-.3390716-.4267846-.604088-.907465-.784-1.422-.634-2.061.384-3.6 1.388-4.878l1.153-1.47c.3407597-.4346481.9693519-.51075969 1.404-.17s.5107597.9693519.17 1.404l-1.155 1.468c-.927 1.181-1.368 2.017-1.049 3.055.1226105.305205.2912311.5898366.5.844.2832631.3661818.5185067.7671041.7 1.193.5407848 1.4499065.3128418 3.0748466-.606 4.32-.3.441-.595.893-.887 1.348l-.453.7c-.1850811.2825124-.5002604.4525137-.838.452z" fill="#e57e25"/><path id="Shape" d="m33.09 44h-10.09l-7.24 7.24c-.1945507.1968736-.4619976.304307-.7386774.2967267-.2766799-.0075803-.5378432-.1294961-.7213226-.3367267l-1.05-1.2-5.25-6h-3v-4h27.61c.2823026 1.3157963.4429794 2.6547699.48 4z" fill="#f0c419"/><path id="Shape" d="m33.09 44c.01.35.01.7 0 1.06-.0479326 1.6754742-.320361 3.3369514-.81 4.94h-15.28l6-6z" fill="#603e26"/><path id="Shape" d="m13.25 50h-9.25c-1.65685425 0-3-1.3431458-3-3s1.34314575-3 3-3h4z" fill="#603e26"/><g fill="#f9eab0"><circle id="Oval" cx="10" cy="31" r="1"/><circle id="Oval" cx="14" cy="28" r="1"/><circle id="Oval" cx="24" cy="27" r="1"/><circle id="Oval" cx="7" cy="36" r="1"/><circle id="Oval" cx="12" cy="35" r="1"/><circle id="Oval" cx="16" cy="32" r="1"/></g><path id="Shape" d="m19 28.051c-.3100269.0001145-.6025736-.1435732-.792-.389l-6.1-7.922c-.2202894-.2828012-.2723523-.6618823-.1364609-.9936013.1358913-.331719.4389457-.5653235.7943294-.6122957.3553837-.0469721.7087235.0998747.9261315.384897l6.1 7.922c.2323874.3018755.2730652.7095675.1049052 1.051408-.1681601.3418405-.5159423.5584391-.8969052.558592z" fill="#a59078"/><ellipse id="Oval" cx="10.761" cy="16.357" fill="#24ae5f" rx="5" ry="3.5" transform="matrix(.792 -.61 .61 .792 -7.746 9.967)"/><path id="Shape" d="m9.846 16.169c-.3101997-.0001245-.60277819-.1441973-.792-.39l-2.441-3.169c-.21793202-.2834902-.26806927-.6617114-.13152552-.9921912s.43902425-.5630105.79350001-.61c.35447577-.0469895.7070935.0987009.92502551.3821912l2.441 3.169c.2323874.3018755.2730652.7095675.1049052 1.051408-.1681601.3418405-.5159423.5584391-.8969052.558592z" fill="#a59078"/><path id="Shape" d="m46.99 0h-6l-1 4v4c-.2137693 3.531391-1.2698697 6.9602882-3.08 10-.4062371.6772411-.885792 1.3077049-1.43 1.88-1.4128324 1.4756461-2.5206517 3.215534-3.26 5.12-.12.28-.22.57-.32.86-1.1948204 3.5953313-1.2263117 7.4757506-.09 11.09.324817 1.0005187.5919231 2.018861.8 3.05.2823026 1.3157963.4429794 2.6547699.48 4 .01.35.01.7 0 1.06-.0479326 1.6754742-.320361 3.3369514-.81 4.94-.09.29-.19.58-.29.87l-.5 1.45c-.4781581 1.2526972-.3280567 2.6585585.4038043 3.7820641s1.9571163 1.8290025 3.2961957 1.8979359h17.59c1.3390794-.0689334 2.5643347-.7744303 3.2961957-1.8979359s.8819624-2.5293669.4038043-3.7820641l-.49-1.45c-.6785144-1.8647923-1.053282-3.8264136-1.11-5.81-.0338879-2.7561841.3988888-5.49823 1.28-8.11 1.2299691-3.9135505 1.0853059-8.1299526-.41-11.95-.7393483-1.904466-1.8471676-3.6443539-3.26-5.12-.5439235-.5737329-1.0203602-1.2078634-1.42-1.89-1.8144252-3.0341603-2.8709173-6.4608992-3.08-9.99v-4z" fill="#a56a43"/><path id="Shape" d="m56.16 36.95c-.8811112 2.61177-1.3138879 5.3538159-1.28 8.11h-21.79c.01-.36.01-.71 0-1.06-.0370206-1.3452301-.1976974-2.6842037-.48-4-.2080769-1.031139-.475183-2.0494813-.8-3.05-1.1363117-3.6142494-1.1048204-7.4946687.09-11.09.1-.29.2-.58.32-.86h23.53c1.4953059 3.8200474 1.6399691 8.0364495.41 11.95z" fill="#e64c3c"/><path id="Shape" d="m51.07 17.99-.01.01h-14.15c1.8101303-3.0397118 2.8662307-6.468609 3.08-10v-4h8v4c.2090827 3.5291008 1.2655748 6.9558397 3.08 9.99z" fill="#67b9cc"/><path id="Shape" d="m48.99 2v1c0 .55228475-.4477153 1-1 1h-8c-.5522847 0-1-.44771525-1-1v-1c.0032948-1.10320187.8967981-1.9967052 2-2h6c.530433 0 1.0391408.21071368 1.4142136.58578644.3750727.37507276.5857864.88378058.5857864 1.41421356z" fill="#c03a2b"/><circle id="Oval" cx="35.991" cy="53" fill="#cf976a" r="1"/><circle id="Oval" cx="37.991" cy="49" fill="#cf976a" r="1"/><circle id="Oval" cx="39.991" cy="53" fill="#cf976a" r="1"/><circle id="Oval" cx="43.991" cy="35" fill="#c03a2b" r="6"/><path id="Shape" d="m43.991 42c-3.8659932 0-7-3.1340068-7-7s3.1340068-7 7-7 7 3.1340068 7 7c-.0044086 3.8641657-3.1358343 6.9955914-7 7zm0-12c-2.7614237 0-5 2.2385763-5 5s2.2385763 5 5 5 5-2.2385763 5-5c-.0033061-2.7600532-2.2399468-4.9966939-5-5z" fill="#fff"/><path id="Shape" d="m59 59h-58c-.55228475 0-1-.4477153-1-1s.44771525-1 1-1h58c.5522847 0 1 .4477153 1 1s-.4477153 1-1 1z" fill="#d25627"/></g></g></svg>