<svg height="512" viewBox="0 0 58 58" width="512" xmlns="http://www.w3.org/2000/svg"><g id="Page-1" fill="none" fill-rule="evenodd"><g id="013---Sauce" fill-rule="nonzero" transform="translate(-1)"><path id="Shape" d="m58.51 3.51-2.07 2.39-1.31 1.52-4.62 5.32.01.01c1.1698135 1.1712702 1.1698135 3.0687298 0 4.24l-2.13 2.14c.3744562.3736892.5848881.8809811.5848881 1.41s-.2104319 1.0363108-.5848881 1.41l-1.42 1.43c.3755541.3751365.5865733.8841815.5865733 1.415s-.2110192 1.0398635-.5865733 1.415l-2.13 2.13-29.07 29.08c-.3751365.3755541-.8841815.5865733-1.415.5865733s-1.0398635-.2110192-1.415-.5865733l-11.36-11.36c-.37555409-.3751365-.58657331-.8841815-.58657331-1.415s.21101922-1.0398635.58657331-1.415l29.08-29.07 2.13-2.13c.3751365-.3755541.8841815-.5865733 1.415-.5865733s1.0398635.2110192 1.415.5865733l1.43-1.42c.3736892-.3744562.8809811-.5848881 1.41-.5848881s1.0363108.2104319 1.41.5848881l.01.01v-.01l2.13-2.13c1.1712702-1.16981351 3.0687298-1.16981351 4.24 0l.01.01 5.32-4.62 1.52-1.31 2.39-2.07c.7945665-.69015597 1.988056-.64643841 2.73.1l.19.19c.7464384.74194401.790156 1.93543349.1 2.73z" fill="#e64c3c"/><path id="Shape" d="m46.97 26.21-2.13 2.13-2.13-2.13-1.41-1.41-1.43-1.43-1.41-1.41-1.42-1.42-6.38-6.38 2.13-2.13c.3751365-.3755541.8841815-.5865733 1.415-.5865733s1.0398635.2110192 1.415.5865733l10.64 10.64.71.71c.3755541.3751365.5865733.8841815.5865733 1.415s-.2110192 1.0398635-.5865733 1.415z" fill="#f29c1f"/><path id="Shape" d="m50.52 16.99-2.13 2.13-8.51-8.5v-.01l2.13-2.13c1.1712702-1.16981351 3.0687298-1.16981351 4.24 0l4.27 4.27c1.1698135 1.1712702 1.1698135 3.0687298 0 4.24z" fill="#c03a2b"/><g fill="#e57e25"><path id="Shape" d="m37.75 14.16-3.55 3.54-1.41-1.41 3.54-3.55z"/><path id="Shape" d="m40.59 17-3.55 3.54-1.41-1.41v-.01l3.54-3.54z"/><path id="Shape" d="m43.42 19.83-3.54 3.54h-.01l-1.41-1.41 3.55-3.54z"/><path id="Shape" d="m46.26 22.67-3.55 3.54-1.41-1.41 3.54-3.55z"/></g><path id="Shape" d="m48.39 21.95-1.42 1.43-11.35-11.35 1.43-1.42c.3736892-.3744562.8809811-.5848881 1.41-.5848881s1.0363108.2104319 1.41.5848881l8.52 8.52c.3744562.3736892.5848881.8809811.5848881 1.41s-.2104319 1.0363108-.5848881 1.41z" fill="#d25627"/><path id="Shape" d="m56.44 5.9-1.31 1.52-3.55-3.55 1.52-1.31z" fill="#c03a2b"/><path id="Shape" d="m31.369 21.54c-.2651948-.0000566-.5195073-.1054506-.707-.293l-.709-.709c-.3789722-.3923789-.3735524-1.0160848.0121814-1.4018186s1.0094397-.3911536 1.4018186-.0121814l.709.709c.2859079.2859943.3714219.7160366.216678 1.0896546-.1547439.3736179-.5192821.6172591-.923678.6173454z" fill="#fb7b76"/><path id="Shape" d="m39.169 29.34c-.2651948-.0000566-.5195073-.1054506-.707-.293l-4.962-4.964c-.3789722-.3923789-.3735524-1.0160848.0121814-1.4018186s1.0094397-.3911536 1.4018186-.0121814l4.963 4.964c.2859079.2859943.3714219.7160366.216678 1.0896546-.1547439.3736179-.5192821.6172591-.923678.6173454z" fill="#fb7b76"/><path id="Shape" d="m6.551 46.358c-.26519481-.0000566-.51950727-.1054506-.707-.293l-.709-.709c-.25276541-.2525868-.35157685-.6208353-.25921299-.96603.09236386-.3451946.36187074-.6148921.70700001-.7075s.71344758.0059432.96621298.25853l.709.709c.28662387.2859.3725934.7164072.21775857 1.0904636s-.51992289.6178554-.92475857.6175364z" fill="#fb7b76"/><path id="Shape" d="m14.351 54.158c-.2653486.0007185-.5199469-.1047939-.707-.293l-4.963-4.965c-.39018915-.391846-.38884599-1.0258108.00300003-1.416.39184602-.3901891 1.02581079-.388846 1.41599997.003l4.963 4.964c.2859079.2859943.3714219.7160366.216678 1.0896546-.1547439.3736179-.5192821.6172591-.923678.6173454z" fill="#fb7b76"/><ellipse id="Oval" cx="22.86" cy="36.14" fill="#c03a2b" rx="9.025" ry="6.017" transform="matrix(.707 -.707 .707 .707 -18.86 26.75)"/><path id="Shape" d="m19.889 44.813c-1.5301887.0494037-3.0153645-.5218733-4.118-1.584-1.4275361-1.5591439-1.9603751-3.7391456-1.413-5.781.5460356-2.3894414 1.7761179-4.5681466 3.54-6.27 3.976-3.974 9.269-4.909 12.051-2.127s1.851 8.075-2.127 12.049c-1.7018534 1.7638821-3.8805586 2.9939644-6.27 3.54-.5473462.1118844-1.1043445.1698283-1.663.173zm5.944-15.336c-2.4897179.1750308-4.8202625 1.2883027-6.521 3.115-1.4852503 1.4220952-2.5248066 3.2454882-2.992 5.248-.4024107 1.3858634-.0765468 2.881225.866 3.974 1.0922661.9435656 2.5881755 1.2695489 3.974.866 2.0025118-.4671934 3.8259048-1.5067497 5.248-2.992 3.075-3.077 4.05-7.3 2.127-9.223-.7316543-.6784761-1.7052617-1.0344806-2.702-.988z" fill="#f29c1f"/></g></g></svg>