<svg height="512" viewBox="0 0 58 58" width="512" xmlns="http://www.w3.org/2000/svg"><g id="Page-1" fill="none" fill-rule="evenodd"><g id="015---Kebab" fill-rule="nonzero" transform="translate(0 -1)"><path id="Shape" d="m8.56 53.3-2.85 2.85-5.71 2.85 2.85-5.7 2.86-2.85z" fill="#95a5a5"/><path id="Shape" d="m55.64 14.78c-.792939.7678509-2.0555381.7565984-2.8346658-.0252631-.7791277-.7818614-.7859578-2.0444922-.0153342-2.8347369 1.4538602-1.4567846 1.5805543-3.77353029.294221-5.38016577-1.2863334-1.60663548-3.5746826-1.98980575-5.314221-.88983423-.9511597.61515237-1.6061008 1.59575483-1.81 2.71-.1942326 1.09608646.069639 2.2238665.73 3.12.9029192 1.2011649.7879672 2.8828704-.27 3.95l-2.91 2.91-2.85-2.85 2.32-2.32c-.9701022-1.6585452-1.3208743-3.607279-.99-5.5.4665383-2.66132266 2.2345898-4.91229051 4.7096377-5.99600362 2.475048-1.0837131 5.3283103-.85621246 7.6003623.60600362 2.0522493 1.32255996 3.3963345 3.50225458 3.6565716 5.92983953.2602371 2.42758497-.5912899 4.84264917-2.3165716 6.57016047z" fill="#95a5a5"/><path id="Shape" d="m47.09 24.75-.73.74h-.01l-2.85 2.85c-.3732815.3790282-.8830212.5924538-1.415.5924538s-1.0417185-.2134256-1.415-.5924538l-5.01-5-5-5.01c-.3744562-.3736892-.5848881-.8809811-.5848881-1.41s.2104319-1.0363108.5848881-1.41l1.44-1.45h.01l1.41-1.41.73-.74c.3751365-.3755541.8841815-.5865733 1.415-.5865733s1.0398635.2110192 1.415.5865733l3.58 3.58 2.85 2.85 3.58 3.58c.3755541.3751365.5865733.8841815.5865733 1.415s-.2110192 1.0398635-.5865733 1.415z" fill="#f0c419"/><path id="Shape" d="m46.35 25.49-1.41 1.41-.71-.71c-.3899779-.3930079-.3899779-1.0269921 0-1.42.3900375-.3877236 1.0199625-.3877236 1.41 0z" fill="#f29c1f"/><path id="Shape" d="m34.23 14.77c-.1843911.191781-.4389549.3001659-.705.3001659s-.5206089-.1083849-.705-.3001659l-.71-.71 1.41-1.41.71.71c.3877236.3900375.3877236 1.0199625 0 1.41z" fill="#f29c1f"/><path id="Shape" d="m19.27 52.57-1.44 1.45h-.01l-1.41 1.41-1.44 1.45c-.3751365.3755541-.8841815.5865733-1.415.5865733s-1.0398635-.2110192-1.415-.5865733l-10.01-10.01c-.37555409-.3751365-.58657331-.8841815-.58657331-1.415s.21101922-1.0398635.58657331-1.415l1.44-1.45 1.42-1.41 1.44-1.45c.37513651-.3755541.8841815-.5865733 1.415-.5865733s1.03986349.2110192 1.415.5865733l10.01 10.01c.3755541.3751365.5865733.8841815.5865733 1.415s-.2110192 1.0398635-.5865733 1.415z" fill="#f0c419"/><path id="Shape" d="m17.82 54.02-1.41 1.41-.71-.71c-.3899779-.3930079-.3899779-1.0269921 0-1.42.3900375-.3877236 1.0199625-.3877236 1.41 0z" fill="#f29c1f"/><path id="Shape" d="m5.7 43.31c-.190164.1849909-.44470227.2889572-.71.29-.26233988-.0011046-.51373936-.1052558-.7-.29l-.72-.72 1.42-1.41.71.71c.38997787.3930079.38997787 1.0269921 0 1.42z" fill="#f29c1f"/><path id="Shape" d="m36.02 32.97c-2.760281 2.555474-7.0682201 2.3944295-9.63-.36-2.7544295-2.5617799-2.915474-6.869719-.36-9.63 2.760281-2.555474 7.0682201-2.3944295 9.63.36 2.7544295 2.5617799 2.915474 6.869719.36 9.63z" fill="#e64c3c"/><path id="Shape" d="m23.89 45.09c-1.3212709 1.2309953-3.0779317 1.8858731-4.882591 1.820215s-3.5090865-.846459-4.737409-2.170215c-2.7544295-2.5617799-2.915474-6.869719-.36-9.63 2.760281-2.555474 7.0682201-2.3944295 9.63.36 1.323756 1.2283225 2.1045569 2.9327497 2.170215 4.737409s-.5892197 3.5613201-1.820215 4.882591z" fill="#e64c3c"/><path id="Shape" d="m31.97 39.03c.0021734.8160136-.4880244 1.5527761-1.2415294 1.8660063-.7535049.3132302-1.6215356.1410802-2.1984706-.4360063l-4.99-4.99-4.99-5c-.7870057-.7870058-.7870057-2.0629942.0000001-2.8499999.7870057-.7870058 2.0629941-.7870058 2.8499999-.0000001l4.99 4.99 4.99 5c.3805176.3741282.5933531.8863762.59 1.42z" fill="#4fba6f"/><g fill="#fb7b76"><circle id="Oval" cx="30.671" cy="25.48" r="2.52"/><circle id="Oval" cx="21.398" cy="40.458" r="2.542"/></g></g></g></svg>