<svg height="512" viewBox="0 0 60 59" width="512" xmlns="http://www.w3.org/2000/svg"><g id="Page-1" fill="none" fill-rule="evenodd"><g id="016---Soda" fill-rule="nonzero"><path id="Shape" d="m25.01 5v7h-4v-6c-.0032948-1.10320187-.8967981-1.9967052-2-2h-8c-1.1045695 0-2-.8954305-2-2s.8954305-2 2-2h9c2.7614237 0 5 2.23857625 5 5z" fill="#84b5cb"/><path id="Shape" d="m33.947 58.0000009-20.277-.0000009c-2.6228862.0015615-4.80115263-2.0239207-4.99-4.64l-.31-4.36h22.937c-.1546379.6335687-.344941 1.2578965-.57 1.87l-.49 1.45c-.4781581 1.2526972-.3280567 2.6585585.4038043 3.7820641s1.9571163 1.8290025 3.2961957 1.8979368z" fill="#3b97d3"/><path id="Shape" d="m36.8 16c-.3167486.6854228-.6706064 1.353079-1.06 2-.4062371.6772411-.885792 1.3077049-1.43 1.88-.9040498.9337247-1.6807708 1.9828024-2.31 3.12h-25.49l-.5-7z" fill="#3b97d3"/><path id="Shape" d="m38.66 11c-.3761469 1.7203545-.9325532 3.396277-1.66 5h-30.99c-1.10320187-.0032948-1.9967052-.8967981-2-2v-1c.0032948-1.1032019.89679813-1.9967052 2-2z" fill="#bdc3c7"/><path id="Shape" d="m31.4 39.81c.3890856 1.7218738.5637444 3.4852554.52 5.25-.0378065 1.3289295-.2188538 2.6499038-.54 3.94h-23.01l-1.86-26h25.49c-.3666984.6417301-.6842731 1.3103084-.95 2-.5600675 1.4085988-.9332409 2.8844827-1.11 4.39-.3075086 2.5410976-.0688542 5.1185657.7 7.56.3.96.56 1.92.76 2.86z" fill="#ecf0f1"/><g fill="#84b5cb"><circle id="Oval" cx="14.009" cy="30" r="3"/><path id="Shape" d="m30.58 39.81c-1.0279658.7761684-2.2819264 1.1941552-3.57 1.19-3.3137085 0-6-2.6862915-6-6s2.6862915-6 6-6c.7216165-.0040249 1.4374995.1282947 2.11.39-.3075086 2.5410976-.0688542 5.1185657.7 7.56.3.96.56 1.92.76 2.86z"/><circle id="Oval" cx="17.009" cy="42" r="2"/></g><path id="Shape" d="m45 0h-6l-1 4v4c-.018399 1.0095901-.1390146 2.0147203-.36 3-.3761469 1.7203545-.9325532 3.396277-1.66 5-.3167486.6854228-.6706064 1.353079-1.06 2-.4062371.6772411-.885792 1.3077049-1.43 1.88-1.4082972 1.4791995-2.5155132 3.2181399-3.26 5.12-.5600675 1.4085988-.9332409 2.8844827-1.11 4.39-.3075086 2.5410976-.0688542 5.1185657.7 7.56.3.96.56 1.92.76 2.86.3890856 1.7218738.5637444 3.4852554.52 5.25-.0378065 1.3289295-.2188538 2.6499038-.54 3.94-.1546379.6335687-.344941 1.2578965-.57 1.87l-.49 1.45c-.4781581 1.2526972-.3280567 2.6585585.4038043 3.7820641s1.9571163 1.8290025 3.2961957 1.8979359h17.59c1.3390794-.0689334 2.5643347-.7744303 3.2961957-1.8979359s.8819624-2.5293669.4038043-3.7820641l-.5-1.45c-.6727649-1.8659939-1.0440812-3.8272194-1.1-5.81-.0338879-2.7561841.3988888-5.49823 1.28-8.11 1.2299691-3.9135505 1.0853059-8.1299526-.41-11.95-.7393483-1.904466-1.8471676-3.6443539-3.26-5.12-.544208-.5722951-1.0237629-1.2027589-1.43-1.88-1.807337-3.0402919-2.860046-6.4693115-3.07-10v-4z" fill="#a56a43"/><path id="Shape" d="m49.07 18h-14.15c.3893936-.646921.7432514-1.3145772 1.06-2 .7274468-1.603723 1.2838531-3.2796455 1.66-5 .2209854-.9852797.341601-1.9904099.36-3v-4h8v4c.209954 3.5306885 1.262663 6.9597081 3.07 10z" fill="#67b9cc"/><path id="Shape" d="m54.17 36.95c-.8811112 2.61177-1.3138879 5.3538159-1.28 8.11h-21.79c.0437444-1.7647446-.1309144-3.5281262-.52-5.25-.2-.94-.46-1.9-.76-2.86-.7688542-2.4414343-1.0075086-5.0189024-.7-7.56.1767591-1.5055173.5499325-2.9814012 1.11-4.39h23.53c1.4953059 3.8200474 1.6399691 8.0364495.41 11.95z" fill="#e64c3c"/><path id="Shape" d="m47 2v1c0 .55228475-.4477153 1-1 1h-8c-.5522847 0-1-.44771525-1-1v-1c.0032948-1.10320187.8967981-1.9967052 2-2h6c1.1032019.0032948 1.9967052.89679813 2 2z" fill="#c03a2b"/><circle id="Oval" cx="34" cy="53" fill="#cf976a" r="1"/><circle id="Oval" cx="36" cy="49" fill="#cf976a" r="1"/><circle id="Oval" cx="38" cy="53" fill="#cf976a" r="1"/><circle id="Oval" cx="42" cy="35" fill="#c03a2b" r="6"/><path id="Shape" d="m42 42c-3.8659932 0-7-3.1340068-7-7s3.1340068-7 7-7 7 3.1340068 7 7c-.0044086 3.8641657-3.1358343 6.9955914-7 7zm0-12c-2.7614237 0-5 2.2385763-5 5s2.2385763 5 5 5 5-2.2385763 5-5c-.0033061-2.7600532-2.2399468-4.9966939-5-5z" fill="#fff"/><path id="Shape" d="m59 59h-58c-.55228475 0-1-.4477153-1-1s.44771525-1 1-1h58c.5522847 0 1 .4477153 1 1s-.4477153 1-1 1z" fill="#d25627"/></g></g></svg>