<svg height="512" viewBox="0 0 58 57" width="512" xmlns="http://www.w3.org/2000/svg"><g id="Page-1" fill="none" fill-rule="evenodd"><g id="018---Chicken" fill-rule="nonzero"><path id="Shape" d="m13 15.38v-9.38c-1.6568542 0-3-1.34314575-3-3s1.3431458-3 3-3 3 1.34314575 3 3c0-1.65685425 1.3431458-3 3-3s3 1.34314575 3 3-1.3431458 3-3 3v9.37z" fill="#f9eab0"/><path id="Shape" d="m30.29 40.31-1.29 8.79-4.48 5.44c-2.7880588 1.7636397-6.0556727 2.6163646-9.35 2.44-5.83377514-.3096327-11.03619132-3.7711149-13.575291-9.0324624-2.53909967-5.2613475-2.01205121-11.4878404 1.375291-16.2475376.79764025-1.1474467 1.16906392-2.5376324 1.05-3.93-.01-.25-.02-.51-.02-.77.00360187-3.5315975 1.56049758-6.882827 4.25705649-9.1633454s6.25975971-3.2594276 9.74294351-2.6766546c.34.06.67.13 1 .21 3.1789764.8292531 5.8789447 2.925614 7.47 5.8.02.11.05.23.08.34z" fill="#e57e25"/><path id="Shape" d="m35.91 42.41-3.25 8.78c1.552098.5777733 2.3423904 2.3039772 1.7655513 3.8564226-.576839 1.5524454-2.3025669 2.3437766-3.8553593 1.767872-1.5527923-.5759046-2.345162-2.301156-1.770192-3.8542946-.5811836 1.5509204-2.3055284 2.3416173-3.86 1.77-.1434664-.0553734-.2836898-.1188078-.42-.19-1.4085077-.7452446-1.9886086-2.4616372-1.3210026-3.90856.6676059-1.4469229 2.3499402-2.1194346 3.8310026-1.53144l3.26-8.79z" fill="#f9eab0"/><path id="Shape" d="m30.29 40.31-.71 1.92c-.1490964-.0804778-.2927396-.1706723-.43-.27-5.2545185-3.6396097-7.3742775-10.377562-5.15-16.37.11-.28.22-.55.33-.82.4103356-.8523956.5128091-1.8205928.29-2.74-.04-.13-.07-.28-.1-.43-.2878165-1.1532215-.4586798-2.3325134-.51-3.52.9814058.8904717 1.8121556 1.9339745 2.46 3.09.02.11.05.23.08.34.3468019 1.3565444.2125078 2.7913712-.38 4.06-.1.23-.2.47-.29.71-1.9037616 5.1350701-.0893078 10.907584 4.41 14.03z" fill="#d25627"/><path id="Shape" d="m8.063 27c-.04180341.0002923-.08357491-.0023811-.125-.008-.263259-.032949-.50263385-.1691646-.66542931-.3786606-.16279547-.209496-.23566621-.4750988-.20257069-.7383394.27977968-2.230946 1.38592598-4.2758894 3.1-5.731 1.6214311-1.3939359 3.6917839-2.1553143 5.83-2.144.5522847 0 1 .4477153 1 1s-.4477153 1-1 1c-1.661925-.0078154-3.2708317.5844725-4.531 1.668-1.3333183 1.1315804-2.19307256 2.7226075-2.409 4.458-.06368255.5014389-.49153964.8765113-.997.874z" fill="#fff"/><g fill="#f5efca"><circle id="Oval" cx="5" cy="37" r="1"/><circle id="Oval" cx="8" cy="41" r="1"/><circle id="Oval" cx="5" cy="45" r="1"/><circle id="Oval" cx="9" cy="47" r="1"/><circle id="Oval" cx="11" cy="51" r="1"/><circle id="Oval" cx="13" cy="40" r="1"/><circle id="Oval" cx="15" cy="49" r="1"/><circle id="Oval" cx="14" cy="45" r="1"/><circle id="Oval" cx="10" cy="35" r="1"/><circle id="Oval" cx="8" cy="30" r="1"/><circle id="Oval" cx="14" cy="32" r="1"/><circle id="Oval" cx="16" cy="36" r="1"/></g><path id="Shape" d="m57 22.88c-1.1606882 3.1478854-3.2848131 5.8494083-6.07 7.72-1.1060297.7611428-1.9094819 1.8866838-2.27 3.18-.05.17-.1.35-.16.52-1.8213692 5.2855071-7.0243779 8.6370878-12.59 8.11-.34-.04-.68-.09-1.01-.16-1.6540444-.3217188-3.2236196-.9822342-4.61-1.94-4.4993078-3.122416-6.3137616-8.8949299-4.41-14.03.09-.24.19-.48.29-.71.5925078-1.2686288.7268019-2.7034556.38-4.06-.03-.11-.06-.23-.08-.34-.8854297-3.5231386-.535997-7.2433616.99-10.54 3.5832417-7.83169688 12.7228634-11.42185632 20.6784265-8.12274841 7.955563 3.29910791 11.8722745 12.30362351 8.8615735 20.37274841z" fill="#f29c1f"/><path id="Shape" d="m45.563 6.868c-.1018885-.00029134-.2031071-.01648631-.3-.048-1.3191884-.41858782-2.7088212-.56887353-4.087-.442-.544804.03963995-1.0206125-.36522838-1.0686877-.90935289-.0480753-.54412452.3493733-1.02614808.8926877-1.08264711 1.6430337-.15107416 3.299681.028804 4.872.529.4693911.1492177.7602318.6180052.6854502 1.10483337s-.4929141.84671042-.9854502.84816663z" fill="#fff"/><path id="Shape" d="m31.092 13.293c-.3407385-.0001523-.6579497-.1737938-.841695-.460744-.1837452-.2869502-.2087338-.6477131-.066305-.957256 1.1842311-2.54103535 3.1613049-4.62899933 5.634-5.95.486839-.26123066 1.0932693-.07833898 1.3545.40850002.2612306.48683899.078339 1.09326928-.4085 1.35449998-2.0903245 1.11342317-3.7622665 2.8759111-4.764 5.022-.1628562.3549671-.5174572.5826459-.908.583z" fill="#fff"/><circle id="Oval" cx="30.29" cy="17.253" fill="#f5efca" r="1"/><circle id="Oval" cx="34.493" cy="14.543" fill="#f5efca" r="1"/><circle id="Oval" cx="38.104" cy="10.549" fill="#f5efca" r="1"/><circle id="Oval" cx="38.834" cy="17.217" fill="#f5efca" r="1"/><circle id="Oval" cx="43.835" cy="9.472" fill="#f5efca" r="1"/><circle id="Oval" cx="43.036" cy="14.508" fill="#f5efca" r="1"/><circle id="Oval" cx="35.57" cy="20.274" fill="#f5efca" r="1"/><circle id="Oval" cx="31.611" cy="25.206" fill="#f5efca" r="1"/><circle id="Oval" cx="36.994" cy="25.067" fill="#f5efca" r="1"/><circle id="Oval" cx="40.259" cy="22.01" fill="#f5efca" r="1"/></g></g></svg>