<svg height="512" viewBox="0 0 58 58" width="512" xmlns="http://www.w3.org/2000/svg"><g id="Page-1" fill="none" fill-rule="evenodd"><g id="019---Sushi" fill-rule="nonzero"><path id="Shape" d="m47 36.084v4.63c-.004356 2.5350706-1.5277661 4.8205798-3.866 5.8l-5.489.486h-28.359c-3.47051922-.0027572-6.28324277-2.8154808-6.286-6.286v-31.428c.00275723-3.47051922 2.81548078-6.28324277 6.286-6.286h31.428c3.4705192.00275723 6.2832428 2.81548078 6.286 6.286v26.8z" fill="#d1d4d1"/><path id="Shape" d="m50 10v22.95l-4-7.42v-15.53c0-3.3137085-2.6862915-6-6-6h-30c-3.3137085 0-6 2.6862915-6 6v30c0 3.3137085 2.6862915 6 6 6h27.07l1.22 4h-28.29c-5.5228475 0-10-4.4771525-10-10v-30c0-5.5228475 4.4771525-10 10-10h30c5.5228475 0 10 4.4771525 10 10z" fill="#7f8c8d"/><path id="Shape" d="m49.49 43.13c-.9191041 2.8058377-3.0365108 5.0587877-5.78 6.15l-1.4-3.74c2.2329969-.9355764 3.6872535-3.1189319 3.69-5.54v-4.42z" fill="#7f8c8d"/><ellipse id="Oval" cx="16" cy="12" fill="#fff" rx="7" ry="5"/><path id="Shape" d="m23 12v6c0 2.76-3.13 5-7 5s-7-2.24-7-5v-6c0 2.76 3.13 5 7 5s7-2.24 7-5z" fill="#393f4a"/><ellipse id="Oval" cx="16" cy="32" fill="#fff" rx="7" ry="5"/><ellipse id="Oval" cx="16" cy="31.5" fill="#f29c1f" rx="5" ry="3.5"/><ellipse id="Oval" cx="16" cy="11.5" fill="#f29c1f" rx="5" ry="3.5"/><path id="Shape" d="m23 32v6c0 2.76-3.13 5-7 5s-7-2.24-7-5v-6c0 2.76 3.13 5 7 5s7-2.24 7-5z" fill="#393f4a"/><path id="Shape" d="m17 32h-2c-.5522847 0-1-.4477153-1-1s.4477153-1 1-1h2c.5522847 0 1 .4477153 1 1s-.4477153 1-1 1z" fill="#4fba6f"/><path id="Shape" d="m43.84 57.82c-1.4800909.5513832-3.1270552-.2004918-3.68-1.68-.021192-.0518124-.0379195-.1053403-.05-.16l-1.82-5.98-1.22-4-10-32.82c-.2292427-.7731457.1938227-1.5891844.9577731-1.8474212.7639504-.2582367 1.5953635.1337529 1.8822269.8874212l12.4 33.32 1.4 3.74 1.81 4.87c.5465806 1.4772527-.2046439 3.1183205-1.68 3.67z" fill="#cb8252"/><path id="Shape" d="m56.5 51.05c-.6669222.3598559-1.4495516.4397983-2.175457.2222143-.7259054-.2175841-1.335524-.7148412-1.694543-1.3822143-.0305205-.0478472-.0572681-.0979989-.08-.15l-3.06-6.61-3.49-7.55-12.24-26.45c-.3700307-.74282298-.0678229-1.64496918.675-2.01499996.742823-.37003077 1.6449692-.067823 2.015.67499996l9.55 17.74 4 7.42 7.66 14.23c.3598559.6669222.4397983 1.4495516.2222143 2.175457-.2175841.7259054-.7148412 1.335524-1.3822143 1.694543z" fill="#cb8252"/><path id="Shape" d="m17 12h-2c-.5522847 0-1-.4477153-1-1s.4477153-1 1-1h2c.5522847 0 1 .4477153 1 1s-.4477153 1-1 1z" fill="#4fba6f"/></g></g></svg>