<svg height="512" viewBox="0 0 60 59" width="512" xmlns="http://www.w3.org/2000/svg"><g id="Page-1" fill="none" fill-rule="evenodd"><g id="020---Pizza-and-Soda" fill-rule="nonzero"><path id="Shape" d="m48.01 0h-6l-1 4v4c-.2137693 3.531391-1.2698697 6.9602882-3.08 10-.4062371.6772411-.885792 1.3077049-1.43 1.88-1.4128324 1.4756461-2.5206517 3.215534-3.26 5.12-.5844925 1.4781494-.9646623 3.0291076-1.13 4.61-.2756601 2.4700975-.0303842 4.9705499.72 7.34.8811112 2.61177 1.3138879 5.3538159 1.28 8.11-.0416278 1.4358752-.2496851 2.8620744-.62 4.25-.1324808.5280721-.2927031 1.0487944-.48 1.56l-.5 1.45c-.4781581 1.2526972-.3280567 2.6585585.4038043 3.7820641s1.9571163 1.8290025 3.2961957 1.8979359h17.59c1.3390794-.0689334 2.5643347-.7744303 3.2961957-1.8979359s.8819624-2.5293669.4038043-3.7820641l-.49-1.45c-.6785144-1.8647923-1.053282-3.8264136-1.11-5.81-.0338879-2.7561841.3988888-5.49823 1.28-8.11 1.2299691-3.9135505 1.0853059-8.1299526-.41-11.95-.7393483-1.904466-1.8471676-3.6443539-3.26-5.12-.5439235-.5737329-1.0203602-1.2078634-1.42-1.89-1.8144252-3.0341603-2.8709173-6.4608992-3.08-9.99v-4z" fill="#a56a43"/><path id="Shape" d="m33.49 49.31c-.1324808.5280721-.2927031 1.0487944-.48 1.56l-.5 1.45c-.4781581 1.2526972-.3280567 2.6585585.4038043 3.7820641s1.9571163 1.8290025 3.2961957 1.8979594l-15.21-.0000235c-5.5332511.0051686-11.03432913-.8414105-16.31-2.51-1.04554731-.3323849-1.9090803-1.0789329-2.38911062-2.0654519-.48003033-.986519-.53456859-2.1267158-.15088938-3.1545481l1.04-2.78z" fill="#f29c1f"/><path id="Shape" d="m34.11 45.06c-.0416278 1.4358752-.2496851 2.8620744-.62 4.25-4.068168 1.1235306-8.269537 1.6920105-12.49 1.69-6.1089994.0051168-12.15975402-1.1873677-17.81-3.51l15.94-42.5c.2946886-.77692277 1.0390666-1.29070457 1.87-1.29070457s1.5753114.5137818 1.87 1.29070457l9.23 24.62h.01c-.2756601 2.4700975-.0303842 4.9705499.72 7.34.8811112 2.61177 1.3138879 5.3538159 1.28 8.11z" fill="#f0c419"/><path id="Shape" d="m16.49 12.03c3.7649053.2549433 6.648524 3.4509437 6.5162483 7.2221519-.1322758 3.7712082-3.2327329 6.7573161-7.0062483 6.7478481-1.5252023.0076596-3.0096879-.4918592-4.22-1.42z" fill="#e64c3c"/><circle id="Oval" cx="16.5" cy="41.5" fill="#e64c3c" r="5.5"/><g fill="#c03a2b"><path id="Shape" d="m30.79 26.12c-3.0227917.6137469-5.0877824 3.4193929-4.7752404 6.4879874.312542 3.0685946 2.9007816 5.4003004 5.9852404 5.3920126.375441-.0026237.7500328-.0360694 1.12-.1l-1.01-8.29z"/><circle id="Oval" cx="28" cy="44" r="2"/><circle id="Oval" cx="20" cy="31" r="2"/><circle id="Oval" cx="26" cy="24" r="1"/><circle id="Oval" cx="14" cy="31" r="1"/></g><path id="Shape" d="m10.76 49.87c-.0018587.0308698-.0086094.0612484-.02.09l-.79 2.36c-.13757212.4073117-.52008409.6811098-.95.68-.10845233-.0019424-.21612445-.0187662-.32-.05-.52135143-.1805176-.80170813-.7456812-.63-1.27l.77-2.29c.64.18 1.28.34 1.94.48z" fill="#e57e25"/><path id="Shape" d="m18 50.9v2.1c0 .5522847-.4477153 1-1 1s-1-.4477153-1-1v-2.17c-.0016387-.0336447.0017315-.0673461.01-.1.66.08 1.32.13 1.99.17z" fill="#e57e25"/><path id="Shape" d="m26 50.83v2.17c0 .5522847-.4477153 1-1 1s-1-.4477153-1-1v-2.1c.67-.04 1.33-.09 1.99-.16.0082476.0292484.0116261.0596546.01.09z" fill="#e57e25"/><path id="Shape" d="m57.18 36.95c-.8811112 2.61177-1.3138879 5.3538159-1.28 8.11h-21.79c.0338879-2.7561841-.3988888-5.49823-1.28-8.11-.7503842-2.3694501-.9956601-4.8699025-.72-7.34.1653377-1.5808924.5455075-3.1318506 1.13-4.61h23.53c1.4953059 3.8200474 1.6399691 8.0364495.41 11.95z" fill="#e64c3c"/><path id="Shape" d="m52.09 17.99-.01.01h-14.15c1.8101303-3.0397118 2.8662307-6.468609 3.08-10v-4h8v4c.2090827 3.5291008 1.2655748 6.9558397 3.08 9.99z" fill="#67b9cc"/><path id="Shape" d="m50.01 2v1c0 .55228475-.4477153 1-1 1h-8c-.5522847 0-1-.44771525-1-1v-1c.0032948-1.10320187.8967981-1.9967052 2-2h6c1.1045695 0 2 .8954305 2 2z" fill="#c03a2b"/><circle id="Oval" cx="38" cy="53" fill="#cf976a" r="1"/><circle id="Oval" cx="40" cy="49" fill="#cf976a" r="1"/><circle id="Oval" cx="42" cy="53" fill="#cf976a" r="1"/><path id="Shape" d="m59 59h-58c-.55228475 0-1-.4477153-1-1s.44771525-1 1-1h58c.5522847 0 1 .4477153 1 1s-.4477153 1-1 1z" fill="#d25627"/><circle id="Oval" cx="45.011" cy="35" fill="#c03a2b" r="6"/><path id="Shape" d="m45.011 42c-3.8659932 0-7-3.1340068-7-7s3.1340068-7 7-7 7 3.1340068 7 7c-.0044086 3.8641657-3.1358343 6.9955914-7 7zm0-12c-2.7614237 0-5 2.2385763-5 5s2.2385763 5 5 5 5-2.2385763 5-5c-.0033061-2.7600532-2.2399468-4.9966939-5-5z" fill="#fff"/></g></g></svg>