<svg height="512" viewBox="0 0 51 59" width="512" xmlns="http://www.w3.org/2000/svg"><g id="Page-1" fill="none" fill-rule="evenodd"><g id="021---Bucket-of-Chicken" fill-rule="nonzero"><path id="Shape" d="m7.51 11.81-.03-.02-4.14-4.63c-.60114585.54213166-1.46980812.66843208-2.20044789.31993734-.73063978-.34849475-1.17915709-1.10305301-1.1361596-1.91140582.04299749-.80835282.56902963-1.51107334 1.33251593-1.78009329.7634863-.26901996 1.61384867-.05128205 2.15409156.55156177-.54213166-.60114585-.66843208-1.46980812-.31993734-2.20044789.34849475-.73063978 1.10305301-1.17915709 1.91140582-1.1361596.80835282.04299749 1.51107334.56902963 1.78009329 1.33251593.26901996.7634863.05128205 1.61384867-.55156177 2.15409156l4.15 4.63.01.02z" fill="#f9eab0"/><path id="Shape" d="m27.43 23-19.18-1-.03-.03c-1.63013541-1.8070538-2.38052826-4.2409586-2.05093223-6.6522138.32959603-2.4112551 1.70564182-4.5544956 3.76093223-5.8577862.18-.11.35-.22.54-.32 3.4456658-1.79034885 7.671084-.96516905 10.19 1.99.08.1.16.19.23.29.5575067.7400073 1.3575154 1.2603669 2.26 1.47 2.1169113.4572457 4.0472589 1.5408884 5.54 3.11z" fill="#f29c1f"/><circle id="Oval" cx="10" cy="17" fill="#f5efca" r="1"/><circle id="Oval" cx="14" cy="18" fill="#f5efca" r="1"/><circle id="Oval" cx="12" cy="14" fill="#f5efca" r="1"/><path id="Shape" d="m49.77 17.06c-1.05826 2.0604027-2.7373948 3.7360393-4.8 4.79-.0899806.0440224-.1768494.094139-.26.15l-9.225 1-8.055-1c-.3010035-1.7579826-.0201197-3.5661724.8-5.15.08-.16.17-.32.26-.47.07-.12.14-.25.2-.38.3702002-.7312845.5096834-1.5577225.4-2.37-.7100452-4.71935636 1.6987081-9.35937305 5.9670107-11.49433962 4.2683025-2.13496658 9.4258295-1.27953536 12.7763262 2.11909087 3.3504968 3.39862622 4.1322858 8.56782865 1.9366631 12.80524875z" fill="#e57e25"/><path id="Shape" d="m42.878 6.6c-.1410422.00010597-.2804823-.02989581-.409-.088-.7101628-.31838111-1.4778189-.48851764-2.256-.5-.5522847-.00607513-.9950751-.45871525-.989-1.011s.4587153-.99507513 1.011-.989c1.0531029.01581684 2.0919248.24617467 3.053.677.4312031.19267362.6688154.66076185.5698401 1.12256609-.0989753.46180423-.5075496.7913998-.9798401.79043391z" fill="#fff"/><path id="Shape" d="m34.03 9.345c-.3612138-.00042112-.6941253-.19560774-.8708996-.51060998-.1767742-.31500224-.1699319-.70085335.0178996-1.00939002.6501067-1.05910036 1.5408996-1.94989335 2.6-2.6.4666582-.25393273 1.0504199-.09863574 1.3292152.35360853s.1552918 1.04354941-.2812152 1.34639147c-.7927983.48295127-1.4586405 1.14845056-1.942 1.941-.1814934.29734155-.5046441.47880605-.853.479z" fill="#fff"/><g fill="#f5efca"><circle id="Oval" cx="32.843" cy="12.794" r="1"/><circle id="Oval" cx="36.884" cy="11.499" r="1"/><circle id="Oval" cx="39.603" cy="8.4" r="1"/><circle id="Oval" cx="41.355" cy="11.552" r="1"/><circle id="Oval" cx="39.525" cy="15.108" r="1"/><circle id="Oval" cx="44.506" cy="9.799" r="1"/><circle id="Oval" cx="35.485" cy="16.403" r="1"/></g><path id="Shape" d="m40 29h-26l-8 1 3.52 25.55c.2782144 1.9788962 1.9716424 3.450515 3.97 3.45h27.02c1.9983576.000515 3.6917856-1.4711038 3.97-3.45l3.52-25.55z" fill="#c03a2b"/><path id="Shape" d="m49 22h-44c-1.10320187.0032948-1.9967052.8967981-2 2v4c.0032948 1.1032019.89679813 1.9967052 2 2h44z" fill="#e64c3c"/><path id="Shape" d="m51 24v4c-.0032948 1.1032019-.8967981 1.9967052-2 2h-4v-8h4c1.1032019.0032948 1.9967052.8967981 2 2z" fill="#f5efca"/><path id="Rectangle-path" d="m27 22h9v8h-9z" fill="#f5efca"/><path id="Rectangle-path" d="m9 22h9v8h-9z" fill="#f5efca"/><path id="Shape" d="m40 30-3 29h-7l2-29z" fill="#f9eab0"/><path id="Shape" d="m24 59h-7l-3-29h8z" fill="#f9eab0"/></g></g></svg>