<svg height="512" viewBox="0 0 36 58" width="512" xmlns="http://www.w3.org/2000/svg"><g id="Page-1" fill="none" fill-rule="evenodd"><g id="022---Kebab" fill-rule="nonzero"><path id="Shape" d="m20 47.92v5.08l-2 5-2-5v-5.08z" fill="#95a5a5"/><path id="Shape" d="m20 6.04c5.98.22 11.07 1.41 13.82 3.09 1.5028284.928909 2.2182514 2.733726 1.76 4.44 0 0-4.58 19.43-8.58 32.43-.49 1.58-4.03 3-9 3s-8.51-1.42-9-3c-4-13-8.58-32.43-8.58-32.43-.45825139-1.706274.25717159-3.511091 1.76-4.44 2.75-1.68 7.84-2.87 13.82-3.09" fill="#f29c1f"/><path id="Shape" d="m35.61 11.64c-1.71 2.49-8.95 4.36-17.61 4.36s-15.9-1.87-17.61-4.36c.23660145-1.0425539.88138455-1.94669113 1.79-2.51 2.75-1.68 7.84-2.87 13.82-3.09h4c5.98.22 11.07 1.41 13.82 3.09.9086154.56330887 1.5533986 1.4674461 1.79 2.51z" fill="#d25627"/><g fill="#e57e25"><path id="Shape" d="m18 17c-4.4215834.0728401-8.82778411-.5394133-13.062-1.815-.33940231-.1132532-.59260312-.3989724-.66422413-.7495301-.07162102-.3505576.0492187-.7126955.317-.95.26778129-.2373044.64182182-.3137231.98122413-.2004699 4.02962085 1.208305 8.221732 1.7867947 12.428 1.715 4.307789.0741352 8.5999886-.536818 12.716-1.81.5213568-.1825301 1.0919699.0921432 1.2745.6135s-.0921432 1.0919699-.6135 1.2745c-4.3264067 1.35684-8.8435934 2.0058669-13.377 1.922z"/><path id="Shape" d="m14.342 22.136c-2.5140925.0013489-5.01225129-.3990317-7.4-1.186-.52467051-.172589-.81008898-.7378295-.6375-1.2625s.73782949-.810089 1.2625-.6375c2.38585194.7841169 4.8896187 1.1485165 7.4 1.077.3572656-.0101821.6928247.1710082.8802754.4753183.1874508.30431.1983149.6855079.0285 1-.1698148.3144921-.4945098.5144996-.8517754.5246817-.226.006-.4533333.009-.682.009z"/><path id="Shape" d="m19.558 27.916c-.4 0-.7973333-.0086667-1.192-.026-.5517135-.0237889-.9797061-.4902829-.956-1.042.0347258-.5465535.494484-.9683663 1.042-.956 3.316675.1345331 6.6294965-.3479792 9.77-1.423.3404398-.1276109.7233174-.060396.9999358.1755406.2766183.2359366.4033895.6034175.3310797.959725-.0723097.3563076-.3323063.6452971-.6790155.7547344-2.9983974 1.0285003-6.1461114 1.5545835-9.316 1.557z"/><path id="Shape" d="m16.278 33.877c-2.2706116.000406-4.5248688-.3840384-6.667-1.137-.52108066-.1833585-.79485854-.7544193-.6115-1.2755s.75441934-.7948585 1.2755-.6115c2.922701 1.0272459 6.0602026 1.2868679 9.112.754.5427468-.0926291 1.0582656.2709047 1.153244.8132453.0949785.5423407-.2663197 1.0594287-.808244 1.1567547-1.1405063.199582-2.2961625.2999575-3.454.3z"/><path id="Shape" d="m18 39.066c-.5522847.009665-1.007835-.4302153-1.0175-.9825-.0096649-.5522847.4302153-1.007835.9825-1.0175 2.645147-.0924329 5.2656075-.5425197 7.79-1.338.520556-.1473669 1.063918.1459885 1.2262901.6620611.162372.5160725-.1151334 1.0676977-.6262901 1.2449389-2.6963879.850142-5.4954941 1.3311805-8.321 1.43z"/><path id="Shape" d="m17.19 44.669c-1.4462621-.0001725-2.8897462-.126653-4.314-.378-.5440005-.0963737-.9068737-.6154995-.8105-1.1595s.6154995-.9068737 1.1595-.8105c1.4585037.2618413 2.9395482.377082 4.421.344.3572656-.007324.6912999.1765074.8762754.4822465s.1927901.6869369.0205 1c-.1722901.313063-.4985098.5104296-.8557754.5177535-.166.002-.332.004-.497.004z"/><circle id="Oval" cx="20" cy="21" r="1"/><circle id="Oval" cx="14" cy="27" r="1"/><circle id="Oval" cx="23" cy="32" r="1"/><circle id="Oval" cx="14" cy="38" r="1"/><circle id="Oval" cx="22" cy="44" r="1"/></g><path id="Shape" d="m18 0c1.1045695 0 2 .8954305 2 2v8h-4v-8c0-1.1045695.8954305-2 2-2z" fill="#95a5a5"/><path id="Shape" d="m21 11h-6c-.5522847 0-1-.4477153-1-1 0-.55228475.4477153-1 1-1h6c.5522847 0 1 .44771525 1 1 0 .5522847-.4477153 1-1 1z" fill="#c03a2b"/></g></g></svg>