<svg height="512" viewBox="0 0 58 41" width="512" xmlns="http://www.w3.org/2000/svg"><g id="Page-1" fill="none" fill-rule="evenodd"><g id="023---Wrap" fill-rule="nonzero" transform="translate(0 -1)"><path id="Shape" d="m6 36.12c0 .4.01.8.04 1.19-1.94159067-.1537222-3.74312059-1.0706686-5.01-2.55-1.36837598-1.7148187-1.14825904-4.2021401.5-5.65-1.05617366-1.11926-1.60579351-2.6234828-1.52-4.16.13747724-1.5440485.8907716-2.9677388 2.09-3.95-1.1992284-.9822612-1.95252276-2.4059515-2.09-3.95-.08579351-1.5365172.46382634-3.04074 1.52-4.16-1.64825904-1.4478599-1.86837598-3.93518127-.5-5.65 1.27022866-1.48199002 3.07453171-2.40211269 5.02-2.56-.03.48-.05.96-.05 1.44-.00611133 3.51131557.79447634 6.9771075 2.34 10.13-1.49264115 1.1463787-2.35922123 2.9280088-2.33955602 4.8099692s.92328565 3.6450932 2.43955602 4.7600308c-1.60817378 3.1950769-2.44392157 6.7230286-2.44 10.3z" fill="#4fba6f"/><path id="Shape" d="m51.99 36.92c0 .13-.01.26-.02.39-.02.44-.06.88-.11 1.31-.1003039.8424665-.5548318 1.6022807-1.2497024 2.0890719-.6948705.4867912-1.5642432.6544349-2.3902976.4609281-6.3122887-1.3849609-12.7576009-2.0724161-19.22-2.05-6.4663702-.0249087-12.9156332.665964-19.23 2.06-.82311058.1905858-1.68843353.0228174-2.38068148-.4615654-.69224796-.4843829-1.1463465-1.239846-1.24931852-2.0784346-.05-.44-.08-.88-.1-1.33-.03-.39-.04-.79-.04-1.19-.00392157-3.5769714.83182622-7.1049231 2.44-10.3.83590504-1.6922385 1.8880368-3.2687555 3.13-4.69 4.9299277-5.7448814 12.3735225-8.6923954 19.9-7.88 5.7946561.6164732 11.131668 3.4335277 14.91 7.87v.01c3.7795573 4.376143 5.781263 10.0101773 5.61 15.79z" fill="#f3d55b"/><path id="Shape" d="m49.62 16.23c-.8663262 1.7619138-1.9552233 3.4053418-3.24 4.89-3.778332-4.4364723-9.1153439-7.2535268-14.91-7.87-7.5264775-.8123954-14.9700723 2.1351186-19.9 7.88-3.60483272-4.168616-5.58283324-9.498919-5.57-15.01 0-.48.02-.96.05-1.44.02-.36.05-.72.09-1.07.10297202-.83858855.55707056-1.5940517 1.24931852-2.07843456.69224795-.48438287 1.5575709-.65215129 2.38068148-.46156544 6.3148751 1.38985707 12.7640429 2.07736585 19.23 2.05 6.4619883.02486238 12.9072048-.65922928 19.22-2.04.8260544-.19350677 1.6954271-.02586308 2.3902976.46092809.6948706.48679117 1.1493985 1.24660539 1.2497024 2.08907191.04.35.08.7.09 1.05.02.21.03.43.04.65.1276683 3.77379115-.6868602 7.519935-2.37 10.9z" fill="#f0c419"/><path id="Shape" d="m11.57 21.13c-1.2419632 1.4212445-2.29409496 2.9977615-3.13 4.69-1.51627037-1.1149376-2.41989081-2.8780704-2.43955602-4.7600308s.84691487-3.6635905 2.33955602-4.8099692c.8641436 1.7577596 1.9496222 3.3977397 3.23 4.88z" fill="#e64c3c"/><path id="Shape" d="m52 21c.0040062 1.9043544-.9028697 3.6958059-2.44 4.82l-.03.02c-.8487423-1.6956444-1.9070183-3.278019-3.15-4.71v-.01c1.2847767-1.4846582 2.3736738-3.1280862 3.24-4.89l.04.02c1.4757164 1.1337084 2.3404665 2.8890772 2.34 4.75z" fill="#e64c3c"/><path id="Shape" d="m56.47 29.11c1.648259 1.4478599 1.868376 3.9351813.5 5.65-1.2628939 1.479002-3.0612671 2.3961724-5 2.55.01-.13.02-.26.02-.39.1336853-3.8422606-.7128955-7.6553154-2.46-11.08l.03-.02c1.5162704-1.1149376 2.4198908-2.8780704 2.439556-4.7600308s-.8469148-3.6635905-2.339556-4.8099692l-.04-.02c1.6831398-3.380065 2.4976683-7.12620885 2.37-10.9-.01-.22-.02-.44-.04-.65 1.9454683.15788731 3.7497713 1.07800998 5.02 2.56 1.368376 1.71481873 1.148259 4.2021401-.5 5.65 1.0561737 1.11926 1.6057935 2.6234828 1.52 4.16-.1374772 1.5440485-.8907716 2.9677388-2.09 3.95 1.1992284.9822612 1.9525228 2.4059515 2.09 3.95.0857935 1.5365172-.4638263 3.04074-1.52 4.16z" fill="#4fba6f"/><path id="Shape" d="m6 36.12c0 .4.01.8.04 1.19-.69346027-.0780538-1.37501909-.2392106-2.03-.48-.01-.23-.01-.47-.01-.71-.00670606-3.376156.67731621-6.7179961 2.01-9.82-2.64920368-2.9911424-2.6833634-7.4788761-.08-10.51-1.28214496-3.0622565-1.93836853-6.3501746-1.93-9.67 0-.32.01-.63.02-.95.65351736-.24756832 1.33550732-.41218659 2.03-.49-.03.48-.05.96-.05 1.44-.00611133 3.51131557.79447634 6.9771075 2.34 10.13-1.49264115 1.1463787-2.35922123 2.9280088-2.33955602 4.8099692s.92328565 3.6450932 2.43955602 4.7600308c-1.60817378 3.1950769-2.44392157 6.7230286-2.44 10.3z" fill="#24ae5f"/><path id="Shape" d="m51.97 26.32c1.4328506 3.3137563 2.1223463 6.901182 2.02 10.51-.6515458.2407651-1.3297933.4019329-2.02.48.01-.13.02-.26.02-.39.1336853-3.8422606-.7128955-7.6553154-2.46-11.08l.03-.02c1.5162704-1.1149376 2.4198908-2.8780704 2.439556-4.7600308s-.8469148-3.6635905-2.339556-4.8099692l-.04-.02c1.6831398-3.380065 2.4976683-7.12620885 2.37-10.9-.01-.22-.02-.44-.04-.65.6971069.08139893 1.381973.24590106 2.04.49v.07c.1192924 3.60648755-.5460389 7.1958646-1.95 10.52 2.6398834 3.0351465 2.6098884 7.5601171-.07 10.56z" fill="#24ae5f"/><path id="Shape" d="m51.99 36.92c0 .13-.01.26-.02.39-.02.44-.06.88-.11 1.31-.1003039.8424665-.5548318 1.6022807-1.2497024 2.0890719-.6948705.4867912-1.5642432.6544349-2.3902976.4609281-6.3122887-1.3849609-12.7576009-2.0724161-19.22-2.05-6.4663702-.0249087-12.9156332.665964-19.23 2.06-.82311058.1905858-1.68843353.0228174-2.38068148-.4615654-.69224796-.4843829-1.1463465-1.239846-1.24931852-2.0784346-.05-.44-.08-.88-.1-1.33-.03-.39-.04-.79-.04-1.19-.00392157-3.5769714.83182622-7.1049231 2.44-10.3.83590504-1.6922385 1.8880368-3.2687555 3.13-4.69 4.9299277-5.7448814 12.3735225-8.6923954 19.9-7.88 5.7946561.6164732 11.131668 3.4335277 14.91 7.87v.01c3.7795573 4.376143 5.781263 10.0101773 5.61 15.79z" fill="#f3d55b"/><path id="Shape" d="m49.62 16.23c-.8663262 1.7619138-1.9552233 3.4053418-3.24 4.89-3.778332-4.4364723-9.1153439-7.2535268-14.91-7.87-7.5264775-.8123954-14.9700723 2.1351186-19.9 7.88-3.60483272-4.168616-5.58283324-9.498919-5.57-15.01 0-.48.02-.96.05-1.44.02-.36.05-.72.09-1.07.10297202-.83858855.55707056-1.5940517 1.24931852-2.07843456.69224795-.48438287 1.5575709-.65215129 2.38068148-.46156544 6.3148751 1.38985707 12.7640429 2.07736585 19.23 2.05 6.4619883.02486238 12.9072048-.65922928 19.22-2.04.8260544-.19350677 1.6954271-.02586308 2.3902976.46092809.6948706.48679117 1.1493985 1.24660539 1.2497024 2.08907191.04.35.08.7.09 1.05.02.21.03.43.04.65.1276683 3.77379115-.6868602 7.519935-2.37 10.9z" fill="#f0c419"/><path id="Shape" d="m14 6.96c-.053933.00010426-.1077825-.00424383-.161-.013-1.438-.233-2.793-.485-4.029-.749-.34940575-.0746685-.63243481-.33007079-.74247287-.66999931-.11003805-.33992851-.0303677-.71274001.20900001-.97800001.2393677-.26526.60206711-.3826692.95147286-.30800068 1.2.258 2.526.5 3.931.731.5139272.08368163.8776358.5477302.8361024 1.06676663-.0415333.51903642-.4744076.91934232-.9951024.92023337z" fill="#f29c1f"/><path id="Shape" d="m29 8.12c-2.724 0-5.442-.109-8.081-.324-.3615293-.02187994-.6829691-.23753595-.840307-.56376732-.157338-.32623137-.1259778-.71203912.0819817-1.00857747s.5600084-.45745018.9203253-.42065521c2.585.211 5.249.317 7.919.317.5522847 0 1 .44771525 1 1s-.4477153 1-1 1z" fill="#f29c1f"/><g fill="#b19046"><path id="Shape" d="m14 28c-.5522847 0-1-.4477153-1-1v-1c0-.5522847.4477153-1 1-1s1 .4477153 1 1v1c0 .5522847-.4477153 1-1 1z"/><path id="Shape" d="m14 37c-.5522847 0-1-.4477153-1-1v-5c0-.5522847.4477153-1 1-1s1 .4477153 1 1v5c0 .5522847-.4477153 1-1 1z"/><path id="Shape" d="m19 24c-.5522847 0-1-.4477153-1-1v-2c0-.5522847.4477153-1 1-1s1 .4477153 1 1v2c0 .5522847-.4477153 1-1 1z"/><path id="Shape" d="m19 36c-.5522847 0-1-.4477153-1-1v-8c0-.5522847.4477153-1 1-1s1 .4477153 1 1v8c0 .5522847-.4477153 1-1 1z"/><path id="Shape" d="m24 22c-.5522847 0-1-.4477153-1-1v-3c0-.5522847.4477153-1 1-1s1 .4477153 1 1v3c0 .5522847-.4477153 1-1 1z"/><path id="Shape" d="m24 36c-.5522847 0-1-.4477153-1-1v-10c0-.5522847.4477153-1 1-1s1 .4477153 1 1v10c0 .5522847-.4477153 1-1 1z"/><path id="Shape" d="m44 28c-.5522847 0-1-.4477153-1-1v-1c0-.5522847.4477153-1 1-1s1 .4477153 1 1v1c0 .5522847-.4477153 1-1 1z"/><path id="Shape" d="m44 37c-.5522847 0-1-.4477153-1-1v-5c0-.5522847.4477153-1 1-1s1 .4477153 1 1v5c0 .5522847-.4477153 1-1 1z"/><path id="Shape" d="m39 24c-.5522847 0-1-.4477153-1-1v-2c0-.5522847.4477153-1 1-1s1 .4477153 1 1v2c0 .5522847-.4477153 1-1 1z"/><path id="Shape" d="m39 36c-.5522847 0-1-.4477153-1-1v-8c0-.5522847.4477153-1 1-1s1 .4477153 1 1v8c0 .5522847-.4477153 1-1 1z"/><path id="Shape" d="m34 22c-.5522847 0-1-.4477153-1-1v-3c0-.5522847.4477153-1 1-1s1 .4477153 1 1v3c0 .5522847-.4477153 1-1 1z"/><path id="Shape" d="m34 36c-.5522847 0-1-.4477153-1-1v-10c0-.5522847.4477153-1 1-1s1 .4477153 1 1v10c0 .5522847-.4477153 1-1 1z"/><path id="Shape" d="m29 21c-.5522847 0-1-.4477153-1-1v-3c0-.5522847.4477153-1 1-1s1 .4477153 1 1v3c0 .5522847-.4477153 1-1 1z"/><path id="Shape" d="m29 35c-.5522847 0-1-.4477153-1-1v-10c0-.5522847.4477153-1 1-1s1 .4477153 1 1v10c0 .5522847-.4477153 1-1 1z"/></g><path id="Shape" d="m11.57 21.13c-1.2419632 1.4212445-2.29409496 2.9977615-3.13 4.69-1.51627037-1.1149376-2.41989081-2.8780704-2.43955602-4.7600308s.84691487-3.6635905 2.33955602-4.8099692c.8641436 1.7577596 1.9496222 3.3977397 3.23 4.88z" fill="#e64c3c"/><path id="Shape" d="m52 21c.0040062 1.9043544-.9028697 3.6958059-2.44 4.82l-.03.02c-.8487423-1.6956444-1.9070183-3.278019-3.15-4.71v-.01c1.2847767-1.4846582 2.3736738-3.1280862 3.24-4.89l.04.02c1.4757164 1.1337084 2.3404665 2.8890772 2.34 4.75z" fill="#e64c3c"/></g></g></svg>