<svg height="512" viewBox="0 0 40 58" width="512" xmlns="http://www.w3.org/2000/svg"><g id="Page-1" fill="none" fill-rule="evenodd"><g id="024---Onion-Rings" fill-rule="nonzero"><path id="Shape" d="m40 17c0-5.5228475-4.4771525-10-10-10-.16 0-.31 0-.46.01-1.3095326-4.16700003-5.1720754-7.00193396-9.54-7.00193396s-8.2304674 2.83493393-9.54 7.00193396c-.15-.01-.3-.01-.46-.01-5.5228475 0-10 4.4771525-10 10-.00183669 1.1598282.20128608 2.3108572.6 3.4-.31901086.4047514-.46946853.9170239-.42 1.43l3.32 32.49c.09973333 1.1204705.66278671 2.1484066 1.55327923 2.8357377s2.02753291.971621 3.13672077.7842623c3.9055546-.614272 7.8570295-.8886335 11.81-.82 3.9529705-.0686335 7.9044454.205728 11.81.82 1.1091879.1873587 2.2462283-.0969312 3.1367208-.7842623s1.4535459-1.7152672 1.5532792-2.8357377l3.32-32.49c.0494685-.5129761-.1009891-1.0252486-.42-1.43.3987139-1.0891428.6018367-2.2401718.6-3.4z" fill="#e64c3c"/><path id="Shape" d="m20 35c-4.418278 0-8 3.581722-8 8s3.581722 8 8 8 8-3.581722 8-8-3.581722-8-8-8zm0 12c-2.209139 0-4-1.790861-4-4s1.790861-4 4-4 4 1.790861 4 4-1.790861 4-4 4z" fill="#f3d55b"/><path id="Shape" d="m19.54 14.01c-1.1126659.0495626-2.2085727.289715-3.24.71-.2226633.0787465-.439814.1722883-.65.28-.8380541-2.3795856-3.0772393-3.9790036-5.6-4h-.05c-3.3137085 0-6 2.6862915-6 6-.00077255.7533315.14176072 1.4999344.42 2.2-1.07.17-1.96.33-2.65.47-.4657255.0931354-.88162036.3526254-1.17.73-.39871392-1.0891428-.60183669-2.2401718-.6-3.4 0-5.5228475 4.4771525-10 10-10 .16 0 .31 0 .46.01 1.3512242.05711784 2.6758606.39423611 3.89.99 2.4864602 1.19969592 4.3652446 3.375321 5.19 6.01z" fill="#f0c419"/><path id="Shape" d="m15.65 15c-1.0408896.4965414-1.9855065 1.1736861-2.79 2-1.594586-1.6202683-2.5862589-3.7377193-2.81-6 2.5227607.0209964 4.7619459 1.6204144 5.6 4z" fill="#f29c1f"/><path id="Shape" d="m40 17c.0018367 1.1598282-.2012861 2.3108572-.6 3.4-.2883796-.3773746-.7042745-.6368646-1.17-.73-.69-.14-1.58-.3-2.65-.47.2782393-.7000656.4207725-1.4466685.42-2.2 0-3.3137085-2.6862915-6-6-6h-.05c.03-.33.05-.66.05-1 .0016571-1.01441584-.1535084-2.02299165-.46-2.99.15-.01.3-.01.46-.01 5.5228475 0 10 4.4771525 10 10z" fill="#f0c419"/><path id="Shape" d="m10.46 26.99c.0306493.1151926.0673672.2286844.11.34l-.48-.33h-.01c-2.16879819-1.4612543-3.79320405-3.5990006-4.62-6.08l-.01-.01c-.1820905-.5903555-.30929684-1.1962593-.38-1.81-.22.03-.44.07-.65.1-.27823928-.7000656-.42077255-1.4466685-.42-2.2 0-3.3137085 2.6862915-6 6-6h.05c.2237411 2.2622807 1.215414 4.3797317 2.81 6-1.594586 1.6202683-2.5862589 3.7377193-2.81 6-.03.33-.05.66-.05 1-.00165709 1.0144158.1535084 2.0229917.46 2.99z" fill="#c03a2b"/><path id="Shape" d="m30 24c.0016571 1.0144158-.1535084 2.0229917-.46 2.99-.0306493.1151926-.0673672.2286844-.11.34-2.8223444 1.7756766-6.0956935 2.7024892-9.43 2.67 3.3137085 0 6-2.6862915 6-6s-2.6862915-6-6-6-6 2.6862915-6 6 2.6862915 6 6 6c-3.3343065.0324892-6.6076556-.8943234-9.43-2.67-.0426328-.1113156-.0793507-.2248074-.11-.34-.3064916-.9670083-.46165709-1.9755842-.46-2.99 0-.34.02-.67.05-1 .2237411-2.2622807 1.215414-4.3797317 2.81-6 .8044935-.8263139 1.7491104-1.5034586 2.79-2 .210186-.1077117.4273367-.2012535.65-.28 1.0314273-.420285 2.1273341-.6604374 3.24-.71.15-.01.3-.01.46-.01s.31 0 .46.01c1.1126659.0495626 2.2085727.289715 3.24.71.2226633.0787465.439814.1722883.65.28 1.0408896.4965414 1.9855065 1.1736861 2.79 2 1.594586 1.6202683 2.5862589 3.7377193 2.81 6 .03.33.05.66.05 1z" fill="#f3d55b"/><circle id="Oval" cx="20" cy="24" fill="#c03a2b" r="6"/><path id="Shape" d="m36 17c.0007725.7533315-.1417607 1.4999344-.42 2.2-.21-.03-.43-.07-.65-.1-.0707032.6137407-.1979095 1.2196445-.38 1.81l-.01.01c-.826796 2.4809994-2.4512018 4.6187457-4.62 6.08h-.01l-.48.33c.0426328-.1113156.0793507-.2248074.11-.34.3064916-.9670083.4616571-1.9755842.46-2.99 0-.34-.02-.67-.05-1-.2237411-2.2622807-1.215414-4.3797317-2.81-6 1.594586-1.6202683 2.5862589-3.7377193 2.81-6h.05c3.3137085 0 6 2.6862915 6 6z" fill="#c03a2b"/><path id="Shape" d="m30 10c0 .34-.02.67-.05 1-.2237411 2.2622807-1.215414 4.3797317-2.81 6-.8044935-.8263139-1.7491104-1.5034586-2.79-2-.210186-.1077117-.4273367-.2012535-.65-.28 1.4530741-1.1348245 2.301672-2.876295 2.3-4.72.0018379-.68206025-.1166438-1.35909871-.35-2-.8440049-2.39705208-3.1087005-4.00062824-5.65-4.00062824s-4.8059951 1.60357616-5.65 4.00062824c-1.2141394-.59576389-2.5387758-.93288216-3.89-.99 1.3095326-4.16700003 5.1720754-7.00193396 9.54-7.00193396s8.2304674 2.83493393 9.54 7.00193396c.3064916.96700835.4616571 1.97558416.46 2.99z" fill="#f29c1f"/><path id="Shape" d="m26 10c.001672 1.843705-.8469259 3.5851755-2.3 4.72-1.0314273-.420285-2.1273341-.6604374-3.24-.71.8247554-2.634679 2.7035398-4.81030408 5.19-6.01.2333562.64090129.3518379 1.31793975.35 2z" fill="#f0c419"/><path id="Shape" d="m25.65 8c-2.4864602 1.19969592-4.3652446 3.375321-5.19 6.01-.15-.01-.3-.01-.46-.01s-.31 0-.46.01c-.8247554-2.634679-2.7035398-4.81030408-5.19-6.01.8440049-2.39705208 3.1087005-4.00062824 5.65-4.00062824s4.8059951 1.60357616 5.65 4.00062824z" fill="#c03a2b"/></g></g></svg>