<svg height="512" viewBox="0 0 58 58" width="512" xmlns="http://www.w3.org/2000/svg"><g id="Page-1" fill="none" fill-rule="evenodd"><g id="025---Corn-Dog" fill-rule="nonzero" transform="translate(-1)"><path id="Shape" d="m17.85 44-13.4 13.41c-.78976719.7897672-2.07023281.7897672-2.86 0s-.78976719-2.0702328 0-2.86l13.41-13.41c.1897788.2416362.3934563.4720255.61.69l1.54 1.55c.2190238.2222802.4528956.4294238.7.62z" fill="#e4c05c"/><path id="Shape" d="m28.41 40.82c.4816123.3921664.9422495.8094102 1.38 1.25l-2.54 2.54c-2.8699099 2.8713419-7.4354651 3.1378809-10.62.62-.2471044-.1905762-.4809762-.3977198-.7-.62l-1.54-1.55c-.2165437-.2179745-.4202212-.4483638-.61-.69-2.5205311-3.182061-2.2582997-7.7474669.61-10.62l29.4-29.41c3.1283378-3.12011748 8.1916622-3.12011748 11.32 0l1.55 1.55c2.8555832 2.86252027 3.1300699 7.4044185.64 10.59-.37-.13-.74-.25-1.12-.36l-4.44 3.37c.4816123.3921664.9422495.8094102 1.38 1.25l-3.53 3.53c-.39-.14-.79-.27-1.19-.38l-4.44 3.38c.4816123.3921664.9422495.8094102 1.38 1.25l-3.53 3.53c-.39-.14-.78-.27-1.18-.38l-4.45 3.38c.4816123.3921664.9422495.8094102 1.38 1.25l-3.53 3.53c-.39-.14-.78-.27-1.18-.38z" fill="#d25627"/><path id="Shape" d="m16.64 45.22-.01.01" fill="#f3d55b"/><path id="Shape" d="m56.18 14.12c-.84.57-2.65 1.86-4.44 3.37-1.9098029-1.5742416-4.0651427-2.8242035-6.38-3.7 3.574671-.8259807 7.3023095-.7122912 10.82.33z" fill="#c03a2b"/><path id="Shape" d="m48.4 21.89v.01c-.84.57-2.65 1.86-4.44 3.37-1.9083105-1.5763874-4.0640215-2.8265646-6.38-3.7 3.5743012-.8242837 7.3006596-.7140771 10.82.32z" fill="#c03a2b"/><path id="Shape" d="m40.63 29.67v.01c-1.5352246 1.0450917-3.0170848 2.1664994-4.44 3.36l-.01.01c-1.9083105-1.5763874-4.0640215-2.8265646-6.38-3.7 3.5771667-.8293021 7.308039-.719064 10.83.32z" fill="#c03a2b"/><path id="Shape" d="m32.85 37.45v.01c-.84.57-2.65 1.86-4.44 3.36-1.9185792-1.566899-4.0759539-2.816083-6.39-3.7 3.5780176-.8261426 7.3089203-.7124586 10.83.33z" fill="#c03a2b"/><g fill="#f5efca"><path id="Shape" d="m45.343 7.719c-.4043959-.00008635-.7689341-.2437275-.923678-.61734544s-.0692299-.80366031.216678-1.08965456l2.121-2.122c.2466159-.27666214.626021-.39423753.9858676-.30551453s.6411108.36919157.7308529.7287854c.089742.35959382-.0267581.73933045-.3027205.98672913l-2.121 2.126c-.1874927.18754937-.4418052.29294336-.707.293z"/><path id="Shape" d="m41.807 11.254c-.4043959-.0000863-.7689341-.2437275-.923678-.6173454-.1547439-.373618-.0692299-.80366035.216678-1.0896546l.707-.707c.3923789-.37897221 1.0160848-.37355237 1.4018186.01218142.3857338.3857338.3911536 1.00943969.0121814 1.40181858l-.707.707c-.1874927.1875494-.4418052.2929434-.707.293z"/><path id="Shape" d="m35.443 17.618c-.4043959-.0000863-.7689341-.2437275-.923678-.6173454-.1547439-.373618-.0692299-.8036603.216678-1.0896546l2.121-2.121c.3950525-.3541623.9979298-.33815 1.3736257.0364831.375696.3746332.393416.9774627.0403743 1.3735169l-2.121 2.125c-.1870531.1882061-.4416514.2937185-.707.293z"/><path id="Shape" d="m31.908 21.154c-.4045779.0003183-.7694864-.2431745-.9244868-.6168833-.1550005-.3737088-.06955-.8039938.2164868-1.0901167l.707-.708c.3904653-.3907414 1.0237585-.3909653 1.4145-.0005.3907414.3904653.3909653 1.0237585.0005 1.4145l-.707.708c-.1874927.1875494-.4418052.2929434-.707.293z"/><path id="Shape" d="m25.544 27.518c-.4043959-.0000863-.7689341-.2437275-.923678-.6173454-.1547439-.373618-.0692299-.8036603.216678-1.0896546l2.121-2.122c.2474883-.2737182.6256051-.3888941.9836602-.2996269s.6378493.3684679.7278768.7263326c.0900275.3578646-.0243451.7362253-.297537.9842943l-2.121 2.121c-.1868359.1890172-.4412297.2958841-.707.297z"/><path id="Shape" d="m22.008 31.053c-.4043959-.0000863-.7689341-.2437275-.923678-.6173454-.1547439-.373618-.0692299-.8036603.216678-1.0896546l.707-.707c.3923789-.3789722 1.0160848-.3735524 1.4018186.0121814s.3911536 1.0094397.0121814 1.4018186l-.707.707c-.1870531.1882061-.4416514.2937185-.707.293z"/></g></g></g></svg>