<svg id="Capa_1" enable-background="new 0 0 58 58" height="512" viewBox="0 0 58 58" width="512" xmlns="http://www.w3.org/2000/svg"><g id="Page-1"><g id="_x30_26---Corn-Dog" transform="translate(-1)"><path id="Shape" d="m17.85 44-13.4 13.41c-.79.79-2.07.79-2.86 0s-.79-2.07 0-2.86l13.41-13.4c.19.242.393.472.61.69l1.55 1.55c.218.217.448.42.69.61z" fill="#e4c05c"/><path id="Shape_1_" d="m56.65 15.2-29.4 29.41c-2.873 2.868-7.438 3.131-10.62.61-.242-.19-.472-.393-.69-.61l-1.55-1.55c-.217-.218-.42-.448-.61-.69-2.521-3.182-2.258-7.747.61-10.62l29.41-29.4c1.498-1.503 3.533-2.348 5.655-2.348s4.157.845 5.655 2.348l1.54 1.54c1.503 1.498 2.348 3.533 2.348 5.655s-.845 4.157-2.348 5.655z" fill="#d25627"/><g fill="#f5efca"><path id="Shape_2_" d="m41.6 11.262c-.404 0-.769-.244-.924-.617s-.069-.804.217-1.09l5-5c1.97-1.966 5.159-1.966 7.129 0 .39.393.388 1.027-.004 1.418-.393.39-1.027.388-1.418-.004-1.204-1.146-3.096-1.146-4.3 0l-5 5c-.186.185-.437.291-.7.293z"/><path id="Shape_3_" d="m36.594 16.262c-.404 0-.769-.244-.924-.617s-.069-.804.217-1.09l2.143-2.143c.251-.26.623-.364.973-.273.35.092.623.365.714.714s-.013.721-.273.973l-2.144 2.143c-.187.187-.441.293-.706.293z"/><circle id="Oval" cx="33.022" cy="18.834" r="1.01"/></g><path id="Shape_5_" d="m26.593 40.551c-.404 0-.769-.244-.924-.617-.155-.374-.069-.804.217-1.09l14.287-14.287c.392-.379 1.016-.374 1.402.012s.391 1.009.012 1.402l-14.287 14.287c-.187.188-.442.293-.707.293z" fill="#c03a2b"/></g></g></svg>