<svg height="512" viewBox="0 0 42 58" width="512" xmlns="http://www.w3.org/2000/svg"><g id="Page-1" fill="none" fill-rule="evenodd"><g id="027---Pretzel" fill-rule="nonzero"><path id="Shape" d="m39.71 13.85c-1.2955825-6.16013876-6.2319222-10.89807252-12.44-11.94-3.3332516-.51161727-6.7432025-.07497721-9.84 1.26-.67.28-1.32.6-1.95.94v.01h-.01c-.01-.14-.02-.27-.03-.4-.1747735-2.18705675-2.0786554-3.82514145-4.2673019-3.67155222-2.18864648.15358922-3.84508865 2.04152123-3.7126981 4.23155222.04.59.08 1.21.12 1.85.08 1.36.18 2.84.32 4.37-1.19972125 1.436795-2.26109828 2.98366-3.17 4.62-1.50451068 2.5037548-2.41452199 5.3193161-2.66 8.23l.01.09c.60082209-.1814809 1.25227975-.0623573 1.75.32 1.74763959 1.3044093 3.66110327 2.3704339 5.69 3.17 1.9164624.7528375 3.9077102 1.2992574 5.94 1.63h.01c1.8281539.2980207 3.6777214.4451833 5.53.44.96 0 1.88-.04 2.77-.11h.01c5.1887095-.297912 10.1829878-2.0783601 14.39-5.13.0719193-.0569269.1489084-.1071372.23-.15 1.5030794-3.019221 1.963736-6.4512884 1.31-9.76z" fill="#f3d55b"/><path id="Shape" d="m10.44 21.81v.01c-.3082697 1.03472-.45664819 2.1104638-.44 3.19-.00244475.6662088-.16719735 1.3217869-.48 1.91v.01c-2.02889673-.7995661-3.94236041-1.8655907-5.69-3.17-.49772025-.3823573-1.14917791-.5014809-1.75-.32l-.01-.09c.24547801-2.9106839 1.15548932-5.7262452 2.66-8.23.90890172-1.63634 1.97027875-3.183205 3.17-4.62.24998984 3.8796332 1.10707634 7.6960301 2.54 11.31z" fill="#f0c419"/><path id="Shape" d="m28.69 23c-1.7760379 1.0780601-3.9432991 1.2984595-5.9.6-4-1.46-5.67-5.22-6.49-10.32 2.8-2.45 6.22-4 9.77-3.46 2.879027.5530264 5.1565135 2.7598322 5.8 5.62.5244295 2.9266963-.7212537 5.8881317-3.18 7.56z" fill="#d25627"/><path id="Shape" d="m18.13 11.88c-.6392124.4190924-1.2474488.8836246-1.82 1.39-.35-2.2-.56-4.71-.74-7.65-.03-.49-.06-.99-.09-1.5v-.01c.63-.34 1.28-.66 1.95-.94.05.77.1 1.57.14 2.33.15 2.41.31 4.51.56 6.38z" fill="#f0c419"/><path id="Shape" d="m15.46 28.55v.01c-2.0322898-.3307426-4.0235376-.8771625-5.94-1.63v-.01c.31280265-.5882131.47755525-1.2437912.48-1.91-.01664819-1.0795362.1317303-2.15528.44-3.19 1.0858926 2.6268767 2.8115964 4.9404198 5.02 6.73z" fill="#d25627"/><g fill="#b19046"><circle id="Oval" cx="12" cy="4.999" r="1"/><circle id="Oval" cx="11" cy="9.999" r="1"/><circle id="Oval" cx="13" cy="14.999" r="1"/><circle id="Oval" cx="6" cy="20.999" r="1"/><circle id="Oval" cx="14" cy="20.999" r="1"/><circle id="Oval" cx="18" cy="24.999" r="1"/><circle id="Oval" cx="35" cy="20.999" r="1"/><circle id="Oval" cx="36" cy="14.999" r="1"/><circle id="Oval" cx="33" cy="8.999" r="1"/><circle id="Oval" cx="27" cy="5.999" r="1"/><circle id="Oval" cx="20" cy="5.999" r="1"/></g><path id="Shape" d="m21 58c8.728 0 13.055-1.354 15.147-2.487 1.1301352-.6200419 1.8880895-1.7510053 2.032-3.032l3.162-26.881c.0911746-.791345-.2959482-1.561345-.9854929-1.960178-.6895448-.398833-1.5500229-.3504461-2.1905071.123178-3.294 2.467-8.845 5.237-17.165 5.237s-13.871-2.77-17.165-5.236c-.6403378-.4734385-1.50053152-.5218775-2.18997292-.1233214-.68944141.3985562-1.07674039 1.1681529-.98602708 1.9593214l3.162 26.88c.14391046 1.2809947.90186482 2.4119581 2.032 3.032 2.092 1.134 6.419 2.488 15.147 2.488z" fill="#f29c1f"/><path id="Shape" d="m41.34 25.6-3.16 26.88c-.1432844 1.2801611-.9005839 2.4105146-2.03 3.03-1.6225563.8154537-3.3587055 1.3818092-5.15 1.68v-20.25c0-4.81-3.75-7.03-7.22-8.05 5.1887095-.297912 10.1829878-2.0783601 14.39-5.13.0719193-.0569269.1489084-.1071372.23-.15.6563179-.3559526 1.4562595-.3166901 2.0745654.101823.6183058.4185132.9520129 1.1465844.8654346 1.888177z" fill="#e57e25"/><path id="Shape" d="m8 52c-.5131825-.0005068-.94268198-.3893896-.994-.9l-1.1-10.961c-.03572656-.3554793.12090667-.7030155.41089746-.9116953.28999079-.2086797.66928265-.2467995.995-.1s.54837598.456216.58410254.8116953l1.104 10.961c.02789028.2654886-.05152738.531108-.22056993.7377155-.16904255.2066076-.41367584.3370505-.67943007.3622845-.03330608.0019063-.06669392.0019063-.1 0z" fill="#fff"/><path id="Shape" d="m6.4 36c-.5131825-.0005068-.94268198-.3893896-.994-.9l-.4-4c-.05522847-.5506279.3463721-1.0417715.897-1.097s1.04177153.3463721 1.097.897l.4 4c.02647378.2646777-.05359441.5289965-.22249411.7344911-.16889971.2054947-.4127114.3352298-.67750589.3605089-.03320686.003621-.06659757.0052905-.1.005z" fill="#fff"/></g></g></svg>