<svg height="512" viewBox="0 0 58 58" width="512" xmlns="http://www.w3.org/2000/svg"><g id="Page-1" fill="none" fill-rule="evenodd"><g id="028---Kebab" fill-rule="nonzero"><path id="Shape" d="m57.92 1.4-1.07 2.49c-.0484718.11933561-.1198102.22804179-.21.32l-3.92 3.91-1.42-1.42-1.42-1.42 3.91-3.92c.0919582-.09018975.2006644-.16152818.32-.21l2.49-1.07c.3775995-.15777302.8130985-.07184485 1.1024717.21752833.2893732.28937319.3753013.72487221.2175283 1.10247167z" fill="#95a5a5"/><path id="Shape" d="m15.55 45.29-12.12 12.12c-.78424435.7842443-2.05575564.7842443-2.83999998 0-.78424434-.7842444-.78424435-2.0557557-.00000002-2.84l12.12-12.12c.6459593 1.2059648 1.6340352 2.1940407 2.84 2.84z" fill="#95a5a5"/><circle id="Oval" cx="46.825" cy="11.175" fill="#e64c3c" r="7.036"/><path id="Shape" d="m48.956 14.309c-.4043959-.0000863-.7689341-.2437275-.923678-.6173454-.1547439-.373618-.0692299-.8036603.216678-1.0896546.7850591-.7882013.7850591-2.0627987 0-2.851-.3789722-.39237889-.3735524-1.01608478.0121814-1.40181858.3857338-.38573379 1.0094397-.39115363 1.4018186-.01218142 1.5669212 1.56874724 1.5669212 4.1102528 0 5.679-.1874927.1875494-.4418052.2929434-.707.293z" fill="#fff"/><path id="Shape" d="m46.12 24.67-.02.02c-1.1712702 1.1698135-3.0687298 1.1698135-4.24 0l-4.28-4.27-4.27-4.28c-1.1698135-1.1712702-1.1698135-3.0687298 0-4.24l.02-.02c.5601348-.5662452 1.3235173-.8848772 2.12-.8848772s1.5598652.318632 2.12.8848772l8.55 8.55c.5662452.5601348.8848772 1.3235173.8848772 2.12s-.318632 1.5598652-.8848772 2.12z" fill="#4fba6f"/><circle id="Oval" cx="43.27" cy="21.837" fill="#24ae5f" r="1.005"/><path id="Shape" d="m37.58 30.37c-2.7095799 2.6976315-7.0761554 2.7420072-9.84.1l-.21-.21c-2.6735123-2.7910238-2.5939248-7.2164143.1782152-9.909502 2.7721399-2.6930877 7.197981-2.6446457 9.9105108.1084732s2.6952355 7.1791913-.038726 9.9110288z" fill="#e64c3c"/><path id="Shape" d="m34.742 28.522c-.4043959-.0000863-.7689341-.2437275-.923678-.6173454-.1547439-.373618-.0692299-.8036603.216678-1.0896546.7854929-.7876318.7854929-2.0623682 0-2.85-.3789722-.3923789-.3735524-1.0160848.0121814-1.4018186s1.0094397-.3911536 1.4018186-.0121814c1.5668065 1.5684043 1.5668065 4.1095957 0 5.678-.1870531.1882061-.4416514.2937185-.707.293z" fill="#fff"/><path id="Shape" d="m23.37 44.58c-2.1979858 2.2040473-5.5852635 2.6966682-8.32 1.21-1.2059648-.6459593-2.1940407-1.6340352-2.84-2.84-1.7226665-3.1864163-.743798-7.1600864 2.2618183-9.1817439 3.0056164-2.0216576 7.0551119-1.430199 9.3569497 1.3666512 2.3018379 2.7968503 2.1032925 6.8844922-.458768 9.4450927z" fill="#e64c3c"/><path id="Shape" d="m20.528 42.736c-.4043959-.0000863-.7689341-.2437275-.923678-.6173454-.1547439-.373618-.0692299-.8036603.216678-1.0896546.7854929-.7876318.7854929-2.0623682 0-2.85-.2599566-.2510745-.3642126-.6228779-.2726972-.9725073.0915155-.3496295.3645604-.6226744.7141899-.7141899.3496294-.0915154.7214328.0127406.9725073.2726972 1.5668065 1.5684043 1.5668065 4.1095957 0 5.678-.1870531.1882061-.4416514.2937185-.707.293z" fill="#fff"/><path id="Shape" d="m31.91 38.88-.02.02c-.5601348.5662452-1.3235173.8848772-2.12.8848772s-1.5598652-.318632-2.12-.8848772l-4.28-4.27-4.27-4.28c-.5662452-.5601348-.8848772-1.3235173-.8848772-2.12s.318632-1.5598652.8848772-2.12l.02-.02c1.1712702-1.1698135 3.0687298-1.1698135 4.24 0l4.38 4.38 4.17 4.17c1.1698135 1.1712702 1.1698135 3.0687298 0 4.24z" fill="#4fba6f"/><circle id="Oval" cx="29.056" cy="36.051" fill="#24ae5f" r="1.005"/></g></g></svg>