<svg height="512" viewBox="0 0 58 58" width="512" xmlns="http://www.w3.org/2000/svg"><g id="Page-1" fill="none" fill-rule="evenodd"><g id="030---Wrap" fill-rule="nonzero"><path id="Shape" d="m35.77 2.28-10.69 10.69-15.67 15.67-7.13 7.13c-3.93 3.93-2.65 11.59 2.85 17.1s13.17 6.78 17.1 2.85l7.13-7.13 15.67-15.67 10.69-10.69z" fill="#f0c419"/><path id="Shape" d="m52.87 5.13c-5.51-5.5-13.17-6.78-17.1-2.85s-2.66 11.59 2.85 17.1 13.16 6.79 17.1 2.85 2.65-11.59-2.85-17.1zm.83 10.8c-.0265015.7538293-.3207687 1.473543-.83 2.03-1.69 1.68-6.2.93-9.98-2.85-.6870932-.679265-1.3035764-1.4264158-1.84-2.23-2.14-3.18-2.37-6.38-1.01-7.75 1.26-1.26 4.1-1.15 7.04.56 1.0734011.63519462 2.0613772 1.4047406 2.94 2.29 2.71 2.71 3.86 5.8 3.68 7.95z" fill="#f29c1f"/><path id="Shape" d="m53.7 15.93c-.0265015.7538293-.3207687 1.473543-.83 2.03-1.69 1.68-6.2.93-9.98-2.85-.6870932-.679265-1.3035764-1.4264158-1.84-2.23 1.762905-1.0405607 3.8655308-1.3424762 5.85-.84 2.5391511.6033845 4.855309 1.9140247 6.68 3.78.0341215.0391264.0708736.0758785.11.11z" fill="#24ae5f"/><path id="Shape" d="m46.9 12.04c-1.9844692-.5024762-4.087095-.2005607-5.85.84-2.14-3.18-2.37-6.38-1.01-7.75 1.26-1.26 4.1-1.15 7.04.56l-.01.01c.7686633 2.05524517.7076978 4.3289002-.17 6.34z" fill="#e64c3c"/><path id="Shape" d="m53.7 15.93h-.01c-.0391264-.0341215-.0758785-.0708736-.11-.11-1.824691-1.8659753-4.1408489-3.1766155-6.68-3.78.8776978-2.0110998.9386633-4.28475483.17-6.34l.01-.01c1.0734011.63519462 2.0613772 1.4047406 2.94 2.29 2.71 2.71 3.86 5.8 3.68 7.95z" fill="#f0c419"/><path id="Shape" d="m45.03 32.92-15.67 15.67h-4.02c-.9783144.0012853-1.8206495-.6901838-2.01-1.65-.1962683-.9653954-1.0448558-1.6593143-2.03-1.66-.09 0-.18.01-.28.02l-1.03.15c-1.1209319.1593585-2.1591232-.619285-2.32-1.74l-.21-1.43c-.1311984-.9010655-.8389345-1.6088016-1.74-1.74l-1.43-.21c-1.120715-.1608768-1.8993585-1.1990681-1.74-2.32l.15-1.03c.1473248-1.0818252-.5701035-2.0923492-1.64-2.31-.9598162-.1893505-1.6512853-1.0316856-1.65-2.01v-4.02l15.67-15.67v4.01c-.0017475.9805345.6888487 1.8259917 1.65 2.02h.01c1.0696505.2163588 1.7846974 1.2297074 1.63 2.31l-.15 1.02c-.0781533.5412362.062532 1.0913084.390942 1.5285629.32841.4372544.8174838.7256615 1.359058.8014371l1.42.2c.9080996.1282439 1.6217561.8419004 1.75 1.75l.2 1.42c.0757756.5415742.3641827 1.030648.8014371 1.359058.4372545.32841.9873267.4690953 1.5285629.390942l1.02-.15c1.0802926-.1546974 2.0936412.5603495 2.31 1.63v.01c.1940083.9611513 1.0394655 1.6517475 2.02 1.65z" fill="#f5efca"/></g></g></svg>