<svg height="512" viewBox="0 0 60 59" width="512" xmlns="http://www.w3.org/2000/svg"><g id="Page-1" fill="none" fill-rule="evenodd"><g id="031---Burger-Stand" fill-rule="nonzero"><path id="Shape" d="m35 32c-.5522847 0-1-.4477153-1-1v-3c0-.5522847.4477153-1 1-1s1 .4477153 1 1v3c0 .5522847-.4477153 1-1 1z" fill="#e64c3c"/><path id="Shape" d="m39 32c-.5522847 0-1-.4477153-1-1v-3c0-.5522847.4477153-1 1-1s1 .4477153 1 1v3c0 .5522847-.4477153 1-1 1z" fill="#f0c419"/><path id="Shape" d="m43 32c-.5522847 0-1-.4477153-1-1v-3c0-.5522847.4477153-1 1-1s1 .4477153 1 1v3c0 .5522847-.4477153 1-1 1z" fill="#805333"/><path id="Shape" d="m12 20.013v12.557h-4v-12.57c.45605348.2928647.97210824.4794646 1.51.546.8661267.1030669 1.7419588-.0844104 2.49-.533z" fill="#a56a43"/><path id="Shape" d="m52 20v12.57h-4v-12.557c.7480412.4485896 1.6238733.6360669 2.49.533.5378918-.0665354 1.0539465-.2531353 1.51-.546z" fill="#a56a43"/><path id="Rectangle-path" d="m12 53h36v5h-36z" fill="#95a5a5"/><path id="Shape" d="m54 33v14c0 3.3137085-2.6862915 6-6 6h-36c-3.3137085 0-6-2.6862915-6-6v-14c.0032948-1.1032019.89679813-1.9967052 2-2h44c1.1032019.0032948 1.9967052.8967981 2 2z" fill="#2980ba"/><path id="Shape" d="m40 43c-.0081672 1.1011688-.8988312 1.9918328-2 2h-16c-1.1032019-.0032948-1.9967052-.8967981-2-2 .0081672-1.1011688.8988312-1.9918328 2-2h16c1.1032019.0032948 1.9967052.8967981 2 2z" fill="#805333"/><path id="Shape" d="m38 45v2c-.0032948 1.1032019-.8967981 1.9967052-2 2h-12c-1.1032019-.0032948-1.9967052-.8967981-2-2v-2z" fill="#f29c1f"/><path id="Shape" d="m38 41h-16c0-4.42 3.58-6 8-6s8 1.58 8 6z" fill="#f29c1f"/><path id="Shape" d="m28 31h-12v-3c0-.5522847.4477153-1 1-1h10c.5522847 0 1 .4477153 1 1z" fill="#bdc3c7"/><path id="Shape" d="m10 38c-.55228475 0-1-.4477153-1-1v-2c0-.5522847.44771525-1 1-1 .5522847 0 1 .4477153 1 1v2c0 .5522847-.4477153 1-1 1z" fill="#fff"/><path id="Shape" d="m10 48c-.55228475 0-1-.4477153-1-1v-6c0-.5522847.44771525-1 1-1 .5522847 0 1 .4477153 1 1v6c0 .5522847-.4477153 1-1 1z" fill="#fff"/><path id="Shape" d="m51.86 8.74-21.86-8.74-21.86 8.74c-1.76914895.70846308-2.98258717 2.3599796-3.13 4.26 0 .13-.01.26-.01.39v3.4c-.01197015 2.0403995 1.15738232 3.9035678 3 4.78.47512338.2248969.98637942.3637147 1.51.41.8504818.0797028 1.7072722-.0579343 2.49-.4 1.8233837-.7923733 3.0021068-2.5918906 3-4.58 0 2.7614237 2.2385763 5 5 5s5-2.2385763 5-5c0 2.7614237 2.2385763 5 5 5s5-2.2385763 5-5c0 2.7614237 2.2385763 5 5 5s5-2.2385763 5-5c-.0021068 1.9881094 1.1766163 3.7876267 3 4.58.7827278.3420657 1.6395182.4797028 2.49.4.5236206-.0462853 1.0348766-.1851031 1.51-.41 1.8426177-.8764322 3.0119702-2.7396005 3-4.78v-3.4c0-.13-.01-.26-.01-.39-.1474128-1.9000204-1.360851-3.55153692-3.13-4.26z" fill="#f0c419"/><path id="Shape" d="m15.0000028 13-.0000028 4c.0021068 1.9881094-1.1766163 3.7876267-3 4.58-.7827278.3420657-1.6395182.4797028-2.49.4-.52362058-.0462853-1.03487662-.1851031-1.51-.41-1.84261768-.8764322-3.01197015-2.7396005-3-4.78v-3.4c0-.13.01-.26.01-.39z" fill="#f3d55b"/><path id="Shape" d="m25 13v4c0 2.7614237-2.2385763 5-5 5s-5-2.2385763-5-5v-4z" fill="#ff5364"/><path id="Shape" d="m30 0-5 13h-10z" fill="#df4d60"/><path id="Shape" d="m35 13v4c0 2.7614237-2.2385763 5-5 5s-5-2.2385763-5-5v-4z" fill="#f3d55b"/><path id="Shape" d="m55 13.39v3.4c.0119702 2.0403995-1.1573823 3.9035678-3 4.78-.4751234.2248969-.9863794.3637147-1.51.41-.8504818.0797028-1.7072722-.0579343-2.49-.4-1.8233837-.7923733-3.0021068-2.5918906-3-4.58l-.0000028-4h9.9900028c0 .13.01.26.01.39z" fill="#f3d55b"/><path id="Shape" d="m45 13v4c0 2.7614237-2.2385763 5-5 5s-5-2.2385763-5-5v-4z" fill="#ff5364"/><path id="Shape" d="m45 13h-10l-5-13z" fill="#df4d60"/><g fill="#464f5d"><path id="Shape" d="m4 59h-3c-.55228475 0-1-.4477153-1-1s.44771525-1 1-1h3c.55228475 0 1 .4477153 1 1s-.44771525 1-1 1z"/><path id="Shape" d="m59 59h-51c-.55228475 0-1-.4477153-1-1s.44771525-1 1-1h51c.5522847 0 1 .4477153 1 1s-.4477153 1-1 1z"/></g></g></g></svg>