<svg height="512" viewBox="0 0 60 59" width="512" xmlns="http://www.w3.org/2000/svg"><g id="Page-1" fill="none" fill-rule="evenodd"><g id="032---Hot-Dog-Stand" fill-rule="nonzero" transform="translate(0 -1)"><path id="Shape" d="m38 33c-.5522847 0-1-.4477153-1-1v-3c0-.5522847.4477153-1 1-1s1 .4477153 1 1v3c0 .5522847-.4477153 1-1 1z" fill="#c03a2b"/><path id="Shape" d="m46 33c-.5522847 0-1-.4477153-1-1v-3c0-.5522847.4477153-1 1-1s1 .4477153 1 1v3c0 .5522847-.4477153 1-1 1z" fill="#f0c419"/><path id="Shape" d="m24 34v7h-13v-7c0-.5522847.4477153-1 1-1h11c.5522847 0 1 .4477153 1 1z" fill="#bdc3c7"/><path id="Rectangle-path" d="m28 23h4v18h-4z" fill="#7f8c8d"/><path id="Shape" d="m4 60h-3c-.55228475 0-1-.4477153-1-1s.44771525-1 1-1h3c.55228475 0 1 .4477153 1 1s-.44771525 1-1 1z" fill="#464f5d"/><path id="Shape" d="m59 60h-51c-.55228475 0-1-.4477153-1-1s.44771525-1 1-1h51c.5522847 0 1 .4477153 1 1s-.4477153 1-1 1z" fill="#464f5d"/><path id="Shape" d="m52 21h-44l21.33-19.74c.3780468-.35014399.9619532-.35014399 1.34 0z" fill="#f9eab0"/><path id="Shape" d="m49 41v11c0 1.6568542-1.3431458 3-3 3h-32c-1.6568542 0-3-1.3431458-3-3v-11z" fill="#2980ba"/><path id="Shape" d="m54 23c-.0081672 1.1011688-.8988312 1.9918328-2 2h-44c-1.10320187-.0032948-1.9967052-.8967981-2-2 .00816722-1.1011688.89883122-1.9918328 2-2h44c1.1032019.0032948 1.9967052.8967981 2 2z" fill="#f3d55b"/><path id="Shape" d="m40 33v8h-4v-8c.0032948-1.1032019.8967981-1.9967052 2-2 1.1011688.0081672 1.9918328.8988312 2 2z" fill="#e64c3c"/><path id="Shape" d="m48 33v8h-4v-8c.0032948-1.1032019.8967981-1.9967052 2-2 1.1011688.0081672 1.9918328.8988312 2 2z" fill="#f3d55b"/><path id="Shape" d="m54 41c-.0081672 1.1011688-.8988312 1.9918328-2 2h-44c-1.10320187-.0032948-1.9967052-.8967981-2-2 .00816722-1.1011688.89883122-1.9918328 2-2h44c1.1032019.0032948 1.9967052.8967981 2 2z" fill="#95a5a5"/><circle id="Oval" cx="20" cy="55" fill="#7f8c8d" r="4"/><circle id="Oval" cx="20" cy="55" fill="#ecf0f1" r="1"/><circle id="Oval" cx="40" cy="55" fill="#7f8c8d" r="4"/><path id="Shape" d="m20 60c-2.7614237 0-5-2.2385763-5-5s2.2385763-5 5-5 5 2.2385763 5 5c-.0033061 2.7600532-2.2399468 4.9966939-5 5zm0-8c-1.6568542 0-3 1.3431458-3 3s1.3431458 3 3 3 3-1.3431458 3-3-1.3431458-3-3-3z" fill="#393f4a"/><path id="Shape" d="m40 60c-2.7614237 0-5-2.2385763-5-5s2.2385763-5 5-5 5 2.2385763 5 5c-.0033061 2.7600532-2.2399468 4.9966939-5 5zm0-8c-1.6568542 0-3 1.3431458-3 3s1.3431458 3 3 3 3-1.3431458 3-3-1.3431458-3-3-3z" fill="#393f4a"/><circle id="Oval" cx="40" cy="55" fill="#ecf0f1" r="1"/></g></g></svg>