<svg height="512" viewBox="0 0 60 59" width="512" xmlns="http://www.w3.org/2000/svg"><g id="Page-1" fill="none" fill-rule="evenodd"><g id="033---Donut-Stand" fill-rule="nonzero"><path id="Rectangle-path" d="m12 52h36v6h-36z" fill="#7f8c8d"/><path id="Shape" d="m12 18.014v11.556h-4v-11.57c.45369759.3005899.97025737.4931881 1.51.563.8682802.1054633 1.746574-.0881847 2.49-.549z" fill="#805333"/><path id="Shape" d="m52 18v11.57h-4v-11.556c.743426.4608153 1.6217198.6544633 2.49.549.5397426-.0698119 1.0563024-.2624101 1.51-.563z" fill="#805333"/><path id="Shape" d="m8 28h44c1.1045695 0 2 .8954305 2 2v18c0 3.3137085-2.6862915 6-6 6h-36c-3.3137085 0-6-2.6862915-6-6v-18c0-1.1045695.8954305-2 2-2z" fill="#71c285"/><path id="Shape" d="m15.0000028 11-.0000028 4c.0021068 1.9881094-1.1766163 3.7876267-3 4.58-.7827278.3420657-1.6395182.4797028-2.49.4-.52362058-.0462853-1.03487662-.1851031-1.51-.41-1.84261768-.8764322-3.01197015-2.7396005-3-4.78l-.00009103-3.79z" fill="#71c285"/><path id="Shape" d="m30 0-15 11h-10.00000004l.00000004-.08c-.00025681-1.7393469 1.12352887-3.27949921 2.78-3.81z" fill="#4fba6f"/><path id="Shape" d="m25 11v4c0 2.7614237-2.2385763 5-5 5s-5-2.2385763-5-5v-4z" fill="#ff5364"/><path id="Shape" d="m30 0-5 11h-10z" fill="#df4d60"/><path id="Shape" d="m35 11v4c0 2.7614237-2.2385763 5-5 5s-5-2.2385763-5-5v-4z" fill="#71c285"/><path id="Shape" d="m35 11h-10l5-11z" fill="#4fba6f"/><path id="Shape" d="m45 11v4c0 2.7614237-2.2385763 5-5 5s-5-2.2385763-5-5v-4z" fill="#ff5364"/><path id="Shape" d="m55.000091 11-.000091 3.79c.0119702 2.0403995-1.1573823 3.9035678-3 4.78-.4751234.2248969-.9863794.3637147-1.51.41-.8504818.0797028-1.7072722-.0579343-2.49-.4-1.8233837-.7923733-3.0021068-2.5918906-3-4.58l-.0000028-4z" fill="#71c285"/><path id="Shape" d="m55 10.92v.08h-10l-15-11 22.22 7.11c1.6564711.53050079 2.7802568 2.0706531 2.78 3.81z" fill="#4fba6f"/><path id="Shape" d="m45 11h-10l-5-11z" fill="#df4d60"/><path id="Shape" d="m38.99 41.41c-.2267582 4.8704008-4.2905711 8.6745643-9.1653254 8.5797247-4.8747542-.0948395-8.787526-4.0541895-8.8246746-8.9297247.0440179.0009936.0877189.0077169.13.02.7162991.1965039 1.4001478.4963193 2.03.89.6349747.3895532 1.3369407.6574532 2.07.79.7230054.0763146 1.4526048-.0591824 2.1-.39.6320683 1.2337505 2.027132 1.8737816 3.3745927 1.5482046 1.3474606-.3255769 2.2963869-1.5319688 2.2954073-2.9182046.0003558-.1982074-.0197508-.395922-.06-.59.5324796-.0001273 1.0618763.0807995 1.57.24.8752027.3661648 1.7738661.6735144 2.69.92.6011022.0821505 1.2129967.027456 1.79-.16z" fill="#fac176"/><path id="Shape" d="m39 41c0 .14 0 .28-.01.41-.5770033.187456-1.1888978.2421505-1.79.16-.9161339-.2464856-1.8147973-.5538352-2.69-.92-.5081237-.1592005-1.0375204-.2401273-1.57-.24-.229971-1.1486077-1.1074519-2.0583033-2.2470254-2.3295198-1.1395736-.2712165-2.3327763.14566-3.055516 1.0675243-.7227396.9218643-.8428046 2.1800785-.3074586 3.2219955-.6473952.3308176-1.3769946.4663146-2.1.39-.7330593-.1325468-1.4350253-.4004468-2.07-.79-.6298522-.3936807-1.3137009-.6934961-2.03-.89-.0422811-.0122831-.0859821-.0190064-.13-.02v-.06c0-4.9705627 4.0294373-9 9-9s9 4.0294373 9 9z" fill="#ff5364"/><path id="Shape" d="m10 35c-.55228475 0-1-.4477153-1-1v-2c0-.5522847.44771525-1 1-1 .5522847 0 1 .4477153 1 1v2c0 .5522847-.4477153 1-1 1z" fill="#fff"/><path id="Shape" d="m10 49c-.55228475 0-1-.4477153-1-1v-10c0-.5522847.44771525-1 1-1 .5522847 0 1 .4477153 1 1v10c0 .5522847-.4477153 1-1 1z" fill="#fff"/><g fill="#464f5d"><path id="Shape" d="m4 59h-3c-.55228475 0-1-.4477153-1-1s.44771525-1 1-1h3c.55228475 0 1 .4477153 1 1s-.44771525 1-1 1z"/><path id="Shape" d="m59 59h-51c-.55228475 0-1-.4477153-1-1s.44771525-1 1-1h51c.5522847 0 1 .4477153 1 1s-.4477153 1-1 1z"/></g></g></g></svg>