<svg height="512" viewBox="0 0 60 59" width="512" xmlns="http://www.w3.org/2000/svg"><g id="Page-1" fill="none" fill-rule="evenodd"><g id="034---Hot-Dog-and-Soda" fill-rule="nonzero"><path id="Shape" d="m32.43 55c.4451509 1.7342135 1.9900059 2.9602889 3.78 3h17.59c1.3390794-.0689334 2.5643347-.7744303 3.2961957-1.8979359s.8819624-2.5293669.4038043-3.7820641l-.49-1.45c-.6785144-1.8647923-1.053282-3.8264136-1.11-5.81-.0338879-2.7561841.3988888-5.49823 1.28-8.11 1.2299691-3.9135505 1.0853059-8.1299526-.41-11.95-.7393483-1.904466-1.8471676-3.6443539-3.26-5.12-.5439235-.5737329-1.0203602-1.2078634-1.42-1.89-1.8144252-3.0341603-2.8709173-6.4608992-3.08-9.99v-4l-1-4h-6l-1 4v4c-.2137693 3.531391-1.2698697 6.9602882-3.08 10-.4062371.6772411-.885792 1.3077049-1.43 1.88-1.2208462 1.2621182-2.2123518 2.7273806-2.93 4.33z" fill="#a56a43"/><path id="Shape" d="m57.18 36.95c-.8811112 2.61177-1.3138879 5.3538159-1.28 8.11h-15.07c1.0961501-1.5724916 1.2787303-3.6075005.48-5.35 1.050986.83782 2.3559367 1.2927893 3.7 1.29 3.3137085 0 6-2.6862915 6-6s-2.6862915-6-6-6-6 2.6862915-6 6c-.0020324.8335514.171749 1.6581612.51 2.42-2.38-2.67-4.46-7.02-5.65-11.87-.05-.18-.09-.37-.13-.55h23.03c1.4953059 3.8200474 1.6399691 8.0364495.41 11.95z" fill="#e64c3c"/><path id="Shape" d="m52.09 17.99-.01.01h-14.15c1.8101303-3.0397118 2.8662307-6.468609 3.08-10v-4h8v4c.2090827 3.5291008 1.2655748 6.9558397 3.08 9.99z" fill="#67b9cc"/><path id="Shape" d="m50.01 2v1c0 .55228475-.4477153 1-1 1h-8c-.5522847 0-1-.44771525-1-1v-1c.0032948-1.10320187.8967981-1.9967052 2-2h6c1.1045695 0 2 .8954305 2 2z" fill="#e64c3c"/><circle id="Oval" cx="43" cy="49" fill="#cf976a" r="1"/><path id="Shape" d="m51.01 35c0 3.3137085-2.6862915 6-6 6-1.3440633.0027893-2.649014-.45218-3.7-1.29h-.01c-.2705121-.6008999-.6541575-1.1441146-1.13-1.6-.22-.22-.44-.45-.65-.69-.338251-.7618388-.5120324-1.5864486-.51-2.42.0000001-3.3137084 2.6862916-5.9999998 6-5.9999998s5.9999999 2.6862914 6 5.9999998z" fill="#c03a2b"/><path id="Shape" d="m45.01 42c-3.8659932 0-7-3.1340068-7-7s3.1340068-7 7-7 7 3.1340068 7 7c-.0044086 3.8641657-3.1358343 6.9955914-7 7zm0-12c-2.7614237 0-5 2.2385763-5 5s2.2385763 5 5 5 5-2.2385763 5-5c-.0033061-2.7600532-2.2399468-4.9966939-5-5z" fill="#fff"/><path id="Shape" d="m25.84 53.89c-.3375288.7517586-.8084678 1.4361447-1.39 2.02-1.3021356 1.3235732-3.0767717 2.0755965-4.9334295 2.0905998s-3.6432152-.7082427-4.9665705-2.0105998c-5.21-5.14-9.51-13.45-11.81-22.8-2.3-9.35-2.32-18.71-.08-25.67.56851134-1.76793142 1.81624757-3.23749686 3.46856325-4.08522296 1.65231568-.84772609 3.57377528-1.00412718 5.34143675-.43477704.7868077.24923382 1.5219959.6388497 2.17 1.15 2.3089 1.81012763 3.2465527 4.86647631 2.35 7.66-1.45 4.5-1.32 11.24.35 18.04s4.67 12.85 8.04 16.16c2.090874 2.0606587 2.6738344 5.2070476 1.46 7.88z" fill="#f29c1f"/><path id="Shape" d="m40.83 45.06c-.1843269.2735614-.3953622.5281437-.63.76-.8429179.8413145-1.9325385 1.3913802-3.11 1.57h-.02c-.1996408-1.5197656-.903972-2.928428-2-4-3.37-3.31-6.38-9.36-8.05-16.16s-1.8-13.55-.35-18.04c.4732374-1.46331589.4486231-3.04214741-.07-4.49h.01c1.1295706-.38359455 2.3519343-.39760445 3.49-.04 1.3859115.42386797 2.5425738 1.38828468 3.2087137 2.67540254.66614 1.28711786.7855605 2.78835266.3312863 4.16459746-1.05 3.21-1.07 7.88-.07 12.71.05.26.11.52.17.79.04.18.08.37.13.55 1.19 4.85 3.27 9.2 5.65 11.87.21.24.43.47.65.69.4758425.4558854.8594879.9991001 1.13 1.6h.01c.7987303 1.7424995.6161501 3.7775084-.48 5.35z" fill="#f29c1f"/><path id="Shape" d="m35.14 53.29c-2.494828 2.5392318-6.4995698 2.7976023-9.3.6 1.2138344-2.6729524.630874-5.8193413-1.46-7.88-3.37-3.31-6.37-9.36-8.04-16.16s-1.8-13.54-.35-18.04c.8965527-2.79352369-.0411-5.84987237-2.35-7.66 1.550865-3.34880199 5.4352132-4.91834613 8.8771831-3.58699324s5.2590989 5.10622666 4.1528169 8.62699324c-1.45 4.49-1.32 11.24.35 18.04s4.68 12.85 8.05 16.16c1.096028 1.071572 1.8003592 2.4802344 2 4 .3219172 2.1608819-.3932436 4.3471249-1.93 5.9z" fill="#d25627"/><circle id="Oval" cx="41" cy="53" fill="#cf976a" r="1"/><circle id="Oval" cx="45" cy="53" fill="#cf976a" r="1"/><path id="Shape" d="m59 59h-58c-.55228475 0-1-.4477153-1-1s.44771525-1 1-1h58c.5522847 0 1 .4477153 1 1s-.4477153 1-1 1z" fill="#d25627"/><path id="Shape" d="m30.817 47.894c-.4601382-.0005822-.8604874-.3150834-.97-.762l-.947-3.854c-.1825466-.7895804-.8256703-1.3895918-1.626-1.517l-.624-.094c-2.0079642-.3156607-3.4628177-2.0827901-3.387-4.114l.093-3.016c.0207777-.6507643-.2668747-1.2731462-.776-1.679l-1.908-1.5c-1.4570956-1.1491408-1.9459412-3.1420318-1.186-4.835l.994-2.217c.2638473-.5951433.2308474-1.2799828-.089-1.847l-1.479-2.631c-1.0068143-1.7660784-.5343432-4.006021 1.1-5.215l.511-.372c.6514651-.4838481.943881-1.3147996.739-2.1l-.947-3.854c-.0852078-.34708352.0212237-.71325976.2792029-.96059368.2579793-.24733392.628313-.3382496.9715-.2385.3431871.0997496.6070893.37501016.6922971.72209368l.946 3.855c.3995266 1.571499-.1937449 3.2283084-1.5 4.189l-.51.373c-.8154472.6114947-1.0444591 1.7363597-.533 2.618l1.479 2.63c.6297948 1.1200042.6935601 2.4716806.172 3.646l-.995 2.217c-.3749641.8573048-.1291209 1.8595255.6 2.446l1.907 1.506c1.0042608.799856 1.5721219 2.026762 1.532 3.31l-.093 3.016c-.0443453 1.0182042.679292 1.9089009 1.685 2.074l.624.094c1.6025634.2462923 2.8962501 1.4387615 3.272 3.016l.946 3.855c.1312917.5362451-.1968226 1.0774322-.733 1.209-.078475.0197617-.1590752.0298367-.24.03z" fill="#f0c419"/></g></g></svg>