<svg height="512" viewBox="0 0 58 57" width="512" xmlns="http://www.w3.org/2000/svg"><g id="Page-1" fill="none" fill-rule="evenodd"><g id="036---Toastie" fill-rule="nonzero" transform="translate(-1 -1)"><path id="Shape" d="m55 47.05c0 5.52-11.19 10-25 10s-25-4.48-25-10c.00775751-.7677127.21819036-1.5197514.61-2.18.55631783.9014215 1.32112677 1.6559415 2.23 2.2 1.97683203 1.0506784 4.2053802 1.5351454 6.44 1.4 1.5125772.0389008 3.0170165-.2333959 4.42-.8 1.4038792-.5766344 2.485319-1.7384516 2.96-3.18.2058008.4899111.446416.9644578.72 1.42 1.6572114 2.6062508 4.5314901 4.1847446 7.62 4.1847446s5.9627886-1.5784938 7.62-4.1847446c.273584-.4555422.5141992-.9300889.72-1.42.474681 1.4415484 1.5561208 2.6033656 2.96 3.18 1.4029835.5666041 2.9074228.8389008 4.42.8 2.2346198.1351454 4.463168-.3493216 6.44-1.4.9088732-.5440585 1.6736822-1.2985785 2.23-2.2.3918096.6602486.6022425 1.4122873.61 2.18z" fill="#f29c1f"/><path id="Shape" d="m55 47.05c.003304.1004159-.0033957.2009113-.02.3-.5253813.5596308-1.1281604 1.0411806-1.79 1.43-2.1889066 1.2124994-4.6700095 1.7973061-7.17 1.69h-.33c-1.785169.030192-3.5578083-.3032411-5.21-.98-.740768-.3296538-1.4283099-.7677932-2.04-1.3-2.1021927 2.4801115-5.1888207 3.9100853-8.44 3.9100853s-6.3378073-1.4299738-8.44-3.9100853c-.6091631.5355797-1.2972421.9740614-2.04 1.3-1.6521917.6767589-3.424831 1.010192-5.21.98h-.33c-2.4999905.1073061-4.98109336-.4775006-7.17-1.69-.6600639-.3913949-1.26249897-.8726698-1.79-1.43-.01660427-.0990887-.02330397-.1995841-.02-.3.00775751-.7677127.21819036-1.5197514.61-2.18.55631783.9014215 1.32112677 1.6559415 2.23 2.2 1.97683203 1.0506784 4.2053802 1.5351454 6.44 1.4 1.5125772.0389008 3.0170165-.2333959 4.42-.8 1.4038792-.5766344 2.485319-1.7384516 2.96-3.18.2058008.4899111.446416.9644578.72 1.42 1.6572114 2.6062508 4.5314901 4.1847446 7.62 4.1847446s5.9627886-1.5784938 7.62-4.1847446c.273584-.4555422.5141992-.9300889.72-1.42.474681 1.4415484 1.5561208 2.6033656 2.96 3.18 1.4029835.5666041 2.9074228.8389008 4.42.8 2.2346198.1351454 4.463168-.3493216 6.44-1.4.9088732-.5440585 1.6736822-1.2985785 2.23-2.2.3918096.6602486.6022425 1.4122873.61 2.18z" fill="#e57e25"/><path id="Shape" d="m58.98 35.37c-.2326303 2.563817-1.6492809 4.8718849-3.83 6.24.1362564 1.1421374-.1327112 2.295867-.76 3.26-.5563178.9014215-1.3211268 1.6559415-2.23 2.2-1.976832 1.0506784-4.2053802 1.5351454-6.44 1.4-1.5125772.0389008-3.0170165-.2333959-4.42-.8-1.4038792-.5766344-2.485319-1.7384516-2.96-3.18-.2058008.4899111-.446416.9644578-.72 1.42-1.6572114 2.6062508-4.5314901 4.1847446-7.62 4.1847446s-5.9627886-1.5784938-7.62-4.1847446c-.273584-.4555422-.5141992-.9300889-.72-1.42-.474681 1.4415484-1.5561208 2.6033656-2.96 3.18-1.4029835.5666041-2.9074228.8389008-4.42.8-2.2346198.1351454-4.46316797-.3493216-6.44-1.4-.90887323-.5440585-1.67368217-1.2985785-2.23-2.2-.62728876-.964133-.89625641-2.1178626-.76-3.26-2.20219274-1.3389428-3.62673423-3.6546435-3.82879617-6.2239998-.20206195-2.5693563.84297846-5.0792724 2.80879617-6.7460002 1.21 2.2 3.68 4.17 7.04 5.73.172186.6567177.3962227 1.2987334.67 1.92.3999546 1.0042727 1.0103018 1.911269 1.79 2.66 1.6645874 1.415206 3.9487294 1.8553397 6.02 1.16 1.3983469-.4543464 2.6235274-1.3269821 3.51-2.5 2.3683327.2971649 4.7531004.4441254 7.14.44 1.13 0 2.25-.03 3.34-.09 1.2525091.8037143 2.5784508 1.4867752 3.96 2.04 2.059156.8448887 4.2996289 1.1511899 6.51.89 2.2227033-.2829158 4.2449423-1.4287316 5.63-3.19.8919716-1.1999371 1.3534786-2.665486 1.31-4.16 2.2241126-1.1020428 4.0999713-2.7979298 5.42-4.9 1.9403531 1.6784541 2.9807025 4.1701096 2.81 6.73z" fill="#4fba6f"/><path id="Shape" d="m54.52 35.92v.01c-.0195061.0042451-.037075.0147865-.05.03.0140806-.0162785.0310277-.0298361.05-.04z" fill="#24ae5f"/><path id="Shape" d="m58.57 32.23c-1.143036 1.4395528-2.5105628 2.6855217-4.05 3.69-.0189723.0101639-.0359194.0237215-.05.04.012925-.0152135.0304939-.0257549.05-.03-.3096314 1.5025219-.9444979 2.919025-1.86 4.15-2.0232439 2.6143966-4.993867 4.3278031-8.27 4.77-.6955247.1000389-1.3973178.150167-2.1.15-2.2034505-.021841-4.3837079-.4524673-6.43-1.27-1.2274306-.4848222-2.41734-1.0597223-3.56-1.72-.76.03-1.53.04-2.3.04-1.91 0-3.79-.08-5.62-.26-1.1179224.9585392-2.4169289 1.6828543-3.82 2.13-1.0444707.3321062-2.1340014.5007642-3.23.5-2.4699698.027895-4.8606371-.8712814-6.7-2.52-1.19917397-1.1252512-2.14071025-2.4966193-2.76-4.02-.1-.23-.2-.46-.28-.69-2.37267619-1.2119735-4.46973574-2.9005149-6.16-4.96.46138962-1.3913125 1.29070384-2.6318284 2.4-3.59 1.21 2.2 3.68 4.17 7.04 5.73 3.8104549 1.6783314 7.8528384 2.7706852 11.99 3.24 2.3683327.2971649 4.7531004.4441254 7.14.44 1.13 0 2.25-.03 3.34-.09 6.98-.4 13.13-2.04 17.41-4.42 2.2241126-1.1020428 4.0999713-2.7979298 5.42-4.9 1.1092962.9581716 1.9386104 2.1986875 2.4 3.59z" fill="#24ae5f"/><path id="Shape" d="m54.52 35.92v.01c-.0195061.0042451-.037075.0147865-.05.03.0140806-.0162785.0310277-.0298361.05-.04z" fill="#24ae5f"/><path id="Shape" d="m51.13 17.78c3.68 2.13 5.87 4.84 5.87 7.77-.0102838 1.0837016-.295895 2.1470012-.83 3.09-1.3200287 2.1020702-3.1958874 3.7979572-5.42 4.9-4.28 2.38-10.43 4.02-17.41 4.42-1.09.06-2.21.09-3.34.09-2.3868996.0041254-4.7716673-.1428351-7.14-.44-4.1371616-.4693148-8.1795451-1.5616686-11.99-3.24-3.36-1.56-5.83-3.53-7.04-5.73-.53410497-.9429988-.81971619-2.0062984-.83-3.09 0-2.93 2.19-5.64 5.87-7.77z" fill="#f29c1f"/><path id="Shape" d="m50.75 33.54c.0434786 1.494514-.4180284 2.9600629-1.31 4.16-1.3850577 1.7612684-3.4072967 2.9070842-5.63 3.19-2.2103711.2611899-4.450844-.0451113-6.51-.89-1.3815492-.5532248-2.7074909-1.2362857-3.96-2.04 6.98-.4 13.13-2.04 17.41-4.42z" fill="#e64c3c"/><path id="Shape" d="m22.86 37.61c-.8864726 1.1730179-2.1116531 2.0456536-3.51 2.5-2.0712706.6953397-4.3554126.255206-6.02-1.16-.7796982-.748731-1.3900454-1.6557273-1.79-2.66-.2737773-.6212666-.497814-1.2632823-.67-1.92 3.8104549 1.6783314 7.8528384 2.7706852 11.99 3.24z" fill="#e64c3c"/><path id="Shape" d="m54 22.05c0 4.97-10.75 9-24 9s-24-4.03-24-9c0-1.55 1.04-3 2.87-4.27.01 0 .01-.01.02-.01l.01-.01c4.06-2.81 11.99-4.71 21.1-4.71s17.04 1.9 21.1 4.71l.01.01c.01 0 .01.01.02.01 1.83 1.27 2.87 2.72 2.87 4.27z" fill="#f0c419"/><g fill="#805333"><path id="Shape" d="m13 25.051c-.3839874-.0005466-.733749-.2209174-.8999956-.5670514s-.1196132-.7568915.1199956-1.0569486l4-5c.3460579-.4272994.9721792-.4950446 1.4016245-.1516534.4294454.3433913.5010869.9690788.1603755 1.4006534l-4 5c-.1900804.237411-.4778711.375418-.782.375z"/><path id="Shape" d="m42 25.051c-.3839874-.0005466-.733749-.2209174-.8999956-.5670514s-.1196132-.7568915.1199956-1.0569486l4-5c.3460579-.4272994.9721792-.4950446 1.4016245-.1516534.4294454.3433913.5010869.9690788.1603755 1.4006534l-4 5c-.1900804.237411-.4778711.375418-.782.375z"/><path id="Shape" d="m18.4 27.051c-.3839874-.0005466-.733749-.2209174-.8999956-.5670514s-.1196132-.7568915.1199956-1.0569486l4.8-6c.3460579-.4272994.9721792-.4950446 1.4016245-.1516534.4294454.3433913.5010869.9690788.1603755 1.4006534l-4.8 6c-.1900804.237411-.4778711.375418-.782.375z"/><path id="Shape" d="m33.8 27.051c-.3839874-.0005466-.733749-.2209174-.8999956-.5670514s-.1196132-.7568915.1199956-1.0569486l7.2-9c.3460579-.4272994.9721792-.4950446 1.4016245-.1516534.4294454.3433913.5010869.9690788.1603755 1.4006534l-7.2 9c-.1900804.237411-.4778711.375418-.782.375z"/><path id="Shape" d="m26 27.051c-.3839874-.0005466-.733749-.2209174-.8999956-.5670514s-.1196132-.7568915.1199956-1.0569486l7.2-9c.3460579-.4272994.9721792-.4950446 1.4016245-.1516534.4294454.3433913.5010869.9690788.1603755 1.4006534l-7.2 9c-.1900804.237411-.4778711.375418-.782.375z"/></g><path id="Shape" d="m30 23.123c-.3105511.0001858-.6035639-.1439188-.793-.39l-10.007-12.993c-.2202894-.28280124-.2723523-.66188233-.1364609-.99360134.1358913-.331719.4389457-.56532345.7943294-.61229561.3553837-.04697217.7087235.09987461.9261315.38489695l10.01 12.994c.2326081.3021612.2731258.71031.1044644 1.052306s-.517141.558304-.8984644.557694z" fill="#a59078"/><ellipse id="Oval" cx="17.854" cy="6.357" fill="#24ae5f" rx="5" ry="3.5" transform="matrix(.792 -.61 .61 .792 -.169 12.217)"/><path id="Shape" d="m16.939 6.169c-.3105511.00018585-.6035639-.1439188-.793-.39l-2.441-3.169c-.3200627-.43797644-.232571-1.05126591.1971944-1.38227214.4297655-.33100624 1.0450664-.25900898 1.3868056.16227214l2.441 3.169c.232278.30173268.2730363.70919693.1051266 1.05096001-.1679097.34176309-.515344.55850664-.8961266.55903999z" fill="#a59078"/></g></g></svg>