<svg height="512" viewBox="0 0 60 53" width="512" xmlns="http://www.w3.org/2000/svg"><g id="Page-1" fill="none" fill-rule="evenodd"><g id="037---Fries-and-Sauce" fill-rule="nonzero"><path id="Shape" d="m56 10h-2c-.5522847 0-1 .4477153-1 1v-4c0-.55228475-.4477153-1-1-1h-2c-.5522847 0-1 .44771525-1 1v-3c0-.55228475-.4477153-1-1-1h-2c-.5522847 0-1 .44771525-1 1v-3c0-.55228475-.4477153-1-1-1h-2c-.5522847 0-1 .44771525-1 1v3c0-.55228475-.4477153-1-1-1h-2c-.5522847 0-1 .44771525-1 1v3c0-.55228475-.4477153-1-1-1h-2c-.5522847 0-1 .44771525-1 1v4c0-.5522847-.4477153-1-1-1h-2c-.5522847 0-1 .4477153-1 1v12.84h2.01c.480984-.0023829.8923.3453275.97.82.1539843.8302577.5036462 1.611855 1.02 2.28 1.0474291 1.3143476 2.4289898 2.3228869 4 2.92 1.2793439.5245656 2.625682.8678818 4 1.02 1.3285335.1599968 2.6714665.1599968 4 0 1.3740941-.1533474 2.720264-.4966207 4-1.02 1.5710102-.5971131 2.9525709-1.6056524 4-2.92.5163538-.668145.8660157-1.4497423 1.02-2.28.0777-.4746725.489016-.8223829.97-.82h2.01v-12.84c0-.5522847-.4477153-1-1-1z" fill="#f3d55b"/><path id="Shape" d="m58.99 23.14-3.75 27.13c-.1349437.990435-.9804148 1.7291547-1.98 1.73h-20.52c-.9995852-.0008453-1.8450563-.739565-1.98-1.73l-3.75-27.13c-.0373594-.287837.0509191-.5778344.2423219-.7960335.1914027-.2181991.4674271-.3435071.7576781-.3439665h3c.480984-.0023829.8923.3453275.97.82.1539843.8302577.5036462 1.611855 1.02 2.28 1.0474291 1.3143476 2.4289898 2.3228869 4 2.92 1.2793439.5245656 2.625682.8678818 4 1.02 1.3285335.1599968 2.6714665.1599968 4 0 1.3740941-.1533474 2.720264-.4966207 4-1.02 1.5710102-.5971131 2.9525709-1.6056524 4-2.92.5163538-.668145.8660157-1.4497423 1.02-2.28.0777-.4746725.489016-.8223829.97-.82h3c.290251.0004594.5662754.1257674.7576781.3439665.1914028.2181991.2796813.5081965.2423219.7960335z" fill="#e64c3c"/><path id="Shape" d="m37 10v18.02c-1.5710102-.5971131-2.9525709-1.6056524-4-2.92v-15.1z" fill="#f0c419"/><path id="Shape" d="m33 11v3h-4v-3c0-.5522847.4477153-1 1-1h2c.5522847 0 1 .4477153 1 1z" fill="#f9eab0"/><path id="Shape" d="m57 11v3h-4v-3c0-.5522847.4477153-1 1-1h2c.5522847 0 1 .4477153 1 1z" fill="#f9eab0"/><path id="Shape" d="m13.64 35.89-3.79 1.25-.78-2.35-7.08-21.42 3.8-1.26 7.07 21.41z" fill="#f0c419"/><path id="Shape" d="m5.79 12.11-3.8 1.26-.94-2.85c-.17020358-.52714642.11503822-1.09317312.64-1.27l1.9-.62c.25060018-.08469315.52464723-.06578995.76124543.05250915.23659819.1182991.41614898.32619481.49875457.57749085z" fill="#f3d55b"/><path id="Shape" d="m41 4v3h-4v-3c0-.55228475.4477153-1 1-1h2c.5522847 0 1 .44771525 1 1z" fill="#f9eab0"/><path id="Shape" d="m45 4v25.04c-1.3285335.1599968-2.6714665.1599968-4 0v-25.04z" fill="#f0c419"/><path id="Shape" d="m49 4v3h-4v-3c0-.55228475.4477153-1 1-1h2c.5522847 0 1 .44771525 1 1z" fill="#f9eab0"/><path id="Shape" d="m53 10v15.1c-1.0474291 1.3143476-2.4289898 2.3228869-4 2.92v-18.02z" fill="#f0c419"/><path id="Shape" d="m43 47c-2.757 0-5-1.794-5-4 0-.5522847.4477153-1 1-1s1 .4477153 1 1c0 1.084 1.374 2 3 2s3-.916 3-2-1.374-2-3-2c-2.757 0-5-1.794-5-4s2.243-4 5-4 5 1.794 5 4c0 .5522847-.4477153 1-1 1s-1-.4477153-1-1c0-1.084-1.374-2-3-2s-3 .916-3 2 1.374 2 3 2c2.757 0 5 1.794 5 4s-2.243 4-5 4z" fill="#f0c419"/><path id="Shape" d="m26 42v3h-21v-3c0-.5522847.44771525-1 1-1h19c.5522847 0 1 .4477153 1 1z" fill="#f29c1f"/><path id="Shape" d="m26 45-3 7h-15l-3-7z" fill="#e57e25"/><path id="Shape" d="m24.5 40.99v.01h-18.08v-.03c-.58337217-.7240455-1.02446506-1.5519429-1.3-2.44-.28016937-.9124988-.10937234-1.9038642.46-2.67.45160363-.4796671 1.04942788-.7961623 1.7-.9.59275099-.0922454 1.19048144-.1490131 1.79-.17l.78 2.35 3.79-1.25-.78-2.37c.1600633-.1147243.313633-.2382478.46-.37.8939699-.7907759 1.4638647-1.8842615 1.6-3.07.0294074-.2786098.1759466-.5315556.4030142-.6956548.2270675-.1640993.513222-.2238565.7869858-.1643452 1.4968234.289618 2.9338012.8305978 4.25 1.6 1.7204487.9988215 3.0950283 2.4989973 3.94 4.3.8533912 1.8501426.9254838 3.9660627.2 5.87z" fill="#e64c3c"/><path id="Shape" d="m59 53h-58c-.55228475 0-1-.4477153-1-1s.44771525-1 1-1h58c.5522847 0 1 .4477153 1 1s-.4477153 1-1 1z" fill="#d25627"/></g></g></svg>