<svg height="512" viewBox="0 0 60 59" width="512" xmlns="http://www.w3.org/2000/svg"><g id="Page-1" fill="none" fill-rule="evenodd"><g id="038---Chairs-and-Table" fill-rule="nonzero"><path id="Shape" d="m59 31v16h-4v-16c.0081672-1.1011688.8988312-1.9918328 2-2 1.1032019.0032948 1.9967052.8967981 2 2z" fill="#df4d60"/><path id="Shape" d="m5 31 .00002771 16h-4.00002771v-16c.0032948-1.1032019.89679813-1.9967052 2-2 .53059053-.0028231 1.0395388.2101411 1.41.59.3798589.3704612.59282307.8794095.59 1.41z" fill="#df4d60"/><path id="Shape" d="m30 38c-.5522847 0-1-.4477153-1-1v-17c0-.5522847.4477153-1 1-1s1 .4477153 1 1v17c0 .5522847-.4477153 1-1 1z" fill="#7f8c8d"/><path id="Shape" d="m30 0c-13.25 0-24 9.85-24 22 0 2.209139 1.790861 4 4 4s4-1.790861 4-4c0 2.209139 1.790861 4 4 4s4-1.790861 4-4c0 2.209139 1.790861 4 4 4s4-1.790861 4-4c0 2.209139 1.790861 4 4 4s4-1.790861 4-4c0 2.209139 1.790861 4 4 4s4-1.790861 4-4c0 2.209139 1.790861 4 4 4s4-1.790861 4-4c0-12.15-10.75-22-24-22z" fill="#f3d55b"/><path id="Shape" d="m1 59c-.32126722-.0002439-.62285427-.1548257-.81063489-.4155001-.18778062-.2606744-.23888567-.5956946-.13736511-.9004999l3.7-11.1c.11307456-.3394023.39862873-.5926984.74909704-.6644741.35046831-.0717758.71260626.0488734.95000001.3165.23739374.2676266.31397752.6415718.20090295.9809741l-3.7 11.1c-.13676637.4091975-.52055442.6845413-.952.683z" fill="#95a5a5"/><path id="Shape" d="m17 59c-.4302393-.0003267-.8120445-.2758064-.948-.684l-3.7-11.1c-.1130746-.3394023-.0364908-.7133475.200903-.9809741.2373937-.2676266.5995317-.3882758.95-.3165.3504683.0717757.6360224.3250718.749097.6644741l3.7 11.1c.1021455.3056001.0507772.6416961-.1379876.9028339-.1887648.2611379-.4917954.4153185-.8140124.4141661z" fill="#95a5a5"/><path id="Shape" d="m59 59c-.4302393-.0003267-.8120445-.2758064-.948-.684l-3.7-11.1c-.1130746-.3394023-.0364908-.7133476.2009029-.9809742.2373938-.2676266.5995317-.3882757.9500001-.3165.3504683.0717758.6360225.3250719.749097.6644742l3.7 11.1c.1021455.3056001.0507772.6416961-.1379876.9028339-.1887648.2611379-.4917954.4153185-.8140124.4141661z" fill="#95a5a5"/><path id="Shape" d="m43 59c-.3212672-.0002439-.6228543-.1548257-.8106349-.4155001s-.2388857-.5956946-.1373651-.9004999l3.7-11.1c.1747981-.5246705.7418295-.8082981 1.2665-.6335s.8082981.7418295.6335 1.2665l-3.7 11.1c-.1367664.4091975-.5205544.6845413-.952.683z" fill="#95a5a5"/><path id="Shape" d="m40 40c0 5.5228475-4.4771525 10-10 10s-10-4.4771525-10-10l10-2z" fill="#14a085"/><path id="Shape" d="m36.921 58h-13.842c-.2900931.00074-.5663848-.123784-.7579685-.3416148-.1915838-.2178307-.2798081-.5077613-.2420315-.7953852.5617711-3.9424665 3.9377106-6.8714611 7.92-6.8714611s7.3582289 2.9289946 7.92 6.8714611c.0377302.2872774-.0502359.5768738-.2413728.7946319-.1911368.2177581-.4668827.3425311-.7566272.3423681z" fill="#7f8c8d"/><path id="Shape" d="m48 37.5c.0021341.6636932-.2605727 1.3008186-.729877 1.770123-.4693044.4693043-1.1064298.7320111-1.770123.729877h-31c-.893164 0-1.7184816-.4764973-2.1650636-1.25s-.446582-1.7264973 0-2.5 1.2718996-1.25 2.1650636-1.25h31c1.3807119 0 2.5 1.1192881 2.5 2.5z" fill="#26b99a"/><g fill="#ff5364"><path id="Shape" d="m17 47c-.0081672 1.1011688-.8988312 1.9918328-2 2h-12c-1.10320187-.0032948-1.9967052-.8967981-2-2v-2h14c1.1032019.0032948 1.9967052.8967981 2 2z"/><path id="Shape" d="m59 45v2c-.0032948 1.1032019-.8967981 1.9967052-2 2h-12c-1.1011688-.0081672-1.9918328-.8988312-2-2 .0032948-1.1032019.8967981-1.9967052 2-2z"/><path id="Shape" d="m38 22c0 2.209139-1.790861 4-4 4s-4-1.790861-4-4v-21.99h.01l.02.02c.46.41 7.97 7.43 7.97 21.97z"/><path id="Shape" d="m54 22c0 2.209139-1.790861 4-4 4s-4-1.790861-4-4c0-14.62-15.18-21.63-15.97-21.97l-.02-.02h-.01v-.01c13.25 0 24 9.85 24 22z"/><path id="Shape" d="m29.97.03c-.46.41-7.97 7.43-7.97 21.97 0 2.209139-1.790861 4-4 4s-4-1.790861-4-4c0-14.62 15.18-21.63 15.97-21.97z"/></g></g></g></svg>