<svg height="512" viewBox="0 0 58 59" width="512" xmlns="http://www.w3.org/2000/svg"><g id="Page-1" fill="none" fill-rule="evenodd"><g id="039---Ice-Cream-Bike" fill-rule="nonzero"><path id="Shape" d="m16 27c-.5522847 0-1-.4477153-1-1v-12c0-.5522847.4477153-1 1-1s1 .4477153 1 1v12c0 .5522847-.4477153 1-1 1z" fill="#7f8c8d"/><path id="Shape" d="m20 28c0-2.209139-1.790861-4-4-4s-4 1.790861-4 4l4 2z" fill="#bdc3c7"/><path id="Shape" d="m27.594 52.14c-.4648567-.0031804-.8662182-.3262789-.968603-.7797315-.1023848-.4534525.1212113-.9176599.539603-1.1202685l20.635-9.774c.3232952-.1549749.7048155-.1250196.9999624.0785126.2951468.2035322.458751.5494928.4288054.9067606-.0299455.3572678-.2488578.6711666-.5737678.8227268l-20.634 9.769c-.1333201.0637676-.2792145.0969099-.427.097z" fill="#2980ba"/><path id="Shape" d="m47 38h-19c-.5522847 0-1-.4477153-1-1s.4477153-1 1-1h19c.5522847 0 1 .4477153 1 1s-.4477153 1-1 1z" fill="#2980ba"/><path id="Shape" d="m8.52 54h-4.52c-1.10320187-.0032948-1.9967052-.8967981-2-2v-22h28v22c-.0032948 1.1032019-.8967981 1.9967052-2 2z" fill="#7f8c8d"/><path id="Shape" d="m16 0c-8.84 0-16 6.72-16 15 0 2.209139 1.790861 4 4 4s4-1.790861 4-4c0 2.209139 1.790861 4 4 4s4-1.790861 4-4c0 2.209139 1.790861 4 4 4s4-1.790861 4-4c0 2.209139 1.790861 4 4 4s4-1.790861 4-4c0-8.28-7.16-15-16-15z" fill="#f3d55b"/><path id="Shape" d="m25 49c0 4.9705627-4.0294373 9-9 9s-9-4.0294373-9-9 4.0294373-9 9-9c2.3918499-.0161073 4.6904057.926931 6.3817373 2.6182627 1.6913317 1.6913316 2.63437 3.9898874 2.6182627 6.3817373z" fill="#bdc3c7"/><path id="Shape" d="m16 59c-4.5907261.0027693-8.5944177-3.1187267-9.71135771-7.5715032s.93944373-9.0943893 4.98796611-11.2586999c4.0485225-2.1643105 9.0504582-1.2960239 12.1326997 2.1061168s3.4539811 8.4652517.9016919 12.2810863c-1.8526012 2.7781123-4.9718336 4.4456312-8.311 4.443zm0-18c-4.418278 0-8 3.581722-8 8s3.581722 8 8 8 8-3.581722 8-8c-.0049599-4.4162219-3.5837781-7.9950401-8-8z" fill="#464f5d"/><circle id="Oval" cx="16" cy="49" fill="#7f8c8d" r="3"/><path id="Shape" d="m51 59c-3.8659932 0-7-3.1340068-7-7s3.1340068-7 7-7 7 3.1340068 7 7c-.0044086 3.8641657-3.1358343 6.9955914-7 7zm0-12c-2.7614237 0-5 2.2385763-5 5s2.2385763 5 5 5 5-2.2385763 5-5c-.0033061-2.7600532-2.2399468-4.9966939-5-5z" fill="#464f5d"/><rect id="Rectangle-path" fill="#95a5a5" height="4" rx="1" width="32" y="28"/><path id="Shape" d="m8 37h-2c-.55228475 0-1-.4477153-1-1s.44771525-1 1-1h2c.55228475 0 1 .4477153 1 1s-.44771525 1-1 1z" fill="#fff"/><path id="Shape" d="m26 37h-14c-.5522847 0-1-.4477153-1-1s.4477153-1 1-1h14c.5522847 0 1 .4477153 1 1s-.4477153 1-1 1z" fill="#fff"/><path id="Shape" d="m32 15c0 2.209139-1.790861 4-4 4s-4-1.790861-4-4c-.0836211-5.99961849-3.0642026-11.58820886-8-15 8.84 0 16 6.72 16 15z" fill="#3b97d3"/><path id="Shape" d="m16 0v15c0 2.209139-1.790861 4-4 4s-4-1.790861-4-4c.08362109-5.99961849 3.0642026-11.58820886 8-15z" fill="#3b97d3"/><path id="Shape" d="m51 53c-.4549585-.0003309-.8523506-.3077242-.967-.748l-5.346-20.494c-.2347776-.8990495-.0397007-1.8561454.5282216-2.5915872.5679224-.7354419 1.4445796-1.1662083 2.3737784-1.1664128h5.242c2.1407903-.0371668 3.9507817 1.576938 4.158 3.708.0811424 1.1085741-.3026576 2.2009221-1.0593698 3.0151133-.7567122.8141913-1.8180904 1.2767956-2.9296302 1.2768867h-1c-.5522847 0-1-.4477153-1-1s.4477153-1 1-1h1c.5304953.0009053 1.0393029-.2104677 1.413-.587.4125964-.4107061.6267473-.9801942.587-1.561-.1420009-1.0817179-1.0783938-1.8812567-2.169-1.852h-5.242c-.3095228.0002251-.6014955.1437683-.7906968.3887322-.1892013.2449638-.2543031.5637341-.1763032.8632678l5.345 20.5c.0765373.298975.0107419.6165402-.1782833.8604941-.1890251.2439538-.4801009.3869628-.7887167.3875059z" fill="#95a5a5"/><circle id="Oval" cx="51" cy="52" fill="#7f8c8d" r="2"/></g></g></svg>