<svg height="512" viewBox="0 0 58 58" width="512" xmlns="http://www.w3.org/2000/svg"><g id="Page-1" fill="none" fill-rule="evenodd"><g id="040---Street-Bar" fill-rule="nonzero"><path id="Shape" d="m56 35v22c0 .5522847-.4477153 1-1 1h-52c-.55228475 0-1-.4477153-1-1v-22z" fill="#f29c1f"/><path id="Shape" d="m13 56c-.5522847 0-1-.4477153-1-1v-7c0-.5522847.4477153-1 1-1s1 .4477153 1 1v7c0 .5522847-.4477153 1-1 1z" fill="#bdc3c7"/><path id="Shape" d="m29 56c-.5522847 0-1-.4477153-1-1v-7c0-.5522847.4477153-1 1-1s1 .4477153 1 1v7c0 .5522847-.4477153 1-1 1z" fill="#bdc3c7"/><path id="Shape" d="m45 56c-.5522847 0-1-.4477153-1-1v-7c0-.5522847.4477153-1 1-1s1 .4477153 1 1v7c0 .5522847-.4477153 1-1 1z" fill="#bdc3c7"/><path id="Shape" d="m17 45c0 2.209139-1.790861 4-4 4s-4-1.790861-4-4z" fill="#f0c419"/><path id="Shape" d="m33 45c0 2.209139-1.790861 4-4 4s-4-1.790861-4-4z" fill="#f0c419"/><path id="Shape" d="m49 45c0 2.209139-1.790861 4-4 4s-4-1.790861-4-4z" fill="#f0c419"/><path id="Shape" d="m9 58c0-2.209139 1.790861-4 4-4s4 1.790861 4 4z" fill="#7f8c8d"/><path id="Shape" d="m25 58c0-2.209139 1.790861-4 4-4s4 1.790861 4 4z" fill="#7f8c8d"/><path id="Shape" d="m41 58c0-2.209139 1.790861-4 4-4s4 1.790861 4 4z" fill="#7f8c8d"/><g fill="#f29c1f"><path id="Shape" d="m44 27c1.1045695 0 2 .8954305 2 2v5h-4v-5c0-1.1045695.8954305-2 2-2z"/><path id="Shape" d="m34 27c1.1045695 0 2 .8954305 2 2v5h-4v-5c0-1.1045695.8954305-2 2-2z"/><path id="Shape" d="m24 27c1.1045695 0 2 .8954305 2 2v5h-4v-5c0-1.1045695.8954305-2 2-2z"/><path id="Shape" d="m14 27c1.1045695 0 2 .8954305 2 2v5h-4v-5c0-1.1045695.8954305-2 2-2z"/></g><path id="Shape" d="m7 17.036v17.4h-4v-17.436c.47265301.3495382 1.02691012.5722738 1.61.647.84452189.0946302 1.69451144-.1226684 2.39-.611z" fill="#805333"/><path id="Shape" d="m55 17v17.44h-4v-17.4c.6954886.4883316 1.5454781.7056302 2.39.611.5834651-.075909 1.1377535-.3000343 1.61-.651z" fill="#805333"/><path id="Shape" d="m58 35c-.0081672 1.1011688-.8988312 1.9918328-2 2h-54c-1.10320187-.0032948-1.9967052-.8967981-2-2-.00282307-.5305905.2101411-1.0395388.59-1.41.3704612-.3798589.87940947-.5928231 1.41-.59h54c1.1032019.0032948 1.9967052.8967981 2 2z" fill="#a56a43"/><path id="Shape" d="m50.59.93c-.3667342-.57913296-1.0045155-.93010141-1.69-.93h-39.8c-.68548446-.00010141-1.32326582.35086704-1.69.93l-6.41 10.07v3.83c-.00481523 1.4688298.75215655 2.8351639 2 3.61.48971434.2977411 1.03979506.4822402 1.61.54 1.12409645.1142134 2.2438668-.2538838 3.08094773-1.0127863s1.31285593-1.8373362 1.30905227-2.9672137c.00000005 2.209139 1.790861 3.9999999 4 3.9999999s4-1.7908609 4-3.9999999c0 2.209139 1.790861 4 4 4s4-1.790861 4-4c0 2.209139 1.790861 4 4 4s4-1.790861 4-4c0 2.209139 1.790861 4 4 4s4-1.790861 4-4c0 2.209139 1.790861 4 4 4s4-1.790861 4-4c-.0038037 1.1298775.4719713 2.2083112 1.3090523 2.9672137.8370809.7589025 1.9568512 1.1269997 3.0809477 1.0127863.5702049-.0577598 1.1202857-.2422589 1.61-.54 1.2478434-.7748361 2.0048152-2.1411702 2-3.61v-3.83z" fill="#f3d55b"/><path id="Shape" d="m14-.00000002-5 11.00000002h-8l6.41-10.07c.36673418-.57913296 1.00451554-.93010141 1.69-.93z" fill="#f0c419"/><path id="Shape" d="m20 0-3 11h-8l5-11z" fill="#df4d60"/><path id="Shape" d="m27 0-2 11h-8l3-11z" fill="#f0c419"/><path id="Shape" d="m33 11h-8l2-11h4z" fill="#df4d60"/><path id="Shape" d="m41 11h-8l-2-11h7z" fill="#f0c419"/><path id="Shape" d="m49 11h-8l-3-11h6z" fill="#df4d60"/><path id="Shape" d="m57 11h-8l-5-11.00000002 4.9.00000002c.6854845-.00010141 1.3232658.35086704 1.69.93z" fill="#f0c419"/><path id="Shape" d="m49 11v4c0 2.209139-1.790861 4-4 4s-4-1.790861-4-4v-4z" fill="#ff5364"/><path id="Shape" d="m33 11v4c0 2.209139-1.790861 4-4 4s-4-1.790861-4-4v-4z" fill="#ff5364"/><path id="Shape" d="m17 11v4c0 2.209139-1.790861 4-4 4s-4-1.790861-4-4v-4z" fill="#ff5364"/><path id="Shape" d="m19 43v1c0 .5522847-.4477153 1-1 1h-10c-.55228475 0-1-.4477153-1-1v-1c.0032948-1.1032019.89679813-1.9967052 2-2h8c1.1032019.0032948 1.9967052.8967981 2 2z" fill="#464f5d"/><path id="Shape" d="m35 43v1c0 .5522847-.4477153 1-1 1h-10c-.5522847 0-1-.4477153-1-1v-1c.0032948-1.1032019.8967981-1.9967052 2-2h8c1.1032019.0032948 1.9967052.8967981 2 2z" fill="#464f5d"/><path id="Shape" d="m51 43v1c0 .5522847-.4477153 1-1 1h-10c-.5522847 0-1-.4477153-1-1v-1c.0032948-1.1032019.8967981-1.9967052 2-2h8c1.1032019.0032948 1.9967052.8967981 2 2z" fill="#464f5d"/></g></g></svg>