<svg id="Capa_1" enable-background="new 0 0 512 512" height="512" viewBox="0 0 512 512" width="512" xmlns="http://www.w3.org/2000/svg"><g><g><path d="m461.12 289.39-22.67 113.09h-365.02l-22.57-113.09 39.42-140.51 38.05-50.75 15-5.13 3.14-19.07.01-.01h36.5c23.66 0 44.69-11.56 58.02-29.26 4.71-6.24 9.86-9.35 15-9.35s10.29 3.11 15 9.35c13.33 17.7 34.36 29.26 58.02 29.26h36.5l4.15 17.75 14 6.45 38.07 50.76z" fill="#60d94d"/></g><path d="m461.12 289.39-22.67 113.09h-182.45v-367.17c5.14 0 10.29 3.11 15 9.35 13.33 17.7 34.36 29.26 58.02 29.26h36.5l4.15 17.75 14 6.45 38.07 50.76z" fill="#00b863"/><circle cx="73.466" cy="219.946" fill="#ff7900" r="73.014"/><circle cx="109.973" cy="219.946" fill="#704c55" r="36.507"/><circle cx="438.534" cy="219.946" fill="#fc2f00" r="73.014"/><circle cx="402.027" cy="219.946" fill="#5a344b" r="36.507"/><path d="m438.45 402.48-68.94 48.77c-12.65 18.97-29.63 34.16-49.14 44.61-15.2 8.13-31.94 13.39-49.37 15.31-4.95.55-15-15.18-15-15.18s-10.05 15.73-15 15.18c-39.82-4.4-76.01-26.17-98.51-59.92l-69.06-48.77c47.95-11.99 115.27-17.98 182.57-17.98 67.27 0 134.53 6 182.45 17.98z" fill="#b5f94b"/><path d="m438.45 402.48-68.94 48.77c-12.65 18.97-29.63 34.16-49.14 44.61-15.2 8.13-31.94 13.39-49.37 15.31-4.95.55-15-15.18-15-15.18v-111.49c67.27 0 134.53 6 182.45 17.98z" fill="#60d94d"/><path d="m383.67 98.12-45.33 44.02c-16.02 16.04-24.83 37.36-24.83 60.03v53.83h-30v-53.83c0-30.72 11.96-59.6 33.69-81.32l.15-.15 48.17-46.78z" fill="#60d94d"/><path d="m228.47 202.17v53.83h-30v-53.83c0-22.67-8.81-43.99-24.82-60.03l-45.32-44.01 18.14-24.2 48.16 46.77.16.15c21.72 21.72 33.68 50.6 33.68 81.32z" fill="#b5f94b"/><path d="m271 44.66v73.63h-30v-73.63c9.42-12.47 15-27.99 15-44.66 0 16.67 5.58 32.19 15 44.66z" fill="#b5f94b"/><path d="m271 428.14v83.03c-4.95.55-9.96.83-15 .83s-10.05-.28-15-.83v-83.03z" fill="#60d94d"/><path d="m198.188 294.667h30.282v30h-30.282z" fill="#704c55"/><path d="m271 44.66v73.63h-15v-118.29c0 16.67 5.58 32.19 15 44.66z" fill="#60d94d"/><path d="m256 428.14h15v83.03c-4.95.55-9.96.83-15 .83z" fill="#00b863"/><path d="m283.51 294.667h30.282v30h-30.282z" fill="#5a344b"/></g></svg>