<svg id="Capa_1" enable-background="new 0 0 512 512" height="512" viewBox="0 0 512 512" width="512" xmlns="http://www.w3.org/2000/svg"><g><path d="m435.42 179.42v51.33h-358.84v-51.33c0-99.09 80.33-179.42 179.42-179.42s179.42 80.33 179.42 179.42z" fill="#f0eeff"/><path d="m256 0v230.75h179.42v-51.33c0-99.09-80.33-179.42-179.42-179.42z" fill="#dadae5"/><path d="m435.72 298.59h-33.43l39.94 116.55c16.27 47.47-19.01 96.86-69.19 96.86h-234.08c-50.18 0-85.46-49.39-69.19-96.86l39.94-116.55h-33.43c-10.96 0-20.89-4.45-28.08-11.63-7.18-7.19-11.63-17.12-11.63-28.08 0-21.93 17.78-39.71 39.72-39.71l70.2.02c30.59.01 56.78-18.81 67.62-45.51 6.72-16.56 24.01-27.39 41.89-27.39s35.17 10.83 41.89 27.39c10.84 26.7 37.03 45.52 67.62 45.51l70.2-.02c21.94 0 39.72 17.78 39.72 39.71 0 10.96-4.45 20.89-11.63 28.08-7.19 7.18-17.12 11.63-28.08 11.63z" fill="#ffb655"/><path d="m297.89 173.68c10.84 26.7 37.03 45.52 67.62 45.51l70.204-.015c21.933-.005 39.716 17.774 39.716 39.708 0 21.93-17.778 39.708-39.708 39.708h-33.432l39.94 116.55c16.27 47.469-19.01 96.859-69.19 96.859h-117.04v-365.71c17.88 0 35.17 10.83 41.89 27.39z" fill="#ffa001"/><path d="m172.002 103.286h30.282v30h-30.282z" fill="#704c55"/><path d="m309.717 103.286h30.281v30h-30.281z" fill="#5a344b"/><path d="m202.531 270.449h30v36.071h-30z" fill="#ffa001" transform="matrix(.975 -.224 .224 .975 -59.1 56.066)"/><path d="m276.434 273.484h36.071v30.001h-36.071z" fill="#f77e01" transform="matrix(.224 -.975 .975 .224 -52.65 510.844)"/></g></svg>