<svg id="Capa_1" enable-background="new 0 0 512 512" height="512" viewBox="0 0 512 512" width="512" xmlns="http://www.w3.org/2000/svg"><g><path d="m438.857 219.62c5.719 2.022 11.874 3.121 18.286 3.121 30.297 0 54.857-24.56 54.857-54.857s-24.56-54.857-54.857-54.857c-7.493 0-14.636 1.502-21.142 4.222l-11.334 50.635z" fill="#8e4e02"/><path d="m73.143 219.62c-5.719 2.022-11.874 3.121-18.286 3.121-30.297.001-54.857-24.559-54.857-54.856s24.56-54.857 54.857-54.857c7.493 0 14.636 1.502 21.142 4.222l11.334 50.635z" fill="#aa6100"/><path d="m475.43 323.72c0 103.98-98.24 188.28-219.43 188.28s-219.43-84.3-219.43-188.28c0-38.5 13.46-74.3 36.58-104.11v-73.48c0-80.71 65.42-146.13 146.13-146.13h73.44c80.71 0 146.13 65.42 146.13 146.13v73.48c23.12 29.81 36.58 65.61 36.58 104.11z" fill="#cc7400"/><path d="m475.43 323.72c0 103.98-98.24 188.28-219.43 188.28v-512h36.72c80.71 0 146.13 65.42 146.13 146.13v73.48c23.12 29.81 36.58 65.61 36.58 104.11z" fill="#aa6100"/><path d="m402.28 323.72c0 6.45-.68 12.78-1.98 18.94-5.76 27.18-75.03 40.78-144.3 40.78s-138.54-13.6-144.3-40.78c-1.3-6.16-1.98-12.49-1.98-18.94 0-32.53 17.25-61.9 44.95-82.78-5.32-8.46-8.39-18.45-8.39-29.17v-46.87c0-30.29 24.57-54.85 54.87-54.85 15.14 0 28.86 6.14 38.79 16.06 9.92 9.93 16.06 23.64 16.06 38.79 0-15.15 6.14-28.86 16.06-38.79 9.93-9.92 23.65-16.06 38.79-16.06 30.3 0 54.87 24.56 54.87 54.85v46.87c0 10.72-3.07 20.71-8.39 29.17 27.7 20.88 44.95 50.25 44.95 82.78z" fill="#ffe477"/><path d="m402.28 323.72c0 6.45-.68 12.78-1.98 18.94-5.76 27.18-75.03 40.78-144.3 40.78v-218.54c0-15.15 6.14-28.86 16.06-38.79 9.93-9.92 23.65-16.06 38.79-16.06 30.3 0 54.87 24.56 54.87 54.85v46.87c0 10.72-3.07 20.71-8.39 29.17 27.7 20.88 44.95 50.25 44.95 82.78z" fill="#ffb655"/><path d="m400.3 342.66c-11.51 54.37-71.73 95.82-144.3 95.82s-132.79-41.45-144.3-95.82c42.29 11.26 91.62 21.97 144.3 21.97s102.01-10.71 144.3-21.97z" fill="#ffc8cf"/><path d="m400.3 342.66c-11.51 54.37-71.73 95.82-144.3 95.82v-73.85c52.68 0 102.01-10.71 144.3-21.97z" fill="#ffa6b3"/><path d="m209.013 195.999h30.281v30h-30.281z" fill="#704c55"/><path d="m275.288 196h30.281v30h-30.281z" fill="#5a344b"/><path d="m203.83 271.449h30v37.959h-30z" fill="#cc7400" transform="matrix(.707 -.707 .707 .707 -141.27 239.801)"/><path d="m274.191 275.429h37.959v30h-37.959z" fill="#aa6100" transform="matrix(.707 -.707 .707 .707 -119.497 292.367)"/></g></svg>