<svg id="Capa_1" enable-background="new 0 0 512 512" height="512" viewBox="0 0 512 512" width="512" xmlns="http://www.w3.org/2000/svg"><g><path d="m307.43 16.43-38.88 59.39h-25.1l-38.88-59.39 25.1-16.43 26.33 40.22 26.33-40.22z" fill="#9b786f"/><path d="m268.55 75.82h-12.55v-35.6l26.33-40.22 25.1 16.43z" fill="#704c55"/><path d="m512 312.12v199.88h-73.15l-182.85-16.01-182.85 16.01h-73.15v-199.88c0-141.38 114.61-256 256-256s256 114.62 256 256z" fill="#704c55"/><path d="m512 312.12v199.88h-73.15l-182.85-16.01v-439.87c141.39 0 256 114.62 256 256z" fill="#5a344b"/><g><g><path d="m438.85 292.57v219.43h-365.7v-219.43c0-20.2 8.19-38.49 21.42-51.72s31.52-21.42 51.72-21.42c40.39 0 73.14 32.74 73.14 73.14v42.46h73.14v-42.46c0-20.2 8.19-38.49 21.42-51.72 13.24-13.23 31.53-21.42 51.72-21.42 40.4 0 73.14 32.74 73.14 73.14z" fill="#f0eeff"/></g></g><path d="m438.85 292.57v219.43h-182.85v-176.97h36.57v-42.46c0-20.2 8.19-38.49 21.42-51.72 13.24-13.23 31.53-21.42 51.72-21.42 40.4 0 73.14 32.74 73.14 73.14z" fill="#dadae5"/><path d="m131.145 277.571h30.282v30h-30.282z" fill="#704c55"/><path d="m350.573 277.571h30.282v30h-30.282z" fill="#5a344b"/><path d="m343.78 361.18-87.78 87.09-87.78-87.09 51.2-26.15c11.48-5.87 24.03-8.81 36.58-8.81s25.1 2.94 36.58 8.81z" fill="#ffa001"/><path d="m343.78 361.18-87.78 87.09v-122.05c12.55 0 25.1 2.94 36.58 8.81z" fill="#f77e01"/></g></svg>