<svg id="Capa_1" enable-background="new 0 0 512 512" height="512" viewBox="0 0 512 512" width="512" xmlns="http://www.w3.org/2000/svg"><g><path d="m460.805 194.214c31.457-17.995 51.042-50.938 51.042-89.775.001-57.68-46.758-104.439-104.438-104.439-37.549 0-70.469 19.815-88.875 49.559z" fill="#5a344b"/><path d="m51.195 194.214c-31.457-17.995-51.042-50.938-51.042-89.775-.001-57.68 46.758-104.439 104.438-104.439 37.549 0 70.469 19.815 88.875 49.559z" fill="#704c55"/><path d="m493.33 328.11c0 90.1-50.21 143.22-124.17 167.63-29.5 9.73-62.77 14.9-98.15 16.03l-15.01-15.78-14.99 15.78c-35.38-1.13-68.67-6.29-98.17-16.03-73.96-24.41-124.17-77.53-124.17-167.63 0-131.08 106.26-290.77 237.33-290.77s237.33 159.69 237.33 290.77z" fill="#f0eeff"/><path d="m493.33 328.11c0 90.1-50.21 143.22-124.17 167.63-29.5 9.73-62.77 14.9-98.15 16.03l-15.01-15.78v-458.65c131.07 0 237.33 159.69 237.33 290.77z" fill="#dadae5"/><path d="m402.16 267.27v36.71c0 26.99-17.39 49.93-41.57 58.21h-.04c-5.73-13.81-14.12-26.24-24.53-36.65-20.48-20.48-48.77-33.14-80.02-33.14-47.14 0-87.55 28.82-104.55 69.81-24.2-8.28-41.61-31.22-41.61-58.23v-36.71c0-46.68 37.84-84.52 84.52-84.52 33.99 0 61.63 27.55 61.63 61.52 0-.26 0-.53.01-.79.42-33.61 27.91-60.73 61.63-60.73 46.68 0 84.53 37.84 84.53 84.52z" fill="#704c55"/><path d="m402.16 267.27v36.71c0 26.99-17.39 49.93-41.57 58.21h-.04c-5.73-13.81-14.12-26.24-24.53-36.65-20.48-20.48-48.77-33.14-80.02-33.14v-48.92c.42-33.61 27.91-60.73 61.63-60.73 46.68 0 84.53 37.84 84.53 84.52z" fill="#5a344b"/><path d="m173.248 247.153h30.282v30h-30.282z" fill="#f0eeff"/><path d="m309.285 247.153h30.282v30h-30.282z" fill="#dadae5"/><path d="m271 436.77.01 75c-4.96.15-9.97.23-15.01.23s-10.03-.08-14.99-.23l-.01-75c-19.09-4.81-32.87-18.54-32.87-34.72 0-20.19 21.43-36.55 47.87-36.55s47.87 16.36 47.87 36.55c0 16.18-13.78 29.91-32.87 34.72z" fill="#704c55"/><path d="m271 436.77.01 75c-4.96.15-9.97.23-15.01.23v-146.5c26.44 0 47.87 16.36 47.87 36.55 0 16.18-13.78 29.91-32.87 34.72z" fill="#5a344b"/></g></svg>