<svg id="Capa_1" enable-background="new 0 0 512 512" height="512" viewBox="0 0 512 512" width="512" xmlns="http://www.w3.org/2000/svg"><g><path d="m321.14 65.06c0 2.3-.28 4.64-.87 6.99l-11.36 45.44h-105.82l-11.36-45.44c-4.51-18.02 9.12-35.48 27.7-35.48 0-10.1 4.09-19.24 10.71-25.86s15.76-10.71 25.86-10.71 19.24 4.09 25.86 10.71 10.71 15.76 10.71 25.86c16.16 0 28.57 13.2 28.57 28.49z" fill="#ff7900"/><path d="m321.14 65.06c0 2.3-.28 4.64-.87 6.99l-11.36 45.44h-52.91v-117.49c10.1 0 19.24 4.09 25.86 10.71s10.71 15.76 10.71 25.86c16.16 0 28.57 13.2 28.57 28.49z" fill="#fc2f00"/><path d="m438.85 292.57v146.29c0 20.2-16.37 36.57-36.56 36.57-20.2 0-36.57-16.37-36.57-36.57v36.57h.06c0 10.1-4.09 19.24-10.71 25.86s-15.76 10.71-25.86 10.71h-.06c-20.2 0-36.58-16.37-36.58-36.57 0 20.2-16.38 36.57-36.57 36.57s-36.57-16.37-36.57-36.57c0 20.2-16.38 36.57-36.58 36.57h-.06c-10.1 0-19.24-4.09-25.86-10.71s-10.71-15.76-10.71-25.86h.06v-36.57c0 20.2-16.37 36.57-36.57 36.57-20.19 0-36.56-16.37-36.56-36.57v-146.29c0-100.98 81.86-182.85 182.85-182.85s182.85 81.87 182.85 182.85z" fill="#f0eeff"/><path d="m256 109.72v402.28c20.19 0 36.57-16.37 36.57-36.57 0 20.2 16.38 36.57 36.58 36.57h.06c10.1 0 19.24-4.09 25.86-10.71s10.71-15.76 10.71-25.86h-.06v-36.57c0 20.2 16.37 36.57 36.57 36.57 20.19 0 36.56-16.37 36.56-36.57v-146.29c0-100.98-81.86-182.85-182.85-182.85z" fill="#dadae5"/><path d="m322.41 337.41-66.41 81.82-66.41-81.82c36.67.02 66.41-29.71 66.41-66.38 0 36.67 29.74 66.4 66.41 66.38z" fill="#ffa001"/><path d="m322.41 337.41-66.41 81.82v-148.2c0 36.67 29.74 66.4 66.41 66.38z" fill="#f77e01"/><path d="m172.542 241h30.281v30h-30.281z" fill="#704c55"/><path d="m309.177 241h30.281v30h-30.281z" fill="#5a344b"/></g></svg>