<svg id="Capa_1" enable-background="new 0 0 512 512" height="512" viewBox="0 0 512 512" width="512" xmlns="http://www.w3.org/2000/svg"><g><path d="m36.171 275.68c-41.959-190.752-.122-254.525-.122-254.525 42.719-3.979 91.443 22.476 113.455 57.91z" fill="#ff8496"/><path d="m475.829 275.68c41.959-190.752.122-254.525.122-254.525-42.719-3.979-91.443 22.476-113.455 57.91z" fill="#eb5569"/><path d="m475.83 271.411v81.55c0 76.37-61.92 138.28-138.29 138.28h-66.55l-14.99-16.01-15.01 16.01h-66.53c-76.37 0-138.29-61.91-138.29-138.28v-81.55c0-121.4 98.42-219.82 219.83-219.82s219.83 98.42 219.83 219.82z" fill="#f0eeff"/><path d="m475.83 271.411v81.55c0 76.37-61.92 138.28-138.29 138.28h-66.55l-14.99-16.01v-423.64c121.41 0 219.83 98.42 219.83 219.82z" fill="#dadae5"/><path d="m341.93 372.381c0 27.83-22.64 50.48-50.47 50.48-7.16 0-14.11-1.49-20.47-4.32v72.7h-30v-72.69c-6.36 2.83-13.3 4.31-20.45 4.31-27.83 0-50.47-22.65-50.47-50.48h30c0 11.29 9.19 20.48 20.47 20.48 11.16 0 20.14-8.73 20.47-37.36h29.98c.33 28.63 9.31 37.36 20.47 37.36 11.28 0 20.47-9.19 20.47-20.48z" fill="#ffc8cf"/><path d="m341.93 372.381c0 27.83-22.64 50.48-50.47 50.48-7.16 0-14.11-1.49-20.47-4.32v72.7h-14.99v-135.74h14.99c.33 28.63 9.31 37.36 20.47 37.36 11.28 0 20.47-9.19 20.47-20.48z" fill="#ffa6b3"/><path d="m151.039 242.773h-30c0-27.83 22.642-50.472 50.472-50.472 13.223 0 25.723 5.078 35.198 14.299 9.455 9.201 14.871 21.523 15.251 34.696l-29.987.866c-.322-11.137-9.31-19.861-20.462-19.861-11.289 0-20.472 9.184-20.472 20.472z" fill="#704c55"/><path d="m320.041 242.773h-30c0-27.83 22.642-50.472 50.472-50.472 13.223 0 25.724 5.078 35.198 14.299 9.454 9.201 14.87 21.523 15.251 34.696l-29.988.866c-.321-11.137-9.309-19.861-20.461-19.861-11.288 0-20.472 9.184-20.472 20.472z" fill="#5a344b"/><path d="m5.747 410.436h128.006v30h-128.006z" fill="#ffc8cf" transform="matrix(.854 -.52 .52 .854 -211.175 98.416)"/><path d="m.966 328.922h110.571v30h-110.571z" fill="#ffc8cf" transform="matrix(.997 -.075 .075 .997 -25.525 5.161)"/><path d="m427.25 361.433h30v128.005h-30z" fill="#ffa6b3" transform="matrix(.52 -.854 .854 .52 -151.172 581.74)"/><path d="m440.749 288.637h30v110.57h-30z" fill="#ffa6b3" transform="matrix(.075 -.997 .997 .075 78.76 772.721)"/><path d="m304.36 320.871-33.41 41.76c-3.83 4.79-9.39 7.19-14.95 7.19-5.57 0-11.13-2.4-14.97-7.19l-33.42-41.77c-10.03-12.54-1.1-31.12 14.96-31.12h66.83c16.07 0 25 18.58 14.96 31.13z" fill="#ff8496"/><path d="m304.36 320.871-33.41 41.76c-3.83 4.79-9.39 7.19-14.95 7.19v-80.08h33.4c16.07 0 25 18.58 14.96 31.13z" fill="#eb5569"/></g></svg>