<svg id="Capa_1" enable-background="new 0 0 512 512" height="512" viewBox="0 0 512 512" width="512" xmlns="http://www.w3.org/2000/svg"><g><path d="m512 327.95c0 131.18-114.62 184.05-256 184.05s-256-52.87-256-184.05c0-131.19 114.62-291.02 256-291.02s256 159.83 256 291.02z" fill="#9b786f"/><path d="m512 327.95c0 131.18-114.62 184.05-256 184.05v-475.07c141.38 0 256 159.83 256 291.02z" fill="#704c55"/><circle cx="146.256" cy="292.513" fill="#f0eeff" r="73.162"/><circle cx="365.744" cy="292.513" fill="#dadae5" r="73.162"/><path d="m131.115 279.39h30.282v30h-30.282z" fill="#704c55"/><path d="m350.603 277.513h30.282v30h-30.282z" fill="#5a344b"/><path d="m295.74 319.13v79.47l-39.74 43.46-39.74-43.46v-79.47c0-10.97 4.45-20.91 11.64-28.1s17.12-11.64 28.1-11.64c21.95 0 39.74 17.79 39.74 39.74z" fill="#ffa001"/><path d="m295.74 319.13v79.47l-39.74 43.46v-162.67c21.95 0 39.74 17.79 39.74 39.74z" fill="#f77e01"/><path d="m152.714 53.857h-68.857c-29.697 0-53.857-24.16-53.857-53.857h-30v68.857c0 46.239 37.618 83.857 83.857 83.857h68.856c29.697 0 53.857 24.16 53.857 53.857h30v-68.857c.001-46.239-37.617-83.857-83.856-83.857z" fill="#704c55"/><path d="m275.429 137.714v68.857h30c0-29.697 24.16-53.857 53.857-53.857h68.856c46.239 0 83.857-37.618 83.857-83.857v-68.857h-30c0 29.697-24.16 53.857-53.857 53.857h-68.856c-46.239 0-83.857 37.618-83.857 83.857z" fill="#5a344b"/></g></svg>