<svg id="Capa_1" enable-background="new 0 0 512 512" height="512" viewBox="0 0 512 512" width="512" xmlns="http://www.w3.org/2000/svg"><g><path d="m276.561 166.847v162.296h16.011c80.791 0 146.286-65.494 146.286-146.286v-16.011h-162.297z" fill="#f77e01"/><path d="m146.286 36.571h219.429c80.791 0 146.285 65.495 146.285 146.286v73.144c0-40.395-32.747-73.142-73.143-73.141h-162.296z" fill="#ffa001"/><path d="m292.57 182.86v146.28c0 80.79-65.49 146.29-146.28 146.29h-146.29v-292.57c0-80.79 65.49-146.29 146.29-146.29 40.39 0 76.97 16.37 103.44 42.85 26.47 26.47 42.84 63.04 42.84 103.44z" fill="#60d94d"/><path d="m292.57 182.86v146.28c0 80.79-65.49 146.29-146.28 146.29v-438.86c40.39 0 76.97 16.37 103.44 42.85 26.47 26.47 42.84 63.04 42.84 103.44z" fill="#00b863"/><path d="m219.43 182.86c0 40.39-32.75 73.14-73.14 73.14-40.4 0-73.15-32.75-73.15-73.14 0-40.4 32.75-73.15 73.15-73.15 40.39 0 73.14 32.75 73.14 73.15z" fill="#f0eeff"/><path d="m219.43 182.86c0 40.39-32.75 73.14-73.14 73.14v-146.29c40.39 0 73.14 32.75 73.14 73.15z" fill="#dadae5"/><path d="m131.14 167.85h30.29v30h-30.29z" fill="#704c55"/><path d="m146.29 167.85h15.14v30h-15.14z" fill="#5a344b"/></g></svg>