<svg id="Capa_1" enable-background="new 0 0 512 512" height="512" viewBox="0 0 512 512" width="512" xmlns="http://www.w3.org/2000/svg"><g><path d="m146.445 318.805c-11.681 3.524-21.479 5.771-27.471 5.771-27.765 0-50.273-22.837-50.273-51.016 0-10.399 3.07-20.086 8.349-28.148-4.153.744-7.722 1.158-10.579 1.158-36.709 0-66.471-30.198-66.471-67.449s29.762-67.459 66.471-67.459c23.9 0 97.162 28.594 145.381 48.55z" fill="#ffe477"/><path d="m241 462.57h30v49.43h-30z" fill="#704c55"/><path d="m256 462.57h15v49.43h-15z" fill="#5a344b"/><path d="m365.555 318.805c11.681 3.524 21.479 5.771 27.471 5.771 27.765 0 50.273-22.837 50.273-51.016 0-10.399-3.07-20.086-8.349-28.148 4.153.744 7.722 1.158 10.579 1.158 36.709 0 66.471-30.198 66.471-67.448s-29.762-67.459-66.471-67.459c-23.9 0-97.162 28.594-145.381 48.55z" fill="#ffb655"/><path d="m349.19 326.4s15.21 10.08 14.58 15c-2.13 16.76-5.96 32.61-11.22 47.14-1.87 5.18-22.15 15-22.15 15s11 10.23 8.21 15c-20.1 34.41-49.65 56.14-82.6 56.14h-.01c-32.95 0-62.49-21.73-82.6-56.14-2.79-4.77 8.21-15 8.21-15s-20.28-9.82-22.15-15c-5.26-14.53-9.09-30.38-11.22-47.14-.62-4.86 14.59-14.8 14.59-14.8s-16.5-10.07-16.52-15.2c-.01-.29-.01-.58-.01-.87 0-16.07 1.54-31.6 4.43-46.27 1-5.11 19.48-15 19.48-15s-13.08-10.14-11.37-15c11.52-32.8 30.24-59.04 53.01-74.04h44.15l44.16-.01c22.77 15 41.49 41.25 53.01 74.05 1.67 4.75-11.47 14.63-11.47 14.63s18.56 10.13 19.57 15.37c2.9 14.67 4.43 30.2 4.43 46.27v.87c-.01 5.06-16.51 15-16.51 15z" fill="#ffa001"/><path d="m349.19 326.4s15.21 10.08 14.58 15c-2.13 16.76-5.96 32.61-11.22 47.14-1.87 5.18-22.15 15-22.15 15s11 10.23 8.21 15c-20.1 34.41-49.65 56.14-82.6 56.14h-.01v-314.46l44.16-.01c22.77 15 41.49 41.25 53.01 74.05 1.67 4.75-11.47 14.63-11.47 14.63s18.56 10.13 19.57 15.37c2.9 14.67 4.43 30.2 4.43 46.27v.87c-.01 5.06-16.51 15-16.51 15z" fill="#f77e01"/><path d="m212.881 96.001c-16.929-12.692-28.512-45.951-39.854-81.832-.557-1.762-1.092-3.455-1.605-5.064l28.585-9.105c.519 1.63 1.061 3.344 1.625 5.127 5.572 17.626 18.62 58.905 29.245 66.871z" fill="#704c55"/><path d="m299.148 96.001-17.996-24.003c10.625-7.966 23.673-49.245 29.245-66.871.563-1.783 1.105-3.498 1.625-5.127l28.585 9.105c-.513 1.61-1.048 3.303-1.604 5.063-11.343 35.883-22.926 69.141-39.855 81.833z" fill="#5a344b"/><path d="m316.95 122c0 33.66-27.29 60.94-60.95 60.94s-60.95-27.28-60.95-60.94c0-33.67 27.29-60.95 60.95-60.95s60.95 27.28 60.95 60.95z" fill="#704c55"/><path d="m256 182.94v-121.89c33.66 0 60.95 27.28 60.95 60.95 0 33.66-27.29 60.94-60.95 60.94z" fill="#5a344b"/><g fill="#704c55"><path d="m352.54 388.54c-3.89 10.79-8.57 20.84-13.94 30h-165.2c-5.37-9.16-10.05-19.21-13.94-30z"/><path d="m365.7 311.4c-.04 10.25-.69 20.28-1.93 30h-215.54c-1.24-9.72-1.89-19.75-1.93-30z"/><path d="m361.27 264.26h-210.54c2.04-10.47 4.77-20.51 8.11-30h194.33c3.34 9.49 6.07 19.53 8.1 30z"/></g><path d="m256 388.54h96.54c-3.89 10.79-8.57 20.84-13.94 30h-82.6z" fill="#5a344b"/><path d="m361.27 264.26h-105.27v-30h97.17c3.34 9.49 6.07 19.53 8.1 30z" fill="#5a344b"/><path d="m365.7 311.4c-.04 10.25-.69 20.28-1.93 30h-107.77v-30z" fill="#5a344b"/></g></svg>