<svg id="Capa_1" enable-background="new 0 0 512 512" height="512" viewBox="0 0 512 512" width="512" xmlns="http://www.w3.org/2000/svg"><g><path d="m116.271 109.31c-20.012 1.475-50.338.132-68.315-17.844-28.564-28.564-15.13-88.31-15.13-88.31s59.746-13.434 88.31 15.13c13.883 13.883 17.845 35.131 18.25 53.306l-1.719 23.408z" fill="#aa6100"/><path d="m395.729 109.31c20.012 1.475 50.338.132 68.315-17.844 28.564-28.564 15.13-88.31 15.13-88.31s-59.746-13.434-88.31 15.13c-13.883 13.883-17.845 35.131-18.25 53.306l6.22 26.575z" fill="#8e4e02"/><g><g><path d="m329.14 339.67v99.19c0 20.2-8.19 38.48-21.42 51.72-13.24 13.23-31.52 21.42-51.72 21.42-40.39 0-73.14-32.75-73.14-73.14v-99.19z" fill="#aa6100"/></g></g><path d="m329.14 339.67v99.19c0 20.2-8.19 38.48-21.42 51.72-13.24 13.23-31.52 21.42-51.72 21.42v-172.33z" fill="#8e4e02"/><g><g><path d="m396.93 332.21c3.5 5.73 5.35 12.32 5.35 19.04v32.75c0 15.15-6.14 28.86-16.07 38.79-9.92 9.93-23.63 16.07-38.78 16.07-50.5 0-91.43-40.93-91.43-91.43l57.21-39.11c9.97-6.82 15.93-18.11 15.93-30.19v-58.25c0-20.2-8.18-38.48-21.42-51.72-13.24-13.23-31.52-21.42-51.72-21.42-40.4 0-73.14 32.75-73.14 73.14v58.25c0 12.08 5.96 23.37 15.93 30.19l57.21 39.11c0 25.25-10.23 48.11-26.78 64.65-16.54 16.55-39.4 26.78-64.65 26.78-30.29 0-54.85-24.56-54.85-54.86v-32.96c0-6.74 1.86-13.36 5.39-19.11l29.55-48.23-34.94-136.86c0-60.9 49.37-110.27 110.27-110.27h72.02c60.9 0 110.27 49.37 110.27 110.27l-34.95 136.86z" fill="#ffa001"/></g></g><path d="m396.93 332.21c3.5 5.73 5.35 12.32 5.35 19.04v32.75c0 15.15-6.14 28.86-16.07 38.79-9.92 9.93-23.63 16.07-38.78 16.07-50.5 0-91.43-40.93-91.43-91.43v-310.86h36.01c60.9 0 110.27 49.37 110.27 110.27l-34.95 136.86z" fill="#f77e01"/><g><g><path d="m329.14 219.88v58.25c0 12.08-5.96 23.37-15.93 30.19l-57.21 39.11-57.21-39.11c-9.97-6.82-15.93-18.11-15.93-30.19v-58.25c0-40.39 32.74-73.14 73.14-73.14 20.2 0 38.48 8.19 51.72 21.42 13.24 13.24 21.42 31.52 21.42 51.72z" fill="#ffe477"/></g></g><path d="m329.14 219.88v58.25c0 12.08-5.96 23.37-15.93 30.19l-57.21 39.11v-200.69c20.2 0 38.48 8.19 51.72 21.42 13.24 13.24 21.42 31.52 21.42 51.72z" fill="#ffb655"/><path d="m36.819 213.659c-.149 1.906-.248 3.826-.248 5.77 0 40.396 32.747 73.143 73.143 73.143s73.143-32.747 73.143-73.143c0-1.944-.099-3.864-.248-5.77z" fill="#ffe477"/><path d="m182.857 219.429h-146.286c0-40.396 32.747-73.143 73.143-73.143s73.143 32.748 73.143 73.143z" fill="#aa6100"/><path d="m329.391 213.659c-.149 1.906-.248 3.826-.248 5.77 0 40.396 32.747 73.143 73.143 73.143s73.143-32.747 73.143-73.143c0-1.944-.099-3.864-.248-5.77z" fill="#ffb655"/><path d="m475.429 219.429h-146.286c0-40.396 32.747-73.143 73.143-73.143s73.143 32.748 73.143 73.143z" fill="#8e4e02"/></g></svg>