<svg id="Capa_1" enable-background="new 0 0 512 512" height="512" viewBox="0 0 512 512" width="512" xmlns="http://www.w3.org/2000/svg"><g><path d="m69.673 163.095c-37.275-30.281-13.679-64.7-33.224-91.641-18.224-25.119-34.379-35.551-36.449-36.846v-.131s114.92-50.447 172.498 35.128z" fill="#ff8496"/><path d="m442.327 163.095c37.275-30.281 13.679-64.7 33.224-91.641 18.224-25.119 34.379-35.551 36.449-36.846v-.131s-114.92-50.447-172.498 35.128z" fill="#eb5569"/><path d="m468.23 264.782v49.36c0 70.74-34.84 129.4-102.52 140.26-24.14 23.04-52.65 37.89-109.71 37.89-55.91 0-85.57-14.85-109.71-37.89-67.68-10.86-102.52-69.52-102.52-140.26v-49.36c0-117.21 95.01-212.23 212.23-212.23s212.23 95.02 212.23 212.23z" fill="#ffc8cf"/><path d="m468.23 264.782v49.36c0 70.74-34.84 129.4-102.52 140.26-24.14 23.04-52.65 37.89-109.71 37.89v-439.74c117.22 0 212.23 95.02 212.23 212.23z" fill="#ffa6b3"/><ellipse cx="256" cy="345.962" fill="#ff8496" rx="109.71" ry="73.19"/><path d="m365.71 345.962c0 40.42-49.12 73.19-109.71 73.19v-146.38c60.59 0 109.71 32.77 109.71 73.19z" fill="#eb5569"/><path d="m275.288 330.962h30.281v30h-30.281z" fill="#ca2e43"/><path d="m206.431 330.962h30.281v30h-30.281z" fill="#eb5569"/><path d="m173.081 188.02h30.282v30h-30.282z" fill="#704c55"/><path d="m309.717 188.02h30.281v30h-30.281z" fill="#5a344b"/></g></svg>