<svg id="Capa_1" enable-background="new 0 0 512 512" height="512" viewBox="0 0 512 512" width="512" xmlns="http://www.w3.org/2000/svg"><g><path d="m136.046 102.813-23.074-19.172-68.747 82.743c-28.519 34.323-44.225 77.803-44.225 122.428 0 36.748 29.896 66.645 66.645 66.645s66.645-29.896 66.645-66.645z" fill="#aa6100"/><path d="m467.775 166.384-68.747-82.743-23.074 19.172 2.757 185.999c0 36.748 29.896 66.645 66.645 66.645s66.644-29.897 66.644-66.645c0-44.625-15.706-88.105-44.225-122.428z" fill="#8e4e02"/><path d="m330.292 311.724v92.86c0 41.036-33.266 74.292-74.292 74.292s-74.292-33.256-74.292-74.292v-92.86z" fill="#ffe477"/><path d="m256 311.724v167.152c41.026 0 74.292-33.256 74.292-74.292v-92.86z" fill="#ffb655"/><path d="m404.585 107.568v241.302c0 30.767-24.947 55.714-55.714 55.714-25.648 0-48.868-10.391-65.668-27.202-16.812-16.8-27.203-40.02-27.203-65.658 0 25.638-10.391 48.858-27.202 65.658-16.801 16.811-40.021 27.202-65.668 27.202-30.767 0-55.714-24.947-55.714-55.714v-241.302c0-41.118 33.327-74.445 74.445-74.445h148.28c41.117 0 74.444 33.327 74.444 74.445z" fill="#ffa001"/><path d="m256 33.123v278.601c0 25.638 10.391 48.858 27.202 65.658 16.801 16.811 40.021 27.202 65.668 27.202 30.767 0 55.714-24.947 55.714-55.714v-241.302c0-41.118-33.327-74.445-74.445-74.445z" fill="#f77e01"/><path d="m305.051 250.403-49.051 61.321-49.051-61.321c-10.168-12.717-1.117-31.549 15.165-31.549h67.771c16.283 0 25.333 18.832 15.166 31.549z" fill="#cc7400"/><path d="m305.051 250.403-49.051 61.321v-92.87h33.885c16.283 0 25.333 18.832 15.166 31.549z" fill="#aa6100"/><path d="m190.272 135.853h30.758v30.473h-30.758z" fill="#704c55"/><path d="m290.97 135.853h30.758v30.473h-30.758z" fill="#5a344b"/></g></svg>