<svg id="Capa_1" enable-background="new 0 0 512 512" height="512" viewBox="0 0 512 512" width="512" xmlns="http://www.w3.org/2000/svg"><g><path d="m512 219.43h-311v-203.42l18.43-16.01h146.28c40.4 0 76.97 16.37 103.45 42.84 9.01 9.01 16.85 19.2 23.27 30.3 0 0 8.32 31.23 14.11 73.15 3.09 22.38 5.46 47.8 5.46 73.14z" fill="#ffa001"/><path d="m512 219.43h-311v-73.14h305.54c3.09 22.38 5.46 47.8 5.46 73.14z" fill="#ff7900"/><path d="m512 146.29v73.14c0-40.4-32.75-73.14-73.14-73.14h-19.48c0-40.37 32.7-73.1 73.05-73.15 12.45 21.52 19.57 46.5 19.57 73.15z" fill="#704c55"/><path d="m219.43 0v219.43l-73.14 276.53c-19.26 10.24-41.24 16.04-64.57 16.04h-81.72v-374.29c0-76.06 61.65-137.71 137.71-137.71z" fill="#704c55"/><path d="m219.43 146.29v73.14l-73.14 276.53c-19.26 10.24-41.24 16.04-64.57 16.04h-81.72v-365.71z" fill="#5a344b"/><path d="m219.43 73.14v301.15c0 52.72-29.63 98.52-73.14 121.67l-.01-276.53c-20.2 0-38.48-8.19-51.72-21.42-13.23-13.24-21.42-31.53-21.42-51.72 0-40.4 32.75-73.15 73.15-73.15z" fill="#f0eeff"/><path d="m219.43 146.29v228c0 52.72-29.63 98.52-73.14 121.67l-.01-276.53c-20.2 0-38.48-8.19-51.72-21.42-13.23-13.24-21.42-31.53-21.42-51.72z" fill="#dadae5"/><path d="m131.12 131.29h30.28v30h-30.28z" fill="#704c55"/><g fill="#5a344b"><path d="m131.12 146.29h30.28v15h-30.28z"/><path d="m512 146.29v73.14c0-40.4-32.75-73.14-73.14-73.14z"/></g></g></svg>