<svg id="Capa_1" enable-background="new 0 0 512 512" height="512" viewBox="0 0 512 512" width="512" xmlns="http://www.w3.org/2000/svg"><g><g><g fill="#704c55"><path d="m98.857 512h-30v-196.801l107.127-71.418 16.641 24.962-93.768 62.512z"/><path d="m190.91 135.31-87.624-43.813v-91.497h30v72.956l71.04 35.521z"/><path d="m183.73 199.33-153.73 64.98v179.06h-30v-198.94l131.83-55.73-97.4-26.11v-100.82h30v77.81l117.34 31.44z"/></g></g><g fill="#5a344b"><path d="m443.143 512h-30v-180.745l-93.768-62.512 16.641-24.962 107.127 71.418z"/><path d="m321.09 135.31-13.416-26.833 71.04-35.521v-72.956h30v91.497z"/><path d="m512 244.43v198.94h-30v-179.06l-153.73-64.98 1.96-28.31 117.34-31.44v-77.81h30v100.82l-97.4 26.11z"/></g><path d="m201.838 41.1h30v50.62h-30z" fill="#704c55" transform="matrix(.891 -.455 .455 .891 -6.478 105.898)"/><path d="m374.25 334.96c0 43.68-11.85 87.7-32.52 120.78-22.67 36.28-53.11 56.26-85.73 56.26s-63.06-19.98-85.73-56.26c-20.67-33.08-32.52-77.1-32.52-120.78 0-44.27 12.08-73.82 36.94-90.34 2.74-1.82 5.58-3.44 8.51-4.89-13.63-12.16-20.53-30.77-20.53-55.51 0-29.63 9.23-58.14 25.98-80.3 17.89-23.66 41.81-36.69 67.35-36.69s49.46 13.03 67.35 36.69c16.75 22.16 25.98 50.67 25.98 80.3 0 24.74-6.9 43.35-20.53 55.51 2.93 1.45 5.77 3.07 8.51 4.89 24.86 16.52 36.94 46.07 36.94 90.34z" fill="#9b786f"/><path d="m269.852 51.41h50.62v30h-50.62z" fill="#5a344b" transform="matrix(.455 -.891 .891 .455 101.764 299.065)"/><path d="m374.25 334.96c0 43.68-11.85 87.7-32.52 120.78-22.67 36.28-53.11 56.26-85.73 56.26v-444.77c25.54 0 49.46 13.03 67.35 36.69 16.75 22.16 25.98 50.67 25.98 80.3 0 24.74-6.9 43.35-20.53 55.51 2.93 1.45 5.77 3.07 8.51 4.89 24.86 16.52 36.94 46.07 36.94 90.34z" fill="#704c55"/></g></svg>