<svg id="Capa_1" enable-background="new 0 0 512 512" height="512" viewBox="0 0 512 512" width="512" xmlns="http://www.w3.org/2000/svg"><g><path d="m92.119 109.718c-19.372.408-44.2-2.685-59.767-18.252-28.564-28.564-15.13-88.31-15.13-88.31s59.746-13.434 88.31 15.13c13.883 13.883 17.845 35.131 18.25 53.306l-8.949 22.408z" fill="#aa6100"/><path d="m419.881 109.718c19.372.408 44.2-2.685 59.767-18.252 28.564-28.564 15.13-88.31 15.13-88.31s-59.746-13.434-88.31 15.13c-13.883 13.883-17.845 35.131-18.25 53.306l13.115 23.742z" fill="#8e4e02"/><path d="m438.86 181.42v129.58h-365.72v-129.58c0-79.99 64.85-144.84 144.84-144.84h76.04c79.99 0 144.84 64.85 144.84 144.84z" fill="#cc7400"/><path d="m438.86 311h-182.86v-274.42h38.02c79.99 0 144.84 64.85 144.84 144.84z" fill="#aa6100"/><path d="m512 365.71-16.01 20.29h-479.98l-16.01-20.29c0-40.39 32.75-73.14 73.15-73.14 0-40.39 32.74-73.14 73.13-73.14 20.19 0 38.49 8.19 51.72 21.42 13.24 13.24 21.43 31.53 21.43 51.72h73.14c0-40.39 32.75-73.14 73.15-73.14 20.19 0 38.47 8.19 51.71 21.42 13.23 13.24 21.42 31.53 21.42 51.72 40.4 0 73.15 32.75 73.15 73.14z" fill="#ffe477"/><path d="m512 365.71v20.29h-256v-93.43h36.57c0-40.39 32.75-73.14 73.15-73.14 20.19 0 38.47 8.19 51.71 21.42 13.23 13.24 21.42 31.53 21.42 51.72 40.4 0 73.15 32.75 73.15 73.14z" fill="#ffb655"/><path d="m512 365.71v73.14c0 40.4-32.75 73.15-73.15 73.15h-365.7c-40.4 0-73.15-32.75-73.15-73.15v-73.14h118.286l34.429 16.01 34.429-16.01h137.714l34.429 16.01 34.429-16.01z" fill="#ffb655"/><path d="m512 365.71v73.14c0 40.4-32.75 73.15-73.15 73.15h-182.85v-146.29h68.875l34.411 16.01 34.339-16.01z" fill="#ffa001"/><path d="m118.286 365.71h68.857v68.857h-68.857z" fill="#f0eeff"/><path d="m324.857 365.71h68.857v68.857h-68.857z" fill="#dadae5"/><path d="m131.139 275.429h30.281v30h-30.281z" fill="#704c55"/><path d="m172.002 137.714h30.282v30h-30.282z" fill="#704c55"/><g fill="#5a344b"><path d="m309.717 137.714h30.281v30h-30.281z"/><path d="m351.192 275.429h30.282v30h-30.282z"/></g></g></svg>