<svg id="Capa_1" enable-background="new 0 0 512 512" height="512" viewBox="0 0 512 512" width="512" xmlns="http://www.w3.org/2000/svg"><g><path d="m512 219.43v146.29c-80.79 0-146.28 65.49-146.28 146.28h-109.72v-512h36.57c121.19 0 219.43 98.24 219.43 219.43z" fill="#e9cc17"/><g><path d="m512 219.43v146.29c-80.79 0-146.28 65.49-146.28 146.28h-219.44c0-80.79-65.49-146.28-146.28-146.28v-146.29c0-121.19 98.24-152.769 219.43-152.769h73.14c121.19 0 219.43 31.579 219.43 152.769z" fill="#f0eeff"/><path d="m512 219.43v146.29c-80.79 0-146.28 65.49-146.28 146.28h-109.72v-445.339h36.57c121.19 0 219.43 31.579 219.43 152.769z" fill="#dadae5"/></g><path d="m300.26 431.74-19.66 22.66-24.6-21.33-24.6 21.33-19.66-22.66 29.26-25.37v-47.08h30v47.08z" fill="#ff7900"/><path d="m300.26 431.74-19.66 22.66-24.6-21.33v-73.78h15v47.08z" fill="#fc2f00"/><path d="m511.99 218.46c-.47-20.87-15.9-72.17-73.35-72.17-40.49 0-72.93 33.75-72.93 74.24l-73.14 141.9c-4.72 2.14-9.87 3.28-15.15 3.28h-42.84c-5.28 0-10.43-1.14-15.15-3.28l-73.14-141.9c0-40.49-32.44-74.24-72.93-74.24-57.2 0-72.87 51.3-73.35 72.17.51-120.74 98.55-218.46 219.42-218.46h73.14c120.87 0 218.91 97.72 219.42 218.46z" fill="#60d94d"/><path d="m511.99 218.46c-.47-20.87-15.9-72.17-73.35-72.17-40.49 0-72.93 33.75-72.93 74.24l-73.14 141.9c-4.72 2.14-9.87 3.28-15.15 3.28h-21.42v-365.71h36.57c120.87 0 218.91 97.72 219.42 218.46z" fill="#00b863"/><path d="m365.71 220.53v41.74c0 19.4-7.7 38.01-21.42 51.72l-41.01 41.01c-3.13 3.13-6.76 5.63-10.71 7.43v-68.75c0-40.4 32.75-73.15 73.14-73.15z" fill="#60d94d"/><path d="m219.43 293.68v68.75c-3.95-1.8-7.58-4.3-10.71-7.43l-41.01-41.01c-13.72-13.71-21.42-32.32-21.42-51.72v-41.74c40.39 0 73.14 32.75 73.14 73.15z" fill="#b5f94b"/></g></svg>