<svg id="Capa_1" enable-background="new 0 0 512 512" height="512" viewBox="0 0 512 512" width="512" xmlns="http://www.w3.org/2000/svg"><g><path d="m65.261 168.846c-37.459-9.145-65.261-42.927-65.261-83.203 0-47.299 38.344-85.643 85.643-85.643 43.632 0 79.643 32.628 84.965 74.817z" fill="#aa6100"/><path d="m341.392 74.817c5.321-42.189 41.333-74.817 84.965-74.817 47.299 0 85.643 38.344 85.643 85.643 0 40.276-27.802 74.058-65.261 83.203z" fill="#8e4e02"/><path d="m475.02 276.56v51.59c0 73-35.95 133.54-105.79 144.75-12.46 11.88-62.85 17.83-113.23 17.83s-100.77-5.95-113.23-17.83c-69.84-11.21-105.79-71.75-105.79-144.75v-51.59c0-120.95 98.05-219.02 219.02-219.02s219.02 98.07 219.02 219.02z" fill="#cc7400"/><path d="m475.02 276.56v51.59c0 73-35.95 133.54-105.79 144.75-12.46 11.88-62.85 17.83-113.23 17.83v-433.19c120.97 0 219.02 98.07 219.02 219.02z" fill="#aa6100"/><path d="m369.23 385.75v87.15c-22.67 21.62-50.04 36.26-98.23 38.73-4.79.24-15-15.3-15-15.3s-10.21 15.54-15 15.3c-48.19-2.47-75.56-17.11-98.23-38.73v-87.15c0-62.53 50.7-113.22 113.23-113.22s113.23 50.69 113.23 113.22z" fill="#ffe477"/><path d="m256 272.53v223.8s10.21 15.54 15 15.3c48.19-2.47 75.56-17.11 98.23-38.73v-87.15c0-62.53-50.7-113.22-113.23-113.22z" fill="#ffb655"/><path d="m299.63 389.94-28.63 35.79v85.91c-4.78.24-9.77.36-15 .36-5.22 0-10.21-.13-15-.37v-85.9l-28.63-35.79c-9.05-11.31-.99-28.06 13.49-28.06h60.28c14.48 0 22.54 16.75 13.49 28.06z" fill="#704c55"/><path d="m299.63 389.94-28.63 35.79v85.91c-4.78.24-9.77.36-15 .36v-150.12h30.14c14.48 0 22.54 16.75 13.49 28.06z" fill="#5a344b"/><path d="m173.248 206.87h30.281v30h-30.281z" fill="#704c55"/><path d="m309.285 206.87h30.281v30h-30.281z" fill="#5a344b"/></g></svg>