<svg id="Capa_1" enable-background="new 0 0 512 512" height="512" viewBox="0 0 512 512" width="512" xmlns="http://www.w3.org/2000/svg"><g><path d="m234 292.424h-124.287c-60.593 0-109.713-49.12-109.713-109.713 0-60.593 49.12-109.713 109.713-109.713h.003c60.593 0 109.713 49.12 109.713 109.713h14.571z" fill="#ff8496"/><path d="m234 292.424h-108.352c-51.794 0-93.781 41.987-93.781 93.781 0 51.794 41.987 93.781 93.781 93.781 51.794 0 93.781-41.987 93.781-93.781h14.571z" fill="#60d94d"/><path d="m234 292.424h-71.331c-31.347 0-56.759 25.412-56.759 56.759 0 31.347 25.412 56.759 56.759 56.759 31.347 0 56.759-25.412 56.759-56.759h14.572z" fill="#ffe477"/><path d="m146.285 292.424c-40.395 0-73.142-32.747-73.142-73.142 0-40.395 32.747-73.142 73.142-73.142h.002c40.395 0 73.142 32.747 73.142 73.142h14.571v73.142z" fill="#ffc8cf"/><g><path d="m205.019 34.339h30v93.748h-30z" fill="#704c55" transform="matrix(.944 -.33 .33 .944 -14.476 77.213)"/><path d="m245.158 66.177h93.672v30h-93.672z" fill="#5a344b" transform="matrix(.33 -.944 .944 .33 118.944 329.982)"/></g><path d="m131.145 204.282h30.281v30h-30.281z" fill="#704c55"/><path d="m278 292.424h124.287c60.593 0 109.713-49.12 109.713-109.713 0-60.593-49.12-109.713-109.713-109.713h-.003c-60.593 0-109.713 49.12-109.713 109.713h-14.571z" fill="#eb5569"/><path d="m278 292.424h108.352c51.794 0 93.781 41.987 93.781 93.781 0 51.794-41.987 93.781-93.781 93.781-51.794 0-93.781-41.987-93.781-93.781h-14.571z" fill="#00b863"/><path d="m278 292.424h71.331c31.347 0 56.759 25.412 56.759 56.759 0 31.347-25.412 56.759-56.759 56.759-31.347 0-56.759-25.412-56.759-56.759h-14.572z" fill="#ffb655"/><path d="m365.715 292.424c40.395 0 73.142-32.747 73.142-73.142 0-40.395-32.747-73.142-73.142-73.142h-.002c-40.395 0-73.142 32.747-73.142 73.142h-14.571v73.142z" fill="#ffa6b3"/><path d="m350.574 204.282h30.281v30h-30.281z" fill="#5a344b"/><path d="m292.57 130.208v292.57c0 20.2-16.37 36.57-36.57 36.57s-36.57-16.37-36.57-36.57v-292.57c0-20.2 16.37-36.57 36.57-36.57s36.57 16.37 36.57 36.57z" fill="#9b786f"/><path d="m256 93.638v365.71c20.2 0 36.57-16.37 36.57-36.57v-292.57c0-20.2-16.37-36.57-36.57-36.57z" fill="#704c55"/></g></svg>