<svg id="Capa_1" enable-background="new 0 0 512 512" height="512" viewBox="0 0 512 512" width="512" xmlns="http://www.w3.org/2000/svg"><g><path d="m165.128 456.243c-6.917 13.495-13.852 24.657-20.254 31.059-28.862 28.862-71.487 33.031-95.206 9.312s-19.55-66.344 9.312-95.206c8.962-8.962 27.25-18.968 48.208-28.506z" fill="#ff7900"/><path d="m346.872 456.243c6.917 13.495 13.852 24.657 20.254 31.059 28.862 28.862 71.487 33.031 95.206 9.312s19.55-66.344-9.312-95.206c-8.962-8.962-27.25-18.968-48.208-28.506z" fill="#fc2f00"/><path d="m408.67 333.26c0 103.08-68.35 144.62-152.67 144.62s-152.67-41.54-152.67-144.62c0-82.76 44.07-180.03 105.08-215.16h95.18c61.01 35.13 105.08 132.4 105.08 215.16z" fill="#ffb655"/><path d="m408.67 333.26c0 103.08-68.35 144.62-152.67 144.62v-359.78h47.59c61.01 35.13 105.08 132.4 105.08 215.16z" fill="#ffa001"/><path d="m310.49 87.27c0 39.34-24.39 55.19-54.49 55.19s-54.49-15.85-54.49-55.19 54.49-87.27 54.49-87.27 54.49 47.93 54.49 87.27z" fill="#ff7900"/><path d="m329.27 364.19s-32.81 36.95-73.27 36.95-73.27-36.95-73.27-36.95 32.81-36.95 73.27-36.95 73.27 36.95 73.27 36.95z" fill="#ff7900"/><path d="m191.291 241h30.282v30h-30.282z" fill="#704c55"/><path d="m256 142.46v-142.46s54.49 47.93 54.49 87.27-24.39 55.19-54.49 55.19z" fill="#fc2f00"/><path d="m329.27 364.19s-32.81 36.95-73.27 36.95v-73.9c40.46 0 73.27 36.95 73.27 36.95z" fill="#fc2f00"/><path d="m290.428 241h30.282v30h-30.282z" fill="#5a344b"/></g></svg>