<svg id="Capa_1" enable-background="new 0 0 512 512" height="512" viewBox="0 0 512 512" width="512" xmlns="http://www.w3.org/2000/svg"><path d="m407.446 115.81c2.788-9.089 7.204-17.637 13.992-24.424 28.564-28.564 87.406-15.13 87.406-15.13s13.434 59.746-15.13 88.31c-14.512 14.512-36.169 18.184-54.854 18.284z" fill="#5a344b"/><path d="m131.993 109.714c23.369 0 13.926-79.595 36.084-103.307 7.978-8.541 21.52-8.543 29.502-.005l.005.005c22.147 23.712 9.829 103.307 36.138 103.307v15.786h-101.729z" fill="#ffe477"/><path d="m73.134 182.854c-18.685-.1-40.336-3.772-54.848-18.284-28.564-28.564-15.13-88.31-15.13-88.31s58.836-13.434 87.4 15.13c6.787 6.787 11.203 15.335 13.992 24.424z" fill="#704c55"/><path d="m278.279 109.714c23.369 0 13.926-79.595 36.084-103.307 7.978-8.541 21.52-8.543 29.502-.005l.005.005c22.147 23.712 9.829 103.307 36.138 103.307v15.786h-101.729z" fill="#ffb655"/><g><path d="m438.86 182.85-88.86 182.86h.24c29.33 0 53.11 23.78 53.11 53.12v40.06c0 29.33-23.78 53.11-53.11 53.11h-187.41c-29.34 0-53.12-23.78-53.12-53.11v-40.06c0-29.31 23.74-53.08 53.04-53.12l-89.61-182.87v-18.13c0-30.38 24.63-55 55-55h255.72c30.37 0 55 24.62 55 55z" fill="#f0eeff"/><path d="m438.86 182.85-88.86 182.86h.24c29.33 0 53.11 23.78 53.11 53.12v40.06c0 29.33-23.78 53.11-53.11 53.11h-94.24v-402.29h127.86c30.37 0 55 24.62 55 55z" fill="#dadae5"/></g><g><path d="m350.24 365.71h-.24-187.25c-29.3.04-53.04 23.81-53.04 53.12v40.06c0 29.33 23.78 53.11 53.12 53.11h187.41c29.33 0 53.11-23.78 53.11-53.11v-40.06c0-29.34-23.78-53.12-53.11-53.12z" fill="#ffc8cf"/><path d="m350 365.71h.24c29.33 0 53.11 23.78 53.11 53.12v40.06c0 29.33-23.78 53.11-53.11 53.11h-94.24v-146.29z" fill="#ffa6b3"/></g><path d="m219.43 256v109.71h-91.29c-30.37 0-55-24.62-55-55v-127.86h73.14c40.4 0 73.15 32.75 73.15 73.15z" fill="#9b786f"/><path d="m438.86 182.85v127.86c0 30.38-24.63 55-55 55h-91.29v-109.71c0-40.4 32.75-73.15 73.15-73.15z" fill="#704c55"/><path d="m131.144 241h30.282v30h-30.282z" fill="#704c55"/><path d="m350.574 241h30.281v30h-30.281z" fill="#5a344b"/><path d="m176.15 423.855h30.281v30h-30.281z" fill="#ff8496"/><path d="m309.717 423.855h30.281v30h-30.281z" fill="#eb5569"/></svg>