<svg id="Capa_1" enable-background="new 0 0 512 512" height="512" viewBox="0 0 512 512" width="512" xmlns="http://www.w3.org/2000/svg"><g><path d="m214.742 107.85c-24.717-18.531-46.973-54.522-61.06-98.744l28.585-9.106c12.057 37.848 30.925 69.192 50.472 83.847z" fill="#704c55"/><path d="m297.258 107.85-17.996-24.003c19.547-14.655 38.415-46 50.472-83.846l28.584 9.106c-14.087 44.222-36.343 80.212-61.06 98.743z" fill="#5a344b"/><g fill="#704c55"><path d="m55.642 339.857h-55.642v-30h43.216l34.429-34.428h42.788v30h-30.362z"/><path d="m60.035 512-21.212-21.212 30.035-30.036v-64.367l61.944-41.474 16.69 24.929-48.634 32.563v60.776z"/><path d="m113.717 234.442-44.855-26.861v-48.727l-30.357-30.87 21.391-21.034 38.966 39.625v44.003l30.267 18.126z"/></g><path d="m512 339.857h-55.641l-34.429-34.428h-30.362v-30h42.788l34.428 34.428h43.216z" fill="#5a344b"/><path d="m451.965 512-38.822-38.821v-60.776l-48.635-32.563 16.69-24.929 61.945 41.474v64.367l30.035 30.036z" fill="#5a344b"/><path d="m398.283 234.442-15.412-25.738 30.268-18.126v-44.003l38.966-39.625 21.39 21.034-30.356 30.87v48.727z" fill="#5a344b"/><path d="m339.76 151.17-83.76.01h-83.76c19.74-45.46 49.93-82.32 83.76-82.32s64.02 36.86 83.76 82.31z" fill="#704c55"/><path d="m339.76 151.17-83.76.01v-82.32c33.83 0 64.02 36.86 83.76 82.31z" fill="#5a344b"/><path d="m403.96 253.5c0 102.04-66.25 258.5-147.96 258.5s-147.96-156.46-147.96-258.5 66.25-110.79 147.96-110.79 147.96 8.75 147.96 110.79z" fill="#ff7900"/><path d="m403.96 253.5c0 102.04-66.25 258.5-147.96 258.5v-369.29c81.71 0 147.96 8.75 147.96 110.79z" fill="#fc2f00"/></g></svg>