<svg id="Capa_1" enable-background="new 0 0 512 512" height="512" viewBox="0 0 512 512" width="512" xmlns="http://www.w3.org/2000/svg"><g><path d="m457.15 420.57h-401.4c-30.08 0-55.25-23.85-55.74-53.93-.51-30.73 24.24-55.79 54.84-55.79 7 0 13.69 1.31 19.85 3.7 4.02-19.3 15.64-35.8 31.61-46.24 1.2-.79 2.42-1.54 3.66-2.25 9.48-5.44 39.55-21.43 39.55-21.43s-9.44-10.83-7.31-16.8c2.65-7.4 4.07-15.3 4.07-23.43v-.64c0-27.96-14.73-53.68-38.49-68.42-20.8-12.89-34.64-35.92-34.64-62.19 0-40.4 32.74-73.15 73.13-73.15 30.42 0 56.5 18.57 67.53 44.99 12.98-5.42 27.23-8.42 42.19-8.42s29.21 3 42.19 8.42c11.31-27.09 38.44-45.93 69.86-44.95 38.79 1.2 70.18 33.11 70.79 71.92.43 26.87-13.63 50.48-34.88 63.54-23.73 14.59-38.24 40.4-38.24 68.26v.64c0 8.13 1.42 16.03 4.07 23.43 1.97 5.51-8.13 15.6-8.13 15.6s30.45 16.94 40.37 22.63c1.25.72 2.47 1.47 3.67 2.25 0 .01.01.01.01.01 15.96 10.44 27.57 26.93 31.59 46.23 6.46-2.5 13.48-3.82 20.85-3.69 28.66.51 52.39 23.48 53.78 52.11 1.54 31.55-23.58 57.6-54.78 57.6z" fill="#60d94d"/><path d="m457.15 420.57h-201.15v-384c14.96 0 29.21 3 42.19 8.42 11.31-27.09 38.44-45.93 69.86-44.95 38.79 1.2 70.18 33.11 70.79 71.92.43 26.87-13.63 50.48-34.88 63.54-23.73 14.59-38.24 40.4-38.24 68.26v.64c0 8.13 1.42 16.03 4.07 23.43 1.97 5.51-8.13 15.6-8.13 15.6s30.45 16.94 40.37 22.63c1.25.72 2.47 1.47 3.67 2.25 0 .01.01.01.01.01 15.96 10.44 27.57 26.93 31.59 46.23 6.46-2.5 13.48-3.82 20.85-3.69 28.66.51 52.39 23.48 53.78 52.11 1.54 31.55-23.58 57.6-54.78 57.6z" fill="#00b863"/><path d="m130.932 58.125h30.282v30h-30.282z" fill="#704c55"/><path d="m127.903 298h30.282v30h-30.282z" fill="#704c55"/><path d="m444.01 439.82c-.52 40.2-34.03 72.18-74.23 72.18h-222.4c-40.2 0-73.71-31.98-74.23-72.18-.26-20.53 7.93-39.14 21.32-52.58v-.01c13.25-13.29 90.2-13.36 103.43-.19v.01c1.78 1.76 3.46 3.62 5.05 5.56 13.14 16.09 32.37 25.94 53.05 26.7.85.03 1.72.05 2.58.05 10.82 0 21.31-2.5 30.8-7.09s17.98-11.28 24.83-19.66c.79-.96 1.59-1.9 2.43-2.82 13.38-14.79 90.33-16.92 103.31-5.17v.01c15 13.57 24.34 33.29 24.06 55.19z" fill="#ffe477"/><path d="m444.01 439.82c-.52 40.2-34.03 72.18-74.23 72.18h-113.78v-92.69c.85.03 1.72.05 2.58.05 10.82 0 21.31-2.5 30.8-7.09s17.98-11.28 24.83-19.66c.79-.96 1.59-1.9 2.43-2.82 13.38-14.79 90.33-16.92 103.31-5.17v.01c15 13.57 24.34 33.29 24.06 55.19z" fill="#ffb655"/><g fill="#00ab00"><path d="m308.91 101.624-9.79 28.35c-13.64-4.71-28.15-7.1-43.12-7.1s-29.48 2.39-43.12 7.1l-9.79-28.35c16.8-5.8 34.6-8.75 52.91-8.75s36.11 2.949 52.91 8.75z"/><path d="m301.5 163.413-11.56 27.68c-10.75-4.48-22.17-6.76-33.94-6.76s-23.19 2.28-33.94 6.76l-11.56-27.68c14.43-6.02 29.74-9.08 45.5-9.08s31.07 3.06 45.5 9.08z"/><path d="m291.88 220.303-8.29 28.83c-8.71-2.5-17.99-3.77-27.59-3.77s-18.88 1.27-27.59 3.77l-8.29-28.83c11.41-3.28 23.48-4.94 35.88-4.94s24.47 1.66 35.88 4.94z"/></g><path d="m256 215.363c12.4 0 24.47 1.66 35.88 4.94l-8.29 28.83c-8.71-2.5-17.99-3.77-27.59-3.77z" fill="#007f40"/><path d="m256 154.333c15.76 0 31.07 3.06 45.5 9.08l-11.56 27.68c-10.75-4.48-22.17-6.76-33.94-6.76z" fill="#007f40"/><path d="m299.12 129.973c-13.64-4.71-28.15-7.1-43.12-7.1v-30c18.31 0 36.11 2.95 52.91 8.75z" fill="#007f40"/><path d="m197.9 387.04v.01l-48.02 56.06-55.41-55.87v-.01c13.25-13.29 31.57-21.51 51.81-21.51 20.15 0 38.39 8.15 51.62 21.32z" fill="#f0eeff"/><path d="m419.95 384.62v.01l-58.49 58.48-44.82-53.32c13.38-14.79 32.72-24.07 54.23-24.07 18.89 0 36.1 7.15 49.08 18.9z" fill="#dadae5"/><path d="m405.7 268.31c-10.57-6.64-23.06-10.48-36.47-10.48-37.9 0-68.62 30.73-68.62 68.63h-30c0-54.39 44.24-98.63 98.62-98.63h.56c5.69 15.92 17.07 29.53 32.24 38.23 1.25.72 2.47 1.47 3.67 2.25z" fill="#007f40"/><path d="m241.42 326.46h-30c0-37.9-30.73-68.63-68.63-68.63-13.4 0-25.91 3.84-36.48 10.49v-.01c1.2-.79 2.42-1.54 3.66-2.25 15.17-8.7 26.55-22.31 32.24-38.23h.58c54.38 0 98.63 44.24 98.63 98.63z" fill="#00ab00"/><path d="m350.554 58.125h30.282v30h-30.282z" fill="#5a344b"/><path d="m353.895 298h30.282v30h-30.282z" fill="#5a344b"/></g></svg>