<svg id="Capa_1" enable-background="new 0 0 511.998 511.998" height="512" viewBox="0 0 511.998 511.998" width="512" xmlns="http://www.w3.org/2000/svg"><g><path d="m292.653 173.318 47.16 25.83 41.87 22.93 54.06-169.85c-3.52-30.69-10.98-51.92-10.98-51.92s-83.9-8.79-116.89 67.52c-10.3 23.81-14.42 82.63-15.22 105.49z" fill="#f77e01"/><path d="m339.813 199.148 41.87 22.93c15.68-16.03 30.46-35.64 40.51-58.89 16.66-38.53 17.15-79.67 13.55-110.96h-.1c-26.63 5.97-60.66 22.1-78.99 64.49-6.08 14.05-10 40.32-12.36 64.18z" fill="#aa6100"/><path d="m219.345 173.318-47.16 25.83-41.87 22.93-54.06-169.85c3.52-30.69 10.98-51.92 10.98-51.92s83.9-8.79 116.89 67.52c10.3 23.81 14.42 82.63 15.22 105.49z" fill="#ffa001"/><path d="m172.185 199.148-41.87 22.93c-15.68-16.03-30.46-35.64-40.51-58.89-16.66-38.53-17.15-79.67-13.55-110.96h.1c26.63 5.97 60.66 22.1 78.99 64.49 6.08 14.05 10 40.32 12.36 64.18z" fill="#cc7400"/><path d="m389.119 352.538c0 22.38-5.97 43.36-16.45 61.58-3.74 6.5-12.87 2.37-12.87 2.37s-12.71 29.56-20.1 35.28l-.1.37c-8.83 32.92-35.48 53.94-68.6 58.78-.13.02-.26.04-.39.06-4.75.68-14.61-14.99-14.61-14.99s-10.12 15.65-15 14.93c-.13-.02-.26-.04-.39-.06-33.05-4.97-59.61-26.09-68.3-59.09h-.01c-7.27-5.62-19.8-34.93-19.8-34.93s-9.34 3.93-13.16-2.7c0 0 0 0 0-.01-10.49-18.22-16.46-39.21-16.46-61.59 0-20.09 4.81-43.21 13.38-66.04-6.73-11.22-10.59-24.35-10.59-38.38 0-41.31 33.48-74.8 74.8-74.8h111.06c41.32 0 74.81 33.49 74.81 74.8 0 14.03-3.87 27.16-10.59 38.38 8.57 22.83 13.37 45.95 13.37 66.04z" fill="#ffe477"/><path d="m389.119 352.538c0 22.38-5.97 43.36-16.45 61.58-3.74 6.5-12.87 2.37-12.87 2.37s-12.71 29.56-20.1 35.28l-.1.37c-8.83 32.92-35.48 53.94-68.6 58.78-.13.02-.26.04-.39.06-4.75.68-14.61-14.99-14.61-14.99v-322.67h55.53c41.32 0 74.81 33.49 74.81 74.8 0 14.03-3.87 27.16-10.59 38.38 8.57 22.83 13.37 45.95 13.37 66.04z" fill="#ffb655"/><path d="m302.779 411.878-31.78 23.48v75.56c-.13.02-.26.04-.39.06-4.75.68-9.63 1.02-14.61 1.02-5.11 0-10.12-.36-15-1.08v-75.56l-31.78-23.48 17.83-24.13 28.95 21.39 28.95-21.39z" fill="#aa6100"/><path d="m302.779 411.878-31.78 23.48v75.56c-.13.02-.26.04-.39.06-4.75.68-9.63 1.02-14.61 1.02v-102.86l28.95-21.39z" fill="#8e4e02"/><path d="m190.816 236.599h30.282v30h-30.282z" fill="#704c55"/><path d="m290.113 236.599h30.282v30h-30.282z" fill="#5a344b"/><g><g><path d="m172.295 451.768c-13.37-10.34-24.59-23.1-32.96-37.63 0 0 0 0 0-.01 2.28-26.83 11.41-57.02 24.92-82.47l26.85 13.42c-13.57 25.32-22.33 56.87-22.33 81.78 0 7.63 3.52 24.91 3.52 24.91z" fill="#ffa001"/></g></g><g><path d="m372.665 414.118c-8.36 14.54-19.6 27.31-32.97 37.65 0 0 3.53-17.28 3.53-24.91 0-24.91-8.76-56.46-22.33-81.78l26.85-13.42c13.51 25.45 22.64 55.63 24.92 82.46z" fill="#f77e01"/></g></g></svg>