<svg id="Capa_1" enable-background="new 0 0 512.26 512.26" height="512" viewBox="0 0 512.26 512.26" width="512" xmlns="http://www.w3.org/2000/svg"><g><path d="m213.011 96.002c-16.93-12.692-28.513-45.951-39.855-81.834-.557-1.761-1.092-3.453-1.604-5.063l28.585-9.105c.519 1.63 1.061 3.344 1.625 5.126 5.572 17.627 18.62 58.906 29.245 66.872z" fill="#704c55"/><path d="m299.277 96.002-17.996-24.004c10.626-7.966 23.675-49.247 29.246-66.875.563-1.781 1.104-3.494 1.624-5.122l28.584 9.105c-.512 1.608-1.047 3.3-1.603 5.059-11.342 35.884-22.925 69.144-39.855 81.837z" fill="#5a344b"/><g fill="#704c55"><path d="m22.145 512.26-14.03-26.518 60.872-32.205v-103.134l133.383-73.128 14.422 26.307-117.805 64.587v103.436z"/><path d="m76.631 305.429h-76.501v-30h66.831l46.62-33.536h85.182v30h-75.513z"/><path d="m201.949 231.899-98.135-71.35-31.074-67.272-63.689-28.235 12.158-27.426 74.025 32.818 32.539 70.443 91.817 66.759z"/></g><path d="m490.115 512.26-76.843-40.655v-103.436l-117.804-64.587 14.422-26.307 133.382 73.128v103.134l60.873 32.205z" fill="#5a344b"/><path d="m512.13 305.429h-76.502l-46.619-33.536h-75.512v-30h85.182l46.619 33.536h66.832z" fill="#5a344b"/><path d="m310.312 231.899-17.643-24.263 91.817-66.759 32.539-70.443 74.026-32.818 12.158 27.426-63.689 28.235-31.075 67.272z" fill="#5a344b"/><path d="m298.63 299.27h-.028c11.681-11.185 18.968-26.922 18.968-44.37 0-19.24-8.84-36.41-22.68-47.68h-.025c24.355-13.605 40.836-39.625 40.836-69.5 0-43.94-35.63-79.57-79.57-79.57s-79.57 35.63-79.57 79.57c0 29.875 16.48 55.895 40.836 69.5h-.026c-13.84 11.27-22.68 28.44-22.68 47.68 0 17.448 7.287 33.185 18.968 44.37h-.028c-39.99 16.66-68.1 56.11-68.1 102.13 0 61.08 49.52 110.6 110.6 110.6s110.6-49.52 110.6-110.6c-.001-46.02-28.111-85.47-68.101-102.13z" fill="#9b786f"/><path d="m298.63 299.27h-.028c11.681-11.185 18.968-26.922 18.968-44.37 0-19.24-8.84-36.41-22.68-47.68h-.025c24.355-13.605 40.836-39.625 40.836-69.5 0-43.94-35.63-79.57-79.57-79.57v453.85c61.08 0 110.6-49.52 110.6-110.6-.001-46.02-28.111-85.47-68.101-102.13z" fill="#704c55"/></g></svg>