<svg id="Capa_1" enable-background="new 0 0 512 512" height="512" viewBox="0 0 512 512" width="512" xmlns="http://www.w3.org/2000/svg"><g><path d="m63.317 272.587c-15.503-4.978-29.764-12.726-42.202-22.662-31.655-25.287-26.864-74.868 8.653-94.362l-25.546-37.104 55.461-16.711-49.667-49.668c24.047-24.047 57.268-38.92 93.962-38.92 53.516 0 99.644 31.636 120.701 77.227z" fill="#9b786f"/><path d="m448.683 272.587c15.503-4.978 29.764-12.726 42.202-22.662 31.655-25.287 26.864-74.868-8.653-94.362l25.546-37.104-55.461-16.711 49.668-49.668c-24.047-24.047-57.268-38.92-93.962-38.92-53.516 0-99.644 31.636-120.701 77.227z" fill="#704c55"/><path d="m324.78 498.84h-137.56c-81.85 0-135.44-69.81-128.91-151.41l4.88-73.47c9.54-105.37 87.01-186.07 192.81-186.07s183.27 80.7 192.81 186.07l4.88 73.47c6.53 81.6-47.06 151.41-128.91 151.41z" fill="#f0eeff"/><path d="m256 87.89v410.95h68.78c81.85 0 135.44-69.81 128.91-151.41l-4.88-73.47c-9.54-105.37-87.01-186.07-192.81-186.07z" fill="#dadae5"/><path d="m256 424.98c-38.98 0-68.28-35.55-60.84-73.81l14.8-76.15c4.26-21.87 23.41-37.66 45.7-37.66h.68c22.29 0 41.44 15.79 45.7 37.66l14.8 76.15c7.44 38.26-21.86 73.81-60.84 73.81z" fill="#704c55"/><path d="m256 237.36v187.62c38.98 0 68.28-35.55 60.84-73.81l-14.8-76.15c-4.26-21.87-23.41-37.66-45.7-37.66z" fill="#5a344b"/><path d="m172.002 189.393h30.281v30h-30.281z" fill="#704c55"/><path d="m309.717 189.393h30.281v30h-30.281z" fill="#5a344b"/></g></svg>