<svg id="Capa_1" enable-background="new 0 0 512 512" height="512" viewBox="0 0 512 512" width="512" xmlns="http://www.w3.org/2000/svg"><g><path d="m182.857 73.143-16.987-33.974c-12.002-24.005-36.538-39.169-63.377-39.169-18.793 0-36.815 7.465-50.104 20.754l-31.635 31.635c-13.289 13.289-20.754 31.311-20.754 50.104v160.728c0 18.793 7.465 36.816 20.754 50.104l31.635 31.635c13.288 13.288 31.311 20.754 50.104 20.754h43.792z" fill="#704c55"/><path d="m329.143 73.143 16.987-33.974c12.002-24.005 36.538-39.169 63.377-39.169 18.793 0 36.816 7.465 50.104 20.754l31.635 31.635c13.289 13.289 20.754 31.311 20.754 50.104v160.728c0 18.793-7.465 36.816-20.754 50.104l-31.635 31.635c-13.288 13.288-31.311 20.754-50.104 20.754h-43.792z" fill="#5a344b"/><path d="m292.572 438.857c0 40.396 32.747 73.143 73.143 73.143h73.141c-40.396 0-73.143-32.747-73.143-73.143v-128.561h-73.141z" fill="#ffb655"/><path d="m219.427 438.857c0 40.396-32.747 73.143-73.143 73.143h-73.141c40.396 0 73.143-32.747 73.143-73.143v-128.561h73.141z" fill="#ffe477"/><path d="m402.28 208.2-36.56 29.55 11.82 17.72c12.14 18.21 6.87 42.68-11.48 54.6-.12.07-.23.15-.34.22-6.25 4.07-30.22 6.96-30.22 6.96s4.72 13.54 1.13 17.34c-11.85 12.55-21.64 26.93-28.94 42.6-2.22 4.74-16.19 12.31-16.19 12.31s7.24 11.38 6.06 16.07c-3.27 12.8-4.99 26.14-4.99 39.78v2.18l-11.57 14.39 11.57 16.14v33.94h-73.14v-33.94l11.57-16.14-11.57-14.39v-2.18c0-13.64-1.72-26.98-4.99-39.78-1.18-4.69 6.06-16.07 6.06-16.07s-13.97-7.57-16.19-12.31c-7.3-15.67-17.09-30.05-28.94-42.6-3.59-3.8 1.13-17.34 1.13-17.34s-23.97-2.89-30.22-6.96c-.11-.07-.22-.15-.34-.22-18.35-11.92-23.62-36.39-11.48-54.6l11.82-17.72-36.56-29.55v-61.49l26.62-53.56c6.09-12.26 18.59-20.01 32.28-20.01l36.17-.01c9.34-.01 18.28 3.79 24.77 10.51l.92.96c7 7.25 16.27 10.88 25.52 10.89 9.25-.01 18.52-3.64 25.52-10.89l.92-.96c6.49-6.72 15.43-10.52 24.77-10.51l36.17.01c13.69 0 26.19 7.75 32.28 20.01l26.62 53.56z" fill="#9b786f"/><path d="m256 95.49v416.51h36.57v-33.94l-11.57-16.14 11.57-14.39v-2.18c0-13.64 1.72-26.98 4.99-39.78 1.18-4.69-6.06-16.07-6.06-16.07s13.97-7.57 16.19-12.31c7.3-15.67 17.09-30.05 28.94-42.6 3.59-3.8-1.13-17.34-1.13-17.34s23.97-2.89 30.22-6.96c.11-.07.22-.15.34-.22 18.35-11.92 23.62-36.39 11.48-54.6l-11.82-17.72 36.56-29.55v-61.49l-26.62-53.56c-6.09-12.26-18.59-20.01-32.28-20.01l-36.17-.01c-9.34-.01-18.28 3.79-24.77 10.51l-.92.96c-7 7.25-16.27 10.88-25.52 10.89z" fill="#704c55"/><path d="m290.429 151.999h30.281v30h-30.281z" fill="#5a344b"/><g fill="#704c55"><path d="m191.29 151.999h30.281v30h-30.281z"/><path d="m365.72 310.29c-10.7 6.97-20.45 15.15-29.09 24.3-26.03-4.97-53.04-7.48-80.63-7.48-27.6 0-54.6 2.51-80.63 7.48-8.64-9.15-18.39-17.33-29.09-24.3 35.01-8.75 71.87-13.18 109.72-13.18 37.84 0 74.71 4.43 109.72 13.18z"/><path d="m307.69 377.19c-4.24 9.06-7.65 18.56-10.13 28.38-13.38-3.28-27.31-4.93-41.56-4.93s-28.18 1.65-41.56 4.93c-2.48-9.82-5.89-19.32-10.13-28.38 16.62-4.35 33.96-6.55 51.69-6.55s35.06 2.2 51.69 6.55z"/><path d="m292.57 447.53v30.53c-11.64-2.41-23.92-3.62-36.57-3.62s-24.93 1.21-36.57 3.62v-30.53c11.79-2.06 24.05-3.09 36.57-3.09s24.78 1.03 36.57 3.09z"/></g><path d="m256 444.44c12.52 0 24.78 1.03 36.57 3.09v30.53c-11.64-2.41-23.92-3.62-36.57-3.62z" fill="#5a344b"/><path d="m256 370.64c17.73 0 35.06 2.2 51.69 6.55-4.24 9.06-7.65 18.56-10.13 28.38-13.38-3.28-27.31-4.93-41.56-4.93z" fill="#5a344b"/><path d="m365.72 310.29c-10.7 6.97-20.45 15.15-29.09 24.3-26.03-4.97-53.04-7.48-80.63-7.48v-30c37.84 0 74.71 4.43 109.72 13.18z" fill="#5a344b"/></g></svg>