<svg id="Capa_1" enable-background="new 0 0 512 512" height="512" viewBox="0 0 512 512" width="512" xmlns="http://www.w3.org/2000/svg"><g><path d="m510.54 254.54-19.32 97.44-57.48 32.58h-355.48l-57.48-32.58-19.32-97.44 34.1-43.87-14.78-53.57 48.35-27.4 6.88-55.15 55.15-6.88 27.4-48.35 53.57 14.79 43.87-34.11 43.87 34.11 53.57-14.79 27.4 48.35 55.15 6.88 6.88 55.15 48.35 27.41-14.78 53.56z" fill="#aa6100"/><path d="m510.54 254.54-19.32 97.44-57.48 32.58h-177.74v-384.56l43.87 34.11 53.57-14.79 27.4 48.35 55.15 6.88 6.88 55.15 48.35 27.41-14.78 53.56z" fill="#8e4e02"/><path d="m441.07 339.96c0 95.47-97.3 162.69-170.07 171.14-5.14.6-15-15.11-15-15.11s-9.86 15.71-15 15.11c-72.77-8.45-170.07-75.67-170.07-171.14 0-52.27 21.68-110.39 56.53-154.69 33.29-42.32 78.61 36.77 128.54 36.77s95.25-79.09 128.54-36.77c34.85 44.3 56.53 102.42 56.53 154.69z" fill="#ffe477"/><path d="m441.07 339.96c0 95.47-97.3 162.69-170.07 171.14-5.14.6-15-15.11-15-15.11v-273.95c49.93 0 95.25-79.09 128.54-36.77 34.85 44.3 56.53 102.42 56.53 154.69z" fill="#ffb655"/><path d="m271 406.25v104.85c-5.14.6-10.15.9-15 .9s-9.86-.3-15-.9v-104.85z" fill="#cc7400"/><path d="m271 406.25v104.85c-5.14.6-10.15.9-15 .9v-105.75z" fill="#aa6100"/><path d="m304.16 379.38c0 20.31-21.56 36.78-48.16 36.78s-48.16-16.47-48.16-36.78 21.56-36.77 48.16-36.77 48.16 16.46 48.16 36.77z" fill="#aa6100"/><path d="m304.16 379.38c0 20.31-21.56 36.78-48.16 36.78v-73.55c26.6 0 48.16 16.46 48.16 36.77z" fill="#8e4e02"/><path d="m172.002 275.429h30.282v30h-30.282z" fill="#704c55"/><path d="m309.716 275.429h30.282v30h-30.282z" fill="#5a344b"/></g></svg>