<svg id="Capa_1" enable-background="new 0 0 512 512" height="512" viewBox="0 0 512 512" width="512" xmlns="http://www.w3.org/2000/svg"><g><path d="m511.992 293.54c-.52 40.21-34.02 72.18-74.23 72.18h-35.48c-40.38 0-73.13 32.74-73.13 73.13v73.15h-146.3v-73.15c0-40.39-32.74-73.13-73.13-73.13h-35.48c-40.47 0-74.08-32.4-74.24-72.86-.07-20.31 8.13-38.71 21.43-52.01 13.23-13.23 31.51-21.42 51.72-21.42h48.01c13.15 0 23.16-11.82 20.99-24.77l-.29-1.76c-1.38-8.23-7.48-14.78-15.52-17.06-31.61-8.93-54.53-38.6-53.13-73.38 1.52-38.09 32.67-68.94 70.78-70.1 8.69-.27 17.04.98 24.82 3.51 22.23-22.06 52.87-35.87 87.19-35.87s64.96 13.81 87.19 35.87c7.79-2.53 16.13-3.78 24.81-3.51 38.12 1.16 69.26 32 70.79 70.1 1.4 34.78-21.52 64.45-53.13 73.38-8.04 2.28-14.14 8.83-15.52 17.06l-.29 1.76c-2.17 12.95 7.84 24.77 20.99 24.77h48.01c40.72 0 73.67 33.28 73.14 74.11z" fill="#ffe477"/><path d="m511.992 293.54c-.52 40.21-34.02 72.18-74.23 72.18h-35.48c-40.38 0-73.13 32.74-73.13 73.13v73.15h-73.15v-512c34.32 0 64.96 13.81 87.19 35.87 7.79-2.53 16.13-3.78 24.81-3.51 38.12 1.16 69.26 32 70.79 70.1 1.4 34.78-21.52 64.45-53.13 73.38-8.04 2.28-14.14 8.83-15.52 17.06l-.29 1.76c-2.17 12.95 7.84 24.77 20.99 24.77h48.01c40.72 0 73.67 33.28 73.14 74.11z" fill="#ffb655"/><path d="m438.862 329.15c0 20.19-16.38 36.57-36.58 36.57h-27.94c-25.05 0-49.04 7.08-69.56 19.76-20.51 12.68-37.57 30.96-48.78 53.37-22.41-44.81-68.23-73.13-118.34-73.13h-27.94c-20.2 0-36.58-16.38-36.58-36.57 0-10.1 4.1-19.25 10.72-25.87s15.76-10.71 25.86-10.71h27.8c19.84 0 38-11.01 47.31-28.54 15.24-28.71 41.77-68.76 71.17-68.76s55.93 40.05 71.17 68.76c9.31 17.53 27.47 28.54 47.32 28.54h27.79c20.2 0 36.58 16.38 36.58 36.58z" fill="#ffa001"/><path d="m438.862 329.15c0 20.19-16.38 36.57-36.58 36.57h-27.94c-25.05 0-49.04 7.08-69.56 19.76-20.51 12.68-37.57 30.96-48.78 53.37v-243.58c29.4 0 55.93 40.05 71.17 68.76 9.31 17.53 27.47 28.54 47.32 28.54h27.79c20.2 0 36.58 16.38 36.58 36.58z" fill="#f77e01"/><path d="m137.576 90.249h30.281v30h-30.281z" fill="#704c55"/><path d="m344.148 90.249h30.281v30h-30.281z" fill="#5a344b"/></g></svg>