<svg id="Capa_1" enable-background="new 0 0 512 512" height="512" viewBox="0 0 512 512" width="512" xmlns="http://www.w3.org/2000/svg"><g><path d="m489.38 318.55c.95 5.54 1.41 11.07 1.41 16.54 0 40.35-25.04 77.35-63.97 91.71h-.02v.02c-16.31 44.21-61.81 70.5-108.25 62.56l-.11.09c-18.1 15.02-40.27 22.53-62.44 22.53s-44.34-7.51-62.44-22.53l-.11-.09c-5.54.95-11.07 1.41-16.54 1.41-40.35 0-77.35-25.04-91.71-63.97v-.02h-.02c-44.21-16.31-70.5-61.81-62.56-108.25l-.09-.11c-30.04-36.21-30.04-88.67 0-124.88l.09-.11c-.95-5.54-1.41-11.07-1.41-16.54 0-40.35 25.04-77.35 63.97-91.71h.02v-.02c16.31-44.21 61.81-70.5 108.25-62.56l.11-.09c18.1-15.02 40.27-22.53 62.44-22.53s44.34 7.51 62.44 22.53l.11.09c5.54-.95 11.07-1.41 16.54-1.41 40.35 0 77.35 25.04 91.71 63.97v.02h.02c44.21 16.31 70.5 61.81 62.56 108.25l.09.11c30.04 36.21 30.04 88.67 0 124.88z" fill="#f0eeff"/><path d="m489.38 318.55c.95 5.54 1.41 11.07 1.41 16.54 0 40.35-25.04 77.35-63.97 91.71h-.02v.02c-16.31 44.21-61.81 70.5-108.25 62.56l-.11.09c-18.1 15.02-40.27 22.53-62.44 22.53v-512c22.17 0 44.34 7.51 62.44 22.53l.11.09c5.54-.95 11.07-1.41 16.54-1.41 40.35 0 77.35 25.04 91.71 63.97v.02h.02c44.21 16.31 70.5 61.81 62.56 108.25l.09.11c30.04 36.21 30.04 88.67 0 124.88z" fill="#dadae5"/><path d="m137.154 272.819c-8.213 8.309-22.391 13.625-43.893 13.625-37.689 0-37.689-72.972 0-72.972 15.861 0 27.737 2.893 36.173 7.746l9.16 28.74z" fill="#704c55"/><path d="m374.846 272.819c8.213 8.309 22.391 13.625 43.893 13.625 37.689 0 37.689-72.972 0-72.972-15.861 0-27.737 2.893-36.173 7.746l-12.306 28.74z" fill="#5a344b"/><path d="m370.5 285.9c-9.28 24.84-17.16 50.19-23.6 75.96v.01c-5.22 20.85-17.19 38.59-33.24 51.12-12.24 9.56-26.86 16.09-42.66 18.63-4.9.8-15-14.8-15-14.8s-10.1 15.6-15 14.8c-15.8-2.54-30.41-9.07-42.65-18.63-16.05-12.53-28.02-30.27-33.24-51.12-6.44-25.77-14.32-51.13-23.61-75.97-14.77-39.57-16.04-82.67-3.88-141.96 8.65 8.56 20.57 13.85 33.72 13.85 16.07 0 30.29-7.89 38.99-20.02 11.36 12.31 27.61 20.02 45.67 20.02 18.04 0 34.27-7.69 45.62-19.97 8.7 12.1 22.92 19.97 38.96 19.97 13.18 0 25.12-5.31 33.79-13.92 12.17 59.32 10.92 102.44-3.87 142.03z" fill="#ffb655"/><path d="m370.5 285.9c-9.28 24.84-17.16 50.19-23.6 75.96v.01c-5.22 20.85-17.19 38.59-33.24 51.12-12.24 9.56-26.86 16.09-42.66 18.63-4.9.8-15-14.8-15-14.8v-259.03c18.04 0 34.27-7.69 45.62-19.97 8.7 12.1 22.92 19.97 38.96 19.97 13.18 0 25.12-5.31 33.79-13.92 12.17 59.32 10.92 102.44-3.87 142.03z" fill="#ea9b57"/><path d="m297.47 316.51-26.46 19.56v95.55c-4.91.8-9.92 1.21-15 1.21h-.01c-5.1 0-10.1-.41-14.99-1.21v-95.55l-26.48-19.56 17.82-24.13 23.65 17.46.01.01 23.64-17.47z" fill="#704c55"/><path d="m297.47 316.51-26.46 19.56v95.55c-4.91.8-9.92 1.21-15 1.21h-.01v-122.99l.01.01 23.64-17.47z" fill="#5a344b"/><path d="m191.21 208.979h30.281v30h-30.281z" fill="#704c55"/><path d="m290.508 208.979h30.281v30h-30.281z" fill="#5a344b"/></g></svg>