<svg id="Capa_1" enable-background="new 0 0 512 512" height="512" viewBox="0 0 512 512" width="512" xmlns="http://www.w3.org/2000/svg"><g><path d="m162.235 475.837s-98.855-17.558-162.235 36.163c0 0 0-75.388 39.035-107.206l90.632 29.039z" fill="#704c55"/><path d="m349.765 475.837s98.855-17.558 162.235 36.163c0 0 0-75.388-39.035-107.206l-88.965 28.206z" fill="#5a344b"/><path d="m304.38 129.19-48.38 14.81-48.38-14.81c0-64.16 48.38-129.19 48.38-129.19s48.38 65.03 48.38 129.19z" fill="#704c55"/><path d="m304.38 129.19-48.38 14.81v-144s48.38 65.03 48.38 129.19z" fill="#5a344b"/><path d="m462.57 230.54c0 21.1-8.41 40.1-21.85 53.45v20.34h-369.22l-.22-20.34c-13.44-13.35-21.85-32.35-21.85-53.45 0-40.4 30.83-73.14 68.86-73.14 8.25 0 16.17 1.54 23.5 4.37 24.74-24.22 66.66-40.15 114.21-40.15s89.47 15.93 114.21 40.15c7.33-2.83 15.25-4.37 23.5-4.37 38.03 0 68.86 32.74 68.86 73.14z" fill="#9b786f"/><path d="m462.57 230.54c0 21.1-8.41 40.1-21.85 53.45v20.34h-184.72v-182.71c47.55 0 89.47 15.93 114.21 40.15 7.33-2.83 15.25-4.37 23.5-4.37 38.03 0 68.86 32.74 68.86 73.14z" fill="#704c55"/><path d="m497 341.05c0 80.79-107.9 146.29-241 146.29s-241-65.5-241-146.29c0-32.31 24.86-57.13 53.65-57.13 4.32 0 8.73.56 13.15 1.73l25.95 6.89c26.71 7.09 54.65-5.2 68.81-30.28l31.73-56.18c10.49-18.56 29.1-27.84 47.71-27.84s37.22 9.28 47.71 27.84l31.73 56.18c14.16 25.08 42.1 37.37 68.81 30.28l25.95-6.89c33.93-9.01 66.8 18.25 66.8 55.4z" fill="#f0eeff"/><path d="m497 341.05c0 80.79-107.9 146.29-241 146.29v-309.1c18.61 0 37.22 9.28 47.71 27.84l31.73 56.18c14.16 25.08 42.1 37.37 68.81 30.28l25.95-6.89c33.93-9.01 66.8 18.25 66.8 55.4z" fill="#dadae5"/><path d="m429 337.3-3.06 29.84-26.62-2.73-25.4 35.5-43.29-9.55-35.22 26.93-39.41-18.89-39.4 18.89-35.23-26.93-43.3 9.55-25.39-35.5-26.62 2.73-3.06-29.84 43.95-4.51 24 33.56 37.57-8.29 31.69 24.23 35.79-17.16 35.79 17.16 31.69-24.23 37.57 8.29 24-33.56z" fill="#9b786f"/><path d="m429 337.3-3.06 29.84-26.62-2.73-25.4 35.5-43.29-9.55-35.22 26.93-39.41-18.89v-33.27l35.79 17.16 31.69-24.23 37.57 8.29 24-33.56z" fill="#704c55"/><path d="m103.324 215.948h30.281v30h-30.281z" fill="#704c55"/><path d="m378.394 215.948h30.281v30h-30.281z" fill="#5a344b"/></g></svg>