<svg id="Capa_1" enable-background="new 0 0 512 512" height="512" viewBox="0 0 512 512" width="512" xmlns="http://www.w3.org/2000/svg"><g><path d="m82.578 149.407c-14.072-110.278 11.378-149.073 11.378-149.073 35.956-3.349 76.966 18.918 95.493 48.742z" fill="#704c55"/><path d="m427.969 149.407c14.072-110.278-11.378-149.073-11.378-149.073-35.956-3.349-76.966 18.918-95.493 48.742z" fill="#5a344b"/><path d="m428.19 430.59c-26.99 27.45-64.61 44.84-107.15 44.84-12.65 21.86-37.96 36.57-65.04 36.57s-52.39-14.71-65.04-36.57c-42.54 0-80.16-17.39-107.15-44.84-35.07-35.69-52.18-88.39-38.76-142.05l27.28-109.14c20.99-83.94 97.14-142.83 183.67-142.83s162.68 58.89 183.67 142.83l27.28 109.14c13.42 53.66-3.69 106.36-38.76 142.05z" fill="#ffa001"/><path d="m256 36.57v475.43c27.08 0 52.39-14.71 65.04-36.57 42.54 0 80.16-17.39 107.15-44.84 35.07-35.69 52.18-88.39 38.76-142.05l-27.28-109.14c-20.99-83.94-97.14-142.83-183.67-142.83z" fill="#f77e01"/><path d="m312.85 305.75v59.96l-20.28 73.15h-73.14l-20.28-73.15v-59.96z" fill="#f0eeff"/><path d="m312.85 305.75v59.96l-20.28 73.15h-36.57v-133.11z" fill="#dadae5"/><path d="m77.562 497c1.686-46.321 18.951-84.4 51.354-110.556 24.998-20.179 50.217-26.396 50.468-26.457l-3.452-14.598-3.403-14.608c-1.256.292-31.111 7.442-61.324 31.413-27.85 22.098-61.425 64.509-63.661 134.806z" fill="#9b786f"/><path d="m28.498 413.863-28.498-9.373c22.188-67.469 64.586-98.998 96.246-113.567 34.451-15.854 63.815-15.53 65.043-15.491l-.54 29.995.27-14.998-.212 14.998c-.243-.025-24.786-.094-53.2 13.299-37.553 17.699-64.169 49.708-79.109 95.137z" fill="#9b786f"/><path d="m434.438 497h30.017c-2.235-70.297-35.81-112.708-63.661-134.806-30.212-23.971-60.067-31.121-61.324-31.413l-6.855 29.206c.251.061 25.47 6.278 50.468 26.457 32.404 26.156 49.669 64.235 51.355 110.556z" fill="#704c55"/><path d="m483.502 413.863c-15.104-45.928-42.117-78.122-80.289-95.688-27.836-12.81-51.726-12.785-51.962-12.749l-.54-29.995c1.235-.027 30.593-.363 65.043 15.491 31.66 14.569 74.058 46.099 96.246 113.567z" fill="#704c55"/><path d="m367.39 309.11c0 30.84-25.22 56.89-56.06 56.69-15.23-.09-29.02-6.31-39.02-16.3-9.77-9.76-15.93-23.14-16.3-37.96v-1.43c0 .24 0 .49-.01.72-.01-.23-.01-.48-.01-.72v1.43c-.37 14.82-6.53 28.2-16.31 37.96-9.99 9.99-23.78 16.21-39.01 16.3-30.84.2-56.06-25.85-56.06-56.69 0-11.83 3.57-23.08 9.89-32.49 6.31-9.41 15.36-16.99 26.31-21.48l23.03-9.44h104.32l23.03 9.44c10.95 4.49 20 12.07 26.31 21.48 6.32 9.41 9.89 20.66 9.89 32.49z" fill="#cc7400"/><path d="m367.39 309.11c0 30.84-25.22 56.89-56.06 56.69-15.23-.09-29.02-6.31-39.02-16.3-9.77-9.76-15.93-23.14-16.3-37.96v-1.43c0 .24 0 .49-.01.72v-65.13h52.16l23.03 9.44c10.95 4.49 20 12.07 26.31 21.48 6.32 9.41 9.89 20.66 9.89 32.49z" fill="#aa6100"/><path d="m152.787 172.143h30.281v30h-30.281z" fill="#704c55"/><path d="m328.932 172.143h30.281v30h-30.281z" fill="#5a344b"/><path d="m289.36 262.6h-66.72c-16.03 0-24.94-20.11-14.93-33.69l25.02-33.92c5.97-8.09 14.62-12.13 23.27-12.13s17.3 4.04 23.27 12.13l25.02 33.92c10.01 13.58 1.1 33.69-14.93 33.69z" fill="#704c55"/><path d="m289.36 262.6h-33.36v-79.74c8.65 0 17.3 4.04 23.27 12.13l25.02 33.92c10.01 13.58 1.1 33.69-14.93 33.69z" fill="#5a344b"/></g></svg>