<svg id="Capa_1" enable-background="new 0 0 512 512" height="512" viewBox="0 0 512 512" width="512" xmlns="http://www.w3.org/2000/svg"><g><g><path d="m163.393 253.803c-26.174-18.974-57.902-48.579-75.426-89.11-33.358-77.157-2.607-164.693-2.607-164.693s84.837 37.562 118.195 114.72c10.405 24.067 14.573 49.144 15.382 72.259l-23.437 44.271z" fill="#ff8496"/><path d="m348.607 253.803c26.174-18.974 57.902-48.579 75.426-89.11 33.358-77.157 2.607-164.693 2.607-164.693s-84.837 37.562-118.195 114.72c-10.405 24.067-14.573 49.144-15.382 72.259l21.937 45.521z" fill="#eb5569"/></g><path d="m440.88 401.06c0 40.85-33.11 73.96-73.94 73.96h-46.87c-12.8 22.1-36.69 36.98-64.07 36.98s-51.27-14.88-64.07-36.98h-46.87c-20.41 0-38.9-8.28-52.28-21.66s-21.66-31.88-21.66-52.3c0-40.83 33.11-73.94 73.94-73.94l19.05-76.17c10.54-42.17 48.42-71.75 91.89-71.75 21.74 0 42.07 7.39 58.29 20.07 16.23 12.66 28.33 30.59 33.6 51.68l19.05 76.17c20.41 0 38.9 8.28 52.28 21.66s21.66 31.87 21.66 52.28z" fill="#f0eeff"/><path d="m440.88 401.06c0 40.85-33.11 73.96-73.94 73.96h-46.87c-12.8 22.1-36.69 36.98-64.07 36.98v-332.8c21.74 0 42.07 7.39 58.29 20.07 16.23 12.66 28.33 30.59 33.6 51.68l19.05 76.17c20.41 0 38.9 8.28 52.28 21.66s21.66 31.87 21.66 52.28z" fill="#dadae5"/><path d="m302.78 382.45-31.78 23.47v22.22h-30v-22.22l-31.78-23.47 17.83-24.13 28.95 21.39 28.95-21.39z" fill="#ff8496"/><path d="m302.78 382.45-31.78 23.47v22.22h-15v-48.43l28.95-21.39z" fill="#eb5569"/><path d="m206.431 275.429h30.282v30h-30.282z" fill="#9b786f"/><path d="m275.367 275.429h30.282v30h-30.282z" fill="#704c55"/></g></svg>