<svg id="Capa_1" enable-background="new 0 0 512 512" height="512" viewBox="0 0 512 512" width="512" xmlns="http://www.w3.org/2000/svg"><g><path d="m111.589 146.235c-17.917-.496-38.78-4.537-52.475-18.232-28.564-28.564-15.13-88.31-15.13-88.31s59.746-13.434 88.31 15.13c6.787 6.787 11.203 15.335 13.992 24.424h12.214v74.753h-45.684z" fill="#aa6100"/><path d="m400.41 146.235c17.918-.496 38.781-4.537 52.477-18.232 28.564-28.564 15.13-88.31 15.13-88.31s-59.746-13.434-88.31 15.13c-6.787 6.787-11.203 15.335-13.992 24.424h-11.381v74.753h44.851z" fill="#8e4e02"/><path d="m400.41 146.24-34.69 219.61v.02l-.02 93.02c0 29.33-23.78 53.11-53.12 53.11h-113.16c-29.34 0-53.12-23.78-53.12-53.11l-.02-93.02v-.02l-34.69-219.61c9.35-.47 17.77-4.45 23.98-10.66 6.62-6.62 10.71-15.77 10.71-25.87v-73.14c0-20.2 16.38-36.57 36.57-36.57 10.1 0 19.25 4.09 25.87 10.71s10.71 15.76 10.71 25.86v36.57c0 20.19 16.37 36.57 36.57 36.57 10.1 0 19.24-4.09 25.86-10.71s10.71-15.76 10.71-25.86v-36.57c0-20.2 16.38-36.57 36.58-36.57 10.09 0 19.24 4.09 25.86 10.71 6.61 6.62 10.71 15.76 10.71 25.86v73.14c0 19.57 15.36 35.55 34.69 36.53z" fill="#ffa001"/><path d="m400.41 146.24-34.69 219.61v.02l-.02 93.02c0 29.33-23.78 53.11-53.12 53.11h-56.58v-402.29c10.1 0 19.24-4.09 25.86-10.71s10.71-15.76 10.71-25.86v-36.57c0-20.2 16.38-36.57 36.58-36.57 10.09 0 19.24 4.09 25.86 10.71 6.61 6.62 10.71 15.76 10.71 25.86v73.14c0 19.57 15.36 35.55 34.69 36.53z" fill="#f77e01"/><path d="m219.43 218.47v73.96c0 18.82-9.95 36.23-26.16 45.77l-46.97 27.65-.02.02v-.02c-40.39 0-73.13-32.74-73.13-73.13v-109.87c0-20.19 16.37-36.56 36.56-36.56.63 0 1.26-.02 1.88-.05h35.61c39.89 0 72.23 32.33 72.23 72.23z" fill="#ffe477"/><path d="m438.85 182.85v109.87c0 40.39-32.74 73.13-73.13 73.13v.02c-.01-.02-.02-.02-.02-.02l-46.97-27.65c-16.21-9.54-26.16-26.95-26.16-45.77v-73.96c0-39.9 32.34-72.23 72.23-72.23h35.61c.62.03 1.25.05 1.88.05 10.09 0 19.23 4.09 25.85 10.71s10.71 15.76 10.71 25.85z" fill="#ffb655"/><path d="m210.579 413.143h30.281v30h-30.281z" fill="#aa6100"/><path d="m138.223 221.819h30.282v30h-30.282z" fill="#704c55"/><path d="m344.145 221.821h30.282v30h-30.282z" fill="#5a344b"/><path d="m273.717 413.143h30.282v30h-30.282z" fill="#8e4e02"/></g></svg>