<svg id="Capa_1" enable-background="new 0 0 512 512" height="512" viewBox="0 0 512 512" width="512" xmlns="http://www.w3.org/2000/svg"><g><path d="m81.438 136.8c-14.221-9.769-28.17-23.306-34.566-41.118-15.573-43.376 19.545-95.682 19.545-95.682s60.369 18.021 75.943 61.397c1.535 4.275 2.577 8.636 3.21 13.025l-19.237 45.911z" fill="#704c55"/><path d="m430.562 136.8c14.221-9.769 28.17-23.306 34.566-41.118 15.573-43.376-19.545-95.682-19.545-95.682s-60.369 18.021-75.943 61.397c-1.535 4.275-2.577 8.636-3.21 13.025l20.57 47.245z" fill="#5a344b"/><path d="m462.97 242.27v32.4h-413.94v-32.4c0-107.77 87.37-195.14 195.14-195.14h23.66c107.77 0 195.14 87.37 195.14 195.14z" fill="#9b786f"/><path d="m462.97 242.27v32.4h-206.97v-227.54h11.83c107.77 0 195.14 87.37 195.14 195.14z" fill="#704c55"/><path d="m489.38 341.77c-30.53 7.01-58.95 19.94-83.86 37.69-4.52 3.22-19.22-9.87-19.22-9.87s-2.43 27.23-6.46 31.06c-19.18 18.28-35.35 39.87-47.59 64.05l-.41.82c-13.09 25.87-36.14 40.94-60.83 45.21-4.89.85-15.01-14.74-15.01-14.74s-10.12 15.59-15.01 14.74c-24.69-4.27-47.74-19.34-60.83-45.21l-.41-.82c-12.24-24.18-28.41-45.77-47.59-64.05-3.89-3.7-6.04-30.71-6.04-30.71s-14.97 12.85-19.64 9.52c-24.91-17.75-53.33-30.68-83.86-37.69 0-27.47 11.14-52.34 29.14-70.34 18-18.01 42.87-29.14 70.34-29.14h.3v-30.08c0-36.72 29.21-67.31 65.92-67.79 37.29-.48 67.67 29.61 67.67 66.79 0-.29 0-.58.01-.86.01.28.01.57.01.86 0-37.18 30.38-67.27 67.67-66.79 36.71.48 65.92 31.07 65.92 67.79v30.08h.3c27.47 0 52.34 11.13 70.34 29.14 18 18 29.14 42.87 29.14 70.34z" fill="#f0eeff"/><path d="m489.38 341.77c-30.53 7.01-58.95 19.94-83.86 37.69-4.52 3.22-19.22-9.87-19.22-9.87s-2.43 27.23-6.46 31.06c-19.18 18.28-35.35 39.87-47.59 64.05l-.41.82c-13.09 25.87-36.14 40.94-60.83 45.21-4.89.85-15.01-14.74-15.01-14.74v-285.64c.01.28.01.57.01.86 0-37.18 30.38-67.27 67.67-66.79 36.71.48 65.92 31.07 65.92 67.79v30.08h.3c27.47 0 52.34 11.13 70.34 29.14 18 18 29.14 42.87 29.14 70.34z" fill="#dadae5"/><path d="m271.01 395.67v115.06c-4.89.85-10.06 1.27-15.01 1.27s-10.12-.42-15.01-1.27v-115.06z" fill="#9b786f"/><g fill="#704c55"><path d="m256 395.67v116.33c4.95 0 10.12-.42 15.01-1.27v-115.06z"/><path d="m191.413 228.5h30.282v30h-30.282z"/><path d="m304.37 377.69-33.41 41.76c-3.83 4.79-9.39 7.19-14.95 7.19h-.01c-5.57 0-11.12-2.4-14.96-7.19l-33.42-41.77c-10.03-12.54-1.1-31.12 14.96-31.12h66.83c16.07 0 25 18.58 14.96 31.13z"/></g><path d="m304.37 377.69-33.41 41.76c-3.83 4.79-9.39 7.19-14.95 7.19h-.01v-80.08h33.41c16.07 0 25 18.58 14.96 31.13z" fill="#5a344b"/><path d="m290.429 228.5h30.281v30h-30.281z" fill="#5a344b"/><path d="m190.56 316.45c-30.59 18.63-51.8 49.25-58.4 84.2-8.05-7.66-16.64-14.74-25.68-21.19 10.97-36.72 35.25-68.4 68.48-88.63z" fill="#9b786f"/><path d="m321.44 316.45c30.59 18.63 51.8 49.25 58.4 84.2 8.05-7.66 16.64-14.74 25.68-21.19-10.97-36.72-35.25-68.4-68.48-88.63z" fill="#704c55"/></g></svg>