<svg id="Capa_1" enable-background="new 0 0 512 512" height="512" viewBox="0 0 512 512" width="512" xmlns="http://www.w3.org/2000/svg"><path d="m423.24 180.1c0 42.922-9.551 85.306-27.96 124.079l-28.64 60.321h-221.28l-28.64-60.321c-18.409-38.773-27.96-81.157-27.96-124.079l90.59-43.3 76.65 43.3 76.65-43.3z" fill="#aa6100"/><path d="m423.24 180.1c0 42.922-9.551 85.306-27.96 124.079l-28.64 60.321h-110.64v-184.4l76.65-43.3z" fill="#8e4e02"/><path d="m126.183 135.819c-9.795-11.6-26.567-35.906-26.567-66.348-.001-42.997 45.752-69.471 45.752-69.471 34.659 34.659 36.877 69.475 36.877 69.475v66.345h-56.062z" fill="#aa6100"/><path d="m385.817 135.82c9.795-11.599 26.568-35.906 26.568-66.348 0-42.998-45.753-69.472-45.753-69.472-34.659 34.659-36.877 69.475-36.877 69.475v66.346h56.062z" fill="#8e4e02"/><path d="m292.88 290.26 73.75 74.23c0 47.228-18.761 92.521-52.156 125.916l-21.594 21.594h-73.76l-21.594-21.594c-33.395-33.395-52.156-78.688-52.156-125.916l73.75-73.28v-74.23l-36.87-36.88h-93.49l93.49-110.63 73.75 13.682 73.75-13.682 93.49 110.63h-93.49l-36.87 36.88z" fill="#ffa001"/><path d="m292.88 290.26 73.75 74.23c0 47.228-18.761 92.521-52.156 125.916l-21.594 21.594h-36.88v-442.53h73.75l93.49 110.63h-93.49l-36.87 36.88z" fill="#f77e01"/><path d="m202.512 375.62h30.001v36.088h-30.001z" fill="#aa6100" transform="matrix(.975 -.224 .224 .975 -82.665 58.736)"/><path d="m276.444 378.664h36.088v30.001h-36.088z" fill="#8e4e02" transform="matrix(.224 -.975 .975 .224 -155.142 592.48)"/><path d="m149.058 232.881h30.297v30h-30.297z" fill="#704c55"/><path d="m332.646 232.881h30.297v30h-30.297z" fill="#5a344b"/><path d="m329.75 69.47c-73.75 0-73.75 73.76-73.75 73.76-63.91 0-73.75-73.76-73.75-73.76z" fill="#cc7400"/><path d="m329.75 69.47c-73.75 0-73.75 73.76-73.75 73.76v-73.76z" fill="#aa6100"/></svg>