<svg id="Capa_1" enable-background="new 0 0 512 512" height="512" viewBox="0 0 512 512" width="512" xmlns="http://www.w3.org/2000/svg"><g><path d="m87.963 169.846c-18.883-12.083-38.326-29.558-46.825-53.228-18.981-52.867 23.822-116.618 23.822-116.618s73.579 21.964 92.561 74.832c1.871 5.21 3.141 10.526 3.912 15.876l-36.43 66.292z" fill="#aa6100"/><path d="m424.037 169.846c18.883-12.083 38.326-29.558 46.825-53.228 18.981-52.867-23.822-116.618-23.822-116.618s-73.579 21.964-92.561 74.832c-1.871 5.21-3.141 10.526-3.912 15.876l36.43 66.292z" fill="#8e4e02"/><path d="m508.07 325.76c-67.89 24.53-252.07 83.57-252.07 83.57s-184.18-59.04-252.07-83.57l87.37-162.33c16.31-30.3 40.28-54.9 68.78-71.93 28.49-17.02 61.51-26.47 95.92-26.47 68.82 0 132.08 37.8 164.7 98.4z" fill="#ffa001"/><path d="m508.07 325.76c-67.89 24.53-252.07 83.57-252.07 83.57v-344.3c68.82 0 132.08 37.8 164.7 98.4z" fill="#f77e01"/><path d="m312.12 344.14v65.19h-112.24v-65.19c15.5-15.5 35.81-23.24 56.12-23.24s40.62 7.74 56.12 23.24z" fill="#704c55"/><path d="m312.12 344.14v65.19h-56.12v-88.43c20.31 0 40.62 7.74 56.12 23.24z" fill="#5a344b"/><path d="m508.07 325.76c-67.89 24.53-129.54 63.71-180.58 114.75l-71.49 71.49-71.49-71.49c-51.04-51.04-112.69-90.22-180.58-114.75l48.29-34.89c31.57-22.82 75.05-19.35 102.59 8.2l101.19 101.19 101.19-101.19c27.54-27.55 71.02-31.02 102.59-8.2z" fill="#ffe477"/><path d="m508.07 325.76c-67.89 24.53-129.54 63.71-180.58 114.75l-71.49 71.49v-111.74l101.19-101.19c27.54-27.55 71.02-31.02 102.59-8.2z" fill="#ffb655"/><path d="m172.143 196.379h30v37.958h-30z" fill="#704c55" transform="matrix(.707 -.707 .707 .707 -97.468 195.404)"/><path d="m305.878 200.358h37.958v30h-37.958z" fill="#5a344b" transform="matrix(.707 -.707 .707 .707 -57.131 292.794)"/></g></svg>