<svg id="Capa_1" enable-background="new 0 0 512 512" height="512" viewBox="0 0 512 512" width="512" xmlns="http://www.w3.org/2000/svg"><g><path d="m256 0c-28.18 0-51.11 22.93-51.11 51.11v70.66h102.22v-70.66c0-28.18-22.93-51.11-51.11-51.11z" fill="#b5f94b"/><g><path d="m413.561 218.317-66.259-78.302 83.7-83.699 36.14 36.14c9.654 9.653 14.97 22.487 14.97 36.14s-5.316 26.486-14.97 36.14z" fill="#00b863"/><path d="m98.441 218.317-53.581-53.582c-19.927-19.928-19.927-52.352 0-72.279l36.14-36.14 83.7 83.699z" fill="#60d94d"/></g><g><path d="m81.199 488.139c-13.088 0-26.176-4.981-36.14-14.945l-36.14-36.14 89.72-89.722 66.259 78.302-47.56 47.56c-9.963 9.963-23.051 14.945-36.139 14.945z" fill="#60d94d"/><path d="m430.801 488.143c-13.088 0-26.176-4.981-36.14-14.945l-47.56-47.561 66.259-78.301 89.72 89.721-36.139 36.141c-9.963 9.963-23.052 14.945-36.14 14.945z" fill="#00b863"/></g><path d="m241 463.3h30v48.7h-30z" fill="#b5f94b"/><path d="m256 463.3h15v48.7h-15z" fill="#60d94d"/><path d="m307.11 51.11v70.66h-51.11v-121.77c28.18 0 51.11 22.93 51.11 51.11z" fill="#60d94d"/><circle cx="256" cy="282.75" fill="#cc7400" r="180.55"/><path d="m436.55 282.75c0 99.72-80.84 180.55-180.55 180.55v-361.1c99.71 0 180.55 80.84 180.55 180.55z" fill="#aa6100"/><path d="m256 87.2c-107.83 0-195.55 87.73-195.55 195.55 0 107.83 87.72 195.55 195.55 195.55s195.55-87.72 195.55-195.55c0-107.82-87.72-195.55-195.55-195.55zm164.88 180.73h-73.17l-31.44-54.46 52.14-52.14c29.25 27.11 48.72 64.62 52.47 106.6zm-99.15 15-32.87 56.92h-65.72l-32.87-56.92 32.87-56.93h65.72zm-65.73-165.73c32.5 0 62.84 9.42 88.44 25.67l-53.13 53.13h-70.62l-53.13-53.13c25.6-16.25 55.94-25.67 88.44-25.67zm-112.41 44.13 52.14 52.14-31.44 54.46h-73.17c3.75-41.98 23.22-79.49 52.47-106.6zm-52.44 136.6h73.14l31.44 54.45-51.96 51.96c-29.27-27.05-48.79-64.49-52.62-106.41zm164.85 150.37c-32.41 0-62.67-9.37-88.23-25.53l52.92-52.92h70.62l52.92 52.92c-25.56 16.16-55.82 25.53-88.23 25.53zm112.23-43.96-51.96-51.96 31.44-54.45h73.14c-3.83 41.92-23.35 79.36-52.62 106.41z" fill="#aa6100"/><path d="m256 87.2v30c32.5 0 62.84 9.42 88.44 25.67l-53.13 53.13h-35.31v30h32.86l32.87 56.93-32.87 56.92h-32.86v30h35.31l52.92 52.92c-25.56 16.16-55.82 25.53-88.23 25.53v30c107.83 0 195.55-87.72 195.55-195.55 0-107.82-87.72-195.55-195.55-195.55zm60.27 126.27 52.14-52.14c29.25 27.11 48.72 64.62 52.47 106.6h-73.17zm51.96 190.87-51.96-51.96 31.44-54.45h73.14c-3.83 41.92-23.35 79.36-52.62 106.41z" fill="#8e4e02"/></g></svg>