<svg id="Capa_1" enable-background="new 0 0 512 512" height="512" viewBox="0 0 512 512" width="512" xmlns="http://www.w3.org/2000/svg"><g><path d="m73.15 213.188c-42.617-15.059-73.15-55.701-73.15-103.474 0-60.593 49.121-109.714 109.714-109.714 48.643 0 89.955 31.847 104.333 75.682z" fill="#9b786f"/><path d="m438.85 213.188c42.616-15.06 73.15-55.701 73.15-103.474 0-60.593-49.121-109.714-109.714-109.714-48.643 0-89.959 31.846-104.338 75.681z" fill="#704c55"/><path d="m438.86 214.78c0 101.11-109.72 224.08-182.86 224.08s-182.86-122.97-182.86-224.08c0-101.1 81.76-141.64 182.86-141.64s182.86 40.54 182.86 141.64z" fill="#f0eeff"/><path d="m438.86 214.78c0 101.11-109.72 224.08-182.86 224.08v-365.72c101.1 0 182.86 40.54 182.86 141.64z" fill="#dadae5"/><circle cx="256" cy="473.75" fill="#704c55" r="38.25"/><path d="m294.25 473.75c0 21.12-17.13 38.25-38.25 38.25v-76.5c21.12 0 38.25 17.13 38.25 38.25z" fill="#5a344b"/><path d="m182.211 199.605h30.281v30h-30.281z" fill="#704c55"/><path d="m299.508 199.605h30.281v30h-30.281z" fill="#5a344b"/><path d="m93.409 390.932h137.129v30.001h-137.129z" fill="#704c55" transform="matrix(.807 -.591 .591 .807 -208.536 174.115)"/><path d="m44.641 318.313h151.797v30h-151.797z" fill="#704c55" transform="matrix(.948 -.318 .318 .948 -99.775 55.664)"/><g fill="#5a344b"><path d="m335.026 337.368h30.001v137.129h-30.001z" transform="matrix(.591 -.807 .807 .591 -184.283 448.512)"/><path d="m376.461 257.415h30v151.796h-30z" transform="matrix(.318 -.948 .948 .318 -49.075 598.394)"/></g></g></svg>