<svg id="Capa_1" enable-background="new 0 0 512 512" height="512" viewBox="0 0 512 512" width="512" xmlns="http://www.w3.org/2000/svg"><g><path d="m219.429 219.429h-182.858c-20.197 0-36.571 16.373-36.571 36.571 0 .505.01 1.008.031 1.507.944 23.284 24.358 38.962 46.552 31.86l172.846-55.311z" fill="#ffe477"/><path d="m292.571 219.429h182.857c20.198 0 36.572 16.373 36.572 36.571 0 .505-.01 1.008-.031 1.507-.944 23.284-24.358 38.962-46.552 31.86l-172.846-55.311z" fill="#f6ab56"/><g fill="#aa6100"><path d="m241 32.33h30v66h-30z"/><path d="m164.185 512-22.942-19.332 30.9-36.667v-101.399l36.055-70.967 26.746 13.588-32.801 64.562v105.171z"/><path d="m231 209.92-63.29-63.29v-102.61l-37.69-44.02-22.79 19.51 30.48 35.6v103.95l69.17 69.17-103.59 89.78v69.49l-30.04 30.04 21.21 21.21 38.83-38.82v-68.22l97.71-84.683z"/></g><path d="m347.815 512-37.958-45.044v-105.171l-32.801-64.562 26.746-13.588 36.055 70.967v101.399l30.9 36.667z" fill="#8e4e02"/><path d="m408.71 387.5v-69.49l-103.59-89.78 69.17-69.17v-103.95l30.48-35.6-22.79-19.51-37.69 44.02v102.61l-63.415 63.415v36.873l97.835 84.792v68.22l38.83 38.82 21.21-21.21z" fill="#8e4e02"/><path d="m256 32.33h15v66h-15z" fill="#8e4e02"/><path d="m290.95 186.62c8.95 8.94 14.48 21.3 14.48 34.95v68.86c0 27.3-22.13 49.43-49.43 49.43s-49.43-22.13-49.43-49.43v-68.86c0-23.89 16.94-43.82 39.47-48.43-22.53-4.61-39.47-24.54-39.47-48.42 0-13.65 5.53-26.01 14.48-34.95 8.94-8.95 21.3-14.48 34.95-14.48s26.01 5.53 34.95 14.48c8.95 8.94 14.48 21.3 14.48 34.95 0 13.64-5.53 26-14.48 34.94-6.71 6.71-15.33 11.5-24.99 13.48 9.66 1.98 18.28 6.77 24.99 13.48z" fill="#ffa001"/><path d="m290.95 186.62c8.95 8.94 14.48 21.3 14.48 34.95v68.86c0 27.3-22.13 49.43-49.43 49.43v-264.57c13.65 0 26.01 5.53 34.95 14.48 8.95 8.94 14.48 21.3 14.48 34.95 0 13.64-5.53 26-14.48 34.94-6.71 6.71-15.33 11.5-24.99 13.48 9.66 1.98 18.28 6.77 24.99 13.48z" fill="#f77e01"/></g></svg>