<svg id="Capa_1" enable-background="new 0 0 512 512" height="512" viewBox="0 0 512 512" width="512" xmlns="http://www.w3.org/2000/svg"><g><path d="m219.05 180.64c-19.205 19.205-25.51 52.07 0 77.58 0 0 15.84 15.87 17.25 17.36 61.99 65 83.19 154.6 63.61 236.42h-299.91v-137.41c22.96 0 52.5-17.09 35.55-57.23-35.705-84.557-27.21-184.61 41.27-253.09 42.84-42.85 99-64.27 155.16-64.27 56.15 0 112.31 21.42 155.16 64.27l30.75 30.75-103.73 103.15-17.53-17.53c-21.43-21.42-56.16-21.42-77.58 0z" fill="#f0eeff"/><path d="m490.577 271.148-82.862-82.862-41.881 41.881 2.266 21.943 122.477 122.477c28.564-28.564 28.564-74.875 0-103.439z" fill="#eb5569"/><path d="m419.81 200.39-51.71 51.72-53.94-53.94c-14.21-14.21-21.28-32.73-21.28-51.28 0-18.74 7.22-37.51 21.57-51.87 28.56-28.56 74.88-28.56 103.44 0 30.27 30.27 30.49 76.8 1.92 105.37z" fill="#ffc8cf"/><path d="m419.81 200.39-51.71 51.72-53.94-53.94 103.73-103.15c30.27 30.27 30.49 76.8 1.92 105.37z" fill="#ffa6b3"/><path d="m387.34 146.7-21.22 21.21-21.41-21.41 21.22-21.22 10.73 10.74z" fill="#704c55"/><path d="m387.34 146.7-21.22 21.21-10.73-10.73 21.27-21.16z" fill="#5a344b"/><path d="m299.91 512h-299.91v-1.45l236.3-234.97c61.99 65 83.19 154.6 63.61 236.42z" fill="#dadae5"/></g></svg>