<svg id="Capa_1" enable-background="new 0 0 512 512" height="512" viewBox="0 0 512 512" width="512" xmlns="http://www.w3.org/2000/svg"><g><path d="m133.335 259.333-39.638.001c-39.87 0-72.192-32.321-72.192-72.192h234.492z" fill="#cc7400"/><path d="m378.657 259.333 39.645.001c39.87 0 72.192-32.321 72.192-72.192h-234.494z" fill="#aa6100"/><path d="m512 49.43v34.68c0 65.09-52.95 118.03-118.03 118.03h-275.94c-65.08 0-118.03-52.94-118.03-118.03v-34.68h30v34.68c0 44.98 33.91 82.19 77.5 87.4-23.81-21.61-38.78-52.79-38.78-87.4v-84.11h30v84.11c0 45.19 34.22 82.53 78.11 87.47-23.85-21.61-38.86-52.82-38.86-87.47h30c0 48.54 39.49 88.03 88.03 88.03s88.03-39.49 88.03-88.03h30c0 34.65-15.01 65.86-38.86 87.47 43.89-4.94 78.11-42.28 78.11-87.47v-84.11h30v84.11c0 34.61-14.97 65.79-38.78 87.4 43.59-5.21 77.5-42.42 77.5-87.4v-34.68z" fill="#aa6100"/><path d="m512 49.43v34.68c0 65.09-52.95 118.03-118.03 118.03h-137.97v-30c48.54 0 88.03-39.49 88.03-88.03h30c0 34.65-15.01 65.86-38.86 87.47 43.89-4.94 78.11-42.28 78.11-87.47v-84.11h30v84.11c0 34.61-14.97 65.79-38.78 87.4 43.59-5.21 77.5-42.42 77.5-87.4v-34.68z" fill="#8e4e02"/><path d="m398.55 309.31c-20.2 40.41-36.43 74.63-48.44 116.34l-94.11-.01-94.09-.01v-.01c-12.02-41.7-28.26-75.92-48.46-116.33l34.27-86.05 61.52-30.77c14.34 6.22 30.16 9.67 46.76 9.67 16.61 0 32.42-3.45 46.77-9.67l61.52 30.77z" fill="#ffa001"/><path d="m398.55 309.31c-20.2 40.41-36.43 74.63-48.44 116.34l-94.11-.01v-223.5c16.61 0 32.42-3.45 46.77-9.67l61.52 30.77z" fill="#f77e01"/><g><path d="m350.1 425.62v.01c-1.54 5.31-3 10.75-4.4 16.33-5.14 20.58-16.96 38.09-32.8 50.46-12.03 9.39-26.39 15.82-41.9 18.36-4.9.8-15-14.79-15-14.79s-10.1 15.59-15 14.79c-15.51-2.54-29.87-8.97-41.9-18.36-15.84-12.37-27.66-29.88-32.8-50.46-1.4-5.58-2.86-11.02-4.4-16.33v-.01l32.46-32.46c16.35-16.34 38.52-25.53 61.64-25.54 23.12.01 45.29 9.2 61.64 25.54z" fill="#ffe477"/><path d="m256 367.62v128.37s10.1 15.59 15 14.79c15.51-2.54 29.87-8.97 41.9-18.36 15.84-12.37 27.66-29.88 32.8-50.46 1.4-5.58 2.86-11.02 4.4-16.33v-.01l-32.46-32.46c-16.35-16.34-38.52-25.53-61.64-25.54z" fill="#ffb655"/></g><path d="m299.95 428.68-28.95 23.47v58.63c-4.9.8-9.91 1.22-15 1.22s-10.1-.42-15-1.22v-58.63l-28.95-23.47 18.89-23.3 25.06 20.31 25.06-20.31z" fill="#cc7400"/><path d="m281.06 405.38 18.89 23.3-28.95 23.47v58.63c-4.9.8-9.91 1.22-15 1.22v-86.31z" fill="#aa6100"/><path d="m191.21 291.499h30.282v30h-30.282z" fill="#704c55"/><path d="m290.508 291.499h30.282v30h-30.282z" fill="#5a344b"/></g></svg>