<svg id="Capa_1" enable-background="new 0 0 512 512" height="512" viewBox="0 0 512 512" width="512" xmlns="http://www.w3.org/2000/svg"><g><g><g><path d="m397.24 184.52v23.63h-282.48v-23.63c65.82 0 104.67-45.62 104.67-111.37-20.2 0-36.58-16.38-36.58-36.58v-36.57h36.58c20.2 0 36.57 16.37 36.57 36.57 0-20.2 16.37-36.57 36.57-36.57h36.58v36.57c0 20.2-16.38 36.58-36.58 36.58 0 32.87 10.57 60.71 28.95 80.34 18.37 19.62 44.53 31.03 75.72 31.03z" fill="#704c55"/></g></g><path d="m397.24 184.52v23.63h-141.24v-171.58c0-20.2 16.37-36.57 36.57-36.57h36.58v36.57c0 20.2-16.38 36.58-36.58 36.58 0 32.87 10.57 60.71 28.95 80.34 18.37 19.62 44.53 31.03 75.72 31.03z" fill="#5a344b"/><path d="m10.005 308-10.005 21.14v11.86c0 75.29 48.66 139.22 116.26 162.05 6.01 2.03 28.24-6.05 28.24-6.05s2.56 13.46 8.89 14.11c5.79.59 11.66.89 17.61.89h70l15-15.5 15 15.5h70c5.95 0 11.82-.3 17.61-.89 6.43-.66 6.89-14.11 6.89-14.11s24.32 8.05 30.24 6.05c67.6-22.83 116.26-86.76 116.26-162.05v-11.86l-10.082-21.14z" fill="#f0eeff"/><path d="m256 308v188.5l15 15.5h70c5.95 0 11.82-.3 17.61-.89 6.43-.66 6.89-14.11 6.89-14.11s24.32 8.05 30.24 6.05c67.6-22.83 116.26-86.76 116.26-162.05v-11.86l-10.082-21.14z" fill="#dadae5"/><path d="m512 253.38v76.98c0 100.32-119.11-1.22-219.43-1.22h-73.14c-100.32 0-219.43 101.54-219.43 1.22v-76.98c0-38.03 30.83-68.86 68.86-68.86h187.14l180.55 29.896c38.03.001 75.45.934 75.45 38.964z" fill="#9b786f"/><path d="m512 253.38v76.98c0 100.32-119.11-1.22-219.43-1.22h-36.57v-144.62h187.14c38.03 0 68.86 30.83 68.86 68.86z" fill="#704c55"/><path d="m397.861 267.563h30.282v30h-30.282z" fill="#5a344b"/><path d="m83.857 267.563h30.282v30h-30.282z" fill="#704c55"/><path d="m241 393.71h30v118.29h-30z" fill="#9b786f"/><path d="m256 393.71h15v118.29h-15z" fill="#704c55"/><path d="m202.14 393.71c0 36.85-19.63 86.91-48.75 117.4-12.86-1.32-25.29-4.06-37.13-8.06 13.58-7.98 27.33-24.26 38.13-45.26 11.12-21.62 17.75-45.57 17.75-64.08z" fill="#9b786f"/><path d="m395.74 503.05c-11.84 4-24.27 6.74-37.13 8.06-29.12-30.49-48.75-80.55-48.75-117.4h30c0 18.51 6.63 42.46 17.75 64.08 10.8 21 24.55 37.28 38.13 45.26z" fill="#704c55"/></g></svg>