<svg id="Capa_1" enable-background="new 0 0 512 512" height="512" viewBox="0 0 512 512" width="512" xmlns="http://www.w3.org/2000/svg"><g><path d="m82.948 107.069c-11.305-2.572-22.205-7.323-30.485-15.603-28.564-28.564-15.13-88.31-15.13-88.31s59.746-13.434 88.31 15.13c10.514 10.514 15.337 26.141 17.236 41.002l-22.593 33.712z" fill="#704c55"/><path d="m429.052 107.069c11.305-2.572 22.205-7.323 30.485-15.603 28.564-28.564 15.13-88.31 15.13-88.31s-59.746-13.434-88.31 15.13c-10.517 10.517-15.34 26.15-17.237 41.014l22.541 33.2z" fill="#5a344b"/><path d="m347.405 411.33v42.44c0 33.27-26.97 58.23-60.23 58.23h-62.4c-33.27 0-60.23-24.96-60.23-58.23v-42.44z" fill="#704c55"/><path d="m347.405 411.33v42.44c0 33.27-26.97 58.23-60.23 58.23h-31.2v-100.67z" fill="#5a344b"/><path d="m438.835 148.47v187.15l-48.4 44.11h-268.92l-48.4-44.11v-187.15c0-43.8 30.92-81.51 73.86-90.1l109-21.8 108.99 21.8c42.95 8.59 73.87 46.3 73.87 90.1z" fill="#9b786f"/><path d="m438.835 148.47v187.15l-48.4 44.11h-134.46v-343.16l108.99 21.8c42.95 8.59 73.87 46.3 73.87 90.1z" fill="#704c55"/><path d="m343.305 449.78-41.72 7.74c-2.39.44-4.77.66-7.11.66-20.81 0-38.5-16.9-38.5-38.59 0 24.12-21.89 42.32-45.61 37.93l-41.72-7.74c-32.43-6.01-53.66-37.38-47.2-69.72l8.07-52.2c6.99-45.25 37.15-81.9 77.28-98.62h.01c16.14-50.48 49.17-127.29 49.17-127.29s33.03 76.81 49.17 127.29c40.14 16.72 70.3 53.37 77.29 98.62l8.07 52.2c6.46 32.34-14.77 63.71-47.2 69.72z" fill="#f0eeff"/><path d="m343.305 449.78-41.72 7.74c-2.39.44-4.77.66-7.11.66-20.81 0-38.5-16.9-38.5-38.59v-317.64s33.03 76.81 49.17 127.29c40.14 16.72 70.3 53.37 77.29 98.62l8.07 52.2c6.46 32.34-14.77 63.71-47.2 69.72z" fill="#dadae5"/><path d="m280.668 356.348h44.849v30h-44.849z" fill="#704c55" transform="matrix(.707 -.707 .707 .707 -173.809 323.084)"/><path d="m193.857 348.923h30v44.85h-30z" fill="#9b786f" transform="matrix(.707 -.707 .707 .707 -201.409 256.447)"/><path d="m137.549 173.71h30.281v30h-30.281z" fill="#704c55"/><path d="m344.12 173.71h30.282v30h-30.282z" fill="#5a344b"/></g></svg>