<svg id="Capa_1" enable-background="new 0 0 512 512" height="512" viewBox="0 0 512 512" width="512" xmlns="http://www.w3.org/2000/svg"><g><path d="m512 218.34v.02s-48.65 47.6-70.22 78.89c-44.74 64.92-88.86 111.46-185.78 111.46s-141.04-46.54-185.78-111.46c-21.57-31.3-70.22-78.89-70.22-78.89 0-.01 0-.01 0-.02 0-38.5 27.14-69.72 65.65-69.72 23.18 0 44.87-7.89 62.18-21.4 17.3-13.51 30.21-32.64 35.84-55.13 5.29-21.19 17.46-39.21 33.76-51.93 16.3-12.73 36.73-20.16 58.57-20.16s42.27 7.43 58.57 20.16c16.3 12.72 28.47 30.74 33.76 51.93 5.63 22.49 18.54 41.62 35.84 55.13 17.31 13.51 39 21.4 62.18 21.4 38.51 0 65.65 31.22 65.65 69.72z" fill="#f0eeff"/><path d="m512 218.34v.02s-48.65 47.6-70.22 78.89c-44.74 64.92-88.86 111.46-185.78 111.46v-408.71c21.84 0 42.27 7.43 58.57 20.16 16.3 12.72 28.47 30.74 33.76 51.93 5.63 22.49 18.54 41.62 35.84 55.13 17.31 13.51 39 21.4 62.18 21.4 38.51 0 65.65 31.22 65.65 69.72z" fill="#dadae5"/><path d="m408.71 462.57v49.43h-30v-49.43c0-10.71-8.71-19.43-19.42-19.43-10.72 0-19.43 8.72-19.43 19.43 0 27.26-22.18 49.43-49.43 49.43-13.37 0-25.53-5.33-34.43-13.99-9.25-8.99-15-21.55-15-35.44v-68.86h30v68.86c0 10.71 8.72 19.43 19.43 19.43s19.43-8.72 19.43-19.43c0-27.25 22.17-49.43 49.43-49.43 27.25 0 49.42 22.18 49.42 49.43z" fill="#5a344b"/><path d="m340.57 221.57c0 52.19-7.45 97.51-21.55 131.07-15.19 36.16-37.57 56.07-63.02 56.07s-47.83-19.91-63.02-56.07c-14.1-33.56-21.55-78.88-21.55-131.07h30c0 97.06 28.32 157.14 54.57 157.14s54.57-60.08 54.57-157.14z" fill="#9b786f"/><path d="m340.57 221.57c0 52.19-7.45 97.51-21.55 131.07-15.19 36.16-37.57 56.07-63.02 56.07v-30c26.25 0 54.57-60.08 54.57-157.14z" fill="#704c55"/><path d="m206.431 137.714h30.281v30h-30.281z" fill="#704c55"/><path d="m275.288 137.714h30.281v30h-30.281z" fill="#5a344b"/></g></svg>