<svg viewBox="0 -83 512 512" xmlns="http://www.w3.org/2000/svg"><path d="m510.296875 243.265625-7.710937-3.945313v8.796876zm0 0" fill="#cecece"/><path d="m142.988281 191.824219-40.949219-28.804688c-6.023437-15.058593-16.054687-28.4375-27.425781-35-18.425781-10.636719-33.363281.652344-33.363281 25.222657 0 24.570312 14.9375 53.109374 33.363281 63.75 8.738281 5.042968 16.683594 5.148437 22.632813 1.257812zm0 0" fill="#23292e"/><path d="m309.179688 344.722656c.550781-.277344 47.359374-27.355468 47.359374-27.355468l-40.949218-28.808594c-6.023438-15.054688-16.058594-28.433594-27.425782-34.996094-18.425781-10.640625-33.363281.652344-33.363281 25.222656 0 24.566406 14.9375 53.109375 33.363281 63.746094 7.96875 4.597656 15.277344 5.09375 21.015626 2.191406zm0 0" fill="#23292e"/><path d="m489.132812 186.941406-82.980468-52.519531-239.078125-132.648437c-4.808594-2.75-10.253907-2.121094-14.230469.65625l-145.375 85.324218c-4.300781 2.105469-7.46875 6.476563-7.46875 11.949219v10.679687c0 18.691407 9.964844 35.960938 26.140625 45.320313l314.464844 181.054687c4.324219 2.5 9.273437 1.761719 12.695312-.972656l144.582031-84.828125c3.882813-1.683593 6.800782-5.503906 6.800782-10.339843v-25.421876c.003906-11.460937-5.867188-22.125-15.550782-28.253906zm0 0" fill="#ed5100"/><path d="m244.3125 88.679688v-20.578126l34.6875 19.78125-18.128906 10.441407zm0 0" fill="#872e02"/><path d="m216.578125 30.855469c-6.644531-3.835938-14.824219-3.847657-21.476563-.035157l-8.191406 4.691407-111.003906 64.109375 37.191406 21.140625 111.007813-64.105469v-12.761719c0-5.382812-2.871094-10.351562-7.527344-13.039062zm0 0" fill="#ededed"/><path d="m113.097656 120.761719v-12.761719c0-5.378906-2.867187-10.347656-7.527344-13.035156-6.640624-3.835938-14.824218-3.847656-21.476562-.035156l-8.1875 4.691406zm0 0" fill="#cecece"/><path d="m234.980469 40.65625c-2.523438-1.457031-5.371094-1.191406-7.519531.179688l-109.800782 63.453124c-2.589844 1.042969-4.5625 3.542969-4.5625 6.730469v9.742188l20.207032 11.421875 18.191406 10.722656 92.816406-54.226562v-31.863282c0-6.664062-3.558594-12.828125-9.332031-16.160156zm0 0" fill="#525e65"/><path d="m113.097656 120.761719v-9.742188c0-5.582031 6.042969-9.070312 10.875-6.277343 5.773438 3.332031 9.332032 9.492187 9.332032 16.160156v11.28125zm0 0" fill="#2e373d"/><path d="m244.3125 88.679688 28.34375 16.507812-91.671875 53.992188-29.492187-16.273438zm0 0" fill="#2e373d"/><path d="m302.25 78.613281c-2.523438-1.457031-5.371094-1.191406-7.519531.179688l-109.800781 63.457031c-2.589844 1.042969-4.5625 3.539062-4.5625 6.726562v9.742188l20.207031 11.421875 18.191406 10.722656 92.816406-54.226562v-31.859375c0-6.667969-3.558593-12.828125-9.332031-16.164063zm0 0" fill="#525e65"/><path d="m180.367188 158.71875v-9.742188c0-5.582031 6.042968-9.070312 10.875-6.277343 5.777343 3.332031 9.332031 9.492187 9.332031 16.160156v11.28125zm0 0" fill="#2e373d"/><path d="m240.875 167.945312-22.109375 12.917969 26.714844 14.550781zm0 0" fill="#2e373d"/><path d="m463.007812 195.25-69.992187-53.261719 12.808594-7.53125-13.988281-67.730469-7.300782-4.15625-146.851562 86.351563 7.304687 4.15625 13.988281 67.734375 14.40625-8.476562 87.09375 41.242187c14.691407 6.953125 24.058594 21.753906 24.058594 38.011719v16.148437l96.714844-55.839843v-19.847657c0-14.441406-6.746094-28.054687-18.242188-36.800781zm0 0" fill="#e33400"/><path d="m237.683594 148.921875 146.851562-86.351563 7.300782 4.15625-146.851563 86.351563zm0 0" fill="#f07433"/><path d="m263.304688 210.960938 137.433593-79.347657-12.121093-56.765625-138.128907 79.058594zm0 0" fill="#304e75"/><path d="m369.558594 313.417969-1.085938.628906c-4.019531 2.320313-7.277344-.144531-7.277344-5.5v-19.3125c0-5.359375 3.257813-11.585937 7.277344-13.90625l1.085938-.625c4.019531-2.320313 7.277344.140625 7.277344 5.5v19.3125c0 5.359375-3.257813 11.585937-7.277344 13.902344zm0 0" fill="#fff"/><path d="m491.941406 242.738281-1.085937.628907c-4.019531 2.320312-7.277344-.144532-7.277344-5.503907v-19.3125c0-5.359375 3.257813-11.582031 7.277344-13.902343l1.085937-.628907c4.019532-2.320312 7.277344.144531 7.277344 5.503907v19.3125c0 5.355468-3.257812 11.582031-7.277344 13.902343zm0 0" fill="#fff"/><path d="m471.992188 252.203125c-26.421876 19.195313-53.089844 34.589844-79.507813 45.902344-2.464844 1.054687-4.324219-.644531-4.324219-3.949219v-11.886719c0-3.304687 1.863282-7.15625 4.324219-8.945312 26.417969-19.195313 53.085937-34.59375 79.507813-45.90625 2.460937-1.050781 4.324218.648437 4.324218 3.953125v11.886718c0 3.304688-1.863281 7.15625-4.324218 8.945313zm0 0" fill="#23292e"/><path d="m400.738281 131.613281-56.34375-31.457031 44.222657-25.308594zm0 0" fill="#59718b"/><path d="m341.953125 273.328125-82.980469-52.515625-13.988281-67.734375-7.300781-4.15625 11.109375 66.257813-209.667969-116.015626-19.230469-11.003906c-8.863281-5.070312-19.894531 1.332032-19.894531 11.542969v10.679687c0 18.691407 9.964844 35.960938 26.140625 45.320313l314.464844 181.054687c7.507812 4.34375 16.902343-1.074218 16.902343-9.75v-25.425781c0-11.460937-5.871093-22.121093-15.554687-28.253906zm0 0" fill="#872e02"/><path d="m321.527344 317.308594c0 24.566406-14.9375 35.859375-33.363282 25.222656-18.425781-10.636719-33.363281-39.179688-33.363281-63.75 0-24.566406 14.9375-35.859375 33.363281-25.222656 18.425782 10.640625 33.363282 39.183594 33.363282 63.75zm0 0" fill="#2e373d"/><path d="m304.570312 307.515625c0 12.082031-7.34375 17.632813-16.40625 12.402344-9.058593-5.230469-16.402343-19.261719-16.402343-31.34375 0-12.078125 7.34375-17.632813 16.402343-12.402344 9.058594 5.234375 16.40625 19.265625 16.40625 31.34375zm0 0" fill="#cecece"/><path d="m297.0625 303.183594c0 6.550781-3.984375 9.5625-8.898438 6.726562-4.914062-2.839844-8.894531-10.449218-8.894531-17 0-6.554687 3.984375-9.566406 8.894531-6.726562 4.914063 2.835937 8.898438 10.445312 8.898438 17zm0 0" fill="#627681"/><path d="m107.980469 191.769531c0 24.566407-14.941407 35.859375-33.367188 25.222657-18.425781-10.640626-33.363281-39.179688-33.363281-63.75 0-24.570313 14.9375-35.859376 33.363281-25.222657 18.429688 10.640625 33.367188 39.179688 33.367188 63.75zm0 0" fill="#2e373d"/><path d="m91.019531 181.976562c0 12.078126-7.34375 17.632813-16.40625 12.402344-9.058593-5.230468-16.402343-19.265625-16.402343-31.34375 0-12.082031 7.34375-17.632812 16.402343-12.402344 9.0625 5.230469 16.40625 19.265626 16.40625 31.34375zm0 0" fill="#cecece"/><path d="m83.511719 177.644531c0 6.550781-3.984375 9.5625-8.898438 6.722657-4.914062-2.835938-8.894531-10.445313-8.894531-17 0-6.550782 3.980469-9.5625 8.894531-6.722657 4.914063 2.835938 8.898438 10.445313 8.898438 17zm0 0" fill="#627681"/><path d="m349.269531 325.300781-2.695312-1.585937c-2.5625-1.507813-5.800781.339844-5.800781 3.316406 0 3.691406 1.972656 7.097656 5.171874 8.933594l1.429688.820312c5.675781 3.257813 12.652344 3.257813 18.324219-.007812l140.835937-81.027344c3.378906-1.949219 5.464844-5.550781 5.464844-9.453125 0-2.742187-2.96875-4.457031-5.347656-3.089844l-142.800782 82.164063c-4.519531 2.597656-10.085937 2.570312-14.582031-.070313zm0 0" fill="#cecece"/></svg>