<svg viewBox="0 -59 512.00019 512" xmlns="http://www.w3.org/2000/svg"><path d="m111.621094 191.007812c0-27.765624-16.882813-60.023437-37.707032-72.046874-8.476562-4.894532-16.300781-5.679688-22.597656-3.019532l-29.863281 17.433594c-9.445313 3.683594-15.59375 14.960938-15.59375 31.707031 0 27.765625 16.882813 60.023438 37.707031 72.046875 9.003906 5.195313 17.265625 5.753906 23.75 2.476563.683594-.347657 28.777344-16.917969 28.777344-16.917969 9.40625-3.707031 15.527344-14.96875 15.527344-31.679688zm0 0" fill="#23292e"/><path d="m502.519531 270.367188c0-27.765626-16.878906-60.023438-37.703125-72.046876-8.476562-4.890624-16.300781-5.679687-22.597656-3.019531l-29.867188 17.433594c-9.445312 3.683594-15.589843 14.960937-15.589843 31.707031 0 27.769532 16.878906 60.023438 37.707031 72.046875 9.957031 5.75 19.007812 5.820313 25.75 1.300781l26.773438-15.738281c10.007812-6.902343 15.527343-14.972656 15.527343-31.683593zm0 0" fill="#23292e"/><path d="m504.054688 217.816406c-6.605469-21.089844-21.042969-39.269531-40.148438-50.398437l-39.144531-22.808594-6.464844-8.863281c-23.113281-56.441406-71.636719-93.03125-122.78125-122.792969-43.675781-22.324219-93.058594-13.257813-134.769531 8.003906l-77.4375 38.210938.121094.179687c-47.605469 23.355469-70.375 109.890625-70.375 109.890625l227.484374 135.050781c-.007812.085938 10.332032 6.132813 10.332032 6.132813h.003906l94.558594 9.242187c6.5625 16.652344 26.832031 23.847657 42.773437 14.644532l101.394531-57.964844c21.160157-12.214844 20.9375-37.808594 14.453126-58.527344zm0 0" fill="#2dad57"/><path d="m478.039062 283.019531 11.5625-6.675781c11.445313-6.609375 18.496094-18.820312 18.496094-32.039062 0-31.664063-16.828125-60.945313-44.191406-76.886719l-39.148438-22.808594zm0 0" fill="#238342"/><path d="m130.925781 58.519531s66.976563 25.59375 103.292969 121.375l17.742188 53.484375 106.140624 31.09375c27.03125 7.917969 45.605469 32.714844 45.605469 60.882813l-152.832031-14.933594-121.394531-71.328125-116.425781-69.859375c0 .003906 37.816406-143.722656 117.871093-110.714844zm0 0" fill="#045d32"/><path d="m83.429688 59.347656c13.746093-6.742187 29.558593-8.222656 47.496093-.828125 0 0 66.976563 25.59375 103.292969 121.375l17.742188 53.484375 166.332031-97.632812c-23.515625-57.4375-69.136719-91.578125-122.777344-122.792969-43.675781-22.324219-93.058594-13.257813-134.769531 8.003906l-77.4375 38.210938zm0 0" fill="#238342"/><path d="m333.222656 270.738281c-8.476562-4.894531-16.300781-5.679687-22.597656-3.019531l-29.863281 17.429688c-9.445313 3.683593-15.59375 14.960937-15.59375 31.710937 0 27.765625 16.882812 60.023437 37.707031 72.042969 9.957031 5.75 19.003906 5.820312 25.746094 1.304687l26.777344-15.738281c9.410156-3.710938 15.53125-14.972656 15.53125-31.683594 0-27.769531-16.882813-60.023437-37.707032-72.046875zm0 0" fill="#23292e"/><path d="m340.578125 360.398438c0 27.769531-16.878906 40.53125-37.707031 28.507812-20.824219-12.023438-37.707032-44.28125-37.707032-72.046875s16.882813-40.527344 37.707032-28.507813c20.828125 12.023438 37.707031 44.28125 37.707031 72.046876zm0 0" fill="#2e373d"/><path d="m321.414062 349.332031c0 13.652344-8.300781 19.929688-18.539062 14.015625-10.238281-5.910156-18.539062-21.769531-18.539062-35.421875 0-13.652343 8.300781-19.925781 18.539062-14.015625s18.539062 21.769532 18.539062 35.421875zm0 0" fill="#cecece"/><path d="m312.929688 344.433594c0 7.40625-4.503907 10.808594-10.054688 7.605468-5.554688-3.207031-10.054688-11.808593-10.054688-19.214843 0-7.402344 4.5-10.808594 10.054688-7.601563 5.550781 3.207032 10.054688 11.808594 10.054688 19.210938zm0 0" fill="#627681"/><path d="m81.273438 208.621094c0 27.765625-16.882813 40.53125-37.707032 28.507812-20.824218-12.023437-37.707031-44.28125-37.707031-72.046875s16.882813-40.527343 37.707031-28.503906c20.824219 12.023437 37.707032 44.277344 37.707032 72.042969zm0 0" fill="#2e373d"/><path d="m62.105469 197.554688c0 13.652343-8.300781 19.929687-18.539063 14.015624-10.238281-5.910156-18.539062-21.769531-18.539062-35.421874 0-13.652344 8.300781-19.925782 18.539062-14.015626 10.238282 5.914063 18.539063 21.769532 18.539063 35.421876zm0 0" fill="#cecece"/><path d="m53.621094 192.660156c0 7.402344-4.5 10.804688-10.054688 7.601563-5.550781-3.207031-10.054687-11.808594-10.054687-19.214844 0-7.402344 4.503906-10.804687 10.054687-7.601563 5.554688 3.207032 10.054688 11.808594 10.054688 19.214844zm0 0" fill="#627681"/><path d="m258.585938 216.644531 145.472656-85.003906-9.632813-18.765625c-12.1875-23.746094-41.847656-32.347656-64.851562-18.804688l-46.726563 27.511719c-27.351562 16.101563-39.691406 49.160157-29.578125 79.25zm0 0" fill="#304e75"/><path d="m403.707031 325.355469-15.5 8.953125c-16.882812 9.746094-38.628906 1.109375-43.796875-17.6875-3.332031-12.121094-8.730468-24.828125-17.46875-34.710938-19.738281-22.3125-43.925781-18.5-57.878906-10.128906s-18.1875 38.640625-18.1875 38.640625l-10.351562-5.988281s3.304687-32.753906 24.640624-43.515625c.214844-.109375.429688-.214844.640626-.320313 19.054687-9.5 41.070312-11.128906 61.496093-5.128906l33.21875 9.757812c25.265625 7.425782 42.753907 30.4375 43.140625 56.769532zm0 0" fill="#238342"/><path d="m381.742188 311.765625 47.683593-16.390625c29.367188-10.09375 53.910157-30.785156 68.820313-58.027344 3.367187-6.15625 12.675781-4.191406 13.273437 2.800782l.324219 3.800781c.734375 8.640625-1.109375 17.304687-5.292969 24.898437-14.300781 25.933594-37.96875 45.425782-66.167969 54.484375l-57.265624 18.394531c-6.847657 2.199219-13.960938-2.539062-14.574219-9.703124-.761719-8.980469 4.675781-17.332032 13.199219-20.257813zm0 0" fill="#cecece"/><path d="m382.164062 293.671875c0 8.269531-5.03125 17.882813-11.234374 21.464844-6.207032 3.582031-11.234376-.222657-11.234376-8.492188 0-8.273437 5.027344-17.886719 11.234376-21.46875 6.203124-3.582031 11.234374.222657 11.234374 8.496094zm0 0" fill="#fff"/><path d="m501.320312 215.96875c0 8.273438-5.03125 17.882812-11.234374 21.464844-6.207032 3.582031-11.234376-.21875-11.234376-8.492188 0-8.273437 5.027344-17.882812 11.234376-21.464844 6.203124-3.585937 11.234374.21875 11.234374 8.492188zm0 0" fill="#fff"/><path d="m96.09375 219.0625s4.484375-36.929688-16.792969-70.765625c-21.28125-33.835937-44.625-33.859375-44.625-33.859375s-13.980469 0-25.738281 13.914062c-10.636719 12.582032-12.660156 43.886719-1.253906 53.257813 0 0-5.066406-26.628906 13.765625-40.636719 13.597656-10.113281 34.652343 6.398438 40.65625 28.261719 2.550781 9.289063 4.539062 21.4375 4.703125 33.15625.210937 14.828125 16.355468 23.941406 29.285156 16.671875zm0 0" fill="#238342"/><path d="m132.671875 144.671875 88.378906 50.890625s-34.601562-98.730469-88.378906-117.683594zm0 0" fill="#243b58"/><path d="m373.410156 111.21875s-3.175781-9.039062-9.066406-22.136719c-8.75-2.183593-18.128906-1.847656-26.992188 1.371094zm0 0" fill="#59718b"/><path d="m122.207031 75.039062c-50.757812-10.550781-59.375 29.414063-59.375 29.414063l59.375 34.191406zm0 0" fill="#243b58"/><path d="m355.402344 181.847656c43.496094 17.972656 90.496094 43.398438 97.605468 95.070313-21.667968-47.269531-59.257812-63.9375-97.605468-95.070313zm0 0" fill="#238342"/></svg>