<svg viewBox="0 -22 512.00028 512" xmlns="http://www.w3.org/2000/svg"><path d="m487.777344 266.191406c-3.316406-3.742187-7.105469-7.105468-11.320313-10l-53.203125-36.511718-104.953125 60.414062-43.773437 25.195312 72.761718 139.34375c19.289063 1.507813 38.929688-2.695312 56.273438-12.679687l71.710938-41.273437c8.078124-4.648438 14.679687-11.15625 19.460937-18.792969l1.132813.589843c4.847656-8.390624 7.523437-18.039062 7.523437-28.070312v-37.054688c.003906-15.339843-5.667969-29.9375-15.613281-41.160156zm0 0" fill="#ffd613"/><path d="m135.140625 295.917969-52.472656-36.914063c-7.71875-19.289062-20.578125-36.433594-35.144531-44.847656-23.613282-13.628906-42.753907.839844-42.753907 32.320312 0 31.484376 19.140625 68.054688 42.753907 81.6875 11.191406 6.460938 21.371093 6.601563 28.992187 1.617188zm0 0" fill="#23292e"/><path d="m310.550781 466.425781c.707031-.355469 60.683594-35.050781 60.683594-35.050781l-52.46875-36.914062c-7.71875-19.292969-20.578125-36.4375-35.144531-44.847657-23.613282-13.632812-42.753906.835938-42.753906 32.320313 0 31.480468 19.140624 68.054687 42.753906 81.683594 10.207031 5.894531 19.574218 6.527343 26.925781 2.8125zm0 0" fill="#23292e"/><path d="m487.777344 266.191406c-3.316406-3.742187-7.105469-7.105468-11.320313-10l-53.203125-36.511718-104.953125 60.414062-43.773437 25.195312 72.761718 139.34375c19.289063 1.507813 38.929688-2.695312 56.273438-12.679687l71.710938-41.273437c8.078124-4.648438 14.679687-11.15625 19.460937-18.792969l1.132813.589843c4.847656-8.390624 7.523437-18.039062 7.523437-28.070312v-37.054688c.003906-15.339843-5.667969-29.9375-15.613281-41.160156zm0 0" fill="#ffd613"/><path d="m487.777344 266.191406c-3.316406-3.742187-7.105469-7.105468-11.320313-10l-53.203125-36.511718-31.671875-96.835938-148.652343 85.828125-3.769532-11.527344c-4.792968-14.652343-15.03125-27.242187-28.402344-34.921875l-128.527343-73.867187c-11.957031-6.867188-27.15625-.304688-30.359375 13.109375l-17.222656 72.171875c-12.515626 7.476562-22.617188 14.011719-29.011719 28.066406-12.449219 27.382813-.59375 54.964844 24.792969 69.71875l275.457031 160.304687c12.875 7.480469 27.039062 11.769532 41.394531 12.894532l.003906.011718c2.453125.191407 4.921875.292969 7.378906.296876v-.007813c11.988282.03125 23.976563-2.132813 35.34375-6.511719v-65.128906c0-21.328125-11.21875-41.089844-29.539062-52.019531l-55.730469-33.363281 87.3125-50.257813 59.574219 34.398437c14.910156 8.605469 24.09375 24.515626 24.09375 41.734376v77.101562c8.488281-4.996094 20.144531-20.261719 20.144531-20.261719 4.839844-8.371093 7.527344-18.40625 7.527344-28.070312v-35.191407c.003906-15.339843-5.667969-29.9375-15.613281-41.160156-3.316406-3.742187 9.945312 11.222656 0 0zm0 0" fill="#e7c712"/><path d="m.253906 221.511719c-2.410156 19.890625 12.667969 39.734375 30.175782 49.910156l275.457031 160.304687c15.078125 8.761719 31.921875 13.164063 48.777343 13.203126v-51.972657c0-20.449219-10.074218-39.585937-26.9375-51.15625l-53.199218-36.511719-35.371094-108.144531c-4.792969-14.65625-15.027344-27.242187-28.398438-34.921875l-128.527343-73.867187c-11.957031-6.867188-27.15625-.304688-30.359375 13.109375l-17.222656 72.171875c-2.417969 1.445312-29.878907 10.597656-34.394532 47.875zm0 0" fill="#c98000"/><path d="m387.882812 111.539062c-4.824218-14.753906-14.941406-27.195312-28.402343-34.925781l-128.523438-73.863281c-6.632812-3.808594-14.253906-3.472656-20.28125-.144531l-.011719-.007813-.199218.113282c-.035156.023437-.070313.042968-.105469.0625l-146.988281 84.726562c-4.707032 2.15625-8.621094 6.058594-10.632813 11.238281l190.191407 109.933594 148.65625-85.828125zm0 0" fill="#ededed"/><path d="m242.929688 208.667969-3.769532-11.523438c-4.828125-14.75-14.945312-27.191406-28.402344-34.921875l-128.527343-73.867187c-11.113281-6.382813-25.011719-1.152344-29.492188 10.382812zm0 0" fill="#cecece"/><path d="m326.375 431.296875c0 31.484375-19.144531 45.953125-42.753906 32.320313-23.613282-13.632813-42.753906-50.203126-42.753906-81.683594 0-31.484375 19.140624-45.953125 42.753906-32.320313 23.609375 13.632813 42.753906 50.203125 42.753906 81.683594zm0 0" fill="#2e373d"/><path d="m304.640625 418.75c0 15.480469-9.410156 22.59375-21.019531 15.894531-11.609375-6.703125-21.019532-24.6875-21.019532-40.164062 0-15.480469 9.410157-22.59375 21.019532-15.890625 11.609375 6.699218 21.019531 24.683594 21.019531 40.160156zm0 0" fill="#cecece"/><path d="m295.019531 413.199219c0 8.394531-5.101562 12.253906-11.398437 8.617187-6.296875-3.636718-11.402344-13.386718-11.402344-21.78125 0-8.398437 5.105469-12.253906 11.402344-8.621094 6.296875 3.636719 11.398437 13.386719 11.398437 21.785157zm0 0" fill="#627681"/><path d="m90.277344 295.84375c0 31.484375-19.140625 45.953125-42.753906 32.320312-23.609376-13.632812-42.753907-50.203124-42.753907-81.6875 0-31.480468 19.144531-45.953124 42.753907-32.320312 23.613281 13.632812 42.753906 50.207031 42.753906 81.6875zm0 0" fill="#2e373d"/><path d="m68.542969 283.296875c0 15.480469-9.410157 22.59375-21.019531 15.890625-11.609376-6.699219-21.019532-24.683594-21.019532-40.160156 0-15.480469 9.410156-22.59375 21.019532-15.890625 11.609374 6.699219 21.019531 24.683593 21.019531 40.160156zm0 0" fill="#cecece"/><path d="m58.925781 277.742188c0 8.394531-5.105469 12.253906-11.402343 8.621093-6.296876-3.636719-11.398438-13.390625-11.398438-21.785156s5.101562-12.253906 11.398438-8.617187c6.296874 3.632812 11.402343 13.386718 11.402343 21.78125zm0 0" fill="#627681"/><path d="m266.832031 209.617188 112.335938-64.441407c5.046875-2.894531 11.480469-.414062 13.273437 5.125l15.933594 49.128907c2.25 6.945312-.648438 14.523437-6.960938 18.195312l-110.75 64.433594c-4.957031 2.882812-11.3125.558594-13.238281-4.839844l-17.484375-48.921875c-2.527344-7.074219.375-14.941406 6.890625-18.679687zm0 0" fill="#304e75"/><path d="m256.09375 302.015625-18.652344-63.945313c-3.445312-11.800781-11.308594-21.820312-21.953125-27.96875l-37.839843-21.96875c-5.640626-3.261718-12.695313.8125-12.695313 7.328126v53.75zm0 0" fill="#243b58"/><path d="m400.238281 213.628906-18.652343-63.941406c-.480469-1.644531-1.066407-3.246094-1.710938-4.816406-.234375.109375-.480469.171875-.707031.304687l-48.785157 27.984375zm0 0" fill="#59718b"/><path d="m152.140625 241.816406v-55.71875c0-7.089844-3.882813-13.609375-10.113281-16.992187l-60.964844-33.082031c-9-4.878907-20.183594.03125-22.675781 9.964843l-9.207031 36.675781zm0 0" fill="#243b58"/><path d="m385.160156 362.230469c0 10.25-6.234375 22.160156-13.925781 26.597656-7.6875 4.441406-13.921875-.273437-13.921875-10.523437 0-10.253907 6.234375-22.160157 13.921875-26.601563 7.691406-4.4375 13.925781.273437 13.925781 10.527344zm0 0" fill="#fff"/><path d="m500.191406 294.480469c0 8.929687-5.425781 19.304687-12.125 23.171875-6.699218 3.867187-12.128906-.238282-12.128906-9.167969 0-8.933594 5.429688-19.308594 12.128906-23.171875 6.699219-3.867188 12.125.234375 12.125 9.167969zm0 0" fill="#fff"/><path d="m390.007812 399.578125v-26.835937c0-5.609376 1.761719-11.074219 5.03125-15.632813l5.191407-7.230469c2.816406-3.925781 6.445312-7.199218 10.636719-9.605468l46.914062-26.941407c3.277344-1.878906 7.207031-2.238281 10.769531-.980469 4.429688 1.558594 7.390625 5.742188 7.390625 10.4375v27.238282c0 6.050781-3.230468 11.644531-8.46875 14.667968l-68.941406 39.804688c-3.789062 2.183594-8.523438-.546875-8.523438-4.921875zm0 0" fill="#cecece"/><path d="m464.238281 319.03125c.632813 0 1.25.105469 1.84375.316406 1.457031.515625 2.4375 1.898438 2.4375 3.441406v27.238282c0 3.390625-1.824219 6.546875-4.757812 8.242187l-66.332031 38.296875v-23.824218c0-4.078126 1.257812-7.988282 3.636718-11.304688l5.191406-7.230469c2.214844-3.085937 5.007813-5.605469 8.300782-7.5l46.917968-26.9375c.835938-.480469 1.792969-.738281 2.761719-.738281" fill="#2e373d"/><path d="m329.367188 433.953125c0 8.824219 4.710937 16.984375 12.355468 21.394531 7.871094 4.546875 17.570313 4.554688 25.449219.023438l133.019531-76.925782c7.304688-4.199218 11.808594-11.980468 11.808594-20.40625v-2.613281c0-5.472656-5.933594-8.882812-10.664062-6.136719l-133.480469 77.5625c-7.925781 4.574219-17.699219 4.550782-25.605469-.066406l-.195312-.117187c-5.621094-3.28125-12.6875.773437-12.6875 7.285156zm0 0" fill="#cecece"/></svg>