<svg viewBox="-3 0 512 512" xmlns="http://www.w3.org/2000/svg"><path d="m506.503906 446.773438-119.027344-46.238282h-.003906c-7.859375-27.777344-26.25-51.898437-51.925781-66.726562l-27.960937-16.144532-28.175782 16.269532-111.640625-64.894532v-32.242187l-55.921875-32.285156-111.847656 64.574219v64.574218c17.304688 9.988282 27.960938 28.449219 27.960938 48.429688v32.089844l69.828124 40.398437c64.191407 37.136719 136.945313 56.925781 211.105469 57.421875l57.78125-56.734375 132.554688 5.851563 7.273437-3.949219zm0 0" fill="#56361b"/><path d="m167.769531 236.796875-55.921875-32.285156-111.847656 64.574219 55.921875 32.285156zm0 0" fill="#966030"/><path d="m387.476562 400.535156h-.003906c-7.859375-27.777344-26.25-51.898437-51.925781-66.726562l-27.960937-16.144532-28.175782 16.269532-111.640625-64.894532-111.847656 64.574219 139.816406 79.816407v-31.191407l.015625-.007812-.015625.007812c44 25.40625 92.734375 41.164063 142.984375 46.445313l160.699219 22.179687 7.082031-4.089843zm0 0" fill="#966030"/><path d="m41.480469 294.878906c-.621094 0-1.246094-.207031-1.765625-.628906-1.195313-.976562-1.375-2.738281-.398438-3.933594l104.097656-127.648437-123.75 117.730469c-1.121093 1.066406-2.890624 1.023437-3.953124-.097657-1.0625-1.121093-1.019532-2.890625.097656-3.953125l155.820312-148.238281c1.066406-1.019531 2.742188-1.03125 3.824219-.027344 1.085937 1.003907 1.199219 2.675781.269531 3.820313l-132.074218 161.949218c-.550782.675782-1.359376 1.027344-2.167969 1.027344zm0 0" fill="#cecece"/><path d="m55.921875 301.371094v32.289062l111.847656-64.574218v-32.289063zm0 0" fill="#3b2f25"/><path d="m191.285156 103.417969c-6.132812 3.539062-15.410156 3.925781-20.722656.859375-5.308594-3.066406-4.644531-8.421875 1.488281-11.964844 6.132813-3.539062 15.410157-3.925781 20.722657-.859375 5.308593 3.066406 4.640624 8.425781-1.488282 11.964844zm0 0" fill="#56361b"/><path d="m206.550781 335.878906-10.195312-239.148437-29.253907 2.269531-10.179687 240.109375c-.816406 3.921875 1.105469 7.789063 5.898437 10.558594 9.015626 5.203125 24.757813 4.550781 35.167969-1.457031 6.097657-3.523438 9.003907-8.097657 8.5625-12.332032zm0 0" fill="#56361b"/><path d="m161.90625 394.875c-.601562 0-1.210938-.195312-1.726562-.597656-1.210938-.953125-1.421876-2.710938-.46875-3.925782l98.449218-125.316406-118.042968 115.335938c-1.105469 1.078125-2.875 1.058594-3.953126-.046875-1.078124-1.105469-1.058593-2.875.046876-3.953125l148.515624-145.105469c1.050782-1.03125 2.722657-1.066406 3.820313-.082031s1.238281 2.652344.332031 3.808594l-124.769531 158.816406c-.550781.699218-1.375 1.066406-2.203125 1.066406zm0 0" fill="#cecece"/><path d="m275.417969 77.707031c20.558593 50.101563 19.960937 106.390625-1.65625 156.046875l-6.980469 16.03125-187.441406 108.207032 3.539062-9.648438c18.671875-50.980469 17.410156-107.132812-3.539062-157.222656zm0 0" fill="#cecece"/><path d="m275.417969 69.558594c-1.554688-.898438-2.960938-.921875-4.054688-.296875-.132812.078125-.273437.132812-.398437.230469l-195.230469 112.765624c-1.589844.589844-2.632813 2.460938-2.632813 5.261719 0 4.59375 2.792969 9.933594 6.238282 11.921875 1.769531 1.019532 3.363281.957032 4.496094.035156l195.769531-113.050781c1.253906-.800781 2.050781-2.507812 2.050781-4.945312 0-4.59375-2.792969-9.933594-6.238281-11.921875zm0 0" fill="#734824"/><path d="m85.578125 194.726562c0 4.59375-2.792969 6.703126-6.238281 4.714844-3.445313-1.988281-6.238282-7.328125-6.238282-11.921875s2.792969-6.703125 6.238282-4.714843c3.445312 1.988281 6.238281 7.324218 6.238281 11.921874zm0 0" fill="#3b2f25"/><path d="m275.417969 236.429688c-1.554688-.898438-2.960938-.921876-4.054688-.296876v.003907c-.132812.074219-.273437.132812-.398437.226562l-195.226563 112.765625c-1.59375.589844-2.636719 2.460938-2.636719 5.261719 0 4.59375 2.792969 9.933594 6.238282 11.921875 1.769531 1.023438 3.359375.957031 4.496094.035156l195.769531-113.050781c1.253906-.800781 2.050781-2.507813 2.050781-4.945313 0-4.59375-2.792969-9.929687-6.238281-11.921874zm0 0" fill="#734824"/><path d="m85.578125 361.597656c0 4.59375-2.792969 6.703125-6.238281 4.714844-3.445313-1.988281-6.238282-7.328125-6.238282-11.921875s2.792969-6.703125 6.238282-4.714844c3.445312 1.988281 6.238281 7.328125 6.238281 11.921875zm0 0" fill="#3b2f25"/><path d="m499.230469 461.121094 7.273437-3.949219v-10.398437l-7.273437 4.089843zm0 0" fill="#3b2f25"/><path d="m219.109375 100.117188v-21.316407c.53125-5.410156-2.441406-10.652343-9.085937-14.488281-13.5625-7.832031-37.253907-6.847656-52.914063 2.195312-8.082031 4.664063-12.433594 10.566407-12.902344 16.261719l-.050781.003907v25.832031l.058594-.007813c.398437 4.582032 3.394531 8.910156 9.097656 12.203125 13.5625 7.832031 37.25 6.847657 52.910156-2.191406 9.144532-5.28125 13.519532-12.136719 12.886719-18.492187zm0 0" fill="#56361b"/><path d="m206.222656 94.863281c-15.660156 9.039063-39.347656 10.023438-52.910156 2.191407-13.5625-7.828126-11.863281-21.507813 3.796875-30.546876 15.660156-9.042968 39.351563-10.023437 52.914063-2.195312 13.5625 7.832031 11.859374 21.507812-3.800782 30.550781zm0 0" fill="#966030"/><path d="m197.746094 89.96875c-10.253906 5.917969-25.765625 6.5625-34.644532 1.433594-8.882812-5.125-7.769531-14.082032 2.488282-20.003906 10.253906-5.917969 25.765625-6.5625 34.644531-1.433594 8.878906 5.125 7.769531 14.082031-2.488281 20.003906zm0 0" fill="#56361b"/><path d="m123.117188 0v53.160156c23.40625 31.378906 35.109374 2.40625 58.515624 33.785156 0-21.265624 0-31.898437 0-53.164062-23.40625-31.375-35.109374-2.402344-58.515624-33.78125zm0 0" fill="#ededed"/><path d="m189.878906 32.621094c.335938-1.34375-.289062-2.679688-1.933594-3.628906-3.003906-1.734376-8.246093-1.515626-11.710937.484374-2.378906 1.371094-3.304687 3.230469-2.679687 4.820313v60.238281c5.296874.625 11.078124.175782 16.417968-1.363281v-60.558594zm0 0" fill="#734824"/><path d="m187.101562 35.753906c-3.464843 2-8.707031 2.21875-11.710937.484375-3-1.730469-2.625-4.761719.839844-6.761719 3.46875-2 8.710937-2.21875 11.714843-.484374 3 1.730468 2.625 4.757812-.84375 6.761718zm0 0" fill="#966030"/><path d="m308.414062 194.835938c-4.511718 2.605468-11.34375 2.890624-15.253906.632812s-3.417968-6.203125 1.097656-8.808594c4.511719-2.605468 11.34375-2.890625 15.253907-.632812 3.910156 2.257812 3.417969 6.199218-1.097657 8.808594zm0 0" fill="#56361b"/><path d="m319.679688 366.535156c-.003907-.125-.007813-.246094-.015626-.367187l-7.511718-176.257813-21.539063 1.671875-7.503906 176.902344c-.535156 2.839844.871094 5.636719 4.351563 7.648437 6.636718 3.828126 18.230468 3.347657 25.890624-1.074218 4.222657-2.4375 6.359376-5.566406 6.328126-8.523438zm0 0" fill="#56361b"/><path d="m370.359375 175.90625c15.132813 36.886719 14.695313 78.328125-1.21875 114.882812l-5.140625 11.804688-138 79.667969 2.601562-7.105469c13.75-37.535156 12.820313-78.875-2.601562-115.75zm0 0" fill="#ededed"/><path d="m374.953125 178.683594c0-3.382813-2.058594-7.3125-4.59375-8.777344-1.144531-.660156-2.160156-.632812-2.964844-.171875l-.023437-.046875-.207032.121094c-.019531.015625-.046874.023437-.070312.039062l-143.746094 83.03125c-1.171875.433594-1.941406 1.8125-1.941406 3.875 0 3.382813 2.058594 7.3125 4.59375 8.777344 1.300781.75 2.472656.703125 3.308594.023438l144.132812-83.230469-.015625-.03125c.925781-.585938 1.527344-1.8125 1.527344-3.609375zm0 0" fill="#734824"/><path d="m486.648438 448.691406c-.875 0-1.738282-.410156-2.28125-1.175781l-178.230469-251.0625c-.894531-1.257813-.597657-3.003906.660156-3.898437 1.257813-.890626 3.003906-.597657 3.898437.664062l178.230469 251.058594c.894531 1.257812.597657 3.003906-.664062 3.898437-.488281.347657-1.054688.515625-1.613281.515625zm0 0" fill="#cecece"/><path d="m230.59375 262.058594c0 3.382812-2.058594 4.9375-4.59375 3.472656-2.539062-1.464844-4.59375-5.394531-4.59375-8.777344 0-3.382812 2.054688-4.9375 4.59375-3.472656 2.535156 1.464844 4.59375 5.394531 4.59375 8.777344zm0 0" fill="#56361b"/><path d="m374.953125 301.539062c0-3.382812-2.058594-7.3125-4.59375-8.777343-1.144531-.660157-2.160156-.628907-2.964844-.171875l-.023437-.046875-.207032.121093c-.019531.015626-.046874.023438-.070312.042969l-143.75 83.03125c-1.171875.433594-1.9375 1.808594-1.9375 3.871094 0 3.382813 2.058594 7.3125 4.59375 8.777344 1.300781.753906 2.472656.703125 3.308594.027343l144.132812-83.234374-.015625-.027344c.925781-.589844 1.527344-1.816406 1.527344-3.613282zm0 0" fill="#734824"/><path d="m230.59375 384.914062c0 3.382813-2.058594 4.9375-4.59375 3.472657-2.539062-1.464844-4.59375-5.394531-4.59375-8.777344s2.054688-4.9375 4.59375-3.472656c2.535156 1.464843 4.59375 5.394531 4.59375 8.777343zm0 0" fill="#3b2f25"/><path d="m328.902344 192.40625v-15.695312c.390625-3.984376-1.796875-7.839844-6.691406-10.664063-9.984376-5.765625-27.425782-5.042969-38.953126 1.613281-5.953124 3.4375-9.15625 7.78125-9.5 11.972656l-.039062.003907v19.015625l.042969-.003906c.296875 3.375 2.5 6.5625 6.699219 8.988281 9.984374 5.761719 27.425781 5.039062 38.953124-1.617188 6.734376-3.886719 9.953126-8.933593 9.488282-13.613281zm0 0" fill="#56361b"/><path d="m319.414062 188.535156c-11.527343 6.65625-28.96875 7.378906-38.953124 1.617188-9.984376-5.765625-8.734376-15.835938 2.796874-22.492188 11.527344-6.65625 28.96875-7.378906 38.953126-1.613281 9.984374 5.761719 8.734374 15.832031-2.796876 22.488281zm0 0" fill="#966030"/><path d="m313.175781 184.933594c-7.550781 4.359375-18.972656 4.832031-25.511719 1.054687-6.535156-3.773437-5.714843-10.367187 1.832032-14.726562 7.550781-4.359375 18.972656-4.832031 25.507812-1.054688 6.539063 3.773438 5.71875 10.367188-1.828125 14.726563zm0 0" fill="#56361b"/><path d="m258.230469 118.695312v39.140626c17.230469 23.101562 25.847656 1.773437 43.078125 24.871093 0-15.65625 0-23.484375 0-39.140625-17.230469-23.097656-25.84375-1.769531-43.078125-24.871094zm0 0" fill="#ededed"/><path d="m307.378906 142.714844c.25-.992188-.210937-1.976563-1.421875-2.675782-2.210937-1.273437-6.070312-1.113281-8.621093.359376-1.753907 1.011718-2.433594 2.375-1.972657 3.546874v44.351563c3.898438.460937 8.15625.128906 12.085938-1.003906v-44.582031zm0 0" fill="#734824"/><path d="m305.339844 145.019531c-2.554688 1.472657-6.414063 1.632813-8.625.355469-2.210938-1.277344-1.933594-3.503906.621094-4.980469 2.550781-1.472656 6.410156-1.632812 8.621093-.355469 2.210938 1.277344 1.933594 3.507813-.617187 4.980469zm0 0" fill="#966030"/><g fill="#3b2f25"><path d="m90.167969 403.003906c0 7.972656-4.847657 11.636719-10.828125 8.1875-5.976563-3.453125-10.824219-12.714844-10.824219-20.6875s4.84375-11.636718 10.824219-8.183594c5.980468 3.449219 10.828125 12.710938 10.828125 20.683594zm0 0"/><path d="m167.636719 448.09375c0 7.972656-4.847657 11.636719-10.828125 8.183594-5.980469-3.453125-10.828125-12.714844-10.828125-20.683594 0-7.976562 4.847656-11.640625 10.828125-8.1875 5.980468 3.453125 10.828125 12.714844 10.828125 20.6875zm0 0"/><path d="m275.417969 463.828125c0 7.972656-4.847657 11.636719-10.824219 8.183594-5.980469-3.449219-10.828125-12.710938-10.828125-20.683594s4.847656-11.636719 10.828125-8.1875c5.976562 3.453125 10.824219 12.714844 10.824219 20.6875zm0 0"/></g></svg>