<svg viewBox="-16 0 512 512.00096" xmlns="http://www.w3.org/2000/svg"><path d="m332.304688 468.621094-60.902344-42.84375c-8.957032-22.390625-23.882813-42.289063-40.789063-52.050782-27.402343-15.820312-49.617187.972657-49.617187 37.511719 0 36.539063 22.214844 78.984375 49.617187 94.808594 12.992188 7.5 24.808594 7.660156 33.652344 1.875zm0 0" fill="#23292e"/><path d="m460.058594 301.839844c0-15.847656-4.03125-31.429688-11.71875-45.289063l-9.203125-16.597656-251.085938-144.960937-167.125 96.945312c-12.949219 7.476562-20.925781 21.289062-20.925781 36.242188v79.46875c0 10.628906 5.667969 20.445312 14.875 25.761718l273.734375 158.039063c6.367187 3.675781 13.636719 2.65625 18.734375-1.28125l163.875-94.972657c5.601562-2.601562 9.765625-8.210937 9.765625-15.265624 0-27.417969-7.214844-54.347657-20.925781-78.089844zm0 0" fill="#2dad57"/><path d="m439.136719 239.957031-60.941407-130.085937c-14.8125-31.617188-38.964843-57.929688-69.203124-75.386719l-53.890626-31.113281c-9.128906-5.273438-20.011718-4.113282-27.746093 1.761718l-.148438-.164062-165.003906 95.71875.023437.027344c-4.417968 2.730468-8.050781 6.855468-10.125 12.125l-31.175781 79.097656 251.082031 144.964844zm0 0" fill="#ededed"/><path d="m347.882812 336.902344h-75.875l-8.992187 20.15625c-1.335937 2.996094-.191406 6.523437 2.652344 8.164062l25.285156 14.597656c-.007813-.023437-.011719-.050781-.019531-.074218l.039062.085937 44.582032-18.234375c7.882812-3.226562 14.113281-9.519531 17.257812-17.429687 1.386719-3.484375-1.179688-7.265625-4.929688-7.265625zm0 0" fill="#ededed"/><path d="m163.519531 371.570312-60.902343-42.847656c-8.957032-22.386718-23.878907-42.289062-40.789063-52.046875-27.402344-15.824219-49.617187.972657-49.617187 37.511719s22.214843 78.984375 49.617187 94.808594c12.992187 7.496094 24.808594 7.660156 33.652344 1.875zm0 0" fill="#23292e"/><path d="m87.972656 100.316406 53.890625 31.113282c30.238281 17.457031 54.390625 43.769531 69.207031 75.390624l60.9375 130.082032-251.082031-144.964844 31.175781-79.097656c5.617188-14.257813 22.601563-20.1875 35.871094-12.523438zm0 0" fill="#cecece"/><path d="m20.925781 191.9375c-12.949219 7.476562-20.925781 21.289062-20.925781 36.242188v79.46875c0 10.628906 5.667969 20.445312 14.875 25.761718l273.734375 158.039063c11.222656 6.480469 25.246094-1.617188 25.246094-14.574219 0-27.414062-7.214844-54.347656-20.921875-78.089844 0-15.847656-4.035156-31.429687-11.71875-45.289062l-9.207032-16.59375zm0 0" fill="#238342"/><path d="m280.234375 468.535156c0 36.539063-22.214844 53.332032-49.621094 37.511719-27.402343-15.824219-49.617187-58.269531-49.617187-94.808594 0-36.539062 22.214844-53.332031 49.617187-37.511719 27.40625 15.820313 49.621094 58.269532 49.621094 94.808594zm0 0" fill="#2e373d"/><path d="m255.011719 453.972656c0 17.964844-10.921875 26.222656-24.394531 18.441406-13.476563-7.777343-24.398438-28.648437-24.398438-46.613281 0-17.964843 10.921875-26.222656 24.398438-18.441406 13.472656 7.777344 24.394531 28.648437 24.394531 46.613281zm0 0" fill="#cecece"/><path d="m243.847656 447.527344c0 9.742187-5.925781 14.21875-13.234375 10-7.308593-4.21875-13.230469-15.535156-13.230469-25.28125 0-9.742188 5.921876-14.222656 13.230469-10.003906 7.308594 4.21875 13.234375 15.539062 13.234375 25.285156zm0 0" fill="#627681"/><path d="m111.449219 371.484375c0 36.535156-22.214844 53.332031-49.621094 37.511719-27.402344-15.824219-49.617187-58.269532-49.617187-94.808594s22.214843-53.335938 49.617187-37.511719c27.40625 15.820313 49.621094 58.269531 49.621094 94.808594zm0 0" fill="#2e373d"/><path d="m86.226562 356.917969c0 17.964843-10.921874 26.222656-24.394531 18.445312-13.476562-7.78125-24.398437-28.648437-24.398437-46.613281s10.921875-26.222656 24.398437-18.445312c13.472657 7.78125 24.394531 28.648437 24.394531 46.613281zm0 0" fill="#cecece"/><path d="m75.0625 350.472656c0 9.746094-5.925781 14.222656-13.234375 10.003906s-13.230469-15.539062-13.230469-25.28125c0-9.746093 5.921875-14.222656 13.230469-10.003906s13.234375 15.539063 13.234375 25.28125zm0 0" fill="#627681"/><path d="m271.789062 312.867188 151.5625-87.503907-57.746093-120.734375-151.226563 87.308594zm0 0" fill="#304e75"/><path d="m236 306.589844-40.078125-85.003906c-11.027344-23.390626-28.9375-42.851563-51.332031-55.785157l-45.035156-26c-8.1875-4.726562-18.664063-1.078125-22.144532 7.714844l-21.75 54.953125zm0 0" fill="#243b58"/><path d="m285.171875 151.066406 121.789063 70.3125-40.078126-84.226562c-4.132812-8.765625-9.230468-16.980469-15.171874-24.503906zm0 0" fill="#59718b"/><path d="m319.777344 381.816406 112.710937-64.847656c3.519531-2.023438 7.992188-.027344 8.835938 3.945312 1.710937 8.070313-1.96875 16.324219-9.109375 20.445313l-92.261719 53.265625c-7.214844 4.167969-16.382813 2.566406-21.757813-3.800781-2.394531-2.839844-1.640624-7.15625 1.582032-9.007813zm0 0" fill="#23292e"/><path d="m290.953125 379.820312c-1.90625-9.179687-5.15625-18.0625-9.738281-26.324218l-9.207032-16.59375-8.988281 20.15625c-1.339843 2.996094-.195312 6.523437 2.648438 8.164062zm0 0" fill="#ef9910"/><path d="m433.390625 305.535156 25.007813-21.226562c-1.855469-9.691406-5.234376-19.066406-10.054688-27.757813l-9.207031-16.597656-26.71875 60.382813c-1.160157 2.625-.117188 5.703124 2.398437 7.082031 5.984375 3.28125 13.371094 2.535156 18.574219-1.882813zm0 0" fill="#ededed"/></svg>