<svg viewBox="0 -39 512 512" xmlns="http://www.w3.org/2000/svg"><path d="m345.542969 197.863281-196.941407-113.707031c-13.90625-8.027344-31.039062-8.027344-44.945312 0l-95.640625 55.21875c-5.34375 3.082031-8.015625 8.484375-8.015625 13.886719v93.757812c0 5.402344 2.671875 10.800781 8.015625 13.886719l123.84375 71.5c130.695313 75.5 208.324219 96.867188 339.523437 102.21875l40.617188-70.308594c-39.914062-69.132812-97.324219-126.539062-166.457031-166.453125zm0 0" fill="#2e373d"/><path d="m512 364.316406c-39.914062-69.132812-97.324219-126.539062-166.457031-166.453125l-196.941407-113.707031c-13.90625-8.027344-31.039062-8.027344-44.945312 0l-95.640625 55.21875c-5.34375 3.085938-8.015625 8.488281-8.015625 13.890625v24.570313c0 7.695312 5.78125 11.714843 8.015625 13.003906l123.84375 71.5c113.082031 65.289062 237.976563 107.378906 367.398437 124.035156zm0 0" fill="#d7d7d7"/><path d="m126.128906 86.257812c6.457032 0 12.820313 1.707032 18.410156 4.933594l196.941407 113.707032c63.023437 36.382812 116.304687 87.789062 154.941406 149.304687-127.59375-16.890625-248.792969-58.097656-360.5-122.589844l-123.84375-71.5c-3.570313-2.0625-3.953125-5.480469-3.953125-6.851562 0-1.375.382812-4.789063 3.953125-6.851563l95.640625-55.21875c5.589844-3.226562 11.957031-4.933594 18.410156-4.933594" fill="#ededed"/><path d="m369.835938 141.535156-101.304688-58.628906-40.738281 23.523438-81.355469-46.972657-102.648438 57.992188v46.925781l224.753907 129.445312 101.292969-57.683593zm0 0" fill="#cecece"/><path d="m166.988281 141.535156 101.554688 58.773438 101.292969-58.773438-101.304688-58.628906zm0 0" fill="#ededed"/><path d="m268.542969 200.308594v93.511718l101.292969-57.683593v-94.601563zm0 0" fill="#d7d7d7"/><path d="m166.988281 141.535156 60.804688-35.105468-81.355469-46.972657-102.648438 57.992188 101.097657 54.984375zm0 0" fill="#ededed"/><path d="m185.15625 20.230469c-.511719-5.285157-3.996094-10.273438-10.582031-14.074219-15.792969-9.117188-43.371094-7.972656-61.601563 2.550781-10.628906 6.136719-15.722656 14.105469-15.003906 21.488281l-.078125.011719v80.242188h.027344c.085937 5.710937 3.566406 11.152343 10.628906 15.230469 15.789063 9.117187 43.371094 7.972656 61.601563-2.554688 9.925781-5.730469 14.996093-13.058594 15.042968-20.019531h.039063v-82.882813zm0 0" fill="#cecece"/><path d="m185.15625 20.230469c-.511719-5.285157-3.996094-10.273438-10.582031-14.074219-15.792969-9.117188-43.371094-7.972656-61.601563 2.550781-10.628906 6.136719-15.722656 14.105469-15.003906 21.488281l-.078125.011719v27.109375c.007813.066406.027344.148438.03125.203125.378906 5.429688 3.878906 10.566407 10.625 14.460938 15.789063 9.117187 43.371094 7.972656 61.601563-2.550781 9.441406-5.453126 14.527343-12.351563 15.039062-19.003907.003906-.066406.03125-.164062.042969-.242187v-29.960938zm0 0" fill="#171c1f"/><path d="m170.148438 41.71875c-18.230469 10.527344-45.808594 11.671875-61.597657 2.554688-15.789062-9.117188-13.8125-25.039063 4.421875-35.566407 18.230469-10.523437 45.8125-11.667969 61.601563-2.554687 15.789062 9.117187 13.808593 25.042968-4.425781 35.566406zm0 0" fill="#23292e"/><path d="m160.8125 36.328125c-12.277344 7.089844-30.847656 7.859375-41.480469 1.71875-10.632812-6.136719-9.296875-16.859375 2.976563-23.945313 12.277344-7.089843 30.847656-7.859374 41.480468-1.71875 10.632813 6.136719 9.296876 16.859376-2.976562 23.945313zm0 0" fill="#171c1f"/><path d="m322.957031 45.445312c-.511719-5.285156-3.996093-10.273437-10.582031-14.078124-15.789062-9.113282-43.367188-7.972657-61.601562 2.554687-10.625 6.136719-15.71875 14.105469-15.003907 21.488281l-.078125.011719v80.242187h.027344c.089844 5.707032 3.566406 11.152344 10.632812 15.230469 15.789063 9.117188 43.367188 7.972657 61.601563-2.554687 9.925781-5.730469 14.992187-13.058594 15.039063-20.019532l.042968-.003906v-82.878906zm0 0" fill="#cecece"/><path d="m322.957031 45.445312c-.511719-5.285156-3.996093-10.273437-10.582031-14.078124-15.789062-9.113282-43.367188-7.972657-61.601562 2.554687-10.625 6.136719-15.71875 14.105469-15.003907 21.488281l-.078125.011719v27.109375c.007813.066406.03125.148438.035156.203125.375 5.429687 3.878907 10.566406 10.625 14.460937 15.789063 9.117188 43.371094 7.972657 61.601563-2.550781 9.441406-5.453125 14.523437-12.351562 15.039063-19.003906.003906-.066406.03125-.164063.042968-.238281v-29.964844zm0 0" fill="#171c1f"/><path d="m307.953125 66.933594c-18.234375 10.527344-45.8125 11.671875-61.601563 2.554687-15.789062-9.117187-13.808593-25.039062 4.421876-35.566406 18.234374-10.527344 45.8125-11.667969 61.601562-2.554687 15.789062 9.117187 13.808594 25.039062-4.421875 35.566406zm0 0" fill="#23292e"/><path d="m298.613281 61.542969c-12.277343 7.085937-30.847656 7.855469-41.480469 1.71875-10.628906-6.140625-9.296874-16.859375 2.980469-23.949219 12.273438-7.085938 30.847657-7.855469 41.476563-1.71875 10.632812 6.140625 9.300781 16.859375-2.976563 23.949219zm0 0" fill="#171c1f"/><path d="m408.277344 268.597656-37.757813-21.796875-57.027343 32.925781v14.15625l37.058593 21.394532h57.726563zm0 0" fill="#cecece"/><path d="m313.492188 279.726562 57.027343-32.925781 37.757813 21.796875v32.523438h-57.726563zm0 0" fill="#d7d7d7"/><path d="m259.5625 280.921875-206.792969-119.390625v-32.695312l206.792969 119.394531zm0 0" fill="#243b58"/><path d="m128.75 301.003906-108.476562-62.628906v-17.148438l108.476562 62.628907zm0 0" fill="#cecece"/><path d="m277.503906 238.414062 81.246094-47.160156v-32.691406l-81.246094 47.15625zm0 0" fill="#304e75"/><path d="m277.503906 280.921875 81.246094-47.15625v-32.695313l-81.246094 47.160157zm0 0" fill="#304e75"/><path d="m259.5625 238.414062-103.394531-59.976562 15.113281-23.460938 88.28125 50.675782zm0 0" fill="#243b58"/></svg>