<svg viewBox="0 -40 512 512" xmlns="http://www.w3.org/2000/svg"><path d="m8.015625 257.871094 123.84375 71.5c130.695313 75.5 208.324219 96.867187 339.523437 102.21875-39.914062-69.132813-56.707031-103.089844-125.839843-143.003906l-196.941407-113.707032c-13.90625-8.027344-31.039062-8.027344-44.945312 0l-95.640625 55.21875c-10.6875 6.171875-10.6875 21.601563 0 27.773438zm0 0" fill="#82a5b9"/><path d="m0 150.222656v93.761719l471.382812 187.605469 40.617188-70.308594zm0 0" fill="#82a5b9"/><path d="m512 361.28125-512-211.058594v24.574219c0 7.699219 5.78125 11.71875 8.015625 13.007813l123.84375 71.5c113.082031 65.289062 237.976563 107.378906 367.398437 124.035156zm0 0" fill="#d7d7d7"/><path d="m8.015625 164.109375 123.84375 71.5c116.792969 67.429687 246.167969 110.203125 380.140625 125.671875-39.914062-69.132812-97.324219-126.542969-166.457031-166.457031l-196.941407-113.703125c-13.90625-8.03125-31.039062-8.03125-44.945312 0l-95.640625 55.214844c-10.6875 6.171874-10.6875 21.601562 0 27.773437zm0 0" fill="#ededed"/><path d="m126.128906 83.222656c6.457032 0 12.820313 1.707032 18.410156 4.933594l196.941407 113.703125c63.023437 36.386719 116.304687 87.792969 154.941406 149.304687-127.59375-16.890624-248.792969-58.09375-360.5-122.589843l-123.84375-71.5c-3.570313-2.058594-3.953125-5.476563-3.953125-6.851563 0-1.371094.382812-4.789062 3.953125-6.851562l95.640625-55.214844c5.589844-3.226562 11.957031-4.933594 18.410156-4.933594" fill="#966030"/><path d="m375.515625 233.113281-245.375-141.679687-102.648437 57.988281 235.925781 136.046875c34.699219 19.996094 77.429687 19.96875 112.105469-.066406 20.121093-11.625 20.117187-40.667969-.007813-52.289063zm0 0" fill="#82a5b9"/><path d="m64.097656 247.675781c0 7.652344 4.65625 16.546875 10.394532 19.863281 5.742187 3.3125 10.398437-.203124 10.398437-7.859374s-4.65625-16.550782-10.398437-19.863282c-5.738282-3.316406-10.394532.203125-10.394532 7.859375zm0 0" fill="#243b58"/><path d="m134.71875 289.390625c0 7.65625 4.652344 16.550781 10.394531 19.863281 5.742188 3.316406 10.398438-.203125 10.398438-7.859375 0-7.652343-4.65625-16.546875-10.398438-19.863281-5.738281-3.3125-10.394531.207031-10.394531 7.859375zm0 0" fill="#243b58"/><path d="m205.339844 331.109375c0 7.65625 4.65625 16.546875 10.398437 19.863281 5.742188 3.3125 10.394531-.203125 10.394531-7.859375s-4.652343-16.546875-10.394531-19.863281c-5.742187-3.316406-10.398437.203125-10.398437 7.859375zm0 0" fill="#243b58"/><path d="m27.492188 103.605469v45.816406l363.121093 113.550781v-49.515625zm0 0" fill="#82a5b9"/><path d="m375.515625 187.398438-245.375-141.683594-102.648437 57.992187 235.925781 136.042969c34.699219 19.996094 77.429687 19.972656 112.105469-.0625 20.121093-11.628906 20.117187-40.671875-.007813-52.289062zm0 0" fill="#966030"/><path d="m130.085938 56.839844 240.601562 138.921875c6.425781 3.710937 10.261719 10.355469 10.265625 17.777343 0 7.421876-3.835937 14.070313-10.261719 17.78125-15.566406 8.996094-33.296875 13.75-51.277344 13.75-17.9375 0-35.632812-4.730468-51.171874-13.6875l-221.265626-127.589843zm.050781-11.125-102.644531 57.992187 235.925781 136.042969c17.328125 9.984375 36.667969 14.980469 55.996093 14.980469 19.378907 0 38.75-5.015625 56.109376-15.046875 20.121093-11.625 20.117187-40.667969-.007813-52.285156zm0 0" fill="#ededed"/><path d="m310.546875 150.222656-180.40625-104.507812-102.648437 57.992187 170.957031 98.867188c34.699219 20 77.429687 19.972656 112.105469-.0625 20.121093-11.625 20.113281-40.667969-.007813-52.289063zm0 0" fill="#82a5b9"/><path d="m27.492188 57.890625v45.816406l298.148437 76.375v-49.515625zm0 0" fill="#82a5b9"/><path d="m310.546875 104.507812-180.40625-104.507812-102.648437 57.992188 170.957031 98.867187c34.699219 19.996094 77.429687 19.972656 112.105469-.0625 20.121093-11.628906 20.113281-40.671875-.007813-52.289063zm0 0" fill="#966030"/><path d="m130.078125 11.128906 175.636719 101.742188c6.429687 3.710937 10.265625 10.355468 10.265625 17.777344.003906 7.421874-3.832031 14.070312-10.257813 17.78125-15.566406 8.996093-33.300781 13.75-51.277344 13.75-17.9375 0-35.632812-4.734376-51.164062-13.683594l-156.328125-90.40625zm.058594-11.128906-102.644531 57.992188 170.957031 98.867187c17.328125 9.988281 36.664062 14.980469 55.996093 14.980469 19.378907 0 38.75-5.015625 56.109376-15.042969 20.121093-11.628906 20.117187-40.671875-.007813-52.289063zm0 0" fill="#ededed"/><path d="m129.59375 66.671875v22.570313l-55.101562-31.867188v-22.46875zm0 0" fill="#82a5b9"/><path d="m129.59375 66.671875v22.570313l49.769531-28.953126v-22.472656zm0 0" fill="#cecece"/><path d="m192.964844 120.429688 46.277344-26.71875 49.507812 29.378906-45.460938 26.351562zm0 0" fill="#2eb3bd"/><path d="m74.492188 34.90625 50.671874-29.253906 54.199219 32.164062-49.769531 28.855469zm0 0" fill="#ededed"/><g fill="#243b58"><path d="m103.773438 140.671875 21.109374 12.1875v-28.148437l-21.109374-12.191407zm0 0"/><path d="m72.984375 122.863281 21.113281 12.1875v-28.148437l-21.113281-12.191406zm0 0"/><path d="m42.199219 105.054688 21.109375 12.1875v-28.148438l-21.109375-12.191406zm0 0"/><path d="m165.347656 176.285156 21.113282 12.191406v-28.152343l-21.113282-12.1875zm0 0"/><path d="m134.558594 158.480469 21.113281 12.1875v-28.148438l-21.113281-12.191406zm0 0"/><path d="m103.773438 188.0625 21.109374 12.191406v-28.152344l-21.109374-12.1875zm0 0"/><path d="m72.984375 170.253906 21.113281 12.191406v-28.148437l-21.113281-12.191406zm0 0"/><path d="m42.199219 152.445312 21.109375 12.191407v-28.152344l-21.109375-12.1875zm0 0"/><path d="m165.347656 223.679688 21.113282 12.1875v-28.148438l-21.113282-12.1875zm0 0"/><path d="m134.558594 205.871094 21.113281 12.191406v-28.152344l-21.113281-12.1875zm0 0"/><path d="m226.921875 259.296875 21.109375 12.1875v-28.148437l-21.109375-12.1875zm0 0"/><path d="m196.132812 241.488281 21.113282 12.191407v-28.152344l-21.113282-12.1875zm0 0"/></g></svg>