<svg viewBox="0 -76 512.00013 512" xmlns="http://www.w3.org/2000/svg"><path d="m491.550781 293.289062c-36.664062-74.085937-94.421875-135.667968-166.007812-176.996093l-131.996094-76.210938c-16.449219-9.496093-36.710937-9.496093-53.15625 0l-128.03125 73.917969c-8.238281 4.757812-12.359375 13.082031-12.359375 21.40625 0 49.917969 26.632812 96.046875 69.863281 121.007812l74.769531 43.167969c111.574219 64.417969 245.628907 77.199219 367.367188 35.027344zm0 0" fill="#82a5b9"/><path d="m12.359375 114 128.03125-73.917969c16.445313-9.496093 36.707031-9.496093 53.15625 0l131.996094 76.210938c71.585937 41.328125 129.34375 102.910156 166.007812 176.996093l20.449219 41.320313-90.742188-14.96875c-117.445312-19.371094-230.429687-59.789063-333.515624-119.304687l-75.382813-43.523438c-16.480469-9.515625-16.480469-33.300781 0-42.8125zm0 0" fill="#cecece"/><path d="m166.96875 52.128906c5.957031 0 11.832031 1.574219 16.992188 4.550782l132 76.210937c68.53125 39.570313 123.308593 97.972656 158.410156 168.898437l3.871094 7.824219-53.867188-8.886719c-115.570312-19.0625-225.605469-58.425781-327.046875-116.992187l-75.386719-43.523437c-2.414062-1.394532-2.773437-3.609376-2.773437-4.804688 0-1.199219.359375-3.414062 2.773437-4.808594l128.03125-73.917968c5.160156-2.976563 11.035156-4.550782 16.996094-4.550782" fill="#ededed"/><path d="m287.945312 140.542969c-27.972656 16.148437-60.828124 21.6875-92.550781 15.59375-5.53125-1.0625-17.410156-6.800781-17.410156-6.800781l-15.492187 27.910156 40.339843 23.210937c4.882813 2.808594 10.199219 4.785157 15.734375 5.847657 31.722656 6.09375 64.578125.554687 92.550782-15.59375 9.183593-5.304688 15.335937-13.816407 17.910156-23.304688l.964844-4.589844-21.066407-78.292968-.019531.007812c6.207031 26.453125-6.574219 47.707031-20.960938 56.011719zm0 0" fill="#304e75"/><path d="m329.992188 162.816406c-1.648438 11.292969-8.230469 21.75-18.875 27.894532-27.972657 16.152343-60.828126 21.6875-92.550782 15.597656-5.535156-1.066406-10.851562-3.039063-15.734375-5.847656l-40.339843-23.214844 15.492187-27.910156s11.878906 5.738281 17.410156 6.800781c31.722657 6.09375 64.578125.554687 92.550781-15.59375 16.144532-9.320313 30.289063-34.9375 17.820313-65.929688.0625.320313-1.925781-5.25-3.605469-8.1875l-115.6875-66.425781-115.265625 66.550781-.003906-.003906v20.421875l31.75 18.605469-31.75 18.332031v22.910156l126.691406 72.902344c4.882813 2.808594 10.203125 4.785156 15.734375 5.847656 31.722656 6.089844 64.578125.554688 92.550782-15.597656 14.101562-8.140625 26.035156-31.953125 23.8125-47.152344zm0 0" fill="#cecece"/><path d="m98.996094 124.292969 17.699218-10.664063 44.269532 25.941406-10.953125 14.835938zm0 0" fill="#a3a3a3"/><path d="m71.203125 66.550781 115.269531-66.550781 115.6875 66.421875c10.554688 18.460937 4.199219 41.980469-14.214844 52.609375-27.972656 16.152344-60.828124 21.691406-92.550781 15.597656l-8.355469-1.605468zm0 0" fill="#ededed"/><path d="m110.605469 69.539062 80.605469-46.535156 80.898437 46.445313c7.382813 12.910156 2.9375 29.355469-9.9375 36.789062-19.5625 11.296875-42.539063 15.167969-64.722656 10.90625l-5.839844-1.121093zm0 0" fill="#cecece"/><path d="m191.210938 43.609375-62.703126 36.203125 63.097657 36.210938 5.84375 1.121093c22.183593 4.261719 45.15625.390625 64.71875-10.90625 5.363281-3.09375 9.238281-7.765625 11.433593-13.085937-.4375-1.046875-.917968-2.085938-1.496093-3.09375zm0 0" fill="#a3a3a3"/><path d="m71.203125 123.90625 31.792969-18.359375 13.699218 8.082031-17.699218 10.664063 51.015625 30.113281-7.570313 10.257812zm0 0" fill="#ededed"/><path d="m396.988281 223.054688-38.335937-22.136719-57.90625 33.433593v14.375l37.628906 21.726563h58.613281zm0 0" fill="#a3a3a3"/><path d="m300.746094 234.351562 57.90625-33.433593 38.335937 22.136719v33.019531h-58.613281zm0 0" fill="#cecece"/></svg>