<svg viewBox="0 -75 512 512" xmlns="http://www.w3.org/2000/svg"><path d="m486.953125 256.4375c-68.621094-118.902344-177.925781-208.976562-307.753906-253.605469-14.375-4.9375-30.1875-3.367187-43.304688 4.308594l-121.242187 70.925781c-10.125 5.921875-15.25 16.734375-14.589844 27.421875l-.0625-.027343v37.316406c0 19.21875 5.957031 37.960937 17.054688 53.652344 63.664062 90.019531 254.148437 172.664062 374.65625 164.628906 65.648437-4.375 120.289062-61.222656 120.289062-61.222656zm0 0" fill="#82a5b9"/><path d="m14.652344 78.066406 121.242187-70.925781c13.117188-7.675781 28.929688-9.246094 43.304688-4.308594 129.824219 44.628907 239.132812 134.703125 307.753906 253.605469l25.046875 43.398438h-113.074219c-149.796875 0-292.386719-64.332032-391.515625-176.644532-12.328125-13.96875-8.839844-35.714844 7.242188-45.125zm0 0" fill="#ededed"/><path d="m282.289062 80.28125 19.199219 10.128906c.144531-1.144531.214844-2.296875.195313-3.460937zm0 0" fill="#304e75"/><path d="m374.929688 158.792969-18.195313-20.867188c3.746094 11.121094 5.863281 28.824219-5.789063 49.503907-11.886718 21.101562-43.851562 31.332031-61.84375 35.550781-16.277343 3.820312-33.90625 5.808593-49.59375 5.808593-5.019531 0-9.824218-.210937-14.339843-.625l39.578125 14.726563c32.132812 11.953125 67.925781 8.925781 97.59375-8.253906 27.113281-15.699219 33.175781-52.230469 12.589844-75.84375zm0 0" fill="#82a5b9"/><path d="m253.570312 75.042969 2.429688 21.273437 28.011719 16.753906c-1.230469.824219 8.304687-6.136718 8.304687-6.136718 2.75-2.222656 4.945313-4.96875 6.523438-8.011719l-46.035156-24.28125zm0 0" fill="#627681"/><path d="m180.28125 139.277344 3.800781.15625h.003907c31.800781 1.332031 60.535156-5.25 90.417968-20.722656 3.203125-1.65625 6.378906-3.546876 9.507813-5.640626l-28.011719-16.753906zm0 0" fill="#808e9a"/><path d="m181.488281 36.59375-5.066406-2.726562-123.148437 71.101562 19.308593 16.320312 111.316407-63.601562zm0 0" fill="#525e65"/><path d="m133.820312 11c-.738281-.394531-1.304687-.980469-1.699218-1.652344l-113.457032 66.371094 34.609376 29.25 123.148437-71.101562zm0 0" fill="#808e9a"/><path d="m216.632812 76.585938 19.027344-10.988282-54.171875-29.003906 2.410157 21.09375zm0 0" fill="#627681"/><path d="m183.898438 57.6875-111.316407 63.601562 16.851563 14.242188.417968.019531 94.046876-54.300781 12.328124 7.117188 20.402344-11.78125zm0 0" fill="#808e9a"/><path d="m183.898438 81.25v14.230469l12.328124-7.113281zm0 0" fill="#627681"/><path d="m112.859375 136.496094 71.039063-41.015625v-14.230469l-94.046876 54.300781zm0 0" fill="#525e65"/><path d="m256 96.316406-2.429688-21.273437-4.945312-2.605469-112.609375 65.015625 44.265625 1.824219zm0 0" fill="#525e65"/><path d="m136.019531 137.453125 112.621094-65.007813-12.980469-6.847656-122.800781 70.898438zm0 0" fill="#808e9a"/><path d="m180.878906 148.074219-81.292968-3.347657c52.050781 46.59375 91.5625 64.554688 108.101562 70.628907zm0 0" fill="#304e75"/><path d="m350.648438 125.527344c-.085938-.117188-.179688-.230469-.277344-.339844l-41.441406-45.597656c-.003907-.003906-.007813-.003906-.011719-.007813-.015625-.015625-.027344-.03125-.042969-.050781-1.265625-1.367188-77.054688-25.871094-77.054688-25.871094l-93.851562-50.382812c-2.132812-1.144532-4.789062-.34375-5.9375 1.789062-1.144531 2.132813-.34375 4.792969 1.789062 5.9375l94.164063 50.550782c.007813 0 .011719.003906.019531.007812.003906 0 .007813.003906.011719.003906l70.824219 37.359375c-1.578125 3.042969-3.773438 5.785157-6.523438 8.011719l-.300781.242188c-5.648437 4.5625-11.539063 8.441406-17.511719 11.535156-29.886718 15.46875-58.617187 22.054687-90.417968 20.722656-.003907 0-.003907 0-.007813 0l-94.644531-3.902344-71.953125-60.8125c-1.847657-1.5625-4.617188-1.332031-6.175781.519532-1.5625 1.847656-1.332032 4.613281.515624 6.175781l73.019532 61.714843c75.570312 70.492188 127.207031 83.003907 129.371094 83.503907.023437.003906.046874.007812.074218.011719.019532.003906.039063.011718.058594.015624 7.253906 1.429688 15.867188 2.128907 25.164062 2.128907 15.6875 0 33.3125-1.988281 49.59375-5.808594 17.992188-4.21875 49.957032-14.449219 61.84375-35.550781 19.460938-34.542969.519532-60.808594-.296874-61.90625zm-68.359376-45.246094 19.394532 6.667969c.019531 1.164062-.050782 2.316406-.195313 3.457031zm-182.703124 64.445312 81.292968 3.347657 26.808594 67.28125c-16.539062-6.074219-56.046875-24.035157-108.101562-70.628907zm0 0" fill="#cecece"/><path d="m387.199219 228.972656c34.464843 11.664063 70.148437 30.820313 98.675781 53.429688-34.480469-11.628906-70.125-30.851563-98.675781-53.429688zm0 0" fill="#525e65"/><path d="m278.535156 126.496094c-33.8125 17.910156-87.5625 21.859375-88.109375 21.855468l27.941407 70.132813c37.992187 6.40625 108.765624-6.648437 124.941406-35.355469 15.996094-28.394531 1.769531-50.253906.398437-52.238281l-33.863281-37.257813c-.375 1.972657-2.34375 17.523438-31.308594 32.863282zm0 0" fill="#304e75"/></svg>