<svg viewBox="0 -29 512 511" xmlns="http://www.w3.org/2000/svg"><path d="m512 372.589844-98.5625-94.824219 10.261719-17.710937v-20.015626l-193.433594-112.445312h-70.640625l-52.300781-30.980469-107.324219 61.960938v20.015625l21 12.421875 14.132812 89.835937 141.25 81.550782c81.6875 47.160156 171.621094 78.304687 264.976563 91.761718l25.691406-44.496094 9.628907 3.335938 35.320312-20.394531zm0 0" fill="#2e373d"/><path d="m413.4375 277.765625 10.261719-17.710937v-20.015626l-17.710938 30.558594zm0 0" fill="#525e65"/><path d="m512 372.589844-35.320312 20.390625-176.644532-61.136719-52.941406 10.15625-194.113281-112.050781v20.011719l194.113281 112.054687 52.941406-10.15625 176.644532 61.136719 35.320312-20.390625zm0 0" fill="#525e65"/><path d="m52.980469 189.164062-52.980469-30.589843v20.015625l52.980469 31.34375zm0 0" fill="#525e65"/><path d="m0 158.574219 107.324219-61.964844 52.300781 30.984375h70.640625l193.433594 112.445312-17.710938 30.5625 106.011719 101.988282-35.320312 20.390625-176.644532-61.136719-52.941406 10.15625-194.113281-112.050781v-40.785157zm0 0" fill="#627681"/><path d="m189.382812 72.828125-34.492187 19.789063v39.398437l68.792969 39.457031 34.566406-19.746094v-39.320312zm0 0" fill="#525e65"/><path d="m154.890625 118.898438v13.117187l68.792969 39.457031 34.566406-19.746094v-13.03125l-34.566406 19.902344zm0 0" fill="#2e373d"/><path d="m154.890625 92.613281v13.117188l68.792969 39.453125 34.566406-19.746094v-13.03125l-34.566406 19.90625zm0 0" fill="#2e373d"/><path d="m154.890625 92.613281 34.492187-19.785156 68.867188 39.578125-34.566406 19.90625zm0 0" fill="#627681"/><path d="m283.335938 70.820312c.164062-.984374-.332032-1.949218-1.539063-2.644531-2.332031-1.347656-6.40625-1.179687-9.097656.375-1.734375 1.003907-2.46875 2.335938-2.148438 3.519531l-4.421875 104.972657c.140625 1.300781.964844 2.53125 2.585938 3.46875 3.925781 2.265625 10.78125 1.984375 15.3125-.632813 2.496094-1.441406 3.71875-3.289062 3.699218-5.039062l.042969-.003906zm0 0" fill="#2e373d"/><path d="m281.144531 73.429688c-2.691406 1.554687-6.765625 1.722656-9.097656.375-2.332031-1.34375-2.039063-3.699219.652344-5.25 2.691406-1.554688 6.765625-1.726563 9.097656-.378907 2.332031 1.347657 2.042969 3.699219-.652344 5.253907zm0 0" fill="#627681"/><path d="m207.128906 46.507812c-1.683594-3.976562-5.765625-6.371093-11.808594-6.199218-11.832031.335937-26.691406 10.359375-33.1875 22.386718-4.074218 7.542969-3.890624 14.082032-.269531 17.828126 2.105469 2.433593 10.953125 7.804687 19.742188 8.433593 1.453125.101563 2.84375.109375 4.179687.03125l-.285156 6.757813c-.015625.09375-.011719.191406-.011719.285156l-.007812.175781.015625-.003906c.066406.617187.453125 1.195313 1.222656 1.636719 1.851562 1.070312 5.085938.9375 7.226562-.296875 1.179688-.683594 1.753907-1.554688 1.746094-2.378907h.019532l-.363282-8.53125c6.847656-3.222656 11.046875-9.257812 12.515625-15.472656 2.089844-8.851562 2.667969-18.003906-.734375-24.652344zm0 0" fill="#2e373d"/><path d="m204.984375 61.480469c-6.496094 12.027343-21.355469 22.046875-33.1875 22.382812-11.835937.335938-16.160156-9.140625-9.664063-21.167969 6.496094-12.027343 21.355469-22.050781 33.1875-22.386718 11.835938-.335938 16.160157 9.144531 9.664063 21.171875zm0 0" fill="#627681"/><path d="m201.933594 61.566406c-5.570313 10.3125-18.316406 18.90625-28.464844 19.195313-10.148438.289062-13.855469-7.839844-8.285156-18.15625 5.570312-10.3125 18.3125-18.90625 28.460937-19.195313 10.148438-.285156 13.859375 7.839844 8.289063 18.15625zm0 0" fill="#525e65"/><path d="m197.246094 65.660156c-2.945313 5.457032-9.6875 10.003906-15.058594 10.15625-5.367188.152344-7.332031-4.148437-4.382812-9.605468 2.949218-5.457032 9.691406-10.003907 15.058593-10.15625 5.371094-.152344 7.332031 4.148437 4.382813 9.605468zm0 0" fill="#627681"/><path d="m188.910156 62.5625.007813-.007812-8.976563-10.90625c.351563-.664063.570313-1.410157.570313-2.210938 0-2.632812-2.132813-4.765625-4.765625-4.765625-2.628906 0-4.761719 2.132813-4.761719 4.765625 0 2.628906 2.132813 4.761719 4.761719 4.761719.148437 0 .289062-.03125.4375-.042969l7.421875 12.554688c.027343.058593.066406.109374.101562.160156l.058594.097656.007813-.007812c.265624.308593.695312.476562 1.277343.429687 1.40625-.117187 3.109375-1.410156 3.804688-2.882813.382812-.808593.371093-1.5.054687-1.945312zm0 0" fill="#2e373d"/><path d="m229.820312 4.054688c.164063-.984376-.332031-1.949219-1.539062-2.644532-2.332031-1.347656-6.402344-1.179687-9.097656.375-1.734375 1.003906-2.46875 2.335938-2.148438 3.519532l-4.453125 104.976562c.140625 1.300781.996094 2.527344 2.617188 3.464844 3.925781 2.265625 10.78125 1.984375 15.3125-.632813 2.496093-1.441406 3.71875-3.289062 3.703125-5.035156l.039062-.003906zm0 0" fill="#2e373d"/><path d="m227.628906 6.664062c-2.691406 1.554688-6.765625 1.722657-9.097656.375-2.332031-1.347656-2.042969-3.699218.652344-5.253906 2.691406-1.554687 6.765625-1.722656 9.097656-.375s2.039062 3.699219-.652344 5.253906zm0 0" fill="#627681"/><g fill="#cecece"><path d="m296.175781 322.957031c-.496093 0-.984375-.203125-1.335937-.605469l-186.316406-214.574218c-.640626-.734375-.5625-1.851563.175781-2.492188s1.851562-.558594 2.488281.175782l186.320312 214.574218c.636719.734375.558594 1.851563-.175781 2.492188-.335937.289062-.746093.429687-1.15625.429687zm0 0"/><path d="m247.609375 337.085938c-.503906 0-1-.210938-1.351563-.625l-177.113281-209.105469c-.632812-.746094-.539062-1.859375.203125-2.488281.746094-.628907 1.859375-.539063 2.492188.207031l177.113281 209.105469c.632813.746093.539063 1.859374-.203125 2.488281-.332031.28125-.738281.417969-1.140625.417969zm0 0"/><path d="m498.382812 367.992188c-.300781 0-.601562-.074219-.878906-.234376l-215.972656-124.691406c-.84375-.488281-1.132812-1.566406-.644531-2.410156.488281-.847656 1.566406-1.136719 2.410156-.648438l215.972656 124.691407c.84375.488281 1.132813 1.566406.644531 2.410156-.328124.566406-.921874.882813-1.53125.882813zm0 0"/><path d="m461.589844 382.414062c-.300782 0-.601563-.074218-.878906-.234374l-211.363282-122.03125c-.84375-.484376-1.132812-1.566407-.644531-2.410157.488281-.847656 1.566406-1.136719 2.410156-.648437l211.363281 122.03125c.84375.484375 1.132813 1.566406.644532 2.410156-.324219.566406-.921875.882812-1.53125.882812zm0 0"/><path d="m21.558594 167.105469c-.613282 0-1.207032-.316407-1.53125-.882813-.488282-.84375-.199219-1.925781.644531-2.410156l39.464844-22.785156c.84375-.488282 1.921875-.199219 2.410156.644531s.199219 1.925781-.648437 2.414063l-39.460938 22.785156c-.277344.160156-.582031.234375-.878906.234375zm0 0"/><path d="m38.941406 178.5c-.609375 0-1.203125-.316406-1.53125-.882812-.488281-.847657-.199218-1.925782.644532-2.414063l39.464843-22.785156c.84375-.488281 1.925781-.195313 2.410157.648437.488281.84375.199218 1.925782-.644532 2.410156l-39.464844 22.785157c-.277343.160156-.582031.238281-.878906.238281zm0 0"/><path d="m264.976562 211.289062c-.609374 0-1.203124-.316406-1.53125-.882812-.488281-.847656-.199218-1.925781.644532-2.414062l39.464844-22.785157c.847656-.488281 1.925781-.195312 2.410156.648438.488281.84375.199218 1.925781-.644532 2.410156l-39.464843 22.785156c-.277344.160157-.582031.238281-.878907.238281zm0 0"/><path d="m282.359375 222.679688c-.609375 0-1.203125-.316407-1.53125-.882813-.488281-.84375-.195313-1.925781.648437-2.414063l39.460938-22.78125c.847656-.488281 1.925781-.199218 2.414062.644532.488282.84375.195313 1.925781-.648437 2.414062l-39.460937 22.78125c-.277344.160156-.582032.238282-.882813.238282zm0 0"/><path d="m299.066406 231.910156c-.609375 0-1.203125-.316406-1.53125-.882812-.488281-.84375-.199218-1.925782.644532-2.410156l39.464843-22.785157c.84375-.488281 1.925781-.199219 2.410157.644531.488281.84375.199218 1.925782-.644532 2.414063l-39.464844 22.78125c-.277343.164063-.582031.238281-.878906.238281zm0 0"/><path d="m316.449219 243.300781c-.609375 0-1.203125-.3125-1.527344-.882812-.488281-.84375-.199219-1.921875.644531-2.410157l39.464844-22.785156c.847656-.488281 1.921875-.199218 2.410156.648438.488282.84375.199219 1.921875-.644531 2.410156l-39.464844 22.785156c-.277343.160156-.582031.234375-.882812.234375zm0 0"/><path d="m61.019531 226.269531c-.609375 0-1.203125-.316406-1.53125-.882812-.488281-.847657-.199219-1.925781.648438-2.414063l39.460937-22.785156c.847656-.488281 1.925782-.195312 2.414063.648438s.199219 1.925781-.648438 2.410156l-39.464843 22.785156c-.277344.160156-.582032.238281-.878907.238281zm0 0"/><path d="m78.402344 237.660156c-.609375 0-1.203125-.316406-1.53125-.882812-.484375-.84375-.195313-1.925782.648437-2.410156l39.464844-22.785157c.84375-.488281 1.921875-.199219 2.410156.644531.488281.847657.199219 1.925782-.644531 2.414063l-39.464844 22.78125c-.277344.164063-.582031.238281-.882812.238281zm0 0"/></g><path d="m266.625 325.644531c-.507812 0-1.011719-.214843-1.359375-.636719l-166.941406-200.664062c-.625-.75-.523438-1.863281.226562-2.488281s1.863281-.519531 2.488281.230469l166.941407 200.664062c.625.75.523437 1.863281-.226563 2.488281-.332031.273438-.730468.40625-1.128906.40625zm0 0" fill="#ffd613"/><path d="m471.414062 371.308594c-.296874 0-.601562-.078125-.882812-.238282l-197.398438-114.34375c-.847656-.488281-1.132812-1.566406-.644531-2.414062.488281-.84375 1.570313-1.128906 2.414063-.640625l197.402344 114.339844c.84375.492187 1.128906 1.570312.640624 2.414062-.328124.566407-.921874.882813-1.53125.882813zm0 0" fill="#ffd613"/></svg>