<svg viewBox="0 -54 511.99968 511" xmlns="http://www.w3.org/2000/svg"><path d="m299.152344 223.378906 24.007812-54.449218-34.34375-19.925782c-.988281-.65625-2.066406-1.121094-3.226562-1.382812l-37.550782-13.410156v.003906c-2.492187-1.265625-5.667968-1.058594-9.128906.941406-8 4.617188-14.480468 17.003906-14.480468 27.667969 0 6.234375 2.222656 10.476562 5.664062 12.019531l-.007812.019531 30.707031 25.902344c.4375.4375.898437.828125 1.386719 1.167969.476562.339844.976562.628906 1.5.871094zm0 0" fill="#cecece"/><path d="m330.304688 184.847656c0 14.28125-8.679688 30.867188-19.386719 37.046875-10.707031 6.183594-19.390625-.378906-19.390625-14.65625 0-14.277343 8.683594-30.863281 19.390625-37.046875s19.386719.378906 19.386719 14.65625zm0 0" fill="#fff"/><path d="m323.160156 188.976562c0 9.015626-5.480468 19.488282-12.242187 23.390626-6.761719 3.90625-12.242188-.238282-12.242188-9.253907s5.480469-19.488281 12.242188-23.394531c6.761719-3.902344 12.242187.242188 12.242187 9.257812zm0 0" fill="#2e373d"/><path d="m183.710938 82.996094 42.339843-48.621094c6.851563-7.875 4.859375-20.039062-4.148437-25.3125l-9.941406-5.824219-82.632813 47.710938zm0 0" fill="#cecece"/><path d="m395.972656 259.183594 74.613282-188.585938-41.488282-23.949218-117.199218 163.996093zm0 0" fill="#cecece"/><path d="m259.640625 291.695312 70.664063 40.855469c51.730468 29.863281 106.820312 53.484375 164.117187 70.363281 10.3125 3.035157 19.941406-6.449218 17.0625-16.800781-11.917969-42.851562-35.105469-81.726562-67.15625-112.5625-5.761719-5.546875-12.175781-10.371093-19.101563-14.367187l-261.714843-151.160156c-13.082031-7.550782-29.433594 1.890624-29.433594 16.992187 0 19.320313 5.03125 38.304687 14.597656 55.089844 26.433594 46.382812 64.730469 84.894531 110.964844 111.589843zm0 0" fill="#fff"/><path d="m511.480469 386.109375c-3.484375-12.53125-8.039063-24.664063-13.390625-36.410156-4.453125.402343-9.136719 1.550781-13.410156 4.054687-14.085938 8.242188-22.441407 23.941406-22.441407 23.941406l-148.03125-85.46875c-53.746093-31.03125-92.679687-82.457031-107.960937-142.605468 0 0 3.609375-4.652344 8.253906-12.148438l-50.988281-29.449218c-12.890625-7.445313-29.367188 1.621093-29.429688 16.507812-.085937 19.484375 4.949219 38.648438 14.59375 55.574219 26.433594 46.382812 64.730469 84.894531 110.964844 111.589843l70.667969 40.855469c51.695312 29.84375 106.75 53.453125 164.007812 70.332031 10.292969 3.03125 20.039063-6.433593 17.164063-16.773437zm0 0" fill="#e33400"/><path d="m219.355469 140.28125-21.957031-98.675781-69.683594-40.230469c-2.648438-1.527344-5.558594-.921875-7.511719.792969l-.007813-.003907-12.671874 8.839844c6.3125.761719 22.238281 25.046875 40.417968 54.019532l9.5 39.507812 34.863282 20.128906c8.46875 14.996094 13.941406 24.960938 13.941406 24.960938zm0 0" fill="#872e02"/><path d="m144.332031 113.875-15.003906-62.925781c-12.410156-7.164063-21.234375-19.21875-24.316406-33.214844-1.210938-5.511719 4.703125-9.839844 9.589843-7.019531l69.683594 40.234375 21.960938 98.671875zm0 0" fill="#e33400"/><path d="m470.585938 70.597656-46.15625-63.191406 4.667968 39.242188zm0 0" fill="#fff"/><path d="m183.710938 82.996094-93.941407 26.988281c-9.851562 2.832031-20.429687 1.582031-29.351562-3.46875l-13.804688-7.8125 82.714844-47.753906zm0 0" fill="#ededed"/><path d="m193.273438 284.769531 24.007812-54.449219-34.34375-19.929687c-.984375-.652344-2.066406-1.121094-3.226562-1.378906l-37.546876-13.414063-.003906.003906c-2.488281-1.261718-5.664062-1.054687-9.128906.945313-7.996094 4.617187-14.480469 17.003906-14.480469 27.664063 0 6.234374 2.226563 10.480468 5.664063 12.023437l-.003906.015625 30.703124 25.90625c.4375.4375.898438.824219 1.386719 1.167969.476563.335937.980469.628906 1.5.871093zm0 0" fill="#cecece"/><path d="m224.429688 246.238281c0 14.277344-8.683594 30.863281-19.390626 37.046875-10.707031 6.183594-19.386718-.378906-19.386718-14.65625 0-14.28125 8.679687-30.867187 19.386718-37.046875 10.707032-6.183593 19.390626.378907 19.390626 14.65625zm0 0" fill="#fff"/><path d="m217.28125 250.363281c0 9.015625-5.480469 19.488281-12.242188 23.394531-6.761718 3.902344-12.242187-.242187-12.242187-9.257812s5.480469-19.488281 12.242187-23.390625c6.761719-3.90625 12.242188.238281 12.242188 9.253906zm0 0" fill="#2e373d"/><path d="m471.503906 304.652344c-1.320312 4-3.933594 7.644531-8.074218 10.035156-17.269532 9.96875-38.535157 9.996094-55.832032.074219 0 26.421875 27.234375 44.761719 51.3125 33.875 1.582032-.714844 3.136719-1.503907 4.660156-2.375l14.765626-8.402344c3.832031-2.179687 6.933593-5.304687 9.078124-8.988281-4.816406-8.378906-10.144531-16.449219-15.910156-24.21875zm0 0" fill="#304e75"/><g fill="#243b58"><path d="m386.96875 333.394531-1.132812-.65625c-4.195313-2.417969-7.59375-8.914062-7.59375-14.503906v-9.25c0-5.59375 3.402343-8.160156 7.59375-5.742187l1.132812.65625c4.191406 2.421874 7.589844 8.914062 7.589844 14.503906v9.253906c0 5.589844-3.398438 8.160156-7.589844 5.738281zm0 0"/><path d="m353.304688 313.457031-1.132813-.652343c-4.191406-2.421876-7.589844-8.917969-7.589844-14.507813v-9.25c0-5.589844 3.398438-8.160156 7.589844-5.742187l1.132813.65625c4.191406 2.421874 7.589843 8.914062 7.589843 14.503906v9.253906c0 5.589844-3.398437 8.160156-7.589843 5.738281zm0 0"/><path d="m319.640625 293.863281-1.132813-.652343c-4.191406-2.421876-7.589843-8.914063-7.589843-14.503907v-9.253906c0-5.589844 3.398437-8.160156 7.589843-5.738281l1.132813.652344c4.195313 2.421874 7.589844 8.917968 7.589844 14.507812v9.25c0 5.589844-3.394531 8.160156-7.589844 5.738281zm0 0"/></g><path d="m311.898438 307.722656-256.9375 90.042969-54.960938-31.730469 159.960938-67.667968 67.863281-39.183594zm0 0" fill="#ededed"/><path d="m54.960938 397.765625-54.960938-63.460937v31.730468zm0 0" fill="#cecece"/></svg>