<svg viewBox="0 -58 512.00073 512" xmlns="http://www.w3.org/2000/svg"><path d="m455.304688 207.871094-54.8125-25.273438c-6.710938-3.097656-14.480469-2.898437-21.03125.53125-7.0625 3.699219-7.808594 13.515625-1.390626 18.242188l60.265626 44.363281.105468-.242187c2.300782 1.121093 5.207032.917968 8.378906-.914063 7.421876-4.285156 13.441407-15.78125 13.441407-25.679687 0-5.601563-1.933594-9.488282-4.957031-11.027344zm0 0" fill="#ededed"/><path d="m496.277344 118.585938-22.269532-6.539063c-5.222656-1.535156-10.835937-.980469-15.65625 1.546875-8.613281 4.511719-9.828124 16.351562-2.316406 22.523438l25.589844 21.011718.109375-.238281c2.296875 1.121094 5.207031.914063 8.378906-.917969 7.421875-4.285156 13.4375-15.78125 13.4375-25.675781 0-6.929687-2.957031-11.222656-7.273437-11.710937zm0 0" fill="#ededed"/><path d="m140.371094 324.71875-62.082032-28.625c-7.675781-3.539062-16.558593-3.3125-24.046874.609375-8.074219 4.230469-8.929688 15.457031-1.589844 20.859375l68.914062 50.730469.117188-.265625c2.628906 1.28125 5.960937 1.039062 9.585937-1.054688 8.488281-4.898437 15.367188-18.046875 15.367188-29.363281 0-6.773437-2.464844-11.351563-6.265625-12.890625zm0 0" fill="#cecece"/><path d="m205.601562 134.109375 38.683594-66.136719-14.082031-8.128906-78.167969 33.75zm0 0" fill="#cecece"/><path d="m411.621094 277.636719 81.46875-190.074219-20.753906-11.808594-136.152344 147.632813zm0 0" fill="#cecece"/><path d="m146.636719 337.609375c0 11.316406-6.878907 24.464844-15.367188 29.363281-8.488281 4.898438-15.367187-.300781-15.367187-11.617187 0-11.316407 6.878906-24.464844 15.367187-29.363281 8.488281-4.902344 15.367188.300781 15.367188 11.617187zm0 0" fill="#fff"/><path d="m140.972656 340.878906c0 7.144532-4.34375 15.449219-9.703125 18.542969s-9.703125-.191406-9.703125-7.335937c0-7.148438 4.34375-15.449219 9.703125-18.542969s9.703125.191406 9.703125 7.335937zm0 0" fill="#2e373d"/><path d="m273.597656 319.707031-62.078125-28.625c-7.675781-3.539062-16.5625-3.316406-24.050781.605469-8.074219 4.230469-8.929688 15.457031-1.585938 20.859375l68.910157 50.734375.121093-.269531c2.625 1.285156 5.957032 1.039062 9.582032-1.054688 8.488281-4.898437 15.367187-18.042969 15.367187-29.363281 0-6.769531-2.464843-11.351562-6.265625-12.886719zm0 0" fill="#cecece"/><path d="m279.863281 332.597656c0 11.316406-6.878906 24.460938-15.367187 29.363282-8.488282 4.898437-15.367188-.300782-15.367188-11.621094 0-11.316406 6.878906-24.460938 15.367188-29.363282 8.488281-4.898437 15.367187.304688 15.367187 11.621094zm0 0" fill="#fff"/><path d="m274.199219 335.867188c0 7.144531-4.34375 15.445312-9.703125 18.539062s-9.703125-.1875-9.703125-7.335938c0-7.144531 4.34375-15.445312 9.703125-18.539062 5.359375-3.097656 9.703125.1875 9.703125 7.335938zm0 0" fill="#2e373d"/><path d="m460.261719 218.898438c0 9.898437-6.019531 21.394531-13.441407 25.679687-7.421874 4.285156-13.4375-.261719-13.4375-10.160156 0-9.894531 6.015626-21.394531 13.4375-25.675781 7.421876-4.285157 13.441407.261718 13.441407 10.15625zm0 0" fill="#cecece"/><path d="m455.308594 221.761719c0 6.246093-3.800782 13.507812-8.488282 16.210937-4.683593 2.707032-8.484374-.164062-8.484374-6.414062s3.800781-13.507813 8.484374-16.214844c4.6875-2.707031 8.488282.167969 8.488282 6.417969zm0 0" fill="#2e373d"/><path d="m503.550781 130.296875c0 9.894531-6.015625 21.390625-13.4375 25.675781s-13.441406-.261718-13.441406-10.160156c0-9.894531 6.019531-21.390625 13.441406-25.675781 7.421875-4.285157 13.4375.261719 13.4375 10.160156zm0 0" fill="#cecece"/><path d="m498.597656 133.15625c0 6.25-3.796875 13.507812-8.484375 16.214844-4.6875 2.707031-8.488281-.167969-8.488281-6.414063 0-6.25 3.800781-13.507812 8.488281-16.214843 4.6875-2.707032 8.484375.164062 8.484375 6.414062zm0 0" fill="#2e373d"/><path d="m464.453125 295.964844 44.363281 64.089844c5.953125 8.601562 3.292969 20.457031-5.769531 25.6875-15.722656 9.078124-34.191406 12.1875-52.023437 8.753906-.226563-.042969-.453126-.085938-.675782-.128906-29.6875-5.816407-57.433594-19.011719-81.519531-37.308594l-136.921875-104.015625c-53.660156-40.761719-95.324219-95.25-120.59375-157.714844l-.691406-1.699219c-1.0625-2.632812-1.609375-5.449218-1.609375-8.289062 0-8.234375 8.914062-13.378906 16.042969-9.257813l270.230468 156.214844c27.488282 15.835937 51.113282 37.582031 69.167969 63.667969zm0 0" fill="#ededed"/><path d="m487.992188 329.972656c-8.277344 6.460938-17.910157 10.964844-28.179688 13.171875-19.84375 4.269531-40.554688 1.582031-58.652344-7.613281l-13.917968-7.074219-101.34375-58.511719c-49.796876-28.75-95.742188-63.707031-136.734376-104.027343 22.628907 33.15625 50.5 62.632812 82.742188 87.125l136.921875 104.015625c24.085937 18.296875 51.832031 31.492187 81.519531 37.308594.226563.042968.453125.089843.675782.132812 17.832031 3.429688 36.300781.324219 52.023437-8.757812 9.0625-5.230469 11.722656-17.082032 5.769531-25.6875zm0 0" fill="#2eb3bd"/><path d="m355.308594 317.46875-315.898438 13.734375-39.410156-25.976563 242.671875-52.789062zm0 0" fill="#ededed"/><path d="m129.402344 83.382812-20.390625-83.382812 40.019531 24.472656 41.804688 95.214844zm0 0" fill="#2eb3bd"/><path d="m183.429688 147.660156-126.324219-13.550781-21.753907-12.644531 86-9.644532zm0 0" fill="#ededed"/><g fill="#304e75"><path d="m464.195312 295.59375c-.007812-.003906-.011718-.003906-.015624-.003906l-45.082032 22.523437c-5.171875 2.585938-11.320312 2.273438-16.207031-.816406-4.121094-2.605469-9.585937-1.070313-11.75 3.296875-1.4375 2.902344-.253906 6.414062 2.644531 7.855469 10.679688 5.296875 23.238282 5.214843 33.847656-.21875l43.671876-22.367188zm0 0"/><path d="m374.261719 319.632812.871093.503907c3.234376 1.867187 5.855469-.117188 5.855469-4.425781v-4.929688c0-4.3125-2.621093-9.320312-5.855469-11.1875l-.871093-.503906c-3.234375-1.867188-5.855469.113281-5.855469 4.425781v4.929687c0 4.3125 2.621094 9.320313 5.855469 11.1875zm0 0"/><path d="m354.875 308.40625.871094.503906c3.234375 1.867188 5.855468-.113281 5.855468-4.425781v-4.929687c0-4.3125-2.621093-9.320313-5.855468-11.1875l-.871094-.503907c-3.234375-1.867187-5.855469.113281-5.855469 4.425781v4.929688c0 4.3125 2.621094 9.320312 5.855469 11.1875zm0 0"/><path d="m335.746094 297.179688.875.503906c3.234375 1.867187 5.855468-.113282 5.855468-4.425782v-4.929687c0-4.3125-2.621093-9.320313-5.855468-11.1875l-.875-.503906c-3.234375-1.867188-5.855469.113281-5.855469 4.425781v4.929688c0 4.3125 2.621094 9.320312 5.855469 11.1875zm0 0"/><path d="m316.359375 285.953125.875.503906c3.230469 1.867188 5.855469-.113281 5.855469-4.425781v-4.929688c0-4.3125-2.621094-9.320312-5.855469-11.1875l-.875-.503906c-3.234375-1.867187-5.855469.113282-5.855469 4.425782v4.929687c0 4.3125 2.621094 9.320313 5.855469 11.1875zm0 0"/></g></svg>