<svg viewBox="0 -18 512.00072 512" xmlns="http://www.w3.org/2000/svg"><g fill="#cecece"><path d="m85.585938 296.964844 188.96875 7.015625-.34375 9.167969-188.964844-7.015626zm0 0"/><path d="m384.765625 131.546875 8.683594 2.964844-44.460938 130.304687-8.683593-2.960937zm0 0"/><path d="m141.46875 140.148438 46.457031-60.527344-14.769531-8.523438-96.726562 31.632813zm0 0"/></g><path d="m411.535156 330.308594-25.222656-36.4375-21.292969-30.761719c-18.929687-27.351563-43.703125-50.152344-72.523437-66.757813l-156.726563-82.371093-49.390625-25.957031c-7.476562-4.316407-16.824218 1.074218-16.824218 9.707031 0 2.980469.574218 5.929687 1.691406 8.691406l.722656 1.78125c8.605469 10.128906 16.652344 19.867187 24.195312 29.207031 52.777344 65.375 80.738282 111.230469 102.253907 136.164063l66.335937 53.589843c29.144532 25.109376 78.207032 43.667969 78.441406 43.726563 36.359376 9.726563 59.109376 9.726563 68.480469-8.609375-.003906.003906 10.09375-20.335938-.140625-31.972656zm0 0" fill="#ededed"/><path d="m162.929688 128.257812-76.550782-40.230468c-7.476562-4.320313-16.824218 1.074218-16.824218 9.707031 0 2.894531.5625 5.753906 1.621093 8.445313l69.644531 19.316406c.003907 0 8.847657.402344 22.109376 2.761718zm0 0" fill="#e33400"/><path d="m264.753906 327.167969c29.144532 25.109375 78.207032 43.664062 78.441406 43.726562 36.355469 9.726563 59.109376 9.726563 68.476563-8.609375 0 0 10.09375-20.339844-.140625-31.976562l-25.222656-36.4375c-5.503906.675781-18.472656 3.433594-32.761719 14.6875-18.925781 14.914062-23.515625 37.859375-23.515625 37.859375s-70.550781-34.207031-114.144531-83.066407c-43.589844-48.859374-75.066407-137.855468-75.066407-137.855468l-5.054687-11.511719-49.390625-25.957031c-7.472656-4.320313-16.820312 1.070312-16.820312 9.703125 0 2.980469.574218 5.929687 1.691406 8.691406l.71875 1.78125c68.855468 81.050781 101.859375 136.878906 126.449218 165.371094zm0 0" fill="#e33400"/><path d="m76.40625 87.429688-21.382812-87.429688 41.96875 25.660156 43.832031 99.835938zm0 0" fill="#ededed"/><path d="m141.46875 140.148438-108.742188 37.636718-22.808593-13.261718 66.464843-61.953126zm0 0" fill="#ededed"/><path d="m275.425781 253.417969 18.632813 50.660156 64.769531-37.394531-17.980469-51.035156zm0 0" fill="#304e75"/><path d="m270.636719 253.09375 16.378906 50.984375-59.171875-38.234375v-37.457031zm0 0" fill="#243b58"/><path d="m352.933594 265.023438-16.375-50.980469-8.375-4.835938-33.015625 18.492188zm0 0" fill="#59718b"/><path d="m511.90625 78.183594c-.148438-3.90625-2.203125-7.699219-5.921875-9.847656l-22.03125-12.730469c-7.46875-4.316407-16.539063-4.839844-24.457031-1.410157l-98.027344 42.445313c-48.582031 21.039063-95.917969 44.851563-141.765625 71.320313-45.847656 26.472656-90.136719 55.558593-132.648437 87.113281l-82.25 61.054687c-3.625 2.691406-4.804688 10.785156-4.804688 10.785156l.121094 8.867188c-.351563 4.34375 1.574218 8.824219 5.820312 11.277344l21.898438 12.652344c5.671875 3.277343 12.339844 4.402343 18.777344 3.164062l41.035156-7.898438c11.792968-2.269531 23.125-6.496093 33.527344-12.5l335.667968-193.796874c10.402344-6.007813 19.726563-13.707032 27.589844-22.789063l24.585938-28.390625c2.289062-2.644531 3.265624-5.84375 2.90625-9.003906zm0 0" fill="#cecece"/><path d="m121.179688 331.390625 335.667968-193.800781c10.402344-6.003906 19.726563-13.707032 27.589844-22.785156l24.585938-28.390626c4.890624-5.644531 3.425781-14.34375-3.039063-18.078124l-22.03125-12.730469c-7.46875-4.316407-16.539063-4.839844-24.457031-1.410157l-98.027344 42.445313c-48.582031 21.039063-95.917969 44.851563-141.765625 71.320313-45.847656 26.472656-90.136719 55.558593-132.648437 87.113281l-82.25 61.054687c-6.871094 5.097656-6.269532 15.566406 1.136718 19.84375l21.898438 12.652344c5.671875 3.277344 12.339844 4.398438 18.777344 3.160156l41.035156-7.894531c11.792968-2.269531 23.125-6.496094 33.527344-12.5zm0 0" fill="#ededed"/><path d="m413.363281 344.488281c0 9.933594-6.039062 21.476563-13.492187 25.78125-7.449219 4.300781-13.492188-.265625-13.492188-10.199219 0-9.9375 6.042969-21.480468 13.492188-25.78125 7.453125-4.304687 13.492187.261719 13.492187 10.199219zm0 0" fill="#2e373d"/><path d="m411.589844 354.125c.984375-2.351562 1.554687-4.636719 1.742187-6.710938.578125-6.488281 3.113281-13.652343 6.539063-20.324218 5.101562-9.929688 10.785156-22.148438 16.378906-35.476563 14.425781-34.359375 22.777344-62.902343 18.652344-63.757812-4.125-.851563-19.164063 26.308593-33.589844 60.664062-5.597656 13.328125-10.265625 25.757813-13.652344 36.042969-2.273437 6.910156-5.679687 13.894531-10.207031 19.566406-1.449219 1.816406-2.734375 3.949219-3.722656 6.300782-.984375 2.355468-1.554688 4.636718-1.742188 6.714843-.578125 6.488281-3.109375 13.648438-6.539062 20.320313-5.101563 9.929687-10.78125 22.152344-16.378907 35.480468-14.425781 34.355469-22.777343 62.902344-18.652343 63.753907 4.125.855469 19.164062-26.304688 33.589843-60.664063 5.597657-13.328125 10.265626-25.757812 13.652344-36.042968 2.277344-6.910157 5.683594-13.890626 10.207032-19.5625 1.449218-1.816407 2.734374-3.953126 3.722656-6.304688zm0 0" fill="#ededed"/><path d="m415.722656 353.175781.007813-.019531-7.113281-8.179688c-.398438-.871093-.960938-1.546874-1.6875-1.9375l-.019532-.027343-.003906.007812c-.359375-.191406-.75-.324219-1.183594-.375-3.257812-.375-7.269531 3.636719-8.960937 8.957031-1.691407 5.320313-.421875 9.9375 2.835937 10.308594l12.308594-.011718c1.550781.179687 3.460938-1.730469 4.265625-4.261719.621094-1.949219.390625-3.675781-.449219-4.460938zm0 0" fill="#ed5100"/><path d="m365.019531 263.109375-19.777343-49.910156-4.394532 2.449219 17.980469 51.035156zm0 0" fill="#ededed"/><path d="m51.125 281.746094 26.488281 15.296875 131.695313-76.035157-39.371094-22.730468c-28.277344 17.960937-55.972656 36.824218-82.882812 56.796875zm0 0" fill="#cecece"/><path d="m245.246094 153.703125 36.421875 21.023437 131.691406-76.03125-24.269531-14.011718-27.621094 11.957031c-39.632812 17.164063-78.382812 36.269531-116.222656 57.0625zm0 0" fill="#cecece"/></svg>