<svg viewBox="1 0 511 511.9988" xmlns="http://www.w3.org/2000/svg"><path d="m106.546875 89.953125 21.347656-12.261719c13.851563-7.960937 13.816407-27.960937-.070312-35.867187-13.171875-7.5-29.339844-7.421875-42.4375.207031l-30.546875 17.796875zm0 0" fill="#ededed"/><path d="m512.378906 92.035156c-.902344-12.570312-7.582031-24.777344-20.050781-31.980468-27.292969-15.757813-60.921875-15.753907-88.210937.003906l-155.046876 89.53125c-42.363281-17.792969-85.757812-33.136719-129.984374-45.902344l-.96875-.28125-9.847657-39.800781c-4.988281-20.15625-14.675781-38.84375-28.265625-54.539063-8.238281-9.511718-22.070312-11.839844-32.96875-5.546875-9.957031 5.75-16.09375 16.375-16.09375 27.875v41.8125c0 24.917969 13.292969 47.941407 34.871094 60.398438l23.433594 28.996093c14.699218 18.183594 30.132812 35.71875 46.238281 52.578126l-85.835937 49.5625c-11.691407 6.753906-17.746094 18.367187-18.203126 30.171874l-.007812.003907v15.726562c.46875 11.789063 6.539062 23.359375 18.210938 30.097657 13.832031 7.984374 29.097656 12.378906 44.515624 13.207031-1.996093 3.96875-3.078124 8.304687-3.25 12.667969l-.007812.003906v13.207031c.398438 9.898437 5.492188 19.617187 15.296875 25.277344 25.910156 14.960937 57.835937 14.957031 83.75-.003907l104.570313-60.382812c22.984374 13.015625 47.632812 22.914062 73.328124 29.320312 6.613282 2.375 14.664063 1.375 23.359376-3.644531 22.476562-12.976562 40.695312-47.789062 40.695312-77.757812 0-9.9375-2.015625-18.078125-5.519531-24.0625l51.542969-29.761719c11.234374-6.488281 16.871093-17.820312 16.925781-29.171875h.007812l-.097656-13.382813c-.761719-10.554687-6.367187-20.804687-16.839844-26.851562-5.925781-3.421875-12.210937-5.949219-18.664062-7.601562l33.066406-19.09375c13.382813-7.726563 20.09375-21.21875 20.15625-34.738282l.007813-.003906zm0 0" fill="#2eb3bd"/><path d="m494.765625 196.257812c-.761719-10.554687-6.367187-20.804687-16.839844-26.851562-22.917969-13.230469-51.152343-13.230469-74.070312.003906l-297.65625 171.875c-9.816407 5.667969-14.902344 15.421875-15.285157 25.335938h-.007812v13.210937c.398438 9.898438 5.492188 19.613281 15.296875 25.273438 25.910156 14.960937 57.835937 14.960937 83.75-.003907l287.976563-166.289062c11.234374-6.488281 16.871093-17.816406 16.925781-29.167969l.007812-.003906zm0 0" fill="#2eb3bd"/><path d="m189.953125 394.367188 287.976563-166.289063c22.582031-13.039063 22.578124-45.632813-.003907-58.671875-22.917969-13.230469-51.152343-13.230469-74.070312.003906l-297.65625 171.875c-20.429688 11.800782-20.425781 41.289063.003906 53.082032 25.910156 14.960937 57.835937 14.960937 83.75 0zm0 0" fill="#ededed"/><g fill="#cecece"><path d="m169.464844 393.351562c-3.851563 0-6.976563-3.121093-6.976563-6.972656v-79.070312c0-3.847656 3.125-6.972656 6.976563-6.972656 3.851562 0 6.972656 3.125 6.972656 6.972656v79.070312c0 3.851563-3.121094 6.972656-6.972656 6.972656zm0 0"/><path d="m405.171875 248.722656c-3.851563 0-6.972656-3.125-6.972656-6.976562v-79.066406c0-3.851563 3.121093-6.972657 6.972656-6.972657s6.972656 3.121094 6.972656 6.972657v79.066406c0 3.851562-3.121093 6.976562-6.972656 6.976562zm0 0"/><path d="m473.648438 209.1875c-3.851563 0-6.976563-3.121094-6.976563-6.972656v-76.148438c0-3.851562 3.125-6.972656 6.976563-6.972656 3.851562 0 6.972656 3.121094 6.972656 6.972656v76.148438c0 3.851562-3.121094 6.972656-6.972656 6.972656zm0 0"/><path d="m237.941406 353.820312c-3.851562 0-6.976562-3.125-6.976562-6.976562v-76.148438c0-3.851562 3.125-6.972656 6.976562-6.972656 3.847656 0 6.972656 3.121094 6.972656 6.972656v76.148438c0 3.851562-3.125 6.976562-6.972656 6.976562zm0 0"/></g><path d="m423.171875 264.109375c-11.21875-13.320313-23.453125-25.691406-36.542969-37.050781-17.808594 2.957031-45.582031 17.339844-63.886718 48.460937-12.339844 20.976563-22.132813 47.75-20.667969 73.269531 20.8125 11 42.867187 19.539063 65.78125 25.25zm0 0" fill="#72e8f1"/><path d="m431.90625 292.636719c0 29.96875-18.21875 64.78125-40.695312 77.757812-22.476563 12.976563-40.695313-.796875-40.695313-30.765625s18.21875-64.78125 40.695313-77.757812c22.476562-12.972656 40.695312.800781 40.695312 30.765625zm0 0" fill="#2eb3bd"/><path d="m419.160156 300c0 20.578125-12.511718 44.484375-27.949218 53.394531-15.433594 8.914063-27.945313-.546875-27.945313-21.125s12.511719-44.488281 27.945313-53.398437c15.4375-8.910156 27.949218.550781 27.949218 21.128906zm0 0" fill="#23292e"/><path d="m512.378906 92.035156c-.902344-12.570312-7.582031-24.777344-20.050781-31.980468-27.292969-15.757813-60.921875-15.753907-88.210937.003906l-354.46875 204.683594c-11.691407 6.753906-17.746094 18.367187-18.203126 30.171874l-.007812.003907v15.726562c.46875 11.789063 6.539062 23.359375 18.210938 30.097657 30.859374 17.816406 68.878906 17.816406 99.738281-.003907l342.945312-198.027343c13.378907-7.726563 20.089844-21.21875 20.152344-34.738282l.011719-.003906zm0 0" fill="#2eb3bd"/><path d="m149.386719 327.953125 342.941406-198.027344c26.890625-15.527343 26.890625-54.34375 0-69.867187-27.292969-15.757813-60.921875-15.757813-88.210937 0l-354.46875 204.683594c-24.332032 14.050781-24.328126 49.167968 0 63.214843 30.859374 17.816407 68.878906 17.816407 99.738281-.003906zm0 0" fill="#ededed"/><path d="m83.300781 103.40625-52.359375-30.199219-19.480468 11.246094c-14.601563 8.433594-14.621094 29.503906-.027344 37.960937 12.066406 6.992188 26.949218 6.996094 39.019531.007813zm0 0" fill="#ededed"/><path d="m413.546875 319.042969c1.554687-3.703125 2.449219-7.296875 2.742187-10.566407.910157-10.210937 4.898438-21.484374 10.292969-31.988281 8.03125-15.628906 16.972657-34.863281 25.78125-55.839843 22.707031-54.078126 35.851563-99.003907 29.355469-100.347657-6.492188-1.347656-30.160156 41.402344-52.867188 95.484375-8.808593 20.976563-16.160156 40.539063-21.488281 56.726563-3.582031 10.878906-8.941406 21.867187-16.066406 30.792969-2.28125 2.859374-4.304687 6.21875-5.859375 9.921874-1.554688 3.703126-2.449219 7.296876-2.742188 10.5625-.910156 10.214844-4.898437 21.488282-10.292968 31.988282-8.03125 15.628906-16.972656 34.863281-25.78125 55.839844-22.707032 54.078124-35.847656 99.007812-29.355469 100.351562s30.164063-41.40625 52.871094-95.488281c8.808593-20.976563 16.15625-40.539063 21.488281-56.726563 3.578125-10.875 8.941406-21.867187 16.0625-30.792968 2.28125-2.855469 4.304688-6.21875 5.859375-9.917969zm0 0" fill="#304e75"/><path d="m420.050781 317.550781.015625-.035156-11.195312-12.871094c-.628906-1.371093-1.511719-2.433593-2.65625-3.054687l-.035156-.039063-.003907.007813c-.566406-.300782-1.183593-.511719-1.863281-.589844-5.128906-.585938-11.441406 5.722656-14.105469 14.097656-2.660156 8.375-.660156 15.640625 4.46875 16.226563l19.375-.015625c2.4375.277344 5.445313-2.722656 6.710938-6.710938.976562-3.066406.613281-5.785156-.710938-7.015625zm0 0" fill="#ededed"/><path d="m101.582031 234.753906 85.164063 49.308594 262.695312-150.457031-86.351562-49.855469zm0 0" fill="#cecece"/></svg>