<svg viewBox="-59 0 512 512.00013" xmlns="http://www.w3.org/2000/svg"><path d="m100.363281 370.582031c0-28.808593-17.515625-62.273437-39.121093-74.746093-9.59375-5.539063-18.375-5.984376-25.179688-2.265626l-.007812-.015624s-20.6875 11.707031-21.632813 12.363281l-.105469.058593.003906.007813c-7.425781 5.207031-12.054687 15.882813-12.054687 30.683594 0 28.804687 17.511719 62.269531 39.117187 74.742187 9.339844 5.394532 17.914063 5.972656 24.640626 2.570313.585937-.296875 19.910156-11.273438 19.910156-11.273438l-.003906-.015625c8.800781-4.480468 14.433593-15.789062 14.433593-32.109375zm0 0" fill="#23292e"/><path d="m373.203125 264.082031-25.152344-126.402343c-3.898437-19.578126-16.042969-36.527344-33.332031-46.507813l-37.019531-21.375-113.996094 66.539063v18.871093l-49.707031-28.699219v-.15625l-113.980469 66.695313v.007813l-.015625-.007813v122.828125c0 17.570312 9.375 33.804688 24.589844 42.589844l156.585937 90.40625c16.015625 9.246094 34.957031 6.53125 47.785157-4.277344l76.820312-46.828125s44.914062-18.089844 50.714844-41.527344l16.082031-65c2.203125-8.894531 2.414063-18.167969.625-27.15625zm0 0" fill="#ef9910"/><path d="m163.703125 174.128906-56.253906-32.480468-61.738281 35.683593s.003906-.003906.003906-.003906c-3.964844 1.59375-6.980469 5.417969-6.980469 10.292969v14.898437l124.96875 72.152344zm0 0" fill="#2e373d"/><path d="m0 193.046875 163.703125 94.511719v-151.222656l37.019531 21.375c17.289063 9.980468 29.433594 26.929687 33.332032 46.507812l25.15625 126.402344c1.789062 8.988281 1.574218 18.257812-.628907 27.15625l-16.082031 64.996094c-6.664062 26.9375-37.292969 39.972656-61.324219 26.097656l-156.585937-90.40625c-15.214844-8.785156-24.589844-25.019532-24.589844-42.589844zm0 0" fill="#d14f00"/><path d="m277.699219 69.800781-112.855469-65.144531c-10.6875-6.167969-23.84375-6.210938-34.566406-.105469l-113.898438 65.621094c-10.128906 5.847656-16.363281 16.652344-16.363281 28.34375v94.53125l32.734375 18.898437v-88.882812c0-10.90625 11.804688-17.726562 21.253906-12.273438l109.699219 63.335938v-37.789062zm0 0" fill="#ededed"/><path d="m163.703125 136.335938-114.597656-66.164063c-10.128907-5.84375-22.601563-5.84375-32.726563 0-10.128906 5.847656-16.363281 16.652344-16.363281 28.34375v94.53125l32.734375 18.898437v-88.882812c0-10.90625 11.804688-17.726562 21.253906-12.273438l109.699219 63.335938zm0 0" fill="#82a5b9"/><path d="m348.070312 138.0625-114.015624 66.15625-49.121094-28.355469v107.757813l73.347656 42.347656 114.035156-66.082031zm0 0" fill="#304e75"/><path d="m184.933594 283.621094 73.347656 42.347656-24.226562-121.75-49.121094-28.355469zm0 0" fill="#243b58"/><path d="m348.070312 138.058594-48.929687 28.394531v51.109375l73.160156 42.242188zm0 0" fill="#59718b"/><path d="m388.851562 466.472656c0-28.804687-17.511718-62.269531-39.117187-74.742187-9.597656-5.542969-18.382813-6-25.1875-2.28125 0 0-20.691406 11.707031-21.640625 12.363281l-.101562.058594.007812.007812c-7.425781 5.207032-12.058594 15.882813-12.058594 30.679688 0 28.808594 17.515625 62.273437 39.121094 74.746094 9.339844 5.390624 17.910156 5.972656 24.636719 2.570312.585937-.296875 19.914062-11.277344 19.914062-11.277344l-.003906-.003906c8.804687-4.480469 14.429687-15.796875 14.429687-32.121094zm0 0" fill="#23292e"/><path d="m368.992188 477.730469c0 28.808593-17.515626 42.050781-39.121094 29.574219-21.605469-12.472657-39.117188-45.9375-39.117188-74.742188 0-28.808594 17.511719-42.046875 39.117188-29.574219 21.605468 12.472657 39.121094 45.9375 39.121094 74.742188zm0 0" fill="#2e373d"/><path d="m349.105469 466.25c0 14.164062-8.609375 20.675781-19.234375 14.542969-10.621094-6.132813-19.230469-22.585938-19.230469-36.75 0-14.164063 8.609375-20.671875 19.230469-14.539063 10.625 6.132813 19.234375 22.585938 19.234375 36.746094zm0 0" fill="#cecece"/><path d="m340.304688 461.171875c0 7.679687-4.671876 11.210937-10.433594 7.882813-5.761719-3.324219-10.429688-12.25-10.429688-19.929688 0-7.683594 4.667969-11.214844 10.429688-7.886719 5.761718 3.324219 10.433594 12.25 10.433594 19.933594zm0 0" fill="#2e373d"/><path d="m80.503906 381.839844c0 28.804687-17.515625 42.046875-39.121094 29.574218-21.605468-12.476562-39.117187-45.941406-39.117187-74.746093 0-28.804688 17.511719-42.046875 39.117187-29.574219 21.605469 12.476562 39.121094 45.941406 39.121094 74.746094zm0 0" fill="#2e373d"/><path d="m60.617188 370.359375c0 14.160156-8.613282 20.671875-19.234376 14.539063-10.621093-6.132813-19.234374-22.585938-19.234374-36.75 0-14.160157 8.613281-20.671876 19.234374-14.539063 10.621094 6.132813 19.234376 22.585937 19.234376 36.75zm0 0" fill="#cecece"/><path d="m51.8125 365.277344c0 7.679687-4.667969 11.210937-10.429688 7.886718-5.761718-3.328124-10.433593-12.25-10.433593-19.933593 0-7.683594 4.671875-11.214844 10.433593-7.886719 5.761719 3.328125 10.429688 12.25 10.429688 19.933594zm0 0" fill="#2e373d"/><path d="m394.496094 428.601562c0-10.621093-2.515625-21.089843-7.34375-30.546874-5.898438-11.566407-15.023438-21.175782-26.265625-27.667969l-12.203125-7.042969c-6.070313-3.503906-13.546875-3.503906-19.617188 0l-46.710937 26.742188c-6.070313 3.503906-9.808594 9.980468-9.808594 16.992187v26.082031c0 6.671875 4.914063 12.320313 11.519531 13.25l63.71875 8.933594zm0 0" fill="#ef9910"/><path d="m347.785156 455.347656c0-10.621094-2.515625-21.089844-7.339844-30.550781-5.902343-11.566406-15.023437-21.175781-26.269531-27.667969l-12.199219-7.042968c-6.070312-3.503907-13.550781-3.503907-19.621093 0-6.070313 3.503906-9.808594 9.980468-9.808594 16.992187v26.082031c0 6.671875 4.914063 12.320313 11.519531 13.25zm0 0" fill="#d14f00"/><path d="m369.402344 341.609375-10.410156-6.007813c-9.851563-5.691406-21.992188-5.691406-31.84375 0-18.164063 10.484376-18.164063 36.703126 0 47.191407l18.679687 11c3.339844 2.203125 7.804687 2.152343 12.71875-.683594 10.328125-5.964844 18.699219-21.960937 18.699219-35.734375 0-8.367188-3.097656-13.980469-7.84375-15.765625zm0 0" fill="#cecece"/><path d="m377.246094 357.375c0 13.773438-8.375 29.769531-18.703125 35.734375-10.328125 5.960937-18.699219-.367187-18.699219-14.140625 0-13.769531 8.371094-29.765625 18.699219-35.730469 10.332031-5.960937 18.703125.367188 18.703125 14.136719zm0 0" fill="#82a5b9"/><path d="m371.804688 360.519531c0 9.761719-5.9375 21.105469-13.257813 25.332031-7.324219 4.230469-13.261719-.257812-13.261719-10.023437s5.9375-21.105469 13.261719-25.332031c7.320313-4.230469 13.257813.257812 13.257813 10.023437zm0 0" fill="#fff"/><path d="m107.449219 141.648438-61.738281 35.683593c2.976562-1.199219 6.484374-1.144531 9.652343.683594 8.832031 5.101563 14.273438 14.523437 14.273438 24.71875v17.253906l27.8125 16.394531 66.253906-38.707031v-23.546875zm0 0" fill="#525e65"/></svg>