<svg viewBox="0 -78 512 512" xmlns="http://www.w3.org/2000/svg"><path d="m360.742188 325.941406-41.808594-29.410156c-6.148438-15.371094-16.394532-29.03125-28-35.734375-18.816406-10.863281-34.066406.667969-34.066406 25.753906 0 25.082031 15.25 54.222657 34.066406 65.085938 8.914062 5.148437 17.027344 5.257812 23.101562 1.289062zm0 0" fill="#23292e"/><path d="m487.796875 185.546875-76.398437-54.554687-8.527344-18.695313c-15.769532-34.582031-41.882813-63.417969-74.734375-82.535156l-25.226563-14.09375c-23.953125-13.941407-52.625-17.277344-79.140625-9.210938l-33.554687 10.207031-27.164063-15.539062c-2.722656-1.558594-5.746093-1.398438-8.175781-.125l-.027344-.011719-150.324218 88.226563c-2.621094 1.402344-4.523438 4.128906-4.523438 7.523437v23.328125c0 16.757813 8.945312 32.242188 23.464844 40.617188l320.964844 185.375c10.683593 6.332031 22.855468 9.71875 35.273437 9.828125 12.640625.105469 25.078125-3.191407 36.003906-9.550781l82.574219-48.066407c8.496094-4.945312 13.71875-14.03125 13.71875-23.855469v-41.84375c0-18.664062-9.015625-36.175781-24.203125-47.023437zm0 0" fill="#2e373d"/><path d="m73.503906 94.660156c26.511719-8.066406 55.183594-4.730468 79.136719 9.210938l25.230469 14.09375c32.851562 19.117187 58.960937 47.953125 74.730468 82.535156l8.527344 18.699219 150.269532-88.203125-8.527344-18.699219c-15.769532-34.582031-41.882813-63.417969-74.730469-82.535156l-25.230469-14.09375c-23.953125-13.941407-52.625-17.277344-79.140625-9.210938l-33.554687 10.207031-150.269532 88.199219zm0 0" fill="#ededed"/><path d="m121.011719 188.128906-41.808594-29.414062c-6.148437-15.371094-16.394531-29.03125-28.003906-35.734375-18.8125-10.859375-34.0625.667969-34.0625 25.753906s15.25 54.226563 34.0625 65.085937c8.917969 5.148438 17.03125 5.261719 23.105469 1.289063zm0 0" fill="#23292e"/><path d="m12.785156 89.324219 27.160156 15.542969 150.269532-88.203126-27.164063-15.539062c-2.722656-1.558594-5.746093-1.398438-8.175781-.125l-.027344-.011719-150.324218 88.226563c2.445312-1.304688 5.511718-1.460938 8.261718.109375zm0 0" fill="#525e65"/><path d="m493 257.480469 2.15625-9.921875c2.035156-9.382813 8.007812-17.433594 16.394531-22.105469.035157.292969.0625.589844.097657.882813-1.765626-16.277344-10.367188-31.160157-23.851563-40.789063l-76.398437-54.554687-150.269532 88.203124 76.402344 54.554688c3.578125 2.554688 6.808594 5.492188 9.660156 8.71875v-.007812l21.375 12c7.441406 4.175781 16.535156 4.121093 23.925782-.144532 3.695312-2.132812 8.242187-2.132812 11.9375 0l12.382812 7.148438zm0 0" fill="#525e65"/><path d="m252.601562 200.5c-15.769531-34.582031-41.878906-63.417969-74.730468-82.535156l-25.230469-14.09375c-23.953125-13.941406-52.625-17.277344-79.140625-9.214844l-33.554688 10.207031c0 15.535157 5.09375 30.640625 14.5 43l41.617188 54.675781 165.066406 95.175782v-78.519532zm0 0" fill="#82a5b9"/><path d="m12.785156 89.324219c-5.695312-3.257813-12.785156.855469-12.785156 7.414062v23.324219c0 16.761719 8.945312 32.246094 23.464844 40.617188l72.597656 41.859374-41.617188-54.675781c-9.40625-12.359375-14.5-27.464843-14.5-43zm0 0" fill="#23292e"/><path d="m336.140625 297.539062 8.03125 4.636719c3.902344 2.25 7.992187 4.113281 12.214844 5.582031l-9.195313-25.289062c-2.851562-3.226562-6.082031-6.160156-9.664062-8.71875l-76.398438-54.554688v78.523438l75.023438 43.257812c-3.292969-2.59375-5.484375-6.382812-6.035156-10.59375l-3.457032-26.515624c-.679687-5.222657 4.921875-8.960938 9.480469-6.328126zm0 0" fill="#23292e"/><path d="m324.996094 325.882812c0 25.085938-15.25 36.613282-34.0625 25.753907-18.816406-10.863281-34.066406-40.003907-34.066406-65.089844 0-25.082031 15.25-36.613281 34.066406-25.75 18.8125 10.863281 34.0625 40.003906 34.0625 65.085937zm0 0" fill="#2e373d"/><path d="m307.679688 315.886719c0 12.332031-7.496094 18-16.746094 12.660156s-16.75-19.667969-16.75-32 7.5-18.003906 16.75-12.664063c9.25 5.34375 16.746094 19.671876 16.746094 32.003907zm0 0" fill="#cecece"/><path d="m300.015625 311.460938c0 6.6875-4.066406 9.765624-9.082031 6.867187-5.019532-2.898437-9.085938-10.667969-9.085938-17.355469s4.066406-9.765625 9.085938-6.867187c5.015625 2.894531 9.082031 10.667969 9.082031 17.355469zm0 0" fill="#627681"/><path d="m85.265625 188.070312c0 25.082032-15.25 36.613282-34.066406 25.75-18.8125-10.859374-34.0625-40-34.0625-65.085937s15.25-36.613281 34.0625-25.753906c18.816406 10.863281 34.066406 40.003906 34.066406 65.089843zm0 0" fill="#2e373d"/><path d="m67.949219 178.070312c0 12.332032-7.5 18.003907-16.75 12.660157-9.25-5.339844-16.746094-19.667969-16.746094-32s7.5-18 16.746094-12.660157c9.25 5.339844 16.75 19.667969 16.75 32zm0 0" fill="#cecece"/><path d="m60.285156 173.644531c0 6.691407-4.066406 9.765625-9.085937 6.867188-5.015625-2.894531-9.082031-10.664063-9.082031-17.355469 0-6.6875 4.066406-9.765625 9.082031-6.867188 5.019531 2.898438 9.085937 10.667969 9.085937 17.355469zm0 0" fill="#627681"/><path d="m379.878906 311.742188c12.535156 0 24.851563-3.300782 35.710938-9.566407l1.222656-.707031-12.382812-7.152344c-3.695313-2.132812-8.242188-2.132812-11.9375 0-7.390626 4.265625-16.484376 4.320313-23.925782.144532l-21.375-12 9.199219 25.300781c7.519531 2.621093 15.457031 3.980469 23.488281 3.980469zm0 0" fill="#fff"/><path d="m264.847656 210.585938-24.300781-44.835938c-5.15625-9.511719-1.800781-21.394531 7.566406-26.804688l104.652344-60.417968c8.710937-5.03125 19.851563-2.050782 24.890625 6.660156l26.121094 45.1875zm0 0" fill="#304e75"/><path d="m156.597656 165.164062 87.875 45.421876-13.929687-25.8125c-12.90625-23.917969-32.207031-43.78125-55.742188-57.371094l-9.902343-5.714844c-2.714844-1.566406-5.492188-2.976562-8.300782-4.308594zm0 0" fill="#243b58"/><path d="m360.417969 76.199219c-2.617188.207031-5.230469.925781-7.652344 2.324219l-25.585937 14.773437 63.515624 32.832031-13.929687-25.8125c-4.648437-8.605468-10.148437-16.664062-16.347656-24.117187zm0 0" fill="#59718b"/><path d="m143.992188 112.273438c-22.921876-7.714844-47.890626-8.117188-71.339844-.769532l-12.367188 3.875 83.707032 43.269532zm0 0" fill="#243b58"/><path d="m493 257.480469 19-10.480469v-14.429688c0-2.398437-.160156-4.773437-.449219-7.117187-8.386719 4.671875-14.359375 12.726563-16.398437 22.105469zm0 0" fill="#fff"/><g fill="#2e373d"><path d="m106.785156 152.5c2.371094 1.371094 4.265625 3.460938 5.679688 6.273438 1.308594 2.660156 1.960937 5.46875 1.960937 8.429687v6.265625c0 2.847656-.746093 4.847656-2.234375 6.007812-1.488281 1.160157-3.289062 1.128907-5.40625-.09375l-2.816406-1.621093v16.246093l-4.878906-2.816406v-43.132812zm2.914063 12.078125c0-1.121094-.253907-2.175781-.757813-3.15625-.507812-.984375-1.183594-1.71875-2.027344-2.203125l-2.941406-1.699219v13.800781l2.941406 1.699219c.773438.449219 1.433594.460938 1.976563.039063.539063-.421875.8125-1.148438.8125-2.179688v-6.300781zm0 0"/><path d="m125.5 162.753906c2.152344 1.242188 3.980469 3.308594 5.484375 6.199219 1.507813 2.886719 2.261719 5.753906 2.261719 8.601563v23.542968c0 2.871094-.757813 4.871094-2.273438 6.003906-1.511718 1.132813-3.335937 1.085938-5.472656-.148437-2.152344-1.242187-3.976562-3.304687-5.472656-6.1875s-2.246094-5.75-2.246094-8.59375v-23.546875c0-2.867188.757812-4.867188 2.269531-6 1.515625-1.136719 3.332031-1.09375 5.449219.128906zm2.660156 11.726563c0-1.035157-.269531-2.066407-.8125-3.105469-.542968-1.035156-1.203125-1.777344-1.976562-2.222656-.773438-.449219-1.4375-.46875-1.988282-.066406-.550781.40625-.824218 1.125-.824218 2.160156v23.613281c0 1.03125.273437 2.066406.824218 3.109375.550782 1.039062 1.214844 1.785156 1.988282 2.230469.773437.449219 1.433594.46875 1.976562.058593.542969-.410156.8125-1.132812.8125-2.164062zm0 0"/><path d="m150.851562 221.074219-13.292968-7.679688v-43.128906l4.878906 2.816406v36.660157l8.414062 4.859374zm0 0"/><path d="m159.085938 225.828125-4.878907-2.816406v-43.132813l4.878907 2.820313zm0 0"/><path d="m171.144531 233.339844c-2.152343-1.242188-3.980469-3.300782-5.484375-6.179688-1.507812-2.878906-2.261718-5.738281-2.261718-8.585937v-23.542969c0-2.867188.757812-4.871094 2.273437-6.003906 1.515625-1.132813 3.339844-1.085938 5.472656.148437 2.152344 1.242188 3.976563 3.304688 5.472657 6.1875 1.5 2.886719 2.246093 5.75 2.246093 8.59375v4.921875l-5.058593-2.917968v-5.0625c0-1.03125-.277344-2.074219-.824219-3.125-.550781-1.054688-1.214844-1.804688-1.988281-2.25-.773438-.445313-1.433594-.460938-1.976563-.039063-.539063.421875-.8125 1.148437-.8125 2.179687v23.613282c0 1.035156.273437 2.070312.8125 3.105468.542969 1.035157 1.203125 1.777344 1.976563 2.222657.773437.449219 1.4375.46875 1.988281.0625.546875-.402344.824219-1.121094.824219-2.15625v-5.953125l5.058593 2.921875v6.023437c0 2.867188-.753906 4.863282-2.269531 5.984375-1.515625 1.125-3.332031 1.074219-5.449219-.148437zm0 0"/><path d="m182.863281 239.554688v-43.164063l13.890625 8.019531v6.539063l-9.011718-5.203125v11.773437l6.585937 3.800781v6.539063l-6.585937-3.800781v11.773437l9.011718 5.203125v6.539063zm0 0"/><path d="m269.761719 214.128906 132.613281 74.480469 92.78125-52.8125-88.457031-102.046875zm0 0"/></g><path d="m336.15625 55.332031-30.933594-17.863281-86.898437 50.167969v9.988281l30.683593 17.714844 87.148438-50.316406zm0 0" fill="#cecece"/><path d="m218.324219 87.636719v9.988281l30.683593 17.714844v-9.695313zm0 0" fill="#525e65"/><path d="m249.007812 105.644531 87.148438-50.3125v9.691407l-87.148438 50.316406zm0 0" fill="#627681"/><path d="m313.128906 25.777344-1.546875-.894532c-2.554687-1.476562-4.890625-1.589843-6.699219-.59375l-.050781-.089843-37.011719 21.367187-32.957031 19.03125c-2.375 1.164063-3.898437 4.179688-3.898437 8.554688v11.796875l22.324218 12.886719 70.230469-40.414063v-11.796875c0-7.648438-4.652343-16.535156-10.390625-19.847656zm0 0" fill="#243b58"/><path d="m313.128906 25.777344-1.546875-.894532c-2.554687-1.476562-4.890625-1.589843-6.699219-.59375l-.050781-.089843-37.011719 21.367187s4.730469-1.757812 7.792969.011719l1.546875.894531c5.738282 3.3125 10.390625 12.199219 10.390625 19.847656v11.796876l35.96875-20.695313v-11.796875c0-7.648438-4.652343-16.535156-10.390625-19.847656zm0 0" fill="#e33400"/><path d="m277.160156 46.472656-1.550781-.894531c-3.058594-1.769531-5.800781-1.574219-7.703125.132813l-.085938-.140626-32.957031 19.027344c1.777344-.875 4.03125-.71875 6.488281.703125l1.550782.894531c5.734375 3.3125 10.386718 12.195313 10.386718 19.847657v11.796875l34.257813-19.722656v-11.796876c0-7.648437-4.648437-16.535156-10.386719-19.847656zm0 0" fill="#304e75"/></svg>