<svg viewBox="0 -8 512.00128 512" xmlns="http://www.w3.org/2000/svg"><path d="m494.734375 424.542969c-.46875 0-.941406-.042969-1.417969-.136719l-21.28125-4.183594c-3.953125-.777344-6.53125-4.613281-5.75-8.566406.773438-3.957031 4.609375-6.527344 8.5625-5.753906l21.285156 4.1875c3.953126.773437 6.53125 4.609375 5.75 8.5625-.679687 3.480468-3.734374 5.890625-7.148437 5.890625zm0 0" fill="#23292e"/><path d="m398.742188 479.792969c-.464844 0-.9375-.042969-1.414063-.136719l-21.285156-4.183594c-3.953125-.777344-6.527344-4.613281-5.75-8.566406.777343-3.953125 4.609375-6.527344 8.566406-5.753906l21.285156 4.1875c3.953125.773437 6.527344 4.609375 5.75 8.5625-.683593 3.480468-3.734375 5.890625-7.152343 5.890625zm0 0" fill="#23292e"/><path d="m86.1875 373.351562c.695312-.355468 59.636719-34.554687 59.636719-34.554687l-51.648438-36.234375c-7.617187-18.964844-20.285156-35.808594-34.621093-44.0625-23.238282-13.375-42.042969.878906-42.003907 31.839844.039063 30.960937 18.910157 66.90625 42.148438 80.28125 10.046875 5.785156 19.261719 6.394531 26.484375 2.730468zm0 0" fill="#23292e"/><path d="m295.640625 494.015625c.691406-.351563 59.636719-34.550781 59.636719-34.550781l-51.652344-36.238282c-7.613281-18.960937-20.28125-35.804687-34.617188-44.058593-23.238281-13.375-42.042968.878906-42.003906 31.839843.039063 30.960938 18.910156 66.902344 42.148438 80.28125 10.046875 5.78125 19.261718 6.390626 26.484375 2.726563zm0 0" fill="#23292e"/><path d="m511.699219 320.503906c-.015625-12.101562-4.949219-24.007812-13.5-32.574218-2.867188-2.875-6.128907-5.375-9.648438-7.398438l-71.460937-50.644531-25.734375-88.710938c-4.875-16.804687-16.066407-31.070312-31.234375-39.796875l-171.5625-98.761718c-6.742188-3.878907-14.527344-3.234376-20.382813.546874l-144.96875 83.082032c-5.125 2.609375-9.128906 7.449218-10.328125 13.761718l-7.710937 40.660157c-3.460938 18.246093-5.1914065 36.777343-5.167969 55.347656.0234375 13.390625.046875 26.785156.078125 40.175781.039063 17.140625-1.949219 35.742188 15.601563 45.863282 0 0 .121093.066406.328124.1875 39.828126 22.945312 79.660157 45.894531 119.488282 68.839843 60 34.566407 120 69.136719 180.003906 103.703125 21.660156 12.476563 44.453125 30.636719 70.472656 16.726563.308594-.148438 106.882813-61.117188 106.882813-61.117188 11.722656-6.710937 19.160156-19.542969 19.144531-33.0625zm0 0" fill="#ededed"/><path d="m337.683594 102.253906-35.660156-20.589844-100.160157 57.828126v11.511718l35.367188 20.421875 100.453125-58zm0 0" fill="#cecece"/><path d="m201.863281 139.492188v11.511718l35.367188 20.421875v-11.175781zm0 0" fill="#525e65"/><path d="m237.230469 160.25 100.453125-57.996094v11.171875l-100.453125 58zm0 0" fill="#627681"/><path d="m311.140625 68.1875-1.785156-1.03125c-2.941407-1.699219-5.636719-1.832031-7.722657-.683594l-.054687-.105468-42.664063 24.632812-37.988281 21.933594c-2.738281 1.34375-4.492187 4.820312-4.492187 9.859375v13.597656l25.734375 14.859375 80.949219-46.585938v-13.597656c0-8.816406-5.363282-19.0625-11.976563-22.878906zm0 0" fill="#243b58"/><path d="m311.140625 68.1875-1.785156-1.03125c-2.941407-1.699219-5.636719-1.832031-7.722657-.683594l-.054687-.105468-42.664063 24.632812s5.453126-2.027344 8.980469.007812l1.785157 1.03125c6.613281 3.820313 11.976562 14.0625 11.976562 22.878907v13.597656l41.460938-23.851563v-13.597656c0-8.816406-5.363282-19.0625-11.976563-22.878906zm0 0" fill="#e33400"/><path d="m269.679688 92.042969-1.785157-1.03125c-3.527343-2.039063-6.6875-1.816407-8.878906.152343l-.101563-.164062-37.988281 21.933594c2.050781-1.007813 4.648438-.828125 7.480469.808594l1.785156 1.03125c6.613282 3.816406 11.976563 14.058593 11.976563 22.878906v13.597656l39.488281-22.734375v-13.597656c0-8.816407-5.363281-19.058594-11.976562-22.875zm0 0" fill="#304e75"/><path d="m41.839844 86.710938 48.871094 28.132812 146.183593-84.402344-48.335937-27.824218c-6.742188-3.878907-14.527344-3.234376-20.382813.546874l-144.96875 83.082032c5.601563-2.855469 12.542969-3.039063 18.632813.464844zm0 0" fill="#2e373d"/><path d="m269.070312 428.035156c15.476563 8.917969 30.953126 17.832032 46.429688 26.75 21.660156 12.476563 44.453125 30.636719 70.472656 16.726563.308594-.148438 106.882813-61.117188 106.882813-61.117188 11.722656-6.710937 19.160156-19.546875 19.144531-33.0625l-.300781-56.828125c-.015625-12.101562-4.949219-24.007812-13.5-32.574218-2.867188-2.875-6.128907-5.375-9.648438-7.402344l-71.460937-50.640625-148.167969 83.0625zm0 0" fill="#525e65"/><path d="m268.921875 312.949219 133.023437 57.183593v39.996094l81.554688-47.605468v-41.679688l-66.410156-90.957031zm0 0" fill="#2e373d"/><path d="m41.839844 86.710938 171.5625 98.757812c15.167968 8.726562 26.363281 22.992188 31.238281 39.796875l24.28125 87.683594 72.914063 51.671875c14.300781 8.230468 23.125 23.46875 23.148437 39.972656l.0625 47.945312c.015625 13.761719-14.875 22.375-26.792969 15.503907l-322.574218-185.988281c-9.640626-5.5625-15.5898442-15.839844-15.601563-26.96875l-.078125-59.070313c-.0234375-18.570313 1.707031-37.101563 5.167969-55.347656l7.710937-40.660157c2.507813-13.214843 17.304688-20.007812 28.960938-13.296874zm0 0" fill="#82a5b9"/><path d="m90.710938 220.09375v-105.25l-48.871094-28.132812c-11.660156-6.710938-26.453125.082031-28.960938 13.296874l-7.710937 40.660157c-3.460938 18.246093-5.1914065 36.777343-5.167969 55.347656l.078125 59.070313c.0117188 11.128906 5.960937 21.40625 15.601563 26.96875l85.800781 49.46875zm0 0" fill="#23292e"/><path d="m338.253906 468.042969c11.917969 6.871093 26.808594-1.742188 26.792969-15.503907l-.0625-47.941406c-.023437-16.503906-8.847656-31.742187-23.148437-39.976562l-72.914063-51.671875v115.117187zm0 0" fill="#23292e"/><path d="m511.972656 356.105469-110.035156 63.652343-14.851562 8.589844c-6.824219 3.949219-14.445313 5.925782-22.066407 5.933594-7.621093.011719-15.242187-1.953125-22.074219-5.886719-14.140624-8.136719-31.789062 2.066407-31.789062 18.382813v5.511718c20.722656 11.941407 33.683594 19.402344 33.757812 19.441407 6.332032 3.273437 13.230469 5 20.160157 5.015625 7.601562.015625 15.203125-1.929688 22.027343-5.832032l105.753907-60.519531c11.855469-6.785156 19.160156-19.40625 19.144531-33.0625zm0 0" fill="#82a5b9"/><path d="m401.9375 419.757812-14.847656 8.589844c-6.828125 3.949219-14.445313 5.929688-22.070313 5.933594l.011719 6.828125.019531 16.707031c.015625 11.207032 12.089844 18.726563 21.847657 13.214844.066406-.039062.136718-.078125.203124-.117188l105.753907-60.519531c11.855469-6.785156 19.164062-19.40625 19.144531-33.0625l-.027344-21.230469zm0 0" fill="#cecece"/><path d="m164.097656 262.109375 90.949219 52.074219-22.125-78.21875c-4.003906-14.144532-13.375-26.167969-26.113281-33.5l-42.710938-24.585938zm0 0" fill="#243b58"/><path d="m81.148438 130.132812-40.933594-23.5625c-7.792969-4.484374-17.6875.007813-19.441406 8.828126l-6.363282 32.03125c-3.085937 15.546874 4.101563 31.328124 17.855469 39.199218l48.882813 27.988282zm0 0" fill="#243b58"/><path d="m90.710938 135.636719v84.457031l63.828124 36.542969v-84.261719zm0 0" fill="#243b58"/><path d="m273.65625 304.332031 134.441406-77.855469-25.894531-87.15625c-1.710937-5.765624-8.382813-8.390624-13.566406-5.34375l-113.953125 66.976563c-5.597656 3.289063-8.246094 9.964844-6.429688 16.199219zm0 0" fill="#304e75"/><path d="m311.15625 459.449219c.039062 30.960937-18.765625 45.214843-42.003906 31.839843-23.238282-13.375-42.109375-49.320312-42.148438-80.28125-.039062-30.960937 18.765625-45.214843 42.003906-31.839843 23.238282 13.375 42.109376 49.320312 42.148438 80.28125zm0 0" fill="#2e373d"/><path d="m289.765625 447.136719c.023437 15.222656-9.226563 22.230469-20.648437 15.65625-11.429688-6.578125-20.707032-24.25-20.726563-39.472657-.019531-15.222656 9.226563-22.230468 20.652344-15.65625 11.425781 6.578126 20.703125 24.25 20.722656 39.472657zm0 0" fill="#cecece"/><path d="m280.300781 441.6875c.011719 8.253906-5.003906 12.054688-11.203125 8.488281-6.195312-3.566406-11.226562-13.152343-11.238281-21.40625-.011719-8.257812 5.003906-12.058593 11.199219-8.492187 6.199218 3.566406 11.230468 13.152344 11.242187 21.410156zm0 0" fill="#2e373d"/><path d="m101.703125 338.78125c.039063 30.960938-18.765625 45.21875-42.003906 31.839844-23.238281-13.375-42.109375-49.316406-42.148438-80.28125-.039062-30.960938 18.765625-45.214844 42.003907-31.839844 23.238281 13.378906 42.109374 49.320312 42.148437 80.28125zm0 0" fill="#2e373d"/><path d="m80.316406 326.46875c.019532 15.222656-9.226562 22.230469-20.652344 15.65625-11.425781-6.578125-20.703124-24.25-20.722656-39.472656-.019531-15.222656 9.226563-22.230469 20.652344-15.652344 11.421875 6.574219 20.703125 24.246094 20.722656 39.46875zm0 0" fill="#cecece"/><path d="m70.847656 321.019531c.011719 8.257813-5.003906 12.058594-11.199218 8.492188-6.199219-3.566407-11.230469-13.152344-11.242188-21.410157-.011719-8.253906 5.003906-12.054687 11.203125-8.488281 6.195313 3.566407 11.226563 13.152344 11.238281 21.40625zm0 0" fill="#2e373d"/><path d="m386.359375 375.628906-23.929687 13.890625-15.71875-9.050781.027343 19.636719c.015625 13.03125 6.984375 25.066406 18.277344 31.566406l36.984375-21.46875-.035156-25.601563c-.007813-8-8.683594-12.988281-15.605469-8.972656zm0 0" fill="#fff"/><path d="m511.699219 320.503906c-.007813-5.414062-1.003907-10.785156-2.863281-15.839844l-9.273438 5.269532c-9.457031 5.359375-15.292969 15.390625-15.277344 26.257812l.03125 26.332032 27.519532-16.125zm0 0" fill="#fff"/><path d="m499.003906 310.277344.003906-.019532s-.058593.039063-.148437.105469c.050781-.027343.097656-.058593.144531-.085937zm0 0" fill="#525e65"/><path d="m484.316406 362.523438-.03125-26.332032c-.011718-8.992187 3.988282-17.402344 10.722656-23.074218-14.875 10.558593-67.792968 47.398437-97.632812 58.910156l-5.667969 2.183594c5.363281.078124 10.25 4.386718 10.257813 10.390624l.035156 25.601563zm0 0" fill="#525e65"/><path d="m501.832031 415.578125-14.792969-63.734375c-.523437-2.246094-2.078124-4.117188-4.195312-5.039062-2.113281-.921876-4.542969-.785157-6.542969.363281l-60.632812 34.800781c-1.738281.996094-2.988281 2.660156-3.457031 4.601562l-20.5625 84.5625c-.953126 3.914063 1.449218 7.859376 5.367187 8.8125.578125.140626 1.15625.207032 1.726563.207032 3.289062 0 6.273437-2.238282 7.085937-5.574219l7.855469-32.308594 69.945312-40.574219 3.988282 17.183594c.910156 3.921875 4.835937 6.363282 8.757812 5.457032 3.925781-.910157 6.367188-4.832032 5.457031-8.757813zm-83.375 7.054687 7.191407-29.570312 49.398437-28.351562 5.132813 22.117187zm0 0" fill="#23292e"/><path d="m364.992188 411.316406-.011719-6.71875c-.003907-5.253906-.992188-10.339844-2.675781-15.152344l-15.59375-8.976562.027343 19.636719c0 .246093.042969.488281.050781.734375zm0 0" fill="#ef9910"/><path d="m364.992188 411.316406-18.203126-10.480468c-.007812-.246094-.050781-.484376-.050781-.730469.015625 13.03125 6.984375 25.066406 18.277344 31.566406zm0 0" fill="#cecece"/><path d="m400.472656 230.496094-22.125-78.21875c-1.914062-6.757813-5.082031-13.007813-9.222656-18.515625-.160156.082031-.332031.121093-.488281.214843l-67.476563 39.660157zm0 0" fill="#59718b"/><g fill="#2e373d"><path d="m119.21875 262.921875c2.84375 1.644531 5.113281 4.148437 6.800781 7.515625 1.570313 3.1875 2.351563 6.554688 2.351563 10.101562v7.503907c0 3.410156-.890625 5.808593-2.675782 7.199219-1.78125 1.390624-3.941406 1.351562-6.480468-.113282l-3.371094-1.945312v19.464844l-5.84375-3.375v-51.671876zm3.492188 14.472656c0-1.347656-.300782-2.609375-.910157-3.785156s-1.417969-2.054687-2.429687-2.640625l-3.527344-2.035156v16.539062l3.527344 2.035156c.929687.535157 1.71875.550782 2.367187.046876.648438-.503907.972657-1.375.972657-2.613282zm0 0"/><path d="m141.640625 275.207031c2.578125 1.488281 4.769531 3.964844 6.574219 7.425781 1.804687 3.460938 2.707031 6.894532 2.707031 10.304688v28.207031c0 3.4375-.910156 5.832031-2.726563 7.191407-1.8125 1.355468-4 1.296874-6.554687-.179688-2.578125-1.488281-4.761719-3.957031-6.554687-7.414062-1.796876-3.453126-2.691407-6.886719-2.691407-10.296876v-28.207031c0-3.4375.90625-5.832031 2.722657-7.191406 1.8125-1.355469 3.988281-1.304687 6.523437.160156zm3.1875 14.046875c0-1.238281-.328125-2.476562-.976563-3.714844-.648437-1.242187-1.4375-2.132812-2.367187-2.667968-.925781-.535156-1.71875-.5625-2.378906-.074219-.664063.484375-.992188 1.34375-.992188 2.582031v28.289063c0 1.238281.328125 2.480469.992188 3.726562.660156 1.246094 1.453125 2.136719 2.378906 2.675781.929687.535157 1.71875.558594 2.367187.066407.648438-.492188.976563-1.355469.976563-2.59375zm0 0"/><path d="m172.011719 345.074219-15.925781-9.195313v-51.671875l5.84375 3.375v43.917969l10.082031 5.820312zm0 0"/><path d="m181.878906 350.769531-5.84375-3.375v-51.671875l5.84375 3.375zm0 0"/><path d="m196.320312 359.769531c-2.574218-1.488281-4.765624-3.957031-6.570312-7.402343-1.804688-3.445313-2.707031-6.875-2.707031-10.285157v-28.207031c0-3.4375.90625-5.832031 2.722656-7.191406s4-1.296875 6.554687.175781c2.578126 1.488281 4.765626 3.960937 6.558594 7.417969 1.792969 3.453125 2.691406 6.886718 2.691406 10.292968v5.898438l-6.0625-3.5v-6.0625c0-1.234375-.332031-2.484375-.988281-3.746094-.664062-1.261718-1.457031-2.160156-2.382812-2.695312-.929688-.535156-1.71875-.550782-2.367188-.046875-.648437.507812-.972656 1.375-.972656 2.613281v28.289062c0 1.238282.324219 2.476563.972656 3.71875.648438 1.242188 1.4375 2.128907 2.367188 2.664063.925781.535156 1.71875.5625 2.382812.078125.65625-.484375.988281-1.347656.988281-2.585938v-7.132812l6.0625 3.5v7.214844c0 3.4375-.910156 5.828125-2.722656 7.171875-1.8125 1.347656-3.988281 1.285156-6.527344-.179688zm0 0"/><path d="m210.363281 367.21875v-51.714844l16.640625 9.605469v7.835937l-10.796875-6.234374v14.105468l7.886719 4.554688v7.835937l-7.886719-4.554687v14.105468l10.796875 6.230469v7.835938zm0 0"/></g></svg>