<svg viewBox="-6 0 512 512.00097" xmlns="http://www.w3.org/2000/svg"><path d="m494.394531 418.804688-13.773437-8.496094c-.867188-39.824219-4.417969-79.554688-10.640625-118.917969-3.050781-19.296875-14.636719-36.1875-31.539063-45.988281l-165.332031-96.078125-36.046875 20.710937-8.808594-27.945312-117.585937-68.441406-93.160157 54.230468v54.253906l-17.507812 10.109376v83.632812c0 15.292969 8.160156 29.421875 21.40625 37.066406l334.625 192.921875c.277344.160157.5625.285157.84375.414063l6.371094 3.710937c4.597656 2.671875 10.273437 2.683594 14.878906.027344l110.699219-63.863281c6.546875-3.804688 10.574219-10.804688 10.574219-18.378906 0-3.652344-1.894532-7.046876-5.003907-8.96875zm0 0" fill="#e33400"/><path d="m273.109375 222.867188v-73.542969l66.636719 38.886719v73.046874zm0 0" fill="#e33400"/><g fill="#23292e"><path d="m199.074219 390.796875-45.421875 26.238281 1.457031-57.167968zm0 0"/><path d="m128.671875 349.152344-45.421875 26.234375 1.457031-57.164063zm0 0"/><path d="m329.003906 464.308594-45.421875 26.238281 1.457031-57.167969zm0 0"/></g><path d="m0 192.242188 125.472656-72.441407 228.5625 132.902344-124.402344 71.828125zm0 0" fill="#e33400"/><path d="m162.996094 212.597656 74.066406-42.5625-8.808594-27.945312-117.585937-68.441406-93.160157 54.230468v60.585938l129.671876 74.980468 15.816406-9.207031zm0 0" fill="#ed5100"/><path d="m162.996094 212.597656 74.066406-42.5625-8.808594-27.945312-93.160156 54.230468 12.085938 38.335938 15.816406-9.207031zm0 0" fill="#e33400"/><path d="m162.996094 225.449219-15.816406 9.207031v28.789062l15.816406-9.207031zm0 0" fill="#872e02"/><path d="m359.863281 354.679688c-3.050781-19.296876-14.636719-36.191407-31.539062-45.988282l-98.691407-57.207031-66.636718-38.886719v73.542969l-162.996094-93.898437v83.632812c0 15.292969 8.160156 29.421875 21.40625 37.066406l334.625 192.921875c6.53125 3.769531 14.691406-.945312 14.691406-8.488281v-4.480469c0-46.285156-3.628906-92.5-10.859375-138.214843zm0 0" fill="#872e02"/><path d="m377.742188 483.964844 102.792968-60.007813.25-.144531c-.097656-14.894531-.550781-29.777344-1.398437-44.636719l-9.269531 17.457031c-3.15625 5.941407-7.929688 10.867188-13.769532 14.210938l-43.96875 25.179688c-6.601562 3.78125-14.113281 5.683593-21.71875 5.503906l-21.457031-.507813c.863281 14.710938 1.316406 29.445313 1.441406 44.191407 2.402344.171874 4.839844-.242188 7.097657-1.246094zm0 0" fill="#cecece"/><path d="m363.953125 345.46875 7.796875 59.574219c1.035156 7.921875 9.789062 12.25 16.714844 8.265625l74.777344-43.027344c5.742187-3.304688 8.914062-9.75 8.027343-16.316406l-9.046875-67.078125c-.40625-3.03125-3.769531-4.675781-6.417968-3.136719l-86.140626 50.105469c-4.070312 2.367187-6.320312 6.945312-5.710937 11.613281zm0 0" fill="#2e373d"/><path d="m386.503906 397.769531 74.78125-43.027343c5.21875-3.003907 8.277344-8.605469 8.132813-14.527344l-7.191407-53.328125c-.410156-3.03125-3.773437-4.675781-6.417968-3.136719l-86.144532 50.105469c-3.789062 2.203125-5.96875 6.328125-5.761718 10.652343l5.886718 44.996094c1.035157 7.921875 9.789063 12.25 16.714844 8.265625zm0 0" fill="#304e75"/><path d="m354.007812 400.992188-3.703124-39.054688c-1.417969-14.917969-9.980469-28.214844-22.972657-35.675781l-74.003906-42.488281c-3.742187-2.148438-8.40625.554687-8.40625 4.867187v30.730469c0 8.835937 4.199219 17.148437 11.308594 22.398437l87.859375 64.832031c4.339844 3.203126 10.425781-.238281 9.917968-5.609374zm0 0" fill="#243b58"/><path d="m455.152344 284.128906-46.605469 27.109375 44.65625 32.953125c4.339844 3.207032 10.429687-.238281 9.917969-5.609375l-3.707032-39.054687c-.511718-5.414063-1.996093-10.609375-4.261718-15.398438zm0 0" fill="#59718b"/><path d="m480.785156 423.8125c-.097656-14.894531-.546875-29.777344-1.398437-44.636719l-9.269531 17.457031c-.015626.023438-.027344.046876-.039063.070313-2.929687 5.480469-5.09375 11.332031-5.855469 17.496094l-2.566406 20.777343zm0 0" fill="#fff"/><path d="m370.644531 485.210938c-.125-14.746094-.578125-29.480469-1.441406-44.195313l-3.613281-2.082031c-3.042969-1.757813-6.851563.4375-6.851563 3.953125v23.667969c0 6.554687 2.535157 12.765624 6.933594 17.410156 1.585937.707031 3.265625 1.125 4.972656 1.246094zm0 0" fill="#cecece"/><path d="m377.742188 483.964844 32.738281-19.113282-6.488281-14.816406c-2.300782-5.242187-7.515626-8.382812-13.238282-8.507812-.03125 0-.0625 0-.09375 0l-21.457031-.507813c.863281 14.710938 1.316406 29.449219 1.441406 44.191407 2.402344.171874 4.839844-.242188 7.097657-1.246094zm0 0" fill="#fff"/><path d="m404.246094 443.910156 57.410156-32.953125-2.292969 17.5625c-.46875 3.589844-2.589843 6.757813-5.734375 8.558594l-34.59375 19.792969c-3.550781 2.035156-8.082031.648437-9.890625-3.023438zm0 0" fill="#2e373d"/><path d="m295.425781 464.253906c0 23.558594-14.324219 34.390625-31.996093 24.1875-17.671876-10.203125-31.996094-37.574218-31.996094-61.136718s14.324218-34.390626 31.996094-24.1875c17.671874 10.199218 31.996093 37.574218 31.996093 61.136718zm0 0" fill="#2e373d"/><path d="m279.160156 454.863281c0 11.582031-7.042968 16.90625-15.730468 11.890625s-15.730469-18.472656-15.730469-30.058594c0-11.585937 7.042969-16.910156 15.730469-11.894531 8.6875 5.019531 15.730468 18.476563 15.730468 30.0625zm0 0" fill="#cecece"/><path d="m271.960938 450.707031c0 6.28125-3.820313 9.167969-8.53125 6.449219-4.710938-2.722656-8.53125-10.019531-8.53125-16.304688 0-6.28125 3.820312-9.167968 8.53125-6.449218 4.710937 2.71875 8.53125 10.019531 8.53125 16.304687zm0 0" fill="#627681"/><path d="m95.097656 349.097656c0 23.558594-14.324218 34.390625-31.996094 24.1875-17.671874-10.203125-32-37.574218-32-61.136718s14.328126-34.390626 32-24.1875c17.667969 10.199218 31.996094 37.574218 31.996094 61.136718zm0 0" fill="#2e373d"/><path d="m78.832031 339.703125c0 11.585937-7.042969 16.910156-15.734375 11.894531-8.6875-5.015625-15.730468-18.472656-15.730468-30.058594 0-11.585937 7.042968-16.910156 15.730468-11.894531 8.691406 5.019531 15.734375 18.476563 15.734375 30.058594zm0 0" fill="#cecece"/><path d="m71.632812 335.550781c0 6.28125-3.820312 9.167969-8.53125 6.449219-4.714843-2.722656-8.535156-10.019531-8.535156-16.304688 0-6.28125 3.820313-9.171874 8.535156-6.449218 4.710938 2.71875 8.53125 10.019531 8.53125 16.304687zm0 0" fill="#627681"/><path d="m165.5 390.742188c0 23.5625-14.328125 34.390624-32 24.191406-17.671875-10.203125-31.996094-37.574219-31.996094-61.136719s14.324219-34.394531 31.996094-24.191406 32 37.574219 32 61.136719zm0 0" fill="#2e373d"/><path d="m149.234375 381.351562c0 11.585938-7.042969 16.910157-15.734375 11.894532-8.6875-5.015625-15.730469-18.476563-15.730469-30.058594 0-11.585938 7.042969-16.910156 15.730469-11.894531 8.691406 5.015625 15.734375 18.476562 15.734375 30.058593zm0 0" fill="#cecece"/><path d="m142.035156 377.195312c0 6.28125-3.820312 9.171876-8.535156 6.449219-4.710938-2.71875-8.53125-10.019531-8.53125-16.300781 0-6.285156 3.820312-9.171875 8.53125-6.449219 4.714844 2.71875 8.535156 10.015625 8.535156 16.300781zm0 0" fill="#627681"/><path d="m169.941406 112.015625v-.566406l-.046875.003906c-.425781-5.027344-3.703125-9.777344-9.957031-13.386719-14.835938-8.566406-40.746094-7.492187-57.875 2.398438-9.300781 5.371094-14.089844 12.234375-14.160156 18.757812h-.011719v21.175782l.03125-.003907c.03125 5.410157 3.296875 10.574219 9.984375 14.4375 14.835938 8.5625 40.746094 7.488281 57.875-2.398437 9.285156-5.359375 14.042969-12.207032 14.128906-18.71875l.03125-.003906v-.734376c0-.003906 0-.003906 0-.007812v-19.824219c.015625-.378906.015625-.753906 0-1.128906zm0 0" fill="#872e02"/><path d="m155.78125 131.480469c-17.128906 9.886719-43.039062 10.960937-57.875 2.398437-14.835938-8.566406-12.972656-23.527344 4.15625-33.414062 17.128906-9.890625 43.039062-10.964844 57.875-2.398438 14.835938 8.5625 12.972656 23.523438-4.15625 33.414063zm0 0" fill="#e33400"/><path d="m147.179688 263.445312v-28.789062l-12.085938-38.335938-117.585938-68v60.144532zm0 0" fill="#872e02"/><path d="m401.507812 182.308594-72.03125-41.5625-242.703124-140.125c-3.003907-1.734375-5.839844.5625-8.347657 2.039062-4 2.351563-30.742187 18.085938-40.117187 23.601563-2.714844 1.59375-7.097656 3.242187-7.097656 6.964843v39.523438c0 1.746094.929687 3.355469 2.441406 4.226562l240.261718 138.71875v27.527344c0 1.746094.929688 3.355469 2.441407 4.226563l47.472656 27.410156h.003906c1.480469.851563 3.363281.859375 4.847657.015625 0 0 48.800781-27.785156 49.0625-27.996094.523437-.460937.96875-1.074218 1.246093-1.714844 0 0 24.75-57.222656 24.8125-57.484374.5-2.058594-.445312-4.3125-2.292969-5.371094zm-131.488281-19.660156-24.378906-14.074219 4.707031-2.714844 24.375 14.074219zm13.660157 19.058593 6.027343 3.394531v15.734376l-6.027343 3.570312zm5.796874-7.941406 4.546876-2.691406 23.257812 13.429687-4.269531 2.527344zm13.84375 19.007813-3.847656 2.28125v-4.449219zm18.832032-16.730469-18.492188-10.675781 18.492188-10.957032zm-32.929688-47.265625 28.886719 16.679687-24.148437 14.308594-4.738282-2.734375zm-9.761718 22.613281-19.351563-11.171875 19.351563-11.171875zm-41.277344-52.078125 36.628906 21.144531-24.464844 14.128907-12.164062-7.023438zm-29.628906 11.144531 19.863281-11.765625v23.234375zm14.367187 19.566407-4.644531 2.75-24-13.859376 4.640625-2.75zm-37.496094-61.171876 37.582031 21.695313-24.152343 14.308594-13.429688-7.753907zm-29.347656 11.308594 19.582031-11.308594v22.613282zm14.617187 19.710938-4.703124 2.714844-24.378907-14.074219 4.703125-2.714844zm-33.964843-59.136719 34.050781 19.660156-24.464844 14.125-9.585937-5.53125zm-47.515625-27.429687 32.871094 18.976562-24.464844 14.125-8.40625-4.851562zm32.78125 58.449218-4.703125 2.714844-24.375-14.074219 4.703125-2.714843zm-81.019532-30.070312 20.042969 11.570312-20.042969 11.574219zm37.292969 49.78125-31.953125-18.449219 24.46875-14.125 7.484375 4.324219zm1.179688-48.851563-8.664063 5.003907-24.996094-14.429688 33.660157-19.804688zm3.703125 12.144531-2.605469-1.503906 4.703125-2.714844 2.605469 1.503907zm4.882812 14.09375 19.496094 11.253907-19.496094 11.257812zm38.929688 50.726563-34.136719-19.707031 24.464844-14.125 9.671875 5.582031zm0-56.226563-19.582032-11.308593 19.582032-11.308594zm4.882812 19.523438-4.789062-2.769531 4.703125-2.714844 4.789062 2.769531zm4.882813 14.089844 19.496093 11.257812-19.496093 11.257813zm42.996093 53.074218-38.203124-22.054687 24.464843-14.125 13.738281 7.929687zm4.847657-36.722656-8.820313-5.09375 4.703125-2.714844 8.761719 5.058594zm4.914062 14.109375 19.152344 11.054688-19.152344 11.347656zm41.277344 52.082031-36.578125-21.117187 24.152344-14.308594 12.425781 7.175781zm-2.789063-41.132812 4.644532-2.75 7.960937 4.597656-4.703125 2.714844zm12.550782 18.519531 19.730468 11.390625-19.730468 11.390625zm29.492187 17.027344 3.894531 2.246094v28.253906l-28.359374-16.375zm13.660157 64.761719v-22.929688l6.027343-3.570312v23.023437zm30.550781-17.625-14.757813 8.515625v-23.175781l13.660156-8.09375 1.097657.621093zm24.804687-3.953125-7.117187-4.109375v-4.105469l7.117187 4.007813zm0-15.414063-7.117187-4.007812v-44.257813l7.117187 4.105469zm24.523438 15.355469-4.933594 11.371094-6.996094-4.039063 3.03125-6.996094 8.898438-5.054687zm0-15.949219-12.738282 7.238282-2.023437-1.140626v-44.03125l14.761719 8.519532zm9.765625 32.582032v-14.601563l7.082031-16.320313 8.378906-4.761718zm0-38.128907v-18.234375l15.917969 9.1875zm0 0" fill="#cecece"/><path d="m401.507812 182.308594-72.03125-41.5625-242.703124-140.125c-3.003907-1.734375-5.839844.5625-8.347657 2.039062-4 2.351563-30.742187 18.085938-40.117187 23.601563-2.714844 1.59375-7.097656 3.242187-7.097656 6.964843v39.523438c0 1.746094.929687 3.355469 2.441406 4.226562l240.261718 138.71875v27.527344c0 1.746094.929688 3.355469 2.441407 4.226563l47.472656 27.410156h.003906c1.480469.851563 3.363281.859375 4.847657.015625 0 0 48.800781-27.785156 49.0625-27.996094.523437-.460937.96875-1.074218 1.246093-1.714844 0 0 24.75-57.222656 24.8125-57.484374.5-2.058594-.445312-4.3125-2.292969-5.371094zm-83.398437-36.851563-38.429687 22.765625-34.039063-19.648437 38.933594-22.476563zm-43.296875-25-38.933594 22.480469-41.601562-24.019531 38.433594-22.769531zm-51.804688-29.910156-38.433593 22.769531-42.960938-24.804687 38.929688-22.480469zm-52.226562-30.152344-38.933594 22.480469-38.929687-22.480469 38.929687-22.476562zm-86.425781-49.894531 37.730469 21.78125-38.933594 22.476562-37.363282-21.570312zm-43.378907 31.183594 232.9375 134.488281v28.25l-232.9375-134.488281zm248.730469 202.203125-6.027343-3.480469v-58.699219l6.027343 3.394531zm24.523438 14.15625-14.757813-8.519531v-58.917969l14.757813 8.320312zm9.765625 5.558593v-59.175781l20.605468 11.613281zm12.558594-4.429687 18.105468-41.789063 11.617188-6.601562-18.144532 41.8125zm34.121093-19.386719-8.414062 4.785156 18.144531-41.8125 8.378906-4.761718zm-19.855469-31.449218-61.34375-34.570313 38.335938-22.707031 61.429688 35.445312zm0 0" fill="#ededed"/><path d="m175.121094 237.527344 61.273437 35.378906v55.609375l-61.273437-35.378906zm0 0" fill="#cecece"/><path d="m5.457031 227.234375 25.644531 14.773437v55.609376l-25.644531-14.773438zm0 0" fill="#cecece"/><path d="m402.691406 234.84375-70.167968 40.511719v8.066406l24.777343 14.304687 70.375-40.628906v-7.828125zm0 0" fill="#cecece"/><path d="m332.523438 275.355469v8.066406l24.777343 14.304687v-7.828124zm0 0" fill="#525e65"/><path d="m357.300781 289.898438 70.375-40.632813v7.832031l-70.375 40.628906zm0 0" fill="#627681"/><path d="m409.082031 231.707031-1.253906-.722656c-2.058594-1.1875-3.941406-1.28125-5.402344-.484375l-.046875-.066406-56.5 32.621094c-1.917968.941406-3.148437 3.375-3.148437 6.910156v3.21875l18.027343 10.410156 56.710938-32.636719v-3.222656c0-6.175781-3.753906-13.351563-8.386719-16.027344zm0 0" fill="#ed5100"/><path d="m360.757812 283.59375-18.027343-10.40625v-3.222656c0-6.179688 3.753906-9.015625 8.386719-6.34375l1.25.722656c4.632812 2.675781 8.390624 9.851562 8.390624 16.027344zm0 0" fill="#243b58"/><path d="m380.035156 248.417969-1.253906-.722657c-2.460938-1.421874-4.671875-1.269531-6.207031.097657l-.082031-.105469-26.613282 15.367188c1.433594-.707032 3.253906-.578126 5.238282.566406l1.25.722656c4.632812 2.675781 8.390624 9.851562 8.390624 16.027344v3.222656l27.664063-15.925781v-3.222657c0-6.175781-3.753906-13.351562-8.386719-16.027343zm0 0" fill="#304e75"/><path d="m225.792969 369.363281-28.378907-16.34375v-28.257812l23.507813 13.539062c.769531.441407 1.605469.648438 2.433594.648438 1.6875 0 3.332031-.875 4.234375-2.445313 1.34375-2.335937.542968-5.320312-1.792969-6.667968l-210.320313-121.09375c-2.335937-1.347657-5.324218-.542969-6.667968 1.796874-1.34375 2.335938-.542969 5.320313 1.792968 6.664063l24.554688 14.136719v28.257812l-19.683594-11.332031c-2.332031-1.34375-5.320312-.542969-6.664062 1.796875-1.347656 2.335938-.542969 5.320312 1.792968 6.664062l210.320313 121.097657c.765625.441406 1.605469.652343 2.429687.652343 1.691407 0 3.332032-.878906 4.238282-2.449218 1.34375-2.335938.542968-5.320313-1.796875-6.664063zm-38.144531-21.964843-41.277344-23.765626v-28.257812l41.277344 23.765625zm-51.039063-29.386719-42.996094-24.753907v-28.257812l42.996094 24.753906zm-91.691406-81.050781 38.933593 22.417968v28.257813l-38.933593-22.414063zm0 0" fill="#ededed"/><path d="m494.394531 418.804688-13.808593-8.519532c.09375 4.507813.167968 9.015625.199218 13.527344l-101.59375 59.417969c-5.035156 2.945312-11.328125 2.664062-16.078125-.71875l-8.007812 4.644531v18.089844l8.140625 4.742187c4.597656 2.671875 10.273437 2.683594 14.878906.027344l110.703125-63.863281c6.542969-3.804688 10.570313-10.804688 10.570313-18.378906 0-3.652344-1.894532-7.046876-5.003907-8.96875zm-116.277343 73.105468c-.003907 0-.003907 0-.007813.003906l110.714844-63.871093zm0 0" fill="#2e373d"/><path d="m494.394531 418.804688-13.808593-8.519532c.09375 4.507813.167968 9.015625.199218 13.527344l-101.59375 59.417969c-5.035156 2.945312-11.328125 2.664062-16.078125-.71875l-8.007812 4.644531 8.152343 4.734375c4.589844 2.664063 10.253907 2.675781 14.851563.023437l110.714844-63.871093s9.300781-4.507813 5.570312-9.238281zm0 0" fill="#23292e"/></svg>