<svg viewBox="0 -78 512 512" xmlns="http://www.w3.org/2000/svg"><path d="m121.011719 188.128906-41.808594-29.414062c-6.148437-15.371094-16.394531-29.03125-28.003906-35.730469-18.8125-10.863281-34.0625.667969-34.0625 25.75 0 25.085937 15.25 54.226563 34.0625 65.085937 8.917969 5.148438 17.03125 5.261719 23.105469 1.289063zm0 0" fill="#23292e"/><path d="m360.742188 325.945312-41.808594-29.414062c-6.148438-15.371094-16.394532-29.03125-28-35.734375-18.8125-10.859375-34.066406.667969-34.066406 25.753906 0 25.085938 15.253906 54.222657 34.066406 65.085938 8.917968 5.148437 17.03125 5.257812 23.101562 1.285156zm0 0" fill="#23292e"/><path d="m511.957031 231.113281c-.054687-2.191406-.230469-4.363281-.53125-6.507812-2.167969-15.59375-10.625-29.773438-23.628906-39.058594l-75.765625-54.101563c-4.738281-5.25-6.902344-14.429687-9.996094-20.925781-9.234375-19.402343-21.574218-37.15625-36.835937-52.316406-20.132813-20-47.585938-37.308594-73.960938-48.339844-34.925781-14.609375-67.199219-3.488281-101.023437 6.800781-9.078125-5.191406-29.714844-18.351562-34.242188-16.140624-6.554687 3.203124-141.683594 82.960937-151.449218 88.695312-2.621094 1.398438-4.523438 4.128906-4.523438 7.519531v23.328125c0 16.757813 8.945312 32.242188 23.464844 40.617188 0 0 310.847656 180.339844 320.648437 185.191406l.316407.183594c10.683593 6.328125 22.855468 9.71875 35.273437 9.828125 12.640625.105469 25.078125-3.191407 36.003906-9.554688l82.574219-48.0625c8.496094-4.945312 13.71875-14.03125 13.71875-23.859375 0 0-.015625-42.757812-.042969-43.296875zm0 0" fill="#ffd613"/><path d="m12.785156 89.324219 27.160156 15.539062 150.269532-88.203125-27.164063-15.539062c-2.722656-1.554688-5.746093-1.394532-8.175781-.121094l-.027344-.011719-150.324218 88.230469c2.445312-1.308594 5.511718-1.464844 8.261718.105469zm0 0" fill="#e7c712"/><path d="m487.796875 185.546875-76.398437-54.554687-4.699219 2.757812 70.78125 86.398438c5.664062 6.914062 3.742187 17.261718-4.03125 21.679687l-55.351563 31.46875c-8.949218 5.082031-19.84375 5.363281-29.039062.746094l-119.292969-59.914063-8.636719 5.066406 76.402344 54.554688c11.949219 8.535156 20.054688 21.203125 22.976562 35.304688 6.277344 1.769531 12.792969 2.6875 19.371094 2.6875 12.535156 0 24.851563-3.300782 35.710938-9.566407l96.410156-55.664062v-13.941407c0-18.664062-9.015625-36.175781-24.203125-47.023437zm0 0" fill="#e7c712"/><path d="m415.589844 302.175781c-10.859375 6.269531-23.175782 9.566407-35.710938 9.566407-6.578125 0-13.09375-.914063-19.371094-2.683594-2.921874-14.105469-11.027343-26.773438-22.980468-35.308594l-76.398438-54.550781-8.527344-18.699219c-15.769531-34.582031-41.878906-63.417969-74.730468-82.535156l-25.230469-14.09375c-23.953125-13.9375-52.625-17.277344-79.140625-9.210938l-33.554688 10.207032-27.164062-15.539063c-5.691406-3.261719-12.78125.851563-12.78125 7.410156v23.328125c0 16.757813 8.945312 32.242188 23.464844 40.617188l320.964844 185.375c10.683593 6.328125 22.855468 9.71875 35.273437 9.828125 12.640625.105469 25.078125-3.191407 36.003906-9.554688l82.574219-48.0625c8.496094-4.945312 13.71875-14.03125 13.71875-23.859375v-27.898437zm0 0" fill="#c98000"/><path d="m358.890625 303c.003906.011719.007813.023438.011719.035156.171875.53125.332031 1.0625.488281 1.59375.101563.347656.199219.695313.292969 1.042969.097656.355469.199218.714844.289062 1.074219.191406.765625.371094 1.535156.535156 2.3125 6.277344 1.769531 12.792969 2.6875 19.371094 2.6875 12.535156 0 24.851563-3.300782 35.707032-9.570313l.265624-.152343c-2.308593.097656-3.847656-9.082032-6.453124-11.835938-9.375-9.929688-18.703126.613281-30.003907.6875-11.554687.082031-23.71875-6.652344-34.335937-10.6875.035156.035156.0625.070312.097656.105469 6.304688 6.421875 10.988281 14.207031 13.734375 22.707031zm0 0" fill="#fff"/><g fill="#2e373d"><path d="m100.1875 170.769531-20.476562-11.820312v-27.300781l20.476562 11.820312zm0 0"/><path d="m141.121094 194.402344-20.476563-11.820313v-27.300781l20.476563 11.820312zm0 0"/><path d="m182.039062 218.027344-20.472656-11.820313v-27.300781l20.472656 11.820312zm0 0"/><path d="m222.976562 241.660156-20.476562-11.820312v-27.300782l20.476562 11.824219zm0 0"/><path d="m263.894531 265.285156-20.472656-11.820312v-27.300782l20.472656 11.820313zm0 0"/><path d="m120.660156 209.890625-20.472656-11.820313v-27.300781l20.472656 11.820313zm0 0"/><path d="m161.597656 233.527344-20.476562-11.824219v-27.300781l20.476562 11.824218zm0 0"/><path d="m202.515625 257.148438-20.476563-11.820313v-27.300781l20.476563 11.824218zm0 0"/><path d="m243.453125 280.785156-20.476563-11.824218v-27.300782l20.476563 11.824219zm0 0"/><path d="m324.996094 325.882812c0 25.085938-15.25 36.613282-34.0625 25.753907-18.816406-10.863281-34.066406-40.003907-34.066406-65.089844 0-25.082031 15.25-36.613281 34.066406-25.75 18.8125 10.863281 34.0625 40.003906 34.0625 65.085937zm0 0"/></g><path d="m307.679688 315.886719c0 12.332031-7.496094 18.003906-16.746094 12.660156-9.25-5.339844-16.75-19.667969-16.75-32s7.5-18.003906 16.75-12.660156c9.25 5.339843 16.746094 19.667969 16.746094 32zm0 0" fill="#cecece"/><path d="m300.015625 311.460938c0 6.691406-4.066406 9.765624-9.082031 6.867187-5.019532-2.894531-9.085938-10.667969-9.085938-17.355469s4.066406-9.765625 9.085938-6.867187c5.015625 2.894531 9.082031 10.667969 9.082031 17.355469zm0 0" fill="#627681"/><path d="m85.265625 188.070312c0 25.082032-15.25 36.613282-34.066406 25.75-18.8125-10.859374-34.0625-40-34.0625-65.085937 0-25.082031 15.25-36.613281 34.0625-25.75 18.816406 10.859375 34.066406 40 34.066406 65.085937zm0 0" fill="#2e373d"/><path d="m67.949219 178.070312c0 12.335938-7.5 18.003907-16.75 12.664063s-16.746094-19.667969-16.746094-32.003906c0-12.332031 7.5-18 16.746094-12.660157 9.25 5.339844 16.75 19.667969 16.75 32zm0 0" fill="#cecece"/><path d="m60.285156 173.648438c0 6.6875-4.066406 9.761718-9.085937 6.867187-5.015625-2.898437-9.082031-10.667969-9.082031-17.359375 0-6.6875 4.066406-9.761719 9.082031-6.867188 5.019531 2.898438 9.085937 10.667969 9.085937 17.359376zm0 0" fill="#627681"/><path d="m264.847656 210.585938-24.300781-44.835938c-5.15625-9.511719-1.800781-21.394531 7.566406-26.804688l104.652344-60.417968c8.710937-5.03125 19.851563-2.050782 24.890625 6.660156l26.121094 45.1875zm0 0" fill="#304e75"/><path d="m156.597656 165.164062 87.875 45.421876-13.929687-25.8125c-12.90625-23.917969-32.207031-43.78125-55.742188-57.367188l-9.902343-5.71875c-2.714844-1.566406-5.492188-2.976562-8.300782-4.308594zm0 0" fill="#243b58"/><path d="m360.417969 76.199219c-2.617188.207031-5.230469.925781-7.652344 2.328125l-25.585937 14.769531 63.515624 32.832031-13.929687-25.8125c-4.648437-8.605468-10.148437-16.664062-16.347656-24.117187zm0 0" fill="#59718b"/><path d="m143.992188 112.273438c-22.921876-7.714844-47.890626-8.117188-71.339844-.769532l-12.367188 3.875 83.707032 43.269532zm0 0" fill="#243b58"/><path d="m511.550781 225.453125-16.890625 10.554687c-3.320312 2.074219-5.492187 5.570313-5.878906 9.464844l-1.519531 15.320313 24.738281-14.28125v-13.941407c0-2.398437-.160156-4.773437-.449219-7.117187zm0 0" fill="#fff"/><path d="m291.875 17.304688-108.71875 62.769531v12.492187l38.390625 22.164063 109.03125-62.949219v-12.128906zm0 0" fill="#cecece"/><path d="m183.15625 80.074219v12.492187l38.390625 22.164063v-12.128907zm0 0" fill="#525e65"/><path d="m221.546875 102.601562 109.03125-62.949218v12.128906l-109.03125 62.949219zm0 0" fill="#627681"/><path d="m314.765625 42.226562-6.382813-29.699218c-.710937-3.3125-2.789062-6.167969-5.726562-7.863282l-3.328125-1.921874c-1.683594-.972657-3.675781-.65625-5.015625.507812l-86.824219 49.914062c-1.09375.5-1.992187 1.445313-2.367187 2.71875l-6.152344 20.824219 27.933594 16.125zm0 0" fill="#fff"/><path d="m198.972656 76.707031 6.148438-20.824219c.800781-2.695312 3.910156-3.941406 6.347656-2.53125l3.328125 1.921876c2.933594 1.691406 5.011719 4.546874 5.726563 7.863281l6.378906 29.695312zm0 0" fill="#627681"/><path d="m247.292969 48.765625-3.910157 2.257813v-4.933594l11.480469-6.628906v4.933593l-3.890625 2.246094v27.582031l-3.679687 2.125zm0 0" fill="#2e373d"/><path d="m259.195312 62-.890624 7.988281-3.832032 2.210938 4.144532-34.90625 5.0625-2.921875 4.085937 30.15625-3.867187 2.230468-.859376-6.976562zm1.933594-18.707031-1.359375 13.601562 2.722657-1.570312zm0 0" fill="#2e373d"/><path d="m283.859375 55.234375-3.949219 2.28125-2.820312-8.726563-2.84375 11.996094-3.949219 2.28125 4.785156-19.113281-4.785156-13.398437 4.066406-2.351563 2.726563 8.46875 2.703125-11.601563 4.066406-2.347656-4.785156 18.929688zm0 0" fill="#2e373d"/><path d="m290.59375 51.347656-3.679688 2.125v-32.515625l3.679688-2.125zm0 0" fill="#2e373d"/></svg>