<svg viewBox="-49 0 512 512.00025" xmlns="http://www.w3.org/2000/svg"><path d="m413.339844 383.390625-45.335938-26.175781c-.210937-.125-.417968-.261719-.625-.382813-.226562-.128906-.449218-.242187-.671875-.367187l-111.761719-64.523438-.273437.160156v-177.261718l28.6875-16.0625-156.765625-90.589844c-18.46875-10.875-41.375-10.917969-59.882812-.105469-19.914063 11.632813-36.507813 28.183594-48.195313 48.0625l-18.515625 31.496094 28.6875 16.5625v227.152344l22.695312 13.101562 14.199219-8.195312v-2.53125c.839844.246093 1.671875.578125 2.484375 1.046875l69.617188 40.191406c10.324218 5.960938 16.667968 16.992188 16.628906 28.914062l151.835938 87.664063 52.710937-30.429687c6.296875 1.972656 11.980469 1.324218 16.546875-1.585938l15.199219-8.953125c.015625-.007813.03125-.015625.042969-.023437l.003906-.003907c4.136718-2.628906 7.347656-7.113281 9.277344-13.148437l13.410156-7.742188zm0 0" fill="#2e373d"/><path d="m142.09375 388.609375c0-25.480469-15.492188-55.082031-34.601562-66.117187-8.902344-5.140626-17.019532-5.339844-23.148438-1.515626l-.003906-.003906-14.167969 8.363282c-7.664063 4.039062-12.550781 14.003906-12.550781 28.308593 0 25.480469 15.492187 55.082031 34.605468 66.117188 8.847657 5.109375 16.917969 5.332031 23.039063 1.578125l.007813-.003906c.078124-.046876.164062-.09375.242187-.144532l15.207031-8.957031c.011719-.007813.027344-.011719.039063-.019531l.003906-.003906c6.960937-4.421876 11.328125-14.070313 11.328125-27.601563zm0 0" fill="#23292e"/><path d="m126.832031 397.601562c0 25.480469-15.496093 37.195313-34.605469 26.160157-19.113281-11.035157-34.605468-40.636719-34.605468-66.117188s15.492187-37.195312 34.605468-26.160156c19.109376 11.035156 34.605469 40.636719 34.605469 66.117187zm0 0" fill="#2e373d"/><path d="m118.199219 392.617188c0 19.128906-11.628907 27.917968-25.972657 19.636718s-25.972656-30.5-25.972656-49.628906c0-19.125 11.628906-27.914062 25.972656-19.632812s25.972657 30.5 25.972657 49.625zm0 0" fill="#23292e"/><path d="m215.238281 430.449219c0-25.480469-15.492187-55.082031-34.601562-66.117188-8.902344-5.140625-17.019531-5.339843-23.148438-1.515625l-.003906-.003906-14.167969 8.363281c-7.664062 4.039063-12.550781 14.003907-12.550781 28.308594 0 25.480469 15.492187 55.082031 34.605469 66.117187 8.972656 5.179688 17.144531 5.347657 23.292968 1.429688l15.175782-8.9375c.023437-.015625.046875-.027344.070312-.042969h.003906c6.957032-4.421875 11.324219-14.070312 11.324219-27.601562zm0 0" fill="#23292e"/><path d="m199.976562 439.445312c0 25.480469-15.496093 37.191407-34.605468 26.160157-19.109375-11.035157-34.605469-40.636719-34.605469-66.121094 0-25.480469 15.496094-37.191406 34.605469-26.160156 19.113281 11.035156 34.605468 40.636719 34.605468 66.121093zm0 0" fill="#2e373d"/><path d="m191.34375 434.460938c0 19.125-11.628906 27.917968-25.972656 19.636718-14.34375-8.285156-25.972656-30.5-25.972656-49.628906 0-19.125 11.628906-27.917969 25.972656-19.636719s25.972656 30.5 25.972656 49.628907zm0 0" fill="#23292e"/><path d="m165.371094 407.160156-73.144532-41.839844c-5.097656-2.945312-9.226562.179688-9.226562 6.972657 0 6.796875 4.128906 14.691406 9.226562 17.632812.476563.273438 72.46875 41.453125 73.144532 41.84375 5.097656 2.941407 9.226562-.183593 9.226562-6.976562 0-6.796875-4.128906-14.6875-9.226562-17.632813zm0 0" fill="#2e373d"/><path d="m253.78125 406.578125c-8.902344-5.140625-17.015625-5.339844-23.148438-1.515625v-.003906l-14.171874 8.363281v.003906c-7.664063 4.035157-12.546876 14-12.546876 28.304688 0 25.484375 15.492188 55.085937 34.601563 66.121093 8.851563 5.105469 16.921875 5.332032 23.039063 1.578126.085937-.050782.171874-.097657.253906-.148438l15.171875-8.9375c.027343-.015625.050781-.027344.074219-.042969h.003906c6.957031-4.421875 11.328125-14.070312 11.328125-27.601562 0-25.484375-15.492188-55.085938-34.605469-66.121094zm0 0" fill="#23292e"/><path d="m273.121094 481.6875c0 25.480469-15.492188 37.195312-34.605469 26.160156-19.109375-11.035156-34.601563-40.636718-34.601563-66.117187s15.492188-37.195313 34.601563-26.160157c19.113281 11.035157 34.605469 40.636719 34.605469 66.117188zm0 0" fill="#2e373d"/><path d="m264.488281 476.707031c0 19.125-11.628906 27.917969-25.972656 19.632813-14.34375-8.28125-25.972656-30.5-25.972656-49.625 0-19.128906 11.628906-27.917969 25.972656-19.636719s25.972656 30.5 25.972656 49.628906zm0 0" fill="#23292e"/><path d="m247.742188 467.039062c0 6.792969-4.128907 9.917969-9.226563 6.976563-5.09375-2.945313-9.226563-10.839844-9.226563-17.632813 0-6.796874 4.132813-9.917968 9.226563-6.976562 5.097656 2.941406 9.226563 10.835938 9.226563 17.632812zm0 0" fill="#2e373d"/><path d="m154.851562 197.9375v-27.214844l89.550782-50.136718v25.261718zm0 0" fill="#171c1f"/><path d="m147.757812 353.871094 158.390626 91.449218 107.191406-61.929687-158.394532-91.449219zm0 0" fill="#627681"/><path d="m383.59375 232.078125-119.867188-69.226563c-10.671874-6.578124-24.714843-6.28125-40.160156 2.636719-33.300781 19.226563-60.296875 70.808594-60.296875 115.207031 0 24.242188 8.082031 41.257813 20.808594 48.652344l118.777344 68.558594c10.890625 8.058594 25.855469 8.28125 42.375-1.257812 33.296875-19.226563 60.292969-70.804688 60.292969-115.207032.003906-24.96875-8.535157-42.351562-21.929688-49.363281zm0 0" fill="#23292e"/><path d="m154.851562 197.9375v-10.558594l89.550782-51.703125v10.171875zm0 0" fill="#23292e"/><path d="m405.527344 281.441406c0 44.402344-26.996094 95.980469-60.296875 115.207032-33.300781 19.226562-60.296875-1.183594-60.296875-45.582032 0-44.402344 26.996094-95.980468 60.296875-115.207031s60.296875 1.183594 60.296875 45.582031zm0 0" fill="#2e373d"/><path d="m390.945312 295.296875c0 30.242187-18.386718 65.371094-41.066406 78.464844-22.679687 13.09375-41.066406-.804688-41.066406-31.042969 0-30.242188 18.386719-65.371094 41.066406-78.464844 22.679688-13.09375 41.066406.804688 41.066406 31.042969zm0 0" fill="#23292e"/><path d="m321.507812 374.953125c-7.816406-5.453125-12.695312-16.671875-12.695312-32.234375 0-30.242188 18.386719-65.371094 41.066406-78.464844 10.207032-5.894531 19.539063-6.304687 26.71875-2.230468l.007813-.015626-5.773438-3.34375-.015625.03125c-7.019531-3.417968-15.902344-2.785156-25.585937 2.804688-22.679688 13.09375-41.066407 48.226562-41.066407 78.464844 0 16.273437 5.355469 27.75 13.808594 32.902344l-.03125.0625zm0 0" fill="#171c1f"/><path d="m324.863281 376.863281.085938.046875.003906-.003906c-.027344-.015625-.058594-.03125-.089844-.042969zm0 0" fill="#171c1f"/><path d="m147.757812 353.871094v-180.929688l-119.070312-68.738281v196.671875l119.070312 68.742188 158.390626 91.449218v-15.75zm0 0" fill="#23292e"/><path d="m134.0625 12.585938-7.46875-4.398438c-18.46875-10.878906-41.375-10.917969-59.882812-.105469-19.914063 11.632813-36.507813 28.183594-48.195313 48.0625l-18.515625 31.496094 149.300781 86.191406 134.058594-75.054687zm0 0" fill="#627681"/><path d="m149.296875 173.832031 134.0625-75.054687-7.464844-4.398438c-18.46875-10.878906-41.378906-10.917968-59.886719-.105468-19.910156 11.632812-36.503906 28.183593-48.195312 48.0625zm0 0" fill="#e33400"/><path d="m28.6875 300.875v30.480469l22.695312 13.105469c-.039062-8.585938 9.25-13.976563 16.683594-9.683594l69.617188 40.195312c10.324218 5.960938 16.667968 16.988282 16.628906 28.910156l151.835938 87.664063v-30.480469zm0 0" fill="#872e02"/><path d="m51.382812 344.457031 10.152344-5.859375c.96875-1.914062 2.101563-3.59375 3.378906-5.046875-6.667968-1.5-13.5625 3.507813-13.53125 10.90625zm0 0" fill="#682302"/><path d="m306.148438 491.546875 107.191406-61.886719v-30.480468l-107.191406 61.886718zm0 0" fill="#e33400"/><path d="m43.535156 126.660156 90.652344 52.339844v69.097656l-90.652344-52.339844zm0 0" fill="#171c1f"/><path d="m274.007812 138.582031c0-17.917969-19.394531-29.113281-34.90625-20.15625-8.578124 4.953125-13.859374 14.101563-13.859374 24.003907v39.710937c-.53125 3.660156 1.382812 7.234375 5.871093 9.824219 8.832031 5.101562 24.261719 4.460937 34.457031-1.425782 6.660157-3.847656 9.441407-8.980468 8.113282-13.496093l.324218-.050781zm0 0" fill="#171c1f"/><path d="m320.578125 192.390625c-11.667969-6.339844-26.355469-5.066406-41.351563 3.59375-26.894531 15.527344-50.726562 52.625-58.75 91.035156l-55-31.75c-1.257812-.730469-2.875-.296875-3.605468.964844-.726563 1.261719-.296875 2.875.96875 3.605469l121.980468 70.425781c.417969.242187.871094.355469 1.316407.355469.914062 0 1.800781-.472656 2.289062-1.320313.730469-1.261719.296875-2.878906-.964843-3.605469l-62.15625-35.886718c7.375-37.644532 30.480468-74.191406 56.5625-89.25 13.34375-7.707032 26.199218-8.957032 36.191406-3.53125 1.28125.695312 2.882812.222656 3.578125-1.058594.699219-1.28125.222656-2.882812-1.058594-3.578125zm0 0" fill="#ffd613"/><path d="m339.351562 452.050781c0 9.730469-5.914062 21.035157-13.210937 25.25-7.300781 4.214844-13.214844-.257812-13.214844-9.988281 0-9.734375 5.914063-21.035156 13.214844-25.25 7.296875-4.214844 13.210937.257812 13.210937 9.988281zm0 0" fill="#fff"/><path d="m408.980469 410.753906c0 9.730469-5.914063 21.035156-13.214844 25.25-7.296875 4.214844-13.214844-.257812-13.214844-9.988281 0-9.734375 5.917969-21.035156 13.214844-25.25s13.214844.257813 13.214844 9.988281zm0 0" fill="#fff"/><path d="m54.535156 202.109375-11-6.351563v-69.097656l11 6.351563zm0 0" fill="#2e373d"/><path d="m134.1875 248.097656v-11.992187l-79.652344-45.984375-11 5.636718zm0 0" fill="#2e373d"/><path d="m355.40625 154.234375c-.402344-4.417969-3.296875-8.585937-8.796875-11.761719-13.117187-7.574218-36.03125-6.621094-51.175781 2.121094-8.859375 5.113281-13.089844 11.761719-12.460938 17.917969l-.070312.007812v17.652344h.011718c.070313 4.746094 2.976563 9.265625 8.84375 12.652344.957032.550781 1.972657 1.054687 3.027344 1.515625v25.976562c-.257812 3.453125 1.683594 6.785156 5.933594 9.238282 8.832031 5.101562 24.257812 4.460937 34.457031-1.425782 5.757813-3.328125 8.617188-7.613281 8.425781-11.632812v-26.195313c7.800782-4.699219 11.816407-10.609375 11.855469-16.230469h.007813v-19.84375zm0 0" fill="#171c1f"/><path d="m355.40625 154.234375c.558594 6.117187-3.671875 12.707031-12.472656 17.785156-15.144532 8.746094-38.058594 9.695313-51.175782 2.121094-5.445312-3.144531-8.335937-7.261719-8.785156-11.628906l-.070312.007812v17.65625l.011718-.003906c.070313 4.746094 2.976563 9.265625 8.84375 12.652344 13.117188 7.574219 36.03125 6.625 51.175782-2.121094 8.246094-4.761719 12.484375-10.851563 12.519531-16.632813h.011719v-19.84375zm0 0" fill="#e33400"/><path d="m342.933594 172.019531c-15.144532 8.746094-38.058594 9.695313-51.175782 2.121094-13.117187-7.570313-11.46875-20.800781 3.675782-29.546875 15.148437-8.742188 38.058594-9.695312 51.175781-2.121094 13.117187 7.574219 11.472656 20.804688-3.675781 29.546875zm0 0" fill="#23292e"/><path d="m335.175781 167.539062c-10.195312 5.890626-25.625 6.53125-34.457031 1.429688s-7.726562-14.007812 2.472656-19.894531c10.199219-5.886719 25.628906-6.527344 34.460938-1.429688 8.832031 5.101563 7.722656 14.007813-2.476563 19.894531zm0 0" fill="#171c1f"/></svg>