<svg viewBox="0 -49 512 512" xmlns="http://www.w3.org/2000/svg"><path d="m504.726562 332.578125-22.613281-43.925781c-38.1875-74.179688-96.914062-135.804688-169.167969-177.519532l-189.855468-109.613281c-4.648438-2.679687-10.007813-1.6171872-13.414063 1.640625l-104.019531 59.464844c-3.296875 1.886719-5.65625 5.410156-5.65625 9.75v104.335938c0 11.589843 6.183594 22.296874 16.21875 28.089843l204.496094 118.066407c64.230468 37.085937 132.523437 66.644531 203.519531 88.097656 21.789063 6.585937 45.34375 3.679687 64.878906-8.003906 14.195313-8.492188 22.886719-23.816407 22.886719-40.355469 0-10.445313-2.492188-20.742188-7.273438-30.027344zm0 0" fill="#ededed"/><path d="m16.21875 204.800781 204.496094 118.066407c56.996094 32.90625 117.199218 59.855468 179.640625 80.507812 0 0 63.054687 9.464844 58.085937-16.453125-4.964844-25.917969-146.417968-134.398437-146.417968-134.398437l-312.023438-180.148438v104.335938c0 11.585937 6.183594 22.296874 16.21875 28.089843zm0 0" fill="#cecece"/><path d="m488.546875 403.296875c13.550781-7.957031 22.601563-21.765625 23.375-37.460937.566406-11.546876-1.925781-23.015626-7.195313-33.257813l-24.429687-47.453125c-.054687-.046875-.101563-.089844-.15625-.140625-13.707031-5.230469-29.054687-3.921875-41.679687 3.550781-9.769532 5.785156-18.652344 12.949219-26.375 21.269532-9.742188 10.5-16.777344 23.222656-20.492188 37.0625-2.003906 7.46875-3.019531 15.171874-3.019531 22.910156v3.179687c0 11.253907 4.203125 22.101563 11.78125 30.417969 7.929687 2.621094 15.882812 5.175781 23.878906 7.589844 21.578125 6.523437 44.886719 3.734375 64.3125-7.667969zm0 0" fill="#304e75"/><path d="m344.8125 220.664062 46.339844-26.753906c6.914062-3.992187 15.710937-2.308594 20.660156 3.957032l46.628906 58.988281-69.976562 40.402343-47.503906-49.261718c-7.90625-8.199219-6.011719-21.636719 3.851562-27.332032zm0 0" fill="#304e75"/><g fill="#243b58"><path d="m221.898438 263.222656-6.40625-3.695312c-5.679688-3.28125-10.285157-12.078125-10.285157-19.65625v-22.402344c0-7.574219 4.605469-11.054688 10.285157-7.777344l6.40625 3.699219c5.679687 3.28125 10.285156 12.078125 10.285156 19.652344v22.40625c0 7.574219-4.605469 11.054687-10.285156 7.773437zm0 0"/><path d="m179.582031 238.539062-6.40625-3.699218c-5.679687-3.277344-10.285156-12.078125-10.285156-19.652344v-22.40625c0-7.574219 4.605469-11.054688 10.285156-7.777344l6.40625 3.699219c5.679688 3.28125 10.285157 12.078125 10.285157 19.65625v22.402344c0 7.574219-4.605469 11.058593-10.285157 7.777343zm0 0"/><path d="m137.261719 213.855469-6.402344-3.699219c-5.683594-3.28125-10.289063-12.078125-10.289063-19.65625v-22.402344c0-7.574218 4.605469-11.054687 10.289063-7.777344l6.402344 3.699219c5.683593 3.28125 10.289062 12.078125 10.289062 19.652344v22.40625c0 7.574219-4.605469 11.054687-10.289062 7.777344zm0 0"/><path d="m94.945312 189.167969-6.40625-3.699219c-5.679687-3.277344-10.285156-12.078125-10.285156-19.652344v-22.40625c0-7.574218 4.605469-11.054687 10.285156-7.773437l6.40625 3.695312c5.679688 3.28125 10.285157 12.082031 10.285157 19.65625v22.402344c0 7.574219-4.605469 11.058594-10.285157 7.777344zm0 0"/><path d="m52.628906 164.484375-6.40625-3.699219c-5.683594-3.28125-10.285156-12.078125-10.285156-19.65625v-22.402344c0-7.574218 4.601562-11.054687 10.285156-7.777343l6.40625 3.699219c5.679688 3.277343 10.285156 12.078124 10.285156 19.652343v22.40625c0 7.574219-4.605468 11.054688-10.285156 7.777344zm0 0"/></g><path d="m0 146.121094 316.546875 182.757812-51.988281-8.78125-264.558594-153.105468zm0 0" fill="#304e75"/><path d="m458.441406 386.921875c-2.078125-10.851563-28.082031-36.171875-57.613281-61.949219-4.027344 6.832032-7.164063 14.179688-9.234375 21.894532-2.003906 7.46875-3.019531 15.171874-3.019531 22.910156v3.179687c0 11.253907 4.199219 22.101563 11.78125 30.417969 0 0 63.054687 9.464844 58.085937-16.453125zm0 0" fill="#243b58"/></svg>