<svg viewBox="-9 1 511 511.99985" xmlns="http://www.w3.org/2000/svg"><path d="m494.179688 341.933594v-83.789063l-47.007813-51.90625v-54.28125l-108.207031-63.054687c-5.074219-2.960938-11.34375-2.976563-16.429688-.042969l-15.832031 9.140625-163.863281-94.347656c-8.527344-4.914063-19.03125-4.867188-27.515625.121094l-84.257813 49.570312c-4.050781 1.871094-7.0625 5.921875-7.0625 11.015625v169.015625l-23.503906 13.570312v54.28125l113.261719 65.371094v19.152344l88.902343 51.328125 16.605469-9.585937 110.386719 63.710937h47.003906l111.976563-64.648437 5.542969-30.339844.050781-54.308594zm0 0" fill="#ed5100"/><path d="m40.347656 283.792969c-6.324218-3.652344-12.09375-3.796875-16.449218-1.078125l-10.070313 5.941406c-5.445313 2.867188-8.917969 9.949219-8.917969 20.117188 0 18.105468 11.011719 39.140624 24.589844 46.984374 6.375 3.679688 12.183594 3.796876 16.550781 1.015626l10.777344-6.347657c.019531-.011719.039063-.023437.058594-.035156 4.945312-3.144531 8.050781-10 8.050781-19.613281 0-18.109375-11.007812-39.144532-24.589844-46.984375zm0 0" fill="#23292e"/><path d="m54.089844 337.167969c0 18.105469-11.007813 26.429687-24.589844 18.589843-13.578125-7.84375-24.589844-28.875-24.589844-46.984374 0-18.109376 11.011719-26.429688 24.589844-18.589844 13.582031 7.839844 24.589844 28.875 24.589844 46.984375zm0 0" fill="#2e373d"/><path d="m47.957031 333.625c0 13.59375-8.261719 19.839844-18.457031 13.953125-10.191406-5.882813-18.457031-21.671875-18.457031-35.265625 0-13.589844 8.265625-19.835938 18.457031-13.953125 10.195312 5.886719 18.457031 21.675781 18.457031 35.265625zm0 0" fill="#23292e"/><path d="m36.058594 326.757812c0 4.828126-2.9375 7.046876-6.558594 4.957032-3.621094-2.09375-6.554688-7.703125-6.554688-12.53125s2.933594-7.046875 6.554688-4.957032c3.621094 2.089844 6.558594 7.699219 6.558594 12.53125zm0 0" fill="#2e373d"/><path d="m202.664062 437.078125 16.605469-9.585937-16.605469-9.742188zm0 0" fill="#2e373d"/><path d="m92.847656 315.640625c-6.324218-3.652344-12.09375-3.792969-16.449218-1.074219l-.003907-.003906-10.066406 5.945312c-5.449219 2.867188-8.917969 9.949219-8.917969 20.113282 0 18.109375 11.007813 39.144531 24.589844 46.984375 6.289062 3.632812 12.023438 3.792969 16.371094 1.125l.011718-.007813c.054688-.035156.109376-.066406.167969-.097656l10.777344-6.351562c.019531-.011719.039063-.019532.058594-.03125v-.003907c4.945312-3.140625 8.050781-9.996093 8.050781-19.613281 0-18.105469-11.007812-39.140625-24.589844-46.984375zm0 0" fill="#23292e"/><path d="m106.589844 369.015625c0 18.109375-11.007813 26.429687-24.589844 18.589844-13.578125-7.839844-24.589844-28.875-24.589844-46.984375 0-18.105469 11.011719-26.429688 24.589844-18.589844 13.582031 7.839844 24.589844 28.878906 24.589844 46.984375zm0 0" fill="#2e373d"/><path d="m100.457031 365.476562c0 13.589844-8.261719 19.839844-18.457031 13.953126-10.191406-5.886719-18.457031-21.675782-18.457031-35.265626 0-13.59375 8.265625-19.839843 18.457031-13.957031 10.195312 5.886719 18.457031 21.675781 18.457031 35.269531zm0 0" fill="#23292e"/><path d="m88.558594 358.605469c0 4.828125-2.9375 7.046875-6.558594 4.957031s-6.554688-7.699219-6.554688-12.53125c0-4.828125 2.933594-7.046875 6.554688-4.957031 3.621094 2.09375 6.558594 7.703125 6.558594 12.53125zm0 0" fill="#2e373d"/><path d="m113.761719 366.425781v19.324219l88.902343 51.328125v-19.328125zm0 0" fill="#525e65"/><path d="m270.421875 451.527344c0-18.109375-11.011719-39.144532-24.589844-46.984375-6.328125-3.652344-12.09375-3.796875-16.449219-1.078125l-.003906-.003906-10.066406 5.945312c-5.449219 2.867188-8.917969 9.949219-8.917969 20.113281 0 18.109375 11.007813 39.144531 24.589844 46.984375 6.375 3.683594 12.179687 3.800782 16.550781 1.015625l10.777344-6.347656c.019531-.011719.039062-.019531.058594-.03125 4.945312-3.144531 8.050781-10 8.050781-19.613281zm0 0" fill="#23292e"/><path d="m259.574219 457.917969c0 18.105469-11.011719 26.429687-24.589844 18.589843-13.582031-7.84375-24.589844-28.875-24.589844-46.984374 0-18.109376 11.007813-26.429688 24.589844-18.589844 13.578125 7.839844 24.589844 28.875 24.589844 46.984375zm0 0" fill="#2e373d"/><path d="m253.441406 454.375c0 13.59375-8.265625 19.839844-18.457031 13.953125-10.195313-5.882813-18.457031-21.671875-18.457031-35.265625 0-13.589844 8.261718-19.835938 18.457031-13.953125 10.191406 5.886719 18.457031 21.675781 18.457031 35.265625zm0 0" fill="#23292e"/><path d="m241.539062 447.503906c0 4.828125-2.933593 7.050782-6.554687 4.957032-3.621094-2.089844-6.558594-7.699219-6.558594-12.527344s2.9375-7.046875 6.558594-4.957032c3.621094 2.089844 6.554687 7.699219 6.554687 12.527344zm0 0" fill="#2e373d"/><path d="m325.242188 484.070312c0-18.109374-11.007813-39.144531-24.589844-46.984374-6.324219-3.652344-12.09375-3.796876-16.449219-1.078126v-.003906l-10.070313 5.945313c-5.445312 2.867187-8.917968 9.949219-8.917968 20.117187 0 18.105469 11.007812 39.140625 24.589844 46.984375 6.375 3.679688 12.183593 3.796875 16.554687 1.015625l10.792969-6.359375c.011718-.007812.027344-.015625.039062-.023437 4.949219-3.144532 8.050782-10 8.050782-19.613282zm0 0" fill="#23292e"/><path d="m314.394531 490.457031c0 18.109375-11.007812 26.433594-24.589843 18.59375-13.582032-7.84375-24.589844-28.878906-24.589844-46.984375 0-18.109375 11.007812-26.433594 24.589844-18.589844 13.582031 7.839844 24.589843 28.875 24.589843 46.980469zm0 0" fill="#2e373d"/><path d="m308.261719 486.917969c0 13.59375-8.261719 19.839843-18.457031 13.953125-10.195313-5.882813-18.457032-21.671875-18.457032-35.265625 0-13.589844 8.261719-19.835938 18.457032-13.953125 10.195312 5.886718 18.457031 21.675781 18.457031 35.265625zm0 0" fill="#23292e"/><path d="m296.363281 480.046875c0 4.828125-2.9375 7.050781-6.558593 4.957031-3.621094-2.089844-6.558594-7.699218-6.558594-12.527344 0-4.828124 2.9375-7.046874 6.558594-4.957031 3.621093 2.089844 6.558593 7.699219 6.558593 12.527344zm0 0" fill="#2e373d"/><path d="m329.652344 353.132812-47.003906-51.90625 164.523437-94.988281 47.007813 51.90625zm0 0" fill="#ffd613"/><path d="m329.652344 343.757812-41.246094-45.539062 153.003906-88.84375 41.25 45.539062zm0 0" fill="#2e373d"/><g fill="#e33400"><path d="m329.652344 436.90625v-83.773438l164.527344-94.988281v83.773438zm0 0"/><path d="m282.648438 301.226562v-54.28125l23.503906-40.707031 117.515625-67.847656 23.503906 13.566406v54.28125zm0 0"/><path d="m24.003906 233.378906v-169.019531c0-9.328125 10.085938-15.164063 18.171875-10.515625l171.066407 98.113281-23.503907 40.710938v136.335937zm0 0"/></g><path d="m189.738281 211.921875-165.734375-94.0625v20.136719l165.734375 95.632812zm0 0" fill="#ffd613"/><path d="m42.175781 53.84375c-8.085937-4.648438-18.171875 1.1875-18.171875 10.515625v53.5l165.734375 95.074219v-20.265625l23.503907-40.710938zm0 0" fill="#2e373d"/><path d="m189.738281 192.667969v163.476562l-189.238281-109.199219v54.28125l329.152344 189.976563v-138.070313l-47.003906-51.90625v-54.28125zm0 0" fill="#872e02"/><path d="m.5 246.945312 189.238281 109.199219s0-23.570312 0-27.140625l-165.734375-95.628906zm0 0" fill="#525e65"/><path d="m24.003906 233.378906v-54.28125l165.734375 95.628906v54.277344zm0 0" fill="#2e373d"/><path d="m329.652344 436.921875v54.28125h47.007812l111.976563-64.648437 5.542969-30.339844.050781-54.308594zm0 0" fill="#2e373d"/><path d="m329.652344 436.921875h46.90625l112.078125-64.648437 5.59375-30.367188zm0 0" fill="#525e65"/><path d="m329.652344 382.644531c29.089844-16.792969 64.925781-16.792969 94.015625 0l-94.015625 54.28125zm0 0" fill="#2e373d"/><path d="m494.179688 287.65625c-23.632813 13.644531-40.988282 35.996094-48.351563 62.269531l-6.660156 23.769531 55.0625-31.789062zm0 0" fill="#2e373d"/><path d="m282.648438 246.945312-92.910157-54.277343 23.503907-40.710938 92.910156 54.28125zm0 0" fill="#f07433"/><path d="m370.578125 391.621094c0 9.855468-5.988281 21.304687-13.382813 25.574218-7.390624 4.265626-13.382812-.261718-13.382812-10.121093 0-9.855469 5.992188-21.304688 13.382812-25.570313 7.390626-4.269531 13.382813.261719 13.382813 10.117188zm0 0" fill="#fff"/><path d="m488.046875 322.949219c0 9.855469-5.992187 21.304687-13.382813 25.574219-7.390624 4.265624-13.382812-.265626-13.382812-10.121094 0-9.855469 5.992188-21.304688 13.382812-25.570313 7.390626-4.269531 13.382813.261719 13.382813 10.117188zm0 0" fill="#fff"/><path d="m11.105469 198.789062c-4.714844-2.71875-10.605469.679688-10.605469 6.121094v96.316406l329.15625 189.976563v-108.558594zm90.464843 62.816407 40.054688 23.164062v43.613281l-40.054688-23.113281zm-6.953124 39.652343-40.160157-23.175781v-43.722656l40.160157 23.226563zm-87.167969-91.882812c0-.976562 1.0625-1.589844 1.90625-1.097656l38.152343 22.0625v43.730468l-40.058593-23.113281zm182.289062 146.769531-41.160156-23.753906v-43.601563l41.160156 23.804688zm0 0" fill="#171c1f"/><path d="m270.683594 291.097656-22.078125-12.746094c-3.292969-1.902343-5.960938-7.003906-5.960938-11.394531v-29.4375c0-4.394531 2.667969-6.410156 5.960938-4.507812l22.078125 12.746093c3.292968 1.898438 5.964844 7.003907 5.964844 11.390626v29.441406c0 4.390625-2.671876 6.40625-5.964844 4.507812zm0 0" fill="#243b58"/><path d="m479.359375 325.410156-95.746094 55.34375v-.050781c-4.304687 2.519531-6.953125 7.136719-6.953125 12.125v44.097656l6.953125-4.070312v-39.339844c0-1.417969.753907-2.726563 1.980469-3.433594l26.347656-15.210937v41.683594l6.953125-4.046876v-41.648437l35.433594-20.460937v41.667968l6.953125-4.011718v-41.667969l18.609375-10.746094c.734375-.421875 1.648437.105469 1.648437.953125v39.761719l6.949219-4.070313v-41.609375c0-4.683593-5.074219-7.609375-9.128906-5.265625zm0 0" fill="#171c1f"/><path d="m364.703125 216.34375c0-4.976562-5.390625-8.074219-9.6875-5.578125l-59.78125 34.726563c-3.769531 2.179687-6.828125 8.019531-6.828125 13.046874v24.59375c0 5.027344 3.058594 7.339844 6.828125 5.160157l60.460937-35.125c5.574219-3.238281 9.007813-9.199219 9.007813-15.648438zm0 0" fill="#304e75"/><path d="m434.582031 164.539062-48.386719 28.113282c-6.03125 3.5-9.742187 9.945312-9.742187 16.917968v23.382813c0 3.617187 3.925781 5.875 7.054687 4.058594l51.074219-29.671875c3.773438-2.175782 6.828125-8.019532 6.828125-13.046875v-24.589844c0-5.027344-3.054687-7.339844-6.828125-5.164063zm0 0" fill="#304e75"/><path d="m402.546875 183.148438c.984375 3.164062 2.976563 6.109374 5.304687 7.453124l22.082032 12.75c3.292968 1.898438 5.960937-.117187 5.960937-4.507812v-29.441406c0-1.632813-.371093-3.367188-1.007812-4.996094-.101563.050781-.199219.074219-.304688.132812zm0 0" fill="#59718b"/></svg>