<svg viewBox="-10 0 512 512.00033" xmlns="http://www.w3.org/2000/svg"><path d="m331.390625 510.441406c.472656-.242187 40.757813-23.542968 40.757813-23.542968l-35.242188-24.792969c-5.183594-12.957031-13.816406-24.472657-23.601562-30.121094-15.859376-9.15625-28.714844.5625-28.714844 21.707031 0 21.144532 12.855468 45.707032 28.714844 54.863282 6.855468 3.957031 13.144531 4.382812 18.085937 1.886718zm0 0" fill="#23292e"/><path d="m143.949219 369.042969-35.050781-24.859375c-5.183594-12.96875-13.828126-24.5-23.621094-30.152344-15.855469-9.15625-28.710938.5625-28.710938 21.707031s12.855469 45.707031 28.710938 54.863281c7.519531 4.339844 14.359375 4.433594 19.476562 1.085938zm0 0" fill="#23292e"/><path d="m444.292969 321.09375 42.773437-24.699219c3.277344-1.890625 5.296875-5.390625 5.296875-9.175781v-78.671875c0-16.683594-8.898437-32.097656-23.34375-40.4375l-283.671875-164.40625c-9.828125-5.675781-20.976562-4.460937-29.171875 1.15625l-141.894531 81.800781c-8.289062 4.519532-14.28125 13.226563-14.28125 24.015625v174.996094c0 8.746094 4.667969 16.824219 12.246094 21.191406l287.863281 166.402344 47.9375 7.214844 7.433594 5.484375c4.878906 3.597656 11.421875 3.964844 16.667969.933594l6.609374 4.101562v.03125l96.171876-55.464844v-8.253906c3.902343-3.019531 6.886718-7.101562 8.519531-11.808594l8.914062-25.695312v-13.980469l-48.070312-27.753906zm0 0" fill="#e33400"/><path d="m41.03125 86.984375 283.671875 164.410156c14.445313 8.339844 23.34375 23.753907 23.34375 40.433594v188.652344l-47.9375-7.214844-287.863281-166.402344c-7.578125-4.367187-12.246094-12.449219-12.246094-21.191406v-174.996094c0-21.058593 22.796875-34.222656 41.03125-23.691406zm0 0" fill="#872e02"/><path d="m478.214844 393.765625c-2.425782 1.402344-4.503906 4.585937-5.378906 7.90625l2.09375 5.5625v2.601563c.9375.316406 2.066406.164062 3.285156-.539063 3.21875-1.859375 5.824218-6.839844 5.824218-11.128906 0-4.289063-2.605468-6.257813-5.824218-4.402344zm0 0" fill="#ededed"/><path d="m492.363281 375.824219-48.070312-27.753907-24.03125 13.992188v55.359375l-48.113281 27.84375 6.609374 17.59375 96.171876-55.625-6.554688-17.394531zm0 0" fill="#ed5100"/><path d="m444.292969 348.070312v-26.976562l-24.03125 13.871094v27.097656zm0 0" fill="#872e02"/><path d="m113.992188 368.894531c0 21.144531-12.855469 30.863281-28.714844 21.707031-15.855469-9.15625-28.710938-33.71875-28.710938-54.863281s12.855469-30.863281 28.710938-21.707031c15.859375 9.15625 28.714844 33.71875 28.714844 54.863281zm0 0" fill="#2e373d"/><path d="m99.398438 360.46875c0 10.394531-6.324219 15.171875-14.121094 10.671875-7.796875-4.503906-14.117188-16.578125-14.117188-26.976563 0-10.394531 6.320313-15.171874 14.117188-10.671874s14.121094 16.578124 14.121094 26.976562zm0 0" fill="#cecece"/><path d="m92.9375 356.738281c0 5.636719-3.429688 8.230469-7.660156 5.789063-4.226563-2.445313-7.65625-8.992188-7.65625-14.632813 0-5.636719 3.429687-8.230469 7.65625-5.789062 4.230468 2.441406 7.660156 8.992187 7.660156 14.632812zm0 0" fill="#627681"/><path d="m342.019531 486.847656c0 21.144532-12.855469 30.863282-28.714843 21.707032-15.859376-9.15625-28.714844-33.71875-28.714844-54.863282 0-21.144531 12.855468-30.863281 28.714844-21.707031 15.859374 9.15625 28.714843 33.71875 28.714843 54.863281zm0 0" fill="#2e373d"/><path d="m327.421875 478.417969c0 10.398437-6.320313 15.175781-14.117187 10.675781-7.796876-4.503906-14.121094-16.582031-14.121094-26.976562 0-10.394532 6.324218-15.175782 14.121094-10.671876 7.796874 4.5 14.117187 16.578126 14.117187 26.972657zm0 0" fill="#cecece"/><path d="m320.960938 474.6875c0 5.640625-3.429688 8.230469-7.65625 5.789062-4.230469-2.441406-7.65625-8.992187-7.65625-14.628906 0-5.640625 3.425781-8.230468 7.65625-5.789062 4.226562 2.441406 7.65625 8.992187 7.65625 14.628906zm0 0" fill="#627681"/><path d="m378.757812 491v-28.140625l-6.609374-17.59375v41.632813zm0 0" fill="#872e02"/><path d="m414.902344 387.269531v-44.078125c0-2.570312-2.78125-4.179687-5.011719-2.890625l-52.128906 30.09375c-3.707031 2.140625-5.992188 6.101563-5.992188 10.382813v43.984375c0 2.570312 2.78125 4.175781 5.007813 2.894531l52.117187-29.996094c3.71875-2.140625 6.007813-6.101562 6.007813-10.390625zm0 0" fill="#3b2f25"/><g fill="#24170c"><path d="m95.5625 283.078125 41.886719 24.09375v-52.714844l-41.886719-24.160156zm0 0"/><path d="m233.605469 309.917969-42.285157-24.390625v52.636718l42.285157 24.328126zm0 0"/><path d="m185.546875 282.199219-42.324219-24.414063v52.710938l42.324219 24.347656zm0 0"/><path d="m287.25 340.855469v52.496093l54.769531 31.507813v-52.414063zm0 0"/><path d="m281.476562 337.527344-42.09375-24.28125v52.566406l42.09375 24.21875zm0 0"/><path d="m89.789062 226.96875-43.316406-24.984375v52.851563l43.316406 24.917968zm0 0"/><path d="m233.605469 212.085938-42.285157-24.453126v55.417969l42.285157 24.46875zm0 0"/><path d="m95.5625 187.640625 41.886719 24.238281v-55.402344l-41.886719-24.222656zm0 0"/><path d="m185.546875 184.292969-42.324219-24.476563v55.402344l42.324219 24.488281zm0 0"/><path d="m89.789062 128.914062-53.238281-30.789062c-11.484375-6.621094-25.832031 1.664062-25.832031 14.921875v16.441406c0 5.605469 2.988281 10.789063 7.839844 13.597657l71.230468 41.214843zm0 0"/><path d="m319.832031 261.949219-32.582031-18.839844v55.449219l52.363281 30.300781v-32.65625c0-14.132813-7.539062-27.191406-19.78125-34.253906zm0 0"/><path d="m281.476562 239.769531-42.09375-24.34375v55.433594l42.09375 24.359375zm0 0"/></g><path d="m414.648438 240.335938-47.851563 27.664062c-4.125 2.382812-6.664063 6.78125-6.664063 11.542969v41.472656c0 2.878906 3.117188 4.675781 5.609376 3.242187l47.839843-27.566406c4.132813-2.378906 6.679688-6.785156 6.679688-11.554687v-41.5625c0-2.882813-3.121094-4.679688-5.613281-3.238281zm0 0" fill="#3b2f25"/><path d="m425.074219 242v41.597656c0 2.878906 3.117187 4.675782 5.609375 3.242188l43.027344-24.792969c4.128906-2.378906 6.675781-6.785156 6.675781-11.554687v-41.679688c0-2.878906-3.117188-4.679688-5.613281-3.238281l-43.035157 24.878906c-4.125 2.386719-6.664062 6.785156-6.664062 11.546875zm0 0" fill="#3b2f25"/><path d="m0 146.75 348.046875 201.367188v14.015624l-348.046875-201.511718zm0 0" fill="#cecece"/><path d="m348.046875 348.117188 144.316406-83.179688v13.875l-144.316406 83.320312zm0 0" fill="#ededed"/><path d="m348.046875 435.25 72.214844-41.515625v13.875l-72.214844 41.660156zm0 0" fill="#ededed"/><path d="m368.09375 461.550781c0 4.285157-2.609375 9.269531-5.824219 11.125-3.214843 1.855469-5.824219-.113281-5.824219-4.402343 0-4.289063 2.609376-9.269532 5.824219-11.128907 3.214844-1.855469 5.824219.117188 5.824219 4.40625zm0 0" fill="#ededed"/><path d="m380.460938 463.660156v23.628906l91.929687-53.507812v-22.386719zm0 0" fill="#ededed"/><path d="m420.347656 443.324219-34.265625 19.238281c-2.421875 1.359375-3.921875 3.917969-3.921875 6.695312v9.714844c0 2.449219 2.652344 3.972656 4.769532 2.746094l34.324218-19.925781c2.367188-1.371094 3.820313-3.902344 3.820313-6.636719v-9.0625c0-2.425781-2.609375-3.957031-4.726563-2.769531zm0 0" fill="#23292e"/><path d="m429.890625 442.460938v8.804687c0 2.449219 2.652344 3.972656 4.769531 2.746094l32.59375-18.921875c2.363282-1.375 3.820313-3.902344 3.820313-6.640625v-8.179688c0-2.425781-2.613281-3.953125-4.730469-2.765625l-32.535156 18.265625c-2.417969 1.355469-3.917969 3.917969-3.917969 6.691407zm0 0" fill="#23292e"/><path d="m414.902344 387.269531v-44.078125c0-2.570312-2.78125-4.179687-5.011719-2.890625l-19.695313 11.367188v27.941406l23.222657 13.40625c.953125-1.734375 1.484375-3.699219 1.484375-5.746094zm0 0" fill="#872e02"/><path d="m432.609375 229.949219 42.320313 24.492187v-32.660156c0-5.105469-.996094-10.066406-2.832032-14.660156zm0 0" fill="#625951"/><path d="m0 233.886719 348.046875 201.363281v14.019531l-348.046875-201.511719zm0 0" fill="#cecece"/></svg>