<svg viewBox="-4 0 512 512.00021" xmlns="http://www.w3.org/2000/svg"><path d="m45.464844 96.5-4.074219 4.140625-41.390625 48.402344 10.398438 7.199219 66.160156-38.199219zm0 0" fill="#23292e"/><path d="m61.300781 113.039062-28.882812 17.617188-22.019531 25.585938-10.398438-7.199219 41.390625-48.402344zm0 0" fill="#2e373d"/><path d="m440.617188 410.992188c-4.847657 0-9.292969-3.222657-10.632813-8.125l-69.960937-255.941407c-1.605469-5.878906 1.855468-11.941406 7.730468-13.550781 5.875-1.601562 11.941406 1.855469 13.550782 7.734375l69.960937 255.941406c1.605469 5.875-1.855469 11.941407-7.734375 13.546875-.972656.269532-1.949219.394532-2.914062.394532zm0 0" fill="#cecece"/><path d="m129.992188 103.46875c-16.648438-9.609375-31.808594-9.886719-43.195313-2.574219l-29.597656 16.828125c-15.078125 6.914063-24.78125 25.714844-24.78125 53.144532 0 47.144531 28.664062 101.917968 64.023437 122.332031 16.457032 9.5 31.460938 9.882812 42.804688 2.828125l31.34375-17.742188c14.300781-7.398437 23.425781-25.882812 23.425781-52.480468 0-47.148438-28.664063-101.917969-64.023437-122.335938zm0 0" fill="#23292e"/><path d="m160.46875 244.796875c0 47.148437-28.664062 68.816406-64.027344 48.402344-35.359375-20.414063-64.023437-75.1875-64.023437-122.332031 0-47.148438 28.664062-68.820313 64.023437-48.40625 35.363282 20.417968 64.027344 75.1875 64.027344 122.335937zm0 0" fill="#2e373d"/><path d="m135.929688 230.628906c0 29.078125-17.679688 42.445313-39.488282 29.851563-21.808594-12.589844-39.488281-46.371094-39.488281-75.449219s17.679687-42.441406 39.488281-29.851562c21.808594 12.59375 39.488282 46.371093 39.488282 75.449218zm0 0" fill="#cecece"/><path d="m239.070312 256.507812-123.210937-71.136718c-7.09375-4.09375-15.800781-4.21875-23.007813-.335938-6.175781 1.171875-11.332031 6.507813-11.332031 13.636719 0 13.40625 7.152344 25.796875 18.757813 32.507813l138.796875 80.234374zm0 0" fill="#23292e"/><path d="m152.222656 155.046875v39.570313c0 8.34375 4.453125 16.058593 11.679688 20.230468l43.46875 25.097656c11.433594 7.109376 18.382812 19.617188 18.382812 33.078126v20.644531c0 12.730469 6.792969 24.496093 17.816406 30.859375l35.273438 20.367187c4.546875 2.625 9.660156 2.292969 13.632812-.003906l73.023438-42.027344c.324219-.171875.644531-.355469.957031-.550781h.003907c3.730468-2.355469 6.359374-6.464844 6.359374-11.503906 0-12.476563 2.085938-24.867188 6.171876-36.660156l12.210937-35.257813zm0 0" fill="#cecece"/><path d="m207.371094 197.492188-55.148438-31.84375v28.96875c0 8.34375 4.453125 16.058593 11.679688 20.230468l43.46875 25.097656zm0 0" fill="#525e65"/><path d="m261.960938 278.949219-159.636719-92.28125c-9.242188-5.339844-20.804688 1.328125-20.804688 12.003906 0 13.410156 7.152344 25.796875 18.757813 32.507813l161.683594 93.464843zm0 0" fill="#525e65"/><path d="m189.550781 59.910156-10.621093-18.398437c-5.085938-8.808594-12.398438-16.121094-21.203126-21.203125l-30.570312-17.648438c-7.265625-4.195312-15.519531-3.148437-21.457031 1.175782l-70.660157 40.035156c-6.59375 3.03125-11.5 9.605468-11.5 17.890625 0 18.3125 9.769532 35.234375 25.628907 44.390625l121.4375 70.109375 91.355469-73.175781zm0 0" fill="#627681"/><path d="m187.863281 145.148438-72.40625-43.179688-10.625-18.398438c-5.082031-8.804687-12.394531-16.117187-21.203125-21.203124l-30.566406-17.648438c-13.121094-7.574219-29.523438 1.894531-29.523438 17.042969 0 18.3125 9.769532 35.234375 25.628907 44.390625l121.4375 70.113281zm0 0" fill="#2e373d"/><path d="m115.457031 101.96875 74.09375-42.058594 72.410157 43.179688-74.097657 42.058594zm0 0" fill="#525e65"/><path d="m340.878906 104.179688c-25.160156-14.871094-56.382812-15.03125-81.695312-.417969-.6875.398437-64.582032 37.476562-70.824219 41.097656-.910156.480469-1.8125.972656-2.707031 1.492187-9.3125 5.375-15.046875 15.308594-15.046875 26.058594v3.851563l147.066406 84.910156 73.53125-42.585937v-26.578126c0-36.132812-19.152344-69.558593-50.324219-87.828124zm0 0" fill="#e33400"/><path d="m170.605469 176.261719 147.066406 84.910156v-26.574219c0-36.132812-19.152344-69.558594-50.328125-87.828125-25.160156-14.875-56.382812-15.035156-81.691406-.421875-9.3125 5.378906-15.046875 15.3125-15.046875 26.0625zm0 0" fill="#872e02"/><path d="m207.371094 197.492188 110.300781 63.679687-12.214844 35.257813c-4.082031 11.789062-6.167969 24.183593-6.167969 36.660156 0 10.492187-11.359374 17.046875-20.441406 11.804687l-35.273437-20.367187c-11.027344-6.367188-17.820313-18.128906-17.820313-30.863282v-20.644531c0-13.460937-6.949218-25.96875-18.382812-33.074219zm0 0" fill="#82a5b9"/><path d="m439.238281 314.589844c-16.644531-9.613282-31.808593-9.890625-43.195312-2.578125l-29.597657 16.828125c-15.078124 6.914062-24.78125 25.714844-24.78125 53.144531 0 47.144531 28.664063 101.917969 64.023438 122.332031 16.457031 9.5 31.460938 9.882813 42.800781 2.828125l31.347657-17.738281c14.304687-7.398438 23.429687-25.882812 23.429687-52.484375 0-47.148437-28.664063-101.917969-64.027344-122.332031zm0 0" fill="#23292e"/><path d="m446.582031 298.003906c-19.730469-11.390625-37.625-11.257812-50.746093-1.847656l-38.785157 22.394531c-16.195312 8.464844-26.519531 29.46875-26.519531 59.648438 0 22.921875 5.972656 47.417969 15.929688 69.78125l4.410156-2.148438c9.414062-4.585937 14.148437-15.234375 11.355468-25.324219-2.425781-8.746093-3.777343-17.644531-3.777343-26.191406 0-33.082031 20.117187-48.289062 44.929687-33.964844 5.050782 2.917969 9.902344 6.84375 14.425782 11.519532 7.449218 7.699218 20.058593 6.90625 26.90625-1.332032l2.339843-2.8125 26.9375-15.667968c5.175781-.082032 10.339844-2.332032 13.921875-6.644532l2.339844-2.8125c-12.167969-19.195312-27.285156-35.140624-43.667969-44.597656zm0 0" fill="#e33400"/><path d="m469.714844 455.914062c0 47.148438-28.664063 68.820313-64.023438 48.402344-35.359375-20.414062-64.027344-75.183594-64.027344-122.332031s28.667969-68.820313 64.027344-48.402344c35.359375 20.414063 64.023438 75.183594 64.023438 122.332031zm0 0" fill="#2e373d"/><path d="m445.179688 441.746094c0 29.078125-17.679688 42.445312-39.488282 29.851562-21.808594-12.589844-39.488281-46.371094-39.488281-75.449218 0-29.078126 17.679687-42.441407 39.488281-29.851563 21.808594 12.59375 39.488282 46.371094 39.488282 75.449219zm0 0" fill="#cecece"/><path d="m422.765625 428.808594c0 12.570312-7.644531 18.347656-17.074219 12.90625-9.429687-5.445313-17.074218-20.050782-17.074218-32.625 0-12.570313 7.644531-18.347656 17.074218-12.90625 9.429688 5.445312 17.074219 20.050781 17.074219 32.625zm0 0" fill="#627681"/><path d="m358.449219 394.316406c0-33.082031 20.117187-48.289062 44.929687-33.964844 5.054688 2.917969 9.902344 6.84375 14.429688 11.519532 7.449218 7.699218 20.054687 6.90625 26.90625-1.332032l2.335937-2.8125c-12.167969-19.199218-27.285156-35.140624-43.671875-44.597656-40.230468-23.230468-72.847656 1.425782-72.847656 55.070313 0 22.921875 5.972656 47.417969 15.929688 69.78125l4.410156-2.148438c9.414062-4.585937 14.148437-15.230469 11.355468-25.324219-2.425781-8.746093-3.777343-17.644531-3.777343-26.191406zm0 0" fill="#872e02"/><path d="m404.894531 432.625c-4.847656 0-9.292969-3.222656-10.632812-8.125l-69.960938-255.941406c-1.605469-5.875 1.855469-11.941406 7.734375-13.550782 5.875-1.601562 11.941406 1.855469 13.546875 7.734376l69.960938 255.941406c1.605469 5.875-1.855469 11.941406-7.730469 13.546875-.976562.269531-1.953125.394531-2.917969.394531zm0 0" fill="#cecece"/><path d="m372.832031 59.527344c-3.8125 0-7.519531-1.980469-9.5625-5.519532-3.046875-5.273437-1.238281-12.019531 4.035157-15.066406l28.355468-16.367187c5.273438-3.046875 12.019532-1.238281 15.066406 4.035156 3.046876 5.277344 1.238282 12.019531-4.039062 15.066406l-28.351562 16.371094c-1.738282 1.003906-3.636719 1.480469-5.503907 1.480469zm0 0" fill="#2e373d"/><path d="m414.917969 55.808594h-36.664063c-3.285156 0-5.953125-2.667969-5.953125-5.953125 0-3.289063 2.667969-5.953125 5.953125-5.953125h36.664063c3.289062 0 5.953125 2.664062 5.953125 5.953125 0 3.285156-2.664063 5.953125-5.953125 5.953125zm0 0" fill="#2e373d"/><path d="m312.316406 183.125c-15.222656 0-30.269531-5.980469-41.492187-17.445312l-34.265625-35c-4.261719-4.355469-4.191406-11.335938.164062-15.597657 4.351563-4.261719 11.335938-4.1875 15.597656.164063l34.269532 35c11.496094 11.746094 29.472656 14.210937 43.707031 5.992187l35.082031-20.253906c7.984375-4.613281 12.046875-13.765625 10.101563-22.78125l-13.441407-62.386719c-1.28125-5.953125 2.503907-11.820312 8.460938-13.105468 5.953125-1.285157 11.820312 2.503906 13.105469 8.460937l13.441406 62.382813c3.96875 18.414062-4.328125 37.113281-20.640625 46.53125l-35.082031 20.253906c-9.066407 5.238281-19.074219 7.785156-29.007813 7.785156zm0 0" fill="#cecece"/><path d="m207.980469 155.046875c-3.8125 0-7.519531-1.976563-9.5625-5.515625-3.046875-5.277344-1.238281-12.019531 4.035156-15.066406l36.46875-21.054688c5.273437-3.046875 12.019531-1.238281 15.066406 4.039063 3.046875 5.273437 1.238281 12.019531-4.039062 15.066406l-36.464844 21.054687c-1.734375 1.003907-3.632813 1.476563-5.503906 1.476563zm0 0" fill="#2e373d"/><path d="m418.101562 137.527344-18.925781-10.929688c-17.917969-10.34375-39.992187-10.34375-57.90625 0-33.027343 19.070313-33.027343 66.738282 0 85.808594l33.96875 20c6.066407 4.007812 14.1875 3.914062 23.117188-1.242188 18.78125-10.84375 34.003906-39.929687 34.003906-64.96875 0-15.21875-5.628906-25.425781-14.257813-28.667968zm0 0" fill="#82a5b9"/><path d="m432.359375 166.195312c0 25.039063-15.222656 54.125-34.003906 64.96875-18.78125 10.839844-34.003907-.667968-34.003907-25.707031 0-25.039062 15.222657-54.128906 34.003907-64.96875 18.78125-10.84375 34.003906.667969 34.003906 25.707031zm0 0" fill="#cecece"/><path d="m422.464844 171.90625c0 17.753906-10.792969 38.378906-24.109375 46.0625-13.3125 7.6875-24.105469-.472656-24.105469-18.222656 0-17.753906 10.792969-38.378906 24.105469-46.066406 13.316406-7.6875 24.109375.472656 24.109375 18.226562zm0 0" fill="#fff"/><path d="m241.113281 286.429688c0 15.351562 9.332031 33.183593 20.847657 39.828124 11.511718 6.648438 20.84375-.40625 20.84375-15.757812s-9.332032-33.183594-20.84375-39.832031c-11.515626-6.644531-20.847657.410156-20.847657 15.761719zm0 0" fill="#fff"/><path d="m239.078125 173.824219c-.449219 0-.90625-.050781-1.363281-.160157-3.199219-.746093-5.1875-3.949218-4.441406-7.152343l9.515624-40.667969c.75-3.199219 3.949219-5.1875 7.152344-4.441406 3.203125.75 5.191406 3.953125 4.441406 7.15625l-9.515624 40.667968c-.640626 2.742188-3.085938 4.597657-5.789063 4.597657zm0 0" fill="#2e373d"/></svg>