<svg viewBox="1 -14 511.99995 511" xmlns="http://www.w3.org/2000/svg"><path d="m300.960938 460.367188c.414062-.210938 21.824218-12.613282 21.824218-12.613282l-14.847656-22.835937c-3.914062-13.730469-12.578125-26.710938-22.644531-32.523438-13.742188-7.933593-24.878907.484375-24.878907 18.804688 0 18.320312 11.136719 39.601562 24.878907 47.53125 5.9375 3.429687 11.390625 3.796875 15.667969 1.636719zm0 0" fill="#23292e"/><path d="m114.023438 326.980469-14.84375-22.839844c-3.917969-13.730469-12.582032-26.710937-22.648438-32.523437-13.742188-7.933594-24.878906.488281-24.878906 18.808593 0 18.316407 11.136718 39.597657 24.878906 47.53125 6.511719 3.757813 12.4375 3.839844 16.871094.9375zm0 0" fill="#23292e"/><path d="m511.917969 374.859375c-1.058594-55.304687-15.753907-116.167969-32.019531-160.585937-3.957032-12.5625-12.152344-22.1875-23.558594-28.769532l-317.890625-183.527344c-3.921875-2.210937-8.382813-1.808593-11.757813.339844h-.003906l-113.097656 65.289063c-3.132813 1.710937-5.488282 4.851562-5.898438 8.859375l-7.691406 75.488281v80.671875c0 4.546875 1.652344 8.9375 4.652344 12.351562l33.484375 38.15625 330.132812 190.894532c8.820313 5.097656 18.53125 8.0625 28.414063 8.925781v.011719c.15625.011718.3125.019531.464844.03125.355468.03125.710937.078125 1.066406.101562v-.023437c10.726562.699219 21.609375-1.089844 31.746094-5.476563 22.496093-9.742187 43.726562-22.109375 63.304687-36.785156 8.078125-7.074219 14.199219-16.316406 17.011719-26.507812 0 0 1.472656-6.382813 1.660156-10.394532l.0625.046875v-20.757812s-.082031-8.335938-.082031-8.339844zm0 0" fill="#72e8f1"/><path d="m502.433594 420.121094c3.339844-1.910156 6.105468-4.472656 8.230468-7.441406.691407-2.863282 1.140626-5.792969 1.273438-8.769532l.0625.046875v-20.757812c-.003906.375-9.566406 14.160156-9.566406 36.921875zm0 0" fill="#fff"/><path d="m421.648438 447.476562h-23.316407c4.898438 14.777344 21.519531 22.054688 35.699219 15.628907l2.234375-1.011719c0-8.074219-6.542969-14.617188-14.617187-14.617188zm0 0" fill="#fff"/><path d="m378.082031 317.929688c3.734375 11.859374 6.941407 23.859374 9.640625 35.96875l113.777344-64.515626c-4.84375-24.339843-11.773438-50.476562-21.601562-75.109374-.011719.007812-.023438.011718-.035157.019531l-113.800781 65.640625c.003906.015625.011719.03125.019531.050781.109375.328125 12 37.945313 12 37.945313zm0 0" fill="#243b58"/><path d="m505.070312 309.21875-113.296874 65.128906c3.859374 22.25 6.003906 44.789063 6.371093 67.417969.074219 1.902344.136719 3.804687.1875 5.710937h23.316407c8.074218 0 14.617187 6.542969 14.617187 14.617188 24.839844-9.566406 46.9375-23.582031 66.167969-41.972656 0-22.761719 9.5625-36.546875 9.566406-36.921875.042969-11.628907-1.402344-39.84375-6.929688-73.980469zm0 0" fill="#243b58"/><path d="m398.214844 483.097656v-34.207031c0-44.421875-6.789063-88.589844-20.132813-130.960937l-11.644531-36.964844c-.101562-.335938-.246094-.652344-.359375-.984375-2.039063-6.050781-5.136719-11.636719-9.109375-16.507813-4-4.898437-8.933594-9.117187-14.414062-12.277344l-317.78125-183.472656c-.449219-.257812-.902344-.480468-1.363282-.671875-6.914062-2.878906-14.929687 1.683594-15.71875 9.414063l-7.691406 75.488281v80.671875c0 4.546875 1.652344 8.9375 4.652344 12.351562l33.484375 38.15625 330.132812 190.894532c9.277344 5.363281 19.535157 8.394531 29.945313 9.070312zm0 0" fill="#2eb3bd"/><path d="m311.292969 309.324219-.015625 55.175781-311.277344-179.8125v1.632812l72.574219 41.914063-.03125 75.21875 1.632812.9375v-42.195313l54.863281 31.6875-.015624 42.167969 1.632812.9375v-75.207031l55.285156 31.929688-.03125 75.199218 1.632813.9375v-75.210937l55.488281 32.042969-.035156 75.085937 1.632812.9375v-75.097656l66.648438 38.492187-.019532 75.003906 1.632813.9375v-131.777343zm-182.25-17.058594-54.867188-31.695313v-31.410156l54.878907 31.695313zm0 0" fill="#304e75"/><path d="m310.167969 439.925781c0 18.320313-11.136719 26.738281-24.875 18.808594-13.738281-7.933594-24.878907-29.214844-24.878907-47.535156 0-18.316407 11.140626-26.738281 24.878907-18.804688 13.738281 7.929688 24.875 29.210938 24.875 47.53125zm0 0" fill="#2e373d"/><path d="m296.898438 432.625c0 9.007812-5.476563 13.148438-12.230469 9.246094-6.753907-3.898438-12.230469-14.363282-12.230469-23.371094 0-9.003906 5.476562-13.144531 12.230469-9.246094 6.753906 3.902344 12.230469 14.363282 12.230469 23.371094zm0 0" fill="#cecece"/><path d="m291.300781 429.394531c0 4.882813-2.96875 7.128907-6.632812 5.011719-3.664063-2.113281-6.636719-7.789062-6.636719-12.671875 0-4.886719 2.972656-7.132813 6.636719-5.015625 3.664062 2.113281 6.632812 7.789062 6.632812 12.675781zm0 0" fill="#627681"/><path d="m284.4375 206.691406 94.816406-54.683594c-6.347656-10.796874-15.382812-19.765624-26.230468-26.03125l-201.382813-116.304687c-2.21875-1.28125-4.722656-1.03125-6.59375.199219l-94.140625 54.296875c-2.023438 1-3.519531 3.054687-3.519531 5.636719zm0 0" fill="#a4eff4"/><path d="m284.4375 206.691406-237.050781-136.886718c0-4.84375 5.246093-7.875 9.441406-5.449219l201.382813 116.304687c10.847656 6.265625 19.882812 15.234375 26.226562 26.03125zm0 0" fill="#2eb3bd"/><path d="m397.753906 348.207031 95.03125-53.882812c-2.847656-13.234375-6.296875-26.347657-10.371094-39.289063l-5.414062-17.1875-94.835938 54.769532 5.398438 17.144531c3.988281 12.667969 7.382812 25.5 10.191406 38.445312zm0 0" fill="#304e75"/><path d="m401.683594 368.648438c3.4375 20.527343 5.410156 41.292968 5.886718 62.140624l.085938.410157 94.777344-54.679688c-.457032-20.941406-2.421875-41.796875-5.867188-62.414062zm0 0" fill="#304e75"/><path d="m312.890625 244.910156-287.652344-165.984375c-3-1.730469-6.789062.183594-7.175781 3.625l-4.984375 44.320313 5.84375 13.824218 293.96875 169.566407zm0 0" fill="#243b58"/><path d="m327.632812 341.046875 1.917969 8.925781c7.371094 34.253906 28.925781 63.773438 59.308594 81.226563v-16.792969c0-13.28125-.941406-26.507812-2.753906-39.601562zm0 0" fill="#243b58"/><path d="m381.640625 350.347656c-3.894531-17.097656-9.335937-33.847656-16.304687-50.035156l-7.222657-16.769531c-4.667969-10.832031-12.707031-19.871094-22.921875-25.765625l-12.816406-7.394532v65.347657zm0 0" fill="#243b58"/><path d="m447.570312 319.960938 41.359376-23.453126c-3.628907-19.121093-9.179688-37.875-16.613282-55.957031l-42.117187 24.324219 4.5 20.925781c2.601562 12.085938 6.972656 23.578125 12.871093 34.160157zm0 0" fill="#59718b"/><path d="m458.300781 336.105469c9.703125 12.371093 21.773438 22.921875 35.707031 30.925781v-16.796875c0-11.226563-.671874-22.417969-1.972656-33.519531zm0 0" fill="#59718b"/><g fill="#304e75"><path d="m242.996094 270.007812 3.71875 2.144532v-65.429688l-3.71875-2.144531zm0 0"/><path d="m185.910156 237.078125 3.714844 2.144531v-65.441406l-3.714844-2.144531zm0 0"/><path d="m129.023438 204.265625 3.714843 2.140625v-65.449219l-3.714843-2.144531zm0 0"/><path d="m72.542969 171.6875 3.714843 2.144531v-65.464843l-3.714843-2.148438zm0 0"/></g><path d="m101.40625 319.148438c0 18.320312-11.136719 26.738281-24.875 18.808593-13.738281-7.933593-24.878906-29.214843-24.878906-47.53125 0-18.320312 11.140625-26.742187 24.878906-18.808593 13.738281 7.933593 24.875 29.210937 24.875 47.53125zm0 0" fill="#2e373d"/><path d="m88.199219 312.160156c0 9.007813-5.476563 13.148438-12.230469 9.246094-6.757812-3.898438-12.230469-14.359375-12.230469-23.367188 0-9.007812 5.472657-13.148437 12.230469-9.246093 6.753906 3.898437 12.230469 14.359375 12.230469 23.367187zm0 0" fill="#cecece"/><path d="m82.601562 308.929688c0 4.882812-2.96875 7.128906-6.632812 5.015624-3.664062-2.117187-6.636719-7.792968-6.636719-12.675781 0-4.886719 2.972657-7.128906 6.636719-5.015625 3.664062 2.113282 6.632812 7.789063 6.632812 12.675782zm0 0" fill="#627681"/><path d="m11.402344 213.253906v24.640625l43.558594 25.378907v-24.632813zm0 0" fill="#304e75"/></svg>