<svg viewBox="0 -41 512 512" xmlns="http://www.w3.org/2000/svg"><path d="m139.109375 265.386719-32.660156-22.976563c-4.804688-12.007812-12.808594-22.679687-21.875-27.917968-14.695313-8.484376-26.613281.523437-26.613281 20.121093 0 19.59375 11.914062 42.359375 26.613281 50.84375 6.964843 4.023438 13.304687 4.109375 18.046875 1.007813zm0 0" fill="#23292e"/><path d="m384.035156 406.804688-32.660156-22.980469c-4.804688-12.007813-12.808594-22.679688-21.875-27.914063-14.695312-8.484375-26.613281.523438-26.613281 20.117188 0 19.597656 11.914062 42.363281 26.613281 50.847656 6.96875 4.019531 13.304688 4.105469 18.050781 1.003906zm0 0" fill="#23292e"/><path d="m484.640625 272.359375-44.960937-26.140625-1.128907-8.332031-7.203125-53.25c-1.878906-13.894531-10.085937-26.132813-22.230468-33.144531l-257.96875-149.402344c-5.3125-3.070313-11.308594-2.566406-15.871094.265625l-119.839844 69.347656c-5.636719 2.160156-9.957031 7.542969-9.957031 14.429687v102.207032l55.714843 44.929687 322.839844 186.492188 122.515625-70.675781v-38.644532c0-8.824218-2.644531-17.277344-7.367187-24.386718-.523438-.789063-5.75-8.59375-14.542969-13.695313zm0 0" fill="#ffd613"/><path d="m390.921875 333.683594-51.410156-29.679688-22.347657 12.886719 44.964844 26.140625c13.5625 7.890625 21.910156 22.394531 21.910156 38.085938v38.640624l22.25-12.835937v-46.621094c0-10.980469-5.859374-21.125-15.367187-26.617187zm0 0" fill="#e7c712"/><path d="m484.640625 272.359375-44.960937-26.140625-10.933594 6.304688 44.671875 25.722656c6.902343 3.976562 11.15625 11.335937 11.15625 19.300781v64.214844l21.976562-12.675781v-38.644532c0-15.691406-8.347656-30.195312-21.910156-38.082031zm0 0" fill="#e7c712"/><path d="m5.480469 86.132812v102.207032l55.714843 44.929687 322.839844 186.492188v-38.644531c0-15.691407-8.34375-30.195313-21.90625-38.082032l-44.964844-26.140625-8.328124-61.582031c-1.878907-13.890625-10.089844-26.132812-22.230469-33.144531l-257.96875-149.402344c-10.292969-5.945313-23.15625 1.484375-23.15625 13.367187zm0 0" fill="#c98000"/><path d="m5.476562 183.285156 19.800782 21.019532 35.917968 28.960937 300.476563 173.574219v-19.421875l-356.195313-204.269531zm0 0" fill="#2e373d"/><path d="m395.128906 323.257812-55.621094-32.03125v12.777344l51.410157 29.679688c9.511719 5.492187 15.367187 15.636718 15.367187 26.617187v-17.746093c.003906-7.964844-4.253906-15.324219-11.15625-19.296876zm0 0" fill="#c98000"/><path d="m413.367188 379.65625c-2.640626 0-4.789063-2.144531-4.789063-4.785156v-23.113282c0-6.21875 3.355469-11.996093 8.757813-15.082031l57.304687-32.738281c.726563-.414062 1.546875-.632812 2.367187-.632812 2.640626 0 4.789063 2.148437 4.789063 4.789062v23.488281c0 6.253907-3.386719 12.046875-8.828125 15.125l-57.253906 32.328125c-.722656.40625-1.535156.621094-2.347656.621094zm0 0" fill="#ededed"/><path d="m410.808594 372.566406 68.757812-39.699218v-7.679688l-68.757812 39.699219zm0 0" fill="#23292e"/><path d="m410.808594 362.316406 68.757812-39.703125v-10.277343l-68.757812 40.0625zm0 0" fill="#23292e"/><path d="m410.878906 375.472656c.285156 1.222656 1.421875 1.957032 2.488282 1.957032.4375 0 .855468-.113282 1.25-.332032l57.253906-32.332031c3.378906-1.910156 5.84375-5.023437 6.984375-8.625zm0 0" fill="#23292e"/><path d="m479.566406 309.761719v-1.667969c0-1.582031-1.328125-2.5625-2.558594-2.5625-.441406 0-.867187.113281-1.265624.34375l-57.304688 32.734375c-4.117188 2.351563-6.871094 6.5-7.496094 11.132813zm0 0" fill="#23292e"/><path d="m404.058594 371.714844c0 5.949218-3.617188 12.863281-8.082032 15.4375-4.460937 2.578125-8.078124-.160156-8.078124-6.105469 0-5.953125 3.617187-12.863281 8.078124-15.441406 4.464844-2.574219 8.082032.160156 8.082032 6.109375zm0 0" fill="#ededed"/><path d="m504.277344 313.972656c0 5.949219-3.617188 12.863282-8.082032 15.4375-4.460937 2.578125-8.078124-.15625-8.078124-6.105468 0-5.953126 3.617187-12.863282 8.078124-15.441407 4.464844-2.574219 8.082032.160157 8.082032 6.109375zm0 0" fill="#ededed"/><path d="m381.21875 266.933594 51.3125-29.46875-8.230469-60.023438-51.871093 30.210938zm0 0" fill="#304e75"/><path d="m367.332031 210.621094-55.167969 32.128906 8.726563 58.832031 55.222656-31.71875zm0 0" fill="#304e75"/><g fill="#243b58"><path d="m65.140625 171.59375 44.242187 25.496094v-64.765625l-44.242187-25.613281zm0 0"/><path d="m160.859375 162.132812-44.242187-25.617187v64.746094l44.242187 25.5zm0 0"/><path d="m271.058594 290.273438 30.777344 17.738281-5.089844-50.644531c-1.109375-11.054688-7.472656-20.898438-17.09375-26.453126l-8.59375-4.976562zm0 0"/><path d="m212.339844 191.9375-44.242188-25.613281v64.609375l44.242188 25.496094zm0 0"/><path d="m57.902344 102.519531-31.292969-18.121093c-4.792969-2.765626-10.785156.695312-10.785156 6.230468v52.542969l42.078125 24.25zm0 0"/><path d="m263.820312 221.746094-44.242187-25.617188v64.472656l44.242187 25.5zm0 0"/></g><path d="m425.71875 238.136719-5.089844-50.644531c-.246094-2.421876-.78125-4.765626-1.507812-7.035157l-46.496094 27.078125zm0 0" fill="#59718b"/><path d="m356.113281 406.757812c0 19.59375-11.914062 28.601563-26.613281 20.117188-14.695312-8.484375-26.613281-31.25-26.613281-50.847656 0-19.59375 11.914062-28.601563 26.613281-20.117188 14.695312 8.484375 26.613281 31.25 26.613281 50.847656zm0 0" fill="#2e373d"/><path d="m342.585938 398.945312c0 9.636719-5.859376 14.066407-13.085938 9.894532s-13.085938-15.367188-13.085938-25c0-9.636719 5.859376-14.0625 13.085938-9.890625 7.226562 4.167969 13.085938 15.363281 13.085938 24.996093zm0 0" fill="#cecece"/><path d="m336.597656 395.488281c0 5.226563-3.175781 7.628907-7.097656 5.367188-3.917969-2.261719-7.097656-8.332031-7.097656-13.558594s3.179687-7.628906 7.097656-5.367187c3.917969 2.265624 7.097656 8.335937 7.097656 13.558593zm0 0" fill="#627681"/><path d="m111.1875 265.339844c0 19.59375-11.914062 28.601562-26.613281 20.117187-14.695313-8.484375-26.613281-31.25-26.613281-50.847656 0-19.59375 11.914062-28.601563 26.613281-20.117187 14.695312 8.484374 26.613281 31.25 26.613281 50.847656zm0 0" fill="#2e373d"/><path d="m97.65625 257.527344c0 9.636718-5.855469 14.066406-13.082031 9.894531-7.226563-4.171875-13.085938-15.367187-13.085938-25 0-9.636719 5.859375-14.0625 13.085938-9.890625 7.226562 4.171875 13.082031 15.363281 13.082031 24.996094zm0 0" fill="#cecece"/><path d="m91.671875 254.070312c0 5.226563-3.179687 7.628907-7.097656 5.367188s-7.097657-8.332031-7.097657-13.558594c0-5.226562 3.179688-7.628906 7.097657-5.367187 3.917969 2.265625 7.097656 8.335937 7.097656 13.558593zm0 0" fill="#627681"/><path d="m5.476562 174.082031v-2.988281l-5.4335932 2.960938-.0429688-.023438v19.429688l22.363281 12.914062 2.914063-2.070312v-18.792969zm0 0" fill="#627681"/><path d="m0 174.03125v19.429688l22.363281 12.914062v-19.40625zm0 0" fill="#2e373d"/><path d="m512 326.375-5.449219-3.519531v3.519531l-122.515625 69.9375-18.886718-10.902344-3.476563 2.007813v21.792969l22.363281 12.910156 127.964844-74.207032zm0 0" fill="#23292e"/><path d="m384.035156 400.355469 127.964844-73.980469v21.539062l-127.964844 74.207032zm0 0" fill="#2e373d"/><path d="m306.042969 323.296875v12.855469l-289.523438-167.269532v-12.742187zm0 0" fill="#2e373d"/><path d="m328.28125 233.363281v-25.878906l11.214844-14.84375 44.539062-25.71875 10.996094 2.023437v25.539063zm0 0" fill="#c98000"/><path d="m384.640625 170.429688 7.050781 1.300781v20.835937l-60.070312 34.984375v-18.945312l10.132812-13.414063z" fill="#fff"/><path d="m258.144531 327.972656-9.734375-28.097656 9.734375-16.859375 19.46875 11.238281 9.734375 28.097656-9.734375 16.859376zm0 0" fill="#e33400"/><path d="m276.558594 336.167969-17.359375-10.023438-8.675781-25.054687 8.675781-15.03125 17.359375 10.019531 8.679687 25.054687zm-16.453125-11.585938 15.550781 8.976563 7.773438-13.46875-7.773438-22.445313-15.550781-8.976562-7.777344 13.464843zm0 0" fill="#fff"/><path d="m278.234375 321.332031-20.710937-11.960937v-8.476563l20.710937 11.957031zm0 0" fill="#fff"/></svg>