<svg viewBox="0 -16 512 511" xmlns="http://www.w3.org/2000/svg"><path d="m293.105469 72.519531-16.976563-9.800781-2.96875 1.617188v108.457031l17.09375 9.972656 2.964844-1.617187zm0 0" fill="#034626"/><path d="m290.136719 74.769531-16.976563-9.800781v107.824219l17.09375 9.972656zm0 0" fill="#238342"/><path d="m210.824219 24.765625-16.976563-9.800781-2.964844 1.617187v108.457031l17.089844 9.972657 2.96875-1.617188zm0 0" fill="#034626"/><path d="m207.859375 27.015625-16.976563-9.800781v107.824218l17.089844 9.976563zm0 0" fill="#238342"/><path d="m498.953125 375.308594c0-28.152344-17.113281-60.859375-38.230469-73.050782-9.378906-5.414062-17.964844-5.859374-24.617187-2.226562 0 0-20.21875 11.441406-21.144531 12.082031l-.101563.058594.003906.007813c-7.257812 5.085937-11.785156 15.519531-11.785156 29.984374 0 28.15625 17.117187 60.859376 38.234375 73.050782 9.925781 5.730468 18.96875 5.90625 25.761719 1.558594l17.777343-10.066407v-.003906c8.605469-4.378906 14.101563-15.441406 14.101563-31.394531zm0 0" fill="#23292e"/><path d="m479.542969 386.3125c0 28.152344-17.117188 41.09375-38.230469 28.902344-21.117188-12.191406-38.234375-44.894532-38.234375-73.050782 0-28.152343 17.117187-41.09375 38.234375-28.902343 21.113281 12.191406 38.230469 44.898437 38.230469 73.050781zm0 0" fill="#2e373d"/><path d="m17.261719 184.980469 138.089843-79.722657 172.863282 98.464844-138.339844 81.042969zm0 0" fill="#2e373d"/><path d="m.324219 155.117188v-28.050782l156.214843-90.75v28.238282zm0 0" fill="#034626"/><path d="m156.539062 36.316406-156.214843 90.75v28.050782l6.617187 3.742187 156.214844-90.5625v-28.238281zm0 0" fill="#034626"/><path d="m6.941406 158.859375v-28.050781l156.214844-90.75v28.238281zm0 0" fill="#045d32"/><path d="m.324219 194.660156v-28.050781l156.214843-90.75v28.238281zm0 0" fill="#034626"/><path d="m156.539062 75.859375-156.214843 90.75v28.050781l6.617187 3.738282 156.214844-90.558594v-28.242188zm0 0" fill="#034626"/><path d="m6.941406 198.398438v-28.050782l156.214844-90.75v28.242188zm0 0" fill="#045d32"/><path d="m115.230469 219.121094c-14.191407-8.191406-19.410157-6.117188-33.492188.882812-13.738281 6.6875-24.148437 17.339844-24.148437 39.027344 0 28.152344 17.113281 60.859375 38.230468 73.046875 9.128907 5.273437 17.503907 5.835937 24.078126 2.515625h.003906c.632812-.320312 17.808594-10.292969 17.808594-10.292969 9.542968-5.921875 15.753906-15.179687 15.753906-32.128906 0-28.152344-17.117188-60.859375-38.234375-73.050781zm0 0" fill="#23292e"/><path d="m51.785156 224.734375-34.378906-19.851563v29.777344l34.378906 19.847656 26.644532-14.222656zm0 0" fill="#238342"/><path d="m17.40625 204.882812v29.777344l34.378906 19.847656v-29.773437zm0 0" fill="#2dad57"/><path d="m134.050781 303.175781c0 28.15625-17.117187 41.09375-38.230469 28.902344-21.117187-12.1875-38.230468-44.894531-38.230468-73.046875 0-28.15625 17.113281-41.09375 38.230468-28.902344 21.113282 12.1875 38.230469 44.894532 38.230469 73.046875zm0 0" fill="#2e373d"/><path d="m114.617188 291.957031c0 13.839844-8.417969 20.203125-18.796876 14.207031-10.382812-5.992187-18.796874-22.070312-18.796874-35.914062s8.414062-20.203125 18.796874-14.210938c10.378907 5.996094 18.796876 22.074219 18.796876 35.917969zm0 0" fill="#cecece"/><path d="m106.015625 286.988281c0 7.507813-4.566406 10.957031-10.195313 7.707031-5.632812-3.25-10.195312-11.972656-10.195312-19.476562 0-7.507812 4.5625-10.960938 10.195312-7.710938 5.628907 3.253907 10.195313 11.972657 10.195313 19.480469zm0 0" fill="#045d32"/><path d="m163.15625 79.597656-6.945312 4.035156-.285157-.164062v28.238281l165.347657 95.601563 6.617187-3.742188v-28.046875zm0 0" fill="#045d32"/><path d="m321.273438 207.308594v-28.050782l-165.347657-95.789062v28.238281zm0 0" fill="#034626"/><path d="m163.15625 40.058594-6.945312 4.03125v.003906l-.285157-.167969v28.238281l165.347657 95.601563 6.617187-3.738281v-28.050782zm0 0" fill="#045d32"/><path d="m321.273438 167.765625v-28.046875l-165.347657-95.792969v28.238281zm0 0" fill="#034626"/><path d="m162.542969.5-6.617188 3.738281.761719.574219-.761719-.441406v28.238281l165.347657 95.601563 6.617187-3.742188v-28.046875zm0 0" fill="#045d32"/><g fill="#034626"><path d="m321.273438 128.210938v-28.050782l-165.347657-95.789062v28.238281zm0 0"/><path d="m165.058594 210.796875v-28.050781l156.214844-90.753906v28.242187zm0 0"/><path d="m321.273438 91.992188-156.214844 90.753906v28.050781l6.617187 3.738281 156.214844-90.5625v-28.238281zm0 0"/></g><path d="m171.675781 214.535156v-28.050781l156.214844-90.75v28.238281zm0 0" fill="#045d32"/><path d="m165.382812 251.003906v-28.050781l156.214844-90.75v28.238281zm0 0" fill="#034626"/><path d="m321.597656 132.203125-156.214844 90.75v28.050781l6.617188 3.738282 156.214844-90.5625v-28.238282zm0 0" fill="#034626"/><path d="m172 254.742188v-28.050782l156.214844-90.75v28.238282zm0 0" fill="#045d32"/><path d="m165.382812 290.542969v-28.050781l156.214844-90.75v28.238281zm0 0" fill="#034626"/><path d="m321.597656 171.742188-156.214844 90.75v28.050781l6.617188 3.742187 156.214844-90.5625v-28.238281zm0 0" fill="#034626"/><path d="m172 294.285156v-28.050781l156.214844-90.75v28.238281zm0 0" fill="#045d32"/><path d="m507.300781 342.351562-10.691406 6.171876-3.78125-15.28125c-6.078125-24.570313-21.898437-45.605469-43.820313-58.261719-3.554687-2.054688-7.390624-3.40625-11.3125-4.09375l-40.6875-48.40625-11.171874-44.246094c-3.714844-14.707031-13.242188-27.269531-26.398438-34.820313l-39.738281-22.796874c-5.902344-3.382813-12.535157-2.90625-17.660157.128906l-102.613281 59.027344c-5.523437 2.828124-9.554687 8.515624-9.554687 15.605468v88.542969l-11.292969 6.621094-.046875-12.339844-126.746094-72.886719v39.863282l85.84375 49.289062v9.757812l34.375 19.84375v6.90625l121.339844 70.074219 18.558594-9.59375 74.410156 28.640625v12.035156l4.703125 2.445313 120.984375-69.847656v-19.933594zm0 0" fill="#238342"/><path d="m51.785156 205.316406v39.863282l85.84375 49.136718v-39.738281zm0 0" fill="#525e65"/><path d="m189.875 283.921875-17.871094 10.378906-34.375-19.851562v29.777343l34.375 19.84375 17.871094-9.535156zm0 0" fill="#82a5b9"/><path d="m172.003906 324.070312 17.871094-9.535156v-30.613281l-17.871094 10.378906zm0 0" fill="#cecece"/><path d="m172.003906 311.046875 22.609375-11.6875 121.335938 70.074219v19.929687l-22.605469 11.6875-121.339844-70.074219zm0 0" fill="#23292e"/><path d="m484.226562 302.722656.003907-.011718-39.628907-23.609376 11.421876 13.585938c4.785156 5.695312 7.96875 12.503906 9.308593 19.730469 3.699219 6.980469 5.953125 12.804687 7.132813 13.675781v.003906h.003906c1.578125 1.585938 3.941406 1.8125 6.589844.285156 4.761718-2.746093 8.621094-10.121093 8.621094-16.46875-.003907-3.761718-1.363282-6.304687-3.453126-7.191406zm0 0" fill="#4f9b68"/><path d="m487.675781 309.914062c0 6.347657-3.859375 13.722657-8.621093 16.46875-4.757813 2.75-8.617188-.167968-8.617188-6.515624 0-6.347657 3.859375-13.722657 8.617188-16.472657 4.761718-2.746093 8.621093.171875 8.621093 6.519531zm0 0" fill="#2dad57"/><path d="m485.710938 311.050781c0 4.898438-2.980469 10.589844-6.652344 12.710938-3.675782 2.121093-6.65625-.128907-6.65625-5.03125 0-4.898438 2.980468-10.589844 6.65625-12.710938 3.671875-2.121093 6.652344.128907 6.652344 5.03125zm0 0" fill="#fff"/><path d="m466.054688 320.21875c0-10.070312-3.554688-19.820312-10.035157-27.527344l-59.011719-70.210937c-.988281-2.996094-103.566406 59.550781-103.566406 59.550781l97.554688 42.410156c14.132812 6.144532 23.273437 20.085938 23.273437 35.496094v54.3125l51.785157-29.894531zm0 0" fill="#2dad57"/><path d="m456.738281 310.007812-29.09375 16.796876c-8.277343 4.777343-13.375 13.605468-13.375 23.160156v9.96875.003906 36.152344l51.785157-29.898438v-45.972656c0-2.039062-.148438-4.0625-.4375-6.0625-.597657-4.109375-5.285157-6.226562-8.878907-4.148438zm0 0" fill="#4f9b68"/><path d="m459.148438 320.21875v41.878906l-37.972657 21.925782v-34.058594c0-7.066406 3.800781-13.648438 9.917969-17.183594.003906 0 28.054688-17.855469 28.054688-12.5625zm0 0" fill="#045d32"/><path d="m398.78125 327.707031-105.339844-45.675781-11.175781-44.246094c-3.714844-14.707031-13.238281-27.269531-26.394531-34.816406l-39.742188-22.800781c-11.6875-6.703125-26.257812 1.734375-26.257812 15.210937v129.179688l103.570312 59.792968 120.828125 29.898438v-62.949219c0-10.246093-6.082031-19.515625-15.488281-23.59375zm0 0" fill="#045d32"/><path d="m343.339844 346.941406c-21.117188-12.191406-38.234375.746094-38.234375 28.902344 0 4.414062.464843 8.941406 1.257812 13.480469l75.144531 28.925781c-.683593-27.75-17.484374-59.367188-38.167968-71.308594zm0 0" fill="#045d32"/><path d="m178.578125 290.542969v-28.050781l-171.960937-99.65625v28.238281zm0 0" fill="#034626"/><path d="m6.617188 162.835938-6.617188 3.738281v28.242187l171.964844 99.46875 6.613281-3.742187v-28.050781zm0 0" fill="#034626"/><path d="m171.964844 294.285156v-28.050781l-171.964844-99.660156v28.242187zm0 0" fill="#045d32"/><path d="m178.578125 251.003906v-28.050781l-171.960937-99.660156v28.238281zm0 0" fill="#034626"/><path d="m6.617188 123.292969-6.617188 3.742187v28.238282l171.964844 99.46875 6.613281-3.738282v-28.050781zm0 0" fill="#034626"/><path d="m171.964844 254.742188v-28.050782l-171.964844-99.65625v28.238282zm0 0" fill="#045d32"/><path d="m178.578125 210.796875v-28.050781l-171.960937-99.660156v28.238281zm0 0" fill="#034626"/><path d="m6.617188 83.085938-6.617188 3.742187v28.238281l171.964844 99.46875 6.613281-3.738281v-28.050781zm0 0" fill="#034626"/><path d="m171.964844 214.535156v-28.050781l-171.964844-99.65625v28.238281zm0 0" fill="#045d32"/><path d="m400.980469 434.015625c0-28.15625-17.117188-60.859375-38.230469-73.050781-9.382812-5.417969-17.972656-5.859375-24.621094-2.226563 0 0-20.21875 11.441407-21.144531 12.082031l-.097656.058594.003906.007813c-7.257813 5.085937-11.785156 15.519531-11.785156 29.984375 0 28.15625 17.117187 60.859375 38.234375 73.050781 9.125 5.269531 17.503906 5.835937 24.078125 2.515625.574219-.292969 19.460937-11.023438 19.460937-11.023438v-.003906c8.601563-4.382812 14.101563-15.441406 14.101563-31.394531zm0 0" fill="#23292e"/><path d="m381.570312 445.019531c0 28.152344-17.117187 41.09375-38.230468 28.902344-21.117188-12.191406-38.234375-44.894531-38.234375-73.050781 0-28.152344 17.117187-41.09375 38.234375-28.902344 21.113281 12.191406 38.230468 44.894531 38.230468 73.050781zm0 0" fill="#2e373d"/><path d="m362.136719 433.796875c0 13.84375-8.417969 20.207031-18.796875 14.210937-10.382813-5.992187-18.800782-22.074218-18.800782-35.914062 0-13.84375 8.417969-20.207031 18.800782-14.210938 10.378906 5.992188 18.796875 22.074219 18.796875 35.914063zm0 0" fill="#cecece"/><path d="m353.53125 428.832031c0 7.507813-4.5625 10.957031-10.191406 7.707031-5.632813-3.25-10.195313-11.972656-10.195313-19.480468 0-7.507813 4.5625-10.957032 10.195313-7.707032 5.628906 3.25 10.191406 11.972657 10.191406 19.480469zm0 0" fill="#045d32"/><path d="m393.070312 408.300781 17.261719-9.964843-3.808593-15.390626c-7.195313-29.074218-42.453126-78.488281-78.035157-58.441406l-17.257812 9.964844c10.632812-5.992188 23.640625-5.921875 34.210937.179688 21.917969 12.65625 37.742188 33.691406 43.820313 58.261718zm0 0" fill="#238342"/><path d="m386.3125 412.203125 6.757812-3.902344-3.808593-15.390625c-6.078125-24.570312-21.902344-45.605468-43.820313-58.261718-10.570312-6.101563-23.578125-6.171876-34.210937-.179688-10.992188 6.191406-17.789063 17.824219-17.789063 30.433594v19.449218l12.921875 4.972657c-.792969-4.539063-1.257812-9.066407-1.257812-13.480469 0-28.15625 17.117187-41.097656 38.234375-28.90625 20.683594 11.945312 37.484375 43.558594 38.167968 71.308594l4.804688 1.851562zm0 0" fill="#2dad57"/><path d="m137.515625 166.261719-16.976563-9.800781-2.96875 1.617187v108.457031l17.089844 9.976563 2.96875-1.621094zm0 0" fill="#034626"/><path d="m134.546875 168.511719-16.976563-9.800781v107.824218l17.089844 9.976563zm0 0" fill="#238342"/><path d="m55.234375 118.3125-16.976563-9.800781-2.964843 1.617187v108.457032l17.089843 9.972656 2.96875-1.617188zm0 0" fill="#034626"/><path d="m52.269531 120.5625-16.976562-9.800781v107.824219l17.089843 9.972656zm0 0" fill="#238342"/><path d="m362.257812 234.785156 23.792969-13.847656c3.632813-2.113281 5.355469-6.433594 4.175781-10.46875l-10.132812-34.691406c-1.378906-4.71875-6.816406-6.890625-11.070312-4.425782l-25.0625 14.550782c-3.757813 2.179687-5.464844 6.699218-4.078126 10.820312l11.390626 33.925782c1.523437 4.546874 6.835937 6.546874 10.984374 4.136718zm0 0" fill="#304e75"/><path d="m321.640625 198.855469-31.226563 18.125c-3.53125 2.050781-5.273437 6.191406-4.273437 10.152343l8.988281 35.546876c1.230469 4.878906 6.796875 7.21875 11.144532 4.6875l33.804687-19.675782c3.761719-2.1875 5.457031-6.726562 4.058594-10.847656l-11.527344-33.875c-1.539063-4.527344-6.835937-6.511719-10.96875-4.113281zm0 0" fill="#304e75"/><path d="m287.1875 281.085938-6.175781-30.003907c-3.703125-17.976562-14.996094-33.476562-30.96875-42.511719l-25.738281-14.558593c-5.421876-3.066407-12.136719.851562-12.136719 7.082031v36.660156zm0 0" fill="#243b58"/><path d="m384.140625 217.21875-6.179687-30.003906c-1.21875-5.925782-3.335938-11.542969-6.101563-16.785156-.964844.121093-1.929687.394531-2.835937.921874l-25.066407 14.550782c-2.1875 1.269531-3.648437 3.339844-4.242187 5.65625zm0 0" fill="#59718b"/><path d="m512 344.796875-4.699219-2.445313-120.988281 69.851563v19.933594l4.703125 2.441406 120.984375-69.847656zm0 0" fill="#23292e"/><path d="m391.015625 414.648438v19.929687l120.984375-69.847656v-19.933594zm0 0" fill="#2e373d"/><path d="m397.527344 350.984375.007812-.011719-44.679687-26.617187c15.253906 12.210937 30.882812 48.898437 32.910156 50l.003906.003906c1.582031 1.585937 3.945313 1.8125 6.589844.285156 4.761719-2.746093 8.621094-10.121093 8.621094-16.46875 0-3.761719-1.359375-6.304687-3.453125-7.191406zm0 0" fill="#4f9b68"/><path d="m400.980469 358.175781c0 6.347657-3.859375 13.722657-8.621094 16.472657-4.761719 2.746093-8.621094-.171876-8.621094-6.519532s3.859375-13.722656 8.621094-16.46875c4.761719-2.75 8.621094.167969 8.621094 6.515625zm0 0" fill="#2dad57"/><path d="m399.015625 359.3125c0 4.898438-2.980469 10.589844-6.65625 12.710938-3.671875 2.121093-6.652344-.128907-6.652344-5.03125 0-4.898438 2.980469-10.589844 6.652344-12.710938 3.675781-2.121094 6.65625.128906 6.65625 5.03125zm0 0" fill="#fff"/><path d="m293.34375 384.003906v17.046875l-121.339844-70.074219v-17.046874zm0 0" fill="#2e373d"/></svg>