<svg viewBox="0 -23 512 512" xmlns="http://www.w3.org/2000/svg"><path d="m111.09375 268.734375-40.453125-28.460937c-5.949219-14.871094-15.863281-28.089844-27.09375-34.574219-18.203125-10.511719-32.960937.644531-32.960937 24.917969 0 24.269531 14.757812 52.464843 32.960937 62.976562 8.628906 4.980469 16.476563 5.085938 22.351563 1.246094zm0 0" fill="#23292e"/><path d="m131.855469 335.410156c.542969-.273437 46.785156-27.023437 46.785156-27.023437l-40.453125-28.460938c-5.949219-14.871093-15.863281-28.089843-27.09375-34.574219-18.203125-10.511718-32.960938.644532-32.960938 24.917969 0 24.269531 14.757813 52.464844 32.960938 62.976563 7.871094 4.542968 15.09375 5.027344 20.761719 2.164062zm0 0" fill="#23292e"/><path d="m508.015625 320.542969c-6.445313-18.023438-17.6875-33.941407-32.515625-46.035157l-44.332031-36.164062-16.691407-48.1875c-1.652343-4.773438-3.722656-9.355469-6.171874-13.703125-1.222657-2.175781-5.378907-8.378906-6.128907-9.367187-6.734375-8.9375-15.238281-16.503907-25.078125-22.1875 0-28.765626-15.289062-55.363282-40.148437-69.839844l-67.449219-39.054688-121.023438 70.132813-13.472656-7.78125-135.003906 77.785156v33.425781c0 8.195313 4.375 15.761719 11.472656 19.851563l137.003906 78.949219.003907.003906c.078125 19.300781 10.410156 37.117187 27.140625 46.769531l174.65625 100.871094c25.179687 14.523437 56.199218 14.492187 81.347656-.082031l62.101562-35.988282c11.308594-6.550781 18.273438-18.632812 18.273438-31.707031v-44.726563c0-7.828124-1.347656-15.597656-3.984375-22.964843zm0 0" fill="#525e65"/><path d="m0 176.140625 135.003906-77.785156 13.472656 7.78125v155.5625zm0 0" fill="#627681"/><path d="m159.71875 96.011719c-.023438-3.175781-2.335938-6.519531-6.863281-9.132813-2.507813-1.449218-5.410157-2.5-8.425781-3.160156-1.921876-8.566406-7.335938-16.113281-15.09375-20.59375l-.734376-.425781c-2.578124-1.484375-5.871093-.601563-7.359374 1.976562-1.488282 2.578125-.605469 5.871094 1.972656 7.359375l.730468.421875c4.226563 2.4375 7.394532 6.257813 9.089844 10.691407-3.101562.382812-5.972656 1.230468-8.289062 2.566406-3.109375 1.796875-4.699219 4.171875-4.84375 6.679687-.007813.128907 0 .257813 0 .390625v72.898438c.023437 3.175781 2.335937 6.519531 6.863281 9.136718 2.320313 1.335938 7.664063 3.554688 7.664063 3.84375v20.84375c0 3.210938 2.738281 7.960938 8.125 4.644532l13.328124-7.859375c5.996094-3.496094 1.054688-13.085938-5.476562-9.285157l-5.199219 3.066407v-11.386719c3.628907-.28125 7.015625-1.171875 9.664063-2.703125 3.0625-1.769531 4.648437-4.097656 4.832031-6.5625l.035156.003906v-73.414062zm0 0" fill="#cecece"/><path d="m152.855469 86.878906c8.320312 4.804688 9.222656 12.066406 2.015625 16.226563-7.203125 4.160156-19.785156 3.640625-28.105469-1.164063-8.320313-4.800781-9.222656-12.066406-2.019531-16.226562 7.207031-4.160156 19.789062-3.640625 28.109375 1.164062zm0 0" fill="#ededed"/><path d="m139.816406 96.003906c-2.972656 0-5.386718-2.414062-5.386718-5.390625 0-7.464843-4.019532-14.421875-10.484376-18.15625l-.730468-.421875c-2.578125-1.488281-3.460938-4.785156-1.972656-7.359375 1.488281-2.578125 4.785156-3.460937 7.359374-1.976562l.734376.425781c9.789062 5.652344 15.871093 16.1875 15.871093 27.488281 0 2.980469-2.414062 5.390625-5.390625 5.390625zm0 0" fill="#cecece"/><path d="m269.128906 34.03125c-.023437-3.175781-2.335937-6.515625-6.863281-9.132812-2.507813-1.445313-5.40625-2.5-8.425781-3.15625-1.917969-8.566407-7.332032-16.117188-15.089844-20.59375l-.730469-.421876c-2.578125-1.492187-5.875-.609374-7.363281 1.964844-1.492188 2.578125-.609375 5.875 1.964844 7.363282l.734375.425781c4.226562 2.4375 7.394531 6.257812 9.089843 10.691406-3.101562.382813-5.972656 1.226563-8.285156 2.5625-3.277344 1.890625-4.855468 4.425781-4.847656 7.078125l.003906 72.894531c.019532 3.175781 2.332032 6.519531 6.863282 9.132813 2.316406 1.339844 7.660156 3.554687 7.660156 3.847656v20.84375c0 6.230469 7.28125 5.140625 8.128906 4.644531l13.324219-7.863281c6.628906-3.855469 2.695312-14.03125-5.472657-9.28125l-5.203124 3.066406v-11.386718c3.628906-.28125 7.015624-1.171876 9.667968-2.703126 3.0625-1.769531 4.644532-4.101562 4.828125-6.5625l.035157.003907v-73.417969zm0 0" fill="#cecece"/><path d="m262.265625 24.902344c8.320313 4.800781 9.222656 12.066406 2.019531 16.226562-7.207031 4.160156-19.789062 3.636719-28.109375-1.164062-8.316406-4.804688-9.222656-12.070313-2.015625-16.230469 7.203125-4.160156 19.785156-3.636719 28.105469 1.167969zm0 0" fill="#ededed"/><path d="m249.230469 34.027344c-2.976563 0-5.390625-2.414063-5.390625-5.390625 0-7.464844-4.015625-14.421875-10.484375-18.15625l-.734375-.425781c-2.574219-1.492188-3.457032-4.785157-1.964844-7.363282 1.488281-2.578125 4.785156-3.457031 7.363281-1.964844l.730469.421876c9.785156 5.648437 15.867188 16.183593 15.867188 27.488281 0 2.976562-2.414063 5.390625-5.386719 5.390625zm0 0" fill="#cecece"/><path d="m508.015625 320.542969c-6.445313-18.023438-17.6875-33.941407-32.515625-46.035157l-44.332031-36.164062-16.691407-48.1875c-6.800781-19.351562-20.800781-35.6875-37.378906-45.257812 0-28.765626-15.289062-55.363282-40.148437-69.839844l-67.449219-39.054688-121.023438 70.132813v202.230469h.003907c.078125 19.304687 10.410156 37.121093 27.140625 46.773437l174.65625 100.871094c25.179687 14.523437 56.199218 14.492187 81.347656-.082031l62.101562-35.988282c11.308594-6.554687 18.273438-18.636718 18.273438-31.707031v-44.726563c0-7.828124-1.347656-15.597656-3.984375-22.964843zm0 0" fill="#4d7eb7"/><path d="m498.917969 386.082031v-19.609375l-.234375.09375c-.101563 12.140625-6.617188 23.332032-17.148438 29.402344l-31.453125 18.121094c-14.429687 8.3125-32.445312-2.101563-32.445312-18.75v-9.4375c0-9.570313 5.117187-18.414063 13.414062-23.183594l-120.910156-54.351562 59.816406 34.535156c13.910157 8.03125 26.367188 18.355468 36.839844 30.535156 6.152344 7.152344 9.867187 16.039062 10.671875 25.375.054688.632812.167969 33.972656.167969 33.972656-8.425781 4.925782-18.226563 5.378906-26.664063 2.09375v-21.34375c0-7.828125-1.34375-15.597656-3.984375-22.964844-6.441406-18.019531-17.6875-33.9375-32.515625-46.035156l-44.332031-36.164062-16.691406-48.1875c-6.613281-19.089844-19.882813-35.15625-37.378907-45.257813 0-28.765625-15.289062-55.363281-40.144531-69.839843l-67.449219-38.949219v202.234375h.003907c.078125 19.304687 10.410156 37.117187 27.136719 46.773437l174.660156 100.871094c25.179687 14.523437 56.199218 14.492187 81.347656-.082031l62.101562-35.988282c11.308594-6.554687 18.273438-18.636718 18.273438-31.707031v-25.082031c0 9.414062-4.972656 18.132812-13.082031 22.925781zm0 0" fill="#304e75"/><path d="m490.167969 315.722656c-3.714844-10.21875-9.257813-19.675781-16.355469-27.914062l-42.644531-49.46875 63.730469 93.113281c-1.28125-5.316406-2.851563-10.570313-4.730469-15.730469zm0 0" fill="#304e75"/><path d="m293.449219 260.183594 16.691406 48.183594 121.027344-70.023438-16.691407-48.1875c-6.613281-19.089844-19.882812-35.15625-37.378906-45.257812l-121.027344 70.027343c17.496094 10.101563 30.765626 26.167969 37.378907 45.257813zm0 0" fill="#7192c4"/><path d="m148.480469 308.371094c.078125 19.300781 10.410156 37.117187 27.140625 46.769531l134.578125 77.644531v-31.046875zm0 0" fill="#243b58"/><path d="m504.972656 371.378906-7.746094 4.472656c-2.703124 1.558594-4.890624-.097656-4.890624-3.699218v-15.140625c0-3.601563 2.1875-7.785157 4.890624-9.347657l7.746094-4.472656c2.703125-1.558594 4.890625.097656 4.890625 3.699219v15.140625c0 3.601562-2.1875 7.785156-4.890625 9.347656zm0 0" fill="#fff"/><path d="m358.210938 432.011719c0 24.269531-14.757813 35.425781-32.960938 24.917969-18.203125-10.511719-32.960938-38.707032-32.960938-62.980469 0-24.269531 14.757813-35.425781 32.960938-24.914063 18.203125 10.507813 32.960938 38.703125 32.960938 62.976563zm0 0" fill="#2e373d"/><path d="m341.457031 422.339844c0 11.929687-7.257812 17.417968-16.207031 12.25-8.949219-5.167969-16.203125-19.03125-16.203125-30.964844s7.253906-17.417969 16.203125-12.25 16.207031 19.03125 16.207031 30.964844zm0 0" fill="#cecece"/><path d="m334.039062 418.054688c0 6.472656-3.933593 9.449218-8.789062 6.644531-4.855469-2.800781-8.789062-10.320313-8.789062-16.792969s3.933593-9.445312 8.789062-6.644531c4.855469 2.804687 8.789062 10.324219 8.789062 16.792969zm0 0" fill="#627681"/><path d="m144.054688 308.328125c0 24.269531-14.757813 35.425781-32.960938 24.914063-18.203125-10.507813-32.957031-38.703126-32.957031-62.976563 0-24.269531 14.753906-35.425781 32.957031-24.914063 18.203125 10.507813 32.960938 38.703126 32.960938 62.976563zm0 0" fill="#2e373d"/><path d="m127.300781 298.652344c0 11.933594-7.257812 17.417968-16.207031 12.253906-8.949219-5.167969-16.203125-19.03125-16.203125-30.964844s7.253906-17.417968 16.203125-12.25c8.953125 5.164063 16.207031 19.027344 16.207031 30.960938zm0 0" fill="#cecece"/><path d="m119.882812 294.371094c0 6.472656-3.933593 9.449218-8.789062 6.644531-4.851562-2.800781-8.789062-10.320313-8.789062-16.792969s3.9375-9.445312 8.789062-6.644531c4.855469 2.804687 8.789062 10.320313 8.789062 16.792969zm0 0" fill="#627681"/><path d="m76.507812 268.675781c0 24.269531-14.757812 35.425781-32.960937 24.917969-18.203125-10.511719-32.957031-38.707031-32.957031-62.976562 0-24.273438 14.753906-35.429688 32.957031-24.917969s32.960937 38.707031 32.960937 62.976562zm0 0" fill="#2e373d"/><path d="m59.753906 259.003906c0 11.933594-7.257812 17.417969-16.207031 12.25-8.949219-5.167968-16.203125-19.03125-16.203125-30.964844 0-11.933593 7.253906-17.417968 16.203125-12.25 8.949219 5.167969 16.207031 19.03125 16.207031 30.964844zm0 0" fill="#cecece"/><path d="m52.335938 254.722656c0 6.46875-3.933594 9.445313-8.789063 6.644532-4.851563-2.804688-8.789063-10.324219-8.789063-16.796876 0-6.46875 3.9375-9.445312 8.789063-6.644531 4.855469 2.804688 8.789063 10.324219 8.789063 16.796875zm0 0" fill="#627681"/><path d="m417.636719 395.339844v-9.4375c0-9.570313 5.117187-18.414063 13.414062-23.183594l53.757813-30.894531c6.179687-3.550781 13.886718.90625 13.886718 8.03125v26.421875c0 12.253906-6.542968 23.574218-17.160156 29.691406l-31.453125 18.121094c-14.425781 8.3125-32.445312-2.101563-32.445312-18.75zm0 0" fill="#cecece"/><path d="m493.179688 339.855469v26.421875c0 10.25-5.515626 19.796875-14.398438 24.914062l-31.453125 18.121094c-2.515625 1.449219-5.214844 2.1875-8.019531 2.1875-7.769532 0-16.15625-6.179688-16.15625-16.160156v-9.4375c0-7.574219 4.078125-14.625 10.648437-18.398438l53.757813-30.898437c.589844-.339844 2.613281-.953125 3.523437-.515625 2.136719 1.027344 2.097657 3.765625 2.097657 3.765625zm0 0" fill="#525e65"/><path d="m409.320312 425.941406-7.746093 4.472656c-2.703125 1.558594-4.890625-.097656-4.890625-3.699218v-15.140625c0-3.601563 2.1875-7.785157 4.890625-9.347657l7.746093-4.46875c2.699219-1.5625 4.890626.09375 4.890626 3.695313v15.140625c0 3.601562-2.191407 7.789062-4.890626 9.347656zm0 0" fill="#fff"/><path d="m292.007812 238.855469 22.09375-7.917969c32.792969-11.753906 62.613282-30.550781 87.367188-55.066406l23.242188 56.921875-110.472657 63.65625zm0 0" fill="#304e75"/><path d="m296.386719 300.492188-19.925781-58.238282v46.667969zm0 0" fill="#243b58"/><path d="m269.5 285.164062v-46.824218l-40.558594-23.414063v47.167969zm0 0" fill="#243b58"/><g fill="#59718b"><path d="m399.53125 177.742188c-.605469.585937-1.210938 1.175781-1.820312 1.753906v39.597656l19.925781 11.566406zm0 0"/><path d="m390.75 215.332031v-29.496093c-6.976562 6.109374-14.296875 11.792968-21.914062 17.03125zm0 0"/></g></svg>