<svg viewBox="-5 0 512 512.00103" xmlns="http://www.w3.org/2000/svg"><path d="m142.398438 0-142.398438 82.214844v198.855468c0 17.355469 9.261719 33.394532 24.296875 42.066407l171.574219 98.984375v-41.558594l141.1875-82.324219v-184.453125zm0 0" fill="#ededed"/><path d="m142.398438 0-142.398438 82.214844v198.855468c0 17.355469 9.261719 33.394532 24.296875 42.066407l171.574219 98.984375v-41.558594l141.1875-82.324219v-184.453125zm0 0" fill="#ededed"/><path d="m195.871094 195.300781 141.1875-81.515625v184.457032l-141.1875 82.324218zm0 0" fill="#cecece"/><path d="m468.640625 261.632812c-3.464844-21.898437-16.613281-41.070312-35.796875-52.191406l-93.828125-54.386718c-4.289063-2.488282-9.15625-2.007813-12.773437.394531l-123.503907 70.992187c-3.949219 1.902344-6.867187 5.898438-6.867187 10.910156v184.769532l143.449218 82.914062c3.722657 2.148438 7.910157 1.863282 11.15625-.03125l124.734376-71.683594c.128906-.070312.253906-.140624.375-.214843l.003906-.003907c3.140625-1.890624 5.375-5.304687 5.375-9.5v-5.109374c0-52.527344-4.121094-104.976563-12.324219-156.859376zm0 0" fill="#ffd613"/><path d="m153.300781 367.867188-44.566406-31.351563c-6.558594-16.386719-17.480469-30.949219-29.851563-38.09375-20.054687-11.578125-36.3125.710937-36.3125 27.453125 0 26.738281 16.257813 57.804688 36.3125 69.382812 9.503907 5.488282 18.152344 5.605469 24.625 1.375zm0 0" fill="#23292e"/><path d="m502.027344 416.414062c0-4.148437-2.148438-8-5.679688-10.179687l-21.574218-13.3125.054687 22.546875-109.226563 63.878906c-5.710937 3.34375-12.851562 3.023438-18.242187-.8125l-9.089844 5.269532v20.53125l9.242188 5.378906c5.214843 3.035156 11.65625 3.050781 16.882812.03125l125.636719-72.472656c7.425781-4.324219 11.996094-12.265626 11.996094-20.859376zm0 0" fill="#2e373d"/><path d="m308.648438 457.875-44.570313-31.355469c-6.554687-16.386719-17.476563-30.949219-29.851563-38.089843-20.054687-11.582032-36.3125.710937-36.3125 27.449218 0 26.742188 16.257813 57.804688 36.3125 69.386719 9.507813 5.488281 18.15625 5.605469 24.628907 1.371094zm0 0" fill="#23292e"/><path d="m338.269531 504.335938v-20.53125l9.089844-5.273438c2.578125 1.835938 5.558594 2.859375 8.59375 3.066406-.429687-49.609375-4.53125-99.128906-12.28125-148.140625-3.464844-21.898437-16.613281-41.070312-35.796875-52.191406l-93.828125-54.386719c-8.070313-4.679687-18.175781 1.144532-18.175781 10.472656v143.210938c22.722656 13.226562 39.980468 34.136719 48.65625 58.957031l.355468 1.027344c2.832032 8.097656 8.472657 14.90625 15.902344 19.191406zm0 0" fill="#c98000"/><path d="m479.316406 361.257812-10.523437 19.8125c-3.582031 6.746094-8.996094 12.335938-15.621094 16.128907l-49.902344 28.574219c-7.492187 4.289062-16.015625 6.449218-24.648437 6.246093l-24.355469-.578125v.003906-.003906l-4.097656-2.367187c-3.457031-1.992188-7.777344.5-7.777344 4.492187v26.859375c0 7.441407 2.878906 14.484375 7.867187 19.757813 1.558594.695312 3.199219 1.125 4.867188 1.324218 0 .007813.003906.015626.003906.023438 2.972656.355469 6.023438-.097656 8.828125-1.347656l116.941407-68.265625c-.109376-16.902344-.617188-33.792969-1.582032-50.660157zm0 0" fill="#cecece"/><path d="m348.3125 323.007812 8.847656 67.605469c1.175782 8.992188 11.109375 13.90625 18.96875 9.382813l84.867188-48.832032c6.515625-3.75 10.113281-11.066406 9.109375-18.515624l-10.269531-76.125c-.460938-3.445313-4.277344-5.308594-7.28125-3.5625l-97.761719 56.867187c-4.621094 2.683594-7.171875 7.878906-6.480469 13.179687zm0 0" fill="#2e373d"/><path d="m373.902344 382.363281 84.867187-48.832031c5.921875-3.410156 9.394531-9.769531 9.230469-16.492188l-8.164062-60.515624c-.464844-3.445313-4.277344-5.308594-7.28125-3.5625l-97.761719 56.863281c-4.300781 2.5-6.773438 7.179687-6.542969 12.085937l6.683594 51.070313c1.175781 8.992187 11.109375 13.90625 18.96875 9.382812zm0 0" fill="#304e75"/><path d="m337.023438 386.015625-4.203126-44.320313c-1.605468-16.925781-11.324218-32.023437-26.070312-40.488281l-83.984375-48.21875c-4.246094-2.4375-9.539063.628907-9.539063 5.523438v34.875c0 10.027343 4.761719 19.464843 12.832032 25.417969l99.707031 73.578124c4.929687 3.636719 11.835937-.269531 11.257813-6.367187zm0 0" fill="#243b58"/><path d="m451.808594 253.394531-52.890625 30.765625 50.679687 37.398438c4.929688 3.636718 11.835938-.273438 11.257813-6.367188l-4.203125-44.324218c-.585938-6.148438-2.265625-12.039063-4.84375-17.472657zm0 0" fill="#59718b"/><path d="m480.902344 411.914062c-.113282-16.898437-.621094-33.789062-1.585938-50.652343l-10.523437 19.8125c-.011719.027343-.027344.050781-.042969.078125-3.324219 6.21875-5.78125 12.859375-6.644531 19.855468l-2.910157 23.578126zm0 0" fill="#fff"/><path d="m394.042969 434.726562 65.152343-37.402343-2.601562 19.933593c-.535156 4.078126-2.941406 7.671876-6.511719 9.714844l-39.257812 22.464844c-4.03125 2.304688-9.171875.734375-11.226563-3.433594zm0 0" fill="#2e373d"/><path d="m496.347656 406.234375-15.671875-9.667969c.109375 5.113282.191407 10.230469.226563 15.347656l-115.300782 67.433594c-5.710937 3.34375-12.851562 3.023438-18.242187-.8125l-9.089844 5.269532 9.253907 5.375c5.207031 3.023437 11.636718 3.035156 16.851562.023437l125.652344-72.484375s10.550781-5.117188 6.320312-10.484375zm0 0" fill="#23292e"/><path d="m197.914062 415.882812c0-12.761718 3.707032-22.222656 9.757813-27.375-3.742187-2.886718-7.679687-5.542968-11.800781-7.941406v-19.652344l-195.871094-112.550781v32.707031c0 17.355469 9.261719 33.394532 24.296875 42.066407l173.90625 100.332031.121094-.082031c-.269531-2.527344-.410157-5.035157-.410157-7.503907zm0 0" fill="#23292e"/><path d="m195.871094 360.914062v-165.613281l-195.871094-113.085937v166.144531zm0 0" fill="#82a5b9"/><path d="m270.542969 457.8125c0 26.742188-16.257813 39.03125-36.316407 27.453125-20.054687-11.582031-36.3125-42.644531-36.3125-69.386719 0-26.738281 16.257813-39.03125 36.3125-27.449218 20.058594 11.578124 36.316407 42.640624 36.316407 69.382812zm0 0" fill="#2e373d"/><path d="m252.082031 447.152344c0 13.148437-7.992187 19.191406-17.855469 13.5-9.859374-5.691406-17.851562-20.964844-17.851562-34.113282 0-13.148437 7.992188-19.191406 17.851562-13.5 9.863282 5.695313 17.855469 20.96875 17.855469 34.113282zm0 0" fill="#cecece"/><path d="m243.910156 442.4375c0 7.128906-4.332031 10.40625-9.683594 7.320312-5.347656-3.085937-9.683593-11.371093-9.683593-18.5 0-7.132812 4.335937-10.410156 9.683593-7.324218 5.351563 3.089844 9.683594 11.371094 9.683594 18.503906zm0 0" fill="#627681"/><path d="m115.195312 367.804688c0 26.742187-16.257812 39.03125-36.3125 27.453124-20.054687-11.578124-36.3125-42.644531-36.3125-69.382812 0-26.742188 16.257813-39.03125 36.3125-27.453125 20.054688 11.578125 36.3125 42.644531 36.3125 69.382813zm0 0" fill="#2e373d"/><path d="m96.738281 357.148438c0 13.148437-7.996093 19.191406-17.855469 13.496093-9.859374-5.691406-17.855468-20.964843-17.855468-34.113281 0-13.144531 7.996094-19.191406 17.855468-13.496094 9.859376 5.691406 17.855469 20.964844 17.855469 34.113282zm0 0" fill="#cecece"/><path d="m88.566406 352.429688c0 7.132812-4.335937 10.410156-9.683594 7.324218-5.347656-3.089844-9.683593-11.371094-9.683593-18.503906s4.335937-10.40625 9.683593-7.320312c5.347657 3.085937 9.683594 11.371093 9.683594 18.5zm0 0" fill="#627681"/><path d="m393.75 441.675781c-2.609375-5.949219-8.53125-9.515625-15.023438-9.652343-.035156-.003907-.070312-.003907-.105468-.003907l-24.351563-.578125s-.003906.003906-.003906.003906c.980469 16.695313 1.496094 33.417969 1.640625 50.152344-.261719-.019531-.523438-.058594-.78125-.089844 0 .007813.003906.015626.003906.023438 2.972656.351562 6.023438-.097656 8.828125-1.347656l37.160157-21.691406zm0 0" fill="#fff"/></svg>