<svg viewBox="0 -51 512 511" xmlns="http://www.w3.org/2000/svg"><path d="m370.644531 381.195312-41.105469-28.917968c-6.046874-15.113282-16.117187-28.542969-27.53125-35.132813-18.496093-10.675781-33.488281.65625-33.488281 25.320313 0 24.664062 14.992188 53.3125 33.488281 63.992187 8.769532 5.058594 16.746094 5.167969 22.714844 1.265625zm0 0" fill="#23292e"/><path d="m147.460938 248.074219-41.105469-28.917969c-6.046875-15.113281-16.117188-28.542969-27.53125-35.132812-18.496094-10.675782-33.488281.660156-33.488281 25.320312 0 24.664062 14.992187 53.3125 33.488281 63.992188 8.769531 5.058593 16.746093 5.167968 22.714843 1.265624zm0 0" fill="#23292e"/><path d="m509.890625 232.101562c-.011719-.03125-.019531-.0625-.03125-.089843-.210937-.585938-.726563-1.863281-.753906-1.921875-2.414063-5.675782-6.273438-10.710938-11.296875-14.5625-.015625-.011719-.03125-.023438-.046875-.035156l-59.867188-47.605469-13.132812-46.460938c-6.484375-22.941406-21.667969-42.441406-42.316407-54.355469l-90.460937-51.75c-3.757813-2.167968-8.089844-1.875-11.414063.148438l-56.125 31.652344-80.75-46.621094-136.710937 77.085938c-4.535156 6.082031-6.984375 13.464843-6.984375 21.050781v39.257812c0 13.234375 2.367188 26.363281 6.984375 38.765625l350.613281 202.019532c11.246094 6.476562 24.738282 7.808593 37.035156 3.65625l12.523438-4.234376c35.921875-12.140624 68.746094-31.890624 96.261719-57.84375 5.539062-5.222656 8.582031-12.566406 8.582031-20.179687v-55.808594c0-4.199219-.730469-8.308593-2.109375-12.167969zm0 0" fill="#4d7eb7"/><path d="m508.550781 268.347656c0 7.105469-3.253906 13.820313-8.828125 18.226563l-4.867187 3.84375-4.109375 22.425781c-18.847656 14.730469-39.375 27.085938-61.058594 37.046875l-18.871094-10.953125-15.242187 5.207031c-4.066407 1.390625-8.457031-.972656-9.535157-5.132812l-10.75.917969v-18.574219c0-11.289063-5.265624-21.929688-14.238281-28.777344l-59.417969-46.019531-13.578124-48.046875c-6.484376-22.941407-21.667969-42.445313-42.320313-54.355469l-90.460937-51.75c-6.648438-3.835938-15.09375.015625-16.554688 7.550781l-9.375 48.273438-122.359375-70.644531c-4.535156 6.082031-6.984375 13.464843-6.984375 21.050781v39.257812c0 13.234375 2.367188 26.363281 6.984375 38.765625l350.613281 202.019532c11.246094 6.476562 24.738282 7.808593 37.035156 3.65625l12.523438-4.234376c35.921875-12.140624 68.746094-31.890624 96.261719-57.84375 5.539062-5.222656 8.582031-12.566406 8.582031-20.179687v-33.722656zm0 0" fill="#304e75"/><path d="m129.34375 148.230469 9.375-48.273438c.621094-3.199219 2.507812-5.722656 4.976562-7.289062v-.011719l.078126-.039062c.191406-.121094 80.671874-45.496094 80.671874-45.496094l-80.75-46.617188-136.710937 77.082032zm0 0" fill="#7192c4"/><path d="m131.8125 135.523438 6.90625-35.566407c.621094-3.199219 2.507812-5.722656 4.976562-7.289062v-.011719l.078126-.042969c.191406-.117187 67.765624-38.214843 67.765624-38.214843l-69.910156-40.246094-110.171875 63.433594zm0 0" fill="#243b58"/><path d="m141.628906 14.152344v56.453125l20.347656 11.746093 49.5625-27.953124zm0 0" fill="#4d7eb7"/><path d="m141.628906 70.605469-61.226562 35.351562-48.945313-28.371093 110.171875-63.433594zm0 0" fill="#304e75"/><path d="m112.316406 248.015625c0 24.660156-14.992187 35.996094-33.488281 25.320313-18.5-10.679688-33.492187-39.332032-33.492187-63.992188 0-24.664062 14.992187-36 33.492187-25.320312 18.496094 10.679687 33.488281 39.328124 33.488281 63.992187zm0 0" fill="#3e474c"/><path d="m95.292969 238.1875c0 12.125-7.371094 17.699219-16.46875 12.445312-9.09375-5.25-16.464844-19.335937-16.464844-31.460937s7.371094-17.699219 16.464844-12.449219c9.097656 5.25 16.46875 19.335938 16.46875 31.464844zm0 0" fill="#cecece"/><path d="m87.757812 233.835938c0 6.574218-3.996093 9.597656-8.929687 6.75-4.933594-2.847657-8.933594-10.488282-8.933594-17.0625 0-6.578126 4-9.597657 8.933594-6.753907 4.929687 2.847657 8.929687 10.488281 8.929687 17.066407zm0 0" fill="#627681"/><path d="m335.5 381.136719c0 24.664062-14.992188 36-33.488281 25.320312-18.5-10.679687-33.492188-39.328125-33.492188-63.992187 0-24.660156 14.992188-35.996094 33.492188-25.320313 18.496093 10.679688 33.488281 39.332031 33.488281 63.992188zm0 0" fill="#3e474c"/><path d="m318.476562 371.308594c0 12.125-7.371093 17.699218-16.464843 12.449218-9.097657-5.25-16.46875-19.339843-16.46875-31.464843s7.371093-17.699219 16.46875-12.449219c9.09375 5.253906 16.464843 19.339844 16.464843 31.464844zm0 0" fill="#cecece"/><path d="m310.941406 366.957031c0 6.578125-4 9.601563-8.929687 6.753907-4.933594-2.851563-8.933594-10.488282-8.933594-17.066407s4-9.597656 8.933594-6.75c4.929687 2.847657 8.929687 10.484375 8.929687 17.0625zm0 0" fill="#627681"/><path d="m437.894531 167.886719-136.261719 78.671875 109.183594 63.652344v.035156c30.730469-11.554688 59.179688-28.449219 84.039063-49.890625zm0 0" fill="#7192c4"/><path d="m395.574219 344.144531 15.242187-5.207031v-28.726562c-7.105468 2.671874-14.316406 5.09375-21.648437 7.183593l-13.878907 3.960938v18.574219l10.75-.917969c1.078126 4.160156 5.46875 6.523437 9.535157 5.132812zm0 0" fill="#fff"/><path d="m512 244.269531-17.144531 16.089844v30.058594l4.867187-3.84375c5.574219-4.40625 8.828125-11.121094 8.828125-18.226563l3.449219-1.992187zm0 0" fill="#fff"/><path d="m494.855469 290.417969v-30.058594l.042969-.039063c-24.871094 21.457032-53.332032 38.363282-84.082032 49.925782v28.691406l18.871094 10.953125c21.683594-9.957031 42.210938-22.316406 61.058594-37.046875zm0 0" fill="#23292e"/><path d="m494.855469 290.417969c-17.503907 16.28125-37.773438 29.308593-59.851563 38.476562l-24.1875 10.0625v-9.613281l20.359375-8.160156c37.324219-14.863282 63.679688-41.617188 63.679688-41.617188zm0 0" fill="#2e373d"/><path d="m399.847656 90.925781-123.285156 70.917969c8.058594 9.71875 14.109375 21.074219 17.609375 33.449219l11.410156 40.371093 123.332031-69.992187-11.773437-41.664063c-3.453125-12.21875-9.386719-23.445312-17.292969-33.082031zm0 0" fill="#304e75"/><path d="m203.726562 190.992188 83.285157 48.09375-7.789063-33.308594c-4.742187-20.269532-17.660156-37.675782-35.6875-48.085938l-39.808594-22.988281zm0 0" fill="#243b58"/><path d="m194.753906 129.523438-38.027344-21.960938c-3.613281-2.085938-8.210937-.109375-9.1875 3.941406l-9.941406 41.304688 57.15625 33.003906zm0 0" fill="#243b58"/><path d="m394.992188 93.71875-45.488282 26.167969 71.472656 41.273437-7.792968-33.3125c-3.015625-12.890625-9.347656-24.617187-18.191406-34.128906zm0 0" fill="#59718b"/></svg>