<svg viewBox="0 -63 512.001 512" xmlns="http://www.w3.org/2000/svg"><path d="m377.792969 355.265625-42.394531-29.824219c-6.234376-15.585937-16.625-29.4375-28.390626-36.234375-19.078124-11.011719-34.542968.675781-34.542968 26.113281s15.464844 54.984376 34.542968 65.996094c9.039063 5.222656 17.265626 5.335938 23.425782 1.304688zm0 0" fill="#23292e"/><path d="m101.960938 252.402344c.570312-.289063 49.03125-28.324219 49.03125-28.324219l-42.390626-29.824219c-6.238281-15.585937-16.625-29.4375-28.394531-36.230468-19.078125-11.015626-34.542969.675781-34.542969 26.109374 0 25.4375 15.464844 54.984376 34.542969 66 8.246094 4.761719 15.816407 5.269532 21.753907 2.269532zm0 0" fill="#23292e"/><path d="m512 232.148438c0-8.710938-4.636719-16.761719-12.171875-21.128907l-72.929687-42.296875-20.304688-83.984375c-2.351562-9.707031-8.59375-18.019531-17.261719-22.980469l-72.09375-41.25-73.671875 42.589844-109.285156-63.097656-134.28125 77.628906v36.128906c0 21.148438 11.28125 40.6875 29.59375 51.265626l328.390625 189.636718c12.367187 7.144532 27.445313 7.800782 40.386719 1.757813l29.488281-13.761719c24.96875-11.652344 48.539063-26.054688 70.28125-42.921875 8.75-6.792969 13.859375-17.257813 13.859375-28.332031v-4.738282l-.011719.007813c.003907-.128906.011719-.253906.011719-.382813zm-329.042969-48.890626" fill="#e33400"/><path d="m415.003906 328.453125-37.285156 15.839844v-34.519531c0-8.707032-4.636719-16.757813-12.167969-21.125l-72.933593-42.296876-20.304688-83.980468c-2.347656-9.710938-8.59375-18.023438-17.261719-22.984375l-72.09375-41.25v85.121093l-182.957031-105.628906v36.128906c0 21.148438 11.28125 40.6875 29.59375 51.265626l328.390625 189.636718c12.367187 7.144532 27.445313 7.800782 40.386719 1.757813l29.488281-13.761719c24.96875-11.652344 48.539063-26.054688 70.28125-42.921875 8.75-6.792969 13.859375-17.257813 13.859375-28.332031v-4.738282c-28.695312 25.816407-61.472656 46.695313-96.996094 61.789063zm0 0" fill="#872e02"/><path d="m134.28125 0-134.28125 77.628906 182.957031 105.628906v-85.121093l60.609375-35.039063zm0 0" fill="#ed5100"/><path d="m133.992188 13.835938-109.929688 63.792968 158.894531 91.164063v-70.65625l48.464844-28.015625zm0 0" fill="#e33400"/><path d="m415.003906 328.453125-37.285156 15.839844c0 7.371093 7.25 12.554687 14.222656 10.175781 0 0 82.769532-38.667969 108.320313-63.121094 7.300781-6.984375 11.738281-14.582031 11.738281-24.683594-28.695312 25.816407-61.472656 46.695313-96.996094 61.789063zm0 0" fill="#cecece"/><path d="m499.828125 211.019531-72.929687-42.296875-134.28125 77.628906 72.929687 42.296876c7.535156 4.367187 12.171875 12.417968 12.171875 21.128906l25.964844-10.773438c39.441406-16.363281 76.007812-38.933594 108.316406-66.855468 0-8.710938-4.636719-16.761719-12.171875-21.128907zm0 0" fill="#ed5100"/><path d="m133.992188 13.835938v56.464843l48.964843 27.835938 48.464844-28.015625zm0 0" fill="#872e02"/><path d="m114.746094 224.019531c0 25.433594-15.464844 37.125-34.539063 26.113281-19.078125-11.015624-34.542969-40.5625-34.542969-66 0-25.433593 15.464844-37.125 34.542969-26.109374 19.074219 11.011718 34.539063 40.558593 34.539063 65.996093zm0 0" fill="#2e373d"/><path d="m97.1875 213.882812c0 12.503907-7.601562 18.253907-16.984375 12.835938-9.378906-5.414062-16.980469-19.941406-16.980469-32.445312 0-12.507813 7.601563-18.257813 16.980469-12.839844 9.382813 5.414062 16.984375 19.941406 16.984375 32.449218zm0 0" fill="#cecece"/><path d="m89.417969 209.394531c0 6.78125-4.125 9.898438-9.210938 6.964844-5.089843-2.9375-9.210937-10.816406-9.210937-17.601563 0-6.78125 4.121094-9.898437 9.210937-6.960937 5.085938 2.933594 9.210938 10.816406 9.210938 17.597656zm0 0" fill="#627681"/><path d="m341.546875 355.203125c0 25.4375-15.464844 37.128906-34.539063 26.113281-19.078124-11.011718-34.542968-40.5625-34.542968-65.996094 0-25.433593 15.464844-37.125 34.542968-26.113281 19.074219 11.011719 34.539063 40.5625 34.539063 65.996094zm0 0" fill="#2e373d"/><path d="m323.988281 345.066406c0 12.507813-7.601562 18.253906-16.984375 12.839844-9.378906-5.414062-16.980468-19.941406-16.980468-32.449219 0-12.503906 7.601562-18.253906 16.980468-12.839843 9.382813 5.417968 16.984375 19.945312 16.984375 32.449218zm0 0" fill="#cecece"/><path d="m316.214844 340.582031c0 6.78125-4.121094 9.898438-9.210938 6.960938-5.085937-2.9375-9.210937-10.816407-9.210937-17.597657 0-6.785156 4.125-9.902343 9.210937-6.964843 5.089844 2.9375 9.210938 10.816406 9.210938 17.601562zm0 0" fill="#627681"/><path d="m377.71875 309.777344v34.515625l37.285156-15.839844c35.523438-15.09375 68.300782-35.972656 96.996094-61.789063v-34.515624c-32.304688 27.921874-68.875 50.492187-108.3125 66.855468zm0 0" fill="#2e373d"/><path d="m377.71875 344.292969v1.609375l33.144531-11.304688c38.738281-13.214844 73.519531-35.976562 101.136719-66.183594v-1.75c-28.695312 25.816407-61.472656 46.695313-96.996094 61.789063zm0 0" fill="#ededed"/><path d="m297.335938 236.054688-19.972657-82.707032 122.066407-70.472656 20.898437 83.066406zm0 0" fill="#3b2f25"/><path d="m190.039062 112.734375 63.457032 36.636719c7.085937 4.089844 12.167968 10.925781 14.046875 18.890625l16.722656 70.988281-94.226563-54.402344zm0 0" fill="#24170c"/><path d="m410.441406 166.75-16.722656-70.984375c-.652344-2.765625-1.710938-5.386719-3.089844-7.8125l-58.332031 33.679687zm0 0" fill="#625951"/><path d="m404.246094 314.742188c0 7.441406-4.523438 16.085937-10.105469 19.308593-5.578125 3.222657-10.101563-.199219-10.101563-7.640625s4.523438-16.085937 10.101563-19.304687c5.582031-3.222657 10.105469.195312 10.105469 7.636719zm0 0" fill="#ededed"/><path d="m508.628906 255.203125c0 7.441406-4.527344 16.085937-10.105468 19.308594-5.582032 3.222656-10.105469-.199219-10.105469-7.640625s4.523437-16.085938 10.105469-19.304688c5.578124-3.222656 10.105468.195313 10.105468 7.636719zm0 0" fill="#ededed"/><path d="m133.992188 70.300781-61.039063 35.378907-48.890625-28.050782 109.929688-63.792968zm0 0" fill="#a72700"/></svg>