<svg viewBox="0 -6 512 512" xmlns="http://www.w3.org/2000/svg"><path d="m302.496094 497.96875c.683594-.34375 1.347656-.730469 1.992187-1.152344l56.683594-32.742187-50.734375-35.6875c-7.460938-18.652344-19.894531-35.230469-33.976562-43.359375-22.828126-13.183594-41.335938.808594-41.335938 31.246094 0 30.441406 18.507812 65.800781 41.335938 78.980468 9.867187 5.699219 18.925781 6.308594 26.03125 2.714844zm0 0" fill="#1a1f23"/><path d="m84.503906 366.929688c.683594-.347657 1.351563-.730469 1.996094-1.152344l56.679688-32.742188-50.730469-35.691406c-7.464844-18.652344-19.894531-35.226562-33.980469-43.359375-22.828125-13.179687-41.335938.808594-41.335938 31.25 0 30.4375 18.507813 65.796875 41.335938 78.976563 9.871094 5.699218 18.925781 6.3125 26.035156 2.71875zm0 0" fill="#1a1f23"/><path d="m511.777344 354.65625v-35.128906c0-12.390625-5.246094-24.503906-14.253906-33.003906-2.558594-2.414063-32.71875-29.222657-32.71875-29.222657l-25.320313-87.699219c-4.769531-16.53125-15.757813-30.566406-30.65625-39.167968l-223.207031-127.847656c-6.625-3.824219-14.277344-3.203126-20.039063.507812l-142.628906 81.496094c-5.042969 2.5625-8.984375 7.316406-10.167969 13.519531l-7.636718 39.964844c-3.425782 17.929687-5.148438 36.144531-5.148438 54.402343v58.074219c0 10.941407 5.832031 21.054688 15.304688 26.535157 0 0 332.269531 190.882812 332.308593 190.90625 6.222657 3.226562 13 4.929687 19.816407 4.953124 7.46875.023438 14.949218-1.875 21.660156-5.703124l104.046875-59.367188c11.664062-6.652344 18.863281-19.050781 18.863281-32.476562v-20.871094zm0 0" fill="#525e65"/><path d="m484.503906 319.828125-21.257812-63.996094-144.347656 82.484375 84.914062 29.863282v81.8125l80.691406-46.109376zm0 0" fill="#627681"/><path d="m41.273438 85.070312 223.207031 127.847657c14.898437 8.601562 25.882812 22.640625 30.65625 39.167969l23.761719 86.234374 25.824218 24.363282c13.617188 12.082031 22.707032 23.105468 22.707032 39.332031v47.132813c0 13.527343-14.648438 21.980468-26.359376 15.207031l-325.765624-187.273438c-9.472657-5.476562-15.304688-15.589843-15.304688-26.53125v-58.074219c0-18.257812 1.722656-36.472656 5.148438-54.402343l7.636718-39.964844c2.480469-12.988281 17.035156-19.648437 28.488282-13.039063zm0 0" fill="#2e373d"/><path d="m403.742188 416.964844-14.609376 8.429687c-6.71875 3.871094-14.210937 5.808594-21.703124 5.804688-7.492188 0-14.984376-1.941407-21.695313-5.816407l-11.519531-6.648437c-8.789063-5.074219-19.773438 1.265625-19.773438 11.414063 0 11.5625 6.183594 22.257812 16.195313 28.039062 10.667969 6.164062 16.898437 9.757812 16.980469 9.800781 6.21875 3.226563 12.996093 4.933594 19.8125 4.957031 7.46875.023438 14.949218-1.875 21.660156-5.707031l104.046875-59.363281c11.664062-6.652344 18.863281-19.050781 18.863281-32.476562v-20.871094zm0 0" fill="#82a5b9"/><path d="m403.742188 416.964844-14.609376 8.429687c-6.71875 3.871094-14.210937 5.808594-21.703124 5.804688v23.136719c0 11.015624 11.859374 18.425781 21.457031 13.019531.066406-.039063.136719-.078125.203125-.113281l104.046875-59.367188c11.664062-6.652344 18.863281-19.050781 18.863281-32.476562v-20.871094zm0 0" fill="#cecece"/><path d="m323.5625 329.851562 132.273438-76.367187-25.347657-85.71875c-1.675781-5.671875-8.230469-8.261719-13.332031-5.273437l-112.113281 65.703124c-5.507813 3.226563-8.121094 9.785157-6.34375 15.917969zm0 0" fill="#304e75"/><path d="m99.804688 332.964844c0 30.4375-18.503907 44.429687-41.335938 31.25-22.828125-13.179688-41.335938-48.542969-41.335938-78.980469s18.507813-44.429687 41.335938-31.25 41.335938 48.542969 41.335938 78.980469zm0 0" fill="#23292e"/><path d="m78.792969 320.832031c0 14.964844-9.097657 21.84375-20.324219 15.363281-11.222656-6.480468-20.320312-23.863281-20.320312-38.828124 0-14.96875 9.097656-21.84375 20.320312-15.367188 11.222656 6.480469 20.324219 23.867188 20.324219 38.832031zm0 0" fill="#cecece"/><path d="m69.492188 315.464844c0 8.117187-4.933594 11.847656-11.023438 8.332031-6.085938-3.515625-11.023438-12.945313-11.023438-21.0625s4.9375-11.847656 11.023438-8.332031c6.089844 3.515625 11.023438 12.945312 11.023438 21.0625zm0 0" fill="#2e373d"/><path d="m511.777344 319.527344c0-5.394532-1.039063-10.621094-2.832032-15.539063l-144.003906 83.199219-15.445312-8.914062v19.300781c0 12.8125 6.835937 24.652343 17.933594 31.058593l17.929687-10.378906v.027344l107.589844-62.117188.019531-.136718 18.808594-11zm0 0" fill="#2e373d"/><path d="m213.523438 286.835938 91.734374 52.675781-21.65625-76.925781c-3.914062-13.910157-13.113281-25.742188-25.628906-32.964844l-44.449218-25.664063zm0 0" fill="#243b58"/><path d="m367.429688 408.621094v-6.609375c0-5.160157-.964844-10.164063-2.613282-14.894531l-15.320312-8.84375v19.300781c0 .246093.042968.480469.050781.722656zm0 0" fill="#ef9910"/><path d="m349.496094 397.574219c0 12.8125 6.835937 24.652343 17.933594 31.058593v-20.011718l-17.882813-10.324219c-.007813-.242187-.050781-.480469-.050781-.722656zm0 0" fill="#cecece"/><path d="m448.335938 257.425781-21.65625-76.925781c-1.871094-6.648438-4.976563-12.796875-9.042969-18.21875-.160157.082031-.324219.121094-.480469.210938l-66.386719 38.90625zm0 0" fill="#59718b"/><path d="m317.796875 464.003906c0 30.4375-18.507813 44.429688-41.335937 31.25-22.828126-13.179687-41.335938-48.542968-41.335938-78.980468s18.507812-44.429688 41.335938-31.25c22.828124 13.183593 41.335937 48.542968 41.335937 78.980468zm0 0" fill="#23292e"/><path d="m296.78125 451.871094c0 14.96875-9.097656 21.847656-20.320312 15.367187-11.226563-6.480469-20.324219-23.867187-20.324219-38.832031s9.097656-21.84375 20.324219-15.363281c11.222656 6.480469 20.320312 23.863281 20.320312 38.828125zm0 0" fill="#cecece"/><path d="m287.484375 446.503906c0 8.117188-4.9375 11.847656-11.023437 8.332032-6.089844-3.515626-11.023438-12.945313-11.023438-21.0625 0-8.117188 4.933594-11.847657 11.023438-8.332032 6.085937 3.515625 11.023437 12.945313 11.023437 21.0625zm0 0" fill="#2e373d"/><g fill="#fff"><path d="m390.882812 409.9375-13.164062 7.597656c-3.070312 1.773438-5.5625-.109375-5.5625-4.203125v-17.550781c0-4.09375 2.492188-8.851562 5.5625-10.625l13.164062-7.597656c3.070313-1.773438 5.558594.109375 5.558594 4.203125v17.550781c0 4.09375-2.488281 8.851562-5.558594 10.625zm0 0"/><path d="m502.953125 344.464844-13.164063 7.601562c-3.070312 1.773438-5.558593-.109375-5.558593-4.203125v-17.550781c0-4.097656 2.488281-8.851562 5.558593-10.625l13.164063-7.601562c3.070313-1.769532 5.5625.109374 5.5625 4.207031v17.550781c0 4.09375-2.492187 8.851562-5.5625 10.621094zm0 0"/></g></svg>