<svg viewBox="0 -12 511.99925 511" xmlns="http://www.w3.org/2000/svg"><path d="m165.636719 251.992188c0-35.398438-21.519531-76.519532-48.070313-91.847657-11.792968-6.808593-22.585937-7.367187-30.949218-2.792969v-.007812s-25.390626 14.375-26.527344 15.160156l-.1875.105469.007812.015625c-9.128906 6.390625-14.816406 19.511719-14.816406 37.699219 0 35.394531 21.519531 76.515625 48.070312 91.84375 11.476563 6.628906 22.007813 7.332031 30.269532 3.148437l.003906.011719.203125-.113281c.546875-.285156 24.265625-13.746094 24.265625-13.746094l-.007812-.019531c10.820312-5.5 17.738281-19.398438 17.738281-39.457031zm0 0" fill="#2e373d"/><path d="m434.371094 80.09375-74.492188 42.738281c-27.386718 15.710938-44.273437 44.867188-44.273437 76.4375v37.367188l-38.3125-22.285157 18.320312-10.402343v-27.054688l5.328125-3.078125c9.78125-4.863281 16.226563-14.898437 16.226563-26.160156 0-11.019531-5.878907-21.199219-15.417969-26.707031l-107.546875-62.09375c-10.859375-6.269531-23.179687-9.570313-35.722656-9.570313-14.640625 0-28.507813 4.472656-40.070313 12.3125l-47.175781 27.238282c-14.234375 6.980468-25.976563 18.613281-33.007813 33.324218l-21.691406 12.316406c-10.234375 5.90625-16.535156 16.820313-16.535156 28.636719v42.957031c0 12.753907 6.804688 24.542969 17.851562 30.917969l108.960938 62.910157 12.398438-7.039063 93.777343 62.222656c26.914063 21.679688 64.375 24.628907 94.351563 7.429688l103.476562-59.359375v-.007813c22.308594-12.808593 38.261719-36.671875 38.261719-66.070312v-136.878907c0-17.8125-19.257813-28.964843-34.707031-20.101562zm0 0" fill="#63dbff"/><path d="m295.613281 176.894531-18.554687 10.714844c-4.957032 6.058594-7.871094 13.769531-7.871094 22.027344l8.105469 4.714843 18.320312-10.402343zm0 0" fill="#2eb3bd"/><path d="m491.039062 431.992188c0-35.398438-21.519531-76.519532-48.066406-91.847657-11.800781-6.8125-22.601562-7.371093-30.96875-2.792969l-22.917968 13.097657c-1.273438.582031-2.492188 1.277343-3.65625 2.085937l-.125.070313.003906.011719c-9.125 6.398437-14.8125 19.515624-14.8125 37.703124 0 35.398438 21.519531 76.519532 48.070312 91.847657 11.476563 6.625 22.007813 7.335937 30.273438 3.160156h.003906c.71875-.367187 1.429688-.761719 2.113281-1.199219l22.351563-12.660156v-.003906c10.820312-5.507813 17.730468-19.414063 17.730468-39.472656zm0 0" fill="#23292e"/><path d="m466.636719 445.828125c0 35.398437-21.523438 51.667969-48.070313 36.339844-26.550781-15.328125-48.070312-56.449219-48.070312-91.847657 0-35.398437 21.519531-51.667968 48.070312-36.339843 26.546875 15.328125 48.070313 56.449219 48.070313 91.847656zm0 0" fill="#2e373d"/><path d="m442.199219 431.71875c0 17.40625-10.582031 25.40625-23.632813 17.867188-13.054687-7.535157-23.636718-27.753907-23.636718-45.15625 0-17.40625 10.582031-25.402344 23.636718-17.867188 13.050782 7.535156 23.632813 27.753906 23.632813 45.15625zm0 0" fill="#cecece"/><path d="m431.382812 425.476562c0 9.4375-5.738281 13.777344-12.816406 9.691407-7.082031-4.089844-12.820312-15.054688-12.820312-24.492188 0-9.441406 5.738281-13.78125 12.820312-9.691406 7.078125 4.085937 12.816406 15.050781 12.816406 24.492187zm0 0" fill="#2e373d"/><path d="m466.636719 445.828125c0 35.398437-21.523438 51.667969-48.070313 36.339844-26.550781-15.328125-48.070312-56.449219-48.070312-91.847657 0-35.398437 21.519531-51.667968 48.070312-36.339843 26.546875 15.328125 48.070313 56.449219 48.070313 91.847656zm0 0" fill="#2e373d"/><path d="m442.199219 431.71875c0 17.40625-10.582031 25.40625-23.632813 17.867188-13.054687-7.535157-23.636718-27.753907-23.636718-45.15625 0-17.40625 10.582031-25.402344 23.636718-17.867188 13.050782 7.535156 23.632813 27.753906 23.632813 45.15625zm0 0" fill="#cecece"/><path d="m431.382812 425.476562c0 9.4375-5.738281 13.777344-12.816406 9.691407-7.082031-4.089844-12.820312-15.054688-12.820312-24.492188 0-9.441406 5.738281-13.78125 12.820312-9.691406 7.078125 4.085937 12.816406 15.050781 12.816406 24.492187zm0 0" fill="#2e373d"/><path d="m279.671875 245.980469c-6.601563-4.949219-10.484375-12.71875-10.484375-20.96875v-15.375c0-8.273438 2.96875-15.960938 7.945312-22.023438l-.027343-.03125-28.453125 16.429688c-2.75 1.890625-5.847656 3.339843-9.21875 4.214843-15.347656 3.972657-26.066406 17.816407-26.066406 33.667969v16.921875c0 6.964844 4.292968 13.207032 10.792968 15.699219l91.445313 26.871094v-26.175781zm0 0" fill="#23868e"/><path d="m224.160156 274.515625c-6.5-2.492187-10.792968-8.734375-10.792968-15.699219v-16.921875c0-15.851562 10.722656-29.695312 26.066406-33.667969 12.90625-3.339843 21.917968-14.984374 21.917968-28.3125 0-11.019531-5.878906-21.199218-15.417968-26.707031l-107.546875-62.089843c-10.859375-6.273438-23.179688-9.574219-35.722657-9.574219-27.726562 0-52.679687 16.007812-64.441406 40.617187l17.136719-9.730468c10.230469-5.90625 22.835937-5.90625 33.066406 0l20.5625 11.871093c18.953125 10.945313 34.332031 27.140625 44.277344 46.632813 8.132813 15.945312 12.375 33.589844 12.375 51.492187v45.960938l47.726563 27.460937 102.226562 30.730469.015625-25.191406zm0 0" fill="#2eb3bd"/><path d="m232.558594 32.976562-52.832032-30.503906c-4.5625-2.632812-10.179687-2.632812-14.742187 0l-52.832031 30.503906c-2.050782 1.1875-3.078125 3.261719-3.078125 5.335938v35.652344c0 2.074218 1.027343 4.148437 3.078125 5.332031l52.832031 30.503906c4.5625 2.632813 10.179687 2.636719 14.742187 0l52.832032-30.503906c2.011718-1.160156 3.007812-3.179687 3.050781-5.210937h.023437v-.09375c0-.019532 0-.039063 0-.0625v-35.488282c.042969-2.117187-.976562-4.253906-3.074218-5.464844zm0 0" fill="#2e373d"/><path d="m112.152344 43.648438 52.832031 30.507812c4.5625 2.632812 10.179687 2.632812 14.742187 0l52.832032-30.507812c4.109375-2.371094 4.109375-8.296876 0-10.667969l-52.832032-30.503907c-4.5625-2.632812-10.179687-2.632812-14.742187 0l-52.832031 30.5c-4.105469 2.375-4.105469 8.300782 0 10.671876zm0 0" fill="#627681"/><path d="m126.8125 299.898438v-55.429688c0-17.898438-4.238281-35.546875-12.375-51.492188-9.945312-19.492187-25.324219-35.6875-44.273438-46.628906l-20.5625-11.875c-10.234374-5.90625-22.835937-5.90625-33.070312 0-10.230469 5.910156-16.53125 16.824219-16.53125 28.640625v42.957031c0 12.753907 6.804688 24.542969 17.851562 30.917969zm0 0" fill="#2eb3bd"/><path d="m440.578125 418.320312c0-13.050781-3.09375-25.917968-9.023437-37.539062-7.25-14.214844-18.460938-26.023438-32.277344-34l-14.992188-8.652344c-7.460937-4.308594-16.648437-4.308594-24.109375 0-7.457031 4.304688-12.054687 12.261719-12.054687 20.875v32.054688c0 8.195312 6.039062 15.140625 14.15625 16.277344zm0 0" fill="#2eb3bd"/><path d="m488.953125 347.917969c-7.25-14.214844-18.460937-26.023438-32.277344-34l-14.992187-8.652344c-7.460938-4.308594-16.652344-4.308594-24.109375 0l-57.394531 32.859375c7.460937-4.304688 16.648437-4.304688 24.105468.003906l14.992188 8.652344c13.816406 7.976562 25.027344 19.785156 32.28125 34 5.929687 11.625 9.019531 24.488281 9.019531 37.539062l57.398437-32.863281c0-13.050781-3.09375-25.914062-9.023437-37.539062zm0 0" fill="#63dbff"/><path d="m467.199219 90.964844c-1.203125-2.78125-2.929688-5.242188-5.027344-7.292969-2.101563-2.050781-4.574219-3.691406-7.269531-4.835937-5.386719-2.285157-11.65625-2.578126-17.59375-.171876-.988282.402344-1.96875.878907-2.9375 1.429688l-74.492188 42.738281c-10.269531 5.890625-19.0625 13.671875-26.042968 22.765625-11.632813 15.152344-18.230469 33.941406-18.230469 53.671875v125.847657c0 18.421874-6.277344 34.65625-16.441407 47.371093 9.734376-1.59375 19.285157-4.875 28.175782-9.976562l103.476562-59.359375v-.007813c22.304688-12.8125 38.257813-36.675781 38.257813-66.070312v-136.878907c.003906-3.339843-.671875-6.445312-1.875-9.230468zm0 0" fill="#2eb3bd"/><path d="m315.75 106.398438c-.007812.40625-.039062.808593-.078125 1.214843.34375-3.339843-.453125-6.820312-2.546875-9.808593l-36.683594-52.304688c-4.675781-6.667969-13.671875-8.648438-20.714844-4.5625l-60.15625 34.898438c-3.519531 2.042968-5.113281 5.671874-4.878906 9.1875l-.035156-.007813v29.460937l.035156.003907c.085938 3.558593 2.015625 7.0625 5.765625 8.761719l70.425781 31.839843c10.714844 4.84375 23.109376 4.222657 33.285157-1.667969l8.347656-4.835937c4.792969-2.777344 7.316406-7.832031 7.183594-12.945313l.054687.007813v-29.238281zm0 0" fill="#2e373d"/><path d="m195.574219 75.832031 60.152343-34.898437c7.042969-4.085938 16.039063-2.101563 20.714844 4.5625l36.683594 52.308594c4.882812 6.960937 2.753906 16.617187-4.605469 20.878906l-8.347656 4.835937c-10.175781 5.894531-22.570313 6.515625-33.285156 1.671875l-70.425781-31.84375c-7.3125-3.304687-7.824219-13.488281-.886719-17.515625zm0 0" fill="#627681"/><path d="m379.199219 111.746094c7.21875 4.167968 11.664062 11.867187 11.664062 20.199218v111.242188c0 13.695312 7.308594 26.355469 19.167969 33.203125v38.878906l-30.832031 17.492188zm0 0" fill="#23868e"/><path d="m411.597656 231.222656v-111.238281c0-8.332031-4.445312-16.035156-11.664062-20.199219l-20.734375 11.960938c7.21875 4.167968 11.664062 11.867187 11.664062 20.199218v111.242188c0 13.695312 7.308594 26.351562 19.167969 33.203125v38.679687l20.738281-11.765624v-38.878907c-11.863281-6.847656-19.171875-19.503906-19.171875-33.203125zm0 0" fill="#63dbff"/><path d="m410.03125 276.390625 20.738281-11.964844v38.878907l-20.738281 11.964843zm0 0" fill="#ededed"/><path d="m506.410156 30.042969c0-6.695313-4.070312-14.464844-9.089844-17.363281-2.210937-1.277344-4.207031-1.335938-5.785156-.496094-.242187.128906-.492187.238281-.710937.410156l-36.855469 21.226562 11.832031 25.101563 36.640625-21.164063v-.003906c2.394532-.796875 3.96875-3.554687 3.96875-7.710937zm0 0" fill="#2e373d"/><path d="m468.773438 51.714844c0 6.691406-4.066407 9.765625-9.085938 6.867187-5.019531-2.894531-9.085938-10.667969-9.085938-17.359375s4.066407-9.769531 9.085938-6.871094c5.019531 2.898438 9.085938 10.671876 9.085938 17.363282zm0 0" fill="#2e373d"/><path d="m386.6875 125.558594c0-24.59375 13.121094-47.320313 34.421875-59.617188l6.996094-4.300781c10.152343-5.863281 21.71875-4.371094 29.972656 1.738281l7.722656-4.457031-.007812-.011719c9.605469-6.148437-4-31.917968-12.726563-24.523437v-.003907l-6.074218 3.503907c-10.1875 5.878906-22.734376 5.890625-32.929688.023437l-.011719.011719c-7.632812-3.59375-16.910156-3.78125-25.257812 1.035156-30.40625 16.523438-35.398438 52.65625-64.464844 69.207031-9.351563 4.992188 1.019531 28.875 10.90625 25.570313v.003906c4.136719-2.390625 8.273437-4.777343 12.410156-7.167969 10.039063-5.792968 22.40625-5.773437 32.425781.050782l10.421876 6.058594c-2.238282-1.503907-3.804688-4.035157-3.804688-7.121094zm0 0" fill="#63dbff"/><path d="m339.203125 126.023438c0-6.691407-4.070313-14.464844-9.089844-17.363282-2.210937-1.277344-4.210937-1.335937-5.785156-.496094l-.003906.003907c-.238281.128906-37.148438 21.394531-37.148438 21.394531-2.285156.878906-3.78125 3.589844-3.78125 7.640625 0 6.691406 4.066407 14.464844 9.085938 17.363281 2.515625 1.449219 4.789062 1.402344 6.433593.152344l36.320313-20.976562v-.003907c2.394531-.800781 3.96875-3.558593 3.96875-7.714843zm0 0" fill="#2e373d"/><path d="m301.566406 147.695312c0 6.691407-4.066406 9.765626-9.085937 6.871094-5.019531-2.898437-9.085938-10.671875-9.085938-17.363281s4.066407-9.769531 9.085938-6.871094c5.019531 2.898438 9.085937 10.671875 9.085937 17.363281zm0 0" fill="#627681"/><path d="m330.117188 161.015625c-23.238282-2.699219 22.027343-44.160156 26.320312-46.710937 3.679688-2.1875 5.851562-6.1875 10.589844-2.042969 5.929687 5.183593-7.316406 13.425781-9.957032 15.890625-6.636718 6.191406-19.765624 15.996094-22.003906 25.453125 1.382813 3.328125-1.386718 7.410156-4.949218 7.410156-1.726563 0 1.027343 0 0 0zm0 0" fill="#2e373d"/><path d="m450.605469 72.765625c-8.878907 0-3.414063-8.679687-.179688-11.179687 3.988281-3.082032 11.21875-4.855469 15.917969-6.609376 10.410156-3.878906 25.183594-10.054687 36.542969-7.433593 3.855469.890625 12.207031 4.132812 7.917969 9.714843-2.835938 3.695313-10.503907.546876-14.671876.695313-7.378906.261719-15.574218 3.46875-22.472656 5.871094-6.84375 2.382812-15.980468 8.941406-23.054687 8.941406zm0 0" fill="#2e373d"/><path d="m386.6875 125.558594c0 6.628906 7.175781 10.773437 12.917969 7.457031l63.179687-36.738281c3.914063-2.261719 6.328125-6.4375 6.328125-10.957032 0-21.046874-22.785156-34.199218-41.007812-23.679687l-6.996094 4.300781c-21.300781 12.296875-34.421875 35.023438-34.421875 59.617188zm0 0" fill="#cecece"/><path d="m441.730469 67.40625c8.617187 0 17.914062 6.847656 17.914062 17.914062 0 1.132813-.609375 2.191407-1.621093 2.773438l-61.847657 35.964844c.523438-20.570313 11.792969-39.597656 29.890625-50.050782 4.90625-3.019531 9.628906-6.601562 15.664063-6.601562" fill="#ededed"/></svg>