<svg viewBox="-5 0 511 511.9997" xmlns="http://www.w3.org/2000/svg"><path d="m479.859375 359.695312c0-34.316406-20.863281-74.179687-46.601563-89.035156-10.578124-6.109375-20.324218-7.027344-28.140624-3.617187l-.007813-.011719-.089844.050781c-1.515625.667969-2.957031 1.496094-4.316406 2.484375l-32.855469 18.894532c-.125.070312-.246094.140624-.371094.210937l-.164062.09375.003906.003906c-9.800781 5.730469-15.996094 18.902344-15.996094 37.59375 0 34.316407 20.863282 74.179688 46.597657 89.039063 11.128906 6.425781 21.335937 7.109375 29.347656 3.054687l.003906.007813.210938-.121094c.679687-.351562 1.347656-.730469 1.992187-1.152344l34.46875-19.929687-.007812-.015625c9.757812-5.75 15.925781-18.902344 15.925781-37.550782zm0 0" fill="#23292e"/><path d="m134.722656 343.527344c0-34.3125-20.863281-74.179688-46.597656-89.039063-10.578125-6.105469-20.328125-7.027343-28.148438-3.625h-.003906c-1.566406.683594-36.808594 21.167969-36.808594 21.167969-10.367187 5.40625-16.980468 18.847656-16.980468 38.164062 0 34.316407 20.863281 74.179688 46.601562 89.039063 12.203125 7.046875 23.304688 7.195313 31.613282 1.753906l34.40625-19.890625-.003907-.011718c9.753907-5.757813 15.921875-18.910157 15.921875-37.558594zm0 0" fill="#23292e"/><path d="m441.359375 272.152344c-16.191406-16.628906-54.078125-55.46875-54.078125-55.46875l-.386719-.394532-11.324219-91.070312c-1.949218-15.660156-11.144531-29.492188-24.828124-37.351562l-147.054688-84.789063c-7.878906-4.523437-16.953125-3.820313-23.828125.523437l-152.523437 89.789063c-6.917969 2.824219-12.460938 8.945313-13.976563 17.160156l-9.597656 51.933594c-2.171875 11.734375-3.261719 23.644531-3.261719 35.578125v72.855469c0 14.023437 7.476562 26.980469 19.617188 33.996093l210.617187 121.742188 103.085937-7.742188 117.65625-68.226562v-.046875s-.015624-18.804687-.03125-36.039063l15.769532-9.039062 13.230468-7.582031v-9.167969zm0 0" fill="#a72700"/><path d="m375.570312 125.21875c-1.949218-15.660156-11.144531-29.492188-24.828124-37.355469l-147.054688-84.785156c-7.632812-4.382813-16.386719-3.847656-23.179688.140625l-.003906.003906c-.171875.101563-.347656.199219-.519531.304688l-152.742187 89.917968c-3.53125 1.460938-6.707032 3.777344-9.160157 6.804688l34.359375 19.871094 166.917969 96.546875 156.433594-89.632813zm0 0" fill="#ededed"/><path d="m47.519531 94.746094 147.054688 84.785156c13.683593 7.859375 22.878906 21.695312 24.828125 37.355469l11.324218 91.070312 93.863282 38.90625c5.589844 2.316407 9.230468 7.769531 9.230468 13.816407v58.238281l-103.085937 7.738281-210.617187-121.742188c-12.140626-7.015624-19.617188-19.972656-19.617188-33.996093v-72.855469c0-11.933594 1.089844-23.84375 3.261719-35.578125l9.597656-51.933594c2.886719-15.640625 20.367187-23.726562 34.160156-15.804687zm0 0" fill="#872e02"/><path d="m352.179688 348.757812 82.488281-47.832031c7.460937-4.328125 16.804687 1.054688 16.804687 9.683594v40.082031l-117.652344 68.226563v-38.289063c0-13.136718 6.992188-25.28125 18.359376-31.871094zm0 0" fill="#ed5100"/><path d="m219.359375 216.667969c-2.003906-15.570313-11.164063-29.3125-24.785156-37.136719l-147.054688-84.785156c-10.292969-5.914063-22.632812-2.902344-29.4375 5.503906zm0 0" fill="#cecece"/><path d="m322.660156 450.703125c0-34.316406-20.863281-74.179687-46.601562-89.039063-10.578125-6.109374-20.328125-7.03125-28.148438-3.628906-1.570312.683594-36.808594 21.167969-36.808594 21.167969-10.371093 5.410156-16.984374 18.851563-16.984374 38.164063 0 34.316406 20.863281 74.179687 46.601562 89.039062 12.203125 7.046875 23.308594 7.195312 31.617188 1.753906l34.402343-19.890625-.003906-.011719c9.757813-5.757812 15.925781-18.910156 15.925781-37.554687zm0 0" fill="#23292e"/><path d="m287.320312 471.179688c0 34.3125-20.863281 50.085937-46.601562 35.226562-25.734375-14.859375-46.601562-54.722656-46.601562-89.039062 0-34.3125 20.863281-50.085938 46.601562-35.226563s46.601562 54.722656 46.601562 89.039063zm0 0" fill="#2e373d"/><path d="m263.632812 457.503906c0 16.871094-10.257812 24.625-22.914062 17.320313-12.652344-7.308594-22.910156-26.90625-22.910156-43.777344s10.257812-24.625 22.910156-17.320313c12.65625 7.304688 22.914062 26.902344 22.914062 43.777344zm0 0" fill="#cecece"/><path d="m253.144531 451.449219c0 9.148437-5.5625 13.355469-12.425781 9.394531-6.863281-3.964844-12.425781-14.59375-12.425781-23.746094 0-9.148437 5.5625-13.355468 12.425781-9.390625 6.863281 3.960938 12.425781 14.589844 12.425781 23.742188zm0 0" fill="#2e373d"/><path d="m99.382812 364.003906c0 34.316406-20.863281 50.089844-46.601562 35.230469-25.734375-14.859375-46.597656-54.722656-46.597656-89.039063 0-34.3125 20.863281-50.085937 46.597656-35.226562 25.738281 14.859375 46.601562 54.722656 46.601562 89.035156zm0 0" fill="#2e373d"/><path d="m75.695312 350.328125c0 16.875-10.257812 24.628906-22.914062 17.320313-12.652344-7.304688-22.910156-26.902344-22.910156-43.773438 0-16.875 10.257812-24.628906 22.910156-17.324219 12.65625 7.308594 22.914062 26.90625 22.914062 43.777344zm0 0" fill="#cecece"/><path d="m65.210938 344.277344c0 9.148437-5.566407 13.355468-12.429688 9.390625-6.863281-3.960938-12.425781-14.589844-12.425781-23.742188 0-9.148437 5.5625-13.355469 12.425781-9.394531 6.863281 3.964844 12.429688 14.59375 12.429688 23.746094zm0 0" fill="#2e373d"/><path d="m216 350.234375 78.671875 45.421875 31.277344-17.925781-90.628907-38.628907zm0 0" fill="#ed5100"/><path d="m501.09375 321.613281-10.011719-5.703125-196.34375 113.882813.050781 33.871093 9.800782 5.429688 196.503906-113.6875zm0 0" fill="#23292e"/><path d="m304.589844 435.222656 196.503906-113.609375v33.792969l-196.503906 113.6875zm0 0" fill="#2e373d"/><path d="m433.203125 346.554688-81.113281 46.832031c-8.175782 4.71875-14.800782-.289063-14.800782-11.191407 0-10.898437 6.625-23.5625 14.800782-28.28125l81.113281-46.832031c8.175781-4.71875 14.800781.292969 14.800781 11.191407 0 10.898437-6.625 23.5625-14.800781 28.28125zm0 0" fill="#cecece"/><path d="m407.152344 355.011719-29.011719 16.753906c-5.035156 2.90625-9.117187-.179687-9.117187-6.894531v-2c0-6.710938 4.082031-14.507813 9.117187-17.414063l29.011719-16.75c5.035156-2.90625 9.117187.175781 9.117187 6.890625v2c0 6.710938-4.082031 14.507813-9.117187 17.414063zm0 0" fill="#23292e"/><path d="m363.855469 366.859375c0 8.546875-5.199219 18.476563-11.609375 22.179687-6.414063 3.703126-11.609375-.226562-11.609375-8.777343 0-8.546875 5.199219-18.480469 11.609375-22.179688 6.410156-3.703125 11.609375.226563 11.609375 8.777344zm0 0" fill="#fff"/><path d="m444.925781 320.050781c0 8.550781-5.199219 18.480469-11.609375 22.183594-6.410156 3.699219-11.609375-.230469-11.609375-8.777344 0-8.550781 5.199219-18.480469 11.609375-22.179687 6.410156-3.703125 11.609375.226562 11.609375 8.773437zm0 0" fill="#fff"/><path d="m361.871094 329.65625-94.359375-43.292969 93.679687-54.984375 47.921875 70.78125zm0 0" fill="#ed5100"/><path d="m234.832031 286.207031-7.863281-65.335937 142.054688-81.058594 7.78125 62.882812zm0 0" fill="#3b2f25"/><path d="m216 305.261719-6.859375-60.453125c-1.328125-11.710938-8.140625-22.097656-18.355469-27.976563l-61.90625-35.640625c-4.519531-2.601562-10.15625.660156-10.15625 5.871094v61.835938zm0 0" fill="#24170c"/><path d="m353.546875 216.375 15.546875-9.148438-4.652344-41.019531c-.804687-7.125-3.667968-13.746093-8.070312-19.175781l-61.71875 35.21875zm0 0" fill="#625951"/><path d="m103.488281 240.300781v-64.46875c0-6.023437-3.207031-11.585937-8.417969-14.609375l-57.007812-33.054687c-4.609375-2.671875-10.457031.136719-11.257812 5.402343l-5.359376 35.289063c-2.027343 13.347656 4.332032 26.578125 16.027344 33.328125zm0 0" fill="#24170c"/><path d="m441.359375 272.152344c4.351563 4.46875 7.140625 7.339844 7.195313 7.410156 1.613281 2.011719 2.609374 4.449219 2.859374 7.015625.003907.0625.015626 8.304687.023438 18.859375l29.007812-16.625zm0 0" fill="#ed5100"/><path d="m294.671875 395.65625-78.671875-45.421875-58.296875 34.140625 7.503906 4.5625 50.792969-29.53125 78.671875 45.421875 31.277344-17.929687v-9.167969zm0 0" fill="#a72700"/></svg>