<svg viewBox="1 -12 511.999 511" xmlns="http://www.w3.org/2000/svg"><path d="m79.945312 357.890625c.542969-.273437 46.828126-27.046875 46.828126-27.046875l-40.488282-28.488281c-5.957031-14.886719-15.878906-28.113281-27.121094-34.605469-18.21875-10.519531-32.988281.648438-32.988281 24.941406 0 24.292969 14.769531 52.511719 32.988281 63.03125 7.878907 4.550782 15.105469 5.035156 20.777344 2.167969zm0 0" fill="#23292e"/><path d="m348.988281 459.253906-40.488281-28.484375c-5.957031-14.886719-15.878906-28.117187-27.117188-34.605469-18.222656-10.519531-32.992187.648438-32.992187 24.941407s14.769531 52.515625 32.992187 63.03125c8.632813 4.988281 16.492188 5.09375 22.371094 1.25zm0 0" fill="#23292e"/><path d="m487.605469 250.113281-17.921875-61.949219c-5.769532-19.933593-19.03125-36.863281-37.007813-47.234374l-237.898437-137.15625c-8.226563-4.746094-17.707032-4.082032-24.957032.375l-134.699218 77.867187c-6.449219 3.222656-11.507813 9.269531-13.023438 17.183594l-13.203125 68.75v96.929687c0 10.226563 5.46875 19.675782 14.339844 24.765625l340.417969 195.453125v-66.933594c0-7.800781-.289063-15.59375-.855469-23.363281 22.859375-12.980469 51.710937-8.019531 68.921875 11.851563l9.617188 11.105468 10.054687-39.386718c6.820313-26.722656 24.074219-49.59375 47.894531-63.488282-1.671875-21.910156-5.5625-43.617187-11.679687-64.769531zm0 0" fill="#2eb3bd"/><path d="m499.285156 314.882812c-23.820312 13.894532-41.074218 36.765626-47.894531 63.488282l-10.054687 39.386718-9.617188-11.105468c-17.210938-19.871094-46.0625-24.832032-68.921875-11.851563.566406 7.769531.855469 15.5625.855469 23.363281v66.933594l47.582031-13.410156c36.628906-10.324219 68.257813-33.601562 89.003906-65.507812v-56.882813c0-9.035156-.664062-24.125-.953125-34.414063zm0 0" fill="#72e8f1"/><path d="m351.019531 329.03125-17.921875-61.949219c-5.769531-19.9375-19.03125-36.863281-37.007812-47.234375l-237.898438-137.15625c-14.507812-8.371094-32.9375.058594-36.097656 16.507813l-13.199219 68.75 259.976563 150.207031c35.207031 20.355469 66.917968 46.234375 93.914062 76.648438-1.621094-22.253907-5.554687-44.300782-11.765625-65.773438zm0 0" fill="#cecece"/><path d="m487.605469 250.113281-17.921875-61.949219c-5.769532-19.933593-19.03125-36.863281-37.007813-47.234374l-237.898437-137.15625c-8.226563-4.746094-17.707032-4.082032-24.957032.375l-134.695312 77.863281c6.957031-3.476563 15.539062-3.664063 23.066406.679687l237.898438 137.152344c17.976562 10.371094 31.238281 27.300781 37.007812 47.238281l17.921875 61.949219c6.210938 21.472656 10.144531 43.519531 11.769531 65.773438 22.863282-12.988282 51.714844-8.027344 68.929688 11.847656l9.617188 11.101562 10.054687-39.386718c6.820313-26.722657 24.074219-49.589844 47.894531-63.484376-1.671875-21.910156-5.5625-43.617187-11.679687-64.769531zm0 0" fill="#ededed"/><path d="m362.316406 466.554688-7.976562-4.601563c-5.074219-2.929687-11.414063.730469-11.414063 6.585937 0 5.535157 2.910157 10.667969 7.660157 13.507813 7.84375 4.699219 17.085937 6.5 26.121093 5.09375l16.050781-2.5c40.382813-6.289063 76.878907-27.644531 102.144532-59.769531l10.582031-13.453125c4.21875-5.367188 6.515625-11.996094 6.515625-18.824219 0-7.15625-4.835938-13.410156-11.761719-15.210938v10.316407l-3.816406 5.507812c-26.066406 37.636719-66.457031 62.910157-111.707031 69.890625zm0 0" fill="#cecece"/><path d="m314.371094 459.199219c0 24.292969-14.769532 35.460937-32.988282 24.9375-18.222656-10.515625-32.992187-38.738281-32.992187-63.03125s14.769531-35.460938 32.992187-24.941407c18.21875 10.519532 32.988282 38.738282 32.988282 63.035157zm0 0" fill="#2e373d"/><path d="m297.601562 449.515625c0 11.945313-7.261718 17.433594-16.21875 12.261719-8.957031-5.171875-16.222656-19.046875-16.222656-30.992188 0-11.941406 7.265625-17.433594 16.222656-12.261718 8.957032 5.171874 16.21875 19.050781 16.21875 30.992187zm0 0" fill="#cecece"/><path d="m290.179688 445.230469c0 6.480469-3.941407 9.457031-8.796876 6.652343-4.859374-2.804687-8.796874-10.332031-8.796874-16.808593 0-6.480469 3.9375-9.457031 8.796874-6.652344 4.855469 2.804687 8.796876 10.332031 8.796876 16.808594zm0 0" fill="#627681"/><path d="m37.800781 275.914062-26.230469-15.683593c-5.136718-2.980469-11.570312.726562-11.570312 6.664062 0 5.765625 3.074219 11.09375 8.070312 13.976563l29.730469 17.65625zm0 0" fill="#cecece"/><path d="m92.15625 330.785156c0 24.292969-14.769531 35.460938-32.992188 24.941406-18.21875-10.519531-32.988281-38.742187-32.988281-63.035156 0-24.292968 14.769531-35.460937 32.988281-24.941406s32.992188 38.742188 32.992188 63.035156zm0 0" fill="#2e373d"/><path d="m75.386719 321.101562c0 11.945313-7.265625 17.4375-16.222657 12.265626-8.957031-5.175782-16.21875-19.050782-16.21875-30.992188 0-11.945312 7.261719-17.433594 16.21875-12.261719 8.957032 5.171875 16.222657 19.046875 16.222657 30.988281zm0 0" fill="#cecece"/><path d="m67.960938 316.816406c0 6.480469-3.9375 9.457032-8.796876 6.652344-4.859374-2.804688-8.796874-10.332031-8.796874-16.808594 0-6.480468 3.9375-9.457031 8.796874-6.652344 4.859376 2.804688 8.796876 10.332032 8.796876 16.808594zm0 0" fill="#627681"/><path d="m406.683594 414.941406c0 10.917969-6.636719 23.597656-14.824219 28.324219-8.1875 4.730469-14.824219-.289063-14.824219-11.207031 0-10.914063 6.636719-23.59375 14.824219-28.324219 8.1875-4.726563 14.824219.292969 14.824219 11.207031zm0 0" fill="#fff"/><path d="m484.261719 344.015625c-7.015625 4.730469-12.703125 17.410156-12.703125 28.324219 0 10.917968 5.6875 15.933594 12.703125 11.207031 7.011719-4.726563 12.699219-17.40625 12.699219-28.324219 0-10.914062-5.6875-15.929687-12.699219-11.207031zm0 0" fill="#fff"/><path d="m342.351562 260.835938 24.550782 92.964843 119.570312-69.035156-28.097656-91.996094c-1.554688-5.089843-7.441406-7.417969-12.054688-4.761719l-96.800781 55.652344c-5.996093 3.445313-8.933593 10.488282-7.167969 17.175782zm0 0" fill="#304e75"/><g fill="#243b58"><path d="m248.390625 215.394531-59.710937-34.464843v77.117187l59.710937 34.863281zm0 0"/><path d="m265.160156 302.699219 69.25 40.429687-14.507812-64.902344c-3.523438-15.773437-13.496094-29.34375-27.492188-37.425781l-27.25-15.726562zm0 0"/><path d="m103.359375 131.683594-48.894531-28.21875c-7.105469-4.101563-16.144532-.03125-17.777344 8.011718-6.285156 30.90625 7.804688 62.386719 35.042969 78.289063l31.628906 18.464844zm0 0"/><path d="m120.128906 218.023438 51.777344 30.230468v-77.003906l-51.777344-29.886719zm0 0"/></g><path d="m468.886719 265.429688-14.507813-64.90625c-1.0625-4.746094-2.773437-9.261719-4.9375-13.523438-1.0625.132812-2.121094.429688-3.125 1.007812l-55.441406 31.875zm0 0" fill="#59718b"/><path d="m72.492188 269.640625-44.25-25.546875v-39.515625l44.25 25.546875zm0 0" fill="#0c929c"/></svg>