<svg viewBox="0 -27 512.001 512" xmlns="http://www.w3.org/2000/svg"><path d="m107.621094 334.679688c.613281-.308594 52.476562-30.3125 52.476562-30.3125l-45.371094-31.917969c-6.671874-16.679688-17.792968-31.503907-30.386718-38.777344-20.417969-11.785156-36.96875.726563-36.96875 27.949219 0 27.21875 16.550781 58.84375 36.96875 70.628906 8.824218 5.09375 16.925781 5.640625 23.28125 2.429688zm0 0" fill="#23292e"/><path d="m369.398438 426.210938-45.371094-31.917969c-6.671875-16.679688-17.792969-31.503907-30.386719-38.777344-20.417969-11.789063-36.964844.722656-36.964844 27.945313 0 27.222656 16.546875 58.84375 36.964844 70.632812 9.675781 5.585938 18.480469 5.707031 25.070313 1.394531zm0 0" fill="#23292e"/><path d="m511.96875 309.523438c-.148438-1.472657-.9375-2.886719-2.386719-3.753907l-6.816406-4.066406v-40.125c0-6.46875-3.234375-12.476563-8.5625-16.046875-.355469-.238281-80.351563-46.4375-80.351563-46.4375l-18.796874-74.8125c-2.382813-9.492188-8.515626-17.609375-16.992188-22.5l-169.585938-98.960938c-6.621093-3.820312-14.585937-3.675781-20.941406-.078124l-132.34375 76.523437.003906.003906c-2.453124 1.210938-4.703124 2.902344-6.582031 5.074219l-25.179687 29.070312c-5.078125 5.863282-7.871094 13.359376-7.871094 21.117188v35.964844l-15.5625 9.820312v15.636719c0 13.773437 7.316406 26.511719 19.214844 33.449219l18.644531 10.878906 6.429687-4.652344 7.8125 10.5 275.109376 159.507813c.714843 2.375 2.300781 4.4375 4.511718 5.714843l17.867188 10.316407c12.257812 7.074219 27.359375 7.074219 39.613281-.007813l105.007813-60.84375c11.011718-6.378906 17.789062-18.140625 17.789062-30.863281v-20.449219zm0 0" fill="#e7c712"/><path d="m75.109375 79.878906 169.585937 98.960938c8.476563 4.890625 14.609376 13.007812 16.992188 22.5l18.796875 74.8125 79.257813 45.757812c5.976562 3.449219 9.65625 9.824219 9.65625 16.726563v70.019531c0 9.503906-10.289063 15.449219-18.523438 10.699219l-298.773438-173.226563-36.539062-49.113281v-62.484375c0-7.753906 2.792969-15.253906 7.871094-21.117188l25.179687-29.070312c6.621094-7.648438 17.734375-9.519531 26.496094-4.464844zm0 0" fill="#c98000"/><path d="m121.304688 304.304688c0 27.21875-16.550782 39.730468-36.964844 27.945312-20.417969-11.789062-36.96875-43.410156-36.96875-70.632812 0-27.21875 16.550781-39.730469 36.96875-27.945313 20.414062 11.789063 36.964844 43.410156 36.964844 70.632813zm0 0" fill="#2e373d"/><path d="m102.515625 293.453125c0 13.386719-8.136719 19.535156-18.175781 13.742187-10.039063-5.796874-18.175782-21.34375-18.175782-34.726562 0-13.386719 8.136719-19.535156 18.175782-13.742188 10.039062 5.796876 18.175781 21.34375 18.175781 34.726563zm0 0" fill="#cecece"/><path d="m94.195312 288.652344c0 7.257812-4.410156 10.597656-9.855468 7.453125-5.445313-3.144531-9.859375-11.578125-9.859375-18.835938 0-7.257812 4.414062-10.597656 9.859375-7.453125 5.441406 3.144532 9.855468 11.578125 9.855468 18.835938zm0 0" fill="#2e373d"/><path d="m286.6875 265.398438-14.355469-60.855469c-1.589843-6.75 1.457031-13.742188 7.484375-17.167969l98.773438-56.140625c4.269531-2.425781 9.675781-.113281 10.871094 4.648437l15.035156 60.019532zm0 0" fill="#304e75"/><path d="m99.433594 106.695312-17.957032-10.492187c-5.921874-3.417969-13.390624-2.515625-18.324218 2.21875l-19.363282 18.582031c-7.167968 6.878906-5.722656 18.714844 2.886719 23.667969l52.757813 30.578125zm0 0" fill="#243b58"/><path d="m110.175781 112.972656v64.503906l63.082031 36.554688v-64.207031zm0 0" fill="#243b58"/><path d="m184 220.261719 83.238281 48.242187-15.203125-56.121094c-3.429687-12.671874-11.738281-23.46875-23.105468-30.03125l-44.929688-26.25zm0 0" fill="#243b58"/><path d="m396.160156 189.59375-15.199218-56.121094c-.261719-.96875-.605469-1.902344-.925782-2.847656-.488281.152344-.976562.339844-1.445312.609375l-42.1875 23.976563zm0 0" fill="#59718b"/><path d="m37.859375 202.507812v37.773438l-18.644531-10.878906c-11.898438-6.9375-19.214844-19.675782-19.214844-33.449219v-15.636719zm0 0" fill="#c98000"/><path d="m37.859375 202.507812 9.511719-5.492187-31.808594-18.367187v-8.152344l-15.5625 9.820312zm0 0" fill="#ffd613"/><path d="m47.371094 197.015625v36.378906l-9.511719 6.886719v-37.773438zm0 0" fill="#ef9910"/><path d="m326.773438 370.613281 8.816406-5.28125 17.578125 10.144531c10.046875 5.800782 22.421875 5.820313 32.488281.050782l117.109375-67.15625v-6.667969l6.816406 4.070313c3.25 1.9375 3.214844 6.65625-.0625 8.550781l-122.566406 70.765625c-10.863281 6.269531-24.25 6.269531-35.113281 0zm0 0" fill="#ffd613"/><path d="m369.398438 379.84375v-41.207031l-5.878907-3.394531c-2.46875-1.425782-5.554687.355468-5.554687 3.210937v39.277344c3.683594 1.390625 7.554687 2.105469 11.433594 2.113281zm0 0" fill="#ef9910"/><path d="m511.96875 309.523438c.183594 1.832031-.628906 3.75-2.449219 4.800781l-122.566406 70.761719c-10.863281 6.273437-24.25 6.273437-35.113281 0l-25.066406-14.472657v32.167969c0 3.535156 1.886718 6.800781 4.945312 8.566406l17.871094 10.320313c12.257812 7.074219 27.355468 7.070312 39.609375-.007813l105.011719-60.84375c11.011718-6.378906 17.789062-18.140625 17.789062-30.863281v-20.449219zm0 0" fill="#c98000"/><path d="m385.65625 375.527344 117.109375-67.15625v-46.792969l-133.367187 77.058594v41.207031c5.609374.007812 11.222656-1.429688 16.257812-4.316406zm0 0" fill="#cecece"/><path d="m393.402344 366.261719-12.917969 7.457031c-3.730469 2.152344-6.753906-.128906-6.753906-5.101562v-17.226563c0-4.96875 3.023437-10.746094 6.753906-12.894531l12.917969-7.460938c3.726562-2.152344 6.75.132813 6.75 5.101563v17.226562c0 4.96875-3.023438 10.746094-6.75 12.898438zm0 0" fill="#ededed"/><path d="m493.429688 308.46875-12.921876 7.457031c-3.726562 2.152344-6.75-.132812-6.75-5.101562v-17.226563c0-4.96875 3.023438-10.746094 6.75-12.898437l12.921876-7.457031c3.726562-2.152344 6.75.132812 6.75 5.101562v17.226562c0 4.96875-3.023438 10.746094-6.75 12.898438zm0 0" fill="#ededed"/><g fill="#2e373d"><path d="m414.347656 355.394531-2.339844 1.351563c-2.113281 1.21875-3.828124-.074219-3.828124-2.894532v-27.761718c0-1.46875.785156-2.828125 2.054687-3.5625l2.34375-1.351563c2.113281-1.21875 3.828125.078125 3.828125 2.894531v27.761719c0 1.46875-.785156 2.828125-2.058594 3.5625zm0 0"/><path d="m431.285156 345.550781-2.339844 1.351563c-2.117187 1.21875-3.828124-.074219-3.828124-2.894532v-27.761718c0-1.46875.785156-2.828125 2.058593-3.5625l2.339844-1.351563c2.113281-1.21875 3.828125.074219 3.828125 2.894531v27.761719c0 1.46875-.785156 2.828125-2.058594 3.5625zm0 0"/><path d="m448.222656 335.707031-2.339844 1.351563c-2.113281 1.21875-3.828124-.078125-3.828124-2.894532v-27.761718c0-1.46875.785156-2.828125 2.054687-3.5625l2.34375-1.351563c2.113281-1.21875 3.828125.074219 3.828125 2.894531v27.761719c0 1.46875-.785156 2.824219-2.058594 3.5625zm0 0"/><path d="m465.160156 325.859375-2.339844 1.355469c-2.113281 1.21875-3.828124-.078125-3.828124-2.894532v-27.761718c0-1.46875.785156-2.828125 2.058593-3.5625l2.339844-1.351563c2.113281-1.21875 3.828125.074219 3.828125 2.894531v27.761719c0 1.46875-.785156 2.824219-2.058594 3.558594zm0 0"/><path d="m330.605469 426.144531c0 27.222657-16.546875 39.734375-36.964844 27.949219-20.417969-11.789062-36.964844-43.410156-36.964844-70.632812 0-27.222657 16.546875-39.734376 36.964844-27.945313 20.417969 11.785156 36.964844 43.410156 36.964844 70.628906zm0 0"/></g><path d="m311.816406 415.296875c0 13.382813-8.136718 19.535156-18.175781 13.742187-10.039063-5.796874-18.175781-21.34375-18.175781-34.730468 0-13.382813 8.136718-19.535156 18.175781-13.738282 10.039063 5.792969 18.175781 21.34375 18.175781 34.726563zm0 0" fill="#cecece"/><path d="m303.496094 410.496094c0 7.257812-4.410156 10.59375-9.855469 7.449218-5.445313-3.140624-9.859375-11.574218-9.859375-18.832031 0-7.261719 4.414062-10.597656 9.859375-7.453125 5.445313 3.144532 9.855469 11.574219 9.855469 18.835938zm0 0" fill="#2e373d"/><path d="m408.179688 202.425781-118.007813 68.132813 109.980469 50.308594 83.828125-48.4375zm0 0" fill="#ffd613"/></svg>