<svg viewBox="0 -8 512.00128 512" xmlns="http://www.w3.org/2000/svg"><g fill="#23292e"><path d="m494.734375 424.542969c-.46875 0-.941406-.042969-1.417969-.136719l-21.28125-4.183594c-3.953125-.777344-6.53125-4.613281-5.75-8.566406.773438-3.957031 4.609375-6.527344 8.5625-5.753906l21.285156 4.1875c3.953126.773437 6.53125 4.609375 5.75 8.5625-.679687 3.480468-3.734374 5.890625-7.148437 5.890625zm0 0"/><path d="m398.742188 479.792969c-.464844 0-.9375-.042969-1.414063-.136719l-21.285156-4.183594c-3.953125-.777344-6.527344-4.613281-5.75-8.566406.777343-3.953125 4.609375-6.527344 8.566406-5.753906l21.285156 4.1875c3.953125.773437 6.527344 4.609375 5.75 8.5625-.683593 3.480468-3.734375 5.890625-7.152343 5.890625zm0 0"/><path d="m86.1875 373.351562c.695312-.355468 59.636719-34.554687 59.636719-34.554687l-51.648438-36.234375c-7.617187-18.964844-20.285156-35.808594-34.621093-44.0625-23.238282-13.375-42.042969.878906-42.003907 31.839844.039063 30.960937 18.910157 66.90625 42.148438 80.28125 10.046875 5.785156 19.261719 6.394531 26.484375 2.730468zm0 0"/><path d="m295.640625 494.015625c.691406-.351563 59.636719-34.550781 59.636719-34.550781l-51.652344-36.238282c-7.613281-18.960937-20.28125-35.804687-34.617188-44.058593-23.238281-13.375-42.042968.878906-42.003906 31.839843.039063 30.960938 18.910156 66.902344 42.148438 80.28125 10.046875 5.78125 19.261718 6.390626 26.484375 2.726563zm0 0"/></g><path d="m511.699219 320.503906c-.015625-12.101562-4.949219-24.007812-13.5-32.574218-2.867188-2.875-6.128907-5.375-9.648438-7.398438l-71.460937-50.644531-25.734375-88.710938c-4.875-16.804687-16.066407-31.070312-31.234375-39.796875l-171.5625-98.761718c-6.742188-3.878907-14.527344-3.234376-20.382813.546874l-144.96875 83.082032c-5.125 2.609375-9.128906 7.449218-10.328125 13.761718l-7.710937 40.660157c-3.460938 18.246093-5.1914065 36.777343-5.167969 55.347656.0234375 13.390625.046875 26.785156.078125 40.175781.039063 17.140625-1.949219 35.742188 15.601563 45.863282 0 0 .121093.066406.328124.1875 39.828126 22.945312 79.660157 45.894531 119.488282 68.839843 60 34.566407 120 69.136719 180.003906 103.703125 21.660156 12.476563 44.453125 30.636719 70.472656 16.726563.3125-.148438 106.882813-61.117188 106.882813-61.117188 11.722656-6.710937 19.160156-19.542969 19.144531-33.0625zm0 0" fill="#238342"/><path d="m268.921875 312.949219 133.023437 57.183593v49.625l81.554688-47.601562v-51.3125l-66.410156-90.957031zm0 0" fill="#2dad57"/><path d="m41.839844 86.710938 171.5625 98.757812c15.167968 8.726562 26.363281 22.992188 31.238281 39.796875l24.28125 87.683594 72.914063 51.671875c14.300781 8.230468 23.125 23.46875 23.148437 39.972656l.0625 47.945312c.015625 13.761719-14.875 22.375-26.792969 15.503907l-322.574218-185.988281c-9.640626-5.5625-15.5898442-15.839844-15.601563-26.96875l-.078125-59.070313c-.0234375-18.570313 1.707031-37.101563 5.167969-55.347656l7.710937-40.660157c2.507813-13.214843 17.304688-20.007812 28.960938-13.296874zm0 0" fill="#045d32"/><path d="m511.972656 356.105469-110.035156 63.652343-14.847656 8.589844c-6.828125 3.949219-14.445313 5.929688-22.070313 5.933594-7.617187.011719-15.242187-1.953125-22.074219-5.886719l-11.726562-6.75-24.398438-14.042969c-9.644531-18.695312-23.09375-34.609374-37.96875-43.171874s-28.28125-8.109376-37.875-.488282l-133.464843-76.824218c-9.644531-18.695313-23.09375-34.613282-37.976563-43.179688-14.875-8.5625-28.285156-8.109375-37.878906-.484375l-21.609375-12.4375.03125 24.070313c.0117188 10.097656 4.921875 19.484374 13.035156 25.292968.105469.074219 2.566407 1.671875 2.566407 1.675782 0 0 328.855468 189.476562 329.238281 189.675781 6.328125 3.273437 13.226562 5 20.160156 5.015625 7.597656.015625 15.199219-1.929688 22.023437-5.832032l105.753907-60.519531c11.855469-6.785156 19.164062-19.40625 19.144531-33.0625zm0 0" fill="#82a5b9"/><path d="m401.9375 419.757812-14.847656 8.589844c-6.828125 3.949219-14.445313 5.929688-22.070313 5.933594l.011719 6.828125.019531 16.707031c.015625 11.207032 12.089844 18.726563 21.847657 13.214844.066406-.039062.136718-.078125.203124-.117188l105.753907-60.519531c11.855469-6.785156 19.164062-19.40625 19.144531-33.0625l-.027344-21.230469zm0 0" fill="#cecece"/><path d="m164.097656 262.109375 90.949219 52.074219-22.125-78.21875c-4.003906-14.144532-13.375-26.164063-26.113281-33.5l-42.710938-24.585938zm0 0" fill="#243b58"/><path d="m81.148438 130.132812-40.933594-23.5625c-7.792969-4.484374-17.6875.007813-19.441406 8.828126l-6.363282 32.03125c-3.085937 15.546874 4.097656 31.328124 17.855469 39.203124l48.882813 27.988282zm0 0" fill="#243b58"/><path d="m90.710938 135.636719v84.457031l63.828124 36.542969v-84.261719zm0 0" fill="#243b58"/><path d="m273.65625 304.332031 134.441406-77.855469-25.894531-87.15625c-1.710937-5.765624-8.382813-8.390624-13.566406-5.34375l-113.953125 66.976563c-5.597656 3.289063-8.246094 9.964844-6.429688 16.199219zm0 0" fill="#304e75"/><path d="m311.15625 459.449219c.039062 30.960937-18.765625 45.214843-42.003906 31.839843-23.238282-13.375-42.109375-49.320312-42.148438-80.28125-.039062-30.960937 18.765625-45.214843 42.003906-31.839843 23.238282 13.375 42.109376 49.320312 42.148438 80.28125zm0 0" fill="#2e373d"/><path d="m289.765625 447.136719c.023437 15.222656-9.226563 22.230469-20.648437 15.65625-11.429688-6.578125-20.707032-24.25-20.726563-39.472657-.019531-15.222656 9.226563-22.230468 20.652344-15.65625 11.425781 6.578126 20.703125 24.25 20.722656 39.472657zm0 0" fill="#cecece"/><path d="m280.300781 441.6875c.011719 8.253906-5.003906 12.054688-11.203125 8.488281-6.195312-3.566406-11.226562-13.152343-11.238281-21.40625-.011719-8.257812 5.003906-12.058593 11.199219-8.492187 6.199218 3.566406 11.230468 13.152344 11.242187 21.410156zm0 0" fill="#2e373d"/><path d="m101.703125 338.78125c.039063 30.960938-18.765625 45.21875-42.003906 31.839844-23.238281-13.375-42.109375-49.316406-42.148438-80.28125-.039062-30.960938 18.765625-45.214844 42.003907-31.839844 23.238281 13.378906 42.109374 49.320312 42.148437 80.28125zm0 0" fill="#2e373d"/><path d="m80.316406 326.46875c.019532 15.222656-9.226562 22.230469-20.652344 15.65625-11.425781-6.578125-20.703124-24.25-20.722656-39.472656-.019531-15.222656 9.226563-22.230469 20.652344-15.652344 11.421875 6.574219 20.703125 24.246094 20.722656 39.46875zm0 0" fill="#cecece"/><path d="m70.847656 321.019531c.011719 8.257813-5.003906 12.058594-11.199218 8.492188-6.199219-3.566407-11.230469-13.152344-11.242188-21.410157-.011719-8.253906 5.003906-12.054687 11.203125-8.488281 6.195313 3.566407 11.226563 13.152344 11.238281 21.40625zm0 0" fill="#2e373d"/><path d="m386.359375 375.628906-23.929687 13.890625-15.71875-9.050781.027343 19.636719c.015625 13.03125 6.984375 25.066406 18.277344 31.566406l36.984375-21.46875-.035156-25.601563c-.007813-8-8.683594-12.988281-15.605469-8.972656zm0 0" fill="#fff"/><path d="m511.699219 320.503906c-.007813-5.414062-1.003907-10.785156-2.863281-15.839844l-9.273438 5.269532c-9.457031 5.359375-15.292969 15.390625-15.277344 26.257812l.03125 26.332032 27.519532-16.125zm0 0" fill="#fff"/><path d="m499.003906 310.277344.003906-.019532s-.058593.039063-.148437.105469c.050781-.027343.097656-.058593.144531-.085937zm0 0" fill="#2e373d"/><path d="m484.316406 362.523438-.03125-26.332032c-.011718-8.992187 3.988282-17.402344 10.722656-23.074218-14.875 10.554687-67.792968 47.394531-97.632812 58.90625l-5.667969 2.1875c5.363281.078124 10.25 4.386718 10.257813 10.390624l.035156 25.601563-18.753906 10.886719v.027344l109.351562-63.324219.019532-.140625zm0 0" fill="#2e373d"/><path d="m501.832031 415.578125-14.792969-63.734375c-.523437-2.246094-2.078124-4.117188-4.195312-5.039062-2.113281-.921876-4.542969-.785157-6.542969.363281l-60.632812 34.800781c-1.738281.996094-2.988281 2.660156-3.457031 4.601562l-20.5625 84.5625c-.953126 3.914063 1.449218 7.859376 5.367187 8.8125.578125.140626 1.15625.207032 1.726563.207032 3.289062 0 6.273437-2.238282 7.085937-5.574219l7.855469-32.308594 69.945312-40.574219 3.988282 17.183594c.910156 3.921875 4.835937 6.363282 8.757812 5.457032 3.925781-.910157 6.367188-4.832032 5.457031-8.757813zm-83.375 7.054687 7.191407-29.570312 49.398437-28.351562 5.132813 22.117187zm0 0" fill="#23292e"/><path d="m364.992188 411.316406-.011719-6.722656c-.003907-5.25-.992188-10.339844-2.675781-15.148438l-15.59375-8.976562.027343 19.636719c0 .246093.042969.484375.050781.730469zm0 0" fill="#ef9910"/><path d="m364.992188 411.316406-18.203126-10.480468c-.007812-.246094-.050781-.484376-.050781-.730469.015625 13.03125 6.984375 25.066406 18.277344 31.566406zm0 0" fill="#cecece"/><path d="m400.472656 230.496094-22.125-78.21875c-1.914062-6.757813-5.082031-13.007813-9.222656-18.515625-.160156.082031-.332031.121093-.488281.214843l-67.476563 39.660157zm0 0" fill="#59718b"/></svg>