<svg viewBox="0 -72 512 512" xmlns="http://www.w3.org/2000/svg"><path d="m318.082031 366.226562c.605469-.304687 51.980469-30.027343 51.980469-30.027343l-44.945312-31.617188c-6.609376-16.523437-17.625-31.210937-30.101563-38.414062-20.226563-11.675781-36.621094.71875-36.621094 27.683593 0 26.964844 16.394531 58.292969 36.621094 69.96875 8.742187 5.046876 16.765625 5.589844 23.0625 2.40625zm0 0" fill="#23292e"/><path d="m130.089844 199.980469-44.945313-31.621094c-6.613281-16.523437-17.625-31.210937-30.101562-38.414063-20.226563-11.675781-36.621094.71875-36.621094 27.683594 0 26.96875 16.394531 58.292969 36.621094 69.96875 9.585937 5.535156 18.308593 5.65625 24.835937 1.382813zm0 0" fill="#23292e"/><path d="m396.875 137.121094-22.367188-60.355469c-3.796874-10.238281-11.109374-18.789063-20.636718-24.125l-20.128906-11.28125c-44.839844-25.128906-96.734376-34.707031-147.589844-27.238281l-35.019532-8.910156-3.367187-3.855469c-1.078125-1.238281-2.585937-1.5625-3.917969-1.222657l-.191406-.132812-140.082031 83.0625.023437.019531c-1.878906.171875-3.597656 1.679688-3.597656 3.917969v39.210938c0 18.378906 9.839844 35.351562 25.792969 44.480468l231.9375 132.746094 73.890625 33.871094 32.832031 18.296875h.003906l11.089844-1.132813c53.765625-5.484375 101.828125-35.914062 129.78125-82.167968l2.179687-7.210938c.519532-1.394531.8125-2.917969.820313-4.542969l.066406-20.929687 3.605469-24.25zm0 0" fill="#ed5100"/><path d="m192.867188 124.660156 20.132812 11.28125c9.523438 5.335938 16.839844 13.890625 20.632812 24.128906l22.367188 60.351563 115.125 78.25-3.351562 22.550781-3.316407 34.386719-32.835937-18.296875-73.890625-33.871094-231.9375-132.746094c-15.953125-9.132812-25.792969-26.105468-25.792969-44.484374v-39.210938c0-3.601562 4.441406-5.304688 6.851562-2.628906l3.820313 4.246094 34.605469 8.804687c50.855468-7.46875 102.75 2.109375 147.589844 27.238281zm0 0" fill="#e33400"/><path d="m331.636719 336.136719c0 26.964843-16.398438 39.359375-36.621094 27.683593-20.226563-11.675781-36.621094-43.003906-36.621094-69.96875 0-26.964843 16.394531-39.359374 36.621094-27.683593 20.222656 11.675781 36.621094 43.003906 36.621094 69.96875zm0 0" fill="#2e373d"/><path d="m313.019531 325.390625c0 13.257813-8.058593 19.351563-18.003906 13.609375-9.945313-5.738281-18.003906-21.140625-18.003906-34.398438 0-13.257812 8.058593-19.355468 18.003906-13.613281 9.945313 5.742188 18.003906 21.144531 18.003906 34.402344zm0 0" fill="#cecece"/><path d="m304.78125 320.632812c0 7.191407-4.371094 10.496094-9.765625 7.382813s-9.765625-11.464844-9.765625-18.65625 4.371094-10.496094 9.765625-7.382813c5.394531 3.113282 9.765625 11.464844 9.765625 18.65625zm0 0" fill="#627681"/><path d="m91.660156 199.914062c0 26.96875-16.394531 39.363282-36.621094 27.683594-20.222656-11.675781-36.617187-43-36.617187-69.96875 0-26.964844 16.394531-39.359375 36.617187-27.683594 20.226563 11.675782 36.621094 43.003907 36.621094 69.96875zm0 0" fill="#2e373d"/><path d="m73.046875 189.167969c0 13.257812-8.0625 19.351562-18.007813 13.609375-9.941406-5.742188-18.003906-21.140625-18.003906-34.398438 0-13.261718 8.0625-19.355468 18.003906-13.613281 9.945313 5.742187 18.007813 21.144531 18.007813 34.402344zm0 0" fill="#cecece"/><path d="m64.808594 184.410156c0 7.191406-4.375 10.496094-9.765625 7.382813-5.394531-3.113281-9.765625-11.46875-9.765625-18.660157 0-7.191406 4.371094-10.496093 9.765625-7.378906 5.390625 3.113282 9.765625 11.464844 9.765625 18.65625zm0 0" fill="#627681"/><path d="m492.550781 241.488281c-28.3125 31.433594-67.492187 51.683594-110.335937 56.054688l-11.089844 1.132812-16.433594 21.515625c-2.351562 3.082032-1.058594 7.554688 2.570313 8.90625l10.242187 3.8125 11.089844-1.132812c53.765625-5.484375 101.828125-35.914063 129.785156-82.167969l.226563-11.414063 3.394531-22.824218c-5.679688 9.398437-12.230469 18.101562-19.449219 26.117187zm0 0" fill="#23292e"/><path d="m266.546875 215.371094 123.257813-71.164063-15.777344-46.59375c-2.054688-6.066406-9.136719-8.757812-14.703125-5.582031l-99.078125 56.519531c-9.070313 5.175781-13.015625 16.1875-9.292969 25.945313zm0 0" fill="#304e75"/><path d="m247.316406 226.273438-21.25-53.457032c-5.679687-14.285156-16.390625-26-30.109375-32.9375l-30.96875-15.65625c-25.324219-12.804687-53.914062-17.703125-82.058593-14.0625l21.800781 33.792969zm0 0" fill="#243b58"/><path d="m386.976562 141.703125-20.136718-50.648437c-2.441406-.617188-5.109375-.394532-7.515625.976562l-29.367188 16.753906zm0 0" fill="#59718b"/><path d="m266.546875 215.371094 121.957031 70.414062 6.996094-1.984375c39.550781-11.210937 75.367188-32.835937 103.710938-62.609375l-109.40625-76.984375zm0 0" fill="#23292e"/><g fill="#fff"><path d="m381.757812 309.992188c0 6.378906-3.878906 13.789062-8.660156 16.550781-4.785156 2.761719-8.664062-.167969-8.664062-6.546875s3.878906-13.789063 8.664062-16.550782c4.78125-2.761718 8.660156.171876 8.660156 6.546876zm0 0"/><path d="m428.765625 299.433594c0 6.824218-4.152344 14.753906-9.269531 17.707031-5.117188 2.957031-9.265625-.179687-9.265625-7.003906s4.148437-14.753907 9.265625-17.707031c5.117187-2.957032 9.269531.179687 9.269531 7.003906zm0 0"/><path d="m505.332031 246.757812c0 6.820313-4.148437 14.75-9.269531 17.703126-5.117188 2.957031-9.265625-.179688-9.265625-7.003907s4.148437-14.753906 9.265625-17.707031c5.121094-2.953125 9.269531.183594 9.269531 7.007812zm0 0"/></g></svg>