<svg viewBox="0 -60 512 511" xmlns="http://www.w3.org/2000/svg"><path d="m364.792969 361.335938-43.402344-30.535157c-6.382813-15.957031-17.019531-30.136719-29.066406-37.09375-19.53125-11.277343-35.363281.691407-35.363281 26.734375 0 26.039063 15.832031 56.289063 35.363281 67.566406 9.253906 5.34375 17.679687 5.457032 23.980469 1.335938zm0 0" fill="#23292e"/><path d="m491.335938 208.832031c-24.246094-27.550781-52.300782-51.5-83.3125-71.128906l-.460938-.289063-26.90625-65.710937c-4.609375-11.253906-12.808594-20.664063-23.324219-26.769531l-14.140625-8.210938c-44.058594-25.585937-94.992187-36.828125-145.730468-32.167968l-22.039063-3.808594c-3.824219-.6601565-7.523437.039062-10.648437 1.714844l-155.894532 91.511718c-.183594.097656-.355468.210938-.535156.316406l-.503906.292969.007812.003907c-4.664062 2.90625-7.847656 8.0625-7.847656 14.082031v45.15625c0 7.585937 2.574219 14.945312 7.304688 20.875l13.195312 16.542969 335.503906 193.8125c23.871094-1.265626 47.136719-7.984376 68.007813-19.640626l68.109375-38.050781c12.273437-6.855469 19.878906-19.816406 19.878906-33.875v-29.894531c0-20.160156-7.347656-39.628906-20.664062-54.761719zm0 0" fill="#4d7eb7"/><path d="m125.621094 221.9375-43.398438-30.535156c-6.386718-15.957032-17.019531-30.136719-29.070312-37.09375-19.53125-11.277344-35.363282.691406-35.363282 26.734375 0 26.039062 15.832032 56.289062 35.363282 67.566406 9.257812 5.34375 17.683594 5.457031 23.984375 1.335937zm0 0" fill="#23292e"/><path d="m187.199219 128.285156 14.140625 8.210938c10.515625 6.105468 18.714844 15.519531 23.320312 26.769531l26.910156 65.710937c30.5 19.304688 58.144532 42.792969 82.117188 69.78125l1.398438 1.570313c13.476562 15.171875 20.921874 34.757813 20.921874 55.050781v29.675782l-335.507812-193.8125-13.195312-16.542969c-4.730469-5.929688-7.304688-13.289063-7.304688-20.875v-45.15625c0-10.296875 9.277344-18.109375 19.425781-16.359375l22.042969 3.808594c50.738281-4.660157 101.667969 6.582031 145.730469 32.167968zm0 0" fill="#304e75"/><path d="m408.023438 137.703125-.460938-.289063-26.90625-65.710937c-4.609375-11.253906-12.808594-20.664063-23.324219-26.769531l-14.140625-8.210938c-44.058594-25.585937-94.992187-36.828125-145.730468-32.167968l-155.992188 91.5625c50.738281-4.660157 101.667969 6.582031 145.730469 32.167968l14.140625 8.210938c10.515625 6.105468 18.714844 15.519531 23.320312 26.769531l26.910156 65.710937 172.335938 55.523438 39.957031-23.105469zm0 0" fill="#7192c4"/><path d="m327.683594 361.273438c0 26.039062-15.832032 38.007812-35.363282 26.734374-19.527343-11.277343-35.359374-41.527343-35.359374-67.566406 0-26.042968 15.832031-38.011718 35.359374-26.734375 19.53125 11.273438 35.363282 41.527344 35.363282 67.566407zm0 0" fill="#2e373d"/><path d="m309.710938 350.894531c0 12.804688-7.785157 18.6875-17.386719 13.144531-9.601563-5.542968-17.386719-20.417968-17.386719-33.21875 0-12.804687 7.78125-18.6875 17.386719-13.144531 9.601562 5.542969 17.386719 20.417969 17.386719 33.21875zm0 0" fill="#cecece"/><path d="m301.753906 346.300781c0 6.945313-4.222656 10.136719-9.429687 7.128907-5.210938-3.007813-9.429688-11.074219-9.429688-18.019532 0-6.941406 4.21875-10.132812 9.429688-7.128906 5.207031 3.007812 9.429687 11.074219 9.429687 18.019531zm0 0" fill="#627681"/><path d="m88.515625 221.875c0 26.039062-15.832031 38.011719-35.363281 26.734375-19.53125-11.273437-35.363282-41.527344-35.363282-67.566406 0-26.039063 15.832032-38.011719 35.363282-26.734375s35.363281 41.527344 35.363281 67.566406zm0 0" fill="#2e373d"/><path d="m70.539062 211.496094c0 12.804687-7.785156 18.6875-17.386718 13.144531-9.601563-5.542969-17.386719-20.417969-17.386719-33.21875 0-12.804687 7.785156-18.6875 17.386719-13.144531 9.601562 5.542968 17.386718 20.417968 17.386718 33.21875zm0 0" fill="#cecece"/><path d="m62.582031 206.902344c0 6.945312-4.222656 10.136718-9.429687 7.128906-5.207032-3.003906-9.429688-11.070312-9.429688-18.015625s4.222656-10.136719 9.429688-7.128906c5.207031 3.007812 9.429687 11.074219 9.429687 18.015625zm0 0" fill="#627681"/><path d="m256.960938 225.082031 44.78125-17.820312c37.867187-15.070313 72.320312-37.601563 101.300781-66.253907l-31.894531-74.589843-5.335938 5.203125c-29.820312 29.078125-65.300781 51.714844-104.234375 66.507812l-34.699219 13.183594zm0 0" fill="#304e75"/><path d="m212.191406 165.394531 26.964844 61.332031-179.199219-103.460937 19.21875-11.375c30.765625 2.621094 60.914063 10.160156 89.292969 22.324219l21.589844 9.253906c9.890625 4.238281 17.800781 12.078125 22.132812 21.925781zm0 0" fill="#243b58"/><path d="m395.035156 136.109375s-28.109375-63.769531-28.761718-64.9375l-.460938.449219c-10.507812 10.246094-21.753906 19.644531-33.574219 28.234375zm0 0" fill="#59718b"/><path d="m502.167969 246.753906c0-15.453125-7.085938-30.050781-19.226563-39.609375l-12.707031-10c-3.738281-2.941406-9.070313.546875-7.875 5.144531 4.933594 19.007813 11.964844 37.40625 20.964844 54.855469l2.488281 4.824219 10.742188-5.804688c3.457031-1.867187 5.613281-5.480468 5.613281-9.410156zm0 0" fill="#fff"/><path d="m396.671875 313.625c-8.117187-23.363281-27.921875-40.742188-52.144531-45.753906l-3.199219-.660156c-5.808594-1.203126-10.371094 4.925781-7.558594 10.144531l14.714844 27.277343c3.972656 7.363282 10.398437 13.101563 18.15625 16.222657 6.789063 2.730469 14.464844 2.117187 20.738281-1.648438zm0 0" fill="#fff"/><path d="m409.421875 344.667969v-26.523438c0-7.398437 1.394531-14.726562 4.109375-21.609375 2-5.066406 5.65625-9.308594 10.375-12.039062l39.957031-23.101563c5.339844-3.089843 11.796875-3.554687 17.523438-1.261719 2.769531 1.105469 4.589843 3.789063 4.589843 6.773438v34.960938c0 3.816406-2.042968 7.335937-5.351562 9.230468l-64.96875 37.183594c-2.777344 1.589844-6.234375-.414062-6.234375-3.613281zm0 0" fill="#23292e"/><path d="m413.53125 296.535156c2-5.066406 5.65625-9.308594 10.375-12.039062l-172.335938-55.519532 99.316407 38.003907c28.546875 10.921875 49.609375 35.574219 55.949219 65.472656l2.589843 12.214844v-26.523438c-.003906-7.398437 1.390625-14.726562 4.105469-21.609375zm0 0" fill="#304e75"/><path d="m481.386719 260.132812c1.164062.464844 2.148437 1.21875 2.910156 2.148438l-76.273437-124.578125 55.839843 123.691406c5.335938-3.085937 11.796875-3.554687 17.523438-1.261719zm0 0" fill="#304e75"/><g fill="#23292e"><path d="m378.546875 369.859375-7.042969 4.109375c-3.640625 2.125-8.207031-.5-8.207031-4.710938v-18.777343c0-6.199219 3.265625-11.941407 8.59375-15.109375l17.25-10.265625-5.476563 37.1875c-.46875 3.167969-2.351562 5.953125-5.117187 7.566406zm0 0"/><path d="m489.683594 267.058594 6.589844-3.804688c4.777343-2.757812 10.746093.6875 10.746093 6.207032v23.609374c0 1.683594-.898437 3.238282-2.355469 4.078126-2.636718 1.523437-6.003906.179687-6.871093-2.738282zm0 0"/></g></svg>