<svg viewBox="0 -52 512 512" xmlns="http://www.w3.org/2000/svg"><path d="m511.984375 313.722656c-.015625-1.128906-.125-2.269531-.355469-3.402344l-9.570312-46.917968c-1.769532-8.683594-6.066406-16.65625-12.34375-22.910156l-64.597656-64.363282-41.835938-46.082031c-21.230469-23.382813-45.945312-43.347656-73.265625-59.191406l-4.203125-2.433594c-36.976562-21.441406-80.988281-27.238281-122.257812-16.097656 0 0-3.824219 1.476562-7.761719 3.925781l-159.007813 91.800781.03125.019531c-6.011718 3.59375-9.863281 10.136719-9.863281 17.382813 0 19.160156 8.328125 37.371094 22.816406 49.90625l50.027344 43.277344c19.9375-1.703125 39.921875 2.746093 57.257813 12.742187l201.976562 116.460938 75.433594 14.238281c10.65625 2.011719 21.683594.144531 31.085937-5.269531l54.296875-31.488282c7.523438-4.359374 12.152344-12.394531 12.152344-21.089843v-30.519531zm0 0" fill="#e7c712"/><path d="m511.628906 310.320312-9.570312-46.917968c-1.769532-8.683594-6.066406-16.65625-12.34375-22.910156l-64.597656-64.363282c-.664063 4.976563-1.804688 9.828125-3.367188 14.511719l69.863281 125.644531s-47.214843 31.480469-50.96875 33.644532c-3.734375 2.15625-155.011719-80.742188-156.417969-81.511719-6.308593.8125-12.652343 1.410156-19.019531 1.78125l-.402343.023437 74.226562 73.960938 73.3125 21.558594c11.902344 3.5 24.722656 1.976562 35.476562-4.210938l54.988282-31.652344c6.84375-3.941406 10.398437-11.820312 8.820312-19.558594zm0 0" fill="#ffd613"/><path d="m125.265625 233.746094-51.585937 29.800781 1.652343-64.929687zm0 0" fill="#ef9910"/><path d="m371.078125 375.398438-44.601563-31.378907c-6.5625-16.398437-17.492187-30.972656-29.875-38.121093-20.070312-11.589844-36.339843.710937-36.339843 27.472656 0 26.761718 16.269531 57.847656 36.339843 69.4375 9.515626 5.492187 18.167969 5.609375 24.648438 1.371094zm0 0" fill="#23292e"/><path d="m123.875 230.171875 146.992188 81.4375s-5.398438 22.1875-6.0625 22.523437c-.664063.335938-142.492188-84.441406-142.492188-84.441406l-11.328125-5.035156v-16.363281zm0 0" fill="#b2760c"/><path d="m511.984375 313.722656c.097656 6.5625-3.335937 12.792969-9.175781 16.15625l-54.988282 31.648438c-10.679687 6.144531-23.648437 7.6875-35.476562 4.210937l-73.3125-21.554687-37.113281-36.980469-37.113281-36.976563-40.746094-46.34375c-21.9375-24.949218-47.785156-46.171874-76.527344-62.839843-32.910156-19.082031-72.125-25.066407-109.671875-18.953125-19.941406 3.246094-31.964844 7.949218-30.734375 27.878906 1.070312 17.378906 9.5 34.023438 22.644531 45.390625l50.027344 43.277344c19.9375-1.703125 39.917969 2.746093 57.253906 12.742187l201.980469 116.460938 75.433594 14.238281c10.65625 2.011719 21.683594.144531 31.085937-5.269531l54.296875-31.488282c7.523438-4.359374 12.152344-12.394531 12.152344-21.089843v-30.519531zm0 0" fill="#ef9910"/><path d="m332.945312 375.335938c0 26.757812-16.273437 39.058593-36.34375 27.472656-20.070312-11.589844-36.339843-42.675782-36.339843-69.4375 0-26.761719 16.269531-39.0625 36.339843-27.472656 20.070313 11.585937 36.34375 42.675781 36.34375 69.4375zm0 0" fill="#2e373d"/><path d="m314.46875 364.667969c0 13.15625-8 19.203125-17.867188 13.507812-9.867187-5.695312-17.867187-20.980469-17.867187-34.140625 0-13.15625 8-19.203125 17.867187-13.507812 9.867188 5.699218 17.867188 20.984375 17.867188 34.140625zm0 0" fill="#cecece"/><path d="m306.292969 359.945312c0 7.136719-4.339844 10.417969-9.691407 7.328126-5.351562-3.089844-9.691406-11.378907-9.691406-18.515626 0-7.136718 4.339844-10.417968 9.691406-7.328124 5.351563 3.089843 9.691407 11.382812 9.691407 18.515624zm0 0" fill="#627681"/><path d="m87.128906 233.683594c0 26.761718-16.269531 39.0625-36.339844 27.472656-20.070312-11.585938-36.339843-42.675781-36.339843-69.4375 0-26.757812 16.269531-39.058594 36.339843-27.472656 20.070313 11.589844 36.339844 42.675781 36.339844 69.4375zm0 0" fill="#2e373d"/><path d="m68.65625 223.019531c0 13.15625-8 19.203125-17.867188 13.507813-9.867187-5.699219-17.867187-20.984375-17.867187-34.140625s8-19.203125 17.867187-13.507813c9.867188 5.695313 17.867188 20.980469 17.867188 34.140625zm0 0" fill="#cecece"/><path d="m60.480469 218.296875c0 7.136719-4.339844 10.417969-9.691407 7.328125-5.351562-3.089844-9.691406-11.382812-9.691406-18.519531 0-7.132813 4.339844-10.414063 9.691406-7.324219 5.351563 3.089844 9.691407 11.378906 9.691407 18.515625zm0 0" fill="#627681"/><path d="m386.4375 233.890625c16.8125-9.703125 29.261719-25.179687 35.300781-43.273437l-54.71875-62.738282-138.417969 79.914063 55.589844 60.605469c35.96875-4.625 70.734375-16.3125 102.246094-34.507813zm0 0" fill="#304e75"/><path d="m249.351562 266.222656-40.890624-45.246094c-18.792969-20.792968-41.933594-37.195312-67.78125-48.035156l-53.546876-22.460937c6.648438 18.007812 17.070313 34.382812 30.570313 48.03125 6.734375 6.808593 14.351563 12.683593 22.644531 17.46875l50.941406 29.371093c17.957032 10.351563 37.621094 17.421876 58.0625 20.871094zm0 0" fill="#243b58"/><path d="m345.265625 155.253906c17.960937 10.355469 37.621094 17.425782 58.0625 20.875l-40.890625-45.246094c-.070312-.082031-.148438-.152343-.21875-.234374l-29.792969 17.203124zm0 0" fill="#59718b"/><path d="m122.3125 249.691406h-29.089844v-37.21875l30.652344 17.699219-12.890625-1.878906v16.363281zm0 0" fill="#23292e"/><path d="m440.644531 349.929688-69.566406-5.746094 39.980469 15.164062zm0 0" fill="#fff"/><path d="m496.453125 261.515625 7.242187 42.628906-12.082031 12.140625zm0 0" fill="#fff"/><path d="m165.824219 0-4.496094 2.59375v19.265625l-146.0625 84.332031-10.773437-13.039062-4.492188 2.59375v26.585937l20.171875 11.644531 4.957031-2.859374v-4.019532l152.886719-88.285156 3.488281 2.011719 4.953125-2.859375v-12.992188zm0 0" fill="#23292e"/><path d="m4.492188 93.152344-4.492188 2.59375v26.585937l20.171875 11.644531 4.957031-2.859374v-12.992188zm0 0" fill="#2e373d"/><path d="m57.933594 117.046875v-12.199219l-13.425782 7.753906v12.195313l6.277344 3.625 13.320313-1.339844 4.316406-2.492187zm0 0" fill="#23292e"/><path d="m54.019531 106.996094 3.914063-2.148438v12.199219l10.488281 7.542969-4.316406 2.492187-10.085938-7.777343zm0 0" fill="#2e373d"/><path d="m158.847656 58.980469v-12.199219l-13.425781 7.753906v12.195313l6.277344 3.625 13.320312-1.339844 4.316407-2.492187zm0 0" fill="#23292e"/><path d="m154.933594 48.929688 3.914062-2.148438v12.199219l10.488282 7.542969-4.316407 2.492187-10.085937-7.777344zm0 0" fill="#2e373d"/><path d="m165.824219 0-4.496094 2.59375 20.175781 25.238281v5.675781l-156.375 90.28125v-5.664062l-20.636718-24.972656-4.492188 2.59375 20.171875 25.238281v12.992187l4.957031-2.859374v-4.035157l156.375-90.28125v4.023438l4.953125-2.859375v-12.992188zm0 0" fill="#525e65"/><path d="m181.503906 33.507812-20.175781-11.648437v-19.265625l20.175781 25.238281zm0 0" fill="#2e373d"/></svg>