<svg viewBox="0 -33 512 512" xmlns="http://www.w3.org/2000/svg"><path d="m507.601562 290.292969-16.355468-8.644531v16.574218zm0 0" fill="#2eb3bd"/><path d="m137.910156 291.730469-52.824218-37.164063c-7.773438-19.421875-20.71875-36.683594-35.382813-45.152344-23.769531-13.722656-43.042969.847657-43.042969 32.539063 0 31.695313 19.273438 68.515625 43.042969 82.242187 11.265625 6.503907 21.519531 6.644532 29.191406 1.625zm0 0" fill="#23292e"/><path d="m338.078125 408.730469-52.824219-37.164063c-7.773437-19.421875-20.71875-36.683594-35.382812-45.148437-23.773438-13.726563-43.042969.84375-43.042969 32.539062 0 31.695313 19.269531 68.515625 43.042969 82.238281 11.269531 6.507813 21.519531 6.644532 29.191406 1.625zm0 0" fill="#23292e"/><path d="m499.910156 290.476562-1.460937.84375c-4.652344-23.964843-16.4375-46.171874-34.085938-63.550781l-40.929687-40.304687-8.542969-15.910156c-21.476563-40-53.710937-73.199219-93.0625-95.851563l-131.523437-75.703125-167.476563 97.078125-2.980469 31.886719c-13.042968 25.183594-19.847656 53.128906-19.847656 81.488281v5.777344c0 20.652343 11.007812 39.738281 28.886719 50.082031l274.320312 158.691406c.234375.148438.464844.300782.707031.4375.417969.242188.84375.472656 1.269532.707032l1.414062.816406c.511719.296875 1.03125.554687 1.554688.792968.128906.058594.257812.113282.386718.171876.449219.191406.898438.363281 1.347657.515624.058593.019532.117187.050782.175781.070313 16.867188 7.242187 36.316406 6.207031 52.4375-3.109375l125.886719-72.765625c14.613281-8.445313 23.613281-24.046875 23.613281-40.925781v-14.261719c0-6.203125-6.71875-10.082031-12.089844-6.976563zm0 0" fill="#63dbff"/><path d="m499.910156 290.476562-147.894531 85.488282c-6.964844 4.023437-14.789063 5.882812-22.5625 5.613281-5.429687-21.34375-16.601563-41.007813-32.566406-56.726563l-40.925781-40.308593-8.542969-15.90625c-21.480469-40.003907-53.714844-73.203125-93.0625-95.851563l-131.527344-75.707031-2.984375 31.886719c-13.039062 25.183594-19.84375 53.128906-19.84375 81.488281v5.777344c0 20.652343 11.007812 39.738281 28.886719 50.082031l274.316406 158.691406c.238281.148438.46875.300782.707031.4375.421875.242188.847656.472656 1.273438.707032l1.414062.816406c1.132813.65625 2.292969 1.167968 3.464844 1.550781 16.867188 7.242187 36.316406 6.210937 52.4375-3.109375l125.886719-72.765625c14.613281-8.445313 23.613281-24.046875 23.613281-40.925781v-14.261719c0-6.203125-6.71875-10.082031-12.089844-6.976563zm0 0" fill="#2eb3bd"/><path d="m292.914062 408.65625c0 31.695312-19.273437 46.265625-43.042968 32.539062-23.773438-13.722656-43.042969-50.542968-43.042969-82.238281 0-31.695312 19.269531-46.261719 43.042969-32.539062 23.769531 13.722656 43.042968 50.542969 43.042968 82.238281zm0 0" fill="#2e373d"/><path d="m271.03125 396.023438c0 15.585937-9.472656 22.746093-21.160156 16-11.6875-6.75-21.164063-24.851563-21.164063-40.433594 0-15.585938 9.476563-22.746094 21.164063-16 11.6875 6.75 21.160156 24.851562 21.160156 40.433594zm0 0" fill="#cecece"/><path d="m261.347656 390.433594c0 8.453125-5.136718 12.335937-11.476562 8.675781s-11.476563-13.476563-11.476563-21.929687c0-8.453126 5.136719-12.335938 11.476563-8.675782s11.476562 13.476563 11.476562 21.929688zm0 0" fill="#627681"/><path d="m92.746094 291.65625c0 31.695312-19.273438 46.265625-43.042969 32.539062-23.769531-13.722656-43.042969-50.542968-43.042969-82.242187 0-31.691406 19.273438-46.261719 43.042969-32.539063 23.773437 13.726563 43.042969 50.546876 43.042969 82.242188zm0 0" fill="#2e373d"/><path d="m70.867188 279.023438c0 15.582031-9.476563 22.746093-21.164063 16-11.6875-6.75-21.160156-24.851563-21.160156-40.4375 0-15.582032 9.472656-22.746094 21.160156-15.996094 11.6875 6.746094 21.164063 24.851562 21.164063 40.433594zm0 0" fill="#cecece"/><path d="m61.179688 273.433594c0 8.449218-5.136719 12.335937-11.476563 8.675781s-11.476563-13.476563-11.476563-21.929687c0-8.453126 5.136719-12.339844 11.476563-8.679688s11.476563 13.480469 11.476563 21.933594zm0 0" fill="#627681"/><path d="m264.84375 279.414062 150.511719-87.234374-33.679688-50.175782c-8.660156-12.910156-25.867187-16.855468-39.289062-9.015625l-93.574219 54.667969c-14.707031 8.59375-19.839844 27.367188-11.550781 42.246094zm0 0" fill="#304e75"/><path d="m491.414062 267.9375-24.917968 14.523438c-3.628906 2.117187-5.859375 6.003906-5.859375 10.203124v20.605469l37.824219-21.839843c-1.5625-8.066407-3.921876-15.9375-7.046876-23.492188zm0 0" fill="#fff"/><path d="m491.132812 295.660156 7.324219-4.230468c-1.558593-8.070313-3.917969-15.9375-7.046875-23.492188l-7.292968 4.25c3.074218 7.566406 5.421874 15.421875 7.015624 23.472656zm0 0" fill="#ef9910"/><path d="m339.734375 383.070312 27.617187-15.945312v-13.753906c0-6.148438-6.65625-9.988282-11.980468-6.917969l-23.734375 13.707031c-4.847657 2.792969-10.8125 2.792969-15.65625 0l-16.066407-9.277344c0 12.007813 6.414063 23.101563 16.820313 29.097657l5.386719 3.101562c5.453125 3.136719 12.164062 3.132813 17.613281-.011719zm0 0" fill="#fff"/><path d="m322.660156 362.105469c-2.3125-.171875-4.605468-.75-6.679687-1.945313l-16.066407-9.277344c0 12.007813 6.414063 23.101563 16.820313 29.097657l5.386719 3.101562c2.546875 1.464844 5.367187 2.21875 8.203125 2.3125-1.765625-8.019531-4.339844-15.816406-7.664063-23.289062zm0 0" fill="#ef9910"/><path d="m264.84375 279.414062 90.527344 67.039063 111.125-63.992187-51.140625-90.28125zm0 0" fill="#2eb3bd"/><path d="m132.132812 221.449219 109.898438 62.039062-31.808594-45.25c-9.472656-13.46875-21.769531-24.714843-36.03125-32.949219l-42.058594-24.28125zm0 0" fill="#243b58"/><path d="m402.8125 189.914062-31.8125-45.242187c-3.96875-5.644531-8.457031-10.871094-13.351562-15.675781-5.195313-.078125-10.46875 1.195312-15.261719 3.992187l-19.863281 11.605469zm0 0" fill="#59718b"/><path d="m117.398438 172.5-46.738282-26.984375c-12.757812-7.367187-29.085937-1.875-34.800781 11.703125l-3.363281 7.984375 84.902344 47.929687zm0 0" fill="#243b58"/></svg>