<svg viewBox="0 -59 512.00129 512" xmlns="http://www.w3.org/2000/svg"><path d="m113.964844 240.429688c0-12.566407-4.699219-26.378907-11.882813-37.21875l-33.421875-17.640626-36.132812 21.167969c-6.863282 2.777344-11.316406 11.050781-11.316406 23.292969 0 20.449219 12.429687 44.203125 27.769531 53.058594 7.226562 4.171875 13.8125 4.289062 18.75 1.105468 0 0 0 0-.003907.003907l35.480469-20.710938-.074219-.160156c6.546876-2.996094 10.832032-10.996094 10.832032-22.898437zm0 0" fill="#cecece"/><path d="m302.402344 348.558594c0-12.15625-4.394532-25.480469-11.183594-36.148438 0 0-33.691406-18.71875-34.046875-18.539062l-.074219-.171875-36.132812 21.167969c.003906-.003907.011718-.003907.015625-.003907-6.871094 2.769531-11.335938 11.046875-11.335938 23.296875 0 20.449219 12.433594 44.203125 27.773438 53.058594 7.226562 4.171875 13.808593 4.289062 18.75 1.105469l35.472656-20.707031-.070313-.160157c6.546876-2.996093 10.832032-10.996093 10.832032-22.898437zm0 0" fill="#cecece"/><path d="m511.980469 243.972656c-.472657-11.773437-9.386719-23.113281-23.835938-23.113281l-266.617187-153.933594-19.683594-22.726562c-40.164062-46.375-107.589844-57.722657-160.722656-27.046875-27.5625 15.914062-41.976563 44.875-41.074219 73.894531v24.800781l.0507812.015625c.4882818 18.1875 6.9218748 36.417969 19.9804688 51.5l15.296875 17.660157c5.5625 6.425781 12.164062 11.878906 19.523438 16.125l249.941406 144.304687c3.640625 2.101563 7.773437 3.210937 11.976562 3.210937 54.019532 0 107.082032-14.21875 153.863282-41.226562l29.375-16.957031c8.464843-4.890625 12.074218-13.003907 11.867187-20.972657l.078125.023438v-25.550781zm0 0" fill="#2e373d"/><path d="m76.75 262.09375c0 20.449219-12.433594 29.847656-27.769531 20.992188-15.335938-8.851563-27.769531-32.609376-27.769531-53.058594 0-20.449219 12.433593-29.847656 27.769531-20.992188 15.335937 8.855469 27.769531 32.609375 27.769531 53.058594zm0 0" fill="#ededed"/><path d="m62.632812 253.945312c0 10.054688-6.113281 14.675782-13.652343 10.320313-7.542969-4.351563-13.65625-16.03125-13.65625-26.085937 0-10.054688 6.113281-14.675782 13.65625-10.324219 7.539062 4.355469 13.652343 16.035156 13.652343 26.089843zm0 0" fill="#cecece"/><path d="m56.386719 250.335938c0 5.453124-3.316407 7.960937-7.40625 5.597656-4.089844-2.359375-7.40625-8.695313-7.40625-14.148438s3.316406-7.957031 7.40625-5.597656c4.089843 2.363281 7.40625 8.695312 7.40625 14.148438zm0 0" fill="#627681"/><path d="m265.1875 370.222656c0 20.449219-12.433594 29.847656-27.769531 20.996094-15.339844-8.855469-27.773438-32.609375-27.773438-53.0625 0-20.449219 12.433594-29.847656 27.773438-20.992188 15.335937 8.855469 27.769531 32.609376 27.769531 53.058594zm0 0" fill="#ededed"/><path d="m251.070312 362.074219c0 10.054687-6.113281 14.675781-13.65625 10.320312-7.539062-4.351562-13.652343-16.03125-13.652343-26.085937 0-10.054688 6.113281-14.675782 13.652343-10.324219 7.542969 4.355469 13.65625 16.035156 13.65625 26.089844zm0 0" fill="#cecece"/><path d="m244.820312 358.464844c0 5.453125-3.316406 7.960937-7.402343 5.601562-4.089844-2.363281-7.40625-8.699218-7.40625-14.152344 0-5.453124 3.316406-7.957031 7.40625-5.597656 4.089843 2.363282 7.402343 8.695313 7.402343 14.148438zm0 0" fill="#627681"/><path d="m511.976562 243.972656c.324219 8.082032-3.335937 16.367188-11.925781 21.324219l-29.371093 16.957031c-46.78125 27.011719-99.84375 41.230469-153.863282 41.230469-4.203125 0-8.335937-1.109375-11.976562-3.210937l-249.941406-144.304688c-7.359376-4.25-13.960938-9.699219-19.523438-16.125l-15.296875-17.664062c-13.175781-15.210938-19.648437-33.636719-20.03125-51.984376v25.652344l.0507812.015625c.4882818 18.191407 6.9218748 36.421875 19.9804688 51.5l15.296875 17.664063c5.5625 6.421875 12.164062 11.875 19.523438 16.125l249.941406 144.300781c3.640625 2.105469 7.773437 3.210937 11.976562 3.210937 54.019532 0 107.082032-14.21875 153.863282-41.226562l29.375-16.957031c8.464843-4.886719 12.074218-13.003907 11.867187-20.972657l.078125.023438v-25.550781zm0 0" fill="#e7934a"/><g fill="#525e65"><path d="m201.84375 44.203125c-40.164062-46.378906-107.589844-57.726563-160.722656-27.050781-44.722656 25.820312-54.851563 85.992187-21.042969 125.027344l15.296875 17.664062c2.871094 3.320312 6.042969 6.347656 9.429688 9.117188l176.71875-102.03125zm0 0"/><path d="m316.820312 323.484375c54.015626 0 107.082032-14.21875 153.859376-41.226563l29.375-16.960937c21.097656-12.179687 12.457031-44.433594-11.90625-44.433594l-176.554688 101.929688c1.714844.386719 3.453125.691406 5.226562.691406zm0 0"/></g></svg>