<svg id="Capa_1" enable-background="new 0 0 512 512" height="512" viewBox="0 0 512 512" width="512" xmlns="http://www.w3.org/2000/svg"><g><path d="m235.999 145.971 20.001 366.029h139.146l19.551-346.027z" fill="#ebebf0"/><path d="m97.303 165.973 19.551 346.027h139.146v-366.029z" fill="#fff5f5"/><path d="m414.697 165.973 1.695-30.002-180.393-20.002 20.001 50.004z" fill="#d2d2d7"/><path d="m256 115.969-160.392 20.002 1.695 30.002h158.697z" fill="#ebebf0"/><path d="m297.87 0h-41.87l-20.001 83.74 72.494-20.001z" fill="#e50058"/><path d="m214.13 0-10.623 63.739 52.493 20.001v-83.74z" fill="#ff415b"/><path d="m448.261 63.739h-192.261l-20.001 36.116 20.001 36.116h192.261z" fill="#ff415b"/><path d="m63.739 63.739h192.261v72.232h-192.261z" fill="#ff8859"/><path d="m363.264 478.266 15.66-277.155-32.316.583c-42.662.769-67.673 5.246-90.607 9.89l-20.001 133.341 20 133.341z" fill="#e1bb78"/><path d="m165.442 222.692-31.112.618 14.406 254.955h107.264v-266.682c-2.016.408-4.017.817-6.011 1.226-22.826 4.671-44.386 9.086-84.547 9.883z" fill="#edd7b0"/></g></svg>