<?xml version="1.0" encoding="iso-8859-1"?>
<!-- Generator: Adobe Illustrator 19.0.0, SVG Export Plug-In . SVG Version: 6.00 Build 0)  -->
<svg version="1.1" id="Capa_1" xmlns="http://www.w3.org/2000/svg" xmlns:xlink="http://www.w3.org/1999/xlink" x="0px" y="0px"
	 viewBox="0 0 511.987 511.987" style="enable-background:new 0 0 511.987 511.987;" xml:space="preserve">
<rect x="280.977" y="-0.076" transform="matrix(-0.9912 -0.1322 0.1322 -0.9912 558.3562 506.045)" style="fill:#FEE257;" width="29.999" height="469.126"/>
<path style="fill:#93D7F4;" d="M330.996,511.987H180.991c-19.3,0-35.001-15.702-35.001-35.001V131.974h220.008v345.012
	C365.998,496.286,350.296,511.987,330.996,511.987z"/>
<g>
	<path style="fill:#4BBAED;" d="M255.994,131.974v380.013h75.003c19.3,0,35.001-15.702,35.001-35.001V131.974H255.994z"/>
	<path style="fill:#4BBAED;" d="M330.996,511.987H180.991c-19.3,0-35.001-15.702-35.001-35.001v-250.76l10.181-3.454
		c31.141-10.565,66.525-5.4,100.747-0.407c32.897,4.8,63.967,9.333,89.087,0.468l19.993-7.057v261.21
		C365.998,496.286,350.296,511.987,330.996,511.987z"/>
</g>
<path style="fill:#4B97EA;" d="M256.918,222.365c-0.308-0.045-0.616-0.09-0.924-0.135v289.757h75.003
	c19.3,0,35.001-15.702,35.001-35.001v-261.21l-19.993,7.057C320.885,231.699,289.815,227.165,256.918,222.365z"/>
<path style="fill:#D1E7F8;" d="M335.997,131.974v345.012c0,2.757-2.243,5-5,5H180.991c-2.757,0-5-2.243-5-5V131.974H145.99v345.012
	c0,19.3,15.702,35.001,35.001,35.001h150.005c19.3,0,35.001-15.702,35.001-35.001V131.974H335.997z"/>
<g>
	<circle style="fill:#93D7F4;" cx="232.992" cy="352.98" r="15.001"/>
	<circle style="fill:#93D7F4;" cx="210.991" cy="424.982" r="15.001"/>
	<circle style="fill:#93D7F4;" cx="210.991" cy="285.978" r="15.001"/>
</g>
<circle style="fill:#4BBAED;" cx="308.995" cy="442.983" r="15.001"/>
<path style="fill:#B3D8F4;" d="M335.997,476.986c0,2.757-2.243,5-5,5h-75.003v30.001h75.003c19.3,0,35.001-15.702,35.001-35.001
	V131.974h-30.001V476.986z"/>
<polygon style="fill:#FF9900;" points="294.529,131.974 250.126,465.004 279.863,468.969 324.795,131.974 "/>
<path style="fill:#FF5D03;" d="M282.019,225.808l-31.893,239.195l29.737,3.965l32.145-241.086
	C302.416,227.887,292.372,227.045,282.019,225.808z"/>
<g>
</g>
<g>
</g>
<g>
</g>
<g>
</g>
<g>
</g>
<g>
</g>
<g>
</g>
<g>
</g>
<g>
</g>
<g>
</g>
<g>
</g>
<g>
</g>
<g>
</g>
<g>
</g>
<g>
</g>
</svg>
