<?xml version="1.0" encoding="iso-8859-1"?>
<!-- Generator: Adobe Illustrator 19.0.0, SVG Export Plug-In . SVG Version: 6.00 Build 0)  -->
<svg version="1.1" id="Capa_1" xmlns="http://www.w3.org/2000/svg" xmlns:xlink="http://www.w3.org/1999/xlink" x="0px" y="0px"
	 viewBox="0 0 512 512" style="enable-background:new 0 0 512 512;" xml:space="preserve">
<polygon style="fill:#0091BF;" points="406,121 376,512 136,512 106,121 "/>
<polygon style="fill:#007A9F;" points="406,121 376,512 256,512 256,121 "/>
<path style="fill:#FF4949;" d="M256,241c-49.501,0-90,40.499-90,90c0,49.499,40.499,90,90,90s90-40.501,90-90
	C346,281.499,305.501,241,256,241z"/>
<g>
	<path style="fill:#FF193D;" d="M346,331c0,49.499-40.499,90-90,90V241C305.501,241,346,281.499,346,331z"/>
	<polygon style="fill:#FF193D;" points="285.224,110.746 256.776,101.254 290.189,0 406,0 406,30 311.811,30 	"/>
</g>
<rect x="76" y="91" style="fill:#EDE9E8;" width="360" height="60"/>
<rect x="256" y="91" style="fill:#D2C5C2;" width="180" height="60"/>
<path style="fill:#EDE9E8;" d="M343.599,325.6C340,333.1,331,336.099,323.5,332.5c-2.401-1.199-5.099-1.5-7.5-2.401
	c-13.801-3.9-28.801-1.199-40.201,7.8c-6.299,4.801-12.9,8.699-19.799,11.1c-8.699,3.6-17.999,5.4-27.299,5.4
	c-10.201,0-20.402-2.1-30-6.299c-10.501-4.801-20.101-11.7-27.902-21.301c-5.4-6.301-4.499-15.901,1.8-21
	c6.601-5.4,15.901-4.499,21.301,1.8c1.5,2.1,3.3,3.6,5.099,5.4c16.201,14.101,39.6,15.601,57.001,2.1c0.3-0.3,0.601-0.3,0.901-0.599
	c14.399-11.4,32.098-16.201,49.499-15.601c10.501,0.3,20.7,2.1,30.3,6.599C344.2,309.099,347.199,318.1,343.599,325.6z"/>
<path style="fill:#D2C5C2;" d="M343.599,325.6C340,333.1,331,336.099,323.5,332.5c-2.401-1.199-5.099-1.5-7.5-2.401
	c-13.801-3.9-28.801-1.199-40.201,7.8c-6.299,4.801-12.9,8.699-19.799,11.1v-33.9c0.3-0.3,0.601-0.3,0.901-0.599
	c14.399-11.4,32.098-16.201,49.499-15.601c10.501,0.3,20.7,2.1,30.3,6.599C344.2,309.099,347.199,318.1,343.599,325.6z"/>
<g>
</g>
<g>
</g>
<g>
</g>
<g>
</g>
<g>
</g>
<g>
</g>
<g>
</g>
<g>
</g>
<g>
</g>
<g>
</g>
<g>
</g>
<g>
</g>
<g>
</g>
<g>
</g>
<g>
</g>
</svg>
