<svg id="Capa_1" enable-background="new 0 0 512 512" height="512" viewBox="0 0 512 512" width="512" xmlns="http://www.w3.org/2000/svg"><g><g><g><path d="m224.64 150c-6.27 37.34-73.64 90-73.64 90s-67.37-52.66-73.64-90h-1.36v142.5l180 113.5 180-128.5v-127.5z" fill="#f0f7ff"/></g><path d="m256 406 180-128.5v-127.5h-180z" fill="#dfe7f4"/><g id="Cocktail_25_"><g><path d="m174.605 161.162h336.403v29.975h-336.403z" fill="#97de3d" transform="matrix(.287 -.958 .958 .287 75.581 453.883)"/></g></g><path d="m436 277.5v98.8c0 62.699-30.3 123.9-31.5 126.299l-4.2 9.401h-288.6l-4.2-9.401c-1.2-2.399-31.5-63.6-31.5-126.299v-83.8l15-7.5s30-15 82.5-15c37.5 0 82.5 15 82.5 15s45 15 82.5 15c52.5 0 82.5-15 82.5-15z" fill="#ff9100"/><path d="m400.3 512 4.2-9.401c1.2-2.399 31.5-63.6 31.5-126.299v-98.8l-15 7.5s-30 15-82.5 15c-37.5 0-82.5-15-82.5-15v227z" fill="#ff641a"/><g><g><g><g><path d="m376 451h-90v-90h90z" fill="#f03800"/></g></g></g></g><g><g><g><g><path d="m166.791 451-30.791-84.565 84.58-30.776 30.762 84.565z" fill="#ff641a"/></g></g></g></g></g><path d="m211 0c-24.626 0-46.32 12.081-60 30.458-13.68-18.377-35.374-30.458-60-30.458h-15v45c0 24.814 20.186 45 45 45h60c24.814 0 45-20.186 45-45v-45z" fill="#97de3d"/><g id="Cocktail_61_"><g><path d="m151 60c-41.37 0-75 33.65-75 75 0 4.54.46 9.61 1.36 15l75.64 33 71.64-33c.9-5.39 1.36-10.46 1.36-15 0-41.35-33.63-75-75-75z" fill="#ff641a"/><path d="m224.64 150c-6.27 37.34-33.62 90-73.64 90s-67.37-52.66-73.64-90z" fill="#f03800"/></g></g></g></svg>