<?xml version="1.0" encoding="iso-8859-1"?>
<!-- Generator: Adobe Illustrator 19.0.0, SVG Export Plug-In . SVG Version: 6.00 Build 0)  -->
<svg version="1.1" id="Capa_1" xmlns="http://www.w3.org/2000/svg" xmlns:xlink="http://www.w3.org/1999/xlink" x="0px" y="0px"
	 viewBox="0 0 512 512" style="enable-background:new 0 0 512 512;" xml:space="preserve">
<path style="fill:#FFCE85;" d="M121.211,378.326c-48.793-18.6-84.73-63.462-90.421-117.223h90.421v-30H0v15
	c0,77.064,51.11,142.408,121.211,163.933V378.326z"/>
<path style="fill:#FF4F19;" d="M65.229,231.103v40.547c0,59.668,23.236,115.765,65.428,157.957s98.289,65.428,157.958,65.428
	c59.668,0,115.765-23.236,157.957-65.428C488.764,387.415,512,331.319,512,271.65v-40.547H65.229z"/>
<path style="fill:#B7E4F8;" d="M251.649,200.275h-30c0-20.555,9.007-31.762,15.583-39.946c5.593-6.958,8.968-11.159,8.968-21.153
	c0-9.997-3.376-14.198-8.968-21.158c-6.576-8.184-15.583-19.393-15.583-39.949s9.006-31.765,15.582-39.949
	c5.593-6.96,8.969-11.161,8.969-21.158h30c0,20.557-9.007,31.765-15.583,39.949c-5.592,6.96-8.968,11.161-8.968,21.158
	c0,9.997,3.376,14.198,8.969,21.158c6.576,8.184,15.582,19.393,15.582,39.949c0,20.555-9.007,31.762-15.583,39.946
	C255.024,186.081,251.649,190.281,251.649,200.275z"/>
<path style="fill:#4BBAED;" d="M331.03,200.275h-30c0-20.555,9.007-31.762,15.583-39.946c5.593-6.958,8.968-11.159,8.968-21.153
	c0-9.997-3.376-14.198-8.968-21.158c-6.576-8.184-15.583-19.393-15.583-39.949s9.006-31.765,15.582-39.949
	c5.593-6.96,8.969-11.161,8.969-21.158h30c0,20.557-9.007,31.765-15.583,39.949c-5.592,6.96-8.968,11.161-8.968,21.158
	c0,9.997,3.376,14.198,8.969,21.158c6.576,8.184,15.582,19.393,15.582,39.949c0,20.555-9.007,31.762-15.583,39.946
	C334.405,186.081,331.03,190.281,331.03,200.275z"/>
<path style="fill:#FC0023;" d="M288,231.103v263.925c0.205,0,0.41,0.007,0.615,0.007c59.668,0,115.765-23.236,157.957-65.428
	C488.764,387.415,512,331.319,512,271.65v-40.547H288z"/>
<rect x="116.47" y="465.039" style="fill:#FFCE85;" width="344.3" height="30"/>
<g>
	<rect x="288" y="465.039" style="fill:#FFB23E;" width="172.76" height="30"/>
	<rect x="328.1" y="231.099" style="fill:#FFB23E;" width="30" height="72.28"/>
</g>
<polygon style="fill:#E2F4FC;" points="344.796,286.109 288,317.447 288,398.587 398.2,398.587 398.2,317.755 "/>
<polygon style="fill:#AADFF7;" points="344.796,286.109 343.1,287.046 343.1,398.587 398.199,398.587 398.199,317.755 "/>
<g>
</g>
<g>
</g>
<g>
</g>
<g>
</g>
<g>
</g>
<g>
</g>
<g>
</g>
<g>
</g>
<g>
</g>
<g>
</g>
<g>
</g>
<g>
</g>
<g>
</g>
<g>
</g>
<g>
</g>
</svg>
