<?xml version="1.0" encoding="iso-8859-1"?>
<!-- Generator: Adobe Illustrator 19.0.0, SVG Export Plug-In . SVG Version: 6.00 Build 0)  -->
<svg version="1.1" id="Capa_1" xmlns="http://www.w3.org/2000/svg" xmlns:xlink="http://www.w3.org/1999/xlink" x="0px" y="0px"
	 viewBox="0 0 512 512" style="enable-background:new 0 0 512 512;" xml:space="preserve">
<polygon style="fill:#E2F4FC;" points="330.665,482 271,482 271,298.667 240.999,298.667 240.999,482 181.332,482 181.332,512 
	330.665,512 "/>
<polygon style="fill:#B7E4F8;" points="271,482 271,298.667 255.999,298.667 255.999,512 330.665,512 330.665,482 "/>
<path style="fill:#E2F4FC;" d="M376.341,0H135.658l-12.814,179.404l-0.038,1.069c0,73.444,59.751,133.194,133.195,133.194
	c73.443,0,133.194-59.75,133.194-133.194L376.341,0z"/>
<path style="fill:#B7E4F8;" d="M376.341,0H255.999v313.667l0,0c73.443,0,133.194-59.75,133.194-133.194L376.341,0z"/>
<path style="fill:#FC0023;" d="M122.805,180.473c0,73.444,59.751,133.194,133.195,133.194c73.443,0,133.194-59.75,133.194-133.194
	l-4.279-60.079c-11.902-4.754-24-6.2-36.532-4.358c-17.862,2.626-33.854,11.5-49.319,20.081
	c-18.119,10.054-35.233,19.55-54.711,19.55H124.538l-1.695,23.737L122.805,180.473z"/>
<path style="fill:#CC001C;" d="M384.915,120.394c-11.902-4.754-24-6.2-36.532-4.358c-17.862,2.626-33.854,11.5-49.319,20.081
	c-14.424,8.004-28.215,15.637-43.065,18.424v159.126l0,0c73.443,0,133.194-59.75,133.194-133.194L384.915,120.394z"/>
<g>
	
		<rect x="237.551" y="45.744" transform="matrix(-0.7071 0.7071 -0.7071 -0.7071 474.2969 -74.9733)" style="fill:#FFFFFF;" width="30.25" height="30"/>
	<polygon style="fill:#FFFFFF;" points="292.208,0 273.982,18.225 295.195,39.438 334.633,0 	"/>
</g>
<g>
</g>
<g>
</g>
<g>
</g>
<g>
</g>
<g>
</g>
<g>
</g>
<g>
</g>
<g>
</g>
<g>
</g>
<g>
</g>
<g>
</g>
<g>
</g>
<g>
</g>
<g>
</g>
<g>
</g>
</svg>
