<svg id="Layer_1" height="512" viewBox="0 0 100 100" width="512" xmlns="http://www.w3.org/2000/svg" data-name="Layer 1"><path d="m54.05 15.37s-15.36-12.87-29.32-6.65-15.9-.8-15.9-.8 6.89 29.4 45.22 7.45z" fill="#39b54a"/><g opacity=".1"><path d="m8.86 8a.14.14 0 0 1 0-.06.05.05 0 0 1 0 .06z"/></g><g opacity=".1"><path d="m54.05 15.37c-33.51 19.19-43-.87-44.85-6.22 2.69 5.88 13.24 22.2 42.36 4.39 1.58 1.07 2.49 1.83 2.49 1.83z"/></g><g opacity=".1"><path d="m9.2 9.14a14.49 14.49 0 0 1 -.73-1.82 4.24 4.24 0 0 0 .37.68.05.05 0 0 1 0 0 .14.14 0 0 1 0 .07c.09.22.16.59.36 1.07z"/></g><path d="m52.12 30.21h-2.23c0-13.37 5-24 11.49-25.28a1.11 1.11 0 0 1 1.3 1.07 1.1 1.1 0 0 1 -.9 1.08c-5.32 1.08-9.66 11.23-9.66 23.13z" fill="#603813"/><path d="m55.41 95h-10.2c-13.6 0-22-5.37-27.65-24.73l-1.88-11.51a39.27 39.27 0 0 1 .59-15.83c2.36-9.43 8.53-21 25.34-16.17l9.19 1 7.77-.82c14.64-4.46 21.43 4.06 24.54 12.55a38.82 38.82 0 0 1 1.75 19.73l-1.8 11c-5.28 19.57-14.06 24.78-27.65 24.78z" fill="#ed1c24"/><g opacity=".2"><path d="m84.86 59.22-1.8 11c-5.28 19.57-14.06 24.78-27.65 24.78h-6.77c13.6 0 22.36-5.21 27.64-24.73l1.81-11a38.93 38.93 0 0 0 -1.75-19.73c-2.23-6.09-6.34-12.16-13.76-13.54 11.9-1.88 17.69 5.82 20.53 13.49a38.82 38.82 0 0 1 1.75 19.73z"/></g><g fill="#009245"><path d="m21.8 17.17a13.22 13.22 0 0 1 -8.59-3.32.49.49 0 0 1 -.06-.7.5.5 0 0 1 .7-.07 12.07 12.07 0 0 0 12.23 2.35 43.61 43.61 0 0 1 25.46-.85.5.5 0 0 1 .31.63.49.49 0 0 1 -.63.32 42.54 42.54 0 0 0 -24.82.85 14.36 14.36 0 0 1 -4.6.79z"/><path d="m29.49 15.41c-3.85 0-6.86-1.95-6.86-4.45a.5.5 0 0 1 1 0c0 1.87 2.68 3.45 5.86 3.45a.51.51 0 0 1 .5.5.5.5 0 0 1 -.5.5z"/><path d="m39.38 14c-3.08 0-5.59-2.06-5.59-4.6a.5.5 0 1 1 1 0c0 2 2.06 3.6 4.59 3.6a.5.5 0 0 1 0 1z"/><path d="m26.94 20.5a.51.51 0 0 1 -.5-.5.5.5 0 0 1 .5-.5 5.52 5.52 0 0 0 5.72-5.29.5.5 0 0 1 1 0 6.52 6.52 0 0 1 -6.72 6.29z"/><path d="m39.38 18.38a.5.5 0 0 1 0-1c2.45 0 4.44-1.61 4.44-3.6a.5.5 0 0 1 .5-.5.51.51 0 0 1 .5.5c0 2.54-2.44 4.6-5.44 4.6z"/></g><path d="m28 79a2 2 0 0 1 -1.69-.92 41.59 41.59 0 0 1 -6.59-26.47 2 2 0 1 1 4 .33 37.65 37.65 0 0 0 6 24 2 2 0 0 1 -.6 2.76 2 2 0 0 1 -1.12.3z" fill="#fc818a"/><path d="m23 46.28a2.14 2.14 0 0 1 -.5-.06 2 2 0 0 1 -1.5-2.44 42.77 42.77 0 0 1 1.87-5.67 2 2 0 1 1 3.69 1.53 40.91 40.91 0 0 0 -1.69 5.14 2 2 0 0 1 -1.87 1.5z" fill="#fc818a"/></svg>