<svg id="Layer_1" height="512" viewBox="0 0 100 100" width="512" xmlns="http://www.w3.org/2000/svg" data-name="Layer 1"><path d="m61.89 56.55s12.54-25.18 22.28-33.45c6.76-5.74 4-5.52-1-5s-8.09-2.2-10.66-1.65-5.17 6.6-4.8 10.65-4.58 2.77-6.23 6.44-5.48 13.63-4.37 16.94 4.78 6.07 4.78 6.07z" fill="#39b54a"/><g opacity=".1"><path d="m75.16 16.73c-2.34 1.27-4.48 6.69-4.16 10.4.36 4-4.59 2.77-6.24 6.44s-5.51 13.61-4.41 16.92a11.85 11.85 0 0 0 2.57 4c-.68 1.29-1 2-1 2s-3.67-2.76-4.78-6.06 2.75-13.24 4.4-16.92 6.6-2.4 6.25-6.44 2.21-10.07 4.75-10.59a5.51 5.51 0 0 1 2.62.25z"/></g><path d="m60.37 71.94s-3.17-2.84 5.48-21a108.81 108.81 0 0 1 22.37-31.69.54.54 0 0 0 -.77-.06 107.79 107.79 0 0 0 -23.66 31.24c-9.37 19-5.56 22.14-5.09 22.43.09.06 1.92-.76 1.67-.92z" fill="#8cc63f"/><path d="m36.34 57.28s-12.68-25.91-22.42-34.18c-6.76-5.74-4-5.52 1-5s8.08-2.2 10.66-1.65 5.16 6.6 4.79 10.65 4.58 2.77 6.23 6.44 5.66 14.34 4.55 17.65-4.81 6.09-4.81 6.09z" fill="#39b54a"/><g opacity=".1"><path d="m41.12 51.21c-1.1 3.32-4.77 6.07-4.77 6.07l-.66-1.28a12.72 12.72 0 0 0 3.31-4.79c1.1-3.3-2.9-14-4.55-17.64s-6.6-2.4-6.23-6.44-2.08-9.73-4.56-10.57a4.44 4.44 0 0 1 1.94-.08c2.57.55 5.15 6.6 4.8 10.65s4.57 2.77 6.23 6.44 5.59 14.34 4.49 17.64z"/></g><path d="m60.65 31.19c.49 7.05-3.69 16.87-6.47 19.71a7.27 7.27 0 0 1 -10.24 0c-2.8-2.84-7-12.66-6.48-19.71.13-1.72 2.25-3.13 2.11-4.33-.71-6.12-4.88-6.73-.12-14.42 3.33-5.36 8-5.74 9.32-7.29a.39.39 0 0 1 .6 0c.56.7 1.79 1.15 3.27 1.91a14.24 14.24 0 0 1 6 5.4c4.76 7.68.59 8.3-.13 14.42-.11 1.17 2.01 2.58 2.14 4.31z" fill="#39b54a"/><path d="m37.72 71.94s3.17-2.84-5.48-21a108.91 108.91 0 0 0 -22.36-31.69.53.53 0 0 1 .76-.06 107.91 107.91 0 0 1 23.67 31.24c9.36 19 5.55 22.14 5.08 22.43-.09.06-1.92-.76-1.67-.92z" fill="#8cc63f"/><path d="m47.4 68.54 1.08-61.83a.55.55 0 0 1 .52-.55.55.55 0 0 1 .54.55l1.09 61.83c.03.3-3.23.3-3.23 0z" fill="#8cc63f"/><path d="m66.63 69.88c0 7.67-7.58 17.17-16.09 18.64-1.27.22-.69 6.48-1.54 6.48s-.17-6.19-1.7-6.5c-8.38-1.74-15.91-11-15.91-18.62 0-8.37 7.88-12.44 17.61-12.44s17.63 4.07 17.63 12.44z" fill="#9e005d"/><g opacity=".3"><path d="m35.5 69.72h-.18a1 1 0 0 1 -.8-1.17 8.82 8.82 0 0 1 2.15-4.34 1 1 0 0 1 1.49 1.34 6.86 6.86 0 0 0 -1.68 3.37 1 1 0 0 1 -.98.8z" fill="#f2f2f2"/></g><g opacity=".3"><path d="m41.3 82.2a1 1 0 0 1 -.65-.24 18 18 0 0 1 -5.65-8.46 1 1 0 1 1 2-.5 16.05 16.05 0 0 0 5 7.48 1 1 0 0 1 -.65 1.76z" fill="#f2f2f2"/></g><g opacity=".2"><path d="m66.63 69.88c0 7.66-7.58 17.17-16.09 18.64-1.27.22-.69 6.48-1.54 6.48s-.19-6-1.64-6.48c8.52-1.47 16.09-11 16.09-18.64 0-7.91-7-12-16-12.4h1.57c9.73-.04 17.61 4.02 17.61 12.4z"/></g></svg>