<svg id="Layer_1" height="512" viewBox="0 0 100 100" width="512" xmlns="http://www.w3.org/2000/svg" data-name="Layer 1"><path d="m53.77 33.93 39.89 46.53c-31.82 20-68.68 18.4-88.5-4.58z" fill="#009245"/><path d="m53.77 33.93 37.23 43.45c-30.3 19.08-64.5 18.45-83.48-3.55z" fill="#8cc63f"/><path d="m53.77 33.93 35.82 41.79c-29.15 18.34-62 17.74-80.29-3.41z" fill="#ed1c24"/><g fill="#603813"><path d="m54.08 71.26a1.76 1.76 0 0 0 3.47-.6c-.17-1-1.46-3.82-2.42-3.66s-1.22 3.3-1.05 4.26z"/><path d="m64.92 68.71a1.76 1.76 0 1 0 3.31-1.19c-.33-.92-2.1-3.51-3-3.18s-.64 3.46-.31 4.37z"/><path d="m59.72 70.87a1.76 1.76 0 0 0 3.41-.9c-.25-.94-1.79-3.68-2.73-3.43s-.93 3.39-.68 4.33z"/><path d="m45.29 71.25a1.76 1.76 0 0 1 -3.47-.61c.16-1 1.47-3.82 2.42-3.65s1.21 3.3 1.05 4.26z"/><path d="m34.45 68.67a1.76 1.76 0 0 1 -3.31-1.2c.33-.92 2.11-3.51 3-3.18s.64 3.47.31 4.38z"/><path d="m39.64 70.84a1.76 1.76 0 1 1 -3.4-.91c.25-.93 1.76-3.67 2.76-3.42s.89 3.39.64 4.33z"/></g><g opacity=".2"><path d="m93.66 80.46c-15.42 9.7-32 14.32-47.31 13.89a74.2 74.2 0 0 0 8.58-.75c17.74-2.6 25.48-23.93 13.81-37.53l-17.27-20.16 2.3-2z"/></g><g opacity=".5"><path d="m24.24 66.88a1.5 1.5 0 0 1 -1-2.62l10.52-9.41a1.5 1.5 0 1 1 2 2.23l-10.52 9.42a1.52 1.52 0 0 1 -1 .38z" fill="#f2f2f2"/></g><g opacity=".5"><path d="m38 54.58a1.5 1.5 0 0 1 -1-2.58l5.51-5a1.5 1.5 0 0 1 2 2.24l-5.51 4.96a1.46 1.46 0 0 1 -1 .38z" fill="#f2f2f2"/></g></svg>