<svg id="Layer_1" height="512" viewBox="0 0 100 100" width="512" xmlns="http://www.w3.org/2000/svg" data-name="Layer 1"><path d="m50.57 15.77a1 1 0 0 1 -1-1c0-4.71 1.29-9.78 4.12-9.78a1 1 0 0 1 0 2c-.61 0-2.12 2.72-2.12 7.78a1 1 0 0 1 -1 1z" fill="#006837"/><ellipse cx="49.9" cy="52.39" fill="#009245" rx="34.11" ry="42.61"/><g fill="#8cc63f"><path d="m52.79 70.47a3.68 3.68 0 0 1 -2.4 2.09 4.31 4.31 0 0 0 .49 3.32c2.2 2.15 1.2 5.93 0 7.8-.39.77-.32 3.75.23 4.45 1.37 1.28-.41 6.87-1.21 6.87-.6 0-1.19 0-1.78 0a12 12 0 0 0 0-4.12c-2-2.1.09-11.8-.15-12.12a8 8 0 0 1 -1.66-6.81 4.13 4.13 0 0 1 2.61-3.09c-.24-1.37-5.52-11.16-4.71-12.51a2.79 2.79 0 0 1 2.57-1.23c.8 0 2.24-3 2.3-3.28a4.8 4.8 0 0 1 -4-.37c-2.44-1.72-1.39-5.81-.27-10.16.31-1.23 1.85-7.92 1.38-9.07a24.36 24.36 0 0 0 -1-2.38 2.48 2.48 0 0 1 -1.76-1.62c-.43-1.55 3.57-6.34 3.7-6.86-.1-.73-1.8-2.28-3-3a2 2 0 0 1 -.64-2.76s5.51-5.84 6.41-5.84c.71 0 1.41 0 2.1.08l-4 6.31c1.33 1.11 3 2.83 3.2 4.83s-2.9 5.69-3 5.81c.72.6 1.58 3.21 1.84 3.85 1 2.38-2.36 16-2.33 17.29.21 0 3.49-.78 4.73.52s.91 3.55.26 5.68c-.95 3.15-2.65 4.27-4 4.67.09.29 4.95 9.55 4.09 11.65z"/><path d="m63.11 81.67a9 9 0 0 0 2.11 1.82 2 2 0 0 1 .78 2.42l-4.39 6.57a27.71 27.71 0 0 1 -3.1 1.17l3.08-7.76c-1.22-1-2.7-2.54-2.78-4.27a3.37 3.37 0 0 1 1.44-2.88 17.06 17.06 0 0 0 3.6-4.89l-.53-5.25c-2.27-.43-3.69-1.21-4.22-2.33a2.55 2.55 0 0 1 .24-2.6 36.7 36.7 0 0 0 3.47-6.25c.61-1.49-2.58-14.93-2.58-14.93-.29-.83 2.91-3.76 2.91-3.76l-1.69-3c-.14-.25-.75-6.92-.75-6.92-.06-.73 2.14-2.89 2.33-3.26-1.39-2-5.5-8.35-5.34-8.91l1.48-5.28a12.29 12.29 0 0 1 2.56 1l.17 4.44c1.1 1.6 3.64 5.24 4.62 6.6a3.48 3.48 0 0 1 .62 2.7 6.55 6.55 0 0 1 -2.26 3.44l.38 4.62 2.37 4.21a2 2 0 0 1 -.58 2.63l-2.42 1.68s3.24 13.32 2 16.28a40.29 40.29 0 0 1 -3 5.62 14.36 14.36 0 0 0 1.76.3 2 2 0 0 1 1.83 1.8l.78 7.32a2 2 0 0 1 -.18 1.07c-.21.49-2.2 4.5-4.71 6.6z"/><path d="m79 48.76a34.94 34.94 0 0 1 -2-5.82c0-1.28-.27-10.12-.36-10.3l-2.64-5.84c.44-1.25.07-3.28.4-4.24a15.38 15.38 0 0 0 -1.52-1.86c-.59 1.72-1.31 3.75-2 5.66a1.45 1.45 0 0 0 .05 1.12l3.72 6.27c0 1.51-.7 8.08-.71 9.18s1.14 4.34 1.86 6.2c-.66 1-1.88 2.79-2.46 3.72-.86 1.39 2.19 8 2.32 8.43-.18.49-2.85 5.24-2.86 6.1 0 1.13 1.07 2.68 2.16 4l-4.12 14.82a30 30 0 0 0 3.72-4.13l3.6-10.71a1.5 1.5 0 0 0 -.34-1.4 13 13 0 0 1 -1.91-2.57c.18-.49 2.85-5.25 2.85-6.1 0-.68-2.63-6.29-2.69-7 .83-1.32 2.72-4.06 2.74-4.09a1.52 1.52 0 0 0 .19-1.44z"/><path d="m39.67 85.08a2 2 0 0 1 .33 1.65l-1.6 5.83a13.16 13.16 0 0 1 -1.9-.92l.7-4.78c-1.11-1.58-5.08-5.51-6.06-6.87a3.42 3.42 0 0 1 -.63-2.69 6.53 6.53 0 0 1 2.24-3.45l-.39-4.61-2.43-4.24c-.51-.9 3-4.3 3-4.3l-2.39-7c0-.12 2.38-13.49 3.26-14.9-.55-.13-3.51-1.13-3.6-2.09l-.79-7.38a2 2 0 0 1 .19-1.07c.23-.46 2.2-4.47 4.69-6.58a8.86 8.86 0 0 0 -2.11-1.82 3.57 3.57 0 0 1 -.6-2.83l1.14-1.63a30.67 30.67 0 0 1 7.84-4.08l-4.48 6.39c1.16 1 2.4 2.41 2.48 4a3.41 3.41 0 0 1 -1.42 2.9 17 17 0 0 0 -3.58 4.89l.56 5.25q3.39.65 4.22 2.32a2.53 2.53 0 0 1 -.23 2.6c-.67 1-3.83 11.29-3.6 13l2.8 8.23a2 2 0 0 1 -.76 2.27l-2.15 1.48 1.72 3c.14.25.77 6.92.77 6.92a2 2 0 0 1 -.89 1.83 5.34 5.34 0 0 0 -1.45 1.45c1.45 1.94 4.97 7.01 5.12 7.23z"/><path d="m22.93 69.24c0-1.57.7-7.66.7-8.75s-1.16-4.34-1.9-6.19c.67-1 1.89-2.81 2.47-3.74.84-1.39-2.22-8-2.36-8.42.18-.48 2.83-5.26 2.83-6.11 0-1.12-1.06-2.63-2.13-3.9l3.79-10.75a42.43 42.43 0 0 0 -6.94 11.7c.05.14 1.95 2.46 2.17 3-.17.49-2.83 5.25-2.83 6.1 0 .69 2.67 6.28 2.72 7-.82 1.31-2.7 4.07-2.72 4.1a1.49 1.49 0 0 0 -.15 1.4 34.31 34.31 0 0 1 2 5.81c0 1.27.32 10.15.42 10.35l3.19 6.22c-.08.76-.22 1.84-.34 3a33.71 33.71 0 0 0 2.7 3.54c.19-1.85.48-4.33.75-6.66 0-.28-4.37-7.7-4.37-7.7z"/></g><g opacity=".2"><path d="m84 52.39c0 24.09-15.26 42.61-34.1 42.61a28.58 28.58 0 0 1 -11.9-2.59 28.51 28.51 0 0 0 5.71.58c18.84 0 34.12-18.52 34.12-42.61 0-18.75-9.26-34.12-22.25-40 16.15 3.28 28.42 20.42 28.42 42.01z"/></g></svg>