<svg id="Layer_1" height="512" viewBox="0 0 100 100" width="512" xmlns="http://www.w3.org/2000/svg" data-name="Layer 1"><path d="m56.87 22.53s4.33-11 8.46-11.83c0 0-9.61-.4-12.56 10.76s4.1 1.07 4.1 1.07z" fill="#009245"/><path d="m43.05 22.53s-4.33-11-8.46-11.83c0 0 9.61-.4 12.56 10.76s-4.1 1.07-4.1 1.07z" fill="#009245"/><path d="m72.75 13.08a5.19 5.19 0 0 0 -1.71.71c-5.27 3.31-10.27 16.05-10.27 16.05a36.83 36.83 0 0 1 -3.77 4.59c-2.28 2.18-4.32 2.68-2-6.1 4.14-15.81 17.75-15.25 17.75-15.25z" fill="#009245"/><g opacity=".2"><path d="m71 13.79c-5.23 3.31-10.23 16.05-10.23 16.05a36.83 36.83 0 0 1 -3.77 4.59 21.51 21.51 0 0 1 1-6.1c2.53-9.74 8.69-13.27 13-14.54z"/></g><path d="m43 34.43a36.83 36.83 0 0 1 -3.81-4.59s-5-12.74-10.27-16a5.19 5.19 0 0 0 -1.71-.71s13.57-.61 17.79 15.2c2.28 8.78.24 8.28-2 6.1z" fill="#009245"/><path d="m63.52 37.53s8.5-16 16.6-17.19c0 0-18.85-.58-24.64 15.64s8.04 1.55 8.04 1.55z" fill="#009245"/><g opacity=".2"><path d="m43 34.43a36.83 36.83 0 0 1 -3.81-4.59s-5-12.74-10.27-16c4.35 1.27 10.51 4.8 13.08 14.54a21.51 21.51 0 0 1 1 6.05z"/></g><path d="m36.4 37.53s-8.5-16-16.61-17.19c0 0 18.86-.58 24.65 15.64s-8.04 1.55-8.04 1.55z" fill="#009245"/><path d="m56.91 25.79a51.07 51.07 0 0 1 -2.91 16.73l-8.28-.07s-8.84-22.53 4.11-37.45c5.48 6.32 7.08 14 7.08 20.79z" fill="#009245"/><g opacity=".1"><path d="m51.33 42.5h-5.64s-8.81-22.58 4.14-37.5l.19.23c-9.75 15.39-.21 34.43 1.31 37.27z"/></g><path d="m72.55 57.13v21.64a16 16 0 0 1 -1.21 6.12 10.63 10.63 0 0 1 -.44 1 16.24 16.24 0 0 1 -14.57 9.11h-14.33c-.31 0-.62 0-.92 0a16.27 16.27 0 0 1 -13.18-8.19c-.17-.3-.34-.61-.48-.92a15.93 15.93 0 0 1 -1.65-7.09v-21.67a22 22 0 0 1 21.96-21.93h2.89a21.78 21.78 0 0 1 5.07.6 22 22 0 0 1 16.86 21.33z" fill="#f7931e"/><g opacity=".1"><path d="m72.55 57.13v21.64a16.27 16.27 0 0 1 -16.22 16.23h-14.33c-.31 0-.62 0-.92 0a27.43 27.43 0 0 0 26.47-27.37v-16.2a16.29 16.29 0 0 0 -11.86-15.63 22 22 0 0 1 16.86 21.33z"/></g><g fill="#fbb03b"><path d="m46.88 43.4a.49.49 0 0 1 -.36-.15l-3.37-3.49-3.55 3.37a.5.5 0 0 1 -.69-.72l3.91-3.72a.5.5 0 0 1 .7 0l3.72 3.84a.5.5 0 0 1 0 .71.49.49 0 0 1 -.36.16z"/><path d="m60.05 43.4a.51.51 0 0 1 -.36-.15l-3.37-3.49-3.55 3.37a.5.5 0 0 1 -.69-.72l3.92-3.72a.5.5 0 0 1 .7 0l3.72 3.84a.5.5 0 0 1 0 .71.49.49 0 0 1 -.37.16z"/><path d="m40.88 50.4a.49.49 0 0 1 -.36-.15l-3.37-3.49-3.55 3.37a.5.5 0 0 1 -.69-.72l3.91-3.72a.5.5 0 0 1 .7 0l3.72 3.84a.5.5 0 0 1 0 .71.49.49 0 0 1 -.36.16z"/><path d="m54.05 50.4a.51.51 0 0 1 -.36-.15l-3.37-3.49-3.55 3.37a.5.5 0 0 1 -.69-.72l3.92-3.72a.5.5 0 0 1 .7 0l3.72 3.84a.5.5 0 0 1 0 .71.49.49 0 0 1 -.37.16z"/><path d="m66.44 50.4a.51.51 0 0 1 -.36-.15l-3.36-3.49-3.55 3.37a.51.51 0 0 1 -.71 0 .5.5 0 0 1 0-.71l3.91-3.72a.5.5 0 0 1 .7 0l3.71 3.84a.5.5 0 0 1 0 .71.52.52 0 0 1 -.34.15z"/><path d="m40.88 65.4a.49.49 0 0 1 -.36-.15l-3.37-3.49-3.55 3.37a.5.5 0 0 1 -.69-.72l3.91-3.72a.5.5 0 0 1 .7 0l3.72 3.84a.5.5 0 0 1 0 .71.49.49 0 0 1 -.36.16z"/><path d="m54.05 65.4a.51.51 0 0 1 -.36-.15l-3.37-3.49-3.55 3.37a.5.5 0 0 1 -.69-.72l3.92-3.72a.5.5 0 0 1 .7 0l3.72 3.84a.5.5 0 0 1 0 .71.49.49 0 0 1 -.37.16z"/><path d="m66.44 65.4a.51.51 0 0 1 -.36-.15l-3.36-3.49-3.55 3.37a.51.51 0 0 1 -.71 0 .5.5 0 0 1 0-.71l3.91-3.72a.5.5 0 0 1 .7 0l3.71 3.84a.5.5 0 0 1 0 .71.52.52 0 0 1 -.34.15z"/><path d="m40.88 80.89a.49.49 0 0 1 -.36-.15l-3.37-3.48-3.55 3.37a.49.49 0 0 1 -.7 0 .5.5 0 0 1 0-.71l3.91-3.71a.5.5 0 0 1 .7 0l3.72 3.85a.49.49 0 0 1 0 .7.45.45 0 0 1 -.35.13z"/><path d="m54.05 80.89a.51.51 0 0 1 -.36-.15l-3.37-3.48-3.55 3.37a.49.49 0 0 1 -.7 0 .5.5 0 0 1 0-.71l3.93-3.73a.5.5 0 0 1 .7 0l3.72 3.85a.49.49 0 0 1 0 .7.45.45 0 0 1 -.37.15z"/><path d="m66.44 80.89a.51.51 0 0 1 -.36-.15l-3.36-3.48-3.55 3.37a.5.5 0 1 1 -.69-.73l3.91-3.71a.5.5 0 0 1 .7 0l3.71 3.85a.48.48 0 0 1 0 .7.47.47 0 0 1 -.36.15z"/><path d="m71.79 58.15a.44.44 0 0 1 -.35-.16l-3.37-3.48-3.55 3.37a.5.5 0 0 1 -.71 0 .49.49 0 0 1 0-.7l3.91-3.72a.49.49 0 0 1 .7 0l3.71 3.84a.5.5 0 0 1 0 .71.52.52 0 0 1 -.34.14z"/><path d="m60.79 58.15a.44.44 0 0 1 -.35-.16l-3.37-3.48-3.55 3.37a.5.5 0 0 1 -.71 0 .49.49 0 0 1 0-.7l3.91-3.72a.49.49 0 0 1 .7 0l3.71 3.84a.5.5 0 0 1 0 .71.52.52 0 0 1 -.34.14z"/><path d="m34.52 58.15a.44.44 0 0 1 -.35-.16l-3.37-3.48-3.55 3.37a.5.5 0 0 1 -.71 0 .49.49 0 0 1 0-.7l3.91-3.72a.49.49 0 0 1 .7 0l3.71 3.84a.5.5 0 0 1 0 .71.52.52 0 0 1 -.34.14z"/><path d="m46.52 58.15a.44.44 0 0 1 -.35-.16l-3.37-3.48-3.55 3.37a.5.5 0 0 1 -.71 0 .49.49 0 0 1 0-.7l3.91-3.72a.49.49 0 0 1 .7 0l3.71 3.84a.5.5 0 0 1 0 .71.52.52 0 0 1 -.34.14z"/><path d="m71.79 73.15a.44.44 0 0 1 -.35-.16l-3.37-3.48-3.55 3.37a.5.5 0 0 1 -.71 0 .49.49 0 0 1 0-.7l3.91-3.72a.49.49 0 0 1 .7 0l3.71 3.84a.5.5 0 0 1 0 .71.52.52 0 0 1 -.34.14z"/><path d="m60.79 73.15a.44.44 0 0 1 -.35-.16l-3.37-3.48-3.55 3.37a.5.5 0 0 1 -.71 0 .49.49 0 0 1 0-.7l3.91-3.72a.49.49 0 0 1 .7 0l3.71 3.84a.5.5 0 0 1 0 .71.52.52 0 0 1 -.34.14z"/><path d="m34.52 73.15a.44.44 0 0 1 -.35-.16l-3.37-3.48-3.55 3.37a.5.5 0 0 1 -.71 0 .49.49 0 0 1 0-.7l3.91-3.72a.49.49 0 0 1 .7 0l3.71 3.84a.5.5 0 0 1 0 .71.52.52 0 0 1 -.34.14z"/><path d="m46.52 73.15a.44.44 0 0 1 -.35-.16l-3.37-3.48-3.55 3.37a.5.5 0 0 1 -.71 0 .49.49 0 0 1 0-.7l3.91-3.72a.49.49 0 0 1 .7 0l3.71 3.84a.5.5 0 0 1 0 .71.52.52 0 0 1 -.34.14z"/><path d="m71.34 84.89a10.63 10.63 0 0 1 -.44 1l-.83-.89-3.55 3.38a.5.5 0 0 1 -.69-.73l3.91-3.71a.49.49 0 0 1 .7 0z"/><path d="m60.79 88.64a.47.47 0 0 1 -.35-.15l-3.37-3.49-3.55 3.38a.5.5 0 0 1 -.69-.73l3.91-3.71a.49.49 0 0 1 .7 0l3.71 3.84a.5.5 0 0 1 0 .71.52.52 0 0 1 -.36.15z"/><path d="m33.87 88.5a.52.52 0 0 1 -.35.14.47.47 0 0 1 -.35-.15l-3.37-3.49-1.87 1.78c-.17-.3-.34-.61-.48-.92l2-1.92a.49.49 0 0 1 .7 0l3.71 3.84a.5.5 0 0 1 .01.72z"/><path d="m46.52 88.64a.47.47 0 0 1 -.35-.15l-3.37-3.49-3.55 3.38a.51.51 0 0 1 -.71 0 .5.5 0 0 1 0-.71l3.91-3.71a.49.49 0 0 1 .7 0l3.71 3.84a.5.5 0 0 1 0 .71.52.52 0 0 1 -.34.13z"/></g></svg>