<svg id="Layer_1" height="512" viewBox="0 0 100 100" width="512" xmlns="http://www.w3.org/2000/svg" data-name="Layer 1"><g fill="#39b54a"><path d="m51.79 27.58c-4.94 0-7.61-9.62-7.61-18.67a1 1 0 0 1 2 0c0 9.82 3 16.67 5.61 16.67a1 1 0 1 1 0 2z"/><path d="m52.46 29.19a1 1 0 0 1 0-2c1.45 0 4.26-7.21 4.26-20.44a1 1 0 0 1 2 0c0 10.81-1.95 22.44-6.26 22.44z"/><path d="m52.87 29.06c-.84 0-2.25 0-2.25-16.61a1 1 0 1 1 2 0c0 8.58.51 13.77.89 14.84a1 1 0 0 1 -.64 1.77z"/><path d="m52.2 28.79c-6.69 0-11.93-10.45-11.93-23.79a1 1 0 0 1 2 0c0 11.81 4.55 21.79 9.93 21.79a1 1 0 0 1 0 2z"/></g><path d="m60.77 38.44c0 7-4.41 56.56-9.84 56.56s-9.85-49.56-9.85-56.56 4.41-12.67 9.85-12.67 9.84 5.67 9.84 12.67z" fill="#f15a24"/><g opacity=".5"><path d="m43.12 39.28h-.07a1 1 0 0 1 -.92-1.07 16.19 16.19 0 0 1 1.4-5.62 1 1 0 0 1 1.82.83 14.14 14.14 0 0 0 -1.23 4.93 1 1 0 0 1 -1 .93z" fill="#f2f2f2"/></g><g opacity=".5"><path d="m44 54.16a1 1 0 0 1 -1-.91c-.36-3.91-.65-7.59-.81-10.35a1 1 0 1 1 2-.12c.17 2.74.45 6.39.82 10.28a1 1 0 0 1 -.91 1.09z" fill="#f2f2f2"/></g><g opacity=".1"><path d="m60.77 38.44c0 7-4.41 56.56-9.84 56.56-.51 0-1-.44-1.5-1.23 4.72-7.69 8.34-49 8.34-55.33s-3.62-11.6-8.34-12.52a7.48 7.48 0 0 1 1.5-.15c5.43 0 9.84 5.67 9.84 12.67z"/></g></svg>