<svg id="Layer_1" height="512" viewBox="0 0 100 100" width="512" xmlns="http://www.w3.org/2000/svg" data-name="Layer 1"><path d="m55 89.78h-5.78a11.52 11.52 0 0 1 -11.49-11.48v-30.24c0-6.31 5.17-43.06 11.49-43.06h5.78c6.31 0 11.48 36.75 11.48 43.06v30.24a11.52 11.52 0 0 1 -11.48 11.48z" fill="#fbb03b"/><g fill="#f7931e"><path d="m59.44 82.34h-.15a1 1 0 0 1 -.84-1.14c.15-1 .29-1.92.42-2.89a1 1 0 1 1 2 .27c-.13 1-.27 2-.42 2.92a1 1 0 0 1 -1.01.84zm.78-5.82h-.11a1 1 0 0 1 -.89-1.11c.11-1 .21-1.93.3-2.9a1 1 0 0 1 2 .19q-.13 1.47-.3 2.94a1 1 0 0 1 -1 .88zm.54-5.84h-.07a1 1 0 0 1 -.93-1.07c.07-1 .14-1.94.19-2.91a1 1 0 0 1 2 .11c-.06 1-.12 2-.19 3a1 1 0 0 1 -1 .87zm.33-5.86a1 1 0 0 1 -1-1c0-1 .07-1.94.1-2.91a1 1 0 0 1 1-1 1 1 0 0 1 1 1c0 1-.06 2-.1 2.94a1 1 0 0 1 -1 .97zm.14-5.82a1 1 0 0 1 -1-1c0-.56 0-1.12 0-1.68v-1.32a1 1 0 0 1 1-1 1 1 0 0 1 1 1v1.24 1.71a1 1 0 0 1 -1 1.05zm0-5.87a1 1 0 0 1 -1-1c0-1-.05-2-.08-2.92a1 1 0 0 1 1-1 1 1 0 0 1 1 1c0 1 .06 1.95.08 2.94a1 1 0 0 1 -1 1zm-.23-5.9a1 1 0 0 1 -1-.95c0-1-.1-2-.16-2.92a1 1 0 1 1 2-.12c.06 1 .12 1.95.17 2.94a1 1 0 0 1 -1 1zm-.37-5.86a1 1 0 0 1 -1-.92q-.11-1.48-.24-2.91a1 1 0 0 1 .91-1.09 1 1 0 0 1 1.08.91q.13 1.45.24 2.94a1 1 0 0 1 -.92 1.07zm-.51-5.84a1 1 0 0 1 -1-.9c-.1-1-.2-2-.31-2.9a1 1 0 1 1 2-.23c.12 1 .22 1.93.32 2.93a1 1 0 0 1 -.89 1.09zm-.68-5.83a1 1 0 0 1 -1-.87c-.13-1-.26-1.95-.4-2.89a1 1 0 1 1 2-.29c.14 1 .28 1.92.4 2.92a1 1 0 0 1 -.86 1.12zm-.84-5.81a1 1 0 0 1 -1-.84c-.16-1-.32-1.95-.49-2.87a1 1 0 0 1 2-.36c.17.94.33 1.91.5 2.91a1 1 0 0 1 -.83 1.15zm-1-5.77a1 1 0 0 1 -1-.81c-.2-1-.41-1.95-.61-2.84a1 1 0 1 1 2-.44c.21.9.41 1.87.62 2.89a1 1 0 0 1 -.78 1.18z"/><path d="m58.68 86.71h-.19a1 1 0 0 1 -.79-1.17l.3-1.48a1 1 0 0 1 1.16-.81 1 1 0 0 1 .81 1.16c-.09.5-.18 1-.28 1.49a1 1 0 0 1 -1.01.81z"/><path d="m59.63 14.43a1 1 0 0 1 -1-.74c-.14-.5-.27-1-.4-1.42a1 1 0 1 1 1.92-.56c.13.46.27.94.41 1.45a1 1 0 0 1 -.71 1.23.75.75 0 0 1 -.22.04z"/><path d="m63.42 80.85h-.16a1 1 0 0 1 -.83-1.14c.16-1 .3-2 .43-3a1 1 0 0 1 1.14-.86 1 1 0 0 1 .84 1.15c-.13 1-.28 2-.43 3a1 1 0 0 1 -.99.85zm.79-6h-.11a1 1 0 0 1 -.89-1.1c.11-1 .21-2 .29-3a1 1 0 0 1 1.09-.91 1 1 0 0 1 .91 1.08c-.09 1-.19 2-.3 3a1 1 0 0 1 -.99.9zm.52-6.07h-.07a1 1 0 0 1 -.93-1.06c.07-1 .12-2 .17-3a1 1 0 0 1 1-1 1 1 0 0 1 1 1c-.05 1-.11 2-.17 3.06a1 1 0 0 1 -1 .97zm.27-6.11a1 1 0 0 1 -1-1c0-1 0-2 .06-3a1 1 0 0 1 1-1 1 1 0 0 1 1 1c0 1 0 2-.06 3.06a1 1 0 0 1 -1 .94zm0-6.08a1 1 0 0 1 -1-1q0-1.53-.06-3a1 1 0 0 1 1-1 1 1 0 0 1 1 1q0 1.51.06 3.06a1 1 0 0 1 -1 1zm-.17-6.09a1 1 0 0 1 -1-1c0-1-.1-2-.16-3a1 1 0 0 1 2-.12c.06 1 .12 2 .16 3.06a1 1 0 0 1 -.95 1zm-.37-6.07a1 1 0 0 1 -1-.93c-.08-1-.17-2-.26-3a1 1 0 1 1 2-.19c.1 1 .18 2 .26 3.05a1 1 0 0 1 -.92 1.07zm-.46-6.06a1 1 0 0 1 -1-.9c-.11-1-.23-2-.35-3a1 1 0 0 1 2-.25c.12 1 .24 2 .35 3a1 1 0 0 1 -.88 1.1zm-.76-6a1 1 0 0 1 -1-.86q-.21-1.53-.45-3a1 1 0 0 1 .83-1.14 1 1 0 0 1 1.14.83c.16 1 .31 2 .46 3a1 1 0 0 1 -.85 1.13zm-1-6a1 1 0 0 1 -1-.82c-.18-1-.37-2-.56-3a1 1 0 0 1 2-.38c.19 1 .37 2 .56 3a1 1 0 0 1 -.82 1.16zm-1.17-6a1 1 0 0 1 -1-.79c-.22-1-.44-2-.67-2.94a1 1 0 0 1 2-.47c.22.94.45 1.94.68 3a1 1 0 0 1 -.77 1.19z"/><path d="m62.64 85.34h-.19a1 1 0 0 1 -.79-1.18l.27-1.45a1 1 0 0 1 2 .35c-.09.49-.18 1-.28 1.49a1 1 0 0 1 -1.01.79z"/><path d="m56.07 81h-.07a1 1 0 0 1 -.93-1.07c.08-1 .15-2.06.22-3.09a1 1 0 1 1 2 .12q-.09 1.56-.21 3.12a1 1 0 0 1 -1.01.92zm.4-6.22h-.06a1 1 0 0 1 -.94-1l.15-3.1a1 1 0 1 1 2 .09c0 1-.1 2.07-.16 3.12a1 1 0 0 1 -.99.86zm.28-6.22a1 1 0 0 1 -1-1l.09-3.11a1 1 0 0 1 1-1 1 1 0 0 1 1 1c0 1-.06 2.07-.1 3.12a1 1 0 0 1 -.99.96zm.17-6.22a1 1 0 0 1 -1-1c0-1 0-2.08 0-3.11a1 1 0 0 1 1-1 1 1 0 0 1 1 1v3.13a1 1 0 0 1 -1 .95zm.08-6.26a1 1 0 0 1 -1-1v-.63c0-.83 0-1.66 0-2.48a1 1 0 0 1 1-1 1 1 0 0 1 1 1v2.49.63a1 1 0 0 1 -1 .99zm0-6.23a1 1 0 0 1 -1-1c0-1 0-2.09-.06-3.11a1 1 0 0 1 2 0c0 1 0 2.07.06 3.13a1 1 0 0 1 -1 1zm-.15-6.23a1 1 0 0 1 -1-1c0-1.06-.07-2.09-.11-3.11a1 1 0 0 1 1-1 1 1 0 0 1 1 1c0 1 .08 2.06.12 3.12a1 1 0 0 1 -1 1zm-.26-6.22a1 1 0 0 1 -1-.95c-.06-1.06-.11-2.09-.17-3.1a1 1 0 0 1 .94-1.06 1 1 0 0 1 1 .94c.06 1 .12 2.06.17 3.12a1 1 0 0 1 -1 1zm-.36-6.22a1 1 0 0 1 -1-.93c-.07-1.06-.15-2.1-.23-3.09a1 1 0 0 1 2-.16c.08 1 .15 2 .23 3.11a1 1 0 0 1 -.93 1.07zm-.56-6.18a1 1 0 0 1 -1-.91c-.1-1.07-.2-2.1-.3-3.08a1 1 0 1 1 2-.21c.11 1 .21 2 .31 3.11a1 1 0 0 1 -.92 1.09z"/><path d="m55.7 85.58h-.09a1 1 0 0 1 -.9-1.08l.12-1.5a1 1 0 0 1 1.08-.91 1 1 0 0 1 .92 1.08l-.13 1.5a1 1 0 0 1 -1 .91z"/><path d="m48.56 81a1 1 0 0 1 -1-.93c-.08-1-.15-2.06-.22-3.08a1 1 0 0 1 2-.13c.06 1 .13 2 .21 3.07a1 1 0 0 1 -.91 1.07zm-.4-6.16a1 1 0 0 1 -1-.94c0-1-.11-2.06-.16-3.09a1 1 0 1 1 2-.09c0 1 .1 2 .16 3.07a1 1 0 0 1 -.94 1zm-.29-6.16a1 1 0 0 1 -1-1c0-1-.08-2.07-.11-3.09a1 1 0 0 1 1-1 1 1 0 0 1 1 1c0 1 .07 2 .11 3.07a1 1 0 0 1 -1 1zm-.19-6.16a1 1 0 0 1 -1-1c0-1 0-2.07 0-3.09a1 1 0 0 1 1-1 1 1 0 0 1 1 1v3.07a1 1 0 0 1 -1 1zm-.09-6.17a1 1 0 0 1 -1-1v-3.1a1 1 0 0 1 1-1 1 1 0 0 1 1 1v3.08a1 1 0 0 1 -1 1zm0-6.18a1 1 0 0 1 -1-1c0-1 0-2.07 0-3.09a1 1 0 0 1 1-1 1 1 0 0 1 1 1v3.08a1 1 0 0 1 -.98 1zm.14-6.17a1 1 0 0 1 -1-1c0-1 .06-2.08.1-3.1a1 1 0 1 1 2 .08c0 1-.07 2-.1 3.07a1 1 0 0 1 -1 .95zm.27-6.17h-.05a1 1 0 0 1 -.95-1q.06-1.58.15-3.09a1 1 0 0 1 1.06-.94 1 1 0 0 1 .94 1c-.06 1-.11 2-.16 3.07a1 1 0 0 1 -.99.96zm.34-6.17h-.07a1 1 0 0 1 -.93-1.06c.07-1.06.14-2.09.22-3.09a1 1 0 1 1 2 .15c-.08 1-.15 2-.22 3.07a1 1 0 0 1 -1.04.93zm.47-6.15h-.09a1 1 0 0 1 -.91-1.08c.1-1.08.19-2.11.3-3.09a1 1 0 0 1 1.09-.89 1 1 0 0 1 .9 1.1q-.15 1.46-.3 3.06a1 1 0 0 1 -1.03.9z"/><path d="m48.93 85.58a1 1 0 0 1 -1-.91l-.13-1.5a1 1 0 1 1 2-.17l.13 1.49a1 1 0 0 1 -.93 1.08z"/></g><g opacity=".1"><path d="m66.51 48.06v30.24a11.52 11.52 0 0 1 -11.51 11.48h-5.78a11.34 11.34 0 0 1 -6.46-2h.46c9.51 0 17.29-31.78 17.29-41.29v-.43c0-5.42-3.82-33.3-8.89-41.06h3.38c6.34 0 11.51 36.75 11.51 43.06z"/></g><path d="m44.33 82.25a1 1 0 0 1 -1-.85c-.15-1-.29-2-.42-2.93a1 1 0 0 1 2-.26c.12 1 .26 1.93.4 2.89a1 1 0 0 1 -.83 1.14zm-.75-5.83a1 1 0 0 1 -1-.89c-.1-1-.2-2-.28-3a1 1 0 0 1 .91-1.08 1 1 0 0 1 1.08.91c.09 1 .18 1.94.28 2.91a1 1 0 0 1 -.88 1.1zm-.51-5.85a1 1 0 0 1 -1-.94c-.06-1-.12-2-.16-2.95a1 1 0 1 1 2-.1c.05 1 .1 2 .17 2.92a1 1 0 0 1 -.93 1.06zm-.28-5.87a1 1 0 0 1 -1-1c0-1 0-2-.07-3a1 1 0 0 1 2 0c0 1 0 1.95.07 2.93a1 1 0 0 1 -1 1zm-.08-5.88a1 1 0 0 1 -1-1c0-1 0-2 0-3a1 1 0 0 1 2 0v2.92a1 1 0 0 1 -1 1.08zm.1-5.88a1 1 0 0 1 -1-1c0-1 .07-2 .12-2.95a1 1 0 0 1 1-1 1 1 0 0 1 1 1c0 1-.09 2-.12 2.92a1 1 0 0 1 -1 1.03zm.28-5.87h-.09a1 1 0 0 1 -.91-1.07c.06-1 .13-2 .2-2.95a1 1 0 0 1 2 .15c-.07 1-.13 1.94-.2 2.92a1 1 0 0 1 -1 .95zm.44-5.86h-.09a1 1 0 0 1 -.91-1.08c.09-1 .18-2 .28-2.94a1 1 0 0 1 1.1-.89 1 1 0 0 1 .89 1.09c-.1 1-.19 1.93-.28 2.92a1 1 0 0 1 -.99.9zm.59-5.85h-.12a1 1 0 0 1 -.88-1.1q.16-1.5.36-2.94a1 1 0 0 1 2 .26c-.12 1-.24 1.92-.35 2.9a1 1 0 0 1 -1.01.88zm.76-5.83h-.14a1 1 0 0 1 -.85-1.13c.14-1 .29-2 .44-2.92a1 1 0 0 1 1.14-.84 1 1 0 0 1 .83 1.15c-.14.94-.29 1.9-.43 2.89a1 1 0 0 1 -.99.85zm.92-5.81h-.17a1 1 0 0 1 -.82-1.16c.18-1 .36-2 .53-2.91a1 1 0 0 1 2 .38c-.18.92-.35 1.88-.53 2.87a1 1 0 0 1 -1.01.82zm1.11-5.72h-.21a1 1 0 0 1 -.77-1.19c.21-1 .43-2 .64-2.89a1 1 0 0 1 2 .46c-.21.89-.42 1.84-.64 2.85a1 1 0 0 1 -1.02.77z" fill="#f7931e"/><path d="m45.09 86.63a1 1 0 0 1 -1-.81c-.1-.49-.19-1-.28-1.49a1 1 0 0 1 .81-1.16 1 1 0 0 1 1.18.83l.27 1.46a1 1 0 0 1 -.79 1.17z" fill="#f7931e"/><path d="m44.88 14.26a.84.84 0 0 1 -.27 0 1 1 0 0 1 -.7-1.23c.14-.51.28-1 .41-1.45a1 1 0 0 1 1.92.56c-.13.45-.26.92-.4 1.42a1 1 0 0 1 -.96.7z" fill="#f7931e"/><path d="m40.67 81.15a1 1 0 0 1 -1-.84c-.16-1-.3-2-.43-3.07a1 1 0 0 1 2-.25c.13 1 .27 2 .42 3a1 1 0 0 1 -.83 1.14zm-.77-6.08a1 1 0 0 1 -1-.89c-.1-1-.2-2.05-.28-3.08a1 1 0 1 1 2-.16c.08 1 .18 2 .28 3a1 1 0 0 1 -.89 1.1zm-.5-6.07a1 1 0 0 1 -1-.94c-.06-1-.11-2.06-.15-3.08a1 1 0 0 1 1-1 1 1 0 0 1 1 1c0 1 .09 2 .15 3a1 1 0 0 1 -.94 1.02zm-.24-6.13a1 1 0 0 1 -1-1c0-1 0-2.06 0-3.08a1 1 0 0 1 1-1 1 1 0 0 1 1 1v3a1 1 0 0 1 -1 1zm0-6.13a1 1 0 0 1 -1-1c0-1 0-2.07.08-3.09a1 1 0 0 1 1-1 1 1 0 0 1 1 1c0 1-.06 2-.08 3a1 1 0 0 1 -1.01 1.05zm.21-6.13a1 1 0 0 1 -1-1c.06-1 .12-2.06.19-3.08a1 1 0 0 1 2 .14c-.07 1-.13 2-.18 3.05a1 1 0 0 1 -1.02.85zm.42-6.11h-.09a1 1 0 0 1 -.92-1.08c.09-1 .19-2.06.29-3.07a1 1 0 0 1 1.09-.89 1 1 0 0 1 .9 1.09c-.1 1-.2 2-.28 3a1 1 0 0 1 -1 .91zm.62-6.11h-.12a1 1 0 0 1 -.88-1.11c.12-1 .25-2.06.38-3.06a1 1 0 0 1 1.13-.86 1 1 0 0 1 .86 1.12c-.14 1-.26 2-.38 3a1 1 0 0 1 -1 .87zm.8-6.08h-.15a1 1 0 0 1 -.84-1.13c.16-1 .32-2.06.48-3.05a1 1 0 0 1 2 .33c-.17 1-.33 2-.48 3a1 1 0 0 1 -1.02.81zm1-6.05h-.21a1 1 0 0 1 -.78-1.26c.19-1 .39-2.05.58-3a1 1 0 1 1 2 .4c-.19 1-.38 2-.57 3a1 1 0 0 1 -1.02.82zm1.21-6h-.22a1 1 0 0 1 -.76-1.26c.23-1.06.47-2.07.7-3a1 1 0 1 1 1.94.47q-.34 1.39-.69 3a1 1 0 0 1 -.97.74z" fill="#f7931e"/><path d="m41.45 85.66a1 1 0 0 1 -1-.81c-.09-.5-.19-1-.28-1.49a1 1 0 0 1 .83-1.16 1 1 0 0 1 1.16.81l.27 1.46a1 1 0 0 1 -.79 1.17z" fill="#f7931e"/><path d="m52 86.43a1 1 0 0 1 -1-1v-3a1 1 0 0 1 1-1 1 1 0 0 1 1 1v3a1 1 0 0 1 -1 1zm0-6a1 1 0 0 1 -1-1v-3a1 1 0 0 1 1-1 1 1 0 0 1 1 1v3a1 1 0 0 1 -1 1zm0-6a1 1 0 0 1 -1-1v-3a1 1 0 0 1 1-1 1 1 0 0 1 1 1v3a1 1 0 0 1 -1 1zm0-6a1 1 0 0 1 -1-1v-3a1 1 0 0 1 1-1 1 1 0 0 1 1 1v3a1 1 0 0 1 -1 1zm0-6a1 1 0 0 1 -1-1v-3a1 1 0 0 1 1-1 1 1 0 0 1 1 1v3a1 1 0 0 1 -1 1zm0-6a1 1 0 0 1 -1-1v-3a1 1 0 0 1 1-1 1 1 0 0 1 1 1v3a1 1 0 0 1 -.94 1zm0-6a1 1 0 0 1 -1-1v-3a1 1 0 0 1 1-1 1 1 0 0 1 1 1v3a1 1 0 0 1 -.92 1zm0-6a1 1 0 0 1 -1-1v-3a1 1 0 0 1 1-1 1 1 0 0 1 1 1v3a1 1 0 0 1 -.9 1zm0-6a1 1 0 0 1 -1-1v-3a1 1 0 0 1 1-1 1 1 0 0 1 1 1v3a1 1 0 0 1 -.88 1zm0-6a1 1 0 0 1 -1-1v-3a1 1 0 0 1 1-1 1 1 0 0 1 1 1v3a1 1 0 0 1 -.86 1zm0-6a1 1 0 0 1 -1-1v-3a1 1 0 0 1 1-1 1 1 0 0 1 1 1v3a1 1 0 0 1 -.84 1zm0-6a1 1 0 0 1 -1-1v-3a1 1 0 0 1 2 0v3a1 1 0 0 1 -.82 1z" fill="#f7931e"/><path d="m48 88.34h7.76a0 0 0 0 1 0 0v1.88a1.52 1.52 0 0 1 -1.52 1.52h-4.76a1.52 1.52 0 0 1 -1.48-1.53v-1.87a0 0 0 0 1 0 0z" fill="#fbb03b"/><path d="m53.66 92.34c-.25-.06-4.56-2.18-6.2-3 1.12-.91.35-.31 2.44-3 6-7.77 14.81-25.56 18.82-68.3a.4.4 0 0 1 .29-.38.44.44 0 0 1 .6.4c.69 19.28 3.5 72.14-15.95 74.28z" fill="#8cc63f"/><path d="m54.66 94.38c5.34-1.92-15.58 2.09-20.49-76.38a.31.31 0 0 0 -.62 0c-1.44 17.18-4.74 85.68 21.11 76.38z" fill="#39b54a"/><g opacity=".1"><path d="m54.66 94.38c-20.55 7.39-22.66-34.38-21.96-60.48.59 24.79 4.48 62 21.75 58.81 1.25 1.08 1.55 1.2.21 1.67z"/></g><path d="m50.35 94.2c-5.71-1.84 17.24.22 18.69-77.71a.39.39 0 0 1 .77 0c2.27 20.14 7.74 86.51-19.46 77.71z" fill="#39b54a"/><g opacity=".1"><path d="m50.35 94.2c-1.28-.41-1.12-.63-.09-1.59 22.11 2.54 20.74-55.21 19.56-76.04 2.28 20.32 7.68 86.43-19.47 77.63z"/></g></svg>