<svg id="Layer_1" height="512" viewBox="0 0 100 100" width="512" xmlns="http://www.w3.org/2000/svg" data-name="Layer 1"><path d="m48.38 33.23a1 1 0 0 1 -1-1c0-15.83 6.62-28.23 15.1-28.23a1 1 0 0 1 0 2c-7.22 0-13.1 11.77-13.1 26.23a1 1 0 0 1 -1 1z" fill="#39b54a"/><path d="m83 52.15c0 15.91-15.43 41.38-34.46 41.38s-34.43-25.47-34.43-41.38 15.43-28.82 34.47-28.82 34.42 12.9 34.42 28.82z" fill="#ed1c24"/><g opacity=".1"><path d="m83.05 52.15c0 15.91-15.44 41.39-34.47 41.39a22.18 22.18 0 0 1 -7-1.17c18.55-.82 33.47-25.71 33.47-41.37 0-13.09-10.42-24.13-24.7-27.65 18.21.78 32.7 13.39 32.7 28.8z"/></g><g fill="#c1272d"><path d="m73.44 38.41h-3.19a1.71 1.71 0 0 1 0-3.42h3.19a1.71 1.71 0 1 1 0 3.42zm-11.69 0h-3.19a1.71 1.71 0 0 1 0-3.42h3.19a1.71 1.71 0 1 1 0 3.42zm-11.69 0h-3.19a1.71 1.71 0 0 1 0-3.42h3.19a1.71 1.71 0 1 1 0 3.42zm-11.69 0h-3.19a1.71 1.71 0 0 1 0-3.42h3.19a1.71 1.71 0 0 1 0 3.42zm-11.69 0h-3.19a1.71 1.71 0 0 1 0-3.42h3.19a1.71 1.71 0 1 1 0 3.42z"/><path d="m26.79 49a1.71 1.71 0 0 1 0-3.42h3.43a1.71 1.71 0 0 1 0 3.42zm12.57 0a1.72 1.72 0 1 1 0-3.43h3.42a1.72 1.72 0 0 1 0 3.43zm12.56 0a1.72 1.72 0 0 1 0-3.43h3.43a1.72 1.72 0 1 1 0 3.43zm12.57 0a1.71 1.71 0 1 1 0-3.42h3.43a1.71 1.71 0 0 1 0 3.42zm12.57 0a1.72 1.72 0 1 1 0-3.43h3.43a1.72 1.72 0 0 1 0 3.43zm-59.41-3.43h-2.65a22.07 22.07 0 0 0 -.7 3.42h3.32a1.71 1.71 0 1 0 0-3.42z"/><path d="m72.84 59.14h-3.42a1.72 1.72 0 1 1 0-3.43h3.42a1.72 1.72 0 1 1 0 3.43zm-12.56 0h-3.43a1.72 1.72 0 1 1 0-3.43h3.43a1.72 1.72 0 0 1 0 3.43zm-12.57 0h-3.43a1.72 1.72 0 0 1 0-3.43h3.43a1.72 1.72 0 0 1 0 3.43zm-12.57 0h-3.43a1.72 1.72 0 0 1 0-3.43h3.43a1.72 1.72 0 1 1 0 3.43zm-12.57 0h-3.42a1.72 1.72 0 1 1 0-3.43h3.42a1.72 1.72 0 1 1 0 3.43zm59.43-3.43a1.72 1.72 0 1 0 0 3.43h.21a31.28 31.28 0 0 0 .6-3.43z"/><path d="m74.87 69.86h-3.43a1.72 1.72 0 0 1 0-3.43h3.43a1.72 1.72 0 0 1 0 3.43zm-12.57 0h-3.42a1.72 1.72 0 1 1 0-3.43h3.42a1.72 1.72 0 1 1 0 3.43zm-12.56 0h-3.43a1.72 1.72 0 1 1 0-3.43h3.43a1.72 1.72 0 0 1 0 3.43zm-12.57 0h-3.43a1.72 1.72 0 0 1 0-3.43h3.43a1.72 1.72 0 0 1 0 3.43zm-12.57 0h-3.43a1.72 1.72 0 0 1 0-3.43h3.43a1.72 1.72 0 1 1 0 3.43z"/><path d="m68.1 80.86h-3.43a1.71 1.71 0 1 1 0-3.42h3.43a1.71 1.71 0 0 1 0 3.42zm-12.57 0h-3.43a1.71 1.71 0 0 1 0-3.42h3.43a1.71 1.71 0 0 1 0 3.42zm-12.53 0h-3.47a1.71 1.71 0 0 1 0-3.42h3.47a1.71 1.71 0 1 1 0 3.42zm-12.57 0h-3.43a1.71 1.71 0 1 1 0-3.42h3.42a1.71 1.71 0 1 1 0 3.42z"/><path d="m56 89.84h-3.43a1.72 1.72 0 1 1 0-3.43h3.43a1.72 1.72 0 0 1 0 3.43zm-12.57 0h-3.43a1.72 1.72 0 0 1 0-3.43h3.43a1.72 1.72 0 0 1 0 3.43z"/></g><path d="m48.53 22.65s18.78-3.47 30.32 12.35c0 0-9.47 2.33-30.32-12.35z" fill="#39b54a"/><g opacity=".1"><path d="m78.84 35a13.24 13.24 0 0 1 -4.66-.12 30.8 30.8 0 0 0 -23.41-12.48c5.33-.4 18.96.09 28.07 12.6z"/></g><path d="m64.94 36.36s-1.06-.22-2.6-.69c-4.34-1.31-12.7-4.56-12.27-10.12l.47-1.09.69-1.61s11.2 4.63 13.71 13.51z" fill="#39b54a"/><g opacity=".1"><path d="m62.34 35.67c-4.34-1.31-12.7-4.56-12.27-10.12l.47-1.09c2.77 1.4 9.22 5.19 11.8 11.21z"/></g><path d="m48 22.65-1.39 1c-19.89 13.51-28.93 9.08-28.93 9.08.31-.37.63-.74 1-1.08 10.6-11.36 29.32-9 29.32-9z" fill="#39b54a"/><g opacity=".1"><path d="m46.61 23.61c-19.89 13.51-28.93 9.08-28.93 9.08.31-.37.63-.74 1-1.08l.37-.34c3.57.45 11.32 0 23.78-7.82a38 38 0 0 1 3.78.16z"/></g><path d="m44.32 30.46a12.78 12.78 0 0 1 -2 1.58c-4.32 2.96-10.74 4.32-10.74 4.32 2.52-8.88 13.71-13.51 13.71-13.51l.39.92v.05l.74 1.73a6.14 6.14 0 0 1 -2.1 4.91z" fill="#39b54a"/><g opacity=".1"><path d="m51 32a20.53 20.53 0 0 0 -2.62 6.7c-3-2-3.93-5.34-4.08-8.2a12.78 12.78 0 0 1 -2 1.58 19.28 19.28 0 0 1 .55-6.26 4.15 4.15 0 0 1 2.77-2h.09c3.61-.49 7.13 5.42 5.29 8.18z"/></g><path d="m53 31c-2.32 3.47-3 8.6-3 8.6a9.7 9.7 0 0 1 -1.66-.9c-3-2-3.93-5.34-4.08-8.2a19.18 19.18 0 0 1 .59-5.68 5.65 5.65 0 0 1 .8-1 .17.17 0 0 1 .06-.06c4.08-3.76 9.47 3.96 7.29 7.24z" fill="#39b54a"/><g opacity=".5"><path d="m29.65 79a1.49 1.49 0 0 1 -1.22-.63 59.42 59.42 0 0 1 -4.43-7.24 1.5 1.5 0 1 1 2.66-1.38 55.46 55.46 0 0 0 4.25 6.85 1.51 1.51 0 0 1 -.35 2.1 1.48 1.48 0 0 1 -.91.3z" fill="#f2f2f2"/></g><g opacity=".5"><path d="m22.82 66.33a1.5 1.5 0 0 1 -1.41-1c-5.91-16.36 1.12-27 1.42-27.41a1.5 1.5 0 1 1 2.48 1.69c-.28.42-6.43 9.87-1.08 24.7a1.5 1.5 0 0 1 -.9 1.92 1.52 1.52 0 0 1 -.51.1z" fill="#f2f2f2"/></g></svg>