<svg id="Layer_1" height="512" viewBox="0 0 100 100" width="512" xmlns="http://www.w3.org/2000/svg" data-name="Layer 1"><path d="m84.92 61c0 18.34-15.67 33.21-35 33.21s-35-14.87-35-33.21 15.67-32.17 35-32.17 35 13.81 35 32.17z" fill="#f7931e"/><g opacity=".1"><path d="m84.92 61c0 18.34-15.67 33.21-35 33.21a36.32 36.32 0 0 1 -14.54-3 36.84 36.84 0 0 0 8.54 1c19.32 0 35-14.87 35-33.21 0-13.18-8.09-24-19.81-29.08 14.89 3.56 25.81 15.74 25.81 31.08z"/></g><g opacity=".5"><path d="m22.05 55.84a2 2 0 0 1 -.33 0 1.5 1.5 0 0 1 -1.13-1.84 32.32 32.32 0 0 1 3-8 1.5 1.5 0 1 1 2.65 1.41 29.58 29.58 0 0 0 -2.7 7.26 1.52 1.52 0 0 1 -1.49 1.17z" fill="#f2f2f2"/></g><g opacity=".5"><path d="m28.66 81a1.52 1.52 0 0 1 -1.17-.55 33.34 33.34 0 0 1 -7.55-21.15 1.5 1.5 0 0 1 3 0 30.37 30.37 0 0 0 6.88 19.26 1.49 1.49 0 0 1 -1.16 2.44z" fill="#f2f2f2"/></g><path d="m49.59 33.35a1 1 0 0 1 -1-1c0-14.59 6.23-26 14.18-26a1 1 0 0 1 0 2c-6.71 0-12.18 10.77-12.18 24a1 1 0 0 1 -1 1z" fill="#8c6239"/><path d="m52.09 19.35s-15.36-12.87-29.32-6.65-15.89-.79-15.89-.79 6.88 29.4 45.21 7.44z" fill="#39b54a"/><g opacity=".1"><path d="m6.9 12a.14.14 0 0 1 0-.06.05.05 0 0 1 0 .06z"/></g><g opacity=".1"><path d="m52.09 19.36c-33.51 19.19-43-.87-44.85-6.22 2.69 5.86 13.24 22.2 42.36 4.39 1.58 1.07 2.49 1.83 2.49 1.83z"/></g><g opacity=".1"><path d="m7.24 13.13a14.49 14.49 0 0 1 -.73-1.82 4.24 4.24 0 0 0 .37.64.05.05 0 0 1 0 0 .14.14 0 0 1 0 .07c.12.26.19.63.36 1.11z"/></g><g fill="#009245"><path d="m19.84 21.16a13.24 13.24 0 0 1 -8.59-3.32.51.51 0 0 1 -.06-.71.49.49 0 0 1 .7-.06 12.07 12.07 0 0 0 12.23 2.34 43.56 43.56 0 0 1 25.46-.84.51.51 0 0 1 .32.63.49.49 0 0 1 -.64.31 42.63 42.63 0 0 0 -24.82.85 14.38 14.38 0 0 1 -4.6.8z"/><path d="m27.53 19.4c-3.84 0-6.86-2-6.86-4.46a.51.51 0 0 1 .5-.5.5.5 0 0 1 .5.5c0 1.88 2.69 3.46 5.86 3.46a.5.5 0 0 1 0 1z"/><path d="m37.42 18c-3.08 0-5.59-2.07-5.59-4.6a.5.5 0 0 1 .5-.5.5.5 0 0 1 .5.5c0 2 2.06 3.6 4.59 3.6a.5.5 0 0 1 .5.5.51.51 0 0 1 -.5.5z"/><path d="m25 24.48a.5.5 0 0 1 -.5-.5.5.5 0 0 1 .5-.5 5.52 5.52 0 0 0 5.71-5.29.51.51 0 0 1 .5-.5.5.5 0 0 1 .5.5 6.52 6.52 0 0 1 -6.71 6.29z"/><path d="m37.42 22.37a.5.5 0 0 1 -.5-.5.5.5 0 0 1 .5-.5c2.45 0 4.44-1.62 4.44-3.6a.5.5 0 1 1 1 0c0 2.53-2.44 4.6-5.44 4.6z"/></g></svg>