<svg id="Layer_1" height="512" viewBox="0 0 100 100" width="512" xmlns="http://www.w3.org/2000/svg" data-name="Layer 1"><path d="m91.37 35.35c-5.72-.05-7.37 5.65-7.37 5.65a17.48 17.48 0 0 1 -1.83 11.67s0 0 0 0a16.76 16.76 0 0 1 -8.09 7c-36.47 12.84-53.23-15.59-54.44-28.67a11.38 11.38 0 0 1 .17-3.79c2.5-10 10.23-.33 10.23-.33 18.11 22.5 32.54 21.22 41.76 15.69a35.51 35.51 0 0 0 11.32-11.43s1.28-2.46 7.93-2l.65.07c5.56.79-.33 6.14-.33 6.14z" fill="#f7ce23"/><g opacity=".1"><path d="m74.11 59.74c-36.5 12.77-53.26-15.66-54.47-28.74a20.61 20.61 0 0 1 1.61 1.43c24.87 25.33 41.51 18.75 50.55 10.14 5.5-5.24 2.31 17.17 2.31 17.17z"/></g><path d="m78 33.34s-18.73 41.87-58.73 1c0 0-9.54-9.73-11.2 1.47s20.09 49.9 63.16 29.87c0 0 12.86-6.06 8.86-21.64 0 0 1.15-6.44 7.43-7 0 0 6.33-7-1-6.79s-8.52 3.09-8.52 3.09z" fill="#f7ce23"/><g opacity=".1"><path d="m71.21 65.72c-30.48 14.18-50.29-1.06-58.67-15.15a20 20 0 0 1 2.93 1.28c31.63 17.74 45.7 5.93 51.76-5.07a39.26 39.26 0 0 0 10.77-13.44z"/></g><path d="m71.56 37.37s-6.23 45.44-56.09 17.48c0 0-11.88-6.67-10.33 4.56s33.29 42.25 69 10.94c0 0 10.64-9.42 2.44-23.26 0 0-.71-6.51 5.16-8.81 0 0 4.11-8.51-2.88-6.23s-7.3 5.32-7.3 5.32z" fill="#f7ce23"/><g opacity=".1"><path d="m79.61 56a18.23 18.23 0 0 1 -5.47 14.33c-35.71 31.31-67.46.28-69-10.94a10.75 10.75 0 0 1 0-3.25v.25c1.54 11.22 33.29 42.25 69 10.94a18.51 18.51 0 0 0 5.47-11.33z"/></g><g opacity=".1"><path d="m81.74 38.28a7.89 7.89 0 0 0 -5 6.1l-.17-.29s-.71-6.51 5.16-8.81a15 15 0 0 0 1-2.68c.87 1.83-.99 5.68-.99 5.68z"/></g></svg>