<svg id="Layer_1" height="512" viewBox="0 0 100 100" width="512" xmlns="http://www.w3.org/2000/svg" data-name="Layer 1"><ellipse cx="49.52" cy="37.68" fill="#f15a24" rx="16.11" ry="16.6"/><g opacity=".1"><ellipse cx="49.52" cy="45.72" rx="16.11" ry="17.81"/></g><ellipse cx="34.49" cy="51.97" fill="#f15a24" rx="17.92" ry="29.74"/><g opacity=".1"><path d="m51.06 54.28c0 10.94-3.54 19.72-9 24.82a12.74 12.74 0 0 1 -7.62 2.61c-9.9 0-17.93-12-17.93-29.74 0-12.7 4.13-22.48 10.12-27a15 15 0 0 1 3.67-.44c11.48.01 20.76 12.05 20.76 29.75z"/></g><ellipse cx="65.53" cy="51.97" fill="#f15a24" rx="17.91" ry="29.74"/><g opacity=".1"><path d="m83.44 52c0 17.7-8 29.74-17.91 29.74a12.8 12.8 0 0 1 -7.71-2.74c-5.36-5.11-8.88-13.86-8.88-24.75 0-17.7 9.28-29.74 20.72-29.74a15 15 0 0 1 3.67.44c5.98 4.54 10.11 14.32 10.11 27.05z"/></g><ellipse cx="74.28" cy="54.28" fill="#f15a24" rx="20.72" ry="29.74"/><g opacity=".1"><path d="m90.37 58.91c0 9-2.43 16.62-6.35 21.86a16.4 16.4 0 0 1 -9.73 3.23c-11.45 0-20.72-12-20.72-29.72 0-9.05 2.42-16.63 6.34-21.87a16.52 16.52 0 0 1 9.75-3.25c11.44 0 20.71 12.04 20.71 29.75z"/></g><ellipse cx="67.35" cy="61.22" fill="#f15a24" rx="20.72" ry="29.74"/><g opacity=".1"><path d="m71.06 62.8c0 12.6-4.08 22.32-10 26.87-8.36-3.55-14.41-14.16-14.41-28.45 0-12.67 4.75-22.45 11.65-27 7.37 3.43 12.76 14.11 12.76 28.58z"/></g><ellipse cx="25.72" cy="54.28" fill="#f15a24" rx="20.72" ry="29.74"/><path d="m49 43a3 3 0 0 1 -3-3c0-16.33 7.39-29.12 16.82-29.12a3 3 0 0 1 0 6c-5.09-.01-10.82 9.49-10.82 23.12a3 3 0 0 1 -3 3z" fill="#754c24"/><g opacity=".1"><path d="m49 40c0 1.11-3 1.65-3 0 0-16.33 7.39-29.12 16.82-29.12a2.84 2.84 0 0 1 1 .2c-8.4 1.6-14.82 13.73-14.82 28.92z"/></g><g opacity=".1"><path d="m46.43 54.28c0 17.72-9.27 29.72-20.71 29.72a16.43 16.43 0 0 1 -9.72-3.23c-3.95-5.24-6.37-12.77-6.37-21.86 0-17.71 9.27-29.75 20.72-29.75a16.46 16.46 0 0 1 9.73 3.25c3.92 5.24 6.35 12.82 6.35 21.87z"/></g><ellipse cx="32.65" cy="61.22" fill="#f15a24" rx="20.72" ry="29.74"/><g opacity=".1"><path d="m53.37 61.22c0 14.58-6.29 25.32-14.92 28.65-6.08-4.46-10.29-14.29-10.29-27.07 0-14.76 5.61-25.58 13.24-28.74 7.08 4.43 11.97 14.29 11.97 27.16z"/></g><ellipse cx="49.61" cy="62.8" fill="#f15a24" rx="17.98" ry="29.71"/><g opacity=".5"><path d="m37.24 50.58a1 1 0 0 1 -.94-1.33 27.71 27.71 0 0 1 4.15-7.75 1 1 0 1 1 1.55 1.23 25.93 25.93 0 0 0 -3.84 7.19 1 1 0 0 1 -.92.66z" fill="#f2f2f2"/></g><g opacity=".5"><path d="m36.45 70.66a1 1 0 0 1 -1-.85 54.59 54.59 0 0 1 -.63-6.9 52.62 52.62 0 0 1 .53-9.42 1 1 0 1 1 2 .3 51.39 51.39 0 0 0 -.51 9.06 54.38 54.38 0 0 0 .61 6.65 1 1 0 0 1 -.83 1.14z" fill="#f2f2f2"/></g></svg>