<svg id="Layer_1" height="512" viewBox="0 0 100 100" width="512" xmlns="http://www.w3.org/2000/svg" data-name="Layer 1"><path d="m95 51c.19 20.73-11.41 37.95-29.53 43.38-4.3 1.29-10.29-.82-15.06-.78-5.13 0-11.47 2.14-16.07.75-17.72-5.35-29.15-22.15-29.34-42.51a66.3 66.3 0 0 1 1-12.73h87.87a68.79 68.79 0 0 1 1.13 11.89z" fill="#009245"/><g opacity=".5"><path d="m12.53 57.92a2 2 0 0 1 -2-1.72 57.5 57.5 0 0 1 -.53-7.34 2 2 0 0 1 2-2 2 2 0 0 1 2 2 52.72 52.72 0 0 0 .51 6.81 2 2 0 0 1 -1.69 2.27z" fill="#f2f2f2"/></g><g opacity=".5"><path d="m26.66 85.15a2 2 0 0 1 -1.33-.5 41.8 41.8 0 0 1 -13.51-22.28 2 2 0 1 1 3.89-.95 37.92 37.92 0 0 0 12.29 20.24 2 2 0 0 1 -1.33 3.49z" fill="#f2f2f2"/></g><path d="m93.87 39.11h-.13c-2.84 3.25-8.45 5.47-14.92 5.47a23 23 0 0 1 -12.34-3.27 12.42 12.42 0 0 1 -2.24-1.82c.1-.13-.13-.13 0 0a10.84 10.84 0 0 1 -1.65 1.83c-2.89 2.62-7.46 4.3-12.59 4.3s-9.7-1.62-12.59-4.23a10.83 10.83 0 0 1 -1.81-2c.08-.07-.06-.08 0 0a12.89 12.89 0 0 1 -2.54 2.06 23.11 23.11 0 0 1 -12.13 3.13c-6.44 0-12-2.19-14.88-5.42l27.25-20.16h33.38z" fill="#c69c6d"/><g opacity=".1"><path d="m95 51c.19 20.73-11.41 37.95-29.53 43.38-3.07.92-7 .11-10.72-.41 17.38-5.85 28.44-22.74 28.25-42.97q0-3.1-.32-6.07c-.18-2 .29 1.32-.06-.57l-27.94-25.36h12l27.19 20.1a68.79 68.79 0 0 1 1.13 11.9z"/></g></svg>