<svg id="Layer_1" height="512" viewBox="0 0 100 100" width="512" xmlns="http://www.w3.org/2000/svg" data-name="Layer 1"><path d="m27.4 60.53h-2c0-12.42 5.7-25.1 15.64-34.81 9.47-9.25 21.83-14.72 33.06-14.72h1.4l-.45 1.32c-9.47 28 .82 43.69.92 43.84l-1.66 1.12c-.44-.71-10.62-16.28-1.6-44.28-20.86.88-45.31 21.75-45.31 47.53z" fill="#603813"/><path d="m75 89.94h-1.4c-7.23 0-13.73-2.88-16.71-13.28l-1-6.19a21.17 21.17 0 0 1 .31-8.47c1.26-5.07 4.54-11.3 13.47-8.69l4.88.54 4.13-.45c7.78-2.39 11.37 2.19 13 6.75a21 21 0 0 1 .93 10.6l-1 5.94c-2.72 10.45-9.4 13.25-16.61 13.25z" fill="#ed1c24"/><g opacity=".2"><path d="m92.65 70.72-1 5.94c-2.76 10.48-9.44 13.28-16.65 13.28h-1.4c-.61 0-1.21 0-1.81-.06 6.51-.46 12.34-3.62 14.91-13.22l1-5.94a21 21 0 0 0 -.93-10.6c-1.17-3.12-3.17-6.12-6.77-7.12 6.85-1.48 10.11 2.83 11.68 7.11a21 21 0 0 1 .97 10.61z"/></g><path d="m62.43 81.76a1.51 1.51 0 0 1 -1.27-.7 22.88 22.88 0 0 1 -3.56-14.48 1.48 1.48 0 0 1 1.61-1.37 1.51 1.51 0 0 1 1.38 1.61 20 20 0 0 0 3.1 12.63 1.49 1.49 0 0 1 -.46 2.07 1.47 1.47 0 0 1 -.8.24z" fill="#fc818a"/><path d="m59.76 64.19a1.22 1.22 0 0 1 -.37 0 1.49 1.49 0 0 1 -1.08-1.82 24 24 0 0 1 1-3.1 1.5 1.5 0 1 1 2.77 1.13 21.66 21.66 0 0 0 -.88 2.71 1.49 1.49 0 0 1 -1.44 1.08z" fill="#fc818a"/><path d="m28.23 95h-3.61c-7.52 0-13.19-3-16.29-13.81l-1-6.43a22.12 22.12 0 0 1 .32-8.84c1.31-5.26 4.71-11.74 14-9l5.08.55 4.27-.47c8.08-2.48 11.82 2.28 13.55 7a21.91 21.91 0 0 1 1 11l-1 6.17c-2.95 10.92-8.81 13.83-16.32 13.83z" fill="#ed1c24"/><g opacity=".2"><path d="m45.51 75-1 6.17c-2.91 10.92-8.77 13.83-16.28 13.83h-3.8c7.41 0 13.2-3 16.08-13.81l1-6.17a21.91 21.91 0 0 0 -1-11c-1.22-3.34-3.45-6.7-7.49-7.52 6.7-1.14 9.98 3.19 11.52 7.5a21.91 21.91 0 0 1 .97 11z"/></g><path d="m14.1 86.43a1.49 1.49 0 0 1 -1.27-.69 23.78 23.78 0 0 1 -3.7-15 1.5 1.5 0 1 1 3 .24 20.91 20.91 0 0 0 3.24 13.16 1.5 1.5 0 0 1 -.46 2.07 1.48 1.48 0 0 1 -.81.22z" fill="#fc818a"/><path d="m11.32 68.18a1.64 1.64 0 0 1 -.37-.05 1.49 1.49 0 0 1 -1.08-1.82 26.84 26.84 0 0 1 1-3.22 1.51 1.51 0 0 1 2-.82 1.49 1.49 0 0 1 .82 1.95 21.7 21.7 0 0 0 -.91 2.83 1.51 1.51 0 0 1 -1.46 1.13z" fill="#fc818a"/><path d="m71.17 7.1h8.12v3h-8.12z" fill="#603813" transform="matrix(.465 -.885 .885 .465 32.61 71.18)"/></svg>