<svg id="Layer_1" height="512" viewBox="0 0 100 100" width="512" xmlns="http://www.w3.org/2000/svg" data-name="Layer 1"><path d="m50.56 12.12s13.11-11 25-5.67 13.56-.68 13.56-.68-5.85 25.09-38.56 6.35z" fill="#39b54a"/><g opacity=".1"><path d="m89.12 5.84a.08.08 0 0 0 0 0 .05.05 0 0 0 0 0z"/></g><g opacity=".1"><path d="m50.56 12.13c28.59 16.37 36.68-.75 38.27-5.31-2.29 5-11.3 18.94-36.14 3.75-1.35.91-2.13 1.56-2.13 1.56z"/></g><g opacity=".1"><path d="m88.83 6.81a11.74 11.74 0 0 0 .62-1.55 3.59 3.59 0 0 1 -.31.54.05.05 0 0 0 0 0 .14.14 0 0 0 0 .06 7.2 7.2 0 0 1 -.31.95z"/></g><g fill="#009245"><path d="m78.08 13.74a12.22 12.22 0 0 1 -4-.69 36.25 36.25 0 0 0 -21.08-.72.5.5 0 0 1 -.64-.31.52.52 0 0 1 .32-.64 37.31 37.31 0 0 1 21.77.73 10.23 10.23 0 0 0 10.37-2 .49.49 0 0 1 .7.06.51.51 0 0 1 -.06.71 11.43 11.43 0 0 1 -7.38 2.86z"/><path d="m71.52 12.24a.5.5 0 0 1 -.5-.5.5.5 0 0 1 .5-.5c2.67 0 4.92-1.32 4.92-2.88a.51.51 0 0 1 .5-.5.5.5 0 0 1 .5.5c0 2.18-2.6 3.88-5.92 3.88z"/><path d="m63.08 11a.5.5 0 0 1 -.5-.5.51.51 0 0 1 .5-.5c2.12 0 3.84-1.34 3.84-3a.5.5 0 0 1 .5-.5.5.5 0 0 1 .5.5c0 2.24-2.17 4-4.84 4z"/><path d="m73.69 16.58a5.64 5.64 0 0 1 -5.8-5.45.5.5 0 0 1 .5-.5.51.51 0 0 1 .5.5 4.64 4.64 0 0 0 4.8 4.45.5.5 0 0 1 .5.5.5.5 0 0 1 -.5.5z"/><path d="m63.08 14.77c-2.6 0-4.72-1.79-4.72-4a.51.51 0 0 1 .5-.5.5.5 0 0 1 .5.5c0 1.65 1.67 3 3.72 3a.5.5 0 0 1 .5.5.5.5 0 0 1 -.5.5z"/></g><path d="m46.51 21.22a1 1 0 0 1 -.8-.4 1 1 0 0 1 .19-1.4c3.87-3 4.63-11.75 4.64-11.84a1 1 0 1 1 2 .16c0 .4-.84 9.78-5.41 13.27a1 1 0 0 1 -.62.21z" fill="#603813"/><path d="m57.44 17.79s26.65 7.53 15.93 46.34-52.13 36.19-49.23 18.53-2-35.62-2-35.62-6.14-43.44 35.3-29.25z" fill="#f7ce23"/><g opacity=".5"><path d="m31.49 29a1.47 1.47 0 0 1 -.73-.19 1.5 1.5 0 0 1 -.59-2 19.3 19.3 0 0 1 7.19-7.54 1.5 1.5 0 0 1 1.51 2.59 16.36 16.36 0 0 0 -6.07 6.39 1.48 1.48 0 0 1 -1.31.75z" fill="#f2f2f2"/></g><g opacity=".5"><path d="m28.11 51.54a1.5 1.5 0 0 1 -1.48-1.29 47.27 47.27 0 0 1 1.49-18.66 1.5 1.5 0 0 1 2.88.91c-2.62 8.2-1.39 17.24-1.38 17.33a1.5 1.5 0 0 1 -1.28 1.69.75.75 0 0 1 -.23.02z" fill="#f2f2f2"/></g><g opacity=".1"><path d="m73.37 64.12c-7.37 26.64-29.16 33.76-41.19 29.88 12.28.44 29.16-8.06 35.44-30.86 10.72-38.78-15.92-46.31-15.92-46.31q-3.2-1.08-6-1.74a51.6 51.6 0 0 1 11.77 2.7s26.62 7.53 15.9 46.33z"/></g></svg>