<svg id="Layer_1" height="512" viewBox="0 0 100 100" width="512" xmlns="http://www.w3.org/2000/svg" data-name="Layer 1"><path d="m53.23 12.43s13.67-11.43 26.1-5.92 14.15-.7 14.15-.7-6.13 26.19-40.25 6.62z" fill="#39b54a"/><g opacity=".1"><path d="m53.23 12.43c29.83 17.09 38.26-.77 39.92-5.53-2.39 5.23-11.79 19.76-37.71 3.91-1.44.95-2.21 1.62-2.21 1.62z"/></g><g fill="#009245"><path d="m81.94 14.09a12.71 12.71 0 0 1 -4.12-.71 37.78 37.78 0 0 0 -22.06-.75.5.5 0 0 1 -.63-.32.5.5 0 0 1 .31-.63 39 39 0 0 1 22.7.75 10.7 10.7 0 0 0 10.86-2.07.49.49 0 0 1 .7.06.51.51 0 0 1 -.06.71 11.85 11.85 0 0 1 -7.7 2.96z"/><path d="m75.09 12.53a.5.5 0 0 1 -.5-.5.5.5 0 0 1 .5-.5c2.8 0 5.16-1.39 5.16-3a.5.5 0 0 1 1 0c0 2.23-2.71 4-6.16 4z"/><path d="m66.29 11.27a.5.5 0 0 1 0-1c2.22 0 4-1.41 4-3.15a.5.5 0 0 1 .5-.5.51.51 0 0 1 .5.5c.03 2.29-2.23 4.15-5 4.15z"/><path d="m77.35 17.05a5.86 5.86 0 0 1 -6-5.65.5.5 0 0 1 .5-.5.5.5 0 0 1 .5.5 4.86 4.86 0 0 0 5 4.65.5.5 0 0 1 .5.5.5.5 0 0 1 -.5.5z"/><path d="m66.29 15.17c-2.7 0-4.9-1.86-4.9-4.15a.5.5 0 1 1 1 0c0 1.74 1.75 3.15 3.9 3.15a.5.5 0 0 1 .5.5.5.5 0 0 1 -.5.5z"/></g><path d="m49 21.87a1 1 0 0 1 -.79-.39 1 1 0 0 1 .18-1.4c4.06-3.08 4.85-12.29 4.85-12.39a1 1 0 0 1 2 .16c0 .42-.88 10.18-5.63 13.82a1 1 0 0 1 -.61.2z" fill="#603813"/><path d="m76.69 71.46c-.17 13-12.12 23.54-27.07 23.54s-27.06-10.54-27.06-23.54 5.67-17.28 9.86-27.83c5-12.49 5.66-23.74 17.2-23.87 11.91-.14 12.31 11.47 17.28 24 4.15 10.53 9.97 14.39 9.79 27.7z" fill="#39b54a"/><g opacity=".1"><path d="m76.69 71.46c-.17 13-12.12 23.54-27.07 23.54a30.23 30.23 0 0 1 -8.54-1.21 29.52 29.52 0 0 0 3.54.21c15 0 26.9-10.54 27.07-23.54.18-13.31-5.64-17.17-9.79-27.67-4.08-10.31-5.08-20-11.9-23 11.53.11 12 11.61 16.9 24 4.15 10.5 9.97 14.36 9.79 27.67z"/></g><g opacity=".5"><path d="m39.51 39.25a1.49 1.49 0 0 1 -.47-.07 1.51 1.51 0 0 1 -.95-1.9l.17-.51c.88-2.66 1.72-5.18 2.69-7.42a1.5 1.5 0 1 1 2.75 1.2c-.92 2.12-1.73 4.57-2.6 7.17l-.17.51a1.5 1.5 0 0 1 -1.42 1.02z" fill="#f2f2f2"/></g><g opacity=".5"><path d="m29.69 61.1a1.52 1.52 0 0 1 -.51-.09 1.5 1.5 0 0 1 -.9-1.92 58.88 58.88 0 0 1 3.84-8 73.79 73.79 0 0 0 4.15-8.52 1.5 1.5 0 0 1 2.79 1.11 77.18 77.18 0 0 1 -4.31 8.85 56.22 56.22 0 0 0 -3.65 7.59 1.49 1.49 0 0 1 -1.41.98z" fill="#f2f2f2"/></g><g opacity=".1"><path d="m95.14 6.53a.08.08 0 0 0 0 0 .05.05 0 0 0 0 0z"/></g><g opacity=".1"><path d="m94.83 7.54a11.23 11.23 0 0 0 .65-1.62 3.78 3.78 0 0 1 -.32.57.05.05 0 0 0 0 0 .14.14 0 0 0 0 .07 7.54 7.54 0 0 1 -.33.98z"/></g></svg>