<svg id="Layer_1" height="512" viewBox="0 0 100 100" width="512" xmlns="http://www.w3.org/2000/svg" data-name="Layer 1"><path d="m64.28 93.38c-47.67-8.1-50.07-61.65-50.36-64.12-.92-8.26 1.73-16.76 9.97-17.72s10.45 4.35 13.42 12.07c3.76 9.78 8 28.36 33.79 34.09 13.59 3 18.46 15.31 16.57 23.39-1.61 6.91-8.73 14.78-23.39 12.29z" fill="#662d91"/><g opacity=".5"><path d="m20.43 48.08a1 1 0 0 1 -.95-.7c-.93-3-1.72-6-2.36-9.06a1 1 0 1 1 1.95-.41c.63 3 1.41 6 2.32 8.87a1 1 0 0 1 -.66 1.22 1 1 0 0 1 -.3.08z" fill="#f2f2f2"/></g><g opacity=".5"><path d="m28 65.27a1 1 0 0 1 -.86-.49 78.86 78.86 0 0 1 -5.89-12.29 1 1 0 0 1 .58-1.29 1 1 0 0 1 1.29.58 77.56 77.56 0 0 0 5.74 12 1 1 0 0 1 -.35 1.37 1 1 0 0 1 -.51.12z" fill="#f2f2f2"/></g><g opacity=".2"><path d="m87.67 81.09c-1.53 6.57-8 14-21.14 12.59 9.15-1.07 13.87-7.12 15.14-12.59 1.89-8.08-3-20.37-16.57-23.39-25.76-5.7-30.03-24.31-33.79-34.09-2.32-6-4.19-10.57-8.8-11.83q.66-.15 1.38-.24c8.22-.95 10.45 4.35 13.42 12.07 3.76 9.78 8 28.36 33.79 34.09 13.59 3.02 18.46 15.3 16.57 23.39z"/></g><path d="m39.59 21.35s-5.25 2.54-10.33-3.08a11.88 11.88 0 0 1 -2.45 9.32s-6.6-2.44-7.23-7.16c0 0-.55 5.65-8.07 7.83 0 0 2.3-1.67 2.34-6.56a11.36 11.36 0 0 1 1.38-5.7 9.74 9.74 0 0 1 4.53-4.15 12 12 0 0 1 -1.32-5.56 1.5 1.5 0 0 1 3 0 9.65 9.65 0 0 0 1.21 4.75 10.68 10.68 0 0 1 11.71 5.08 14.77 14.77 0 0 0 3.92 4.37 11.26 11.26 0 0 0 1.31.86z" fill="#39b54a"/><g opacity=".2"><path d="m21.76 11.88a9.74 9.74 0 0 0 -4.53 4.12 11.36 11.36 0 0 0 -1.38 5.67 10 10 0 0 1 -1.33 5.33 14.83 14.83 0 0 1 -3 1.23s2.3-1.67 2.34-6.56a11.36 11.36 0 0 1 1.37-5.67 9.74 9.74 0 0 1 4.53-4.15 12 12 0 0 1 -1.32-5.56 1.5 1.5 0 0 1 1.5-1.5 1.47 1.47 0 0 1 1 .39 1.47 1.47 0 0 0 -.5 1.11 12 12 0 0 0 1.32 5.59z"/><path d="m27.31 26.91a7.9 7.9 0 0 1 -.5.68s-6.54-2.51-7.23-7.16a7.58 7.58 0 0 0 1-2.64c.42 3.27 4.75 8.09 6.73 9.12z"/><path d="m37.63 21.86c-1.53.19-4.86.27-8.37-3.59a9.2 9.2 0 0 0 -.16-1.92c2.25 2.48 6.68 5.29 8.53 5.51z"/></g></svg>