<svg id="Layer_1" height="512" viewBox="0 0 100 100" width="512" xmlns="http://www.w3.org/2000/svg" data-name="Layer 1"><path d="m78.05 84.6a10.93 10.93 0 0 1 -2 6.06 10.4 10.4 0 0 1 -8.42 4.34 18 18 0 0 1 -2.63-.21 13.75 13.75 0 0 1 -5.55-1.79c-22.99-16.51-34.14-43-34.14-77.57 0-5.76 3.62-10.43 9.38-10.43s9.39 4.67 9.39 10.43c0 28 12 46.94 29.64 59.63a9.4 9.4 0 0 1 2.13 2.14 11.92 11.92 0 0 1 2.2 7.4z" fill="#006837"/><path d="m78.05 84.6a10.93 10.93 0 0 1 -2 6.06 10.4 10.4 0 0 1 -8.42 4.34 18 18 0 0 1 -2.63-.21 13.07 13.07 0 0 0 -1.24-1.71 12.47 12.47 0 0 0 -4.1-3.08l-4.33-2-8-12.3c-2.21-2.36-7.49-8.17-7.49-9.55a53.22 53.22 0 0 0 -4.26-11.95l-5.58-8.5-.59-11.24-2.07-8.74c.12-1.06 3.11 8.58 3.11 8.58l.55 11.07 5.45 8.33c.92 1.87 4.36 11.07 4.36 12.43.11.81 3.78 5.16 7.27 8.9l7.92 12.09 8.65 2.28 1.56.36a1.42 1.42 0 0 0 1.57-2.08c-1-1.72-1.73-3.12-2-3.56-.73-1.22-5.62-4.56-9-5.59-1.22-.37-2.86-7.72-3.41-8.35l-5.9-5.41c-.12-.26-4.94-6.45-5.73-10.43-.46-2.29-.63-6.15-2.37-9.27-1.28-2.27-3.28-4.06-3.51-5-.49-2 .46-7.12.46-8.15l-2.32-3.15.51-5.8-.09-5.06c.16-1.27.29-2.69.4.63.13 4.31.22 9.87.22 9.87l2.38 3.18v.17c0 .06-1 6.05-.49 8.07.2.79 2.27 2.7 3.4 4.74 1.79 3.17 2 7.12 2.49 9.57.72 3.6 5.25 9.29 5.62 10.1l5.73 5.21c.13.15 2.4 7.77 3.53 8.11 3.45 1.07 9 3.78 9.87 5.32a8 8 0 0 0 2.82 3.35 1.62 1.62 0 0 0 2.46-1.72l-.7-3.12a13 13 0 0 0 -2.93-5.78c-1-1.12-1.91-2.36-1.91-3.13-.27-.69-4.63-3.21-7-4.55a29 29 0 0 1 -4-2.49c-1.27-1.26-1.74-5.87-1.74-6.71-.19-.66-8.07-8.29-8.35-8.68-.91-1.21-1.75-9.36-1.08-10.37.06-.39-1-2.36-2.36-4.17l.09-6.12-.58-8.14c.25-1.49 1.46 13.75 1.46 13.75 1.4 1.93 2.9 4.35 2.31 5.24-.36.8.32 8.23 1 9.18.25.33 8.56 8.53 8.56 9.3 0 1.17.57 5.11 1.44 6a34.72 34.72 0 0 0 3.8 2.28c5.53 3.19 7.5 4.49 7.5 5.46 0 .2 4.67 4.62 7.49 4.72a11.92 11.92 0 0 1 2.2 7.42z" fill="#009245"/><g opacity=".1"><path d="m78.05 84.6a10.93 10.93 0 0 1 -2 6.06 10.4 10.4 0 0 1 -8.42 4.34 15.79 15.79 0 0 1 -2.21-.16 10.34 10.34 0 0 0 6.68-4.18 10.93 10.93 0 0 0 2-6.06 11.92 11.92 0 0 0 -2.2-7.4 9.4 9.4 0 0 0 -2.13-2.14c-17.69-12.69-29.69-31.68-29.69-59.63 0-5.06-2.8-9.28-7.39-10.23a9.9 9.9 0 0 1 2-.2c5.77 0 9.39 4.67 9.39 10.43 0 28 12 46.94 29.64 59.63a9.4 9.4 0 0 1 2.13 2.14 11.92 11.92 0 0 1 2.2 7.4z"/></g></svg>