<svg id="Layer_1" height="512" viewBox="0 0 100 100" width="512" xmlns="http://www.w3.org/2000/svg" data-name="Layer 1"><path d="m49.75 25.81a1 1 0 0 1 -1-1c0-10.78 4.83-19.23 11-19.23a1 1 0 0 1 0 2c-4.88 0-9 7.89-9 17.23a1 1 0 0 1 -1 1z" fill="#009245"/><path d="m91.66 58.63c0 20.09-18.66 36.37-41.66 36.37s-41.65-16.28-41.65-36.37 18.65-33.93 41.65-33.93 41.66 13.85 41.66 33.93z" fill="#ed1c24"/><g opacity=".5"><path d="m16.23 53.33a1.86 1.86 0 0 1 -.33 0 1.49 1.49 0 0 1 -1.13-1.79 30.9 30.9 0 0 1 3.11-8.19 1.5 1.5 0 1 1 2.63 1.44 28.2 28.2 0 0 0 -2.82 7.41 1.5 1.5 0 0 1 -1.46 1.13z" fill="#f2f2f2"/></g><g opacity=".5"><path d="m22.63 80.51a1.49 1.49 0 0 1 -1.18-.58 34.48 34.48 0 0 1 -7.45-21.3 1.5 1.5 0 0 1 3 0 31.51 31.51 0 0 0 6.84 19.46 1.5 1.5 0 0 1 -1.19 2.42z" fill="#f2f2f2"/></g><g opacity=".2"><path d="m91.66 58.63c0 20.09-18.66 36.37-41.66 36.37a47.59 47.59 0 0 1 -10.92-1.25c.87 0 1.74.07 2.6.07 23 0 41.65-16.28 41.65-36.37 0-16.49-12.55-28.76-29.77-32.62 21.35 1.33 38.1 14.76 38.1 33.8z"/></g><path d="m48.56 23.64s10.14-4.8 15.66-1.64 13.14 2.24 13.14 2.24-9.14 4.65-12.19 3.37-6.81-.67-10.05.77-6.56-4.74-6.56-4.74z" fill="#39b54a"/><g opacity=".1"><path d="m77.34 24.29c-.48.24-9.2 4.6-12.17 3.36s-6.81-.67-10.05.77-6.56-4.78-6.56-4.78.56 1.44 1.19 1.18a4.21 4.21 0 0 0 5.37 1.6c3.24-1.44 7-2.05 10.05-.77 1.57.66 4.77-.26 7.49-1.3a28.93 28.93 0 0 0 4.68-.06z"/></g><path d="m51.08 28s-.12 4.71 7.64 9.9a58.66 58.66 0 0 1 11.4 9.48s-3.72-8.68-8.75-14-3.37-3.6-3.37-3.6-10.14-11.14-6.92-1.78z" fill="#39b54a"/><g opacity=".1"><path d="m70.11 47.35a59 59 0 0 0 -11.39-9.47c-7.72-5.19-7.64-9.88-7.64-9.88-1.16-3.38-.59-4.08.62-3.59-.4.35-.37 1.42.38 3.59 0 0-.12 4.71 7.64 9.9a69.26 69.26 0 0 1 9.46 7.48c.56 1.11.89 1.85.93 1.97z"/></g><g opacity=".1"><path d="m58.91 29.72h-.06l-.05-.06a1.13 1.13 0 0 1 .11.06z"/></g><path d="m50.45 27.91s-2.36 4.9-11.81 8.09-14.39 6.66-14.39 6.66 6.23-7.95 12.88-12 4.52-2.79 4.52-2.79 14.7-8.72 8.8.04z" fill="#39b54a"/><g opacity=".1"><path d="m50.45 27.91s-2.36 4.9-11.81 8.09a63.75 63.75 0 0 0 -14.37 6.64c.17-.22 1.51-1.9 3.52-4a77.06 77.06 0 0 1 10.85-4.64c9.45-3.22 11.81-8.12 11.81-8.12a14.06 14.06 0 0 0 1-1.75c.68.39.55 1.49-1 3.78z"/></g><g opacity=".1"><path d="m41.81 26.78h-.06l.12-.07a.13.13 0 0 1 -.06.07z"/><path d="m41.88 26.74h.05z"/></g><path d="m46.94 22.2s-5.63.61-9.84-2-7.83-5.83-14.26-5c0 0 7.65 3.41 11.87 9.23s15.84 2.41 15 .41a4.8 4.8 0 0 0 -2.77-2.64z" fill="#39b54a"/><g opacity=".1"><path d="m49.77 25.18c-.55 2-11.09 4.72-15.06-.77-4.22-5.82-11.87-9.23-11.87-9.23a16.41 16.41 0 0 1 2.76-.11c2.51 1.37 7.15 4.26 10.11 8.34 3.29 4.59 11.29 3.44 14.06 1.77z"/></g></svg>