<svg id="Layer_1" height="512" viewBox="0 0 100 100" width="512" xmlns="http://www.w3.org/2000/svg" data-name="Layer 1"><ellipse cx="50.07" cy="50" fill="#39b54a" rx="41.44" ry="45"/><path d="m50.07 96c-23.4 0-42.44-20.64-42.44-46s19-46 42.44-46 42.44 20.64 42.44 46-19.04 46-42.44 46zm0-90c-22.3 0-40.44 19.74-40.44 44s18.14 44 40.44 44 40.44-19.74 40.44-44-18.14-44-40.44-44z" fill="#8c6239"/><ellipse cx="50.07" cy="49.93" fill="#8cc63f" rx="38.29" ry="41.58"/><g opacity=".5"><path d="m29.07 21.94a1.53 1.53 0 0 1 -1.1-.47 1.5 1.5 0 0 1 .03-2.12 39.5 39.5 0 0 1 7.88-5.76 1.5 1.5 0 1 1 1.45 2.62 37.06 37.06 0 0 0 -7.28 5.33 1.5 1.5 0 0 1 -.98.4z" fill="#f2f2f2"/></g><g opacity=".5"><path d="m16.56 45.05a1.33 1.33 0 0 1 -.28 0 1.5 1.5 0 0 1 -1.2-1.75 44.88 44.88 0 0 1 7.78-18.06 1.5 1.5 0 1 1 2.42 1.76 41.75 41.75 0 0 0 -7.28 16.83 1.49 1.49 0 0 1 -1.44 1.22z" fill="#f2f2f2"/></g><ellipse cx="50.07" cy="50.06" fill="#efef4b" rx="11.56" ry="12.55"/><path d="m72.27 73.47a.51.51 0 0 1 -.36-.15l-45-44.88a.5.5 0 0 1 .71-.71l45 44.88a.51.51 0 0 1 0 .71.5.5 0 0 1 -.35.15z" fill="#efef4b"/><path d="m27.32 73.53a.5.5 0 0 1 -.35-.85l44.88-45a.48.48 0 0 1 .7 0 .5.5 0 0 1 0 .71l-44.89 45a.5.5 0 0 1 -.34.14z" fill="#efef4b"/><path d="m81.54 51.53h-63.54a1 1 0 0 1 0-2h63.54a1 1 0 0 1 0 2z" fill="#efef4b"/><path d="m49.76 83.31a1 1 0 0 1 -1-1v-63.56a1 1 0 1 1 2 0v63.56a1 1 0 0 1 -1 1z" fill="#efef4b"/><path d="m32 64a1.76 1.76 0 0 1 -2-2.9c.8-.55 3.76-1.63 4.31-.83s-1.53 3.18-2.31 3.73z" fill="#603813"/><path d="m28.47 57a1.76 1.76 0 0 1 -.74-3.45c.95-.2 4.09-.08 4.3.88s-2.6 2.4-3.56 2.57z" fill="#603813"/><path d="m71.82 53.66a1.76 1.76 0 0 1 -.66 3.46c-1-.18-3.79-1.53-3.61-2.49s3.32-1.15 4.27-.97z" fill="#603813"/><path d="m69.32 61.05a1.75 1.75 0 0 1 .51 2.44 1.77 1.77 0 0 1 -2.44.51c-.81-.54-2.92-2.86-2.39-3.68s3.51.19 4.32.73z" fill="#603813"/><path d="m63.46 68a1.76 1.76 0 0 1 -3 1.9c-.52-.82-1.49-3.81-.67-4.34s3.15 1.59 3.67 2.44z" fill="#603813"/><g opacity=".1"><path d="m92.35 49.93c0 25.39-18.95 46-42.34 46a40.42 40.42 0 0 1 -28.66-12.16 39.7 39.7 0 0 0 22.65 7.13c23.39 0 42.34-20.58 42.34-46a47.68 47.68 0 0 0 -13.68-33.81c11.84 8.15 19.69 22.5 19.69 38.84z"/></g><g fill="#603813"><path d="m56.38 71.23a1.76 1.76 0 1 1 -3.47.62c-.17-.95.06-4.09 1-4.26s2.29 2.68 2.47 3.64z"/><path d="m46.77 72.93a1.76 1.76 0 0 1 -3.36-1.06c.29-.93 2-3.59 2.88-3.3s.77 3.43.48 4.36z"/><path d="m39.72 69.6a1.76 1.76 0 0 1 -2.72-2.26c.62-.75 3.18-2.58 3.92-2s-.58 3.51-1.2 4.26z"/><path d="m67.61 36.71a1.76 1.76 0 0 1 2 2.91c-.8.55-3.75 1.62-4.3.81s1.5-3.17 2.3-3.72z"/><path d="m71.1 43.69a1.76 1.76 0 0 1 .74 3.44c-1 .21-4.09.07-4.3-.88s2.61-2.36 3.56-2.56z"/><path d="m27.75 47a1.76 1.76 0 1 1 .67-3.45c.95.18 3.79 1.53 3.6 2.49s-3.32 1.1-4.27.96z"/><path d="m30.26 39.57a1.76 1.76 0 0 1 1.94-2.94c.81.53 2.92 2.86 2.39 3.68s-3.51-.2-4.33-.74z"/><path d="m36.14 32.67a1.76 1.76 0 1 1 3-1.89c.52.82 1.48 3.81.66 4.33s-3.14-1.62-3.66-2.44z"/><path d="m43.24 29.42a1.76 1.76 0 1 1 3.46-.61c.17 1-.07 4.09-1 4.26s-2.29-2.69-2.46-3.65z"/><path d="m52.84 27.75a1.76 1.76 0 1 1 3.36 1.06c-.29.93-2 3.59-2.89 3.3s-.76-3.43-.47-4.36z"/><path d="m59.89 31.1a1.76 1.76 0 1 1 2.7 2.26c-.62.75-3.18 2.57-3.93 2s.6-3.51 1.23-4.26z"/></g></svg>