<svg id="Layer_1" height="512" viewBox="0 0 100 100" width="512" xmlns="http://www.w3.org/2000/svg" data-name="Layer 1"><path d="m54.58 30.69s6.61-13.28 11.75-17.64c3.56-3 2.11-2.91-.51-2.62s-4.26-1.16-5.62-.87-2.72 3.44-2.53 5.61-2.41 1.47-3.29 3.4-2.9 7.17-2.32 8.92a8.15 8.15 0 0 0 2.52 3.2z" fill="#39b54a"/><path d="m56.16 18.81c.26 3.71-1.94 8.89-3.41 10.39a3.84 3.84 0 0 1 -5.4 0c-1.47-1.5-3.67-6.68-3.41-10.39.06-.91 1.19-1.65 1.11-2.29-.37-3.22-2.57-3.52-.05-7.6 1.75-2.82 4.23-3 4.91-3.84a.21.21 0 0 1 .32 0 6.08 6.08 0 0 0 1.72 1 7.48 7.48 0 0 1 3.17 2.84c2.51 4.05.31 4.38-.06 7.6-.06.63 1.04 1.38 1.1 2.29z" fill="#39b54a"/><g opacity=".1"><path d="m61.58 9.69c-1.23.69-2.36 3.53-2.19 5.48.19 2.14-2.42 1.47-3.29 3.4s-2.9 7.18-2.32 8.92a6.26 6.26 0 0 0 1.35 2.12l-.55 1.08a8.24 8.24 0 0 1 -2.52-3.2c-.58-1.74 1.45-7 2.32-8.92s3.48-1.26 3.29-3.4 1.17-5.32 2.53-5.61a2.94 2.94 0 0 1 1.38.13z"/></g><path d="m49.18 38.5.57-32.6a.29.29 0 1 1 .57 0l.58 32.6a3.14 3.14 0 0 1 -1.72 0z" fill="#8cc63f"/><path d="m53.78 38.8s-1.67-1.49 2.89-11.09a57.21 57.21 0 0 1 11.79-16.71.28.28 0 0 0 -.4 0 56.66 56.66 0 0 0 -12.48 16.46c-4.94 10-2.93 11.67-2.68 11.83.1.03 1.01-.4.88-.49z" fill="#8cc63f"/><path d="m45.59 30.33s-6.69-13.66-11.83-18c-3.56-3-2.1-2.9.51-2.61s4.27-1.16 5.62-.87 2.72 3.48 2.53 5.61 2.41 1.46 3.29 3.4 3 7.56 2.39 9.3a8.08 8.08 0 0 1 -2.51 3.17z" fill="#39b54a"/><g opacity=".1"><path d="m48.1 27.13a8 8 0 0 1 -2.51 3.2l-.35-.7a6.74 6.74 0 0 0 1.76-2.5c.58-1.74-1.53-7.36-2.4-9.3s-3.48-1.27-3.28-3.4-1.1-5.13-2.41-5.57a2.37 2.37 0 0 1 1 0c1.36.29 2.72 3.48 2.53 5.61s2.42 1.46 3.29 3.4 2.95 7.52 2.37 9.26z"/></g><path d="m46.31 38.06s1.69-1.5-2.89-11.06a57.21 57.21 0 0 0 -11.79-16.72.29.29 0 0 1 .4 0 57 57 0 0 1 12.48 16.43c4.94 10 2.93 11.68 2.68 11.83-.05.03-1.01-.4-.88-.48z" fill="#8cc63f"/><path d="m49.76 95s-1.32-9.38-3.95-12.4c-1.41-1.62-2.39-6.86-2.39-8.86l-.74-32.07a7.68 7.68 0 0 1 7.08-7.08 7.68 7.68 0 0 1 7.08 7.08l-.75 32.07c0 2.05-1.13 7.24-2.47 9-2.35 2.97-2.41 12.26-3.86 12.26z" fill="#ccc"/><g opacity=".1"><path d="m51.1 91.36c-.38 2.06-.75 3.64-1.34 3.64 0 0-1.32-9.38-3.95-12.4-1.41-1.62-2.39-6.86-2.39-8.86l-.74-32.07a7.68 7.68 0 0 1 7.08-7.08 5.63 5.63 0 0 1 1 .09c-3.15.59-6.08 3.82-6.08 7l.74 32.07c0 2 1 7.24 2.39 8.86 1.55 1.77 2.65 5.77 3.29 8.75z"/></g></svg>