<svg id="Layer_1" height="512" viewBox="0 0 100 100" width="512" xmlns="http://www.w3.org/2000/svg" data-name="Layer 1"><path d="m60.16 13.59s-3.57 9.52 19.62 28.18c15.22 12.23 15.98 44.82-11.84 49.77-28.25.67-26.65-27.65-21.43-46.44 4.49-16.1 13.64-31.51 13.64-31.51z" fill="#c7b299"/><g opacity=".1"><path d="m71 90.85c-1 .27-2 .5-3 .69-28.25.67-26.65-27.65-21.43-46.44 3.13-11.28 8.56-22.2 11.54-27.74.02 3.85 2.42 12.64 18.29 26.94 12.72 11.43 13.52 37.91-5.4 46.55z"/></g><path d="m55.34 15.09s-4.08 9.31 18.06 29.21c14.5 13 13.51 45.63-14.55 49.05-28.24-.88-25.1-29.07-18.85-47.54 5.35-15.81 15.34-30.72 15.34-30.72z" fill="#c7b299"/><path d="m39.84 13.59s3.57 9.52-19.62 28.18c-15.22 12.23-15.98 44.82 11.84 49.77 28.25.67 26.65-27.65 21.43-46.44-4.49-16.1-13.64-31.51-13.64-31.51z" fill="#c7b299"/><g opacity=".1"><path d="m32.06 91.54c-1.06-.19-2.06-.42-3.06-.69-18.92-8.64-18.12-35.12-5.4-46.55 15.87-14.3 18.27-23.09 18.4-26.94 3 5.54 8.41 16.46 11.54 27.74 5.17 18.79 6.77 47.11-21.48 46.44z"/></g><path d="m44.66 15.09s4.08 9.31-18.06 29.21c-14.5 13-13.51 45.63 14.55 49.05 28.24-.88 25.1-29.07 18.85-47.54-5.35-15.81-15.34-30.72-15.34-30.72z" fill="#c7b299"/><g opacity=".1"><path d="m59.09 93.1a32.09 32.09 0 0 0 3.4-.59c16.38-8.15 17.51-34.75 5.67-46.45a57.8 57.8 0 0 1 -15.07-27.27c-.61 1-1.3 2.16-2.05 3.47a58.06 58.06 0 0 1 -10.11 21.34c-.25.65-.48 1.3-.7 2-6.23 18.4-9.38 46.62 18.86 47.5z"/></g><g opacity=".1"><path d="m41.15 93.35a32.09 32.09 0 0 1 -3.4-.59c-16.38-8.15-17.51-34.76-5.67-46.45a57.8 57.8 0 0 0 15.07-27.31c.61 1 1.3 2.16 2.05 3.47a58.06 58.06 0 0 0 10.11 21.38c.25.65.48 1.3.7 2 6.24 18.43 9.38 46.62-18.86 47.5z"/></g><path d="m49.83 15a57.53 57.53 0 0 1 -15 31.72c-13.16 13.74-8.83 46.51 15.03 48.34 23.86-1.83 28.13-34.6 15-48.35a57.58 57.58 0 0 1 -15.03-31.71" fill="#c7b299"/></svg>