<svg id="Layer_1" height="512" viewBox="0 0 100 100" width="512" xmlns="http://www.w3.org/2000/svg" data-name="Layer 1"><path d="m95 62.2c0 3.78.2 7.42-1.4 10.79-5.85 12.36-23.63 21.2-42 21.2s-34.16-9-39.94-21.42c-1.53-3.31-6.66-6.87-6.66-10.57s5.17-7.44 6.77-10.82c5.87-12.38 21.49-21.17 39.83-21.17s36.31 8.93 42.09 21.4c1.53 3.31 1.31 6.88 1.31 10.59z" fill="#f7ce23"/><g opacity=".5"><path d="m67.36 39.87a1.39 1.39 0 0 1 -.4-.06 57 57 0 0 0 -22.42-1.65 1.5 1.5 0 1 1 -.39-3 59.76 59.76 0 0 1 23.61 1.73 1.5 1.5 0 0 1 -.4 2.95z" fill="#f2f2f2"/></g><g opacity=".5"><path d="m26.82 43.77a1.5 1.5 0 0 1 -.72-2.77 49.11 49.11 0 0 1 8.65-3.68 1.5 1.5 0 0 1 .91 2.86 45.66 45.66 0 0 0 -8.12 3.45 1.46 1.46 0 0 1 -.72.14z" fill="#f2f2f2"/></g><g opacity=".2"><path d="m95 62.2c0 3.78.2 7.42-1.4 10.79-5.85 12.36-23.63 21.2-42 21.2s-34.16-9-39.94-21.42c-1.53-3.31-6.66-6.87-6.66-10.57a2.72 2.72 0 0 1 0-.28 25.73 25.73 0 0 1 3.65 4.85c5.79 12.47 21.49 21.42 39.95 21.42s36.14-8.84 42-21.2c1.6-3.37 1.4-7 1.4-10.79a34.51 34.51 0 0 0 -.54-8.44 24.54 24.54 0 0 1 2.24 3.85c1.52 3.31 1.3 6.88 1.3 10.59z"/></g></svg>