<svg id="Layer_1" height="512" viewBox="0 0 100 100" width="512" xmlns="http://www.w3.org/2000/svg" data-name="Layer 1"><path d="m65.21 76.48h-4.16a11.26 11.26 0 0 1 -11.23-11.23l-1.82-32.9a11.26 11.26 0 0 1 11.18-11.23h7.91a11.27 11.27 0 0 1 11.23 11.23l-1.88 32.9a11.26 11.26 0 0 1 -11.23 11.23z" fill="#ed1c24"/><path d="m39.17 76.48h-4.17a11.26 11.26 0 0 1 -11.22-11.23l-1.87-32.9a11.26 11.26 0 0 1 11.23-11.23h7.86a11.26 11.26 0 0 1 11.27 11.23l-1.87 32.9a11.26 11.26 0 0 1 -11.23 11.23z" fill="#ed1c24"/><g opacity=".2"><path d="m52.15 34.48-1.75 30.77a11.26 11.26 0 0 1 -11.23 11.23h-4.17a11.26 11.26 0 0 1 -11.22-11.23l-1.87-32.9a11.17 11.17 0 0 1 3.75-8.35 12.72 12.72 0 0 1 4.42-.78h9.17a13.05 13.05 0 0 1 12.9 11.26z"/></g><g opacity=".2"><path d="m78.31 32.35-1.87 32.9a11.26 11.26 0 0 1 -11.23 11.23h-4.16a11.29 11.29 0 0 1 -10.68-7.75l-1.84-32.49a13.05 13.05 0 0 1 13-13h9.16a12.79 12.79 0 0 1 3.52.49 11.2 11.2 0 0 1 4.1 8.62z"/></g><path d="m49.66 34.34a3.24 3.24 0 0 1 -3.25-3.25c0-14.39 9.11-26.09 20.31-26.09a3.26 3.26 0 0 1 0 6.51c-7.61 0-13.8 8.78-13.8 19.58a3.25 3.25 0 0 1 -3.26 3.25z" fill="#006837"/><g opacity=".2"><path d="m49.66 31.08c0 1.21-3.25 1.81-3.25 0 0-14.37 9.1-26.08 20.3-26.08a3.07 3.07 0 0 1 1 .16c-10.12 1.44-18.05 12.51-18.05 25.92z"/></g><path d="m68.55 89.57h-4.83a13.05 13.05 0 0 1 -13-13l-2.19-38.16a13.06 13.06 0 0 1 13-13h9.17a13.06 13.06 0 0 1 13 13l-2.13 38.14a13.05 13.05 0 0 1 -13.02 13.02z" fill="#ed1c24"/><path d="m51.18 38.41-2.18 38.15a13.06 13.06 0 0 1 -13 13h-4.84a13.06 13.06 0 0 1 -13-13l-2.16-38.15a13.06 13.06 0 0 1 13-13h9.17a13 13 0 0 1 13 13z" fill="#ed1c24"/><g opacity=".2"><path d="m51.18 38.41-2.18 38.15a13.06 13.06 0 0 1 -13 13h-1.49a12.9 12.9 0 0 1 -3.35-8.68l-2.16-38.13a13.06 13.06 0 0 1 13-13h5.83a12.93 12.93 0 0 1 3.35 8.66z"/></g><g opacity=".2"><path d="m71.8 42.75-2.17 38.15c0 2.83-1.62 6.37-3.17 8.51h-2.37c-7.16 0-12.31-6.77-12.31-13.94l-2.17-38.15c0-2.83-.07-5.17 2.28-7.64l6.89.05a13.06 13.06 0 0 1 13.02 13.02z"/></g><path d="m52.27 95h-4.83a13.06 13.06 0 0 1 -13-13l-2.19-38.17a13.06 13.06 0 0 1 13-13h9.17a13.05 13.05 0 0 1 13 13l-2.13 38.17a13.05 13.05 0 0 1 -13.02 13z" fill="#ed1c24"/><g opacity=".5"><path d="m38.4 72.15a1.5 1.5 0 0 1 -1.5-1.41l-.72-12.74a1.5 1.5 0 0 1 1.41-1.58 1.52 1.52 0 0 1 1.59 1.41l.72 12.72a1.5 1.5 0 0 1 -1.41 1.58z" fill="#f2f2f2"/></g><g opacity=".5"><path d="m37.3 53.11a1.5 1.5 0 0 1 -1.5-1.43l-.18-3.85a1.5 1.5 0 1 1 3-.14l.19 3.85a1.51 1.51 0 0 1 -1.43 1.57z" fill="#f2f2f2"/></g></svg>