<svg id="Layer_1" height="512" viewBox="0 0 100 100" width="512" xmlns="http://www.w3.org/2000/svg" data-name="Layer 1"><path d="m56.3 65.33.39 18.53a9.84 9.84 0 0 1 -9.83 10.14 9.83 9.83 0 0 1 -9.86-10.36l.9-22.53-18.76-18 6.23-6.5 16.42 15.72-.4-15.69 9-.23.49 19.29 17.7-12.48 5.8 6.88z" fill="#8cc63f"/><g opacity=".5"><path d="m53 86.7a.92.92 0 0 1 -.36-.07 1 1 0 0 1 -.58-1.29 8.78 8.78 0 0 0 .59-3.44l-.15-8.9a1 1 0 1 1 2 0l.19 8.86a10.85 10.85 0 0 1 -.69 4.2 1 1 0 0 1 -1 .64z" fill="#f2f2f2"/></g><g opacity=".5"><path d="m53.4 68.93a1 1 0 0 1 -1-1l-.1-4.6a1 1 0 1 1 2 0l.1 4.6a1 1 0 0 1 -1 1z" fill="#f2f2f2"/></g><g opacity=".2"><path d="m48.36 93.89a10.59 10.59 0 0 1 -1.5.11 9.83 9.83 0 0 1 -9.86-9.83c0-.17 0-.35 0-.53l.9-22.53-18.76-18 6.23-6.5 1.63 1.5-4.79 5 18.76 18-.97 22.53v.53a9.84 9.84 0 0 0 8.36 9.72z"/><path d="m41.39 36.64 9-.23v.08l-6 .15.48 18.64-3.08-2.95z"/><path d="m69.7 44.55-18.77 13.23-.05-2.08 17.7-12.48z"/></g><path d="m95 42c0 3.87-4.29 7-9.58 7a11.69 11.69 0 0 1 -1.79-.13c-1.48 2.47-4.86 4.19-8.78 4.19-4.46 0-8.21-2.23-9.28-5.25a12.21 12.21 0 0 1 -5.35 1.19c-4.53 0-8.31-2.29-9.32-5.37-.39 0-.79.06-1.19.07-1 3-4.81 5.3-9.29 5.3a11.69 11.69 0 0 1 -1.79-.13c-1.48 2.47-4.86 4.19-8.78 4.19-4.46 0-8.21-2.23-9.28-5.25a12.21 12.21 0 0 1 -5.35 1.19c-5.3 0-9.59-3.14-9.59-7s4.29-7 9.59-7a12.85 12.85 0 0 1 1.4.08 7.34 7.34 0 0 1 3.21-3.43 6.16 6.16 0 0 1 -.2-1.55c0-4.76 5.28-8.62 11.79-8.62a16.42 16.42 0 0 1 1.73.09c1.48-3.53 6-6.09 11.27-6.09a13.86 13.86 0 0 1 9.08 3.11 17.37 17.37 0 0 1 1.92-.11 13.87 13.87 0 0 1 9.11 3.14c5.5.72 9.68 4.25 9.68 8.48v.49a9.94 9.94 0 0 1 4 2.08 11.46 11.46 0 0 1 1.56-.1 11.18 11.18 0 0 1 7.38 2.55c4.45.56 7.85 3.43 7.85 6.88z" fill="#39b54a"/><g opacity=".2"><path d="m73.82 27.88a12.94 12.94 0 0 0 -7.29-3.28 13.87 13.87 0 0 0 -9.11-3.14 17.37 17.37 0 0 0 -1.92.11 13.86 13.86 0 0 0 -9.08-3.11c-5.3 0-9.79 2.56-11.27 6.09a16.42 16.42 0 0 0 -1.73-.09c-6.51 0-11.79 3.86-11.79 8.62a6.16 6.16 0 0 0 .2 1.55 7.34 7.34 0 0 0 -3.21 3.43 12.85 12.85 0 0 0 -1.4-.08c-5.3 0-9.59 3.14-9.59 7a5.24 5.24 0 0 0 .21 1.48 6 6 0 0 1 -2.21-4.46c0-3.87 4.29-7 9.59-7a12.85 12.85 0 0 1 1.4.08 7.34 7.34 0 0 1 3.21-3.43 6.16 6.16 0 0 1 -.2-1.55c0-4.76 5.28-8.62 11.79-8.62a16.42 16.42 0 0 1 1.73.09c1.48-3.53 6-6.09 11.27-6.09a13.86 13.86 0 0 1 9.08 3.11 17.37 17.37 0 0 1 1.92-.11 13.87 13.87 0 0 1 9.11 3.14c4.52.57 8.14 3.06 9.29 6.26z"/></g><g opacity=".2"><path d="m94.78 40.51a10.65 10.65 0 0 0 -5.66-2.41 11.18 11.18 0 0 0 -7.38-2.55 11.46 11.46 0 0 0 -1.56.1 9.94 9.94 0 0 0 -4-2.08c0-.16 0-.32 0-.49a6.26 6.26 0 0 0 -.29-1.88 9.06 9.06 0 0 1 2.25 1.45 11.46 11.46 0 0 1 1.56-.1 11.18 11.18 0 0 1 7.38 2.55c3.86.49 6.92 2.65 7.7 5.41z"/></g></svg>