<svg id="Capa_1" enable-background="new 0 0 497 497" height="512" viewBox="0 0 497 497" width="512" xmlns="http://www.w3.org/2000/svg"><g><g><g><g><path d="m27.156 86.829h168.049v52.081h-168.049z" fill="#90aecf" transform="matrix(.974 .228 -.228 .974 28.708 -22.404)"/><path d="m77.264 78.168c-6.489 9.072-14.17 17.077-25.426 17.692-7.26.397-14.997-.225-22.334-1.407l-6.074 24.584 163.609 38.37 11.892-50.705z" fill="#7c96b3"/><path d="m14.652 138.136-.604-.142c-9.786-2.294-15.858-12.088-13.563-21.873l12.988-55.379c2.295-9.785 12.088-15.858 21.873-13.563l.604.142c9.785 2.295 15.858 12.088 13.563 21.873l-12.988 55.379c-2.295 9.786-12.088 15.858-21.873 13.563z" fill="#525e77"/></g></g><g><g><path d="m7.206 87.46-6.722 28.661c-2.295 9.786 3.777 19.579 13.563 21.874l.604.142c9.785 2.295 19.579-3.777 21.873-13.563l6.798-28.984c-7.17.846-30.759-3.676-36.116-8.13z" fill="#3b4456"/></g></g></g><g><g><g><path d="m301.795 86.829h168.049v52.081h-168.049z" fill="#90aecf" transform="matrix(-.974 .228 -.228 -.974 787.218 134.663)"/><path d="m419.736 78.168c6.489 9.072 14.17 17.077 25.426 17.692 7.26.397 14.997-.225 22.334-1.407l6.074 24.584-163.609 38.37-11.892-50.705z" fill="#7c96b3"/><path d="m482.348 138.136.604-.142c9.785-2.295 15.858-12.088 13.563-21.873l-12.988-55.379c-2.295-9.785-12.088-15.858-21.873-13.563l-.604.142c-9.785 2.295-15.858 12.088-13.563 21.873l12.988 55.379c2.295 9.786 12.088 15.858 21.873 13.563z" fill="#525e77"/></g></g><g><g><path d="m489.794 87.46 6.722 28.661c2.295 9.786-3.777 19.579-13.563 21.874l-.604.142c-9.785 2.295-19.579-3.777-21.873-13.563l-6.798-28.984c7.171.846 30.759-3.676 36.116-8.13z" fill="#3b4456"/></g></g></g><path d="m101.13 415.424c-6.154 12.899-10.678 26.725-13.299 41.213-2.37 13.098 7.864 25.103 21.175 25.103h50.828c-8.962-27.367-29.71-55.612-58.704-66.316z" fill="#76e7d6"/><path d="m397.292 414.292c-25.523 14.8-46.968 35.373-60.126 67.448h52.802c13.311 0 23.545-12.005 21.175-25.103-2.698-14.914-7.418-29.123-13.851-42.345z" fill="#76e7d6"/><path d="m397.292 414.292c-26.644-54.76-82.813-92.503-147.805-92.503-65.44 0-121.94 38.263-148.357 93.636 23.203 18.49 43.183 41.032 58.704 66.316h177.333c15.837-25.801 36.315-48.751 60.125-67.449z" fill="#a29cde"/><path d="m249.487 321.789c-57.857 0-108.73 29.915-137.999 75.114 26.576 20.234 60.527 32.422 97.378 32.422h79.026c37.534 0 72.053-12.649 98.842-33.561-29.381-44.563-79.878-73.975-137.247-73.975z" fill="#928cd9"/><ellipse cx="68.935" cy="258.778" fill="#00d7bd" rx="46.651" ry="46.652" transform="matrix(.099 -.995 .995 .099 -195.376 301.878)"/><ellipse cx="428.065" cy="258.778" fill="#50e2ce" rx="46.651" ry="46.652" transform="matrix(.099 -.995 .995 .099 128.366 659.26)"/><path d="m285.048 401.765h-73.338c-78.572 0-142.859-64.287-142.859-142.859v-73.338c0-78.572 64.287-145.087 142.859-145.087h73.338c78.572 0 142.859 66.515 142.859 145.087v73.338c0 78.572-64.287 142.859-142.859 142.859z" fill="#76e7d6"/><path d="m165.312 48.507c-55.979 19.952-96.461 74.71-96.461 137.061l-1 73.338c0 65.103 45.135 120.399 104.963 137.444-55.215-79.028-49.142-304.341-7.502-347.843z" fill="#50e2ce"/><path d="m274.893 100.449h-52.786c-8.948 0-16.202-7.254-16.202-16.202v-52.785c0-8.948 7.254-16.202 16.202-16.202h52.786c8.948 0 16.202 7.254 16.202 16.202v52.786c0 8.948-7.254 16.201-16.202 16.201z" fill="#525e77"/><g><g><g><path d="m165.314 273.165c-4.142 0-7.5-3.358-7.5-7.5v-13.144c0-4.142 3.358-7.5 7.5-7.5s7.5 3.358 7.5 7.5v13.144c0 4.142-3.357 7.5-7.5 7.5z" fill="#333942"/></g><g><path d="m331.686 273.165c-4.142 0-7.5-3.358-7.5-7.5v-13.144c0-4.142 3.358-7.5 7.5-7.5s7.5 3.358 7.5 7.5v13.144c0 4.142-3.358 7.5-7.5 7.5z" fill="#333942"/></g></g><g><path d="m248.428 281.228c-9.255 0-18.484-3.106-27.821-9.32-3.449-2.294-4.384-6.95-2.089-10.398 2.294-3.449 6.95-4.385 10.398-2.089 13.648 9.081 25.372 9.076 39.202-.022 3.46-2.276 8.111-1.317 10.388 2.144 2.276 3.46 1.317 8.111-2.144 10.388-9.422 6.197-18.69 9.297-27.934 9.297z" fill="#333942"/></g></g><path d="m363.83 315.96c2.881-2.976 2.804-7.724-.172-10.605-2.977-2.882-7.725-2.803-10.605.172-3.622 3.741-7.425 7.317-11.375 10.729-1.698-2.654-3.169-5.451-4.364-8.361-1.573-3.832-5.955-5.663-9.787-4.089s-5.663 5.955-4.089 9.787c1.728 4.208 3.9 8.234 6.441 12.015-5.533 4.02-11.297 7.722-17.25 11.085-1.702-2.657-3.175-5.458-4.372-8.374-1.573-3.832-5.955-5.663-9.787-4.089s-5.663 5.955-4.089 9.787c1.353 3.296 2.978 6.48 4.838 9.524-3.522 1.614-7.088 3.125-10.703 4.499-3.872 1.472-5.817 5.804-4.346 9.676 1.139 2.995 3.988 4.837 7.012 4.837.886 0 1.787-.158 2.664-.491 5.017-1.907 9.958-4.036 14.807-6.366 3.649 3.751 7.721 7.086 12.127 9.895 1.25.797 2.646 1.177 4.025 1.177 2.477 0 4.901-1.226 6.331-3.469 2.227-3.492 1.201-8.129-2.292-10.356-2.191-1.397-4.273-2.965-6.234-4.673 5.841-3.42 11.505-7.149 16.959-11.157 3.156 3.008 6.596 5.714 10.268 8.055 1.25.797 2.646 1.177 4.025 1.177 2.477 0 4.901-1.226 6.331-3.469 2.227-3.492 1.201-8.129-2.292-10.356-2.277-1.452-4.439-3.084-6.467-4.871 4.305-3.719 8.45-7.613 12.396-11.689z" fill="#00d7bd"/><path d="m425.765 160.857-55.097-.006v-9.472c0-4.142-3.358-7.5-7.5-7.5s-7.5 3.358-7.5 7.5v9.472h-61.445v-9.472c0-4.142-3.358-7.5-7.5-7.5s-7.5 3.358-7.5 7.5v9.472h-61.445v-9.472c0-4.142-3.358-7.5-7.5-7.5s-7.5 3.358-7.5 7.5v9.472h-61.445v-9.472c0-4.142-3.358-7.5-7.5-7.5s-7.5 3.358-7.5 7.5v9.472l-55.345-.003c-1.106 4.78-1.807 11.195-1.807 15l57.152.003v9.473c0 4.142 3.358 7.5 7.5 7.5s7.5-3.358 7.5-7.5v-9.473h61.445v9.473c0 4.142 3.358 7.5 7.5 7.5s7.5-3.358 7.5-7.5v-9.473h61.445v9.473c0 4.142 3.358 7.5 7.5 7.5s7.5-3.358 7.5-7.5v-9.473h61.445v9.473c0 4.142 3.358 7.5 7.5 7.5s7.5-3.358 7.5-7.5v-9.473l56.91-.003c-.192-4.815-.734-10.12-1.813-14.991z" fill="#00d7bd"/><path d="m288.84 75.947c-12.364-1.884-25.214-6.01-35.297-13.592-10.458-7.863-14.464-17.588-15.477-30.331-.442-5.557-.419-11.164-.113-16.764h-15.847c-8.948 0-16.202 7.254-16.202 16.202v52.785c0 8.948 7.254 16.202 16.202 16.202h52.786c8.948 0 16.202-7.254 16.202-16.202v-7.975c-.757-.104-1.511-.212-2.254-.325z" fill="#3b4456"/></g></svg>