<svg id="Capa_1" enable-background="new 0 0 497.258 497.258" height="512" viewBox="0 0 497.258 497.258" width="512" xmlns="http://www.w3.org/2000/svg"><g><g><path d="m458.422 454.524c-2.094 5.615-7.068 9.856-12.67 11.986s-11.78 2.334-17.73 1.614c-9.804-1.187-19.298-4.849-27.361-10.552-5.309-7.974-20.321-30.933-13.692-41.084 5.684-8.704 15.288-19.998 25.923-27.245 12.931 18.788 38.872 55.072 45.53 65.281z" fill="#c1f1ff"/><path d="m412.89 389.238c.568-.4 1.143-.792 1.724-1.176 11.913-7.871 27.214-11.934 40.694-7.224 15.982 5.584 25.565 21.576 33.323 36.624 5.949 11.539 11.717 25.065 6.735 37.054-4.154 9.996-16.056 16.07-26.588 13.567-10.155-2.414-17.862-12.523-17.693-22.922.013-.802-.279-1.574-.773-2.206-4.578-5.852-27.043-34.856-37.422-53.717z" fill="#e7faff"/></g><g><path d="m38.836 454.524c2.094 5.615 7.068 9.856 12.67 11.986s11.78 2.334 17.73 1.614c9.804-1.187 19.298-4.849 27.361-10.552 5.309-7.974 20.321-30.933 13.692-41.084-5.684-8.704-15.288-19.998-25.923-27.245-12.931 18.788-38.872 55.072-45.53 65.281z" fill="#c1f1ff"/><path d="m84.368 389.238c-.568-.4-1.143-.792-1.724-1.176-11.913-7.871-27.214-11.934-40.694-7.224-15.982 5.584-25.565 21.576-33.323 36.624-5.948 11.538-11.716 25.065-6.735 37.053 4.154 9.996 16.056 16.07 26.588 13.567 10.155-2.414 17.862-12.523 17.693-22.922-.013-.802.279-1.574.773-2.206 4.578-5.851 27.043-34.855 37.422-53.716z" fill="#e7faff"/></g><path d="m412.696 461.323c-14.081-77.831-84.218-136.136-163.199-136.136-78.984 0-149.115 58.284-163.199 136.136-2.392 13.223 7.939 25.342 21.377 25.342h283.645c13.437.001 23.768-12.119 21.376-25.342z" fill="#5ad6ff"/><path d="m249.497 325.188c-54.416 0-105.702 27.166-135.207 70.336 26.058 20.199 59.228 32.347 95.236 32.347h77.704c36.665 0 70.398-12.597 96.666-33.462-30.368-43.112-80.464-69.221-134.399-69.221z" fill="#00bdfd"/><g><path d="m249.497 443.601c-4.142 0-7.5-3.358-7.5-7.5v-33.174c0-4.142 3.358-7.5 7.5-7.5s7.5 3.358 7.5 7.5v33.174c-.001 4.142-3.358 7.5-7.5 7.5z" fill="#c1f1ff"/></g><ellipse cx="67.221" cy="261.575" fill="#ffbead" rx="47.097" ry="47.097" transform="matrix(.099 -.995 .995 .099 -199.705 302.694)"/><ellipse cx="429.779" cy="261.575" fill="#ffcbbe" rx="47.097" ry="47.097" transform="matrix(.099 -.995 .995 .099 127.127 663.488)"/><path d="m285.397 405.927h-74.038c-79.322 0-144.223-64.9-144.223-144.223v-48.197c0-79.322 64.9-146.472 144.223-146.472h74.038c79.322 0 144.223 67.149 144.223 146.472v48.197c-.001 79.323-64.901 144.223-144.223 144.223z" fill="#ffddcf"/><path d="m285.397 67.035h-74.038c-79.322 0-144.223 67.149-144.223 146.472l-1 48.197c0 79.322 65.9 144.223 145.223 144.223-104.145-147.635-6.948-276.797 74.038-338.892z" fill="#ffcbbe"/><g><g><g><path d="m171.155 269.393h-13.269c-4.142 0-7.5-3.358-7.5-7.5s3.358-7.5 7.5-7.5h13.269c4.142 0 7.5 3.358 7.5 7.5s-3.358 7.5-7.5 7.5z" fill="#333942"/></g><g><path d="m339.114 269.393h-13.27c-4.143 0-7.5-3.358-7.5-7.5s3.357-7.5 7.5-7.5h13.27c4.143 0 7.5 3.358 7.5 7.5s-3.357 7.5-7.5 7.5z" fill="#333942"/></g></g><g><path d="m248.428 284.167c-9.33 0-18.635-3.131-28.048-9.396-3.448-2.294-4.383-6.95-2.088-10.399 2.294-3.448 6.949-4.384 10.399-2.088 13.806 9.188 25.667 9.181 39.654-.022 3.46-2.276 8.109-1.318 10.388 2.144 2.276 3.46 1.316 8.111-2.144 10.388-9.499 6.248-18.843 9.373-28.161 9.373z" fill="#333942"/></g></g><path d="m404.97 159.1c13.936 1.043 28.18-2.574 39.929-10.14 18.639-12.002 10.495-26.587-7.055-31.294-50.588-13.569-85.55-76.878-138.616-76.47-10.363.08-20.689 3.409-29.85 8.27-13.205 7.007-29.01 6.703-42.281-.179-8.933-4.632-19.1-8.014-29.081-8.091-53.106-.409-88.075 62.913-138.616 76.47-17.549 4.707-25.694 19.292-7.055 31.294 11.749 7.566 25.994 11.183 39.929 10.14z" fill="#ffbe6b"/><path d="m399.693 98.078c-32.593-23.478-61.698-57.18-100.465-56.882-10.363.08-20.689 3.409-29.85 8.27-13.205 7.007-29.01 6.703-42.281-.179-8.933-4.632-19.1-8.014-29.081-8.091-38.792-.299-67.908 33.406-100.483 56.881h302.16z" fill="#ffaa3e"/><g><path d="m101.046 142.98c-4.389 17.483-1.603 36.483 6.916 52.33 4.758 8.852 17.497 9.109 22.326.295 8.549-15.605 24.034-30.36 41.282-37.109" fill="#ffbe6b"/></g><g><path d="m103.61 185.626c1.221 3.326 2.675 6.566 4.352 9.684 4.758 8.852 17.497 9.109 22.326.295 8.549-15.605 24.034-30.36 41.282-37.109l-9.015-18.225c-.001 0-45.624 14.304-58.945 45.355z" fill="#ffaa3e"/></g><path d="m158.987 140.271c19.112 42.065 65.793 71.777 112.092 82.934 9.104 2.194 18.388-2.848 21.461-11.693 5.753-16.56 14.927-31.397 26.613-44.62 4.391-4.968 11.689-6.223 17.393-2.843 12.685 7.516 23.242 18.506 30.365 31.473 4.873 8.871 17.559 8.732 22.356-.181 8.532-15.853 11.324-34.866 6.932-52.36" fill="#ffbe6b"/><path d="m398.286 10.592c15.522 0 28.222 12.7 28.222 28.222 0 15.522-12.7 28.222-28.222 28.222h-299.572c-15.522 0-28.222-12.7-28.222-28.222 0-15.522 12.7-28.222 28.222-28.222z" fill="#fff18f"/><path d="m70.51 39.814c.533 15.063 13.018 27.221 28.204 27.221h299.572c15.186 0 27.671-12.159 28.204-27.221z" fill="#ffde83"/></g></svg>