<svg id="Capa_1" enable-background="new 0 0 497 497" height="512" viewBox="0 0 497 497" width="512" xmlns="http://www.w3.org/2000/svg"><g><g><g><ellipse cx="53" cy="226.24" fill="#ffbead" rx="48.349" ry="48.349" transform="matrix(.099 -.995 .995 .099 -177.362 256.688)"/><ellipse cx="425.196" cy="226.24" fill="#ffddcf" rx="48.349" ry="48.349" transform="matrix(.099 -.995 .995 .099 158.159 627.073)"/></g></g><path d="m407.658 431.298c-14.455-79.9-86.458-139.755-167.538-139.755-81.083 0-153.079 59.833-167.538 139.755-2.456 13.575 8.151 26.016 21.945 26.016h291.185c13.796 0 24.402-12.442 21.946-26.016z" fill="#76e7d6"/><path d="m407.658 431.298c-14.455-79.9-86.458-139.755-167.538-139.755-67.975 0-129.554 42.055-156.21 102.74 25.295 4.874 75.735 39.881 98.463 63.031h203.34c13.795 0 24.401-12.442 21.945-26.016z" fill="#50e2ce"/><g><path d="m52.913 150.366c0-19.966 4.014-39.176 11.26-56.808 110.364-83.095 277.244-62.929 311.686-54.413 30.143 27.766 49.172 67.707 49.172 111.221v76.006c0 81.431-66.626 148.056-148.056 148.056h-76.006c-81.431 0-148.056-65.625-148.056-147.056v-77.006z" fill="#e7faff"/><g><path d="m171.904 328.287c-10.516-36.508-18.054-74.886-20.542-112.813-2.638-40.213 4.022-80.267 15.374-118.77 5.556-18.846 11.972-37.619 19.33-56.001-42.249 9.021-85.195 25.224-121.894 52.855-7.247 17.631-11.26 36.842-11.26 56.808v77.006c0 77.179 58.493 141.355 135.433 146.527-6.763-14.778-12.033-30.312-16.441-45.612z" fill="#c1f1ff"/></g><path d="m171.844 88.518c25.747-24.18 42.354-37.303 78.046-24.232 33.043 12.101 59.651 21.545 92.274 1.718 12.296-7.473 23.09-17.114 33.695-26.859-26.265-24.194-60.967-39.145-98.884-39.145h-76.006c-61.465 0-114.487 39.279-136.796 93.558 10.607 8.188 23.124 13.909 36.326 16.235 25.34 4.465 52.589-3.66 71.345-21.275z" fill="#fd5c6f"/><path d="m204.343 0h-3.374c-61.465 0-114.487 39.279-136.796 93.558 10.607 8.188 23.124 13.909 36.326 16.235 23.761 4.187 49.2-2.697 67.742-18.094 9.499-31.338 21.382-62.399 36.102-91.699z" fill="#f9475e"/></g><g><circle cx="152.146" cy="196.923" fill="#ffddcf" r="42.941"/><g><path d="m151.363 215.474c-1.35-20.586-.263-41.137 2.642-61.452-.621-.027-1.232-.04-1.859-.04-23.716 0-42.941 19.225-42.941 42.941s19.225 42.941 42.941 42.941c.502 0 .987-.008 1.485-.025-.973-8.123-1.737-16.261-2.268-24.365z" fill="#ffcbbe"/></g><circle cx="326.049" cy="196.923" fill="#ffddcf" r="42.941"/></g><g><g><g><path d="m184.635 294.672c-3.415 0-6.503-2.348-7.302-5.818l-2.603-11.296c-.93-4.037 1.589-8.062 5.625-8.992 4.036-.927 8.063 1.588 8.992 5.625l2.603 11.296c.93 4.036-1.589 8.062-5.625 8.992-.566.131-1.133.193-1.69.193z" fill="#c1f1ff"/></g><g><path d="m136.207 298.365c-.251 0-.504-.013-.76-.038-4.121-.415-7.126-4.092-6.711-8.213l1.159-11.533c.415-4.121 4.078-7.122 8.213-6.712 4.121.415 7.126 4.092 6.711 8.213l-1.159 11.533c-.389 3.866-3.648 6.75-7.453 6.75z" fill="#e7faff"/></g></g><g><g><path d="m293.561 294.672c-.558 0-1.124-.063-1.69-.193-4.036-.93-6.555-4.956-5.625-8.992l2.603-11.298c.931-4.037 4.965-6.555 8.993-5.623 4.036.93 6.555 4.957 5.624 8.993l-2.603 11.294c-.8 3.471-3.887 5.819-7.302 5.819z" fill="#c1f1ff"/></g><g><path d="m341.988 298.365c-3.805 0-7.064-2.883-7.453-6.75l-1.16-11.533c-.415-4.121 2.59-7.798 6.711-8.213 4.116-.412 7.798 2.59 8.213 6.712l1.16 11.533c.415 4.121-2.59 7.798-6.711 8.213-.255.026-.509.038-.76.038z" fill="#c1f1ff"/></g></g></g><path d="m250.588 445.406c-10.035 1.387-20.818 2.77-28.34 9.556-11.073 12.646-10.43 24.654 1.929 36.024 25.179 16.929 117.522-4.087 126.566-35.541 5.555-19.32-11.383-36.764-28.671-26.681-19.746 11.517-49.326 13.579-71.484 16.642z" fill="#525e77"/><path d="m270.317 442.872c18.043-2.394 37.472-5.777 51.755-14.108 17.288-10.083 34.226 7.361 28.671 26.681-4.852 16.876-33.683 30.747-63.254 37.365-14.412-9.765-18.845-39.574-17.172-49.938z" fill="#3b4456"/><g><path d="m491.366 367.698c1.173-8.744 1.326-17.914.296-27.509-1.356-12.637-16.493-18.394-25.926-9.875-41.561 37.536-90.034 67.647-142.091 88.291-13.205 5.237-29.55 8.583-30.516 25.42-.977 17.025 6.24 39.224 23.559 45.724 8.025 3.012 16.944 2.015 25.404.631 10.24-1.675 20.7-4.128 31.098-7.335 14.067-25.938 86.047-100.422 118.176-115.347z" fill="#90aecf"/><path d="m393.153 449.48c-18.642 5.545-41.274 9.558-58.056-2.934-8.804-6.553-14.493-15.573-17.803-25.566-11.588 4.237-23.349 8.839-24.164 23.044-.977 17.025 6.24 39.224 23.559 45.724 8.025 3.012 16.945 2.015 25.404.631 10.24-1.675 20.7-4.128 31.098-7.335 4.488-8.276 14.876-21.496 27.98-36.144-2.656.911-5.326 1.779-8.018 2.58z" fill="#7c96b3"/><path d="m491.366 367.698c-28.253 2.449-84.511 54.102-98.145 71.18-11.977 15.003-19.524 31.004-20.031 44.167 56.074-17.298 110.298-56.634 118.176-115.347z" fill="#fd5c6f"/><g><path d="m451.835 427.905c-9.248 3.791-18.667 7.084-28.022 10.59-10.165 3.81-20.246 7.887-30.661 10.985-2.933.872-5.964 1.707-9.056 2.445-6.583 10.889-10.544 21.727-10.906 31.12 37.177-11.469 73.536-32.629 96.119-62.697-5.774 2.63-11.601 5.149-17.474 7.557z" fill="#f9475e"/></g></g><g><path d="m250.009 250.128h-21.823c-4.143 0-7.5-3.358-7.5-7.5s3.357-7.5 7.5-7.5h21.823c4.143 0 7.5 3.358 7.5 7.5s-3.358 7.5-7.5 7.5z" fill="#333942"/></g><g><path d="m152.146 209.74c-4.143 0-7.5-3.358-7.5-7.5v-10.634c0-4.142 3.357-7.5 7.5-7.5s7.5 3.358 7.5 7.5v10.634c0 4.142-3.358 7.5-7.5 7.5z" fill="#333942"/></g><g><path d="m326.049 209.74c-4.143 0-7.5-3.358-7.5-7.5v-10.634c0-4.142 3.357-7.5 7.5-7.5s7.5 3.358 7.5 7.5v10.634c0 4.142-3.358 7.5-7.5 7.5z" fill="#333942"/></g></g></svg>