<svg id="Capa_1" enable-background="new 0 0 497 497" height="512" viewBox="0 0 497 497" width="512" xmlns="http://www.w3.org/2000/svg"><g><path d="m477.971 452.429c-29.77-4.483-61.161 2.007-86.545 18.246l-13.686-49.108c32.24-20.228 72.968-26.23 109.756-16.66 6.516 1.695 10.55 8.223 9.266 14.833l-4.362 22.455c-1.304 6.718-7.661 11.253-14.429 10.234z" fill="#ffe1bd"/><path d="m434.287 401.596c-19.999 2.53-39.464 9.254-56.546 19.971l13.686 49.108c16.034-10.258 34.465-16.626 53.37-18.795.992-12.518-4.163-42.781-10.51-50.284z" fill="#f9cc9b"/><path d="m416.898 458.125c-14.953-82.654-89.438-144.572-173.312-144.572-83.878 0-158.355 61.896-173.312 144.572-2.54 14.042 8.431 26.913 22.702 26.913h301.221c14.27 0 25.242-12.87 22.701-26.913z" fill="#fff2cf"/><path d="m243.586 313.553c-59.644 0-116.207 30.94-146.652 79.107 28.489 17.884 63.298 28.438 100.765 28.438h89.397c38.198 0 73.718-11.036 102.511-29.56-32.214-47.205-86.826-77.985-146.021-77.985z" fill="#ffe1bd"/><g fill="#ffe1bd"><path d="m392.852 396.663c-3.726-6.192-8.009-12.188-12.842-17.738l-.925 8.01c-4.363 34.431-15.1 64.614-32.821 92.272-.032.049-.063.099-.093.148l-3.457 5.682h17.585c16.752-26.798 27.454-55.793 32.553-88.374z"/><path d="m275.169 485.038h16.7c5.786-12.078 11.053-24.221 15.818-36.472.104-.235.198-.476.277-.722 13.37-34.531 22.758-69.938 28.452-107.259-4.119-2.585-8.344-5.006-12.666-7.251-1.044 1.081-1.778 2.481-2.019 4.079-5.303 35.167-13.976 68.578-26.264 101.132-37.426 3.754-69.24 3.639-95.55 1.578 6.381-13.033 15.822-24.748 27.216-33.603l16.483-12.149c3.334-2.458 4.045-7.153 1.587-10.487s-7.15-4.045-10.487-1.587l-16.559 12.205c-.049.036-.098.073-.146.111-14.901 11.557-26.529 26.689-33.886 43.982-18.621-2.163-33.957-5.248-46.03-8.361-1.641-.423-3.227-.852-4.785-1.283 5.507-11.18 13.032-21.565 21.939-30.222l12.991-11.551c3.096-2.752 3.374-7.493.621-10.588-2.751-3.096-7.492-3.374-10.588-.622l-13.114 11.661c-.08.071-.159.145-.236.219-10.753 10.42-19.745 23.054-26.109 36.638-20.938-7.161-31.026-13.919-31.137-13.995-.061-.042-.121-.082-.182-.122l-.76-.486c-2.316 4.475-4.546 8.856-6.369 13.75 8.32 5.264 56.889 32.985 156.367 32.985 16.147 0 33.66-.746 52.534-2.422-3.594 8.623-7.449 17.195-11.572 25.733z"/></g><g fill="#f9cc9b"><path d="m380.067 378.823-.982 8.112c-.509 4.015-1.113 7.968-1.796 11.87 4.226-2.267 8.337-4.702 12.319-7.267-2.833-4.584-6.16-9.019-9.541-12.715z"/><path d="m318.248 418.622c8.04-25.279 14.067-51.16 18.168-78.037-4.119-2.585-8.344-5.006-12.666-7.251-1.044 1.081-1.778 2.481-2.019 4.079-4.33 28.717-10.91 56.261-19.868 83.125 5.538-.414 11.004-1.052 16.385-1.916z"/><path d="m142.767 413.236c3.746-5.203 7.931-10.084 12.483-14.509l12.991-11.551c3.096-2.752 3.374-7.493.621-10.588-2.751-3.096-7.492-3.374-10.588-.622l-13.114 11.661c-.08.071-.159.145-.236.219-6.306 6.111-11.999 12.986-16.919 20.365 4.813 1.863 9.736 3.545 14.762 5.025z"/><path d="m197.699 421.098h14.493c4.45-5.404 9.467-10.324 14.942-14.579l16.483-12.149c3.334-2.458 4.045-7.153 1.587-10.487s-7.15-4.045-10.487-1.587l-16.559 12.205c-.049.036-.098.073-.146.111-9.607 7.451-17.844 16.396-24.463 26.44 1.38.029 2.763.046 4.15.046z"/></g><ellipse cx="50.015" cy="245.999" fill="#c27b5d" rx="50.015" ry="50.015" transform="matrix(.099 -.995 .995 .099 -199.715 271.531)"/><ellipse cx="435.04" cy="245.999" fill="#c8866a" rx="50.015" ry="50.015" transform="matrix(.099 -.995 .995 .099 147.37 654.682)"/><path d="m76.856 80.26c27.679-40.896 74.011-68.298 126.229-68.298h78.626c84.238 0 153.16 71.311 153.16 155.548v78.626c0 84.238-68.922 153.16-153.16 153.16h-78.626c-84.238 0-153.16-68.922-153.16-153.16v-78.626c0-21.242 4.383-41.662 12.288-60.324 2.855-6.841 11.602-22.592 14.643-26.926z" fill="#fff2cf"/><path d="m197.406 340.39c-8.965-34.883-13.509-72.116-10.229-108.094 3.998-43.859 18.669-85.924 39.723-124.442 10.344-18.923 22.351-36.947 34.794-54.544 9.917-14.023 20.313-27.753 31.375-40.91-3.752-.288-7.539-.439-11.358-.439h-78.626c-52.218 0-98.55 27.401-126.229 68.298-3.041 4.334-11.788 20.085-14.643 26.927-7.906 18.662-12.288 39.082-12.288 60.324v78.626c0 84.238 68.922 153.16 153.16 153.16h15.843c-9.411-18.771-16.375-38.877-21.522-58.906z" fill="#ffe1bd"/><path d="m124.791 319.005c106.014 44.697 216.674 37.708 271.846 28.392 18.212-20.616 30.878-46.087 35.918-74.197-18.804-7.953-65.763-36.575-79.976-126.29 0 0-117.024-14.035-154.35-36.241 0 0-45.896 59.68-103.878 99.774 2.605 52.858 30.44 108.562 30.44 108.562z" fill="#db9e82"/><path d="m197.406 340.39c-16.684-61.008-16.684-141.132 22.98-220.079-8.792-3.007-16.42-6.227-22.158-9.641 0 0-45.896 59.68-103.878 99.774 2.605 52.858 30.441 108.562 30.441 108.562 24.364 10.272 48.972 17.808 73.097 23.22-.161-.613-.325-1.225-.482-1.836z" fill="#c8866a"/><g><g><g><path d="m153.344 260.882c-4.143 0-7.5-3.358-7.5-7.5v-14.091c0-4.142 3.357-7.5 7.5-7.5s7.5 3.358 7.5 7.5v14.091c0 4.142-3.358 7.5-7.5 7.5z" fill="#333942"/></g><g><path d="m331.711 260.882c-4.143 0-7.5-3.358-7.5-7.5v-14.091c0-4.142 3.357-7.5 7.5-7.5s7.5 3.358 7.5 7.5v14.091c0 4.142-3.357 7.5-7.5 7.5z" fill="#333942"/></g></g><g><path d="m242.45 269.518c-9.823 0-19.618-3.297-29.528-9.892-3.448-2.294-4.384-6.95-2.089-10.399 2.296-3.448 6.951-4.385 10.399-2.088 14.645 9.746 27.791 9.737 42.625-.022 3.46-2.276 8.111-1.318 10.388 2.144 2.276 3.46 1.316 8.111-2.144 10.388-10 6.578-19.839 9.869-29.651 9.869z" fill="#333942"/></g></g><g><path d="m382.489 214.842c-9.769-17.361-17.118-38.745-21.052-61.021 24.255 1.594 48.583 1.512 72.85.29-.294-4.897-.93-10.015-2.042-14.916-56.543 3.001-113.876-1.574-168.574-16.659-58.636-16.172-109.247-43.238-150.438-80.42-4.245 2.989-7.967 6.257-11.711 9.663l.722.634c9.631 8.758 19.757 16.975 30.355 24.651-21.728 31.618-51.334 60.841-82.404 81.339-.54 5.962-.54 12.083-.269 18.001 37.431-23.147 70.071-54.544 95.001-90.797 13.167 8.723 27.015 16.649 41.509 23.773-37.663 53.304-86.932 94.991-136.51 115.401v16.136l2.855-1.097c12.359-4.901 24.697-11.055 36.859-18.314 6.398 64.698 35.239 126.401 79.379 173.94 8.009 1.837 16.254 3.035 24.675 3.551-20.297-19.62-38.269-41.65-52.458-66.12 29.056 11.937 68.243 20.258 113.286 23.864 45.891 3.674 93.124 2.89 138.46-5.628 5.782-5.528 10.848-11.33 14.948-18.15-2.758.54-5.728.934-8.475 1.536-78.294 17.225-209.289 10.581-269.831-23.82-14.5-30.95-23.305-64.216-25.708-98.255 35.554-24.047 69.015-57.399 96.322-96.585 18.813 8.356 38.645 15.422 59.443 21.158 27.504 7.585 56.363 12.789 86.342 15.601 3.024 19.052 9.498 44.908 23.392 69.6 14.083 25.028 35.19 45.574 62.138 56.083 1.2-4.88 1.937-10.051 2.368-15.113-20.85-8.499-38.162-24.743-51.432-48.326z" fill="#ffe1bd"/><path d="m141.235 332.877c16.533 6.792 36.349 12.412 58.655 16.66-.87-3.048-1.7-6.098-2.484-9.147-.595-2.317-1.168-4.645-1.723-6.981-25.838-5.385-48.81-12.93-66.058-22.731-14.5-30.95-23.305-64.216-25.708-98.255 35.554-24.047 69.015-57.399 96.322-96.585 6.077 2.699 12.272 5.249 18.561 7.678 2.206-4.514 4.503-8.985 6.884-13.41-42.736-16.311-80.44-39.094-112.451-67.99-4.245 2.99-7.966 6.257-11.711 9.663l.722.634c9.631 8.758 19.757 16.975 30.355 24.651-21.728 31.618-51.334 60.841-82.404 81.339-.54 5.962-.54 12.083-.269 18.001 37.432-23.147 70.071-54.544 95.001-90.797 13.167 8.723 27.015 16.649 41.509 23.773-37.663 53.304-86.932 94.991-136.51 115.401v16.136l2.855-1.097c12.359-4.901 24.697-11.055 36.859-18.314 6.398 64.698 35.239 126.401 79.379 173.94 8.009 1.837 16.254 3.035 24.675 3.551-20.298-19.62-38.27-41.65-52.459-66.12z" fill="#f9cc9b"/><path d="m210.6 11.962c54.818 54.001 132.152 87.315 209.193 89.025-2.146-5.242-4.963-10.484-8.423-15.434-31.147-1.925-61.846-8.793-91.352-20.463 13.817-9.163 25.849-20.115 36.105-33.131-4.384-2.696-9.213-5.145-13.589-6.939-9.618 12.058-25.532 25.258-39.434 32.78-25.77-12.012-49.423-27.385-70.5-45.838z" fill="#ffe1bd"/></g><g><g><path d="m271.019 40.428c-13.584-8.457-26.421-17.96-38.42-28.466h-21.999c15.547 15.315 32.909 28.962 51.558 40.7 2.91-4.106 5.863-8.185 8.861-12.234z" fill="#f9cc9b"/></g></g></g></svg>