<svg id="Capa_1" enable-background="new 0 0 497 497" height="512" viewBox="0 0 497 497" width="512" xmlns="http://www.w3.org/2000/svg"><g><path d="m427.165 463.287c-15.321-84.689-91.64-148.132-177.58-148.132-85.943 0-162.255 63.42-177.58 148.132-2.603 14.388 8.639 27.576 23.261 27.576h308.639c14.621 0 25.863-13.187 23.26-27.576z" fill="#5ad6ff"/><g><path d="m249.584 315.156c-80.578 0-152.69 55.749-174.01 132.527 12.126 6.51 19.451 16.228 41.316 16.228 32.867 0 32.867-21.97 65.733-21.97 32.868 0 32.868 21.97 65.736 21.97 32.869 0 32.869-21.97 65.738-21.97 32.87 0 32.87 21.97 65.741 21.97 23.114 0 29.975-10.864 43.441-17.313-21.695-76.198-93.501-131.442-173.695-131.442z" fill="#00bdfd"/></g><ellipse cx="51.247" cy="245.938" fill="#ffcbbe" rx="51.247" ry="51.247" transform="matrix(.099 -.995 .995 .099 -198.544 272.701)"/><ellipse cx="445.753" cy="245.938" fill="#ffcbbe" rx="51.247" ry="51.247" transform="matrix(.099 -.995 .995 .099 157.089 665.287)"/><g><path d="m51.155 163.068c0-86.312 70.619-156.931 156.931-156.931h78.114c87.658 0 159.379 71.72 159.379 159.379v224.722c0 8.576-5.694 16.232-14 18.367-19.783 5.086-24.349 20.343-51.741 20.343-32.871 0-32.871-21.97-65.741-21.97-32.869 0-32.869 21.97-65.738 21.97-32.868 0-32.868-21.97-65.736-21.97-32.867 0-32.867 21.97-65.733 21.97-27.39 0-31.955-15.257-51.736-20.343-8.305-2.135-13.999-9.791-13.999-18.366v-227.171z" fill="#e7faff"/></g><g><path d="m157.806 14.447c-61.849 21.081-106.651 79.873-106.651 148.621v227.171c0 8.575 5.694 16.231 13.999 18.366 19.782 5.086 24.346 20.343 51.736 20.343 0-64.229-26.354-354.85 40.916-414.501z" fill="#c1f1ff"/></g><g><g><g><g><g><g><path d="m225.997 259.17c14.792-6.835 29.516-7.264 45.024-.17 7.645 3.497 16.636 2.041 22.552-3.933l.208-.21c13.857-13.994 12.193-36.996-3.533-48.85l-.002-.001c-24.658-18.586-58.63-18.643-83.351-.14-15.879 11.885-17.511 35.093-3.453 49.084l.307.306c5.863 5.834 14.738 7.384 22.248 3.914z" fill="#333942"/></g></g></g><g><path d="m141.497 225.836c-4.142 0-7.5-3.358-7.5-7.5v-17.343c0-4.142 3.358-7.5 7.5-7.5s7.5 3.358 7.5 7.5v17.343c0 4.142-3.358 7.5-7.5 7.5z" fill="#333942"/></g><g><path d="m357.672 225.836c-4.142 0-7.5-3.358-7.5-7.5v-17.343c0-4.142 3.358-7.5 7.5-7.5s7.5 3.358 7.5 7.5v17.343c0 4.142-3.358 7.5-7.5 7.5z" fill="#333942"/></g></g></g></g></g></svg>