<svg id="Capa_1" enable-background="new 0 0 497 497" height="512" viewBox="0 0 497 497" width="512" xmlns="http://www.w3.org/2000/svg"><g><g><g><g><path d="m95.496 428.149c-6.389 13.392-11.086 27.746-13.807 42.789-2.46 13.598 8.165 26.062 21.984 26.062h52.771c-8.871-25.803-26.77-53.116-60.948-68.851z" fill="#db9e82"/><path d="m402.98 426.973c-27.932 13.474-50.064 31.194-62.424 70.027h54.821c13.82 0 24.445-12.464 21.984-26.062-2.801-15.485-7.702-30.238-14.381-43.965z" fill="#db9e82"/><path d="m402.98 426.973c-27.663-56.853-85.979-96.04-153.455-96.04-67.942 0-126.602 39.726-154.029 97.215 24.09 19.197 44.834 42.601 60.948 68.851h184.112c16.443-26.785 37.704-50.612 62.424-70.026z" fill="#76e7d6"/><path d="m250.509 445.383c54.158 0 103.927-13.144 143.15-35.11-30.243-47.682-83.491-79.34-144.134-79.34-60.298 0-113.291 31.299-143.623 78.526 39.444 22.46 89.778 35.924 144.607 35.924z" fill="#50e2ce"/></g></g></g><path d="m295.32 145.923c1.241-4.952 1.394-10.364.456-16.258-3.622-22.776-.831-46.996 5.653-69.072 4.216-14.355 10.208-30.038 3.973-43.637-5.795-12.64-21.411-18.937-35.084-16.402-19.674 3.648-33.222 21.562-42.889 39.082-14.741 26.715-25.203 55.785-30.868 85.766-4.489 23.761 14.7 45.633 38.097 51.741 15.219 3.973 31.863-.896 44.547-9.609 8.602-5.909 13.976-13.076 16.115-21.611z" fill="#76e7d6"/><path d="m306.889 40.876h-80.14c-14.384 26.375-24.61 55.005-30.187 84.525-4.489 23.76 14.7 45.634 38.097 51.741 15.219 3.973 31.863-.896 44.547-9.609 8.601-5.908 13.975-13.075 16.114-21.61 1.241-4.952 1.394-10.364.456-16.258-3.622-22.776-.831-46.996 5.653-69.072 1.882-6.409 4.116-13.083 5.46-19.717z" fill="#50e2ce"/><path d="m51.601 173.905c0-40.797 33.073-73.87 73.87-73.87h37.225c40.797 0 73.87 33.073 73.87 73.87v143.038c0 40.797-33.073 73.87-73.87 73.87h-37.225c-40.797 0-73.87-33.073-73.87-73.87z" fill="#ffbe6b"/><path d="m162.696 100.035h-37.225c-10.883 0-21.208 2.35-30.511 6.575-.619 4.923-.613 272.708.006 277.63 9.303 4.226 19.621 6.573 30.504 6.573h37.225c40.797 0 73.87-33.073 73.87-73.87v-143.037c.001-40.798-33.072-73.871-73.869-73.871z" fill="#ffaa3e"/><path d="m371.529 390.814h-37.225c-40.797 0-73.87-33.073-73.87-73.87v-143.039c0-40.797 33.073-73.87 73.87-73.87h37.225c40.797 0 73.87 33.073 73.87 73.87v143.038c0 40.798-33.073 73.871-73.87 73.871z" fill="#ffbe6b"/><path d="m334.304 100.035c-40.797 0-73.87 33.073-73.87 73.87v143.038c0 40.797 33.073 73.87 73.87 73.87h37.225c10.883 0 21.208-2.349 30.51-6.575.619-4.923.621-272.704.002-277.627-9.303-4.226-19.629-6.576-30.512-6.576z" fill="#ffaa3e"/><path d="m144.084 330.565c0 46.062 37.34 83.402 83.402 83.402h42.028c46.062 0 83.402-37.34 83.402-83.402v-170.28c0-46.062-37.34-83.402-83.402-83.402h-42.028c-46.062 0-83.402 37.34-83.402 83.402z" fill="#ffbe6b"/><g><path d="m248.434 299.306c-8.508 0-16.993-2.855-25.577-8.568-3.449-2.294-4.384-6.95-2.089-10.398 2.293-3.449 6.95-4.385 10.398-2.089 12.08 8.039 22.458 8.031 34.699-.022 3.46-2.276 8.11-1.318 10.388 2.144 2.276 3.46 1.316 8.111-2.144 10.388-8.658 5.695-17.179 8.545-25.675 8.545z" fill="#333942"/></g><circle cx="161.31" cy="252.82" fill="#db9e82" r="37.354"/><path d="m161.127 249.369c12.496.029 25.252 1.526 37.535 3.828.001-.126.002-.251.002-.377 0-20.63-16.724-37.354-37.354-37.354s-37.354 16.724-37.354 37.354c0 .344.005.684.014 1.026 12.166-3.113 24.83-4.505 37.157-4.477z" fill="#c8866a"/><circle cx="335.69" cy="252.82" fill="#db9e82" r="37.354"/><path d="m335.507 249.369c12.496.029 25.252 1.526 37.535 3.828.001-.126.002-.251.002-.377 0-20.63-16.724-37.354-37.354-37.354s-37.354 16.724-37.354 37.354c0 .344.005.684.014 1.026 12.165-3.113 24.83-4.505 37.157-4.477z" fill="#c8866a"/><g><path d="m161.31 266.995c-4.142 0-7.5-3.358-7.5-7.5v-11.994c0-4.142 3.358-7.5 7.5-7.5s7.5 3.358 7.5 7.5v11.994c0 4.142-3.358 7.5-7.5 7.5z" fill="#333942"/></g><g><path d="m335.689 266.995c-4.143 0-7.5-3.358-7.5-7.5v-11.994c0-4.142 3.357-7.5 7.5-7.5s7.5 3.358 7.5 7.5v11.994c0 4.142-3.357 7.5-7.5 7.5z" fill="#333942"/></g></g></svg>