<svg id="Capa_1" enable-background="new 0 0 497 497" height="512" viewBox="0 0 497 497" width="512" xmlns="http://www.w3.org/2000/svg"><g><path d="m411.605 471.672c-14.072-77.786-84.17-136.057-163.105-136.057-78.938 0-149.029 58.25-163.105 136.057-2.391 13.216 7.935 25.328 21.365 25.328h283.48c13.43 0 23.756-12.112 21.365-25.328z" fill="#e7faff"/><path d="m411.467 470.92c-14.388-77.408-84.288-135.305-162.967-135.305-78.682 0-148.575 57.876-162.967 135.305z" fill="#c1f1ff"/><path d="m29.497 284.647c-.033-19.391.865-39.711 2.7-61.914 9.974-120.65 88.308-220.548 216.303-222.733 128.404 0 206.444 103.476 216.303 222.733 6.048 73.162 1.919 125.87-12.174 192.295-3.88 18.286-20.01 31.381-38.703 31.381h-330.852c-18.693 0-34.823-13.095-38.703-31.381-7.475-35.23-12.146-66.602-13.983-99.214-.892-13.175-.891-31.167-.891-31.167z" fill="#525e77"/><path d="m159.16 379.821c-24.287-65.757-37.585-135.957-35.894-206.13 1.173-48.69 8.402-96.968 18.89-144.503-64.517 38.551-103.154 111.223-109.959 193.545-1.835 22.204-2.734 42.523-2.7 61.914 0 0-.001 17.992.891 31.167 1.837 32.612 6.509 63.983 13.983 99.214 3.88 18.286 20.01 31.381 38.703 31.381h105.106c-11.987-20.96-20.62-43.846-29.02-66.588z" fill="#3b4456"/><g><path d="m381.191 266.863c13.063-2.917 22.42-14.594 22.448-27.979 0-.106 0-.212 0-.318 0-85.681-69.458-155.139-155.139-155.139s-155.139 69.458-155.139 155.139v.265c.023 13.407 9.415 25.096 22.505 27.992 45.216 10.005 79.036 50.326 79.036 98.552 0 .888-.012 1.772-.034 2.654-.254 9.779 6.078 18.566 15.562 20.961 12.181 3.077 24.933 4.714 38.07 4.714 13.247 0 26.104-1.665 38.377-4.792 9.444-2.406 15.75-11.154 15.499-20.897-.023-.878-.034-1.758-.034-2.641 0-48.159 33.726-88.436 78.849-98.511z" fill="#fff"/></g><g><path d="m123.266 173.69c.23-9.53.691-19.047 1.364-28.542-19.628 25.986-31.268 58.342-31.268 93.417v.265c.023 13.407 9.415 25.096 22.505 27.992 4.939 1.093 9.728 2.542 14.366 4.329-5.297-32.201-7.754-64.821-6.967-97.461z" fill="#e7faff"/></g><g><circle cx="180.419" cy="202.248" fill="#ffddcf" r="33.418"/><path d="m213.837 202.248c0-18.456-14.962-33.418-33.418-33.418s-33.419 14.962-33.419 33.418c19.59-5.965 51.12-6.015 66.837 0z" fill="#ffcbbe"/><circle cx="316.581" cy="202.248" fill="#ffddcf" r="33.418"/><path d="m350 202.248c0-18.456-14.962-33.418-33.418-33.418s-33.418 14.962-33.418 33.418c19.588-5.965 51.118-6.015 66.836 0z" fill="#ffcbbe"/></g><g><path d="m180.419 214.261c-4.143 0-7.5-3.358-7.5-7.5v-8.347c0-4.142 3.357-7.5 7.5-7.5s7.5 3.358 7.5 7.5v8.347c0 4.142-3.357 7.5-7.5 7.5z" fill="#333942"/></g><g><path d="m316.581 214.261c-4.143 0-7.5-3.358-7.5-7.5v-8.347c0-4.142 3.357-7.5 7.5-7.5s7.5 3.358 7.5 7.5v8.347c0 4.142-3.357 7.5-7.5 7.5z" fill="#333942"/></g><g fill="#c1f1ff"><path d="m230.878 313.783c-4.143 0-7.5 3.358-7.5 7.5v70.393c4.903 1.043 9.939 1.376 15.011 1.703l-.011-72.096c0-4.142-3.357-7.5-7.5-7.5z"/><path d="m266.958 313.783c-4.143 0-7.5 3.358-7.5 7.5v72.039c5.252-.168 10.537-.814 15-1.785v-70.254c0-4.142-3.357-7.5-7.5-7.5z"/></g></g></svg>