<svg id="Capa_1" enable-background="new 0 0 497 497" height="512" viewBox="0 0 497 497" width="512" xmlns="http://www.w3.org/2000/svg"><g><g><g><path d="m99.47 421.683c25.584-58.289 84.731-98.684 150.013-98.684 77.85 0 146.984 57.47 160.863 134.187 2.358 13.034-7.826 24.98-21.071 24.98h-279.584c-13.245 0-23.429-11.946-21.071-24.98 2.187-12.093 5.62-24.378 10.85-35.503z" fill="#a29cde"/><path d="m249.482 322.999c-57.146 0-109.598 30.954-138.943 77.769 20.567 13.698 45.217 22.029 71.642 22.029h132.639c27.013 0 52.192-8.663 73.03-22.924-29.456-46.29-81.605-76.874-138.368-76.874z" fill="#928cd9"/><g><g><ellipse cx="69.817" cy="260.298" fill="#ffbead" rx="46.422" ry="46.423" transform="matrix(.099 -.995 .995 .099 -196.094 304.125)"/><ellipse cx="427.183" cy="260.298" fill="#ffcbbe" rx="46.422" ry="46.423" transform="matrix(.099 -.995 .995 .099 126.059 659.753)"/></g></g></g></g><g><path d="m422.764 294.895c2.778-11.047 4.263-22.593 4.263-34.47v-72.978c0-78.187-63.971-144.375-142.158-144.375h-72.978c-78.187 0-142.158 66.188-142.158 144.375v72.978c0 11.911 1.492 23.488 4.285 34.563 32.367 6.843 76.807 52.1 88.292 98.614 15.456 5.799 32.164 8.98 49.58 8.98h72.978c17.489 0 34.262-3.209 49.771-9.053 14.665-59.8 50.653-86.246 88.125-98.634z" fill="#ffddcf"/><path d="m223.579 83.653c4.461-14.112 10.417-27.572 17.275-40.581h-28.963c-78.187 0-142.158 66.188-142.158 144.375l-1 72.978c0 11.911 2.492 23.488 5.285 34.563 32.367 6.843 76.807 52.1 88.292 98.614 15.456 5.799 32.164 8.98 49.58 8.98h12.477c-31.589-39.24-46.862-187.236-.788-318.929z" fill="#ffcbbe"/><path d="m102.833 289.215c-10.26 0-20.003 2.072-28.814 5.773 11.458 45.431 44.933 82.347 88.292 98.614 7.382-10.621 11.69-23.328 11.69-36.994-.001-37.22-31.863-67.393-71.168-67.393z" fill="#ffabcd"/><path d="m422.764 294.895c-8.754-3.643-18.422-5.679-28.597-5.679-39.305 0-71.167 30.173-71.167 67.393 0 13.635 4.289 26.314 11.64 36.921 43.295-16.316 76.705-53.229 88.124-98.635z" fill="#ffbed8"/></g><g fill="#fd5c6f"><g><path d="m495.141 157.877c0-22.543-19.658-41.591-41.721-41.945-2.29-.037-3.974-2.109-3.697-4.382 2.925-24.043-16.761-47.365-41.6-47.365-23.179 0-41.968 18.79-41.968 41.968s18.552 75.243 25.929 90.009c10.358 20.735 18.79 41.968 41.968 41.968 22.899 0 42.352-20.333 41.94-42.947-.023-1.247.554-2.437 1.569-3.163 10.64-7.61 17.58-20.063 17.58-34.143z"/><path d="m1.859 157.877c0-22.543 19.658-41.591 41.721-41.945 2.29-.037 3.974-2.109 3.697-4.382-2.925-24.043 16.761-47.365 41.6-47.365 23.179 0 41.968 18.79 41.968 41.968s-18.552 75.243-25.929 90.009c-10.358 20.735-18.79 41.968-41.968 41.968-22.899 0-42.352-20.333-41.94-42.947.023-1.247-.554-2.437-1.569-3.163-10.64-7.61-17.58-20.063-17.58-34.143z"/></g><path d="m331.183 44.598c-1.387-23.674-20.483-42.926-44.146-44.491-12.039-.796-23.193 2.903-31.955 9.581-3.872 2.951-9.293 2.951-13.164 0-8.762-6.678-19.916-10.378-31.955-9.581-23.663 1.565-42.759 20.817-44.146 44.491-1.266 21.612 11.943 40.313 30.833 47.337 3.171 1.179 5.695 3.716 6.75 6.93 6.218 18.962 24.059 32.656 45.1 32.656s38.883-13.694 45.1-32.656c1.054-3.215 3.578-5.751 6.75-6.93 18.89-7.024 32.099-25.725 30.833-47.337z"/><circle cx="248.38" cy="254.071" r="23.371"/></g><g><g><g><path d="m165.723 274.65c-4.142 0-7.5-3.358-7.5-7.5v-13.079c0-4.142 3.358-7.5 7.5-7.5s7.5 3.358 7.5 7.5v13.079c0 4.142-3.358 7.5-7.5 7.5z" fill="#333942"/></g><g><path d="m331.277 274.65c-4.142 0-7.5-3.358-7.5-7.5v-13.079c0-4.142 3.358-7.5 7.5-7.5s7.5 3.358 7.5 7.5v13.079c0 4.142-3.358 7.5-7.5 7.5z" fill="#333942"/></g></g><g><path d="m248.428 321.08c-9.216 0-18.407-3.094-27.705-9.281-3.448-2.295-4.383-6.951-2.088-10.399 2.294-3.449 6.949-4.383 10.399-2.088 13.565 9.028 25.221 9.021 38.968-.022 3.461-2.276 8.111-1.317 10.388 2.144s1.317 8.111-2.144 10.388c-9.383 6.172-18.613 9.258-27.818 9.258z" fill="#333942"/></g></g><circle cx="248.5" cy="467.832" fill="#ffbed8" r="29.168"/><path d="m78.791 221.213c-5.875-29.974-6.784-61.856-3.067-92.139 2.446-19.931 6.386-39.488 12.022-58.764.598-2.046 1.225-4.093 1.877-6.119-.249-.004-.496-.006-.746-.006-24.839 0-44.525 23.322-41.6 47.365.277 2.274-1.407 4.346-3.697 4.382-22.062.353-41.721 19.402-41.721 41.945 0 14.08 6.94 26.532 17.58 34.144 1.014.726 1.591 1.916 1.569 3.163-.412 22.614 19.041 42.947 41.94 42.947 7.502 0 13.454-2.209 18.432-5.921-1.02-3.653-1.876-7.357-2.589-10.997z" fill="#f9475e"/><path d="m306.795 55.701c-17.085 2.261-33.826 2.563-50.868-.352-15.709-2.688-28.588-10.749-37.353-24.13-5.846-8.926-9.12-19.757-10.244-30.975-22.909 2.315-41.158 21.223-42.513 44.355-1.266 21.612 11.943 40.313 30.833 47.337 3.171 1.179 5.695 3.716 6.75 6.93 6.218 18.962 24.059 32.656 45.1 32.656s38.883-13.694 45.1-32.656c1.054-3.215 3.578-5.751 6.75-6.93 16.76-6.232 29.051-21.693 30.725-40.186-8.058 1.462-16.145 2.874-24.28 3.951z" fill="#f9475e"/><path d="m263.786 258.292c-12.614 0-21.954-10.309-22.5-22.5-.062-1.387.034-2.756.263-4.083-9.576 2.921-16.54 11.831-16.54 22.362 0 12.907 10.464 23.371 23.371 23.371 11.988 0 21.862-9.027 23.209-20.654-2.488.966-5.132 1.504-7.803 1.504z" fill="#f9475e"/><path d="m259.394 468.109c-12.614 0-21.954-10.309-22.5-22.5-.072-1.607.06-3.18.375-4.704-10.537 4.397-17.937 14.796-17.937 26.927 0 16.109 13.059 29.168 29.168 29.168s29.168-13.059 29.168-29.168c0-2.714-.371-5.343-1.065-7.836-4.291 4.916-10.676 8.113-17.209 8.113z" fill="#ffabcd"/></g></svg>