<svg id="Capa_1" enable-background="new 0 0 497 497" height="512" viewBox="0 0 497 497" width="512" xmlns="http://www.w3.org/2000/svg"><g><g><path d="m110.105 497h276.791c13.113 0 23.195-11.826 20.86-24.73-1.121-6.199-2.613-12.267-4.419-18.199l-154.643-16.06-155.033 16.06c-1.806 5.931-3.296 12-4.417 18.199-2.334 12.904 7.748 24.73 20.861 24.73z" fill="#525e77"/></g><path d="m311.485 352.137c-19.36-8.186-40.643-12.714-62.985-12.714-23.094 0-45.053 4.845-64.93 13.561-42.923 18.822-76.099 55.733-89.909 101.087h309.676c-14.017-46.039-47.986-83.384-91.852-101.934z" fill="#e7faff"/><path d="m311.485 352.137c-19.36-8.186-40.643-12.714-62.985-12.714-23.094 0-45.053 4.845-64.93 13.561-28.419 12.462-52.569 32.858-69.651 58.38 26.405 14.254 58.509 22.647 93.031 22.647h83.488c34.396 0 66.394-8.338 92.744-22.497-17.474-26.178-42.375-46.978-71.697-59.377z" fill="#c1f1ff"/><ellipse cx="71.601" cy="277.349" fill="#ffb578" rx="45.959" ry="45.959" transform="matrix(.099 -.995 .995 .099 -211.453 321.272)"/><ellipse cx="425.399" cy="277.349" fill="#ffbd86" rx="45.959" ry="45.959" transform="matrix(.099 -.995 .995 .099 107.482 673.348)"/><path d="m284.505 411.722h-72.249c-77.406 0-140.738-63.332-140.738-140.738v-72.249c0-77.406 63.332-111.024 140.738-111.024h72.249c77.406 0 140.738 33.619 140.738 111.024v72.249c0 77.406-63.332 140.738-140.738 140.738z" fill="#fed2a4"/><path d="m154.359 300.471c8.115-31.639 22.103-62.011 38.998-89.884 8.162-13.466 93.147-119.526 96.76-122.81-1.863-.04-3.732-.066-5.612-.066h-72.249c-77.406 0-140.738 33.619-140.738 111.024l-1 72.249c0 54.108 31.947 101.34 77.013 124.869-.042-31.993-1.194-64.104 6.828-95.382z" fill="#ffbd86"/><path d="m312.456 181.31c16.559 17.346 37.038 31.375 60.498 35.28 27.304 4.546 58.578-7.959 69.303-33.477 4.674-11.125 4.036-23.323.144-35.523-14.309-44.205-36.601-86.563-80.631-101.862-37.453-13.013-189.085-13.013-226.538 0-44.031 15.299-66.323 57.657-80.632 101.862-3.893 12.2-4.531 24.398.144 35.523 10.725 25.518 41.998 38.023 69.303 33.477 23.46-3.906 43.938-17.935 60.498-35.28z" fill="#df8a57"/><path d="m368.967 81.59h-240.934c-13.441 36.253-7.884 79.219 14.315 110.671 3.441 4.876 7.284 9.394 11.436 13.556 11.34-6.404 21.642-14.955 30.761-24.507h127.911c9.12 9.553 19.421 18.103 30.761 24.507 4.151-4.162 7.993-8.679 11.435-13.556 22.199-31.452 27.757-74.418 14.315-110.671z" fill="#c76d33"/><path d="m329.949 116.04c9.088 24.019 5.33 52.485-9.679 73.324-31.784 44.129-111.791 44.081-143.541 0-15.009-20.838-18.766-49.305-9.679-73.324z" fill="#df8a57"/><g fill="#333942"><path d="m286.076 281.632c-4.143 0-7.5 3.358-7.5 7.5 0 5.995-4.877 10.872-10.871 10.872-5.99 0-10.864-4.87-10.871-10.859 0-.004 0-.008 0-.013 0-3.883-2.952-7.077-6.734-7.461-.252-.026-.508-.039-.767-.039-4.142 0-7.5 3.358-7.5 7.5 0 5.995-4.877 10.872-10.872 10.872-5.994 0-10.871-4.877-10.871-10.872 0-4.142-3.358-7.5-7.5-7.5s-7.5 3.358-7.5 7.5c0 14.266 11.606 25.872 25.871 25.872 7.178 0 13.68-2.94 18.372-7.676 4.692 4.737 11.194 7.676 18.371 7.676 14.266 0 25.871-11.606 25.871-25.872.001-4.142-3.356-7.5-7.499-7.5z"/><path d="m177.826 267.939c-9.571-3.747-18.425-9.615-25.604-16.97-2.894-2.965-7.642-3.023-10.606-.129-2.964 2.893-3.022 7.642-.129 10.606 3.137 3.215 6.543 6.19 10.156 8.897v14.964c0 4.142 3.358 7.5 7.5 7.5s7.5-3.358 7.5-7.5v-5.886c1.878.896 3.783 1.73 5.715 2.486.898.352 1.823.518 2.732.518 2.997 0 5.828-1.809 6.986-4.768 1.51-3.858-.393-8.209-4.25-9.718z"/><path d="m355.384 250.839c-2.964-2.895-7.713-2.835-10.605.128-7.18 7.356-16.033 13.225-25.604 16.971-3.857 1.51-5.761 5.86-4.251 9.718 1.159 2.959 3.989 4.768 6.986 4.768.909 0 1.834-.167 2.731-.518 1.932-.756 3.837-1.59 5.715-2.486v5.886c0 4.142 3.357 7.5 7.5 7.5s7.5-3.358 7.5-7.5v-14.964c3.613-2.707 7.019-5.682 10.156-8.897 2.894-2.964 2.837-7.713-.128-10.606z"/></g><g><path d="m62.573 39.786v36.444l185.808 11.481 186.046-11.481v-36.444l-186.046-14.397z" fill="#e7faff"/></g><g><path d="m133.486 40.269v-5.977l-70.913 5.495v36.443l185.808 11.481 186.046-11.481v-18.641h-283.621c-9.565 0-17.32-7.755-17.32-17.32z" fill="#c1f1ff"/></g><path d="m82.208 0c-10.844 0-19.635 8.791-19.635 19.635v20.151h371.854v-20.151c0-10.844-8.791-19.635-19.635-19.635z" fill="#525e77"/><g fill="#3b4456"><path d="m133.486 0h-51.278c-10.844 0-19.635 8.791-19.635 19.635v20.151h70.913z"/><path d="m62.573 96.381c0 10.844 8.791 19.635 19.635 19.635h332.584c10.844 0 19.635-8.791 19.635-19.635v-20.151h-371.854z"/></g></g></svg>