<svg id="Capa_1" enable-background="new 0 0 497 497" height="512" viewBox="0 0 497 497" width="512" xmlns="http://www.w3.org/2000/svg"><g><path d="m411.76 471.802c-13.999-77.377-83.697-135.36-162.269-135.36-78.573 0-148.26 57.925-162.269 135.36-2.379 13.148 7.894 25.198 21.255 25.198h282.027c13.362 0 23.635-12.05 21.256-25.198z" fill="#e7faff"/><path d="m249.491 336.442c-56.864 0-109.074 30.339-138.894 76.455 26.738 27.638 78.416 46.372 137.782 46.372 60.353 0 112.758-19.356 139.092-47.751-29.965-45.319-81.698-75.076-137.98-75.076z" fill="#caf5ff"/><g><path d="m246.158 438.25c-4.143 0-7.5-3.358-7.5-7.5v-18.49c0-4.142 3.357-7.5 7.5-7.5s7.5 3.358 7.5 7.5v18.49c0 4.142-3.357 7.5-7.5 7.5z" fill="#50e2ce"/></g><g><g><ellipse cx="68.255" cy="273.193" fill="#ffbead" rx="46.828" ry="46.828" transform="matrix(.099 -.995 .995 .099 -210.334 314.195)"/><ellipse cx="428.746" cy="273.193" fill="#ffcbbe" rx="46.828" ry="46.828" transform="matrix(.099 -.995 .995 .099 114.635 672.932)"/><path d="m285.187 407.854h-73.616c-12.735 0-25.555 7.061-37.331 3.907-61.155-16.377-106.07-72.305-106.07-138.44v-73.616c0-78.87 64.53-145.637 143.4-145.637h73.616c78.87 0 143.4 66.767 143.4 145.637v73.616c0 65.697-45.033 121.514-105.573 138.304-12.139 3.366-24.653-3.771-37.826-3.771z" fill="#ffddcf"/><path d="m193.518 393.563c-2.849-20.916-5.097-42.072-6.254-63.152-2.104-38.342.501-76.787 6.955-114.624 6.253-36.658 17.211-71.726 31.776-105.888 8.146-19.105 17.354-37.792 27.681-55.831h-42.104c-78.87 0-143.4 66.767-143.4 145.637v73.616c0 66.135 44.915 122.063 106.069 138.441 7.06 1.891 14.495.11 22.061-1.619-1.107-5.463-2.023-10.988-2.784-16.58z" fill="#ffcbbe"/><g><path d="m248.428 295.699c-9.285 0-18.544-3.117-27.911-9.35l-19.686-13.209c-3.439-2.308-4.357-6.967-2.049-10.407 2.308-3.439 6.968-4.358 10.406-2.049l19.662 13.193c13.665 9.095 25.428 9.101 39.294.004l26.664-18.343c3.413-2.348 8.082-1.485 10.43 1.929 2.348 3.413 1.484 8.082-1.928 10.43l-26.729 18.388c-.043.029-.086.058-.129.086-9.453 6.219-18.751 9.328-28.024 9.328z" fill="#90aecf"/></g><path d="m324.535 320.99c-8.928-6.848-21.435-3.979-31.333-2.116-29.524 5.559-59.879 5.559-89.403 0-9.898-1.864-22.406-4.733-31.333 2.116-6.778 5.199-8.643 14.341-9.309 22.713-1.734 21.766 1.515 43.895 9.443 64.319l1.641 3.739c11.915 3.234 24.429 4.96 37.331 4.96h73.616c13.085 0 25.771-1.776 37.838-5.1l1.377-3.599c7.927-20.424 11.176-42.553 9.443-64.319-.669-8.371-2.533-17.513-9.311-22.713z" fill="#fff"/><path d="m193.518 393.563c-2.849-20.916-5.097-42.072-6.254-63.152-.251-4.582-.431-9.166-.55-13.75-5.111.048-10.071 1.125-14.249 4.329-6.778 5.199-8.643 14.341-9.309 22.713-1.734 21.766 1.515 43.895 9.443 64.319l1.641 3.739c7.553 2.05 15.349 3.489 23.33 4.272-1.707-7.368-3.016-14.861-4.052-22.47z" fill="#e7faff"/></g></g><g fill="#50e2ce"><path d="m6.924 176.107c-3.81-12.17-6.063-24.07-6.532-34.635-.634-14.308 2.532-31.224 15.442-37.426 15.806-7.594 35.841 4.649 50.232 10.654 15.421 6.435 34.26 11.657 46.194 23.977 8.531 8.807 12.589 21.184 13.554 33.407s-4.489 61.058-9.433 72.311c-4.549 10.352-15.994 25.532-29.162 22.8-29.307-6.081-53.454-32.751-68.795-62.921-.001.001-9.087-19.683-11.5-28.167z"/><path d="m496.608 141.472c.634-14.308-2.532-31.224-15.442-37.426-15.806-7.594-35.841 4.649-50.232 10.654-15.421 6.435-34.26 11.657-46.194 23.977-8.531 8.807-12.589 21.184-13.554 33.407s4.489 61.058 9.433 72.311c4.549 10.352 15.994 25.532 29.162 22.8 49.882-10.349 84.814-80.343 86.827-125.723z"/></g><path d="m433.21 136.577c5.956-33.066.938-70.374-10.343-94.749-6.015-12.997-16.606-26.563-30.921-26.135-17.528.524-43.446 36.909-45.406 39.119-1.584 1.785-4.469 1.356-5.485-.803-9.368-19.915-33.486-62.736-61.909-52.432-16.486 5.976-21.762 28.855-27.543 43.337-.01.024-.019.049-.029.073-1.104 2.762-5.042 2.762-6.147 0-.01-.024-.019-.049-.029-.073-5.782-14.482-11.057-37.361-27.543-43.337-28.424-10.304-52.542 32.517-61.909 52.432-1.016 2.159-3.901 2.588-5.485.803-1.96-2.21-27.879-38.594-45.407-39.119-14.316-.429-24.906 13.137-30.922 26.134-11.742 25.37-16.698 64.751-9.558 98.777 0 0 7.016 27.056 26.997 36.079 13.298 7.146 29.595 8.717 44.997 2.622 35.996-14.243 72.801-39.873 112.337-40.678 38.926-.793 76.089 22.671 111.057 37.348 14.987 6.29 30.983 5.232 44.266-1.239 20.991-11.942 27.772-30.176 28.982-38.159z" fill="#76e7d6"/><g><path d="m246.158 474.167c-4.143 0-7.5-3.358-7.5-7.5v-5.471c0-4.142 3.357-7.5 7.5-7.5s7.5 3.358 7.5 7.5v5.471c0 4.142-3.357 7.5-7.5 7.5z" fill="#50e2ce"/></g><g><g><circle cx="162.702" cy="271.185" fill="#e7faff" r="62.258"/><path d="m187.161 328.455c-7.509 3.211-15.776 4.989-24.459 4.989-34.384 0-62.258-27.874-62.258-62.258s27.874-62.258 62.258-62.258c11.393 0 22.07 3.06 31.256 8.403-8.291 35.336-7.393 101.107-6.797 111.124z" fill="#caf5ff"/><circle cx="334.298" cy="271.185" fill="#e7faff" r="62.258"/></g><g><g><g><path d="m164.999 287.605c-4.143 0-7.5-3.358-7.5-7.5v-13.193c0-4.142 3.357-7.5 7.5-7.5s7.5 3.358 7.5 7.5v13.193c0 4.143-3.357 7.5-7.5 7.5z" fill="#333942"/></g><g><path d="m332.001 287.605c-4.143 0-7.5-3.358-7.5-7.5v-13.193c0-4.142 3.357-7.5 7.5-7.5s7.5 3.358 7.5 7.5v13.193c0 4.143-3.357 7.5-7.5 7.5z" fill="#333942"/></g></g></g></g><g><g><path d="m278.058 362.525h-59.115c-4.143 0-7.5-3.358-7.5-7.5s3.357-7.5 7.5-7.5h59.115c4.143 0 7.5 3.358 7.5 7.5s-3.358 7.5-7.5 7.5z" fill="#e7faff"/></g><g><path d="m278.058 393.082h-59.115c-4.143 0-7.5-3.358-7.5-7.5s3.357-7.5 7.5-7.5h59.115c4.143 0 7.5 3.358 7.5 7.5s-3.358 7.5-7.5 7.5z" fill="#e7faff"/></g></g><g fill="#c1f1ff"><path d="m155.657 497v-32.576c0-4.142-3.357-7.5-7.5-7.5s-7.5 3.358-7.5 7.5v32.576z"/><path d="m356.343 497v-32.576c0-4.142-3.357-7.5-7.5-7.5s-7.5 3.358-7.5 7.5v32.576z"/></g></g></svg>