<svg id="Capa_1" enable-background="new 0 0 497 497" height="512" viewBox="0 0 497 497" width="512" xmlns="http://www.w3.org/2000/svg"><g><g><path d="m57.55 205.796c-11.696-.69-22.594 2.612-31.458 8.67-2.288 1.563-3.655 4.159-3.655 6.93v18.846c0 4.335-3.514 7.849-7.849 7.849h-2.552c-4.384 0-7.939 3.552-7.943 7.936v.082c0 27.837 22.566 50.403 50.403 50.403 29.107 0 52.452-24.673 50.26-54.246-1.851-24.966-22.216-44.997-47.206-46.47z" fill="#00d7bd"/><ellipse cx="442.505" cy="256.109" fill="#50e2ce" rx="50.403" ry="50.403" transform="matrix(.099 -.995 .995 .099 144.039 671.223)"/></g><path d="m423.156 469.879c-15.067-83.284-90.086-145.693-174.656-145.693-84.571 0-159.577 62.346-174.656 145.692-2.56 14.152 8.497 27.122 22.878 27.122h303.556c14.381 0 25.438-12.97 22.878-27.121z" fill="#76e7d6"/><path d="m248.5 438.036c59.55 0 111.873-16.983 141.738-42.595-32.942-43.367-85.206-71.255-141.738-71.255-56.54 0-108.809 27.871-141.75 71.25 29.863 25.617 82.193 42.6 141.75 42.6z" fill="#50e2ce"/><ellipse cx="248.5" cy="288.565" fill="#fff" rx="135.472" ry="122.028"/><g><path d="m383.972 288.565c0-67.394-60.653-122.028-135.472-122.028s-135.472 54.634-135.472 122.028c0 52.854 37.3 97.858 89.487 114.818 12.787-7.594 28.717-12.107 45.985-12.107s33.203 4.521 45.99 12.115c52.186-16.96 89.482-61.972 89.482-114.826z" fill="#e7faff"/></g><path d="m380.037 82.056c-4.038-.374-7.206-3.529-7.684-7.555-3.238-27.268-27.113-49.329-55.169-49.329-19.866 0-37.285 10.433-47.106 26.113-1.376 2.197-4.035 3.235-6.529 2.527-4.825-1.37-9.915-2.106-15.179-2.106-5.19 0-10.214.714-14.979 2.046-2.486.695-5.131-.338-6.504-2.524-9.827-15.648-27.228-26.055-47.07-26.055-28.066 0-51.979 22.16-55.179 49.416-.467 3.977-3.57 7.08-7.548 7.545-27.308 3.188-49.416 27.108-49.416 55.183 0 30.685 24.875 55.56 55.56 55.56h249.904c30.894 0 56.32-24.943 56.189-55.837-.12-28.37-18.644-52.147-49.29-54.984z" fill="#ff83b4"/><path d="m200.99 59.241s.844-16.249 7.378-26.168c-8.342-5.015-18.107-7.902-28.552-7.902-30.499 0-56.095 26.169-55.534 56.61-30.511-.568-56.61 25.03-56.61 55.534 0 30.685 24.875 55.56 55.56 55.56h270.549c6.727 0 15.604-4.35 19.575-9.779 17.03-23.283 19.696-49.056 11.532-68.805l-152.58-.001c-28.479-.815-71.318-26.545-71.318-55.049z" fill="#ff71a8"/><g><path d="m72.982 152.677c-9.708 0-17.838 7.57-18.284 17.268-.108 2.344-.162 86.301-.162 86.301 0 67.718 44.202 125.606 105.176 146.257 5.368 1.818 11.252.521 15.393-3.348 17.423-16.275 43.83-26.656 73.396-26.656 29.568 0 55.976 10.382 73.398 26.659 4.059 3.792 9.831 5.216 15.095 3.445 61.127-20.564 105.471-78.529 105.471-146.357 0 0-.055-83.957-.162-86.301-.446-9.698-8.575-17.268-18.284-17.268z" fill="#76e7d6"/></g><g><path d="m262.909 334.131c6.865 2.031 14.003-2.123 15.715-9.074 1.787-7.254 2.779-15.275 2.779-23.711 0-32.509-14.731-58.863-32.903-58.863s-32.903 26.354-32.903 58.863c0 8.436.992 16.458 2.779 23.712 1.712 6.951 8.85 11.105 15.715 9.074 4.567-1.352 9.403-2.079 14.409-2.079 5.007-.001 9.842.726 14.409 2.078z" fill="#333942"/></g><path d="m298.442 56.265c1.985-16.736-4.486-34.084-18.649-45.341-21.743-17.283-53.379-13.667-70.662 8.076s-13.667 53.379 8.076 70.662c0 0 60.809 7.142 81.235-33.397z" fill="#ff83b4"/><g fill="#00d7bd"><path d="m81.365 441.94 38.109 13.456c2.216.79 4.528 1.184 6.839 1.184 2.57 0 5.139-.487 7.565-1.459l14.389-5.76c3.846-1.54 5.715-5.905 4.176-9.75-1.541-3.845-5.905-5.715-9.75-4.175l-14.389 5.76c-1.215.486-2.561.511-3.813.065l-37.394-13.204c-2.099 4.527-4.02 9.156-5.732 13.883z"/><path d="m296.87 497 24.409-35.263c.558-.797 1.428-1.339 2.389-1.489l32.939-5.123c4.093-.637 6.896-4.471 6.259-8.564-.637-4.092-4.466-6.893-8.563-6.258l-32.939 5.123c-4.98.774-9.493 3.588-12.398 7.747l-30.339 43.827z"/></g><g><path d="m97.005 331.596c2.88-47.144 15.866-93.09 38.068-134.78 8.31-15.604 18.198-30.476 29.476-44.139h-91.567c-9.708 0-17.838 7.57-18.284 17.268-.108 2.344-1.162 86.301-1.162 86.301 0 40.858 17.098 78.144 43.254 105.825-.461-10.149-.405-20.333.215-30.475z" fill="#50e2ce"/></g><g fill="#fff"><ellipse cx="131.43" cy="278.018" rx="29.809" ry="23.221"/><ellipse cx="365.57" cy="278.018" rx="29.809" ry="23.221"/></g><g><g><g><path d="m165.726 263.949h-14.2c-4.143 0-7.5-3.358-7.5-7.5s3.357-7.5 7.5-7.5h14.2c4.143 0 7.5 3.358 7.5 7.5s-3.358 7.5-7.5 7.5z" fill="#333942"/></g><g><path d="m345.475 263.949h-14.2c-4.143 0-7.5-3.358-7.5-7.5s3.357-7.5 7.5-7.5h14.2c4.143 0 7.5 3.358 7.5 7.5s-3.358 7.5-7.5 7.5z" fill="#333942"/></g></g></g></g></svg>