<svg id="Capa_1" enable-background="new 0 0 497 497" height="512" viewBox="0 0 497 497" width="512" xmlns="http://www.w3.org/2000/svg"><g><g><circle cx="99.593" cy="71.425" fill="#df8a57" r="71.425"/><path d="m47.101 119.863c13.05 14.138 31.734 22.987 52.491 22.987 39.447 0 71.425-31.978 71.425-71.425 0-16.866-5.84-32.359-15.616-44.578-46.212 14.797-85.007 48.89-108.3 93.016z" fill="#c76d33"/><circle cx="99.593" cy="71.425" fill="#fff2cf" r="31.278"/><path d="m71.059 84.255c4.895 10.884 15.826 18.448 28.534 18.448 17.274 0 31.278-14.004 31.278-31.278 0-11.142-5.809-20.921-14.581-26.461-16.928 10.498-32.209 23.823-45.231 39.291z" fill="#ffe1bd"/></g><g><circle cx="397.407" cy="71.425" fill="#df8a57" r="71.425"/><path d="m449.899 119.863c-13.05 14.138-31.734 22.987-52.491 22.987-39.447 0-71.425-31.978-71.425-71.425 0-16.866 5.84-32.359 15.616-44.578 46.212 14.797 85.007 48.89 108.3 93.016z" fill="#c76d33"/><circle cx="397.407" cy="71.425" fill="#fff2cf" r="31.278"/><path d="m425.941 84.255c-4.895 10.884-15.826 18.448-28.534 18.448-17.274 0-31.278-14.004-31.278-31.278 0-11.142 5.809-20.921 14.581-26.461 16.928 10.498 32.209 23.823 45.231 39.291z" fill="#ffe1bd"/></g><path d="m100.205 430.268c-6.192 12.98-10.745 26.892-13.382 41.472-2.385 13.18 7.913 25.26 21.307 25.26h51.147c-9.692-29.695-26.135-52.614-59.072-66.732z" fill="#ffddcf"/><path d="m398.226 429.129c-32.097 12.268-51.332 31.7-60.503 67.871h53.133c13.394 0 23.692-12.08 21.308-25.26-2.715-15.009-7.464-29.307-13.938-42.611z" fill="#ffddcf"/><path d="m398.226 429.129c-26.812-55.103-83.333-93.084-148.733-93.084-65.851 0-122.706 38.503-149.289 94.223 23.348 18.606 43.454 41.29 59.072 66.732h178.446c15.938-25.962 36.544-49.056 60.504-67.871z" fill="#df8a57"/><path d="m249.493 336.045c-56.391 0-106.193 28.234-136.029 71.338 26.08 21.161 59.856 33.995 96.602 33.995h76.623c37.414 0 71.751-13.3 98.019-35.153-29.92-42.45-79.331-70.18-135.215-70.18z" fill="#c76d33"/><ellipse cx="67.808" cy="272.639" fill="#ffbead" rx="46.944" ry="46.944" transform="matrix(.099 -.995 .995 .099 -210.185 313.251)"/><ellipse cx="429.192" cy="272.639" fill="#ffcbbe" rx="46.944" ry="46.944" transform="matrix(.099 -.995 .995 .099 115.589 672.877)"/><path d="m285.277 416.522h-73.798c-79.066 0-143.756-64.69-143.756-143.756v-73.798c0-79.066 64.69-145.998 143.756-145.998h73.798c79.066 0 143.756 66.932 143.756 145.998v73.798c0 79.066-64.69 143.756-143.756 143.756z" fill="#ffddcf"/><path d="m130.931 311.781c-4.832-38.447-3.723-77.279 3.62-115.351 9.744-50.521 30.654-98.677 58.419-142.221-70.407 9.455-125.246 71.963-125.246 144.76l-1 73.798c0 57.16 34.821 106.812 83.43 129.934-9.385-29.543-15.365-60.219-19.223-90.92z" fill="#ffcbbe"/><g><g><g><g><path d="m424.37 202.762c10.984 0 19.462-9.678 18.006-20.564-10.186-76.168-75.586-137.183-154.091-137.183h-79.813c-78.506 0-143.905 61.015-154.092 137.182-1.456 10.887 7.023 20.564 18.006 20.564h351.984z" fill="#df8a57"/></g></g></g></g><g><g><g><g><path d="m440.412 170.796h-384.067c-.789 3.759-1.45 7.56-1.964 11.401-1.456 10.887 7.023 20.564 18.006 20.564h351.983c10.984 0 19.462-9.678 18.006-20.564-.514-3.841-1.175-7.642-1.964-11.401z" fill="#c76d33"/></g></g></g></g><ellipse cx="143.119" cy="297.594" fill="#ffb6c1" rx="29.809" ry="23.221"/><ellipse cx="352.464" cy="297.594" fill="#ffb6c1" rx="29.809" ry="23.221"/><g><g><g><path d="m164.792 287.068c-4.142 0-7.5-3.358-7.5-7.5v-13.226c0-4.142 3.358-7.5 7.5-7.5s7.5 3.358 7.5 7.5v13.226c0 4.142-3.357 7.5-7.5 7.5z" fill="#333942"/></g><g><path d="m332.208 287.068c-4.142 0-7.5-3.358-7.5-7.5v-13.226c0-4.142 3.358-7.5 7.5-7.5s7.5 3.358 7.5 7.5v13.226c0 4.142-3.358 7.5-7.5 7.5z" fill="#333942"/></g></g><g><path d="m248.428 295.182c-9.304 0-18.583-3.123-27.97-9.37-3.449-2.294-4.384-6.95-2.089-10.398 2.294-3.449 6.95-4.386 10.398-2.089 13.753 9.152 25.565 9.146 39.5-.022 3.46-2.276 8.111-1.317 10.388 2.144 2.277 3.46 1.317 8.111-2.144 10.388-9.472 6.23-18.79 9.347-28.083 9.347z" fill="#333942"/></g></g></g></svg>