<svg id="Capa_1" enable-background="new 0 0 497 497" height="512" viewBox="0 0 497 497" width="512" xmlns="http://www.w3.org/2000/svg"><g><g><path d="m417.255 464.958c-14.561-80.481-87.085-140.77-168.755-140.77-43.063 0-83.576 16.761-114.396 44.402 21.081 78.082 138.28 122.573 138.28 122.573h122.766c13.895 0 24.579-12.532 22.105-26.205z" fill="#76e7d6"/><path d="m248.5 324.188c-43.063 0-83.576 16.761-114.396 44.402 7.82 28.964 28.868 53.301 52.251 72.464 19.69 4.693 40.546 7.225 62.145 7.225 55.586 0 106.284-16.701 144.691-44.155-30.977-48.178-85.422-79.936-144.691-79.936z" fill="#50e2ce"/><path d="m218.302 408.056c-32.863-10.131-61.101-26.795-84.198-39.466-27.633 24.783-47.474 58.312-54.359 96.368-2.474 13.673 8.21 26.205 22.105 26.205h170.534v-.76c0-34.069-24.016-70.799-54.082-82.347z" fill="#50e2ce"/><path d="m248.5 448.279c4.167 0 8.304-.103 12.414-.289-9.865-18.143-25.22-33.255-42.612-39.935-32.863-10.131-61.101-26.795-84.198-39.466-11.602 10.405-21.823 22.357-30.295 35.534 38.406 27.455 89.105 44.156 144.691 44.156z" fill="#00d7bd"/></g><g><path d="m95.602 266.423c-1.485 24.79-21.707 47.072-47.863 47.072-36.442.001-49.743-34.855-47.499-65.196.808-10.921 2.721-21.819 2.832-32.785.093-9.182-1.112-18.579-1.112-27.894-.122-6.908 2.983-12.212 10.73-8.854 33.147 14.373 85.449 45.298 82.912 87.657z" fill="#ffbead"/><path d="m401.398 266.423c1.485 24.79 21.707 47.072 47.863 47.072 36.442.001 49.743-34.855 47.499-65.196-.808-10.921-2.721-21.819-2.832-32.785-.093-9.182 1.112-18.579 1.112-27.894.122-6.908-2.983-12.212-10.73-8.854-33.147 14.373-85.449 45.298-82.912 87.657z" fill="#ffcbbe"/></g><path d="m286.779 407.675h-76.558c-82.023 0-149.132-67.109-149.132-149.132v-49.838c0-82.023 67.11-151.458 149.132-151.458h76.558c82.023 0 149.132 69.435 149.132 151.458v49.838c0 82.023-67.109 149.132-149.132 149.132z" fill="#ffddcf"/><path d="m177.318 328.176c-6.865-72.197 3.799-145.183 28.281-213.271 6.909-19.214 14.61-38.651 23.422-57.658h-18.8c-82.023 0-149.132 69.435-149.132 151.458v49.838c0 75.508 56.863 138.381 129.888 147.891-7.376-25.466-11.176-52.145-13.659-78.258z" fill="#ffcbbe"/><g><g><g><path d="m248.313 287.234c-9.341 0-18.656-3.135-28.08-9.406-3.448-2.295-4.384-6.951-2.089-10.399 2.295-3.449 6.948-4.384 10.399-2.089 13.83 9.204 25.709 9.196 39.719-.021 3.46-2.276 8.111-1.318 10.388 2.144 2.276 3.46 1.316 8.111-2.144 10.388-9.51 6.254-18.864 9.383-28.193 9.383z" fill="#333942"/></g></g><g><g><path d="m145.895 286.347c-2.789 0-5.468-1.563-6.761-4.245-1.799-3.731-.232-8.214 3.499-10.013l15.271-7.363-12.84-6.546c-3.69-1.881-5.157-6.398-3.275-10.088 1.882-3.691 6.401-5.158 10.088-3.275l26.314 13.416c2.539 1.294 4.125 3.916 4.094 6.765-.032 2.849-1.676 5.435-4.243 6.672l-28.895 13.931c-1.05.506-2.16.746-3.252.746z" fill="#333942"/></g><g><path d="m351.105 286.347c-1.093 0-2.202-.24-3.252-.746l-28.895-13.931c-2.567-1.238-4.211-3.823-4.243-6.672-.031-2.85 1.555-5.471 4.094-6.765l26.314-13.416c3.688-1.88 8.207-.416 10.088 3.275 1.882 3.69.415 8.207-3.275 10.088l-12.84 6.546 15.271 7.363c3.731 1.799 5.298 6.282 3.499 10.013-1.293 2.682-3.971 4.245-6.761 4.245z" fill="#333942"/></g></g></g><g><path d="m377.012 118.863c21.127 103.073 15.158 210.98-17.226 311.424-2.414 7.487-4.29 17.151 2.368 21.828 6.846 4.808 16.492-.118 22.788-5.553 27.756-23.964 42.424-58.482 52.132-92.758 24.845-87.718 22.409-182.136-6.929-268.613-16.145-50.644-94.059-89.633-171.441-74.985-8.29 1.569-16.793 1.34-25.021-.529-70.788-16.085-143.66 20.143-166.828 75.514-29.338 86.477-31.774 180.895-6.929 268.613 9.708 34.275 24.376 68.793 52.132 92.758 6.295 5.435 15.942 10.361 22.788 5.553 6.658-4.676 4.782-14.34 2.368-21.828-32.385-100.444-38.354-208.351-17.226-311.424 51.012-37.363 189.037-48.137 257.024 0z" fill="#fff2cf"/></g><path d="m400.559 194.438c-38.95-5.617-75.857-24.546-103.146-52.9-5.636-5.856-10.855-12.107-15.624-18.684-16.431-22.659-50.146-22.659-66.577 0-4.769 6.577-9.988 12.828-15.624 18.684-8.354 8.68-17.609 16.477-27.548 23.279 0 0-14.776 9.284-27.104 15.308-15.386 7.025-31.751 11.899-48.494 14.314-10.442-53.939 16.558-120.939 72.058-120.439h165.798s77.819 16.877 66.261 120.438z" fill="#fff2cf"/><g><path d="m89.837 398.542c-19.444-69.887-24.728-143.698-13.893-215.438 8.464-56.046 27.511-110.135 52.928-160.761-28.308 14.088-50.893 36.262-62.016 62.848-29.338 86.477-31.774 180.895-6.929 268.613 8.465 29.886 20.705 59.971 42.1 83.069-4.603-12.595-8.61-25.463-12.19-38.331z" fill="#ffe1bd"/></g></g></svg>