<svg id="Capa_1" enable-background="new 0 0 497 497" height="512" viewBox="0 0 497 497" width="512" xmlns="http://www.w3.org/2000/svg"><g><path d="m89.802 129.707h-76.115c-7.559 0-13.687-6.128-13.687-13.687v-17.054c0-7.559 6.128-13.686 13.687-13.686h76.115z" fill="#525e77"/><path d="m30.493 85.28h59.309v44.427h-59.309z" fill="#3b4456"/><path d="m413.836 162.582h-337.876c-10.552 0-19.105-8.554-19.105-19.105v-55.341c0-10.552 8.554-19.105 19.105-19.105h410.653c5.737 0 10.387 4.65 10.387 10.387 0 45.93-37.234 83.164-83.164 83.164z" fill="#90aecf"/><path d="m472.854 138.002c-5.832-25.56-17.546-49.105-33.617-68.971h-339.998c-19.978 24.694-33.217 55.075-36.8 87.943 3.458 3.464 8.239 5.608 13.521 5.608h337.876c23.075 0 43.951-9.403 59.018-24.58z" fill="#7c96b3"/><path d="m122.064 410.336c-6.151 12.892-10.672 26.711-13.292 41.192-2.368 13.091 7.86 25.09 21.164 25.09h50.802c-2.022-27.066-20.247-56.004-58.674-66.282z" fill="#fed2a4"/><path d="m418.074 409.205c-29.829 4.711-54.212 22.395-60.095 67.413h52.775c13.304 0 23.533-11.999 21.164-25.09-2.697-14.907-7.414-29.108-13.844-42.323z" fill="#fed2a4"/><path d="m418.074 409.205c-26.631-54.731-82.77-92.456-147.729-92.456-65.406 0-121.878 38.243-148.281 93.587 23.191 18.481 43.161 41.011 58.674 66.282h177.242c15.828-25.786 36.296-48.725 60.094-67.413z" fill="#525e77"/><path d="m270.345 316.749c-57.131 0-107.451 29.187-136.864 73.453 26.259 21.158 60.2 33.96 97.137 33.96h77.24c37.607 0 72.114-13.275 98.564-35.124-29.517-43.615-79.447-72.289-136.077-72.289z" fill="#3b4456"/><g><g><ellipse cx="89.886" cy="253.771" fill="#ffb578" rx="46.627" ry="46.628" transform="matrix(.099 -.995 .995 .099 -171.507 318.213)"/><ellipse cx="448.831" cy="253.771" fill="#ffbd86" rx="46.627" ry="46.628" transform="matrix(.099 -.995 .995 .099 152.068 675.411)"/><path d="m305.887 396.684h-73.3c-78.532 0-142.786-64.254-142.786-142.786v-73.3c0-78.532 64.253-145.012 142.786-145.012h73.3c78.532 0 142.786 66.48 142.786 145.012v73.3c0 78.532-64.254 142.786-142.786 142.786z" fill="#fed2a4"/></g></g><g><g><g><path d="m186.216 268.154c-4.143 0-7.5-3.358-7.5-7.5v-13.137c0-4.142 3.357-7.5 7.5-7.5s7.5 3.358 7.5 7.5v13.137c0 4.142-3.358 7.5-7.5 7.5z" fill="#333942"/></g><g><path d="m352.501 268.154c-4.143 0-7.5-3.358-7.5-7.5v-13.137c0-4.142 3.357-7.5 7.5-7.5s7.5 3.358 7.5 7.5v13.137c0 4.142-3.357 7.5-7.5 7.5z" fill="#333942"/></g></g><g><path d="m269.286 276.213c-9.25 0-18.477-3.104-27.81-9.315-3.448-2.295-4.384-6.951-2.089-10.399 2.294-3.448 6.948-4.384 10.399-2.089 13.641 9.077 25.357 9.071 39.177-.021 3.46-2.276 8.109-1.318 10.388 2.144 2.276 3.46 1.316 8.111-2.144 10.388-9.417 6.194-18.681 9.292-27.921 9.292z" fill="#333942"/></g></g><path d="m222.937 39.523c0-10.571 8.57-19.141 19.141-19.141h55.981c10.571 0 19.141 8.57 19.141 19.141v71.206c0 14.145-11.568 26.282-25.713 26.267-3.048-.003-5.972-.538-8.684-1.516-4.132-1.49-8.494 1.513-8.494 5.905v9.817c0 14.186-11.5 25.686-25.686 25.686-14.186 0-25.686-11.5-25.686-25.686v-38.967z" fill="#fd5c6f"/><path d="m176.995 373.709c-20.268-61.779-27.687-128.086-24.571-192.91 2.256-46.923 14.781-92.919 31.849-136.477-54.941 20.505-94.471 74.68-94.471 136.276l-1 73.3c0 60.612 39.28 112.709 92.854 133.333-1.621-4.487-3.176-8.995-4.661-13.522z" fill="#ffbd86"/><path d="m253.304 127.285v-106.903h-11.226c-10.571 0-19.141 8.57-19.141 19.141v111.101c0 14.4 11.785 26.533 26.182 26.26 13.957-.264 25.189-11.661 25.189-25.681v-2.913c-11.6 0-21.004-9.404-21.004-21.005z" fill="#f9475e"/></g></svg>