<svg id="Capa_1" enable-background="new 0 0 497 497" height="512" viewBox="0 0 497 497" width="512" xmlns="http://www.w3.org/2000/svg"><g><circle cx="248.5" cy="51.765" fill="#7c96b3" r="51.765"/><path d="m411.613 471.671c-14.066-77.751-84.216-136.064-163.113-136.064-78.919 0-149.05 58.332-163.113 136.064-2.391 13.216 7.936 25.329 21.366 25.329h283.494c13.431 0 23.757-12.113 21.366-25.329z" fill="#525e77"/><path d="m248.5 335.607c-58.145 0-111.525 31.659-141.221 79.416 27.577 18.549 61.978 29.612 99.166 29.612h84.109c37.188 0 71.594-11.057 99.171-29.606-29.699-47.764-83.093-79.422-141.225-79.422z" fill="#3b4456"/><g fill="#3b4456"><ellipse cx="67.317" cy="272.029" rx="47.072" ry="47.072" transform="matrix(.099 -.995 .995 .099 -210.021 312.214)"/><ellipse cx="429.683" cy="272.029" rx="47.072" ry="47.072" transform="matrix(.099 -.995 .995 .099 116.637 672.816)"/></g><path d="m285.499 416.304h-73.999c-79.28 0-144.146-64.866-144.146-144.146v-73.999c0-79.28 64.866-146.394 144.146-146.394h73.999c79.28 0 144.146 67.114 144.146 146.394v73.999c0 79.28-64.865 144.146-144.146 144.146z" fill="#525e77"/><path d="m71.939 162c-2.991 11.614-4.585 23.737-4.585 36.159v9.841h362.291v-9.841c0-12.422-1.594-24.546-4.585-36.159z" fill="#3b4456"/><path d="m330.937 327.656h-164.874c-25.853 0-46.811-20.958-46.811-46.811 0-25.853 20.958-46.811 46.811-46.811h164.873c25.853 0 46.811 20.958 46.811 46.811.001 25.853-20.957 46.811-46.81 46.811z" fill="#ffddcf"/><path d="m377.748 280.846c0-25.853-20.958-46.811-46.811-46.811h-164.874c-25.853 0-46.811 20.958-46.811 46.811 63.035-20.601 208.246-17.689 258.496 0z" fill="#ffcbbe"/><g><g><g><path d="m164.565 293.576c-4.142 0-7.5-3.357-7.5-7.5v-13.262c0-4.143 3.358-7.5 7.5-7.5s7.5 3.357 7.5 7.5v13.262c0 4.143-3.357 7.5-7.5 7.5z" fill="#333942"/></g><g><path d="m332.435 293.576c-4.142 0-7.5-3.357-7.5-7.5v-13.262c0-4.143 3.358-7.5 7.5-7.5s7.5 3.357 7.5 7.5v13.262c0 4.143-3.358 7.5-7.5 7.5z" fill="#333942"/></g></g><g><path d="m248.428 301.711c-9.326 0-18.626-3.13-28.035-9.391-3.448-2.295-4.383-6.951-2.088-10.399 2.293-3.448 6.95-4.383 10.399-2.089 13.797 9.184 25.648 9.176 39.629-.021 3.46-2.278 8.111-1.317 10.388 2.144 2.276 3.46 1.317 8.111-2.144 10.388-9.495 6.245-18.835 9.368-28.149 9.368z" fill="#333942"/></g></g><path d="m436.069 148.783c-8.55-58.184-58.669-102.85-119.228-102.85h-136.682c-60.558 0-110.678 44.666-119.228 102.85z" fill="#90aecf"/><path d="m159.38 48.523v-.798c-50.938 8.854-90.9 49.683-98.449 101.058h375.138c-2.997-20.396-11.108-39.126-22.98-54.858h-208.307c-25.075 0-45.402-20.327-45.402-45.402z" fill="#7c96b3"/><path d="m60.608 118.964c-19.086 0-34.702 15.616-34.702 34.702 0 19.086 15.616 34.702 34.702 34.702h375.783c19.086 0 34.702-15.616 34.702-34.702 0-19.086-15.616-34.702-34.702-34.702z" fill="#90aecf"/><g fill="#7c96b3"><path d="m102.841 117.964h15v70.405h-15z"/><path d="m171.92 117.964h15v70.405h-15z"/><path d="m241 117.964h15v70.405h-15z"/><path d="m310.079 117.964h15v70.405h-15z"/><path d="m379.158 117.964h15v70.405h-15z"/></g></g></svg>