<svg id="Capa_1" enable-background="new 0 0 497 497" height="512" viewBox="0 0 497 497" width="512" xmlns="http://www.w3.org/2000/svg"><g><path d="m403.094 472.994c-9.538-52.723-45.385-96.29-93.453-116.616-18.793-7.947-39.454-12.341-61.141-12.341-22.418 0-43.735 4.703-63.029 13.164-47.115 20.66-82.152 63.765-91.565 115.794-2.266 12.525 7.521 24.005 20.25 24.005h268.688c12.729 0 22.516-11.48 20.25-24.006z" fill="#525e77"/><path d="m399.075 456.162c-13.448-45.076-46.586-81.666-89.434-99.784-18.793-7.947-39.454-12.342-61.141-12.342-22.418 0-43.735 4.703-63.029 13.164-41.93 18.386-74.295 54.558-87.545 98.967 38.918 14.345 79.817 22.735 121.252 24.637 20.699.95 41.434.885 62.129-.195 39.183-2.046 77.822-10.08 114.742-23.361z" fill="#3b4456"/><g><path d="m133.278 442.105c14.549 3.074 29.542 4.043 44.366 2.866 11.395-.904 24.595-4.574 28.566-15.292 2.739-7.393-.047-15.709-4.026-22.516-14.748-25.231-43.068-35.786-71.296-33.428-21.757 1.817-39.443 14.762-35.007 38.614 3.42 18.385 20.789 26.247 37.397 29.756z" fill="#fd5c6f"/><path d="m162.999 376.928c16.057 4.853 30.162 14.796 39.186 30.235 3.979 6.807 6.765 15.123 4.026 22.516-3.971 10.719-17.171 14.388-28.566 15.292-14.824 1.176-29.817.208-44.366-2.866 2.739-27.37 11.931-52.297 29.72-65.177z" fill="#f9475e"/></g><g><path d="m363.722 442.105c-14.549 3.074-29.542 4.043-44.366 2.866-11.395-.904-24.595-4.574-28.566-15.292-2.739-7.393.047-15.709 4.026-22.516 14.748-25.231 43.068-35.786 71.296-33.428 21.757 1.817 39.443 14.762 35.007 38.614-3.42 18.385-20.789 26.247-37.397 29.756z" fill="#fd5c6f"/><path d="m334.001 376.928c-16.057 4.853-30.162 14.796-39.186 30.235-3.979 6.807-6.765 15.123-4.026 22.516 3.971 10.719 17.171 14.388 28.566 15.292 14.824 1.176 29.817.208 44.366-2.866-2.739-27.37-11.931-52.297-29.72-65.177z" fill="#f9475e"/></g><g><path d="m175.289 414.935c-7.905 9.224-15.369 21.36-10.998 32.592 4.185 10.754 18.307 15.396 29.706 12.365 11.399-3.032 20.238-11.841 26.917-21.328 7.786-11.06 31.716-54.841 13.772-65.501-15.685-9.318-50.554 31.553-59.397 41.872z" fill="#fd5c6f"/><path d="m234.687 373.063c-12.061-7.165-35.463 15.344-49.655 30.82 1.816 5.366 3.508 10.814 5.046 16.229 2.424 8.532 4.058 17.324 6.022 25.975.95 4.183 1.697 8.293 2.183 12.354 9.354-3.866 16.818-11.617 22.632-19.877 7.786-11.061 31.716-54.842 13.772-65.501z" fill="#f9475e"/></g><g><path d="m321.711 414.935c7.905 9.224 15.369 21.36 10.998 32.592-4.185 10.754-18.307 15.396-29.706 12.365s-20.238-11.841-26.917-21.328c-7.786-11.06-31.716-54.841-13.772-65.501 15.685-9.318 50.554 31.553 59.397 41.872z" fill="#fd5c6f"/><path d="m262.313 373.063c12.061-7.165 35.463 15.344 49.655 30.82-1.816 5.366-3.508 10.814-5.046 16.229-2.424 8.532-4.058 17.324-6.022 25.975-.95 4.183-1.697 8.293-2.183 12.354-9.354-3.866-16.818-11.617-22.632-19.877-7.786-11.061-31.716-54.842-13.772-65.501z" fill="#f9475e"/></g><ellipse cx="248.5" cy="424.785" fill="#fd5c6f" rx="35.89" ry="36.016"/><g fill="#ffcbbe"><ellipse cx="76.78" cy="283.779" rx="44.613" ry="44.613" transform="matrix(.099 -.995 .995 .099 -213.183 332.222)"/><ellipse cx="420.22" cy="283.779" rx="44.613" ry="44.613" transform="matrix(.099 -.995 .995 .099 96.415 673.991)"/></g><path d="m76.815 207.467c0-75.14 61.478-107.774 136.618-107.774h70.134c75.14 0 136.618 32.635 136.618 107.774v70.134c0 75.14-61.478 136.618-136.618 136.618h-70.134c-71.338 0-130.362-55.415-136.152-125.325z" fill="#fff"/><path d="m132.851 337.441c-6.663-35.995-6.56-71.916-1.057-108.036 5.051-33.152 14.071-66.038 25.242-97.621 2.84-8.028 5.859-15.993 9.063-23.883.493-1.215 1-2.424 1.502-3.635-52.774 11.322-90.787 44.119-90.787 103.201l.466 81.427c3.976 48.011 33.06 89.184 73.996 110.269-7.832-20.059-14.519-40.62-18.425-61.722z" fill="#e7faff"/><path d="m299.805 278.018c0-17.108 13.869-30.976 30.976-30.976 17.108 0 30.976 13.869 30.976 30.976 0 17.108-13.869 46.594-30.976 46.594s-30.976-29.486-30.976-46.594z" fill="#90aecf"/><path d="m310.583 190.551c16.075 16.838 35.954 30.456 58.727 34.248 26.505 4.413 56.863-7.726 67.274-32.497 4.538-10.799 3.918-22.64.139-34.483-13.89-42.911-35.529-84.029-78.27-98.88-36.357-12.632-183.55-12.632-219.907 0-42.741 14.851-64.38 55.969-78.27 98.88-3.779 11.843-4.398 23.684.139 34.483 10.411 24.771 40.769 36.91 67.274 32.497 22.773-3.791 42.652-17.41 58.727-34.248z" fill="#ffbe6b"/><path d="m369.359 126.661c-1.845-13.193-13.233-22.954-26.554-22.954h-188.609c-13.321 0-24.709 9.762-26.554 22.954-3.919 28.017 2.941 57.594 19.506 80.592 2.136 2.966 4.429 5.789 6.86 8.472 12.013-6.342 22.88-15.192 32.409-25.174h124.167c9.529 9.982 20.396 18.832 32.41 25.174 2.43-2.684 4.723-5.506 6.86-8.473 16.563-22.997 23.423-52.575 19.505-80.591z" fill="#ffaa3e"/><path d="m327.565 127.192c8.822 23.316 5.174 50.949-9.395 71.177-30.853 42.837-108.519 42.79-139.339 0-14.569-20.228-18.217-47.861-9.395-71.177z" fill="#ffbe6b"/><g><g><g><g><path d="m166.219 299.928c-4.143 0-7.5-3.357-7.5-7.5v-13.202c0-4.143 3.357-7.5 7.5-7.5s7.5 3.357 7.5 7.5v13.202c0 4.142-3.358 7.5-7.5 7.5z" fill="#333942"/></g><g><path d="m330.781 299.928c-4.143 0-7.5-3.357-7.5-7.5v-13.202c0-4.143 3.357-7.5 7.5-7.5s7.5 3.357 7.5 7.5v13.202c0 4.142-3.357 7.5-7.5 7.5z" fill="#333942"/></g></g></g></g><path d="m442.187 98.218c0 38.94-89.674 35.384-200.293 35.384s-187.08 3.557-187.08-35.384 76.461-78.392 187.08-78.392 200.293 39.452 200.293 78.392z" fill="#525e77"/><path d="m247.738 19.866c-1.942-.024-3.889-.04-5.845-.04-110.619 0-187.08 39.451-187.08 78.392 0 14.723 10.933 23.37 30.509 28.431 21.332-77.185 161.358-106.07 162.416-106.783z" fill="#3b4456"/><path d="m222.268 39.792c1.407-12.757 8.606-24.762 19.196-32.012 10.59-7.251 24.385-9.62 36.788-6.318 5.171 1.377 10.462 4.044 12.764 8.875 3.081 6.466-.3 14.168-4.651 19.858s-9.866 10.876-11.772 17.78" fill="#525e77"/><g><path d="m241.252 328.126c-2.07 0-4.145-.121-6.21-.367-4.113-.488-7.052-4.219-6.563-8.332s4.221-7.063 8.332-6.563c8.473 1.006 17.136-.893 24.407-5.345 3.53-2.16 8.149-1.053 10.313 2.48 2.163 3.532 1.053 8.149-2.48 10.313-8.359 5.118-18.042 7.814-27.799 7.814z" fill="#333942"/></g></g></svg>