<svg id="Capa_1" enable-background="new 0 0 497.293 497.293" height="512" viewBox="0 0 497.293 497.293" width="512" xmlns="http://www.w3.org/2000/svg"><g><path d="m95.429 428.346c-6.398 13.411-11.101 27.785-13.827 42.848-2.464 13.618 8.176 26.099 22.015 26.099h52.844c-4.87-34.474-26.643-59.62-61.032-68.947z" fill="#ffddcf"/><path d="m403.342 427.168c-32.542 8.031-55.586 29.803-62.511 70.124h54.897c13.839 0 24.479-12.481 22.015-26.099-2.805-15.505-7.712-30.278-14.401-44.025z" fill="#ffddcf"/><path d="m403.342 427.168c-27.702-56.932-86.099-96.174-153.67-96.174-68.037 0-126.779 39.781-154.244 97.351 24.123 19.224 44.897 42.66 61.033 68.947h184.369c16.467-26.823 37.757-50.683 62.512-70.124z" fill="#fd5c6f"/><path d="m249.673 330.995c-59.358 0-111.647 30.289-142.258 76.243 27.509 19.75 62.093 31.55 99.532 31.55h83.149c38.142 0 73.315-12.256 101.069-32.681-30.712-45.32-82.623-75.112-141.492-75.112z" fill="#f9475e"/><ellipse cx="61.957" cy="265.484" fill="#ffbead" rx="48.503" ry="48.503" transform="matrix(.099 -.995 .995 .099 -208.34 300.979)"/><ellipse cx="435.336" cy="265.484" fill="#ffcbbe" rx="48.503" ry="48.503" transform="matrix(.099 -.995 .995 .099 128.248 672.541)"/><path d="m286.645 414.144h-76.248c-81.69 0-148.527-66.837-148.527-148.527v-76.248c0-81.69 66.837-150.844 148.527-150.844h76.248c81.69 0 148.527 69.154 148.527 150.844v76.248c0 81.689-66.837 148.527-148.527 148.527z" fill="#ffddcf"/><path d="m158.003 278.725c23.981-72.769 75.647-132.931 134.213-180.749 19.22-15.692 39.279-30.256 60.169-43.533-19.847-10.152-42.173-15.918-65.74-15.918h-76.248c-81.69 0-148.527 69.154-148.527 150.844l-1 76.248c0 56.583 33.753 107.901 79.932 131.1 1.01-39.853 4.776-80.29 17.201-117.992z" fill="#ffcbbe"/><path d="m50.901 80.36c31.089-59.97 109.42-98.581 174.712-71.61 50.919 21.034 56.313 98.991-5.996 116.77-31.863 9.092-60.453 29.247-79.723 56.202-14.697 20.559-24.805 45.872-28.017 71.41-1.371 10.904-14.169 16.149-22.711 9.233-30.581-24.759-51.091-62.013-54.617-101.281-2.555-28.455 4.802-55.031 16.352-80.724z" fill="#5ad6ff"/><path d="m200.635 1.624c8.451 1.408 16.816 3.755 24.978 7.126 50.919 21.034 56.313 98.991-5.996 116.77-2.547.727-5.074 1.524-7.576 2.391-46.949-38.522-21.037-111.86-11.406-126.287z" fill="#00bdfd"/><path d="m271.68 8.75c44.531-18.395 98.842-5.27 136.514 24.765s58.859 79.581 54.55 127.568c-3.526 39.268-24.036 76.522-54.617 101.281-8.542 6.916-21.339 1.671-22.711-9.233-3.212-25.538-13.32-50.851-28.017-71.41-19.27-26.955-47.861-47.11-79.723-56.202-62.309-17.778-56.915-95.735-5.996-116.769z" fill="#5ad6ff"/><circle cx="162.16" cy="265.484" fill="#e7faff" r="67.538"/><path d="m158.003 280.039c8.564-25.987 20.673-50.356 35.351-73.14-9.333-4.871-19.937-7.64-31.194-7.64-37.3 0-67.538 30.238-67.538 67.538 0 31.709 21.857 58.302 51.324 65.565 2.623-17.792 6.458-35.335 12.057-52.323z" fill="#caf5ff"/><circle cx="335.132" cy="265.484" fill="#e7faff" r="67.538"/><g><path d="m325.333 364.828c0-38.373-31.108-69.481-69.481-69.481h-14.411c-38.373 0-69.481 31.107-69.481 69.481v.001c0 3.582 3.666 5.993 6.955 4.576l6.94-2.991c3.371-1.453 7.191-1.453 10.562 0l8.614 3.713c3.371 1.453 7.192 1.453 10.563 0l8.611-3.712c3.371-1.453 7.192-1.453 10.563 0l8.608 3.711c3.372 1.454 7.194 1.453 10.565-.001l8.601-3.709c3.372-1.454 7.194-1.454 10.565-.001l8.606 3.71c3.372 1.454 7.193 1.454 10.565 0l8.604-3.71c3.372-1.454 7.194-1.454 10.565 0l6.93 2.988c3.289 1.418 6.956-.993 6.956-4.575z" fill="#525e77"/></g><g><path d="m248.242 309.572v-14.225h-6.801c-38.373 0-69.481 31.108-69.481 69.481v.001c0 3.582 3.666 5.993 6.955 4.576l6.94-2.992c3.371-1.453 7.191-1.453 10.562 0l8.614 3.713c3.371 1.453 7.192 1.453 10.563 0l6.505-2.804c.53-24.244 13.677-41.895 26.143-57.75z" fill="#3b4456"/></g><path d="m248.646 330.995c-18.113 0-32.933-14.82-32.933-32.933v-38.795c0-18.113 14.82-32.933 32.933-32.933 18.113 0 32.933 14.82 32.933 32.933v38.795c0 18.113-14.82 32.933-32.933 32.933z" fill="#fd5c6f"/><g><g><path d="m162.161 280.143c-4.142 0-7.5-3.357-7.5-7.5v-13.665c0-4.143 3.358-7.5 7.5-7.5s7.5 3.357 7.5 7.5v13.665c0 4.143-3.358 7.5-7.5 7.5z" fill="#333942"/></g><g><path d="m335.132 280.143c-4.142 0-7.5-3.357-7.5-7.5v-13.665c0-4.143 3.358-7.5 7.5-7.5s7.5 3.357 7.5 7.5v13.665c0 4.143-3.358 7.5-7.5 7.5z" fill="#333942"/></g></g><path d="m241.009 315.024c13.511-25.806 8.71-86.58 7.638-88.69-18.113 0-32.933 14.82-32.933 32.933v38.795c0 12.936 7.266 24.599 18.487 29.574 2.229-4.188 4.582-8.314 6.808-12.612z" fill="#f9475e"/></g></svg>