<svg id="Capa_1" enable-background="new 0 0 497.001 497.001" height="512" viewBox="0 0 497.001 497.001" width="512" xmlns="http://www.w3.org/2000/svg"><g><path d="m409.732 472.116c-13.84-76.502-82.61-133.678-160.253-133.678-77.656 0-146.411 57.169-160.253 133.678-2.349 12.984 7.796 24.885 20.991 24.885h278.523c13.195 0 23.341-11.901 20.992-24.885z" fill="#df8a57"/><path d="m406.153 456.763c-19.672-68.673-84.321-118.325-156.674-118.325-72.366 0-137.002 49.644-156.674 118.322 0 0 83.347 2.287 109.034-6.996 13.857-5.008 47.64-34.695 47.64-34.695s32.184 30.932 45.834 36.049c25.978 9.74 110.84 5.645 110.84 5.645z" fill="#c76d33"/><g><g><ellipse cx="70.495" cy="275.974" fill="#ffbead" rx="46.246" ry="46.246" transform="matrix(.099 -.995 .995 .099 -211.083 318.932)"/><ellipse cx="426.506" cy="275.974" fill="#ffcbbe" rx="46.246" ry="46.246" transform="matrix(.099 -.995 .995 .099 109.848 673.211)"/><path d="m284.731 417.719h-72.701c-77.89 0-141.618-63.728-141.618-141.618v-72.701c0-77.89 63.728-143.827 141.618-143.827h72.701c77.89 0 141.618 65.937 141.618 143.827v72.701c0 77.89-63.728 141.618-141.618 141.618z" fill="#ffddcf"/><path d="m139.551 208.351c3.628-47.484 10.046-96.78 27.885-141.305-56.216 19.36-97.025 74.027-97.025 136.354v72.701c0 64.313 43.45 118.966 102.444 136.067-25.247-64.86-38.636-134.034-33.304-203.817z" fill="#ffcbbe"/></g></g><g><g><g><path d="m166.037 290.301c-4.143 0-7.5-3.357-7.5-7.5v-13.029c0-4.143 3.357-7.5 7.5-7.5s7.5 3.357 7.5 7.5v13.029c0 4.143-3.357 7.5-7.5 7.5z" fill="#333942"/></g><g><path d="m330.963 290.301c-4.143 0-7.5-3.357-7.5-7.5v-13.029c0-4.143 3.357-7.5 7.5-7.5s7.5 3.357 7.5 7.5v13.029c0 4.143-3.357 7.5-7.5 7.5z" fill="#333942"/></g></g><g><path d="m248.429 298.295c-9.187 0-18.349-3.083-27.616-9.25-3.448-2.295-4.384-6.951-2.089-10.399 2.296-3.449 6.951-4.383 10.399-2.089 13.506 8.989 25.107 8.98 38.789-.021 3.462-2.279 8.111-1.316 10.388 2.144 2.276 3.461 1.316 8.111-2.144 10.388-9.352 6.151-18.552 9.227-27.727 9.227z" fill="#333942"/></g></g><g><g><g><g><path d="m421.756 207.136c10.82 0 19.173-9.534 17.739-20.258-10.035-75.035-74.462-135.143-151.801-135.143h-78.626c-77.339 0-141.766 60.108-151.801 135.143-1.434 10.725 6.918 20.258 17.739 20.258z" fill="#df8a57"/></g></g></g></g><g><g><g><g><path d="m433.553 160.412-370.353.011c-2.728 8.552-4.721 17.388-5.934 26.455-1.434 10.725 6.918 20.259 17.739 20.259h346.75c10.82 0 19.173-9.534 17.739-20.259-1.212-9.068-3.213-17.914-5.941-26.466z" fill="#c76d33"/></g></g></g></g><path d="m277.944 228.105h-58.888v-182.846c0-9.653 7.825-17.478 17.478-17.478h23.931c9.653 0 17.478 7.825 17.478 17.478v182.846z" fill="#fff2cf"/><path d="m219.056 160.412h58.888v67.693h-58.888z" fill="#ffe1bd"/><g><path d="m69.708 319.318c2.02 8.889 4.692 18.064 10.951 24.692s17.123 9.753 24.709 4.698c8.703-5.8 8.912-18.281 8.178-28.714-1.481-21.074-2.963-42.149-4.444-63.223-.571-8.126-1.193-16.455-4.586-23.861-9.584-20.915-36.34-17.413-40.608 4.193-5.11 25.867.048 56.903 5.8 82.215z" fill="#ffbe6b"/></g><path d="m427.293 319.318c-2.02 8.889-4.692 18.064-10.951 24.692-6.26 6.627-17.123 9.753-24.709 4.698-8.703-5.8-8.912-18.281-8.178-28.714 1.481-21.074 2.963-42.149 4.444-63.223.571-8.126 1.193-16.455 4.586-23.861 9.584-20.915 36.34-17.413 40.609 4.193 5.109 25.867-.049 56.903-5.801 82.215z" fill="#ffbe6b"/><path d="m441.12 185.621c9.346 0 16.923 7.577 16.923 16.923v19.179c0 9.346-7.577 16.923-16.923 16.923h-385.239c-9.346 0-16.923-7.577-16.923-16.923v-19.179c0-9.346 7.577-16.923 16.923-16.923z" fill="#fff2cf"/><g><path d="m112.368 303.233h-46.016c1.04 5.537 2.185 10.931 3.356 16.085 2.02 8.89 4.692 18.064 10.951 24.692s17.123 9.753 24.709 4.698c8.703-5.8 8.912-18.281 8.178-28.714-.392-5.588-.785-11.174-1.178-16.761z" fill="#ffaa3e"/></g><path d="m384.632 303.233c-.393 5.587-.786 11.173-1.178 16.76-.733 10.433-.524 22.914 8.178 28.714 7.586 5.056 18.449 1.93 24.709-4.698s8.931-15.802 10.951-24.692c1.171-5.154 2.316-10.548 3.356-16.085h-46.016z" fill="#ffaa3e"/><g><path d="m420.478 342.163c-5.179-10.877-20.374-13.933-33.238-13.427-12.52.492-65.795 10.438-128.313-.984-6.598-1.205-13.622-1.335-20.237-.113-62.784 11.6-116.368 1.591-128.929 1.097-12.864-.506-28.059 2.55-33.238 13.427-4.638 9.741 1.068 20.89 7.36 29.805 24.686 34.977 64.298 67.072 108.236 82.096 10.507 3.593 22.505-.021 28.106-8.976 5.67-9.065 16.299-15.308 28.275-15.308 11.968 0 22.6 6.248 28.273 15.313 5.602 8.952 17.598 12.564 28.103 8.973 43.937-15.022 83.552-47.116 108.242-82.098 6.292-8.915 11.998-20.064 7.36-29.805z" fill="#ffbe6b"/></g><g><path d="m115.432 17.827c-7.591-9.346-17.655-19.682-29.504-17.542-7.304 1.319-13.03 7.399-15.932 14.23-10.504 24.727-7.139 67.932 3.031 92.082 9.222 21.898 31.32 40.188 54.906 37.314 18.134-2.209 33.444-19.159 38.481-35.925 6.177-20.561-6.055-34.926-18.306-49.924-10.929-13.38-21.784-26.823-32.676-40.235z" fill="#e7faff"/><path d="m95.14 1.021c-2.933-.983-6.003-1.316-9.212-.736-7.304 1.319-13.03 7.399-15.932 14.23-10.504 24.727-7.139 67.932 3.031 92.082 9.221 21.898 31.32 40.187 54.906 37.314 8.036-.979 15.52-4.852 21.797-10.323-43.071-20.211-59.653-105.815-54.59-132.567z" fill="#caf5ff"/></g><g><path d="m381.794 17.827c7.591-9.346 17.655-19.682 29.504-17.542 7.304 1.319 13.03 7.399 15.932 14.23 10.504 24.727 7.139 67.932-3.031 92.082-9.222 21.898-31.32 40.188-54.906 37.314-18.134-2.209-33.444-19.159-38.481-35.925-6.177-20.561 6.055-34.926 18.306-49.924 10.929-13.38 21.784-26.823 32.676-40.235z" fill="#e7faff"/><path d="m402.086 1.021c2.933-.983 6.003-1.316 9.212-.736 7.304 1.319 13.03 7.399 15.932 14.23 10.504 24.727 7.139 67.932-3.031 92.082-9.221 21.898-31.32 40.187-54.906 37.314-8.036-.979-15.52-4.852-21.797-10.323 43.071-20.211 59.653-105.815 54.59-132.567z" fill="#caf5ff"/></g></g></svg>