<svg id="Capa_1" enable-background="new 0 0 497 497" height="512" viewBox="0 0 497 497" width="512" xmlns="http://www.w3.org/2000/svg"><g><path d="m418.727 470.727c-14.599-80.69-87.311-141.136-169.194-141.136-81.885 0-154.592 60.425-169.194 141.136-2.48 13.709 8.232 26.273 22.163 26.273h294.063c13.931 0 24.642-12.564 22.162-26.273z" fill="#525e77"/><path d="m249.533 329.591c-59.856 0-114.82 32.292-145.758 81.189 28.1 20.909 63.873 33.482 102.686 33.482h83.826c39.534 0 75.912-13.043 104.242-34.656-31.072-48.232-85.625-80.015-144.996-80.015z" fill="#3b4456"/><ellipse cx="60.563" cy="263.642" fill="#7c96b3" rx="48.827" ry="48.827" transform="matrix(.099 -.995 .995 .099 -207.764 297.932)"/><ellipse cx="436.437" cy="263.642" fill="#7c96b3" rx="48.827" ry="48.827" transform="matrix(.099 -.995 .995 .099 131.073 671.977)"/><path d="m286.752 413.295h-76.757c-82.236 0-149.52-67.284-149.52-149.52v-49.967c0-82.236 67.284-151.852 149.52-151.852h76.757c82.236 0 149.52 69.616 149.52 151.852v49.967c0 82.236-67.284 149.52-149.52 149.52z" fill="#90aecf"/><path d="m159.765 70.958c-57.733 21.363-99.29 78.207-99.29 142.851v49.967c0 82.236 67.284 149.52 149.52 149.52h12.451c-134.586-81.918-111.723-261.079-62.681-342.338z" fill="#7c96b3"/><path d="m421.556 331.378h-346.112c-14.557 0-26.357-11.8-26.357-26.357v-99.653c0-11.982 8.082-22.456 19.672-25.495l148.562-38.956c20.358-5.338 41.748-5.342 62.108-.01l148.804 38.971c11.594 3.036 19.68 13.512 19.68 25.497v99.647c0 14.556-11.801 26.356-26.357 26.356z" fill="#525e77"/><path d="m49.087 256.98v48.041c0 14.557 11.801 26.357 26.357 26.357h346.111c14.557 0 26.357-11.801 26.357-26.357v-48.041z" fill="#3b4456"/><g fill="#3b4456"><g><path d="m316.814 191.084-34.033-8.417c-5.133-1.27-10.096 2.615-10.096 7.903v95.356c0 4.496 3.645 8.141 8.141 8.141h34.033c4.496 0 8.141-3.645 8.141-8.141v-86.938c0-3.744-2.552-7.005-6.186-7.904z"/><path d="m368.639 214.302v71.624c0 4.496 3.645 8.141 8.141 8.141h18.993c4.496 0 8.141-3.645 8.141-8.141v-66.926c0-3.743-2.553-7.004-6.187-7.903l-18.993-4.697c-5.132-1.271-10.095 2.614-10.095 7.902z"/></g><g><path d="m180.186 191.084 34.033-8.417c5.133-1.27 10.096 2.615 10.096 7.903v95.356c0 4.496-3.645 8.141-8.141 8.141h-34.033c-4.496 0-8.141-3.645-8.141-8.141v-86.938c0-3.744 2.552-7.005 6.186-7.904z"/><path d="m128.361 214.302v71.624c0 4.496-3.645 8.141-8.141 8.141h-18.993c-4.496 0-8.141-3.645-8.141-8.141v-66.926c0-3.743 2.553-7.004 6.187-7.903l18.993-4.697c5.132-1.271 10.095 2.614 10.095 7.902z"/></g></g><path d="m296.806 0c10.611 0 18.865 9.226 17.688 19.771l-4.317 38.696c-2.189 19.618-18.774 34.455-38.513 34.455h-46.328c-19.739 0-36.324-14.838-38.513-34.455l-4.317-38.696c-1.177-10.545 7.077-19.771 17.688-19.771z" fill="#fd5c6f"/><path d="m249.466 3.243v-3.243h-49.273c-10.611 0-18.865 9.226-17.688 19.771l4.317 38.696c2.189 19.618 18.774 34.455 38.513 34.455h46.328c19.74 0 36.325-14.838 38.513-34.456l.759-6.804h-13.051c-26.74.001-48.418-21.677-48.418-48.419z" fill="#f9475e"/><g fill="#2e3747"><g><path d="m272.685 256.98v28.946c0 4.496 3.645 8.141 8.141 8.141h34.033c4.496 0 8.141-3.645 8.141-8.141v-28.946z"/><path d="m368.639 256.98v28.946c0 4.496 3.645 8.141 8.142 8.141h18.993c4.496 0 8.141-3.645 8.141-8.141v-28.946z"/></g><g><path d="m174 256.98v28.946c0 4.496 3.645 8.141 8.141 8.141h34.033c4.496 0 8.141-3.645 8.141-8.141v-28.946z"/><path d="m93.085 256.98v28.946c0 4.496 3.645 8.141 8.141 8.141h18.993c4.496 0 8.141-3.645 8.141-8.141v-28.946z"/></g></g></g></svg>