<svg id="Capa_1" enable-background="new 0 0 497 497" height="512" viewBox="0 0 497 497" width="512" xmlns="http://www.w3.org/2000/svg"><g><g><path d="m21.125 310.069c6.833 27.167 34.651 43.804 61.817 36.971 27.167-6.833 43.804-34.651 36.971-61.817l-19.591-77.891c-6.833-27.167-34.651-43.804-61.817-36.971-27.167 6.833-43.804 34.651-36.971 61.817z" fill="#525e77"/><path d="m22.783 177.32c4.686-3.124 9.968-5.513 15.722-6.96 27.167-6.833 54.985 9.804 61.817 36.971l19.591 77.891c6.833 27.167-9.804 54.985-36.971 61.817-52.089-30.013-56.653-142.559-60.159-169.719z" fill="#3b4456"/></g><g><path d="m475.875 310.069c-6.833 27.167-34.651 43.804-61.817 36.971-27.167-6.833-43.804-34.651-36.971-61.817l19.591-77.891c6.833-27.167 34.651-43.804 61.817-36.971 27.167 6.833 43.804 34.651 36.971 61.817z" fill="#525e77"/><path d="m474.217 177.32c-4.686-3.124-9.968-5.513-15.722-6.96-27.167-6.833-54.985 9.804-61.817 36.971l-19.591 77.891c-6.833 27.167 9.804 54.985 36.971 61.817 52.089-30.013 56.653-142.559 60.159-169.719z" fill="#3b4456"/></g><g><path d="m411.734 468.927c-10.071-55.669-47.921-101.671-98.676-123.133-19.843-8.391-41.659-13.031-64.558-13.031-23.671 0-46.179 4.966-66.552 13.9-49.749 21.815-86.743 67.329-96.682 122.265-2.393 13.226 7.941 25.348 21.382 25.348h36.876l104.976-17.396 104.977 17.395h36.876c13.44 0 23.774-12.122 21.381-25.348z" fill="#fed2a4"/></g><g><path d="m105.315 414.893c-7.597 12.961-13.498 27.038-17.368 41.937 13.047 9.654 26.595 22.505 34.871 37.445h20.705l27.746-4.598c-11.367-45.147-57.453-69.671-65.954-74.784z" fill="#ffbd86"/></g><path d="m285.527 391.798h-6.402l-7.186-4.525-7.5 4.525h-31.878l-7.5-3.941-7.5 3.941h-6.087c-79.339 0-144.253-64.914-144.253-144.253v-74.054c0-79.339 64.914-113.798 144.253-113.798h74.054c79.339 0 144.253 34.458 144.253 113.798v74.054c-.001 79.339-64.915 144.253-144.254 144.253z" fill="#fff"/><path d="m147.104 368.881c-2.504-18.91-4.283-37.859-4.75-56.938-.901-36.795 2.513-73.764 9.688-109.857 6.914-34.784 18.206-68.411 31.862-101.098 5.802-13.888 11.979-27.595 18.494-41.135-75.153 2.561-135.178 37.347-135.178 113.638l-1 74.053c0 56.692 34.145 106.019 82.013 129.56-.395-2.732-.766-5.48-1.129-8.223z" fill="#e7faff"/><g><g><ellipse cx="158.011" cy="281.63" fill="#90aecf" rx="42.476" ry="46.642"/></g><g><ellipse cx="338.989" cy="281.63" fill="#90aecf" rx="42.476" ry="46.642"/></g></g><g><g><g><g><path d="m166.366 300.905c-4.142 0-7.5-3.357-7.5-7.5v-12.978c0-4.143 3.358-7.5 7.5-7.5s7.5 3.357 7.5 7.5v12.978c0 4.143-3.358 7.5-7.5 7.5z" fill="#333942"/></g><g><path d="m330.634 300.905c-4.142 0-7.5-3.357-7.5-7.5v-12.978c0-4.143 3.358-7.5 7.5-7.5s7.5 3.357 7.5 7.5v12.978c0 4.143-3.358 7.5-7.5 7.5z" fill="#333942"/></g></g><g><path d="m248.429 308.868c-9.155 0-18.286-3.072-27.522-9.219-3.449-2.295-4.384-6.95-2.089-10.399s6.951-4.383 10.399-2.089c13.44 8.942 24.984 8.935 38.602-.021 3.461-2.277 8.111-1.316 10.388 2.144 2.276 3.461 1.317 8.111-2.144 10.388-9.321 6.131-18.49 9.196-27.634 9.196z" fill="#333942"/></g></g></g><g><path d="m53.028 113.623c6.189-28.016 21.074-56.447 44.424-73.943 14.377-10.773 31.432-17.394 48.656-22.503 64.917-19.256 139.78-19.283 204.786 0 17.223 5.109 34.279 11.73 48.656 22.503 22.659 16.979 37.079 43.332 43.712 70.859s6.05 56.311 3.069 84.469c-.845 7.978-1.926 16.102-5.431 23.318-3.506 7.216-9.875 13.487-17.778 14.869-10.777 1.885-20.834-5.389-29.127-12.525-25.826-22.222-49.215-47.274-69.615-74.562h-21.344-130.414c-20.4 27.288-43.789 52.34-69.615 74.562-8.293 7.136-18.351 14.41-29.127 12.525-7.903-1.383-14.272-7.653-17.778-14.869s-4.587-15.34-5.431-23.318c-1.821-17.2-2.747-34.633-1.681-51.871.265-9.208 4.038-29.514 4.038-29.514z" fill="#525e77"/></g><g><path d="m196.405 187.922c-6.98-.864-13.938 1.763-18.606 7.023-11.756 13.246-33.599 7.262-36.962-10.126-1.336-6.905-5.983-12.711-12.429-15.525-16.231-7.087-17.289-29.71-1.791-38.282 6.154-3.404 10.24-9.618 10.925-16.618 1.725-17.627 22.913-25.624 35.855-13.533 5.139 4.801 12.312 6.766 19.18 5.255 17.297-3.807 31.451 13.873 23.951 29.918-2.978 6.371-2.631 13.8.929 19.866 8.966 15.273-3.475 34.197-21.052 32.022z" fill="#76e7d6"/><path d="m300.595 187.922c6.98-.864 13.938 1.763 18.606 7.023 11.756 13.246 33.599 7.262 36.962-10.126 1.336-6.905 5.983-12.711 12.429-15.525 16.231-7.087 17.289-29.71 1.791-38.282-6.154-3.404-10.24-9.618-10.925-16.618-1.725-17.627-22.913-25.624-35.855-13.533-5.139 4.801-12.312 6.766-19.18 5.255-17.297-3.807-31.451 13.873-23.951 29.918 2.978 6.371 2.631 13.8-.929 19.866-8.966 15.273 3.475 34.197 21.052 32.022z" fill="#fff2cf"/></g><g fill="#fd5c6f"><path d="m158.585 479.846-70.473-46.711c-7.295-4.835-9.289-14.669-4.454-21.965l6.57-9.912c4.835-7.295 14.669-9.289 21.965-4.454l70.473 46.711z"/><path d="m338.415 479.846 70.473-46.711c7.295-4.835 9.289-14.669 4.454-21.965l-6.57-9.912c-4.835-7.295-14.669-9.289-21.965-4.454l-70.473 46.711z"/></g><path d="m299.953 427.1c-17.474 0-33.134 6.478-43.758 16.719-4.268 4.114-11.123 4.114-15.391 0-10.624-10.241-26.283-16.719-43.758-16.719-32.013 0-57.964 21.727-57.964 48.528 0 6.608 1.584 12.905 4.441 18.647h209.953c2.857-5.741 4.441-12.039 4.441-18.647 0-26.801-25.951-48.528-57.964-48.528z" fill="#76e7d6"/><g fill="#fd5c6f"><path d="m225.061 338.127c-4.142 0-7.5 3.357-7.5 7.5v46.171h15v-46.171c0-4.143-3.358-7.5-7.5-7.5z"/><path d="m271.939 338.127c-4.142 0-7.5 3.357-7.5 7.5v46.171h15v-46.171c0-4.143-3.358-7.5-7.5-7.5z"/></g><g><path d="m142.354 311.943c-.614-25.084.78-50.273 4.001-75.186-17.79 5.564-30.82 23.553-30.82 44.873 0 19.91 11.359 36.905 27.35 43.598-.243-4.419-.423-8.853-.531-13.285z" fill="#7c96b3"/></g><path d="m198.911 427.125c-.617-.016-1.243-.025-1.864-.025-32.013 0-57.964 21.727-57.964 48.528 0 6.608 1.584 12.905 4.441 18.647h38.338c.492-23.346 6.197-46.648 17.049-67.15z" fill="#50e2ce"/><g><path d="m196.405 187.922c17.577 2.175 30.018-16.749 21.052-32.023-3.56-6.065-3.908-13.494-.929-19.865 7.5-16.045-6.654-33.725-23.951-29.918-6.869 1.511-14.041-.454-19.18-5.255-5.392-5.037-12.212-6.597-18.462-5.417-3.196 12.511 0 26.687 11.221 36.647 9.063 8.043 13.587 20.031 12.099 32.056-1.214 9.813 1.404 18.684 6.372 25.684 3.617-1.716 7.692-2.415 11.778-1.909z" fill="#50e2ce"/><path d="m319.199 157.551c-2.604-11.834.781-24.192 9.053-33.046 8.039-8.605 10.904-19.342 9.669-29.435-5.01.035-10.101 1.85-14.319 5.79-5.139 4.801-12.312 6.766-19.18 5.255-17.297-3.807-31.451 13.873-23.951 29.918 2.978 6.371 2.631 13.8-.929 19.865-8.965 15.274 3.476 34.198 21.052 32.023 3.676-.455 7.343.067 10.675 1.423 7.055-8.204 10.627-19.537 7.93-31.793z" fill="#ffe1bd"/></g><path d="m209.19 144.786c.864-6.98-1.763-13.938-7.023-18.606-13.246-11.756-7.262-33.599 10.126-36.962 6.905-1.336 12.711-5.983 15.525-12.429 7.087-16.231 29.71-17.289 38.282-1.791 3.404 6.154 9.618 10.24 16.618 10.925 17.627 1.725 25.624 22.913 13.533 35.855-4.801 5.139-6.766 12.312-5.255 19.18 3.807 17.297-13.873 31.451-29.918 23.951-6.371-2.978-13.8-2.631-19.866.929-15.273 8.966-34.197-3.475-32.022-21.052z" fill="#fd5c6f"/></g></svg>