<svg id="Capa_1" enable-background="new 0 0 497 497" height="512" viewBox="0 0 497 497" width="512" xmlns="http://www.w3.org/2000/svg"><g><g><path d="m409.402 128.919c-57.219-6.108-94.269-94.404-31.783-121.851 20.256-8.897 44.043-9.421 64.671-1.425 20.629 7.997 37.847 24.417 46.814 44.643 4.145 9.351 5.57 22.367-2.985 27.974-5.949 3.899-14.28 2.259-20.274 6.086-6.582 4.203-7.823 13.055-10.868 20.247-7.195 16.99-27.229 26.285-45.575 24.326z" fill="#df8a57"/><path d="m377.619 7.069c-62.486 27.446-25.437 115.743 31.783 121.851 18.346 1.958 38.38-7.336 45.575-24.326 1.721-4.063 2.865-8.656 4.722-12.642-14.024-50.18-59.432-80.246-82.08-84.883z" fill="#c76d33"/></g><g><path d="m87.598 128.919c57.219-6.108 94.269-94.404 31.783-121.851-20.256-8.897-44.043-9.421-64.671-1.424-20.629 7.997-37.848 24.417-46.814 44.643-4.145 9.351-5.57 22.367 2.985 27.974 5.949 3.899 14.28 2.259 20.274 6.086 6.582 4.203 7.823 13.055 10.868 20.247 7.195 16.989 27.229 26.284 45.575 24.325z" fill="#df8a57"/><path d="m119.381 7.069c62.486 27.446 25.437 115.743-31.783 121.851-18.346 1.958-38.38-7.336-45.575-24.326-1.721-4.063-2.865-8.656-4.722-12.642 14.024-50.18 59.432-80.246 82.08-84.883z" fill="#c76d33"/></g><g><path d="m453.33 415.918c-5.709 5.351-5.564 14.466.465 19.454 3.798 3.142 7.274 6.607 10.089 10.651 5.853 8.409 8.281 20.017 3.296 28.968-4.885 8.771-15.327 12.774-25.19 14.65-24.367 4.635-51.043-.194-70.367-15.745-73.302-58.989 42.075-171.658 89.873-106.177 13.854 18.977 5.759 35.147-8.166 48.199z" fill="#e7faff"/><path d="m442.084 351.551c-3.216 3.187-6.262 6.586-9.031 10.345-10.966 14.886-15.376 34.943-13.568 53.194 1.891 19.1 7.884 37.874 12.993 56.314 1.752 6.323 3.575 12.636 5.49 18.914-23.243 3.396-48.079-1.724-66.343-16.422-64.612-51.995 17.378-145.698 70.459-122.345z" fill="#caf5ff"/></g><g><path d="m43.67 415.918c5.709 5.351 5.564 14.466-.465 19.454-3.798 3.142-7.274 6.607-10.09 10.651-5.853 8.409-8.281 20.017-3.296 28.968 4.885 8.771 15.327 12.774 25.19 14.65 24.367 4.635 51.043-.194 70.367-15.745 73.302-58.989-42.075-171.658-89.873-106.177-13.853 18.977-5.758 35.147 8.167 48.199z" fill="#e7faff"/><path d="m54.916 351.551c3.216 3.187 6.261 6.586 9.031 10.345 10.966 14.886 15.376 34.943 13.568 53.194-1.891 19.1-7.884 37.874-12.993 56.314-1.752 6.323-3.575 12.636-5.49 18.914 23.243 3.396 48.079-1.724 66.343-16.422 64.612-51.995-17.378-145.698-70.459-122.345z" fill="#caf5ff"/></g><path d="m98.734 429.606c-6.254 13.109-10.851 27.159-13.515 41.883-2.408 13.311 7.992 25.511 21.519 25.511h51.654c-9.263-33.697-24.825-53.473-59.658-67.394z" fill="#fed2a4"/><path d="m399.711 428.455c-29.276 9.176-51.84 30.138-61.103 68.545h53.66c13.527 0 23.927-12.2 21.519-25.511-2.742-15.157-7.538-29.597-14.076-43.034z" fill="#fed2a4"/><path d="m399.711 428.455c-27.077-55.65-84.159-94.007-150.208-94.007-66.504 0-123.923 38.885-150.769 95.158 23.58 18.791 43.885 41.699 59.658 67.394h180.216c16.095-26.219 36.905-49.542 61.103-68.545z" fill="#76e7d6"/><path d="m249.503 334.448c-57.801 0-108.745 29.382-138.713 74.016 26.903 18.05 60.211 28.757 96.157 28.757h82.86c36.63 0 70.519-11.141 97.684-29.817-30.057-44.041-80.643-72.956-137.988-72.956z" fill="#50e2ce"/><ellipse cx="66.016" cy="270.413" fill="#ffb578" rx="47.41" ry="47.41" transform="matrix(.099 -.995 .995 .099 -209.586 309.462)"/><ellipse cx="430.984" cy="270.413" fill="#ffbd86" rx="47.41" ry="47.41" transform="matrix(.099 -.995 .995 .099 119.418 672.654)"/><path d="m65.936 271.734c.646 79.307 65.724 143.99 145.176 143.99h74.53c79.85 0 145.181-65.332 145.181-145.181v-74.53c0-79.85-65.332-147.446-145.181-147.446h-74.53c-79.85 0-145.181 67.596-145.181 147.446z" fill="#fed2a4"/><path d="m131.162 201.165c4.998-38.617 13.764-76.63 26.056-113.58 3.651-10.977 7.642-21.827 11.894-32.577-59.538 18.678-103.181 75.744-103.181 141.005l-.995 75.721c.458 56.287 34.375 105.209 81.85 128.866-16.702-64.999-24.273-132.613-15.624-199.435z" fill="#ffbd86"/><path d="m440.032 140.81c-11.697-64.022-69.575-112.219-134.759-112.219h-113.546c-65.184 0-123.062 48.196-134.758 112.219-3.067 16.785-9.45 44.782 6.919 56.089 26.812 14.672 141.919-30.307 162.39-34.402 7.335-1.467 37.11-1.467 44.445 0 20.471 4.095 135.578 49.074 162.39 34.402 16.369-11.307 9.985-39.304 6.919-56.089z" fill="#df8a57"/><path d="m331.563 125.225h-167.733c-17.609 0-35.07 3.367-51.358 10.059-18.036 7.41-41.163 19.091-59.332 35.625.067 10.511 2.563 20.337 10.748 25.991 26.812 14.672 141.919-30.307 162.39-34.402 7.335-1.467 37.11-1.467 44.445 0 20.471 4.095 135.578 49.074 162.39 34.402 9.331-6.446 11.269-18.314 10.642-30.437-23.899-16.58-49.222-27.308-67.386-33.653-14.404-5.033-29.549-7.585-44.806-7.585z" fill="#c76d33"/><path d="m139.623 119.863c.26 15.954 12.033 29.253 24.213 39.56 36.107 30.552 82.368 48.89 129.601 51.376 14.09.741 29.016-.113 40.915-7.693 13.764-8.767 21.054-25.276 22.626-41.519s-1.782-32.515-5.118-48.489" fill="#df8a57"/><g fill="#fff"><ellipse cx="139.623" cy="293.955" rx="29.809" ry="23.221"/><ellipse cx="357.377" cy="293.955" rx="29.809" ry="23.221"/></g><g><g><g><path d="m163.963 284.912c-4.143 0-7.5-3.357-7.5-7.5v-13.357c0-4.143 3.357-7.5 7.5-7.5s7.5 3.357 7.5 7.5v13.357c0 4.143-3.358 7.5-7.5 7.5z" fill="#333942"/></g><g><path d="m333.037 284.912c-4.143 0-7.5-3.357-7.5-7.5v-13.357c0-4.143 3.357-7.5 7.5-7.5s7.5 3.357 7.5 7.5v13.357c0 4.143-3.357 7.5-7.5 7.5z" fill="#333942"/></g></g><g><path d="m248.428 293.104c-9.384 0-18.74-3.149-28.207-9.448-3.448-2.295-4.384-6.951-2.089-10.399s6.951-4.383 10.399-2.089c13.916 9.262 25.871 9.256 39.973-.021 3.457-2.277 8.109-1.318 10.388 2.144 2.276 3.46 1.316 8.111-2.144 10.388-9.553 6.283-18.949 9.425-28.32 9.425z" fill="#333942"/></g></g></g></svg>