<svg id="Capa_1" enable-background="new 0 0 512 512" height="512" viewBox="0 0 512 512" width="512" xmlns="http://www.w3.org/2000/svg"><path d="m366.907 61.3-65.907-14.886-45 .236-43.297.229-68.562 15.121c-25.525 24.214-35.599 56.944-11.349 110.211l48.208 38.789v120h75 75v-120l48.208-38.789c24.443-53.703 13.854-86.561-12.301-110.911z" fill="#6ccc45"/><path d="m331 211 48.208-38.789c24.443-53.703 13.854-86.561-12.301-110.911l-65.907-14.886-45 .236v284.35h75z" fill="#339c20"/><path d="m421 265.858c0 19.38-15.762 35.142-35.142 35.142h-129.858-129.858c-19.38 0-35.142-15.762-35.142-35.142 0-54.726-21.313-106.171-60-144.858v150c0 49.629 40.371 90 90 90h135 135c49.629 0 90-40.371 90-90v-150c-38.687 38.687-60 90.132-60 144.858z" fill="#6ccc45"/><path d="m481 271v-150c-38.687 38.687-60 90.132-60 144.858 0 19.38-15.762 35.142-35.142 35.142h-129.858v60h135c49.629 0 90-40.371 90-90z" fill="#339c20"/><path d="m331 241h-30v-30c0-33.091 26.909-60 60-60h30v30c0 33.091-26.909 60-60 60z" fill="#e7e7f2"/><path d="m211 241h-30c-33.091 0-60-26.909-60-60v-30h30c33.091 0 60 26.909 60 60z" fill="#f2f2f2"/><path d="m361 181c-16.538 0-30 13.462-30 30 16.538 0 30-13.462 30-30z" fill="#5b5555"/><path d="m151 181c0 16.538 13.462 30 30 30 0-16.538-13.462-30-30-30z" fill="#766e6e"/><path d="m406.3 452c-17.693 0-30.3-18.443-30.3-31 0-66.275-53.725-120-120-120s-120 53.725-120 120c0 15.291-11.697 31-30 31-17.999 0-32.701 2.999-45 8.101-36.055 14.192-51.815 42.725-61 51.899h106c49.501 0 90-41.499 90-91 0-33.091 26.909-60 60-60s60 26.909 60 60c0 49.501 41.7 91 91.199 91h104.801c-13.916-13.916-35.166-60-105.7-60z" fill="#c0f060"/><path d="m316 421c0 49.501 41.7 91 91.199 91h104.801c-13.916-13.916-35.166-60-105.7-60-17.693 0-30.3-18.443-30.3-31 0-66.275-53.725-120-120-120v60c33.091 0 60 26.909 60 60z" fill="#6ccc45"/><path d="m329.44 35.468-73.44-.07-73.297-.068c-14.639 7.984-27.938 16.592-38.562 26.67 18.928-1.41 37.5 2.216 53.851 12.272 26.924 16.567 43.008 45.249 43.008 76.728v60h15 15v-60c0-36.284 21.665-68.862 55.181-82.998 13.141-5.546 26.878-7.597 40.726-6.702-10.422-9.702-23.3-18.07-37.467-25.832z" fill="#c0f060"/><path d="m271 151c0-36.284 21.665-68.862 55.181-82.998 13.141-5.546 26.878-7.597 40.726-6.702-10.422-9.703-23.3-18.071-37.467-25.833l-73.44-.069v175.602h15z" fill="#6ccc45"/><path d="m262.709 3.354-6.709-3.354-6.709 3.354c-22.727 11.38-46.247 20.88-66.588 31.976 32.796 9.034 58.376 30.639 73.297 57.572.049.09.126.167.176.256 15.092-27.341 39.809-48.534 73.264-57.691-20.587-11.28-43.846-20.652-66.731-32.113z" fill="#6ccc45"/><path d="m329.44 35.468c-20.587-11.281-43.846-20.653-66.731-32.113l-6.709-3.355v92.902c.049.09.126.167.176.256 15.091-27.34 39.809-48.533 73.264-57.69z" fill="#339c20"/></svg>