<svg id="Capa_1" enable-background="new 0 0 512 512" height="512" viewBox="0 0 512 512" width="512" xmlns="http://www.w3.org/2000/svg"><path d="m332 390h90v122h-60l-30-33.747z" fill="#463f3f"/><path d="m150 512h-60v-122h90v91z" fill="#5b5555"/><path d="m256 390h-106v122h106 106v-122z" fill="#463f3f"/><path d="m256 390h106v122h-106z" fill="#292929"/><path d="m135 180-15 30v7.8c0 40.8 23.699 55.499 40.8 66.299 14.401 9.302 19.2 12.902 19.2 23.401l30-52.5z" fill="#ff637b"/><path d="m377 180-75 75 30 52.2c0-9.6 5.4-14.099 19.501-23.399 17.098-11.4 40.499-26.7 40.499-66v-7.801z" fill="#e63950"/><path d="m256 300h-196v45c0 57.891 47.109 106 105 106h91 91c57.891 0 105-48.109 105-106v-45z" fill="#766e6e"/><path d="m452 345v-45h-196v151h91c57.891 0 105-48.109 105-106z" fill="#5b5555"/><path d="m384.8 151.5c-17.1-16.8-22.8-22.5-22.8-46.8 0-41.1-34.6-74.7-75.7-74.7h-30.3-30.3c-41.1 0-75.7 33.6-75.7 75 0 23.699-10.499 34.501-25.499 49.501l-4.501 4.198v51.301h15c24.901 0 45 20.099 45 45v135h61l15-30 15 30h61v-135c0-24.901 20.099-45 45-45h15v-51.301z" fill="#f2f2f2"/><path d="m332 390v-135c0-24.901 20.099-45 45-45h15v-51.301l-7.2-7.2c-17.1-16.799-22.8-22.499-22.8-46.799 0-41.1-34.6-74.7-75.7-74.7h-30.3v330l15 30z" fill="#e7e7f2"/><g fill="#5b5555"><path d="m452 150h-150v-30h120v-120h30z"/><path d="m512 120h-75v-30h45v-90h30z"/><path d="m437 60h-75v-60h30v30h45z"/></g><path d="m210 150h-150v-150h30v120h120z" fill="#766e6e"/><path d="m75 120h-75v-120h30v90h45z" fill="#766e6e"/><path d="m150 60h-75v-30h45v-30h30z" fill="#766e6e"/><path d="m256 300h-15v90h15 15v-90z" fill="#e7e7f2"/><path d="m256 300h15v90h-15z" fill="#cecee6"/></svg>