<svg id="Capa_1" enable-background="new 0 0 512 512" height="512" viewBox="0 0 512 512" width="512" xmlns="http://www.w3.org/2000/svg"><g fill="#4bb9ec"><path d="m91 151c-33.091 0-60 26.909-60 60s26.909 60 60 60h15v-120z"/><path d="m421 151h-15v120h15c33.091 0 60-26.909 60-60s-26.909-60-60-60z"/><path d="m91 332.518c-34.191 6.969-60 37.266-60 73.482v106h60l30-30v-118.237z"/></g><path d="m421 332.518-30 31.245v118.237l30 30h60v-106c0-36.216-25.809-66.513-60-73.482z" fill="#0095ff"/><path d="m256 0c-91.128 0-165 74.872-165 166v346h60l15-30 15 30h30l15-30 15 30h15 15l15-30 15 30h30l15-30 15 30h60v-346c0-91.128-73.872-166-165-166z" fill="#f2f2f2"/><path d="m286 482 15 30h30l15-30 15 30h60v-346c0-91.128-73.872-166-165-166v512h15z" fill="#e7e7f2"/><path d="m211 451h30v61h-30z" fill="#e7e7f2"/><path d="m271 421h30v91h-30z" fill="#cecee6"/><path d="m331 391h30v121h-30z" fill="#cecee6"/><path d="m151 391h30v121h-30z" fill="#e7e7f2"/><path d="m331 90c-16.538 0-30-13.462-30-30s13.462-30 30-30l75.498.103c21.46 0 46.685-10.635 74.502-30.103 0 3.311-1.025 90-90 90z" fill="#4bb9ec"/><path d="m181 90c16.538 0 30-13.462 30-30s-13.462-30-30-30l-75.498.103c-21.46 0-46.685-10.635-74.502-30.103 0 3.311 1.025 90 90 90z" fill="#76e2f8"/><path d="m310.712 151c-16.846 0-32.607 8.672-42.158 23.218-2.783 4.248-7.668 6.372-12.554 6.372s-9.771-2.124-12.554-6.372c-9.55-14.546-25.312-23.218-42.158-23.218-27.729 0-50.288 22.559-50.288 50.288v54.712c0 37.178 19.307 70.825 51.636 90.029l16.011 9.521 12.085-36.343c3.632-10.883 13.784-18.207 25.268-18.207s21.636 7.324 25.254 18.193l12.1 36.357 16.011-9.521c32.328-19.204 51.635-52.851 51.635-90.029v-54.712c0-27.729-22.559-50.288-50.288-50.288z" fill="#76e2f8"/><path d="m281.254 319.193 12.1 36.357 16.011-9.521c32.328-19.204 51.635-52.851 51.635-90.029v-54.712c0-27.729-22.559-50.288-50.288-50.288-16.846 0-32.607 8.672-42.158 23.218-2.783 4.248-7.668 6.372-12.554 6.372v120.41c11.484 0 21.636 7.324 25.254 18.193z" fill="#4bb9ec"/></svg>