<svg id="Capa_1" enable-background="new 0 0 512 512" height="512" viewBox="0 0 512 512" width="512" xmlns="http://www.w3.org/2000/svg"><path d="m407.582 369.291c-11.353 22.734-37.163 33.926-61.538 26.616l-11.122 85.093 11.078 31h15c57.891 0 105-48.109 105-106v-153.545z" fill="#6ccc45"/><path d="m292.599 265.6h-81.599-81.599c-46.802 31.199-71.7 85.199-64.801 141l11.4 105.4h120l15-31 15 31h120l11.4-105.399c6.9-55.802-17.999-109.801-64.801-141.001z" fill="#6ccc45"/><path d="m346 512 11.4-105.399c6.899-55.801-17.999-109.801-64.801-141h-81.599v215.399l15 31z" fill="#339c20"/><path d="m211 0c-86.065 0-157.412 65.911-165 150l34.014 30h130.986 132.043l32.957-30c-7.588-84.089-78.935-150-165-150z" fill="#f2f2f2"/><path d="m376 150c-7.588-84.089-78.935-150-165-150v180h132.043z" fill="#e7e7f2"/><path d="m136 210h-45c-24.853 0-45-20.147-45-45v-15h90z" fill="#6ccc45"/><path d="m331 210h-45v-60h90v15c0 24.853-20.147 45-45 45z" fill="#339c20"/><path d="m244.281 109.16h-33.281-33.281l-71.719 40.84v75c0 57.891 47.109 106 105 106s105-48.109 105-106v-75z" fill="#c0f060"/><path d="m316 225v-75l-71.719-40.84h-33.281v221.84c57.891 0 105-48.109 105-106z" fill="#6ccc45"/><circle cx="211" cy="105" fill="#ffed00" r="45"/><path d="m256 105c0-24.814-20.186-45-45-45v90c24.814 0 45-20.186 45-45z" fill="#fdbf00"/><path d="m211 436h-15v76h15 15v-76z" fill="#c0f060"/><path d="m211 436h15v76h-15z" fill="#6ccc45"/><path d="m256 391v30h-45-45v-30h-30v60h75 75v-60z" fill="#c0f060"/><path d="m286 391h-30v30h-45v30h75z" fill="#6ccc45"/></svg>