<svg id="Capa_1" enable-background="new 0 0 512 512" height="512" viewBox="0 0 512 512" width="512" xmlns="http://www.w3.org/2000/svg"><path d="m481.456 211.092-1.335-10.331c-4.173-24.097-20.748-35.085-23.232-38.086 1.058-4.503-.917-40.666 30.117-71.675-67.035 0-83.205 60.189-85.518 63.208-3.001 2.49-40.488 13.667-40.488 56.792v60c0 16.538-13.462 30-30 30h-45v-180h-30-30v180h-45c-16.538 0-30-13.462-30-30v-60c0-43.125-37.487-54.302-40.488-56.792-2.313-3.019-18.483-63.208-85.518-63.208 31.035 31.009 29.059 67.172 30.117 71.675-2.485 3.001-19.059 13.989-23.232 38.086l-1.335 10.331c-16.348.26-30.544 13.5-30.544 29.908 0 16.569 14.431 30 31 30h59.033l1.904 12.803c7.068 47.747 45.381 64.788 49.702 68.936-3.215 7.534-20.639 30.043-20.639 68.261v91h60l30-31h45 45l30 31h60v-91c0-38.203-17.477-60.853-20.64-68.262 3.565-3.422 42.676-21.471 49.702-68.936l1.905-12.802h59.033c16.569 0 31-13.431 31-30 0-16.408-14.196-29.648-30.544-29.908z" fill="#e63950"/><path d="m331 512h60v-91c0-38.203-17.477-60.853-20.64-68.262 3.565-3.422 42.676-21.471 49.702-68.936l1.905-12.802h59.033c16.569 0 31-13.431 31-30 0-16.408-14.196-29.648-30.544-29.908l-1.335-10.331c-4.173-24.097-20.748-35.085-23.232-38.086 1.058-4.503-.917-40.666 30.117-71.675-67.035 0-83.205 60.189-85.518 63.208-3.001 2.49-40.488 13.667-40.488 56.792v60c0 16.538-13.462 30-30 30h-45v-180h-30v360h45z" fill="#cd0000"/><path d="m76 196h30v30h-30z" fill="#463f3f"/><path d="m406 196h30v30h-30z" fill="#292929"/><path d="m300.824 30c-3.003-2.943-15.835-28.746-44.824-28.753-.005 0-.009-.002-.015-.002-28.92 0-41.779 25.785-44.78 28.726-4.759-.987-51.108 9.085-90.205-29.971 0 56.671 72.041 82.632 75.044 84.771l.234 9.829c1.328 56.718 34.338 86.4 59.722 86.4 25.166 0 58.363-29.72 59.722-86.415l.249-9.814c3.001-2.139 75.029-28.045 75.029-84.771-38.531 38.571-85.898 29.11-90.176 30z" fill="#ff637b"/><path d="m315.722 94.585.249-9.814c3.001-2.139 75.029-28.045 75.029-84.771-38.531 38.571-85.898 29.11-90.176 30-3.003-2.943-15.835-28.746-44.824-28.753v179.753c25.166 0 58.363-29.72 59.722-86.415z" fill="#e63950"/><path d="m256 361c-41.422 0-75 33.578-75 75l30 30h45 45l30-30c0-41.422-33.578-75-75-75z" fill="#fed2a4"/><path d="m331 436c0-41.422-33.578-75-75-75v105h45z" fill="#ffbd86"/><path d="m256 436h-75v76h75 75v-76z" fill="#ffbd86"/><path d="m256 436h75v76h-75z" fill="#f6a96c"/></svg>