<svg id="Capa_1" enable-background="new 0 0 512 512" height="512" viewBox="0 0 512 512" width="512" xmlns="http://www.w3.org/2000/svg"><path d="m56.371 115.886c17.038 22.139 43.391 35.114 71.327 35.114h83.302v60h-75c-57.99 0-105-47.01-105-105v-23.086z" fill="#fdbf00"/><path d="m455.629 115.886c-17.038 22.139-43.391 35.114-71.327 35.114h-83.302v60h75c57.99 0 105-47.01 105-105v-23.086z" fill="#ff9100"/><path d="m256 361h-15v75h15 15v-75z" fill="#fdbf00"/><path d="m256 361h15v75h-15z" fill="#ff9100"/><path d="m320.495 128.549-64.495.028-64.525.029-123.605 245.006 53.13 35.42 45-30 45 30 45-30 45 30 45-30 45 30 53.13-35.42z" fill="#ff637b"/><path d="m346 379.032 45 30 53.13-35.42-123.635-245.063-64.495.028v250.455l45 30z" fill="#e63950"/><path d="m306.374 100.556-50.374.268-50.645.269-13.879 27.513c18.233 14.191 40.896 22.394 64.524 22.394 23.963 0 46.408-8.324 64.495-22.451z" fill="#ffed00"/><path d="m306.374 100.556-50.374.268v50.176c23.963 0 46.408-8.324 64.495-22.451z" fill="#fdbf00"/><path d="m311.913 275.995c-14.224 15.894-35.068 23.84-55.913 23.84s-41.689-7.947-55.913-23.84l-22.354 20.01c19.908 22.236 48.428 34.995 78.267 34.995s58.359-12.759 78.267-34.995z" fill="#766e6e"/><path d="m311.913 275.995c-14.224 15.894-35.068 23.84-55.913 23.84v31.165c29.839 0 58.359-12.759 78.267-34.995z" fill="#5b5555"/><path d="m256 0-50.645 101.093c13.623 12.586 31.406 19.907 50.645 19.907 19.25 0 36.788-7.914 50.374-20.444z" fill="#ff637b"/><path d="m256 0v121c19.25 0 36.788-7.914 50.374-20.444z" fill="#e63950"/><path d="m256 421c-41.353 0-75 34.647-75 76v15h75 75v-15c0-41.353-33.647-76-75-76z" fill="#ffed00"/><path d="m331 497c0-41.353-33.647-76-75-76v91h75z" fill="#fdbf00"/><circle cx="256" cy="226" fill="#f2f2f2" r="45"/><path d="m301 226c0-24.814-20.186-45-45-45v90c24.814 0 45-20.186 45-45z" fill="#e7e7f2"/><circle cx="256" cy="226" fill="#5b5555" r="15"/><path d="m271 226c0-8.276-6.724-15-15-15v30c8.276 0 15-6.724 15-15z" fill="#463f3f"/></svg>