<svg id="Capa_1" enable-background="new 0 0 512 512" height="512" viewBox="0 0 512 512" width="512" xmlns="http://www.w3.org/2000/svg"><path d="m421 180h-150v-60l45-30 60 30c24.853 0 45 20.147 45 45z" fill="#6d3326"/><path d="m91 180h150v-60l-34.746-30-70.254 30c-24.853 0-45 20.147-45 45z" fill="#883f2e"/><path d="m391 120h-120v-60h115.796c26.364 0 51.234-4.157 67.312-25.052l26.892-34.948v38.086c0 49.706-40.294 81.914-90 81.914z" fill="#ffbd86"/><path d="m31 38.086v-38.086l26.892 34.948c16.078 20.895 40.948 25.052 67.312 25.052h115.796v60h-120c-49.706 0-90-32.208-90-81.914z" fill="#fed2a4"/><path d="m361 270c-12.891 0-25.591-4.395-35.728-12.363h-69.272-69.272c-10.137 7.968-22.837 12.363-35.728 12.363-49.629 0-90 40.371-90 90v152h75l30-31h90 90l30 31h75v-152c0-49.629-40.371-90-90-90z" fill="#fed2a4"/><path d="m376 512h75v-152c0-49.629-40.371-90-90-90-12.891 0-25.591-4.395-35.728-12.363h-69.272v223.363h90z" fill="#ffbd86"/><path d="m361 138.545v-78.545l-38.789-30h-66.211-66.211l-38.789 30v78.545l31.582 63.164c7.192 14.37 6.343 18.647 3.545 32.783-2.168 10.928-5.127 25.884-5.127 50.508 0 24.814 20.186 45 45 45h30 30c24.814 0 45-20.186 45-45 0-24.492-2.944-39.478-5.083-50.42-2.798-14.268-3.647-18.574 3.501-32.871z" fill="#bb5d4c"/><path d="m331 285c0-24.492-2.944-39.478-5.083-50.42-2.798-14.268-3.647-18.574 3.501-32.871l31.582-63.164v-78.545l-38.789-30h-66.211v300h30c24.814 0 45-20.186 45-45z" fill="#883f2e"/><path d="m316 420c-24.62 0-46.318-12.085-60-30.463-13.682 18.378-35.38 30.463-60 30.463s-46.318-12.085-60-30.463v122.463h120 120v-122.463c-13.682 18.378-35.38 30.463-60 30.463z" fill="#ffbd86"/><path d="m376 389.537c-13.682 18.378-35.38 30.463-60 30.463s-46.318-12.085-60-30.463v122.463h120z" fill="#f6a96c"/><path d="m296.254 83.276-40.254 13.418-40.254-13.418-9.492 28.448 49.746 16.582 49.746-16.582z" fill="#883f2e"/><path d="m296.254 83.276-40.254 13.418v31.612l49.746-16.582z" fill="#6d3326"/></svg>