<svg id="Capa_1" enable-background="new 0 0 512 512" height="512" viewBox="0 0 512 512" width="512" xmlns="http://www.w3.org/2000/svg"><path d="m490.101 202.899c-13.501-13.5-33.401-21.899-54.101-21.899-24.6 0-44.399-19.801-45-44.401-2.401-73.499-58.2-136.599-135-136.599-75.3.3-135 61.901-135 136 0 25.199-21 45.899-46.5 45-41.4-1.5-74.5 36.599-74.5 77.699v81.601l22.599-10.8c21.301-10.801 38.101-12.601 49.801-5.101 14.099 8.701 18.6 28.2 18.6 34.501v122.1h15c41.4 0 75-30.933 75-75 0-8.401 6.599-15 15-15s15 6.599 15 15v61c0 24.899 20.099 45 45 45s45-20.101 45-45v-61c0-8.401 6.599-15 15-15s15 6.599 15 15c0 41.4 33.6 75 75 75h15v-122.1c0-6 4.501-25.8 18.6-34.501 11.7-7.2 29.5-5.7 50.801 5.101l21.599 10.8v-84.3c0-20.7-8.401-39.6-21.899-53.101z" fill="#a8ebfa"/><path d="m512 256v84.3l-21.599-10.8c-21.301-10.801-39.101-12.301-50.801-5.101-14.099 8.701-18.6 28.5-18.6 34.501v122.1h-15c-41.4 0-75-33.6-75-75 0-8.401-6.599-15-15-15s-15 6.599-15 15v61c0 24.899-20.099 45-45 45v-512c76.8 0 132.599 63.1 135 136.599.601 24.6 20.4 44.401 45 44.401 20.7 0 40.6 8.399 54.101 21.899 13.498 13.501 21.899 32.401 21.899 53.101z" fill="#76e2f8"/><path d="m196 271c-24.814 0-45-20.186-45-45s20.186-45 45-45 45 20.186 45 45-20.186 45-45 45z" fill="#766e6e"/><path d="m316 271c-24.814 0-45-20.186-45-45s20.186-45 45-45 45 20.186 45 45-20.186 45-45 45z" fill="#5b5555"/><path d="m354.401 318.399-16.802 25.201-22.5-15c-8.399-6-19.799-6-28.198 0-9.302 6-20.101 9.3-30.901 9.3s-21.599-3.3-30.901-9.3c-8.399-6-19.799-6-28.198 0l-22.5 15-16.802-25.201 22.5-15c18.9-12.299 42.902-12.299 61.802 0 4.199 3.001 9.3 4.501 14.099 4.501s9.901-1.5 14.099-4.501c18.9-12.299 42.902-12.299 61.802 0z" fill="#766e6e"/><path d="m354.401 318.399-16.802 25.201-22.5-15c-8.399-6-19.799-6-28.198 0-9.302 6-20.101 9.3-30.901 9.3v-30c4.799 0 9.901-1.5 14.099-4.501 18.9-12.299 42.902-12.299 61.802 0z" fill="#5b5555"/></svg>