<svg id="Capa_1" enable-background="new 0 0 512 512" height="512" viewBox="0 0 512 512" width="512" xmlns="http://www.w3.org/2000/svg"><path d="m61 406v106h92.706l12.238-89.813-47.762-88.813c-32.736 8.052-57.182 37.442-57.182 72.626z" fill="#766e6e"/><path d="m451 406c0-35.182-24.445-64.572-57.177-72.625l-47.763 88.813 12.237 89.812h92.703z" fill="#5b5555"/><path d="m376 331h-75l-30 30h-15-15l-30-30h-75c-6.169 0-12.078.963-17.818 2.375l35.524 178.625h27.294l60-30h15 15l60 30h27.297l35.526-178.625c-5.742-1.412-11.652-2.375-17.823-2.375z" fill="#f2f2f2"/><path d="m331 512h27.297l35.526-178.625c-5.742-1.412-11.652-2.375-17.823-2.375h-75l-30 30h-15v121h15z" fill="#e7e7f2"/><path d="m256 211h-30v30h30 30v-30z" fill="#5b5555"/><path d="m256 211h30v30h-30z" fill="#463f3f"/><path d="m331 301c-33.091 0-60-26.909-60-60s26.909-60 60-60 60 26.909 60 60-26.909 60-60 60z" fill="#5b5555"/><path d="m256 0h-105v60l30 30h75 75l30-30v-60z" fill="#766e6e"/><path d="m361 60v-60h-105v90h75z" fill="#5b5555"/><path d="m256 60h-105v76h105 105v-76z" fill="#ffed00"/><path d="m256 60h105v76h-105z" fill="#fdbf00"/><path d="m181 301c-33.091 0-60-26.909-60-60s26.909-60 60-60 60 26.909 60 60-26.909 60-60 60z" fill="#766e6e"/><circle cx="181" cy="241" fill="#f2f2f2" r="30"/><circle cx="331" cy="241" fill="#e7e7f2" r="30"/><path d="m256 121h-165v30h165 165v-30z" fill="#766e6e"/><path d="m256 121h165v30h-165z" fill="#5b5555"/><path d="m256 331h-45v60l30 30h15 15l30-30v-60z" fill="#5b5555"/><path d="m301 391v-60h-45v90h15z" fill="#463f3f"/><path d="m301 391h-45-45l-30 121h75 75z" fill="#766e6e"/><path d="m301 391h-45v121h75z" fill="#5b5555"/></svg>