<svg id="Capa_1" enable-background="new 0 0 512 512" height="512" viewBox="0 0 512 512" width="512" xmlns="http://www.w3.org/2000/svg"><path d="m512 181c0-41.016-28.48-77.201-67.475-87.675-8.921-18.047-26.235-30.396-46.362-32.842-20.244-22.998-49.409-35.039-81.445-29.165-13.946-19.57-36.284-31.318-60.718-31.318s-46.772 11.748-60.718 31.318c-32.007-5.83-61.158 6.167-81.401 29.106-20.039 2.388-37.441 14.766-46.406 32.9-38.995 10.475-67.475 46.66-67.475 87.676 0 26.118 11.294 50.684 30.659 67.661-.439 2.446-.659 4.893-.659 7.339 0 20.728 15.092 38.232 35.57 43.242 12.012 36.358 46.348 61.758 85.43 61.758 6.167 0 12.158-.615 17.974-1.787h87.026 87.026c5.816 1.172 11.807 1.787 17.974 1.787 38.862 0 73.052-25.122 85.239-61.172 19.893-4.658 35.761-22.544 35.761-43.828 0-2.446-.22-4.893-.659-7.339 19.365-16.977 30.659-41.543 30.659-67.661z" fill="#c0f060"/><path d="m361 361c38.862 0 73.052-25.122 85.239-61.172 19.893-4.658 35.761-22.544 35.761-43.828 0-2.446-.22-4.893-.659-7.339 19.365-16.977 30.659-41.543 30.659-67.661 0-41.016-28.48-77.201-67.475-87.675-8.921-18.047-26.235-30.396-46.362-32.842-20.244-22.998-49.409-35.039-81.445-29.165-13.946-19.57-36.284-31.318-60.718-31.318v359.213h87.026c5.816 1.172 11.807 1.787 17.974 1.787z" fill="#6ccc45"/><path d="m361 436v-182.003c-4.924 1.02-9.875 2.003-15 2.003-25.913 0-49.614-13.535-63.149-34.951-8.511 3.267-17.681 4.9-26.851 4.9s-18.34-1.633-26.851-4.9c-13.535 21.416-37.236 34.951-63.149 34.951-5.125 0-10.076-.983-15-2.003v182.003c0 24.814-20.186 46-45 46l45 15h105 135l15-15c-24.814 0-45-21.186-45-46z" fill="#bb5d4c"/><path d="m406 482c-24.814 0-45-21.186-45-46v-182.003c-4.924 1.02-9.875 2.003-15 2.003-25.913 0-49.614-13.535-63.149-34.951-8.511 3.267-17.681 4.9-26.851 4.9v271.051h135z" fill="#883f2e"/><path d="m384.994 218.485c-8.042 13.887-22.983 22.515-38.994 22.515-18.94 0-35.918-12.158-42.261-30.234l-6.431-18.384-16.128 10.913c-7.456 5.039-16.318 7.559-25.181 7.559s-17.725-2.52-25.181-7.559l-16.128-10.913-6.431 18.384c-6.341 18.076-23.319 30.234-42.259 30.234-16.011 0-30.952-8.628-38.994-22.515l-25.957 15.029c13.374 23.116 38.262 37.486 64.951 37.486 25.913 0 49.614-13.535 63.149-34.951 8.511 3.267 17.681 4.9 26.851 4.9s18.34-1.633 26.851-4.9c13.535 21.416 37.236 34.951 63.149 34.951 26.689 0 51.577-14.37 64.951-37.485z" fill="#6ccc45"/><path d="m346 271c26.689 0 51.577-14.37 64.951-37.485l-25.957-15.029c-8.042 13.886-22.983 22.514-38.994 22.514-18.94 0-35.918-12.158-42.261-30.234l-6.431-18.384-16.128 10.913c-7.456 5.039-16.318 7.559-25.181 7.559v30.095c9.17 0 18.34-1.633 26.851-4.9 13.536 21.416 37.237 34.951 63.15 34.951z" fill="#339c20"/><path d="m211 301h30v30h-30z" fill="#883f2e"/><path d="m271 301h30v30h-30z" fill="#6d3326"/><path d="m271 376c0 8.276-6.724 15-15 15s-15-6.724-15-15h-30c0 24.814 20.186 45 45 45s45-20.186 45-45z" fill="#883f2e"/><path d="m301 376h-30c0 8.276-6.724 15-15 15v30c24.814 0 45-20.186 45-45z" fill="#6d3326"/><path d="m256 452h-15v45h15 15v-45z" fill="#883f2e"/><path d="m256 452h15v45h-15z" fill="#6d3326"/><path d="m256 482h-195v30h195 195v-30z" fill="#883f2e"/><path d="m256 482h195v30h-195z" fill="#6d3326"/></svg>