<svg id="Capa_1" enable-background="new 0 0 512 512" height="512" viewBox="0 0 512 512" width="512" xmlns="http://www.w3.org/2000/svg"><path d="m361 120h-120v-90h75c24.853 0 45 20.147 45 45z" fill="#ffbd86"/><path d="m450.449 399.554-65.557-12.22-53.892 62.666 30 62h90v-107c0-1.864-.454-3.605-.551-5.446z" fill="#339c20"/><path d="m151 351.211-68.8-8.8c-13.132 17.53-21.2 40.053-21.2 63.589v106h90l30-70.789z" fill="#6ccc45"/><path d="m346 300h-90-90c-33.832 0-64.719 16.946-83.8 42.411l38.8 38.8v30l30 30v70.789h90l15-31 15 31h90v-62h21.211l32.681-32.666 35.557-17.78c-2.873-54.865-48.21-99.554-104.449-99.554z" fill="#bb5d4c"/><path d="m361 512v-62h21.211l32.681-32.666 35.557-17.78c-2.873-54.865-48.21-99.554-104.449-99.554h-90v181l15 31z" fill="#883f2e"/><path d="m256 270h-75v75c0 41.42 33.578 75 75 75s75-33.58 75-75v-75z" fill="#6ccc45"/><path d="m331 345v-75h-75v150c41.422 0 75-33.58 75-75z" fill="#339c20"/><path d="m391 90h-45c-41.353 0-75-33.647-75-75v-15h-15c-58.588 0-108.071 37.734-126.707 90l21.707 15-28.484 15c-.562 4.99-1.516 9.864-1.516 15v90c0 19.556 12.539 36.24 30 42.437v17.563c0 41.353 33.647 75 75 75h30 30c41.353 0 75-33.647 75-75v-17.563c17.461-6.196 30-22.881 30-42.437v-15l-30-15 30-15z" fill="#c0f060"/><path d="m361 285v-17.563c17.461-6.196 30-22.881 30-42.437v-15l-30-15 30-15v-90h-45c-41.353 0-75-33.647-75-75v-15h-15v360h30c41.353 0 75-33.647 75-75z" fill="#6ccc45"/><path d="m256 450h-15v62h15 15v-62z" fill="#883f2e"/><path d="m256 450h15v62h-15z" fill="#6d3326"/><path d="m226 240c-24.814 0-45-20.186-45-45s20.186-45 45-45 45 20.186 45 45-20.186 45-45 45z" fill="#f2f2f2"/><path d="m301 180h90v30h-90z" fill="#339c20"/><path d="m241 90h-111.707c-3.409 9.564-5.607 19.59-6.777 30h118.484z" fill="#6ccc45"/><path d="m226 180c-8.276 0-15 6.724-15 15s6.724 15 15 15 15-6.724 15-15-6.724-15-15-15z" fill="#766e6e"/><path d="m256 270h-45v30h45 45v-30z" fill="#766e6e"/><path d="m256 270h45v30h-45z" fill="#5b5555"/></svg>