<svg id="Capa_1" enable-background="new 0 0 512 512" height="512" viewBox="0 0 512 512" width="512" xmlns="http://www.w3.org/2000/svg"><path d="m421 465v47h-330v-47c0-41.4 33.6-75 75-75h30c8.401 0 15-6.601 15-15v-38.701h90v38.701c0 8.399 6.599 15 15 15h30c41.4 0 75 33.6 75 75z" fill="#6ccc45"/><path d="m421 465v47h-165v-175.701h45v38.701c0 8.399 6.599 15 15 15h30c41.4 0 75 33.6 75 75z" fill="#339c20"/><path d="m256 0c-80.099 0-165 47.399-165 135 0 85.499 92.1 225 165 225s165-139.501 165-225c0-87.601-84.901-135-165-135z" fill="#c0f060"/><path d="m421 135c0 85.499-92.1 225-165 225v-360c80.099 0 165 47.399 165 135z" fill="#6ccc45"/><path d="m301 210h-30v-30c0-33.091 26.909-60 60-60h30v30c0 33.091-26.909 60-60 60z" fill="#5b5555"/><path d="m241 210h-30c-33.091 0-60-26.909-60-60v-30h30c33.091 0 60 26.909 60 60z" fill="#766e6e"/><path d="m211 240h30v30h-30z" fill="#6ccc45"/><path d="m271 240h30v30h-30z" fill="#339c20"/></svg>