<svg id="Capa_1" enable-background="new 0 0 512 512" height="512" viewBox="0 0 512 512" width="512" xmlns="http://www.w3.org/2000/svg"><path d="m256 240h-105v227c0 24.853 20.147 45 45 45h60 60c24.853 0 45-20.147 45-45v-227z" fill="#fed2a4"/><path d="m361 467v-227h-105v272h60c24.853 0 45-20.147 45-45z" fill="#ffbd86"/><path d="m439.089 125.528-59.086-35.528-14.357-54.181c-31.209-21.806-68.923-35.819-109.646-35.819-9.642 0-19.039 1.038-28.299 2.525l-61.701 67.359-66.006 9.968c-24.393 31.026-38.994 66.947-38.994 100.148 0 90 94.717 90 195 90s195 0 195-90c0-17.759-4.34-36.299-11.911-54.472z" fill="#ff637b"/><path d="m451 180c0-17.759-4.34-36.299-11.911-54.472l-59.086-35.528-14.357-54.181c-31.209-21.806-68.923-35.819-109.646-35.819v270c100.283 0 195 0 195-90z" fill="#e63950"/><path d="m331 90c0 33.091 26.909 60 60 60 19.75 0 37.15-9.708 48.089-24.472-14.086-33.807-39.901-66.273-73.444-89.709-20.399 9.591-34.645 30.181-34.645 54.181z" fill="#cd0000"/><path d="m166 120c41.353 0 75-33.647 75-75 0-15.773-4.948-30.383-13.299-42.475-52.234 8.39-97.542 38.965-127.707 77.327 12.601 23.751 37.299 40.148 66.006 40.148z" fill="#e63950"/><path d="m211 300h30v30h-30z" fill="#bb5d4c"/><path d="m271 300h30v30h-30z" fill="#883f2e"/><path d="m151 150h30v30h-30z" fill="#e63950"/><path d="m271 60h30v30h-30z" fill="#cd0000"/><path d="m331 180h30v30h-30z" fill="#cd0000"/><circle cx="256" cy="165" fill="#e63950" r="45"/><path d="m301 165c0-24.814-20.186-45-45-45v90c24.814 0 45-20.186 45-45z" fill="#cd0000"/><path d="m391.762 353.027c-14.068 14.068-33.15 21.973-53.048 21.973h-40.292c-14.312 0-28.55 2.769-42.422 8.232-13.872-5.464-28.11-8.232-42.422-8.232h-40.292c-19.898 0-38.979-7.905-53.047-21.973l-29.239-29.238v21.211c0 49.706 40.294 90 90 90h32.578c14.312 0 28.55-2.769 42.422-8.232 13.872 5.464 28.11 8.232 42.422 8.232h32.578c49.706 0 90-40.294 90-90v-21.211z" fill="#bb5d4c"/><path d="m331 435c49.706 0 90-40.294 90-90v-21.211l-29.238 29.238c-14.068 14.068-33.15 21.973-53.048 21.973h-40.292c-14.312 0-28.55 2.769-42.422 8.232v43.535c13.872 5.464 28.11 8.232 42.422 8.232h32.578z" fill="#883f2e"/></svg>