<svg id="Capa_1" enable-background="new 0 0 512 512" height="512" viewBox="0 0 512 512" width="512" xmlns="http://www.w3.org/2000/svg"><path d="m151 241h-30c-49.629 0-90-41.371-90-91v-30h30c49.629 0 90 40.371 90 90z" fill="#fdbf00"/><path d="m391 241h-30v-31c0-49.629 40.371-90 90-90h30v30c0 49.629-40.371 91-90 91z" fill="#ff9100"/><path d="m256 30c-91.128 0-165 73.872-165 165v241h165 165v-241c0-91.128-73.872-165-165-165z" fill="#6ccc45"/><path d="m421 195c0-91.128-73.872-165-165-165v406h165z" fill="#339c20"/><path d="m346 361h-45v-10.503c36.284-17.271 60-53.994 60-94.497v-76h-30c-31.199 0-58.801-15.901-75-40.201-16.199 24.3-43.801 40.201-75 40.201h-30v76c0 40.503 23.716 77.227 60 94.497v10.503h-45c-41.353 0-75 33.647-75 75v76h60l30-30h75 75l30 30h60v-76c0-41.353-33.647-75-75-75z" fill="#c0f060"/><path d="m361 512h60v-76c0-41.353-33.647-75-75-75h-45v-10.503c36.284-17.271 60-53.994 60-94.497v-76h-30c-31.199 0-58.801-15.901-75-40.201v342.201h75z" fill="#6ccc45"/><path d="m295.463 421c-14.385 0-28.154 4.863-39.463 13.696-11.309-8.833-25.078-13.696-39.463-13.696-36.138 0-65.537 30.399-65.537 66.537v24.463h105 105v-24.463c0-36.138-29.399-66.537-65.537-66.537z" fill="#6ccc45"/><path d="m361 487.537c0-36.138-29.399-66.537-65.537-66.537-14.385 0-28.154 4.863-39.463 13.696v77.304h105z" fill="#339c20"/><path d="m512 18.281-23.789-18.281-22.489 30h-74.722v-30h-30v38.789l-60 60v51.211h30v-38.789l51.211-51.211h38.789v30h30v-30h29.488z" fill="#883f2e"/><path d="m151 0h-30v30h-73.722l-23.489-30-23.789 18.281 31.512 41.719h29.488v30h30v-30h38.789l51.211 51.211v38.789h30v-51.211l-60-60z" fill="#bb5d4c"/><path d="m151 421h-30c-49.629 0-90-40.371-90-90v-30h30c49.629 0 90 40.371 90 90z" fill="#fdbf00"/><path d="m391 421h-30v-30c0-49.629 40.371-90 90-90h30v30c0 49.629-40.371 90-90 90z" fill="#ff9100"/><path d="m271 256c0 8.276-6.724 15-15 15s-15-6.724-15-15h-30c0 24.814 20.186 45 45 45s45-20.186 45-45z" fill="#6ccc45"/><path d="m301 256h-30c0 8.276-6.724 15-15 15v30c24.814 0 45-20.186 45-45z" fill="#339c20"/></svg>