<svg id="Capa_1" enable-background="new 0 0 512 512" height="512" viewBox="0 0 512 512" width="512" xmlns="http://www.w3.org/2000/svg"><path d="m256 361h-135l15 151h120 120l15-151z" fill="#766e6e"/><path d="m391 361h-135v151h120z" fill="#5b5555"/><path d="m407.494 307.914h-151.494-151.494c-26.426 12.246-43.506 38.965-43.506 68.086v136h75c24.814 0 45-20.186 45-45 0-39.404 32.247-76 75-76 41.362 0 75 35.585 75 76 0 24.814 20.186 45 45 45h75v-136c0-29.121-17.08-55.84-43.506-68.086z" fill="#463f3f"/><path d="m331 467c0 24.814 20.186 45 45 45h75v-136c0-29.121-17.08-55.84-43.506-68.086h-151.494v83.086c41.362 0 75 35.585 75 76z" fill="#292929"/><path d="m426.823 160.357c-33.21-32.383-97.257-69.357-170.823-69.357-80.775 0-150.075 41.494-179.676 79.167-9.867 12.558-15.324 41.357-15.324 55.833 0 67.335 122.607 225 195 225 72.078 0 195-157.449 195-225 0-18.351-8.769-50.618-24.177-65.643z" fill="#5b5555"/><path d="m451 226c0-18.351-8.769-50.618-24.177-65.643-33.21-32.383-97.257-69.357-170.823-69.357v360c72.078 0 195-157.449 195-225z" fill="#463f3f"/><path d="m361 196c0-57.305-46.956-105-105-105-58.088 0-105 47.792-105 105 0 10.948 2.181 24.236 6.753 36.343-4.409 7.046-6.753 15.176-6.753 23.657 0 19.556 12.539 36.24 30 42.437v32.563h60l15-30 15 30h60v-32.563c17.461-6.196 30-22.881 30-42.437 0-8.481-2.344-16.611-6.753-23.657 4.933-13.065 6.753-26.171 6.753-36.343z" fill="#f2f2f2"/><path d="m331 331v-32.563c17.461-6.196 30-22.881 30-42.437 0-8.481-2.344-16.611-6.753-23.657 4.933-13.065 6.753-26.171 6.753-36.343 0-57.305-46.956-105-105-105v210l15 30z" fill="#e7e7f2"/><path d="m211 211h30v30h-30z" fill="#766e6e"/><path d="m271 211h30v30h-30z" fill="#5b5555"/><path d="m256 0c-31.8 0-195 69.399-195 226 0-57.9 87.299-105 195-105s195 47.1 195 105c0-140.4-147.9-226-195-226z" fill="#766e6e"/><path d="m451 226c0-140.4-147.9-226-195-226v121c107.701 0 195 47.1 195 105z" fill="#5b5555"/><path d="m256 271h-15v60h15 15v-60z" fill="#e7e7f2"/><path d="m256 271h15v60h-15z" fill="#cecee6"/></svg>