<svg id="Capa_1" enable-background="new 0 0 512 512" height="512" viewBox="0 0 512 512" width="512" xmlns="http://www.w3.org/2000/svg"><path d="m222.816 350.49-97.502-75.304c-10.199 3.065-19.618 7.731-27.949 13.969-20.052 15.011-33.42 38.071-35.616 64.435l68.15 79.462 66.958-11.376 47.426-6.248.692-11.006z" fill="#f2f2f2"/><path d="m196.857 421.676-135.108-68.086c-.207 2.484-.749 4.872-.749 7.41v151h59.246l98.807-14.555 36.947-49.445-23.398-23.311z" fill="#e7e7f2"/><path d="m385.346 394.369-45.434 17.576-60.128 20.349-23.784 15.706-135.754 64h135.754 195v-69.679z" fill="#f2f2f2"/><path d="m451 442.321-65.654-47.952-45.434 17.576-60.128 20.349-23.784 15.706v64h195z" fill="#cecee6"/><path d="m445.901 332.373-122.538 13.94-49.219 47.65 32.757 23.957 33.01-5.974 111.089 30.375v-81.321c0-10.065-2.038-19.581-5.099-28.627z" fill="#e7e7f2"/><path d="m361 271h-105-105c-8.985 0-17.492 1.725-25.686 4.186l119.661 129.236 11.025 6.906 4.202 2.633 13.942-19.999 171.757-61.589c-11.952-35.286-45.51-61.373-84.901-61.373z" fill="#e7e7f2"/><path d="m274.144 393.963 171.757-61.589c-11.952-35.287-45.51-61.374-84.901-61.374h-105v140.328l4.202 2.633z" fill="#cecee6"/><path d="m310.415 227.848-54.415 13.604-36.595 9.15-33.479 38.37c17.933 28.123 30.991 38.778 33.864 42.028h36.21 36.211c2.93-3.616 34.367-29.713 53.948-82.088z" fill="#f2f2f2"/><path d="m346.159 248.912-35.744-21.064-54.415 13.604v89.548h36.211c2.93-3.616 34.367-29.713 53.948-82.088z" fill="#e7e7f2"/><path d="m321.07 181h-65.07-46.163l-55.113 30c4.565 25.04 15.751 53.738 31.201 77.972l70.075-17.52 90.159-22.54c5.138-13.746 9.785-32.21 10.82-37.912z" fill="#e7e7f2"/><path d="m356.979 211-35.909-30h-65.07v90.452l90.159-22.54c5.138-13.746 9.785-32.21 10.82-37.912z" fill="#cecee6"/><path d="m322.608 138.1-66.608-16.65-68.566-17.141-36.434 20.893v45.939c0 5.729 1.057 25.221 3.724 39.858h101.276 100.979c2.08-11.484 3.455-24.71 3.706-33.38z" fill="#fed2a4"/><path d="m360.685 177.62-38.077-39.52-66.608-16.65v89.55h100.979c2.08-11.484 3.455-24.71 3.706-33.38z" fill="#ffbd86"/><path d="m359.484 91-48.871-30h-54.613-70.074l-33.409 30c-.396 2.745-1.516 11.735-1.516 15v19.202l105 26.248 104.685 26.169c.062-2.168.315-4.301.315-6.478v-65.141c-.001-5.136-.801-10.058-1.517-15z" fill="#e7e7f2"/><path d="m361 171.142v-65.142c0-5.136-.8-10.058-1.516-15l-48.871-30h-54.613v90.45l104.685 26.169c.062-2.167.315-4.3.315-6.477z" fill="#cecee6"/><path d="m256 0c-52.163 0-96.058 39.781-103.484 91h103.484 103.484c-7.425-51.214-51.317-91-103.484-91z" fill="#f2f2f2"/><path d="m256 0v91h103.484c-7.425-51.214-51.317-91-103.484-91z" fill="#e7e7f2"/><path d="m274.144 393.963-18.144 6.505-11.025 3.954-48.118 17.254 59.143 26.324 83.912-36.055z" fill="#cecee6"/><path d="m274.144 393.963-18.144 6.505v47.532l83.912-36.055z" fill="#b0b0e2"/></svg>