<svg id="Capa_1" enable-background="new 0 0 512 512" height="512" viewBox="0 0 512 512" width="512" xmlns="http://www.w3.org/2000/svg"><path d="m287.714 31.699-31.714-31.699-31.714 31.699-43.286-30.307v179.608h75 75v-179.608z" fill="#ffed00"/><path d="m331 1.392-43.286 30.307-31.714-31.699v181h75z" fill="#fdbf00"/><path d="m465.106 450.063c20.874-38.071 21.24-74.927.249-95.918-21.123-21.123-58.301-20.874-97.017.645h-112.338-112.339c-38.716-21.533-75.894-21.768-97.017-.645-20.991 20.991-20.625 57.847.249 95.918-10.327 13.095-15.893 30.033-15.893 46.937v15h60l30-31h135 135l30 31h60v-15c0-16.904-5.566-33.842-15.894-46.937z" fill="#6ccc45"/><path d="m421 512h60v-15c0-16.904-5.566-33.842-15.894-46.938 20.874-38.071 21.24-74.927.249-95.918-21.123-21.123-58.301-20.874-97.017.645h-112.338v126.211h135z" fill="#339c20"/><path d="m391 436v-60c0-22.939-7.266-44.736-21.006-63.018h-113.994-113.994c-13.74 18.282-21.006 40.079-21.006 63.018v60c-18.691 14.063-30 37.328-30 61v15h90l15-31 15 31h45 45l15-31 15 31h90v-15c0-23.672-11.309-46.937-30-61z" fill="#c0f060"/><path d="m316 481 15 31h90v-15c0-23.672-11.309-46.938-30-61v-60c0-22.939-7.266-44.736-21.006-63.018h-113.994v199.018h45z" fill="#6ccc45"/><path d="m181 391h30v121h-30z" fill="#6ccc45"/><path d="m301 391h30v121h-30z" fill="#339c20"/><path d="m405.399 211.599c9.901-13.2 15.601-29.099 15.601-45.599 0-41.4-33.6-75-75-75-35.7 0-66 25.199-73.2 60.599-5.449-.454-11.162-.005-16.8 0-5.537.004-10.999-.445-16.5 0-6.601-34.499-37.199-60.599-73.5-60.599-41.4 0-75 33.6-75 75 0 16.5 5.7 32.399 15.601 45.599-6.901 9.6-11.4 19.2-13.801 29.401-1.199 5.099-1.8 9.899-1.8 15 0 5.099.601 10.199 1.8 15l57.299 45h105.901 105.901l57.299-45c1.199-4.801 1.8-9.901 1.8-15 0-5.101-.601-9.901-1.8-15-2.4-10.201-6.899-19.801-13.801-29.401z" fill="#c0f060"/><path d="m419.2 271c1.199-4.801 1.8-9.901 1.8-15 0-5.101-.601-9.901-1.8-15-2.401-10.201-6.899-19.801-13.801-29.401 9.901-13.2 15.601-29.099 15.601-45.599 0-41.4-33.6-75-75-75-35.7 0-66 25.199-73.2 60.599-5.449-.454-11.162-.005-16.8 0v164.401h105.901z" fill="#6ccc45"/><path d="m151 151h30v30h-30z" fill="#766e6e"/><path d="m331 151h30v30h-30z" fill="#5b5555"/><path d="m391.901 271c-27.301 0-56.102 6.899-91.501 21.899-12.6 5.1-28.201 8.101-44.4 8.101s-31.8-3.001-44.399-8.101c-35.4-15-64.2-21.899-91.501-21.899h-27.3c11.1 51.599 78.9 90 163.2 90s152.1-38.401 163.2-90z" fill="#f2f2f2"/><path d="m419.2 271h-27.299c-27.301 0-56.102 6.899-91.501 21.899-12.6 5.1-28.201 8.101-44.4 8.101v60c84.3 0 152.1-38.401 163.2-90z" fill="#e7e7f2"/></svg>