<svg id="Capa_1" enable-background="new 0 0 512 512" height="512" viewBox="0 0 512 512" width="512" xmlns="http://www.w3.org/2000/svg"><path d="m361 300c-16.538 0-30-13.462-30-30v-15h-75-75v15c0 16.538-13.462 30-30 30-49.629 0-90 40.371-90 90v122h75l15-30h210l15 30h75v-122c0-49.629-40.371-90-90-90z" fill="#ffbd86"/><path d="m361 300c-16.538 0-30-13.462-30-30v-15h-75v227h105l15 30h75v-122c0-49.629-40.371-90-90-90z" fill="#f6a96c"/><path d="m316 435c-24.62 0-46.318-12.085-60-30.463-13.682 18.378-35.38 30.463-60 30.463s-46.318-12.085-60-30.463v107.463h120 120v-107.463c-13.682 18.378-35.38 30.463-60 30.463z" fill="#f6a96c"/><path d="m376 404.537c-13.682 18.378-35.38 30.463-60 30.463s-46.318-12.085-60-30.463v107.463h120z" fill="#ea9b58"/><path d="m136 90h-75v30c16.538 0 30 13.462 30 30v15c0 24.814 20.186 45 45 45h30l13.77-85.43c-4.82-20.361-22.823-34.57-43.77-34.57z" fill="#ffbd86"/><path d="m376 90c-20.991 0-39.009 14.268-43.813 34.673l13.813 85.327h30c24.814 0 45-20.186 45-45v-15c0-16.538 13.462-30 30-30v-30z" fill="#f6a96c"/><path d="m286 0h-30-30c-41.353 0-75 33.647-75 75v153.545l35.728 71.455h69.272 69.272l35.728-71.455v-153.545c0-41.353-33.647-75-75-75z" fill="#fed2a4"/><path d="m361 228.545v-153.545c0-41.353-33.647-75-75-75h-30v300h69.272z" fill="#ffbd86"/><path d="m271 179v31h-15-15v-31h-30v61h45 45v-61z" fill="#ffbd86"/><path d="m301 179h-30v31h-15v30h45z" fill="#f6a96c"/><circle cx="256" cy="105" fill="#f2f2f2" r="45"/><path d="m301 105c0-24.814-20.186-45-45-45v90c24.814 0 45-20.186 45-45z" fill="#e7e7f2"/><circle cx="256" cy="105" fill="#766e6e" r="15"/><path d="m271 105c0-8.276-6.724-15-15-15v30c8.276 0 15-6.724 15-15z" fill="#5b5555"/></svg>