<svg id="Capa_1" enable-background="new 0 0 512 512" height="512" viewBox="0 0 512 512" width="512" xmlns="http://www.w3.org/2000/svg"><g><path d="m512 256c0 121.98-85.33 224.05-199.55 249.75-18.16 4.09-37.05-14.14-56.45-14.14-5.47 0-10.9-.17-16.28-.52-13.71-.85-27.13 17.6-40.17 14.66-114.22-25.7-199.55-127.77-199.55-249.75 0-141.38 114.62-256 256-256s256 114.62 256 256z" fill="#98695e"/><g><path d="m312.45 300.85v204.9c-18.16 4.09-37.05 6.25-56.45 6.25s-38.29-2.16-56.45-6.25v-204.9z" fill="#d8e2f1"/><path d="m218.248 329.201h94.202v34.5h-94.202z" fill="#c3d5ef"/><path d="m239.72 300.85v210.63c-13.71-.85-27.13-2.79-40.17-5.73v-204.9z" fill="#c3d5ef"/><path d="m414.372 144.722v-58.159c0-47.807-38.755-86.563-86.563-86.563h-143.618c-47.808 0-86.563 38.756-86.563 86.563v58.159c-29.972 19.149-49.846 52.71-49.846 90.916 0 59.542 48.268 107.81 107.81 107.81h200.816c59.542 0 107.81-48.268 107.81-107.81 0-38.206-19.873-71.767-49.846-90.916z" fill="#f1f1f4"/><path d="m203.218 343.452h-47.63c-29.77 0-56.72-12.07-76.23-31.58s-31.58-46.46-31.58-76.23c0-38.21 19.88-71.77 49.85-90.92v-58.16c0-47.8 38.76-86.56 86.56-86.56h34.06c-25.13 0-45.51 38.76-45.51 86.56v58.16c-15.75 19.15-26.2 52.71-26.2 90.92 0 29.77 6.34 56.72 16.6 76.23s24.42 31.58 40.08 31.58z" fill="#d5dff4"/><path d="m331.58 294.131h-151.16c-11.973 0-21.68-9.706-21.68-21.68 0-11.973 9.706-21.68 21.68-21.68h151.16c11.973 0 21.68 9.706 21.68 21.68 0 11.974-9.706 21.68-21.68 21.68z" fill="#da4a54"/><path d="m294.212 167.557h-79.249c-19.404 0-35.134 15.73-35.134 35.134v14.93h149.517v-14.93c.001-19.404-15.729-35.134-35.134-35.134z" fill="#dd636e"/><g fill="#da4a54"><circle cx="220.613" cy="206.956" r="19.102"/><circle cx="288.563" cy="206.956" r="19.102"/></g><path d="m358.752 267.139h-205.504c-17.794 0-32.219-14.425-32.219-32.219 0-17.794 14.425-32.219 32.219-32.219h205.504c17.794 0 32.219 14.425 32.219 32.219 0 17.794-14.425 32.219-32.219 32.219z" fill="#dd636e"/><path d="m229.514 267.139h-76.266c-17.789 0-32.219-14.419-32.219-32.219 0-8.895 3.605-16.947 9.439-22.781s13.886-9.439 22.781-9.439h76.266c-8.905 0-16.957 3.605-22.781 9.439-5.834 5.834-9.439 13.886-9.439 22.781-.001 17.799 14.419 32.219 32.219 32.219z" fill="#da4a54"/><g><g><g><g><path d="m189.13 122.15c0 23.44-19.01 42.45-42.45 42.45-23.45 0-42.45-19.01-42.45-42.45 0-3.62.45-7.13 1.31-10.48h13l28.135 20.25 28.135-20.25h13.01c.86 3.35 1.31 6.86 1.31 10.48z" fill="#fff"/><path d="m176.69 122.15c0 16.58-13.44 30.02-30.01 30.02-16.58 0-30.02-13.44-30.02-30.02 0-3.69.66-7.22 1.88-10.48h56.27c1.22 3.26 1.88 6.79 1.88 10.48z" fill="#2b4d66"/></g></g></g><g><g><g><path d="m407.77 122.15c0 23.44-19 42.45-42.45 42.45-23.44 0-42.45-19.01-42.45-42.45 0-3.62.45-7.13 1.31-10.48l41.14-21.217 41.14 21.217c.86 3.35 1.31 6.86 1.31 10.48z" fill="#fff"/><path d="m395.34 122.15c0 16.58-13.44 30.02-30.02 30.02-16.57 0-30.01-13.44-30.01-30.02 0-3.69.66-7.22 1.88-10.48l28.13-21.217 28.14 21.217c1.22 3.26 1.88 6.79 1.88 10.48z" fill="#2b4d66"/></g></g></g></g><g><path d="m77.022 111.671h28.518l53.2-42.437h-81.718c-11.719 0-21.218 9.5-21.218 21.218 0 11.72 9.5 21.219 21.218 21.219z" fill="#d5dff4"/><path d="m434.978 111.671h-130.664v-42.436h130.664c11.719 0 21.218 9.5 21.218 21.218 0 11.719-9.5 21.218-21.218 21.218z" fill="#f1f1f4"/></g></g></g></svg>