<svg id="Capa_1" enable-background="new 0 0 512 512" height="512" viewBox="0 0 512 512" width="512" xmlns="http://www.w3.org/2000/svg"><g><path d="m512 256c0 64.59-23.92 123.593-63.385 168.634-46.923 53.552-115.82 58.215-192.615 58.215s-145.692-4.663-192.615-58.215c-39.465-45.041-63.385-104.044-63.385-168.634 0-141.385 114.615-256 256-256s256 114.615 256 256z" fill="#80b4fb"/><path d="m448.61 424.63c-46.92 53.55-115.82 87.37-192.61 87.37-51.18 0-98.85-15.02-138.85-40.9-20.02-12.94-38.11-28.61-53.76-46.47 11.61-15.39 25.99-28.56 42.39-38.8h.01c24.11-15.07 52.61-23.78 83.15-23.78h134.12c30.54 0 59.04 8.71 83.15 23.78h.01c16.4 10.24 30.78 23.41 42.39 38.8z" fill="#e27d47"/><path d="m238.73 363.57s-88.3 17.25-121.58 107.53c-20.02-12.94-38.11-28.61-53.76-46.47 28.69-38.01 74.25-62.58 125.55-62.58h46.37z" fill="#dd6938"/><g><path d="m11.329 92.984 41.96 92.993c9.829 21.783 39.553 24.757 53.504 5.354l62.206-86.524c13.95-19.404 1.664-46.633-22.115-49.012l-101.515-10.159c-25.789-2.58-44.7 23.724-34.04 47.348z" fill="#dd6938"/><path d="m53.277 110.11 26.732 59.244c6.262 13.878 25.199 15.773 34.086 3.411l39.63-55.123c8.887-12.362 1.06-29.709-14.089-31.225l-64.673-6.471c-16.429-1.645-28.477 15.113-21.686 30.164z" fill="#ebebeb"/><path d="m500.671 92.984-41.96 92.993c-9.829 21.783-39.553 24.757-53.504 5.354l-62.206-86.524c-13.95-19.404-1.664-46.633 22.115-49.012l101.514-10.157c25.79-2.582 44.701 23.722 34.041 47.346z" fill="#dd6938"/><path d="m458.723 110.11-26.732 59.244c-6.262 13.878-25.199 15.773-34.086 3.411l-39.63-55.123c-8.887-12.362-1.06-29.709 14.089-31.225l64.673-6.471c16.429-1.645 28.477 15.113 21.686 30.164z" fill="#ebebeb"/></g><path d="m468.188 302.268c0 78.98-57.438 118.892-136.408 118.892h-151.56c-39.48 0-75.24-11-101.11-36.88-25.88-25.88-34.674-39.985-34.674-79.475 0-8.129-6.538-32.746-5.234-40.507 1.552-9.234 3.99-18.167 7.228-26.709 7.35-19.46 18.82-36.89 33.36-51.23 4.65-4.59 9.61-8.86 14.85-12.78 6.38-38.8 26.42-73.01 55.01-97.51 18.36-15.74 40.24-27.47 64.31-33.85 13.41-3.56 27.51 28.508 42.04 28.508s28.63-32.068 42.04-28.508c51.14 13.56 92.44 51.28 110.95 100.21 6.1 16.12 14.34 31.36 24.93 44.91l.01.01c1.75 2.26 3.56 4.45 5.45 6.61 11.02 12.58 19.87 27.11 25.96 43 .08.21.16.42.23.63v.01c2.98 7.86 5.282 16.05 6.84 24.5s-4.222 31.269-4.222 40.169z" fill="#e27d47"/><path d="m202.66 431.163h-22.44c-39.48 0-75.24-16.01-101.11-41.89-25.88-25.88-41.89-61.63-41.89-101.12 0-36.077 13.36-69.038 35.405-94.195 13.251-15.122 23.265-32.733 30.384-51.536 9.804-25.896 25.992-48.657 46.641-66.359 28.27-24.23 64.92-38.98 105.01-39.3-28.06.46-53.71 15.18-73.52 39.3-15.249 18.567-27.038 42.7-33.81 70.178-4.118 16.709-10.977 32.578-20.077 47.184-15.715 25.224-25.253 58.396-25.253 94.728 0 39.49 11.27 75.24 29.48 101.12 18.22 25.88 43.38 41.89 71.18 41.89z" fill="#dd6938"/><path d="m474.78 288.16c0 13.87-1.98 27.28-5.67 39.96l-15.441 72.695c-1.591 7.491-11.84 8.566-14.951 1.569l-5.827-13.104-19.745 60.069c-2.139 6.507-10.978 7.398-14.372 1.449l-16.454-28.838-12.465 42.707c-1.696 5.809-9.024 7.635-13.247 3.3l-26.869-27.58c-5.748-5.9-13.635-9.227-21.872-9.227h-103.735c-8.237 0-16.124 3.328-21.872 9.228l-9.131 9.373-15.747 16.164c-5.113 5.248-13.985 3.037-16.038-3.996l-11.664-39.969-14.596 25.582c-4.109 7.202-14.81 6.124-17.4-1.754l-18.574-56.508-3.743 8.418c-3.767 8.471-16.175 7.169-18.101-1.899l-14.376-67.669c-3.69-12.69-5.67-26.1-5.67-39.97 0-8.13.68-16.1 1.99-23.86 7.94 47.22 39.03 86.58 81.19 106.01 18.2 8.41 38.46 13.09 59.82 13.09h151.56c39.48 0 75.24-16 101.11-41.88 20.54-20.54 34.87-47.3 39.9-77.22 1.31 7.76 1.99 15.73 1.99 23.86z" fill="#ebebeb"/><ellipse cx="256" cy="386.258" fill="#dd636e" rx="39.25" ry="28.43"/><path d="m173.13 449.76-17.738 18.208c-4.223 4.335-11.551 2.509-13.247-3.3l-12.465-42.708-16.454 28.838c-3.394 5.949-12.233 5.058-14.372-1.449l-19.744-60.069-5.827 13.104c-3.112 6.997-13.36 5.922-14.951-1.569l-15.442-72.685c-3.69-12.69-5.67-26.1-5.67-39.97 0-8.13.68-16.1 1.99-23.86 7.94 47.22 39.03 86.58 81.19 106.01l.2.67c9.56 28.86 30.7 62.36 52.53 78.78z" fill="#d5dff4"/><path d="m298.04 42.22v215.68h-84.08v-215.68c13.41-3.56 27.51-5.46 42.04-5.46s28.63 1.9 42.04 5.46z" fill="#ebebeb"/><g><path d="m272.595 390.997h-33.191c-38.619 0-69.926-31.307-69.926-69.926 0-38.619 31.307-69.926 69.926-69.926h33.191c38.619 0 69.926 31.307 69.926 69.926 0 38.62-31.307 69.926-69.926 69.926z" fill="#ebebeb"/><path d="m274.568 390.971c-.658.021-1.317.031-1.975.031h-33.194c-38.618 0-69.92-31.302-69.92-69.93 0-19.314 7.828-36.789 20.474-49.446 12.657-12.646 30.131-20.474 49.446-20.474h33.194c.658 0 1.317.01 1.975.031-18.53.502-35.263 8.225-47.481 20.443-12.657 12.657-20.485 30.131-20.485 49.446 0 37.97 30.247 68.864 67.966 69.899z" fill="#d5dff4"/><path d="m265.949 321.12h-19.898c-15.066 0-27.279-12.213-27.279-27.279 0-15.066 12.213-27.279 27.279-27.279h19.898c15.066 0 27.279 12.213 27.279 27.279-.001 15.066-12.214 27.279-27.279 27.279z" fill="#365e7d"/><path d="m263.992 321.121h-17.94c-15.07 0-27.28-12.21-27.28-27.28 0-7.53 3.05-14.35 7.99-19.29 4.93-4.93 11.75-7.99 19.29-7.99h17.94c-7.53 0-14.35 3.06-19.29 7.99-4.93 4.94-7.99 11.76-7.99 19.29 0 15.07 12.22 27.28 27.28 27.28z" fill="#2b4d66"/></g><g><g><g><g><circle cx="178.806" cy="252.005" fill="#fff" r="39.131"/><circle cx="178.806" cy="252.005" fill="#2b4d66" r="27.67"/></g></g></g><g><g><g><circle cx="333.194" cy="252.005" fill="#fff" r="39.131"/><circle cx="333.194" cy="252.005" fill="#2b4d66" r="27.67"/></g></g></g></g></g></svg>