<svg id="Capa_1" enable-background="new 0 0 512 512" height="512" viewBox="0 0 512 512" width="512" xmlns="http://www.w3.org/2000/svg"><g><path d="m512 256c0 64.59-23.92 123.593-63.385 168.634-46.923 53.552-115.82 25.668-192.615 25.668s-145.692 27.884-192.615-25.668c-39.465-45.041-63.385-104.044-63.385-168.634 0-141.385 114.615-256 256-256s256 114.615 256 256z" fill="#78d090"/><path d="m448.61 424.63c-46.92 53.55-115.82 87.37-192.61 87.37-51.18 0-98.85-15.02-138.85-40.9-20.02-12.94-38.11-28.61-53.76-46.47 11.61-15.39 25.99-28.56 42.39-38.8h.01c24.11-15.07 52.61-23.78 83.15-23.78h134.12c30.54 0 59.04 8.71 83.15 23.78h.01c16.4 10.24 30.78 23.41 42.39 38.8z" fill="#e27d47"/><path d="m238.73 363.57s-88.3 17.25-121.58 107.53c-20.02-12.94-38.11-28.61-53.76-46.47 28.69-38.01 74.25-62.58 125.55-62.58h46.37z" fill="#dd6938"/><g><path d="m11.329 92.984 41.96 92.993c9.829 21.783 39.553 24.757 53.504 5.354l62.206-86.524c13.95-19.404 1.664-46.633-22.115-49.012l-101.515-10.159c-25.789-2.58-44.7 23.724-34.04 47.348z" fill="#dd6938"/><path d="m53.277 110.11 26.732 59.244c6.262 13.878 25.199 15.773 34.086 3.411l39.63-55.123c8.887-12.362 1.06-29.709-14.089-31.225l-64.673-6.471c-16.429-1.645-28.477 15.113-21.686 30.164z" fill="#ebebeb"/><path d="m500.671 92.984-41.96 92.993c-9.829 21.783-39.553 24.757-53.504 5.354l-62.206-86.524c-13.95-19.404-1.664-46.633 22.115-49.012l101.514-10.157c25.79-2.582 44.701 23.722 34.041 47.346z" fill="#dd6938"/><path d="m458.723 110.11-26.732 59.244c-6.262 13.878-25.199 15.773-34.086 3.411l-39.63-55.123c-8.887-12.362-1.06-29.709 14.089-31.225l64.673-6.471c16.429-1.645 28.477 15.113 21.686 30.164z" fill="#ebebeb"/></g><path d="m474.78 288.16c0 30.75-9.71 59.23-26.22 82.55-25.9 36.58-68.56 33.918-116.78 33.918h-151.56c-39.48 0-62.763-1.945-88.633-27.824-5.73-5.73-23.447.536-28.147-6.093-16.51-23.32-26.22-51.8-26.22-82.55 0-46.88 22.56-88.5 57.42-114.58 6.38-38.8 26.42-73.01 55.01-97.51 28.59-24.511 65.74-39.311 106.35-39.311 81.22 0 148.6 59.21 161.36 136.82 17.43 13.04 31.78 29.96 41.78 49.49s15.64 41.65 15.64 65.09z" fill="#e27d47"/><path d="m209.002 412.24-28.782-7.612c-39.48 0-55.773-3.991-81.643-29.871-5.728-5.728-30.439 2.578-35.133-4.05-16.516-23.32-26.224-51.803-26.224-82.553 0-46.88 22.56-88.5 57.42-114.57 6.38-38.8 26.42-73.01 55.01-97.52 28.27-24.23 64.92-38.98 105.01-39.3-28.06.46-53.71 15.18-73.52 39.3-20.13 24.51-34.23 58.72-38.72 97.52-24.54 26.07-40.42 67.69-40.42 114.57 0 39.49 11.27 75.24 29.48 101.12 18.22 25.879 49.722 22.966 77.522 22.966z" fill="#dd6938"/><path d="m448.56 370.71c-25.9 36.58-68.56 60.45-116.78 60.45h-151.56c-39.48 0-75.24-16-101.11-41.88-5.73-5.73-10.97-11.94-15.67-18.57 11.42-16.13 26.11-29.8 43.09-40.04 21.52-12.96 46.73-20.42 73.69-20.42h151.56c39.48 0 75.24 16.01 101.11 41.88 5.73 5.73 10.98 11.95 15.67 18.58z" fill="#ebebeb"/><path d="m200.879 376.804c26.13 0 47.388-21.258 47.388-47.389 0-4.267 3.459-7.727 7.727-7.727s7.727 3.459 7.727 7.727c0 26.13 21.258 47.389 47.388 47.389 4.268 0 7.727 3.459 7.727 7.727 0 4.267-3.459 7.727-7.727 7.727-23.729 0-44.423-13.224-55.115-32.685-10.691 19.462-31.386 32.685-55.115 32.685-4.268 0-7.727-3.459-7.727-7.727.001-4.268 3.459-7.727 7.727-7.727z" fill="#b7c8ea"/><g><g><g><g><circle cx="144.806" cy="248.926" fill="#fff" r="46.228"/><circle cx="144.806" cy="248.926" fill="#2b4d66" r="32.688"/></g></g></g><g><g><g><circle cx="367.194" cy="248.926" fill="#fff" r="46.228"/><circle cx="367.194" cy="248.926" fill="#2b4d66" r="32.688"/></g></g></g></g><g><g><path d="m268.56 342.234h-25.12c-19.02 0-34.438-15.418-34.438-34.438 0-19.02 15.418-34.438 34.438-34.438h25.12c19.02 0 34.438 15.418 34.438 34.438 0 19.02-15.418 34.438-34.438 34.438z" fill="#365e7d"/><path d="m266.09 342.236h-22.649c-19.025 0-34.44-15.415-34.44-34.44 0-9.506 3.85-18.116 10.087-24.353 6.224-6.224 14.834-10.087 24.353-10.087h22.649c-9.506 0-18.116 3.863-24.353 10.087-6.224 6.237-10.087 14.846-10.087 24.353 0 19.025 15.428 34.44 34.44 34.44z" fill="#2b4d66"/></g></g><path d="m202.66 431.16h-22.44c-39.48 0-75.24-16-101.11-41.88-5.73-5.73-10.97-11.94-15.67-18.57 11.42-16.13 26.11-29.8 43.09-40.04 4.9 22.39 13.57 42.43 24.95 58.6 18.22 25.88 43.38 41.89 71.18 41.89z" fill="#d5dff4"/></g></svg>