<svg id="Capa_1" enable-background="new 0 0 512 512" height="512" viewBox="0 0 512 512" width="512" xmlns="http://www.w3.org/2000/svg"><g><path d="m512 256c0 70.692-28.654 134.692-74.981 181.019s-110.327 29.111-181.019 29.111c-70.12 0-133.656 17.678-179.891-27.989-46.989-46.413-76.109-110.876-76.109-182.141 0-141.385 114.615-256 256-256s256 114.615 256 256z" fill="#98695e"/><g><path d="m435.9 438.13c-46.24 45.67-109.78 73.87-179.9 73.87s-133.66-28.2-179.9-73.87c5.19-6.75 10.95-13.04 17.2-18.8 26.64-24.58 62.23-39.59 101.33-39.59h122.74c39.1 0 74.69 15.01 101.33 39.6 1.48 1.35 2.94 2.75 4.36 4.17 4.59 4.59 8.87 9.47 12.84 14.62z" fill="#78d090"/><path d="m271.83 379.74c-65.08 0-120.45 41.59-140.96 99.64-20.09-11.28-38.49-25.18-54.76-41.24 27.32-35.51 70.25-58.4 118.52-58.4z" fill="#80c46c"/></g><path d="m447.625 299.781c0 91.874-85.793 166.35-191.62 166.35-105.837 0-191.629-74.476-191.629-166.35 0-22.9 5.33-44.714 14.971-64.568 15.304-31.504 23.404-65.958 23.118-100.973v-.952c0-73.267 68.099-132.734 152.359-133.276.39-.01.781-.01 1.18-.01 84.793 0 153.53 59.676 153.53 133.286v.952c-.286 35.016 7.814 69.47 23.119 100.973 9.642 19.854 14.972 41.668 14.972 64.568z" fill="#80b4fb"/><path d="m256.007 466.13c-105.841 0-191.629-74.478-191.629-166.353 0-22.894 5.327-44.709 14.969-64.564 15.306-31.504 23.41-65.962 23.119-100.973v-.957c0-73.268 68.1-132.73 152.36-133.274.393-.009.778-.009 1.181-.009-.197 0-.385 0-.563.009-40.292.544-72.855 60.006-72.855 133.274v.957c.141 35.011-3.733 69.469-11.048 100.973-4.614 19.855-7.165 41.67-7.165 64.564 0 91.875 41.023 166.353 91.631 166.353z" fill="#61a2f9"/><g><g><g><g><circle cx="170.735" cy="220.567" fill="#fff" r="43.222"/><circle cx="170.735" cy="220.567" fill="#2b4d66" r="30.563"/></g></g></g><g><g><g><circle cx="341.265" cy="220.567" fill="#fff" r="43.222"/><circle cx="341.265" cy="220.567" fill="#2b4d66" r="30.563"/></g></g></g></g><path d="m326.867 375.761h-141.734c-11.227 0-20.328-9.101-20.328-20.328 0-11.227 9.101-20.328 20.328-20.328h141.735c11.227 0 20.328 9.101 20.328 20.328-.001 11.227-9.102 20.328-20.329 20.328z" fill="#ffc250"/><path d="m291.83 257.08h-74.307c-18.194 0-32.943 14.749-32.943 32.943v13.999h140.194v-13.999c-.001-18.194-14.75-32.943-32.944-32.943z" fill="#ffd064"/><g fill="#ffc250"><circle cx="222.82" cy="294.022" r="17.911"/><circle cx="286.533" cy="294.022" r="17.911"/></g><path d="m352.345 350.452h-121.18l-50.86-.5-15.5.5h-5.15c-16.685 0-30.21-13.525-30.21-30.21 0-16.685 13.525-30.21 30.21-30.21h45.7l7.242.5 18.568-.5h121.18c16.685 0 30.21 13.525 30.21 30.21 0 16.684-13.526 30.21-30.21 30.21z" fill="#ffd064"/><path d="m231.165 350.452h-71.51c-16.68 0-30.21-13.52-30.21-30.21 0-8.34 3.38-15.89 8.85-21.36s13.02-8.85 21.36-8.85h71.51c-8.35 0-15.9 3.38-21.36 8.85-5.47 5.47-8.85 13.02-8.85 21.36 0 16.69 13.52 30.21 30.21 30.21z" fill="#ffc250"/></g></svg>