<svg id="Capa_1" enable-background="new 0 0 512 512" height="512" viewBox="0 0 512 512" width="512" xmlns="http://www.w3.org/2000/svg"><g><path d="m418.487 390.4c-5.82 9.42-12.24 18.43-19.2 26.98-5.37 6.62 44.353 12.97 38.343 19.02-23.13 23.28-50.71 42.15-81.36 55.21-30.79 13.13-64.68 20.39-100.27 20.39s-69.48-7.26-100.27-20.39c-30.65-13.06-58.23-31.93-81.36-55.21-6.01-6.05 18.843-12.4 13.473-19.02-6.96-8.55-13.38-17.56-19.2-26.98z" fill="#845c52"/><path d="m512 256c0 29.05-4.84 56.96-13.76 82.99-6.21 18.14-57.389 10.405-67.309 26.454l-365.093 3.709c-9.92-16.05-45.868-12.023-52.078-30.163-8.92-26.03-13.76-53.94-13.76-82.99 0-141.38 114.62-256 256-256s256 114.62 256 256z" fill="#ffd064"/><path d="m498.24 253.11v85.88c-12.68 37.03-33.61 70.23-60.61 97.41h-363.26c-27-27.18-47.93-60.38-60.61-97.41v-85.88c0-121.48 98.48-219.96 219.96-219.96h44.56c121.48 0 219.96 98.48 219.96 219.96z" fill="#98695e"/><path d="m310.33 35.46c-106.29 15.52-187.91 107.06-187.91 217.65v183.29h-48.05c-27-27.18-47.93-60.38-60.61-97.41v-85.88c0-121.48 98.49-219.96 219.97-219.96h44.55c10.89 0 21.59.79 32.05 2.31z" fill="#845c52"/><path d="m399.287 271.167h-286.574c-40.375 0-73.105 32.73-73.105 73.105 0 40.375 32.73 73.105 73.105 73.105h286.574c40.375 0 73.105-32.73 73.105-73.105 0-40.375-32.73-73.105-73.105-73.105z" fill="#365e7d"/><path d="m452.999 303.487c0 5.337-.43 10.582-1.25 15.683-1.393 8.687-3.934 16.984-7.447 24.739-15.396 33.999-49.631 57.652-89.387 57.652h-197.829c-27.085 0-51.608-10.971-69.351-28.724-8.338-8.339-15.181-18.173-20.098-29.062-3.575-7.929-6.136-16.411-7.498-25.292-.748-4.886-1.137-9.896-1.137-14.997 0-34.696 18.019-65.181 45.206-82.616-1.926-5.265-3.421-10.735-4.436-16.37-1.014-5.644-1.537-11.453-1.537-17.384 0-54.169 43.915-98.074 98.084-98.074h119.361c27.085 0 51.608 10.971 69.351 28.724 17.752 17.752 28.734 42.266 28.734 69.35 0 11.862-2.11 23.233-5.972 33.753 13.594 8.717 24.892 20.692 32.801 34.839 7.897 14.138 12.405 30.436 12.405 47.779z" fill="#78d090"/><path d="m195.162 401.561h-38.076c-27.085 0-51.608-10.971-69.35-28.724-8.339-8.339-15.181-18.173-20.098-29.062-3.575-7.929-6.136-16.411-7.498-25.292-.748-4.886-1.137-9.896-1.137-14.997 0-34.696 18.019-65.181 45.206-82.616-1.926-5.265-3.421-10.735-4.435-16.37-1.014-5.644-1.537-11.453-1.537-17.384 0-54.169 43.915-98.074 98.084-98.074h22.977c-33.323 0-60.326 43.905-60.326 98.074 0 5.931.317 11.739.942 17.384.625 5.634 1.547 11.104 2.725 16.37-16.718 17.435-27.802 47.921-27.802 82.616 0 5.101.246 10.111.697 14.997.84 8.881 2.418 17.363 4.62 25.292 3.022 10.889 7.232 20.723 12.354 29.062 10.919 17.753 25.998 28.724 42.654 28.724z" fill="#66b394"/><path d="m451.749 319.17c-1.393 8.687-3.934 16.984-7.447 24.739-2.838.461-5.808.686-8.933.686-1.239 0-2.489-.041-3.759-.113-19.668-1.065-43.044-10.182-67.793-19.842-32.483-12.692-69.269-27.064-107.447-27.064-38.148 0-74.964 14.372-107.447 27.054-24.728 9.66-48.095 18.787-67.793 19.852-4.815.266-9.301.031-13.491-.707-3.575-7.929-6.136-16.411-7.498-25.292 5.296 4.415 11.319 6.013 19.873 5.542 16.431-.881 38.302-9.434 61.453-18.48 34.173-13.337 72.905-28.457 114.905-28.457 42.041 0 80.731 15.12 114.874 28.447 23.202 9.066 45.093 17.609 61.473 18.49 8.13.441 13.939-.962 19.03-4.855z" fill="#66b394"/><g fill="#2b4d66"><circle cx="232.633" cy="254.049" r="14.118"/><circle cx="279.367" cy="254.049" r="14.118"/></g><g><g><g><g><circle cx="150.548" cy="245.223" fill="#fff" r="40.629"/><circle cx="150.548" cy="245.223" fill="#2b4d66" r="28.729"/></g></g></g><g><g><g><circle cx="361.452" cy="245.223" fill="#fff" r="40.629"/><circle cx="361.452" cy="245.223" fill="#2b4d66" r="28.729"/></g></g></g></g><g fill="#5aa687"><g><circle cx="168.181" cy="182.47" r="16.423"/><circle cx="174.161" cy="127.562" r="24.709"/><circle cx="132.496" cy="157.842" r="14.365"/></g><g><circle cx="343.531" cy="182.47" r="16.423"/><circle cx="337.551" cy="127.562" r="24.709"/><circle cx="379.216" cy="157.842" r="14.365"/></g></g></g></svg>