<svg id="Capa_1" enable-background="new 0 0 512 512" height="512" viewBox="0 0 512 512" width="512" xmlns="http://www.w3.org/2000/svg"><g><path d="m512 256c0 49.56-14.09 95.83-38.46 135.02-89.599 50.312-125.72 77.542-217.54 77.542-59.56 0-114.37-20.34-157.86-54.46-23.56-18.48-43.8 2.438-59.67-23.082-24.38-39.19-38.47-85.46-38.47-135.02 0-141.38 114.62-256 256-256s256 114.62 256 256z" fill="#78d090"/><path d="m473.54 391.02c-45.18 72.63-125.72 120.98-217.54 120.98s-172.36-48.35-217.53-120.98c10.14-12.04 21.81-22.77 34.69-31.88.24-.17.49-.35.74-.51 30.04-21.08 66.62-33.44 106.1-33.44h152c39.48 0 76.06 12.36 106.11 33.43.25.16.5.34.74.51 8.57 6.07 16.6 12.86 24.01 20.26 3.72 3.72 7.28 7.6 10.68 11.63z" fill="#98695e"/><path d="m275.6 325.19c-83.89 0-154.76 55.82-177.46 132.35-23.56-18.48-43.8-41-59.67-66.52 33.94-40.26 84.76-65.83 141.54-65.83z" fill="#845c52"/><path d="m438.11 358.62c-29.46 26.45-68.42 42.54-111.13 42.54h-141.96c-42.71 0-81.66-16.09-111.12-42.53 30.04-21.08 66.62-33.44 106.1-33.44h152c39.48 0 76.06 12.36 106.11 33.43z" fill="#845c52"/><path d="m326.984 19.802h-141.968c-91.914 0-166.425 74.511-166.425 166.425v26.928c0 91.914 74.511 166.425 166.425 166.425h141.967c91.914 0 166.425-74.511 166.425-166.425v-26.928c.001-91.914-74.51-166.425-166.424-166.425z" fill="#98695e"/><path d="m261.654 379.583h-76.635c-91.909 0-166.428-74.508-166.428-166.428v-26.928c0-91.909 74.518-166.428 166.428-166.428h76.635c-91.92 0-166.428 74.518-166.428 166.428v26.928c.001 91.92 74.508 166.428 166.428 166.428z" fill="#845c52"/><path d="m423.613 311.444c-21.445 40.53-64.039 68.136-113.079 68.136h-109.068c-49.04 0-91.634-27.606-113.079-68.136l92.269-30.686c34.973-11.633 53.888-49.411 42.255-84.383-9.304-27.987-35.354-45.685-63.298-45.685-6.986 0-14.089 1.101-21.075 3.43l-49.834 16.576c2.752-5.144 5.854-10.077 9.272-14.777 23.234-31.977 60.938-52.766 103.489-52.766h109.068c48.807 0 91.221 27.341 112.762 67.543l-49.834-16.576c-6.986-2.329-14.089-3.43-21.075-3.43-27.944 0-53.994 17.698-63.298 45.685-11.633 34.973 7.282 72.751 42.255 84.383z" fill="#f1cb86"/><g><path d="m268.419 321.836h-24.837c-18.806 0-34.051-15.245-34.051-34.051 0-18.806 15.245-34.051 34.051-34.051h24.837c18.806 0 34.051 15.245 34.051 34.051-.001 18.806-15.246 34.051-34.051 34.051z" fill="#98695e"/><path d="m265.977 321.838h-22.394c-18.811 0-34.052-15.241-34.052-34.052 0-9.399 3.807-17.912 9.974-24.079 6.154-6.154 14.667-9.974 24.079-9.974h22.394c-9.399 0-17.913 3.82-24.079 9.974-6.154 6.166-9.974 14.679-9.974 24.079-.001 18.811 15.253 34.052 34.052 34.052z" fill="#845c52"/></g><path d="m96.188 168.209-7.484 2.487c2.752-5.144 5.854-10.077 9.272-14.777-.74 4.044-1.343 8.14-1.788 12.29z" fill="#ecbe6b"/><path d="m261.652 379.58h-60.186c-49.04 0-91.634-27.606-113.079-68.136l31.808-10.574c29.352 47.251 81.726 78.71 141.457 78.71z" fill="#ecbe6b"/><g><g><g><g><circle cx="161.075" cy="213.87" fill="#fff" r="42.177"/><circle cx="161.075" cy="213.87" fill="#2b4d66" r="29.824"/></g></g></g><g><g><g><circle cx="350.925" cy="213.87" fill="#fff" r="42.177"/><circle cx="350.925" cy="213.87" fill="#2b4d66" r="29.824"/></g></g></g></g><path d="m302.544 358.367h-93.088c-5.846 0-10.585-4.739-10.585-10.585s4.739-10.585 10.585-10.585h93.088c5.845 0 10.585 4.739 10.585 10.585s-4.74 10.585-10.585 10.585z" fill="#ecbe6b"/></g></svg>