<svg id="Capa_1" enable-background="new 0 0 512 512" height="512" viewBox="0 0 512 512" width="512" xmlns="http://www.w3.org/2000/svg"><g><path d="m25.672 256c0-23.31-22.552-45.9-16.712-67.36 29.57-108.7 128.97-188.64 247.04-188.64s217.47 79.94 247.04 188.64c5.84 21.46-19.677 44.05-19.677 67.36" fill="#80b4fb"/><g fill="#2b4d66"><path d="m512 256c0 78.61-35.43 148.95-91.2 195.9-21.46 18.08-52.586 8.91-79.216 19.2l39.066-186.99s41.91-81.46 122.39-95.47c5.84 21.46 8.96 44.05 8.96 67.36z"/><path d="m176.007 463.484c-26.63-10.29-63.347 6.495-84.807-11.585-55.77-46.949-91.2-117.289-91.2-195.899 0-23.31 3.12-45.9 8.96-67.36 80.48 14.01 122.39 95.47 122.39 95.47z"/></g><path d="m420.8 451.9c-44.53 37.5-102.03 60.1-164.8 60.1s-120.27-22.6-164.8-60.1l14.23-72.32h301.14z" fill="#365e7d"/><path d="m256 0c-87.699 0-158.793 71.094-158.793 158.792v233.021c0 17.54 14.219 31.759 31.758 31.759 17.54 0 31.759-14.219 31.759-31.759 0 17.54 14.219 31.759 31.758 31.759 17.54 0 31.759-14.219 31.759-31.759 0 17.54 14.219 31.759 31.758 31.759 17.54 0 31.759-14.219 31.759-31.759 0 17.54 14.219 31.759 31.758 31.759 17.54 0 31.759-14.219 31.759-31.759 0 17.54 14.219 31.759 31.758 31.759 17.54 0 31.759-14.219 31.759-31.759v-233.021c.001-87.698-71.093-158.792-158.792-158.792z" fill="#ebebeb"/><path d="m163.957 158.793v233.02c0 7.93 1.68 15.17 4.47 20.74-4.8-5.57-7.7-12.82-7.7-20.74 0 8.77-3.55 16.71-9.3 22.46s-13.69 9.3-22.46 9.3c-17.54 0-31.76-14.22-31.76-31.76v-233.02c0-87.3 70.45-158.14 157.6-158.78-50.28 1.1-90.85 71.77-90.85 158.78z" fill="#d5dff4"/><g><g><g><g><path d="m199.31 163.92c0 23.67-19.19 42.86-42.87 42.86-23.67 0-42.86-19.19-42.86-42.86 0-11.07 4.19-21.15 11.07-28.75h63.59c6.88 7.6 11.07 17.68 11.07 28.75z" fill="#fff"/><circle cx="156.444" cy="163.921" fill="#2b4d66" r="30.309"/></g></g></g><g><g><g><path d="m398.42 163.92c0 23.67-19.19 42.86-42.86 42.86-23.68 0-42.87-19.19-42.87-42.86 0-11.07 4.19-21.15 11.07-28.75h63.59c6.88 7.6 11.07 17.68 11.07 28.75z" fill="#fff"/><circle cx="355.556" cy="163.921" fill="#2b4d66" r="30.309"/></g></g></g></g><path d="m290.514 174.533h-69.028c0 18.354-5.417 36.191-14.962 51.868-2.181 3.582-3.438 7.789-3.438 12.291 0 13.079 10.603 23.682 23.682 23.682h58.463c13.079 0 23.682-10.603 23.682-23.682 0-4.502-1.256-8.709-3.438-12.291-9.544-15.677-14.961-33.514-14.961-51.868z" fill="#ffc250"/><g><path d="m256 287.742c-19.062 0-34.514-15.452-34.514-34.514v-90.162c0-9.056 7.342-16.398 16.398-16.398h36.232c9.056 0 16.398 7.342 16.398 16.398v90.162c0 19.061-15.452 34.514-34.514 34.514z" fill="#ffd064"/><path d="m265.066 286.538c-2.883.783-5.927 1.203-9.06 1.203-19.065 0-34.52-15.447-34.52-34.512v-90.163c0-9.052 7.348-16.392 16.4-16.392h18.112c-9.052 0-16.4 7.34-16.4 16.392v90.163c0 15.932 10.796 29.336 25.468 33.309z" fill="#ffc250"/></g><g fill="#d8e2f1"><path d="m329.66 157.207c-9.749 0-16.182-.712-17.049-.814-8.148-.957-13.978-8.338-13.02-16.486.956-8.141 8.32-13.968 16.464-13.023.79.089 61.202 6.499 93.327-25.626 5.801-5.802 15.206-5.801 21.008 0 5.801 5.801 5.801 15.207 0 21.008-30.395 30.395-76.115 34.941-100.73 34.941z"/><path d="m182.34 157.207c9.748 0 16.182-.712 17.049-.814 8.148-.957 13.978-8.338 13.02-16.486-.956-8.141-8.32-13.968-16.464-13.023-.79.089-61.202 6.499-93.327-25.626-5.801-5.802-15.206-5.801-21.008 0-5.801 5.801-5.801 15.207 0 21.008 30.395 30.395 76.115 34.941 100.73 34.941z"/></g></g></svg>