<svg id="Capa_1" enable-background="new 0 0 512 512" height="512" viewBox="0 0 512 512" width="512" xmlns="http://www.w3.org/2000/svg"><g><path d="m512 256c0 38.917-8.684 75.806-24.22 108.835-40.906 86.963-129.312 113.15-231.78 113.15s-190.875-26.187-231.78-113.15c-15.536-33.029-24.22-69.918-24.22-108.835 0-141.385 114.615-256 256-256s256 114.615 256 256z" fill="#80b4fb"/><path d="m487.77 364.83c-40.9 86.96-129.31 147.17-231.77 147.17s-190.87-60.21-231.77-147.17c5.87-9.14 12.53-17.73 19.88-25.67 8.76-9.47 18.49-18.02 29.05-25.49 7.65-5.42 15.72-10.27 24.17-14.5 24.88-12.45 52.95-19.45 82.67-19.45h152c29.71 0 57.78 7 82.67 19.45 8.45 4.22 16.53 9.07 24.18 14.49 8.57 6.07 16.6 12.86 24.01 20.26 1.71 1.71 3.39 3.45 5.03 5.23 7.35 7.95 14 16.54 19.88 25.68z" fill="#c3d5ef"/><path d="m360.953 310.731 53.717 60.339c0 35.31-24.13 64.99-56.8 73.45-7.06 19.16-25.48 32.83-47.1 32.83h-82.06c.06 0 .13.01.2.01h-27.68c-21.62 0-40.04-13.67-47.1-32.84-32.67-8.46-56.8-38.13-56.8-73.45l30.623-60.339c24.88-12.45 22.327-31.011 52.047-31.011h152c29.71 0 4.063 18.561 28.953 31.011z" fill="#b7c8ea"/><path d="m275.6 279.72c-97.81 0-177.91 75.87-184.62 171.98-28.05-23.67-50.95-53.27-66.75-86.87 32.91-51.2 90.39-85.11 155.78-85.11z" fill="#b7c8ea"/><path d="m170.861 71.608h53.384v110.219h-111.126c-152.663-58.494-100.216-181.827-100.216-181.827z" fill="#c3d5ef"/><path d="m398.881 181.827h-134.552v-110.219h76.81l157.958-71.608s52.447 123.333-100.216 181.827z" fill="#c3d5ef"/><path d="m310.77 458.336h-109.54c-27.715 0-50.182-22.467-50.182-50.182v-151.744c0-36.31 29.435-65.745 65.745-65.745h78.416c36.31 0 65.745 29.435 65.745 65.745v151.744c-.001 27.715-22.469 50.182-50.184 50.182z" fill="#d8e2f1"/><path d="m338.803 427.921h-133.183l-32.423-4.44c-41.9 0-58.972-46.421-58.972-88.321l6.623-200.313c0-27.447-12.393-64.499 5.594-82.486s42.836-29.112 70.283-29.112h118.551c54.894 0 99.395 44.5 99.395 99.395v229.411c-.001 41.899-33.967 75.866-75.868 75.866z" fill="#d8e2f1"/><path d="m228.91 458.344h-27.68c-21.62 0-40.04-13.67-47.1-32.84-32.67-8.46-56.8-38.13-56.8-73.45v-229.41c0-54.89 44.5-99.39 99.4-99.39h29.95c-27.15 0-49.16 44.5-49.16 99.39v229.41c0 35.32 11.94 64.99 28.1 73.45 3.49 19.17 12.6 32.84 23.29 32.84z" fill="#c3d5ef"/><g><g><g><g><circle cx="127.953" cy="225.585" fill="#fff" r="48.401"/><circle cx="127.953" cy="225.585" fill="#2b4d66" r="34.225"/></g></g></g><g><g><g><circle cx="384.047" cy="225.585" fill="#fff" r="48.401"/><circle cx="384.047" cy="225.585" fill="#2b4d66" r="34.225"/></g></g></g></g><path d="m282.168 229.641c-7.914 5.317-17.043 7.972-26.171 7.972-9.121 0-18.25-2.655-26.164-7.972-13.377-8.983-20.774-23.793-20.774-38.995 0-7.179 1.644-14.446 5.092-21.225l28.609-56.358c5.5-10.834 20.976-10.835 26.476-.001l28.615 56.359c10.743 21.152 4.007 46.996-15.683 60.22z" fill="#f1f1f4"/><path d="m255.998 237.607c-9.122 0-18.252-2.655-26.167-7.972-13.373-8.981-20.773-23.788-20.773-38.989 0-7.181 1.645-14.446 5.091-21.232l28.61-56.352c2.754-5.423 7.993-8.127 13.239-8.127-1.977 0-3.954 2.704-4.992 8.127l-10.789 56.352c-1.299 6.785-1.921 14.051-1.921 21.232 0 15.202 2.789 30.008 7.837 38.989 2.981 5.317 6.427 7.972 9.865 7.972z" fill="#d5dff4"/><path d="m293.061 355.773c-11.208 7.531-24.137 11.291-37.066 11.291-12.918 0-25.847-3.76-37.056-11.291-18.945-12.723-29.422-33.697-29.422-55.228 0-10.168 2.328-20.46 7.211-30.061l40.519-79.819c7.789-15.345 29.707-15.345 37.498-.001l40.526 79.82c15.216 29.958 5.677 66.56-22.21 85.289z" fill="#f1f1f4"/><path d="m255.997 367.055c-12.92 0-25.85-3.76-37.06-11.29-18.94-12.72-29.42-33.69-29.42-55.22 0-10.17 2.33-20.46 7.21-30.07l40.52-79.81c3.9-7.68 11.32-11.51 18.75-11.51-2.8 0-5.6 3.83-7.07 11.51l-15.28 79.81c-1.84 9.61-2.72 19.9-2.72 30.07 0 21.53 3.95 42.5 11.1 55.22 4.22 7.53 9.1 11.29 13.97 11.29z" fill="#d5dff4"/></g></svg>