<svg id="Capa_1" enable-background="new 0 0 512 512" height="512" viewBox="0 0 512 512" width="512" xmlns="http://www.w3.org/2000/svg"><g><path d="m512 256c0 64.59-23.92 123.593-63.385 168.634-46.923 53.552-115.82 43.567-192.615 43.567s-145.692 9.985-192.615-43.567c-39.465-45.041-63.385-104.044-63.385-168.634 0-141.385 114.615-256 256-256s256 114.615 256 256z" fill="#ffd064"/><path d="m448.61 424.63c-46.92 53.55-115.82 87.37-192.61 87.37-51.18 0-98.85-15.02-138.85-40.9-20.02-12.94-38.11-28.61-53.76-46.47 4.15-5.5 8.65-10.71 13.48-15.61 8.67-8.82 18.37-16.61 28.91-23.19h.01c24.11-15.07 52.61-23.78 83.15-23.78h134.12c30.54 0 59.04 8.71 83.15 23.78h.01c10.54 6.58 20.25 14.38 28.92 23.2 4.82 4.89 9.32 10.11 13.47 15.6z" fill="#365e7d"/><path d="m238.73 363.57s-88.3 17.25-121.58 107.53c-20.02-12.94-38.11-28.61-53.76-46.47 28.69-38.01 74.25-62.58 125.55-62.58h46.37z" fill="#2b4d66"/><path d="m435.14 409.03c-26.04 27.22-62.72 44.17-103.36 44.17h-151.56c-39.48 0-75.24-16-101.11-41.88-.76-.76-1.51-1.52-2.24-2.3 8.67-8.82 18.37-16.61 28.91-23.19h.01c24.11-15.07 52.61-23.78 83.15-23.78h134.12c30.54 0 59.04 8.71 83.15 23.78h.01c10.54 6.58 20.25 14.38 28.92 23.2z" fill="#2b4d66"/><path d="m474.78 288.16c0 78.98-64.03 143-143 143h-151.56c-39.48 0-75.24-16-101.11-41.88-25.88-25.88-41.89-61.63-41.89-101.12 0-46.88 22.56-88.5 57.42-114.58 6.38-38.8 26.42-73.01 55.01-97.51 3-2.57 6.09-5.03 9.27-7.39 27.15-20.06 60.73 1.728 97.08 1.728s69.93-21.788 97.08-1.728c33.51 24.77 57.23 62.03 64.28 104.9 17.43 13.04 31.78 29.96 41.78 49.49s15.64 41.65 15.64 65.09z" fill="#365e7d"/><path d="m213.57 431.16h-33.35c-39.48 0-75.24-16-101.11-41.88-25.88-25.88-41.89-61.63-41.89-101.12 0-46.88 22.56-88.5 57.42-114.58 6.38-38.8 26.42-73.01 55.01-97.51 3-2.57 6.09-5.03 9.27-7.39 16.173-11.949 31.103-12.158 51.065-17.514 13.55-3.636 28.494-5.926 43.191-5.926-20.35 0-36.326 3.38-51.526 23.44-1.78 2.36-3.51 4.82-5.19 7.39-16.01 24.5-27.23 58.71-30.8 97.51-19.51 26.08-32.14 67.7-32.14 114.58 0 39.49 8.96 75.24 23.45 101.12 14.48 25.88 34.5 41.88 56.6 41.88z" fill="#2b4d66"/><ellipse cx="256" cy="375.33" fill="#dd636e" rx="61.24" ry="44.358"/><g><g><g><g><path d="m191.03 248.93c0 25.53-20.69 46.22-46.22 46.22-25.54 0-46.23-20.69-46.23-46.22 0-15.58 7.7-29.36 19.5-37.73 31.19 1.24 51.72 5.75 63.01 9.1 6.23 7.87 9.94 17.81 9.94 28.63z" fill="#fff"/><circle cx="144.806" cy="248.926" fill="#2b4d66" r="32.688"/></g></g></g><g><g><g><path d="m413.42 248.93c0 25.53-20.69 46.22-46.23 46.22-25.53 0-46.22-20.69-46.22-46.22 0-10.82 3.71-20.76 9.94-28.63 11.29-3.35 31.82-7.86 63.01-9.1 11.8 8.37 19.5 22.15 19.5 37.73z" fill="#fff"/><circle cx="367.194" cy="248.926" fill="#2b4d66" r="32.688"/></g></g></g></g><g fill="#fff"><path d="m205.987 377.424c-.08 2.147-.072 4.318.016 6.513-1.314 31.705 15.837 59.309 9.012 68.738-3.444 4.165-15.58 2.427-27.852-9.492-12.096-11.495-24.328-33.163-23.911-59.245-.104-6.32.537-12.376 1.746-18.096"/><path d="m347.003 365.841c1.202 5.719 1.85 11.775 1.746 18.096.417 26.082-11.823 47.75-23.919 59.245-12.272 11.92-24.4 13.658-27.852 9.492-6.825-9.428 10.325-37.032 9.012-68.738.088-2.195.096-4.366.016-6.513"/></g><path d="m370.53 345.16c-.52 35.28-29.95 63.32-65.24 63.32-27.22 0-49.29-22.07-49.29-49.29 0 27.22-22.07 49.29-49.29 49.29-35.29 0-64.72-28.04-65.24-63.32-.33-22.46 10.86-42.33 28.04-54.08 22.72-15.53 35.89-41.65 35.89-69.17v-97c0-27.93-20.01-51.19-46.48-56.23 27.15-20.06 60.73-31.92 97.08-31.92s69.93 11.86 97.08 31.92c-26.47 5.04-46.48 28.3-46.48 56.23v97c0 27.52 13.17 53.64 35.89 69.17 17.18 11.75 28.37 31.62 28.04 54.08z" fill="#d8e2f1"/><path d="m209.76 291.08c-9.19 11.75-15.17 31.62-15 54.08.24 29.63 11.38 54.16 26.12 61.25-4.49 1.35-9.24 2.07-14.17 2.07-35.29 0-64.72-28.04-65.24-63.32-.33-22.46 10.86-42.33 28.04-54.08 22.72-15.53 35.89-41.65 35.89-69.17v-97c0-27.93-20.01-51.19-46.48-56.23 16.17-11.95 34.63-20.99 54.59-26.34-3.28 3.41-6.42 7.2-9.42 11.34 14.16 5.04 24.86 43.3 24.86 71.23v97c0 27.52-7.05 53.64-19.19 69.17z" fill="#b7c8ea"/><g fill="#b7c8ea"><g><circle cx="195.832" cy="365.427" r="14.153"/><circle cx="167.425" cy="337.887" r="14.153"/><circle cx="204.079" cy="328.964" r="14.153"/></g><g><circle cx="316.168" cy="365.427" r="14.153"/><circle cx="344.575" cy="337.887" r="14.153"/><circle cx="307.921" cy="328.964" r="14.153"/></g></g><path d="m179.41 87.18-10.86 10.86c-9.51 9.51-20.68 16.37-32.58 20.56-30.66 10.82-66.16 3.97-90.68-20.56l-44.41-44.4 10.86-10.86c34.04-34.04 89.22-34.04 123.26 0z" fill="#365e7d"/><path d="m333.384 87.181 44.404-44.404c34.038-34.038 89.224-34.038 123.261 0l10.86 10.86-44.404 44.403c-34.038 34.038-89.224 34.038-123.261 0z" fill="#365e7d"/><path d="m135.97 118.6c-30.66 10.82-66.16 3.97-90.68-20.56l-44.41-44.4s87.43-21.96 135.09 64.96z" fill="#2b4d66"/><path d="m376.819 118.596c30.66 10.82 66.16 3.97 90.68-20.56l44.41-44.4s-87.43-21.96-135.09 64.96z" fill="#2b4d66"/><g><path d="m269.191 367.14h-26.382c-19.975 0-36.168-16.193-36.168-36.168 0-19.975 16.193-36.168 36.168-36.168h26.382c19.975 0 36.168 16.193 36.168 36.168 0 19.975-16.193 36.168-36.168 36.168z" fill="#365e7d"/><path d="m266.597 367.142h-23.786c-19.981 0-36.17-16.189-36.17-36.17 0-9.984 4.044-19.026 10.594-25.576 6.536-6.537 15.579-10.594 25.576-10.594h23.786c-9.984 0-19.026 4.057-25.576 10.594-6.536 6.55-10.594 15.592-10.594 25.576 0 19.981 16.202 36.17 36.17 36.17z" fill="#2b4d66"/></g></g></svg>