<svg id="Capa_1" enable-background="new 0 0 512 512" height="512" viewBox="0 0 512 512" width="512" xmlns="http://www.w3.org/2000/svg"><g><g><path d="m512 256c0 67.29-25.97 128.52-68.42 174.21-46.75 50.31-113.49 21.83-187.58 21.83-44.44 0-86.24-11.33-122.67-31.25-24.29-13.29-46.2 29.56-64.91 9.43-42.45-45.7-68.42-106.93-68.42-174.22 0-141.38 114.62-256 256-256s256 114.62 256 256z" fill="#78d090"/></g><path d="m443.58 430.21c-46.75 50.31-113.49 81.79-187.58 81.79-44.44 0-86.24-11.33-122.67-31.25-24.29-13.29-46.2-30.4-64.91-50.53 3.88-10.08 8.12-19.82 12.69-29.18 9.48-19.41 20.38-37.18 32.49-52.97 38.01-49.63 87.85-79.71 142.4-79.71 54.56 0 104.39 30.08 142.4 79.71 12.24 15.96 23.25 33.95 32.8 53.61 4.46 9.16 8.59 18.68 12.38 28.53z" fill="#f1cb86"/><path d="m256 268.36c-56.47 0-104.56 88.53-122.67 212.39-24.29-13.29-46.2-30.4-64.91-50.53 37.25-96.71 107.3-161.86 187.58-161.86z" fill="#ecbe6b"/><g><circle cx="443.553" cy="132.888" fill="#f1cb86" r="62.615"/><circle cx="443.553" cy="132.888" fill="#ecbe6b" r="34.199"/><circle cx="68.447" cy="132.888" fill="#f1cb86" r="62.615"/><circle cx="68.447" cy="132.888" fill="#ecbe6b" r="34.199"/></g><path d="m398.4 348.07c-24.82 18.53-55.62 29.5-88.98 29.5h-106.84c-33.36 0-64.16-10.97-88.98-29.5 38.01-49.63 87.85-79.71 142.4-79.71 54.56 0 104.39 30.08 142.4 79.71z" fill="#ecbe6b"/><path d="m458.34 195.58v10.08c0 82.25-66.67 148.92-148.92 148.92h-79.328l-28.011-2.5c-27.889 0-53.486-5.165-75.801-18.503-43.496-26-72.62-73.555-72.62-127.917v-10.08c0-67.14 44.43-123.91 105.5-142.48 13.73-4.19 28.32-6.44 43.42-6.44h106.84c15.1 0 29.69 2.25 43.42 6.44 61.07 18.57 105.5 75.34 105.5 142.48z" fill="#f1cb86"/><path d="m255.454 354.591h-52.873c-82.255 0-148.921-66.678-148.921-148.933v-10.077c0-82.243 66.667-148.921 148.921-148.921h52.873c-60.834 0-110.152 49.318-110.152 110.152v87.627c0 60.834 49.318 110.152 110.152 110.152z" fill="#ecbe6b"/><path d="m422.15 254.94-21.02 21.02c-14.16 14.16-37.12 14.16-51.28 0l-59.23-59.23c-19.12-19.12-50.12-19.12-69.24 0l-59.23 59.23c-2.97 2.97-6.33 5.32-9.91 7.04-13.5 6.5-30.18 4.15-41.37-7.04l-21.02-21.02c-25.77-25.77-25.77-67.55 0-93.32l46.33-46.33c7.33-7.34 15.97-12.59 25.16-15.74 23.1-7.94 49.73-2.69 68.16 15.74l26.5 26.5 26.5-26.5c25.77-25.77 67.55-25.77 93.32 0l46.33 46.33c25.77 25.77 25.77 67.55 0 93.32z" fill="#4a80aa"/><path d="m145.3 244.44c0 13.57 2.45 26.56 6.94 38.56-13.5 6.5-30.18 4.15-41.37-7.04l-21.02-21.02c-25.77-25.77-25.77-67.55 0-93.32l46.33-46.33c7.33-7.34 15.97-12.59 25.16-15.74-10.18 16.68-16.04 36.29-16.04 57.26z" fill="#365e7d"/><g><g><g><g><circle cx="136.7" cy="195.503" fill="#fff" r="39.75"/><circle cx="136.7" cy="195.503" fill="#2b4d66" r="28.107"/></g></g></g><g><g><g><circle cx="375.3" cy="195.503" fill="#fff" r="39.75"/><circle cx="375.3" cy="195.503" fill="#2b4d66" r="28.107"/></g></g></g></g><path d="m366.15 286.58c0 34.15-27.68 61.83-61.83 61.83-19.56 0-36.99-9.09-48.32-23.27-9.65 12.07-23.72 20.46-39.76 22.68h-.01c-2.79.39-5.65.59-8.55.59-34.15 0-61.83-27.68-61.83-61.83s27.68-61.83 61.83-61.83h96.64c34.15 0 61.83 27.68 61.83 61.83z" fill="#f1f1f4"/><path d="m216.23 347.82c-2.79.39-5.65.59-8.55.59-34.15 0-61.83-27.68-61.83-61.83s27.68-61.83 61.83-61.83h9.78c-21.05 4.16-38.46 30.59-38.46 61.83s16.19 57.07 37.23 61.24z" fill="#d5dff4"/><g><path d="m268.56 302.794h-25.12c-19.02 0-34.438-15.418-34.438-34.438 0-19.02 15.418-34.438 34.438-34.438h25.12c19.02 0 34.438 15.418 34.438 34.438 0 19.02-15.418 34.438-34.438 34.438z" fill="#365e7d"/><path d="m266.09 302.796h-22.648c-19.025 0-34.44-15.415-34.44-34.44 0-9.506 3.85-18.116 10.087-24.353 6.224-6.224 14.834-10.087 24.353-10.087h22.648c-9.506 0-18.116 3.863-24.353 10.087-6.224 6.237-10.087 14.846-10.087 24.353 0 19.026 15.428 34.44 34.44 34.44z" fill="#2b4d66"/></g><path d="m352.84 53.1c-25.29 19.83-57.17 31.65-91.8 31.65h-10.08c-22.84 0-44.49-5.14-63.84-14.34-9.98-4.74-19.36-10.56-27.96-17.31 13.73-4.19 28.32-6.44 43.42-6.44h106.84c15.1 0 29.69 2.25 43.42 6.44z" fill="#4a80aa"/><path d="m255.45 46.66c-25.81 0-49.55 8.88-68.33 23.75-9.98-4.74-19.36-10.56-27.96-17.31 13.73-4.19 28.32-6.44 43.42-6.44z" fill="#365e7d"/></g></svg>