<svg id="Capa_1" enable-background="new 0 0 512 512" height="512" viewBox="0 0 512 512" width="512" xmlns="http://www.w3.org/2000/svg"><g><path d="m458.623 256c0 141.38-56.54 221.847-197.92 221.847-95.69 0-126.143-40.751-170.063-118.531-20.981-37.13-56.216-57.626-56.216-103.316 0-3.65-34.344-7.28-34.194-10.9 0-.01 0-.01 0-.02 5.72-136.31 118.05-245.08 255.77-245.08s250.05 108.76 255.77 245.07c.15 3.62-53.147 7.27-53.147 10.93z" fill="#80b4fb"/><path d="m512 256c0 27.93-4.48 54.82-12.75 79.99-14.33 43.6-40.05 82.03-73.65 111.77-45.16 39.97-104.55 64.24-169.6 64.24s-124.44-24.27-169.6-64.24c-33.59-29.73-59.31-68.15-73.64-111.74-8.28-25.18-12.76-52.08-12.76-80.02 0-3.65.08-7.28.23-10.9 17.05-11.48 35.52-21.02 55.09-28.3 28.69-10.68 59.74-16.51 92.15-16.51h217.06c32.42 0 63.47 5.84 92.17 16.52 19.56 7.28 38.02 16.8 55.07 28.26.15 3.62.23 7.27.23 10.93z" fill="#c3d5ef"/><path d="m283.99 200.29c-117.02 0-216.28 76.05-251.04 181.42-20.98-37.13-32.95-80.02-32.95-125.71 0-3.65.08-7.28.23-10.9 0-.01 0-.01 0-.02 42.07-28.29 92.74-44.79 147.25-44.79z" fill="#b7c8ea"/><path d="m400.588 102.059h-289.175c-20.875 0-37.797-16.922-37.797-37.797 0-20.875 16.922-37.797 37.797-37.797h289.175c20.875 0 37.797 16.922 37.797 37.797 0 20.875-16.922 37.797-37.797 37.797z" fill="#d8e2f1"/><path d="m111.413 83.83c-10.79 0-19.568-8.778-19.568-19.568s8.778-19.568 19.568-19.568h289.175c10.79 0 19.567 8.778 19.567 19.568s-8.778 19.568-19.567 19.568z" fill="#c3d5ef"/><g><path d="m408.225 234.73v-82.507c0-84.07-68.153-152.223-152.224-152.223-84.071 0-152.224 68.153-152.224 152.224v82.507c0 84.071 68.153 152.224 152.224 152.224 84.071-.001 152.224-68.154 152.224-152.225z" fill="#d5dff4"/><path d="m287.727 383.638c-10.236 2.169-20.849 3.31-31.726 3.31-84.067 0-152.225-68.148-152.225-152.215v-82.508c0-42.044 17.039-80.095 44.59-107.645 27.54-27.541 65.602-44.58 107.635-44.58 10.878 0 21.49 1.141 31.726 3.31-29.302 6.213-55.498 20.859-75.919 41.27-27.55 27.55-44.59 65.601-44.59 107.645v82.508c.001 73.189 51.659 134.31 120.509 148.905z" fill="#d8e2f1"/></g><g><g><g><g><circle cx="169.65" cy="156.52" fill="#fff" r="43.773"/><circle cx="169.65" cy="156.52" fill="#2b4d66" r="30.952"/></g></g></g><g><g><g><circle cx="342.352" cy="156.52" fill="#fff" r="43.773"/><circle cx="342.352" cy="156.52" fill="#2b4d66" r="30.952"/></g></g></g></g><path d="m499.25 302.84v33.15c-14.33 43.6-40.05 82.03-73.65 111.77-10.86 3.66-22.5 5.65-34.59 5.65h-270.02c-12.09 0-23.73-1.99-34.59-5.65-33.59-29.73-59.31-68.15-73.64-111.74v-33.18c0-35.08 16.69-66.27 42.56-86.04 18.21-13.93 40.97-22.21 65.67-22.21h270.02c24.71 0 47.48 8.28 65.69 22.22 25.87 19.78 42.55 50.96 42.55 86.03z" fill="#b7c8ea"/><path d="m481.767 284.783v39.293c0 4.402-.282 8.741-.838 12.997-1.194 9.288-3.664 18.183-7.219 26.496-15.34 35.847-50.941 60.967-92.403 60.967h-250.612c-41.462 0-77.063-25.12-92.403-60.967-3.555-8.312-6.025-17.208-7.219-26.496-.556-4.257-.839-8.595-.839-12.997v-39.293c0-55.489 44.98-100.469 100.46-100.469h250.612c55.481-.001 100.461 44.98 100.461 100.469z" fill="#d8e2f1"/><path d="m202.242 424.541h-71.549c-55.48 0-100.46-44.98-100.46-100.469v-39.293c0-55.48 44.98-100.46 100.46-100.46h71.549c-55.489 0-100.46 44.98-100.46 100.46v39.293c0 55.489 44.971 100.469 100.46 100.469z" fill="#c3d5ef"/><g fill="#2b4d66"><circle cx="195.413" cy="222.581" r="20.715"/><circle cx="316.589" cy="222.581" r="20.715"/></g><g><g><path d="m398.049 382.629h-23.912c-12.876 0-23.314-10.438-23.314-23.314v-23.316h70.539v23.316c.001 12.876-10.437 23.314-23.313 23.314z" fill="#ebebeb"/><path d="m393.726 382.631h-19.587c-12.87 0-23.315-10.436-23.315-23.315v-23.315h19.587v23.315c0 12.879 10.436 23.315 23.315 23.315z" fill="#d5dff4"/></g><g><path d="m137.865 382.629h-23.912c-12.876 0-23.314-10.438-23.314-23.314v-23.316h70.539v23.316c0 12.876-10.438 23.314-23.313 23.314z" fill="#ebebeb"/><path d="m133.541 382.631h-19.587c-12.87 0-23.315-10.436-23.315-23.315v-23.315h19.587v23.315c0 12.879 10.437 23.315 23.315 23.315z" fill="#d5dff4"/></g></g><path d="m480.929 337.072c-1.194 9.288-3.664 18.183-7.219 26.496-71.658-12.87-144.802-19.387-217.709-19.387s-146.051 6.517-217.709 19.387c-3.555-8.312-6.025-17.208-7.219-26.496 74.019-13.435 149.596-20.234 224.928-20.234s150.909 6.8 224.928 20.234z" fill="#c3d5ef"/></g></svg>