<svg id="Capa_1" enable-background="new 0 0 512 512" height="512" viewBox="0 0 512 512" width="512" xmlns="http://www.w3.org/2000/svg"><g><path d="m512 256c0 64.59-23.92 123.593-63.385 168.634-46.923 53.552-115.82 19.731-192.615 19.731s-145.692 33.821-192.615-19.731c-39.465-45.041-63.385-104.044-63.385-168.634 0-141.385 114.615-256 256-256s256 114.615 256 256z" fill="#78d090"/><path d="m448.61 424.63c-46.92 53.55-115.82 87.37-192.61 87.37-51.18 0-98.85-15.02-138.85-40.9-20.02-12.94-38.11-28.61-53.76-46.47 11.61-15.39 25.99-28.56 42.39-38.8h.01c24.11-15.07 52.61-23.78 83.15-23.78h134.12c30.54 0 59.04 8.71 83.15 23.78h.01c16.4 10.24 30.78 23.41 42.39 38.8z" fill="#e27d47"/><path d="m238.73 363.57s-88.3 17.25-121.58 107.53c-20.02-12.94-38.11-28.61-53.76-46.47 28.69-38.01 74.25-62.58 125.55-62.58h46.37z" fill="#dd6938"/><g fill="#ebebeb"><path d="m118.2 394.706c-.695 0-1.383.03-2.067.073.186-1.401.291-2.826.291-4.277 0-16.226-11.982-29.649-27.579-31.916.611-2.48.941-5.07.941-7.739 0-17.816-14.443-32.258-32.258-32.258-17.816 0-32.258 14.442-32.258 32.258 0 16.226 11.981 29.649 27.579 31.916-.611 2.48-.941 5.07-.941 7.739 0 17.816 14.442 32.258 32.258 32.258.695 0 1.383-.03 2.067-.073-.186 1.4-.291 2.826-.291 4.277 0 17.816 14.443 32.258 32.258 32.258s32.258-14.443 32.258-32.258-14.443-32.258-32.258-32.258z"/><path d="m393.8 394.706c.695 0 1.383.03 2.067.073-.186-1.401-.291-2.826-.291-4.277 0-16.226 11.982-29.649 27.579-31.916-.611-2.48-.941-5.07-.941-7.739 0-17.816 14.443-32.258 32.258-32.258 17.816 0 32.258 14.442 32.258 32.258 0 16.226-11.981 29.649-27.579 31.916.611 2.48.941 5.07.941 7.739 0 17.816-14.442 32.258-32.258 32.258-.695 0-1.383-.03-2.067-.073.186 1.4.291 2.826.291 4.277 0 17.816-14.443 32.258-32.258 32.258s-32.258-14.443-32.258-32.258 14.443-32.258 32.258-32.258z"/></g><g><path d="m146.012 149.958h-15.358c-13.449 0-26.198-3.048-37.576-8.5-25.619-25.619-32.596-40.489-32.589-75.172l-17-66.284h15.358c48.14 0 87.158 39.018 87.158 87.158z" fill="#dd6938"/><path d="m365.994 149.956v-62.797c0-48.137 39.023-87.159 87.159-87.159h15.358l-14.941 62.797c0 34.683-12.861 56.883-34.645 78.667-11.377 5.444-24.119 8.492-37.573 8.492z" fill="#e27d47"/><g fill="#ebebeb"><path d="m93.078 141.458c-29.33-14.029-49.589-43.975-49.582-78.658l-.007-62.798s77.35 46.294 49.589 141.456z"/><path d="m418.922 141.457c29.331-14.029 49.589-43.975 49.582-78.658l.007-62.799s-77.35 46.294-49.589 141.457z"/></g></g><path d="m455.907 287.49c0 9.13 27.113 18.06 25.533 26.73-12.59 69.49-73.4 122.2-146.53 122.2h-157.82c-41.13 0-78.36-16.67-105.31-43.62-20.97-20.97-35.72-48.17-41.22-78.58-1.58-8.67 15.973-14.241 15.973-23.371 0-4.77-18.153-12.839-17.713-17.489.85-9.04 2.51-17.84 4.91-26.33 1.896-6.735 21.918-7.865 24.7-14.173 3.278-7.432-10.518-19.953-6.12-26.687 9.57-14.66 21.66-27.53 35.65-38 6.64-40.41 27.51-76.03 57.29-101.55 29.77-25.52 68.46-40.93 110.75-40.93 84.58 0 154.75 61.66 168.04 142.48 13.99 10.47 26.08 23.34 35.65 38 2.85 4.36-16.725 13.506-14.335 18.166 4.43 8.65 30.235 13.164 32.915 22.694 2.4 8.49 4.06 17.29 4.91 26.33.44 4.65-27.273 9.36-27.273 14.13z" fill="#e27d47"/><circle cx="256" cy="400.592" fill="#dd6938" r="58.356"/><path d="m200.452 436.415h-23.369c-41.114 0-78.355-16.673-105.296-43.624-20.97-20.97-35.717-48.162-41.23-78.571-1.573-8.673 15.976-14.244 15.976-23.371 0-4.708-18.152-12.73-17.724-17.326.846-9.093 2.509-17.95 4.915-26.495 2.357-8.37 20.991-6.469 24.705-14.171 2.792-5.791-9.615-21.346-6.125-26.69 9.575-14.661 21.664-27.531 35.656-37.995 6.644-40.406 27.514-76.032 57.287-101.557 29.44-25.233 67.608-40.594 109.357-40.927-29.222.479-55.933 15.808-76.564 40.927-17.125 20.851-30.059 48.442-36.77 79.874-2.861 13.4-8.377 26.049-16.1 37.367-18.29 26.803-29.545 63.352-29.545 103.629 0 41.125 11.737 78.355 30.7 105.306 18.975 26.951 45.176 43.624 74.127 43.624z" fill="#dd6938"/><path d="m319.721 282.259c-25.797 0-48.78 11.993-63.721 30.693-14.941-18.7-37.924-30.693-63.721-30.693-45.032 0-81.538 36.506-81.538 81.538s36.506 81.538 81.538 81.538c25.797 0 48.78-11.993 63.721-30.693 14.941 18.7 37.924 30.693 63.721 30.693 45.032 0 81.538-36.506 81.538-81.538s-36.506-81.538-81.538-81.538z" fill="#ebebeb"/><path d="m203.571 444.557c-3.697.521-7.467.781-11.299.781-45.03 0-81.531-36.511-81.531-81.541s36.501-81.541 81.531-81.541c3.832 0 7.602.26 11.299.781-27.753 5.488-49.112 39.563-49.112 80.76s21.359 75.272 49.112 80.76z" fill="#d5dff4"/><g fill="#b7c8ea"><g><circle cx="195.832" cy="397.811" r="14.153"/><circle cx="167.425" cy="370.271" r="14.153"/><circle cx="204.079" cy="361.349" r="14.153"/></g><g><circle cx="316.168" cy="397.811" r="14.153"/><circle cx="344.575" cy="370.271" r="14.153"/><circle cx="307.921" cy="361.349" r="14.153"/></g></g><g><g><g><g><circle cx="166.075" cy="232.857" fill="#fff" r="45.585"/><circle cx="166.075" cy="232.857" fill="#2b4d66" r="32.233"/></g></g></g><g><g><g><circle cx="345.925" cy="232.857" fill="#fff" r="45.585"/><circle cx="345.925" cy="232.857" fill="#2b4d66" r="32.233"/></g></g></g></g><path d="m303.021 307.796c0-59.449-25.369-137.475-47.009-137.475s-47.009 78.026-47.009 137.475" fill="#dd6938"/><g><path d="m268.56 342.234h-25.12c-19.02 0-34.438-15.418-34.438-34.438 0-19.02 15.418-34.438 34.438-34.438h25.12c19.02 0 34.438 15.418 34.438 34.438 0 19.02-15.418 34.438-34.438 34.438z" fill="#365e7d"/><path d="m266.09 342.236h-22.648c-19.025 0-34.44-15.415-34.44-34.44 0-9.506 3.85-18.116 10.087-24.353 6.224-6.224 14.834-10.087 24.353-10.087h22.648c-9.506 0-18.116 3.863-24.353 10.087-6.224 6.237-10.087 14.846-10.087 24.353 0 19.025 15.428 34.44 34.44 34.44z" fill="#2b4d66"/></g><g fill="#365e7d"><g><path d="m483.84 287.49c0 9.13-.82 18.06-2.4 26.73h-54.14c-11.28 0-20.43-9.15-20.43-20.43 0-5.65 2.29-10.75 5.99-14.45 3.69-3.7 8.8-5.98 14.44-5.98h55.88c.44 4.65.66 9.36.66 14.13z"/><path d="m478.27 247.03h-28.97c-11.28 0-20.43-9.15-20.43-20.43 0-5.64 2.29-10.75 5.99-14.44 3.69-3.7 8.8-5.99 14.44-5.99h10.39c2.85 4.36 5.47 8.88 7.86 13.54 4.43 8.65 8.04 17.79 10.72 27.32z"/><path d="m105.13 293.79c0 11.28-9.15 20.43-20.43 20.43h-54.14c-1.58-8.67-2.4-17.6-2.4-26.73 0-4.77.22-9.48.66-14.13h55.88c5.64 0 10.75 2.28 14.44 5.98 3.7 3.7 5.99 8.8 5.99 14.45z"/><path d="m83.13 226.6c0 11.28-9.15 20.43-20.43 20.43h-28.97c4.13-14.67 10.45-28.41 18.58-40.86h10.39c5.64 0 10.75 2.29 14.44 5.99 3.7 3.69 5.99 8.8 5.99 14.44z"/></g><path d="m333.045 123.559c-51.01-8.507-103.08-8.507-154.09 0-9.811 1.636-16.338 11.035-14.321 20.775.024.115.048.23.072.345 1.893 9.142 10.655 15.234 19.864 13.694 47.292-7.909 95.571-7.909 142.862 0 9.208 1.54 17.97-4.551 19.864-13.694.024-.115.048-.23.072-.345 2.016-9.74-4.512-19.139-14.323-20.775z"/><path d="m302.769 64.308c-31.011-4.585-62.528-4.585-93.539 0-9.883 1.461-16.457 11.01-14.431 20.793.024.115.048.23.072.345 1.885 9.1 10.559 15.063 19.753 13.711 27.436-4.033 55.315-4.033 82.751 0 9.194 1.352 17.869-4.611 19.753-13.711.024-.115.048-.23.072-.345 2.027-9.783-4.547-19.331-14.431-20.793z"/></g></g></svg>