<svg id="Capa_1" enable-background="new 0 0 512 512" height="512" viewBox="0 0 512 512" width="512" xmlns="http://www.w3.org/2000/svg"><g><path d="m512 256c0 74.95-32.21 142.38-83.55 189.19-5.55 5.06-51.89-30.68-57.87-26.11-3.07 2.34-6.19 4.62-9.37 6.82-41.37 28.71-51.05 41.03-105.21 41.03s-79.946 3.786-121.316-24.924c-3.18-2.2-6.3-4.48-9.37-6.82-5.98-4.57-36.204 15.074-41.754 10.014l-.01-.01c-51.34-46.81-83.55-114.24-83.55-189.19 0-140.19 112.7-254.07 252.44-255.96.36-.01.71-.02 1.07-.02s.72-.01 1.08-.01h.1c.44-.01.87-.01 1.31-.01.83 0 1.66.01 2.49.02 140.23 1.33 253.51 115.43 253.51 255.98z" fill="#80b4fb"/><path d="m411.14 419.63v40.01c-43.05 32.85-96.82 52.36-155.14 52.36s-112.09-19.51-155.14-52.36v-40.01z" fill="#78d090"/><path d="m431.05 175.05v256.87c0 4.7-.92 9.18-2.6 13.27-5.55 5.06-11.33 9.88-17.31 14.45-3.07 2.34-6.19 4.62-9.37 6.82-1.86.31-3.78.47-5.73.47-19.34 0-35.01-15.67-35.01-35.01 0 9.67-3.92 18.42-10.26 24.76-6.33 6.33-15.09 10.25-24.75 10.25-19.34 0-35.01-15.67-35.01-35.01 0 9.67-3.92 18.42-10.25 24.76-6.34 6.33-15.09 10.25-24.76 10.25-19.34 0-35.01-15.67-35.01-35.01 0 9.67-3.92 18.42-10.25 24.76-6.34 6.33-15.09 10.25-24.76 10.25-19.33 0-35.01-15.67-35.01-35.01 0 9.67-3.92 18.42-10.25 24.76-6.34 6.33-15.09 10.25-24.76 10.25-1.95 0-3.87-.16-5.73-.47-3.18-2.2-6.3-4.48-9.37-6.82-5.98-4.57-11.76-9.39-17.31-14.45-1.68-4.09-2.6-8.57-2.6-13.27v-256.87c0-95.85 77.03-173.7 172.56-175.03.83-.01 1.66-.02 2.49-.02s1.66.01 2.49.02c95.53 1.33 172.56 79.18 172.56 175.03z" fill="#dd636e"/><path d="m154.53 175.05v256.87c0 8.74 1.86 16.73 4.93 22.87-5.29-6.14-8.49-14.14-8.49-22.87 0 9.67-3.91 18.42-10.25 24.76s-15.09 10.25-24.76 10.25c-1.95 0-3.87-.16-5.73-.47-3.18-2.2-6.3-4.48-9.37-6.82-5.98-4.57-11.75-9.38-17.3-14.44l-.01-.01c-1.68-4.09-2.6-8.57-2.6-13.27v-256.87c0-95.49 76.45-173.11 171.49-175.01.72-.01 1.43-.02 2.15-.03-55.38 1.31-100.06 79.18-100.06 175.04z" fill="#da4a54"/><g><g><g><g><circle cx="129.695" cy="189.628" fill="#fff" r="47.703"/><circle cx="129.695" cy="189.628" fill="#2b4d66" r="33.731"/></g></g></g><g><g><g><circle cx="382.305" cy="189.628" fill="#fff" r="47.703"/><circle cx="382.305" cy="189.628" fill="#2b4d66" r="33.731"/></g></g></g></g><path d="m272.896 326.655 41.177-71.321c16.86-29.203-4.215-65.706-37.935-65.706h-40.274c-33.72 0-54.796 36.503-37.935 65.706l41.177 71.321c7.508 13.006 26.28 13.006 33.79 0z" fill="#ffd064"/><path d="m255.997 336.414c-6.56 0-13.14-3.25-16.89-9.75l-41.18-71.33c-16.86-29.2 4.22-65.7 37.94-65.7h13.05c-11.86 0-19.27 36.5-13.34 65.71l14.48 71.32c1.32 6.5 3.63 9.75 5.94 9.75z" fill="#ffc250"/></g></svg>