<svg id="Capa_1" enable-background="new 0 0 512 512" height="512" viewBox="0 0 512 512" width="512" xmlns="http://www.w3.org/2000/svg"><g><g><path d="m512 256c0 49.556-14.081 95.824-38.46 135.02-45.175 72.631-125.711 66.944-217.54 66.944-91.827 0-172.361 5.689-217.537-66.939-24.381-39.198-38.463-85.467-38.463-135.025 0-141.385 114.615-256 256-256s256 114.615 256 256z" fill="#78d090"/></g><path d="m473.54 391.02c-17.91 28.8-41.38 53.78-68.91 73.43-41.91 29.94-93.21-6.486-148.63-6.486s-106.73 36.426-148.63 6.486c-27.52-19.66-50.99-44.63-68.9-73.43 10.14-12.04 21.81-22.77 34.69-31.88 10.29-7.3 21.37-13.57 33.07-18.66 22.6-9.84 47.55-15.29 73.77-15.29h152c26.22 0 51.17 5.45 73.77 15.29 11.71 5.09 22.78 11.36 33.08 18.65 8.57 6.07 16.6 12.86 24.01 20.26 3.72 3.72 7.28 7.6 10.68 11.63z" fill="#98695e"/><path d="m275.6 325.19c-83.89 0-154.76 55.82-177.46 132.35-23.56-18.48-43.8-41-59.67-66.52 33.94-40.26 84.76-65.83 141.54-65.83z" fill="#845c52"/><g><path d="m431.426 233.027h-350.852c-30.693 0-55.574-24.881-55.574-55.573 0-30.692 24.881-55.574 55.574-55.574h350.853c30.692 0 55.574 24.881 55.574 55.574-.001 30.692-24.882 55.573-55.575 55.573z" fill="#845c52"/><path d="m434.224 209.471h-356.448c-17.683 0-32.017-14.335-32.017-32.017 0-17.683 14.335-32.017 32.017-32.017h356.447c17.683 0 32.017 14.335 32.017 32.017.001 17.682-14.334 32.017-32.016 32.017z" fill="#ecbe6b"/></g><path d="m405.77 340.48c-31.15 49.94-86.58 83.17-149.77 83.17s-118.62-33.23-149.77-83.17c22.6-9.84 47.55-15.29 73.77-15.29h152c26.22 0 51.17 5.45 73.77 15.29z" fill="#845c52"/><path d="m256 403.297c-97.42 0-176.394-78.974-176.394-176.393v-50.51c0-97.42 78.974-176.394 176.394-176.394 97.419 0 176.393 78.974 176.393 176.393v50.51c.001 97.42-78.973 176.394-176.393 176.394z" fill="#98695e"/><path d="m254.616 403.293c-96.79-.74-175.01-79.43-175.01-176.39v-50.51c0-96.96 78.22-175.64 175.01-176.38-58.31 1.23-105.35 79.72-105.35 176.38v50.51c0 96.66 47.04 175.16 105.35 176.39z" fill="#845c52"/><path d="m411.14 195.13c0 23.13-9.37 44.06-24.53 59.21-15.15 15.16-36.09 24.53-59.21 24.53h-142.8c-11.21 0-21.91-2.2-31.69-6.21-30.54-12.49-52.05-42.5-52.05-77.53 0-23.13 9.37-44.06 24.53-59.21 8.46-8.47 18.73-15.13 30.18-19.36 9.04-3.34 18.82-5.17 29.03-5.17h142.8c46.25 0 83.74 37.49 83.74 83.74z" fill="#f1cb86"/><path d="m149.27 226.9c0 15.83 1.26 31.17 3.64 45.76-30.54-12.49-52.05-42.5-52.05-77.53 0-23.13 9.37-44.06 24.53-59.21 8.46-8.47 18.73-15.13 30.18-19.36-4.08 18.68-6.3 38.83-6.3 59.83z" fill="#ecbe6b"/><path d="m339.74 138.728v142.8c0 46.248-37.492 83.74-83.74 83.74-46.249 0-83.74-37.492-83.74-83.74v-142.8z" fill="#f1cb86"/><g fill="#2b4d66"><circle cx="235.845" cy="255.332" r="13.782"/><circle cx="276.155" cy="255.332" r="13.782"/></g><g><g><g><g><circle cx="169.599" cy="188.269" fill="#fff" r="47.703"/><circle cx="169.599" cy="188.269" fill="#2b4d66" r="33.731"/></g></g></g><g><g><g><circle cx="342.401" cy="188.269" fill="#fff" r="47.703"/><circle cx="342.401" cy="188.269" fill="#2b4d66" r="33.731"/></g></g></g></g><path d="m284.652 313.698h-57.304c-5.548 0-10.046-4.498-10.046-10.046 0-5.548 4.498-10.046 10.046-10.046h57.304c5.548 0 10.046 4.498 10.046 10.046-.001 5.549-4.498 10.046-10.046 10.046z" fill="#2b4d66"/><path d="m278.591 338.193h-45.182c-3.899 0-7.06-3.161-7.06-7.06 0-3.899 3.161-7.06 7.06-7.06h45.182c3.899 0 7.06 3.161 7.06 7.06 0 3.899-3.161 7.06-7.06 7.06z" fill="#ecbe6b"/><g><path d="m404.63 464.45c-41.91 29.94-93.21 47.55-148.63 47.55s-106.73-17.61-148.63-47.55c32.25-23.05 70.08-38.79 111.07-44.81 12.26-1.81 24.8-2.74 37.56-2.74s25.3.93 37.56 2.74c40.99 6.02 78.82 21.76 111.07 44.81z" fill="#f1cb86"/></g><path d="m293.56 419.64c-12.1 2.63-24.67 4.01-37.56 4.01s-25.46-1.38-37.56-4.01c12.26-1.81 24.8-2.74 37.56-2.74s25.3.93 37.56 2.74z" fill="#ecbe6b"/></g></svg>