<svg id="Capa_1" enable-background="new 0 0 512 512" height="512" viewBox="0 0 512 512" width="512" xmlns="http://www.w3.org/2000/svg"><g><path d="m512 256c0 79.529-36.265 150.588-93.16 197.542-58.248 10.765-100.984 15.697-162.84 15.697-60.359 0-110.61 0-159.606-13.072-58.751-46.908-96.394-119.141-96.394-200.167 0-141.385 114.615-256 256-256s256 114.615 256 256z" fill="#365e7d"/><path d="m64.336 298.799c-2.947 0-5.939-.654-8.766-2.035-16.409-8.018-30.279-20.41-40.11-35.836-10.114-15.871-15.46-34.246-15.46-53.138v-106.091c0-54.578 44.403-98.981 98.981-98.981s98.981 44.403 98.981 98.981v35.459c0 11.046-8.954 20-20 20s-20-8.954-20-20v-35.459c0-32.522-26.458-58.981-58.981-58.981s-58.981 26.459-58.981 58.981v106.091c0 22.728 12.695 43.049 33.131 53.035 9.924 4.85 14.039 16.826 9.189 26.75-3.467 7.098-10.582 11.224-17.984 11.224z" fill="#98695e"/><g fill="#845c52"><path d="m37.853 260.928c-10.115-15.871-15.461-34.246-15.461-53.138v-106.091c0-50.792 38.459-92.765 87.785-98.344-3.676-.416-7.411-.637-11.196-.637-54.578 0-98.981 44.403-98.981 98.981v106.091c0 18.892 5.346 37.267 15.461 53.138 9.831 15.426 23.701 27.818 40.11 35.836 2.826 1.381 5.818 2.035 8.766 2.035 3.939 0 7.792-1.179 11.062-3.343-15.289-8.029-28.232-19.914-37.546-34.528z"/><path d="m180.354 137.158v-35.459c0-32.522-26.458-58.981-58.981-58.981-3.829 0-7.569.379-11.196 1.079 27.185 5.247 47.785 29.208 47.785 57.902v35.459c0 11.046 8.954 20 20 20 4.148 0 8.001-1.264 11.196-3.426-5.312-3.596-8.804-9.677-8.804-16.574z"/></g><path d="m447.664 298.799c2.947 0 5.939-.654 8.766-2.035 16.409-8.018 30.279-20.41 40.11-35.836 10.114-15.871 15.46-34.246 15.46-53.138v-106.091c0-54.578-44.403-98.981-98.981-98.981s-98.981 44.403-98.981 98.981v35.459c0 11.046 8.954 20 20 20s20-8.954 20-20v-35.459c0-32.522 26.458-58.981 58.981-58.981s58.981 26.459 58.981 58.981v106.091c0 22.728-12.695 43.049-33.131 53.035-9.924 4.85-14.039 16.826-9.189 26.75 3.467 7.098 10.582 11.224 17.984 11.224z" fill="#98695e"/><g fill="#845c52"><path d="m450.841 287.575c-4.849-9.924-.735-21.9 9.189-26.75 20.436-9.986 33.131-30.307 33.131-53.035v-106.091c0-32.522-26.458-58.981-58.981-58.981-3.613 0-7.146.344-10.581.969 27.488 5.002 48.4 29.103 48.4 58.012v106.091c0 22.728-12.695 43.049-33.131 53.035-9.924 4.85-14.039 16.826-9.189 26.75 3.468 7.098 10.583 11.224 17.984 11.224 2.947 0 5.939-.654 8.766-2.035.63-.308 1.248-.634 1.87-.954-3.111-1.918-5.735-4.709-7.458-8.235z"/><path d="m335.2 137.158v-35.459c0-51.004 38.779-93.117 88.4-98.415-3.477-.371-7.007-.566-10.581-.566-54.578 0-98.981 44.403-98.981 98.981v35.459c0 11.046 8.954 20 20 20 3.891 0 7.509-1.129 10.581-3.05-5.65-3.535-9.419-9.795-9.419-16.95z"/></g><path d="m415.6 456.16c-43.77 34.95-99.24 55.84-159.6 55.84s-115.83-20.89-159.6-55.84c25.49-93.92 87.34-160.19 159.6-160.19s134.11 66.27 159.6 160.19z" fill="#f1f1f4"/><path d="m256 295.97c-48.87 0-89.85 83.25-100.89 195.38-21.2-9.1-40.92-20.98-58.71-35.19 25.49-93.92 87.34-160.19 159.6-160.19z" fill="#d5dff4"/><path d="m421.677 221.579h-331.354c-49.884 0-90.323-40.439-90.323-90.322h512c0 49.883-40.439 90.322-90.323 90.322z" fill="#d8e2f1"/><path d="m283.567 356.02h-5.835c-5.195 0-9.407 4.212-9.407 9.407 0-5.195-4.212-9.407-9.407-9.407h-5.835c-5.195 0-9.407 4.212-9.407 9.407 0-5.195-4.212-9.407-9.407-9.407h-5.835c-5.195 0-9.407 4.212-9.407 9.407v91.487c0 6.807 5.518 12.325 12.325 12.325s12.325-5.518 12.325-12.325c0 6.807 5.518 12.325 12.325 12.325s12.325-5.518 12.325-12.325c0 6.807 5.518 12.325 12.325 12.325 6.807 0 12.325-5.518 12.325-12.325v-91.487c-.003-5.195-4.215-9.407-9.41-9.407z" fill="#d5dff4"/><path d="m207.987 89.043h-45.954c-38.099 0-68.985 30.886-68.985 68.985v125.973c0 67.056 54.36 121.416 121.416 121.416h27.894" fill="#f1f1f4"/><path d="m242.356 405.418h-27.892c-67.053 0-121.416-54.354-121.416-121.416v-125.974c0-38.098 30.883-68.981 68.981-68.981h45.956l.163 1.508c-31.192 6.615-54.594 34.311-54.594 67.473v125.974c0 55.579 37.344 102.435 88.305 116.84z" fill="#d5dff4"/><path d="m304.013 89.043h45.954c38.099 0 68.985 30.886 68.985 68.985v125.973c0 67.056-54.36 121.416-121.416 121.416h-27.894" fill="#f1f1f4"/><g><g><g><g><circle cx="151.409" cy="253.975" fill="#fff" r="36.73"/><circle cx="151.409" cy="253.975" fill="#2b4d66" r="25.972"/></g></g></g><g><g><g><circle cx="360.591" cy="253.975" fill="#fff" r="36.73"/><circle cx="360.591" cy="253.975" fill="#2b4d66" r="25.972"/></g></g></g></g><path d="m288.478 441.264h-64.957c-16.435 0-29.758-13.323-29.758-29.758v-89.983c0-21.531 17.455-38.986 38.986-38.986h46.5c21.531 0 38.986 17.455 38.986 38.986v89.983c.001 16.435-13.322 29.758-29.757 29.758z" fill="#c3d5ef"/><path d="m364.673 352.209c-.317 33.591-28.175 60.421-61.766 60.421h-93.815c-33.591 0-61.449-26.83-61.766-60.421-.197-21.166 10.394-39.88 26.616-50.96 21.551-14.739 34.045-39.512 34.045-65.622v-146.584h96.025v146.583c0 26.11 12.494 50.883 34.045 65.622 16.222 11.08 26.813 29.795 26.616 50.961z" fill="#d8e2f1"/><g fill="#c3d5ef"><path d="m236.257 412.63h-27.164c-33.591 0-61.449-26.83-61.766-60.421-.197-21.166 10.394-39.88 26.616-50.96 21.551-14.739 34.045-39.512 34.045-65.622v-146.584h27.807v146.583c0 26.11-5.261 50.883-14.328 65.622-6.83 11.08-11.286 29.795-11.2 50.96.128 33.592 11.851 60.422 25.99 60.422z"/><path d="m303.884 345.517c0 23.762-17.395 43.514-40.103 47.25v19.863h-15.553v-19.863c-22.725-3.736-40.112-23.488-40.112-47.25 0-4.293 3.479-7.781 7.772-7.781s7.781 3.487 7.781 7.781c0 17.815 14.49 32.314 32.288 32.34h.077c17.807-.026 32.288-14.524 32.288-32.34 0-4.293 3.488-7.781 7.781-7.781 4.294 0 7.781 3.487 7.781 7.781z"/></g></g></svg>