<svg id="Capa_1" enable-background="new 0 0 512 512" height="512" viewBox="0 0 512 512" width="512" xmlns="http://www.w3.org/2000/svg"><g><path d="m512 256c0 38.917-8.684 75.806-24.22 108.835-67.625 50.3-129.312 92.167-231.78 92.167s-153.705-57.297-231.78-92.167c-15.536-33.029-24.22-69.918-24.22-108.835 0-141.385 114.615-256 256-256s256 114.615 256 256z" fill="#dd636e"/><path d="m487.77 364.83c-40.9 86.96-129.31 147.17-231.77 147.17s-190.87-60.21-231.77-147.17c32.91-51.2 90.38-85.11 155.77-85.11h152c51.1 0 97.36 20.71 130.86 54.2 9.36 9.36 17.72 19.73 24.91 30.91z" fill="#845c52"/><path d="m275.6 279.72c-97.81 0-177.91 75.87-184.62 171.98-28.05-23.67-50.95-53.27-66.75-86.87 32.91-51.2 90.39-85.11 155.78-85.11z" fill="#734d45"/><g><path d="m11.329 92.984 41.96 92.993c9.829 21.783 39.553 24.757 53.504 5.354l62.206-86.524c13.95-19.404 1.664-46.633-22.115-49.012l-101.515-10.159c-25.789-2.58-44.7 23.724-34.04 47.348z" fill="#845c52"/><path d="m53.277 110.11 26.732 59.244c6.262 13.878 25.199 15.773 34.086 3.411l39.63-55.123c8.887-12.362 1.06-29.709-14.089-31.225l-64.673-6.471c-16.429-1.645-28.477 15.113-21.686 30.164z" fill="#c79c86"/><path d="m500.671 92.984-41.96 92.993c-9.829 21.783-39.553 24.757-53.504 5.354l-62.206-86.524c-13.95-19.404-1.664-46.633 22.115-49.012l101.514-10.157c25.79-2.582 44.701 23.722 34.041 47.346z" fill="#845c52"/><path d="m458.723 110.11-26.732 59.244c-6.262 13.878-25.199 15.773-34.086 3.411l-39.63-55.123c-8.887-12.362-1.06-29.709 14.089-31.225l64.673-6.471c16.429-1.645 28.477 15.113 21.686 30.164z" fill="#c79c86"/></g><path d="m417.36 173.583c-12.758-77.609-80.139-136.821-161.36-136.821-81.221 0-148.602 59.212-161.359 136.821-34.858 26.079-57.42 67.693-57.42 114.576 0 78.979 64.025 143.003 143.003 143.003h151.552c78.979 0 143.003-64.025 143.003-143.003 0-46.883-22.561-88.496-57.419-114.576z" fill="#98695e"/><path d="m202.66 431.163h-22.44c-39.48 0-75.24-16.01-101.11-41.89-25.88-25.88-41.89-61.63-41.89-101.12 0-46.88 22.56-88.5 57.42-114.57 6.38-38.8 26.42-73.01 55.01-97.52 28.27-24.23 64.92-38.98 105.01-39.3-28.06.46-53.71 15.18-73.52 39.3-20.13 24.51-34.23 58.72-38.72 97.52-24.54 26.07-40.42 67.69-40.42 114.57 0 39.49 11.27 75.24 29.48 101.12 18.22 25.88 43.38 41.89 71.18 41.89z" fill="#845c52"/><g><g><g><g><circle cx="164.806" cy="263.926" fill="#fff" r="46.228"/><circle cx="164.806" cy="263.926" fill="#2b4d66" r="32.688"/></g></g></g><g><g><g><circle cx="347.194" cy="263.926" fill="#fff" r="46.228"/><circle cx="347.194" cy="263.926" fill="#2b4d66" r="32.688"/></g></g></g></g><g><path d="m399.26 450.159c-.02.083-.04.166-.06.249-1.859 7.743-9.788 12.433-17.448 10.255-50.778-14.436-92.739-54.447-108.635-108.587 19.021-4.567 38.043-9.133 57.064-13.7 1.091 36.974 22.726 75.287 61.974 96.089 5.671 3.006 8.603 9.454 7.105 15.694z" fill="#ebebeb"/><path d="m395.872 456.663c-3.46 3.75-8.85 5.5-14.12 4-50.77-14.43-92.74-54.44-108.63-108.58 19.02-4.57 38.04-9.14 57.06-13.7.02.68.05 1.37.09 2.05-12.69 3.05-25.39 6.09-38.08 9.14 15.38 52.37 55.14 91.51 103.68 107.09z" fill="#d5dff4"/><path d="m112.74 450.159c.02.083.04.166.06.249 1.859 7.743 9.788 12.433 17.448 10.255 50.778-14.436 92.739-54.447 108.635-108.587-19.021-4.567-38.043-9.133-57.064-13.7-1.091 36.974-22.726 75.287-61.974 96.089-5.671 3.006-8.603 9.454-7.105 15.694z" fill="#ebebeb"/><path d="m181.825 338.375c9.29 2.23 18.59 4.46 27.88 6.69-7.39 35.37-43.85 78.18-79.39 97.01-5.67 3.01-8.6 9.45-7.1 15.69.02.09.04.17.06.25.26 1.07.63 2.08 1.1 3.02-5.47-.83-10.19-4.89-11.57-10.63-.02-.08-.04-.17-.06-.25-1.5-6.24 1.43-12.69 7.1-15.69 39.25-20.8 60.89-59.12 61.98-96.09z" fill="#d5dff4"/></g><path d="m271.879 399.782h-31.757c-36.951 0-66.905-29.955-66.905-66.905 0-36.951 29.955-66.905 66.905-66.905h31.757c36.951 0 66.905 29.955 66.905 66.905 0 36.95-29.955 66.905-66.905 66.905z" fill="#c79c86"/><path d="m273.766 399.757c-.63.02-1.26.03-1.89.03h-31.76c-36.95 0-66.9-29.95-66.9-66.91 0-18.48 7.49-35.2 19.59-47.31 12.11-12.1 28.83-19.59 47.31-19.59h31.76c.63 0 1.26.01 1.89.03-17.73.48-33.74 7.87-45.43 19.56-12.11 12.11-19.6 28.83-19.6 47.31 0 36.33 28.94 65.89 65.03 66.88z" fill="#ba896f"/><g fill="#2b4d66"><circle cx="214.245" cy="332.882" r="22.727"/><circle cx="297.755" cy="332.882" r="22.727"/></g></g></svg>