<svg id="Capa_1" enable-background="new 0 0 512.008 512.008" height="512" viewBox="0 0 512.008 512.008" width="512" xmlns="http://www.w3.org/2000/svg"><g><path d="m512.004 256.008c0 16.18-1.5 32.01-4.38 47.36-10.9 58.32-41.58 109.67-84.81 146.83-44.8 38.52-103.09 25.03-166.81 25.03s-122.01 13.49-166.81-25.03c-43.23-37.16-73.91-88.5-84.81-146.82v-.01c-2.88-15.35-4.38-31.18-4.38-47.36 0-2.92.05-5.84.15-8.74.61-18.38 3.17-36.26 7.46-53.46v-.01c3.76-15.06 8.85-29.58 15.15-43.45 5.93-13.09 12.94-25.58 20.9-37.38 9.26-13.72 19.82-26.5 31.5-38.16 8.76-8.74 18.16-16.86 28.11-24.27 12.9-9.6 26.74-18.02 41.35-25.08 8.54-4.15 17.34-7.82 26.38-10.99 4.02-1.42 8.08-2.74 12.18-3.95 8.16-2.42 16.49-4.44 24.96-6.04 15.33-2.9 31.14-4.43 47.3-4.47h.56c16.31 0 32.26 1.53 47.72 4.44 12.71 2.4 25.09 5.73 37.06 9.94 9.11 3.19 17.99 6.89 26.6 11.07 14.61 7.06 28.45 15.48 41.35 25.08 9.95 7.41 19.35 15.53 28.11 24.27 11.68 11.66 22.24 24.44 31.5 38.16 7.96 11.8 14.97 24.31 20.9 37.4 6.3 13.86 11.39 28.39 15.15 43.44 4.29 17.2 6.85 35.08 7.46 53.46.1 2.9.15 5.82.15 8.74z" fill="#dd636e"/><path d="m511.854 247.268c-.28-.18-.57-.36-.87-.53-3.99-2.31-8.36-3.4-12.67-3.4-5.89 0-11.66 2.04-16.25 5.85l22.33-55.38 3.62-8.99c5.25-13.01-1.04-27.82-14.06-33.07-1.55-.62-3.13-1.08-4.71-1.38-1.6-.32-3.2-.47-4.79-.47-10.05 0-19.57 6.02-23.57 15.92l-2.68 6.65c-1.52 3.78-7.2 1.84-6.09-2.08l20.84-73.736c3.332-11.789-2.225-24.277-13.213-29.694-14.239-7.02-31.357.594-35.678 15.87l-10.538 37.251c-1.91 6.78-11.99 4.89-11.32-2.13l6.53-67.41.71-7.38c1.35-13.97-9.03-25.39-23.07-25.39-7.02 0-13.68 2.85-18.75 7.46-.08.07-.16.15-.24.23-4.94 4.58-8.33 10.83-8.99 17.7l-3.81 39.36c-.68 7.03-11.1 6.53-11.1-.54v-55.99c0-4.14-.97-8.09-2.7-11.6-4.09-8.33-12.45-14.2-22.26-14.38-5.5-.09-10.61 1.56-14.8 4.44-1.3.89-2.5 1.9-3.61 3.01-4.61 4.6-7.45 10.94-7.45 17.96v45.089c0 2.976-2.206 5.61-5.172 5.85-1.719.139-3.308-.511-4.428-1.63-1.02-1.02-1.65-2.42-1.65-3.98v-44.77c0-14.08-11.39-25.95-25.41-25.97h-.56c-13.77.3-24.85 11.55-24.85 25.41v45.089c0 2.976-2.206 5.61-5.172 5.85-1.719.139-3.308-.511-4.428-1.63-1.02-1.02-1.65-2.42-1.65-3.98v-44.759c0-8.84-4.42-16.8-11.2-21.51-3.92-2.74-8.64-4.38-13.76-4.47-9.762-.255-19.234 5.613-23.38 14.46-1.59 3.32-2.48 7.03-2.48 10.95v171.93l-11.1-114.83-3.81-39.36c-.66-6.88-4.05-13.13-8.99-17.7-5.1-4.74-11.86-7.69-18.99-7.69-13.22 0-23.18 10.12-23.18 22.96 0 .8.03 1.62.11 2.43l.71 7.38 6.54 67.58 6.19 63.96-17.52-62-8.06-28.49c-2.25-7.99-8.08-13.99-15.26-16.78-4.97-1.93-10.57-2.32-16.09-.77-12.15 0-20.18 8-20.18 18.79 0 2.11.31 4.33.95 6.62l3.82 13.52 16.23 57.42 16.26 57.51-22.34-55.41c0-.01-.01-.01-.01-.02l-2.68-6.65c-4.62-11.47-16.67-17.72-28.36-15.47-1.59.31-3.16.77-4.71 1.4-9.9 4-15.91 13.52-15.91 23.57 0 3.17.59 6.38 1.85 9.5l3.62 8.98v.01l22.33 55.38c-7.94-6.59-19.46-7.91-28.92-2.45-.3.17-.59.35-.87.53-.1 2.9-.15 5.82-.15 8.74 0 16.18 1.5 32.01 4.38 47.36v.01l83.47 144.56c.44.76.88 1.51 1.34 2.26 44.8 38.52 103.09 61.81 166.81 61.81s122.01-23.29 166.81-61.81c.46-.75.9-1.5 1.34-2.26l4.67-8.08 78.8-136.49c2.88-15.35 4.38-31.18 4.38-47.36-.001-2.92-.051-5.84-.151-8.74z" fill="#365e7d"/><path d="m398.654 435.228-141.61-115.94c-48.92-40.05-77.29-99.94-77.29-163.17v-98.98c0-19.65.25-36.43 3.43-46.62 1.99-6.39 5.15-10.2 10.13-10.5-9.393.14-18.313 5.948-22.31 14.45-1.59 3.32-2.48 7.03-2.48 10.95v56.56c0 7.07-10.42 7.57-11.1.54l-3.81-39.36c-.66-6.88-4.05-13.13-8.99-17.7-5.1-4.74-11.86-7.69-18.99-7.69-13.22 0-23.18 10.12-23.18 22.96 0 .8.03 1.62.11 2.43l.71 7.38 6.53 67.41c.01.06.01.12.01.17.49 6.88-9.44 8.68-11.33 1.96l-10.538-37.251c-4.322-15.276-21.439-22.89-35.678-15.87-10.988 5.417-16.544 17.905-13.213 29.694l20.84 73.736c1.11 3.91-4.55 5.85-6.08 2.1 0-.01-.01-.01-.01-.02l-2.68-6.65c-4.62-11.47-16.67-17.72-28.36-15.47-1.59.31-3.16.77-4.71 1.4-9.9 4-15.91 13.52-15.91 23.57 0 3.17.59 6.38 1.85 9.5l3.62 8.98v.01l22.33 55.38c-7.94-6.59-19.46-7.91-28.92-2.45-.3.17-.59.35-.87.53-.1 2.9-.15 5.82-.15 8.74 0 16.18 1.5 32.01 4.38 47.36v.01l83.47 144.56c.44.76.88 1.51 1.34 2.26 44.8 38.52 103.09 61.81 166.81 61.81s122.01-23.29 166.81-61.81c.46-.75.9-1.5 1.34-2.26l4.67-8.08c-17.071 6.041-30.171-4.629-30.171-4.629z" fill="#2b4d66"/><g><path d="m146.31 277.297-59.821 59.821-33.79-33.79c-16.519-16.519-16.519-43.303 0-59.821 8.259-8.259 19.085-12.386 29.911-12.392 10.826.006 21.651 4.133 29.911 12.392z" fill="#f1cb86"/><path d="m131.882 291.725-30.971 30.971-33.79-33.79c-8.536-8.536-8.536-22.429.006-30.971 8.536-8.536 22.429-8.536 30.965 0z" fill="#ecbe6b"/><path d="m365.698 277.297 59.821 59.821 33.79-33.79c16.519-16.519 16.519-43.303 0-59.821-8.259-8.259-19.085-12.386-29.911-12.392-10.826.006-21.651 4.133-29.911 12.392z" fill="#f1cb86"/><path d="m380.126 291.725 30.971 30.971 33.79-33.79c8.536-8.536 8.536-22.429-.006-30.971-8.536-8.536-22.429-8.536-30.965 0z" fill="#ecbe6b"/></g><path d="m307.115 244.944h-102.222c-68.733 0-124.453 55.719-124.453 124.453 0 68.733 55.719 124.453 124.453 124.453h102.223c68.733 0 124.453-55.719 124.453-124.453-.001-68.733-55.72-124.453-124.454-124.453z" fill="#f1cb86"/><path d="m178.84 457.402c22.518 22.518 53.634 36.448 88.005 36.448h-61.952c-34.371 0-65.487-13.93-88.005-36.448s-36.448-53.634-36.448-88.005c0-68.732 55.711-124.453 124.453-124.453h61.952c-68.742 0-124.453 55.721-124.453 124.453 0 34.371 13.93 65.487 36.448 88.005z" fill="#ecbe6b"/><g><g><g><g><circle cx="171.448" cy="342.478" fill="#fff" r="42.863"/><circle cx="171.448" cy="342.478" fill="#2b4d66" r="30.309"/></g></g></g><g><g><g><circle cx="340.56" cy="342.478" fill="#fff" r="42.863"/><circle cx="340.56" cy="342.478" fill="#2b4d66" r="30.309"/></g></g></g></g><g><path d="m269.797 445.037h-27.586c-20.887 0-37.819-16.932-37.819-37.819 0-20.887 16.932-37.819 37.819-37.819h27.586c20.887 0 37.819 16.932 37.819 37.819 0 20.887-16.932 37.819-37.819 37.819z" fill="#365e7d"/><path d="m267.085 445.039h-24.872c-20.893 0-37.821-16.928-37.821-37.821 0-10.439 4.228-19.895 11.077-26.743 6.835-6.835 16.29-11.077 26.743-11.077h24.872c-10.44 0-19.895 4.242-26.744 11.077-6.835 6.849-11.077 16.304-11.077 26.743.001 20.893 16.943 37.821 37.822 37.821z" fill="#2b4d66"/></g></g></svg>