<svg id="Capa_1" enable-background="new 0 0 512 512" height="512" viewBox="0 0 512 512" width="512" xmlns="http://www.w3.org/2000/svg"><g><path d="m512 256c0 38.917-8.684 75.806-24.22 108.835-40.906 86.963-129.312 73.999-231.78 73.999-106.039 0-197.019 8.695-235.882-83.187-12.955-30.628-20.118-64.301-20.118-99.647 0-141.385 114.615-256 256-256s256 114.615 256 256z" fill="#78d090"/><path d="m487.77 364.83c-40.9 86.96-129.31 147.17-231.77 147.17s-190.87-60.21-231.77-147.17c12.88-20.04 29.52-37.43 48.93-51.16 30.18-21.39 67.04-33.95 106.84-33.95h152c39.8 0 76.66 12.56 106.85 33.94 8.57 6.07 16.6 12.86 24.01 20.26 9.36 9.36 17.72 19.73 24.91 30.91z" fill="#f1cb86"/><path d="m275.6 279.72c-97.81 0-177.91 75.87-184.62 171.98-28.05-23.67-50.95-53.27-66.75-86.87 32.91-51.2 90.39-85.11 155.78-85.11z" fill="#ecbe6b"/><path d="m501.842 186.913c0-93.822-76.058-169.88-169.88-169.88h-151.924c-93.822 0-169.88 76.058-169.88 169.88v177.678c0 16.972 13.758 30.73 30.73 30.73 13.761 0 25.407-9.046 29.322-21.515.469.398.935.798 1.408 1.19v33.948c0 16.972 13.758 30.73 30.73 30.73 16.972 0 30.73-13.758 30.73-30.73v33.646c0 16.972 13.758 30.73 30.73 30.73 16.972 0 30.73-13.758 30.73-30.73v13.095c0 16.972 13.758 30.73 30.73 30.73 15.566 0 28.42-11.576 30.444-26.586 2.025 15.011 14.879 26.586 30.444 26.586 16.972 0 30.73-13.758 30.73-30.73v-13.095c0 16.972 13.759 30.73 30.73 30.73 16.972 0 30.73-13.758 30.73-30.73v-33.646c0 16.972 13.758 30.73 30.73 30.73 16.972 0 30.73-13.758 30.73-30.73v-33.473c.516-.425 1.024-.859 1.535-1.289 4.03 12.273 15.574 21.139 29.195 21.139 16.972 0 30.73-13.758 30.73-30.73z" fill="#e27d47"/><path d="m180.038 17.033h32.93c-53.14 0-96.22 76.06-96.22 169.88v249.18c-4.29 2.29-9.19 3.58-14.4 3.58-16.97 0-30.73-13.75-30.73-30.73v-33.94c-.47-.4-.94-.8-1.41-1.19-1.95 6.23-5.85 11.61-10.97 15.43s-11.47 6.08-18.35 6.08c-16.97 0-30.73-13.76-30.73-30.73v-177.68c0-93.82 76.06-169.88 169.88-169.88z" fill="#dd6938"/><g><path d="m127.247 72.889-70.216 70.216-39.662-39.662c-19.389-19.389-19.389-50.827 0-70.216 9.694-9.694 22.401-14.538 35.108-14.545 12.707.007 25.413 4.851 35.108 14.545z" fill="#f1cb86"/><path d="m110.311 89.824-36.352 36.352-39.662-39.661c-10.02-10.02-10.02-26.326.007-36.352 10.02-10.02 26.326-10.02 36.345 0z" fill="#ecbe6b"/><path d="m384.754 72.889 70.216 70.216 39.662-39.662c19.389-19.389 19.389-50.827 0-70.216-9.694-9.694-22.401-14.538-35.108-14.545-12.707.007-25.413 4.851-35.108 14.545z" fill="#f1cb86"/><path d="m401.689 89.824 36.352 36.352 39.662-39.662c10.02-10.02 10.02-26.326-.007-36.352-10.02-10.02-26.326-10.02-36.345 0z" fill="#ecbe6b"/></g><path d="m418.24 211.262c0 42.83-34.72 77.55-77.55 77.55h-169.38c-20.32 0-38.83-7.82-52.66-20.61-.74-.69-1.47-1.39-2.18-2.1-14.03-14.04-22.71-33.43-22.71-54.84 0-31.95 19.32-59.39 46.92-71.27 9.4-4.05 19.75-6.29 30.63-6.29h169.38c21.41 0 40.8 8.68 54.84 22.72 14.03 14.03 22.71 33.43 22.71 54.84z" fill="#f1cb86"/><path d="m189.66 268.202c13.83 12.79 32.34 20.61 52.66 20.61h-71.01c-20.32 0-38.83-7.82-52.66-20.61-.74-.69-1.47-1.39-2.18-2.1-14.03-14.04-22.71-33.43-22.71-54.84 0-31.95 19.32-59.39 46.92-71.27 9.4-4.05 19.75-6.29 30.63-6.29h71.01c-10.88 0-21.23 2.24-30.63 6.29-27.6 11.88-46.92 39.32-46.92 71.27 0 21.41 8.68 40.8 22.71 54.84.71.71 1.44 1.41 2.18 2.1z" fill="#ecbe6b"/><g><g><g><g><circle cx="161.26" cy="202.71" fill="#fff" r="48.025"/><circle cx="161.26" cy="202.71" fill="#2b4d66" r="33.959"/></g></g></g><g><g><g><circle cx="350.74" cy="202.71" fill="#fff" r="48.025"/><circle cx="350.74" cy="202.71" fill="#2b4d66" r="33.959"/></g></g></g></g><path d="m365.7 304.63c0 4.38-.32 8.69-.94 12.9-1.05 7.29-3.01 14.3-5.74 20.9-4.49 10.89-11.09 20.69-19.29 28.89-7.95 7.94-17.39 14.39-27.86 18.86-6.95 2.98-14.36 5.09-22.09 6.2-4.16.6-8.41.91-12.74.91h-42.08c-4.33 0-8.58-.31-12.74-.92-7.73-1.1-15.14-3.21-22.09-6.19-21.3-9.11-38.31-26.31-47.15-47.75-2.73-6.6-4.69-13.61-5.74-20.9-.62-4.21-.94-8.52-.94-12.9 0-24.48 9.92-46.64 25.97-62.68 16.05-16.05 38.21-25.97 62.69-25.97h42.08c48.96 0 88.66 39.69 88.66 88.65z" fill="#ebebeb"/><path d="m279.542 393.257c-.835.026-1.67.04-2.504.04h-42.085c-48.962 0-88.649-39.687-88.649-88.662 0-24.488 9.925-46.643 25.959-62.69 16.047-16.034 38.203-25.959 62.69-25.959h42.085c.835 0 1.67.013 2.504.04-23.494.636-44.709 10.429-60.199 25.919-16.047 16.047-25.972 38.202-25.972 62.69 0 48.14 38.348 87.31 86.171 88.622z" fill="#d5dff4"/><path d="m311.87 386.18c-6.95 2.98-14.36 5.09-22.09 6.2l-33.78-33.78-33.78 33.77c-7.73-1.1-15.14-3.21-22.09-6.19l45.87-45.87v-105.99h20v105.99z" fill="#d5dff4"/><g><path d="m269.191 270.483h-26.382c-19.975 0-36.168-16.193-36.168-36.168 0-19.975 16.193-36.168 36.168-36.168h26.382c19.975 0 36.168 16.193 36.168 36.168 0 19.975-16.193 36.168-36.168 36.168z" fill="#365e7d"/><path d="m266.597 270.485h-23.786c-19.981 0-36.17-16.189-36.17-36.17 0-9.984 4.044-19.026 10.594-25.576 6.536-6.537 15.579-10.594 25.576-10.594h23.786c-9.984 0-19.026 4.057-25.576 10.594-6.536 6.55-10.594 15.592-10.594 25.576 0 19.981 16.202 36.17 36.17 36.17z" fill="#2b4d66"/></g></g></svg>