<svg id="Capa_1" enable-background="new 0 0 512 512" height="512" viewBox="0 0 512 512" width="512" xmlns="http://www.w3.org/2000/svg"><g><path d="m512 256c0 64.59-23.92 123.59-63.39 168.63-46.92 53.55-115.82 42.661-192.61 42.661s-145.69 10.889-192.61-42.661c-39.47-45.04-63.39-104.04-63.39-168.63 0-141.38 114.62-256 256-256s256 114.62 256 256z" fill="#365e7d"/><g fill="#98695e"><path d="m159.288.013c-14.466 0-26.193 11.727-26.193 26.193v60.604h52.386v-60.604c0-14.466-11.727-26.193-26.193-26.193z"/><path d="m352.712.013c-14.466 0-26.193 11.727-26.193 26.193v60.604h52.386v-60.604c0-14.466-11.727-26.193-26.193-26.193z"/></g><path d="m448.61 424.63c-46.92 53.55-115.82 87.37-192.61 87.37-51.18 0-98.85-15.02-138.85-40.9-20.02-12.94-38.11-28.61-53.76-46.47 11.61-15.39 25.99-28.56 42.39-38.8h.01c24.11-15.07 52.61-23.78 83.15-23.78h134.12c30.54 0 59.04 8.71 83.15 23.78h.01c16.4 10.24 30.78 23.41 42.39 38.8z" fill="#98695e"/><path d="m238.73 363.57s-88.3 17.25-121.58 107.53c-20.02-12.94-38.11-28.61-53.76-46.47 28.69-38.01 74.25-62.58 125.55-62.58h46.37z" fill="#845c52"/><path d="m406.21 385.83c-24.12 15.06-52.62 23.76-83.15 23.76h-134.12c-30.53 0-59.03-8.7-83.15-23.76 24.11-15.07 52.61-23.78 83.15-23.78h134.12c30.54 0 59.04 8.71 83.15 23.78z" fill="#845c52"/><path d="m323.061 39.685h-134.122c-86.835 0-157.228 70.393-157.228 157.228v25.44c0 86.835 70.393 157.228 157.228 157.228h134.121c86.835 0 157.228-70.393 157.228-157.228v-25.44c0-86.835-70.393-157.228-157.227-157.228z" fill="#98695e"/><path d="m261.342 379.583h-72.4c-86.83 0-157.23-70.39-157.23-157.23v-25.44c0-86.83 70.4-157.23 157.23-157.23h72.4c-86.84 0-157.23 70.4-157.23 157.23v25.44c0 86.84 70.389 157.23 157.23 157.23z" fill="#845c52"/><g><path d="m339.933 97.549c-33.98 0-64.253 15.797-83.933 40.429-19.68-24.632-49.953-40.429-83.933-40.429-59.316 0-107.401 48.085-107.401 107.401s48.085 107.401 107.401 107.401h167.866c59.316 0 107.401-48.085 107.401-107.401s-48.085-107.401-107.401-107.401z" fill="#f1cb86"/><path d="m201.624 312.346h-29.549c-59.323 0-107.409-48.086-107.409-107.396s48.086-107.397 107.409-107.397c6.108 0 12.103.514 17.935 1.505-32.897 8.516-57.969 52.688-57.969 105.891 0 59.312 31.154 107.397 69.583 107.397z" fill="#ecbe6b"/></g><g><g><g><g><circle cx="161.26" cy="202.71" fill="#fff" r="48.025"/><circle cx="161.26" cy="202.71" fill="#2b4d66" r="33.959"/></g></g></g><g><g><g><circle cx="350.74" cy="202.71" fill="#fff" r="48.025"/><circle cx="350.74" cy="202.71" fill="#2b4d66" r="33.959"/></g></g></g></g><path d="m280.127 289.775 28.392-49.177c10.723-18.573-2.681-41.79-24.127-41.79h-56.785c-21.447 0-34.851 23.217-24.127 41.79l28.392 49.177c10.724 18.574 37.532 18.574 48.255 0z" fill="#845c52"/><path d="m256 303.709c-9.38 0-18.77-4.65-24.13-13.93l-28.39-49.18c-10.72-18.57 2.68-41.79 24.13-41.79h14.62c-10.4 0-16.91 23.22-11.7 41.79l13.77 49.18c2.6 9.28 7.15 13.93 11.7 13.93z" fill="#8b5e5e"/></g></svg>