<svg id="Capa_1" enable-background="new 0 0 512 512" height="512" viewBox="0 0 512 512" width="512" xmlns="http://www.w3.org/2000/svg"><g><path d="m512 256c0 55.52-17.68 106.9-47.71 148.85-46.43-64.87-122.43-107.15-208.29-107.15s-161.86 42.28-208.29 107.15c-30.03-41.95-47.71-93.33-47.71-148.85 0-141.38 114.62-256 256-256s256 114.62 256 256z" fill="#dd636e"/><path d="m464.29 404.85c-40.07 55.98-102.15 95.13-173.59 104.82-11.35 1.54-22.93 2.33-34.7 2.33-3.32 0-6.62-.06-9.91-.2-8.37-.31-16.64-1.02-24.79-2.13-71.44-9.69-133.52-48.84-173.59-104.82 15.51-21.67 34.31-40.81 55.69-56.7 14.81-11.02 30.86-20.48 47.9-28.12 31.96-14.35 67.4-22.33 104.7-22.33 57.18 0 109.99 18.75 152.6 50.45 21.38 15.89 40.18 35.03 55.69 56.7z" fill="#b7c8ea"/><path d="m133.84 133.18v267.75c0 24.89-13.59 46.61-33.75 58.13-60.86-46.8-100.09-120.35-100.09-203.06v-122.82c0-36.96 29.96-66.92 66.92-66.92 5.27 0 10.39.61 15.3 1.76 12.34 2.88 23.36 9.18 32.02 17.84 12.11 12.11 19.6 28.84 19.6 47.32z" fill="#d8e2f1"/><path d="m512 133.18v122.82c0 82.71-39.23 156.26-100.09 203.06-20.16-11.52-33.75-33.24-33.75-58.13v-267.75c0-31.69 22.03-58.24 51.62-65.16 4.91-1.15 10.03-1.76 15.3-1.76 18.48 0 35.21 7.49 47.32 19.6s19.6 28.84 19.6 47.32z" fill="#c3d5ef"/><g fill="#b7c8ea"><path d="m465.04 201.8v198.32c0 1.36-.08 2.69-.24 4.01-6.99 9.85-14.67 19.18-22.97 27.93-3.26 1.06-6.74 1.63-10.35 1.63-18.54 0-33.56-15.03-33.56-33.57v-198.32c0-18.54 15.02-33.57 33.56-33.57 9.27 0 17.66 3.76 23.73 9.83 6.07 6.08 9.83 14.47 9.83 23.74z"/><path d="m114.08 201.8v198.32c0 18.54-15.02 33.57-33.56 33.57-3.61 0-7.09-.57-10.35-1.63-8.3-8.75-15.98-18.08-22.97-27.93-.16-1.32-.24-2.65-.24-4.01v-198.32c0-18.54 15.02-33.57 33.56-33.57 9.27 0 17.66 3.76 23.73 9.83 6.07 6.08 9.83 14.47 9.83 23.74z"/></g><g><g><path d="m131.223 457.245c-.149-.006-.297-.012-.446-.017-13.877-.541-24.599-12.504-23.484-26.347 7.39-91.766 61.527-177.166 148.708-222.801 14.291 30.977 28.583 61.954 42.874 92.932-62.867 14.464-121.023 64.521-143.231 138.736-3.208 10.721-13.237 17.933-24.421 17.497z" fill="#ebebeb"/><path d="m118.945 453.667c-7.593-4.64-12.422-13.263-11.652-22.787 7.382-91.751 61.514-177.166 148.698-222.79 14.297 30.974 28.593 61.948 42.873 92.925-1.156.266-2.326.552-3.476.852-9.54-20.665-19.067-41.351-28.607-62.016-84.33 44.149-137.727 125.488-147.836 213.816z" fill="#d5dff4"/></g><g><path d="m380.778 457.249c.149-.006.297-.012.446-.017 13.877-.541 24.599-12.504 23.484-26.347-7.39-91.766-61.527-177.166-148.708-222.801-14.291 30.977-28.583 61.954-42.874 92.932 62.867 14.464 121.023 64.521 143.231 138.736 3.208 10.721 13.237 17.933 24.421 17.497z" fill="#ebebeb"/></g><g><path d="m243.727 288.838c62.858 14.465 121.021 64.525 143.229 138.736 2.293 7.67 8.075 13.544 15.275 16.104-3.858 7.725-11.721 13.194-21.002 13.562-.156.009-.304.009-.451.009-11.178.442-21.204-6.767-24.418-17.494-22.208-74.211-80.37-124.271-143.229-138.736 14.29-30.973 28.579-61.947 42.86-92.929 6.786 3.545 13.369 7.347 19.741 11.362-10.662 23.129-21.334 46.267-32.005 69.386z" fill="#d5dff4"/></g></g><path d="m467.12 219.9v16.69c0 37.44-15.18 71.34-39.72 95.87-5.77 5.77-12.07 11.03-18.8 15.69-21.89 15.15-48.45 24.03-77.08 24.03-22.54 0-40.82 18.27-40.82 40.82v96.67c-11.35 1.54-22.93 2.33-34.7 2.33s-23.35-.79-34.7-2.33v-96.67c0-11.28-4.57-21.48-11.96-28.87-7.38-7.38-17.59-11.95-28.86-11.95-28.63 0-55.19-8.88-77.08-24.03-35.36-24.47-58.52-65.31-58.52-111.56v-16.69c0-74.88 60.71-135.59 135.6-135.59h151.04c74.89 0 135.6 60.71 135.6 135.59z" fill="#d8e2f1"/><path d="m246.09 413v98.8c-8.37-.31-16.64-1.02-24.79-2.13v-96.67c0-11.28-4.57-21.48-11.95-28.87-7.39-7.38-17.59-11.95-28.87-11.95-28.63 0-55.19-8.88-77.08-24.03-35.35-24.47-58.51-65.31-58.51-111.56v-16.69c0-74.88 60.71-135.59 135.59-135.59h32.17c-42.98 0-77.83 60.71-77.83 135.59v16.69c0 31.47 6.15 60.44 16.48 83.44 14.25 31.74 36.44 52.15 61.36 52.15 10.96 0 19.32 4.57 24.94 11.95 5.61 7.39 8.49 17.59 8.49 28.87z" fill="#c3d5ef"/><g><g><g><g><circle cx="131.636" cy="281.692" fill="#fff" r="37.279"/><circle cx="131.636" cy="281.692" fill="#2b4d66" r="26.36"/></g></g></g><g><g><g><circle cx="380.364" cy="281.692" fill="#fff" r="37.279"/><circle cx="380.364" cy="281.692" fill="#2b4d66" r="26.36"/></g></g></g></g><g fill="#c3d5ef"><path d="m269.956 425.421h-27.912c-5.43 0-9.833-4.402-9.833-9.833 0-5.43 4.402-9.833 9.833-9.833h27.912c5.43 0 9.833 4.402 9.833 9.833 0 5.431-4.403 9.833-9.833 9.833z"/><path d="m269.956 461.624h-27.912c-5.43 0-9.833-4.402-9.833-9.833 0-5.43 4.402-9.833 9.833-9.833h27.912c5.43 0 9.833 4.402 9.833 9.833 0 5.431-4.403 9.833-9.833 9.833z"/><path d="m269.956 497.826h-27.912c-5.43 0-9.833-4.402-9.833-9.833 0-5.43 4.402-9.833 9.833-9.833h27.912c5.43 0 9.833 4.402 9.833 9.833 0 5.431-4.403 9.833-9.833 9.833z"/></g></g></svg>