<svg id="Capa_1" enable-background="new 0 0 512 512" height="512" viewBox="0 0 512 512" width="512" xmlns="http://www.w3.org/2000/svg"><g><circle cx="256" cy="256" fill="#78d090" r="256"/><g><path d="m435.9 438.13c-46.24 45.67-109.78 73.87-179.9 73.87s-133.66-28.2-179.9-73.87c5.19-6.75 10.95-13.04 17.2-18.8.74-.69 1.49-1.36 2.25-2.03 26.38-23.38 61.07-37.56 99.08-37.56h122.74c38.01 0 72.7 14.18 99.08 37.56.76.67 1.51 1.35 2.25 2.04 1.48 1.35 2.94 2.75 4.36 4.17 4.59 4.59 8.87 9.47 12.84 14.62z" fill="#c3d5ef"/><path d="m271.83 379.74c-65.08 0-120.45 41.59-140.96 99.64-20.09-11.28-38.49-25.18-54.76-41.24 27.32-35.51 70.25-58.4 118.52-58.4z" fill="#b7c8ea"/></g><g><path d="m480.801 14.332c-19.109-19.109-50.09-19.109-69.198 0l-140.853 140.851 69.198 69.198 140.853-140.851c19.108-19.109 19.108-50.09 0-69.198z" fill="#d8e2f1"/><path d="m308.058 155.183 97.325-97.325c8.792-8.792 23.099-8.793 31.891 0s8.792 23.099 0 31.891l-97.325 97.325z" fill="#c3d5ef"/></g><g><path d="m31.199 14.332c19.109-19.109 50.09-19.109 69.198 0l140.853 140.851-69.198 69.198-140.853-140.851c-19.108-19.109-19.108-50.09 0-69.198z" fill="#d8e2f1"/><path d="m203.942 155.183-97.325-97.325c-8.792-8.792-23.099-8.793-31.891 0s-8.792 23.099 0 31.891l97.325 97.325z" fill="#c3d5ef"/></g><path d="m416.45 417.3c-23.71 21.49-55.16 34.57-89.67 34.57h-141.56c-34.51 0-65.96-13.08-89.67-34.57 26.38-23.38 61.07-37.56 99.08-37.56h122.74c38.01 0 72.7 14.18 99.08 37.56z" fill="#b7c8ea"/><path d="m406.727 188.952c-11.917-72.495-74.857-127.806-150.727-127.806-75.869 0-138.81 55.31-150.727 127.806-32.561 24.361-53.636 63.233-53.636 107.027 0 73.775 59.806 133.581 133.581 133.581h141.566c73.775 0 133.581-59.806 133.581-133.581-.001-43.794-21.076-82.666-53.638-107.027z" fill="#d8e2f1"/><path d="m206.175 429.56h-20.961c-36.879 0-70.282-14.955-94.448-39.13-24.175-24.175-39.13-57.569-39.13-94.457 0-43.791 21.074-82.669 53.637-107.021 5.96-36.243 24.679-68.199 51.385-91.094 26.407-22.633 60.642-36.412 98.091-36.71-26.211.43-50.171 14.18-68.676 36.71-18.804 22.895-31.975 54.851-36.169 91.094-22.923 24.352-37.757 63.23-37.757 107.021 0 36.888 10.527 70.282 27.538 94.457 17.02 24.175 40.522 39.13 66.49 39.13z" fill="#c3d5ef"/><circle cx="256" cy="318.392" fill="#dd636e" r="54.511"/><g><g><g><g><circle cx="170.814" cy="220.819" fill="#fff" r="43.182"/><circle cx="170.814" cy="220.819" fill="#2b4d66" r="30.534"/></g></g></g><g><g><g><circle cx="341.186" cy="220.819" fill="#fff" r="43.182"/><circle cx="341.186" cy="220.819" fill="#2b4d66" r="30.534"/></g></g></g></g><path d="m304.319 240.661c-19.562 0-36.989 9.094-48.319 23.274-11.329-14.18-28.757-23.274-48.318-23.274-34.147 0-61.829 27.682-61.829 61.829s27.682 61.829 61.829 61.829c19.561 0 36.989-9.094 48.318-23.274 11.33 14.18 28.757 23.274 48.319 23.274 34.147 0 61.829-27.682 61.829-61.829s-27.682-61.829-61.829-61.829z" fill="#ebebeb"/><path d="m216.244 363.729c-2.803.395-5.662.592-8.568.592-34.146 0-61.824-27.686-61.824-61.832s27.678-61.832 61.824-61.832c2.906 0 5.765.197 8.568.592-21.045 4.162-37.241 30-37.241 61.239s16.196 57.08 37.241 61.241z" fill="#d5dff4"/><g><path d="m267.732 296.685h-23.465c-17.766 0-32.169-14.402-32.169-32.169 0-17.766 14.402-32.169 32.169-32.169h23.465c17.766 0 32.169 14.403 32.169 32.169 0 17.767-14.402 32.169-32.169 32.169z" fill="#365e7d"/><path d="m265.425 296.687h-21.156c-17.772 0-32.17-14.399-32.17-32.171 0-8.88 3.597-16.922 9.422-22.748 5.814-5.814 13.856-9.422 22.748-9.422h21.156c-8.88 0-16.923 3.609-22.748 9.422-5.814 5.826-9.422 13.868-9.422 22.748 0 17.772 14.41 32.171 32.17 32.171z" fill="#2b4d66"/></g></g></svg>