<svg id="Capa_1" enable-background="new 0 0 512.005 512.005" height="512" viewBox="0 0 512.005 512.005" width="512" xmlns="http://www.w3.org/2000/svg"><g><path d="m512.005 256.002c0 59.79-20.5 114.79-54.85 158.36-46.88 59.46-119.56 48.223-201.15 48.223-43.46 0-84.4.041-120.25-19.079-31.45-16.76-58.99-1.354-80.9-29.144-34.35-43.57-54.85-98.57-54.85-158.36 0-141.38 114.62-256 256-256s256 114.62 256 256z" fill="#ffd064"/><path d="m457.155 414.362c-46.88 59.46-119.56 97.64-201.15 97.64s-154.27-38.18-201.15-97.64c14.62-18.55 31.76-35.03 50.9-48.93 42.2-30.64 94.11-48.71 150.25-48.71s108.05 18.07 150.25 48.71c19.14 13.9 36.28 30.38 50.9 48.93z" fill="#78d090"/><path d="m256.005 316.722c-54.96 0-101.87 68.7-120.25 165.33-31.45-16.76-58.99-39.9-80.9-67.69 46.88-59.46 119.56-97.64 201.15-97.64z" fill="#66b394"/><path d="m406.255 365.432-21.27 16.65c-75.76 59.3-182.2 59.3-257.96 0l-21.27-16.65c42.2-30.64 94.11-48.71 150.25-48.71s108.05 18.07 150.25 48.71z" fill="#66b394"/><path d="m511.446 233.097c-1.927 13.59-8.863 26.587-20.787 35.929l-1.729 1.354-103.945 81.335c-41.457 32.448-92.098 47.14-141.871 44.078-11.486-.707-22.926-3.359-34.197-5.957-29.144-6.718-51.749-24.163-76.488-43.526l-110.048-76.482-1.031-.802c-12.195-9.55-19.173-22.932-20.912-36.846-2.322-18.548 4.655-38.064 20.912-50.801l105.673-82.689c75.764-59.299 182.198-59.299 257.961 0l105.673 82.689c16.529 12.946 23.465 32.9 20.789 51.718z" fill="#78d090"/><path d="m254.755 396.172c-45.13-.26-90.2-15.08-127.74-44.46l-104.64-81.88-1.03-.81c-12.19-9.55-19.17-22.93-20.91-36.84-2.32-18.55 4.65-38.07 20.91-50.8l40.67-31.82 65-50.87c21.84-17.09 46.23-29.26 71.69-36.49 18.31-5.21 37.17-7.86 56.05-7.97-16.66.29-33.29 6.45-48.78 18.49-8.74 6.79-17.11 15.45-24.93 25.97l-61.4 82.69c-2.4 3.23-4.44 6.89-6.15 10.87-5.01 11.69-7.01 26.08-6 39.93 1.01 13.91 5.06 27.29 12.15 36.84l.6.81 60.8 81.88c21.67 29.19 47.66 44 73.71 44.46z" fill="#66b394"/><g><circle cx="376.727" cy="113.566" fill="#78d090" r="81.649"/><circle cx="376.727" cy="113.566" fill="#fff" r="50.406"/><circle cx="376.727" cy="113.566" fill="#2b4d66" r="35.643"/><path d="m205.975 72.722c-8.74 6.79-17.11 15.45-24.93 25.97l-61.4 82.69c-2.4 3.23-4.44 6.89-6.15 10.87-22.6-6.26-41.29-22.02-51.48-42.69-5.37-10.87-8.38-23.09-8.38-36 0-45.02 36.63-81.65 81.65-81.65 25.58 0 48.45 11.82 63.42 30.29 2.69 3.3 5.12 6.82 7.27 10.52z" fill="#66b394"/><circle cx="135.281" cy="113.566" fill="#fff" r="50.406"/><circle cx="135.281" cy="113.566" fill="#2b4d66" r="35.643"/></g><g fill="#2b4d66"><circle cx="211.267" cy="216.273" r="15.296"/><circle cx="300.744" cy="216.273" r="15.296"/></g><path d="m511.445 233.092c-1.17 8.25-4.18 16.27-9.02 23.38-14.98-10.11-32.55-14.44-53.08-13.17-27.05 1.67-55.1 12.62-84.85 24.23-35.48 13.85-72.14 28.17-109.07 28.17-36.92 0-73.6-14.32-109.08-28.18-29.39-11.46-57.16-22.31-83.94-24.17-20.55-1.42-38.15 2.71-53.18 12.59-4.81-7.25-7.75-15.41-8.79-23.76 16.82-14.66 37.27-20.99 61.97-19.28 26.78 1.87 54.55 12.71 83.94 24.17 35.48 13.86 72.16 28.18 109.08 28.18 36.93 0 73.59-14.32 109.07-28.17 29.75-11.61 57.8-22.56 84.85-24.23 24.81-1.53 45.289 5.11 62.1 20.24z" fill="#66b394"/></g></svg>