<svg id="Capa_1" enable-background="new 0 0 512 512" height="512" viewBox="0 0 512 512" width="512" xmlns="http://www.w3.org/2000/svg"><g><path d="m478.138 256c0 3.22-.06 6.42-.18 9.61-.39 10.62 32.432 21.07 30.782 31.33v.01c-6.59 41.01-22.93 78.77-46.56 110.82-46.62 63.22-121.61 59.914-206.18 59.914s-159.56 3.306-206.18-59.914c-23.63-32.05-39.97-69.81-46.56-110.82v-.01c-1.65-10.26 21.45-20.7 21.06-31.32v-.01c-.12-3.19-.18-6.39-.18-9.61 0-13.94-23.03-27.6-20.88-40.94v-.01c19.6-121.91 125.3-215.05 252.74-215.05s233.14 93.14 252.74 215.05c2.15 13.34-30.602 27.01-30.602 40.95z" fill="#80b4fb"/><path d="m462.18 407.77c-12.39 16.8-26.79 32.04-42.83 45.35-44.33 36.77-101.26 14.56-163.35 14.56-51.28 0-99.04 15.15-139.09-.29-8.44-3.26-16.54-7.87-24.26-14.27-16.04-13.31-30.44-28.55-42.83-45.35 33.18-45.01 80.75-78.76 135.92-94.47 22.32-6.37 45.9-9.77 70.26-9.77 84.57 0 159.57 41.02 206.18 104.24z" fill="#78d090"/><path d="m193.92 376.32c-43.19 26.51-65.59 63.27-77.01 91.07-8.44-3.26-8.771-11.468-24.26-14.27-16.04-13.31-30.44-28.55-42.83-45.35 33.18-45.01 80.75-78.76 135.92-94.47 26.75 20.77 39.5 43.79 8.18 63.02z" fill="#66b394"/><path d="m419.35 453.12c-44.33 36.77-101.26 58.88-163.35 58.88-51.8 0-100.02-15.39-140.31-41.86-8.01-5.24-15.69-10.93-23.04-17.02 15.93-13.21 33.48-24.53 52.32-33.61 33.59-16.2 71.25-25.27 111.03-25.27 62.09 0 119.03 22.11 163.35 58.88z" fill="#ffd064"/><path d="m144.97 419.51c-13.23 16.58-22.13 33.44-28.06 47.88-.34.93-.75 1.85-1.22 2.75-8.01-5.24-15.69-10.93-23.04-17.02 15.93-13.21 33.48-24.53 52.32-33.61z" fill="#ffc250"/><g><path d="m512 256c0 13.94-1.11 27.61-3.26 40.95l-.67.38-187.85 108.41c-39.74 22.93-88.7 22.93-128.44 0l-187.85-108.41-.67-.38c-2.15-13.34-3.26-27.01-3.26-40.95s1.11-27.61 3.26-40.95l188.52-108.79c39.74-22.93 88.7-22.93 128.44 0l188.52 108.79c2.15 13.34 3.26 27.01 3.26 40.95z" fill="#78d090"/><path d="m256 422.94c-22.18 0-44.35-5.74-64.22-17.2l-187.85-108.41-.67-.38v-.01c-2.15-13.34-3.26-27-3.26-40.94s1.11-27.6 3.26-40.94v-.01l188.52-108.79c19.87-11.46 42.04-17.2 64.22-17.2-10.2 0-20.4 5.74-29.53 17.2l-90.55 113.65c-9.57 12.02-11.97 37.53-7.2 56.32 1.6 6.3 4 11.84 7.2 15.86l4.18 5.24 86.37 108.41c9.13 11.46 19.33 17.2 29.53 17.2z" fill="#66b394"/><g><path d="m305.516 374.015h-3.118v-48.562h37.577v14.103c0 19.031-15.428 34.459-34.459 34.459z" fill="#fff"/><path d="m316.198 325.454v46.87c-3.36 1.1-6.95 1.69-10.68 1.69h-3.12v-48.56z" fill="#ebebeb"/></g><g><path d="m206.484 374.015h3.118v-48.562h-37.577v14.103c0 19.031 15.428 34.459 34.459 34.459z" fill="#fff"/><path d="m209.602 369.984v4.03h-3.11c-19.03 0-34.46-15.42-34.46-34.45v-14.11h19.29v14.11c0 13.181 7.41 24.63 18.28 30.42z" fill="#ebebeb"/></g><g><g><path d="m424.28 304.113h-3.118v-48.562h37.577v14.103c0 19.031-15.428 34.459-34.459 34.459z" fill="#fff"/><path d="m434.962 255.553v46.87c-3.36 1.1-6.95 1.69-10.68 1.69h-3.12v-48.56z" fill="#ebebeb"/></g><g><path d="m87.72 304.112h3.118v-48.562h-37.577v14.103c0 19.031 15.428 34.459 34.459 34.459z" fill="#fff"/><path d="m90.838 300.082v4.03h-3.11c-19.03 0-34.46-15.42-34.46-34.45v-14.11h19.29v14.11c0 13.18 7.41 24.63 18.28 30.42z" fill="#ebebeb"/></g></g><g><g><path d="m384.231 344.316-2.7 1.559-24.281-42.056 32.542-18.788 7.052 12.214c9.515 16.48 3.868 37.555-12.613 47.071z" fill="#fff"/><path d="m369.202 296.92 23.435 40.591c-2.36 2.633-5.174 4.939-8.404 6.804l-2.702 1.56-24.28-42.054z" fill="#ebebeb"/></g><g><path d="m127.769 344.316 2.7 1.559 24.281-42.056-32.542-18.788-7.052 12.214c-9.515 16.48-3.868 37.555 12.613 47.071z" fill="#fff"/><path d="m132.484 342.384-2.015 3.49-2.693-1.555c-16.48-9.515-22.133-30.584-12.618-47.065l7.055-12.22 16.706 9.645-7.055 12.22c-6.591 11.415-5.898 25.036.62 35.485z" fill="#ebebeb"/></g></g><path d="m217.44 117.6-81.52 102.31c-1.41 1.77-2.67 3.84-3.77 6.14-27.95-4.81-50.88-24.48-60.35-50.55-3.03-8.33-4.68-17.33-4.68-26.7 0-43.23 35.17-78.4 78.4-78.4 24.4 0 46.23 11.2 60.61 28.74 4.58 5.56 8.4 11.77 11.31 18.46z" fill="#66b394"/><circle cx="366.481" cy="148.803" fill="#78d090" r="78.401"/><circle cx="145.519" cy="148.803" fill="#fff" r="48.401"/><circle cx="366.481" cy="148.803" fill="#fff" r="48.401"/><circle cx="145.519" cy="148.803" fill="#2b4d66" r="34.225"/><circle cx="366.481" cy="148.803" fill="#2b4d66" r="34.225"/><g><circle cx="217.32" cy="271.43" fill="#66b394" r="48.401"/><circle cx="217.32" cy="271.43" fill="#2b4d66" r="26.401"/><circle cx="294.68" cy="271.43" fill="#66b394" r="48.401"/><circle cx="294.68" cy="271.43" fill="#2b4d66" r="26.401"/></g><path d="m511.82 265.61c-.39 10.62-1.43 21.07-3.08 31.33v.01l-.67.38-54.03-27.32c-17.73-8.97-39.43-4.93-52.75 9.8l-31.54 34.89c-20.89 23.1-54.29 30.71-83.11 18.93l-13.92-5.68c-10.78-4.4-22.66-4.4-33.44 0l-13.92 5.68c-9.03 3.7-18.53 5.48-27.94 5.48-20.6 0-40.83-8.55-55.17-24.41l-31.54-34.89c-13.32-14.73-35.02-18.77-52.75-9.8l-54.03 27.32s-.27-25.39-3.75-31.71v-.01l44.25-22.37c27-13.65 59.46-9.35 81.95 10.03 2.3 1.98 4.5 4.12 6.58 6.42l31.55 34.89c12.44 13.76 32.34 18.3 49.51 11.28l13.92-5.68c18.09-7.39 38.03-7.39 56.12 0l13.92 5.68c17.17 7.01 37.07 2.48 49.51-11.28l31.55-34.89c22.36-24.73 58.77-31.5 88.53-16.45z" fill="#66b394"/></g><path d="m331.874 482.248h-151.748c-8.043 0-14.564-6.52-14.564-14.564 0-8.043 6.52-14.564 14.564-14.564h151.747c8.043 0 14.564 6.52 14.564 14.564.001 8.043-6.52 14.564-14.563 14.564z" fill="#ffc250"/></g></svg>