<svg id="Capa_1" enable-background="new 0 0 512 512" height="512" viewBox="0 0 512 512" width="512" xmlns="http://www.w3.org/2000/svg"><g><path d="m512 256c0 38.917-8.684 75.806-24.22 108.835-40.906 86.963-129.312 72.017-231.78 72.017s-190.875 14.946-231.78-72.017c-15.536-33.029-24.22-69.918-24.22-108.835 0-141.385 114.615-256 256-256s256 114.615 256 256z" fill="#ffd064"/><path d="m487.77 364.83c-40.9 86.96-129.31 147.17-231.77 147.17-56.07 0-107.93-18.03-150.1-48.61-34.89-25.3-63.15-59.19-81.67-98.56 3.18-4.95 6.59-9.73 10.21-14.34 4.16-5.3 8.61-10.36 13.32-15.17 7.79-7.96 16.29-15.21 25.4-21.65 30.18-21.39 67.04-33.95 106.84-33.95h152c39.8 0 76.66 12.56 106.85 33.94 8.57 6.07 16.6 12.86 24.01 20.26.47.47.93.94 1.38 1.41 4.72 4.8 9.16 9.86 13.32 15.16 3.62 4.61 7.03 9.39 10.21 14.34z" fill="#e27d47"/><path d="m202.68 329.64c-62.19 43.87-86.99 99.45-96.78 133.75-34.89-25.3-63.15-59.19-81.67-98.56 3.18-4.95 6.59-9.73 10.21-14.34 4.16-5.3 8.61-10.36 13.32-15.17 7.79-7.96 16.29-15.21 25.4-21.65 30.18-21.39 67.04-33.95 106.84-33.95h45.07c4.58 17.55-.86 34.73-22.39 49.92z" fill="#dd6938"/><path d="m464.24 335.33c-25.66 44.83-73.96 75.04-129.33 75.04h-157.82c-41.13 0-78.36-16.67-105.31-43.62-9.33-9.33-17.43-19.9-24.02-31.43 7.79-7.96 16.29-15.21 25.4-21.65 30.18-21.39 67.04-33.95 106.84-33.95h152c39.8 0 76.66 12.56 106.85 33.94 8.57 6.07 16.6 12.86 24.01 20.26.47.47.93.94 1.38 1.41z" fill="#dd6938"/><g><g><path d="m189.592 90.89-61.15 61.15-34.542-34.54c-16.886-16.886-16.886-44.265 0-61.15 8.443-8.443 19.509-12.661 30.575-12.667 11.066.006 22.132 4.224 30.575 12.667z" fill="#e27d47"/><path d="m174.843 105.639-31.659 31.659-34.541-34.541c-8.726-8.726-8.726-22.927.006-31.659 8.726-8.726 22.927-8.726 31.653 0z" fill="#dd6938"/><path d="m322.408 90.89 61.15 61.15 34.542-34.54c16.886-16.886 16.886-44.265 0-61.15-8.443-8.443-19.509-12.661-30.575-12.667-11.066.006-22.132 4.224-30.575 12.667z" fill="#e27d47"/><path d="m337.157 105.639 31.659 31.659 34.541-34.541c8.726-8.726 8.726-22.927-.006-31.659-8.726-8.726-22.927-8.726-31.653 0z" fill="#dd6938"/></g><path d="m402.344 148.871c-11.571-70.387-72.681-124.088-146.344-124.088-73.663 0-134.773 53.702-146.344 124.089-31.614 23.652-52.076 61.393-52.076 103.914 0 51.408 31.78 88.227 75.146 109.211 17.058 8.254 38.328 20.485 58.549 20.485h133.449c71.629 0 129.696-58.067 129.696-129.696 0-42.521-20.462-80.262-52.076-103.915z" fill="#e27d47"/><path d="m297.87 174.862-5.939-63.665c0-19.844-16.087-35.931-35.931-35.931-19.844 0-35.931 16.087-35.931 35.931l-5.939 63.665c-2.451 26.27-17.282 50.046-40.29 62.96-22.019 12.359-36.898 35.932-36.898 62.979 0 39.859 32.312 72.172 72.172 72.172h93.772c39.859 0 72.172-32.312 72.172-72.172 0-27.047-14.879-50.62-36.898-62.979-23.008-12.913-37.839-36.69-40.29-62.96z" fill="#ebebeb"/><path d="m255.522 75.282c-4.93.24-9.38 4.21-12.64 10.51-3.36 6.5-5.44 15.49-5.44 25.41l-3.06 63.66c-1.27 26.27-8.93 50.05-20.81 62.96-11.37 12.36-19.05 35.93-19.05 62.98 0 19.93 4.17 37.97 10.92 51.03 6.74 13.06 16.06 21.14 26.35 21.14h-22.68c-19.93 0-37.97-8.08-51.03-21.14s-21.14-31.1-21.14-51.03c0-27.05 14.88-50.62 36.9-62.98 23.01-12.91 37.84-36.69 40.29-62.96l5.94-63.66c0-9.92 4.02-18.91 10.52-25.41 6.4-6.4 15.2-10.39 24.93-10.51z" fill="#d5dff4"/><g><path d="m256 347.698h-30.932v38.361c0 6.732 5.457 12.189 12.189 12.189h6.555c6.732 0 12.189-5.457 12.189-12.189 0 6.732 5.457 12.189 12.189 12.189h6.554c6.732 0 12.189-5.457 12.189-12.189v-38.361z" fill="#ebebeb"/><g fill="#d5dff4"><path d="m245.104 398.178c-.425.047-.855.071-1.292.071h-6.555c-6.732 0-12.189-5.457-12.189-12.189v-38.361h9.139v38.361c0 6.295 4.773 11.475 10.897 12.118z"/><path d="m276.035 398.178c-.425.047-.855.071-1.292.071h-6.555c-6.732 0-12.189-5.457-12.189-12.189v-38.361h9.139v38.361c0 6.295 4.773 11.475 10.897 12.118z"/></g></g><path d="m207.624 382.482h-20.352c-35.806 0-68.238-14.52-91.701-37.992-23.472-23.472-37.992-55.895-37.992-91.71 0-42.517 20.461-80.264 52.077-103.908 5.786-35.189 23.961-66.216 49.891-88.445 25.639-21.975 58.879-35.353 95.238-35.643-25.449.417-48.712 13.767-66.678 35.643-14.914 18.159-26.178 42.188-32.023 69.561-2.492 11.67-7.296 22.685-14.022 32.543-15.928 23.343-25.731 55.173-25.731 90.25 0 35.815 10.221 68.238 26.737 91.71 16.524 23.471 39.343 37.991 64.556 37.991z" fill="#dd6938"/><g><g><g><g><circle cx="156.414" cy="182.154" fill="#fff" r="33.5"/><circle cx="156.414" cy="182.154" fill="#2b4d66" r="23.688"/></g></g></g><g><g><g><circle cx="355.586" cy="182.154" fill="#fff" r="33.5"/><circle cx="355.586" cy="182.154" fill="#2b4d66" r="23.688"/></g></g></g></g><g><path d="m266.938 320.992h-21.877c-16.564 0-29.992-13.428-29.992-29.992 0-16.564 13.428-29.992 29.992-29.992h21.877c16.564 0 29.992 13.428 29.992 29.992 0 16.564-13.428 29.992-29.992 29.992z" fill="#365e7d"/><path d="m264.787 320.993h-19.724c-16.569 0-29.993-13.424-29.993-29.993 0-8.279 3.353-15.777 8.785-21.209 5.42-5.42 12.919-8.785 21.208-8.785h19.724c-8.279 0-15.777 3.364-21.209 8.785-5.42 5.431-8.785 12.93-8.785 21.209.001 16.569 13.436 29.993 29.994 29.993z" fill="#2b4d66"/></g></g></g></svg>