<svg id="Capa_1" enable-background="new 0 0 512 512" height="512" viewBox="0 0 512 512" width="512" xmlns="http://www.w3.org/2000/svg"><g><path d="m512 256c0 113.22-73.51 209.28-175.4 243.05-25.34 8.4-52.44-29.255-80.6-29.255-12.68 0-25.15-.92-37.34-2.7-14.87-2.18-29.33 36.575-43.26 31.955-101.89-33.77-175.4-129.83-175.4-243.05 0-141.38 114.62-256 256-256s256 114.62 256 256z" fill="#ffd064"/><path d="m336.6 288.09v210.96c-25.34 8.4-52.44 12.95-80.6 12.95s-55.26-4.55-80.6-12.95v-210.96z" fill="#e27d47"/><path d="m218.66 288.09v221.21c-14.87-2.18-29.33-5.63-43.26-10.25v-210.96z" fill="#dd6938"/><g><g><path d="m142.931 47.603-61.662 61.662-34.83-34.83c-17.027-17.027-17.027-44.635 0-61.662 8.514-8.513 19.673-12.767 30.831-12.773 11.159.006 22.318 4.26 30.831 12.773z" fill="#e27d47"/><path d="m128.059 62.475-31.924 31.924-34.83-34.83c-8.799-8.799-8.799-23.119.006-31.924 8.799-8.799 23.119-8.799 31.918 0z" fill="#dd6938"/><path d="m369.069 47.603 61.662 61.662 34.83-34.83c17.027-17.027 17.027-44.635 0-61.662-8.514-8.513-19.672-12.767-30.831-12.773-11.159.006-22.318 4.26-30.831 12.773z" fill="#e27d47"/><path d="m383.941 62.475 31.924 31.924 34.83-34.83c8.799-8.799 8.799-23.119-.006-31.924-8.799-8.799-23.119-8.799-31.918 0z" fill="#dd6938"/></g><path d="m330.953 316.111h-149.906c-62.549 0-113.256-50.706-113.256-113.256v-55.032c0-62.549 50.706-113.256 113.256-113.256h149.905c62.549 0 113.256 50.706 113.256 113.256v55.032c0 62.55-50.706 113.256-113.255 113.256z" fill="#e27d47"/><path d="m233.232 316.108h-52.182c-62.553 0-113.259-50.706-113.259-113.259v-55.027c0-62.553 50.706-113.259 113.259-113.259h52.181c-47.588 0-86.167 38.578-86.167 86.158v109.219c.001 47.59 38.579 86.168 86.168 86.168z" fill="#dd6938"/><g><g><g><g><circle cx="116.414" cy="189.628" fill="#fff" r="39.867"/><circle cx="116.414" cy="189.628" fill="#2b4d66" r="28.191"/></g></g></g><g><g><g><circle cx="395.586" cy="189.628" fill="#fff" r="39.867"/><circle cx="395.586" cy="189.628" fill="#2b4d66" r="28.191"/></g></g></g></g><path d="m276.505 421.759h-41.011c-26.057 0-47.18-21.123-47.18-47.18v-70.376h135.371v70.376c0 26.057-21.123 47.18-47.18 47.18z" fill="#dd6938"/><path d="m276.505 405.162h-41.011c-26.057 0-47.18-21.123-47.18-47.18v-70.376h135.371v70.376c0 26.057-21.123 47.18-47.18 47.18z" fill="#e27d47"/><path d="m277.726 405.145c-.404.009-.817.018-1.221.018h-41.011c-26.056 0-47.176-21.12-47.176-47.176v-70.377h43.452v70.377c.001 25.651 20.463 46.517 45.956 47.158z" fill="#dd6938"/><path d="m368.644 248.658v70.052c0 15.649-6.34 29.806-16.589 40.063-10.257 10.248-24.413 16.589-40.063 16.589-17.098 0-32.431-7.579-42.82-19.557-2.397-2.766-4.531-5.761-6.358-8.958-3.012-5.251-10.617-5.251-13.629 0-1.827 3.197-3.961 6.191-6.358 8.958-3.996 4.61-8.72 8.562-13.998 11.688-8.448 4.997-18.301 7.869-28.822 7.869-31.29 0-56.651-25.362-56.651-56.652v-70.052c0-26.951 21.849-48.809 48.809-48.809h127.67c26.96 0 48.809 21.858 48.809 48.809z" fill="#f1cb86"/><path d="m222.796 370.585c-6.973 3.074-14.683 4.777-22.789 4.777-31.289 0-56.651-25.362-56.651-56.652v-70.052c0-26.951 21.849-48.809 48.809-48.809h45.577c-26.96 0-48.809 21.858-48.809 48.809v70.052c.001 23.185 13.92 43.111 33.863 51.875z" fill="#ecbe6b"/><g fill="#e27d47"><path d="m449.407 172.302h-112.81v-44.009h112.809c12.153 0 22.005 9.852 22.005 22.005 0 12.152-9.852 22.004-22.004 22.004z"/><path d="m62.593 172.302h112.809v-44.009h-112.809c-12.153 0-22.005 9.852-22.005 22.005.001 12.152 9.853 22.004 22.005 22.004z"/></g><path d="m326.175 246.63c0 34.196-24.589 62.737-57.003 68.92v40.256c-2.397-2.766-4.531-5.761-6.358-8.958-3.012-5.251-10.617-5.251-13.629 0-1.827 3.197-3.961 6.191-6.358 8.958v-40.256c-32.414-6.182-57.003-34.723-57.003-68.92 0-7.271 5.901-13.173 13.173-13.173 7.271 0 13.173 5.901 13.173 13.173 0 24.168 19.662 43.83 43.83 43.83s43.83-19.662 43.83-43.83c0-7.271 5.901-13.173 13.173-13.173 7.271 0 13.172 5.902 13.172 13.173z" fill="#ecbe6b"/></g></g></svg>