<svg id="Capa_1" enable-background="new 0 0 512 512" height="512" viewBox="0 0 512 512" width="512" xmlns="http://www.w3.org/2000/svg"><g><path d="m512 256c0 81.026-37.643 153.259-96.394 200.167-43.766 34.944-99.247 17.428-159.606 17.428s-115.84 17.516-159.606-17.428c-58.751-46.908-96.394-119.141-96.394-200.167 0-141.385 114.615-256 256-256s256 114.615 256 256z" fill="#80b4fb"/><path d="m415.6 456.16c-24.51 19.57-52.69 34.74-83.35 44.29-5.98 1.866-9.179-10.527-15.337-9.1-4.933 1.143-12.794 16.186-17.833 17.04-14.01 2.37-28.4 3.61-43.08 3.61s-29.07-1.24-43.08-3.61c-5.665-.96-9.428-15.719-14.958-17.044s-12.827 10.784-18.212 9.104c-30.66-9.55-58.84-24.72-83.35-44.29 15.01-55.31 42.63-101.03 77.56-129.27 24.38-19.72 52.33-30.92 82.04-30.92s57.66 11.2 82.04 30.92c34.93 28.24 62.55 73.96 77.56 129.27z" fill="#e27d47"/><path d="m338.04 280.65v202.99c0 6.34-2.16 12.17-5.79 16.81-10.77 3.36-21.84 6.02-33.17 7.94-9.29-4.35-15.73-13.8-15.73-24.75 0 15.1-12.25 27.34-27.35 27.34s-27.35-12.24-27.35-27.34c0 10.95-6.44 20.4-15.73 24.75-11.33-1.92-22.4-4.58-33.17-7.94-3.63-4.64-5.79-10.47-5.79-16.81v-202.99c0-11.53 9.35-20.88 20.88-20.88h12.94c11.53 0 20.87 9.35 20.87 20.88 0-11.53 9.35-20.88 20.88-20.88h12.94c11.53 0 20.88 9.35 20.88 20.88 0-11.53 9.34-20.88 20.87-20.88h12.94c11.53 0 20.88 9.35 20.88 20.88z" fill="#f1f1f4"/><path d="m256 295.97c-48.87 0-89.85 83.25-100.89 195.38-21.2-9.1-40.92-20.98-58.71-35.19 25.49-93.92 87.34-160.19 159.6-160.19z" fill="#dd6938"/><g><path d="m208.03 109.9v55.74c0 8.57-6.95 15.52-15.52 15.52-8.56 0-15.51-6.95-15.51-15.52v-55.74c0-15.04-12.23-27.28-27.27-27.28h-91.43c-32.15 0-58.3-26.15-58.3-58.3v-5.63c0-8.56 6.95-15.51 15.51-15.51 8.57 0 15.51 6.95 15.51 15.51v5.63c0 13.67 10.11 25.01 23.23 26.97-4.23-8.07-6.64-17.24-6.64-26.97v-5.63c0-8.56 6.95-15.51 15.51-15.51 2.2 0 4.28.46 6.18 1.28 0 .01.01.01.01.01 5.49 2.39 9.33 7.86 9.33 14.22v5.63c0 12.12 7.95 22.42 18.9 25.96-3.9-7.82-6.11-16.64-6.11-25.96v-5.63c0-8.56 6.94-15.51 15.51-15.51 1.65 0 3.23.26 4.72.74 6.26 1.99 10.79 7.86 10.79 14.77v5.63c0 15.04 12.24 27.28 27.28 27.28 32.14 0 58.3 26.15 58.3 58.3z" fill="#98695e"/><g fill="#845c52"><path d="m70.22 59.77c-6.27-.94-11.85-4.02-15.97-8.48-4.23-8.07-6.64-17.24-6.64-26.97v-5.63c0-8.56 6.95-15.51 15.51-15.51 2.2 0 4.28.46 6.18 1.28 0 .01.01.01.01.01-5.49 2.39-9.33 7.85-9.33 14.22v5.63c0 9.73 6.01 27.38 10.24 35.45z"/><path d="m113.51 58.76c-6.27-.94-11.85-4.02-15.97-8.48-3.9-7.82-6.11-16.64-6.11-25.96v-5.63c0-8.56 6.94-15.51 15.51-15.51 1.65 0 3.23.26 4.72.74-4.98 2.57-8.39 7.76-8.39 13.76v5.63c0 9.73 6.01 27.38 10.24 35.45z"/><path d="m12.37 24.322v-5.629c0-6.367 3.84-11.833 9.328-14.222-1.896-.826-3.985-1.29-6.185-1.29-8.568-.001-15.513 6.944-15.513 15.511v5.629c0 32.147 26.154 58.3 58.3 58.3h12.37c-32.146.001-58.3-26.152-58.3-58.299z"/><path d="m189.371 165.644v-55.747c0-15.039-12.236-27.275-27.275-27.275h-12.37c15.039 0 27.275 12.236 27.275 27.275v55.747c0 8.567 6.945 15.512 15.512 15.512 2.2 0 4.289-.464 6.185-1.29-5.487-2.389-9.327-7.854-9.327-14.222z"/></g><path d="m512 18.69v5.63c0 32.15-26.15 58.3-58.3 58.3h-91.43c-15.04 0-27.27 12.24-27.27 27.28v55.74c0 8.57-6.95 15.52-15.51 15.52-8.57 0-15.52-6.95-15.52-15.52v-55.74c0-32.15 26.16-58.3 58.3-58.3 15.04 0 27.28-12.24 27.28-27.28v-5.63c0-8.56 6.94-15.51 15.51-15.51s15.51 6.95 15.51 15.51v5.63c0 9.32-2.21 18.14-6.11 25.96.05-.02.11-.03.16-.06 10.87-3.58 18.74-13.84 18.74-25.9v-5.63c0-8.56 6.95-15.51 15.52-15.51 1.87 0 3.67.33 5.33.94 5.94 2.18 10.18 7.88 10.18 14.57v5.63c0 9.67-2.38 18.79-6.56 26.82-.02.02-.03.04-.04.06-.01.03-.02.06-.04.09h.02c13.12-1.97 23.21-13.31 23.21-26.97v-5.63c0-8.56 6.94-15.51 15.51-15.51 1.85 0 3.63.33 5.28.92.01.02.03.02.05.02 5.94 2.18 10.18 7.88 10.18 14.57z" fill="#98695e"/><g fill="#845c52"><path d="m501.99 4.2c-5.85 2.22-10.02 7.86-10.02 14.49v5.63c0 13.67-10.1 25.01-23.23 26.97-8.33 1.07-11.09.79-10.97 0 13.12-1.97 23.21-13.31 23.21-26.97v-5.63c0-8.56 6.94-15.51 15.51-15.51 1.85 0 3.63.33 5.28.92.01.02.03.02.05.02.06.04.11.06.17.08z"/><path d="m314.969 165.644v-55.747c0-32.146 26.153-58.3 58.3-58.3 15.04 0 27.275-12.236 27.275-27.275v-5.629c0-6.628 4.165-12.27 10.015-14.491-1.711-.65-3.559-1.021-5.498-1.021-8.567 0-15.512 6.945-15.512 15.512v5.629c0 15.039-12.235 27.275-27.275 27.275-32.147 0-58.3 26.154-58.3 58.3v55.747c0 8.567 6.945 15.512 15.512 15.512 1.939 0 3.787-.372 5.498-1.021-5.849-2.221-10.015-7.862-10.015-14.491z"/><path d="m454.37 4.2c-5.85 2.22-10.01 7.86-10.01 14.49v5.63c0 12.12-7.95 22.42-18.91 25.96-11.19 5.6-12.74 3.96-10.83-.06 10.87-3.58 18.74-13.84 18.74-25.9v-5.63c0-8.56 6.95-15.51 15.52-15.51 1.87 0 3.67.33 5.33.94.05.03.11.06.16.08z"/></g></g><g><path d="m153.579 223.185h-50.558c-38.755 0-70.172-31.417-70.172-70.172v-12.365h50.558c38.755 0 70.172 31.417 70.172 70.172z" fill="#dd6938"/><path d="m358.421 223.185h50.558c38.755 0 70.172-31.417 70.172-70.172v-12.365h-50.558c-38.755 0-70.172 31.417-70.172 70.172z" fill="#e27d47"/></g><path d="m256 200.233v220.997l-91.248-21.097-23.617-17.421c-32.852-24.235-46.875-66.538-34.995-105.603l23.375-76.876z" fill="#dd6938"/><path d="m405.86 277.108-23.374-76.873-10.895-35.833c-6.394-21.03-24.692-36.236-46.536-38.674l-29.063-3.243c-26.579-2.966-53.405-2.966-79.984 0l-29.063 3.243c-21.844 2.438-40.142 17.644-46.536 38.673l-10.895 35.833v1.642h31.305c24.823 0 48.411 18.812 48.411 43.635l.317 25.201c0 27.321-13.625 56.476-36.179 71.894-16.968 11.599-22.388 27.944-22.182 50.097.327 35.144 20.584 55.394 55.729 55.394l98.169 7.825c35.145 0 64.293-28.076 64.62-63.219.028-2.969-.154-5.89-.519-8.754l1.679-1.238c32.853-24.235 46.876-66.537 34.996-105.603z" fill="#e27d47"/><g><g><g><g><circle cx="140.333" cy="268.871" fill="#fff" r="33.036"/><circle cx="140.333" cy="268.871" fill="#2b4d66" r="23.36"/></g></g></g><g><g><g><circle cx="371.667" cy="268.871" fill="#fff" r="33.036"/><circle cx="371.667" cy="268.871" fill="#2b4d66" r="23.36"/></g></g></g></g><path d="m316.913 430.437c0 14.982-5.414 28.695-14.385 39.299-11.167 13.224-27.865 21.614-46.528 21.614s-35.361-8.39-46.529-21.614c-8.971-10.604-14.385-24.317-14.385-39.299 0-33.644 27.277-60.913 60.913-60.913s60.914 27.269 60.914 60.913z" fill="#e27d47"/><g fill="#dd6938"><path d="m271.429 489.373c-4.933 1.285-10.098 1.973-15.429 1.973-33.636 0-60.913-27.277-60.913-60.913 0-33.644 27.277-60.913 60.913-60.913 5.331 0 10.496.688 15.429 1.973-26.166 6.832-45.484 30.627-45.484 58.94.001 28.305 19.318 52.108 45.484 58.94z"/><path d="m316.913 430.437c0 14.982-5.414 28.695-14.385 39.299h-93.057c-8.971-10.604-14.385-24.317-14.385-39.299 0-33.644 27.277-60.913 60.913-60.913s60.914 27.269 60.914 60.913z"/><path d="m223.525 455.926h-16.607c-35.145 0-64.296-28.073-64.619-63.218-.207-22.153 10.869-41.728 27.841-53.327 22.551-15.421 35.626-41.347 35.626-68.665v-23.894c0-18.986-11.773-35.228-28.421-41.811 20.697-4.137 40.815 9.539 44.439 30.332.639 3.664.979 7.512.979 11.479v23.894c0 27.318-8.647 53.244-23.571 68.665-11.234 11.599-18.563 31.174-18.431 53.327.224 35.145 19.508 63.218 42.764 63.218z"/></g><path d="m296.028 345.657c-16.205 0-30.642 7.534-40.028 19.281-9.386-11.747-23.823-19.281-40.028-19.281-28.288 0-51.22 22.932-51.22 51.22s22.932 51.22 51.22 51.22h80.056c28.288 0 51.22-22.932 51.22-51.22s-22.932-51.22-51.22-51.22z" fill="#f1cb86"/><path d="m230.068 448.095h-14.092c-28.292 0-51.224-22.932-51.224-51.218s22.932-51.218 51.224-51.218c2.913 0 5.772.245 8.553.718-15.689 4.061-27.646 25.127-27.646 50.5 0 28.286 14.858 51.218 33.185 51.218z" fill="#ecbe6b"/><g fill="#2b4d66"><circle cx="215.69" cy="395.105" r="13.782"/><circle cx="296.312" cy="395.105" r="13.782"/></g><path d="m254.342 120.277c-8.274.083-16.557.821-24.806 2.214l-19.227 3.242c-14.459 2.438-26.564 17.643-30.792 38.669l-7.213 35.833-2.087 12.955c-3.665-.97-9.985 2.855-13.956 2.855l-26.746-14.168v-1.642l10.894-35.833c6.392-21.026 24.69-36.231 46.537-38.669l29.06-3.242c12.742-1.426 25.535-2.156 38.336-2.214z" fill="#dd6938"/></g></svg>