<svg id="Capa_1" enable-background="new 0 0 512 512" height="512" viewBox="0 0 512 512" width="512" xmlns="http://www.w3.org/2000/svg"><g><path d="m512 256c0 .97-.01 1.94-.02 2.91-.024 2.605-4.176 3.521-4.283 6.109-.07 1.704 3.927 5.086 3.823 6.781-1.88 30.81-9.2 60.14-21.02 87.05-2.16 4.91-58.062-.022-60.512 4.718-42.54 82.36-76.363 114.278-175.453 114.278s-127.416-28.468-169.956-110.828c-2.46-4.74-60.919-3.258-63.079-8.168-11.82-26.91-19.14-56.24-21.02-87.05-.145-2.387 4.883-4.784 4.804-7.188-.063-1.896-5.246-3.797-5.264-5.702-.01-.97-.02-1.94-.02-2.91 0-141.38 114.62-256 256-256s256 114.62 256 256z" fill="#78d090"/><path d="m483.591 362.499c-12.426-4.657 1.435 8.027-.013 10.83-42.543 82.359-128.491 138.671-227.578 138.671-99.083 0-185.026-56.306-227.572-138.659-1.45-2.807 4.212-8.187 2.864-11.053 1.898-2.954-3.184-3.308-1.125-6.143 11.908-16.401 26.444-30.768 42.993-42.474 30.18-21.39 67.04-33.95 106.84-33.95h152c39.8 0 76.66 12.56 106.85 33.94 8.57 6.07 16.6 12.86 24.01 20.26 7.535 7.535 14.422 15.724 20.572 24.463 1.489 2.116-1.243 1.935.159 4.115z" fill="#2b4d66"/><path d="m432.481 154.697c-13.953-84.883-87.648-149.643-176.481-149.643-88.833 0-162.527 64.761-176.481 149.643-38.125 28.523-62.801 74.037-62.801 125.313 0 86.38 70.025 156.404 156.404 156.404h165.754c86.38 0 156.405-70.025 156.405-156.404.001-51.276-24.675-96.79-62.8-125.313z" fill="#365e7d"/><path d="m197.662 436.415h-24.543c-43.18 0-82.291-17.51-110.585-45.816-28.305-28.305-45.816-67.405-45.816-110.596 0-51.273 24.674-96.794 62.801-125.307 6.978-42.436 28.896-79.852 60.165-106.659 30.919-26.501 71.004-42.633 114.851-42.983-30.69.503-58.743 16.603-80.41 42.983-22.016 26.807-37.438 64.223-42.349 106.659-26.84 28.513-44.208 74.033-44.208 125.307 0 43.191 12.326 82.291 32.243 110.596 19.928 28.306 47.446 45.816 77.851 45.816z" fill="#2b4d66"/><g><g><path d="m214.774 480.666c-.092.085-.183.17-.275.254-8.564 7.921-22.037 7.183-29.597-1.701-50.114-58.892-68.683-141.769-44.007-220.653 26.887 9.91 53.773 19.821 80.66 29.731-28.748 45.93-33.559 110.202-2.669 167.471 4.463 8.275 2.79 18.515-4.112 24.898z" fill="#ebebeb"/><path d="m205.357 485.833c-7.266 1.754-15.255-.499-20.455-6.613-50.11-58.879-68.69-141.761-44.006-220.641 26.888 9.905 53.776 19.81 80.655 29.728-.529.845-1.054 1.71-1.558 2.571-17.94-6.608-35.884-13.235-53.824-19.843-23.866 76.308-7.27 156.333 39.188 214.798z" fill="#d5dff4"/></g><g><path d="m297.228 480.666c.092.085.183.17.275.254 8.564 7.921 22.037 7.183 29.597-1.701 50.114-58.892 68.683-141.769 44.007-220.653-26.887 9.91-53.773 19.821-80.66 29.731 28.748 45.93 33.559 110.202 2.669 167.471-4.463 8.275-2.789 18.515 4.112 24.898z" fill="#ebebeb"/></g><g><path d="m315.854 299.241c28.743 45.925 33.555 110.202 2.669 167.469-3.194 5.917-3.248 12.84-.492 18.637-6.879 2.297-14.798.875-20.529-4.419-.098-.087-.186-.175-.273-.262-6.901-6.376-8.575-16.613-4.112-24.893 30.886-57.267 26.074-121.544-2.669-167.469 26.884-9.909 53.767-19.818 80.65-29.738 1.925 6.136 3.576 12.304 4.976 18.473-20.07 7.404-40.15 14.809-60.22 22.202z" fill="#d5dff4"/></g></g><g><g><g><g><circle cx="161.557" cy="170.714" fill="#fff" r="47.875"/><circle cx="161.557" cy="170.714" fill="#2b4d66" r="33.853"/></g></g></g><g><g><g><circle cx="350.443" cy="170.714" fill="#fff" r="47.875"/><circle cx="350.443" cy="170.714" fill="#2b4d66" r="33.853"/></g></g></g></g><path d="m322.922 195.747c-27.093 0-51.23 12.596-66.922 32.235-15.691-19.639-39.829-32.235-66.922-32.235-47.294 0-85.634 38.34-85.634 85.634s38.34 85.634 85.634 85.634c27.093 0 51.23-12.596 66.922-32.235 15.692 19.639 39.829 32.235 66.922 32.235 47.294 0 85.634-38.34 85.634-85.634s-38.34-85.634-85.634-85.634z" fill="#c79c86"/><path d="m200.938 366.198c-3.883.547-7.842.82-11.867.82-47.292 0-85.627-38.346-85.627-85.638s38.335-85.638 85.627-85.638c4.025 0 7.984.273 11.867.82-29.147 5.764-51.579 41.55-51.579 84.817s22.431 79.055 51.579 84.819z" fill="#ba896f"/><g fill="#ebebeb"><path d="m511.98 258.91c-.04 4.32-.2 8.62-.46 12.89-1.14.65-2.44 1.01-3.79 1.01-.77 0-1.55-.12-2.32-.37-77.43-24.73-161.08-.21-161.92.04-4.01 1.21-8.25-1.07-9.46-5.09-1.2-4.01 1.07-8.25 5.09-9.46 3.59-1.08 88.89-26.17 170.92.04.71.23 1.36.54 1.94.94z"/><path d="m457.606 305.206c-1.017 0-2.05-.205-3.041-.639-39.644-17.344-88.816-7.818-89.308-7.718-4.112.82-8.116-1.848-8.938-5.963s1.848-8.116 5.963-8.938c2.201-.439 54.398-10.541 98.374 8.698 3.844 1.682 5.597 6.161 3.915 10.006-1.248 2.852-4.038 4.553-6.965 4.554z"/><path d="m490.5 358.85c-2.16 4.91-4.47 9.74-6.92 14.48-46.23-46.78-141.52-50.9-142.56-50.94-4.19-.16-7.46-3.68-7.31-7.88.16-4.19 3.7-7.48 7.88-7.31 1.24.05 30.73 1.24 65.88 10.43 35.73 9.35 63.53 23.17 83.03 41.22z"/><g><path d="m177.97 267.4c-1.21 4.01-5.45 6.29-9.46 5.08-.56-.17-37.78-11.08-85.43-11.08-23.97 0-50.58 2.76-76.49 11.04-.77.25-1.55.37-2.32.37-1.35 0-2.65-.36-3.79-1.01-.26-4.27-.42-8.57-.46-12.89.58-.4 1.23-.71 1.94-.94 82.03-26.2 167.33-1.12 170.92-.04 4.02 1.21 6.3 5.45 5.09 9.47z"/><path d="m54.394 305.206c-2.927 0-5.716-1.701-6.964-4.554-1.682-3.844.071-8.324 3.915-10.006 43.976-19.24 96.174-9.138 98.374-8.698 4.115.822 6.784 4.824 5.963 8.938-.822 4.114-4.82 6.783-8.936 5.963-.67-.132-49.862-9.541-89.31 7.718-.992.433-2.025.639-3.042.639z"/><path d="m178.29 314.51c.15 4.2-3.12 7.72-7.31 7.88-.57.02-29.22 1.28-62.64 10.01-27.81 7.28-58.93 19.72-79.91 40.94-2.46-4.74-4.77-9.58-6.93-14.49 19.5-18.05 47.3-31.87 83.03-41.22 35.15-9.19 64.64-10.38 65.88-10.43 4.21-.17 7.72 3.12 7.88 7.31z"/></g></g><g><path d="m269.191 270.483h-26.382c-19.975 0-36.168-16.193-36.168-36.168 0-19.975 16.193-36.168 36.168-36.168h26.382c19.975 0 36.168 16.193 36.168 36.168 0 19.975-16.193 36.168-36.168 36.168z" fill="#365e7d"/><path d="m266.597 270.485h-23.786c-19.981 0-36.17-16.189-36.17-36.17 0-9.984 4.044-19.026 10.594-25.576 6.536-6.537 15.579-10.594 25.576-10.594h23.786c-9.984 0-19.026 4.057-25.576 10.594-6.536 6.55-10.594 15.592-10.594 25.576 0 19.981 16.202 36.17 36.17 36.17z" fill="#2b4d66"/></g></g></svg>