<svg id="Capa_1" enable-background="new 0 0 512 512" height="512" viewBox="0 0 512 512" width="512" xmlns="http://www.w3.org/2000/svg"><g><path d="m512 256c0 38.917-8.684 75.806-24.22 108.835-40.906 86.963-129.312 85.239-231.78 85.239s-190.875 1.724-231.78-85.239c-15.536-33.029-24.22-69.918-24.22-108.835 0-141.385 114.615-256 256-256s256 114.615 256 256z" fill="#ffd064"/><g><path d="m179.746 72.889-70.216 70.216-39.662-39.662c-19.389-19.389-19.389-50.827 0-70.216 9.694-9.694 22.401-14.538 35.108-14.545 12.707.007 25.413 4.851 35.108 14.545z" fill="#98695e"/><path d="m162.811 89.824-36.352 36.352-39.662-39.661c-10.02-10.02-10.02-26.326.007-36.352 10.02-10.02 26.326-10.02 36.345 0z" fill="#845c52"/><path d="m332.254 72.889 70.216 70.216 39.662-39.662c19.389-19.389 19.389-50.827 0-70.216-9.694-9.694-22.401-14.538-35.108-14.545-12.707.007-25.413 4.851-35.108 14.545z" fill="#98695e"/><path d="m349.189 89.824 36.352 36.352 39.662-39.662c10.02-10.02 10.02-26.326-.007-36.352-10.02-10.02-26.326-10.02-36.345 0z" fill="#845c52"/></g><path d="m487.77 364.83c-40.9 86.96-129.31 147.17-231.77 147.17-58.75 0-112.87-19.79-156.07-53.08-32.15-24.76-58.25-56.99-75.7-94.09 3.18-4.95 6.59-9.73 10.21-14.34 11.05-14.06 24.1-26.48 38.72-36.82 16.54-11.73 35.1-20.8 55.04-26.6 16.44-4.79 33.82-7.35 51.8-7.35h152c39.8 0 76.66 12.56 106.85 33.94 8.57 6.07 16.6 12.86 24.01 20.26 5.22 5.22 10.13 10.75 14.7 16.57 3.62 4.61 7.03 9.39 10.21 14.34z" fill="#98695e"/><path d="m148.65 388.91c-25.79 19.11-40.58 47.77-48.72 70.01-32.15-24.76-58.25-56.99-75.7-94.09 3.18-4.95 6.59-9.73 10.21-14.34 11.05-14.06 24.1-26.48 38.72-36.82 16.54-11.73 35.1-20.8 55.04-26.6 24.86 36.88 46.71 82.38 20.45 101.84z" fill="#845c52"/><path d="m477.56 350.49c-18.43 61.33-75.32 106-142.65 106h-157.82c-41.13 0-78.36-16.67-105.31-43.62-17.17-17.17-30.17-38.51-37.34-62.38 11.05-14.06 24.1-26.48 38.72-36.82 30.18-21.39 67.04-33.95 106.84-33.95h152c39.8 0 76.66 12.56 106.85 33.94 8.57 6.07 16.6 12.86 24.01 20.26 5.22 5.22 10.13 10.75 14.7 16.57z" fill="#845c52"/><path d="m424.039 168.172c-13.286-80.822-83.455-142.485-168.039-142.485-84.584 0-154.753 61.663-168.039 142.485-36.301 27.159-59.797 70.495-59.797 119.32 0 82.248 66.675 148.923 148.923 148.923h157.826c82.248 0 148.923-66.675 148.923-148.923 0-48.824-23.495-92.161-59.797-119.32z" fill="#98695e"/><path d="m256 339.641h-52.429v65.021c0 11.41 9.25 20.66 20.66 20.66h11.11c11.41 0 20.66-9.25 20.66-20.66 0 11.41 9.25 20.66 20.66 20.66h11.109c11.41 0 20.66-9.25 20.66-20.66v-65.021z" fill="#ebebeb"/><path d="m237.531 425.202c-.72.08-1.45.12-2.19.12h-11.11c-11.41 0-20.66-9.25-20.66-20.66v-65.02h15.49v65.02c0 10.67 8.09 19.45 18.47 20.54z" fill="#d5dff4"/><path d="m289.959 425.201c-.72.08-1.45.12-2.19.12h-11.11c-11.41 0-20.66-9.25-20.66-20.66v-65.02h15.49v65.02c0 10.67 8.09 19.45 18.47 20.54z" fill="#d5dff4"/><path d="m200.452 436.415h-23.369c-41.114 0-78.355-16.673-105.296-43.624-26.951-26.951-43.624-64.181-43.624-105.306 0-48.821 23.494-92.164 59.797-119.313 6.644-40.406 27.514-76.032 57.287-101.557 29.44-25.233 67.608-40.594 109.357-40.927-29.222.479-55.933 15.808-76.564 40.927-17.125 20.851-30.059 48.442-36.77 79.874-2.861 13.4-8.377 26.049-16.1 37.367-18.29 26.803-29.545 63.352-29.545 103.629 0 41.125 11.737 78.355 30.7 105.306 18.975 26.951 45.176 43.624 74.127 43.624z" fill="#845c52"/><g><g><g><g><circle cx="166.075" cy="183.424" fill="#fff" r="45.585"/><circle cx="166.075" cy="183.424" fill="#2b4d66" r="32.233"/></g></g></g><g><g><g><circle cx="345.925" cy="183.424" fill="#fff" r="45.585"/><circle cx="345.925" cy="183.424" fill="#2b4d66" r="32.233"/></g></g></g></g><path d="m319.721 207.259c-25.797 0-48.78 11.993-63.721 30.693-14.941-18.7-37.924-30.693-63.721-30.693-45.032 0-81.538 36.506-81.538 81.538s36.506 81.538 81.538 81.538c25.797 0 48.78-11.993 63.721-30.693 14.941 18.7 37.924 30.693 63.721 30.693 45.032 0 81.538-36.506 81.538-81.538s-36.506-81.538-81.538-81.538z" fill="#c79c86"/><g><path d="m268.56 278.42h-25.12c-19.02 0-34.438-15.418-34.438-34.438 0-19.02 15.418-34.438 34.438-34.438h25.12c19.02 0 34.438 15.418 34.438 34.438 0 19.02-15.418 34.438-34.438 34.438z" fill="#365e7d"/><path d="m266.09 278.422h-22.648c-19.025 0-34.44-15.415-34.44-34.44 0-9.506 3.85-18.116 10.087-24.353 6.224-6.224 14.834-10.087 24.353-10.087h22.648c-9.506 0-18.116 3.863-24.353 10.087-6.224 6.237-10.087 14.846-10.087 24.353 0 19.025 15.428 34.44 34.44 34.44z" fill="#2b4d66"/></g><path d="m203.571 369.557c-3.697.521-7.467.781-11.299.781-45.03 0-81.531-36.511-81.531-81.541s36.501-81.541 81.531-81.541c3.832 0 7.602.26 11.299.781-27.753 5.488-49.112 39.563-49.112 80.76s21.359 75.272 49.112 80.76z" fill="#ba896f"/></g></svg>