<svg id="Capa_1" enable-background="new 0 0 512 512" height="512" viewBox="0 0 512 512" width="512" xmlns="http://www.w3.org/2000/svg"><g><path d="m512 256c0 108.03-66.92 200.44-161.57 238.02-29.22 11.6-61.08-17.214-94.43-17.214s-65.21 28.814-94.43 17.214c-94.65-37.58-161.57-129.99-161.57-238.02 0-141.38 114.62-256 256-256s256 114.62 256 256z" fill="#78d090"/><g><path d="m190.584 0c-16.605 0-30.065 13.461-30.065 30.065v89.257h60.131v-89.257c-.001-16.604-13.462-30.065-30.066-30.065z" fill="#98695e"/><path d="m200.493 1.678c-11.736 4.092-20.163 15.261-20.163 28.387v89.254h-.105c-10.883 0-19.706-8.823-19.706-19.706v-69.548c0-16.598 13.464-30.062 30.075-30.062 3.471 0 6.806.581 9.899 1.675z" fill="#845c52"/><path d="m321.416 0c-16.605 0-30.065 13.461-30.065 30.065v89.257h60.131v-89.257c0-16.604-13.461-30.065-30.066-30.065z" fill="#98695e"/><path d="m331.325 1.678c-11.736 4.092-20.163 15.261-20.163 28.387v89.254h-.105c-10.883 0-19.706-8.823-19.706-19.706v-69.548c0-16.598 13.464-30.062 30.075-30.062 3.471 0 6.807.581 9.899 1.675z" fill="#845c52"/></g><path d="m350.43 328.56v125.41l-29.014 20.933c-12.95 5.14 2.584 28.377-11.306 31.367-17.44 3.75-35.54 5.73-54.11 5.73-16.57 0-32.76-1.58-48.44-4.58-15.9-3.04-31.28-7.56-45.99-13.4v-8.6l15.901-30.701-15.901-21.909v-104.25z" fill="#f1cb86"/><path d="m207.56 328.56v178.86c-15.9-3.04-31.28-7.56-45.99-13.4v-8.6l12.913-20.988-12.913-31.622v-104.25z" fill="#ecbe6b"/><path d="m256 139.75v246.48l-101.77-23.53-26.34-19.43c-36.64-27.03-52.28-74.21-39.03-117.78l25.513-83.907 1.428-1.622z" fill="#ecbe6b"/><path d="m384.11 343.27-26.34 19.43-101.77 23.53v-246.48l141.627 1.833 25.513 83.907c13.25 43.57-2.39 90.75-39.03 117.78z" fill="#f1cb86"/><g><g><g><g><circle cx="126.995" cy="216.303" fill="#fff" r="36.845"/><circle cx="126.995" cy="216.303" fill="#2b4d66" r="26.054"/></g></g></g><g><g><g><circle cx="385.005" cy="216.303" fill="#fff" r="36.845"/><circle cx="385.005" cy="216.303" fill="#2b4d66" r="26.054"/></g></g></g></g><path d="m323.937 396.499c0 16.709-6.038 32.004-16.043 43.83-12.456 14.749-31.079 24.107-51.894 24.107s-39.438-9.358-51.894-24.107c-10.005-11.827-16.043-27.121-16.043-43.83 0-37.524 30.422-67.937 67.937-67.937s67.937 30.413 67.937 67.937z" fill="#98695e"/><path d="m273.209 462.231c-5.502 1.433-11.263 2.201-17.209 2.201-37.515 0-67.937-30.422-67.937-67.937 0-37.524 30.422-67.937 67.937-67.937 5.946 0 11.707.768 17.209 2.201-29.183 7.619-50.729 34.158-50.729 65.736 0 31.569 21.545 58.117 50.729 65.736z" fill="#845c52"/><path d="m323.937 396.499c0 16.709-6.038 32.004-16.043 43.83h-103.788c-10.005-11.827-16.043-27.121-16.043-43.83 0-37.524 30.422-67.937 67.937-67.937s67.937 30.413 67.937 67.937z" fill="#845c52"/><path d="m362.156 141.583h35.471l-.557-1.831-12.15-39.964c-7.131-23.455-27.539-40.414-51.902-43.133l-32.414-3.617c-29.644-3.308-59.564-3.308-89.207 0l-32.414 3.617c-24.363 2.719-44.77 19.678-51.902 43.132l-12.151 39.965v1.831h34.915c27.686 0 50.129 22.444 50.129 50.129v26.644c0 30.471-14.581 59.385-39.735 76.581-18.924 12.937-31.284 34.769-31.054 59.477.365 39.196 32.874 70.509 72.072 70.509h109.489c39.198 0 71.707-31.313 72.072-70.509.23-24.708-12.13-46.54-31.054-59.477-25.155-17.196-39.735-46.11-39.735-76.581v-26.644c-.002-27.685 22.442-50.129 50.127-50.129z" fill="#98695e"/><path d="m219.781 424.927h-18.522c-39.198 0-71.71-31.31-72.071-70.508-.231-24.708 12.123-46.54 31.051-59.476 25.152-17.199 39.734-46.114 39.734-76.583v-26.65c0-21.175-13.131-39.29-31.698-46.632 23.084-4.614 45.521 10.639 49.563 33.829.712 4.087 1.092 8.378 1.092 12.803v26.65c0 30.469-9.644 59.384-26.289 76.583-12.53 12.936-20.704 34.768-20.556 59.476.25 39.198 21.758 70.508 47.696 70.508z" fill="#845c52"/><path d="m254.151 50.575c-9.228.092-18.466.915-27.667 2.469l-21.444 3.615c-16.127 2.719-29.627 19.677-34.343 43.128l-8.045 39.965v3.486c-4.087-1.082-8.378-1.655-12.807-1.655h-35.474l.557-1.831 12.151-39.965c7.129-23.45 27.537-40.409 51.903-43.128l32.41-3.615c14.214-1.59 28.482-2.404 42.759-2.469z" fill="#845c52"/><g fill="#2b4d66"><circle cx="199.976" cy="351.274" r="19.155"/><circle cx="312.026" cy="351.274" r="19.155"/></g><g><path d="m154.77 119.322h-49.971c-38.304 0-69.356-31.052-69.356-69.356v-12.221h49.971c38.304 0 69.356 31.052 69.356 69.356z" fill="#845c52"/><path d="m357.23 119.322h49.971c38.304 0 69.356-31.052 69.356-69.356v-12.221h-49.971c-38.304 0-69.356 31.052-69.356 69.356z" fill="#98695e"/></g><path d="m350.43 453.97v40.05c-12.95 5.14-26.43 9.26-40.32 12.25-5.63-.88-10.66-3.54-14.51-7.4-4.76-4.76-7.71-11.33-7.71-18.6 0-14.52 11.78-26.3 26.3-26.3z" fill="#98695e"/><path d="m196.13 459.11v.01c0 14.52-11.78 26.3-26.31 26.3h-8.25v-52.61h8.25c14.53 0 26.31 11.78 26.31 26.3z" fill="#845c52"/><g><path d="m419.701 229.089h-68.222c-9.362 0-16.951 7.589-16.951 16.951 0 9.362 7.589 16.951 16.951 16.951h68.222c9.362 0 16.951-7.589 16.951-16.951 0-9.362-7.589-16.951-16.951-16.951z" fill="#f1cb86"/><path d="m160.521 229.089h-68.222c-9.362 0-16.951 7.589-16.951 16.951 0 9.362 7.589 16.951 16.951 16.951h68.222c9.362 0 16.951-7.589 16.951-16.951 0-9.362-7.59-16.951-16.951-16.951z" fill="#ecbe6b"/></g></g></svg>