<svg id="Capa_1" enable-background="new 0 0 512 512" height="512" viewBox="0 0 512 512" width="512" xmlns="http://www.w3.org/2000/svg"><g><path d="m512 256c0 38.917-8.684 75.806-24.22 108.835-40.906 86.963-129.312 59.707-231.78 59.707s-190.875 27.256-231.78-59.707c-15.536-33.029-24.22-69.918-24.22-108.835 0-141.385 114.615-256 256-256s256 114.615 256 256z" fill="#80b4fb"/><g fill="#845c52"><path d="m353.43 114.831h48.095c36.866 0 66.753 29.886 66.753 66.752v11.762h-48.095c-36.866 0-66.753-29.886-66.753-66.752z"/><path d="m158.57 114.831h-48.095c-36.866 0-66.752 29.886-66.752 66.752v11.762h48.095c36.866 0 66.753-29.886 66.753-66.752v-11.762z"/></g><path d="m487.77 364.83c-40.9 86.96-129.31 147.17-231.77 147.17s-190.87-60.21-231.77-147.17c12.88-20.04 29.52-37.43 48.93-51.16 30.18-21.39 67.04-33.95 106.84-33.95h152c39.8 0 76.66 12.56 106.85 33.94 8.57 6.07 16.6 12.86 24.01 20.26 9.36 9.36 17.72 19.73 24.91 30.91z" fill="#98695e"/><path d="m275.6 279.72c-97.81 0-177.91 75.87-184.62 171.98-28.05-23.67-50.95-53.27-66.75-86.87 32.91-51.2 90.39-85.11 155.78-85.11z" fill="#845c52"/><path d="m152.466 126.745h-86.273c-13.725 0-25.698-9.313-29.077-22.615l-16.605-65.38c-4.078-16.059 5.634-32.383 21.692-36.462 16.058-4.077 32.384 5.634 36.462 21.692l10.861 42.765h62.939c16.568 0 30 13.431 30 30s-13.431 30-29.999 30z" fill="#ebebeb"/><path d="m94.156 126.75h-27.97c-13.72 0-25.69-9.32-29.07-22.62l-16.61-65.38c-4.08-16.06 5.63-32.38 21.69-36.46 7.49-1.9 15.03-.81 21.36 2.54-11.99 6.31-18.56 20.21-15.08 33.92l16.6 65.38c3.38 13.3 15.35 22.62 29.08 22.62z" fill="#d5dff4"/><path d="m445.806 126.745h-86.272c-16.568 0-30-13.431-30-30s13.432-30 30-30h62.939l10.861-42.765c4.079-16.059 20.404-25.771 36.462-21.692 16.059 4.079 25.771 20.403 21.692 36.462l-16.605 65.38c-3.379 13.302-15.353 22.615-29.077 22.615z" fill="#ebebeb"/><path d="m475.064 4.17c-7.88 3.67-14.11 10.72-16.42 19.81l-10.86 42.77h-25.31l10.86-42.77c4.08-16.06 20.41-25.77 36.47-21.69 1.84.47 3.6 1.1 5.26 1.88z" fill="#d5dff4"/><g><path d="m413.1 267.448v-85.15c0-86.764-70.336-157.1-157.1-157.1-86.764 0-157.1 70.336-157.1 157.1v85.15c0 86.764 70.336 157.1 157.1 157.1 86.764 0 157.1-70.337 157.1-157.1z" fill="#98695e"/><path d="m288.743 421.125c-10.564 2.239-21.517 3.416-32.743 3.416-86.76 0-157.101-70.331-157.101-157.091v-85.151c0-43.391 17.585-82.661 46.018-111.093 28.423-28.423 67.703-46.008 111.083-46.008 11.226 0 22.179 1.177 32.743 3.416-30.241 6.412-57.276 21.527-78.351 42.592-28.433 28.433-46.018 67.703-46.018 111.093v85.151c0 75.534 53.313 138.612 124.369 153.675z" fill="#845c52"/></g><g><g><g><g><circle cx="128.988" cy="221.792" fill="#fff" r="39.846"/><circle cx="128.988" cy="221.792" fill="#2b4d66" r="28.175"/></g></g></g><g><g><g><circle cx="383.012" cy="221.792" fill="#fff" r="39.846"/><circle cx="383.012" cy="221.792" fill="#2b4d66" r="28.175"/></g></g></g></g><path d="m207.861 463.421h96.278c64.744 0 117.229-52.485 117.229-117.229 0-64.744-52.485-117.229-117.229-117.229h-96.278c-64.744 0-117.229 52.485-117.229 117.229 0 64.743 52.485 117.229 117.229 117.229z" fill="#c79c86"/><path d="m180.892 429.082c21.21 21.22 50.52 34.34 82.89 34.34h-55.92c-32.37 0-61.68-13.12-82.89-34.34-21.22-21.21-34.34-50.52-34.34-82.89 0-64.74 52.49-117.23 117.23-117.23h55.92c-64.74 0-117.23 52.49-117.23 117.23 0 32.37 13.12 61.68 34.34 82.89z" fill="#ba896f"/><g fill="#2b4d66"><circle cx="200.081" cy="368.919" r="30.437"/><circle cx="311.919" cy="368.919" r="30.437"/></g><path d="m353.237 83.015-25.353-21.139 18.701-10.797c13.091-7.558 17.577-24.298 10.018-37.389-7.558-13.091-24.298-17.577-37.389-10.018l-37.303 21.537c-3.721-10.698-13.887-18.379-25.852-18.379-11.965 0-22.131 7.681-25.852 18.379l-37.303-21.537c-13.091-7.558-29.831-3.073-37.389 10.018-7.558 13.091-3.073 29.831 10.018 37.389l18.701 10.797-25.79 21.504c-11.61 9.68-13.175 26.94-3.495 38.55s26.94 13.175 38.55 3.495l35.189-29.339v30.946c0 15.116 12.254 27.371 27.371 27.371 15.116 0 27.371-12.254 27.371-27.371v-30.947l35.189 29.339c11.807 9.844 29.455 8.06 39.035-4.092 9.232-11.712 7.038-28.766-4.417-38.317z" fill="#365e7d"/></g></svg>