<svg id="Capa_1" enable-background="new 0 0 512 512" height="512" viewBox="0 0 512 512" width="512" xmlns="http://www.w3.org/2000/svg"><g><path d="m512 256c0 80.82-37.46 152.9-95.96 199.82-71.41 13.156-99.48 17.906-160.04 17.906-16.87 0-33.37-1.63-49.33-4.75-40.03-7.82-76.72 13.314-107.72-10.806l-.01-.01c-60.2-46.83-98.94-119.97-98.94-202.16 0-141.38 114.62-256 256-256s256 114.62 256 256z" fill="#dd636e"/><g><g><path d="m414.956 179.901 44.746-44.746c27.868-27.868 33.094-69.806 15.676-102.95-4.02-7.649-11.798-7.454-18.229-13.885l-10.943-10.943-35.697 43.868c-34.3 34.3-40.796 83.414-6.497 117.713z" fill="#2b4d66"/><path d="m448.76 0 10.946 10.946c6.318 6.318 11.468 13.356 15.451 20.849l-42.047 42.047c-27.979 27.979-33.137 70.15-15.459 103.361l-2.699 2.699-10.946-10.946c-34.296-34.296-34.288-89.914.008-124.211z" fill="#ecbe6b"/></g><g><path d="m97.044 179.901-44.746-44.746c-27.868-27.869-33.094-69.806-15.676-102.95 4.019-7.649 11.798-7.454 18.229-13.885l10.943-10.943 35.697 43.868c34.3 34.3 40.796 83.414 6.497 117.713z" fill="#2b4d66"/><path d="m63.24 0-10.946 10.946c-6.318 6.318-11.468 13.356-15.451 20.849l42.047 42.047c27.979 27.979 33.137 70.15 15.459 103.361l2.699 2.699 10.946-10.946c34.296-34.296 34.288-89.914-.008-124.211z" fill="#ecbe6b"/></g></g><path d="m500.69 225.02c-.44-25.1-20.15-45.33-44.77-46.87 17.49-17.4 18.95-45.62 2.71-64.77-16.23-19.15-44.27-22.35-64.31-7.96 2.57-24.57-14.17-47.37-38.89-51.93-22.4-4.13-44.05 8.09-52.64 28.21-6.76-18.2-24.28-31.16-44.82-31.16s-38.06 12.95-44.83 31.14c-8.57-20.1-30.17-32.34-52.56-28.24-24.72 4.52-41.5 27.28-38.98 51.86-20.01-14.41-48.06-11.27-64.32 7.85s-14.86 47.35 2.61 64.78c-24.63 1.49-44.37 21.69-44.85 46.79-.49 25.1 18.45 46.05 43 48.5-18.16 16.73-20.68 44.89-5.16 64.65 11.29 14.37 29.16 20.52 45.97 17.54-7.65 11.52-10.27 26.25-5.91 40.5 4.74 15.49 16.64 26.82 30.96 31.48-12.22 6.1-21.47 17.27-24.96 30.77l.01.01c31 24.12 67.69 41.26 107.72 49.08 15.96 3.12 32.46 4.75 49.33 4.75 60.56 0 116.2-21.03 160.04-56.18-3.96-12.36-12.8-22.52-24.26-28.23 14.34-4.68 26.23-16.03 30.96-31.54 4.34-14.24 1.71-28.95-5.95-40.45 16.77 2.94 34.58-3.19 45.87-17.5 15.54-19.73 13.08-47.89-5.05-64.66 24.55-2.41 43.52-23.33 43.08-48.42z" fill="#f1cb86"/><path d="m188.95 446.57c0-18.74 10.79-34.96 26.49-42.8-14.32-4.66-26.22-15.99-30.96-31.48-4.36-14.25-1.74-28.98 5.91-40.49-16.81 2.97-34.68-3.18-45.97-17.55-15.52-19.75-13-47.91 5.16-64.65-24.55-2.44-43.49-23.39-43-48.49.47-25.1 20.22-45.31 44.85-46.8-17.47-17.43-18.87-45.66-2.61-64.78s44.31-22.26 64.32-7.85c-8.56-20.1-30.16-32.34-52.56-28.24-24.72 4.52-41.5 27.28-38.97 51.86-20.02-14.41-48.07-11.27-64.33 7.85s-14.85 47.35 2.61 64.78c-24.63 1.49-44.37 21.69-44.85 46.79-.49 25.1 18.45 46.05 43 48.5-18.16 16.73-20.67 44.89-5.15 64.65 11.28 14.37 29.15 20.52 45.96 17.54-7.65 11.52-10.27 26.25-5.91 40.5 4.74 15.49 16.65 26.82 30.96 31.48-12.22 6.1-21.46 17.28-24.95 30.78 31 24.12 67.69 41.26 107.72 49.08 4.09-10.51 12.85-16.08 12.85-16.08-17.88-6.92-30.57-24.27-30.57-44.6z" fill="#ecbe6b"/><g><g><g><g><circle cx="118.689" cy="258.871" fill="#fff" r="39.75"/><circle cx="118.689" cy="258.871" fill="#2b4d66" r="28.107"/></g></g></g><g><g><g><circle cx="397.039" cy="258.871" fill="#fff" r="39.75"/><circle cx="397.039" cy="258.871" fill="#2b4d66" r="28.107"/></g></g></g></g><g><path d="m249.518 258.99h16.69c28.889 0 51.275 25.253 47.81 53.927l-2.923 24.205c-3.251 26.935-26.101 47.197-53.229 47.197-27.135 0-49.985-20.262-53.236-47.197l-2.923-24.205c-3.457-28.674 18.93-53.927 47.811-53.927z" fill="#2b4d66"/><path d="m269.57 360.78h-23.41c-40.52 0-71.92-35.42-67.06-75.64l4.1-33.95c4.56-37.78 36.61-66.2 74.66-66.2 38.06 0 70.11 28.42 74.67 66.2l4.1 33.95c4.85 40.22-26.55 75.64-67.06 75.64z" fill="#ecbe6b"/><path d="m313.74 292.56c0 27.73-20.3 50.78-46.8 55.14v13.08l-9.076 5-9.074-5v-13.08c-26.52-4.36-46.81-27.41-46.81-55.14 0-5.01 4.06-9.08 9.07-9.08s9.08 4.07 9.08 9.08c0 20.79 16.91 37.71 37.68 37.74h.09c20.78-.03 37.68-16.95 37.68-37.74 0-5.01 4.07-9.08 9.08-9.08s9.08 4.07 9.08 9.08z" fill="#2b4d66"/></g></g></svg>