<svg id="Capa_1" enable-background="new 0 0 512 512" height="512" viewBox="0 0 512 512" width="512" xmlns="http://www.w3.org/2000/svg"><g><path d="m512 256c0 38.917-8.684 75.806-24.22 108.835-40.906 86.963-129.312 52.837-231.78 52.837s-190.875 34.126-231.78-52.837c-15.536-33.029-24.22-69.918-24.22-108.835 0-141.385 114.615-256 256-256s256 114.615 256 256z" fill="#ffd064"/><g><circle cx="77.08" cy="96.745" fill="#365e7d" r="74.597"/><circle cx="77.08" cy="96.745" fill="#2b4d66" r="42.364"/><circle cx="434.92" cy="96.745" fill="#365e7d" r="74.597"/><circle cx="434.92" cy="96.745" fill="#2b4d66" r="42.364"/></g><path d="m487.77 364.83c-40.9 86.96-129.31 147.17-231.77 147.17s-190.87-60.21-231.77-147.17c12.88-20.04 29.52-37.43 48.93-51.16 30.18-21.39 67.04-33.95 106.84-33.95h152c39.8 0 76.66 12.56 106.85 33.94 8.57 6.07 16.6 12.86 24.01 20.26 9.36 9.36 17.72 19.73 24.91 30.91z" fill="#365e7d"/><path d="m275.6 279.72c-97.81 0-177.91 75.87-184.62 171.98-28.05-23.67-50.95-53.27-66.75-86.87 32.91-51.2 90.39-85.11 155.78-85.11z" fill="#2b4d66"/><path d="m438.85 313.66c-24.66 42.99-71.02 71.94-124.13 71.94h-117.44c-39.49 0-75.24-16-101.12-41.88-8.93-8.93-16.68-19.03-23-30.05 30.18-21.39 67.04-33.95 106.84-33.95h152c39.8 0 76.66 12.56 106.85 33.94z" fill="#2b4d66"/><path d="m317.374 61.572h-122.748c-82.544 0-149.459 66.915-149.459 149.459 0 82.544 66.915 149.459 149.459 149.459h122.748c82.544 0 149.459-66.915 149.459-149.459 0-82.544-66.915-149.459-149.459-149.459z" fill="#365e7d"/><path d="m166.142 316.716c27.048 27.048 64.412 43.771 105.685 43.771h-77.194c-41.273 0-78.637-16.722-105.685-43.771s-43.781-64.413-43.781-105.685c0-82.545 66.92-149.455 149.466-149.455h77.194c-82.545 0-149.466 66.91-149.466 149.455 0 41.272 16.733 78.636 43.781 105.685z" fill="#2b4d66"/><g><g><g><g><circle cx="178.806" cy="187.005" fill="#fff" r="39.131"/><circle cx="178.806" cy="187.005" fill="#2b4d66" r="27.67"/></g></g></g><g><g><g><circle cx="333.194" cy="187.005" fill="#fff" r="39.131"/><circle cx="333.194" cy="187.005" fill="#2b4d66" r="27.67"/></g></g></g></g><path d="m272.595 345.997h-33.191c-38.619 0-69.926-31.307-69.926-69.926 0-38.619 31.307-69.926 69.926-69.926h33.191c38.619 0 69.926 31.307 69.926 69.926 0 38.62-31.307 69.926-69.926 69.926z" fill="#d5dff4"/><path d="m274.568 345.971c-.658.021-1.317.031-1.975.031h-33.194c-38.618 0-69.92-31.302-69.92-69.93 0-19.314 7.828-36.789 20.474-49.446 12.657-12.646 30.131-20.474 49.446-20.474h33.194c.658 0 1.317.01 1.975.031-18.53.502-35.263 8.225-47.481 20.443-12.657 12.657-20.485 30.131-20.485 49.446 0 37.97 30.247 68.864 67.966 69.899z" fill="#d8e2f1"/><g><path d="m265.949 276.12h-19.898c-15.066 0-27.279-12.213-27.279-27.279 0-15.066 12.213-27.279 27.279-27.279h19.898c15.066 0 27.279 12.213 27.279 27.279-.001 15.066-12.214 27.279-27.279 27.279z" fill="#365e7d"/><path d="m263.992 276.121h-17.94c-15.07 0-27.28-12.21-27.28-27.28 0-7.53 3.05-14.35 7.99-19.29 4.93-4.93 11.75-7.99 19.29-7.99h17.94c-7.53 0-14.35 3.06-19.29 7.99-4.93 4.94-7.99 11.76-7.99 19.29 0 15.07 12.22 27.28 27.28 27.28z" fill="#2b4d66"/></g></g></svg>