<svg id="Capa_1" enable-background="new 0 0 512 512" height="512" viewBox="0 0 512 512" width="512" xmlns="http://www.w3.org/2000/svg"><g><path d="m512 256c0 38.917-8.684 75.806-24.22 108.835-40.906 86.963-129.312 62.68-231.78 62.68s-190.875 24.284-231.78-62.68c-15.536-33.029-24.22-69.918-24.22-108.835 0-141.385 114.615-256 256-256s256 114.615 256 256z" fill="#dd636e"/><g><g><path d="m414.956 179.901 44.746-44.746c27.868-27.868 33.094-69.806 15.676-102.95-4.02-7.649-11.798-7.454-18.229-13.885l-10.943-10.943-35.697 43.868c-34.3 34.3-40.796 83.414-6.497 117.713z" fill="#2b4d66"/><path d="m448.76 0 10.946 10.946c6.318 6.318 11.468 13.356 15.451 20.849l-42.047 42.047c-27.979 27.979-33.137 70.15-15.459 103.361l-2.699 2.699-10.946-10.946c-34.296-34.296-34.288-89.914.008-124.211z" fill="#c3d5ef"/></g><g><path d="m97.044 179.901-44.746-44.746c-27.868-27.869-33.094-69.806-15.676-102.95 4.019-7.649 11.798-7.454 18.229-13.885l10.943-10.943 35.697 43.868c34.3 34.3 40.796 83.414 6.497 117.713z" fill="#2b4d66"/><path d="m63.24 0-10.946 10.946c-6.318 6.318-11.468 13.356-15.451 20.849l42.047 42.047c27.979 27.979 33.137 70.15 15.459 103.361l2.699 2.699 10.946-10.946c34.296-34.296 34.288-89.914-.008-124.211z" fill="#c3d5ef"/></g></g><path d="m487.77 364.83c-40.9 86.96-129.31 147.17-231.77 147.17s-190.87-60.21-231.77-147.17c12.84-19.98 29.42-37.33 48.76-51.04.06-.04.11-.08.17-.12 30.18-21.39 67.04-33.95 106.84-33.95h152c39.8 0 76.66 12.56 106.85 33.94.05.04.11.08.16.11 8.51 6.05 16.49 12.8 23.85 20.15 9.36 9.36 17.72 19.73 24.91 30.91z" fill="#c3d5ef"/><path d="m439.01 313.77c-5.97 26.77-21.35 51.23-44.47 68.28l-2.04 1.51c.41 3.22.65 6.49.65 9.82 0 42.51-34.47 76.98-76.99 76.98h-120.32c-42.52 0-76.99-34.47-76.99-76.98 0-3.33.24-6.6.65-9.82l-2.04-1.51c-23.11-17.04-38.49-41.49-44.47-68.26.06-.04.11-.08.17-.12 30.18-21.39 67.04-33.95 106.84-33.95h152c39.8 0 76.66 12.56 106.85 33.94.05.04.11.08.16.11z" fill="#b7c8ea"/><path d="m275.6 279.72c-97.81 0-177.91 75.87-184.62 171.98-28.05-23.67-50.95-53.27-66.75-86.87 32.91-51.2 90.39-85.11 155.78-85.11z" fill="#b7c8ea"/><path d="m394.543 345.381-28.483 21.012-110.06 25.45-110.06-25.45-28.483-21.012c-39.624-29.231-56.533-80.254-42.21-127.363l28.193-92.724h305.12l28.193 92.724c14.323 47.109-2.586 98.132-42.21 127.363z" fill="#c3d5ef"/><g><g><g><g><path d="m166.33 208.08c0 22-17.84 39.84-39.84 39.84-22.01 0-39.85-17.84-39.85-39.84 0-4.62.79-9.06 2.24-13.19h75.21c1.45 4.13 2.24 8.57 2.24 13.19z" fill="#fff"/><path d="m154.66 208.08c0 15.56-12.61 28.17-28.17 28.17s-28.18-12.61-28.18-28.17c0-4.77 1.18-9.26 3.28-13.19h49.79c2.1 3.93 3.28 8.42 3.28 13.19z" fill="#2b4d66"/></g></g></g><g><g><g><path d="m425.36 208.08c0 22-17.84 39.84-39.85 39.84-22 0-39.84-17.84-39.84-39.84 0-4.62.79-9.06 2.24-13.19h75.21c1.45 4.13 2.24 8.57 2.24 13.19z" fill="#fff"/><path d="m413.69 208.08c0 15.56-12.62 28.17-28.18 28.17s-28.17-12.61-28.17-28.17c0-4.77 1.18-9.26 3.28-13.19h49.79c2.1 3.93 3.28 8.42 3.28 13.19z" fill="#2b4d66"/></g></g></g></g><path d="m408.56 125.293v1.98h-37.758c-29.94 0-54.212 24.271-54.212 54.212v117.458l-60.59 30.532-60.59-30.532v-117.458c0-29.94-24.271-54.212-54.212-54.212h-37.758v-1.98l13.141-43.22c7.712-25.365 29.781-43.705 56.129-46.645l35.054-3.912c32.058-3.577 64.415-3.577 96.473 0l35.054 3.912c26.348 2.94 48.417 21.281 56.129 46.645z" fill="#d5dff4"/><path d="m269.431 7.754 32.732 56.693c13.402 23.214-3.351 52.231-30.155 52.231h-32.014c-26.805 0-43.558-29.017-30.155-52.231l32.731-56.693c5.969-10.339 20.891-10.339 26.861 0z" fill="#c3d5ef"/><path d="m255.998 0c-5.215 0-10.445 2.583-13.426 7.75l-32.734 56.701c-13.402 23.212 3.355 52.226 30.159 52.226h10.374c-9.428 0-15.318-29.014-10.604-52.234l11.51-56.693c1.048-5.167 2.885-7.75 4.721-7.75z" fill="#b7c8ea"/><path d="m316.163 279.72c-24.357 0-46.056 11.323-60.163 28.979-14.107-17.656-35.806-28.979-60.163-28.979-42.518 0-76.985 34.467-76.985 76.985s34.467 76.985 76.985 76.985h120.326c42.518 0 76.985-34.467 76.985-76.985s-34.467-76.985-76.985-76.985z" fill="#f1f1f4"/><path d="m217.023 433.686h-21.18c-42.523 0-76.991-34.468-76.991-76.981s34.468-76.981 76.991-76.981c4.378 0 8.675.369 12.856 1.079-23.581 6.104-41.552 37.767-41.552 75.903 0 42.513 22.331 76.98 49.876 76.98z" fill="#d5dff4"/><g fill="#2b4d66"><circle cx="195.413" cy="354.042" r="20.715"/><circle cx="316.589" cy="354.042" r="20.715"/></g></g></svg>