<svg id="Capa_1" enable-background="new 0 0 512 512" height="512" viewBox="0 0 512 512" width="512" xmlns="http://www.w3.org/2000/svg"><g><path d="m512 256c0 70.692-28.654 134.692-74.981 181.019-65.299 20.945-110.327 42.361-181.019 42.361-70.125 0-121.129-33.51-179.901-41.249-46.984-46.412-76.099-110.871-76.099-182.131 0-141.385 114.615-256 256-256s256 114.615 256 256z" fill="#dd636e"/><g><circle cx="120.848" cy="82.959" fill="#365e7d" r="68.083"/><circle cx="120.848" cy="82.959" fill="#2b4d66" r="42.721"/><circle cx="391.152" cy="82.959" fill="#365e7d" r="68.083"/><circle cx="391.152" cy="82.959" fill="#2b4d66" r="42.721"/></g><g><path d="m435.9 438.13c-46.24 45.67-109.78 73.87-179.9 73.87s-133.66-28.2-179.9-73.87c5.19-6.75 10.95-13.04 17.2-18.8.74-.69 1.49-1.36 2.25-2.03 7.22-6.4 15.07-12.11 23.44-17.02 22.18-13.06 48.04-20.54 75.64-20.54h122.74c27.6 0 53.46 7.479 75.64 20.54 8.37 4.91 16.22 10.62 23.44 17.02.76.67 1.51 1.35 2.25 2.04 1.48 1.35 2.94 2.75 4.36 4.17 4.59 4.59 8.87 9.47 12.84 14.62z" fill="#365e7d"/><path d="m271.83 379.74c-65.08 0-120.45 41.59-140.96 99.64-20.09-11.28-38.49-25.18-54.76-41.24 27.32-35.51 70.25-58.4 118.52-58.4z" fill="#2b4d66"/></g><path d="m393.01 400.28c-19.52 11.17-42.13 17.55-66.23 17.55h-141.56c-24.1 0-46.71-6.38-66.23-17.55 22.18-13.06 48.04-20.54 75.64-20.54h122.74c27.6 0 53.46 7.48 75.64 20.54z" fill="#2b4d66"/><path d="m406.727 158.043c-11.917-72.496-74.857-127.806-150.727-127.806-75.869 0-138.81 55.31-150.727 127.806-32.561 24.361-53.636 63.233-53.636 107.027 0 56.357 34.9 104.563 84.267 124.183 15.257 6.064 31.896 8.897 49.314 8.897l20.958.5h120.608c73.775 0 133.581-59.806 133.581-133.581-.001-43.793-21.076-82.665-53.638-107.026z" fill="#365e7d"/><g><g><g><g><circle cx="170.814" cy="209.91" fill="#fff" r="43.182"/><circle cx="170.814" cy="209.91" fill="#2b4d66" r="30.534"/></g></g></g><g><g><g><circle cx="341.186" cy="209.91" fill="#fff" r="43.182"/><circle cx="341.186" cy="209.91" fill="#2b4d66" r="30.534"/></g></g></g></g><path d="m120.848 224.977h305.829v31.192h-305.829z" fill="#365e7d"/><path d="m256 147.088c-19.604 0-35.496 15.892-35.496 35.496v133.997h70.992v-133.997c0-19.604-15.892-35.496-35.496-35.496z" fill="#4a80aa"/><path d="m206.175 398.651h-20.961c-36.879 0-70.282-14.955-94.448-39.13-24.175-24.175-39.13-57.569-39.13-94.457 0-43.791 21.074-82.669 53.637-107.021 5.96-36.243 24.679-68.199 51.385-91.094 26.407-22.633 60.642-36.412 98.091-36.71-26.211.43-50.171 14.18-68.676 36.71-18.804 22.895-31.975 54.851-36.169 91.094-22.923 24.352-37.757 63.23-37.757 107.021 0 36.888 10.527 70.282 27.538 94.457 17.02 24.175 40.522 39.13 66.49 39.13z" fill="#2b4d66"/><circle cx="256" cy="332.483" fill="#2b4d66" r="54.511"/><path d="m304.319 254.752c-19.562 0-36.989 9.094-48.319 23.274-11.329-14.18-28.757-23.274-48.318-23.274-34.147 0-61.829 27.682-61.829 61.829s27.682 61.829 61.829 61.829c19.561 0 36.989-9.094 48.318-23.274 11.33 14.18 28.757 23.274 48.319 23.274 34.147 0 61.829-27.682 61.829-61.829s-27.682-61.829-61.829-61.829z" fill="#4a80aa"/><path d="m216.244 377.82c-2.803.395-5.662.592-8.568.592-34.146 0-61.824-27.686-61.824-61.832s27.678-61.832 61.824-61.832c2.906 0 5.765.197 8.568.592-21.045 4.162-37.241 30-37.241 61.239s16.196 57.079 37.241 61.241z" fill="#407093"/><g><path d="m267.732 306.159h-23.465c-17.766 0-32.169-14.402-32.169-32.169 0-17.766 14.402-32.169 32.169-32.169h23.465c17.766 0 32.169 14.403 32.169 32.169 0 17.767-14.402 32.169-32.169 32.169z" fill="#365e7d"/><path d="m265.425 306.161h-21.156c-17.772 0-32.17-14.399-32.17-32.171 0-8.88 3.597-16.923 9.422-22.748 5.814-5.814 13.856-9.422 22.748-9.422h21.156c-8.88 0-16.923 3.609-22.748 9.422-5.814 5.826-9.422 13.868-9.422 22.748 0 17.772 14.41 32.171 32.17 32.171z" fill="#2b4d66"/></g></g></svg>