<svg id="Capa_1" enable-background="new 0 0 512 512" height="512" viewBox="0 0 512 512" width="512" xmlns="http://www.w3.org/2000/svg"><g><path d="m512 256c0 121.988-85.324 224.048-199.549 249.755-18.162 4.087-37.055-25.361-56.451-25.361-19.397 0-38.289 29.448-56.451 25.361-114.225-25.707-199.549-127.767-199.549-249.755 0-141.385 114.615-256 256-256s256 114.615 256 256z" fill="#80b4fb"/><path d="m312.45 300.85v204.9c-18.16 4.09-37.05 6.25-56.45 6.25s-38.29-2.16-56.45-6.25v-204.9z" fill="#f1f1f4"/><path d="m239.72 300.85v210.63c-13.71-.85-27.13-2.79-40.17-5.73v-204.9z" fill="#d5dff4"/><path d="m312.45 300.85v125.07c-17.63 5.48-36.64 8.47-56.45 8.47s-38.82-2.99-56.45-8.47v-125.07z" fill="#d5dff4"/><path d="m423.419 261.913c0 80.269-74.955 145.337-167.415 145.337-10.869 0-21.496-1.399-31.788-3.116-8.466-1.413-16.706-2.879-24.667-5.353-64.69-20.109-110.968-73.796-110.968-136.868 0-20.007 4.657-39.066 13.08-56.412 13.371-27.524 20.448-57.626 20.198-88.219v-.832c0-64.012 59.497-115.967 133.114-116.441.341-.008.682-.008 1.031-.008 74.082 0 134.136 52.138 134.136 116.449v.832c-.249 30.593 6.827 60.694 20.198 88.219 8.424 17.346 13.081 36.405 13.081 56.412z" fill="#f1f1f4"/><path d="m256.006 407.249c-92.471 0-167.423-65.07-167.423-145.34 0-20.002 4.654-39.061 13.078-56.408 13.373-27.524 20.453-57.629 20.199-88.218v-.836c0-64.012 59.498-115.963 133.114-116.439.344-.008.68-.008 1.032-.008-.172 0-.336 0-.492.008-35.202.475-63.652 52.426-63.652 116.439v.836c.123 30.589-3.261 60.694-9.653 88.218-4.032 17.347-6.26 36.407-6.26 56.408 0 80.27 35.842 145.34 80.057 145.34z" fill="#d5dff4"/><g><g><g><g><circle cx="158.716" cy="128.963" fill="#fff" r="37.762"/><circle cx="158.716" cy="128.963" fill="#2b4d66" r="26.702"/></g></g></g><g><g><g><circle cx="353.284" cy="128.963" fill="#fff" r="37.762"/><circle cx="353.284" cy="128.963" fill="#2b4d66" r="26.702"/></g></g></g></g><path d="m282.808 204.704v-15.461c0-8.77-7.109-15.879-15.879-15.879h-21.858c-8.77 0-15.879 7.109-15.879 15.879v15.461c0 12.778-4.408 25.219-12.689 34.949-7.699 9.046-12.346 20.77-12.346 33.58v28.013c0 28.632 23.211 51.843 51.843 51.843 28.632 0 51.843-23.211 51.843-51.843v-28.013c0-12.81-4.647-24.534-12.346-33.58-8.282-9.73-12.689-22.171-12.689-34.949z" fill="#ffc250"/><path d="m287.73 155.915v-18.3c0-10.38-8.414-18.794-18.794-18.794h-25.871c-10.38 0-18.794 8.414-18.794 18.794v18.3c0 15.124-5.217 29.849-15.019 41.366-9.113 10.707-14.613 24.584-14.613 39.746v33.157c0 33.889 27.473 61.362 61.362 61.362 33.889 0 61.362-27.473 61.362-61.362v-33.157c0-15.162-5.5-29.039-14.613-39.746-9.803-11.516-15.02-26.242-15.02-41.366z" fill="#ffd064"/><path d="m255.998 331.547c-33.89 0-61.36-27.48-61.36-61.37v-33.15c0-15.16 5.5-29.04 14.61-39.75 9.81-11.52 15.02-26.24 15.02-41.36v-18.3c0-10.38 8.42-18.8 18.8-18.8h6.8c-4.91 0-8.9 8.42-8.9 18.8v18.3c0 15.12-2.47 29.84-7.12 41.36-4.32 10.71-6.92 24.59-6.92 39.75v33.15c0 33.89 13.02 61.37 29.07 61.37z" fill="#ffc250"/><g fill="#2b4d66"><circle cx="226.35" cy="272.423" r="12.041"/><circle cx="285.65" cy="272.423" r="12.041"/></g></g></svg>