<svg id="Capa_1" enable-background="new 0 0 512 512" height="512" viewBox="0 0 512 512" width="512" xmlns="http://www.w3.org/2000/svg"><g><path d="m512 256c0 71.26-29.12 135.72-76.1 182.13-46.24 45.67-109.78 41.602-179.9 41.602-45.45 0-88.13-11.85-125.13-32.62-20.09-11.28-38.49 7.088-54.76-8.972l-.01-.01c-46.98-46.41-76.1-110.87-76.1-182.13 0-141.38 114.62-256 256-256s256 114.62 256 256z" fill="#dd636e"/><g><path d="m435.9 438.13c-46.24 45.67-109.78 73.87-179.9 73.87s-133.66-28.2-179.9-73.87c5.19-6.75 10.95-13.04 17.2-18.8 26.64-24.58 62.23-39.59 101.33-39.59h122.74c39.1 0 74.69 15.01 101.33 39.6 1.48 1.35 2.94 2.75 4.36 4.17 4.59 4.59 8.87 9.47 12.84 14.62z" fill="#d8e2f1"/><path d="m271.83 379.74c-65.08 0-120.45 41.59-140.96 99.64-20.09-11.28-38.49-25.18-54.76-41.24 27.32-35.51 70.25-58.4 118.52-58.4z" fill="#c3d5ef"/></g><g><path d="m11.329 92.984 41.96 92.993c9.829 21.783 39.553 24.757 53.504 5.354l62.206-86.524c13.95-19.404 1.664-46.633-22.115-49.012l-101.515-10.159c-25.789-2.58-44.7 23.724-34.04 47.348z" fill="#d8e2f1"/><path d="m53.277 110.11 26.732 59.244c6.262 13.878 25.199 15.773 34.086 3.411l39.63-55.123c8.887-12.362 1.06-29.709-14.089-31.225l-64.673-6.471c-16.429-1.645-28.477 15.113-21.686 30.164z" fill="#365e7d"/><path d="m500.671 92.984-41.96 92.993c-9.829 21.783-39.553 24.757-53.504 5.354l-62.206-86.524c-13.95-19.404-1.664-46.633 22.115-49.012l101.514-10.157c25.79-2.582 44.701 23.722 34.041 47.346z" fill="#d5dff4"/><path d="m458.723 110.11-26.732 59.244c-6.262 13.878-25.199 15.773-34.086 3.411l-39.63-55.123c-8.887-12.362-1.06-29.709 14.089-31.225l64.673-6.471c16.429-1.645 28.477 15.113 21.686 30.164z" fill="#365e7d"/></g><path d="m418.7 419.34c-24.09 18.46-54.23 29.44-86.92 29.44h-151.56c-32.69 0-62.83-10.98-86.92-29.45 26.64-24.58 62.23-39.59 101.33-39.59h122.74c39.1 0 74.69 15.01 101.33 39.6z" fill="#c3d5ef"/><path d="m474.78 288.16c0 78.98-64.03 143-143 143h-151.56c-39.48 0-75.24-16-101.11-41.88-25.88-25.88-41.89-61.63-41.89-101.12 0-17.8 3.25-34.85 9.21-50.57 7.35-19.46 18.82-36.89 33.36-51.23 4.65-4.59 9.61-8.86 14.85-12.78 6.38-38.8 26.42-73.01 55.01-97.51 28.59-24.51 65.74-39.31 106.35-39.31 69.94 0 129.62 43.91 152.99 105.67 6.1 16.12 14.34 31.36 24.93 44.91l.01.01c1.75 2.26 3.56 4.45 5.45 6.61 11.02 12.58 19.87 27.11 25.96 43 .08.21.16.42.23.63.01.01 0 .01 0 .01 5.96 15.72 9.21 32.76 9.21 50.56z" fill="#d5dff4"/><path d="m202.66 431.163h-22.44c-39.48 0-75.24-16.01-101.11-41.89-25.88-25.88-41.89-61.63-41.89-101.12 0-36.077 13.36-69.038 35.405-94.195 13.251-15.122 23.265-32.733 30.384-51.536 9.804-25.896 25.992-48.657 46.641-66.359 28.27-24.23 64.92-38.98 105.01-39.3-28.06.46-53.71 15.18-73.52 39.3-15.249 18.567-27.038 42.7-33.81 70.178-4.118 16.709-10.977 32.578-20.077 47.184-15.715 25.224-25.253 58.396-25.253 94.728 0 39.49 11.27 75.24 29.48 101.12 18.22 25.88 43.38 41.89 71.18 41.89z" fill="#d8e2f1"/><g><g><path d="m465.57 237.59c.01.01 0 .01 0 .01-2.18 10.59-8.6 20.41-19.27 26.57l-21.56 12.46-83.39 48.14c-26.83 15.48-60.35-3.87-60.35-34.84v-121.19c0-30.97 33.52-50.33 60.35-34.84l43.45 25.09 49.12 28.35.01.01c1.75 2.26 3.56 4.45 5.45 6.61 11.02 12.58 19.87 27.11 25.96 43 .08.21.16.42.23.63z" fill="#ebebeb"/></g><g><path d="m231 168.74v121.19c0 30.97-33.52 50.32-60.35 34.84l-68.62-39.62-14.77-8.52-21.56-12.46c-10.68-6.16-17.1-15.99-19.27-26.58 7.35-19.46 18.82-36.89 33.36-51.23l47.41-27.37 19.79-11.43 23.66-13.66c26.83-15.49 60.35 3.87 60.35 34.84z" fill="#ebebeb"/></g><path d="m146.99 147.56c-4.14 16.23-10.88 31.65-19.74 45.87-15.28 24.52-24.72 56.57-25.22 91.72l-14.77-8.52-21.56-12.46c-10.68-6.16-17.1-15.99-19.27-26.58 7.35-19.46 18.82-36.89 33.36-51.23l47.41-27.37z" fill="#d5dff4"/></g><g><g><path d="m281.004 196.202v121.187c0 30.972 33.521 50.322 60.342 34.842l83.398-48.147 21.56-12.452c26.821-15.48 26.821-54.192 0-69.684l-61.499-35.497-43.459-25.091c-26.821-15.492-60.342 3.87-60.342 34.842z" fill="#365e7d"/></g><g><path d="m231 196.2v121.19c0 30.97-33.52 50.32-60.35 34.84l-67.07-38.73-16.32-9.42-21.56-12.45c-26.83-15.48-26.83-54.19 0-69.68l61.5-35.5 6.07-3.51 37.38-21.58c26.83-15.49 60.35 3.87 60.35 34.84z" fill="#365e7d"/></g></g><g><g><g><g><circle cx="178.806" cy="257.005" fill="#fff" r="39.131"/><circle cx="178.806" cy="257.005" fill="#2b4d66" r="27.67"/></g></g></g><g><g><g><circle cx="333.194" cy="257.005" fill="#fff" r="39.131"/><circle cx="333.194" cy="257.005" fill="#2b4d66" r="27.67"/></g></g></g></g><g><path d="m272.595 395.997h-33.191c-38.619 0-69.926-31.307-69.926-69.926 0-38.619 31.307-69.926 69.926-69.926h33.191c38.619 0 69.926 31.307 69.926 69.926 0 38.62-31.307 69.926-69.926 69.926z" fill="#ebebeb"/><path d="m274.568 395.971c-.658.021-1.317.031-1.975.031h-33.194c-38.618 0-69.92-31.302-69.92-69.93 0-19.314 7.828-36.789 20.474-49.446 12.657-12.646 30.131-20.474 49.446-20.474h33.194c.658 0 1.317.01 1.975.031-18.53.502-35.263 8.225-47.481 20.443-12.657 12.657-20.485 30.131-20.485 49.446 0 37.97 30.247 68.864 67.966 69.899z" fill="#d5dff4"/><path d="m265.949 326.12h-19.898c-15.066 0-27.279-12.213-27.279-27.279 0-15.066 12.213-27.279 27.279-27.279h19.898c15.066 0 27.279 12.213 27.279 27.279-.001 15.066-12.214 27.279-27.279 27.279z" fill="#365e7d"/><path d="m263.992 326.121h-17.94c-15.07 0-27.28-12.21-27.28-27.28 0-7.53 3.05-14.35 7.99-19.29 4.93-4.93 11.75-7.99 19.29-7.99h17.94c-7.53 0-14.35 3.06-19.29 7.99-4.93 4.94-7.99 11.76-7.99 19.29 0 15.07 12.22 27.28 27.28 27.28z" fill="#2b4d66"/></g><path d="m127.25 193.43c-15.71 25.22-25.25 58.39-25.25 94.72 0 8.65.54 17.13 1.58 25.35l-16.32-9.42-21.56-12.45c-26.83-15.48-26.83-54.19 0-69.68l61.5-35.5 6.07-3.51c-1.87 3.56-3.89 7.06-6.02 10.49z" fill="#2b4d66"/></g></svg>