<svg id="Capa_1" enable-background="new 0 0 512 512" height="512" viewBox="0 0 512 512" width="512" xmlns="http://www.w3.org/2000/svg"><g><path d="m512 256c0 21.32-2.61 42.03-7.52 61.83-3.59 14.47-31.264 24.224-37.204 37.604-39.79 89.73-106.796 128.895-211.276 128.895-72.32 0-117.873-30.306-164.413-78.526-20.71-21.44-27.894-27.732-40.134-55.352l-29.593 9.209c-5.93-13.37-10.75-27.36-14.34-41.83-4.91-19.8-7.52-40.51-7.52-61.83 0-141.38 114.62-256 256-256s256 114.62 256 256z" fill="#80b4fb"/><path d="m504.48 317.83c-3.59 14.47-8.41 28.46-14.35 41.84-39.79 89.73-129.65 152.33-234.13 152.33-72.32 0-137.64-30-184.18-78.22-20.71-21.44-37.71-46.49-49.95-74.11 3.94-2.83 7.98-5.53 12.1-8.1h.02c35.63-22.28 77.75-35.15 122.89-35.15h198.24c7.53 0 14.97.37 22.31 1.07 5.82-14.87 20.28-25.4 37.21-25.4 19.43 0 35.62 13.88 39.2 32.27 7.3-7.83 17.69-12.74 29.24-12.74 7.88 0 15.22 2.28 21.4 6.21z" fill="#ebebeb"/><path d="m230.47 318.67s-100.85 19.7-158.65 115.11c-20.71-21.44-37.71-46.49-49.95-74.11l-.01-.01c-5.93-13.37-10.75-27.36-14.34-41.83 6.18-3.93 13.52-6.21 21.4-6.21 11.55 0 21.94 4.91 29.24 12.74 3.58-18.39 19.77-32.27 39.2-32.27 16.93 0 31.39 10.53 37.21 25.4 7.34-.7 14.78-1.07 22.31-1.07h68.54z" fill="#d5dff4"/><path d="m431.52 149.946 79.59 90.317s-50.345 35.41-105.153 0h-299.914c-54.808 35.41-105.153 0-105.153 0l79.59-90.317" fill="#ecbe6b"/><path d="m442.69 246.88c0 36.54-15.54 69.44-40.38 92.46-12.76 11.83-20.27 28.25-20.27 45.65v.97c0 34.8-14.11 66.32-36.92 89.12-20.81 20.82-48.87 34.39-80.07 36.59-2.99.22-6.01.33-9.05.33s-6.06-.11-9.05-.33c-65.39-4.63-116.99-59.14-116.99-125.71v-.97c0-17.4-7.51-33.82-20.27-45.65-12.42-11.51-22.51-25.49-29.51-41.16-6.98-15.67-10.87-33.03-10.87-51.3 0-69.61 56.43-126.04 126.04-126.04h121.3c34.81 0 66.31 14.11 89.12 36.92 22.81 22.8 36.92 54.32 36.92 89.12z" fill="#f1cb86"/><path d="m236.43 511.45c-60.32-9.39-106.47-61.56-106.47-124.52v-.97c0-17.4-7.51-33.82-20.27-45.65-12.42-11.51-22.51-25.49-29.51-41.16-6.98-15.67-10.87-33.03-10.87-51.3 0-69.61 56.43-126.04 126.04-126.04h27.59c-37.94 0-68.7 56.97-68.7 127.24 0 18.45 2.12 35.97 5.92 51.79 3.82 15.82 9.32 29.93 16.09 41.55 6.96 11.95 11.05 28.52 11.05 46.09v.98c0 57.68 20.72 106.39 49.13 121.99z" fill="#ecbe6b"/><path d="m301.26 435.71-36.21 36.2v39.76c-2.99.22-6.01.33-9.05.33s-6.06-.11-9.05-.33v-39.76l-36.21-36.2c-3.53-3.54-3.53-9.27 0-12.8 3.54-3.53 9.27-3.53 12.8 0l32.46 32.46 32.46-32.46c3.53-3.53 9.26-3.53 12.8 0 3.53 3.53 3.53 9.26 0 12.8z" fill="#ecbe6b"/><g><g><g><g><circle cx="171.444" cy="316.42" fill="#fff" r="42.863"/><circle cx="171.444" cy="316.42" fill="#2b4d66" r="30.309"/></g></g></g><g><g><g><circle cx="340.556" cy="316.42" fill="#fff" r="42.863"/><circle cx="340.556" cy="316.42" fill="#2b4d66" r="30.309"/></g></g></g></g><path d="m442.645 84.246v-9.948c0-21.688-17.582-39.271-39.271-39.271-14.724 0-27.548 8.109-34.271 20.099v-.205c0-21.688-17.582-39.271-39.271-39.271-15.022 0-28.068 8.438-34.672 20.828-1.432-20.383-18.411-36.478-39.16-36.478-20.749 0-37.728 16.095-39.161 36.479-6.605-12.391-19.651-20.828-34.672-20.828-21.688 0-39.27 17.582-39.27 39.271v.205c-6.722-11.99-19.546-20.099-34.271-20.099-21.688 0-39.271 17.582-39.271 39.271v9.948c-20.061 3.175-35.4 20.541-35.4 41.495 0 20.954 15.339 38.32 35.4 41.495v9.948c0 21.689 17.582 39.271 39.271 39.271 14.724 0 27.548-8.109 34.271-20.099v.205c0 21.688 17.582 39.271 39.27 39.271 15.021 0 28.068-8.437 34.672-20.828 1.433 20.384 18.412 36.479 39.161 36.479 20.749 0 37.728-16.095 39.161-36.479 6.605 12.391 19.651 20.828 34.672 20.828 21.688 0 39.271-17.582 39.271-39.271v-.205c6.722 11.991 19.546 20.099 34.271 20.099 21.688 0 39.271-17.582 39.271-39.271v-9.948c20.061-3.175 35.4-20.541 35.4-41.495-.001-20.955-15.34-38.322-35.401-41.496z" fill="#ebebeb"/><path d="m130.025 125.74c0 11.22 4.11 21.47 10.9 29.35s16.26 13.37 27 15.07v10.65c0 23.22 18.83 42.05 42.04 42.05.46 0 .92-.01 1.37-.03-2.52 2.81-5.44 5.25-8.68 7.23-5.96 3.66-12.98 5.77-20.49 5.77-21.69 0-39.27-17.58-39.27-39.27v-.21c-3.36 6-8.25 11.03-14.13 14.55-5.89 3.52-12.78 5.55-20.14 5.55-21.69 0-39.27-17.58-39.27-39.27v-9.94c-10.03-1.59-18.88-6.73-25.22-14.09-6.35-7.35-10.18-16.93-10.18-27.41 0-20.95 15.34-38.32 35.4-41.49v-9.95c0-10.84 4.39-20.66 11.5-27.77s16.93-11.5 27.77-11.5c14.73 0 27.55 8.11 34.27 20.1v-.21c0-10.84 4.39-20.66 11.5-27.77s16.93-11.5 27.77-11.5c11.58 0 21.99 5.02 29.17 13-.45-.02-.91-.03-1.37-.03-11.6 0-22.12 4.71-29.72 12.32-7.61 7.61-12.32 18.12-12.32 29.73v10.65c-21.47 3.4-37.9 21.99-37.9 44.42z" fill="#d5dff4"/></g></svg>