<svg id="Capa_1" enable-background="new 0 0 514.385 514.385" height="512" viewBox="0 0 514.385 514.385" width="512" xmlns="http://www.w3.org/2000/svg"><g><path d="m513.193 258.385c0 81.02-37.65 153.26-96.4 200.16-50.752 2.176-99.24 12.501-159.6 12.501-35.83 0-69.93-7.36-100.89-20.65-21.2-9.1-40.92 22.359-58.71 8.149-58.75-46.9-96.4-119.14-96.4-200.16 0-141.38 114.62-256 256-256s256 114.62 256 256z" fill="#dd636e"/><path d="m416.793 458.545c-43.77 34.95-99.24 55.84-159.6 55.84s-115.83-20.89-159.6-55.84c25.49-93.92 87.34-160.19 159.6-160.19s134.11 66.27 159.6 160.19z" fill="#98695e"/><path d="m257.193 298.355c-48.87 0-89.85 83.25-100.89 195.38-21.2-9.1-40.92-20.98-58.71-35.19 25.49-93.92 87.34-160.19 159.6-160.19z" fill="#845c52"/><path d="m420.682 194.545h-326.979c-49.225 0-89.13-39.905-89.13-89.13h505.238c0 49.225-39.904 89.13-89.129 89.13z" fill="#845c52"/><g><g><path d="m8.036 24.028c.006-.149.012-.297.017-.446.541-13.878 12.504-24.599 26.347-23.484 91.766 7.39 177.166 61.527 222.801 148.708-30.977 14.291-61.955 28.583-92.932 42.874-14.463-62.867-64.52-121.023-138.735-143.231-10.723-3.208-17.935-13.238-17.498-24.421z" fill="#ebebeb"/><path d="m11.613 11.75c4.64-7.593 13.263-12.422 22.787-11.652 91.751 7.382 177.166 61.514 222.79 148.698-30.974 14.297-61.948 28.593-92.925 42.873-.266-1.156-.552-2.326-.852-3.476 20.665-9.54 41.351-19.067 62.016-28.607-44.148-84.33-125.487-137.727-213.816-147.836z" fill="#d5dff4"/></g><g><path d="m506.349 24.009c-.006-.149-.012-.297-.017-.446-.542-13.877-12.504-24.598-26.348-23.483-91.766 7.39-177.166 61.527-222.801 148.708 30.977 14.291 61.955 28.583 92.932 42.874 14.464-62.867 64.521-121.023 138.736-143.231 10.722-3.208 17.934-13.238 17.498-24.422z" fill="#ebebeb"/></g><g><path d="m337.938 161.06c14.465-62.858 64.525-121.021 138.736-143.229 7.67-2.293 13.544-8.075 16.104-15.275 7.725 3.858 13.194 11.721 13.562 21.002.009.156.009.304.009.451.442 11.178-6.767 21.204-17.494 24.418-74.211 22.208-124.271 80.37-138.736 143.229-30.973-14.29-61.947-28.579-92.929-42.86 3.545-6.786 7.347-13.369 11.362-19.741 23.129 10.663 46.267 21.334 69.386 32.005z" fill="#d5dff4"/></g></g><path d="m289.362 371.243h-6.809c-6.063 0-10.978 4.915-10.978 10.978 0-6.063-4.915-10.978-10.978-10.978h-6.809c-6.063 0-10.978 4.915-10.978 10.978 0-6.063-4.915-10.978-10.978-10.978h-6.809c-6.063 0-10.978 4.915-10.978 10.978v106.763c0 7.943 6.439 14.383 14.383 14.383s14.383-6.439 14.383-14.383c0 7.943 6.439 14.383 14.383 14.383 7.943 0 14.383-6.439 14.383-14.383 0 7.943 6.439 14.383 14.383 14.383 7.943 0 14.383-6.439 14.383-14.383v-106.763c-.003-6.063-4.918-10.978-10.981-10.978z" fill="#f1f1f4"/><path d="m201.163 59.685h-53.628c-32.007 0-59.651 18.679-72.627 45.73-5.049 10.526 7.463 24.014 7.463 36.469l-2.784 132.757c0 78.253 50.88 154.246 129.134 154.246h32.552" fill="#98695e"/><path d="m241.271 428.889h-32.55c-78.25 0-141.69-63.43-141.69-141.69v-147.01c0-44.46 36.04-80.5 80.5-80.5h53.63l.19 1.76c-36.4 7.72-63.71 40.04-63.71 78.74v147.01c0 64.86 43.58 119.54 103.05 136.35z" fill="#845c52"/><path d="m313.223 59.685h53.628c44.461 0 80.504 36.043 80.504 80.504v147.008c0 78.253-63.437 141.69-141.69 141.69h-32.552" fill="#98695e"/><g><g><g><g><circle cx="135.136" cy="252.158" fill="#fff" r="42.863"/><circle cx="135.136" cy="252.158" fill="#2b4d66" r="30.309"/></g></g></g><g><g><g><circle cx="379.249" cy="252.158" fill="#fff" r="42.863"/><circle cx="379.249" cy="252.158" fill="#2b4d66" r="30.309"/></g></g></g></g><path d="m295.094 470.721h-75.803c-19.179 0-34.727-15.548-34.727-34.727v-105.008c0-25.127 20.369-45.496 45.496-45.496h54.265c25.127 0 45.496 20.369 45.496 45.496v105.008c0 19.18-15.548 34.727-34.727 34.727z" fill="#d8e2f1"/><path d="m384.013 366.795c-.37 39.2-32.88 70.51-72.08 70.51h-109.48c-39.2 0-71.71-31.31-72.08-70.51-.23-24.7 12.13-46.54 31.06-59.47 25.15-17.2 39.73-46.11 39.73-76.58v-171.06h112.06v171.06c0 30.47 14.58 59.38 39.73 76.58 18.93 12.93 31.29 34.77 31.06 59.47z" fill="#f1f1f4"/><path d="m234.153 437.305h-31.7c-39.2 0-71.71-31.31-72.08-70.51-.23-24.7 12.13-46.54 31.06-59.47 25.15-17.2 39.73-46.11 39.73-76.58v-171.06h32.45v171.06c0 30.47-6.14 59.38-16.72 76.58-7.97 12.93-13.17 34.77-13.07 59.47.15 39.2 13.83 70.51 30.33 70.51z" fill="#d5dff4"/><path d="m313.073 358.985c0 27.73-20.3 50.78-46.8 55.14v23.18h-18.15v-23.18c-26.52-4.36-46.81-27.41-46.81-55.14 0-5.01 4.06-9.08 9.07-9.08s9.08 4.07 9.08 9.08c0 20.79 16.91 37.71 37.68 37.74h.09c20.78-.03 37.68-16.95 37.68-37.74 0-5.01 4.07-9.08 9.08-9.08s9.08 4.07 9.08 9.08z" fill="#d8e2f1"/></g></svg>