<svg id="Capa_1" enable-background="new 0 0 512 512" height="512" viewBox="0 0 512 512" width="512" xmlns="http://www.w3.org/2000/svg"><g><path d="m512 256c0 79.529-36.265 150.588-93.16 197.542-44.252 36.52-100.984 12.896-162.84 12.896-60.359 0-115.839 24.672-159.606-10.271-58.751-46.908-96.394-119.141-96.394-200.167 0-141.385 114.615-256 256-256s256 114.615 256 256z" fill="#78d090"/><path d="m415.6 456.16c-43.77 34.95-99.24 55.84-159.6 55.84s-115.83-20.89-159.6-55.84c5.28-19.48 12.13-37.77 20.32-54.52 31.27-64.04 82.01-105.67 139.28-105.67 57.43 0 108.28 41.85 139.53 106.18 8.08 16.61 14.84 34.73 20.07 54.01z" fill="#f1f1f4"/><path d="m256 295.97c-48.87 0-89.85 83.25-100.89 195.38-21.2-9.1-40.92-20.98-58.71-35.19 25.49-93.92 87.34-160.19 159.6-160.19z" fill="#d5dff4"/><path d="m66.282 139.649 56.998 22.79 40.195-100.527-154.843-61.912-1.072 2.681c-21.607 54.039 4.684 115.362 58.722 136.968z" fill="#b7c8ea"/><path d="m445.718 139.649-56.998 22.79-40.195-100.526 154.843-61.913 1.072 2.681c21.607 54.039-4.684 115.362-58.722 136.968z" fill="#b7c8ea"/><path d="m395.53 402.15c-9.56 6.51-20.17 11.72-31.61 15.34l-70.94 22.43c-23.74 7.5-49.22 7.5-72.96 0l-70.94-22.43c-11.74-3.71-22.61-9.1-32.36-15.85 31.27-64.04 82.01-105.67 139.28-105.67 57.43 0 108.28 41.85 139.53 106.18z" fill="#d5dff4"/><path d="m448.44 144.65v128.28c0 52.77-34.2 99.46-84.52 115.37l-70.94 22.43c-23.74 7.5-49.22 7.5-72.96 0l-9.131-2.887-61.809-20.543c-50.32-15.91-84.52-61.6-84.52-114.37v-128.28c0-36.65 16.3-69.49 42.04-91.67 21.19-18.28 48.78-29.32 78.96-29.32h141.88c30.18 0 57.77 11.04 78.96 29.32 25.74 22.18 42.04 55.02 42.04 91.67z" fill="#f1f1f4"/><path d="m210.89 407.84-61.81-19.54c-50.32-15.91-84.52-62.6-84.52-115.37v-128.28c0-36.65 16.3-69.49 42.04-91.67 21.09-18.2 48.53-29.22 78.55-29.32-6.6 5.13-12.67 11.96-18.06 20.17-15.35 23.4-25.07 58.04-25.07 96.69v135.31c0 55.66 20.4 104.91 50.41 121.69z" fill="#d5dff4"/><path d="m406.4 52.98c-12.15 10.47-26.5 18.62-42.48 23.68l-70.94 22.43c-23.74 7.51-49.22 7.51-72.96 0l-68.56-21.68-2.38-.75c-15.98-5.06-30.33-13.21-42.48-23.68 21.09-18.19 48.52-29.22 78.54-29.32h142.3c30.18 0 57.77 11.04 78.96 29.32z" fill="#4a80aa"/><g fill="#4a80aa"><path d="m419.748 142.16-32.232-32.232c-10.707-10.707-28.068-10.707-38.775 0l-38.706 38.706c-24.934 24.934-24.934 65.359 0 90.293l36.884 36.884c11.713 11.713 30.705 11.713 42.418 0l30.411-30.411c28.508-28.509 28.508-74.731 0-103.24z"/><path d="m202.97 238.93-36.89 36.88c-6.54 6.54-15.35 9.43-23.89 8.65-6.76-.59-13.35-3.48-18.53-8.65l-30.41-30.41c-28.51-28.51-28.51-74.73 0-103.24l32.23-32.23c5.49-5.49 12.72-8.16 19.91-8.02 6.84.12 13.64 2.8 18.87 8.02l38.71 38.7c24.93 24.94 24.93 65.36 0 90.3z"/></g><path d="m142.02 275.83c0 2.9.06 5.78.17 8.63-6.76-.59-13.35-3.48-18.53-8.65l-30.41-30.41c-28.51-28.51-28.51-74.73 0-103.24l32.23-32.23c5.49-5.49 12.72-8.16 19.91-8.02-2.19 12.18-3.37 25.15-3.37 38.61z" fill="#365e7d"/><path d="m185.14 23.66c-6.6 5.14-12.66 11.96-18.05 20.17-6.23 9.5-11.53 20.86-15.63 33.58l-2.38-.75c-15.98-5.06-30.33-13.21-42.48-23.68 21.09-18.19 48.52-29.22 78.54-29.32z" fill="#365e7d"/><g><g><g><g><circle cx="374.119" cy="191.273" fill="#ffd064" r="41.481"/><circle cx="374.119" cy="191.273" fill="#2b4d66" r="23.716"/></g></g></g><g><g><g><circle cx="137.881" cy="191.273" fill="#ffd064" r="41.481"/><circle cx="137.881" cy="191.273" fill="#2b4d66" r="23.716"/></g></g></g></g><path d="m321.97 383.88c-8.49 6.36-19.14 10.24-31.12 10.24h-68.7c-11.98 0-22.63-3.88-31.12-10.24-19.94-14.93-28.07-43.56-14-67.92l34.35-59.5c20.05-34.73 70.19-34.73 90.24 0l34.35 59.5c14.07 24.36 5.94 52.99-14 67.92z" fill="#4a80aa"/><path d="m219.801 315.964c-9.257 34.739 2.314 78.157 20.836 78.157h-18.489c-40.102 0-65.174-43.419-45.123-78.157l34.354-59.502c10.026-17.369 27.579-26.049 45.123-26.049-8.096 0-16.2 8.68-20.836 26.049z" fill="#365e7d"/><path d="m321.97 383.88c-8.49 6.36-19.14 10.24-31.12 10.24h-68.7c-11.98 0-22.63-3.88-31.12-10.24 30.56-47.45 100.38-47.45 130.94 0z" fill="#2b4d66"/><g><path d="m267.732 316.159h-23.465c-17.766 0-32.169-14.402-32.169-32.169 0-17.766 14.402-32.169 32.169-32.169h23.465c17.766 0 32.169 14.403 32.169 32.169 0 17.767-14.402 32.169-32.169 32.169z" fill="#365e7d"/><path d="m265.425 316.161h-21.156c-17.772 0-32.17-14.399-32.17-32.171 0-8.88 3.597-16.923 9.422-22.748 5.814-5.814 13.856-9.422 22.748-9.422h21.156c-8.88 0-16.923 3.609-22.748 9.422-5.814 5.826-9.422 13.868-9.422 22.748 0 17.772 14.41 32.171 32.17 32.171z" fill="#2b4d66"/></g></g></svg>