<svg id="Capa_1" enable-background="new 0 0 512 512" height="512" viewBox="0 0 512 512" width="512" xmlns="http://www.w3.org/2000/svg"><g><path d="m512 256c0 51.72-15.34 99.86-41.72 140.12-15.69 23.95-35.3-7.415-57.91 10.045-43.25 33.42-97.49 53.3-156.37 53.3-40.96 0-79.68-9.62-114.01-26.73-15.02-7.48-29.2-16.4-42.36-26.57-22.61-17.46-42.22 13.905-57.91-10.045-26.38-40.26-41.72-88.4-41.72-140.12 0-139.52 111.62-252.97 250.42-255.93 3.683-.098 7.408-.086 11.1 0 138.83 2.93 250.48 116.39 250.48 255.93z" fill="#d5dff4"/><path d="m470.28 214.28v181.84c-15.69 23.95-35.3 45.12-57.91 62.58-43.25 33.42-97.49.765-156.37.765s-113.12 32.655-156.37-.765c-22.61-17.46-42.22-38.63-57.91-62.58v-181.84c0-116.5 92.96-211.28 208.76-214.21 3.68-.09 7.36-.09 11.04 0 115.8 2.93 208.76 97.71 208.76 214.21z" fill="#365e7d"/><path d="m256 0c-62.96 0-114.01 95.93-114.01 214.28v218.455c-15.02-7.48-29.2 36.135-42.36 25.965-22.61-17.46-42.22-38.63-57.91-62.58v-181.84c0-116.48 92.93-211.25 208.7-214.21 1.85-.05 3.71-.07 5.58-.07z" fill="#2b4d66"/><g><path d="m412.37 214.29v244.41c-43.25 33.42-97.49 53.3-156.37 53.3s-113.12-19.88-156.37-53.3v-244.41c0-3.32.1-6.62.31-9.9 2.15-34.21 23.34-54.37 48.44-61.03 39.38-10.48 88.37 12.26 88.37 66.04v23.28h38.5v-23.28c0-88.06 131.31-92.89 136.81-5.01.21 3.28.31 6.58.31 9.9z" fill="#f1f1f4"/></g><path d="m148.38 143.36c-4.14 22.2-6.39 46.07-6.39 70.93v270.98c-15.02-7.48-29.2-16.4-42.36-26.57v-244.41c0-3.32.1-6.62.31-9.9 2.15-34.21 23.34-54.37 48.44-61.03z" fill="#d5dff4"/><g><g><g><g><circle cx="153.493" cy="203.709" fill="#fff" r="39.804"/><circle cx="153.493" cy="203.709" fill="#2b4d66" r="28.145"/></g></g></g><g><g><g><circle cx="358.507" cy="203.709" fill="#fff" r="39.804"/><circle cx="358.507" cy="203.709" fill="#2b4d66" r="28.145"/></g></g></g></g><path d="m233.805 271.316h44.39c8.982 0 16.264 7.282 16.264 16.264v.494c0 21.24-17.219 38.459-38.459 38.459-21.24 0-38.459-17.219-38.459-38.459v-.494c0-8.982 7.282-16.264 16.264-16.264z" fill="#ffc250"/><path d="m286.774 296.973h-61.547c-12.454 0-22.55-10.096-22.55-22.55v-.685c0-29.45 23.874-53.323 53.323-53.323 29.45 0 53.323 23.874 53.323 53.323v.685c.001 12.454-10.095 22.55-22.549 22.55z" fill="#ffd064"/><path d="m252.829 296.974h-27.601c-12.452 0-22.551-10.1-22.551-22.551v-.683c0-29.455 23.873-53.328 53.328-53.328 4.779 0 9.406.628 13.806 1.81-22.768 6.069-39.533 26.832-39.533 51.518v.683c0 12.451 10.1 22.551 22.551 22.551z" fill="#ffc250"/></g></svg>