<svg id="Capa_1" enable-background="new 0 0 512 512" height="512" viewBox="0 0 512 512" width="512" xmlns="http://www.w3.org/2000/svg"><g><path d="m512 256c0 89.37-45.8 168.05-115.21 213.84-49.586-10.892-88.78-20-140.79-20-23.39 0-46.04-3.14-67.57-9.02-26.34-7.18-50.99 43.68-73.22 29.02-69.41-45.79-115.21-124.47-115.21-213.84 0-141.38 114.62-256 256-256s256 114.62 256 256z" fill="#80b4fb"/><path d="m396.79 469.84c-40.4 26.65-88.78 42.16-140.79 42.16s-100.39-15.51-140.79-42.16l33.15-137.07 12.59-52.08h190.1l12.59 52.08z" fill="#f1cb86"/><path d="m212.84 280.69-24.41 222.29c-26.34-7.18-50.99-18.48-73.22-33.14l45.75-189.15z" fill="#ecbe6b"/><path d="m441.944 188.985h-371.888c-30.714 0-55.612-24.898-55.612-55.612v-16.262c0-30.714 24.898-55.612 55.612-55.612h371.889c30.714 0 55.612 24.898 55.612 55.612v16.262c-.001 30.714-24.899 55.612-55.613 55.612z" fill="#98695e"/><path d="m497.56 117.115v16.26c0 30.71-24.9 55.61-55.62 55.61h-371.88c-30.72 0-55.62-24.9-55.62-55.61v-16.26c0-3.42.31-6.76.9-10.01 4.71 25.93 27.42 45.6 54.72 45.6h371.88c27.3 0 50.01-19.67 54.72-45.6.59 3.251.9 6.59.9 10.01z" fill="#845c52"/><path d="m363.644 332.767c-16.808 6.569-35.099 10.181-54.231 10.181h-106.827c-19.132 0-37.423-3.612-54.231-10.181l12.597-52.079h190.095z" fill="#ecbe6b"/><path d="m309.417 322.925h-106.834c-82.248 0-148.923-66.675-148.923-148.923v-10.078c-.001-82.249 66.675-148.924 148.923-148.924h106.834c82.248 0 148.923 66.675 148.923 148.923v10.078c.001 82.248-66.675 148.924-148.923 148.924z" fill="#f1cb86"/><path d="m255.454 322.934h-52.873c-82.255 0-148.921-66.678-148.921-148.933v-10.077c0-82.243 66.667-148.921 148.921-148.921h52.873c-60.834 0-110.152 49.318-110.152 110.152v87.627c0 60.834 49.318 110.152 110.152 110.152z" fill="#ecbe6b"/><g fill="#98695e"><path d="m205.152 133.516v50.388c0 10.538-8.536 19.086-19.085 19.086h-50.377c-27.736 0-50.215-22.491-50.215-50.227v-19.246c0-27.736 22.479-50.215 50.215-50.215h19.247c27.736-.002 50.215 22.477 50.215 50.214z"/><path d="m376.31 202.986h-50.38c-10.54 0-19.085-8.545-19.085-19.085v-50.38c0-27.736 22.484-50.22 50.22-50.22h19.245c27.736 0 50.22 22.484 50.22 50.22v19.245c0 27.735-22.484 50.22-50.22 50.22z"/></g><path d="m153.544 83.3c-5.315 12.896-8.237 27.035-8.237 41.852v77.837h-9.618c-27.736 0-50.215-22.491-50.215-50.227v-19.246c0-27.736 22.479-50.215 50.215-50.215h17.855z" fill="#845c52"/><g><g><g><g><circle cx="145.943" cy="143.53" fill="#fff" r="38.005"/><circle cx="145.943" cy="143.53" fill="#2b4d66" r="26.874"/></g></g></g><g><g><g><circle cx="366.057" cy="143.53" fill="#fff" r="38.005"/><circle cx="366.057" cy="143.53" fill="#2b4d66" r="26.874"/></g></g></g></g><path d="m302.465 302.259c-19.26 0-36.295-9.712-46.465-24.494-10.17 14.782-27.205 24.494-46.465 24.494-31.077 0-56.36-25.283-56.36-56.36 0-5.465 4.43-9.895 9.895-9.895s9.895 4.43 9.895 9.895c0 20.164 16.405 36.569 36.57 36.569s36.569-16.405 36.569-36.569h19.79c0 20.164 16.405 36.569 36.569 36.569s36.569-16.405 36.569-36.569c0-5.465 4.431-9.895 9.895-9.895s9.895 4.43 9.895 9.895c.002 31.077-25.281 56.36-56.357 56.36z" fill="#98695e"/><g><path d="m270.874 266.803h-29.748c-22.524 0-40.784-18.259-40.784-40.784 0-22.524 18.259-40.784 40.784-40.784h29.748c22.524 0 40.784 18.259 40.784 40.784 0 22.524-18.26 40.784-40.784 40.784z" fill="#365e7d"/><path d="m267.949 266.805h-26.822c-22.531 0-40.786-18.255-40.786-40.786 0-11.258 4.56-21.454 11.946-28.84 7.371-7.371 17.567-11.946 28.84-11.946h26.822c-11.258 0-21.454 4.575-28.84 11.946-7.371 7.386-11.946 17.582-11.946 28.84.001 22.531 18.27 40.786 40.786 40.786z" fill="#2b4d66"/></g></g></svg>