<svg id="Capa_1" enable-background="new 0 0 512 512" height="512" viewBox="0 0 512 512" width="512" xmlns="http://www.w3.org/2000/svg"><g><path d="m512 256c0 38.917-8.684 75.806-24.22 108.835-40.906 86.963-129.312 95.884-231.78 95.884s-190.875-8.921-231.78-95.884c-15.536-33.029-24.22-69.918-24.22-108.835 0-141.385 114.615-256 256-256s256 114.615 256 256z" fill="#ffd064"/><path d="m487.77 364.83c-40.9 86.96-129.31 147.17-231.77 147.17s-190.87-60.21-231.77-147.17c12.88-20.04 29.52-37.43 48.93-51.16 30.18-21.39 67.04-33.95 106.84-33.95h152c39.8 0 76.66 12.56 106.85 33.94 8.57 6.07 16.6 12.86 24.01 20.26 9.36 9.36 17.72 19.73 24.91 30.91z" fill="#98695e"/><path d="m275.6 279.72c-97.81 0-177.91 75.87-184.62 171.98-28.05-23.67-50.95-53.27-66.75-86.87 32.91-51.2 90.39-85.11 155.78-85.11z" fill="#845c52"/><path d="m154.859 207.938-57.563-25.684-68.845 154.295c-7.093 15.896.044 34.531 15.939 41.623 11.022 4.918 23.357 2.99 32.252-3.951v36.367c0 17.406 14.11 31.516 31.516 31.516 17.406 0 31.516-14.11 31.516-31.516v-168.621z" fill="#2b4d66"/><path d="m394.543 345.381-28.483 21.012-110.06 25.45-110.06-25.45-28.483-21.012c-39.624-29.231-56.533-80.254-42.21-127.363l28.193-92.724h305.12l28.193 92.724c14.323 47.109-2.586 98.132-42.21 127.363z" fill="#845c52"/><g><g><g><g><circle cx="116.488" cy="208.079" fill="#fff" r="39.846"/><circle cx="116.488" cy="208.079" fill="#2b4d66" r="28.175"/></g></g></g><g><g><g><circle cx="395.512" cy="208.079" fill="#fff" r="39.846"/><circle cx="395.512" cy="208.079" fill="#2b4d66" r="28.175"/></g></g></g></g><path d="m408.56 125.293v1.98h-37.758c-29.94 0-54.212 24.271-54.212 54.212v117.458l-60.59 30.532-60.59-30.532v-117.458c0-29.94-24.271-54.212-54.212-54.212h-37.758v-1.98l13.141-43.22c7.712-25.365 29.781-43.705 56.129-46.645l35.054-3.912c32.058-3.577 64.415-3.577 96.473 0l35.054 3.912c26.348 2.94 48.417 21.281 56.129 46.645z" fill="#98695e"/><circle cx="256" cy="402.949" fill="#98695e" r="73.466"/><path d="m274.61 474.035c-5.95 1.55-12.18 2.38-18.61 2.38-40.57 0-73.47-32.9-73.47-73.47 0-40.58 32.9-73.47 73.47-73.47 6.43 0 12.66.83 18.61 2.38-31.56 8.24-54.86 36.94-54.86 71.09 0 34.14 23.3 62.85 54.86 71.09z" fill="#845c52"/><path d="m316.163 279.72c-24.357 0-46.056 11.323-60.163 28.979-14.107-17.656-35.806-28.979-60.163-28.979-42.518 0-76.985 34.467-76.985 76.985s34.467 76.985 76.985 76.985h120.326c42.518 0 76.985-34.467 76.985-76.985s-34.467-76.985-76.985-76.985z" fill="#f1cb86"/><path d="m217.023 433.686h-21.18c-42.523 0-76.991-34.468-76.991-76.981s34.468-76.981 76.991-76.981c4.378 0 8.675.369 12.856 1.079-23.581 6.104-41.552 37.767-41.552 75.903 0 42.513 22.331 76.98 49.876 76.98z" fill="#ecbe6b"/><g fill="#2b4d66"><circle cx="195.413" cy="354.042" r="20.715"/><circle cx="316.589" cy="354.042" r="20.715"/></g><path d="m187.045 70.001v40.716c0 12.694 10.291 22.985 22.985 22.985 12.694 0 22.985-10.291 22.985-22.985v28.476c0 12.694 10.291 22.985 22.985 22.985 12.694 0 22.985-10.291 22.985-22.985v-28.476c0 12.973 10.747 23.435 23.823 22.97 12.455-.443 22.147-11.058 22.147-23.521v-40.165c0-38.083-30.872-68.955-68.955-68.955-38.083 0-68.955 30.873-68.955 68.955z" fill="#365e7d"/><path d="m255.995 1.051c6.18 0 12.16.81 17.86 2.34-11.87 3.17-22.47 9.43-30.9 17.85-12.47 12.48-20.19 29.72-20.19 48.76v40.72c0 5.47 1.92 10.51 5.13 14.46-.5.62-1.04 1.22-1.61 1.79-4.16 4.16-9.91 6.73-16.26 6.73-12.69 0-22.98-10.29-22.98-22.98v-40.72c0-19.04 7.72-36.28 20.19-48.76 12.48-12.47 29.72-20.19 48.76-20.19z" fill="#2b4d66"/><g fill="#98695e"><path d="m146.526 103.199h-54.04c-41.424 0-75.005-33.581-75.005-75.005v-13.216h54.04c41.424 0 75.005 33.581 75.005 75.005z"/><path d="m365.474 103.199h54.04c41.424 0 75.005-33.581 75.005-75.005v-13.216h-54.04c-41.424 0-75.005 33.581-75.005 75.005z"/></g><g fill="#845c52"><g><path d="m146.531 89.978v13.22h-3.26c-9.38-30.73-37.96-53.08-71.75-53.08h-50.78c-2.12-6.93-3.26-14.29-3.26-21.92v-13.22h54.04c41.42 0 75.01 33.58 75.01 75z"/><path d="m494.521 14.978v13.22c0 7.63-1.14 14.99-3.26 21.92h-50.78c-33.79 0-62.37 22.35-71.75 53.08h-3.26v-13.22c0-41.42 33.59-75 75.01-75h54.04z"/></g><g><path d="m382.147 264.798h18.27c18.276 0 33.092-14.816 33.092-33.092v-.655h-84.455v.655c.001 18.276 14.817 33.092 33.093 33.092z"/><path d="m111.583 264.798h18.27c18.276 0 33.092-14.816 33.092-33.092v-.655h-84.455v.655c0 18.276 14.816 33.092 33.093 33.092z"/></g></g></g></svg>