<svg id="Capa_1" enable-background="new 0 0 512 512" height="512" viewBox="0 0 512 512" width="512" xmlns="http://www.w3.org/2000/svg"><g><path d="m512 256c0 38.917-8.684 75.806-24.22 108.835-40.906 86.963-129.312 78.757-231.78 78.757s-190.875 8.207-231.78-78.757c-15.536-33.029-24.22-69.918-24.22-108.835 0-141.385 114.615-256 256-256s256 114.615 256 256z" fill="#80b4fb"/><path d="m487.77 364.83c-17.57 37.36-43.91 69.77-76.36 94.59-43.09 32.99-96.96 18.427-155.41 18.427s-112.32 14.563-155.41-18.427c-32.45-24.82-58.79-57.23-76.36-94.59 12.69-19.74 29.02-36.91 48.06-50.54.29-.21.58-.41.87-.62 30.18-21.39 67.04-33.95 106.84-33.95h152c39.8 0 76.66 12.56 106.85 33.94.29.21.58.41.87.63 8.25 5.9 15.98 12.48 23.14 19.63 9.36 9.36 17.72 19.73 24.91 30.91z" fill="#365e7d"/><path d="m275.6 279.72c-97.81 0-177.91 75.87-184.62 171.98-28.05-23.67-50.95-53.27-66.75-86.87 32.91-51.2 90.39-85.11 155.78-85.11z" fill="#2b4d66"/><path d="m465.604 211.461h-419.208c-25.624 0-46.396-20.772-46.396-46.396v-18.356c0-25.624 20.772-46.396 46.396-46.396h419.208c25.624 0 46.396 20.772 46.396 46.396v18.356c0 25.624-20.772 46.396-46.396 46.396z" fill="#d8e2f1"/><path d="m459.224 187.905h-406.448c-17.683 0-32.017-14.335-32.017-32.017 0-17.683 14.335-32.017 32.017-32.017h406.447c17.683 0 32.017 14.335 32.017 32.017.001 17.682-14.334 32.017-32.016 32.017z" fill="#c3d5ef"/><g><path d="m439.72 314.29c-26.43 36.95-69.69 61.02-118.58 61.02h-130.28c-48.89 0-92.15-24.07-118.57-61.02.29-.21.58-.41.87-.62 30.18-21.39 67.04-33.95 106.84-33.95h152c39.8 0 76.66 12.56 106.85 33.94.29.21.58.41.87.63z" fill="#2b4d66"/></g><g><path d="m321.145 17.033h-130.29c-80.461 0-145.688 65.227-145.688 145.688v49.141c0 80.461 65.227 145.688 145.688 145.688h130.289c80.461 0 145.688-65.227 145.688-145.688v-49.141c.001-80.461-65.226-145.688-145.687-145.688z" fill="#365e7d"/></g><g><path d="m411.41 459.42c-43.09 32.99-96.96 52.58-155.41 52.58s-112.32-19.59-155.41-52.58c24.81-19.61 56.17-31.32 90.27-31.32h130.28c34.1 0 65.46 11.71 90.27 31.32z" fill="#ebebeb"/></g><g><path d="m264.327 357.552h-73.47c-80.47 0-145.69-65.23-145.69-145.69v-49.14c0-80.47 65.22-145.69 145.69-145.69h73.47c-80.46 0-145.69 65.22-145.69 145.69v49.14c0 80.46 65.23 145.69 145.69 145.69z" fill="#2b4d66"/></g><path d="m418.24 156.891c0 42.83-34.72 77.55-77.55 77.55h-169.38c-20.32 0-38.83-7.82-52.66-20.61-.74-.69-1.47-1.39-2.18-2.1-14.03-14.04-22.71-33.43-22.71-54.84 0-31.95 19.32-59.39 46.92-71.27 9.4-4.05 19.75-6.29 30.63-6.29h169.38c21.41 0 40.8 8.68 54.84 22.72 14.03 14.03 22.71 33.43 22.71 54.84z" fill="#d8e2f1"/><g><path d="m118.64 211.861c0 .66 0 1.32.01 1.97-.74-.69-1.47-1.39-2.18-2.1-14.03-14.04-22.71-33.43-22.71-54.84 0-31.95 19.32-59.39 46.92-71.27-13.96 22.36-22.04 48.79-22.04 77.1z" fill="#c3d5ef"/></g><g><g><g><g><circle cx="161.26" cy="148.339" fill="#fff" r="48.025"/><circle cx="161.26" cy="148.339" fill="#2b4d66" r="33.959"/></g></g></g><g><g><g><circle cx="350.74" cy="148.339" fill="#fff" r="48.025"/><circle cx="350.74" cy="148.339" fill="#2b4d66" r="33.959"/></g></g></g></g><path d="m365.7 250.261c0 4.38-.32 8.69-.94 12.9-1.05 7.29-3.01 14.3-5.74 20.9-4.49 10.89-11.09 20.69-19.29 28.89-16.05 16.05-38.21 25.97-62.69 25.97h-42.08c-36.99 0-68.7-22.66-81.98-54.86-2.73-6.6-4.69-13.61-5.74-20.9-.62-4.21-.94-8.52-.94-12.9 0-24.48 9.92-46.64 25.97-62.68 16.05-16.05 38.21-25.97 62.69-25.97h42.08c48.96 0 88.66 39.69 88.66 88.65z" fill="#ebebeb"/><path d="m279.542 338.886c-.835.026-1.67.04-2.504.04h-42.085c-48.962 0-88.649-39.687-88.649-88.662 0-24.488 9.925-46.643 25.959-62.69 16.047-16.034 38.203-25.959 62.69-25.959h42.085c.835 0 1.67.013 2.504.04-23.494.636-44.709 10.428-60.199 25.919-16.047 16.047-25.972 38.202-25.972 62.69 0 48.14 38.348 87.31 86.171 88.622z" fill="#d5dff4"/><g fill="#2b4d66"><circle cx="214.245" cy="211.717" r="22.727"/><circle cx="297.755" cy="211.717" r="22.727"/></g><g fill="#d5dff4"><path d="m364.76 263.161c-1.05 7.29-3.01 14.3-5.74 20.9h-206.04c-2.73-6.6-4.69-13.61-5.74-20.9z"/><path d="m288.75 312.807h-65.5c-3.737 0-6.766-3.029-6.766-6.766 0-3.737 3.029-6.767 6.766-6.767h65.5c3.737 0 6.767 3.029 6.767 6.767-.001 3.737-3.03 6.766-6.767 6.766z"/></g></g></svg>