<svg id="Capa_1" enable-background="new 0 0 512.001 512.001" height="512" viewBox="0 0 512.001 512.001" width="512" xmlns="http://www.w3.org/2000/svg"><g><path d="m512 256.001c0 23.89-3.27 47.02-9.4 68.96-30.11 107.89-129.11 90.525-246.6 90.525-51.15 0-98.79 4.275-138.77-21.565-51.86-33.52-90.83-8.04-107.83-68.96-6.13-21.94-9.4-45.07-9.4-68.96 0-141.38 114.62-256 256-256s256 114.62 256 256z" fill="#dd636e"/><path d="m502.6 324.961c-30.11 107.89-129.11 187.04-246.6 187.04-51.15 0-98.79-15-138.77-40.84-51.86-33.52-90.83-85.28-107.83-146.2 30.11-107.89 129.11-187.04 246.6-187.04s216.49 79.15 246.6 187.04z" fill="#4a80aa"/><path d="m443.88 345.221c0 20.94-17.03 37.97-37.97 37.97h-10.37c-20.78 0-37.68 16.9-37.68 37.68v28.41c0 30.84-25.09 55.93-55.93 55.93-24.43 0-45.25-15.74-52.85-37.61-2-5.74-3.08-11.91-3.08-18.32v-41.03h20v41.03c0 6.69 1.84 12.96 5.04 18.32 6.27 10.54 17.77 17.61 30.89 17.61 19.81 0 35.93-16.12 35.93-35.93v-28.41c0-31.81 25.87-57.68 57.68-57.68h10.37c9.91 0 17.97-8.06 17.97-17.97s-8.06-17.97-17.97-17.97h-17.7c-5.52 0-10-4.48-10-10s4.48-10 10-10h17.7c20.94 0 37.97 17.03 37.97 37.97z" fill="#dd636e"/><path d="m110.49 393.921c0 26.92 2.36 52.87 6.74 77.24-51.86-33.52-90.83-85.28-107.83-146.2 30.1-107.89 129.1-187.04 246.6-187.04-80.36 0-145.51 114.62-145.51 256z" fill="#407093"/><path d="m393.356 115.304h-274.711c-41.356 0-74.882-33.526-74.882-74.882h424.475c0 41.356-33.526 74.882-74.882 74.882z" fill="#ecbe6b"/><path d="m256.001 474.38c-36.456 0-68.189-24.92-76.832-60.336l-77.173-316.204c-12.156-49.808 25.563-97.839 76.832-97.839h154.344c51.269 0 88.988 48.032 76.832 97.839l-77.172 316.205c-8.643 35.416-40.376 60.335-76.831 60.335z" fill="#f1cb86"/><g fill="#ecbe6b"><path d="m255.996 474.38c-36.45 0-68.19-24.92-76.83-60.34l-77.17-316.2c-12.16-49.81 25.56-97.84 76.83-97.84h35.7c-27.56 0-47.83 48.03-41.3 97.84l41.48 316.2c4.64 35.42 21.7 60.34 41.29 60.34z"/><path d="m307.826 304.799h-103.65c-7.621 0-13.798-6.178-13.798-13.798 0-7.621 6.178-13.798 13.798-13.798h103.65c7.621 0 13.798 6.178 13.798 13.798 0 7.621-6.178 13.798-13.798 13.798z"/><path d="m292.126 364.847h-72.252c-7.621 0-13.798-6.178-13.798-13.798 0-7.621 6.178-13.798 13.798-13.798h72.252c7.621 0 13.798 6.178 13.798 13.798.001 7.62-6.177 13.798-13.798 13.798z"/></g><g><g><g><g><circle cx="135.994" cy="148.71" fill="#fff" r="39.804"/><circle cx="135.994" cy="148.71" fill="#2b4d66" r="28.145"/></g></g></g><g><g><g><circle cx="376.007" cy="148.71" fill="#fff" r="39.804"/><circle cx="376.007" cy="148.71" fill="#2b4d66" r="28.145"/></g></g></g></g><path d="m347.891 194.439h58.025c9.711 0 17.584-7.873 17.584-17.584 0-9.711-7.873-17.584-17.584-17.584h-58.025c-9.711 0-17.584 7.873-17.584 17.584 0 9.712 7.873 17.584 17.584 17.584z" fill="#f1cb86"/><path d="m106.085 194.439h58.025c9.711 0 17.584-7.873 17.584-17.584 0-9.711-7.873-17.584-17.584-17.584h-58.025c-9.711 0-17.584 7.873-17.584 17.584 0 9.712 7.872 17.584 17.584 17.584z" fill="#ecbe6b"/><path d="m326.413 244.752h-140.825c-7.621 0-13.798-6.178-13.798-13.798 0-7.621 6.178-13.798 13.798-13.798h140.826c7.621 0 13.798 6.178 13.798 13.798 0 7.62-6.178 13.798-13.799 13.798z" fill="#ecbe6b"/><g><path d="m267.733 479.825h-23.465c-17.766 0-32.169-14.402-32.169-32.169 0-17.766 14.402-32.169 32.169-32.169h23.465c17.766 0 32.169 14.402 32.169 32.169 0 17.767-14.403 32.169-32.169 32.169z" fill="#365e7d"/><path d="m265.426 479.827h-21.156c-17.772 0-32.17-14.399-32.17-32.171 0-8.88 3.597-16.922 9.422-22.748 5.814-5.814 13.856-9.422 22.748-9.422h21.156c-8.88 0-16.923 3.609-22.748 9.422-5.814 5.826-9.422 13.868-9.422 22.748-.001 17.772 14.41 32.171 32.17 32.171z" fill="#2b4d66"/></g></g></svg>