<svg id="Capa_1" enable-background="new 0 0 512 512" height="512" viewBox="0 0 512 512" width="512" xmlns="http://www.w3.org/2000/svg"><g><path d="m512 256c0 64.59-23.92 123.593-63.385 168.634-46.923 53.552-115.82 34.314-192.615 34.314s-145.692 19.238-192.615-34.314c-39.465-45.041-63.385-104.044-63.385-168.634 0-141.385 114.615-256 256-256s256 114.615 256 256z" fill="#98695e"/><g><circle cx="407.246" cy="78.689" fill="#ffd064" r="62.615"/><circle cx="407.246" cy="78.689" fill="#ffc250" r="34.199"/><circle cx="104.754" cy="78.689" fill="#ffd064" r="62.615"/><circle cx="104.754" cy="78.689" fill="#ffc250" r="34.199"/></g><path d="m448.61 424.63c-8.69 9.92-18.14 19.16-28.25 27.63-7.93 6.66-16.27 12.84-24.98 18.49-5.65 3.69-11.44 7.14-17.39 10.36-17.14 9.31-35.45 16.72-54.67 21.94-21.45 5.84-44.02 8.95-67.32 8.95s-45.87-3.12-67.33-8.94c-19.21-5.23-37.53-12.64-54.66-21.95-5.76-3.12-11.38-6.46-16.86-10.01-.18-.11-.36-.23-.53-.35-8.71-5.65-17.05-11.83-24.98-18.48-10.11-8.47-19.56-17.72-28.25-27.64 11.61-15.39 25.99-28.56 42.39-38.8h.01c24.11-15.07 52.61-23.78 83.15-23.78h134.12c30.54 0 59.04 8.71 83.15 23.78h.01c16.4 10.24 30.78 23.41 42.39 38.8z" fill="#ffd064"/><path d="m238.73 363.57s-88.3 17.25-121.58 107.53c-20.02-12.94-38.11-28.61-53.76-46.47 28.69-38.01 74.25-62.58 125.55-62.58h46.37z" fill="#ffc250"/><path d="m483.84 287.49c0 9.13-.82 18.06-2.4 26.729-12.59 69.49-73.4 122.2-146.53 122.2h-157.82c-41.13 0-78.36-16.67-105.31-43.62-20.97-20.97-35.72-48.17-41.22-78.58-1.58-8.67-2.4-17.6-2.4-26.729 0-4.771.22-9.48.66-14.13.85-9.04 2.51-17.84 4.91-26.33 4.13-14.67 10.45-28.41 18.58-40.86 9.57-14.66 21.66-27.53 35.65-38 6.64-40.41 27.51-76.03 57.29-101.55 24.99-21.43 56.28-35.73 90.7-39.76 6.58-.77 13.27-1.17 20.05-1.17s13.47.4 20.05 1.17c75.42 8.84 135.77 66.97 147.99 141.31 13.99 10.47 26.08 23.34 35.65 38 2.85 4.36 5.47 8.88 7.86 13.54 4.43 8.65 8.04 17.79 10.72 27.32 2.4 8.49 4.06 17.29 4.91 26.33.44 4.65.66 9.36.66 14.13z" fill="#ffd064"/><circle cx="256" cy="400.592" fill="#dd6938" r="58.356"/><path d="m200.452 436.415h-23.369c-41.114 0-78.355-16.673-105.296-43.624-26.951-26.951-43.624-64.181-43.624-105.306 0-48.821 23.494-92.164 59.797-119.313 6.644-40.406 27.514-76.032 57.287-101.557 29.44-25.233 67.608-40.594 109.357-40.927-29.222.479-55.933 15.808-76.564 40.927-17.125 20.851-30.059 48.442-36.77 79.874-2.861 13.4-8.377 26.049-16.1 37.367-18.29 26.803-29.545 63.352-29.545 103.629 0 41.125 11.737 78.355 30.7 105.306 18.975 26.951 45.176 43.624 74.127 43.624z" fill="#ffc250"/><path d="m319.721 282.259c-25.797 0-101.645 0-127.442 0-45.032 0-81.538 36.506-81.538 81.538s36.506 81.538 81.538 81.538c25.797 0 48.78-11.993 63.721-30.693 14.941 18.7 37.924 30.693 63.721 30.693 45.032 0 81.538-36.506 81.538-81.538s-36.506-81.538-81.538-81.538z" fill="#ebebeb"/><path d="m203.571 444.557c-3.697.521-7.467.781-11.299.781-45.03 0-81.531-36.511-81.531-81.541s36.501-81.541 81.531-81.541c3.832 0 7.602.26 11.299.781-27.753 5.488-49.112 39.563-49.112 80.76s21.359 75.272 49.112 80.76z" fill="#d5dff4"/><g fill="#b7c8ea"><g><circle cx="195.832" cy="397.811" r="14.153"/><circle cx="167.425" cy="370.271" r="14.153"/><circle cx="204.079" cy="361.349" r="14.153"/></g><g><circle cx="316.168" cy="397.811" r="14.153"/><circle cx="344.575" cy="370.271" r="14.153"/><circle cx="307.921" cy="361.349" r="14.153"/></g></g><g><g><g><g><circle cx="166.075" cy="232.857" fill="#fff" r="45.585"/><circle cx="166.075" cy="232.857" fill="#2b4d66" r="32.233"/></g></g></g><g><g><g><circle cx="345.925" cy="232.857" fill="#fff" r="45.585"/><circle cx="345.925" cy="232.857" fill="#2b4d66" r="32.233"/></g></g></g></g><path d="m313.692 307.796c0-59.449-31.128-137.475-57.68-137.475-26.553 0-57.68 78.026-57.68 137.475" fill="#ebebeb"/><g><path d="m268.56 342.234h-25.12c-19.02 0-34.438-15.418-34.438-34.438 0-19.02 15.418-34.438 34.438-34.438h25.12c19.02 0 34.438 15.418 34.438 34.438 0 19.02-15.418 34.438-34.438 34.438z" fill="#365e7d"/><path d="m266.09 342.236h-22.648c-19.025 0-34.44-15.415-34.44-34.44 0-9.506 3.85-18.116 10.087-24.353 6.224-6.224 14.834-10.087 24.353-10.087h22.648c-9.506 0-18.116 3.863-24.353 10.087-6.224 6.237-10.087 14.846-10.087 24.353 0 19.025 15.428 34.44 34.44 34.44z" fill="#2b4d66"/></g><path d="m276.05 26.86v69.74c0 11.08-8.98 20.06-20.05 20.06s-20.05-8.98-20.05-20.06v-69.74c6.58-.77 13.27-1.17 20.05-1.17s13.47.4 20.05 1.17z" fill="#ffc250"/><g fill="#d9ab4d"><g><g><circle cx="321.027" cy="84.755" r="22.351"/><circle cx="357.964" cy="136.499" r="22.503"/><circle cx="304.846" cy="137.122" r="16.88"/><circle cx="437.75" cy="267.641" r="25.374"/><circle cx="396.038" cy="296.799" r="14.544"/><circle cx="437.394" cy="329.46" r="21.079"/></g><g><circle cx="190.973" cy="84.755" r="22.351"/><circle cx="154.036" cy="136.499" r="22.503"/><circle cx="207.154" cy="137.122" r="16.88"/><circle cx="74.25" cy="267.641" r="25.374"/><circle cx="115.962" cy="296.799" r="14.544"/><circle cx="74.606" cy="329.46" r="21.079"/></g></g><g><path d="m377.99 481.11c-17.14 9.31-35.45 16.72-54.67 21.94-.59-2.34-.9-4.79-.9-7.31 0-16.41 13.3-29.71 29.71-29.71 11.09 0 20.76 6.07 25.86 15.08z"/><path d="m420.36 452.26c-7.93 6.66-16.27 12.84-24.98 18.49-2.2-2.68-3.52-6.11-3.52-9.85 0-8.6 6.96-15.57 15.56-15.57 5.4 0 10.16 2.75 12.94 6.93z"/><path d="m189.58 495.74c0 2.53-.32 4.979-.91 7.32-19.21-5.23-37.53-12.64-54.66-21.95 5.1-9.01 14.77-15.08 25.86-15.08 16.41 0 29.71 13.3 29.71 29.71z"/><path d="m120.14 460.9c0 3.74-1.32 7.17-3.52 9.85-8.71-5.65-17.05-11.83-24.98-18.48 2.77-4.18 7.53-6.94 12.94-6.94 8.6 0 15.56 6.97 15.56 15.57z"/></g></g></g></svg>