<svg id="Capa_1" enable-background="new 0 0 512 512" height="512" viewBox="0 0 512 512" width="512" xmlns="http://www.w3.org/2000/svg"><g><path d="m512 256c0 38.917-8.684 75.806-24.22 108.835-40.906 86.963-129.312 95.21-231.78 95.21s-190.875-8.247-231.78-95.21c-15.536-33.029-24.22-69.918-24.22-108.835 0-141.385 114.615-256 256-256s256 114.615 256 256z" fill="#78d090"/><path d="m191.559 97.737-83.746-83.746c-18.655-18.655-48.899-18.655-67.554 0l-31.712 31.713c-11.396 11.396-11.396 29.872 0 41.267 11.396 11.396 29.872 11.396 41.267 0l10.766-10.765.982.982c-5.652 10.978-3.884 24.789 5.315 33.988 9.199 9.199 23.01 10.968 33.988 5.315l35.97 35.97z" fill="#b7c8ea"/><path d="m320.441 97.737 83.746-83.746c18.654-18.655 48.899-18.655 67.554 0l31.713 31.713c11.396 11.396 11.396 29.872 0 41.267-11.396 11.396-29.872 11.396-41.267 0l-10.767-10.765-.982.982c5.652 10.978 3.884 24.789-5.315 33.988-9.199 9.199-23.01 10.968-33.988 5.315l-35.97 35.97z" fill="#b7c8ea"/><path d="m487.77 364.83c-40.9 86.96-129.31 147.17-231.77 147.17s-190.87-60.21-231.77-147.17c5.87-9.14 12.53-17.73 19.88-25.67 8.76-9.47 18.49-18.02 29.05-25.49 30.18-21.39 67.04-33.95 106.84-33.95h152c39.8 0 76.66 12.56 106.85 33.94 8.57 6.07 16.6 12.86 24.01 20.26 1.71 1.71 3.39 3.45 5.03 5.23 7.35 7.95 14 16.54 19.88 25.68z" fill="#d8e2f1"/><path d="m275.6 279.72c-97.81 0-177.91 75.87-184.62 171.98-28.05-23.67-50.95-53.27-66.75-86.87 32.91-51.2 90.39-85.11 155.78-85.11z" fill="#c3d5ef"/><path d="m467.89 339.15c-29.77 47.46-82.57 79.02-142.74 79.02h-138.3c-46.5 0-88.6-18.85-119.07-49.32-8.95-8.95-16.9-18.91-23.67-29.69 8.76-9.47 18.49-18.02 29.05-25.49 30.18-21.39 67.04-33.95 106.84-33.95h152c39.8 0 76.66 12.56 106.85 33.94 8.57 6.07 16.6 12.86 24.01 20.26 1.71 1.71 3.39 3.45 5.03 5.23z" fill="#c3d5ef"/><path d="m325.15 52.836h-138.3c-93.002 0-168.394 75.393-168.394 168.394h1.5c0 93.002 73.893 167.894 166.894 167.894l86.982.5h51.318c93.002 0 168.394-75.393 168.394-168.394 0-93.002-75.392-168.394-168.394-168.394z" fill="#d8e2f1"/><path d="m299.298 332.043h-1.175c-18.005 0-32.653-14.648-32.653-32.653 0-5.231-4.24-9.471-9.471-9.471s-9.471 4.24-9.471 9.471c0 18.005-14.648 32.653-32.653 32.653h-1.175c-5.231 0-9.471 4.24-9.471 9.471s4.24 9.471 9.471 9.471h1.175c17.381 0 32.771-8.648 42.124-21.858 9.353 13.21 24.742 21.858 42.124 21.858h1.175c5.231 0 9.471-4.24 9.471-9.471s-4.24-9.471-9.471-9.471z" fill="#c3d5ef"/><path d="m154.758 340.305c30.475 30.475 72.573 49.316 119.074 49.316h-86.974c-46.502 0-88.599-18.841-119.075-49.316-30.475-30.475-49.328-72.573-49.328-119.074 0-93.003 75.399-168.391 168.402-168.391h86.974c-93.003 0-168.402 75.387-168.402 168.391.001 46.501 18.854 88.598 49.329 119.074z" fill="#c3d5ef"/><g><g><g><g><circle cx="145.519" cy="197.205" fill="#fff" r="48.401"/><circle cx="145.519" cy="197.205" fill="#2b4d66" r="34.225"/></g></g></g><g><g><g><circle cx="366.481" cy="197.205" fill="#fff" r="48.401"/><circle cx="366.481" cy="197.205" fill="#2b4d66" r="34.225"/></g></g></g></g><path d="m256 154.006c-30.277 0-54.822 24.545-54.822 54.822v37.035c0 30.277 24.545 54.822 54.822 54.822 30.277 0 54.822-24.545 54.822-54.822v-37.035c0-30.277-24.545-54.822-54.822-54.822z" fill="#365e7d"/><g fill="#2b4d66"><path d="m248.808 300.224c-26.88-3.53-47.63-26.52-47.63-54.36v-37.03c0-27.83 20.75-50.82 47.62-54.35-14.38 12.12-23.51 30.26-23.51 50.54v44.65c0 20.279 9.14 38.43 23.52 50.55z"/><g><circle cx="238.596" cy="259.807" r="13.691"/><circle cx="273.404" cy="259.807" r="13.691"/></g></g></g></svg>