<svg id="Capa_1" enable-background="new 0 0 512 512" height="512" viewBox="0 0 512 512" width="512" xmlns="http://www.w3.org/2000/svg"><g><circle cx="256" cy="256" fill="#dd636e" r="256"/><g fill="#ebebeb"><path d="m146.526 103.199h-54.04c-41.424 0-75.005-33.581-75.005-75.005v-13.216h54.04c41.424 0 75.005 33.581 75.005 75.005z"/><path d="m365.474 103.199h54.04c41.424 0 75.005-33.581 75.005-75.005v-13.216h-54.04c-41.424 0-75.005 33.581-75.005 75.005z"/></g><g fill="#d5dff4"><path d="m146.531 89.978v13.22h-3.26c-9.38-30.73-37.96-53.08-71.75-53.08h-50.78c-2.12-6.93-3.26-14.29-3.26-21.92v-13.22h54.04c41.42 0 75.01 33.58 75.01 75z"/><path d="m494.521 14.978v13.22c0 7.63-1.14 14.99-3.26 21.92h-50.78c-33.79 0-62.37 22.35-71.75 53.08h-3.26v-13.22c0-41.42 33.59-75 75.01-75h54.04z"/></g><path d="m487.77 364.83c-4.36 9.28-9.27 18.25-14.67 26.87-9.97 15.93-21.65 30.67-34.78 43.99-9.84 9.98-20.49 19.16-31.85 27.43-15.52 11.3-32.37 20.9-50.26 28.52-30.78 13.11-64.65 20.36-100.21 20.36s-69.43-7.25-100.21-20.36c-17.89-7.62-34.74-17.22-50.26-28.52-11.36-8.27-22.01-17.45-31.85-27.43-13.13-13.32-24.81-28.06-34.78-43.99-5.4-8.62-10.31-17.59-14.67-26.87 12.88-20.04 29.52-37.43 48.93-51.16 30.18-21.39 67.04-33.95 106.84-33.95h152c39.8 0 76.66 12.56 106.85 33.94 8.57 6.07 16.6 12.86 24.01 20.26 9.36 9.36 17.72 19.73 24.91 30.91z" fill="#ebebeb"/><path d="m275.6 279.72c-97.81 0-177.91 75.87-184.62 171.98-28.05-23.67-50.95-53.27-66.75-86.87 32.91-51.2 90.39-85.11 155.78-85.11z" fill="#d5dff4"/><path d="m441.71 256c-.78 21.79-7.7 42.97-19.92 61.02-7.26 10.73-16.41 20.36-27.25 28.36l-28.48 21.01-110.06 25.45-110.06-25.45-28.48-21.01c-10.84-8-19.99-17.63-27.25-28.36-12.22-18.05-19.14-39.23-19.92-61.02-.46-12.61 1.14-25.44 4.96-37.98l28.19-92.73h305.12l28.19 92.73c3.82 12.54 5.42 25.37 4.96 37.98z" fill="#d5dff4"/><g><g><g><g><circle cx="116.488" cy="208.079" fill="#fff" r="39.846"/><circle cx="116.488" cy="208.079" fill="#2b4d66" r="28.175"/></g></g></g><g><g><g><circle cx="395.512" cy="208.079" fill="#fff" r="39.846"/><circle cx="395.512" cy="208.079" fill="#2b4d66" r="28.175"/></g></g></g></g><path d="m408.56 125.29v1.98h-37.76c-29.94 0-54.21 24.27-54.21 54.21v117.46l-60.59 30.54-60.59-30.54v-117.46c0-29.94-24.27-54.21-54.21-54.21h-37.76v-1.98l13.14-43.22c1.04-3.41 2.34-6.7 3.88-9.84 8.57-17.56 24.52-30.5 43.55-35.23 2.84-.72 5.74-1.24 8.7-1.57l35.05-3.91c6.78-.76 13.58-1.35 20.39-1.78 18.55-1.2 37.15-1.2 55.7 0 6.81.43 13.61 1.02 20.39 1.78l35.05 3.91c2.96.33 5.86.85 8.7 1.57 19.03 4.73 34.98 17.67 43.55 35.23 1.54 3.14 2.84 6.43 3.88 9.84z" fill="#ebebeb"/><path d="m329.47 402.95c0 16.53-5.46 31.78-14.68 44.06-13.4 17.86-34.75 29.41-58.79 29.41s-45.39-11.55-58.79-29.41c-9.22-12.28-14.68-27.53-14.68-44.06 0-40.58 32.9-73.47 73.47-73.47s73.47 32.89 73.47 73.47z" fill="#365e7d"/><path d="m274.61 474.035c-5.95 1.55-12.18 2.38-18.61 2.38-40.57 0-73.47-32.9-73.47-73.47 0-40.58 32.9-73.47 73.47-73.47 6.43 0 12.66.83 18.61 2.38-31.56 8.24-54.86 36.94-54.86 71.09 0 34.14 23.3 62.85 54.86 71.09z" fill="#2b4d66"/><path d="m329.47 402.95c0 16.53-5.46 31.78-14.68 44.06h-117.58c-9.22-12.28-14.68-27.53-14.68-44.06 0-40.58 32.9-73.47 73.47-73.47s73.47 32.89 73.47 73.47z" fill="#2b4d66"/><path d="m316.163 279.72c-24.357 0-46.056 11.323-60.163 28.979-14.107-17.656-35.806-28.979-60.163-28.979-42.518 0-76.985 34.467-76.985 76.985s34.467 76.985 76.985 76.985h120.326c42.518 0 76.985-34.467 76.985-76.985s-34.467-76.985-76.985-76.985z" fill="#365e7d"/><path d="m217.023 433.686h-21.18c-42.523 0-76.991-34.468-76.991-76.981s34.468-76.981 76.991-76.981c4.378 0 8.675.369 12.856 1.079-23.581 6.104-41.552 37.767-41.552 75.903 0 42.513 22.331 76.98 49.876 76.98z" fill="#2b4d66"/><g fill="#2b4d66"><circle cx="195.413" cy="354.042" r="20.715"/><circle cx="316.589" cy="354.042" r="20.715"/></g><g fill="#365e7d"><path d="m283.85 29.74v145.11c0 15.38-12.47 27.85-27.85 27.85s-27.85-12.47-27.85-27.85v-145.11c18.55-1.2 37.15-1.2 55.7 0z"/><g><path d="m473.1 391.7c-9.97 15.93-21.65 30.67-34.78 43.99l-20.75-20.75c-10.88-10.87-10.88-28.51 0-39.38 10.88-10.88 28.51-10.88 39.39 0z"/><path d="m406.47 463.12c-15.52 11.3-32.37 20.9-50.26 28.52l-1.62-1.62c-10.87-10.88-10.87-28.51 0-39.39 10.88-10.87 28.51-10.87 39.39 0z"/><path d="m94.43 414.94-20.75 20.75c-13.13-13.32-24.81-28.06-34.78-43.99l16.14-16.14c10.88-10.88 28.51-10.88 39.39 0 10.88 10.87 10.88 28.51 0 39.38z"/><path d="m157.41 490.02-1.62 1.62c-17.89-7.62-34.74-17.22-50.26-28.52l12.49-12.49c10.88-10.87 28.51-10.87 39.39 0 10.87 10.88 10.87 28.51 0 39.39z"/></g><g><path d="m441.71 256c-.78 21.79-7.7 42.97-19.92 61.02-11.92-3.5-20.72-15.61-20.72-30 0-17.13 12.47-31.02 27.84-31.02z"/><path d="m110.93 287.02c0 14.39-8.8 26.5-20.72 30-12.22-18.05-19.14-39.23-19.92-61.02h12.8c15.37 0 27.84 13.89 27.84 31.02z"/></g><g><path d="m198.18 110.56c-10.88 10.87-28.51 10.87-39.39 0l-38.33-38.33c8.57-17.56 24.52-30.5 43.55-35.23l34.17 34.17c10.87 10.88 10.87 28.51 0 39.39z"/><path d="m391.54 72.23-38.33 38.33c-10.88 10.87-28.51 10.87-39.39 0-10.87-10.88-10.87-28.51 0-39.39l34.17-34.17c19.03 4.73 34.98 17.67 43.55 35.23z"/></g></g></g></svg>