<svg height="512" viewBox="0 0 64 64" width="512" xmlns="http://www.w3.org/2000/svg"><g id="flat"><path d="m55 27-7-10h-7v27h20v-13l-2-3z" fill="#e6f1fd"/><path d="m41 44h-38v-23a4 4 0 0 1 4-4h34z" fill="#cdeef6"/><path d="m3 40h38v4h-38z" fill="#b11e48"/><path d="m41 40h20v4h-20z" fill="#dd3e46"/><path d="m57 33h4v-2a3.154 3.154 0 0 0 -2-3l-4-1v4a2 2 0 0 0 2 2z" fill="#f9bb4b"/><path d="m55 27-4.2-6h-9.8v10h14z" fill="#50b4f8"/><path d="m3 36h4v4h-4z" fill="#f9bb4b"/><g fill="#dd3e46"><path d="m27 36h-24v-4h26z"/><path d="m41 36h-10l2-4h8z"/><path d="m13.641 22.769-1.282-1.538-1.359 1.133v-2.364h-2v2.364l-1.359-1.133-1.282 1.538 2.078 1.731-2.078 1.731 1.282 1.538 1.359-1.133v2.364h2v-2.364l1.359 1.133 1.282-1.538-2.078-1.731z"/></g><path d="m44 34h4v2h-4z" fill="#f9bb4b"/><path d="m27 21h10v7h-10z" fill="#2d75bb"/><path d="m17 21h10v7h-10z" fill="#50b4f8"/><path d="m28 13a2 2 0 0 1 2 2v2a0 0 0 0 1 0 0h-4a0 0 0 0 1 0 0v-2a2 2 0 0 1 2-2z" fill="#dd3e46"/><path d="m35 13h8v4h-8z" fill="#50b4f8"/><path d="m11 13h4v4h-4z" fill="#50b4f8"/><path d="m50 34h2v2h-2z" fill="#f9bb4b"/><circle cx="51" cy="46" fill="#394d5c" r="6"/><circle cx="51" cy="46" fill="#f4f4e6" r="2"/><circle cx="16" cy="46" fill="#394d5c" r="6"/><circle cx="16" cy="46" fill="#f4f4e6" r="2"/></g></svg>