<svg height="512" viewBox="0 0 64 64" width="512" xmlns="http://www.w3.org/2000/svg"><g id="flat"><path d="m29.143 39.515-3.618-6.03h2.332l3 5z" fill="#50b4f8"/><path d="m33.857 39.515-1.714-1.03 3-5h2.332z" fill="#50b4f8"/><path d="m37.629 41.929-4.821-1.929h-2.616l-4.821 1.929-.742-1.858 5-2a1 1 0 0 1 .371-.071h3a1 1 0 0 1 .371.071l5 2z" fill="#2d75bb"/><g fill="#50b4f8"><path d="m16 32h2v4.778h-2z"/><path d="m12 31.807h2v5.385h-2z" transform="matrix(.928 -.371 .371 .928 -11.883 7.296)"/><path d="m18.307 33.5h5.385v2h-5.385z" transform="matrix(.371 -.929 .929 .371 -18.829 41.199)"/><path d="m45 32h2v4.778h-2z"/><path d="m41 31.807h2v5.385h-2z" transform="matrix(.928 -.371 .371 .928 -9.809 18.066)"/><path d="m47.307 33.5h5.385v2h-5.385z" transform="matrix(.371 -.929 .929 .371 -.59 68.129)"/></g><circle cx="17" cy="46" fill="#394d5c" r="10"/><circle cx="17" cy="46" fill="#fcf05a" r="6"/><circle cx="46" cy="46" fill="#394d5c" r="10"/><circle cx="46" cy="46" fill="#fcf05a" r="6"/><circle cx="17" cy="46" fill="#f9bb4b" r="2"/><circle cx="46" cy="46" fill="#f9bb4b" r="2"/><path d="m59 28v-4l-15-4-4-6h-13v10h-24v10h8l1-2h10l1 2h17l1-2h10l1 2h9v-6z" fill="#dd3e46"/><path d="m59 24-5-1.333v5.333h5z" fill="#fcf05a"/><path d="m42 24h-11v-6h7z" fill="#f4f4e6"/><path d="m7 34h-4v-6h2a2 2 0 0 1 2 2z" fill="#fcf05a"/><path d="m32 27h4v2h-4z" fill="#f4f4e6"/><path d="m28 27h2v2h-2z" fill="#e97424"/><path d="m24 27h2v2h-2z" fill="#e97424"/><path d="m51 32s2-5-3-5a6.194 6.194 0 0 1 -4-2 2.19 2.19 0 0 0 -1 3l-4-1 2 5z" fill="#e97424"/><path d="m22 32s1-4-4-4c0 0-1 0-3-2l-2 2h-4l3 4z" fill="#e97424"/><path d="m23 8h4v16h-4z" fill="#50b4f8"/><path d="m23 17-7 7h-5l12-12z" fill="#2d75bb"/><path d="m57 28h4v6h-4z" fill="#394d5c"/></g></svg>