<svg height="512" viewBox="0 0 64 64" width="512" xmlns="http://www.w3.org/2000/svg"><g id="flat"><circle cx="18" cy="43" fill="#394d5c" r="6"/><circle cx="48" cy="43" fill="#394d5c" r="6"/><circle cx="18" cy="43" fill="#fcf05a" r="2"/><circle cx="48" cy="43" fill="#fcf05a" r="2"/><path d="m39 19h-30l2-4h26z" fill="#f9bb4b"/><path d="m61 43h-58v-11l2-4v-9h54v14l2 4z" fill="#55b56a"/><path d="m27 37h7v6h-7z" fill="#c8d952"/><path d="m34 37h7v6h-7z" fill="#8ec13f"/><path d="m55 23h4v10h-4z" fill="#eae9ce"/><path d="m45 27h10v16h-10z" fill="#8ec13f"/><path d="m45 23h10v4h-10z" fill="#3e8051"/><path d="m13 27h10v16h-10z" fill="#8ec13f"/><path d="m13 23h10v4h-10z" fill="#3e8051"/><path d="m34 23h11v10h-11z" fill="#eae9ce"/><path d="m23 23h11v10h-11z" fill="#f4f4e6"/><path d="m9 23h4v10h-4z" fill="#f4f4e6"/><path d="m3 38h3v2h-3z" fill="#dd3e46"/><g fill="#fcf05a"><path d="m3 34h3v2h-3z"/><path d="m58 38h3v2h-3z"/></g></g></svg>