<svg height="512" viewBox="0 0 64 64" width="512" xmlns="http://www.w3.org/2000/svg"><g id="flat"><path d="m60.89 32a4.144 4.144 0 0 1 .11 1v5h-58v-10l11-2h32l7 1.27z" fill="#dd3e46"/><path d="m3 30h4a2 2 0 0 1 2 2 2 2 0 0 1 -2 2h-4a0 0 0 0 1 0 0v-4a0 0 0 0 1 0 0z" fill="#fcf05a"/><path d="m3 34h4v4h-4z" fill="#f9bb4b"/><path d="m22 26h-8v-4l8 2z" fill="#66342e"/><path d="m28 26h-6v-6a2 2 0 0 1 2-2 2 2 0 0 1 2 2v2l2 2z" fill="#ad6327"/><path d="m46 26-8-8h-4l4 8z" fill="#50b4f8"/><path d="m60.89 32h-7.89v-4.73l4 .73a5.023 5.023 0 0 1 3.89 4z" fill="#fcf05a"/><path d="m22 26-1 4v8h22v-9l-2-3z" fill="#ed5867"/><path d="m24 29h4v2h-4z" fill="#f4f4e6"/><g fill="#b11e48"><path d="m12 29h2v2h-2z"/><path d="m16 29h2v2h-2z"/><path d="m43 38h-22v-5l22 2z"/></g><circle cx="49" cy="40" fill="#394d5c" r="6"/><circle cx="49" cy="40" fill="#fcf05a" r="2"/><circle cx="15" cy="40" fill="#394d5c" r="6"/><circle cx="15" cy="40" fill="#fcf05a" r="2"/></g></svg>