<svg height="512" viewBox="0 0 64 64" width="512" xmlns="http://www.w3.org/2000/svg"><g id="flat"><path d="m61 31v14h-21l-2 2h-6l-2-2h-16l-1 2h-8v-2l-2-12 .43-3 .28-2 .58-4 .71-5h37v4h13l3 6z" fill="#fcec97"/><circle cx="22" cy="47" fill="#394d5c" r="6"/><circle cx="22" cy="47" fill="#f4f4e6" r="2"/><circle cx="48" cy="47" fill="#394d5c" r="6"/><circle cx="48" cy="47" fill="#f4f4e6" r="2"/><path d="m50 23h-8v10h11v-4z" fill="#50b4f8"/><path d="m12 23h8a2 2 0 0 1 2 2v16a0 0 0 0 1 0 0h-12a0 0 0 0 1 0 0v-16a2 2 0 0 1 2-2z" fill="#f9bb4b"/><path d="m19 35h3v2h-3z" fill="#f4f4e6"/><path d="m14 27h4v4h-4z" fill="#f4f4e6"/><path d="m4.333 41h5.667v-4h-6.333z" fill="#e97424"/><path d="m10 37v-4h-7l.667 4z" fill="#dd3e46"/><path d="m22 37h35v4h-35z" fill="#55b56a"/><path d="m28 23h4a0 0 0 0 1 0 0v10a0 0 0 0 1 0 0h-4a2 2 0 0 1 -2-2v-6a2 2 0 0 1 2-2z" fill="#50b4f8"/><path d="m32 23h4a2 2 0 0 1 2 2v6a2 2 0 0 1 -2 2h-4a0 0 0 0 1 0 0v-10a0 0 0 0 1 0 0z" fill="#2d75bb"/><path d="m7 28v2h-3.57l.28-2z" fill="#55b56a"/><path d="m7 24v2h-3l.29-2z" fill="#55b56a"/><path d="m57 39h4v6h-4z" fill="#f9bb4b"/><path d="m59 33h2a0 0 0 0 1 0 0v6a0 0 0 0 1 0 0h-4a0 0 0 0 1 0 0v-4a2 2 0 0 1 2-2z" fill="#e97424"/><path d="m2 45h3v2h-3z" fill="#87cee9"/><path d="m54 11h-14l-6 2-29 2v4h37v4h17v-8z" fill="#f9bb4b"/><path d="m48 15h2a0 0 0 0 1 0 0v4a0 0 0 0 1 0 0h-2a2 2 0 0 1 -2-2 2 2 0 0 1 2-2z" fill="#dd3e46"/><path d="m50 15h2a2 2 0 0 1 2 2 2 2 0 0 1 -2 2h-2a0 0 0 0 1 0 0v-4a0 0 0 0 1 0 0z" fill="#fcf05a"/><g fill="#fcec97"><path d="m41 14h2v2h-2z"/><path d="m37 14h2v2h-2z"/></g></g></svg>