<svg height="512" viewBox="0 0 64 64" width="512" xmlns="http://www.w3.org/2000/svg"><g id="flat"><path d="m5 37v-12l7-11h23a7.328 7.328 0 0 1 5 2l8 9 11 2v10z" fill="#da1c4b"/><path d="m14 18-4 7h10v-7z" fill="#87cee9"/><path d="m20 18h7v7h-7z" fill="#32b1cc"/><path d="m27 18h9l6 7h-15z" fill="#87cee9"/><path d="m5 32h4v5h-4z" fill="#e97424"/><path d="m5 28h2a2 2 0 0 1 2 2v2a0 0 0 0 1 0 0h-4a0 0 0 0 1 0 0v-4a0 0 0 0 1 0 0z" fill="#fcf05a"/><path d="m12 14-3.025 4.754-4.975-4.754z" fill="#f9bb4b"/><path d="m3 37h58v4h-58z" fill="#7d8d9c"/><path d="m53 28a3 3 0 0 0 3 3h3v-4l-6-1.091z" fill="#fcf05a"/><path d="m51 37h-38v-4h34z" fill="#f98c96"/><g fill="#f4f4e6"><path d="m28 28h5v2h-5z"/><path d="m12 28h2v2h-2z"/><path d="m16 28h2v2h-2z"/><path d="m22 28h4v2h-4z"/></g><circle cx="13" cy="43" fill="#394d5c" r="6"/><circle cx="13" cy="43" fill="#fcf05a" r="2"/><circle cx="50" cy="43" fill="#394d5c" r="6"/><circle cx="50" cy="43" fill="#fcf05a" r="2"/></g></svg>