<svg height="512" viewBox="0 0 64 64" width="512" xmlns="http://www.w3.org/2000/svg"><g id="flat"><path d="m52 15h2v12h-2z" fill="#f9bb4b"/><path d="m41 43h-38v-24a2 2 0 0 1 2-2h36z" fill="#195c85"/><path d="m55 27-7-10h-7v26h20v-12l-2-3z" fill="#2d75bb"/><path d="m3 39h38v4h-38z" fill="#7d8d9c"/><path d="m41 39h20v4h-20z" fill="#aabece"/><path d="m57 33h4v-2a3.154 3.154 0 0 0 -2-3l-4-1v4a2 2 0 0 0 2 2z" fill="#fcf05a"/><path d="m55 27-4.2-6h-9.8v8l14 2z" fill="#87cee9"/><path d="m44 32h4v2h-4z" fill="#f4f4e6"/><path d="m7 39h-4v-8l4 3z" fill="#fcf05a"/><path d="m25 21h12v8h-12z" fill="#32b1cc"/><path d="m7 21v6l3 2h15v-8z" fill="#87cee9"/><path d="m10 32h15v2h-15z" fill="#f9bb4b"/><path d="m34 32h4v2h-4z" fill="#f4f4e6"/><path d="m27 32h2v2h-2z" fill="#f9bb4b"/><circle cx="51" cy="43" fill="#394d5c" r="6"/><circle cx="51" cy="43" fill="#fcf05a" r="2"/><circle cx="16" cy="43" fill="#394d5c" r="6"/><circle cx="16" cy="43" fill="#fcf05a" r="2"/></g></svg>