<svg height="512" viewBox="0 0 64 64" width="512" xmlns="http://www.w3.org/2000/svg"><g id="flat"><path d="m47 22h10a4 4 0 0 1 4 4v20a0 0 0 0 1 0 0h-14a0 0 0 0 1 0 0v-24a0 0 0 0 1 0 0z" fill="#e97424"/><path d="m51 26h10v8h-10z" fill="#fcf05a"/><path d="m52 22h-2v-4.586l-1.707-1.707 1.414-1.414 2.293 2.293z" fill="#50b4f8"/><path d="m3 42h44v4h-44z" fill="#7d8d9c"/><path d="m50 37h4v2h-4z" fill="#f4f4e6"/><path d="m56 37h2v2h-2z" fill="#f4f4e6"/><path d="m39 32h4v10h-4z" fill="#50b4f8"/><path d="m39 28h4v4h-4z" fill="#2d75bb"/><path d="m7 36-4 2v-6l4-2z" fill="#50b4f8"/><path d="m3 23h4v4h-4z" fill="#50b4f8"/><path d="m11 14 16-3 8 2 4 7-2 4 2 4-8 8h-7l-8-3-5-8z" fill="#f9bb4b"/><path d="m25 19.142-14.707-2.262.464 1.761-.464 2.066 7 7a1.013 1.013 0 0 0 .391.242l6.916 2.306-.285-2.2-5.775-1.929-7.04-7.037 13.1 2.011z" fill="#d3843d"/><path d="m38.305 25.044v-1.663l-7.796-2.599.175 2.167 6.692 2.231-6.77 2.901.078 2.142 8.504-3.644z" fill="#d3843d"/><circle cx="25" cy="48" fill="#394d5c" r="6"/><circle cx="25" cy="48" fill="#f4f4e6" r="2"/><circle cx="13" cy="48" fill="#394d5c" r="6"/><circle cx="13" cy="48" fill="#f4f4e6" r="2"/><circle cx="53" cy="48" fill="#394d5c" r="6"/><circle cx="53" cy="48" fill="#f4f4e6" r="2"/><path d="m23 42h-16v-6h4l12 4z" fill="#50b4f8"/><path d="m7 20h4v16h-4z" fill="#2d75bb"/><path d="m3 10h8v4h-8z" fill="#2d75bb"/><path d="m11 20h-4l-4-6h8z" fill="#50b4f8"/><path d="m43 28h-4l-2-4 2-4h4l2 4z" fill="#394d5c"/><path d="m35 13-4 9v14h-7v-16l3-9z" fill="#ffd782"/></g></svg>