<svg height="512" viewBox="0 0 64 64" width="512" xmlns="http://www.w3.org/2000/svg"><g id="flat"><path d="m58 27h3v2h-3z" fill="#50b4f8"/><circle cx="21" cy="38" fill="#394d5c" r="6"/><circle cx="44" cy="38" fill="#394d5c" r="6"/><circle cx="21" cy="38" fill="#fcf05a" r="2"/><circle cx="44" cy="38" fill="#fcf05a" r="2"/><path d="m31.943 19h12.057l7 8h-20l-1.473.925-8.991-1.696z" fill="#2d75bb"/><path d="m59 31-2 4h-2l-2 4-2-3h-14l-2 3h-5l-2-3h-14l-2 3h-2v-4h-5v-8h53z" fill="#f9bb4b"/><path d="m3 35h7v4h-7z" fill="#5a6470"/><path d="m61 39h-8l2-4h4z" fill="#5a6470"/><g fill="#50b4f8"><path d="m2 31h3v2h-3z"/><path d="m2 27h3v2h-3z"/><path d="m44 19 1 8h6z"/></g><path d="m31 29-22 2-3-7 25 3z" fill="#ffd782"/><path d="m29.943 19a14.467 14.467 0 0 0 -12.024 6.43l7.481.9c.835-2.602 3.344-7.33 10.6-7.33z" fill="#50b4f8"/><path d="m36 30h4v2h-4z" fill="#f4f4e6"/><path d="m59 31-1.25 1h-15.75v-2h16.75z" fill="#fff69a"/><path d="m61 35h-4l1-4h3z" fill="#e1462b"/></g></svg>