<svg height="512" viewBox="0 0 64 64" width="512" xmlns="http://www.w3.org/2000/svg"><g id="flat"><path d="m31.2 18.6-3-4 1.6-1.2 3.813 5.085z" fill="#415c93"/><path d="m47 28-7.172-7.172a9.656 9.656 0 0 0 -6.828-2.828h-22l-8 14v12h58v-9l-3-4z" fill="#5f79ba"/><path d="m11 18h-8l5.179 4.937z" fill="#415c93"/><path d="m55 33a4 4 0 0 0 4 4h2v-2a4.278 4.278 0 0 0 -3-4l-3-.818z" fill="#fcf05a"/><path d="m23 30h-14l4-8h10z" fill="#cdeef6"/><path d="m43 30h-20v-8h11a2.856 2.856 0 0 1 2 1z" fill="#92cdde"/><path d="m28 41h-5.371a2.021 2.021 0 0 1 -1.793-1.123 8.731 8.731 0 0 0 -7.836-4.877 8.916 8.916 0 0 0 -4.67 1.3.985.985 0 0 1 -1.3-.26 1.012 1.012 0 0 1 .3-1.472 10.9 10.9 0 0 1 5.67-1.568 10.677 10.677 0 0 1 9.355 5.48 1 1 0 0 0 .868.52h4.777a1 1 0 0 1 1 1 1 1 0 0 1 -1 1z" fill="#415c93"/><path d="m21 33h2v2h-2z" fill="#f4f4e6"/><path d="m25 33h4v2h-4z" fill="#f4f4e6"/><path d="m45.918 35a1.014 1.014 0 0 1 -.988-.866 2.646 2.646 0 0 0 -.637-1.427l-1.293-1.293a1 1 0 0 1 0-1.414 1 1 0 0 1 1.414 0l1.293 1.293a4.621 4.621 0 0 1 1.2 2.545 1 1 0 0 1 -.989 1.162z" fill="#415c93"/><path d="m49 33h2v2h-2z" fill="#e97424"/><path d="m31 39h12v2h-12z" fill="#415c93"/><path d="m43 30-4-4-4 4z" fill="#cdeef6"/><circle cx="13" cy="44" fill="#394d5c" r="6"/><circle cx="51" cy="44" fill="#394d5c" r="6"/><g fill="#fcf05a"><circle cx="13" cy="44" r="2"/><circle cx="51" cy="44" r="2"/><path d="m3 32h2a2 2 0 0 1 2 2v2a2 2 0 0 1 -2 2h-2a0 0 0 0 1 0 0v-6a0 0 0 0 1 0 0z"/></g></g></svg>