<svg height="512" viewBox="0 0 64 64" width="512" xmlns="http://www.w3.org/2000/svg"><g id="flat"><path d="m3 47v-20a4 4 0 0 1 4-4h33a6.258 6.258 0 0 1 5 2l7 7 9 3v12z" fill="#dd3e46"/><path d="m5 34h-2v8h4v-6a2 2 0 0 0 -2-2z" fill="#fcf05a"/><path d="m40 27h-8v9h16v-2l-6-6a2.856 2.856 0 0 0 -2-1z" fill="#cdeef6"/><path d="m57 42h4v5h-4z" fill="#394d5c"/><path d="m3 42h4v5h-4z" fill="#394d5c"/><path d="m55 38h6v-3l-6-2z" fill="#fcf05a"/><path d="m7 36h5v2h-5z" fill="#8ec13f"/><path d="m14 36h2v2h-2z" fill="#8ec13f"/><path d="m18 36h2v2h-2z" fill="#8ec13f"/><path d="m28 33h-18l-3-6h21z" fill="#cdeef6"/><path d="m22 36h7v2h-7z" fill="#8ec13f"/><path d="m23 42h16v2h-16z" fill="#f1997e"/><path d="m32 36h2v3h-2z" fill="#f1997e"/><path d="m36 36h2v3h-2z" fill="#f1997e"/><path d="m9 19h28v4h-28z" fill="#2d75bb"/><path d="m15 11h16a4 4 0 0 1 4 4v4a0 0 0 0 1 0 0h-24a0 0 0 0 1 0 0v-4a4 4 0 0 1 4-4z" fill="#50b4f8"/><g fill="#fcf05a"><path d="m28 14h4v2h-4z"/><path d="m14 14h4v2h-4z"/><path d="m20 14h6v2h-6z"/></g><circle cx="15" cy="47" fill="#394d5c" r="6"/><circle cx="15" cy="47" fill="#fcf05a" r="2"/><circle cx="47" cy="47" fill="#394d5c" r="6"/><circle cx="47" cy="47" fill="#fcf05a" r="2"/></g></svg>