<svg height="512" viewBox="0 0 64 64" width="512" xmlns="http://www.w3.org/2000/svg"><g id="flat"><path d="m61 45v7h-46v-11l2-11c.4-2.98 2.99-4 6-4h13c5 0 7.37 2.37 10 5l5 5 5 2a8.9 8.9 0 0 1 4.04 3z" fill="#55b56a"/><path d="m15 41h4a2 2 0 0 1 2 2 2 2 0 0 1 -2 2h-4a0 0 0 0 1 0 0v-4a0 0 0 0 1 0 0z" fill="#fcf05a"/><path d="m61 44v1h-4a2 2 0 0 1 0-4h3.04a5.227 5.227 0 0 1 .96 3z" fill="#fcf05a"/><path d="m21 30h7v7h-8z" fill="#87cee9"/><path d="m28 30h8c4.375 0 5.29 1 7 3l3 4h-18z" fill="#f4f4e6"/><path d="m46 37v6c-2.188.344-4.469 3-5 5h-7a9.4 9.4 0 0 0 -6-6v-5" fill="#8ec13f"/><path d="m31 40h4v2h-4z" fill="#f4f4e6"/><path d="m37 40h2v2h-2z" fill="#f4f4e6"/><path d="m3 12h16v4h-16z" fill="#f9bb4b"/><path d="m5 6h4v6h-4z" fill="#fcf05a"/><path d="m13 6h4v6h-4z" fill="#fcf05a"/><path d="m5 16h12v4h-12z" fill="#2d75bb"/><path d="m15 24h-8l-2-4h12z" fill="#50b4f8"/><path d="m11 44h4v6h-4z" fill="#50b4f8"/><path d="m11 48h-4a5 5 0 0 1 0-10h2a1 1 0 0 0 1-1v-1a1 1 0 0 0 -1-1h-1a4 4 0 0 1 0-8h1a1 1 0 0 0 1-1v-2h2v2a3 3 0 0 1 -3 3h-1a2 2 0 0 0 0 4h1a3 3 0 0 1 3 3v1a3 3 0 0 1 -3 3h-2a3 3 0 0 0 0 6h4z" fill="#2d75bb"/><path d="m28 7h5l-3 5h5l-7 10v-6h-5z" fill="#fcf05a"/><circle cx="51" cy="52" fill="#394d5c" r="6"/><circle cx="51" cy="52" fill="#fcf05a" r="2"/><circle cx="25" cy="52" fill="#394d5c" r="6"/><circle cx="25" cy="52" fill="#fcf05a" r="2"/></g></svg>