<svg height="512" viewBox="0 0 64 64" width="512" xmlns="http://www.w3.org/2000/svg"><g id="flat"><path d="m61 43h-16v-24h13l3 12z" fill="#50b4f8"/><path d="m57 31h-8v-8h6z" fill="#f4f4e6"/><path d="m48 34h4v2h-4z" fill="#f4f4e6"/><path d="m59 35h2a0 0 0 0 1 0 0v4a0 0 0 0 1 0 0h-2a2 2 0 0 1 -2-2 2 2 0 0 1 2-2z" fill="#fcf05a"/><path d="m3 39h42v4h-42z" fill="#5a6470"/><path d="m9 19h28a4 4 0 0 1 4 4v16a0 0 0 0 1 0 0h-36a0 0 0 0 1 0 0v-16a4 4 0 0 1 4-4z" fill="#ffd782"/><g fill="#d3843d"><path d="m9 15h6v4h-6z"/><path d="m19 15h7v4h-7z"/><path d="m30 15h6v4h-6z"/><path d="m16 19h2v20h-2z"/><path d="m27 19h2v20h-2z"/></g><path d="m55 19h-10v-5l7 1c1.87.374 3 1.093 3 3z" fill="#2d75bb"/><path d="m34 43v4h8v-4" fill="#2d75bb"/><path d="m37 43h2v4h-2z" fill="#50b4f8"/><path d="m10 29h-2v-6a1 1 0 0 1 1-1h4v2h-3z" fill="#f4f4e6"/><path d="m8 31h2v2h-2z" fill="#f4f4e6"/><path d="m36 34h2v2h-2z" fill="#f4f4e6"/><path d="m36 30h2v2h-2z" fill="#f4f4e6"/><circle cx="12" cy="45" fill="#394d5c" r="6"/><circle cx="12" cy="45" fill="#fcf05a" r="2"/><circle cx="26" cy="45" fill="#394d5c" r="6"/><circle cx="26" cy="45" fill="#fcf05a" r="2"/><circle cx="52" cy="45" fill="#394d5c" r="6"/><circle cx="52" cy="45" fill="#fcf05a" r="2"/></g></svg>