<svg height="512" viewBox="0 0 64 64" width="512" xmlns="http://www.w3.org/2000/svg"><g id="flat"><circle cx="16" cy="50" fill="#394d5c" r="6"/><circle cx="16" cy="50" fill="#f4f4e6" r="2"/><circle cx="52" cy="50" fill="#394d5c" r="6"/><circle cx="52" cy="50" fill="#f4f4e6" r="2"/><path d="m10 19h2v10h-2z" fill="#7d8d9c"/><path d="m10 17a2 2 0 0 1 2 2v2a0 0 0 0 1 0 0h-2a2 2 0 0 1 -2-2 2 2 0 0 1 2-2z" fill="#f9bb4b"/><path d="m39 26.172h2v5.657h-2z" fill="#50b4f8" transform="matrix(.707 -.707 .707 .707 -8.79 36.778)"/><path d="m50 32h-4v14h-12v-6h-27a3 3 0 0 0 -3 3v7h51v-14z" fill="#cdeef6"/><path d="m17 9h32a4 4 0 0 1 4 4v2a0 0 0 0 1 0 0h-40a0 0 0 0 1 0 0v-2a4 4 0 0 1 4-4z" fill="#ffd782"/><path d="m15 15h4v25h-4z" fill="#50b4f8"/><path d="m21 24a2 2 0 0 1 2 2v10a0 0 0 0 1 0 0h-4a0 0 0 0 1 0 0v-10a2 2 0 0 1 2-2z" fill="#ad6327"/><path d="m31 36h-2v-2.586l-1.414-1.414h-4.586v-2h5.414l2.586 2.586z" fill="#50b4f8"/><path d="m9 28h6a0 0 0 0 1 0 0v12a0 0 0 0 1 0 0h-8a0 0 0 0 1 0 0v-10a2 2 0 0 1 2-2z" fill="#cdeef6"/><path d="m7 36h-5v-6h5v2h-3v2h3z" fill="#50b4f8"/><path d="m10 31h2v2h-2z" fill="#e97424"/><path d="m10 35h2v2h-2z" fill="#e97424"/><path d="m19 36h13a2 2 0 0 1 2 2v2a0 0 0 0 1 0 0h-15a0 0 0 0 1 0 0v-4a0 0 0 0 1 0 0z" fill="#d3843d"/><path d="m46 15h4v17h-4z" fill="#50b4f8"/><path d="m46 38h-2a1 1 0 0 1 -.707-.293l-4-4a1 1 0 0 1 0-1.414l4-4a1 1 0 0 1 .707-.293h2v2h-1.586l-3 3 3 3h1.586z" fill="#f9bb4b"/><path d="m35.172 26h5.657v2h-5.657z" fill="#195c85" transform="matrix(.707 -.707 .707 .707 -7.962 34.778)"/><path d="m46 36h9v4h-9z" fill="#50b4f8"/><path d="m7 40h27a0 0 0 0 1 0 0v4a0 0 0 0 1 0 0h-30a0 0 0 0 1 0 0v-1a3 3 0 0 1 3-3z" fill="#394d5c"/><path d="m55 40-9 6v4h15a8.115 8.115 0 0 0 -1.952-5.278z" fill="#7d8d9c"/></g></svg>