<svg height="512" viewBox="0 0 64 64" width="512" xmlns="http://www.w3.org/2000/svg"><g id="flat"><path d="m5 18h6.82v2h-6.82z" fill="#87cee9"/><path d="m60.66 33a5.58 5.58 0 0 1 .34 1.92v6.08h-58v-2l1-2v-2l-1-2v-6s6-9 8-9a83 83 0 0 1 24 0l11 9 5.79 1.16z" fill="#2d75bb"/><path d="m7 32-4 1v-4h4z" fill="#fcf05a"/><path d="m16 30h4v2h-4z" fill="#f4f4e6"/><path d="m22 30h4v2h-4z" fill="#f4f4e6"/><path d="m60.66 33h-7.66l-1.21-4.84 4.21.84a6.32 6.32 0 0 1 4.66 4z" fill="#fcf05a"/><g fill="#87cee9"><path d="m46 30h2v2h-2z"/><path d="m42 30h2v2h-2z"/><path d="m61 41h-58v-2l1-2h57z"/></g><path d="m10 24-2 3h13v-6h-6c-3 0-3.887 1.331-5 3z" fill="#50b4f8"/><path d="m21 21h10c1.432 0 2.913 1.068 4 2l5 4h-19z" fill="#4da6ea"/><circle cx="47" cy="41" fill="#394d5c" r="6"/><circle cx="47" cy="41" fill="#fcf05a" r="2"/><circle cx="17" cy="41" fill="#394d5c" r="6"/><circle cx="17" cy="41" fill="#fcf05a" r="2"/></g></svg>