<svg height="512" viewBox="0 0 64 64" width="512" xmlns="http://www.w3.org/2000/svg"><g id="flat"><path d="m46 27-4-7h-29l-3 7h-3l-2 5v4h54v-8z" fill="#394d5c"/><path d="m3 36h58v4h-58z" fill="#aabece"/><path d="m5 32h4v4h-4z" fill="#fcf05a"/><path d="m56 32h3v-4l-5-.385v2.385a2 2 0 0 0 2 2z" fill="#fcf05a"/><path d="m12 31h4v2h-4z" fill="#f4f4e6"/><path d="m34 31h4v2h-4z" fill="#f4f4e6"/><path d="m9 40a5 5 0 0 0 9.8 0z" fill="#394d5c"/><path d="m46.2 40a5 5 0 0 0 9.8 0z" fill="#394d5c"/><path d="m20 28h-6l2-4h4z" fill="#32b1cc"/><path d="m20 24h8v4h-8z" fill="#87cee9"/><path d="m28 24h6v4h-6z" fill="#32b1cc"/><path d="m42 28h-8v-4h5z" fill="#87cee9"/><g fill="#7d8d9c"><path d="m21 31.303v4.697h2v-5.303l-.465-.697h-2.403z"/><path d="m44 31.303v4.697h2v-5.303l-.465-.697h-2.403z"/></g></g></svg>