<svg height="512" viewBox="0 0 64 64" width="512" xmlns="http://www.w3.org/2000/svg"><g id="flat"><path d="m8 16h7v2h-7z" fill="#eda635"/><path d="m47 26-8.586-8.586a4.828 4.828 0 0 0 -3.414-1.414h-21c-2.871 0-3.576 1.507-5 4l-6 10v10a2 2 0 0 0 2 2h54a2 2 0 0 0 2-2v-7l-3-4z" fill="#f9bb4b"/><path d="m39 28h-16l-2 4v10h22v-12z" fill="#ffd782"/><path d="m5 36h-2v-4h2a2 2 0 0 1 2 2 2 2 0 0 1 -2 2z" fill="#e97424"/><path d="m55 31a4 4 0 0 0 4 4h2v-2a4.278 4.278 0 0 0 -3-4l-3-.818z" fill="#e97424"/><path d="m23 28h-10l5-8h5z" fill="#87cee9"/><circle cx="13" cy="42" fill="#394d5c" r="6"/><circle cx="51" cy="42" fill="#394d5c" r="6"/><path d="m9 28 5-8h-5l-4.8 8z" fill="#cdeef6"/><path d="m11 31h2v2h-2z" fill="#ffd782"/><path d="m15 31h2v2h-2z" fill="#ffd782"/><path d="m24 31h4v2h-4z" fill="#f4f4e6"/><path d="m39 24-3-3a2.856 2.856 0 0 0 -2-1h-11v8h16z" fill="#cdeef6"/><path d="m43 30h-2a2 2 0 0 1 -2-2v-4l4 4z" fill="#eda635"/><path d="m46 31h2v2h-2z" fill="#ffd782"/><path d="m50 31h2v2h-2z" fill="#ffd782"/><g fill="#f4f4e6"><circle cx="13" cy="42" r="2"/><circle cx="51" cy="42" r="2"/></g></g></svg>