<svg height="512" viewBox="0 0 64 64" width="512" xmlns="http://www.w3.org/2000/svg"><g id="flat"><path d="m21.363 46.267-.107-2.073 4.203-1.401 3.147 1.059z" fill="#195c85"/><path d="m58 27-5-9a5.731 5.731 0 0 0 -5-3h-17v29h5l3-4h12l3 4h7v-13z" fill="#ceac9a"/><path d="m43 19h6l4 7v3h-10z" fill="#f4f4e6"/><path d="m57 25.2v6.8a2 2 0 0 0 2 2h2v-5l-3-2z" fill="#fcf05a"/><path d="m42 32h4v2h-4z" fill="#f4f4e6"/><path d="m3 32h28v8h-28z" fill="#995f5b"/><path d="m35 19h4v10h-4z" fill="#ffd782"/><path d="m43 40h-4a1 1 0 0 1 -1-1v-20h2v19h3z" fill="#d3843d"/><path d="m56 39h5v2h-5z" fill="#dd3e46"/><circle cx="45" cy="46" fill="#394d5c" r="6"/><circle cx="45" cy="46" fill="#fcf05a" r="2"/><path d="m25 40h6v4h-6z" fill="#50b4f8"/><path d="m3 28h28v4h-28z" fill="#ffd782"/><g fill="#f4f4e6"><path d="m6 35h2v2h-2z"/><path d="m10 35h2v2h-2z"/><path d="m26 35h2v2h-2z"/></g><path d="m31 12h2v3h-2z" fill="#fcf05a"/><circle cx="16" cy="46" fill="#394d5c" r="6"/><circle cx="16" cy="46" fill="#fcf05a" r="2"/></g></svg>