<svg height="512" viewBox="0 0 64 64" width="512" xmlns="http://www.w3.org/2000/svg"><g id="flat"><path d="m52 25-6.879-6.879a7.242 7.242 0 0 0 -5.121-2.121h-28c-3.625 0-5.55 2.073-6 5l-1 8v8a2 2 0 0 0 -2 2v1a2 2 0 0 0 2 2h56v-11l-6-5z" fill="#dd3e46"/><circle cx="15" cy="42" fill="#394d5c" r="6"/><circle cx="15" cy="42" fill="#fcf05a" r="2"/><circle cx="47" cy="42" fill="#394d5c" r="6"/><circle cx="47" cy="42" fill="#fcf05a" r="2"/><path d="m40 20h-8v9h16v-2l-6-6a2.856 2.856 0 0 0 -2-1z" fill="#cdeef6"/><path d="m54 31h7a4.37 4.37 0 0 0 -3-4l-3-1z" fill="#fcf05a"/><path d="m32 29h-9l-3-3v-6h12z" fill="#87cee9"/><path d="m5 35h3v2h-3z" fill="#f1997e"/><path d="m55 37h6v2h-6z" fill="#f1997e"/><path d="m5 29h2a2 2 0 0 1 2 2 2 2 0 0 1 -2 2h-2a0 0 0 0 1 0 0v-4a0 0 0 0 1 0 0z" fill="#fcf05a"/><path d="m20 26h-10l1-6h9z" fill="#cdeef6"/><g fill="#f1997e"><path d="m12 29h2v2h-2z"/><path d="m16 29h2v2h-2z"/><path d="m23 37h16v2h-16z"/></g><path d="m27 32h4v2h-4z" fill="#f4f4e6"/><path d="m33 32h4v2h-4z" fill="#f4f4e6"/></g></svg>