<svg height="512" viewBox="0 0 64 64" width="512" xmlns="http://www.w3.org/2000/svg"><g id="flat"><path d="m24 48h22v2h-22z" fill="#50b4f8"/><path d="m11.219 45.625-4.219-5.625 1.781-.625 4 5z" fill="#50b4f8"/><path d="m58.929 45.372-1.858-.744 2-5 1.929.372z" fill="#50b4f8"/><path d="m46 25v-5l-4-4h-16v12h-19v12h19l3 5h12l3-5h17v-12z" fill="#8ec13f"/><path d="m26 36h3l3 5h6l3-5h5v-16a4 4 0 0 0 -4-4h-16z" fill="#c8d952"/><circle cx="18" cy="48" fill="#394d5c" r="8"/><circle cx="18" cy="48" fill="#f4f4e6" r="3"/><circle cx="52" cy="48" fill="#394d5c" r="8"/><circle cx="52" cy="48" fill="#f4f4e6" r="3"/><path d="m3 28h4v6h-4z" fill="#dd3e46"/><path d="m57 34h4v-6l-4-.8z" fill="#3e8051"/><path d="m3 34h4v4h-4z" fill="#fcf05a"/><path d="m30 20h12v8h-12z" fill="#f4f4e6"/><path d="m29 31h5v2h-5z" fill="#f4f4e6"/><g fill="#3e8051"><path d="m50 25.8v8.2a2 2 0 0 0 4 0v-7.4z"/><path d="m18 28v4a2 2 0 0 0 4 0v-4z"/><path d="m13 32a2 2 0 0 0 -2 2v6h4v-6a2 2 0 0 0 -2-2z"/><path d="m18 37h2v3h-2z"/><path d="m22 37h2v3h-2z"/></g><path d="m22 9h4v4h-4z" fill="#195c85"/><path d="m30 14-4-1v-4l4-1z" fill="#f9bb4b"/><path d="m22 13h4v15h-4z" fill="#50b4f8"/><path d="m22 19h-9l-4 9h5l2-5h6z" fill="#195c85"/><path d="m41 31h2v2h-2z" fill="#ad6327"/><path d="m37 31h2v2h-2z" fill="#ad6327"/><path d="m29 45 3-4h6l3 4z" fill="#3e8051"/></g></svg>