<svg height="512" viewBox="0 0 64 64" width="512" xmlns="http://www.w3.org/2000/svg"><g id="flat"><path d="m59 29v8h-54v-12h25v-7a3 3 0 0 1 3-3h11l4 9 2.42 1.1z" fill="#2d75bb"/><path d="m3 37h58v4h-58z" fill="#7d8d9c"/><path d="m44 25h-10v-6h8z" fill="#f4f4e6"/><path d="m33 28h4v2h-4z" fill="#f4f4e6"/><path d="m5 25h4v6h-4z" fill="#fcf05a"/><path d="m12 32h17v2h-17z" fill="#87cee9"/><path d="m16 28h2v2h-2z" fill="#f98c96"/><path d="m12 28h2v2h-2z" fill="#f98c96"/><path d="m33 32h16v2h-16z" fill="#87cee9"/><path d="m54 33h5v-4l-5-2.273z" fill="#fcf05a"/><circle cx="14" cy="43" fill="#394d5c" r="6"/><circle cx="14" cy="43" fill="#fcf05a" r="2"/><circle cx="49" cy="43" fill="#394d5c" r="6"/><circle cx="49" cy="43" fill="#fcf05a" r="2"/><g fill="#195c85"><path d="m28 25h2v12h-2z"/><path d="m51 27v10h-2v-9.84l-1-3.16 2.42 1.1.53 1.58a1.185 1.185 0 0 1 .05.32z"/></g></g></svg>