<svg height="512" viewBox="0 0 64 64" width="512" xmlns="http://www.w3.org/2000/svg"><g id="flat"><path d="m17 27-4 8v12h18v-24h-8c-3.03 0-4.645 1.29-6 4z" fill="#e2e1cf"/><path d="m31 23h7c2.34 0 3.7 1.053 5 3l6 9v12h-18z" fill="#f4f4e6"/><path d="m61 47h-12v-12l8 1 4 4z" fill="#195c85"/><path d="m13 47h-10v-10l2-2h8z" fill="#195c85"/><path d="m13 35h18v12h-18z" fill="#f4f4e6"/><path d="m31 35h18v12h-18z" fill="#e2e1cf"/><path d="m21 27h10v8h-14z" fill="#50b4f8"/><path d="m39 27h-8v8h13z" fill="#2d75bb"/><path d="m16 38h4v2h-4z" fill="#f9bb4b"/><path d="m34 38h4v2h-4z" fill="#f9bb4b"/><path d="m7 41h-4v-4a2 2 0 0 1 2-2h6z" fill="#e97424"/><path d="m3 41h4v6h-4z" fill="#fcf05a"/><path d="m57 36-2-.25v3.25a2 2 0 0 0 2 2h4v-1c0-2.416-1.623-3.568-4-4z" fill="#fcf05a"/><g fill="#50b4f8"><path d="m20 42h11v2h-11z"/><path d="m34 42h15v2h-15z"/><path d="m16 42h2v2h-2z"/></g><path d="m3 47h58v4h-58z" fill="#7d8d9c"/><path d="m28 17h6v6h-6z" fill="#dd3e46"/><path d="m46 21a1.014 1.014 0 0 1 -.11-.006l-9-1 .22-1.988 6.7.745-1.61-2.151a1 1 0 0 1 .019-1.225l2.367-2.959-3.421.57a1 1 0 0 1 -1.145-.79l-.634-3.168-4.679 4.679-1.414-1.414 6-6a1 1 0 0 1 1.687.507l.811 4.05 5.044-.84a1 1 0 0 1 .946 1.611l-3.516 4.399 2.535 3.38a1 1 0 0 1 -.8 1.6z" fill="#e97424"/><path d="m16 21a1 1 0 0 1 -.8-1.6l2.535-3.38-3.516-4.395a1 1 0 0 1 .946-1.611l5.044.84.811-4.054a1 1 0 0 1 1.687-.511l6 6-1.414 1.414-4.679-4.675-.634 3.172a1 1 0 0 1 -1.145.79l-3.421-.57 2.367 2.959a1 1 0 0 1 .019 1.221l-1.613 2.151 6.7-.745.22 1.988-9 1a1.014 1.014 0 0 1 -.107.006z" fill="#e97424"/><circle cx="15" cy="51" fill="#394d5c" r="6"/><circle cx="15" cy="51" fill="#f4f4e6" r="2"/><circle cx="49" cy="51" fill="#394d5c" r="6"/><circle cx="49" cy="51" fill="#f4f4e6" r="2"/></g></svg>