<svg height="512" viewBox="0 0 64 64" width="512" xmlns="http://www.w3.org/2000/svg"><g id="flat"><path d="m51 26h-9l-4-8c-.678-1.355-2.485-2-4-2h-15a6 6 0 0 0 -6 6v22h38z" fill="#be2821"/><path d="m13 32a10 10 0 0 0 -10 10v2h20v-2a10 10 0 0 0 -10-10z" fill="#a31414"/><path d="m37 26h-13v-6h10z" fill="#cdeef6"/><path d="m19 20h5a0 0 0 0 1 0 0v6a0 0 0 0 1 0 0h-7a0 0 0 0 1 0 0v-4a2 2 0 0 1 2-2z" fill="#50b3c9"/><path d="m51 26h4v6h-4z" fill="#f9bb4b"/><path d="m59 32-4-2v-2l4-2z" fill="#ffd782"/><path d="m24 26v7c1.686 2.138 3 5 3 7h4s5 0 6-4v-10z" fill="#a31414"/><path d="m19 29h2v2h-2z" fill="#f4f4e6"/><path d="m30 29h4v2h-4z" fill="#f4f4e6"/><path d="m40 33h9v2h-9z" fill="#dc6c54"/><path d="m40 29h11v2h-11z" fill="#dc6c54"/><circle cx="13" cy="42" fill="#394d5c" r="6"/><circle cx="13" cy="42" fill="#f4f4e6" r="2"/><path d="m51 32a10.82 10.82 0 0 0 -7 3c-3 3-5 9-13 9h30v-2a10 10 0 0 0 -10-10z" fill="#a31414"/><circle cx="51" cy="42" fill="#394d5c" r="6"/><circle cx="51" cy="42" fill="#f4f4e6" r="2"/></g></svg>