<svg height="512" viewBox="0 0 64 64" width="512" xmlns="http://www.w3.org/2000/svg"><g id="flat"><path d="m8.445 23.832-2.745-1.832h-3.7v-2h4a1.006 1.006 0 0 1 .555.168l3.78 2.506z" fill="#b11e48"/><path d="m49 29-14-9a14.934 14.934 0 0 0 -7-2h-6a15.132 15.132 0 0 0 -5.683 1.342l-13.317 6.658v14a2 2 0 0 0 2 2h54a2 2 0 0 0 2-2v-7.306l-1.671-1.973z" fill="#dd3e46"/><path d="m43 30-24-2v-6h12z" fill="#e2e1c3"/><path d="m19 22-9 5 9 1z" fill="#f4f4e6"/><path d="m6 34h-3v-8l5 3z" fill="#fcf05a"/><path d="m54 35h7v-2.306a2 2 0 0 0 -1.671-1.973l-6.961-1.16z" fill="#fcf05a"/><path d="m19 28v3s6 1 6 7h10a10.849 10.849 0 0 1 8-8z" fill="#b11e48"/><path d="m10 30h2v2h-2z" fill="#b11e48"/><circle cx="15" cy="40" fill="#394d5c" r="6"/><circle cx="15" cy="40" fill="#f4f4e6" r="2"/><circle cx="45" cy="40" fill="#394d5c" r="6"/><circle cx="45" cy="40" fill="#f4f4e6" r="2"/></g></svg>