<svg height="512" viewBox="0 0 64 64" width="512" xmlns="http://www.w3.org/2000/svg"><g id="flat"><path d="m9 38 3 3h49v-8l-3-4-11-3-2-6a7.937 7.937 0 0 0 -7-5h-22c-1.976 0-3.2 1.194-4 3l-3 6z" fill="#dd3e46"/><path d="m3 24h6v12h-6z" fill="#394d5c"/><path d="m24 27h-11v-3l2-5h9z" fill="#f4f4e6"/><path d="m24 19h6v8h-6z" fill="#e2e1cc"/><path d="m30 19h7c2.084 0 3.268 1.048 4 3l2 5h-13z" fill="#f4f4e6"/><path d="m9 31h2a2 2 0 0 1 2 2v2a0 0 0 0 1 0 0h-4a0 0 0 0 1 0 0v-4a0 0 0 0 1 0 0z" fill="#fcf05a"/><path d="m9 35h4v6h-1l-3-3z" fill="#f9bb4b"/><path d="m58 29-5-1.364v3.364a2 2 0 0 0 2 2h6a4.278 4.278 0 0 0 -3-4z" fill="#fcf05a"/><path d="m13 37h48v4h-48z" fill="#f98c96"/><path d="m29 27h2v10h-2z" fill="#b11e48"/><path d="m23 30h4v2h-4z" fill="#f4f4e6"/><path d="m33 30h4v2h-4z" fill="#f4f4e6"/><g fill="#f98c96"><path d="m16 30h2v2h-2z"/><path d="m48 30h2v4h-2z"/><path d="m44 30h2v4h-2z"/></g><circle cx="22" cy="43" fill="#394d5c" r="6"/><circle cx="22" cy="43" fill="#fcf05a" r="2"/><circle cx="48" cy="43" fill="#394d5c" r="6"/><circle cx="48" cy="43" fill="#fcf05a" r="2"/></g></svg>