<svg height="512" viewBox="0 0 64 64" width="512" xmlns="http://www.w3.org/2000/svg"><g id="flat"><path d="m39 50h-12a1 1 0 0 1 -.895-.553l-2.589-5.127 2.379.233 1.723 3.447h10.764l1.718-3.447 2.133.167-2.333 4.727a1 1 0 0 1 -.9.553z" fill="#2d75bb"/><path d="m53 41h-42l-1-10 2-10h40l2 10z" fill="#f9bb4b"/><path d="m24 13h16v4h-16z" fill="#ad6327"/><path d="m29 17h6v4h-6z" fill="#d3843d"/><path d="m7 41h51v4h-51z" fill="#7d8d9c"/><path d="m58 42h4v2h-4z" fill="#50b4f8"/><path d="m2 42h5v2h-5z" fill="#50b4f8"/><path d="m2 40h2v6h-2z" fill="#2d75bb"/><path d="m56 33h2v8h-2z" fill="#2d75bb"/><g fill="#394d5c"><circle cx="20" cy="48" r="3"/><circle cx="12" cy="48" r="3"/><circle cx="54" cy="48" r="3"/><circle cx="46" cy="48" r="3"/></g><circle cx="32" cy="31" fill="#f4f4e6" r="6"/><path d="m34 32a2 2 0 0 1 -4 0c0-1.105 2-4 2-4s2 2.9 2 4z" fill="#dd3e46"/><path d="m16 24h4v2h-4z" fill="#f4f4e6"/><path d="m16 28h4v2h-4z" fill="#f4f4e6"/><path d="m16 32h4v2h-4z" fill="#f4f4e6"/><path d="m48 36h2v2h-2z" fill="#fcf05a"/><path d="m44 36h2v2h-2z" fill="#fcf05a"/><path d="m15 21h2v17h-2z" fill="#2d75bb"/><path d="m19 21h2v17h-2z" fill="#2d75bb"/></g></svg>