<svg height="512" viewBox="0 0 64 64" width="512" xmlns="http://www.w3.org/2000/svg"><g id="flat"><path d="m51 33v-7l-4-4h-10v23h24v-10z" fill="#8ec13f"/><path d="m57 39h4v-4l-6-1.2v3.2a2 2 0 0 0 2 2z" fill="#fcf05a"/><path d="m40 37h4v2h-4z" fill="#f4f4e6"/><path d="m3 41h34v4h-34z" fill="#7d8d9c"/><path d="m37 41h-28l4-4h24z" fill="#5a6470"/><path d="m40 49h-7l-2-4h11z" fill="#394d5c"/><path d="m42 18a2 2 0 0 1 2 2v2a0 0 0 0 1 0 0h-4a0 0 0 0 1 0 0v-2a2 2 0 0 1 2-2z" fill="#dd3e46"/><path d="m28 17h4v20h-4z" fill="#2d75bb"/><path d="m49 34h2v8h-2z" fill="#3e8051"/><path d="m46 37h2v2h-2z" fill="#f4f4e6"/><path d="m22 24h6v13h-6z" fill="#50b4f8"/><path d="m28 24-14-14h-6l-2 4h6l10 10z" fill="#2d75bb"/><path d="m9 34a4 4 0 0 1 -4-4h2a2 2 0 1 0 2-2 1 1 0 0 1 -1-1v-4h2v3.126a4 4 0 0 1 -1 7.874z" fill="#f9bb4b"/><path d="m7 19h4v4h-4z" fill="#e97424"/><path d="m8 14h2v5h-2z" fill="#f9bb4b"/><circle cx="23" cy="47" fill="#394d5c" r="6"/><circle cx="23" cy="47" fill="#fcf05a" r="2"/><circle cx="11" cy="47" fill="#394d5c" r="6"/><circle cx="11" cy="47" fill="#fcf05a" r="2"/><circle cx="50" cy="47" fill="#394d5c" r="6"/><circle cx="50" cy="47" fill="#fcf05a" r="2"/><path d="m41 26h10v8h-10z" fill="#cdeef6"/></g></svg>