<svg height="512" viewBox="0 0 64 64" width="512" xmlns="http://www.w3.org/2000/svg"><g id="flat"><path d="m3.768 34.64-1.536-1.28c5.306-6.367 11.664-5.391 11.933-5.346l.12 2.017a12.024 12.024 0 0 0 -10.517 4.609z" fill="#cb2e5c"/><path d="m40 29h17v12h-17z" fill="#cb2e5c"/><path d="m57 41h4v-10l-4-2z" fill="#d5716e"/><path d="m29 45h8l2-4h-12z" fill="#394d5c"/><path d="m45 25h8v4h-8z" fill="#4f97d5" transform="matrix(-1 0 0 -1 98 54)"/><path d="m52 10 3 3-4 4v8h-4v-10z" fill="#50b4f8"/><path d="m40 41h-26v-12l2-14h22l2 14z" fill="#d5716e"/><path d="m14 11h26v4h-26z" fill="#cb2e5c"/><path d="m25 29h-7v-1l1-9h6z" fill="#87cee9"/><path d="m36 29h-11v-10h9l2 9z" fill="#cdeef6"/><g fill="#f4f4e6"><path d="m43 32h2v2h-2z"/><path d="m47 32h2v2h-2z"/><path d="m51 32h2v2h-2z"/></g><path d="m32 33h8v4h-8z" fill="#fcf05a"/><path d="m23 32h6v2h-6z" fill="#f4f4e6"/><path d="m3 44a11 11 0 0 0 22 0c0-6.075-22-6.075-22 0z" fill="#394d5c"/><circle cx="49" cy="46" fill="#394d5c" r="9"/><circle cx="49" cy="46" fill="#fcf05a" r="5"/><path d="m49 48a2 2 0 1 1 2-2 2 2 0 0 1 -2 2z" fill="#d3843d"/><path d="m14 33a11 11 0 0 0 -11 11h22a11 11 0 0 0 -11-11z" fill="#cb2e5c"/><circle cx="14" cy="44" fill="#fcf05a" r="7"/><circle cx="14" cy="44" fill="#d3843d" r="3"/></g></svg>