<svg height="512" viewBox="0 0 64 64" width="512" xmlns="http://www.w3.org/2000/svg"><g id="flat"><circle cx="17" cy="46" fill="#394d5c" r="6"/><circle cx="17" cy="46" fill="#f4f4e6" r="2"/><circle cx="29" cy="46" fill="#394d5c" r="6"/><circle cx="29" cy="46" fill="#f4f4e6" r="2"/><path d="m53 46h-46v-22c0-2.343 1-5.25 6-7l3-1h16l12 1c6.159.587 9 5.813 9 12z" fill="#f98c96"/><path d="m3 31h4v12h-4z" fill="#394d5c"/><path d="m32 16h-16v-4h14z" fill="#f9bb4b"/><path d="m53 42h8v4h-8z" fill="#f9bb4b"/><path d="m48 46h2v4h-2z" fill="#87cee9"/><path d="m46 49h6v2h-6z" fill="#2d75bb"/><path d="m55 46h4v6h-4z" fill="#d3843d"/><path d="m41 24h6a2 2 0 0 1 2 2v16a0 0 0 0 1 0 0h-10a0 0 0 0 1 0 0v-16a2 2 0 0 1 2-2z" fill="#b11e48"/><path d="m39 42h10v4h-10z" fill="#394d5c"/><path d="m23 30h-12v-5c0-2.444 1.589-3.6 4-4l8-1z" fill="#991641"/><path d="m23 20h10a2 2 0 0 1 2 2v8a0 0 0 0 1 0 0h-12a0 0 0 0 1 0 0v-10a0 0 0 0 1 0 0z" fill="#b11e48"/><path d="m29 34-6-4h-16v4h14l6 4h12v-4z" fill="#ffffd1"/><g fill="#fcf05a"><path d="m10 37h2v2h-2z"/><path d="m42 27h4v2h-4z"/><path d="m42 31h4v2h-4z"/></g><path d="m45 35h4v2h-4z" fill="#f4f4e6"/><path d="m11 26h12v4h-12z" fill="#50b4f8"/><path d="m23 26h12v4h-12z" fill="#87cee9"/></g></svg>