<svg height="512" viewBox="0 0 64 64" width="512" xmlns="http://www.w3.org/2000/svg"><g id="flat"><path d="m60.7 38c-.5 2.61-3.16 4-5.7 4h-52v-24h35c5.84 0 10.77.82 14.37 4 .675.595 1.821 4.839 1.821 4.839l3.519 3.161 2.29 4z" fill="#73cac2"/><path d="m3 46h58v4h-58z" fill="#7d8d9c"/><g fill="#394d5c"><path d="m14 42h-8a4 4 0 0 0 8 0z"/><path d="m24 42h-8a4 4 0 0 0 8 0z"/><path d="m41 42h-8a4 4 0 0 0 8 0z"/><path d="m51 42h-8a4 4 0 0 0 8 0z"/></g><path d="m60.7 38h-28.7v-4h28a6.341 6.341 0 0 1 .7 4z" fill="#e97131"/><path d="m24 26h8v16h-8z" fill="#57aaa0"/><path d="m3 34h21v4h-21z" fill="#e97131"/><path d="m57.71 30h-15.71v-8h10.37c1.43 1.26 5.34 8 5.34 8z" fill="#2d75bb"/><path d="m36 22h6v8h-6z" fill="#f4f4e6"/><path d="m14 22h6v8h-6z" fill="#2d75bb"/><path d="m8 22h6v8h-6z" fill="#195c85"/><path d="m3 22h5v8h-5z" fill="#2d75bb"/><path d="m24 22h8v4h-8z" fill="#f4f4e6"/><path d="m27 33h2v2h-2z" fill="#f9bb4b"/><path d="m27 29h2v2h-2z" fill="#f9bb4b"/><path d="m33 18h-18v-4h14z" fill="#f9bb4b"/><path d="m3 14h8v4h-8z" fill="#f9bb4b"/></g></svg>