<svg height="512" viewBox="0 0 64 64" width="512" xmlns="http://www.w3.org/2000/svg"><g id="flat"><path d="m47 18h-36l-6 8v16h4v4h46v-20z" fill="#8ec13f"/><path d="m55 26v8h-50v-8l6-8h36z" fill="#eae9d0"/><path d="m55 26h6v12h-6z" fill="#394d5c"/><path d="m55 42h4v4h-4z" fill="#fcf05a"/><path d="m3 42h6v4h-6z" fill="#394d5c"/><path d="m58 29h3v2h-3z" fill="#7d8d9c"/><path d="m58 33h3v2h-3z" fill="#7d8d9c"/><path d="m14 21v2h-6.75l1.5-2z" fill="#d3d1b2"/><path d="m13 25v2h-8v-1l.75-1z" fill="#d3d1b2"/><path d="m24 30h-9l2-8h7z" fill="#50b4f8"/><path d="m5 29h7v2h-7z" fill="#d3d1b2"/><path d="m24 22h15v8h-15z" fill="#2d75bb"/><path d="m51 30h-12v-8h6l6 5z" fill="#50b4f8"/><path d="m24 34h15v12h-15z" fill="#c8d952"/><g fill="#f4f4e6"><path d="m8 37h2v2h-2z"/><path d="m12 37h2v2h-2z"/><path d="m27 37h4v2h-4z"/><path d="m42 37h10v2h-10z"/></g><path d="m15 10h28a3 3 0 0 1 3 3v1a0 0 0 0 1 0 0h-34a0 0 0 0 1 0 0v-1a3 3 0 0 1 3-3z" fill="#f9bb4b"/><path d="m15 14h4v4h-4z" fill="#ffd782"/><path d="m26 14h4v4h-4z" fill="#ffd782"/><path d="m38 14h4v4h-4z" fill="#ffd782"/><circle cx="17" cy="48" fill="#394d5c" r="6"/><circle cx="17" cy="48" fill="#fcf05a" r="2"/><circle cx="46" cy="48" fill="#394d5c" r="6"/><circle cx="46" cy="48" fill="#fcf05a" r="2"/></g></svg>