<svg height="512" viewBox="0 0 64 64" width="512" xmlns="http://www.w3.org/2000/svg"><g id="flat"><path d="m48 29a12.525 12.525 0 0 0 -5-1c-4-8-7-11-17-11-14 0-21 8.85-21 21h43z" fill="#50b4f8"/><path d="m7 38h20a10.25 10.25 0 0 0 -20 0z" fill="#4f97d5"/><path d="m37 38h21c-.927-4.564-5.162-9-10-9a11.868 11.868 0 0 0 -11 9z" fill="#4f97d5"/><rect fill="#aabece" height="4" rx="2" width="58" x="3" y="38"/><circle cx="17" cy="40" fill="#394d5c" r="6"/><circle cx="48" cy="40" fill="#394d5c" r="6"/><path d="m39 28h-10v-7h2c4 0 5.667 2.583 7 5z" fill="#f4f4e6"/><path d="m29 28h2v10h-2z" fill="#2d75bb"/><g fill="#f4f4e6"><path d="m33 31h4v2h-4z"/><path d="m25 28h-14a13.792 13.792 0 0 1 12-7h2z"/><circle cx="17" cy="40" r="2"/><circle cx="48" cy="40" r="2"/></g></g></svg>