<svg height="512" viewBox="0 0 64 64" width="512" xmlns="http://www.w3.org/2000/svg"><g id="flat"><path d="m44 28-7-9h-28l-6 12v5h52v-2h4v-4z" fill="#d3843d"/><path d="m55 36h-48v8h50v-4h-2z" fill="#ad6327"/><path d="m57 40h4v4h-4z" fill="#394d5c"/><path d="m55 34h4v6h-4z" fill="#fcf05a"/><path d="m3 36h4v4h-4z" fill="#fcf05a"/><path d="m3 40h4v4h-4z" fill="#394d5c"/><path d="m19 31h-12l4-8h11z" fill="#f4f4e6"/><path d="m30 31h-11l3-8h6z" fill="#fff"/><path d="m41 31h-11l-2-8h7z" fill="#f4f4e6"/><path d="m32 39h13v2h-13z" fill="#66342e"/><path d="m19 39h11v2h-11z" fill="#66342e"/><path d="m36 19h-2a3 3 0 0 0 -3-3h-16a3 3 0 0 0 -3 3h-2a5.006 5.006 0 0 1 5-5h16a5.006 5.006 0 0 1 5 5z" fill="#fcf05a"/><path d="m44 31h2v2h-2z" fill="#ad6327"/><path d="m48 31h2v2h-2z" fill="#ad6327"/><circle cx="17" cy="44" fill="#394d5c" r="6"/><circle cx="46" cy="44" fill="#394d5c" r="6"/><g fill="#fcf05a"><circle cx="17" cy="44" r="2"/><circle cx="46" cy="44" r="2"/></g></g></svg>