<svg id="Layer_1" enable-background="new 0 0 512 512" height="512" viewBox="0 0 512 512" width="512" xmlns="http://www.w3.org/2000/svg"><g><path d="m406.06 41.674-16.066-16.067c-5.857-5.858-5.857-15.355 0-21.213 5.858-5.857 15.356-5.857 21.213 0l5.459 5.46 5.46-5.46c5.857-5.858 15.355-5.858 21.213 0s5.858 15.355 0 21.213l-16.067 16.067c-5.857 5.858-15.36 5.852-21.212 0z" fill="#fa8c00"/><path d="m84.727 41.674-16.067-16.067c-5.858-5.858-5.858-15.355 0-21.213 5.857-5.858 15.355-5.858 21.213 0l5.46 5.46 5.459-5.46c5.858-5.858 15.355-5.858 21.213 0s5.858 15.355 0 21.213l-16.065 16.067c-5.858 5.858-15.361 5.853-21.213 0z" fill="#fa8c00"/><path d="m401.667 223.986c0-27.166-22.101-49.267-49.267-49.267-11.131 0-18.4-11.741-13.417-21.708l64.267-128.533c4.679-9.355 17.22-11.122 24.326-3.587 28.394 28.546 44.024 66.421 44.024 106.699 0 40.421-15.743 78.422-44.328 107.003-9.425 9.424-25.605 2.727-25.605-10.607z" fill="#ff321e"/><path d="m84.728 234.593c-28.585-28.581-44.328-66.582-44.328-107.003 0-40.337 15.676-78.263 44.149-106.824 7.12-7.372 19.544-5.603 24.201 3.712l64.267 128.533c4.978 9.956-2.272 21.708-13.417 21.708-27.166 0-49.267 22.101-49.267 49.267 0 13.377-16.211 20-25.605 10.607z" fill="#fd5f0f"/><path d="m416.667 327.353h-321.334c-8.284 0-15-6.716-15-15v-88.367c0-43.708 35.559-79.267 79.267-79.267h192.8c43.708 0 79.267 35.559 79.267 79.267v88.367c0 8.284-6.716 15-15 15z" fill="#fa8c00"/><path d="m431.667 312.353v-88.367c0-43.708-35.559-79.267-79.267-79.267h-96.4v182.633h160.667c8.284.001 15-6.715 15-14.999z" fill="#fd5f0f"/><path d="m344.502 273.404h-177.004c-65.886 0-119.298 53.411-119.298 119.298s53.412 119.298 119.298 119.298h177.004c65.886 0 119.298-53.411 119.298-119.298s-53.412-119.298-119.298-119.298z" fill="#ffc828"/><path d="m463.8 392.702c0-65.886-53.411-119.298-119.298-119.298h-88.502v238.596h88.502c65.886 0 119.298-53.411 119.298-119.298z" fill="#fdaa14"/><path d="m288.133 447.853h-64.267c-8.284 0-15-6.716-15-15v-49.267c0-8.284 6.716-15 15-15h64.267c8.284 0 15 6.716 15 15v49.267c0 8.284-6.716 15-15 15z" fill="#fff"/><path d="m303.133 432.853v-49.267c0-8.284-6.716-15-15-15h-32.133v79.267h32.133c8.284 0 15-6.716 15-15z" fill="#f3f3f4"/><path d="m320.267 353.586h-49.267v-33.2c0-8.284-6.716-15-15-15s-15 6.716-15 15v33.2h-49.267c-8.284 0-15 6.716-15 15s6.716 15 15 15h128.533c8.284 0 15-6.716 15-15s-6.715-15-14.999-15z" fill="#a06450"/><path d="m335.267 368.586c0-8.284-6.716-15-15-15h-49.267v-33.2c0-8.284-6.716-15-15-15v78.2h64.267c8.284 0 15-6.716 15-15z" fill="#78493c"/><circle clip-rule="evenodd" cx="159.6" cy="223.986" fill="#502f28" fill-rule="evenodd" r="15"/><circle clip-rule="evenodd" cx="352.4" cy="223.986" fill="#281414" fill-rule="evenodd" r="15"/><path d="m431.667 223.986h.01z" fill="#fa8c00"/><path d="m256 335.386c-3.837 0-7.674-1.463-10.603-4.389 0 0-10.31-10.302-23.537-23.537-13.852-13.851-17.96-34.501-10.463-52.605s25.004-29.803 44.603-29.803 37.105 11.698 44.603 29.803c7.497 18.104 3.388 38.754-10.467 52.608-13.224 13.231-23.533 23.533-23.533 23.533-2.929 2.926-6.766 4.39-10.603 4.39z" fill="#502f28"/><path d="m290.136 307.463c13.855-13.854 17.963-34.504 10.467-52.608-7.497-18.104-25.004-29.803-44.603-29.803v110.333c3.837 0 7.674-1.463 10.603-4.389 0 .001 10.309-10.302 23.533-23.533z" fill="#281414"/></g></svg>