<svg id="Layer_1" enable-background="new 0 0 512 512" height="512" viewBox="0 0 512 512" width="512" xmlns="http://www.w3.org/2000/svg"><g><path d="m448.8 319.2c34.856 0 63.2-28.344 63.2-63.184 0-50.881-18.906-105.46-61.196-147.759-20.92-20.912-39.595-39.595-39.595-39.595-4.29-4.291-10.742-5.575-16.348-3.254s-9.261 7.792-9.261 13.859v176.733c0 34.266 27.683 63.2 63.2 63.2z" fill="#78493c"/><path d="m63.2 319.2c-34.856 0-63.2-28.344-63.2-63.184 0-50.881 18.906-105.46 61.196-147.759 20.92-20.912 39.595-39.595 39.595-39.595 4.29-4.291 10.742-5.575 16.348-3.254s9.261 7.792 9.261 13.859v176.733c0 34.266-27.683 63.2-63.2 63.2z" fill="#a06450"/><path d="m400.6 447.733-289.2-.024c-8.276 0-14.987-6.703-15-14.976 0-.008 0-353.467 0-353.467 0-43.707 35.559-79.266 79.267-79.266h160.667c43.707 0 79.266 35.559 79.266 79.267v353.467c0 8.284-6.716 14.999-15 14.999z" fill="#ffc828"/><path d="m256 0v447.721l144.6.012c8.284 0 15-6.716 15-15v-353.466c0-43.708-35.559-79.267-79.267-79.267z" fill="#fdaa14"/><path d="m336.333 383.467h-160.666c-43.78 0-79.267-35.415-79.267-79.267v-64.267c0-43.77 35.414-79.267 79.267-79.267h160.667c43.779 0 79.267 35.414 79.267 79.267v64.267c-.001 43.78-35.416 79.267-79.268 79.267z" fill="#fffaaa"/><path d="m415.6 304.2v-64.267c0-43.852-35.487-79.267-79.267-79.267h-80.333v222.8h80.333c43.852.001 79.267-35.486 79.267-79.266z" fill="#ffe169"/><path d="m320.267 319.2h-16.067c-22.148 0-38.638-11.008-48.2-22.324-9.575 11.329-26.068 22.324-48.201 22.324h-16.066c-8.284 0-15-6.716-15-15s6.716-15 15-15h16.067c18.701 0 33.2-15.244 33.2-33.2v-16.067c0-8.284 6.716-15 15-15s15 6.716 15 15v16.067c0 18.215 14.73 33.2 33.2 33.2h16.066c8.284 0 15 6.716 15 15s-6.715 15-14.999 15z" fill="#a06450"/><path d="m304.2 319.2h16.066c8.284 0 15-6.716 15-15s-6.716-15-15-15h-16.066c-18.47 0-33.2-14.985-33.2-33.2v-16.067c0-8.284-6.716-15-15-15v71.943c9.562 11.316 26.052 22.324 48.2 22.324z" fill="#78493c"/><circle clip-rule="evenodd" cx="191.733" cy="111.4" fill="#502f28" fill-rule="evenodd" r="15"/><circle clip-rule="evenodd" cx="320.267" cy="111.4" fill="#281414" fill-rule="evenodd" r="15"/><path d="m264.033 254.933h-16.066c-46.596 0-55.167-42.623-55.167-54.21 0-23.959 15.713-40.056 39.1-40.056h48.2c23.387 0 39.1 16.097 39.1 40.056 0 12.715-9.458 54.21-55.167 54.21z" fill="#502f28"/><path d="m207.8 512h-96.4c-8.284 0-15-6.716-15-15v-64.267c0-8.284 6.716-15 15-15h96.4c8.284 0 15 6.716 15 15v64.267c0 8.284-6.716 15-15 15z" fill="#90837b"/><path d="m400.6 512h-96.4c-8.284 0-15-6.716-15-15v-64.267c0-8.284 6.716-15 15-15h96.4c8.284 0 15 6.716 15 15v64.267c0 8.284-6.716 15-15 15z" fill="#766d69"/><path d="m319.2 200.723c0-23.959-15.713-40.056-39.1-40.056h-24.1v94.267h8.033c45.709-.001 55.167-41.496 55.167-54.211z" fill="#281414"/><path d="m304.2 512h-96.4c-8.284 0-15-6.716-15-15v-64.267c0-8.284 6.716-15 15-15h96.4c8.284 0 15 6.716 15 15v64.267c0 8.284-6.716 15-15 15z" fill="#f3f3f4"/><path d="m319.2 497v-64.267c0-8.284-6.716-15-15-15h-48.2v94.267h48.2c8.284 0 15-6.716 15-15z" fill="#e0e0e2"/></g></svg>