<svg id="Layer_1" enable-background="new 0 0 512 512" height="512" viewBox="0 0 512 512" width="512" xmlns="http://www.w3.org/2000/svg"><g><path d="m63.204 222.801c-7.923 0-15.003-6.364-15.003-15.001v-170.837c-.001-20.381 16.581-36.963 36.962-36.963 10.418 0 20.604 4.219 27.959 11.576l89.218 89.218c4.29 4.29 5.573 10.742 3.252 16.347-2.322 5.605-7.792 9.26-13.858 9.26h-60.475c-6.529 0-12.401 3.628-15.326 9.468l-39.315 78.64c-2.584 5.163-7.833 8.292-13.414 8.292z" fill="#fd5f0f"/><path d="m448.796 222.801c-5.581 0-10.83-3.128-13.412-8.293 0 0-25.391-50.781-39.313-78.634-2.925-5.844-8.798-9.475-15.329-9.475h-60.476c-6.067 0-11.536-3.655-13.858-9.26-2.321-5.605-1.038-12.057 3.252-16.347l89.219-89.219c7.355-7.354 17.539-11.573 27.941-11.573 20.399 0 36.98 16.582 36.98 36.963v170.837c0 8.711-7.136 15.001-15.004 15.001z" fill="#ff321e"/><path d="m368.467 512h-224.934c-6.056 0-11.517-3.641-13.846-9.231l-80.333-192.8c-1.929-4.629-1.417-9.917 1.365-14.089 2.782-4.173 7.466-6.68 12.481-6.68h385.6c5.016 0 9.699 2.506 12.48 6.68 2.782 4.173 3.295 9.46 1.366 14.089l-80.334 192.8c-2.328 5.59-7.79 9.231-13.845 9.231z" fill="#fffaaa"/><path d="m382.312 502.769 80.334-192.8c1.929-4.629 1.416-9.917-1.366-14.089-2.781-4.173-7.465-6.68-12.48-6.68h-192.8v222.8h112.467c6.055 0 11.517-3.641 13.845-9.231z" fill="#ffe169"/><path d="m336.333 367.4h-160.667c-3.978 0-7.793-1.581-10.606-4.394l-43.807-43.806h-106.253c-5.199 0-10.027-2.692-12.76-7.114-2.733-4.422-2.981-9.945-.657-14.594 0 0 63.664-127.328 87.515-175.038 8.042-16.073 24.197-26.054 42.16-26.054h249.484c17.963 0 34.116 9.981 42.157 26.049 23.854 47.715 87.517 175.043 87.517 175.043 2.325 4.649 2.077 10.172-.656 14.594s-7.562 7.114-12.76 7.114h-106.254l-43.807 43.807c-2.812 2.813-6.628 4.393-10.606 4.393z" fill="#fa8c00"/><path d="m346.939 363.007 43.807-43.807h106.254c5.198 0 10.026-2.692 12.76-7.114 2.733-4.422 2.981-9.945.656-14.594 0 0-63.663-127.328-87.517-175.043-8.041-16.067-24.194-26.049-42.157-26.049h-124.742v271h80.333c3.978 0 7.794-1.58 10.606-4.393z" fill="#fd5f0f"/><path d="m222.675 420.622-57.615-57.615c-4.29-4.29-5.573-10.742-3.252-16.347 2.322-5.605 7.792-9.26 13.858-9.26h160.667c6.067 0 11.536 3.655 13.858 9.26 2.321 5.605 1.038 12.057-3.252 16.347l-57.614 57.615c-18.396 18.396-48.216 18.434-66.65 0z" fill="#502f28"/><circle clip-rule="evenodd" cx="191.733" cy="207.8" fill="#502f28" fill-rule="evenodd" r="15"/><g fill="#281414"><circle clip-rule="evenodd" cx="320.267" cy="207.8" fill-rule="evenodd" r="15"/><path d="m289.325 420.622 57.614-57.615c4.29-4.29 5.573-10.742 3.252-16.347-2.322-5.605-7.791-9.26-13.858-9.26h-80.333v97.033c12.064-.001 24.123-4.61 33.325-13.811z"/></g></g></svg>