<svg id="Layer_1" enable-background="new 0 0 512 512" height="512" viewBox="0 0 512 512" width="512" xmlns="http://www.w3.org/2000/svg"><g><path d="m400.6 206.733c-8.284 0-15-6.716-15-15 0-27.157-21.957-49.267-49.267-49.267h-40.166c-5.198 0-10.026-2.692-12.76-7.114-2.733-4.422-2.981-9.944-.656-14.594l56.233-112.466c2.54-5.082 7.735-8.292 13.416-8.292 5.683 0 10.876 3.21 13.417 8.292 0 0 26.975 53.958 40.566 81.135 6.029 12.057 9.216 25.558 9.216 39.043v63.263c.001 8.285-6.715 15-14.999 15z" fill="#b9bbbe"/><path d="m111.4 206.733c-8.284 0-15-6.716-15-15v-63.263c0-13.486 3.187-26.987 9.216-39.043 13.592-27.177 40.566-81.135 40.566-81.135 2.542-5.082 7.735-8.292 13.418-8.292 5.682 0 10.875 3.21 13.416 8.292l56.233 112.467c2.325 4.649 2.077 10.172-.656 14.594s-7.562 7.114-12.76 7.114h-40.183c-26.801 0-49.25 21.678-49.25 49.25v.016c0 8.285-6.715 15-15 15z" fill="#ccced0"/><path d="m400.6 512h-289.2c-8.284 0-15-6.716-15-15v-305.267c0-43.774 35.415-79.267 79.267-79.267h160.666c43.789 0 79.267 35.423 79.267 79.267v305.267c0 8.284-6.716 15-15 15z" fill="#e0e0e2"/><path d="m415.6 497v-305.267c0-43.844-35.478-79.267-79.267-79.267h-80.333v399.534h144.6c8.284 0 15-6.716 15-15z" fill="#ccced0"/><circle clip-rule="evenodd" cx="191.733" cy="223.867" fill="#502f28" fill-rule="evenodd" r="15"/><circle clip-rule="evenodd" cx="320.267" cy="223.867" fill="#281414" fill-rule="evenodd" r="15"/><path d="m304.2 367.4c-19.294 0-36.599-8.693-48.2-22.365-11.602 13.672-28.906 22.365-48.2 22.365-8.284 0-15-6.716-15-15s6.716-15 15-15c18.307 0 33.2-14.894 33.2-33.2v-16.067c0-8.284 6.716-15 15-15s15 6.716 15 15v16.067c0 18.306 14.894 33.2 33.2 33.2 8.284 0 15 6.716 15 15s-6.716 15-15 15z" fill="#ccced0"/><path d="m143.533 303.133h-64.266c-8.284 0-15-6.716-15-15s6.716-15 15-15h64.267c8.284 0 15 6.716 15 15s-6.717 15-15.001 15z" fill="#f3f3f4"/><path d="m432.733 303.133h-64.267c-8.284 0-15-6.716-15-15s6.716-15 15-15h64.267c8.284 0 15 6.716 15 15s-6.715 15-15 15z" fill="#e0e0e2"/><path d="m143.533 367.4h-64.266c-8.284 0-15-6.716-15-15s6.716-15 15-15h64.267c8.284 0 15 6.716 15 15s-6.717 15-15.001 15z" fill="#f3f3f4"/><path d="m432.733 367.4h-64.267c-8.284 0-15-6.716-15-15s6.716-15 15-15h64.267c8.284 0 15 6.716 15 15s-6.715 15-15 15z" fill="#e0e0e2"/><path d="m357.63 512h-203.26c-5.146 0-9.934-2.638-12.682-6.989s-3.074-9.807-.864-14.454c13.901-29.222 51.281-72.823 115.176-72.823 63.899 0 101.275 43.603 115.176 72.823 2.21 4.647 1.884 10.104-.864 14.454-2.749 4.351-7.536 6.989-12.682 6.989z" fill="#f3f3f4"/><path d="m370.312 505.011c2.748-4.351 3.074-9.807.864-14.454-13.9-29.22-51.277-72.823-115.176-72.823v94.266h101.63c5.146 0 9.933-2.638 12.682-6.989z" fill="#e0e0e2"/><path d="m304.2 367.4c8.284 0 15-6.716 15-15s-6.716-15-15-15c-18.307 0-33.2-14.894-33.2-33.2v-16.067c0-8.284-6.716-15-15-15v71.902c11.602 13.672 28.906 22.365 48.2 22.365z" fill="#b9bbbe"/><path d="m272.066 303.133h-32.133c-8.284 0-15-6.716-15-15s6.716-15 15-15h32.133c8.284 0 15 6.716 15 15s-6.715 15-15 15z" fill="#502f28"/><path d="m256 303.133h16.066c8.284 0 15-6.716 15-15s-6.716-15-15-15h-16.066z" fill="#281414"/></g></svg>