<svg id="Layer_1" enable-background="new 0 0 512 512" height="512" viewBox="0 0 512 512" width="512" xmlns="http://www.w3.org/2000/svg"><g><path d="m464.87 174.601c-3.904 0-7.74-1.524-10.61-4.394l-96.4-96.4c-2.955-2.954-4.543-7.007-4.382-11.182.16-4.175 2.054-8.094 5.227-10.813 0 0 30.897-26.485 46.893-40.191 8.731-7.492 19.888-11.621 31.409-11.621 23.64 0 42.86 19.22 42.86 42.844v116.756c0 6.067-3.655 11.537-9.26 13.858-1.856.769-3.805 1.143-5.737 1.143z" fill="#fa8c00"/><path d="m47.13 174.601c-1.932 0-3.881-.374-5.737-1.142-5.605-2.322-9.26-7.792-9.26-13.858v-116.757c0-23.624 19.22-42.844 42.844-42.844 11.537 0 22.694 4.129 31.433 11.626 15.988 13.7 46.886 40.186 46.886 40.186 3.172 2.719 5.066 6.638 5.227 10.813s-1.428 8.228-4.382 11.182l-96.4 96.4c-2.87 2.869-6.707 4.394-10.611 4.394z" fill="#fdaa14"/><path d="m464.867 512h-417.734c-8.284 0-15-6.716-15-15v-176.733c0-8.284 6.716-15 15-15h417.733c8.284 0 15 6.716 15 15v176.733c.001 8.284-6.715 15-14.999 15z" fill="#fffaaa"/><path d="m479.867 497v-176.733c0-8.284-6.716-15-15-15h-208.867v206.733h208.867c8.284 0 15-6.716 15-15z" fill="#ffe169"/><path d="m320.267 354.533h-128.534c-8.284 0-15 6.716-15 15v31.066c0 26.031 21.103 47.134 47.134 47.134h64.265c26.032 0 47.134-21.103 47.134-47.134v-31.066c.001-8.284-6.715-15-14.999-15z" fill="#ffe169"/><path d="m335.267 400.599v-31.066c0-8.284-6.716-15-15-15h-64.267v93.2h32.132c26.032 0 47.135-21.102 47.135-47.134z" fill="#ffc828"/><path d="m323.528 399.533c-27.196 0-52.427-13.504-67.502-36.123-.008-.012-.016-.024-.024-.037l-.021.032c-15.083 22.622-40.32 36.127-67.509 36.127-38.456 0-69.57-28.314-75.11-64.267h-98.362c-8.284 0-15-6.716-15-15v-128.532c0-3.978 1.581-7.793 4.394-10.606l128.533-128.533c2.813-2.813 6.628-4.394 10.606-4.394h224.934c3.978 0 7.793 1.58 10.606 4.394l128.533 128.533c2.813 2.813 4.394 6.628 4.394 10.606v128.533c0 8.284-6.716 15-15 15h-98.362c-5.539 35.947-36.649 64.267-75.11 64.267z" fill="#ffc828"/><path d="m256.026 363.411c15.075 22.619 40.307 36.123 67.502 36.123 38.461 0 69.571-28.32 75.11-64.267h98.362c8.284 0 15-6.716 15-15v-128.534c0-3.978-1.581-7.793-4.394-10.606l-128.533-128.533c-2.813-2.813-6.628-4.394-10.606-4.394h-112.467v315.176l.001-.002c.009.013.017.024.025.037z" fill="#fdaa14"/><circle clip-rule="evenodd" cx="336.333" cy="191.733" fill="#281414" fill-rule="evenodd" r="15"/><g fill="#502f28"><circle clip-rule="evenodd" cx="175.667" cy="191.733" fill-rule="evenodd" r="15"/><path d="m256 351.333c-2.298 0-4.597-.528-6.708-1.583l-32.133-16.067c-7.41-3.705-10.413-12.715-6.708-20.125 3.705-7.409 12.715-10.412 20.125-6.708l25.424 12.713 25.425-12.713c7.41-3.706 16.419-.701 20.125 6.708 3.705 7.41.702 16.42-6.708 20.125l-32.133 16.067c-2.112 1.056-4.411 1.583-6.709 1.583z"/><path d="m288.133 127.467c-8.284 0-15-6.716-15-15v-64.267h30v64.267c0 8.284-6.716 15-15 15z"/></g><path d="m223.867 127.467c-8.284 0-15-6.716-15-15v-64.267h30v64.267c0 8.284-6.716 15-15 15z" fill="#78493c"/><path d="m98.362 271c-8.284 0-15 6.716-15 15v49.267h30v-49.267c0-8.284-6.716-15-15-15z" fill="#fdaa14"/><path d="m413.638 271c-8.284 0-15 6.716-15 15v49.267h30v-49.267c0-8.284-6.716-15-15-15z" fill="#fa8c00"/><path d="m64.267 271c8.284 0 15-6.716 15-15s-6.716-15-15-15h-64.267v30z" fill="#78493c"/><path d="m0 191.733v15h64.267c8.284 0 15-6.716 15-15s-6.716-15-15-15h-55.48l-4.394 4.394c-2.812 2.813-4.393 6.628-4.393 10.606z" fill="#78493c"/><path d="m447.733 271c-8.284 0-15-6.716-15-15s6.716-15 15-15h64.267v30z" fill="#502f28"/><path d="m512 191.733v15h-64.267c-8.284 0-15-6.716-15-15s6.716-15 15-15h55.479l4.394 4.394c2.813 2.813 4.394 6.628 4.394 10.606z" fill="#502f28"/><path d="m294.842 333.683c7.41-3.705 10.413-12.715 6.708-20.125-3.706-7.409-12.715-10.414-20.125-6.708l-25.425 12.713v31.771c2.298 0 4.597-.528 6.708-1.583z" fill="#281414"/></g></svg>