<svg id="Layer_1" enable-background="new 0 0 512 512" height="512" viewBox="0 0 512 512" width="512" xmlns="http://www.w3.org/2000/svg"><g><path d="m448.8 160.667h-176.391c7.062-37.74 40.232-66.4 79.991-66.4h32.149c43.699-.001 79.25-35.553 79.25-79.25.001-8.285-6.715-15.017-14.999-15.017h-96.4c-41.165 0-77.115 22.287-96.4 55.498-19.285-33.211-55.235-55.498-96.4-55.498h-96.4c-8.284 0-15 6.732-15 15.016 0 43.698 35.551 79.25 79.25 79.25h32.15c39.759 0 72.929 28.659 79.991 66.4h-176.391c-8.284 0-15 6.716-15 15v289.2c0 3.978 1.581 7.793 4.394 10.606l32.133 32.133c5.857 5.858 15.355 5.858 21.213 0l21.527-21.526 21.527 21.526c5.857 5.858 15.355 5.858 21.213 0l21.527-21.526 21.527 21.526c5.857 5.858 15.355 5.858 21.213 0l21.526-21.525 21.527 21.526c5.857 5.858 15.355 5.858 21.213 0l21.527-21.526 21.527 21.526c5.857 5.858 15.355 5.858 21.213 0l21.527-21.526 21.527 21.526c5.856 5.857 15.355 5.859 21.213 0l32.133-32.133c2.813-2.813 4.394-6.628 4.394-10.606v-289.2c-.001-8.285-6.717-15-15.001-15z" fill="#a06450"/><path d="m277.527 507.606c5.857 5.858 15.355 5.858 21.213 0l21.527-21.526 21.527 21.526c5.857 5.858 15.355 5.858 21.213 0l21.527-21.526 21.527 21.526c5.856 5.857 15.355 5.859 21.213 0l32.133-32.133c2.813-2.813 4.394-6.628 4.394-10.606v-289.2c0-8.284-6.716-15-15-15h-176.392c7.062-37.74 40.232-66.4 79.991-66.4h32.149c43.699-.001 79.25-35.553 79.25-79.25.001-8.285-6.715-15.017-14.999-15.017h-96.4c-41.165 0-77.115 22.287-96.4 55.498v430.582z" fill="#78493c"/><path d="m256 335.267c-3.979 0-7.794-1.581-10.607-4.394l-56.731-56.734c-3.483-3.483-5.034-8.455-4.149-13.301s4.093-8.948 8.582-10.976c21.166-9.559 47.905-34.176 47.905-74.18v-.016c0-8.284 6.716-15 15-15s15 6.716 15 15c0 40.083 26.706 64.621 47.905 74.196 4.489 2.027 7.697 6.13 8.582 10.976s-.666 9.818-4.149 13.301l-56.731 56.734c-2.813 2.813-6.628 4.394-10.607 4.394z" fill="#ffc828"/><path d="m266.607 330.873 56.731-56.734c3.483-3.483 5.034-8.455 4.149-13.301s-4.093-8.948-8.582-10.976c-21.199-9.574-47.905-34.113-47.905-74.195 0-8.284-6.716-15-15-15v174.6c3.979 0 7.794-1.581 10.607-4.394z" fill="#fdaa14"/><path d="m352.4 64.267c-41.117 0-77.099 22.394-96.4 55.623-19.301-33.229-55.283-55.623-96.4-55.623-61.426 0-111.4 49.974-111.4 111.4s49.974 111.4 111.4 111.4c41.117 0 77.099-22.394 96.4-55.623 19.301 33.229 55.283 55.623 96.4 55.623 61.426 0 111.4-49.974 111.4-111.4s-49.974-111.4-111.4-111.4z" fill="#502f28"/><circle cx="159.6" cy="175.667" fill="#78493c" r="81.4"/><circle cx="159.6" cy="175.667" fill="#fff" r="47.133"/><circle cx="159.6" cy="175.667" fill="#502f28" r="17.133"/><circle cx="352.4" cy="175.667" fill="#78493c" r="81.4"/><circle cx="352.4" cy="175.667" fill="#fff" r="47.133"/><circle cx="352.4" cy="175.667" fill="#502f28" r="17.133"/><path d="m463.8 378.32-4.394-4.393c-5.857-5.858-15.355-5.858-21.213 0l-21.527 21.526-21.527-21.526c-5.857-5.858-15.355-5.858-21.213 0l-21.526 21.526-21.527-21.526c-5.857-5.858-15.355-5.858-21.213 0l-21.527 21.526-21.527-21.526c-5.857-5.858-15.355-5.858-21.213 0l-21.527 21.526-21.527-21.526c-5.857-5.858-15.355-5.858-21.213 0l-21.526 21.526-21.527-21.526c-5.857-5.858-15.355-5.858-21.213 0l-21.527 21.526-21.527-21.526c-5.857-5.858-15.355-5.858-21.213 0l-4.393 4.393v42.426l15-15 21.527 21.526c5.857 5.858 15.355 5.858 21.213 0l21.527-21.526 21.527 21.526c5.857 5.858 15.355 5.858 21.213 0l21.527-21.526 21.527 21.526c5.857 5.858 15.355 5.858 21.213 0l21.526-21.525 21.527 21.526c5.857 5.858 15.355 5.858 21.213 0l21.527-21.526 21.527 21.526c5.857 5.858 15.355 5.858 21.213 0l21.527-21.526 21.527 21.526c5.856 5.857 15.355 5.859 21.213 0l21.527-21.526 15 15v-42.427z" fill="#78493c"/><path d="m438.193 373.927-21.527 21.526-21.527-21.526c-5.857-5.858-15.355-5.858-21.213 0l-21.526 21.526-21.527-21.526c-5.857-5.858-15.355-5.858-21.213 0l-21.527 21.526-21.527-21.526c-2.929-2.929-6.768-4.394-10.606-4.394v36.214l21.527 21.526c5.857 5.858 15.355 5.858 21.213 0l21.527-21.526 21.527 21.526c5.857 5.858 15.355 5.858 21.213 0l21.527-21.526 21.527 21.526c5.856 5.857 15.355 5.859 21.213 0l21.527-21.526 15 15v-42.427l-4.394-4.393c-5.858-5.859-15.356-5.859-21.214 0z" fill="#502f28"/></g></svg>