<svg id="Layer_1" enable-background="new 0 0 512 512" height="512" viewBox="0 0 512 512" width="512" xmlns="http://www.w3.org/2000/svg"><g><path d="m175.705 0c-43.073-.03-79.305 34.783-79.305 79.25v80.35c0 8.284 6.716 15 15 15h64.267c8.284 0 15-6.716 15-15v-144.6c0-8.267-6.694-14.994-14.962-15z" fill="#a06450"/><path d="m336.333 0c43.074-.03 79.305 34.783 79.305 79.25v80.35c0 8.284-6.716 15-15 15h-64.267c-8.284 0-15-6.716-15-15v-144.6c.001-8.267 6.695-14.994 14.962-15z" fill="#78493c"/><path d="m71.233 254.933h-56.233c-8.284 0-15-6.716-15-15v-56.233c0-30.419 24.748-55.167 55.167-55.167h56.233c8.284 0 15 6.716 15 15v56.233c0 30.42-24.748 55.167-55.167 55.167z" fill="#e0e0e2"/><path d="m497 254.933h-56.233c-30.419 0-55.167-24.748-55.167-55.167v-56.233c0-8.284 6.716-15 15-15h56.233c30.419 0 55.167 24.748 55.167 55.167v56.233c0 8.284-6.716 15-15 15z" fill="#ccced0"/><path d="m400.6 383.467h-289.2c-8.284 0-15-6.716-15-15v-208.867c0-43.771 35.415-79.267 79.267-79.267h160.667c43.78 0 79.267 35.415 79.267 79.267v208.867c-.001 8.284-6.717 15-15.001 15z" fill="#f3f3f4"/><path d="m336.333 80.333h-80.333v303.133h144.6c8.284 0 15-6.716 15-15v-208.866c0-43.852-35.487-79.267-79.267-79.267z" fill="#e0e0e2"/><path d="m336.333 512h-160.666c-43.78 0-79.267-35.416-79.267-79.267v-64.267c0-43.771 35.415-79.267 79.267-79.267h160.667c43.78 0 79.267 35.415 79.267 79.267v64.267c-.001 43.781-35.416 79.267-79.268 79.267z" fill="#c6b2a8"/><path d="m415.6 432.733v-64.267c0-43.852-35.487-79.267-79.267-79.267h-80.333v222.801h80.333c43.853 0 79.267-35.486 79.267-79.267z" fill="#aa9b91"/><circle clip-rule="evenodd" cx="191.733" cy="191.733" fill="#502f28" fill-rule="evenodd" r="15"/><circle clip-rule="evenodd" cx="320.267" cy="191.733" fill="#281414" fill-rule="evenodd" r="15"/><path d="m320.267 431.667c-8.284 0-15-6.716-15-15v-32.133c0-8.284 6.716-15 15-15s15 6.716 15 15v32.133c0 8.284-6.716 15-15 15z" fill="#766d69"/><path d="m191.733 431.667c-8.284 0-15-6.716-15-15v-32.133c0-8.284 6.716-15 15-15s15 6.716 15 15v32.133c0 8.284-6.715 15-15 15z" fill="#90837b"/></g></svg>