<svg id="Layer_1" enable-background="new 0 0 512 512" height="512" viewBox="0 0 512 512" width="512" xmlns="http://www.w3.org/2000/svg"><g><path d="m416.667 512h-321.334c-8.284 0-15-6.716-15-15v-147.464c-27.635-6.75-48.199-31.712-48.199-61.387v-16.083c0-8.284 6.716-15 15-15h417.732c8.284 0 15 6.716 15 15v16.066c0 29.682-20.567 54.651-48.199 61.402v147.466c0 8.284-6.716 15-15 15z" fill="#5fa530"/><path d="m431.667 497v-147.465c27.632-6.751 48.199-31.72 48.199-61.402v-16.066c0-8.284-6.716-15-15-15h-208.866v254.933h160.667c8.284 0 15-6.716 15-15z" fill="#418226"/><path d="m497 287.067h-482c-8.284 0-15-6.716-15-15v-48.2c0-34.9 28.238-63.2 63.2-63.2h32.15c36.089 0 65.317-29.185 65.317-65.317v-.016c0-25.989 21.144-47.133 47.133-47.133h96.4c25.989 0 47.133 21.144 47.133 47.133 0 36.096 29.167 65.333 65.317 65.333h32.15c34.895 0 63.2 28.238 63.2 63.2v48.2c0 8.284-6.716 15-15 15z" fill="#7dc83a"/><path d="m512 272.067v-48.2c0-34.962-28.305-63.2-63.2-63.2h-32.15c-36.151 0-65.317-29.237-65.317-65.333 0-25.989-21.144-47.133-47.133-47.133h-48.2v238.867h241c8.284-.001 15-6.717 15-15.001z" fill="#5fa530"/><circle clip-rule="evenodd" cx="223.867" cy="191.733" fill="#418226" fill-rule="evenodd" r="15"/><circle clip-rule="evenodd" cx="288.133" cy="191.733" fill="#28641e" fill-rule="evenodd" r="15"/><ellipse cx="95.333" cy="95.333" fill="#f3f3f4" rx="95.333" ry="95.333" transform="matrix(.526 -.851 .851 .526 -35.882 126.309)"/><ellipse cx="416.667" cy="95.333" fill="#e0e0e2" rx="95.333" ry="95.334" transform="matrix(.29 -.957 .957 .29 204.68 466.496)"/><path d="m111.4 110.333h-32.133c-8.284 0-15-6.716-15-15s6.716-15 15-15h32.133c8.284 0 15 6.716 15 15s-6.715 15-15 15z" fill="#502f28"/><path d="m432.733 110.333h-32.133c-8.284 0-15-6.716-15-15s6.716-15 15-15h32.134c8.284 0 15 6.716 15 15s-6.716 15-15.001 15z" fill="#281414"/></g></svg>