<svg id="Layer_1" enable-background="new 0 0 512 512" height="512" viewBox="0 0 512 512" width="512" xmlns="http://www.w3.org/2000/svg"><g><path d="m437.284 75.479c-48.17-48.435-113.155-75.242-181.301-75.479-68.145.237-133.097 27.044-181.267 75.479-48.181 48.447-74.716 112.759-74.716 181.089 0 19.882 17.976 47.301 58.285 88.904 26.999 27.866 63.236 61.079 107.704 98.714 2.807 2.375 6.245 3.548 9.674 3.547h160.674c3.429 0 6.867-1.172 9.674-3.547 44.468-37.636 80.705-70.848 107.704-98.714 40.309-41.603 58.285-69.022 58.285-88.904 0-68.33-26.535-132.642-74.716-181.089z" fill="#7dc83a"/><path d="m346.011 444.186c44.468-37.636 80.705-70.848 107.704-98.714 40.309-41.603 58.285-69.022 58.285-88.904 0-68.33-26.535-132.642-74.716-181.089-48.166-48.431-113.145-75.237-181.284-75.479v447.733h80.337c3.429.001 6.867-1.172 9.674-3.547z" fill="#5fa530"/><path d="m395.129 124.397c-2.834-2.996-6.676-4.605-10.596-4.682h-257.066c-3.919.077-7.762 1.685-10.596 4.682-33.923 35.855-52.604 82.794-52.604 132.17 0 42.881 51.771 130.819 100.126 186.047 2.904 3.318 7.041 5.119 11.277 5.119h160.66c4.236 0 8.373-1.801 11.277-5.119 48.354-55.228 100.126-143.166 100.126-186.047 0-49.376-18.681-96.315-52.604-132.17z" fill="#418226"/><path d="m347.607 442.615c48.354-55.228 100.126-143.166 100.126-186.047 0-49.377-18.682-96.316-52.604-132.17-2.834-2.996-6.676-4.605-10.596-4.682h-128.533v328.018h80.33c4.236-.001 8.373-1.801 11.277-5.119z" fill="#28641e"/><path d="m272.066 512h-32.133c-43.708-.001-79.267-35.56-79.267-79.267v-273.133c0-8.284 6.716-15 15-15h160.666c8.284 0 15 6.716 15 15v273.133c.001 43.707-35.558 79.266-79.266 79.267z" fill="#7dc83a"/><path d="m351.333 432.733v-273.133c0-8.284-6.716-15-15-15h-80.333v367.4h16.066c43.708-.001 79.267-35.56 79.267-79.267z" fill="#5fa530"/><path d="m282.673 245.394-11.673-11.674v-74.12c0-8.284-6.716-15-15-15s-15 6.716-15 15v74.12l-11.673 11.673c-5.858 5.858-5.858 15.355 0 21.213 5.857 5.857 15.355 5.858 21.213 0l5.46-5.46 5.46 5.46c5.856 5.857 15.353 5.859 21.213 0 5.858-5.857 5.858-15.355 0-21.212z" fill="#78493c"/><path d="m207.8 383.467h-47.133v-30h47.133c8.284 0 15 6.716 15 15s-6.716 15-15 15z" fill="#5fa530"/><path d="m282.673 266.607c5.858-5.858 5.858-15.355 0-21.213l-11.673-11.674v-74.12c0-8.284-6.716-15-15-15v116.546l5.46 5.46c5.856 5.857 15.353 5.86 21.213.001z" fill="#502f28"/><path d="m384.533 174.6h-257.066c-8.284 0-15-6.716-15-15v-16.083c0-79.136 64.381-143.517 143.516-143.517 79.161 0 143.55 64.389 143.55 143.533v16.067c0 8.284-6.716 15-15 15z" fill="#5fa530"/><path d="m399.533 159.6v-16.067c0-79.139-64.379-143.524-143.533-143.533v174.6h128.533c8.284 0 15-6.716 15-15z" fill="#418226"/><path d="m293.594 97.906c-5.858-5.858-5.858-15.355 0-21.213l8.033-8.033c5.857-5.858 15.355-5.858 21.213 0s5.858 15.355 0 21.213l-8.033 8.033c-5.859 5.859-15.357 5.857-21.213 0z" fill="#281414"/><path d="m197.193 97.906-8.033-8.033c-5.858-5.858-5.858-15.355 0-21.213 5.857-5.858 15.355-5.858 21.213 0l8.033 8.033c5.858 5.858 5.858 15.355 0 21.213-5.858 5.859-15.357 5.857-21.213 0z" fill="#502f28"/><path d="m207.8 417.733h-47.133v15c0 5.129.507 10.14 1.442 15h45.69c8.284 0 15-6.716 15-15s-6.715-15-14.999-15z" fill="#5fa530"/><path d="m207.8 319.2h-47.133v-30h47.133c8.284 0 15 6.716 15 15s-6.716 15-15 15z" fill="#5fa530"/><g fill="#418226"><path d="m304.2 383.467h47.133v-30h-47.133c-8.284 0-15 6.716-15 15s6.716 15 15 15z"/><path d="m304.2 417.733h47.133v15c0 5.129-.507 10.14-1.442 15h-45.691c-8.284 0-15-6.716-15-15s6.716-15 15-15z"/><path d="m304.2 319.2h47.133v-30h-47.133c-8.284 0-15 6.716-15 15s6.716 15 15 15z"/></g></g></svg>