<svg id="Layer_1" enable-background="new 0 0 512 512" height="512" viewBox="0 0 512 512" width="512" xmlns="http://www.w3.org/2000/svg"><g><path d="m432.733 512h-353.466c-8.284 0-15-6.716-15-15v-176.733c0-8.284 6.716-15 15-15h353.467c8.284 0 15 6.716 15 15v176.733c-.001 8.284-6.716 15-15.001 15z" fill="#ffe169"/><path d="m447.733 497v-176.733c0-8.284-6.716-15-15-15h-176.733v206.733h176.733c8.285 0 15-6.716 15-15z" fill="#ffc828"/><path d="m256 512c-3.839 0-7.678-1.464-10.606-4.394l-240.999-241c-4.244-4.242-5.55-10.606-3.322-16.177l96.4-241c2.278-5.695 7.793-9.429 13.927-9.429h289.2c6.134 0 11.649 3.734 13.927 9.429l96.4 241c2.228 5.571.922 11.935-3.321 16.177l-241 241c-2.928 2.93-6.767 4.394-10.606 4.394z" fill="#fa8c00"/><path d="m507.606 266.606c4.243-4.243 5.549-10.606 3.321-16.177l-96.4-241c-2.278-5.695-7.793-9.429-13.927-9.429h-144.6v512c3.839 0 7.678-1.464 10.606-4.394z" fill="#fd5f0f"/><path d="m272.067 383.467h-32.134c-26.085 0-47.133-21.11-47.133-47.133v-32.134c0-8.284 6.716-15 15-15h96.4c8.284 0 15 6.716 15 15v32.133c0 26.032-21.058 47.134-47.133 47.134z" fill="#ffc828"/><path d="m319.2 336.333v-32.133c0-8.284-6.716-15-15-15h-48.2v94.267h16.067c26.075 0 47.133-21.102 47.133-47.134z" fill="#fdaa14"/><path d="m304.2 319.2h-96.4c-35.516 0-63.2-28.928-63.2-63.2v-9.854l-11.673-11.673c-2.813-2.813-4.394-6.628-4.394-10.607v-65.897c0-32.83 19.597-62.159 49.926-74.719 25.999-10.768 55.132-7.249 77.541 8.593 22.41-15.843 51.542-19.36 77.541-8.593 30.329 12.561 49.926 41.89 49.926 74.719v65.897c0 3.979-1.581 7.794-4.394 10.607l-11.673 11.673v9.854c0 34.266-27.679 63.2-63.2 63.2z" fill="#ffe169"/><path d="m367.4 256v-9.854l11.673-11.673c2.813-2.813 4.394-6.628 4.394-10.607v-65.897c0-32.83-19.597-62.159-49.926-74.719-25.999-10.767-55.131-7.25-77.541 8.593v227.357h48.2c35.521 0 63.2-28.934 63.2-63.2z" fill="#ffc828"/><path d="m272.067 254.933h-32.134c-8.284 0-15-6.716-15-15s6.716-15 15-15h32.134c8.284 0 15 6.716 15 15s-6.716 15-15 15z" fill="#502f28"/><circle clip-rule="evenodd" cx="207.8" cy="175.667" fill="#502f28" fill-rule="evenodd" r="15"/><g fill="#281414"><circle clip-rule="evenodd" cx="304.2" cy="175.667" fill-rule="evenodd" r="15"/><path d="m287.067 239.933c0-8.284-6.716-15-15-15h-16.067v30h16.067c8.284 0 15-6.716 15-15z"/></g></g></svg>