<svg id="Layer_1" enable-background="new 0 0 512 512" height="512" viewBox="0 0 512 512" width="512" xmlns="http://www.w3.org/2000/svg"><g><path d="m352.4 512h-192.8c-34.907 0-63.2-28.242-63.2-63.2v-305.267c0-3.978 1.581-7.793 4.394-10.606l32.133-32.133c2.813-2.813 6.628-4.394 10.606-4.394h224.934c3.979 0 7.793 1.581 10.606 4.394l32.133 32.133c2.813 2.813 4.394 6.628 4.394 10.606v305.267c0 34.906-28.242 63.2-63.2 63.2z" fill="#c6b2a8"/><path d="m415.6 448.8v-305.267c0-3.978-1.581-7.793-4.394-10.606l-32.133-32.133c-2.813-2.813-6.628-4.394-10.606-4.394h-112.467v415.6h96.4c34.958 0 63.2-28.294 63.2-63.2z" fill="#aa9b91"/><g clip-rule="evenodd" fill-rule="evenodd"><circle cx="175.667" cy="256" fill="#502f28" r="15"/><circle cx="207.8" cy="432.733" fill="#90837b" r="15"/><circle cx="304.2" cy="432.733" fill="#766d69" r="15"/><circle cx="336.333" cy="256" fill="#281414" r="15"/></g><path d="m143.533 111.4h.01z"/><path d="m256 387.369c-22.211 0-43.094-8.649-58.799-24.355-3.807-3.806-5.289-9.367-3.872-14.561l48.2-176.733c1.78-6.526 7.708-11.053 14.472-11.053s12.691 4.527 14.472 11.053l48.2 176.733c1.417 5.193-.058 10.747-3.865 14.553l-.007.007c-15.707 15.707-36.59 24.356-58.801 24.356z" fill="#fff"/><path d="m96.4 158.533 62.133-62.133v-17.133c0-43.708-35.559-79.267-79.266-79.267h-64.267c-8.284 0-15 6.716-15 15v64.267c0 43.708 35.559 79.267 79.267 79.267h17.133z" fill="#aa9b91"/><path d="m415.6 158.533-62.133-62.133v-17.133c0-43.708 35.559-79.267 79.266-79.267h64.267c8.284 0 15 6.716 15 15v64.267c0 43.708-35.559 79.267-79.267 79.267h-17.133z" fill="#90837b"/><path d="m314.807 363.006c3.807-3.806 5.281-9.36 3.865-14.553l-48.2-176.733c-1.78-6.526-7.708-11.053-14.472-11.053v226.703c22.211 0 43.094-8.649 58.799-24.355z" fill="#f3f3f4"/></g></svg>