<svg id="Layer_1" enable-background="new 0 0 512 512" height="512" viewBox="0 0 512 512" width="512" xmlns="http://www.w3.org/2000/svg"><g><path d="m144.6 70.06c0-2.633-.693-5.22-2.01-7.5l-22.506-38.982c-13.024-22.556-41.838-30.27-64.384-17.251-22.507 12.996-30.245 41.878-17.25 64.384l54.875 95.046c2.679 4.641 7.631 7.5 12.99 7.5h23.285c8.284 0 15-6.716 15-15z" fill="#78493c"/><path d="m367.4 70.06c0-2.633.693-5.22 2.01-7.5l22.506-38.982c13.024-22.556 41.838-30.27 64.384-17.251 22.507 12.996 30.245 41.878 17.25 64.384l-54.875 95.046c-2.68 4.641-7.631 7.5-12.99 7.5h-23.285c-8.284 0-15-6.716-15-15z" fill="#502f28"/><path d="m416.666 273.031h-321.332c-8.284 0-15-6.716-15-15v-146.631c0-43.77 35.414-79.267 79.267-79.267h192.799c43.781 0 79.267 35.416 79.267 79.267v146.631c-.001 8.284-6.717 15-15.001 15z" fill="#a06450"/><path d="m431.666 258.031v-146.631c0-43.851-35.485-79.267-79.267-79.267h-96.399v240.897h160.666c8.284.001 15-6.715 15-14.999z" fill="#78493c"/><path d="m384.533 512h-257.066c-35.519 0-63.2-28.933-63.2-63.2v-16.067c0-8.284 6.716-15 15-15h353.466c8.284 0 15 6.716 15 15v16.067c.001 34.265-27.68 63.2-63.2 63.2z" fill="#502f28"/><path d="m447.734 448.8v-16.067c0-8.284-6.716-15-15-15h-176.734v94.267h128.533c35.52 0 63.201-28.935 63.201-63.2z" fill="#281414"/><path d="m448.8 447.733h-385.6c-8.284 0-15-6.716-15-15v-96.4c0-61.524 49.776-111.4 111.4-111.4h192.8c61.524 0 111.4 49.776 111.4 111.4v96.4c0 8.285-6.716 15-15 15z" fill="#78493c"/><circle clip-rule="evenodd" cx="352.4" cy="175.667" fill="#281414" fill-rule="evenodd" r="15"/><g fill="#502f28"><circle clip-rule="evenodd" cx="159.6" cy="175.667" fill-rule="evenodd" r="15"/><path d="m463.8 432.733v-96.4c0-61.624-49.876-111.4-111.4-111.4h-96.4v222.8h192.8c8.284 0 15-6.715 15-15z"/><circle cx="159.6" cy="336.334" r="47.133"/></g><path d="m352.4 383.467c-25.989 0-47.133-21.144-47.133-47.133s21.143-47.134 47.133-47.134 47.134 21.144 47.134 47.133-21.145 47.134-47.134 47.134z" fill="#281414"/></g></svg>