<svg id="Layer_1" enable-background="new 0 0 512 512" height="512" viewBox="0 0 512 512" width="512" xmlns="http://www.w3.org/2000/svg"><g><path d="m256 142.467h-80.092c-26.22 0-47.375-21.216-47.375-47.375 0-19.58 11.668-37.046 29.727-44.529 18.067-7.482 38.668-3.382 52.491 10.441l55.855 55.856c4.29 4.29 5.573 10.742 3.252 16.347-2.322 5.605-7.791 9.26-13.858 9.26z" fill="#fd5f0f"/><path d="m336.092 142.467h-80.092c-6.067 0-11.536-3.655-13.858-9.26-2.321-5.605-1.038-12.057 3.252-16.347l55.855-55.856c13.823-13.823 34.427-17.921 52.488-10.442 18.062 7.484 29.729 24.951 29.729 44.498.001 26.241-21.194 47.407-47.374 47.407z" fill="#ff321e"/><path d="m416.667 495.933h-321.334c-8.284 0-15-6.716-15-15v-192.8c0-96.863 78.804-175.667 175.667-175.667s175.667 78.804 175.667 175.667v192.8c0 8.284-6.716 15-15 15z" fill="#f3f3f4"/><path d="m431.667 480.933v-192.8c0-96.863-78.804-175.667-175.667-175.667-.006 0-.011 0-.017 0v383.466h160.684c8.284.001 15-6.715 15-14.999z" fill="#e0e0e2"/><path d="m346.831 406.626-64.675-64.82c-2.814-2.821-6.635-4.406-10.619-4.406-.005 0-.021 0-.016 0h-31.894c.005 0-.01 0-.016 0-3.984 0-7.805 1.585-10.619 4.406l-64.677 64.821c-17.697 17.74-22.928 44.15-13.325 67.282 9.601 23.14 31.99 38.091 57.058 38.091 19.051 0 36.069-8.502 47.526-21.898 11.531 13.45 28.641 21.898 47.541 21.898 25.052 0 47.441-14.952 57.041-38.089 9.604-23.134 4.373-49.544-13.325-67.285z" fill="#ff321e"/><path d="m303.115 512c25.052 0 47.441-14.952 57.041-38.089 9.604-23.134 4.373-49.544-13.325-67.285l-64.675-64.82c-2.814-2.821-6.635-4.406-10.619-4.406-.005 0-.021 0-.016 0 .008 0-7.699 0-15.538 0v153.154c11.525 13.182 28.449 21.446 47.132 21.446z" fill="#da190f"/><circle clip-rule="evenodd" cx="191.733" cy="223.867" fill="#502f28" fill-rule="evenodd" r="15"/><circle clip-rule="evenodd" cx="320.267" cy="223.867" fill="#281414" fill-rule="evenodd" r="15"/><path d="m255.574 383.467c-.017 0-.033 0-.05 0-3.979-.013-7.788-1.606-10.592-4.429l-63.841-64.267c-5.825-5.863-5.81-15.333.035-21.178l30.182-30.182c11.952-11.941 27.822-18.515 44.692-18.515s32.74 6.574 44.688 18.512l30.186 30.186c2.819 2.819 4.4 6.645 4.394 10.631s-1.6 7.807-4.429 10.617l-64.692 64.267c-2.812 2.791-6.613 4.358-10.573 4.358z" fill="#ffc828"/><path d="m330.838 314.842c2.829-2.81 4.422-6.63 4.429-10.617s-1.574-7.812-4.394-10.631l-30.186-30.186c-11.947-11.938-27.817-18.512-44.687-18.512-.006 0-.011 0-.017 0v138.55c3.811-.104 7.449-1.643 10.162-4.338z" fill="#fdaa14"/><path d="m256 142.467c-3.839 0-7.678-1.464-10.606-4.394l-32.953-32.952c-17.671-17.67-22.911-44.012-13.351-67.107 9.563-23.094 31.895-38.014 56.893-38.014 25.031 0 47.363 14.92 56.926 38.012 9.562 23.097 4.321 49.438-13.35 67.108l-32.953 32.953c-2.928 2.929-6.767 4.394-10.606 4.394z" fill="#ff321e"/><path d="m266.606 138.073 32.953-32.953c17.671-17.67 22.911-44.011 13.35-67.108-9.562-23.092-31.894-38.012-56.926-38.012v142.466c.006 0 .011.001.017.001 3.839 0 7.678-1.465 10.606-4.394z" fill="#da190f"/></g></svg>