<svg id="Layer_1" enable-background="new 0 0 512 512" height="512" viewBox="0 0 512 512" width="512" xmlns="http://www.w3.org/2000/svg"><g><path d="m505.334 243.528-42.814-28.608 28.605-42.813c2.782-4.166 3.303-9.445 1.386-14.073s-6.019-7.994-10.932-8.972l-50.503-10.045 10.047-50.502c.978-4.914-.563-9.991-4.105-13.533-3.543-3.542-8.62-5.083-13.532-4.105l-50.503 10.043-10.041-50.5c-.977-4.914-4.342-9.016-8.971-10.933-4.627-1.917-9.908-1.398-14.074 1.385l-42.82 28.608-28.604-42.813c-2.784-4.166-7.463-6.667-12.473-6.667s-9.689 2.501-12.473 6.667l-28.604 42.813-42.82-28.608c-4.167-2.783-9.447-3.303-14.074-1.385-4.629 1.917-7.994 6.019-8.971 10.933l-10.041 50.5-50.502-10.045c-4.912-.978-9.991.563-13.532 4.105-3.543 3.542-5.083 8.62-4.105 13.533l10.047 50.502-50.503 10.045c-4.913.978-9.015 4.343-10.932 8.972-1.917 4.628-1.396 9.908 1.386 14.073l28.604 42.815-42.814 28.608c-4.165 2.784-6.666 7.462-6.666 12.472s2.501 9.689 6.666 12.472l42.813 28.606-31.398 46.987c-3.075 4.602-3.366 10.523-.757 15.405 2.608 4.881 7.693 7.929 13.229 7.929h450.895c5.535 0 10.62-3.048 13.229-7.929s2.318-10.803-.757-15.405l-31.398-46.987 42.813-28.606c4.164-2.783 6.665-7.462 6.665-12.472s-2.501-9.688-6.666-12.472z" fill="#aa9b91"/><path d="m494.676 359.471c2.609-4.881 2.318-10.803-.757-15.405l-31.398-46.987 42.813-28.606c4.165-2.784 6.666-7.463 6.666-12.473s-2.501-9.688-6.666-12.472l-42.814-28.608 28.605-42.813c2.782-4.166 3.303-9.445 1.386-14.073s-6.019-7.994-10.932-8.972l-50.503-10.045 10.047-50.502c.978-4.914-.563-9.991-4.105-13.533-3.543-3.542-8.62-5.083-13.532-4.105l-50.503 10.043-10.041-50.5c-.977-4.914-4.342-9.016-8.971-10.933-4.627-1.917-9.908-1.398-14.074 1.385l-42.82 28.608-28.604-42.813c-2.784-4.166-7.463-6.667-12.473-6.667v367.4h225.447c5.535 0 10.62-3.048 13.229-7.929z" fill="#90837b"/><circle cx="167.634" cy="231.9" fill="#e0e0e2" r="55.167"/><circle cx="344.366" cy="231.9" fill="#ccced0" r="55.167"/><path d="m256 512c-34.592 0-75.61-42.783-91.641-61.178-30.09-34.527-51.893-72.836-51.893-98.422 0-79.145 64.389-143.533 143.533-143.533s143.534 64.388 143.534 143.533c0 25.465-21.671 63.744-51.893 98.422-16.03 18.395-57.048 61.178-91.64 61.178z" fill="#f3f3f4"/><path d="m347.641 450.822c30.221-34.678 51.893-72.957 51.893-98.422 0-79.145-64.389-143.533-143.533-143.533v303.133c34.591 0 75.609-42.783 91.64-61.178z" fill="#e0e0e2"/><circle clip-rule="evenodd" cx="320.267" cy="352.4" fill="#281414" fill-rule="evenodd" r="15"/><circle clip-rule="evenodd" cx="191.733" cy="352.4" fill="#502f28" fill-rule="evenodd" r="15"/><path d="m264.033 431.667h-16.066c-8.284 0-15-6.716-15-15s6.716-15 15-15h16.066c8.284 0 15 6.716 15 15s-6.716 15-15 15z" fill="#502f28"/><path d="m279.033 416.667c0-8.284-6.716-15-15-15h-8.033v30h8.033c8.284 0 15-6.716 15-15z" fill="#281414"/></g></svg>