<svg id="Layer_1" enable-background="new 0 0 512 512" height="512" viewBox="0 0 512 512" width="512" xmlns="http://www.w3.org/2000/svg"><g><circle cx="95.333" cy="95.333" fill="#fdaa14" r="95.333"/><circle cx="416.667" cy="95.333" fill="#fa8c00" r="95.333"/><path d="m304.2 512h-96.4c-114.581 0-207.8-93.219-207.8-207.8 0-78.604 44.739-150.632 114.657-185.774 11.997-68.081 71.335-118.426 141.343-118.426s129.346 50.345 141.343 118.426c69.918 35.142 114.657 107.17 114.657 185.774 0 114.581-93.219 207.8-207.8 207.8z" fill="#ffc828"/><path d="m512 304.2c0-78.604-44.739-150.632-114.657-185.774-11.997-68.081-71.335-118.426-141.343-118.426v512h48.2c114.581 0 207.8-93.219 207.8-207.8z" fill="#fdaa14"/><path d="m288.133 351.333h-64.267c-8.284 0-15-6.716-15-15v-49.267c0-8.284 6.716-15 15-15h64.267c8.284 0 15 6.716 15 15v49.267c0 8.285-6.716 15-15 15z" fill="#fff"/><path d="m303.133 336.333v-49.267c0-8.284-6.716-15-15-15h-32.133v79.267h32.133c8.284 0 15-6.715 15-15z" fill="#f3f3f4"/><path d="m320.267 257.067h-49.267v-49.267c0-8.284-6.716-15-15-15s-15 6.716-15 15v49.267h-49.267c-8.284 0-15 6.716-15 15s6.716 15 15 15h128.533c8.284 0 15-6.716 15-15s-6.715-15-14.999-15z" fill="#a06450"/><path d="m335.267 272.067c0-8.284-6.716-15-15-15h-49.267v-49.267c0-8.284-6.716-15-15-15v94.267h64.267c8.284 0 15-6.716 15-15z" fill="#78493c"/><circle clip-rule="evenodd" cx="207.8" cy="159.6" fill="#502f28" fill-rule="evenodd" r="15"/><circle clip-rule="evenodd" cx="304.2" cy="159.6" fill="#281414" fill-rule="evenodd" r="15"/><path d="m128.334 128.511h.01z"/><path d="m272.067 222.8h-32.134c-8.284 0-15-6.716-15-15s6.716-15 15-15h32.134c8.284 0 15 6.716 15 15s-6.716 15-15 15z" fill="#502f28"/><path d="m287.067 207.8c0-8.284-6.716-15-15-15h-16.067v30h16.067c8.284 0 15-6.716 15-15z" fill="#281414"/></g></svg>