<svg id="Layer_1" enable-background="new 0 0 512 512" height="512" viewBox="0 0 512 512" width="512" xmlns="http://www.w3.org/2000/svg"><g><path d="m111.4 222.8h-32.133c-43.708 0-79.267-35.559-79.267-79.267v-32.133c0-8.284 6.716-15 15-15h32.133c43.708 0 79.267 35.559 79.267 79.267v32.133c0 8.284-6.716 15-15 15z" fill="#ffc828"/><path d="m432.733 222.8h-32.133c-8.284 0-15-6.716-15-15v-32.133c0-43.708 35.559-79.267 79.267-79.267h32.133c8.284 0 15 6.716 15 15v32.133c0 43.708-35.559 79.267-79.267 79.267z" fill="#fdaa14"/><path d="m256 512c-61.426 0-111.4-49.974-111.4-111.4v-45.766l-47.43-142.291c-1.797-5.39-.394-11.332 3.624-15.35l27.74-27.74v-64.166c-10.282-11.525-16.066-26.514-16.066-42.087 0-34.849 28.351-63.2 63.2-63.2s63.2 28.352 63.2 63.2c0 15.573-5.786 30.563-16.067 42.088v38.245c0 9.448 7.639 17.133 17.133 17.133h32.134c9.486 0 17.133-7.677 17.133-17.133v-38.245c-10.281-11.525-16.067-26.515-16.067-42.088 0-34.849 28.352-63.2 63.2-63.2s63.2 28.352 63.2 63.2c0 15.574-5.784 30.562-16.066 42.087v64.166l27.74 27.74c4.018 4.018 5.42 9.96 3.624 15.35l-47.432 142.291v45.766c0 61.426-49.974 111.4-111.4 111.4z" fill="#ffe169"/><path d="m383.467 169.453v-64.166c10.282-11.525 16.066-26.514 16.066-42.087 0-34.849-28.351-63.2-63.2-63.2s-63.2 28.352-63.2 63.2c0 15.573 5.786 30.563 16.067 42.088v38.245c0 9.457-7.647 17.133-17.133 17.133h-16.067v351.334c61.426 0 111.4-49.974 111.4-111.4v-45.766l47.43-142.291c1.797-5.39.394-11.332-3.624-15.35z" fill="#ffc828"/><circle clip-rule="evenodd" cx="207.8" cy="239.933" fill="#502f28" fill-rule="evenodd" r="15"/><circle clip-rule="evenodd" cx="304.2" cy="239.933" fill="#281414" fill-rule="evenodd" r="15"/><path d="m223.867 415.6c-8.284 0-15-6.716-15-15v-16.067c0-8.284 6.716-15 15-15s15 6.716 15 15v16.067c0 8.284-6.716 15-15 15z" fill="#a06450"/><path d="m288.133 415.6c-8.284 0-15-6.716-15-15v-16.067c0-8.284 6.716-15 15-15s15 6.716 15 15v16.067c0 8.284-6.716 15-15 15z" fill="#78493c"/></g></svg>