<svg id="Layer_1" enable-background="new 0 0 512 512" height="512" viewBox="0 0 512 512" width="512" xmlns="http://www.w3.org/2000/svg"><g><path d="m127.467 287.067c-8.284 0-15-6.716-15-15v-96.4c0-27.166-22.101-49.267-49.267-49.267-35.517 0-63.2-28.927-63.2-63.2 0-34.848 28.352-63.2 63.2-63.2 79.145 0 143.533 64.389 143.533 143.533v64.267c0 8.284-6.716 15-15 15-26.966 0-49.267 21.778-49.267 49.25v.017c.001 8.284-6.715 15-14.999 15z" fill="#ccced0"/><path d="m384.533 287.067c-8.284 0-15-6.716-15-15 0-26.977-21.793-49.267-49.25-49.267-8.284 0-15.017-6.716-15.017-15v-64.267c.001-79.144 64.389-143.533 143.534-143.533 34.848 0 63.2 28.352 63.2 63.2 0 34.266-27.679 63.2-63.2 63.2-27.166 0-49.267 22.101-49.267 49.267v96.4c0 8.284-6.716 15-15 15z" fill="#b9bbbe"/><path d="m399.533 322.499v-50.432c0-43.708-35.559-79.267-79.267-79.267h-128.533c-43.708 0-79.267 35.559-79.267 79.267v50.431c-45.166 7.09-80.333 46.225-80.333 94.153v.016c0 52.742 42.684 95.333 95.333 95.333h96.4c0-8.284 6.716-15 15-15h34.267c8.284 0 15 6.716 15 15h96.399c52.756 0 95.333-42.689 95.333-95.35.001-47.963-35.199-87.065-80.332-94.151z" fill="#e0e0e2"/><path d="m399.533 322.499v-50.432c0-43.708-35.559-79.267-79.267-79.267h-64.266v304.2h17.134c8.284 0 15 6.716 15 15h96.399c52.756 0 95.333-42.689 95.333-95.35 0-47.963-35.2-87.065-80.333-94.151z" fill="#ccced0"/><path d="m288.134 512h-64.267c-8.284 0-15-6.716-15-15v-49.267c0-8.284 6.716-15 15-15h64.267c8.284 0 15 6.716 15 15v49.267c0 8.284-6.716 15-15 15z" fill="#fff"/><path d="m303.134 497v-49.267c0-8.284-6.716-15-15-15h-32.134v79.267h32.134c8.284 0 15-6.716 15-15z" fill="#f3f3f4"/><circle clip-rule="evenodd" cx="191.733" cy="288.133" fill="#502f28" fill-rule="evenodd" r="15"/><circle clip-rule="evenodd" cx="320.267" cy="288.133" fill-rule="evenodd" r="15"/><path d="m127.467 351.333h-112.467c-8.284 0-15-6.716-15-15s6.716-15 15-15h112.467c8.284 0 15 6.716 15 15s-6.716 15-15 15z" fill="#f3f3f4"/><path d="m497 351.333h-112.467c-8.284 0-15-6.716-15-15s6.716-15 15-15h112.467c8.284 0 15 6.716 15 15s-6.716 15-15 15z" fill="#e0e0e2"/><path d="m127.467 415.6h-112.467c-8.284 0-15-6.716-15-15s6.716-15 15-15h112.467c8.284 0 15 6.716 15 15s-6.716 15-15 15z" fill="#f3f3f4"/><path d="m497 415.6h-112.467c-8.284 0-15-6.716-15-15s6.716-15 15-15h112.467c8.284 0 15 6.716 15 15s-6.716 15-15 15z" fill="#e0e0e2"/><path d="m320.267 417.733h-49.267v-97.467c0-8.284-6.716-15-15-15s-15 6.716-15 15v97.467h-49.267c-8.284 0-15 6.716-15 15s6.716 15 15 15h128.533c8.284 0 15-6.716 15-15s-6.715-15-14.999-15z" fill="#ccced0"/><path d="m335.267 432.733c0-8.284-6.716-15-15-15h-49.267v-97.467c0-8.284-6.716-15-15-15v142.467h64.266c8.285 0 15.001-6.715 15.001-15z" fill="#b9bbbe"/><path d="m272.066 335.267h-32.133c-8.284 0-15-6.716-15-15s6.716-15 15-15h32.133c8.284 0 15 6.716 15 15s-6.715 15-15 15z" fill="#502f28"/><path d="m287.066 320.267c0-8.284-6.716-15-15-15h-16.066v30h16.066c8.285 0 15-6.716 15-15z"/></g></svg>