<svg id="Layer_1" enable-background="new 0 0 512 512" height="512" viewBox="0 0 512 512" width="512" xmlns="http://www.w3.org/2000/svg"><g><path d="m320.267 512h-128.534c-8.284 0-15-6.716-15-15v-161.223l-94.463-18.893c-47.671-9.534-82.27-51.741-82.27-100.36 0-54.825 42.589-99.872 96.4-103.782v-33.475c0-43.708 35.559-79.267 79.267-79.267h41.532c13.801 0 27.386 4.198 38.801 11.786 11.415-7.588 25-11.786 38.801-11.786h41.532c43.708 0 79.267 35.559 79.267 79.267v33.476c53.812 3.911 96.4 48.957 96.4 103.766 0 48.634-34.599 90.842-82.27 100.376l-94.464 18.893v161.222c.001 8.284-6.715 15-14.999 15z" fill="#f3f3f4"/><path d="m335.267 497v-161.223l94.464-18.893c47.67-9.534 82.269-51.741 82.269-100.376 0-54.809-42.589-99.855-96.4-103.766v-33.475c0-43.708-35.559-79.267-79.267-79.267h-41.532c-13.801 0-27.386 4.198-38.801 11.786v500.214h64.267c8.284 0 15-6.716 15-15z" fill="#e0e0e2"/><circle clip-rule="evenodd" cx="175.667" cy="95.333" fill="#502f28" fill-rule="evenodd" r="15"/><circle clip-rule="evenodd" cx="336.333" cy="95.333" fill="#281414" fill-rule="evenodd" r="15"/><path d="m256 287.067c-.985 0-1.97-.097-2.94-.291 0 0-92.628-18.518-137.213-27.443-20.573-4.103-35.514-22.327-35.514-43.331 0-21.263 15.865-39.552 36.904-42.549l76.95-10.994c6.09-28.533 31.492-49.992 61.813-49.992 30.324 0 55.729 21.464 61.814 49.993l76.954 10.995c21.033 2.996 36.898 21.285 36.898 42.54v.008c0 21.004-14.94 39.229-35.524 43.333-44.574 8.923-137.202 27.44-137.202 27.44-.97.194-1.955.291-2.94.291z" fill="#fdaa14"/><path d="m396.143 259.335c20.584-4.105 35.524-22.33 35.524-43.333v-.008c0-21.255-15.865-39.544-36.898-42.54l-76.954-10.995c-6.085-28.529-31.49-49.993-61.814-49.993v174.6c.985 0 1.97-.097 2.94-.291-.001.001 92.627-18.517 137.202-27.44z" fill="#fa8c00"/></g></svg>