<svg id="Layer_1" enable-background="new 0 0 512 512" height="512" viewBox="0 0 512 512" width="512" xmlns="http://www.w3.org/2000/svg"><g><circle cx="63.2" cy="63.2" fill="#90837b" r="63.2"/><circle cx="448.8" cy="63.2" fill="#766d69" r="63.2"/><path d="m256 0c-141.385 0-256 114.615-256 256v241c0 8.284 6.716 15 15 15h482c8.284 0 15-6.716 15-15v-241c0-141.385-114.615-256-256-256z" fill="#f3f3f4"/><path d="m512 497v-241c0-141.385-114.615-256-256-256v512h241c8.284 0 15-6.716 15-15z" fill="#e0e0e2"/><path d="m303.146 257.055c-34.445-34.444-40.944-86.92-10.66-117.203 30.953-30.955 83.575-22.958 117.202 10.658 33.934 33.936 41.353 86.511 10.663 117.211-32.405 32.405-85.457 21.083-117.205-10.666z" fill="#766d69"/><path d="m91.651 267.723c-29.081-29.089-25.228-81.323 10.66-117.211 33.765-33.756 86.375-41.489 117.203-10.66 30.957 30.956 22.971 83.572-10.66 117.204-33.934 33.933-86.509 41.361-117.203 10.667z" fill="#90837b"/><circle clip-rule="evenodd" cx="352.4" cy="203.783" fill="#281414" fill-rule="evenodd" r="15"/><circle clip-rule="evenodd" cx="159.6" cy="203.783" fill="#502f28" fill-rule="evenodd" r="15"/><path d="m320.267 447.733h-16.067c-22.166 0-38.646-11.021-48.2-22.324-9.587 11.344-26.085 22.324-48.2 22.324h-16.066c-8.284 0-15-6.716-15-15s6.716-15 15-15h16.066c18.444 0 33.2-14.96 33.2-33.2v-16.066c0-8.284 6.716-15 15-15s15 6.716 15 15v16.066c0 18.207 14.719 33.2 33.2 33.2h16.066c8.284 0 15 6.716 15 15s-6.715 15-14.999 15z" fill="#aa9b91"/><path d="m304.2 447.733h16.066c8.284 0 15-6.716 15-15s-6.716-15-15-15h-16.066c-18.481 0-33.2-14.994-33.2-33.2v-16.066c0-8.284-6.716-15-15-15v71.943c9.554 11.303 26.034 22.323 48.2 22.323z" fill="#90837b"/><path d="m264.033 383.467h-16.066c-46.596 0-55.167-42.624-55.167-54.211 0-23.958 15.713-40.056 39.101-40.056h48.199c23.388 0 39.101 16.097 39.101 40.056-.001 12.715-9.459 54.211-55.168 54.211z" fill="#502f28"/><path d="m319.2 329.256c0-23.958-15.713-40.056-39.101-40.056h-24.099v94.267h8.033c45.709 0 55.167-41.496 55.167-54.211z" fill="#281414"/></g></svg>