<svg id="Layer_1" enable-background="new 0 0 512 512" height="512" viewBox="0 0 512 512" width="512" xmlns="http://www.w3.org/2000/svg"><g><path d="m60.522 254.692c-7.135-1.294-12.322-7.507-12.322-14.759v-202.97c0-20.381 16.567-36.963 36.931-36.963 10.62 0 20.527 4.117 27.977 11.594 22.133 22.077 88.565 88.533 89.234 89.202 4.289 4.29 5.571 10.742 3.249 16.346s-7.791 9.258-13.857 9.258h-58.081c-7.1 0-13.522 4.451-15.982 11.076-.006.017-.012.033-.019.049l-40.408 107.678c-2.731 7.278-10.104 10.691-16.722 9.489z" fill="#ccced0"/><path d="m434.756 245.203-40.407-107.678c-.006-.017-.012-.033-.019-.049-2.46-6.625-8.883-11.076-15.982-11.076h-58.081c-6.066 0-11.536-3.654-13.857-9.258-2.322-5.604-1.04-12.056 3.249-16.346.668-.669 67.101-67.125 89.266-89.234 7.417-7.445 17.324-11.562 27.864-11.562 20.444 0 37.011 16.582 37.011 36.963v202.97c0 7.251-5.187 13.464-12.322 14.759-6.636 1.206-14.003-2.243-16.722-9.489z" fill="#b9bbbe"/><path d="m256 512c-2.426 0-4.853-.588-7.059-1.765l-122.427-65.302-125.558-81.734s65.633-174.992 88.608-236.215c6.786-18.274 24.51-30.584 44.088-30.584h244.695c19.578 0 37.303 12.311 44.106 30.633 22.957 61.174 88.59 236.166 88.59 236.166l-125.559 81.734-122.427 65.302c-2.204 1.177-4.631 1.765-7.057 1.765z" fill="#f3f3f4"/><path d="m385.486 444.933 125.559-81.734s-65.633-174.992-88.59-236.166c-6.804-18.323-24.528-30.633-44.106-30.633h-122.349v415.6c2.426 0 4.853-.588 7.059-1.765z" fill="#e0e0e2"/><path d="m133.568 446.698c-2.405 0-4.827-.578-7.054-1.765l-118.572-63.23c-4.193-2.236-7.079-6.327-7.778-11.027s.869-9.454 4.229-12.814l99.131-99.156c30.928-30.849 81.226-30.849 112.139-.015 30.902 30.922 30.902 81.208.017 112.112l-71.5 71.5c-2.885 2.885-6.725 4.395-10.612 4.395z" fill="#90837b"/><path d="m378.432 446.698c-3.887 0-7.727-1.51-10.611-4.394l-71.497-71.497c-30.889-30.908-30.889-81.194-.003-112.099 30.872-30.892 81.179-30.899 112.141-.017l99.146 99.17c3.36 3.361 4.928 8.114 4.229 12.814s-3.585 8.791-7.778 11.027l-118.572 63.23c-2.227 1.188-4.65 1.766-7.055 1.766z" fill="#766d69"/><circle clip-rule="evenodd" cx="159.6" cy="314.756" fill="#502f28" fill-rule="evenodd" r="15"/><circle clip-rule="evenodd" cx="352.4" cy="314.756" fill="#281414" fill-rule="evenodd" r="15"/><path d="m272.067 431.667h-32.134c-8.284 0-15-6.716-15-15s6.716-15 15-15h32.134c8.284 0 15 6.716 15 15s-6.716 15-15 15z" fill="#502f28"/><path d="m103.608 132.255h.01z"/><path d="m287.067 416.667c0-8.284-6.716-15-15-15h-16.067v30h16.067c8.284 0 15-6.716 15-15z" fill="#281414"/></g></svg>