<svg id="Layer_1" enable-background="new 0 0 512 512" height="512" viewBox="0 0 512 512" width="512" xmlns="http://www.w3.org/2000/svg"><g><path d="m79.267 174.6c-8.284 0-15-6.716-15-15v-64.283c0-52.558 42.759-95.317 95.317-95.317 8.284 0 15.016 6.716 15.016 15v80.333c0 8.284-6.716 15-15 15h-16.067c-27.166 0-49.267 22.101-49.267 49.267.001 8.284-6.715 15-14.999 15z" fill="#ffb1a9"/><path d="m432.733 174.6c-8.284 0-15-6.716-15-15 0-27.166-22.101-49.267-49.267-49.267h-16.066c-8.284 0-15-6.716-15-15v-80.333c0-8.284 6.716-15 15-15 52.574 0 95.333 42.759 95.333 95.317v64.283c0 8.284-6.715 15-15 15z" fill="#ff938d"/><path d="m432.733 512h-353.466c-8.284 0-15-6.716-15-15v-337.4c0-43.708 35.559-79.267 79.267-79.267h224.934c43.708 0 79.267 35.559 79.267 79.267v337.4c-.002 8.284-6.717 15-15.002 15z" fill="#ffd1c4"/><path d="m447.733 497v-337.4c0-43.708-35.559-79.267-79.267-79.267h-112.466v431.667h176.733c8.285 0 15-6.716 15-15z" fill="#ffb1a9"/><path d="m304.2 420.958h-96.4c-43.708 0-79.267-35.559-79.267-79.267v-26.783c0-43.708 35.559-79.267 79.267-79.267h96.4c43.708 0 79.267 35.559 79.267 79.267v26.783c0 43.708-35.559 79.267-79.267 79.267z" fill="#fff1e0"/><path d="m383.467 341.691v-26.783c0-43.708-35.559-79.267-79.267-79.267h-48.2v185.316h48.2c43.708.001 79.267-35.558 79.267-79.266z" fill="#ffd1c4"/><circle clip-rule="evenodd" cx="191.733" cy="191.733" fill="#502f28" fill-rule="evenodd" r="15"/><circle clip-rule="evenodd" cx="320.267" cy="191.733" fill="#281414" fill-rule="evenodd" r="15"/><path d="m207.8 351.333c-8.284 0-15-6.716-15-15v-16.067c0-8.284 6.716-15 15-15s15 6.716 15 15v16.067c0 8.285-6.716 15-15 15z" fill="#ffb1a9"/><path d="m304.2 351.333c-8.284 0-15-6.716-15-15v-16.067c0-8.284 6.716-15 15-15s15 6.716 15 15v16.067c0 8.285-6.716 15-15 15z" fill="#ff938d"/></g></svg>