<svg id="Layer_1" enable-background="new 0 0 512 512" height="512" viewBox="0 0 512 512" width="512" xmlns="http://www.w3.org/2000/svg"><g><path d="m256 0c-114.765 0-207.8 93.035-207.8 207.8v289.2c0 8.284 6.716 15 15 15h385.6c8.284 0 15-6.716 15-15v-289.2c0-114.765-93.035-207.8-207.8-207.8z" fill="#a06450"/><path d="m463.8 497v-289.2c0-114.765-93.035-207.8-207.8-207.8v512h192.8c8.284 0 15-6.716 15-15z" fill="#78493c"/><path d="m175.667 447.733c-25.989 0-47.133-21.144-47.133-47.133v-80.333c0-8.284 6.716-15 15-15h64.266c8.284 0 15 6.716 15 15v80.333c0 25.989-21.144 47.133-47.133 47.133z" fill="#fff"/><path d="m336.333 447.733c-25.989 0-47.133-21.144-47.133-47.133v-80.333c0-8.284 6.716-15 15-15h64.267c8.284 0 15 6.716 15 15v80.333c0 25.989-21.145 47.133-47.134 47.133z" fill="#f3f3f4"/><circle clip-rule="evenodd" cx="191.733" cy="127.467" fill="#502f28" fill-rule="evenodd" r="15"/><circle clip-rule="evenodd" cx="320.267" cy="127.467" fill="#281414" fill-rule="evenodd" r="15"/><path d="m304.2 176.733h-96.4c-52.567 0-95.333 42.767-95.333 95.333v48.2c0 8.284 6.716 15 15 15h257.066c8.284 0 15-6.716 15-15v-48.216c0-52.558-42.759-95.317-95.333-95.317z" fill="#78493c"/><path d="m399.533 320.267v-48.217c0-52.558-42.759-95.317-95.333-95.317h-48.2v158.533h128.533c8.284.001 15-6.715 15-14.999z" fill="#502f28"/><path d="m264.033 254.933h-16.066c-46.596 0-55.167-42.623-55.167-54.21 0-23.959 15.713-40.056 39.1-40.056h48.2c23.388 0 39.101 16.097 39.101 40.056-.001 12.715-9.459 54.21-55.168 54.21z" fill="#502f28"/><path d="m319.2 200.723c0-23.959-15.713-40.056-39.101-40.056h-24.099v94.267h8.033c45.709-.001 55.167-41.496 55.167-54.211z" fill="#281414"/></g></svg>