<svg id="Layer_1" enable-background="new 0 0 512 512" height="512" viewBox="0 0 512 512" width="512" xmlns="http://www.w3.org/2000/svg"><g><path d="m401.605 512c-3.977 0-7.792-1.579-10.606-4.394l-37.594-37.593-37.594 37.593c-5.857 5.858-15.355 5.858-21.213 0l-37.594-37.593-37.594 37.593c-2.813 2.813-6.628 4.394-10.606 4.394s-7.794-1.581-10.606-4.394l-37.593-37.593-37.594 37.593c-5.857 5.858-15.355 5.858-21.213 0l-48.2-48.2c-3.222-3.222-4.805-7.734-4.302-12.262 0 0 18.236-164.179 32.294-290.536 9.937-89.281 85.142-156.608 174.932-156.608 90.119 0 165.767 67.96 175.342 157.638 13.416 126.224 30.848 289.569 30.848 289.57.47 4.397-1.025 8.777-4.085 11.97l-46.191 48.2c-2.791 2.912-6.637 4.578-10.671 4.621-.054.001-.108.001-.16.001z" fill="#f3f3f4"/><path d="m315.811 507.606 37.594-37.593 37.594 37.593c2.814 2.815 6.63 4.394 10.606 4.394.053 0 .106 0 .159-.001 4.034-.043 7.88-1.708 10.671-4.621l46.191-48.2c3.06-3.193 4.555-7.573 4.085-11.97 0-.001-17.432-163.346-30.848-289.57-9.557-89.517-84.953-157.39-174.858-157.632v470.008l37.593 37.593c5.857 5.858 15.355 5.858 21.213-.001z" fill="#e0e0e2"/><path d="m326.732 202.34-16.067-16.067c-5.858-5.858-5.858-15.355 0-21.213 5.857-5.858 15.355-5.858 21.213 0l16.067 16.067c5.858 5.858 5.858 15.355 0 21.213-5.859 5.859-15.357 5.857-21.213 0z" fill="#281414"/><path d="m166.065 202.34c-5.858-5.858-5.858-15.355 0-21.213l16.066-16.067c5.857-5.858 15.355-5.858 21.213 0s5.858 15.355 0 21.213l-16.066 16.067c-5.859 5.859-15.357 5.857-21.213 0z" fill="#502f28"/><path d="m214.265 218.406-64.267-64.267c-5.858-5.858-5.858-15.355 0-21.213 5.857-5.858 15.355-5.858 21.213 0l64.267 64.267c5.858 5.858 5.858 15.355 0 21.213-5.859 5.859-15.357 5.857-21.213 0z" fill="#e0e0e2"/><path d="m278.531 218.406c-5.858-5.858-5.858-15.355 0-21.213l64.267-64.267c5.857-5.858 15.355-5.858 21.213 0s5.858 15.355 0 21.213l-64.267 64.267c-5.858 5.859-15.357 5.857-21.213 0z" fill="#ccced0"/><path d="m257.004 399.533c-5.999 0-11.421-3.574-13.785-9.087 0 0-19.844-46.267-34.063-79.455-7.743-18.027-21.667-32.798-39.201-41.579-6.219-3.114-9.48-10.095-7.881-16.863 1.6-6.769 7.643-11.549 14.598-11.549h33.306c-.015-5.166-.025-11.152-.025-17.109 0-26.434 21.488-47.157 47.053-47.157 26.024 0 47.134 20.996 47.134 47.085v17.181h33.2c6.955 0 12.998 4.781 14.598 11.549s-1.662 13.749-7.881 16.863c-17.534 8.781-31.458 23.551-39.207 41.592-14.214 33.175-34.059 79.442-34.059 79.442-2.366 5.513-7.789 9.087-13.787 9.087z" fill="#ffc828"/><path d="m270.789 390.446s19.845-46.267 34.059-79.442c7.749-18.041 21.673-32.811 39.207-41.592 6.219-3.114 9.48-10.095 7.881-16.863-1.6-6.769-7.643-11.549-14.598-11.549h-33.2v-17.182c0-26.089-21.11-47.085-47.133-47.085v222.8c5.997 0 11.42-3.574 13.784-9.087z" fill="#fdaa14"/></g></svg>