<svg id="Layer_1" enable-background="new 0 0 512 512" height="512" viewBox="0 0 512 512" width="512" xmlns="http://www.w3.org/2000/svg"><g><path d="m438.193 186.273-96.399-96.4c-2.813-2.813-4.394-6.628-4.394-10.607s1.581-7.794 4.395-10.607l57.911-57.904c6.817-6.831 16.28-10.755 25.95-10.755 21.036 0 38.144 17.108 38.144 38.136v137.53c0 6.067-3.654 11.537-9.26 13.858-5.223 2.164-11.774 1.324-16.347-3.251z" fill="#90837b"/><path d="m57.46 189.525c-5.605-2.322-9.26-7.792-9.26-13.858v-137.531c0-21.028 17.108-38.136 38.136-38.136 9.678 0 19.141 3.924 25.969 10.767l57.9 57.893c2.813 2.813 4.395 6.628 4.395 10.607s-1.58 7.794-4.394 10.607l-96.399 96.4c-4.603 4.603-11.157 5.401-16.347 3.251z" fill="#aa9b91"/><path d="m432.733 512h-353.466c-8.284 0-15-6.716-15-15v-144.6c0-6.067 3.654-11.537 9.26-13.858 5.604-2.32 12.058-1.038 16.347 3.252l66.219 66.218c6.27 6.269 14.604 9.722 23.471 9.722h152.875c8.866 0 17.201-3.453 23.471-9.722l66.219-66.218c4.29-4.29 10.742-5.572 16.347-3.252 5.605 2.322 9.26 7.792 9.26 13.858v144.6c-.003 8.284-6.718 15-15.003 15z" fill="#aa9b91"/><path d="m480.934 319.2c-3.979 0-7.794-1.58-10.606-4.394l-112.475-112.474c-12.186-12.185-28.387-18.895-45.619-18.895-17.225 0-33.418 6.704-45.602 18.878-2.811 2.82-6.636 4.415-10.628 4.415-4.017 0-7.863-1.606-10.678-4.457-12.179-12.147-28.355-18.835-45.56-18.835-17.232 0-33.434 6.71-45.619 18.896l-112.474 112.473c-2.813 2.813-6.628 4.394-10.606 4.394s-7.794-1.581-10.606-4.394l-16.067-16.067c-2.814-2.813-4.394-6.629-4.394-10.607v-64.267c0-3.978 1.58-7.793 4.394-10.606l144.6-144.6c2.813-2.813 6.628-4.394 10.606-4.394h192.8c3.979 0 7.794 1.581 10.606 4.394l144.6 144.6c2.813 2.813 4.394 6.628 4.394 10.606v64.267c0 3.978-1.58 7.793-4.394 10.606l-16.066 16.067c-2.812 2.814-6.628 4.394-10.606 4.394z" fill="#90837b"/><path d="m447.733 497v-144.6c0-6.067-3.654-11.537-9.26-13.858-5.604-2.32-12.057-1.038-16.347 3.252l-66.219 66.218c-6.27 6.269-14.604 9.722-23.471 9.722h-76.436v94.266h176.733c8.285 0 15-6.716 15-15z" fill="#90837b"/><path d="m266.632 202.314c12.184-12.174 28.377-18.878 45.602-18.878 17.232 0 33.434 6.71 45.619 18.895l112.475 112.475c2.813 2.813 6.628 4.394 10.606 4.394s7.794-1.581 10.606-4.394l16.066-16.067c2.813-2.813 4.394-6.628 4.394-10.606v-64.267c0-3.978-1.58-7.793-4.394-10.606l-144.6-144.6c-2.813-2.813-6.628-4.394-10.606-4.394h-96.4v142.462h.004c3.992.001 7.817-1.594 10.628-4.414z" fill="#766d69"/><path d="m332.438 447.733h-152.875c-16.879 0-32.748-6.573-44.684-18.508l-114.419-114.418c-2.813-2.813-4.394-6.628-4.394-10.606s1.58-7.793 4.394-10.606l112.475-112.475c17.852-17.851 41.586-27.682 66.832-27.682 20.526 0 40.055 6.5 56.233 18.524 16.179-12.024 35.707-18.524 56.233-18.524 25.246 0 48.98 9.831 66.832 27.682l112.475 112.474c2.813 2.813 4.394 6.628 4.394 10.606s-1.58 7.793-4.394 10.606l-114.419 114.419c-11.935 11.936-27.805 18.508-44.683 18.508z" fill="#f3f3f4"/><path d="m377.121 429.226 114.419-114.419c2.813-2.813 4.394-6.628 4.394-10.606s-1.58-7.793-4.394-10.606l-112.475-112.477c-17.852-17.851-41.586-27.682-66.832-27.682-20.526 0-40.055 6.5-56.233 18.524v275.773h76.438c16.878 0 32.748-6.572 44.683-18.507z" fill="#e0e0e2"/><path d="m366.515 418.619h.01z"/><circle clip-rule="evenodd" cx="191.733" cy="239.933" fill="#502f28" fill-rule="evenodd" r="15"/><circle clip-rule="evenodd" cx="320.267" cy="239.933" fill="#281414" fill-rule="evenodd" r="15"/><path d="m264.033 383.467h-16.066c-46.596 0-55.167-42.624-55.167-54.211 0-23.958 15.713-40.056 39.101-40.056h48.199c23.388 0 39.101 16.097 39.101 40.056-.001 12.715-9.459 54.211-55.168 54.211z" fill="#502f28"/><path d="m319.2 329.256c0-23.958-15.713-40.056-39.101-40.056h-24.099v94.267h8.033c45.709 0 55.167-41.496 55.167-54.211z" fill="#281414"/></g></svg>