<svg id="Layer_1" enable-background="new 0 0 512 512" height="512" viewBox="0 0 512 512" width="512" xmlns="http://www.w3.org/2000/svg"><g><path d="m143.533 190.667c-8.284 0-15-6.716-15-15v-96.4c0-9.447-7.686-17.133-17.133-17.133s-17.133 7.686-17.133 17.133c0 8.284-6.716 15-15 15s-15-6.716-15-15c0-43.708 35.558-79.267 79.266-79.267s79.267 35.559 79.267 79.267v64.267c0 8.284-6.716 15-15 15h-32.133c-9.447 0-17.133 7.687-17.133 17.134-.001 8.283-6.717 14.999-15.001 14.999z" fill="#90837b"/><path d="m368.467 190.667c-8.284 0-15-6.716-15-15 0-9.447-7.686-17.134-17.133-17.134h-32.134c-8.284 0-15-6.716-15-15v-64.266c0-43.708 35.559-79.267 79.267-79.267s79.267 35.559 79.267 79.267c0 8.284-6.716 15-15 15s-15-6.716-15-15c0-9.447-7.686-17.133-17.133-17.133s-17.133 7.686-17.133 17.133v96.4c-.001 8.284-6.717 15-15.001 15z" fill="#766d69"/><path d="m63.2 367.4c-8.284 0-15-6.716-15-15v-96.417c0-53.478 43.538-95.316 95.333-95.316 8.284 0 15 6.716 15 15v96.399c0 52.568-42.766 95.334-95.333 95.334z" fill="#e0e0e2"/><path d="m448.8 367.4c-52.567 0-95.333-42.767-95.333-95.334v-96.399c0-8.284 6.716-15 15-15 51.76 0 95.333 41.788 95.333 95.316v96.417c0 8.285-6.716 15-15 15z" fill="#ccced0"/><path d="m264.033 512h-16.066c-65.396 0-119.434-52.875-119.434-119.434v-216.899c0-26.574 21.648-47.134 47.133-47.134h160.667c25.48 0 47.133 20.556 47.133 47.134v216.899c.001 66.65-54.129 119.434-119.433 119.434z" fill="#f3f3f4"/><path d="m383.467 392.566v-216.899c0-26.578-21.653-47.134-47.133-47.134h-80.334v383.467h8.033c65.304 0 119.434-52.784 119.434-119.434z" fill="#e0e0e2"/><circle clip-rule="evenodd" cx="207.8" cy="239.933" fill="#502f28" fill-rule="evenodd" r="15"/><circle clip-rule="evenodd" cx="304.2" cy="239.933" fill="#281414" fill-rule="evenodd" r="15"/><path d="m264.033 447.733h-16.066c-46.588 0-55.167-42.626-55.167-54.211 0-23.959 15.713-40.056 39.1-40.056h48.2c23.387 0 39.1 16.097 39.1 40.056 0 12.688-9.466 54.211-55.167 54.211z" fill="#502f28"/><path d="m319.2 393.522c0-23.959-15.713-40.056-39.1-40.056h-24.1v94.267h8.033c45.701 0 55.167-41.523 55.167-54.211z" fill="#281414"/></g></svg>