<svg id="Layer_1" enable-background="new 0 0 512 512" height="512" viewBox="0 0 512 512" width="512" xmlns="http://www.w3.org/2000/svg"><g><path d="m143.533 303.134h-80.333c-34.849 0-63.2-28.352-63.2-63.2v-48.2c0-8.284 6.716-15 15-15h80.333c34.849 0 63.2 28.352 63.2 63.2v48.2c0 8.284-6.716 15-15 15z" fill="#78493c"/><path d="m448.8 303.134h-80.333c-8.284 0-15-6.716-15-15v-48.2c0-34.849 28.352-63.2 63.2-63.2h80.333c8.284 0 15 6.716 15 15v48.2c0 34.848-28.352 63.2-63.2 63.2z" fill="#502f28"/><path d="m218.06.014c-11.994.426-21.326 10.648-21.326 22.649v18.036c0 8.284-6.716 15-15 15h-74.267c-8.284 0-15-6.716-15-15v-18.035c0-12.001-9.332-22.223-21.326-22.649-12.593-.448-22.941 9.626-22.941 22.118v18.566c0 32.732 26.535 59.267 59.267 59.267h74.267c8.284 0 15 6.716 15 15v76.768c0 8.284 6.716 15 15 15h14.266c8.284 0 15-6.716 15-15v-169.6c0-12.492-10.349-22.567-22.94-22.12z" fill="#c6b2a8"/><path d="m440.86.014c-11.994.426-21.326 10.648-21.326 22.649v18.035c0 8.284-6.716 15-15 15h-74.267c-8.284 0-15-6.715-15-15v-18.036c0-12.001-9.333-22.222-21.326-22.649-12.592-.446-22.941 9.629-22.941 22.12v169.6c0 8.284 6.716 15 15 15h14.267c8.284 0 15-6.716 15-15v-76.768c0-8.284 6.716-15 15-15h74.267c32.732 0 59.267-26.535 59.267-59.267v-18.565c-.001-12.492-10.349-22.566-22.941-22.119z" fill="#aa9b91"/><path d="m368.467 512h-224.934c-8.284 0-15-6.716-15-15v-241c0-43.708 35.559-79.267 79.267-79.267h96.4c43.708 0 79.267 35.559 79.267 79.267v241c0 8.284-6.716 15-15 15z" fill="#a06450"/><path d="m383.467 497v-241c0-43.708-35.559-79.267-79.267-79.267h-48.2v335.267h112.467c8.284 0 15-6.716 15-15z" fill="#78493c"/><circle clip-rule="evenodd" cx="207.8" cy="264.033" fill="#502f28" fill-rule="evenodd" r="15"/><circle clip-rule="evenodd" cx="304.2" cy="264.033" fill="#281414" fill-rule="evenodd" r="15"/><path d="m264.033 407.566h-16.066c-46.596 0-55.167-42.624-55.167-54.211 0-23.959 15.713-40.056 39.1-40.056h48.2c23.388 0 39.101 16.097 39.101 40.056-.001 12.705-9.459 54.211-55.168 54.211z" fill="#502f28"/><path d="m319.2 353.355c0-23.959-15.713-40.056-39.101-40.056h-24.099v94.267h8.033c45.709 0 55.167-41.506 55.167-54.211z" fill="#281414"/></g></svg>