<svg id="Layer_1" enable-background="new 0 0 512 512" height="512" viewBox="0 0 512 512" width="512" xmlns="http://www.w3.org/2000/svg"><g><path d="m384.533 174.6h-257.066c-8.284 0-15-6.716-15-15v-16.067c0-79.144 64.388-143.533 143.533-143.533s143.533 64.389 143.533 143.532v16.068c0 8.284-6.716 15-15 15z" fill="#502f28"/><path d="m399.533 159.6v-16.067c0-79.144-64.388-143.533-143.533-143.533v174.6h128.533c8.284 0 15-6.716 15-15z" fill="#281414"/><path d="m448.8 512h-385.6c-8.284 0-15-6.716-15-15v-13.066c0-36.101 9.467-71.751 27.377-103.097l28.275-49.484c5.637-9.86 8.614-21.067 8.614-32.42v-139.333c0-43.708 35.559-79.267 79.267-79.267 26.416 0 49.854 12.988 64.267 32.914 14.412-19.926 37.851-32.914 64.267-32.914 43.708 0 79.267 35.559 79.267 79.267v139.333c0 11.353 2.978 22.56 8.609 32.411l33.244 58.175c14.663 25.668 22.413 54.857 22.413 84.414v23.067c0 8.284-6.716 15-15 15z" fill="#f3f3f4"/><path d="m463.8 497v-23.067c0-29.557-7.75-58.746-22.413-84.414l-33.244-58.175c-5.632-9.852-8.609-21.059-8.609-32.411v-139.333c0-43.708-35.559-79.267-79.267-79.267-26.416 0-49.854 12.988-64.267 32.914v398.753h192.8c8.284 0 15-6.716 15-15z" fill="#e0e0e2"/><circle clip-rule="evenodd" cx="320.267" cy="159.6" fill="#281414" fill-rule="evenodd" r="15"/><circle clip-rule="evenodd" cx="191.733" cy="159.6" fill="#502f28" fill-rule="evenodd" r="15"/><path d="m352.4 512h-192.8c-8.284 0-15-6.716-15-15v-48.216c0-61.417 49.967-111.384 111.384-111.384 61.45 0 111.417 49.967 111.417 111.384v48.216c-.001 8.284-6.716 15-15.001 15z" fill="#e0e0e2"/><path d="m256 287.066c-4.452 0-8.674-1.978-11.523-5.397l-40.167-48.2c-2.58-3.096-3.806-7.1-3.4-11.11.404-4.01 2.406-7.688 5.554-10.205l40.167-32.133c5.479-4.383 13.262-4.383 18.74 0l40.167 32.133c3.147 2.518 5.149 6.195 5.554 10.205.405 4.011-.82 8.015-3.4 11.11l-40.167 48.2c-2.851 3.42-7.073 5.397-11.525 5.397z" fill="#ffc828"/><path d="m367.4 497v-48.216c0-61.411-49.958-111.375-111.4-111.384v174.6h96.4c8.285 0 15-6.716 15-15z" fill="#ccced0"/><path d="m267.523 281.669 40.167-48.2c2.58-3.096 3.806-7.1 3.4-11.11-.404-4.01-2.406-7.688-5.554-10.205l-40.167-32.133c-2.739-2.191-6.055-3.287-9.37-3.287v110.333c4.453-.001 8.675-1.978 11.524-5.398z" fill="#fdaa14"/></g></svg>