<svg id="Layer_1" enable-background="new 0 0 512 512" height="512" viewBox="0 0 512 512" width="512" xmlns="http://www.w3.org/2000/svg"><g><path d="m497 512h-482c-8.284 0-15-6.716-15-15v-241c0-23.897 10.63-46.912 27.444-61.24-7.398-20.814-5.098-46.061 6.851-66.759 11.952-20.697 32.667-35.313 54.39-39.315 4-21.728 18.618-42.441 39.316-54.391 20.691-11.944 45.938-14.247 66.757-6.849 14.328-16.814 37.345-27.446 61.242-27.446 23.899 0 46.914 10.63 61.242 27.446 20.819-7.396 46.066-5.097 66.758 6.85 20.698 11.948 35.315 32.662 39.316 54.39 21.724 4 42.436 18.616 54.389 39.313 11.948 20.698 14.249 45.945 6.852 66.76 16.813 14.325 27.443 37.341 27.443 61.241v241c0 8.284-6.716 15-15 15z" fill="#f3f3f4"/><path d="m512 497v-241c0-23.9-10.63-46.916-27.444-61.241 7.396-20.814 5.096-46.062-6.852-66.76-11.953-20.697-32.665-35.313-54.389-39.313-4-21.728-18.618-42.441-39.316-54.39-20.691-11.946-45.938-14.245-66.758-6.85-14.327-16.816-37.342-27.446-61.241-27.446v512h241c8.284 0 15-6.716 15-15z" fill="#e0e0e2"/><path d="m119.433 303.134h-24.1c-8.284 0-15-6.716-15-15v-40.167c0-29.972 24.22-55.167 55.167-55.167h24.1c8.284 0 15 6.716 15 15v40.167c0 30.482-24.657 55.167-55.167 55.167z" fill="#aa9b91"/><path d="m416.667 303.134h-24.1c-30.477 0-55.167-24.653-55.167-55.167v-40.167c0-8.284 6.716-15 15-15h24.1c30.947 0 55.167 25.197 55.167 55.167v40.167c0 8.284-6.716 15-15 15z" fill="#90837b"/><path d="m256 431.667c-61.426 0-111.4-49.974-111.4-111.4v-112.467c0-26.256 21.3-47.133 47.133-47.133h128.533c25.806 0 47.133 20.855 47.133 47.133v112.467c.001 61.426-49.973 111.4-111.399 111.4z" fill="#c6b2a8"/><path d="m367.4 320.267v-112.467c0-26.278-21.327-47.133-47.133-47.133h-64.267v271c61.426 0 111.4-49.974 111.4-111.4z" fill="#aa9b91"/><circle clip-rule="evenodd" cx="223.867" cy="256" fill="#502f28" fill-rule="evenodd" r="15"/><circle clip-rule="evenodd" cx="288.133" cy="256" fill="#281414" fill-rule="evenodd" r="15"/><path d="m272.067 367.4h-32.134c-8.284 0-15-6.716-15-15s6.716-15 15-15h32.134c8.284 0 15 6.716 15 15s-6.716 15-15 15z" fill="#502f28"/><path d="m287.067 352.4c0-8.284-6.716-15-15-15h-16.067v30h16.067c8.284 0 15-6.715 15-15z" fill="#281414"/></g></svg>