<svg id="Layer_1" enable-background="new 0 0 512 512" height="512" viewBox="0 0 512 512" width="512" xmlns="http://www.w3.org/2000/svg"><g><path d="m304.2 512h-96.4c-25.747 0-47.133-20.798-47.133-47.133v-32.134c0-8.284 6.716-15 15-15h160.667c8.284 0 15 6.716 15 15v32.134c0 25.799-20.849 47.133-47.134 47.133z" fill="#5fa530"/><path d="m351.334 464.867v-32.134c0-8.284-6.716-15-15-15h-80.334v94.267h48.2c26.285 0 47.134-21.334 47.134-47.133z" fill="#418226"/><path d="m336.334 447.732h-160.667c-25.746 0-47.133-20.797-47.133-47.134v-193.866h-1.066c-25.749 0-47.133-20.8-47.133-47.134 0-20.757 13.476-38.416 32.133-44.69v-35.643c0-25.988 12.752-50.343 34.113-65.15 21.366-14.804 48.648-18.195 72.985-9.069l36.434 13.662 36.434-13.663c24.337-9.126 51.62-5.735 72.984 9.067 21.363 14.81 34.116 39.164 34.116 65.152v35.645c18.661 6.277 32.133 23.931 32.133 44.672 0 26.257-21.27 47.15-47.133 47.15h-1.066v193.866c-.001 25.822-20.869 47.135-47.134 47.135z" fill="#7dc83a"/><path d="m383.467 400.598v-193.866h1.066c25.864 0 47.133-20.893 47.133-47.15 0-20.741-13.473-38.395-32.133-44.672v-35.645c0-25.988-12.752-50.343-34.116-65.152-21.364-14.803-48.646-18.194-72.983-9.068l-36.434 13.663v429.023h80.333c26.266.001 47.134-21.312 47.134-47.133z" fill="#5fa530"/><circle clip-rule="evenodd" cx="207.8" cy="368.467" fill="#418226" fill-rule="evenodd" r="15"/><circle clip-rule="evenodd" cx="304.2" cy="368.467" fill="#28641e" fill-rule="evenodd" r="15"/><path d="m312.233 118.367c-3.839 0-7.677-1.464-10.606-4.393-5.858-5.857-5.859-15.355-.001-21.214l8.033-8.034c5.857-5.857 15.355-5.858 21.213-.001s5.859 15.355.001 21.213l-8.033 8.035c-2.928 2.929-6.768 4.394-10.607 4.394z" fill="#281414"/><path d="m199.767 118.367c-3.839 0-7.678-1.465-10.607-4.394l-8.033-8.035c-5.857-5.857-5.857-15.355.001-21.213 5.858-5.856 15.355-5.855 21.213.001l8.033 8.034c5.857 5.858 5.857 15.356-.001 21.214-2.929 2.928-6.768 4.393-10.606 4.393z" fill="#502f28"/><path d="m127.467 127.467h.01z"/><g fill="#5fa530"><path d="m304.2 319.2h-96.4c-8.284 0-15-6.716-15-15s6.716-15 15-15h96.4c8.284 0 15 6.716 15 15s-6.716 15-15 15z"/><path d="m304.2 254.934h-96.4c-8.284 0-15-6.716-15-15s6.716-15 15-15h96.4c8.284 0 15 6.716 15 15s-6.716 15-15 15z"/><path d="m304.2 190.667h-96.4c-8.284 0-15-6.716-15-15s6.716-15 15-15h96.4c8.284 0 15 6.716 15 15s-6.716 15-15 15z"/></g><path d="m319.2 304.2c0-8.284-6.716-15-15-15h-48.2v30h48.2c8.284 0 15-6.716 15-15z" fill="#418226"/><path d="m319.2 239.934c0-8.284-6.716-15-15-15h-48.2v30h48.2c8.284 0 15-6.716 15-15z" fill="#418226"/><path d="m319.2 175.667c0-8.284-6.716-15-15-15h-48.2v30h48.2c8.284 0 15-6.716 15-15z" fill="#418226"/></g></svg>