<svg id="Layer_1" enable-background="new 0 0 512 512" height="512" viewBox="0 0 512 512" width="512" xmlns="http://www.w3.org/2000/svg"><g><path d="m206.372 140.908v-42.03c0-16.64-6.746-32.93-18.515-44.699l-42.796-42.796c-7.233-7.235-17.248-11.383-27.491-11.383-20.533 0-37.237 16.704-37.237 37.236v42.03c0 16.64 6.746 32.93 18.515 44.699l42.796 42.796c7.234 7.234 17.249 11.383 27.492 11.383 20.532 0 37.236-16.704 37.236-37.236z" fill="#fdaa14"/><path d="m305.627 140.908v-42.03c0-16.64 6.746-32.93 18.515-44.699l42.796-42.796c7.233-7.235 17.248-11.383 27.491-11.383 20.532 0 37.236 16.704 37.236 37.236v42.03c0 16.64-6.746 32.93-18.515 44.699l-42.796 42.796c-7.234 7.234-17.249 11.383-27.492 11.383-20.531 0-37.235-16.704-37.235-37.236z" fill="#fa8c00"/><path d="m368.467 512h-224.934c-8.284 0-15-6.716-15-15v-99.265c-27.632-6.752-48.2-31.72-48.2-61.402v-34.623c-36.56-7.031-64.267-39.263-64.267-77.844 0-43.708 35.559-79.267 79.267-79.267h18.139c7.35-54.355 54.056-96.399 110.394-96.399h64.267c56.338 0 103.043 42.044 110.394 96.399h18.14c43.708 0 79.267 35.559 79.267 79.267 0 38.581-27.707 70.813-64.267 77.844v34.623c0 29.683-20.568 54.651-48.2 61.402v99.265c0 8.284-6.716 15-15 15z" fill="#ffc828"/><path d="m383.467 497v-99.265c27.632-6.751 48.2-31.72 48.2-61.402v-34.623c36.56-7.031 64.267-39.263 64.267-77.844 0-43.708-35.559-79.267-79.267-79.267h-18.14c-7.35-54.355-54.056-96.399-110.393-96.399h-32.15v463.8h112.483c8.284 0 15-6.716 15-15z" fill="#fdaa14"/><path d="m256 447.733c-34.849 0-63.2-28.352-63.2-63.2 0-8.284 6.716-15 15-15h96.4c8.284 0 15 6.716 15 15 0 34.849-28.352 63.2-63.2 63.2z" fill="#fa8c00"/><path d="m319.2 384.533c0-8.284-6.716-15-15-15h-48.216v78.2h.016c34.848 0 63.2-28.351 63.2-63.2z" fill="#fd5f0f"/><path d="m367.384 272.067c0-61.525-49.876-111.4-111.4-111.4s-111.4 49.875-111.4 111.4l.016 112.466c0 8.284 6.716 15 15 15h48.2c16.875 0 32.745-6.571 44.692-18.508 1.225-1.225 2.395-2.497 3.508-3.815 1.115 1.319 2.287 2.595 3.513 3.82 11.943 11.932 27.813 18.503 44.688 18.503h48.2c8.284 0 15-6.716 15-15z" fill="#fdaa14"/><path d="m259.512 381.03c11.943 11.932 27.813 18.503 44.688 18.503h48.2c8.284 0 15-6.716 15-15l-.016-112.466c0-61.525-49.876-111.4-111.4-111.4v216.561c.005-.006.011-.012.016-.018 1.115 1.319 2.287 2.595 3.512 3.82z" fill="#fa8c00"/><circle clip-rule="evenodd" cx="95.333" cy="223.867" fill="#502f28" fill-rule="evenodd" r="15"/><circle clip-rule="evenodd" cx="416.666" cy="223.867" fill="#281414" fill-rule="evenodd" r="15"/><path d="m201.327 238.609-24.1-24.101c-5.857-5.858-5.857-15.355 0-21.213 5.858-5.858 15.356-5.858 21.213 0l24.1 24.101c5.857 5.858 5.857 15.355 0 21.213-5.858 5.859-15.356 5.857-21.213 0z" fill="#fa8c00"/><path d="m310.673 238.609 24.1-24.101c5.857-5.858 5.857-15.355 0-21.213-5.858-5.858-15.356-5.858-21.213 0l-24.1 24.101c-5.857 5.858-5.857 15.355 0 21.213 5.858 5.859 15.356 5.857 21.213 0z" fill="#fd5f0f"/></g></svg>