<svg id="Layer_1" enable-background="new 0 0 512 512" height="512" viewBox="0 0 512 512" width="512" xmlns="http://www.w3.org/2000/svg"><g><path d="m127.467 222.8c-8.284 0-15-6.716-15-15v-128.55c0-43.698 35.552-79.25 79.25-79.25 8.284 0 15.017 6.716 15.017 15v128.533c0 8.284-6.716 15-15 15-27.166 0-49.267 22.101-49.267 49.266v.001c0 8.284-6.716 15-15 15z" fill="#ccced0"/><path d="m384.533 222.8c-8.284 0-15-6.716-15-15 0-27.166-22.101-49.267-49.267-49.267-8.284 0-15-6.716-15-15v-128.533c0-8.284 6.716-15 15-15 43.715 0 79.267 35.552 79.267 79.25v128.55c0 8.284-6.716 15-15 15z" fill="#b9bbbe"/><path d="m336.333 512h-160.666c-43.708 0-79.267-35.559-79.267-79.267v-80.333c0-14.14 3.834-28.056 10.946-40.167-7.112-12.112-10.946-26.028-10.946-40.167 0-18.249 6.134-35.562 17.428-49.589-.905-4.824-1.361-9.734-1.361-14.678 0-43.708 35.559-79.267 79.267-79.267 4.948 0 9.859.456 14.68 1.361 14.027-11.294 31.339-17.428 49.587-17.428s35.56 6.134 49.587 17.428c4.82-.905 9.731-1.361 14.68-1.361 43.708 0 79.267 35.559 79.267 79.267 0 4.943-.456 9.854-1.361 14.678 11.294 14.027 17.428 31.34 17.428 49.589 0 14.139-3.834 28.055-10.946 40.167 7.112 12.111 10.946 26.027 10.946 40.167v80.333c-.002 43.708-35.561 79.267-79.269 79.267z" fill="#f3f3f4"/><path d="m415.6 432.733v-80.333c0-14.14-3.834-28.056-10.946-40.167 7.112-12.112 10.946-26.028 10.946-40.167 0-18.249-6.134-35.562-17.428-49.589.905-4.824 1.361-9.734 1.361-14.678 0-43.708-35.559-79.267-79.267-79.267-4.948 0-9.859.456-14.68 1.361-14.027-11.294-31.339-17.428-49.587-17.428v399.535h80.333c43.709 0 79.268-35.559 79.268-79.267z" fill="#e0e0e2"/><path d="m256 512c-34.856 0-63.2-28.344-63.2-63.184 0-8.284 6.716-15.009 15-15.009l96.4-.008c8.284 0 15 6.716 15 15 0 34.849-28.351 63.201-63.2 63.201z" fill="#ccced0"/><path d="m319.2 448.8c0-8.284-6.716-15-15-15l-48.2.004v78.196c34.849 0 63.2-28.352 63.2-63.2z" fill="#b9bbbe"/><path d="m304.2 463.8h-16.066c-12.035 0-23.381-4.48-32.134-12.653-8.747 8.17-20.097 12.653-32.134 12.653h-16.066c-25.743 0-47.133-20.796-47.133-47.134v-32.133c0-52.566 42.767-95.333 95.333-95.333s95.333 42.767 95.333 95.333v32.133c0 25.797-20.846 47.134-47.133 47.134z" fill="#e0e0e2"/><path d="m304.2 463.8c26.287 0 47.133-21.337 47.133-47.134v-32.133c0-52.566-42.767-95.333-95.333-95.333v161.946c8.753 8.173 20.099 12.653 32.134 12.653h16.066z" fill="#ccced0"/><circle clip-rule="evenodd" cx="175.667" cy="272.067" fill="#502f28" fill-rule="evenodd" r="15"/><circle clip-rule="evenodd" cx="336.333" cy="272.067" fill="#281414" fill-rule="evenodd" r="15"/><g fill="#502f28"><path d="m256 415.6c-3.839 0-7.678-1.465-10.606-4.394l-16.066-16.066c-5.858-5.857-5.858-15.355 0-21.213 5.857-5.857 15.355-5.857 21.213 0l5.46 5.46 5.46-5.46c5.857-5.857 15.355-5.857 21.213 0s5.858 15.355 0 21.213l-16.066 16.066c-2.93 2.929-6.769 4.394-10.608 4.394z"/><path d="m282.673 395.14c5.858-5.857 5.858-15.355 0-21.213-5.857-5.857-15.355-5.857-21.213 0l-5.46 5.46v36.213c3.839 0 7.678-1.465 10.606-4.394z"/></g></g></svg>