<svg id="Layer_1" enable-background="new 0 0 512 512" height="512" viewBox="0 0 512 512" width="512" xmlns="http://www.w3.org/2000/svg"><g><path d="m71.233 271h-56.233c-8.284 0-15-6.716-15-15v-184.767c0-39.278 31.955-71.233 71.233-71.233s71.233 31.955 71.233 71.233v128.533c.001 39.279-31.954 71.234-71.233 71.234z" fill="#c6b2a8"/><path d="m497 271h-56.233c-39.278 0-71.233-31.955-71.233-71.233v-128.534c-.001-39.278 31.954-71.233 71.233-71.233s71.233 31.955 71.233 71.233v184.767c0 8.284-6.716 15-15 15z" fill="#aa9b91"/><path d="m406.979 397.121c-60.842-20.281-101.712-76.989-101.712-141.113 0-8.284 6.716-15.008 15-15.008 27.166 0 49.267-22.101 49.267-49.267v-16.066c0-8.284 6.716-15 15-15s15 6.716 15 15v131.297c0 25.293 9.852 49.074 27.74 66.963 4.916 4.916 5.81 12.566 2.159 18.483-7.387 11.968-21.13 5.151-22.454 4.711z" fill="#e0e0e2"/><path d="m82.567 392.41c-3.65-5.917-2.757-13.567 2.159-18.483 17.889-17.889 27.74-41.67 27.74-66.963v-131.297c0-8.284 6.716-15 15-15s15 6.716 15 15v16.066c0 27.166 22.101 49.267 49.267 49.267 8.284 0 15 6.716 15 15 0 64.132-40.87 120.84-101.7 141.117-1.605.533-15.209 7.053-22.466-4.707z" fill="#f3f3f4"/><path d="m143.55 512c-8.284 0-15.017-6.716-15.017-15v-64.267c0-8.284 6.716-15 15-15 36.024 0 65.333-29.309 65.333-65.333v-81.4h-17.133c-43.708 0-79.267-35.559-79.267-79.267v-120.5c.001-39.278 31.956-71.233 71.234-71.233h144.6c39.278 0 71.233 31.955 71.233 71.233v120.5c0 43.708-35.559 79.267-79.267 79.267h-17.133v81.416c.001 87.995-71.588 159.584-159.583 159.584z" fill="#aa9b91"/><path d="m328.3 0h-72.3v465.538c29.094-28.923 47.134-68.954 47.134-113.122v-81.416h17.133c43.708 0 79.267-35.559 79.267-79.267v-120.5c-.001-39.278-31.956-71.233-71.234-71.233z" fill="#90837b"/><g clip-rule="evenodd" fill-rule="evenodd"><circle cx="191.733" cy="111.4" fill="#502f28" r="15"/><circle cx="320.267" cy="111.4" fill="#281414" r="15"/></g></g></svg>