<svg id="Layer_1" enable-background="new 0 0 512 512" height="512" viewBox="0 0 512 512" width="512" xmlns="http://www.w3.org/2000/svg"><g><circle cx="95.333" cy="79.267" fill="#78493c" r="63.2"/><circle cx="408.633" cy="79.267" fill="#502f28" r="63.2"/><path d="m256 512c-132.3 0-239.933-107.634-239.933-239.934 0-179.365 154.114-272.066 239.933-272.066 84.701 0 239.933 91.738 239.933 272.066 0 132.3-107.633 239.934-239.933 239.934z" fill="#a06450"/><path d="m495.933 272.066c0-180.328-155.232-272.066-239.933-272.066v512c132.3 0 239.933-107.634 239.933-239.934z" fill="#78493c"/><path d="m206.828 366.619c-10.238 0-17.468 10.03-14.23 19.743l17.038 51.114c2.042 6.125 7.774 10.257 14.23 10.257h64.267c6.457 0 12.188-4.132 14.23-10.257l17.038-51.114c3.238-9.713-3.992-19.743-14.23-19.743z" fill="#fff"/><path d="m302.364 437.477 17.038-51.114c3.238-9.713-3.992-19.743-14.23-19.743h-49.172v81.114h32.133c6.457-.001 12.189-4.132 14.231-10.257z" fill="#f3f3f4"/><path d="m320.267 241h-128.534c-43.708 0-79.267 35.559-79.267 79.267s35.559 79.267 79.267 79.267c26.416 0 49.855-12.988 64.267-32.914 14.412 19.926 37.851 32.914 64.267 32.914 43.708 0 79.267-35.559 79.267-79.267s-35.56-79.267-79.267-79.267z" fill="#78493c"/><path d="m320.267 399.533c43.708 0 79.267-35.559 79.267-79.267s-35.56-79.266-79.267-79.266h-64.267v125.619c14.412 19.926 37.851 32.914 64.267 32.914z" fill="#502f28"/><path d="m264.033 303.134h-16.066c-46.596 0-55.167-42.624-55.167-54.211 0-23.959 15.713-40.057 39.1-40.057h48.2c23.387 0 39.1 16.098 39.1 40.057 0 12.715-9.458 54.211-55.167 54.211z" fill="#502f28"/><path d="m319.2 248.923c0-23.959-15.713-40.057-39.1-40.057h-24.1v94.268h8.033c45.709 0 55.167-41.496 55.167-54.211z" fill="#281414"/><g clip-rule="evenodd" fill-rule="evenodd"><circle cx="143.533" cy="191.733" fill="#502f28" r="15"/><circle cx="368.467" cy="191.733" fill="#281414" r="15"/></g></g></svg>