<svg id="Layer_1" enable-background="new 0 0 512 512" height="512" viewBox="0 0 512 512" width="512" xmlns="http://www.w3.org/2000/svg"><g><path d="m143.533 190.667c-3.837 0-7.674-1.463-10.603-4.39 0 0-10.31-10.302-23.537-23.537-18.003-18.004-27.919-41.943-27.919-67.407s9.917-49.403 27.923-67.41l23.529-23.529c5.857-5.857 15.355-5.857 21.213 0 23.555 23.554 36.527 54.872 36.527 88.185v50.955c0 3.979-1.58 7.794-4.393 10.606l-32.134 32.134c-2.928 2.928-6.767 4.393-10.606 4.393z" fill="#aa9b91"/><path d="m368.467 190.667c-3.839 0-7.677-1.464-10.606-4.394l-32.134-32.134c-2.813-2.813-4.393-6.628-4.393-10.606v-50.955c0-33.313 12.972-64.631 36.527-88.185 5.858-5.857 15.355-5.859 21.213 0l23.529 23.529c18.007 18.007 27.923 41.946 27.923 67.41s-9.917 49.403-27.923 67.41c-13.223 13.232-23.533 23.534-23.533 23.534-2.929 2.927-6.767 4.391-10.603 4.391z" fill="#90837b"/><path d="m288.133 512h-64.267c-43.708 0-79.267-35.559-79.267-79.267 0-24.166 9.196-46.917 25.931-64.256l-34.849-34.849c-14.971-14.972-23.215-34.878-23.215-56.052v-59.222c0-21.175 8.245-41.08 23.215-56.051 28.061-28.053 77.577-77.577 77.577-77.577 2.813-2.813 6.629-4.395 10.607-4.395h64.267c3.979 0 7.794 1.581 10.607 4.395 0 0 49.516 49.524 77.576 77.575 14.972 14.973 23.217 34.878 23.217 56.053v59.222c0 21.174-8.245 41.08-23.215 56.052l-34.849 34.849c16.735 17.339 25.931 40.09 25.931 64.256.001 43.709-35.558 79.267-79.266 79.267z" fill="#c6b2a8"/><path d="m367.4 432.734c0-24.166-9.196-46.917-25.931-64.256l34.849-34.849c14.97-14.972 23.215-34.878 23.215-56.052v-59.222c0-21.175-8.245-41.08-23.217-56.053-28.06-28.051-77.575-77.575-77.576-77.575-2.813-2.813-6.629-4.395-10.607-4.395h-32.133v431.668h32.133c43.708 0 79.267-35.558 79.267-79.266z" fill="#aa9b91"/><path d="m223.867 447.734c-8.284 0-15-6.716-15-15v-16.066c0-8.284 6.716-15 15-15s15 6.716 15 15v16.066c0 8.284-6.716 15-15 15z" fill="#90837b"/><path d="m288.133 447.734c-8.284 0-15-6.716-15-15v-16.066c0-8.284 6.716-15 15-15s15 6.716 15 15v16.066c0 8.284-6.715 15-15 15z" fill="#766d69"/><circle clip-rule="evenodd" cx="191.733" cy="223.867" fill="#502f28" fill-rule="evenodd" r="15"/><circle clip-rule="evenodd" cx="320.267" cy="223.867" fill="#281414" fill-rule="evenodd" r="15"/><path d="m288.133 110.333h-64.267c-8.284 0-15-6.716-15-15v-80.333c0-8.284 6.716-15 15-15h64.267c8.284 0 15 6.716 15 15v80.333c0 8.284-6.715 15-15 15z" fill="#78493c"/><path d="m303.133 95.333v-80.333c0-8.284-6.716-15-15-15h-32.133v110.333h32.133c8.285 0 15-6.716 15-15z" fill="#502f28"/></g></svg>