<svg id="Layer_1" enable-background="new 0 0 512 512" height="512" viewBox="0 0 512 512" width="512" xmlns="http://www.w3.org/2000/svg"><g><circle cx="63.2" cy="207.8" fill="#78493c" r="63.2"/><circle cx="448.8" cy="207.8" fill="#502f28" r="63.2"/><path d="m416.633 512h-321.306c-8.284 0-15-6.716-15-15v-321.333c0-96.863 78.798-175.667 175.653-175.667s175.653 78.804 175.653 175.667v321.333c0 8.284-6.716 15-15 15z" fill="#502f28"/><path d="m431.633 497v-321.333c0-96.863-78.798-175.667-175.653-175.667-.001 0-.003 0-.004 0v512h160.657c8.284 0 15-6.716 15-15z" fill="#281414"/><path d="m288.11 447.733h-64.261c-43.705 0-79.261-35.559-79.261-79.267v-81.4h-49.221c-8.284 0-15-6.716-15-15v-62.009c0-44.277 26.43-83.838 67.334-100.786 36.505-15.123 77.599-9.352 108.275 14.321 30.679-23.695 71.792-29.469 108.313-14.339 40.91 16.947 67.344 56.512 67.344 100.796v62.017c0 8.284-6.716 15-15 15h-49.261v81.4c0 43.709-35.557 79.267-79.262 79.267z" fill="#a06450"/><path d="m367.372 368.467v-81.4h49.261c8.284 0 15-6.716 15-15v-62.017c0-44.284-26.434-83.849-67.344-100.796-36.521-15.13-77.634-9.356-108.313 14.339v324.141h32.134c43.705-.001 79.262-35.559 79.262-79.267z" fill="#78493c"/><circle clip-rule="evenodd" cx="191.719" cy="191.733" fill="#502f28" fill-rule="evenodd" r="15"/><circle clip-rule="evenodd" cx="320.241" cy="191.733" fill="#281414" fill-rule="evenodd" r="15"/><path d="m288.11 383.467h-64.261c-8.284 0-15-6.716-15-15s6.716-15 15-15h64.261c8.284 0 15 6.716 15 15s-6.715 15-15 15z" fill="#78493c"/><path d="m272.045 287.066h-32.13c-8.284 0-15-6.716-15-15s6.716-15 15-15h32.13c8.284 0 15 6.716 15 15s-6.716 15-15 15z" fill="#502f28"/><path d="m95.327 243.717h.01z"/><path d="m303.11 368.467c0-8.284-6.716-15-15-15h-32.134v30h32.134c8.285 0 15-6.716 15-15z" fill="#502f28"/><path d="m287.045 272.066c0-8.284-6.716-15-15-15h-16.069v30h16.069c8.284 0 15-6.715 15-15z" fill="#281414"/></g></svg>