<svg id="Layer_1" enable-background="new 0 0 512 512" height="512" viewBox="0 0 512 512" width="512" xmlns="http://www.w3.org/2000/svg"><g><path d="m352.4 0h-192.8c-52.648 0-95.333 42.595-95.333 95.333v144.601c0 43.776 35.415 79.267 79.267 79.267h224.934c43.774 0 79.267-35.415 79.267-79.267v-144.601c-.002-52.648-42.596-95.333-95.335-95.333z" fill="#a06450"/><path d="m447.733 239.934v-144.601c0-52.648-42.594-95.333-95.333-95.333h-96.4v319.2h112.467c43.774 0 79.266-35.415 79.266-79.266z" fill="#78493c"/><path d="m368.467 254.934h-224.934c-8.284 0-15-6.716-15-15v-32.134c0-25.989 21.145-47.133 47.134-47.133h17.133v-1.067c0-26.026 21.058-47.133 47.134-47.133h32.133c26.031 0 47.134 21.06 47.134 47.133v1.067h17.133c26.029 0 47.134 21.057 47.134 47.133v32.134c-.001 8.284-6.717 15-15.001 15z" fill="#502f28"/><path d="m383.467 239.934v-32.134c0-26.076-21.105-47.133-47.134-47.133h-17.133v-1.067c0-26.073-21.103-47.133-47.134-47.133h-16.066v142.467h112.467c8.284 0 15-6.716 15-15z" fill="#281414"/><path d="m288.134 512h-64.268c-52.648 0-95.333-42.595-95.333-95.333v-176.733c0-8.284 6.716-15 15-15h224.934c8.284 0 15 6.716 15 15v176.733c0 52.648-42.595 95.333-95.333 95.333z" fill="#78493c"/><path d="m383.467 416.667v-176.733c0-8.284-6.716-15-15-15h-112.467v287.066h32.134c52.738 0 95.333-42.685 95.333-95.333z" fill="#502f28"/><g clip-rule="evenodd" fill-rule="evenodd"><circle cx="159.6" cy="95.333" fill="#502f28" r="15"/><circle cx="352.4" cy="95.333" fill="#281414" r="15"/><circle cx="223.867" cy="416.667" fill="#502f28" r="15"/><circle cx="288.133" cy="416.667" fill="#281414" r="15"/></g></g></svg>