<svg id="Layer_1" enable-background="new 0 0 512 512" height="512" viewBox="0 0 512 512" width="512" xmlns="http://www.w3.org/2000/svg"><g><circle cx="256" cy="256" fill="#a06450" r="241"/><path d="m497 256c0-133.101-107.899-241-241-241v482c133.101 0 241-107.899 241-241z" fill="#78493c"/><path d="m256 0c-141.385 0-256 114.615-256 256 0 8.284 6.716 14.992 15 14.992s15-6.725 15-15.009c0-.015 0-.027 0-.041.012-45.244 24.116-87.809 62.914-111.087 38.806-23.284 87.719-24.518 127.65-3.222l28.377 15.135c4.412 2.354 9.706 2.354 14.118 0l28.352-15.122c39.937-21.3 88.856-20.065 127.667 3.222 38.812 23.287 62.922 65.87 62.922 111.131 0 8.284 6.716 15 15 15s15-6.715 15-14.999c0-141.385-114.615-256-256-256z" fill="#502f28"/><path d="m263.06 156.769 28.352-15.122c39.937-21.3 88.856-20.065 127.667 3.222 38.811 23.286 62.921 65.869 62.921 111.13 0 8.284 6.716 15 15 15s15-6.715 15-14.999c0-141.385-114.615-256-256-256v158.534c2.427 0 4.853-.589 7.06-1.765z" fill="#281414"/><path d="m256 512c141.385 0 256-114.615 256-256 0-43.707-35.559-79.266-79.267-79.266s-79.267 35.559-79.267 79.267c0 38.385 27.426 70.484 63.711 77.733-6.864 82.904-76.531 148.266-161.177 148.267-84.646-.001-154.312-65.363-161.178-148.267 36.285-7.249 63.711-39.349 63.711-77.733 0-43.708-35.559-79.267-79.267-79.267s-79.266 35.559-79.266 79.266c0 141.385 114.615 256 256 256z" fill="#78493c"/><path d="m512 256c0-43.707-35.559-79.266-79.267-79.266s-79.267 35.559-79.267 79.267c0 38.385 27.426 70.484 63.711 77.733-6.864 82.904-76.531 148.266-161.177 148.267v29.999c141.385 0 256-114.615 256-256z" fill="#502f28"/><circle clip-rule="evenodd" cx="79.267" cy="256" fill="#502f28" fill-rule="evenodd" r="15"/><circle clip-rule="evenodd" cx="432.733" cy="256" fill="#281414" fill-rule="evenodd" r="15"/><path d="m336.333 415.6h-48.199c-12.035 0-23.381-4.479-32.134-12.65-8.753 8.171-20.099 12.65-32.134 12.65h-48.199c-8.284 0-15-6.716-15-15s6.716-15 15-15h48.199c4.577 0 8.879-1.782 12.115-5.018s5.019-7.539 5.019-12.116v-16.066c0-8.284 6.716-15 15-15s15 6.716 15 15v16.065c0 4.577 1.782 8.88 5.019 12.116 3.236 3.235 7.538 5.018 12.115 5.018h48.199c8.284 0 15 6.716 15 15s-6.716 15.001-15 15.001z" fill="#78493c"/><path d="m336.333 415.6c8.284 0 15-6.716 15-15s-6.716-15-15-15h-48.199c-4.577 0-8.879-1.782-12.115-5.018s-5.019-7.539-5.019-12.116v-16.066c0-8.284-6.716-15-15-15v65.549c8.753 8.171 20.099 12.65 32.134 12.65h48.199z" fill="#502f28"/><path d="m256 367.4c-46.596 0-55.167-42.624-55.167-54.211 0-23.959 15.713-40.056 39.101-40.056h32.133c23.388 0 39.101 16.097 39.101 40.056-.001 12.716-9.459 54.211-55.168 54.211z" fill="#502f28"/><path d="m311.167 313.189c0-23.959-15.713-40.056-39.101-40.056h-16.066v94.267c45.709 0 55.167-41.495 55.167-54.211z" fill="#281414"/></g></svg>