<svg id="Layer_1" height="512" viewBox="0 0 64 64" width="512" xmlns="http://www.w3.org/2000/svg" data-name="Layer 1"><path d="m4 42v-16l18-2 6-10h27a1 1 0 0 1 1 1v26a1 1 0 0 1 -1 1z" fill="#f26674"/><path d="m56 20h4v16h-4z" fill="#2e4456"/><path d="m58 20v11a2 2 0 0 1 -2 2v3h4v-16z" fill="#1f313d"/><path d="m50 18v2a2 2 0 0 1 -2 2h-6v2h10v-6z" fill="#cccbd3"/><path d="m54 14v11a2 2 0 0 1 -2 2h-12l-6 8h-12l-6-8h-12v3h14l6 8h12l6-8h14v-15a1 1 0 0 0 -1-1z" fill="#d84561"/><path d="m4 30h14l6 8h12l6-8h14v11a1 1 0 0 1 -1 1h-51z" fill="#425b72"/><path d="m54 30v8a2 2 0 0 1 -2 2h-48v2h51a1 1 0 0 0 1-1v-11z" fill="#2e4456"/><path d="m22 24h16v-10h-10z" fill="#edebf1"/><path d="m36 14v5a2 2 0 0 1 -2 2h-10.2l-1.8 3h16v-10z" fill="#cccbd3"/><path d="m42 18h10v6h-10z" fill="#edebf1"/><path d="m50 18v2a2 2 0 0 1 -2 2h-6v2h10v-6z" fill="#cccbd3"/><circle cx="12" cy="42" fill="#2e4456" r="8"/><circle cx="46" cy="42" fill="#2e4456" r="8"/><g fill="#edebf1"><circle cx="46" cy="42" r="4"/><circle cx="12" cy="42" r="4"/></g></svg>