<svg id="Layer_1" height="512" viewBox="0 0 64 64" width="512" xmlns="http://www.w3.org/2000/svg" data-name="Layer 1"><path d="m4 35.369a3.369 3.369 0 0 1 3.369-3.369h.631l1.657-1.657a8 8 0 0 1 5.657-2.343h44.686l-6 8-38 4-9.448-1.362a3.369 3.369 0 0 1 -2.552-3.269z" fill="#edebf1"/><path d="m57.5 28-3.977 5.3a2 2 0 0 1 -1.39.789l-37.133 3.911-9.448-1.362a3.365 3.365 0 0 1 -1.516-.845 3.364 3.364 0 0 0 2.516 2.845l9.448 1.362 38-4 6-8z" fill="#cccbd3"/><path d="m44 28 8-4 4-4h4l-4 8z" fill="#f26674"/><path d="m58 20-2.447 4.894a2 2 0 0 1 -1.789 1.106h-5.764l-4 2h12l4-8z" fill="#d84561"/><path d="m28 38v6h7a3 3 0 0 0 3-3 3 3 0 0 0 -3-3z" fill="#fbdb75"/><path d="m36.976 38.758c.006.082.024.159.024.242a3 3 0 0 1 -3 3h-6v2h7a2.989 2.989 0 0 0 1.976-5.242z" fill="#f9bf5a"/><path d="m52 40-32-4h12z" fill="#edebf1"/><path d="m50 32h6l4 4h-4z" fill="#f26674"/><path d="m56 32h-1a1.17 1.17 0 0 1 -.828 2h-1.172l3 2h4z" fill="#d84561"/><g fill="#425b72"><path d="m14 31.25v1.5h-6v-.75l.75-.75z"/><path d="m16 31.25h2v1.5h-2z"/><path d="m20 31.25h2v1.5h-2z"/><path d="m24 31.25h2v1.5h-2z"/><path d="m28 31.25h2v1.5h-2z"/><path d="m32 31.25h2v1.5h-2z"/><path d="m36 31.25h2v1.5h-2z"/><path d="m40 31.25h2v1.5h-2z"/><path d="m44 31.25h2v1.5h-2z"/></g><path d="m51.999 40-1.885-.236 2.356-2.355 1.06 1.061z" fill="#cccbd3"/></svg>