<svg id="Layer_1" height="512" viewBox="0 0 64 64" width="512" xmlns="http://www.w3.org/2000/svg" data-name="Layer 1"><path d="m60 32-2 14h-48l-6-16h12l2 2z" fill="#425b72"/><path d="m57.571 32-1.326 9.283a2 2 0 0 1 -1.98 1.717h-45.39l1.125 3h48l2-14z" fill="#2e4456"/><path d="m12 30 8-8h34l4 10h-40l-2-2z" fill="#edebf1"/><path d="m54 22h-2.8l1.7 4.257a2 2 0 0 1 -1.854 2.743h-37.046l-.5-.5-1.5 1.5h4l2 2h40z" fill="#cccbd3"/><path d="m48 18h4v4h-4z" fill="#f26674"/><path d="m40 18h4v4h-4z" fill="#f26674"/><path d="m32 18h4v4h-4z" fill="#f26674"/><path d="m24 18h4v4h-4z" fill="#f26674"/><path d="m26 18v1a1 1 0 0 1 -1 1h-1v2h4v-4z" fill="#d84561"/><path d="m34 18v1a1 1 0 0 1 -1 1h-1v2h4v-4z" fill="#d84561"/><path d="m42 18v1a1 1 0 0 1 -1 1h-1v2h4v-4z" fill="#d84561"/><path d="m50 18v1a1 1 0 0 1 -1 1h-1v2h4v-4z" fill="#d84561"/><path d="m4 44.5h56v1.5h-56z" fill="#82bcf3"/><g fill="#425b72"><path d="m26 25.25h2v1.5h-2z"/><path d="m30 25.25h2v1.5h-2z"/><path d="m34 25.25h2v1.5h-2z"/><path d="m38 25.25h2v1.5h-2z"/><path d="m42 25.25h2v1.5h-2z"/><path d="m46 25.25h2v1.5h-2z"/><path d="m50 25.25h2v1.5h-2z"/><path d="m24 26.75h-8.75l1.5-1.5h7.25z"/></g><path d="m59.54 35.25-.22 1.5h-52.79l-.56-1.5z" fill="#cccbd3"/></svg>