<svg id="Layer_1" height="512" viewBox="0 0 64 64" width="512" xmlns="http://www.w3.org/2000/svg" data-name="Layer 1"><path d="m60 25v12a.99.99 0 0 1 -1 1h-49l-6-2 2.59-4.32a15.982 15.982 0 0 1 9.84-7.29l1.57-.39h41a1 1 0 0 1 1 1z" fill="#f26674"/><path d="m16 38 4-4h36l2.293 2.293a1 1 0 0 1 -.707 1.707z" fill="#425b72"/><path d="m60 25v12a1.014 1.014 0 0 1 -.29.71l-1.71-1.71v-12h1a1 1 0 0 1 1 1z" fill="#d84561"/><path d="m18 32-4 4h-6l-3.333-1.111-.667 1.111 6 2h6l4-4h36l-2-2z" fill="#d84561"/><path d="m59.71 37.71a1.014 1.014 0 0 1 -.71.29h-43l2-2h34.18a1.167 1.167 0 0 0 .82-2h3l2 2z" fill="#2e4456"/><circle cx="21" cy="39" fill="#425b72" r="1"/><circle cx="25" cy="39" fill="#425b72" r="1"/><circle cx="29" cy="39" fill="#425b72" r="1"/><circle cx="55" cy="39" fill="#425b72" r="1"/><circle cx="51" cy="39" fill="#425b72" r="1"/><circle cx="47" cy="39" fill="#425b72" r="1"/><path d="m18 28-4 4h-7.6l.19-.32a15.912 15.912 0 0 1 3.04-3.68z" fill="#edebf1"/><path d="m15 28-1.414 1.414a2 2 0 0 1 -1.414.586h-4.411a15.732 15.732 0 0 0 -1.171 1.68l-.19.32h7.6l4-4z" fill="#cccbd3"/><g fill="#edebf1"><path d="m22 27.25h2v1.5h-2z"/><path d="m26 27.25h2v1.5h-2z"/><path d="m30 27.25h2v1.5h-2z"/><path d="m34 27.25h2v1.5h-2z"/><path d="m38 27.25h2v1.5h-2z"/><path d="m42 27.25h2v1.5h-2z"/><path d="m46 27.25h2v1.5h-2z"/><path d="m50 27.25h2v1.5h-2z"/><path d="m54 27.25h2v1.5h-2z"/></g></svg>