<svg id="Layer_1" height="512" viewBox="0 0 64 64" width="512" xmlns="http://www.w3.org/2000/svg" data-name="Layer 1"><path d="m60 22v18a2 2 0 0 1 -2 2h-51.694a2 2 0 0 1 -1.98-2.283l1.674-11.717 3.447-6.894a2 2 0 0 1 1.789-1.106h46.764a2 2 0 0 1 2 2z" fill="#82bcf3"/><path d="m58 20v17a2 2 0 0 1 -2 2h-51.571l-.1.717a2 2 0 0 0 1.977 2.283h51.694a2 2 0 0 0 2-2v-18a2 2 0 0 0 -2-2z" fill="#5b9dd3"/><path d="m56 30h-37.5l1.5-6h36z" fill="#edebf1"/><path d="m54 24v2a2 2 0 0 1 -2 2h-33l-.5 2h37.5v-6z" fill="#cccbd3"/><path d="m16 24-2 10h-4l-2 4h-3.43l1.43-10 2-4z" fill="#edebf1"/><path d="m14.4 24-1.078 5.392a2 2 0 0 1 -1.962 1.608h-2.36l-2 4h-2l-.43 3h3.43l2-4h4l2-10z" fill="#cccbd3"/><circle cx="51" cy="41" fill="#2e4456" r="3"/><circle cx="43" cy="41" fill="#2e4456" r="3"/><circle cx="15" cy="41" fill="#2e4456" r="3"/><circle cx="15" cy="41" fill="#edebf1" r="1"/><circle cx="43" cy="41" fill="#edebf1" r="1"/><circle cx="51" cy="41" fill="#edebf1" r="1"/><g fill="#6b6b6b"><path d="m25.25 24h1.5v6h-1.5z"/><path d="m31.25 24h1.5v6h-1.5z"/><path d="m37.25 24h1.5v6h-1.5z"/><path d="m43.25 24h1.5v6h-1.5z"/><path d="m49.25 24h1.5v6h-1.5z"/></g></svg>