<svg id="Layer_1" height="512" viewBox="0 0 64 64" width="512" xmlns="http://www.w3.org/2000/svg" data-name="Layer 1"><g fill="#425b72"><path d="m36 5.25h24v1.5h-24z"/><path d="m4 5.25h25.5v1.5h-25.5z"/><path d="m31.25 8h1.5v12h-1.5z"/><path d="m17 24h30a1 1 0 0 1 1 1v3a0 0 0 0 1 0 0h-32a0 0 0 0 1 0 0v-3a1 1 0 0 1 1-1z"/></g><path d="m46 24a2 2 0 0 1 -2 2h-28v2h32v-3a1 1 0 0 0 -1-1z" fill="#2e4456"/><path d="m12 28-8 16 8 16h40l8-16-8-16z" fill="#fbdb75"/><path d="m52 28h-.5l6.5 13-6.894 13.789a4 4 0 0 1 -3.578 2.211h-37.028l1.5 3h40l8-16z" fill="#f9bf5a"/><path d="m26 32h12v24h-12z" fill="#edebf1"/><path d="m36 32v19a2 2 0 0 1 -2 2h-8v3h12v-24z" fill="#cccbd3"/><path d="m42 32h8l6 12h-14z" fill="#edebf1"/><path d="m56 44-6-12h-2.5l3.053 6.106a2 2 0 0 1 -1.789 2.894h-6.764v3z" fill="#cccbd3"/><path d="m22 32h-8l-6 12h14z" fill="#edebf1"/><path d="m20 32v7a2 2 0 0 1 -2 2h-8.5l-1.5 3h14v-12z" fill="#cccbd3"/><path d="m36 20h-8l-2 4h12z" fill="#fbdb75"/><path d="m38 24-2-4h-2a1.38 1.38 0 0 1 -1.234 2h-5.766l-1 2z" fill="#f9bf5a"/><rect fill="#425b72" height="4" rx="1" width="8" x="28" y="4"/><path d="m34 4a2 2 0 0 1 -2 2h-4v1a1 1 0 0 0 1 1h6a1 1 0 0 0 1-1v-2a1 1 0 0 0 -1-1z" fill="#2e4456"/><path d="m41.25 47.25h13.5v1.5h-13.5z" fill="#425b72"/><path d="m9.25 47.25h13.5v1.5h-13.5z" fill="#425b72"/><path d="m30 43.25h4v1.5h-4z" fill="#425b72"/></svg>