<svg id="Layer_1" height="512" viewBox="0 0 64 64" width="512" xmlns="http://www.w3.org/2000/svg" data-name="Layer 1"><path d="m8 40-4-2v-6.721a4 4 0 0 1 3.216-3.922l5.23-1.046a15.985 15.985 0 0 1 3.138-.311h6.416l5.867-4.4a8 8 0 0 1 4.8-1.6h19.676a4 4 0 0 1 2.829 1.172l3.656 3.656a4 4 0 0 1 1.172 2.829v9.107a2 2 0 0 1 -1.106 1.789l-2.894 1.447z" fill="#f26674"/><path d="m58.828 24.828-.9-.9a4.021 4.021 0 0 1 .072.729v9.107a2 2 0 0 1 -1.106 1.789l-2.894 1.447h-48l-2-1v2l4 2h48l2.894-1.447a2 2 0 0 0 1.106-1.789v-9.107a4 4 0 0 0 -1.172-2.829z" fill="#d84561"/><path d="m52 26h-30l5.87-4.4a7.982 7.982 0 0 1 4.8-1.6h16.33z" fill="#edebf1"/><path d="m52 26-3-6h-2l.553 1.106a2 2 0 0 1 -1.789 2.894h-21.1l-2.664 2z" fill="#cccbd3"/><circle cx="14" cy="38" fill="#2e4456" r="6"/><circle cx="50" cy="38" fill="#2e4456" r="6"/><circle cx="14" cy="38" fill="#edebf1" r="2"/><circle cx="50" cy="38" fill="#edebf1" r="2"/><path d="m38.791 26h-1.582l2-6h1.582z" fill="#f26674"/><g fill="#2e4456"><path d="m32 29.25h4v1.5h-4z"/><path d="m40 29.25h4v1.5h-4z"/></g></svg>