<svg id="Layer_1" height="512" viewBox="0 0 64 64" width="512" xmlns="http://www.w3.org/2000/svg" data-name="Layer 1"><path d="m6 40-2-2v-3.528a4 4 0 0 1 2.211-3.578l2.411-1.2a15.994 15.994 0 0 1 7.155-1.694h8.223l5.233-5.233a8 8 0 0 1 6.649-2.282l7.9.988a16 16 0 0 1 7.618 3.076l4.6 3.451h3a1 1 0 0 1 1 1v9l-2 2z" fill="#f26674"/><path d="m58 28v7l-2 2h-52v1l2 2h52l2-2v-9a1 1 0 0 0 -1-1z" fill="#d84561"/><path d="m56 28h-32l5.233-5.233a8 8 0 0 1 6.649-2.282l7.9.988a16 16 0 0 1 7.618 3.076z" fill="#edebf1"/><path d="m56 28-4.6-3.453a15.992 15.992 0 0 0 -7.613-3.074h-.033a16.045 16.045 0 0 1 1.648 1.08l2.198 1.647a1 1 0 0 1 -.6 1.8h-21l-2 2z" fill="#cccbd3"/><circle cx="16" cy="40" fill="#2e4456" r="4"/><circle cx="16" cy="40" fill="#edebf1" r="1"/><circle cx="52" cy="40" fill="#2e4456" r="4"/><circle cx="52" cy="40" fill="#edebf1" r="1"/><path d="m43.29 21.41-4.39 6.59h-1.8l4.53-6.8z" fill="#f26674"/><g fill="#2e4456"><path d="m33.25 31.25h3.5v1.5h-3.5z"/><path d="m39.25 31.25h3.5v1.5h-3.5z"/></g></svg>