<svg id="Layer_1" height="512" viewBox="0 0 64 64" width="512" xmlns="http://www.w3.org/2000/svg" data-name="Layer 1"><path d="m14 26h-6l-4 4v11a1 1 0 0 0 1 1h9z" fill="#fbdb75"/><path d="m12 26v11a2 2 0 0 1 -2 2h-6v2a1 1 0 0 0 1 1h9v-16z" fill="#f9bf5a"/><path d="m4 36 6-4v-2h-6z" fill="#edebf1"/><path d="m8 30v1l-4 2.667v2.333l6-4v-2z" fill="#cccbd3"/><path d="m18 20h42v18h-42z" fill="#425b72"/><path d="m58 20v13a2 2 0 0 1 -2 2h-38v3h42v-18z" fill="#2e4456"/><path d="m14 38h18v4h-18z" fill="#f26674"/><path d="m30 38a2 2 0 0 1 -2 2h-14v2h18v-4z" fill="#d84561"/><path d="m38 38h20v4h-20z" fill="#f26674"/><path d="m56 38a2 2 0 0 1 -2 2h-16v2h20v-4z" fill="#d84561"/><path d="m8 26 6-4v4z" fill="#f26674"/><g fill="#2e4456"><circle cx="12" cy="42" r="2"/><circle cx="22" cy="42" r="2"/><circle cx="28" cy="42" r="2"/><circle cx="42" cy="42" r="2"/><circle cx="48" cy="42" r="2"/><circle cx="54" cy="42" r="2"/></g><path d="m7.25 35.25h2.75v1.5h-2.75z" fill="#425b72"/><path d="m18 24.25h38.75v1.5h-38.75z" fill="#cccbd3"/><path d="m18 28.25h38.75v1.5h-38.75z" fill="#cccbd3"/><path d="m18 32.25h38.75v1.5h-38.75z" fill="#cccbd3"/></svg>