<svg id="Layer_1" height="512" viewBox="0 0 64 64" width="512" xmlns="http://www.w3.org/2000/svg" data-name="Layer 1"><g fill="#425b72"><path d="m38.719 23.011h1.5v12.806h-1.5z" transform="matrix(.625 -.781 .781 .625 -8.156 41.859)"/><path d="m6 19.25h1.5v7.5h-1.5z"/><path d="m6.75 36.75a2.752 2.752 0 0 1 -2.75-2.75v-.75h1.5v.75a1.25 1.25 0 1 0 1.25-1.25.75.75 0 0 1 -.75-.75v-2.75h1.5v2.1a2.75 2.75 0 0 1 -.75 5.4z"/></g><path d="m26 24h-8l-6 6v13a1 1 0 0 0 1 1h13z" fill="#fbdb75"/><path d="m24 24v15a2 2 0 0 1 -2 2h-10v2a1 1 0 0 0 1 1h13v-20z" fill="#f9bf5a"/><path d="m12 36 6-4h4v-4h-8l-2 2z" fill="#edebf1"/><path d="m20 28a2 2 0 0 1 -2 2h-2l-4 2.667v3.333l6-4h4v-4z" fill="#cccbd3"/><path d="m58 44h-14v-6h16z" fill="#f26674"/><path d="m57 38-.544 1.632a2 2 0 0 1 -1.898 1.368h-10.558v3h14l2-6z" fill="#d84561"/><path d="m26 38h12v6h-12z" fill="#f26674"/><path d="m36 38v1a2 2 0 0 1 -2 2h-8v3h12v-6z" fill="#d84561"/><path d="m38 38h6v4h-6z" fill="#425b72"/><path d="m50 26-40-10v4l40 10z" fill="#fbdb75"/><path d="m49 25.75v2.25l-39-9.75v1.75l40 10v-4z" fill="#f9bf5a"/><rect fill="#425b72" height="4" rx="1" width="4" x="4.75" y="26"/><path d="m7.75 26h-1v1a1 1 0 0 1 -1 1h-1v1a1 1 0 0 0 1 1h2a1 1 0 0 0 1-1v-2a1 1 0 0 0 -1-1z" fill="#2e4456"/><path d="m48 34h8v4h-8z" fill="#425b72"/><path d="m54 34a2 2 0 0 1 -2 2h-4v2h8v-4z" fill="#2e4456"/><path d="m42 38a2 2 0 0 1 -2 2h-2v2h6v-4z" fill="#2e4456"/><path d="m10 16v4h-4v-3a1 1 0 0 1 1-1z" fill="#425b72"/><path d="m8 16v1a1 1 0 0 1 -1 1h-1v2h4v-4z" fill="#2e4456"/><circle cx="24" cy="44" fill="#2e4456" r="4"/><circle cx="24" cy="44" fill="#edebf1" r="1"/><circle cx="52" cy="44" fill="#2e4456" r="4"/><circle cx="52" cy="44" fill="#edebf1" r="1"/><path d="m44 34v-8l6-4h5a1 1 0 0 1 1 1v7h3a1 1 0 0 1 1 1v2a1 1 0 0 1 -1 1z" fill="#fbdb75"/><path d="m58 30a2 2 0 0 1 -2 2h-12v2h15a1 1 0 0 0 1-1v-2a1 1 0 0 0 -1-1z" fill="#f9bf5a"/><path d="m56 28v-5a1 1 0 0 0 -1-1h-1v6z" fill="#f9bf5a"/><path d="m52 30v-8h-2l-6 4v4z" fill="#edebf1"/><path d="m50 22v4a2 2 0 0 1 -2 2h-4v2h8v-8z" fill="#cccbd3"/><path d="m19.25 35.25h2.75v1.5h-2.75z" fill="#425b72"/></svg>