<svg id="Layer_1" height="512" viewBox="0 0 64 64" width="512" xmlns="http://www.w3.org/2000/svg" data-name="Layer 1"><path d="m60 18v26a2 2 0 0 1 -2 2h-51.765a2 2 0 0 1 -1.988-2.221l1.753-15.779 5.447-10.894a2 2 0 0 1 1.789-1.106h44.764a2 2 0 0 1 2 2z" fill="#82bcf3"/><path d="m58 16v25a2 2 0 0 1 -2 2h-51.667l-.086.779a2 2 0 0 0 1.988 2.221h51.765a2 2 0 0 0 2-2v-26a2 2 0 0 0 -2-2z" fill="#5b9dd3"/><path d="m16 30-2 8h-4l-2 4h-3.56l1.34-12z" fill="#edebf1"/><path d="m13.5 30-1.121 4.485a2 2 0 0 1 -1.941 1.515h-2.438l-2 4h-1.337l-.223 2h3.56l2-4h4l2-8z" fill="#cccbd3"/><path d="m16 20v6h-9l3-6z" fill="#edebf1"/><path d="m14 20v2a2 2 0 0 1 -2 2h-4l-1 2h9v-6z" fill="#cccbd3"/><path d="m20 20h36v6h-36z" fill="#edebf1"/><path d="m54 20v2a2 2 0 0 1 -2 2h-32v2h36v-6z" fill="#cccbd3"/><path d="m56 36h-37.5l1.5-6h36z" fill="#edebf1"/><path d="m54 30v2a2 2 0 0 1 -2 2h-33l-.5 2h37.5v-6z" fill="#cccbd3"/><path d="m54 30h-34l-1 4h35z" fill="#edebf1"/><circle cx="51" cy="45" fill="#2e4456" r="3"/><circle cx="51" cy="45" fill="#edebf1" r="1"/><circle cx="43" cy="45" fill="#2e4456" r="3"/><circle cx="43" cy="45" fill="#edebf1" r="1"/><circle cx="15" cy="45" fill="#2e4456" r="3"/><circle cx="15" cy="45" fill="#edebf1" r="1"/><g fill="#6b6b6b"><path d="m25.25 20h1.5v6h-1.5z"/><path d="m31.25 20h1.5v6h-1.5z"/><path d="m37.25 20h1.5v6h-1.5z"/><path d="m43.25 20h1.5v6h-1.5z"/><path d="m49.25 20h1.5v6h-1.5z"/><path d="m25.25 30h1.5v6h-1.5z"/><path d="m31.25 30h1.5v6h-1.5z"/><path d="m37.25 30h1.5v6h-1.5z"/><path d="m43.25 30h1.5v6h-1.5z"/><path d="m49.25 30h1.5v6h-1.5z"/></g></svg>