<svg id="Layer_1" height="512" viewBox="0 0 64 64" width="512" xmlns="http://www.w3.org/2000/svg" data-name="Layer 1"><path d="m40.45 26.6h-2.78l8.478-5.409-10.272-1.711.248-1.48 12 2a.75.75 0 0 1 .326 1.34z" fill="#cccbd3"/><path d="m4 40v-2.343a13.658 13.658 0 0 1 4-9.657h51a1 1 0 0 1 1 1v11z" fill="#f26674"/><path d="m58 28v7a2 2 0 0 1 -2 2h-51.967l-.033.033v2.967h56v-11a1 1 0 0 0 -1-1z" fill="#d84561"/><path d="m4 40h56a0 0 0 0 1 0 0v3a1 1 0 0 1 -1 1h-54a1 1 0 0 1 -1-1v-3a0 0 0 0 1 0 0z" fill="#425b72"/><path d="m58 40a2 2 0 0 1 -2 2h-52v1a1 1 0 0 0 1 1h54a1 1 0 0 0 1-1v-3z" fill="#2e4456"/><path d="m10 32v2l-5.82 1.45a13.648 13.648 0 0 1 1.05-3.45z" fill="#edebf1"/><path d="m8 32v1l-3.448.859a14.027 14.027 0 0 0 -.372 1.591l5.82-1.45v-2z" fill="#cccbd3"/><path d="m14 32h4v8h-4z" fill="#edebf1"/><path d="m16 32v5a1 1 0 0 1 -1 1h-1v2h4v-8z" fill="#cccbd3"/><path d="m52 32h4v8h-4z" fill="#edebf1"/><path d="m54 32v5a1 1 0 0 1 -1 1h-1v2h4v-8z" fill="#cccbd3"/><path d="m34 26h12v2h-12z" fill="#425b72"/><circle cx="14" cy="44" fill="#425b72" r="2"/><circle cx="20" cy="44" fill="#425b72" r="2"/><circle cx="26" cy="44" fill="#425b72" r="2"/><circle cx="48" cy="44" fill="#425b72" r="2"/><circle cx="54" cy="44" fill="#425b72" r="2"/><g fill="#edebf1"><path d="m22 31.25h2v1.5h-2z"/><path d="m26 31.25h2v1.5h-2z"/><path d="m30 31.25h2v1.5h-2z"/><path d="m34 31.25h2v1.5h-2z"/><path d="m38 31.25h2v1.5h-2z"/><path d="m42 31.25h2v1.5h-2z"/><path d="m46 31.25h2v1.5h-2z"/></g></svg>