<svg id="Layer_1" height="512" viewBox="0 0 64 64" width="512" xmlns="http://www.w3.org/2000/svg" data-name="Layer 1"><path d="m29.479 22.4-1.145-1.041 2.427-2.428-20.628-11.254-2.509 2.509-.908-1.361 2.754-2.605a.747.747 0 0 1 .889-.128l22 12a.749.749 0 0 1 .171 1.188z" fill="#2e4456"/><path d="m6.016 36.206 3.069-1.535-.67-1.342-2.915 1.457v-20.786l-.649-3.395-.851 3.395v22a.747.747 0 0 0 .22.53l6.262 6.276-1.202-3.336z" fill="#2e4456"/><path d="m7.412 8h.588l4 6-2 22.107-2-.107-4-22v-2.588a3.409 3.409 0 0 1 1-2.412 3.409 3.409 0 0 1 2.412-1z" fill="#fbdb75"/><path d="m8 8h-.588a3.379 3.379 0 0 0 -.7.075l3.288 4.925-2 22.107-.164-.007.164.9 2 .107 2-22.107z" fill="#f9bf5a"/><path d="m8 12 7.687.625 11.87 6.116a13.126 13.126 0 0 1 4.176 3.392 13.119 13.119 0 0 1 2.791 6.307l1.476 9.707-2.761.613-2.333-6.186a20.891 20.891 0 0 0 -3.332-5.8 20.881 20.881 0 0 0 -4.261-3.959l-9.773-6.815z" fill="#fbdb75"/><path d="m30.574 26.774a20.881 20.881 0 0 0 -4.261-3.959l-9.773-6.815-5.159-3.725-3.381-.275 5.54 4 9.773 6.815a20.881 20.881 0 0 1 4.261 3.959 20.9 20.9 0 0 1 3.332 5.8l2.333 6.187 2.761-.614-.005-.034-2.089-5.54a20.9 20.9 0 0 0 -3.332-5.799z" fill="#f9bf5a"/><path d="m30 45v-9l2-8h14l2 8h11a1 1 0 0 1 1 1v8a1 1 0 0 1 -1 1h-28a1 1 0 0 1 -1-1z" fill="#fbdb75"/><path d="m58 36v5a2 2 0 0 1 -2 2h-26v2a1 1 0 0 0 1 1h28a1 1 0 0 0 1-1v-8a1 1 0 0 0 -1-1z" fill="#f9bf5a"/><path d="m36 46h16v4h-16z" fill="#2e4456"/><path d="m50 46a2 2 0 0 1 -2 2h-12v2h16v-4z" fill="#2e4456"/><rect fill="#909090" height="8" rx="4" width="38" x="22" y="50"/><path d="m57.64 50.36a3.985 3.985 0 0 1 -3.64 5.64h-30a3.961 3.961 0 0 1 -1.64-.36 3.994 3.994 0 0 0 3.64 2.36h30a3.995 3.995 0 0 0 1.64-7.64z" fill="#6b6b6b"/><circle cx="26" cy="54" fill="#2e4456" r="4"/><circle cx="56" cy="54" fill="#2e4456" r="4"/><g fill="#edebf1"><circle cx="26" cy="54" r="1"/><circle cx="56" cy="54" r="1"/><path d="m42 28v8l-4 2v2h-8v-4l2-8z"/></g><path d="m40 28v4.764a2 2 0 0 1 -1.106 1.789l-2.894 1.447v2h-6v2h8v-2l4-2v-8z" fill="#cccbd3"/><path d="m46 42h14a0 0 0 0 1 0 0v3a1 1 0 0 1 -1 1h-13a0 0 0 0 1 0 0v-4a0 0 0 0 1 0 0z" fill="#f26674"/><path d="m58 42a2 2 0 0 1 -2 2h-10v2h13a1 1 0 0 0 1-1v-3z" fill="#d84561"/><path d="m50 46a2 2 0 0 1 -2 2h-12v2h16v-4z" fill="#1f313d"/><path d="m20 36-12-2v6l1.052 1.926a3.682 3.682 0 0 0 2.917 1.9 3.68 3.68 0 0 0 3.254-1.458z" fill="#fbdb75"/><path d="m21.744 33.816-2.95 1.984-2.127-.355-4.444 5.925a3.676 3.676 0 0 1 -2.491 1.436 3.667 3.667 0 0 0 5.491-.436l4.736-6.315.041-.009z" fill="#f9bf5a"/><path d="m54.75 36h-1.5v-4a.747.747 0 0 1 .22-.53l2-2 1.06 1.06-1.78 1.781z" fill="#2e4456"/></svg>