<svg id="Layer_1" height="512" viewBox="0 0 64 64" width="512" xmlns="http://www.w3.org/2000/svg" data-name="Layer 1"><path d="m30 28h28a2 2 0 0 1 2 2v11a1 1 0 0 1 -1 1h-31a0 0 0 0 1 0 0v-12a2 2 0 0 1 2-2z" fill="#fbdb75"/><path d="m58 28v9a2 2 0 0 1 -2 2h-28v3h31a1 1 0 0 0 1-1v-11a2 2 0 0 0 -2-2z" fill="#f9bf5a"/><path d="m28 30h-5.674a7 7 0 0 0 -6.261 3.87l-4.065 8.13 2 2 4.835-8.058a4 4 0 0 1 3.43-1.942h5.735z" fill="#fbdb75"/><path d="m18.835 33.942-4.835 8.058-1.333-1.333-.667 1.333 2 2 4.835-8.058a4 4 0 0 1 3.43-1.942h5.735v-2h-5.735a4 4 0 0 0 -3.43 1.942z" fill="#f9bf5a"/><path d="m54 18v10h-20l4-12h14a2 2 0 0 1 2 2z" fill="#fbdb75"/><path d="m52 16v7a2 2 0 0 1 -2 2h-15l-1 3h20v-10a2 2 0 0 0 -2-2z" fill="#f9bf5a"/><path d="m34 28v8h10l4-4h6v-4z" fill="#425b72"/><path d="m52 28a2 2 0 0 1 -2 2h-4l-4 4h-8v2h10l4-4h6v-4z" fill="#2e4456"/><path d="m50 20v8h-16l2.67-8z" fill="#edebf1"/><path d="m48 20v3a2 2 0 0 1 -2 2h-11l-1 3h16v-8z" fill="#cccbd3"/><circle cx="52" cy="42" fill="#2e4456" r="6"/><circle cx="28" cy="42" fill="#2e4456" r="6"/><circle cx="28" cy="42" fill="#edebf1" r="2"/><circle cx="52" cy="42" fill="#edebf1" r="2"/><path d="m6 48 6-10 6 4-1.088 3.265a4 4 0 0 1 -3.795 2.735z" fill="#fbdb75"/><path d="m16.636 41.091-.724 2.174a4 4 0 0 1 -3.795 2.735h-4.917l-.508.846-2.692 1.154h9.117a4 4 0 0 0 3.795-2.735l1.088-3.265z" fill="#f9bf5a"/></svg>