<svg id="Layer_1" height="512" viewBox="0 0 64 64" width="512" xmlns="http://www.w3.org/2000/svg" data-name="Layer 1"><g fill="#425b72"><path d="m48.335 46.244-4.512 2.256h-11.073v-5.25h-1.5v5.25h-12.5v-5.25h-1.5v5.25h-8.066l-4.513-2.256-.671 1.341 4.671 2.336a.75.75 0 0 0 .335.079h34.994a.75.75 0 0 0 .335-.079l4.671-2.336z"/><path d="m25.25 15.25h19.5v1.5h-19.5z"/><path d="m4 15.25h18.75v1.5h-18.75z"/><path d="m23.25 17.25h1.5v5.5h-1.5z"/><path d="m4 32 8-8h8l2-2h4l2 2h4l2 4h18l6-8h2l-2 8v4l-2 2 2 4h-4l-4-6h-10l-6 8v4h-18l-4-4h-8z"/></g><path d="m38 30-6 8v4h-18l2 2h18v-4l6-8h9.333l-1.333-2z" fill="#2e4456"/><path d="m4 38v2h8l-2-2z" fill="#2e4456"/><path d="m58 20-.75 1-1.25 5v4l-2 2 2 4h-3.333l1.333 2h4l-2-4 2-2v-4l2-8z" fill="#2e4456"/><path d="m14 24v8l-4 2v2h-6v-4l8-8z" fill="#edebf1"/><path d="m12 24v4.764a2 2 0 0 1 -1.106 1.789l-2.894 1.447v2h-4v2h6v-2l4-2v-8z" fill="#cccbd3"/><path d="m18 28h4v4h-4z" fill="#edebf1"/><path d="m20 28v1a1 1 0 0 1 -1 1h-1v2h4v-4z" fill="#cccbd3"/><path d="m26 28h4v4h-4z" fill="#edebf1"/><path d="m28 28v1a1 1 0 0 1 -1 1h-1v2h4v-4z" fill="#cccbd3"/><path d="m12 40 6-4h14l2 4v4h-18z" fill="#909090"/><path d="m32 36h-1.5l.5 1v2a2 2 0 0 1 -2 2h-16l3 3h18v-4z" fill="#6b6b6b"/><path d="m22 14h4v4h-4z" fill="#425b72"/><path d="m24 14v1a1 1 0 0 1 -1 1h-1v2h4v-4z" fill="#2e4456"/></svg>