<svg id="Layer_1" height="512" viewBox="0 0 64 64" width="512" xmlns="http://www.w3.org/2000/svg" data-name="Layer 1"><path d="m24.044 52.256-8-22 1.411-.512 8.186 22.512z" fill="#425b72"/><path d="m39.956 52.256 8-22-1.411-.512-8.186 22.512z" fill="#425b72"/><path d="m24 52h16v8h-16z" fill="#f26674"/><path d="m38 52v4a2 2 0 0 1 -2 2h-12v2h16v-8z" fill="#d84561"/><path d="m50 22a18 18 0 1 0 -27.786 15.088 8.062 8.062 0 0 1 3.786 6.731v.181h12v-.185a7.983 7.983 0 0 1 3.732-6.693 17.95 17.95 0 0 0 8.268-15.122z" fill="#82bcf3"/><path d="m43.672 8.321a17.947 17.947 0 0 1 -3.939 26.8 7.981 7.981 0 0 0 -3.733 6.694v.185h-10.23a7.63 7.63 0 0 1 .23 1.819v.181h12v-.185a7.981 7.981 0 0 1 3.733-6.693 17.957 17.957 0 0 0 1.939-28.8z" fill="#5b9dd3"/><path d="m28 52h8v4h-8z" fill="#fbdb75"/><path d="m34 52a2 2 0 0 1 -2 2h-4v2h8v-4z" fill="#f9bf5a"/><path d="m30 44h4v4h-4z" fill="#f26674"/><path d="m32 44v1a1 1 0 0 1 -1 1h-1v2h4v-4z" fill="#d84561"/><ellipse cx="32" cy="22" fill="#fbdb75" rx="12" ry="18"/><path d="m37.632 6.109c2.668 3.301 4.368 8.298 4.368 13.891 0 9.941-5.373 18-12 18a8.977 8.977 0 0 1 -5.632-2.109 9.928 9.928 0 0 0 7.632 4.109c6.627 0 12-8.059 12-18 0-6.887-2.581-12.865-6.368-15.891z" fill="#f9bf5a"/><ellipse cx="32" cy="22" fill="#58db58" rx="6" ry="18"/><path d="m32.884 4.217c1.857 3.06 3.116 8.983 3.116 15.783 0 9.941-2.686 18-6 18a2.179 2.179 0 0 1 -.884-.217c.856 1.411 1.838 2.217 2.884 2.217 3.314 0 6-8.059 6-18 0-9.037-2.222-16.5-5.116-17.783z" fill="#3ac13a"/></svg>