<svg id="Layer_1" height="512" viewBox="0 0 64 64" width="512" xmlns="http://www.w3.org/2000/svg" data-name="Layer 1"><path d="m4 34 1.424-.712a66.992 66.992 0 0 1 13.709-5.071l.867-.217 3.985 1.328a8 8 0 0 0 4.1.255l7.915-1.583 10 2h13a1 1 0 0 1 1 1v4a1 1 0 0 1 -1 1h-3v3a1 1 0 0 1 -1 1h-3l-2 2h-28v-6h-1.754a66.982 66.982 0 0 1 -16.246-2z" fill="#425b72"/><path d="m58 30v2a2 2 0 0 1 -2 2h-2v2a2 2 0 0 1 -2 2h-2l-2 2h-26v2h28l2-2h3a1 1 0 0 0 1-1v-3h3a1 1 0 0 0 1-1v-4a1 1 0 0 0 -1-1z" fill="#2e4456"/><path d="m20 28 3.892-2.595a8.37 8.37 0 0 1 4.642-1.405 8.369 8.369 0 0 1 5.917 2.451l1.549 1.549-7.917 1.583a8 8 0 0 1 -4.1-.255z" fill="#edebf1"/><path d="m34.451 26.451a8.369 8.369 0 0 0 -5.917-2.451h-.034a8.38 8.38 0 0 1 1.949 1.449 1.17 1.17 0 0 1 -.6 1.975l-5.773 1.154a7.944 7.944 0 0 1 -1.914.14l1.816.605a8 8 0 0 0 4.1.255l7.922-1.578z" fill="#cccbd3"/><path d="m48 30 8-8h4l-2 8z" fill="#f26674"/><path d="m58.5 22-1.121 4.485a2 2 0 0 1 -1.941 1.515h-5.438l-2 2h10l2-8z" fill="#d84561"/><path d="m22 40h-8l8 2z" fill="#425b72"/><path d="m48 37.5h-26v-1.5h28z" fill="#cccbd3"/><path d="m22 36h11a3 3 0 0 1 3 3 3 3 0 0 1 -3 3h-11a0 0 0 0 1 0 0v-6a0 0 0 0 1 0 0z" fill="#909090"/><path d="m33.86 36.14a2.96 2.96 0 0 1 -2.86 3.86h-9v2h11a2.992 2.992 0 0 0 .86-5.86z" fill="#6b6b6b"/></svg>