<svg id="Layer_1" height="512" viewBox="0 0 64 64" width="512" xmlns="http://www.w3.org/2000/svg" data-name="Layer 1"><circle cx="55" cy="51" fill="#2e4456" r="5"/><circle cx="55" cy="51" fill="#edebf1" r="2"/><path d="m55 42a9 9 0 0 0 -8.477 6h-20.523l-12-20h-.667l-.724 4.348 9.391 15.652v4h30.184a2.962 2.962 0 0 1 -.184-1 3 3 0 0 1 3-3 2.962 2.962 0 0 1 1 .184v-6.125a8.935 8.935 0 0 0 -1-.059z" fill="#f26674"/><path d="m55 42a8.918 8.918 0 0 0 -1 .062v4.122a2.962 2.962 0 0 0 -1-.184 3 3 0 0 0 -3 3 2.962 2.962 0 0 0 .184 1h-28.184v2h30.184a2.962 2.962 0 0 1 -.184-1 3 3 0 0 1 3-3 2.962 2.962 0 0 1 1 .184v-6.125a8.935 8.935 0 0 0 -1-.059z" fill="#d84561"/><path d="m12.471 45.173 5.529-33.173h-4l-5.2 31.207a7.982 7.982 0 0 1 3.671 1.966z" fill="#425b72"/><path d="m18 12h-2l-5.318 31.909a8.047 8.047 0 0 1 1.789 1.264z" fill="#2e4456"/><path d="m14 8h4v4h-4z" fill="#f26674"/><path d="m16 8v1a1 1 0 0 1 -1 1h-1v2h4v-4z" fill="#d84561"/><path d="m18 8h5a1 1 0 0 1 1 1v2a1 1 0 0 1 -1 1h-5a0 0 0 0 1 0 0v-4a0 0 0 0 1 0 0z" fill="#425b72"/><path d="m23 8h-1v1a1 1 0 0 1 -1 1h-3v2h5a1 1 0 0 0 1-1v-2a1 1 0 0 0 -1-1z" fill="#2e4456"/><path d="m9 8h5a0 0 0 0 1 0 0v4a0 0 0 0 1 0 0h-5a1 1 0 0 1 -1-1v-2a1 1 0 0 1 1-1z" fill="#425b72"/><path d="m12 8v1a1 1 0 0 1 -1 1h-3v1a1 1 0 0 0 1 1h5v-4z" fill="#2e4456"/><circle cx="9" cy="51" fill="#2e4456" r="5"/><circle cx="9" cy="51" fill="#edebf1" r="2"/><path d="m10 51a2.962 2.962 0 0 1 -.184 1h6.125a8.972 8.972 0 0 0 -9.941-9.941s4 3.941 4 8.941z" fill="#f26674"/><path d="m12.279 43.721a8.888 8.888 0 0 1 1.662 6.279h-4a9.409 9.409 0 0 1 .059 1 2.962 2.962 0 0 1 -.184 1h6.125a8.931 8.931 0 0 0 -3.662-8.279z" fill="#d84561"/></svg>