<svg id="Layer_1" height="512" viewBox="0 0 64 64" width="512" xmlns="http://www.w3.org/2000/svg" data-name="Layer 1"><path d="m18 24h-8l-6 6v13a1 1 0 0 0 1 1h13z" fill="#fbdb75"/><path d="m16 24v15a2 2 0 0 1 -2 2h-10v2a1 1 0 0 0 1 1h13v-20z" fill="#f9bf5a"/><path d="m4 36 6-4h4v-4h-8l-2 2z" fill="#edebf1"/><path d="m12 28a2 2 0 0 1 -2 2h-2l-4 2.667v3.333l6-4h4v-4z" fill="#cccbd3"/><path d="m56 44h-14v-6h16z" fill="#f26674"/><path d="m55 38-.544 1.632a2 2 0 0 1 -1.898 1.368h-10.558v3h14l2-6z" fill="#d84561"/><path d="m18 38h16v6h-16z" fill="#f26674"/><path d="m32 38v1a2 2 0 0 1 -2 2h-12v3h16v-6z" fill="#d84561"/><path d="m34 38h8v4h-8z" fill="#425b72"/><path d="m40 38a2 2 0 0 1 -2 2h-4v2h8v-4z" fill="#2e4456"/><path d="m23.5 20v-3.25a.75.75 0 0 0 -.75-.75h-8.75v1.5h8v16.5h34l4-14z" fill="#fbdb75"/><path d="m58.429 20-3.015 10.549a2 2 0 0 1 -1.923 1.451h-31.491v2h34l4-14z" fill="#f9bf5a"/><path d="m26 24h6v6h-6z" fill="#425b72"/><path d="m30 24v2a2 2 0 0 1 -2 2h-2v2h6v-6z" fill="#2e4456"/><path d="m36 24h6v6h-6z" fill="#425b72"/><path d="m40 24v2a2 2 0 0 1 -2 2h-2v2h6v-6z" fill="#2e4456"/><path d="m52 30h-6v-6h8z" fill="#425b72"/><path d="m51.333 24-.877 2.632a2 2 0 0 1 -1.898 1.368h-2.558v2h6l2-6z" fill="#2e4456"/><circle cx="16" cy="44" fill="#2e4456" r="4"/><circle cx="16" cy="44" fill="#edebf1" r="1"/><circle cx="50" cy="44" fill="#2e4456" r="4"/><g fill="#edebf1"><circle cx="50" cy="44" r="1"/><path d="m11.25 35.25h2.75v1.5h-2.75z"/></g></svg>