<svg id="Layer_1" height="512" viewBox="0 0 64 64" width="512" xmlns="http://www.w3.org/2000/svg" data-name="Layer 1"><path d="m26 43.25h5.5v1.5h-5.5z" fill="#1f313d"/><circle cx="52" cy="40" fill="#2e4456" r="8"/><circle cx="52" cy="40" fill="#edebf1" r="4"/><path d="m52.75 40.643a.952.952 0 0 0 0-1.286v-.107h-.107a.952.952 0 0 0 -1.286 0h-11.357v1.5h11.357a.952.952 0 0 0 1.286 0h.107z" fill="#1f313d"/><circle cx="12" cy="40" fill="#2e4456" r="8"/><circle cx="12" cy="40" fill="#edebf1" r="4"/><path d="m40 26-4 8h-12l-6-6 3-6h11.686a8 8 0 0 1 5.657 2.343z" fill="#f26674"/><path d="m38.343 24.343h-.016l-2.774 5.548a2 2 0 0 1 -1.789 1.109h-9.936a2 2 0 0 1 -1.414-.586l-3.747-3.747-.667 1.333 6 6h12l4-8z" fill="#d84561"/><path d="m46 26 2-2h8v4l-18 2 2-4z" fill="#425b72"/><path d="m54 24v.21a2 2 0 0 1 -1.779 1.99l-13.045 1.447-1.176 2.353 18-2v-4z" fill="#2e4456"/><path d="m24 34h14a2 2 0 0 1 2 2v4a0 0 0 0 1 0 0h-14a2 2 0 0 1 -2-2v-4a0 0 0 0 1 0 0z" fill="#909090"/><path d="m38 34v1a2 2 0 0 1 -2 2h-12v1a2 2 0 0 0 2 2h14v-4a2 2 0 0 0 -2-2z" fill="#6b6b6b"/><path d="m22 20-2.57 5.14-5.43-1.14 4-4z" fill="#f26674"/><path d="m20 20-.88 1.76a2 2 0 0 1 -2.2 1.063l-1.441-.3-1.479 1.477 5.43 1.14 2.57-5.14z" fill="#d84561"/><circle cx="34" cy="42" fill="#909090" r="4"/><path d="m34.707 38.071a3.977 3.977 0 0 1 -3.414 6.858 3.992 3.992 0 1 0 3.414-6.858z" fill="#6b6b6b"/><path d="m38 40h4v4h-4z" fill="#909090"/><path d="m40 40a2 2 0 0 1 -2 2v2h4v-4z" fill="#6b6b6b"/><path d="m23.6 16a.751.751 0 0 0 -.671.415l-11.306 22.661a1 1 0 0 0 -.623.924.978.978 0 0 0 .046.23l-.052.105.082.042a1 1 0 0 0 .924.623.978.978 0 0 0 .23-.046l.105.052.042-.082a1 1 0 0 0 .623-.924.978.978 0 0 0 -.046-.23l11.108-22.27h4.287v-1.5z" fill="#1f313d"/></svg>