<svg id="Layer_1" height="512" viewBox="0 0 64 64" width="512" xmlns="http://www.w3.org/2000/svg" data-name="Layer 1"><path d="m12.029 43.339h-1.738l3.985-6.81 2.294-.949z" fill="#425b72"/><path d="m42 49 6-8h8v8z" fill="#82bcf3"/><path d="m54 41h2v8h-2z" fill="#5b9dd3"/><path d="m52 41v4l-10 4 6-8z" fill="#edebf1"/><path d="m50 41v1.646a2 2 0 0 1 -1.257 1.854l-4.814 1.926-1.929 2.574 10-4v-4z" fill="#cccbd3"/><path d="m48 41-22-32v30s8-4 22 2z" fill="#f26674"/><path d="m26 9v3.273l15.162 22.053a1 1 0 0 1 -1.162 1.505 32.606 32.606 0 0 0 -14-2.018v5.187s8-4 22 2z" fill="#d84561"/><path d="m26 15-12 22s6-4 12 2z" fill="#f26674"/><path d="m24 18.667v15.163a1 1 0 0 1 -1.6.8 9.373 9.373 0 0 0 -6.058-1.919l-2.342 4.289s6-4 12 2v-24z" fill="#d84561"/><path d="m4 41 14 14h38l4-6z" fill="#425b72"/><path d="m57.261 48.609-1.667 2.5a2 2 0 0 1 -1.664.891h-38.93l3 3h38l4-6z" fill="#2e4456"/><path d="m4 54.5h56v1.5h-56z" fill="#82bcf3"/><path d="m25.25 8h1.5v36.893h-1.5z" fill="#425b72"/></svg>