<svg id="Layer_1" height="512" viewBox="0 0 64 64" width="512" xmlns="http://www.w3.org/2000/svg" data-name="Layer 1"><circle cx="12" cy="44" fill="#2e4456" r="6"/><circle cx="12" cy="44" fill="#edebf1" r="2"/><path d="m14 32h-3.515a6 6 0 0 0 -4.242 1.757l-2.243 2.243 10 2 4 4h4l-4-8z" fill="#fbdb75"/><path d="m12 33 4 2 3.5 7h2.5l-4-8-4-2h-3.515a5.992 5.992 0 0 0 -3.628 1.23 6 6 0 0 1 1.628-.23z" fill="#f9bf5a"/><circle cx="52" cy="44" fill="#2e4456" r="6"/><circle cx="52" cy="44" fill="#edebf1" r="2"/><path d="m52 30h6l2 6h-4z" fill="#f26674"/><path d="m34 28v-2a2 2 0 0 1 2-2h16a2 2 0 0 1 2 2v2z" fill="#425b72"/><path d="m52 24a2 2 0 0 1 -2 2h-16v2h20v-2a2 2 0 0 0 -2-2z" fill="#2e4456"/><path d="m24.708 44h17.292v-2h18l-.753-3.765a13 13 0 0 0 -6.934-9.078l-2.313-1.157h-16v2l2.181 3.272a4 4 0 0 1 -.5 5.047l-1.681 1.681h-10l-3.259-6.518a4 4 0 0 1 -.217-3.054l3.476-12.428-.894-1.789a4 4 0 0 0 -3.578-2.211h-1.528v4l2 2-4.889 10.148a2 2 0 0 0 .821 2.818l2.068 1.034 2.994 7.486a4 4 0 0 0 3.714 2.514z" fill="#fbdb75"/><g fill="#f9bf5a"><path d="m21.106 16.211.894 1.789-3.476 12.428a4 4 0 0 0 .217 3.054l3.259 6.518h2l-3.259-6.518a4 4 0 0 1 -.217-3.054l3.476-12.428-.894-1.789a4 4 0 0 0 -3.578-2.211h-1.528v.033a4 4 0 0 1 3.106 2.178z"/><path d="m59.247 38.235a13 13 0 0 0 -6.934-9.078l-.232-.116a12.982 12.982 0 0 1 4.166 7.194l.275 1.373a2 2 0 0 1 -1.962 2.392h-13.56a2 2 0 0 0 -2 2h-17.292a4 4 0 0 1 -.479-.036 4 4 0 0 0 3.479 2.036h17.292v-2h18z"/></g></svg>