<svg id="Layer_1" height="512" viewBox="0 0 64 64" width="512" xmlns="http://www.w3.org/2000/svg" data-name="Layer 1"><path d="m26 34v-8a30 30 0 0 0 -6-18h4a30 30 0 0 1 6 18v10l-7.7 3.078a3.667 3.667 0 0 0 -2.3 3.4 3.665 3.665 0 0 0 1.074 2.592l4.926 4.93-2 4-6.721-8.4a5.837 5.837 0 0 1 -1.279-3.648 5.837 5.837 0 0 1 3.67-5.42z" fill="#f26674"/><path d="m22.3 39.078 7.7-3.078v-10a30 30 0 0 0 -6-18h-1.311a29.981 29.981 0 0 1 5.311 17v10l-7.7 3.078a3.666 3.666 0 0 0 -1.23 6l4.93 4.922-1.538 3.077 1.538 1.923 2-4-4.926-4.926a3.666 3.666 0 0 1 1.23-6z" fill="#d84561"/><path d="m38 50h10a0 0 0 0 1 0 0v2a2 2 0 0 1 -2 2h-8a0 0 0 0 1 0 0v-4a0 0 0 0 1 0 0z" fill="#f26674"/><path d="m46 50a2 2 0 0 1 -2 2h-6v2h8a2 2 0 0 0 2-2v-2z" fill="#d84561"/><circle cx="32" cy="50" fill="#2e4456" r="10"/><circle cx="32" cy="50" fill="#edebf1" r="4"/><rect fill="#fbdb75" height="4" rx="1" width="6" x="18" y="4"/><path d="m23 4h-1v1a1 1 0 0 1 -1 1h-3v1a1 1 0 0 0 1 1h4a1 1 0 0 0 1-1v-2a1 1 0 0 0 -1-1z" fill="#f9bf5a"/></svg>