<svg id="Layer_1" height="512" viewBox="0 0 64 64" width="512" xmlns="http://www.w3.org/2000/svg" data-name="Layer 1"><path d="m8 44-2.894-1.447a2 2 0 0 1 -1.106-1.789v-4.342a8 8 0 0 1 1.344-4.437l3.394-5.092a16 16 0 0 1 8.917-6.509l6.19-1.768a15.983 15.983 0 0 1 4.4-.616h27.965a2 2 0 0 1 1.99 1.779l1.8 16.221v6l-4 2z" fill="#f26674"/><path d="m58.2 19.779a2 2 0 0 0 -1.863-1.767l1.663 14.988v4.764a2 2 0 0 1 -1.106 1.789l-2.894 1.447h-48l-2-1v.764a2 2 0 0 0 1.106 1.789l2.894 1.447h48l4-2v-6z" fill="#d84561"/><circle cx="50" cy="40" fill="#2e4456" r="6"/><circle cx="14" cy="40" fill="#2e4456" r="6"/><g fill="#edebf1"><circle cx="14" cy="40" r="2"/><circle cx="50" cy="40" r="2"/><path d="m34 18-8 12h-19.34l2.08-3.11a15.994 15.994 0 0 1 8.91-6.51l6.2-1.76a15.837 15.837 0 0 1 4.39-.62z"/></g><path d="m31 18-4.813 7.219a4 4 0 0 1 -3.328 1.781h-14.193l-2.006 3h19.34l8-12z" fill="#cccbd3"/><path d="m38 22-6 8h12v-8z" fill="#edebf1"/><path d="m42 22v4a2 2 0 0 1 -2 2h-6.5l-1.5 2h12v-8z" fill="#cccbd3"/><path d="m48 22h6v8h-6z" fill="#edebf1"/><path d="m52 22v4a2 2 0 0 1 -2 2h-2v2h6v-8z" fill="#cccbd3"/><path d="m22 33.25h4v1.5h-4z" fill="#425b72"/></svg>