<svg id="Layer_1" height="512" viewBox="0 0 64 64" width="512" xmlns="http://www.w3.org/2000/svg" data-name="Layer 1"><path d="m24 18h5.5v1.5h-5.5z" fill="#425b72"/><path d="m12 30h36l4 2 4-6h4v8l-12 12h-36a8 8 0 0 1 -8-8 8 8 0 0 1 8-8z" fill="#425b72"/><path d="m58 26v4.172a2 2 0 0 1 -.586 1.414l-10.828 10.828a2 2 0 0 1 -1.414.586h-35.172a7.966 7.966 0 0 1 -5.48-2.182 8 8 0 0 0 7.48 5.182h36l12-12v-8z" fill="#2e4456"/><path d="m35.117 24h-10.234a4 4 0 0 0 -3.795 2.735l-1.088 3.265h20l-1.088-3.265a4 4 0 0 0 -3.795-2.735z" fill="#2e4456"/><path d="m40 30-1.088-3.265a3.994 3.994 0 0 0 -3.318-2.7 4.042 4.042 0 0 1 .318.7l.211.633a2 2 0 0 1 -1.898 2.632h-13.558l-.667 2z" fill="#1f313d"/><rect fill="#edebf1" height="4" rx="2" width="6" x="16" y="36"/><path d="m20 36a2 2 0 0 1 -2 2h-2a2 2 0 0 0 2 2h2a2 2 0 0 0 0-4z" fill="#cccbd3"/><rect fill="#edebf1" height="4" rx="2" width="6" x="26" y="36"/><path d="m30 36a2 2 0 0 1 -2 2h-2a2 2 0 0 0 2 2h2a2 2 0 0 0 0-4z" fill="#cccbd3"/><rect fill="#edebf1" height="4" rx="2" width="6" x="36" y="36"/><path d="m40 36a2 2 0 0 1 -2 2h-2a2 2 0 0 0 2 2h2a2 2 0 0 0 0-4z" fill="#cccbd3"/><path d="m28 18h4v6h-4z" fill="#425b72"/><path d="m30 18v3a1 1 0 0 1 -1 1h-1v2h4v-6z" fill="#2e4456"/><path d="m48 40 8 6h4l-6-12z" fill="#2e4456"/><path d="m60 46-6-12-1.333 1.333 2.886 5.773a2 2 0 0 1 -1.789 2.894h-.431l2.667 2z" fill="#1f313d"/></svg>