<svg id="Layer_1" height="512" viewBox="0 0 64 64" width="512" xmlns="http://www.w3.org/2000/svg" data-name="Layer 1"><path d="m4 34s2-4 16-6l7.139-2.856a16 16 0 0 1 5.942-1.144h8.919v2l10 2h6l2 2s0 6-2 6l-10 2h-42z" fill="#f26674"/><path d="m41.991 30.009c0 .031.009.06.009.091a2.1 2.1 0 0 1 -1.891 2.089l-16.218 1.622a2.1 2.1 0 0 0 -1.891 2.089v.1h-17l1 2h18v-.1a2.1 2.1 0 0 1 1.891-2.089l16.218-1.622a2.1 2.1 0 0 0 -.118-4.18z" fill="#d84561"/><path d="m54 28 2-4h2v4z" fill="#f26674"/><path d="m42 24v2a47.105 47.105 0 0 1 -22 2l7.14-2.86a16.126 16.126 0 0 1 5.94-1.14z" fill="#edebf1"/><path d="m39 24v1a49.266 49.266 0 0 1 -17.631 2.451l-1.369.549a47.105 47.105 0 0 0 22-2v-2z" fill="#cccbd3"/><path d="m12.47 29.53-4.47 4.47-3.95.11-.05-.11s1.23-2.45 8.47-4.47z" fill="#fbdb75"/><path d="m58 28h-6l-5.714-1.143-6.286 3.143h1.9a2.1 2.1 0 0 1 .209 4.189l-16.218 1.622a2.1 2.1 0 0 0 -1.891 2.089v.1h24l10-2c2 0 2-6 2-6z" fill="#425b72"/><path d="m58 28s0 6-2 6l-10 2h-20.78a2.094 2.094 0 0 0 -1.22 1.9v.1h24l10-2c2 0 2-6 2-6z" fill="#2e4456"/><circle cx="16" cy="36" fill="#2e4456" r="4"/><circle cx="16" cy="36" fill="#edebf1" r="1"/><circle cx="52" cy="36" fill="#2e4456" r="4"/><circle cx="52" cy="36" fill="#edebf1" r="1"/><path d="m52.5 24h7.5v1.5h-7.5z" fill="#425b72"/></svg>