<svg id="Layer_1" height="512" viewBox="0 0 64 64" width="512" xmlns="http://www.w3.org/2000/svg" data-name="Layer 1"><g fill="#425b72"><path d="m47.272 28.182-2.178-8.791 1.455-.364 2.269 9.155z"/><path d="m30.728 28.182h-1.547l2.21-8.837 1.476.279z"/><path d="m22.75 29.811h-1.5v-10.44l-4.311-4.31 1.061-1.061 4.53 4.53a.751.751 0 0 1 .22.531z"/><path d="m26.75 29.811h-1.5v-12.44l-6.311-6.31 1.061-1.061 6.53 6.53a.751.751 0 0 1 .22.531z"/><path d="m32 48.75h-4a.75.75 0 0 1 -.75-.75v-4h1.5v3.25h2.5v-3.25h1.5v4a.75.75 0 0 1 -.75.75z"/></g><path d="m8 40v-3.859a4 4 0 0 1 1.781-3.328l3.561-2.374a3.984 3.984 0 0 1 1.434-.594l9.224-1.845h6v8h-10l-4 4z" fill="#58db58"/><path d="m28 28v3a2 2 0 0 1 -2 2h-8l-4 4h-6v3h8l4-4h10v-8z" fill="#3ac13a"/><path d="m46 20h-15a1 1 0 0 1 -1-1v-2a1 1 0 0 1 1-1h19z" fill="#58db58"/><path d="m46 16-1.414 1.414a2 2 0 0 1 -1.414.586h-13.172v1a1 1 0 0 0 1 1h15l4-4z" fill="#3ac13a"/><path d="m22 36h8v8h-8z" fill="#425b72"/><path d="m28 36v3a2 2 0 0 1 -2 2h-4v3h8v-8z" fill="#2e4456"/><path d="m30 28h18l-8 16h-10z" fill="#425b72"/><path d="m38.764 41h-8.764v3h10l8-16h-1.5l-5.947 11.894a2 2 0 0 1 -1.789 1.106z" fill="#2e4456"/><circle cx="12" cy="46" fill="#2e4456" r="8"/><circle cx="12" cy="46" fill="#edebf1" r="4"/><circle cx="48" cy="42" fill="#2e4456" r="12"/><circle cx="48" cy="42" fill="#edebf1" r="6"/><path d="m58 32-1.55 4.66a9.992 9.992 0 0 0 -17.61 1.34h-4.84l8-10h12z" fill="#58db58"/><path d="m56.75 30.75-.212.639a1.994 1.994 0 0 1 -3.167.906 9.992 9.992 0 0 0 -15.531 3.705h-2.24l-1.6 2h4.84a9.992 9.992 0 0 1 17.61-1.34l1.55-4.66z" fill="#3ac13a"/></svg>