<svg id="Layer_1" height="512" viewBox="0 0 64 64" width="512" xmlns="http://www.w3.org/2000/svg" data-name="Layer 1"><path d="m4 36h56v-11a1 1 0 0 0 -1-1h-49l-2 4-4 2z" fill="#f26674"/><path d="m58 24v7a2 2 0 0 1 -2 2h-52v3h56v-11a1 1 0 0 0 -1-1z" fill="#d84561"/><path d="m4 36h56a0 0 0 0 1 0 0v3a1 1 0 0 1 -1 1h-54a1 1 0 0 1 -1-1v-3a0 0 0 0 1 0 0z" fill="#425b72"/><path d="m58 36a2 2 0 0 1 -2 2h-52v1a1 1 0 0 0 1 1h54a1 1 0 0 0 1-1v-3z" fill="#2e4456"/><path d="m18 28h4v8h-4z" fill="#edebf1"/><path d="m20 28v5a1 1 0 0 1 -1 1h-1v2h4v-8z" fill="#cccbd3"/><path d="m52 28h4v8h-4z" fill="#edebf1"/><path d="m54 28v5a1 1 0 0 1 -1 1h-1v2h4v-8z" fill="#cccbd3"/><path d="m14 24v4h-6l2-4z" fill="#edebf1"/><path d="m12 24v1a1 1 0 0 1 -1 1h-2l-1 2h6v-4z" fill="#cccbd3"/><g fill="#425b72"><path d="m20 22h10v2h-10z"/><path d="m46 22h10v2h-10z"/><circle cx="14" cy="40" r="2"/><circle cx="20" cy="40" r="2"/><circle cx="26" cy="40" r="2"/><circle cx="48" cy="40" r="2"/><circle cx="54" cy="40" r="2"/></g><path d="m26 27.25h2v1.5h-2z" fill="#edebf1"/><path d="m30 27.25h2v1.5h-2z" fill="#edebf1"/><path d="m34 27.25h2v1.5h-2z" fill="#edebf1"/><path d="m38 27.25h2v1.5h-2z" fill="#edebf1"/><path d="m42 27.25h2v1.5h-2z" fill="#edebf1"/><path d="m46 27.25h2v1.5h-2z" fill="#edebf1"/></svg>