<svg id="Layer_1" height="512" viewBox="0 0 64 64" width="512" xmlns="http://www.w3.org/2000/svg" data-name="Layer 1"><path d="m32.5 25.215-1.17-.938 2.743-3.43a20.875 20.875 0 0 1 14.139-7.684l11.631-1.163.148 1.492-11.629 1.163a19.36 19.36 0 0 0 -13.115 7.13z" fill="#2e4456"/><path d="m36.447 25.276-1.06-1.06 2.031-2.031a16.8 16.8 0 0 1 9.994-4.8l12.422-1.385.166 1.492-12.422 1.38a15.3 15.3 0 0 0 -9.1 4.373z" fill="#2e4456"/><path d="m60 30v18a2 2 0 0 1 -2 2h-52a2 2 0 0 1 -1.98-2.283l1.674-11.717 3.448-6.894a2 2 0 0 1 1.788-1.106h47.07a2 2 0 0 1 2 2z" fill="#82bcf3"/><path d="m58 28v17a2 2 0 0 1 -2 2h-51.877l-.1.717a2 2 0 0 0 1.977 2.283h52a2 2 0 0 0 2-2v-18a2 2 0 0 0 -2-2z" fill="#5b9dd3"/><path d="m56 38h-37.5l1.5-6h36z" fill="#edebf1"/><path d="m54 32v2a2 2 0 0 1 -2 2h-33l-.5 2h37.5v-6z" fill="#cccbd3"/><path d="m16 32-2 10h-4.306l-2 4h-3.43l1.43-10 2-4z" fill="#edebf1"/><path d="m14.4 32-1.078 5.392a2.361 2.361 0 0 1 -2.267 1.608h-2.361l-2 4h-2l-.429 3h3.43l2-4h4.305l2-10z" fill="#cccbd3"/><path d="m28 24h12v4h-12z" fill="#f26674"/><path d="m38 24a2 2 0 0 1 -2 2h-8v2h12v-4z" fill="#d84561"/><circle cx="51" cy="49" fill="#2e4456" r="3"/><circle cx="43" cy="49" fill="#2e4456" r="3"/><circle cx="15" cy="49" fill="#2e4456" r="3"/><circle cx="15" cy="49" fill="#edebf1" r="1"/><circle cx="43" cy="49" fill="#edebf1" r="1"/><circle cx="51" cy="49" fill="#edebf1" r="1"/><g fill="#6b6b6b"><path d="m25.25 32h1.5v6h-1.5z"/><path d="m31.25 32h1.5v6h-1.5z"/><path d="m37.25 32h1.5v6h-1.5z"/><path d="m43.25 32h1.5v6h-1.5z"/><path d="m49.25 32h1.5v6h-1.5z"/></g></svg>