<svg id="Layer_1" height="512" viewBox="0 0 64 64" width="512" xmlns="http://www.w3.org/2000/svg" data-name="Layer 1"><circle cx="50" cy="44" fill="#425b72" r="4"/><circle cx="50" cy="44" fill="#edebf1" r="1"/><path d="m4 43v-11.223a15.994 15.994 0 0 1 1.689-7.155l2.311-4.622h50l1.522 6.089a15.969 15.969 0 0 1 .478 3.881v13.03a1 1 0 0 1 -1 1h-3l-2-2h-8l-2 2h-39a1 1 0 0 1 -1-1z" fill="#82bcf3"/><path d="m6 20 1.657-1.657a8 8 0 0 1 5.657-2.343h32.909a15.994 15.994 0 0 1 7.155 1.689l4.622 2.311z" fill="#fbdb75"/><path d="m6 20h52l-4-2h-45.964c-.128.112-.258.222-.379.343z" fill="#f9bf5a"/><path d="m59.522 26.089-1.522-6.089h-1.5l1.022 4.089a15.969 15.969 0 0 1 .478 3.881v.03a2 2 0 0 1 -2 2h-48.111a7.994 7.994 0 0 0 -3.578.845l-.264.132c-.014.267-.047.532-.047.8v2.223l2.311-1.155a7.99 7.99 0 0 1 3.577-.845h50.112v-2.03a15.963 15.963 0 0 0 -.478-3.881z" fill="#5b9dd3"/><path d="m22 24h6v4h-6z" fill="#edebf1"/><path d="m26 24v1a1 1 0 0 1 -1 1h-3v2h6v-4z" fill="#cccbd3"/><path d="m18 28h-10l2-4h8z" fill="#edebf1"/><path d="m16 24v1a1 1 0 0 1 -1 1h-6l-1 2h10v-4z" fill="#cccbd3"/><path d="m32 24h6v4h-6z" fill="#edebf1"/><path d="m36 24v1a1 1 0 0 1 -1 1h-3v2h6v-4z" fill="#cccbd3"/><path d="m42 24h6v4h-6z" fill="#edebf1"/><path d="m46 24v1a1 1 0 0 1 -1 1h-3v2h6v-4z" fill="#cccbd3"/><path d="m59.88 28h-7.88v-4h7l.52 2.09a15.664 15.664 0 0 1 .36 1.91z" fill="#edebf1"/><path d="m59.88 28a15.664 15.664 0 0 0 -.36-1.91l-.52-2.09h-1.5l.022.09q.087.345.159.693a1.008 1.008 0 0 1 -.981 1.217h-4.7v2z" fill="#cccbd3"/><path d="m4 34 2.311-1.155a7.994 7.994 0 0 1 3.578-.845h50.111v11a1 1 0 0 1 -1 1h-3l-2-2h-8l-2 2h-39a1 1 0 0 1 -1-1z" fill="#fbdb75"/><path d="m58 32v8a1 1 0 0 1 -1 1h-3l-2-2h-8l-2 2h-38v2a1 1 0 0 0 1 1h39l2-2h8l2 2h3a1 1 0 0 0 1-1v-11z" fill="#f9bf5a"/><circle cx="16" cy="44" fill="#425b72" r="4"/><circle cx="16" cy="44" fill="#edebf1" r="1"/></svg>