<svg id="Layer_1" height="512" viewBox="0 0 64 64" width="512" xmlns="http://www.w3.org/2000/svg" data-name="Layer 1"><path d="m16 32 14-12 26 2-4 4 4 10z" fill="#edebf1"/><path d="m56 22-6.5-.5-1.5 1.5 2.7 6.76a2 2 0 0 1 -2.155 2.721l-28.164-4.24-4.381 3.759 40 4-4-10z" fill="#cccbd3"/><path d="m34 24-4 4h-9.33l4.66-4z" fill="#82bcf3"/><path d="m31 24-1.414 1.414a2 2 0 0 1 -1.414.586h-5.172l-2.33 2h9.33l4-4z" fill="#5b9dd3"/><path d="m4 28 14 16h38l4-8z" fill="#425b72"/><path d="m57.667 35.667-2.114 4.227a2 2 0 0 1 -1.789 1.106h-38.389l2.625 3h38l4-8z" fill="#2e4456"/><path d="m4 42.5h56v1.5h-56z" fill="#5b9dd3"/><g fill="#82bcf3"><path d="m36 25.25h2v1.5h-2z"/><path d="m40 25.25h2v1.5h-2z"/><path d="m44 25.25h2v1.5h-2z"/><path d="m48 25.25h2v1.5h-2z"/></g></svg>