<svg id="Layer_1" height="512" viewBox="0 0 64 64" width="512" xmlns="http://www.w3.org/2000/svg" data-name="Layer 1"><path d="m46 26 10-10h4l-4 14z" fill="#f26674"/><path d="m57.429 16-2.82 9.87a2 2 0 0 1 -2.666 1.307l-5.086-2.034-.857.857 10 4 4-14z" fill="#d84561"/><path d="m46 38 10 10h4l-4-14z" fill="#f26674"/><path d="m56 34-1.923.769 2.2 7.682a2 2 0 0 1 -1.928 2.549h-1.349l3 3h4z" fill="#d84561"/><path d="m4 32a20.6 20.6 0 0 1 17.662-10h20.676a20.6 20.6 0 0 1 17.662 10 20.6 20.6 0 0 1 -17.662 10h-20.676a20.6 20.6 0 0 1 -17.662-10z" fill="#edebf1"/><path d="m57.914 29.134a20.6 20.6 0 0 1 -17.576 9.866h-20.676a20.594 20.594 0 0 1 -15.576-7.134c-.027.046-.059.088-.086.134a20.6 20.6 0 0 0 17.662 10h20.676a20.6 20.6 0 0 0 17.662-10 20.559 20.559 0 0 0 -2.086-2.866z" fill="#cccbd3"/><path d="m20 42h10a0 0 0 0 1 0 0v3a1 1 0 0 1 -1 1h-8a1 1 0 0 1 -1-1v-3a0 0 0 0 1 0 0z" fill="#82bcf3"/><path d="m34 42h10a0 0 0 0 1 0 0v3a1 1 0 0 1 -1 1h-8a1 1 0 0 1 -1-1v-3a0 0 0 0 1 0 0z" fill="#82bcf3"/><path d="m42 42a2 2 0 0 1 -2 2h-6v1a1 1 0 0 0 1 1h8a1 1 0 0 0 1-1v-3z" fill="#5b9dd3"/><path d="m28 42a2 2 0 0 1 -2 2h-6v1a1 1 0 0 0 1 1h8a1 1 0 0 0 1-1v-3z" fill="#5b9dd3"/><path d="m14 26v4h-8.63a19.963 19.963 0 0 1 4.11-4z" fill="#82bcf3"/><path d="m12 26a2 2 0 0 1 -2 2h-2.861a19.627 19.627 0 0 0 -1.769 2h8.63v-4z" fill="#5b9dd3"/><path d="m58.63 30h-40.63v-4h36.52a19.963 19.963 0 0 1 4.11 4z" fill="#82bcf3"/><path d="m58.63 30a19.963 19.963 0 0 0 -4.11-4h-2.659l.019.019a1.167 1.167 0 0 1 -.84 1.981h-33.04v2z" fill="#5b9dd3"/></svg>