<svg height="512pt" viewBox="-9 0 512 512.03071" width="512pt" xmlns="http://www.w3.org/2000/svg"><path d="m52.980469 289.0625c-4.246094 1.527344-8.726563 2.296875-13.242188 2.277344-21.9375 0-39.722656-17.785156-39.722656-39.722656s17.785156-39.722657 39.722656-39.722657c4.515625-.015625 8.996094.761719 13.242188 2.292969" fill="#3d324c"/><path d="m494.359375 406.101562c-9.164063 18.183594-21.785156 34.40625-37.164063 47.753907-44.050781 38.859375-111.226562 58.175781-187.9375 58.175781-86.160156 0-161.457031-29.835938-202.066406-74.328125-8.71875-9.417969-16.007812-20.066406-21.625-31.601563-6.667968-13.765624-10.167968-28.847656-10.242187-44.140624v-172.382813c0-101.960937 80.597656-187.941406 182.554687-189.546875 14.789063-.273438 29.550782 1.269531 43.960938 4.589844 84.378906 19.21875 144.242187 94.25 144.246094 180.789062v143.890625c-.230469 17.167969 4.0625 34.09375 12.445312 49.082031 11.652344 20.054688 36.457031 36.828126 75.828125 27.71875zm0 0" fill="#7d6599"/><path d="m457.195312 453.875c-44.050781 38.839844-111.226562 58.15625-187.9375 58.15625-86.160156 0-161.457031-29.835938-202.066406-74.328125v-258.277344c-.375-42.519531 16.152344-83.449219 45.949219-113.78125 29.800781-30.332031 70.429687-47.582031 112.949219-47.957031 10.769531-.015625 21.511718 1.109375 32.042968 3.351562 30.53125 6.398438 58.484376 21.695313 80.332032 43.960938 29.902344 30.566406 46.609375 71.648438 46.523437 114.40625v197.652344s0 55.011718 72.207031 76.816406zm0 0" fill="#b49aca"/><path d="m326.636719 223.546875c15.511719-15.515625 40.664062-15.515625 56.175781 0 15.515625 15.511719 15.515625 40.664063 0 56.175781-15.511719 15.515625-40.664062 15.515625-56.175781 0" fill="#7d6599"/><path d="m167.738281 211.894531c-3.683593 0-6.980469-2.289062-8.269531-5.738281-1.492188-4.050781-3.714844-7.792969-6.558594-11.035156-2.613281-2.996094-5.800781-5.433594-9.375-7.167969-7.019531-3.378906-15.191406-3.378906-22.210937 0-3.578125 1.738281-6.769531 4.179687-9.382813 7.175781-2.84375 3.242188-5.0625 6.980469-6.550781 11.027344-1.707031 4.566406-6.792969 6.886719-11.363281 5.179688-4.566406-1.707032-6.886719-6.792969-5.179688-11.359376 2.25-6.070312 5.589844-11.671874 9.859375-16.535156 4.1875-4.773437 9.289063-8.652344 15.007813-11.414062 11.84375-5.667969 25.617187-5.667969 37.464844 0 5.714843 2.757812 10.820312 6.636718 15.007812 11.40625 4.273438 4.863281 7.617188 10.472656 9.867188 16.542968 1.015624 2.71875.632812 5.761719-1.03125 8.140626-1.660157 2.378906-4.382813 3.789062-7.285157 3.777343zm0 0" fill="#2c3e50"/><path d="m282.5 211.894531c-3.6875 0-6.984375-2.289062-8.273438-5.738281-1.488281-4.050781-3.714843-7.792969-6.558593-11.035156-2.613281-2.996094-5.800781-5.433594-9.375-7.167969-7.019531-3.378906-15.191407-3.378906-22.210938 0-3.578125 1.738281-6.769531 4.179687-9.382812 7.175781-2.839844 3.242188-5.0625 6.980469-6.550781 11.027344-1.101563 2.953125-3.699219 5.09375-6.8125 5.617188-3.109376.519531-6.261719-.65625-8.269532-3.089844-2.007812-2.433594-2.5625-5.753906-1.460937-8.707032 2.25-6.070312 5.589843-11.671874 9.859375-16.535156 4.1875-4.773437 9.292968-8.652344 15.007812-11.414062 11.847656-5.667969 25.621094-5.667969 37.464844 0 5.714844 2.757812 10.820312 6.636718 15.007812 11.40625 4.273438 4.863281 7.617188 10.472656 9.867188 16.542968 1.015625 2.71875.632812 5.761719-1.027344 8.140626-1.660156 2.378906-4.386718 3.789062-7.285156 3.777343zm0 0" fill="#2c3e50"/><path d="m264.84375 273.6875h-150.070312c-4.875 0-8.828126-3.953125-8.828126-8.828125s3.953126-8.828125 8.828126-8.828125h150.070312c4.875 0 8.828125 3.953125 8.828125 8.828125s-3.953125 8.828125-8.828125 8.828125zm0 0" fill="#3d324c"/><path d="m194.222656 264.859375h52.964844v26.480469c0 14.628906-11.855469 26.484375-26.484375 26.484375-14.625 0-26.480469-11.855469-26.480469-26.484375zm0 0" fill="#ff5364"/><path d="m317.808594 236.007812c3.011718-2.097656 6.339844-3.695312 9.859375-4.730468 7.886719-2.304688 16.269531-2.304688 24.152343 0 3.523438 1.035156 6.859376 2.632812 9.871094 4.730468 2.683594 1.867188 4.945313 4.273438 6.644532 7.0625 3.25 5.265626 3.25 11.914063 0 17.179688-1.699219 2.792969-3.960938 5.195312-6.644532 7.0625-3.011718 2.101562-6.347656 3.699219-9.871094 4.730469-7.882812 2.308593-16.265624 2.308593-24.152343 0-3.523438-1.0625-6.855469-2.691407-9.859375-4.820313" fill="#b49aca"/></svg>