<svg height="512pt" viewBox="0 0 512 512" width="512pt" xmlns="http://www.w3.org/2000/svg"><path d="m74.476562 342.472656c-1.296874 0-2.585937.0625-3.855468.070313-11.882813.207031-23.742188-1.066407-35.3125-3.792969-9.429688-2.023438-18.289063-6.121094-25.933594-12-5.664062-4.210938-9.113281-10.765625-9.375-17.820312 2.378906-10.886719 7.617188-20.941407 15.175781-29.132813 10.429688-13.316406 21.570313-26.0625 33.375-38.179687 12.140625-12.683594 24.277344-24.546876 33.378907-33.242188 9.101562-8.695312 15.171874-14.203125 15.171874-14.203125s-43.605468 84.417969-22.625 148.300781" fill="#3d324c"/><path d="m437.523438 342.472656c1.296874 0 2.585937.0625 3.855468.070313 11.882813.207031 23.742188-1.066407 35.3125-3.792969 9.429688-2.023438 18.289063-6.121094 25.933594-12 5.664062-4.210938 9.113281-10.765625 9.375-17.820312-2.378906-10.886719-7.617188-20.941407-15.175781-29.132813-10.429688-13.316406-21.570313-26.0625-33.375-38.179687-12.140625-12.691407-24.277344-24.546876-33.378907-33.242188-9.101562-8.695312-15.171874-14.203125-15.171874-14.203125s43.605468 84.40625 22.625 148.300781" fill="#3d324c"/><path d="m374.820312 428.011719-24.011718 65.941406c-4.386719 12.039063-16.535156 19.425781-29.242188 17.773437-12.703125-1.652343-22.5625-11.898437-23.722656-24.65625l-3.53125-39.019531h-76.625l-3.53125 39.019531c-1.160156 12.757813-11.019531 23.003907-23.722656 24.65625-12.707032 1.652344-24.855469-5.734374-29.242188-17.773437l-24.011718-65.941406zm0 0" fill="#3d324c"/><path d="m417.191406 156.300781c50.933594-55.703125 9.800782-120.761719-17.742187-153.246093-2.566407-2.898438-6.738281-3.753907-10.234375-2.097657s-5.480469 5.425781-4.863282 9.246094c2.035157 23.125-6.011718 46-22.066406 62.765625h-212.570312c-16.054688-16.765625-24.101563-39.640625-22.066406-62.765625.617187-3.820313-1.367188-7.589844-4.863282-9.246094s-7.667968-.800781-10.234375 2.097657c-27.542969 32.484374-68.675781 97.542968-17.742187 153.246093zm0 0" fill="#fdd7ad"/><path d="m458.503906 341.765625c-6.621094 54.996094-79.359375 99.3125-172.84375 107.167969h-.527344c-8.742187.796875-17.65625 1.148437-26.75 1.238281h-2.382812c-107.34375 0-195.179688-47.757813-202.503906-108.40625l14.742187-107.605469c1.496094-10.683594 3.980469-21.203125 7.414063-31.425781 10.28125-30.296875 24.214844-59.230469 41.488281-86.160156 6.527344-10.335938 13.628906-20.296875 21.277344-29.835938 21.949219-27.972656 47.746093-52.699219 76.621093-73.445312 7.003907-5.113281 14.910157-8.855469 23.304688-11.035157 6.539062-1.699218 13.289062-2.445312 20.039062-2.2070308 5.160157.1210938 10.289063.8632808 15.273438 2.2070308 3.96875 1.039063 7.839844 2.429688 11.5625 4.148438 4.140625 1.882812 8.074219 4.191406 11.742188 6.886719 65.132812 47.011719 113.886718 113.265625 139.386718 189.441406 3.433594 10.222656 5.917969 20.742187 7.414063 31.425781zm0 0" fill="#894b9d"/><path d="m432.550781 341.765625c-5.648437 54.910156-67.441406 99.3125-146.890625 107.167969h-.527344c-8.035156.796875-16.332031 1.238281-24.71875 1.238281h-2.03125c-90.394531-.707031-163.925781-48.199219-170.105468-108.40625l12.535156-107.605469c1.265625-10.632812 3.390625-21.140625 6.355469-31.425781 20.023437-73.414063 61.226562-139.300781 118.464843-189.441406 3.847657-3.320313 8.125-6.109375 12.710938-8.296875 6.273438-3.003906 13.09375-4.6875 20.039062-4.9453128 5.148438-.2343752 10.300782.3320308 15.273438 1.6796878 4.027344 1.089843 7.910156 2.660156 11.5625 4.675781 3.566406 1.929688 6.910156 4.238281 9.976562 6.886719 57.238282 50.140625 98.441407 116.027343 118.464844 189.441406 2.964844 10.285156 5.089844 20.792969 6.355469 31.425781zm0 0" fill="#955ba5"/><path d="m273.65625 1.730469v104.164062h-35.3125v-103.636719c6.539062-1.699218 13.289062-2.445312 20.039062-2.2070308 5.148438-.2343752 10.300782.3320308 15.273438 1.6796878zm0 0" fill="#bdc3c7"/><path d="m167.28125 115.605469-24.980469 24.980469-25.160156-24.011719c6.527344-10.335938 13.628906-20.296875 21.277344-29.835938zm0 0" fill="#bdc3c7"/><path d="m344.71875 115.605469 24.980469 24.980469 25.160156-24.011719c-6.527344-10.335938-13.628906-20.296875-21.277344-29.835938zm0 0" fill="#bdc3c7"/><path d="m203.035156 105.894531h105.929688c39.003906 0 70.621094 31.617188 70.621094 70.621094v52.964844c0 68.253906-55.332032 123.585937-123.585938 123.585937s-123.585938-55.332031-123.585938-123.585937v-52.964844c0-39.003906 31.617188-70.621094 70.621094-70.621094zm0 0" fill="#e4c05c"/><path d="m256 344.238281c-58.5 0-105.929688-53.351562-105.929688-119.171875v-51.078125c0-37.605469 27.097657-68.09375 60.53125-68.09375h90.796876c33.433593 0 60.53125 30.488281 60.53125 68.09375v51.078125c0 65.820313-47.429688 119.171875-105.929688 119.171875zm0 0" fill="#fdd7ad"/><path d="m229.515625 202.996094c0 14.628906-11.855469 26.484375-26.480469 26.484375s-26.484375-11.855469-26.484375-26.484375c0-14.625 11.859375-26.480469 26.484375-26.480469s26.480469 11.855469 26.480469 26.480469zm0 0" fill="#3d324c"/><path d="m335.449219 202.996094c0 14.628906-11.859375 26.484375-26.484375 26.484375s-26.480469-11.855469-26.480469-26.484375c0-14.625 11.855469-26.480469 26.480469-26.480469s26.484375 11.855469 26.484375 26.480469zm0 0" fill="#3d324c"/><g fill="#2c3e50"><path d="m229.515625 273.617188c-2.347656.023437-4.605469-.898438-6.265625-2.558594s-2.585938-3.917969-2.558594-6.269532c-.03125-1.15625.210938-2.304687.703125-3.351562.449219-1.070312 1.074219-2.054688 1.855469-2.914062 3.539062-3.265626 8.996094-3.265626 12.535156 0 .777344.859374 1.40625 1.84375 1.851563 2.914062.453125 1.058594.695312 2.199219.707031 3.351562.023438 2.351563-.898438 4.609376-2.558594 6.269532s-3.917968 2.582031-6.269531 2.558594zm0 0"/><path d="m229.515625 300.101562c-2.347656.023438-4.605469-.898437-6.265625-2.558593-1.660156-1.660157-2.585938-3.921875-2.558594-6.269531-.03125-1.15625.210938-2.308594.703125-3.355469.449219-1.066407 1.074219-2.054688 1.855469-2.910157 3.539062-3.269531 8.996094-3.269531 12.535156 0 .777344.855469 1.40625 1.84375 1.851563 2.910157.453125 1.0625.695312 2.203125.707031 3.355469.023438 2.347656-.898438 4.609374-2.558594 6.269531-1.660156 1.660156-3.917968 2.582031-6.269531 2.558593zm0 0"/><path d="m256 326.582031c-2.347656.027344-4.609375-.898437-6.269531-2.558593-1.660157-1.660157-2.582031-3.917969-2.558594-6.265626-.03125-1.160156.210937-2.308593.707031-3.355468.449219-1.070313 1.074219-2.054688 1.851563-2.914063 3.542969-3.265625 8.996093-3.265625 12.539062 0 .777344.859375 1.402344 1.84375 1.851563 2.914063.453125 1.0625.691406 2.199218.707031 3.355468.023437 2.347657-.898437 4.605469-2.558594 6.265626-1.660156 1.660156-3.921875 2.585937-6.269531 2.558593zm0 0"/><path d="m256 273.617188c-2.347656.023437-4.609375-.898438-6.269531-2.558594-1.660157-1.660156-2.582031-3.917969-2.558594-6.269532-.03125-1.15625.210937-2.304687.707031-3.351562.449219-1.070312 1.074219-2.054688 1.851563-2.914062 3.542969-3.265626 8.996093-3.265626 12.539062 0 .777344.859374 1.402344 1.84375 1.851563 2.914062.453125 1.058594.691406 2.199219.707031 3.351562.023437 2.351563-.898437 4.609376-2.558594 6.269532-1.660156 1.660156-3.921875 2.582031-6.269531 2.558594zm0 0"/><path d="m256 247.136719c-2.347656.023437-4.609375-.898438-6.269531-2.558594-1.660157-1.664063-2.582031-3.921875-2.558594-6.269531-.03125-1.160156.210937-2.308594.707031-3.355469.449219-1.070313 1.074219-2.054687 1.851563-2.914063 3.542969-3.265624 8.996093-3.265624 12.539062 0 .777344.859376 1.402344 1.84375 1.851563 2.914063.453125 1.0625.691406 2.203125.707031 3.355469.023437 2.347656-.898437 4.605468-2.558594 6.269531-1.660156 1.660156-3.921875 2.582031-6.269531 2.558594zm0 0"/><path d="m256 300.101562c-2.347656.023438-4.609375-.898437-6.269531-2.558593-1.660157-1.660157-2.582031-3.921875-2.558594-6.269531-.03125-1.15625.210937-2.308594.707031-3.355469.449219-1.066407 1.074219-2.054688 1.851563-2.910157 3.542969-3.269531 8.996093-3.269531 12.539062 0 .777344.855469 1.402344 1.84375 1.851563 2.910157.453125 1.0625.691406 2.203125.707031 3.355469.023437 2.347656-.898437 4.609374-2.558594 6.269531-1.660156 1.660156-3.921875 2.582031-6.269531 2.558593zm0 0"/><path d="m203.035156 300.101562c-2.347656.023438-4.609375-.898437-6.269531-2.558593-1.660156-1.660157-2.582031-3.921875-2.558594-6.269531-.03125-1.15625.210938-2.308594.707031-3.355469.445313-1.066407 1.074219-2.054688 1.851563-2.910157 3.542969-3.269531 8.996094-3.269531 12.535156 0 .78125.855469 1.40625 1.84375 1.855469 2.910157.453125 1.0625.691406 2.203125.707031 3.355469.023438 2.347656-.898437 4.609374-2.558593 6.269531-1.664063 1.660156-3.921876 2.582031-6.269532 2.558593zm0 0"/><path d="m282.484375 273.617188c2.347656.023437 4.605469-.898438 6.265625-2.558594s2.585938-3.917969 2.558594-6.269532c.03125-1.15625-.210938-2.304687-.703125-3.351562-.449219-1.070312-1.074219-2.054688-1.855469-2.914062-3.539062-3.265626-8.996094-3.265626-12.535156 0-.777344.859374-1.40625 1.84375-1.851563 2.914062-.453125 1.058594-.695312 2.199219-.707031 3.351562-.023438 2.351563.898438 4.609376 2.558594 6.269532s3.917968 2.582031 6.269531 2.558594zm0 0"/><path d="m282.484375 300.101562c2.347656.023438 4.605469-.898437 6.265625-2.558593 1.660156-1.660157 2.585938-3.921875 2.558594-6.269531.03125-1.15625-.210938-2.308594-.703125-3.355469-.449219-1.066407-1.074219-2.054688-1.855469-2.910157-3.539062-3.269531-8.996094-3.269531-12.535156 0-.777344.855469-1.40625 1.84375-1.851563 2.910157-.453125 1.0625-.695312 2.203125-.707031 3.355469-.023438 2.347656.898438 4.609374 2.558594 6.269531 1.660156 1.660156 3.917968 2.582031 6.269531 2.558593zm0 0"/><path d="m308.964844 300.101562c2.347656.023438 4.609375-.898437 6.269531-2.558593 1.660156-1.660157 2.582031-3.921875 2.558594-6.269531.03125-1.15625-.210938-2.308594-.707031-3.355469-.445313-1.066407-1.074219-2.054688-1.851563-2.910157-3.542969-3.269531-8.996094-3.269531-12.535156 0-.78125.855469-1.40625 1.84375-1.855469 2.910157-.453125 1.0625-.691406 2.203125-.707031 3.355469-.023438 2.347656.898437 4.609374 2.558593 6.269531 1.664063 1.660156 3.921876 2.582031 6.269532 2.558593zm0 0"/></g></svg>