<svg height="512pt" viewBox="0 0 512 511" width="512pt" xmlns="http://www.w3.org/2000/svg"><path d="m74.476562 342.988281c-1.296874 0-2.585937.0625-3.855468.070313-11.882813.207031-23.742188-1.070313-35.3125-3.796875-9.429688-2.019531-18.289063-6.117188-25.933594-11.996094-5.664062-4.210937-9.113281-10.765625-9.375-17.820313 2.378906-10.886718 7.617188-20.945312 15.175781-29.132812 10.429688-13.320312 21.570313-26.0625 33.375-38.179688 12.140625-12.683593 24.277344-24.550781 33.378907-33.246093 9.101562-8.695313 15.171874-14.203125 15.171874-14.203125s-43.605468 84.417968-22.625 148.304687" fill="#3d324c"/><path d="m437.523438 342.988281c1.296874 0 2.585937.0625 3.855468.070313 11.882813.207031 23.742188-1.070313 35.3125-3.796875 9.429688-2.019531 18.289063-6.117188 25.933594-11.996094 5.664062-4.210937 9.113281-10.765625 9.375-17.820313-2.378906-10.886718-7.617188-20.945312-15.175781-29.132812-10.429688-13.320312-21.570313-26.0625-33.375-38.179688-12.140625-12.695312-24.277344-24.550781-33.378907-33.246093-9.101562-8.695313-15.171874-14.203125-15.171874-14.203125s43.605468 84.410156 22.625 148.304687" fill="#3d324c"/><path d="m374.820312 428.527344-24.011718 65.941406c-4.386719 12.039062-16.535156 19.421875-29.242188 17.773438-12.703125-1.652344-22.5625-11.898438-23.722656-24.65625l-3.53125-39.019532h-76.625l-3.53125 39.019532c-1.160156 12.757812-11.019531 23.003906-23.722656 24.65625-12.707032 1.648437-24.855469-5.734376-29.242188-17.773438l-24.011718-65.941406zm0 0" fill="#3d324c"/><path d="m417.191406 156.816406c50.933594-55.703125 9.800782-120.761718-17.742187-153.25-2.566407-2.898437-6.738281-3.75-10.234375-2.09375s-5.480469 5.425782-4.863282 9.246094c2.035157 23.125-6.011718 46-22.066406 62.761719h-212.570312c-16.054688-16.761719-24.101563-39.636719-22.066406-62.761719.617187-3.820312-1.367188-7.589844-4.863282-9.246094-3.496094-1.65625-7.667968-.804687-10.234375 2.09375-27.542969 32.488282-68.675781 97.546875-17.742187 153.25zm0 0" fill="#fdd7ad"/><path d="m443.71875 234.65625c-1.441406-10.6875-3.921875-21.210938-7.40625-31.417969-25.484375-76.167969-74.226562-142.421875-139.351562-189.429687-24.429688-17.730469-57.492188-17.730469-81.921876 0-65.125 47.007812-113.867187 113.261718-139.351562 189.429687-3.484375 10.207031-5.964844 20.730469-7.40625 31.417969l-14.785156 107.625c7.324218 60.644531 95.160156 108.402344 202.503906 108.402344s195.179688-47.757813 202.503906-108.402344zm0 0" fill="#894b9d"/><path d="m419.980469 234.65625c-1.214844-10.628906-3.320313-21.140625-6.292969-31.417969-20.035156-73.402343-61.230469-139.285156-118.457031-189.429687-19.820313-17.746094-49.8125-17.746094-69.632813 0-57.226562 50.144531-98.425781 116.027344-118.457031 189.429687-2.972656 10.277344-5.078125 20.789063-6.292969 31.417969l-12.570312 107.625c6.230468 60.644531 80.886718 108.402344 172.136718 108.402344s165.90625-47.757813 172.136719-108.402344zm0 0" fill="#955ba5"/><path d="m141.242188 159.375v52.964844h-68.328126c.796876-3.089844 1.765626-6.089844 2.738282-9.09375 5.101562-14.976563 11.113281-29.628906 18.007812-43.871094zm0 0" fill="#bdc3c7"/><path d="m317.792969 282.960938h8.828125c24.375 0 44.136718-19.761719 44.136718-44.136719v-79.449219c0-39.003906-31.617187-70.621094-70.621093-70.621094h-88.273438c-39.003906 0-70.621093 31.617188-70.621093 70.621094v79.449219c0 24.375 19.761718 44.136719 44.136718 44.136719h8.828125" fill="#fdd7ad"/><path d="m326.621094 282.960938v61.792968c-1.476563 20.851563-19.488282 36.613282-40.351563 35.308594h-60.539062c-20.863281 1.304688-38.875-14.457031-40.351563-35.308594v-61.792968" fill="#cbb292"/><g fill="#59474e"><path d="m326.621094 327.097656h-141.242188c-4.875 0-8.828125-3.953125-8.828125-8.828125s3.953125-8.824219 8.828125-8.824219h141.242188c4.875 0 8.828125 3.949219 8.828125 8.824219s-3.953125 8.828125-8.828125 8.828125zm0 0"/><path d="m220.691406 344.753906c-4.878906 0-8.828125-3.953125-8.828125-8.828125v-35.308593c0-4.875 3.949219-8.828126 8.828125-8.828126 4.875 0 8.824219 3.953126 8.824219 8.828126v35.308593c0 4.875-3.949219 8.828125-8.824219 8.828125zm0 0"/><path d="m256 344.753906c-4.875 0-8.828125-3.953125-8.828125-8.828125v-35.308593c0-4.875 3.953125-8.828126 8.828125-8.828126s8.828125 3.953126 8.828125 8.828126v35.308593c0 4.875-3.953125 8.828125-8.828125 8.828125zm0 0"/><path d="m291.308594 344.753906c-4.875 0-8.824219-3.953125-8.824219-8.828125v-35.308593c0-4.875 3.949219-8.828126 8.824219-8.828126 4.878906 0 8.828125 3.953126 8.828125 8.828126v35.308593c0 4.875-3.949219 8.828125-8.828125 8.828125zm0 0"/></g><path d="m238.34375 182.917969c0 19.5-15.808594 47.078125-35.308594 47.078125-19.503906 0-35.3125-15.808594-35.3125-35.3125 0-19.5 15.808594-35.308594 35.3125-35.308594 19.5 0 35.308594 4.042969 35.308594 23.542969zm0 0" fill="#3d324c"/><path d="m273.65625 182.917969c0 19.5 15.808594 47.078125 35.308594 47.078125 19.503906 0 35.3125-15.808594 35.3125-35.3125 0-19.5-15.808594-35.308594-35.3125-35.308594-19.5 0-35.308594 4.042969-35.308594 23.542969zm0 0" fill="#3d324c"/><path d="m248.433594 233.78125-10.890625 18.160156c-1.636719 2.726563-1.675781 6.121094-.113281 8.886719 1.566406 2.765625 4.5 4.476563 7.675781 4.476563h21.789062c3.175781 0 6.109375-1.710938 7.675781-4.476563 1.5625-2.765625 1.523438-6.160156-.113281-8.886719l-10.890625-18.160156c-1.597656-2.652344-4.46875-4.277344-7.566406-4.277344s-5.96875 1.625-7.566406 4.277344zm0 0" fill="#3d324c"/><path d="m439.085938 212.339844h-68.328126v-52.964844h47.582032c6.894531 14.242188 12.90625 28.894531 18.007812 43.871094.972656 3.003906 1.941406 6.003906 2.738282 9.09375zm0 0" fill="#bdc3c7"/></svg>