<svg height="512pt" viewBox="0 0 512.19713 512" width="512pt" xmlns="http://www.w3.org/2000/svg"><path d="m511.195312 279.179688c-3.035156 14.859374-12.855468 27.441406-26.539062 33.992187-13.679688 6.550781-29.640625 6.3125-43.121094-.644531v159.949218c-.039062 7.6875-4.820312 14.550782-12.015625 17.253907-7.199219 2.703125-15.316406.683593-20.40625-5.074219-3.519531-4-8.59375-6.292969-13.921875-6.292969-5.332031 0-10.402344 2.292969-13.921875 6.292969l-18.539062 21.144531c-3.507813 4.015625-8.585938 6.324219-13.917969 6.324219-5.335938 0-10.414062-2.308594-13.921875-6.324219l-18.539063-21.144531c-3.519531-4-8.589843-6.292969-13.921874-6.292969-5.328126 0-10.402344 2.292969-13.921876 6.292969l-18.535156 21.144531c-3.511718 4.015625-8.585937 6.324219-13.921875 6.324219-5.335937 0-10.410156-2.308594-13.921875-6.324219l-18.539062-21.144531c-3.519532-4-8.589844-6.292969-13.917969-6.292969-5.332031 0-10.402344 2.292969-13.921875 6.292969l-18.539062 21.144531c-3.511719 4.015625-8.585938 6.324219-13.921876 6.324219-5.335937 0-10.410156-2.308594-13.921874-6.324219l-18.535157-21.144531c-3.519531-4-8.59375-6.292969-13.921875-6.292969s-10.402344 2.292969-13.921875 6.292969c-5.121093 5.597656-13.136719 7.511719-20.234375 4.828125s-11.839844-9.421875-11.976562-17.007813v-159.949218c-17.910156 9.222656-39.65625 6.425781-54.648438-7.027344-14.992187-13.453125-20.121094-34.769531-12.890625-53.570312 7.234375-18.800782 25.324219-31.183594 45.46875-31.121094 7.683594-.007813 15.253907 1.839844 22.070313 5.386718v-36.519531c0-101.96875 80.570312-188 182.527344-189.554687 49.65625-.765625 97.546874 18.429687 132.929687 53.277344 35.386719 34.847656 55.308594 82.4375 55.300781 132.101562v40.695312c6.816406-3.546874 14.386719-5.394531 22.070313-5.386718 14.605469-.011719 28.441406 6.554687 37.667969 17.871094 9.230468 11.320312 12.875 26.195312 9.921874 40.5zm0 0" fill="#955ba5"/><path d="m348.847656 494.464844c-.25.011718-.484375-.097656-.636718-.289063l-18.496094-21.144531c-6.871094-7.835938-16.785156-12.328125-27.210938-12.328125-10.421875 0-20.335937 4.492187-27.210937 12.328125l-18.535157 21.144531h-1.273437l-18.535156-21.144531c-6.875-7.835938-16.789063-12.328125-27.210938-12.328125-10.425781 0-20.339843 4.492187-27.214843 12.328125l-18.535157 21.144531h-1.273437l-18.535156-21.144531c-6.875-7.835938-16.789063-12.328125-27.210938-12.328125-10.425781 0-20.339844 4.492187-27.210938 12.328125-.195312.074219-.402343.109375-.609374.117188-.558594 0-.882813-.335938-.882813-.671876v-188.992187l-25.796875 13.417969c-4.25 2.203125-8.972656 3.355468-13.761719 3.355468-2.375-.003906-4.742187-.265624-7.0625-.777343-11.710937-2.660157-20.789062-11.917969-23.214843-23.683594-1.945313-9.128906.34375-18.648437 6.222656-25.898437s14.722656-11.449219 24.054687-11.433594c4.847657-.015625 9.625 1.148437 13.921875 3.390625l25.804688 13.425781v-65.605469c0-93.40625 74.078125-170.515625 165.136718-171.898437h2.585938c92.632812 0 167.722656 75.089844 167.722656 167.722656v69.78125l25.804688-13.425781c4.296875-2.242188 9.074218-3.40625 13.921875-3.390625 15.757812-.089844 29.058593 11.691406 30.871093 27.34375s-8.449218 30.164062-23.808593 33.671875c-2.320313.511719-4.6875.773437-7.0625.777343-4.851563.015626-9.628907-1.148437-13.929688-3.390624l-25.796875-13.382813v188.992187c0 .730469-.546875.882813-1.003906.882813-6.988281-7.992187-17.070312-12.605469-27.683594-12.667969-10.429687 0-20.347656 4.503906-27.207031 12.359375l-18.539063 21.140625zm0 0" fill="#b49aca"/><path d="m229.671875 185.5c0 19.5-15.808594 35.308594-35.308594 35.308594s-35.308593-15.808594-35.308593-35.308594 15.808593-35.308594 35.308593-35.308594 35.308594 15.808594 35.308594 35.308594zm0 0" fill="#3d324c"/><path d="m353.257812 185.5c0 19.5-15.808593 35.308594-35.308593 35.308594s-35.308594-15.808594-35.308594-35.308594 15.808594-35.308594 35.308594-35.308594 35.308593 15.808594 35.308593 35.308594zm0 0" fill="#3d324c"/><path d="m317.949219 326.742188c0-53.628907-27.664063-97.105469-61.792969-97.105469s-61.792969 43.476562-61.792969 97.105469c0 53.628906 27.664063 97.101562 61.792969 97.101562s61.792969-43.472656 61.792969-97.101562zm0 0" fill="#955ba5"/><path d="m300.292969 326.742188c0-43.878907-19.761719-79.449219-44.136719-79.449219s-44.136719 35.570312-44.136719 79.449219c0 43.878906 19.761719 79.449218 44.136719 79.449218s44.136719-35.570312 44.136719-79.449218zm0 0" fill="#2c3e50"/><path d="m294.027344 383.503906c-7.769532 22.6875-21.804688 22.6875-37.871094 22.6875s-30.101562 0-37.871094-22.6875c7.972656-13.316406 22.351563-21.46875 37.871094-21.46875s29.898438 8.152344 37.871094 21.46875zm0 0" fill="#ff5364"/></svg>