<svg height="512pt" viewBox="0 0 512.19713 512" width="512pt" xmlns="http://www.w3.org/2000/svg"><path d="m511.195312 279.179688c-3.035156 14.859374-12.855468 27.441406-26.539062 33.992187-13.679688 6.550781-29.640625 6.3125-43.121094-.644531v159.949218c-.039062 7.6875-4.820312 14.550782-12.015625 17.253907-7.199219 2.703125-15.316406.683593-20.40625-5.074219-3.519531-4-8.59375-6.292969-13.921875-6.292969-5.332031 0-10.402344 2.292969-13.921875 6.292969l-18.539062 21.144531c-3.507813 4.015625-8.585938 6.324219-13.917969 6.324219-5.335938 0-10.414062-2.308594-13.921875-6.324219l-18.539063-21.144531c-3.519531-4-8.589843-6.292969-13.921874-6.292969-5.328126 0-10.402344 2.292969-13.921876 6.292969l-18.535156 21.144531c-3.511718 4.015625-8.585937 6.324219-13.921875 6.324219-5.335937 0-10.410156-2.308594-13.921875-6.324219l-18.539062-21.144531c-3.519532-4-8.589844-6.292969-13.917969-6.292969-5.332031 0-10.402344 2.292969-13.921875 6.292969l-18.539062 21.144531c-3.511719 4.015625-8.585938 6.324219-13.921876 6.324219-5.335937 0-10.410156-2.308594-13.921874-6.324219l-18.535157-21.144531c-3.519531-4-8.59375-6.292969-13.921875-6.292969s-10.402344 2.292969-13.921875 6.292969c-5.121093 5.597656-13.136719 7.511719-20.234375 4.828125s-11.839844-9.421875-11.976562-17.007813v-159.949218c-17.910156 9.222656-39.65625 6.425781-54.648438-7.027344-14.992187-13.453125-20.121094-34.769531-12.890625-53.570312 7.234375-18.800782 25.324219-31.183594 45.46875-31.121094 7.683594-.007813 15.253907 1.839844 22.070313 5.386718v-36.519531c0-101.96875 80.570312-188 182.527344-189.554687 49.65625-.765625 97.546874 18.429687 132.929687 53.277344 35.386719 34.847656 55.308594 82.4375 55.300781 132.101562v40.695312c6.816406-3.546874 14.386719-5.394531 22.070313-5.386718 14.605469-.011719 28.441406 6.554687 37.667969 17.871094 9.230468 11.320312 12.875 26.195312 9.921874 40.5zm0 0" fill="#46b29d"/><path d="m348.847656 494.464844c-.25.011718-.484375-.097656-.636718-.289063l-18.496094-21.144531c-6.871094-7.835938-16.785156-12.328125-27.210938-12.328125-10.421875 0-20.335937 4.492187-27.210937 12.328125l-18.535157 21.144531h-1.273437l-18.535156-21.144531c-6.875-7.835938-16.789063-12.328125-27.210938-12.328125-10.425781 0-20.339843 4.492187-27.214843 12.328125l-18.535157 21.144531h-1.273437l-18.535156-21.144531c-6.875-7.835938-16.789063-12.328125-27.210938-12.328125-10.425781 0-20.339844 4.492187-27.210938 12.328125-.195312.074219-.402343.109375-.609374.117188-.558594 0-.882813-.335938-.882813-.671876v-188.992187l-25.796875 13.417969c-4.25 2.203125-8.972656 3.355468-13.761719 3.355468-2.375-.003906-4.742187-.265624-7.0625-.777343-11.710937-2.660157-20.789062-11.917969-23.214843-23.683594-1.945313-9.128906.34375-18.648437 6.222656-25.898437s14.722656-11.449219 24.054687-11.433594c4.847657-.015625 9.625 1.148437 13.921875 3.390625l25.804688 13.425781v-65.605469c0-93.40625 74.078125-170.515625 165.136718-171.898437h2.585938c92.632812 0 167.722656 75.089844 167.722656 167.722656v69.78125l25.804688-13.425781c4.296875-2.242188 9.074218-3.40625 13.921875-3.390625 15.757812-.089844 29.058593 11.691406 30.871093 27.34375s-8.449218 30.164062-23.808593 33.671875c-2.320313.511719-4.6875.773437-7.0625.777343-4.851563.015626-9.628907-1.148437-13.929688-3.390624l-25.796875-13.382813v188.992187c0 .730469-.546875.882813-1.003906.882813-6.988281-7.992187-17.070312-12.605469-27.683594-12.667969-10.429687 0-20.347656 4.503906-27.207031 12.359375l-18.539063 21.140625zm0 0" fill="#65ddb9"/><path d="m229.671875 185.5c0 19.5-15.808594 35.308594-35.308594 35.308594s-35.308593-15.808594-35.308593-35.308594 15.808593-35.308594 35.308593-35.308594 35.308594 15.808594 35.308594 35.308594zm0 0" fill="#41767f"/><path d="m353.257812 185.5c0 19.5-15.808593 35.308594-35.308593 35.308594s-35.308594-15.808594-35.308594-35.308594 15.808594-35.308594 35.308594-35.308594 35.308593 15.808594 35.308593 35.308594zm0 0" fill="#41767f"/><path d="m152.253906 293.636719c13.28125 13.242187 24.074219 28.757812 31.871094 45.816406 3.785156 8.773437 6.109375 18.105469 6.882812 27.628906.882813 12.359375-5.738281 25.691407.175782 37.429688 5.121094 10.242187 16.421875 13.242187 26.835937 15.625 12.480469 2.980469 25.320313 4.171875 38.136719 3.53125 12.816406.640625 25.65625-.550781 38.136719-3.53125 10.414062-2.382813 21.714843-5.382813 26.835937-15.625 5.914063-11.738281-.707031-25.070313.175782-37.429688.773437-9.523437 3.097656-18.855469 6.882812-27.628906 7.796875-17.058594 18.589844-32.574219 31.871094-45.816406l28.511718-37.515625s-8.828124 61.792968-132.414062 61.792968-132.414062-61.792968-132.414062-61.792968zm0 0" fill="#2c2f38"/><path d="m316.535156 410.691406c-6-17.742187-30.71875-30.984375-60.378906-30.984375s-54.378906 13.242188-60.378906 30.984375l60.378906 13.152344zm0 0" fill="#ff5364"/><path d="m397.308594 257.375c.660156-4.792969-2.65625-9.222656-7.441406-9.9375-4.785157-.714844-9.253907 2.554688-10.019532 7.332031-3.535156 12.832031-11.839844 23.832031-23.214844 30.746094-.609374.316406-1.183593.703125-1.703124 1.148437-17.683594 11.828126-47.722657 22.421876-98.773438 22.421876s-81.082031-10.59375-98.761719-22.414063c-.542969-.453125-1.136719-.839844-1.765625-1.15625-11.363281-6.917969-19.664062-17.90625-23.207031-30.726563-.804687-4.738281-5.246094-7.964843-10-7.261718s-8.070313 5.078125-7.464844 9.847656c4.328125 18.007812 15.683594 33.535156 31.535157 43.113281 12.257812 12.277344 22.234374 26.640625 29.457031 42.417969 3.398437 7.875 5.484375 16.253906 6.179687 24.804688.082032 4.09375-.265625 8.1875-1.042968 12.207031-2.394532 9.492187-1.648438 19.507812 2.128906 28.539062 7.210937 14.441407 22.589844 17.957031 32.660156 20.304688 10.992188 2.628906 22.261719 3.941406 33.5625 3.910156 2.234375 0 4.476562-.070313 6.71875-.167969 2.25.097656 4.492188.167969 6.726562.167969 11.242188.011719 22.445313-1.300781 33.378907-3.917969 10.167969-2.332031 25.546875-5.84375 32.75-20.304687 3.78125-9.039063 4.53125-19.0625 2.136719-28.566407-.777344-4.011718-1.125-8.09375-1.042969-12.179687.691406-8.558594 2.777343-16.941406 6.179687-24.824219 7.226563-15.777344 17.207032-30.144531 29.464844-42.425781 15.855469-9.566406 27.21875-25.078125 31.558594-43.078125zm-77.242188 78.625c-4.171875 9.671875-6.730468 19.960938-7.574218 30.457031-.203126 5.394531.195312 10.796875 1.195312 16.101563 1.648438 5.914062 1.492188 12.1875-.460938 18.007812-3.222656 6.453125-11.378906 8.785156-21.007812 10.992188-11.664062 2.792968-23.664062 3.902344-35.640625 3.289062-.136719.015625-.277344.039063-.414063.074219-.148437 0-.28125-.082031-.429687-.074219-12.015625.621094-24.050781-.5-35.746094-3.316406-9.523437-2.179688-17.652343-4.511719-20.921875-10.992188-1.933594-5.816406-2.089844-12.078124-.441406-17.980468 1-5.316406 1.398438-10.726563 1.183594-16.128906-.839844-10.492188-3.394532-20.773438-7.5625-30.4375-2.894532-6.574219-6.316406-12.902344-10.242188-18.917969 24.097656 6.894531 49.089844 10.152343 74.152344 9.667969 25.0625.484374 50.054688-2.773438 74.152344-9.667969-3.921875 6.019531-7.347656 12.351562-10.242188 18.925781zm0 0" fill="#46b29d"/></svg>