<svg height="512pt" viewBox="-35 0 512 512" width="512pt" xmlns="http://www.w3.org/2000/svg"><path d="m114.757812 353.101562h44.140626v61.796876h-44.140626zm0 0" fill="#fdd7ad"/><path d="m282.484375 353.101562h44.136719v61.796876h-44.136719zm0 0" fill="#fdd7ad"/><path d="m203.035156 353.101562h35.308594v44.140626h-35.308594zm0 0" fill="#fdd7ad"/><path d="m158.898438 353.101562h44.136718v61.796876h-44.136718zm0 0" fill="#59474e"/><path d="m238.34375 353.101562h44.140625v61.796876h-44.140625zm0 0" fill="#59474e"/><path d="m414.898438 282.484375h8.824218c9.753906 0 17.65625 7.902344 17.65625 17.652344s-7.902344 17.65625-17.65625 17.65625h-88.273437v-35.308594zm0 0" fill="#bdc3c7"/><path d="m406.070312 335.449219h-17.65625c-4.875 0-8.828124-3.953125-8.828124-8.828125v-52.964844c0-4.875 3.953124-8.828125 8.828124-8.828125h17.65625c4.875 0 8.828126 3.953125 8.828126 8.828125v52.964844c0 4.875-3.953126 8.828125-8.828126 8.828125zm0 0" fill="#7f8c8d"/><path d="m414.898438 317.792969h-35.3125v-35.308594h35.3125zm0 0" fill="#95a5a5"/><path d="m26.484375 282.484375h-8.828125c-9.75 0-17.65625 7.902344-17.65625 17.652344s7.90625 17.65625 17.65625 17.65625h88.273438v-35.308594zm0 0" fill="#bdc3c7"/><path d="m361.929688 79.449219v247.171875c0 19.5-15.808594 35.308594-35.308594 35.308594h-211.863282c-19.5 0-35.308593-15.808594-35.308593-35.308594v-247.171875s17.652343-35.3125 52.964843-35.3125h176.550782c35.3125 0 52.964844 35.3125 52.964844 35.3125zm0 0" fill="#71c285"/><path d="m344.277344 78.46875v240.304688c.898437 17.996093-12.90625 33.335937-30.898438 34.328124h-185.378906c-17.992188-.992187-31.796875-16.332031-30.898438-34.328124v-240.304688s15.449219-34.332031 46.347657-34.332031h154.480469c30.898437 0 46.347656 34.332031 46.347656 34.332031zm0 0" fill="#bbd1b5"/><path d="m361.929688 35.308594v44.140625s-17.652344-35.3125-52.964844-35.3125h-176.550782c-35.3125 0-52.964843 35.3125-52.964843 35.3125v-44.140625c0-19.5 15.808593-35.308594 35.308593-35.308594h211.863282c19.5 0 35.308594 15.808594 35.308594 35.308594zm0 0" fill="#59474e"/><path d="m282.484375 397.242188v79.449218l-26.484375-17.65625-17.65625 17.65625v-26.484375c-.027344-9.738281-7.914062-17.625-17.652344-17.65625-9.722656.074219-17.585937 7.933594-17.65625 17.65625v26.484375l-26.484375-17.65625-17.652343 17.65625v-79.449218zm0 0" fill="#805333"/><path d="m176.550781 459.035156 26.484375 17.65625v17.652344c-.03125 9.738281-7.917968 17.628906-17.65625 17.65625h-8.828125c-9.738281-.027344-17.625-7.917969-17.652343-17.65625v-17.652344zm0 0" fill="#bbd1b5"/><path d="m282.484375 476.691406v17.652344c-.03125 9.738281-7.917969 17.628906-17.65625 17.65625h-8.828125c-9.738281-.027344-17.625-7.917969-17.65625-17.65625v-17.652344l17.65625-17.65625zm0 0" fill="#bbd1b5"/><path d="m158.898438 414.898438v13.238281c0 12.191406-9.882813 22.070312-22.070313 22.070312s-22.070313-9.878906-22.070313-22.070312v-13.238281zm0 0" fill="#bbd1b5"/><path d="m326.621094 414.898438v13.238281c0 12.191406-9.882813 22.070312-22.070313 22.070312s-22.066406-9.878906-22.066406-22.070312v-13.238281zm0 0" fill="#bbd1b5"/><g fill="#4c8056"><path d="m79.449219 105.929688h282.480469v17.65625h-282.480469zm0 0"/><path d="m114.757812 141.242188c-4.875 0-8.828124-3.953126-8.828124-8.828126v-35.3125c0-4.875 3.953124-8.824218 8.828124-8.824218s8.828126 3.949218 8.828126 8.824218v35.3125c0 4.875-3.953126 8.828126-8.828126 8.828126zm0 0"/><path d="m150.070312 141.242188c-4.875 0-8.828124-3.953126-8.828124-8.828126v-35.3125c0-4.875 3.953124-8.824218 8.828124-8.824218s8.828126 3.949218 8.828126 8.824218v35.3125c0 4.875-3.953126 8.828126-8.828126 8.828126zm0 0"/><path d="m185.378906 141.242188c-4.875 0-8.828125-3.953126-8.828125-8.828126v-35.3125c0-4.875 3.953125-8.824218 8.828125-8.824218s8.828125 3.949218 8.828125 8.824218v35.3125c0 4.875-3.953125 8.828126-8.828125 8.828126zm0 0"/><path d="m220.691406 141.242188c-4.878906 0-8.828125-3.953126-8.828125-8.828126v-35.3125c0-4.875 3.949219-8.824218 8.828125-8.824218 4.875 0 8.824219 3.949218 8.824219 8.824218v35.3125c0 4.875-3.949219 8.828126-8.824219 8.828126zm0 0"/><path d="m256 141.242188c-4.875 0-8.828125-3.953126-8.828125-8.828126v-35.3125c0-4.875 3.953125-8.824218 8.828125-8.824218s8.828125 3.949218 8.828125 8.824218v35.3125c0 4.875-3.953125 8.828126-8.828125 8.828126zm0 0"/><path d="m291.308594 141.242188c-4.875 0-8.824219-3.953126-8.824219-8.828126v-35.3125c0-4.875 3.949219-8.824218 8.824219-8.824218 4.878906 0 8.828125 3.949218 8.828125 8.824218v35.3125c0 4.875-3.949219 8.828126-8.828125 8.828126zm0 0"/><path d="m326.621094 141.242188c-4.875 0-8.828125-3.953126-8.828125-8.828126v-35.3125c0-4.875 3.953125-8.824218 8.828125-8.824218s8.828125 3.949218 8.828125 8.824218v35.3125c0 4.875-3.953125 8.828126-8.828125 8.828126zm0 0"/></g><path d="m35.308594 264.828125h17.65625c4.875 0 8.828125 3.953125 8.828125 8.828125v52.964844c0 4.875-3.953125 8.828125-8.828125 8.828125h-17.65625c-4.875 0-8.824219-3.953125-8.824219-8.828125v-52.964844c0-4.875 3.949219-8.828125 8.824219-8.828125zm0 0" fill="#7f8c8d"/><path d="m145.65625 282.484375h150.066406c12.191406 0 22.070313 9.878906 22.070313 22.066406s-9.878907 22.070313-22.070313 22.070313h-150.066406c-12.1875 0-22.070312-9.882813-22.070312-22.070313s9.882812-22.066406 22.070312-22.066406zm0 0" fill="#2c3e50"/><path d="m193.414062 187.761719c.535157 2.105469.800782 4.273437.792969 6.445312.035157 14.128907-11.027343 25.796875-25.140625 26.515625-14.109375.714844-26.300781-9.773437-27.695312-23.832031-1.394532-14.0625 8.492187-26.742187 22.46875-28.8125" fill="#2c3e50"/><path d="m203.035156 203.035156c-1.742187-.003906-3.441406-.519531-4.890625-1.484375l-52.964843-35.308593c-4.058594-2.707032-5.152344-8.1875-2.445313-12.246094 2.703125-4.054688 8.1875-5.148438 12.242187-2.445313l52.964844 35.3125c3.238282 2.15625 4.679688 6.183594 3.550782 9.90625-1.128907 3.726563-4.566407 6.269531-8.457032 6.265625zm0 0" fill="#4c8056"/><path d="m277.539062 168.078125c13.976563 2.070313 23.867188 14.75 22.46875 28.8125-1.394531 14.058594-13.585937 24.546875-27.695312 23.832031-14.113281-.71875-25.175781-12.386718-25.140625-26.515625-.007813-2.171875.257813-4.339843.796875-6.445312" fill="#2c3e50"/><path d="m238.34375 203.035156c-3.890625.003906-7.328125-2.539062-8.457031-6.265625-1.128907-3.722656.3125-7.75 3.550781-9.90625l52.964844-35.3125c2.625-1.75 5.980468-1.964843 8.808594-.570312 2.828124 1.398437 4.695312 4.199219 4.902343 7.34375.203125 3.148437-1.289062 6.167969-3.914062 7.917969l-52.964844 35.308593c-1.449219.964844-3.148437 1.480469-4.890625 1.484375zm0 0" fill="#4c8056"/><path d="m229.515625 247.171875h-17.652344c-4.875 0-8.828125-3.953125-8.828125-8.828125s3.953125-8.828125 8.828125-8.828125h17.652344c4.878906 0 8.828125 3.953125 8.828125 8.828125s-3.949219 8.828125-8.828125 8.828125zm0 0" fill="#2c3e50"/><path d="m26.484375 282.484375h35.308594v35.308594h-35.308594zm0 0" fill="#95a5a5"/></svg>