<svg height="512pt" viewBox="-117 0 512 512.01472" width="512pt" xmlns="http://www.w3.org/2000/svg"><path d="m34.71875 355.8125h43.390625v60.746094h-43.390625zm0 0" fill="#fdd7ad"/><path d="m199.601562 355.8125h43.390626v60.746094h-43.390626zm0 0" fill="#fdd7ad"/><path d="m121.5 355.8125h34.710938v43.386719h-34.710938zm0 0" fill="#fdd7ad"/><path d="m78.109375 355.8125h43.390625v60.746094h-43.390625zm0 0" fill="#59474e"/><path d="m156.210938 355.8125h43.390624v60.746094h-43.390624zm0 0" fill="#59474e"/><path d="m199.601562 399.199219v78.105469l-26.035156-17.359376-17.355468 17.359376v-26.035157c-.027344-9.574219-7.78125-17.328125-17.355469-17.355469-9.554688.070313-17.285157 7.800782-17.355469 17.355469v26.035157l-26.035156-17.359376-17.355469 17.359376v-78.105469zm0 0" fill="#805333"/><g fill="#bbd1b5"><path d="m95.464844 459.945312 26.035156 17.359376v17.355468c-.03125 9.570313-7.785156 17.324219-17.355469 17.355469h-8.679687c-9.574219-.03125-17.328125-7.785156-17.355469-17.355469v-17.355468zm0 0"/><path d="m199.601562 477.304688v17.355468c-.03125 9.570313-7.785156 17.324219-17.355468 17.355469h-8.679688c-9.574218-.03125-17.328125-7.785156-17.355468-17.355469v-17.355468l17.355468-17.359376zm0 0"/><path d="m78.109375 416.558594v13.015625c0 11.980469-9.714844 21.695312-21.695313 21.695312-11.980468 0-21.695312-9.714843-21.695312-21.695312v-13.015625zm0 0"/><path d="m242.992188 416.558594v13.015625c0 11.980469-9.714844 21.695312-21.695313 21.695312-11.984375 0-21.695313-9.714843-21.695313-21.695312v-13.015625zm0 0"/></g><path d="m225.632812 60.761719c-.003906-6.097657-1.621093-12.085938-4.683593-17.355469" fill="#fb7b76"/><path d="m260.347656 82.457031c0 1.449219-.085937 2.898438-.261718 4.335938h-47.207032c-3 .027343-5.945312-.78125-8.503906-2.339844l-35.582031-21.347656c-2.558594-1.558594-5.503907-2.371094-8.503907-2.34375h-30.804687c-9.203125 0-16.664063-7.460938-16.664063-16.664063.007813-4.628906-1.949218-9.042968-5.378906-12.148437 6-13.585938 19.1875-22.59375 34.027344-23.238281 14.839844-.644532 28.761719 7.183593 35.917969 20.203124 4.25-1.921874 8.871093-2.898437 13.535156-2.867187 12.398437-.023437 23.859375 6.601563 30.027344 17.359375h.347656c10.359375-.015625 20.300781 4.09375 27.628906 11.421875 7.324219 7.324219 11.433594 17.265625 11.421875 27.628906zm0 0" fill="#fb7b76"/><path d="m107.433594 40.636719c-1.199219-.007813-2.382813-.261719-3.472656-.753907-4.378907-1.945312-6.355469-7.066406-4.417969-11.449218 7.339843-16.601563 23.460937-27.605469 41.597656-28.3906252 18.136719-.7812498 35.148437 8.7929692 43.890625 24.7031252 1.570312 2.726562 1.539062 6.089844-.074219 8.785156-1.613281 2.699219-4.5625 4.316406-7.707031 4.21875-3.144531-.09375-5.992188-1.882812-7.441406-4.671875-5.570313-10.125-16.398438-16.210937-27.941406-15.703125-11.542969.507812-21.796876 7.519531-26.460938 18.089844-1.394531 3.15625-4.523438 5.1875-7.972656 5.171875zm0 0" fill="#df4d60"/><path d="m225.632812 69.4375c-4.792968 0-8.675781-3.882812-8.675781-8.675781-.039062-14.363281-11.671875-25.996094-26.035156-26.035157-3.417969-.03125-6.800781.675782-9.917969 2.074219-2.820312 1.292969-6.113281.984375-8.640625-.808593-2.527343-1.796876-3.910156-4.804688-3.617187-7.890626.289062-3.085937 2.203125-5.785156 5.019531-7.078124 5.386719-2.445313 11.242187-3.691407 17.15625-3.652344 23.945313.042968 43.347656 19.445312 43.390625 43.390625 0 4.792969-3.886719 8.675781-8.679688 8.675781zm0 0" fill="#df4d60"/><path d="m260.09375 95.472656c-.371094.003906-.742188-.019531-1.109375-.070312-2.285156-.292969-4.355469-1.480469-5.765625-3.300782-1.40625-1.820312-2.035156-4.125-1.742188-6.410156.132813-1.074218.195313-2.152344.191407-3.234375 0-16.777343-13.597657-30.375-30.371094-30.375-4.832031.015625-8.777344-3.847656-8.863281-8.675781-.035156-2.285156.84375-4.488281 2.445312-6.121094 1.597656-1.628906 3.785156-2.550781 6.070313-2.558594 12.707031-.058593 24.917969 4.941407 33.933593 13.894532 9.019532 8.953125 14.105469 21.125 14.140626 33.835937.003906 1.816407-.109376 3.632813-.328126 5.441407-.554687 4.328124-4.238281 7.570312-8.601562 7.574218zm0 0" fill="#df4d60"/><path d="m277.703125 104.148438v225.628906c0 19.171875-15.542969 34.710937-34.710937 34.710937h-208.273438c-19.171875 0-34.7109375-15.539062-34.7109375-34.710937v-286.371094c.046875-19.152344 15.5585935-34.664062 34.7109375-34.714844h22.738281c7.847657.03125 15.550781 2.15625 22.300781 6.164063l24.992188 15.011719c.96875.59375 1.871094 1.292968 2.691406 2.082031 3.429688 3.105469 5.386719 7.519531 5.378906 12.148437 0 4.421875 1.757813 8.65625 4.878907 11.78125 3.125 3.125 7.363281 4.882813 11.785156 4.882813h30.804687c3-.027344 5.945313.785156 8.503907 2.34375l35.582031 21.347656c2.558594 1.558594 5.503906 2.367187 8.503906 2.339844h47.46875c9.570313.03125 17.324219 7.785156 17.355469 17.355469zm0 0" fill="#46b29d"/><path d="m260.347656 86.792969v234.304687c0 14.378906-11.65625 26.035156-26.035156 26.035156h-190.914062c-14.378907 0-26.035157-11.65625-26.035157-26.035156v-307.71875c5.273438-3.0625 11.257813-4.679687 17.355469-4.6875h22.738281c7.847657.03125 15.550781 2.15625 22.300781 6.164063l24.992188 15.011719c.96875.59375 1.871094 1.292968 2.691406 2.082031 3.429688 3.105469 5.386719 7.519531 5.378906 12.148437 0 4.421875 1.757813 8.65625 4.878907 11.78125 3.125 3.125 7.363281 4.882813 11.785156 4.882813h30.804687c3-.027344 5.945313.785156 8.503907 2.34375l35.582031 21.347656c2.558594 1.558594 5.503906 2.367187 8.503906 2.339844zm0 0" fill="#71c285"/><path d="m147.53125 251.675781h-17.355469c-4.792969 0-8.675781-3.886719-8.675781-8.679687 0-4.792969 3.882812-8.675782 8.675781-8.675782h17.355469c4.792969 0 8.679688 3.882813 8.679688 8.675782 0 4.792968-3.886719 8.679687-8.679688 8.679687zm0 0" fill="#4c8056"/><path d="m112.820312 195.269531c0 21.566407-17.484374 39.050781-39.050781 39.050781-21.566406 0-39.050781-17.484374-39.050781-39.050781 0-21.566406 17.484375-39.050781 39.050781-39.050781 21.566407 0 39.050781 17.484375 39.050781 39.050781zm0 0" fill="#2c3e50"/><path d="m190.921875 315.546875c0 20.894531-23.308594 12.609375-52.066406 12.609375-28.757813 0-52.070313 8.285156-52.070313-12.609375 0-20.898437 23.3125-37.835937 52.070313-37.835937 28.757812 0 52.066406 16.9375 52.066406 37.835937zm0 0" fill="#2c3e50"/><path d="m.0078125 242.996094c11.5742185 12.597656 24.8242185 23.546875 39.3710935 32.542968 19.691406 10.847657-39.3710935 10.847657-39.3710935 54.238282zm0 0" fill="#46b29d"/><path d="m277.703125 242.996094c-11.578125 12.597656-24.824219 23.546875-39.371094 32.542968-19.691406 10.847657 39.371094 10.847657 39.371094 54.238282zm0 0" fill="#46b29d"/><path d="m242.992188 86.792969v121.492187c0 9.585938-7.773438 17.355469-17.359376 17.355469-9.582031 0-17.355468-7.769531-17.355468-17.355469v-52.066406c0-9.585938-7.769532-17.355469-17.355469-17.355469s-17.355469 7.769531-17.355469 17.355469-7.769531 17.355469-17.355468 17.355469c-9.585938 0-17.355469-7.769531-17.355469-17.355469v-95.457031h21.433593c3-.027344 5.945313.785156 8.503907 2.34375l35.582031 21.347656c2.558594 1.558594 5.503906 2.367187 8.503906 2.339844zm0 0" fill="#e64c3c"/></svg>