<svg height="512pt" viewBox="-75 0 512 512.00033" width="512pt" xmlns="http://www.w3.org/2000/svg"><path d="m282.484375 273.65625s0 52.964844 79.449219 70.621094l-35.3125 17.652344-8.828125 44.140624s-48.550781-32.398437-60.378907-81.65625" fill="#af8066"/><path d="m212.835938 6.355469-.972657 2.472656-144.417969 64.175781-58.527343-9.710937c16.933593-38.460938 54.988281-63.28906275 97.015625-63.292969h70.621094c12.371093-.03125 24.652343 2.121094 36.28125 6.355469zm0 0" fill="#fdd7ad"/><path d="m268.09375 52.699219-123.585938 33.195312h-.085937l-74.242187-12.449219-2.734376-.441406 144.417969-64.175781.972657-2.472656c23.277343 8.503906 42.832031 24.902343 55.257812 46.34375zm0 0" fill="#cbb292"/><path d="m280.542969 85.894531-280.542969 75.210938v-36.546875l144.421875-38.664063h.085937l123.585938-33.195312c6.046875 10.257812 10.261719 21.488281 12.449219 33.195312zm0 0" fill="#af8066"/><path d="m282.484375 225.546875v30.453125c0 2.296875-.089844 4.503906-.265625 6.710938-40.109375 11.675781-81.558594 18.117187-123.320312 19.152343h-1.238282c-8.382812.441407-16.859375.621094-25.246094.621094-44.359374.394531-88.605468-4.527344-131.792968-14.65625-.429688-3.925781-.636719-7.875-.621094-11.828125v-24.894531c43.226562 11.230469 87.757812 16.632812 132.414062 16.066406 50.867188.988281 101.554688-6.316406 150.070313-21.625zm0 0" fill="#af8066"/><path d="m282.21875 262.710938c-.835938 14.128906-4.527344 27.945312-10.855469 40.605468-44.394531 11.300782-90.050781 16.878906-135.859375 16.59375 10.628906-8.292968 18.429688-19.667968 22.335938-32.570312l-.179688-5.476563h1.238282c41.761718-1.035156 83.210937-7.476562 123.320312-19.152343zm0 0" fill="#cbb292"/><path d="m157.839844 287.339844c-3.90625 12.902344-11.707032 24.277344-22.335938 32.570312-26.21875 21.984375-65.410156 31.339844-72.5625 33.015625-.085937-.085937-.085937-.085937-.175781 0-34.265625-15.433593-57.875-47.761719-62.144531-85.097656 43.1875 10.128906 87.433594 15.050781 131.792968 14.65625 8.386719 0 16.863282-.179687 25.246094-.621094zm0 0" fill="#f9eab0"/><path d="m271.363281 303.316406c-17.917969 35.949219-54.644531 58.652344-94.808593 58.613282h-70.621094c-14.796875-.007813-29.433594-3.070313-42.992188-9.003907 7.152344-1.675781 46.34375-11.03125 72.5625-33.015625 45.808594.285156 91.464844-5.292968 135.859375-16.59375zm0 0" fill="#fdd7ad"/><path d="m282.484375 105.929688v119.617187c-48.515625 15.308594-99.203125 22.613281-150.070313 21.625-44.65625.566406-89.1875-4.835937-132.414062-16.066406v-70l280.542969-75.210938c.871093 4.394531 1.433593 8.851563 1.675781 13.328125.175781 2.207032.265625 4.414063.265625 6.707032zm0 0" fill="#bbd1b5"/><path d="m79.449219 406.070312h123.585937v35.308594h-123.585937zm0 0" fill="#cbb292"/><path d="m141.242188 441.378906c-9.71875.074219-17.582032 7.933594-17.65625 17.65625v17.65625h-44.136719v-35.3125zm0 0" fill="#7f6e5d"/><path d="m123.585938 476.691406v17.652344c-.027344 9.738281-7.914063 17.628906-17.652344 17.65625h-8.828125c-9.738281-.027344-17.625-7.917969-17.65625-17.65625v-17.652344zm0 0" fill="#cbb292"/><path d="m203.035156 441.378906v35.3125h-44.136718v-17.65625c-.03125-9.738281-7.917969-17.625-17.65625-17.65625zm0 0" fill="#7f6e5d"/><path d="m203.035156 476.691406v17.652344c-.027344 9.738281-7.914062 17.628906-17.65625 17.65625h-8.824218c-9.738282-.027344-17.628907-7.917969-17.65625-17.65625v-17.652344zm0 0" fill="#cbb292"/><path d="m79.449219 361.929688h123.585937v44.140624h-123.585937zm0 0" fill="#7f6e5d"/><path d="m79.449219 361.929688v52.96875h-44.136719v-17.65625c0-19.5 15.808594-35.3125 35.308594-35.3125zm0 0" fill="#fdd7ad"/><path d="m79.449219 414.898438v13.238281c0 12.191406-9.878907 22.070312-22.070313 22.070312-12.1875 0-22.066406-9.878906-22.066406-22.070312v-13.238281zm0 0" fill="#7f6e5d"/><path d="m247.171875 397.242188v17.65625h-44.136719v-52.96875h8.828125c19.5 0 35.308594 15.8125 35.308594 35.3125zm0 0" fill="#fdd7ad"/><path d="m247.171875 414.898438v13.238281c0 12.191406-9.878906 22.070312-22.066406 22.070312s-22.070313-9.878906-22.070313-22.070312v-13.238281zm0 0" fill="#7f6e5d"/><path d="m144.421875 85.894531-144.421875 38.664063v-18.628906c-.0703125-14.679688 2.96875-29.210938 8.917969-42.636719l58.527343 9.710937 2.734376.441406zm0 0" fill="#f9eab0"/><path d="m112.199219 193.941406c4.132812 6.878906 3.109375 15.675782-2.492188 21.421875-5.601562 5.742188-14.375 6.988281-21.351562 3.027344-6.980469-3.957031-10.410157-12.125-8.355469-19.878906 2.054688-7.753907 9.082031-13.148438 17.105469-13.132813 1.894531.007813 3.773437.335938 5.5625.972656" fill="#ff5364"/><path d="m123.585938 211.863281c-2.003907 0-3.949219-.683593-5.515626-1.933593l-44.136718-35.3125c-3.808594-3.046876-4.425782-8.601563-1.378906-12.410157 3.046874-3.808593 8.605468-4.425781 12.414062-1.375l44.136719 35.308594c2.929687 2.34375 4.058593 6.277344 2.816406 9.816406-1.242187 3.539063-4.585937 5.90625-8.335937 5.90625zm0 0" fill="#41767f"/><path d="m179.820312 186.351562c1.785157-.636718 3.664063-.964843 5.558594-.972656 8.074219-.039062 15.15625 5.375 17.234375 13.175782 2.078125 7.796874-1.367187 16.019531-8.390625 20-7.019531 3.984374-15.84375 2.726562-21.472656-3.0625-5.628906-5.785157-6.640625-14.640626-2.464844-21.550782" fill="#ff5364"/><path d="m158.898438 211.863281c-3.75 0-7.09375-2.367187-8.335938-5.90625-1.238281-3.539062-.109375-7.472656 2.816406-9.816406l44.140625-35.308594c2.460938-1.972656 5.789063-2.480469 8.726563-1.332031 2.941406 1.148438 5.042968 3.773438 5.519531 6.894531.476563 3.117188-.75 6.253907-3.210937 8.222657l-44.140626 35.3125c-1.566406 1.25-3.511718 1.933593-5.515624 1.933593zm0 0" fill="#41767f"/></svg>