<svg height="512pt" viewBox="0 0 512 512.00063" width="512pt" xmlns="http://www.w3.org/2000/svg"><path d="m401.566406 114.757812h13.332032c25.757812-.011718 50.464843 10.214844 68.675781 28.425782 18.214843 18.214844 28.441406 42.921875 28.425781 68.679687v176.550781c.015625 25.757813-10.210938 50.464844-28.425781 68.679688-18.210938 18.210938-42.917969 28.4375-68.675781 28.425781h-317.792969c-25.757813.011719-50.464844-10.214843-68.679688-28.425781-18.214843-18.214844-28.441406-42.921875-28.425781-68.679688v-176.550781c-.015625-25.757812 10.210938-50.464843 28.425781-68.679687 18.214844-18.210938 42.921875-28.4375 68.679688-28.425782zm0 0" fill="#e57e25"/><path d="m282.128906 94.101562-26.128906 55.96875-23.039062-53.585937c6.621093-26.921875 25.070312-76.09375 73.710937-95.601563 1.484375-.597656 3.074219-.898437 4.675781-.882812 3.179688-.0078125 6.230469 1.253906 8.46875 3.511719 2.242188 2.257812 3.484375 5.316406 3.449219 8.496093.003906 3.128907-1.269531 6.128907-3.53125 8.296876-20.757813 19.460937-34.058594 45.566406-37.605469 73.796874zm0 0" fill="#4c8056"/><g fill="#f29c1f"><path d="m88.277344 176.550781c-.023438-25.757812 10.203125-50.46875 28.417968-68.683593 18.214844-18.214844 42.925782-28.441407 68.683594-28.417969 15.597656-.132813 30.832032 4.722656 43.476563 13.859375 16.3125 10.605468 26.4375 28.488281 27.144531 47.933594.703125-19.441407 10.828125-37.324219 27.136719-47.933594 12.644531-9.136719 27.882812-13.996094 43.484375-13.859375 25.761718-.023438 50.472656 10.203125 68.6875 28.417969 18.214844 18.214843 28.4375 42.925781 28.414062 68.683593l-7.722656 262.179688c-.316406 12.902343-4.71875 25.367187-12.578125 35.601562-3.085937 3.988281-6.480469 7.730469-10.152344 11.1875-18.003906 17.035157-41.859375 26.515625-66.648437 26.480469h-141.242188c-30.03125-.070312-58.359375-13.964844-76.800781-37.667969-7.855469-10.234375-12.261719-22.699219-12.578125-35.601562zm0 0"/><path d="m44.324219 167.355469c11.070312 0 20.046875 8.972656 20.046875 20.046875v91.214844c0 11.070312-8.976563 20.046874-20.046875 20.046874-11.074219 0-20.046875-8.976562-20.046875-20.046874v-91.214844c0-11.074219 8.972656-20.046875 20.046875-20.046875zm0 0"/><path d="m469.371094 167.355469c11.074218 0 20.046875 8.972656 20.046875 20.046875v91.214844c0 11.070312-8.972657 20.046874-20.046875 20.046874-11.070313 0-20.046875-8.976562-20.046875-20.046874v-91.214844c0-11.074219 8.976562-20.046875 20.046875-20.046875zm0 0"/></g><path d="m247.171875 242.757812c0 46.316407-37.546875 83.863282-83.859375 83.863282-46.316406 0-83.863281-37.546875-83.863281-83.863282 0-46.3125 37.546875-83.859374 83.863281-83.859374 46.3125 0 83.859375 37.546874 83.859375 83.859374zm0 0" fill="#e57e25"/><path d="m229.515625 242.757812c0 36.566407-29.640625 66.207032-66.203125 66.207032-36.566406 0-66.207031-29.640625-66.207031-66.207032 0-36.5625 29.640625-66.207031 66.207031-66.207031 36.5625 0 66.203125 29.644531 66.203125 66.207031zm0 0" fill="#2c3e50"/><path d="m194.207031 344.277344h123.585938c9.75 0 17.65625 7.902344 17.65625 17.652344v26.484374c0 43.878907-35.570313 79.449219-79.449219 79.449219s-79.449219-35.570312-79.449219-79.449219v-26.484374c0-4.679688 1.863281-9.171876 5.171875-12.480469 3.3125-3.3125 7.800782-5.171875 12.484375-5.171875zm0 0" fill="#2c3e50"/><path d="m322.03125 432.550781c0-19.5-29.5625-35.308593-66.03125-35.308593s-66.03125 15.808593-66.03125 35.308593c0 19.503907 29.5625 35.3125 66.03125 35.3125s66.03125-15.808593 66.03125-35.3125zm0 0" fill="#ff5364"/><path d="m176.550781 216.277344c-.015625 19.660156-14.398437 36.359375-33.839843 39.296875-19.441407 2.933593-38.109376-8.777344-43.929688-27.558594v-.085937c5.71875-24.699219 25.003906-43.980469 49.699219-49.699219h.089843c16.625 5.21875 27.949219 20.617187 27.980469 38.046875zm0 0" fill="#fff"/><path d="m211.246094 287.074219.617187.527343c-4.707031 5.253907-10.292969 9.644532-16.507812 12.976563l-.355469-.527344c-.257812.070313-.523438.101563-.792969.085938-9.75 0-17.65625-7.902344-17.65625-17.652344s7.90625-17.65625 17.65625-17.65625 17.65625 7.90625 17.65625 17.65625c-.027343 1.546875-.234375 3.089844-.617187 4.589844zm0 0" fill="#fff"/><path d="m432.550781 242.757812c0 46.316407-37.546875 83.863282-83.859375 83.863282-46.316406 0-83.863281-37.546875-83.863281-83.863282 0-46.3125 37.546875-83.859374 83.863281-83.859374 46.3125 0 83.859375 37.546874 83.859375 83.859374zm0 0" fill="#e57e25"/><path d="m414.898438 242.757812c0 36.566407-29.644532 66.207032-66.207032 66.207032-36.566406 0-66.207031-29.640625-66.207031-66.207032 0-36.5625 29.640625-66.207031 66.207031-66.207031 36.5625 0 66.207032 29.644531 66.207032 66.207031zm0 0" fill="#2c3e50"/><path d="m361.929688 216.277344c-.015626 19.660156-14.394532 36.359375-33.835938 39.296875-19.445312 2.933593-38.113281-8.777344-43.933594-27.558594v-.085937c5.71875-24.699219 25.003906-43.980469 49.699219-49.699219h.089844c16.625 5.21875 27.949219 20.617187 27.980469 38.046875zm0 0" fill="#fff"/><path d="m396.625 287.074219.617188.527343c-4.707032 5.253907-10.292969 9.644532-16.507813 12.976563l-.351563-.527344c-.261718.070313-.527343.101563-.796874.085938-9.75 0-17.65625-7.902344-17.65625-17.652344s7.90625-17.65625 17.65625-17.65625 17.65625 7.90625 17.65625 17.65625c-.027344 1.546875-.234376 3.089844-.617188 4.589844zm0 0" fill="#fff"/></svg>