<svg height="512pt" viewBox="0 0 512 511" width="512pt" xmlns="http://www.w3.org/2000/svg"><g fill="#3d324c"><path d="m74.476562 342.988281c-1.296874 0-2.585937.0625-3.855468.070313-11.882813.207031-23.742188-1.070313-35.3125-3.796875-9.429688-2.019531-18.289063-6.117188-25.933594-11.996094-5.664062-4.210937-9.113281-10.765625-9.375-17.820313 2.378906-10.886718 7.617188-20.945312 15.175781-29.132812 10.429688-13.320312 21.570313-26.0625 33.375-38.179688 12.140625-12.683593 24.277344-24.550781 33.378907-33.246093 9.101562-8.695313 15.171874-14.203125 15.171874-14.203125s-43.605468 84.417968-22.625 148.304687"/><path d="m437.523438 342.988281c1.296874 0 2.585937.0625 3.855468.070313 11.882813.207031 23.742188-1.070313 35.3125-3.796875 9.429688-2.019531 18.289063-6.117188 25.933594-11.996094 5.664062-4.210937 9.113281-10.765625 9.375-17.820313-2.378906-10.886718-7.617188-20.945312-15.175781-29.132812-10.429688-13.320312-21.570313-26.0625-33.375-38.179688-12.140625-12.695312-24.277344-24.550781-33.378907-33.246093-9.101562-8.695313-15.171874-14.203125-15.171874-14.203125s43.605468 84.410156 22.625 148.304687"/><path d="m374.820312 428.527344-24.011718 65.941406c-4.386719 12.039062-16.535156 19.421875-29.242188 17.773438-12.703125-1.652344-22.5625-11.898438-23.722656-24.65625l-3.53125-39.019532h-76.625l-3.53125 39.019532c-1.160156 12.757812-11.019531 23.003906-23.722656 24.65625-12.707032 1.648437-24.855469-5.734376-29.242188-17.773438l-24.011718-65.941406zm0 0"/></g><path d="m417.191406 156.816406c50.933594-55.703125 9.800782-120.761718-17.742187-153.25-2.566407-2.898437-6.738281-3.75-10.234375-2.09375s-5.480469 5.425782-4.863282 9.246094c2.035157 23.125-6.011718 46-22.066406 62.761719h-212.570312c-16.054688-16.761719-24.101563-39.636719-22.066406-62.761719.617187-3.820312-1.367188-7.589844-4.863282-9.246094-3.496094-1.65625-7.667968-.804687-10.234375 2.09375-27.542969 32.488282-68.675781 97.546875-17.742187 153.25zm0 0" fill="#fdd7ad"/><path d="m443.71875 234.65625c-1.441406-10.6875-3.921875-21.210938-7.40625-31.417969-25.484375-76.167969-74.226562-142.421875-139.351562-189.429687-24.429688-17.730469-57.492188-17.730469-81.921876 0-65.125 47.007812-113.867187 113.261718-139.351562 189.429687-3.484375 10.207031-5.964844 20.730469-7.40625 31.417969l-14.785156 107.625c7.324218 60.644531 95.160156 108.402344 202.503906 108.402344s195.179688-47.757813 202.503906-108.402344zm0 0" fill="#894b9d"/><path d="m419.980469 234.65625c-1.214844-10.628906-3.320313-21.140625-6.292969-31.417969-20.035156-73.402343-61.230469-139.285156-118.457031-189.429687-19.820313-17.746094-49.8125-17.746094-69.632813 0-57.226562 50.144531-98.425781 116.027344-118.457031 189.429687-2.972656 10.277344-5.078125 20.789063-6.292969 31.417969l-12.570312 107.625c6.230468 60.644531 80.886718 108.402344 172.136718 108.402344s165.90625-47.757813 172.136719-108.402344zm0 0" fill="#955ba5"/><path d="m238.34375 190.269531c0 21.941407-17.785156 39.726563-39.722656 39.726563s-39.722656-17.785156-39.722656-39.726563c0-21.9375 17.785156-39.722656 39.722656-39.722656s39.722656 17.785156 39.722656 39.722656zm0 0" fill="#894b9d"/><path d="m229.515625 190.269531c0 17.066407-13.832031 30.898438-30.894531 30.898438s-30.898438-13.832031-30.898438-30.898438c0-17.0625 13.835938-30.894531 30.898438-30.894531s30.894531 13.832031 30.894531 30.894531zm0 0" fill="#f0c419"/><path d="m238.34375 168.203125h-79.445312c-4.878907 0-8.828126-3.953125-8.828126-8.828125s3.949219-8.828125 8.828126-8.828125h79.445312c4.875 0 8.828125 3.953125 8.828125 8.828125s-3.953125 8.828125-8.828125 8.828125zm0 0" fill="#3d324c"/><path d="m353.101562 190.269531c0 21.941407-17.785156 39.726563-39.722656 39.726563s-39.722656-17.785156-39.722656-39.726563c0-21.9375 17.785156-39.722656 39.722656-39.722656s39.722656 17.785156 39.722656 39.722656zm0 0" fill="#894b9d"/><path d="m344.277344 190.269531c0 17.066407-13.835938 30.898438-30.898438 30.898438s-30.894531-13.832031-30.894531-30.898438c0-17.0625 13.832031-30.894531 30.894531-30.894531s30.898438 13.832031 30.898438 30.894531zm0 0" fill="#f0c419"/><path d="m353.101562 168.203125h-79.445312c-4.875 0-8.828125-3.953125-8.828125-8.828125s3.953125-8.828125 8.828125-8.828125h79.445312c4.878907 0 8.828126 3.953125 8.828126 8.828125s-3.949219 8.828125-8.828126 8.828125zm0 0" fill="#3d324c"/><path d="m282.484375 265.304688c-4.878906 0-8.828125-3.953126-8.828125-8.828126 0-5.515624-8.539062-17.652343-17.65625-17.652343s-17.65625 12.136719-17.65625 17.652343c0 4.875-3.949219 8.828126-8.828125 8.828126-4.875 0-8.824219-3.953126-8.824219-8.828126 1.679688-18.761718 16.546875-33.628906 35.308594-35.308593 18.761719 1.679687 33.628906 16.546875 35.308594 35.308593 0 2.34375-.929688 4.589844-2.582032 6.242188-1.65625 1.65625-3.902343 2.585938-6.242187 2.585938zm0 0" fill="#3d324c"/><path d="m168.785156 308.207031 6.175782 45.472657c.230468 1.652343 1.371093 3.035156 2.953124 3.574218 1.578126.539063 3.328126.136719 4.515626-1.03125l33.050781-32.566406" fill="#ecf0f1"/><path d="m403.484375 267.890625-17.65625-17.652344c-3.464844-3.347656-8.96875-3.300781-12.375.105469s-3.453125 8.910156-.109375 12.375l4.125 4.121094c-8.777344 13.773437-40.175781 51.429687-121.46875 51.429687-81.804688 0-112.808594-37.523437-121.484375-51.410156l4.140625-4.140625c3.34375-3.464844 3.296875-8.96875-.109375-12.375s-8.910156-3.453125-12.375-.105469l-17.65625 17.652344c-2.292969 2.21875-3.214844 5.5-2.40625 8.585937.808594 3.085938 3.21875 5.496094 6.304687 6.304688 3.085938.808594 6.371094-.113281 8.585938-2.40625l.8125-.8125c13.25 19.015625 49.980469 56.363281 134.1875 56.363281s120.9375-37.347656 134.179688-56.363281l.8125.8125c3.464843 3.34375 8.96875 3.296875 12.375-.109375 3.402343-3.402344 3.453124-8.910156.105468-12.375zm0 0" fill="#3d324c"/></svg>