<svg height="512pt" viewBox="0 -2 512 512" width="512pt" xmlns="http://www.w3.org/2000/svg"><path d="m209.390625 144.652344v-.089844c-.699219-3.058594-1.230469-6.152344-1.589844-9.269531-1.710937-16.476563-.878906-33.121094 2.472657-49.34375 1.832031-9.335938 4.234374-18.546875 7.195312-27.585938 1.785156-5.636719.679688-11.789062-2.957031-16.449219-11.535157-15.40625-27.253907-27.179687-45.285157-33.914062-19.664062-6.933594-40.617187-9.40625-61.351562-7.238281-37.738281 4.351562-74.324219 15.726562-107.875 33.542969 0 0 59.234375 52.171874 34.605469 92.074218.09375.011719.183593.039063.261719.085938 8.523437 2.027344 16.785156 5.019531 24.628906 8.917968 21.71875 10.417969 47.9375 31.425782 36.105468 69.03125 17.210938-1.667968 34.578126.503907 50.847657 6.355469zm0 0" fill="#285680"/><path d="m146.625 127.085938c-10.859375 29.34375-28.316406 55.800781-51.023438 77.328124 11.832032-37.605468-14.386718-58.613281-36.105468-69.03125-7.84375-3.898437-16.105469-6.890624-24.628906-8.917968 0 0 32.3125-43.429688 79.183593-46.871094 10.636719-.699219 20.640625 5.085938 25.335938 14.652344l6.003906 12.09375c3.261719 6.445312 3.710937 13.957031 1.234375 20.746094zm0 0" fill="#2c3e50"/><path d="m302.609375 144.652344v-.089844c.699219-3.058594 1.230469-6.152344 1.589844-9.269531 1.710937-16.476563.878906-33.121094-2.472657-49.34375-1.832031-9.335938-4.234374-18.546875-7.195312-27.585938-1.785156-5.636719-.679688-11.789062 2.957031-16.449219 11.535157-15.40625 27.253907-27.179687 45.285157-33.914062 19.664062-6.933594 40.617187-9.40625 61.351562-7.238281 37.738281 4.351562 74.324219 15.726562 107.875 33.542969 0 0-59.234375 52.171874-34.605469 92.074218-.09375.011719-.183593.039063-.261719.085938-8.523437 2.027344-16.785156 5.019531-24.628906 8.917968-21.71875 10.417969-47.9375 31.425782-36.105468 69.03125-17.210938-1.667968-34.578126.503907-50.847657 6.355469zm0 0" fill="#285680"/><g fill="#2c3e50"><path d="m365.375 127.085938c10.859375 29.34375 28.316406 55.800781 51.023438 77.328124-11.832032-37.605468 14.386718-58.613281 36.105468-69.03125 7.84375-3.898437 16.105469-6.890624 24.628906-8.917968 0 0-32.3125-43.429688-79.183593-46.871094-10.636719-.699219-20.640625 5.085938-25.335938 14.652344l-6.003906 12.09375c-3.261719 6.445312-3.710937 13.957031-1.234375 20.746094zm0 0"/><path d="m349.042969 397.121094-22.421875 67.175781h-35.3125l-16.417969-49.34375h-37.78125l-16.417969 49.34375h-35.3125l-22.421875-67.175781zm0 0"/><path d="m344.964844 398.972656c25.425781-10.964844 45.253906-31.863281 54.871094-57.832031 9.617187-25.964844 8.1875-54.738281-3.960938-79.621094-23.894531-49.660156-59.644531-92.679687-104.097656-125.253906-21.246094-15.769531-50.308594-15.769531-71.554688 0-44.453125 32.574219-80.203125 75.59375-104.097656 125.253906-12.148438 24.882813-13.578125 53.65625-3.960938 79.621094 9.617188 25.96875 29.445313 46.867187 54.871094 57.832031 28.277344 11.335938 58.5 17.03125 88.964844 16.773438 30.464844.257812 60.6875-5.4375 88.964844-16.773438zm0 0"/></g><path d="m329.269531 398.972656c43.574219-21.953125 62.675781-85.527344 41.929688-137.453125-18.46875-47.839843-47.820313-90.722656-85.734375-125.253906-16.476563-15.773437-42.453125-15.773437-58.929688 0-37.910156 34.53125-67.257812 77.414063-85.726562 125.253906-20.753906 51.925781-1.640625 115.5 41.921875 137.453125 46.285156 22.371094 100.253906 22.371094 146.539062 0zm0 0" fill="#35495e"/><path d="m237.109375 251.375c.816406 3.234375 1.234375 6.554688 1.234375 9.890625 0 16.066406-9.675781 30.550781-24.519531 36.699219-14.84375 6.148437-31.933594 2.75-43.292969-8.613282-11.359375-11.359374-14.757812-28.445312-8.609375-43.289062s20.632813-24.523438 36.699219-24.523438c.96875 0 1.851562 0 2.824218.089844" fill="#fb7b76"/><path d="m310.554688 221.628906c.972656-.089844 1.855468-.089844 2.824218-.089844 21.9375 0 39.722656 17.785157 39.722656 39.726563 0 21.9375-17.785156 39.722656-39.722656 39.722656s-39.722656-17.785156-39.722656-39.722656c0-3.335937.417969-6.65625 1.234375-9.890625" fill="#fb7b76"/><path d="m203.035156 274.503906c-2.367187.03125-4.640625-.925781-6.269531-2.648437-1.671875-1.613281-2.597656-3.851563-2.558594-6.179688.027344-2.335937.941407-4.578125 2.558594-6.265625 2.113281-2.082031 5.125-2.976562 8.035156-2.382812.550781.097656 1.085938.273437 1.589844.527344.558594.195312 1.09375.464843 1.585937.796874.460938.328126.90625.679688 1.324219 1.058594.800781.84375 1.429688 1.832032 1.855469 2.914063.453125 1.058593.691406 2.199219.707031 3.351562-.035156 4.863281-3.96875 8.796875-8.828125 8.828125zm0 0" fill="#802f34"/><path d="m308.964844 274.503906c-2.367188.03125-4.640625-.925781-6.265625-2.648437-1.671875-1.613281-2.601563-3.851563-2.5625-6.179688.03125-2.335937.945312-4.578125 2.5625-6.265625 2.113281-2.082031 5.125-2.976562 8.03125-2.382812.554687.097656 1.089843.273437 1.589843.527344.5625.195312 1.097657.464843 1.589844.796874.460938.328126.902344.679688 1.324219 1.058594.796875.84375 1.425781 1.832032 1.851563 2.914063.453124 1.058593.691406 2.199219.707031 3.351562-.035157 4.863281-3.964844 8.796875-8.828125 8.828125zm0 0" fill="#802f34"/><path d="m300.136719 371.609375c-2.714844 0-5.28125-1.253906-6.953125-3.394531s-2.265625-4.933594-1.609375-7.570313c2.035156-7.148437 1.480469-14.785156-1.5625-21.566406-1.890625-2.117187-4.714844-3.160156-7.527344-2.78125h-52.96875c-2.8125-.378906-5.636719.664063-7.527344 2.78125-3.042969 6.789063-3.59375 14.429687-1.554687 21.585937.742187 3.003907-.144532 6.179688-2.335938 8.363282-2.191406 2.1875-5.367187 3.066406-8.371094 2.316406-23.308593-5.882812-43.863281-19.65625-58.175781-38.972656-2.703125-4.058594-1.609375-9.539063 2.445313-12.246094 4.058594-2.703125 9.539062-1.609375 12.246094 2.445312 9.199218 12.082032 21.390624 21.554688 35.371093 27.488282-.277343-7.78125 1.988281-15.441406 6.453125-21.820313 5.195313-6.457031 13.175782-10.027343 21.449219-9.59375h52.96875c8.273437-.433593 16.253906 3.136719 21.449219 9.59375 4.46875 6.386719 6.734375 14.050781 6.453125 21.839844 14.015625-5.882813 26.21875-15.371094 35.371093-27.507813 1.75-2.621093 4.769532-4.113281 7.917969-3.910156 3.144531.203125 5.945313 2.070313 7.34375 4.898438 1.394531 2.828125 1.179688 6.1875-.570312 8.8125-14.3125 19.316406-34.867188 33.089844-58.175781 38.972656-.699219.175781-1.414063.265625-2.136719.265625zm0 0" fill="#2c2f38"/><path d="m185.378906 464.296875h35.3125v26.484375c0 9.75-7.90625 17.65625-17.65625 17.65625s-17.65625-7.90625-17.65625-17.65625zm0 0" fill="#cb9080"/><path d="m291.308594 464.296875h35.3125v26.484375c0 9.75-7.90625 17.65625-17.65625 17.65625s-17.65625-7.90625-17.65625-17.65625zm0 0" fill="#cb9080"/><path d="m238.34375 261.265625c-2.0625 0-4.0625-.722656-5.648438-2.042969l-52.964843-44.136718c-3.75-3.125-4.253907-8.695313-1.128907-12.445313s8.695313-4.257813 12.445313-1.128906l52.964844 44.136719c2.863281 2.378906 3.925781 6.300781 2.65625 9.800781s-4.601563 5.824219-8.324219 5.816406zm0 0" fill="#2c2f38"/><path d="m273.65625 261.265625c-3.722656.007813-7.054688-2.316406-8.324219-5.816406s-.207031-7.421875 2.65625-9.800781l52.964844-44.136719c3.75-3.128907 9.320313-2.621094 12.445313 1.128906s2.621093 9.320313-1.128907 12.445313l-52.964843 44.136718c-1.585938 1.320313-3.585938 2.042969-5.648438 2.042969zm0 0" fill="#2c2f38"/></svg>