<svg height="512pt" viewBox="-31 0 512 512.00349" width="512pt" xmlns="http://www.w3.org/2000/svg"><path d="m442.558594 190.921875c.039062 10.070313-4.335938 19.648437-11.976563 26.207031-3.632812-5.601562-8.078125-10.628906-13.1875-14.925781-18.832031-15.359375-37.578125-9.542969-58.316406-3.554687-23.519531-55.972657-74.457031-94.679688-133.46875-94.679688s-109.949219 38.707031-133.464844 94.679688c-20.742187-5.988282-39.488281-11.804688-58.316406 3.554687-5.113281 4.296875-9.558594 9.324219-13.191406 14.925781-9.902344-8.574218-14.125-22.003906-10.914063-34.703125 3.210938-12.703125 13.308594-22.507812 26.101563-25.347656-15.550781-10.851563-22.25-30.546875-16.546875-48.628906 5.703125-18.085938 22.488281-30.371094 41.449218-30.339844 6.269532-.027344 12.464844 1.335937 18.140626 3.992187-.527344-2.746093-.789063-5.535156-.78125-8.332031 0-12.65625 5.027343-24.796875 13.976562-33.75 8.953125-8.949219 21.09375-13.976562 33.75-13.976562 12.023438-.042969 23.605469 4.523437 32.371094 12.753906 5.816406-17.941406 22.527344-30.097656 41.390625-30.109375 9.394531-.039062 18.542969 3.011719 26.035156 8.675781 7.492187-5.664062 16.640625-8.714843 26.035156-8.675781 18.863281.011719 35.574219 12.167969 41.394531 30.109375 8.761719-8.230469 20.34375-12.796875 32.367188-12.753906 26.359375 0 47.730469 21.367187 47.730469 47.726562.003906 2.796875-.257813 5.585938-.78125 8.332031 5.675781-2.65625 11.867187-4.019531 18.136719-3.992187 18.960937-.03125 35.746093 12.253906 41.449218 30.339844 5.703125 18.082031-.996094 37.777343-16.542968 48.628906 15.859374 3.535156 27.144531 17.597656 27.160156 33.84375zm0 0" fill="#894b9d"/><path d="m430.9375 154.164062c13.757812-16.808593 15.585938-40.410156 4.582031-59.136718-11.003906-18.726563-32.507812-28.617188-53.886719-24.78125-1.191406-19.671875-12.582031-37.285156-30.035156-46.441406-17.449218-9.15625-38.421875-8.511719-55.28125 1.691406-9.339844-15.796875-26.324218-25.4843752-44.671875-25.4882815-9.152343-.00390625-18.140625 2.4374995-26.035156 7.0742185-24.632813-14.390625-56.265625-6.15625-70.75 18.421875-16.859375-10.207031-37.828125-10.855468-55.28125-1.699218-17.453125 9.152343-28.847656 26.769531-30.03125 46.441406-2.914063-.515625-5.863281-.789063-8.820313-.8125-20.0625-.035156-38.359374 11.484375-47 29.59375-8.640624 18.109375-6.085937 39.578125 6.5625 55.152344-11.636718 7.320312-19.117187 19.722656-20.160156 33.429687-1.046875 13.707031 4.464844 27.101563 14.859375 36.097656 2.328125 2.191407 5.671875 2.925781 8.703125 1.910157 3.03125-1.011719 5.257813-3.613282 5.796875-6.765626.539063-3.148437-.699219-6.34375-3.21875-8.308593-7.410156-6.476563-10.535156-16.582031-8.074219-26.109375 2.460938-9.53125 10.089844-16.859375 19.710938-18.9375 3.558594-.789063 7.246094-.789063 10.804688 0 3.046874.71875 6.246093-.257813 8.367187-2.558594 2.125-2.300781 2.84375-5.570312 1.882813-8.550781-.960938-2.980469-3.453126-5.210938-6.519532-5.835938-4.6875-1.03125-9.511718-1.269531-14.277344-.714843-11.007812-9.453126-14.976562-24.757813-9.945312-38.371094 5.027344-13.609375 17.996094-22.65625 32.507812-22.675782 5.015626-.023437 9.96875 1.070313 14.511719 3.191407 5.226563 2.425781 9.78125 6.097656 13.257813 10.691406 3.546875 4.652344 5.800781 10.15625 6.527344 15.960937.121093 3.097657 1.890624 5.898438 4.636718 7.34375 2.746094 1.441407 6.054688 1.3125 8.675782-.34375 2.625-1.65625 4.167968-4.585937 4.042968-7.6875.003906-.328124-.019531-.65625-.058594-.980468-1.0625-8.972656-4.488281-17.5-9.9375-24.707032-4.171874-5.476562-9.378906-10.085937-15.324218-13.5625-.105469-1.007812-.296875-1.933593-.296875-2.925781.023437-21.554687 17.492187-39.027343 39.050781-39.050781 9.867188-.019531 19.367188 3.734375 26.546875 10.5 5.347656 4.863281 9.1875 11.160156 11.0625 18.136719 1.246094 4.632812 6.011719 7.375 10.640625 6.128906s7.371094-6.011719 6.125-10.640625c-2.214844-8.132812-6.273438-15.644531-11.851562-21.964844 7.058593-14.570312 23.253906-22.328125 39.035156-18.695312 15.777344 3.636718 26.945312 17.699218 26.917968 33.890625 0 4.792969 3.882813 8.679687 8.675782 8.679687 4.792968 0 8.679687-3.886718 8.679687-8.679687.003907-11.910157-4.09375-23.460938-11.601562-32.707031 16.65625-5.921876 35.105469 1.625 42.839843 17.523437-5.578124 6.3125-9.636718 13.824219-11.851562 21.953125-.808594 2.996094.046875 6.191406 2.238281 8.390625 2.1875 2.195313 5.382813 3.054687 8.382813 2.253906 2.996094-.796875 5.335937-3.136719 6.144531-6.132812 1.894531-7.019531 5.777344-13.347657 11.175781-18.222657 7.160156-6.71875 16.617188-10.441406 26.433594-10.414062 21.558594.023438 39.027344 17.496094 39.050781 39.050781 0 .992188-.191406 1.929688-.269531 2.890625-5.957031 3.488282-11.171875 8.105469-15.351562 13.597656-5.441407 7.207032-8.867188 15.738282-9.917969 24.707032-.042969.324218-.0625.652344-.0625.980468v.085938c-.222657 4.792969 3.484375 8.859375 8.277343 9.082031 4.792969.222657 8.859376-3.480469 9.082032-8.273437.683594-5.875 2.929687-11.457032 6.507812-16.167969 3.496094-4.625 8.082032-8.320313 13.34375-10.75 4.519532-2.09375 9.445313-3.164063 14.425782-3.132813 14.515624.015626 27.488281 9.0625 32.519531 22.679688 5.035156 13.617188 1.058593 28.925781-9.957031 38.378906-4.769532-.589844-9.605469-.363281-14.300782.667969-3.070312.625-5.5625 2.859375-6.523437 5.835937-.957031 2.980469-.238281 6.25 1.882812 8.550782 2.125 2.300781 5.324219 3.277344 8.371094 2.558594 3.621094-.816407 7.378906-.789063 10.984375.078124 9.570312 2.148438 17.121094 9.488282 19.535156 18.992188 2.417969 9.503906-.710937 19.558594-8.097656 26.011719-2.519531 1.964843-3.757812 5.160156-3.21875 8.308593.539062 3.152344 2.765625 5.753907 5.796875 6.765626 3.03125 1.015624 6.378906.28125 8.703125-1.910157 10.402344-8.996093 15.921875-22.390625 14.875-36.105469-1.042969-13.710937-8.523438-26.117187-20.167969-33.4375zm0 0" fill="#3d324c"/><path d="m362.636719 329.683594c8.675781-.085938 22.472656-.261719 23.515625-.261719 31.152344 0 56.40625-31.066406 56.40625-69.421875v-2.082031c-.023438-21.320313-9.1875-41.601563-25.164063-55.714844-18.832031-15.359375-37.578125-9.542969-58.316406-3.554687h-266.933594c-20.742187-5.988282-39.488281-11.804688-58.316406 3.554687-15.980469 14.113281-25.144531 34.394531-25.167969 55.714844v2.082031c0 38.355469 25.253906 69.421875 56.40625 69.421875 1.042969 0 14.839844.175781 23.519532.261719zm0 0" fill="#f09372"/><path d="m369.492188 468.269531c-26.644532 30.808594-71.855469 44.953125-111.6875 43.652344-10.984376-.359375-21.832032-2.527344-32.109376-6.421875h-.085937c-10.304687 3.902344-21.183594 6.074219-32.195313 6.421875-39.832031 1.300781-84.957031-12.84375-111.683593-43.652344-36.1875-42-20.046875-95.28125 7.636719-136.503906h-.089844c-7.445313-20.136719-11.238282-41.441406-11.191406-62.914063 0-91.03125 66.039062-164.882812 147.523437-164.882812 81.488281 0 147.527344 73.851562 147.527344 164.882812.042969 21.472657-3.746094 42.777344-11.195313 62.914063 27.683594 41.222656 43.824219 94.503906 7.550782 136.503906zm0 0" fill="#d1d4d1"/><path d="m286.355469 349.105469c60.746093 0 60.746093 52.066406 60.746093 52.066406s0 69.425781-121.492187 69.425781-121.492187-69.425781-121.492187-69.425781 0-52.066406 60.746093-52.066406zm0 0" fill="#e64c3c"/><path d="m260.320312 435.894531h-69.421874c-4.792969 0-8.679688-3.886719-8.679688-8.679687 0-4.792969 3.886719-8.675782 8.679688-8.675782h69.421874c4.792969 0 8.679688 3.882813 8.679688 8.675782 0 4.792968-3.886719 8.679687-8.679688 8.679687zm0 0" fill="#802d40"/><path d="m43.617188 277.398438c-1.785157.003906-3.527344-.550782-4.984376-1.585938-3.910156-2.757812-4.851562-8.164062-2.097656-12.082031 3.210938-4.867188 3.210938-11.183594 0-16.054688-1.90625-2.527343-2.285156-5.898437-.980468-8.785156 1.300781-2.886719 4.070312-4.839844 7.230468-5.085937 3.15625-.25 6.199219 1.242187 7.9375 3.894531 7.527344 10.824219 7.527344 25.1875 0 36.011719-1.625 2.3125-4.277344 3.691406-7.105468 3.6875zm0 0" fill="#804537"/><path d="m407.605469 277.398438c-2.828125.003906-5.480469-1.375-7.109375-3.6875-7.527344-10.824219-7.527344-25.1875 0-36.011719 2.789062-3.785157 8.085937-4.660157 11.941406-1.976563 3.859375 2.6875 4.878906 7.957032 2.300781 11.886719-3.269531 4.871094-3.292969 11.230469-.054687 16.121094 1.863281 2.648437 2.09375 6.109375.605468 8.984375-1.488281 2.871094-4.449218 4.675781-7.683593 4.683594zm0 0" fill="#804537"/><path d="m201.050781 207.238281c9.839844 22.117188 9.585938 47.417969-.695312 69.335938l-26.207031 22.910156c-1.625.34375-3.28125.519531-4.945313.519531-21.609375 0-39.050781-26.378906-39.050781-58.835937-.808594-18.636719 5.988281-36.800781 18.832031-50.332031" fill="#fff"/><path d="m182.21875 260.347656c-2.902344.027344-5.625-1.410156-7.234375-3.824218-1.609375-2.417969-1.890625-5.484376-.75-8.152344.789063-2.179688 2.507813-3.898438 4.6875-4.6875 3.230469-1.355469 6.964844-.636719 9.460937 1.824218.765626.84375 1.378907 1.8125 1.820313 2.863282.445313 1.042968.679687 2.164062.695313 3.296875.003906 2.304687-.902344 4.519531-2.515626 6.164062-1.636718 1.628907-3.855468 2.535157-6.164062 2.515625zm0 0" fill="#2c3e50"/><path d="m302.234375 190.835938c12.84375 13.53125 19.640625 31.695312 18.832031 50.332031 0 32.457031-17.441406 58.835937-39.050781 58.835937-1.660156 0-3.320313-.175781-4.945313-.519531l-26.207031-22.910156c-5.367187-11.019531-8.074219-23.148438-7.898437-35.40625-.132813-11.703125 2.328125-23.289063 7.203125-33.929688" fill="#fff"/><path d="m269 260.347656c2.902344.027344 5.625-1.410156 7.234375-3.824218 1.613281-2.417969 1.894531-5.484376.75-8.152344-.789063-2.179688-2.507813-3.898438-4.6875-4.6875-3.230469-1.355469-6.964844-.636719-9.457031 1.824218-.765625.84375-1.382813 1.8125-1.824219 2.863282-.445313 1.042968-.679687 2.164062-.695313 3.296875 0 2.304687.902344 4.519531 2.519532 6.164062 1.632812 1.628907 3.851562 2.535157 6.160156 2.515625zm0 0" fill="#2c3e50"/><path d="m192.269531 216.863281c-30.730469 0-58.378906-27.285156-59.574219-28.484375-3.292968-3.402344-3.25-8.8125.097657-12.164062 3.34375-3.347656 8.757812-3.398438 12.164062-.113282.25.242188 25.164063 24.699219 49.210938 23.351563 9.894531-.734375 18.941406-5.851563 24.664062-13.953125 2.996094-3.742188 8.457031-4.347656 12.203125-1.355469 3.742188 2.996094 4.347656 8.460938 1.351563 12.203125-8.804688 11.992188-22.46875 19.472656-37.316407 20.4375-.929687.050782-1.863281.078125-2.800781.078125zm0 0" fill="#556080"/><path d="m258.949219 216.863281c-.9375 0-1.875-.027343-2.808594-.078125-14.847656-.964844-28.511719-8.445312-37.316406-20.4375-2.996094-3.742187-2.390625-9.207031 1.351562-12.203125 3.746094-2.992187 9.207031-2.386719 12.203125 1.355469 5.722656 8.101562 14.769532 13.21875 24.664063 13.953125 24.097656 1.378906 48.960937-23.109375 49.210937-23.351563 3.40625-3.285156 8.820313-3.234374 12.164063.113282 3.347656 3.351562 3.390625 8.761718.097656 12.164062-1.1875 1.199219-28.835937 28.484375-59.566406 28.484375zm0 0" fill="#556080"/><path d="m286.355469 331.75c0 33.546875-27.195313 60.746094-60.746094 60.746094-33.546875 0-60.746094-27.199219-60.746094-60.746094 0-33.550781 27.199219-60.746094 60.746094-60.746094 33.550781 0 60.746094 27.195313 60.746094 60.746094zm0 0" fill="#802d40"/><path d="m199.574219 331.757812c-4.792969 0-8.675781-3.886718-8.675781-8.675781 0-14.378906 11.65625-26.035156 26.035156-26.035156 4.789062 0 8.675781 3.882813 8.675781 8.675781 0 4.792969-3.886719 8.679688-8.675781 8.679688-4.792969 0-8.679688 3.886718-8.679688 8.679687 0 4.789063-3.886718 8.675781-8.679687 8.675781zm0 0" fill="#fb7b76"/></svg>