<svg height="512pt" viewBox="0 0 512 511" width="512pt" xmlns="http://www.w3.org/2000/svg"><path d="m229.515625 79.03125c-.5625-16.152344-11.132813-30.246094-26.480469-35.308594 2.253906-4.765625 6.359375-8.398437 11.355469-10.066406 5-1.667969 10.464844-1.21875 15.125 1.238281 0 0 8.828125-44.140625 52.96875-26.484375 0 0-8.828125 26.484375 0 35.3125 12.011719-10.746094 28.914063-14.125 44.136719-8.828125 0 0-26.484375 26.480469-17.65625 44.136719" fill="#2c3e50"/><path d="m176.550781 96.6875s-17.019531-76.605469-143.007812-96.089844c-4.207031-.628906-8.277344 1.808594-9.707031 5.816406-9.625 26.863282-39.152344 126.675782 29.128906 187.375" fill="#2c3e50"/><path d="m344.277344 96.6875s17.019531-76.605469 143.003906-96.089844c4.210938-.628906 8.277344 1.808594 9.710938 5.816406 9.621093 26.863282 39.152343 126.675782-29.128907 187.375" fill="#2c3e50"/><path d="m142.125 104.347656.203125.832032c-.558594-1.996094-12.695313-42.753907-82.40625-62.800782-2.378906-.746094-4.964844-.449218-7.113281.816406-2.148438 1.265626-3.664063 3.378907-4.167969 5.820313-6.949219 34.253906-9.09375 85.628906 27.78125 118.371094" fill="#ff5364"/><path d="m378.746094 104.347656-.203125.832032c.558593-1.996094 12.695312-42.753907 82.40625-62.800782 2.375-.730468 4.945312-.425781 7.085937.835938 2.140625 1.265625 3.644532 3.371094 4.152344 5.800781 6.949219 34.253906 9.09375 85.628906-27.78125 118.371094" fill="#ff5364"/><path d="m168.429688 77.707031c18.367187-7.054687 37.511718-11.882812 57.027343-14.390625l82.097657 3.621094c14.804687 3.234375 29.28125 7.816406 43.253906 13.683594l124.203125 106.195312c23.480469 37.605469 36.988281 34.867188 36.988281 77.59375 0 124.292969-114.582031 247.171875-256 247.171875s-256-122.878906-256-247.171875c0-44.84375 14.917969-44.3125 40.605469-83.242187zm0 0" fill="#2c3e50"/><path d="m197.253906 71.15625c10.550782-3.5625 21.398438-6.183594 32.414063-7.839844l70.769531 3.621094c7.214844 1.835938 14.320312 4.082031 21.273438 6.734375 10.003906 3.910156 19.082031 9.867187 26.652343 17.488281l87.921875 87.207032c5.332032 5.34375 9.984375 11.328124 13.851563 17.816406 16.941406 28.113281 26.554687 29.386718 26.554687 68.226562 0 124.292969-98.78125 247.171875-220.691406 247.171875s-220.691406-122.878906-220.691406-247.171875c0-40.835937 10.664062-44.050781 29.300781-73.691406 4.097656-6.589844 9.019531-12.621094 14.652344-17.957031l90.042969-84.558594c7.988281-7.617187 17.519531-13.433594 27.949218-17.046875zm0 0" fill="#35495e"/><path d="m194.207031 423.308594 22.695313 37.824218c.796875 1.332032 2.234375 2.148438 3.789062 2.148438 1.550782 0 2.988282-.816406 3.785156-2.148438l22.695313-37.824218" fill="#ecf0f1"/><path d="m141.242188 352.6875c0 4.875-3.953126 8.828125-8.828126 8.828125s-8.828124-3.953125-8.828124-8.828125 3.953124-8.828125 8.828124-8.828125 8.828126 3.953125 8.828126 8.828125zm0 0" fill="#2c3e50"/><path d="m105.929688 379.167969c0 4.875-3.949219 8.828125-8.828126 8.828125-4.875 0-8.824218-3.953125-8.824218-8.828125s3.949218-8.828125 8.824218-8.828125c4.878907 0 8.828126 3.953125 8.828126 8.828125zm0 0" fill="#35495e"/><g fill="#2c3e50"><path d="m150.070312 387.996094c0 4.875-3.953124 8.828125-8.828124 8.828125s-8.828126-3.953125-8.828126-8.828125 3.953126-8.828125 8.828126-8.828125 8.828124 3.953125 8.828124 8.828125zm0 0"/><path d="m388.414062 352.6875c0 4.875-3.953124 8.828125-8.828124 8.828125s-8.828126-3.953125-8.828126-8.828125 3.953126-8.828125 8.828126-8.828125 8.828124 3.953125 8.828124 8.828125zm0 0"/><path d="m423.722656 379.167969c0 4.875-3.949218 8.828125-8.824218 8.828125-4.878907 0-8.828126-3.953125-8.828126-8.828125s3.949219-8.828125 8.828126-8.828125c4.875 0 8.824218 3.953125 8.824218 8.828125zm0 0"/><path d="m105.929688 379.167969c0 4.875-3.949219 8.828125-8.828126 8.828125-4.875 0-8.824218-3.953125-8.824218-8.828125s3.949218-8.828125 8.824218-8.828125c4.878907 0 8.828126 3.953125 8.828126 8.828125zm0 0"/><path d="m379.585938 387.996094c0 4.875-3.953126 8.828125-8.828126 8.828125s-8.828124-3.953125-8.828124-8.828125 3.953124-8.828125 8.828124-8.828125 8.828126 3.953125 8.828126 8.828125zm0 0"/><path d="m167.804688 308.546875c-3.777344 0-7.550782-.296875-11.28125-.882813-3.347657-.40625-6.65625-1.082031-9.898438-2.019531-20.300781-5.574219-37.550781-18.996093-47.949219-37.300781-10.394531-18.308594-13.082031-39.996094-7.46875-60.289062 1.777344-6.660157 4.449219-13.046876 7.945313-18.988282l8.828125-15.007812 15.148437 8.679687c13.164063 7.375 27.070313 13.347657 41.488282 17.8125 3.378906 1.09375 6.707031 2.066407 10.046874 2.96875 2.171876.597657 4.140626 1.101563 6.097657 1.578125 16.03125 4.128906 32.472656 6.445313 49.019531 6.914063l17.390625.316406v17.355469c-.105469 39.34375-29.117187 72.628906-68.078125 78.105468-3.742188.511719-7.515625.765626-11.289062.757813zm0 0"/></g><path d="m229.515625 229.628906c-.09375 30.582032-22.671875 56.4375-52.964844 60.644532-5.855469.855468-11.804687.824218-17.652343-.085938-2.511719-.289062-4.992188-.789062-7.417969-1.5-15.824219-4.296875-29.289063-14.71875-37.40625-28.96875-8.117188-14.25-10.222657-31.144531-5.847657-46.949219 1.382813-5.171875 3.460938-10.128906 6.179688-14.742187 14.25 8.011718 29.3125 14.492187 44.933594 19.332031 3.527344 1.148437 7.148437 2.207031 10.769531 3.179687 2.207031.617188 4.324219 1.144532 6.441406 1.675782 17.324219 4.449218 35.089844 6.933594 52.964844 7.414062zm0 0" fill="#f0c419"/><path d="m344.425781 308.546875c-3.8125-.003906-7.621093-.269531-11.394531-.792969-31.296875-4.535156-56.941406-27.171875-65.324219-57.660156-1.898437-6.65625-2.867187-13.539062-2.878906-20.457031v-17.363281l17.355469-.289063c16.535156-.46875 32.964844-2.78125 48.984375-6.902344 1.992187-.488281 3.960937-.992187 6-1.546875 3.472656-.945312 6.800781-1.914062 10.046875-2.964844 14.457031-4.480468 28.402344-10.464843 41.605468-17.859374l14.917969-8.554688 8.941407 14.699219c3.585937 5.964843 6.332031 12.390625 8.167968 19.101562 5.613282 20.339844 2.902344 42.078125-7.53125 60.417969-10.429687 18.34375-27.730468 31.777344-48.082031 37.347656-3.171875.886719-6.398437 1.5625-9.660156 2.023438-3.691407.539062-7.417969.808594-11.148438.800781zm0 0" fill="#2c3e50"/><path d="m360.605469 288.6875c-2.460938.695312-4.96875 1.226562-7.503907 1.585938-30.847656 4.449218-60.179687-14.777344-68.410156-44.84375-1.464844-5.136719-2.207031-10.457032-2.207031-15.800782 17.875-.472656 35.644531-2.960937 52.964844-7.414062 2.117187-.53125 4.234375-1.058594 6.441406-1.675782 3.621094-.972656 7.242187-2.03125 10.769531-3.179687 15.621094-4.839844 30.683594-11.320313 44.933594-19.332031 2.746094 4.609375 4.855469 9.566406 6.269531 14.742187 9.011719 32.90625-10.351562 66.894531-43.257812 75.917969zm0 0" fill="#f0c419"/><path d="m176.550781 222.214844v68.058594c-5.855469.855468-11.804687.824218-17.652343-.085938v-70.355469c-.035157-.847656.117187-1.691406.441406-2.472656 3.527344 1.148437 7.148437 2.207031 10.769531 3.179687 2.207031.617188 4.324219 1.144532 6.441406 1.675782zm0 0" fill="#e57e25"/><path d="m353.101562 219.832031v70.441407c-5.851562.839843-11.796874.839843-17.652343 0v-68.058594c2.117187-.53125 4.234375-1.058594 6.441406-1.675782 3.621094-.972656 7.242187-2.03125 10.769531-3.179687.324219.78125.476563 1.625.441406 2.472656zm0 0" fill="#e57e25"/><path d="m264.828125 423.308594 22.695313 37.824218c.796874 1.332032 2.234374 2.148438 3.785156 2.148438 1.554687 0 2.992187-.816406 3.789062-2.148438l22.695313-37.824218" fill="#ecf0f1"/><path d="m256 432.132812h-70.621094c-4.875 0-8.828125-3.949218-8.828125-8.824218s3.953125-8.828125 8.828125-8.828125h61.792969v-44.140625c0-4.875 3.953125-8.824219 8.828125-8.824219s8.828125 3.949219 8.828125 8.824219v52.96875c0 4.875-3.953125 8.824218-8.828125 8.824218zm0 0" fill="#2c2f38"/><path d="m326.621094 432.132812h-70.621094c-4.875 0-8.828125-3.949218-8.828125-8.824218v-52.96875c0-4.875 3.953125-8.824219 8.828125-8.824219s8.828125 3.949219 8.828125 8.824219v44.140625h61.792969c4.875 0 8.828125 3.953125 8.828125 8.828125s-3.953125 8.824218-8.828125 8.824218zm0 0" fill="#2c2f38"/><path d="m300.136719 335.03125c0 14.628906-19.765625 35.308594-44.136719 35.308594s-44.136719-20.679688-44.136719-35.308594 19.765625-17.65625 44.136719-17.65625 44.136719 3.027344 44.136719 17.65625zm0 0" fill="#ff5364"/><path d="m264.828125 335.03125c0-4.875-9.882813-8.828125-22.070313-8.828125s-22.066406 3.953125-22.066406 8.828125 9.878906 8.828125 22.066406 8.828125 22.070313-3.953125 22.070313-8.828125zm0 0" fill="#fb7b76"/></svg>