<svg height="512pt" viewBox="0 0 512 512" width="512pt" xmlns="http://www.w3.org/2000/svg"><path d="m335.410156 396.003906v23.304688c0 12.191406-9.878906 22.070312-22.066406 22.070312h-132.414062c-5.855469 0-11.46875-2.324218-15.605469-6.464844-4.140625-4.136718-6.464844-9.75-6.464844-15.605468v-27.1875zm0 0" fill="#bdc3c7"/><path d="m317.757812 397.242188c68.253907 0 123.585938-55.332032 123.585938-123.585938v-50.40625l-.796875-54.464844c-8.570313-95.550781-88.648437-168.7656248-184.582031-168.7656248-95.9375 0-176.011719 73.2148438-184.585938 168.7656248l-.792968 54.464844v50.40625c0 68.253906 55.328124 123.585938 123.585937 123.585938zm0 0" fill="#bdc3c7"/><path d="m308.929688 397.242188c58.492187 0 105.929687-55.351563 105.929687-123.585938v-50.40625l-.679687-54.464844c-2.753907-42.0625-18.8125-82.160156-45.851563-114.496094-27.621094-33.773437-68.738281-53.636718-112.363281-54.289062-82.980469 0-151.101563 74.152344-158.21875 168.785156l-.679688 54.464844v50.40625c0 68.234375 47.441406 123.585938 105.933594 123.585938zm0 0" fill="#e6e7e8"/><g fill="#bdc3c7"><path d="m194.171875 441.378906s-7.867187 55.746094 61.792969 44.136719c105.929687-17.652344 105.929687 26.484375 105.929687 26.484375 35.308594-17.65625 35.308594-52.964844 8.828125-61.792969-20.144531-5.53125-40.90625-8.496093-61.792968-8.828125"/><path d="m88.238281 238.34375-85.316406-72.871094c-2.9335938-2.640625-3.757813-6.90625-2.019531-10.449218 1.742187-3.542969 5.621094-5.5 9.503906-4.796876l86.660156 26.324219"/><path d="m423.6875 238.34375 85.320312-72.871094c2.929688-2.640625 3.753907-6.90625 2.015626-10.449218-1.738282-3.542969-5.621094-5.5-9.503907-4.796876l-86.660156 26.324219"/><path d="m185.34375 220.691406c-27.285156-.011718-51.335938-17.914062-59.171875-44.046875-7.835937-26.136719 2.398437-54.316406 25.175781-69.335937l4.574219-3.027344 91.390625 53.371094-.371094 5.464844c-2.265625 32.371093-29.148437 57.496093-61.597656 57.574218zm0 0"/></g><path d="m238.132812 162.515625c-1.679687 24.816406-20.398437 45.121094-45 48.808594-24.597656 3.683593-48.449218-10.246094-57.324218-33.480469-8.875-23.238281-.386719-49.519531 20.402344-63.171875l30.542968 17.832031 21.011719 12.269532zm0 0" fill="#fdd7ad"/><path d="m211.824219 158.898438c0 10.710937-6.449219 20.367187-16.347657 24.464843-9.894531 4.097657-21.285156 1.832031-28.859374-5.742187-7.574219-7.574219-9.839844-18.964844-5.742188-28.859375 4.101562-9.894531 13.757812-16.347657 24.46875-16.347657.472656-.015624.945312.015626 1.410156.089844l21.011719 12.269532c2.636719 4.238281 4.042969 9.128906 4.058594 14.125zm0 0" fill="#2c3e50"/><path d="m194.171875 158.898438c0 4.875-3.953125 8.824218-8.828125 8.824218s-8.828125-3.949218-8.828125-8.824218c0-4.878907 3.953125-8.828126 8.828125-8.828126s8.828125 3.949219 8.828125 8.828126zm0 0" fill="#fff"/><path d="m317.757812 291.308594c0 34.128906-27.667968 61.792968-61.792968 61.792968-34.128906 0-61.792969-27.664062-61.792969-61.792968 0-34.125 27.664063-61.792969 61.792969-61.792969 34.125 0 61.792968 27.667969 61.792968 61.792969zm0 0" fill="#bdc3c7"/><path d="m308.929688 291.308594c0 29.253906-23.714844 52.96875-52.964844 52.96875-29.253906 0-52.964844-23.714844-52.964844-52.96875 0-29.25 23.710938-52.964844 52.964844-52.964844 29.25 0 52.964844 23.714844 52.964844 52.964844zm0 0" fill="#2c3e50"/><path d="m326.40625 220.691406c-32.457031-.070312-59.347656-25.199218-61.613281-57.574218l-.371094-5.464844 91.382813-53.371094 4.582031 3.027344c22.773437 15.015625 33.007812 43.191406 25.175781 69.328125-7.832031 26.132812-31.875 44.035156-59.15625 44.054687zm0 0" fill="#bdc3c7"/><path d="m273.617188 162.515625c1.679687 24.816406 20.402343 45.121094 45 48.808594 24.601562 3.683593 48.449218-10.246094 57.324218-33.480469 8.875-23.238281.386719-49.519531-20.402344-63.171875l-30.542968 17.832031-21.011719 12.269532zm0 0" fill="#fdd7ad"/><path d="m299.925781 158.898438c0 14.625 11.855469 26.480468 26.480469 26.480468 14.628906 0 26.484375-11.855468 26.484375-26.480468 0-14.628907-11.855469-26.484376-26.484375-26.484376-.472656-.015624-.945312.015626-1.410156.089844l-21.011719 12.269532c-2.636719 4.238281-4.042969 9.128906-4.058594 14.125zm0 0" fill="#2c3e50"/><path d="m335.234375 158.898438c0 4.875-3.953125 8.824218-8.828125 8.824218s-8.824219-3.949218-8.824219-8.824218c0-4.878907 3.949219-8.828126 8.824219-8.828126s8.828125 3.949219 8.828125 8.828126zm0 0" fill="#fff"/></svg>