<svg height="512pt" viewBox="0 0 512 512" width="512pt" xmlns="http://www.w3.org/2000/svg"><path d="m335.410156 396.003906v23.304688c0 12.191406-9.878906 22.070312-22.066406 22.070312h-132.414062c-5.855469 0-11.46875-2.324218-15.605469-6.464844-4.140625-4.136718-6.464844-9.75-6.464844-15.605468v-27.1875zm0 0" fill="#7d6599"/><path d="m317.757812 397.242188c68.253907 0 123.585938-55.332032 123.585938-123.585938v-50.40625l-.796875-54.464844c-8.570313-95.550781-88.648437-168.7656248-184.582031-168.7656248-95.9375 0-176.011719 73.2148438-184.585938 168.7656248l-.792968 54.464844v50.40625c0 68.253906 55.328124 123.585938 123.585937 123.585938zm0 0" fill="#7d6599"/><path d="m308.929688 397.242188c58.492187 0 105.929687-55.351563 105.929687-123.585938v-50.40625l-.679687-54.464844c-2.753907-42.0625-18.8125-82.160156-45.851563-114.496094-27.621094-33.773437-68.738281-53.636718-112.363281-54.289062-82.980469 0-151.101563 74.152344-158.21875 168.785156l-.679688 54.464844v50.40625c0 68.234375 47.441406 123.585938 105.933594 123.585938zm0 0" fill="#b49aca"/><g fill="#7d6599"><path d="m194.171875 441.378906s-7.867187 55.746094 61.792969 44.136719c105.929687-17.652344 105.929687 26.484375 105.929687 26.484375 35.308594-17.65625 35.308594-52.964844 8.828125-61.792969-20.144531-5.53125-40.90625-8.496093-61.792968-8.828125"/><path d="m88.238281 238.34375-85.316406-72.871094c-2.9335938-2.640625-3.757813-6.90625-2.019531-10.449218 1.742187-3.542969 5.621094-5.5 9.503906-4.796876l86.660156 26.324219"/><path d="m423.6875 238.34375 85.320312-72.871094c2.929688-2.640625 3.753907-6.90625 2.015626-10.449218-1.738282-3.542969-5.621094-5.5-9.503907-4.796876l-86.660156 26.324219"/><path d="m255.964844 379.585938c-43.859375-.046876-79.402344-35.589844-79.449219-79.449219v-26.480469c0-9.75 7.902344-17.65625 17.65625-17.65625h123.585937c9.75 0 17.652344 7.90625 17.652344 17.65625v26.480469c-.046875 43.859375-35.589844 79.402343-79.445312 79.449219zm0 0"/></g><path d="m194.171875 264.828125h123.585937c4.875 0 8.828126 3.953125 8.828126 8.828125v26.480469c0 39.003906-31.621094 70.621093-70.621094 70.621093-39.003906 0-70.621094-31.617187-70.621094-70.621093v-26.480469c0-4.875 3.953125-8.828125 8.828125-8.828125zm0 0" fill="#2c3e50"/><path d="m185.34375 238.34375c-34.109375-.042969-61.75-27.683594-61.792969-61.792969-.035156-11.523437 3.210938-22.824219 9.355469-32.574219v-.085937l1.546875-2.367187c11.527344-16.75 30.554687-26.761719 50.890625-26.765626 1.0625-.015624 2.128906.035157 3.1875.160157 28.976562 1.472656 53.019531 22.925781 57.773438 51.550781 4.753906 28.625-11.0625 56.699219-38.011719 67.460938-5.25 2.105468-10.761719 3.484374-16.382813 4.105468-2.152344.203125-4.332031.308594-6.566406.308594zm0 0" fill="#7d6599"/><path d="m238.308594 176.550781c-.0625 27.050781-20.429688 49.734375-47.316406 52.703125-1.851563.175782-3.707032.261719-5.648438.261719-29.253906 0-52.964844-23.710937-52.964844-52.964844-.03125-10.699219 3.238282-21.148437 9.355469-29.925781v-.085938c9.859375-14.375 26.175781-22.964843 43.609375-22.953124.707031-.015626 1.414062.015624 2.117188.089843 28.386718 1.136719 50.824218 24.464844 50.847656 52.875zm0 0" fill="#2c3e50"/><path d="m211.824219 211.863281c-.03125 5.347657-2.460938 10.402344-6.621094 13.769531l-.085937.089844h-.089844c-4.460938 1.8125-9.15625 3.003906-13.945313 3.53125h-.089843c-9.179688-1.683594-15.46875-10.21875-14.347657-19.484375 1.117188-9.269531 9.257813-16.0625 18.574219-15.507812 9.320312.554687 16.59375 8.265625 16.605469 17.601562zm0 0" fill="#fff"/><path d="m194.171875 141.242188c.058594 13.621093-10.226563 25.066406-23.777344 26.460937-13.554687 1.390625-25.949219-7.726563-28.660156-21.078125v-.085938c9.859375-14.375 26.175781-22.964843 43.609375-22.953124.707031-.015626 1.414062.015624 2.117188.089843 4.324218 4.828125 6.714843 11.082031 6.710937 17.566407zm0 0" fill="#fff"/><path d="m326.585938 238.34375c-34.109376-.042969-61.75-27.683594-61.792969-61.792969-.035157-11.523437 3.210937-22.824219 9.355469-32.574219v-.085937l1.542968-2.367187c11.527344-16.75 30.558594-26.761719 50.894532-26.765626 1.0625-.015624 2.128906.035157 3.183593.160157 28.980469 1.472656 53.023438 22.925781 57.777344 51.550781s-11.0625 56.699219-38.011719 67.460938c-5.25 2.105468-10.761718 3.484374-16.382812 4.105468-2.199219.203125-4.335938.308594-6.566406.308594zm0 0" fill="#7d6599"/><path d="m379.550781 176.550781c-.0625 27.050781-20.429687 49.734375-47.316406 52.703125-1.855469.175782-3.707031.261719-5.648437.261719-29.253907 0-52.96875-23.710937-52.96875-52.964844-.027344-10.699219 3.238281-21.148437 9.359374-29.925781v-.085938c9.859376-14.375 26.175782-22.964843 43.609376-22.953124.707031-.015626 1.414062.015624 2.117187.089843 28.386719 1.136719 50.820313 24.464844 50.847656 52.875zm0 0" fill="#2c3e50"/><path d="m353.066406 211.863281c-.03125 5.347657-2.460937 10.402344-6.621094 13.769531l-.085937.089844h-.089844c-4.464843 1.8125-9.15625 3.003906-13.945312 3.53125h-.089844c-9.183594-1.683594-15.46875-10.21875-14.351563-19.484375 1.121094-9.269531 9.261719-16.0625 18.578126-15.507812 9.316406.554687 16.59375 8.265625 16.605468 17.601562zm0 0" fill="#fff"/><path d="m335.410156 141.242188c.0625 13.621093-10.222656 25.066406-23.773437 26.460937-13.554688 1.390625-25.949219-7.726563-28.660157-21.078125v-.085938c9.859376-14.375 26.175782-22.964843 43.609376-22.953124.707031-.015626 1.414062.015624 2.117187.089843 4.324219 4.828125 6.714844 11.082031 6.707031 17.566407zm0 0" fill="#fff"/><path d="m312.902344 341.890625c-12.472656 17.023437-31.898438 27.574219-52.964844 28.769531-21.066406 1.199219-41.5625-7.089844-55.878906-22.589844v-.085937c2.910156-21.011719 13.503906-55.792969 51.90625-30.191406 0 0 41.136718-34.25 56.9375 24.097656zm0 0" fill="#df4d60"/></svg>