<svg height="512pt" viewBox="0 0 512 512" width="512pt" xmlns="http://www.w3.org/2000/svg"><path d="m335.410156 396.003906v23.304688c0 12.191406-9.878906 22.070312-22.066406 22.070312h-132.414062c-5.855469 0-11.46875-2.324218-15.605469-6.464844-4.140625-4.136718-6.464844-9.75-6.464844-15.605468v-27.1875zm0 0" fill="#7d6599"/><path d="m317.757812 397.242188c68.253907 0 123.585938-55.332032 123.585938-123.585938v-50.40625l-.796875-54.464844c-8.570313-95.550781-88.648437-168.7656248-184.582031-168.7656248-95.9375 0-176.011719 73.2148438-184.585938 168.7656248l-.792968 54.464844v50.40625c0 68.253906 55.328124 123.585938 123.585937 123.585938zm0 0" fill="#7d6599"/><path d="m308.929688 397.242188c58.492187 0 105.929687-55.351563 105.929687-123.585938v-50.40625l-.679687-54.464844c-2.753907-42.0625-18.8125-82.160156-45.851563-114.496094-27.621094-33.773437-68.738281-53.636718-112.363281-54.289062-82.980469 0-151.101563 74.152344-158.21875 168.785156l-.679688 54.464844v50.40625c0 68.234375 47.441406 123.585938 105.933594 123.585938zm0 0" fill="#b49aca"/><g fill="#7d6599"><path d="m194.171875 441.378906s-7.867187 55.746094 61.792969 44.136719c105.929687-17.652344 105.929687 26.484375 105.929687 26.484375 35.308594-17.65625 35.308594-52.964844 8.828125-61.792969-20.144531-5.53125-40.90625-8.496093-61.792968-8.828125"/><path d="m88.238281 158.898438-85.316406 72.871093c-2.9335938 2.640625-3.757813 6.90625-2.019531 10.449219 1.742187 3.542969 5.621094 5.5 9.503906 4.792969l86.660156-26.320313"/><path d="m423.6875 158.898438 85.320312 72.871093c2.929688 2.640625 3.753907 6.90625 2.015626 10.449219-1.738282 3.542969-5.621094 5.5-9.503907 4.792969l-86.660156-26.320313"/><path d="m194.171875 370.757812c-9.753906 0-17.65625-7.902343-17.65625-17.65625v-26.480468c0-43.878906 35.570313-79.449219 79.449219-79.449219 43.875 0 79.445312 35.570313 79.445312 79.449219v26.480468c0 9.753907-7.902344 17.65625-17.652344 17.65625zm0 0"/></g><path d="m255.964844 256c39 0 70.621094 31.617188 70.621094 70.621094v26.480468c0 4.878907-3.953126 8.828126-8.828126 8.828126h-123.585937c-4.875 0-8.828125-3.949219-8.828125-8.828126v-26.480468c0-39.003906 31.617188-70.621094 70.621094-70.621094zm0 0" fill="#3d324c"/><path d="m238.308594 132.414062v70.621094c0 9.75-7.90625 17.65625-17.65625 17.65625s-17.652344-7.90625-17.652344-17.65625v-20.746094h-35.3125v38.402344c0 9.75-7.902344 17.652344-17.65625 17.652344-9.75 0-17.652344-7.902344-17.652344-17.652344v-88.277344zm0 0" fill="#ff5364"/><path d="m273.617188 132.414062v70.621094c0 9.75 7.90625 17.65625 17.65625 17.65625s17.65625-7.90625 17.65625-17.65625v-20.746094h35.308593v38.402344c0 9.75 7.90625 17.652344 17.65625 17.652344s17.65625-7.902344 17.65625-17.652344v-88.277344zm0 0" fill="#ff5364"/><path d="m238.308594 132.414062c0 29.25-23.714844 52.964844-52.964844 52.964844-29.253906 0-52.964844-23.714844-52.964844-52.964844 0-29.253906 23.710938-52.964843 52.964844-52.964843 29.25 0 52.964844 23.710937 52.964844 52.964843zm0 0" fill="#2c3e50"/><path d="m379.550781 132.414062c0 29.25-23.714843 52.964844-52.964843 52.964844-29.253907 0-52.96875-23.714844-52.96875-52.964844 0-29.253906 23.714843-52.964843 52.96875-52.964843 29.25 0 52.964843 23.710937 52.964843 52.964843zm0 0" fill="#2c3e50"/></svg>