<svg height="512pt" viewBox="0 0 512 512" width="512pt" xmlns="http://www.w3.org/2000/svg"><path d="m335.410156 396.003906v23.304688c0 12.191406-9.878906 22.070312-22.066406 22.070312h-132.414062c-5.855469 0-11.46875-2.324218-15.605469-6.464844-4.140625-4.136718-6.464844-9.75-6.464844-15.605468v-27.1875zm0 0" fill="#7ed09e"/><path d="m317.757812 397.242188c68.253907 0 123.585938-55.332032 123.585938-123.585938v-50.40625l-.796875-54.464844c-8.570313-95.550781-88.648437-168.7656248-184.582031-168.7656248-95.9375 0-176.011719 73.2148438-184.585938 168.7656248l-.792968 54.464844v50.40625c0 68.253906 55.328124 123.585938 123.585937 123.585938zm0 0" fill="#7ed09e"/><path d="m308.929688 397.242188c58.492187 0 105.929687-55.351563 105.929687-123.585938v-50.40625l-.679687-54.464844c-2.753907-42.0625-18.8125-82.160156-45.851563-114.496094-27.621094-33.773437-68.738281-53.636718-112.363281-54.289062-82.980469 0-151.101563 74.152344-158.21875 168.785156l-.679688 54.464844v50.40625c0 68.234375 47.441406 123.585938 105.933594 123.585938zm0 0" fill="#bbd1b5"/><g fill="#7ed09e"><path d="m194.171875 441.378906s-7.867187 55.746094 61.792969 44.136719c105.929687-17.652344 105.929687 26.484375 105.929687 26.484375 35.308594-17.65625 35.308594-52.964844 8.828125-61.792969-20.144531-5.53125-40.90625-8.496093-61.792968-8.828125"/><path d="m88.238281 238.34375-85.316406-72.871094c-2.9335938-2.640625-3.757813-6.90625-2.019531-10.449218 1.742187-3.542969 5.621094-5.5 9.503906-4.796876l86.660156 26.324219"/><path d="m423.6875 238.34375 85.320312-72.871094c2.929688-2.640625 3.753907-6.90625 2.015626-10.449218-1.738282-3.542969-5.621094-5.5-9.503907-4.796876l-86.660156 26.324219"/><path d="m255.964844 388.414062c-29.414063 0-56.003906-21.980468-66.15625-54.679687-2.976563-9.441406-4.480469-19.28125-4.464844-29.183594 0-46.238281 31.679688-83.859375 70.621094-83.859375 38.9375 0 70.621094 37.621094 70.621094 83.859375.011718 9.921875-1.5 19.785157-4.484376 29.246094-10.136718 32.636719-36.722656 54.617187-66.136718 54.617187zm0 0"/></g><path d="m317.757812 304.550781c.007813 7.910157-1.335937 15.761719-3.972656 23.21875-7.675781 25.515625-31.175781 42.984375-57.820312 42.984375-26.648438 0-50.144532-17.46875-57.820313-42.984375-2.640625-7.457031-3.984375-15.308593-3.972656-23.21875-1.183594-35.332031 26.460937-64.949219 61.792969-66.207031 35.328125 1.257812 62.972656 30.875 61.792968 66.207031zm0 0" fill="#2c3e50"/><path d="m313.785156 327.769531c-7.675781 25.515625-31.175781 42.984375-57.820312 42.984375-26.648438 0-50.144532-17.46875-57.820313-42.984375 16.4375-12.917969 36.925781-19.582031 57.820313-18.804687 20.890625-.777344 41.378906 5.886718 57.820312 18.804687zm0 0" fill="#ff5364"/><path d="m225.351562 203.792969c-7.222656-4.105469-15.132812-6.859375-23.34375-8.128907-11-1.929687-22.25-1.929687-33.25 0-8.238281 1.269532-16.175781 4.03125-23.421874 8.148438l-7.28125 4.414062-4.671876-7.125c-6.46875-9.925781-9.886718-21.53125-9.832031-33.378906 0-34.125 27.664063-61.792968 61.792969-61.792968 34.125 0 61.792969 27.667968 61.792969 61.792968.050781 11.84375-3.367188 23.441406-9.835938 33.359375l-4.667969 7.125zm0 0" fill="#7ed09e"/><path d="m238.308594 167.722656c.054687 10.121094-2.863282 20.035156-8.386719 28.515625-8.15625-4.679687-17.101563-7.820312-26.394531-9.269531-12.03125-2.117188-24.339844-2.117188-36.371094 0-9.289062 1.449219-18.234375 4.589844-26.390625 9.269531-5.527344-8.480469-8.441406-18.394531-8.386719-28.515625 0-29.25 23.710938-52.964844 52.964844-52.964844 29.25 0 52.964844 23.714844 52.964844 52.964844zm0 0" fill="#fff"/><path d="m211.824219 167.722656c-.007813 7.28125-3.007813 14.242188-8.296875 19.246094-12.03125-2.117188-24.339844-2.117188-36.371094 0-8.78125-8.296875-10.835938-21.484375-4.996094-32.058594 5.84375-10.574218 18.101563-15.855468 29.800782-12.835937 11.695312 3.015625 19.867187 13.570312 19.863281 25.648437zm0 0" fill="#2c3e50"/><path d="m194.171875 167.722656c0 4.875-3.953125 8.828125-8.828125 8.828125s-8.828125-3.953125-8.828125-8.828125 3.953125-8.824218 8.828125-8.824218 8.828125 3.949218 8.828125 8.824218zm0 0" fill="#fff"/><path d="m366.589844 203.792969c-7.21875-4.105469-15.128906-6.859375-23.339844-8.128907-10.996094-1.929687-22.246094-1.929687-33.242188 0-8.242187 1.265626-16.179687 4.023438-23.429687 8.136719l-7.28125 4.414063-4.671875-7.113282c-6.46875-9.925781-9.886719-21.53125-9.832031-33.378906 0-34.125 27.664062-61.792968 61.792969-61.792968 34.125 0 61.792968 27.667968 61.792968 61.792968.050782 11.84375-3.367187 23.441406-9.835937 33.359375l-4.667969 7.125zm0 0" fill="#7ed09e"/><path d="m273.617188 167.722656c-.050782 10.121094 2.863281 20.035156 8.386718 28.515625 8.160156-4.679687 17.105469-7.820312 26.394532-9.269531 12.03125-2.117188 24.339843-2.117188 36.371093 0 9.289063 1.449219 18.238281 4.589844 26.394531 9.269531 5.523438-8.480469 8.441407-18.394531 8.386719-28.515625 0-29.25-23.714843-52.964844-52.964843-52.964844-29.253907 0-52.96875 23.714844-52.96875 52.964844zm0 0" fill="#fff"/><path d="m300.101562 167.722656c.007813 7.28125 3.007813 14.242188 8.296876 19.246094 12.03125-2.117188 24.339843-2.117188 36.371093 0 8.78125-8.296875 10.835938-21.484375 4.996094-32.058594-5.84375-10.574218-18.097656-15.855468-29.796875-12.835937-11.699219 3.015625-19.871094 13.570312-19.867188 25.648437zm0 0" fill="#2c3e50"/><path d="m335.410156 167.722656c0 4.875-3.949218 8.828125-8.824218 8.828125s-8.828126-3.953125-8.828126-8.828125 3.953126-8.824218 8.828126-8.824218 8.824218 3.949218 8.824218 8.824218zm0 0" fill="#fff"/></svg>