<svg id="Capa_1" enable-background="new 0 0 512 512" height="512" viewBox="0 0 512 512" width="512" xmlns="http://www.w3.org/2000/svg"><g><g><path d="m140.367 224.696c-1.23 0-2.461-.146-3.677-.454-5.098-1.289-9.155-5.171-10.679-10.195-4.028-13.315-8.892-26.924-13.813-40.693-18.926-53.042-38.496-108.886-20.42-163.1 2.036-6.123 7.764-10.254 14.224-10.254 70.4 0 128.203 53.822 134.458 123.856.396 4.438-1.201 8.833-4.38 11.982l-85.151 84.507c-2.842 2.828-6.651 4.351-10.562 4.351z" fill="#463f3f"/></g><g><path d="m367.696 238.671c-4.204 0-8.291-1.772-11.177-4.995l-81.636-91.187c-2.563-2.856-3.926-6.592-3.823-10.43 2.11-73.491 61.377-132.059 134.942-132.059 6.46 0 12.188 4.131 14.224 10.254 18.076 54.229-1.509 110.087-20.449 163.144-6.738 18.911-13.11 36.753-17.549 54.009-1.377 5.361-5.596 9.521-10.972 10.84-1.187.277-2.374.424-3.56.424z" fill="#352c2c"/></g><g><path d="m117.266 30.586c-8.965 41.572 7.368 88.319 23.188 132.675 2.241 6.27 4.453 12.495 6.592 18.662l62.71-62.212c-7.28-47.329-45.19-84.174-92.49-89.125z" fill="#5b5555"/></g><g><path d="m301.382 127.108 59.59 66.563c3.34-10.151 6.987-20.347 10.547-30.352 15.85-44.385 32.183-91.146 23.218-132.733-49.995 5.229-89.194 45.912-93.355 96.522z" fill="#463f3f"/></g><path d="m256.002 61c-74.443 0-135 60.557-135 135v161.528c0 .352.015.703.029 1.04-2.417 84.038 122.856 149.125 128.218 151.835 2.124 1.069 4.438 1.597 6.753 1.597s4.629-.527 6.753-1.597c4.98-2.52 121.099-62.904 127.925-142.094.205-.996.322-2.036.322-3.091v-169.218c0-74.443-60.557-135-135-135z" fill="#766e6e"/><path d="m390.679 368.31c.205-.996.322-2.036.322-3.091v-169.219c0-74.443-60.557-135-135-135v451c2.314 0 4.629-.527 6.753-1.597 4.981-2.519 121.099-62.904 127.925-142.093zm-14.384-3.091h-.293z" fill="#5b5555"/><circle cx="196.002" cy="196" fill="#463f3f" r="15"/><circle cx="316.002" cy="196" fill="#352c2c" r="15"/><path d="m315.663 301h-59.661-59.662c-9.496 12.565-15.339 28.035-15.339 45 0 41.42 33.578 75 75 75s75-33.58 75-75c.001-16.965-5.842-32.435-15.338-45z" fill="#e6455a"/><path d="m331.002 346c0-16.965-5.843-32.435-15.339-45h-59.661v120c41.422 0 75-33.58 75-75z" fill="#b32437"/><path d="m375.826 284.535-.015-.015-5.596-5.581c-20.405-20.405-49.746-28.022-74.561-19.409-16.463 5.709-30.396 15.573-39.653 28.145-9.261-12.576-22.009-22.436-38.467-28.145-24.932-8.584-54.155-1.011-74.561 19.409l-5.596 5.596c-31.758 31.743-55.576 76.685-40.474 122.036 1.655 4.922 5.728 8.657 10.781 9.844 4.797 1.168 10.228-.15 14.048-3.97l5.596-5.581c18.516-18.516 43.755-32.798 57.202-30.776 25.441 3.962 52.905-4.748 71.47-30.315 15.981 22.009 43.737 34.693 72.656 30.315 13.345-2.036 38.687 12.246 57.217 30.791l5.581 5.566c3.821 3.821 9.254 5.136 14.048 3.97 5.054-1.187 9.126-4.922 10.781-9.844 15.09-45.337-8.714-90.278-40.457-122.036z" fill="#5b5555"/><path d="m328.658 376.088c13.345-2.036 38.687 12.246 57.217 30.791l5.581 5.566c3.821 3.821 9.254 5.136 14.048 3.97 5.054-1.187 9.126-4.922 10.781-9.844 15.088-45.337-8.716-90.278-40.459-122.036l-.015-.015-5.596-5.581c-20.405-20.405-49.746-28.022-74.561-19.409-16.463 5.709-30.396 15.573-39.653 28.145v58.098c15.982 22.009 43.737 34.693 72.657 30.315z" fill="#463f3f"/><g><path d="m263.502 256.02h-7.5-7.5c-23.851-.353-37.5 5.741-37.5 29.98 0 24.814 20.186 45 45 45s45-20.186 45-45c0-24.397-13.653-30.126-37.5-29.98z" fill="#463f3f"/><path d="m301.002 286c0-24.397-13.652-30.126-37.5-29.98h-7.5v74.98c24.814 0 45-20.186 45-45z" fill="#352c2c"/></g></g></svg>