<svg id="Capa_1" enable-background="new 0 0 512 512" height="512" viewBox="0 0 512 512" width="512" xmlns="http://www.w3.org/2000/svg"><g><g><path d="m363.681 204.555-77.974-112.427c-3.091-4.468-3.545-10.239-1.172-15.117 22.822-46.89 69.361-77.011 121.465-77.011 6.46 0 12.188 4.131 14.224 10.254 18.076 54.214-1.509 110.072-20.435 163.114-3.296 9.214-6.548 18.354-9.565 27.378-3.92 11.824-19.564 13.862-26.543 3.809z" fill="#773124"/><path d="m315.57 82.546c17.153-29.312 46.291-48.374 79.169-51.939 9.129 42.039-7.278 88.042-23.193 132.647z" fill="#a34f3e"/></g><g><path d="m121.776 200.746c-3.018-9.023-6.27-18.164-9.565-27.378-18.926-53.042-38.511-108.9-20.435-163.114 2.037-6.123 7.764-10.254 14.224-10.254 66.855 0 124.321 50.849 133.667 116.957.718 5.039-1.187 10.093-5.024 13.433l-88.813 76.948c-8.112 6.996-20.68 3.53-24.054-6.592z" fill="#873f2e"/><path d="m140.458 163.264c-15.911-44.592-32.326-90.603-23.204-132.633 44.88 5.042 81.713 39.324 91.289 82.678l-65.623 56.855c-.814-2.291-1.635-4.59-2.462-6.9z" fill="#c86e59"/></g><path d="m389.47 181h-266.94c7.63-67.25 64.21-119.86 133.47-119.86 68.97 0 125.84 52.18 133.47 119.86z" fill="#a34f3e"/><path d="m389.47 181h-133.47v-119.86c68.97 0 125.84 52.18 133.47 119.86z" fill="#873f2e"/><path d="m389.471 180.868c-7-34.169-37.233-59.868-73.471-59.868-24.65 0-46.328 12.05-60 30.41-13.672-18.36-35.35-30.41-60-30.41-36.237 0-66.467 25.699-73.471 59.865-.571 5.031-1.529 9.951-1.529 15.135v165.044c.059 82.837 123.018 146.723 128.247 149.359 2.124 1.069 4.438 1.597 6.753 1.597s4.629-.527 6.753-1.597c5.229-2.637 128.188-66.522 128.247-149.374v-165.029c0-5.189-.961-10.1-1.529-15.132z" fill="#c86e59"/><path d="m391 361.029v-165.029c0-5.189-.961-10.1-1.529-15.132-7-34.169-37.233-59.868-73.471-59.868-24.65 0-46.328 12.05-60 30.41v360.59c2.314 0 4.629-.527 6.753-1.597 5.229-2.636 128.188-66.522 128.247-149.374z" fill="#a34f3e"/><circle cx="196" cy="196" fill="#463f3f" r="15"/><circle cx="316" cy="196" fill="#352c2c" r="15"/><path d="m315.661 271h-59.661-59.661c-9.496 12.565-15.339 28.035-15.339 45 0 41.42 33.578 75 75 75s75-33.58 75-75c0-16.965-5.843-32.435-15.339-45z" fill="#e6455a"/><path d="m331 316c0-16.965-5.843-32.435-15.339-45h-59.661v120c41.422 0 75-33.58 75-75z" fill="#b32437"/><path d="m316 256h-15c-17.45 0-33.63 7.92-44.97 20.93l-.03-.03c-11.27-12.95-27.45-20.9-45-20.9h-15c-57.89 0-105 47.11-105 105v60c0 8.29 6.71 15 15 15s15-6.71 15-15c0-41.35 33.65-75 75-75h15c17.7 0 33.82-8.16 45-21.02 11.18 12.86 27.3 21.02 45 21.02h15c41.35 0 75 33.65 75 75 0 8.29 6.71 15 15 15s15-6.71 15-15v-60c0-57.89-47.11-105-105-105z" fill="#a34f3e"/><path d="m421 361v60c0 8.29-6.71 15-15 15s-15-6.71-15-15c0-41.35-33.65-75-75-75h-15c-17.7 0-33.82-8.16-45-21.02v-48.08l.03.03c11.34-13.01 27.52-20.93 44.97-20.93h15c57.89 0 105 47.11 105 105z" fill="#873f2e"/><g><path d="m263.5 226.02h-7.5-7.5c-23.851-.353-37.5 5.74-37.5 29.98 0 24.814 20.186 45 45 45s45-20.186 45-45c0-24.397-13.652-30.126-37.5-29.98z" fill="#463f3f"/><path d="m301 256c0-24.397-13.652-30.126-37.5-29.98h-7.5v74.98c24.814 0 45-20.186 45-45z" fill="#352c2c"/></g></g></svg>