<svg id="Capa_1" enable-background="new 0 0 512.012 512.012" height="512" viewBox="0 0 512.012 512.012" width="512" xmlns="http://www.w3.org/2000/svg"><g><g><path d="m436.006 151.012c-41.353 0-75-34.647-75-76s33.647-75 75-75 76 33.647 76 75-34.647 76-76 76z" fill="#803e0c"/></g><path d="m482.006 75.012c0 24.853-21.147 46-46 46s-45-21.147-45-46 20.147-45 45-45 46 20.147 46 45z" fill="#cc7029"/><g><path d="m76.006 151.012c-41.353 0-76-34.647-76-76s34.647-75 76-75 75 33.647 75 75-33.647 76-75 76z" fill="#994a0f"/></g><path d="m121.006 75.012c0 24.853-20.147 46-45 46s-46-21.147-46-46 21.147-45 46-45 45 20.147 45 45z" fill="#e68945"/><path d="m347.236 5.271c-30.981-10.62-64.819-4.922-91.23 14.663-26.499-19.614-60.601-25.21-93.413-13.887-96.651 33.589-162.587 129.877-162.587 238.114v31.172c0 80.039 36.728 156.768 96.552 205.239 4.512 3.618 10.664 4.351 15.908 1.875 5.215-2.49 8.54-7.749 8.54-13.535v-8.936c21.211 15.85 45.117 27.539 70.503 34.321l60.63 17.201c1.26.337 2.563.513 3.867.513s2.607-.176 3.867-.513l57.979-16.498c26.411-7.046 51.226-19.307 73.154-35.991v8.833c0 5.801 3.354 11.089 8.599 13.564 5.259 2.505 11.47 1.729 15.938-1.978 60.674-49.937 96.464-125.391 96.464-207.026v-21.841c-.001-111.619-65.908-210.486-164.771-245.29z" fill="#cc7029"/><path d="m317.852 495.001c26.411-7.046 51.226-19.307 73.154-35.991v8.833c0 5.801 3.354 11.089 8.599 13.564 5.259 2.505 11.47 1.729 15.938-1.978 60.674-49.937 96.464-125.391 96.464-207.026v-21.841c0-111.621-65.907-210.487-164.77-245.292-30.981-10.62-64.819-4.922-91.23 14.663v492.078c1.304 0 2.607-.176 3.867-.513z" fill="#994a0f"/><path d="m342.681 126.168c-12.188-12.642-28.77-19.775-46.714-20.098-13.608.117-28.052 3.838-39.814 11.484-.048-.031-.099-.049-.146-.081-26.514-17.653-62.765-15.569-85.825 6.672-31.245 30.117-49.175 73.857-49.175 120.015v116.94l135-.044 135-.044v-110.449c-.001-47.198-17.608-92.534-48.326-124.395z" fill="#e68945"/><path d="m391.006 250.563c0-47.197-17.607-92.534-48.325-124.395-12.188-12.642-28.77-19.775-46.714-20.098-13.608.117-28.052 3.838-39.814 11.484-.048-.031-.099-.049-.146-.081v243.582l135-.044v-110.448z" fill="#cc7029"/><g><circle cx="196.006" cy="196.012" fill="#5b5555" r="15"/></g><g><circle cx="316.006" cy="196.012" fill="#463f3f" r="15"/></g><path d="m256.006 256.012h-75v90c0 41.42 33.578 75 75 75s75-33.58 75-75v-90z" fill="#e6455a"/><path d="m331.006 346.012v-90h-75v165c41.422 0 75-33.58 75-75z" fill="#b32437"/><g><path d="m214.763 218.111c-54.249 17.51-93.757 67.824-93.757 127.901v28.109c0 23.992 18.168 46.481 43.854 46.882 25.415.396 46.146-23.273 46.146-48.691v-7.786c0-26.744 9.21-48.935 25.605-65.33l8.789-8.789c2.93-2.93 6.768-4.395 10.605-4.395l-12.858-39.189z" fill="#994a0f"/><path d="m297.249 218.111-27.959 28.167-13.283 39.734c3.838 0 7.676 1.465 10.605 4.395l8.789 8.789c16.395 16.395 25.605 38.63 25.605 61.816v11.25c0 25.419 20.729 49.136 46.146 48.741 25.723-.401 43.854-22.932 43.854-46.882v-28.109c0-60.077-39.509-110.391-93.757-127.901z" fill="#803e0c"/><path d="m256.006 211.012c-14.482 0-28.165 2.878-41.243 7.099l28.513 60.826c2.725 4.395 7.544 7.075 12.73 7.075s10.005-2.681 12.729-7.075l28.513-60.826c-13.077-4.221-26.76-7.099-41.242-7.099z" fill="#5b5555"/><path d="m297.249 218.111c-13.077-4.221-26.761-7.099-41.243-7.099v75c5.186 0 10.005-2.681 12.729-7.075z" fill="#463f3f"/></g></g></svg>