<svg id="Capa_1" enable-background="new 0 0 512 512" height="512" viewBox="0 0 512 512" width="512" xmlns="http://www.w3.org/2000/svg"><g><path d="m132.045 87.25c-17.358-8.716-38.232-5.288-51.943 8.438l-61.82 60.82c-11.793 11.792-18.282 27.466-18.282 44.136 0 8.835 2.424 17.329 6.026 25.356l38.974 15-21.877 15 70.089 112.837c2.593 4.233 7.119 6.914 12.085 7.148-2.999.668 7.654.745 12.7-5.991l55.122-73.506c1.494-1.978 2.461-4.307 2.842-6.768l15.498-172.764z" fill="#efe2dd"/><path d="m106 196h-30c-8.284 0-15-6.716-15-15 0-8.284 6.716-15 15-15h30c8.284 0 15 6.716 15 15 0 8.284-6.716 15-15 15z" fill="#5b5555"/><path d="m76 241c0-8.286-6.716-15-15-15h-54.974c1.08 2.408 1.772 4.966 3.159 7.236l13.938 22.764h37.877c8.284 0 15-6.716 15-15z" fill="#5b5555"/><path d="m512 200.644c0-16.67-6.489-32.344-18.281-44.136l-61.82-60.82c-13.74-13.726-34.644-17.153-51.943-8.438l-49.658 24.829-20.333 139.351c-.366 3.721.688 7.427 2.93 10.415l81.108 108.149c2.842 3.794 7.295 6.006 11.997 6.006.234 0 .469 0 .703-.015 4.966-.234 9.492-2.915 12.085-7.148l70.095-112.837-22.883-15 39.979-15c3.599-8.024 6.021-16.518 6.021-25.356z" fill="#e1d3ce"/><path d="m436 196h-30c-8.284 0-15-6.716-15-15 0-8.284 6.716-15 15-15h30c8.284 0 15 6.716 15 15 0 8.284-6.716 15-15 15z" fill="#463f3f"/><path d="m505.979 226h-54.979c-8.284 0-15 6.714-15 15 0 8.284 6.716 15 15 15h37.883l13.947-22.778c1.381-2.265 2.071-4.82 3.149-7.222z" fill="#463f3f"/><g><path d="m315.661 346h-59.661-59.661c-9.496 12.565-15.339 28.035-15.339 45 0 41.42 33.578 75 75 75s75-33.58 75-75c0-16.965-5.843-32.435-15.339-45z" fill="#e6455a"/></g><g><path d="m331 391c0-16.965-5.843-32.435-15.339-45h-59.661v120c41.422 0 75-33.58 75-75z" fill="#b32437"/></g><path d="m421 211c0-5.063-.311-10.052-.76-15l-44.24-15 38.604-15c-19.654-69.15-83.238-120-158.604-120s-138.95 50.85-158.604 120l38.604 15-44.24 15c-.449 4.948-.76 9.937-.76 15 0 15.483 2.891 30.447 7.092 45l37.908 15-25.88 15c7.414 14.205 16.282 27.737 27.814 39.536 8.423 8.628 13.066 19.79 13.066 31.436v19.028h105 105v-19.028c0-11.646 4.644-22.808 13.052-31.421 11.537-11.807 20.411-25.344 27.827-39.551l-25.879-15 37.908-15c4.201-14.555 7.092-29.518 7.092-45z" fill="#fff5f5"/><path d="m361 356.972c0-11.646 4.644-22.808 13.052-31.421 11.537-11.807 20.411-25.344 27.827-39.551l-25.879-15 37.908-15c4.2-14.555 7.092-29.518 7.092-45 0-5.063-.311-10.052-.76-15l-44.24-15 38.604-15c-19.654-69.15-83.238-120-158.604-120v330h105z" fill="#efe2dd"/><path d="m328.1 299.638-7.383-10.254c-14.693-20.904-38.877-33.384-64.717-33.384s-50.024 12.48-64.717 33.384l-7.383 10.254c-16.034 21.987-32.53 47.483-32.9 76.362-.375 29.317 18.173 51.936 45.835 58.374 22.447 5.153 44.852-2.545 59.165-18.691 14.312 16.128 36.812 23.892 59.18 18.677 27.601-6.412 46.132-29.106 45.82-58.359-.306-28.694-16.467-53.83-32.9-76.363z" fill="#766e6e"/><path d="m315.18 434.359c27.601-6.412 46.132-29.106 45.82-58.359-.306-28.693-16.467-53.829-32.9-76.362l-7.383-10.254c-14.693-20.904-38.877-33.384-64.717-33.384v159.683c14.312 16.128 36.812 23.891 59.18 18.676z" fill="#5b5555"/><g><circle cx="166" cy="211" fill="#463f3f" r="15"/></g><g><circle cx="346" cy="211" fill="#352c2c" r="15"/></g><g><g><path d="m263.5 331.02h-7.5-7.5c-23.851-.353-37.5 5.74-37.5 29.98 0 24.814 20.186 45 45 45s45-20.186 45-45c0-24.397-13.652-30.126-37.5-29.98z" fill="#463f3f"/></g><g><path d="m301 361c0-24.397-13.652-30.126-37.5-29.98h-7.5v74.98c24.814 0 45-20.186 45-45z" fill="#352c2c"/></g></g><path d="m151 181c0-8.291-6.709-15-15-15h-38.604c-2.752 9.683-4.7 19.688-5.636 30h44.24c8.291 0 15-6.709 15-15z" fill="#766e6e"/><path d="m361 181c0 8.291 6.709 15 15 15h44.24c-.936-10.313-2.884-20.317-5.636-30h-38.604c-8.291 0-15 6.709-15 15z" fill="#5b5555"/><path d="m151 271c0-8.286-6.716-15-15-15h-37.908c3.001 10.4 7.009 20.383 12.028 30h25.88c8.284 0 15-6.716 15-15z" fill="#766e6e"/><path d="m376 256c-8.284 0-15 6.714-15 15 0 8.284 6.716 15 15 15h25.878c5.021-9.619 9.029-19.6 12.03-30z" fill="#5b5555"/><g><path d="m226 136h-30c-8.291 0-15-6.709-15-15s6.709-15 15-15h30c8.291 0 15 6.709 15 15s-6.709 15-15 15z" fill="#766e6e"/></g><g><path d="m316 166h-30c-8.291 0-15-6.709-15-15s6.709-15 15-15h30c8.291 0 15 6.709 15 15s-6.709 15-15 15z" fill="#5b5555"/></g><path d="m256 196h-30c-8.291 0-15 6.709-15 15s6.709 15 15 15h30c8.291 0 15-6.709 15-15s-6.709-15-15-15z" fill="#766e6e"/><path d="m271 211c0-8.291-6.709-15-15-15v30c8.291 0 15-6.709 15-15z" fill="#5b5555"/></g></svg>