<svg id="Capa_1" enable-background="new 0 0 512 512" height="512" viewBox="0 0 512 512" width="512" xmlns="http://www.w3.org/2000/svg"><g><path d="m178.964 158.456-57.964-22.456v30c0 45.762-20.874 81.812-42.979 119.985-23.115 39.917-47.021 81.197-47.021 135.015 0 49.629 40.371 91 90 91s90-41.371 90-91v-181.875z" fill="#5b5555"/><path d="m433.979 285.985c-22.105-38.173-42.979-74.223-42.979-119.985v-30l-58.359 23.174-31.641 94.336v167.49c0 49.629 40.371 91 90 91s90-41.371 90-91c0-53.818-23.906-95.098-47.021-135.015z" fill="#463f3f"/><path d="m315.661 271h-59.661-59.661c-9.496 12.565-15.339 28.035-15.339 45 0 41.42 33.578 75 75 75s75-33.58 75-75c0-16.965-5.843-32.435-15.339-45z" fill="#e6455a"/><path d="m331 316c0-16.965-5.843-32.435-15.339-45h-59.661v120c41.422 0 75-33.58 75-75z" fill="#b32437"/><path d="m368.224 61.143-78.62-7.438c-23.994 24.99-27.979 122.9-9.683 152.183l69.346 36.097c22.803-36.979 41.733-61.014 41.733-105.985 0-27.684-8.427-53.414-22.776-74.857z" fill="#cc7029"/><path d="m226.308 58.1-82.555 3.083c-14.334 21.436-22.753 47.15-22.753 74.817 0 25.063 6.914 49.526 20.01 70.767l21.722 35.226 69.348-36.105c17.401-27.847 15.146-122.3-5.772-147.788z" fill="#e68945"/><path d="m365.16 274.354c-3.003-7.998-8.773-19.444-15.894-32.369-11.466-20.81-26.47-45.494-39.346-66.097-18.297-29.282-14.312-67.192 9.683-92.183 13.356-13.927 30.137-21.442 48.62-22.562-24.235-36.217-65.463-61.143-112.223-61.143-46.776 0-88.015 24.945-112.247 61.183 20.612 1.276 39.023 10.455 52.555 26.917 20.918 25.488 23.174 59.941 5.771 87.788-12.878 20.603-27.883 45.289-39.348 66.105-7.119 12.925-12.889 24.375-15.892 32.377-7.734 20.625-4.438 43.462 8.818 61.084 13.228 17.578 34.131 26.982 56.47 25.342 17.607-1.377 33.179-10.474 43.872-24.038 11.639 14.763 28.946 24.242 49.015 24.242 20.215 0 39.126-9.331 51.328-25.547 13.257-17.622 16.553-40.459 8.818-61.099z" fill="#cc7029"/><path d="m305.014 361c20.215 0 39.126-9.331 51.328-25.547 13.257-17.622 16.553-40.459 8.818-61.099-3.003-7.998-8.773-19.444-15.894-32.369-11.466-20.81-26.47-45.494-39.346-66.097-18.297-29.282-14.312-67.192 9.683-92.183 13.356-13.927 30.137-21.442 48.62-22.562-24.235-36.217-65.463-61.143-112.223-61.143v336.757c11.639 14.763 28.945 24.243 49.014 24.243z" fill="#994a0f"/><circle cx="181" cy="136" fill="#463f3f" r="15"/><circle cx="331" cy="136" fill="#352c2c" r="15"/><g><path d="m263.5 226.02h-7.5-7.5c-23.851-.353-37.5 5.74-37.5 29.98 0 24.814 20.186 45 45 45s45-20.186 45-45c0-24.397-13.652-30.126-37.5-29.98z" fill="#463f3f"/><path d="m301 256c0-24.397-13.652-30.126-37.5-29.98h-7.5v74.98c24.814 0 45-20.186 45-45z" fill="#352c2c"/></g></g></svg>