<svg id="Capa_1" enable-background="new 0 0 512 512" height="512" viewBox="0 0 512 512" width="512" xmlns="http://www.w3.org/2000/svg"><g><g><path d="m91 191.62v-85.62c0-57.891 47.109-106 105-106 8.291 0 15 6.709 15 15v108.49c0 4.702-2.197 9.126-5.947 11.953l-90 68.13c-9.719 7.41-24.053.555-24.053-11.953z" fill="#5b5555"/></g><g><path d="m399.145 186.215-90-46.245c-4.995-2.578-8.145-7.72-8.145-13.345v-111.625c0-8.291 6.709-15 15-15 57.891 0 105 48.109 105 106v66.87c0 11.222-11.862 18.444-21.855 13.345z" fill="#463f3f"/></g><g><path d="m181 31.509c-34.189 6.973-60 38.266-60 74.491v55.459l60-45.425z" fill="#efe2dd"/></g><g><path d="m331 117.47 60 30.835v-42.305c0-36.226-25.811-67.519-60-74.491z" fill="#e1d3ce"/></g><path d="m256 61c-102.299 0-186.599 79.499-194.399 180l44.399 30h150 150l44.399-30c-7.8-100.501-92.1-180-194.399-180z" fill="#766e6e"/><path d="m450.399 241c-7.8-100.501-92.1-180-194.399-180v210h150z" fill="#5b5555"/><path d="m450.399 241h-44.399c-8.401 0-15-6.601-15-15 0-32.362-25.417-67.883-62.401-74.101-22.2-3.3-44.399 2.701-61.199 17.1-4.2 3.6-8.101 7.5-11.4 12.001-3.3-4.501-7.2-8.401-11.4-12.001-16.8-14.399-39-20.4-61.199-17.1-37.515 6.308-62.401 42.398-62.401 74.101 0 8.399-6.599 15-15 15h-44.399c-.301 4.799-.601 9.899-.601 15v150c0 5.7 3.3 10.8 8.401 13.5l180 91c2.098.899 4.199 1.5 6.599 1.5s4.501-.601 6.599-1.5l180-91c5.101-2.7 8.401-7.8 8.401-13.5v-150c0-5.101-.3-10.201-.601-15z" fill="#fff5f5"/><path d="m442.599 419.5c5.101-2.7 8.401-7.8 8.401-13.5v-150c0-5.101-.3-10.201-.601-15h-44.399c-8.401 0-15-6.601-15-15 0-32.362-25.417-67.883-62.401-74.101-22.2-3.3-44.399 2.701-61.199 17.1-4.2 3.6-8.101 7.5-11.4 12.001v331c2.401 0 4.501-.601 6.599-1.5z" fill="#efe2dd"/><circle cx="196" cy="226" fill="#463f3f" r="15"/><circle cx="316" cy="226" fill="#352c2c" r="15"/><path d="m328.1 284.638-7.383-10.254c-14.693-20.904-38.877-33.384-64.717-33.384s-50.024 12.48-64.717 33.384l-7.383 10.254c-16.034 21.987-32.53 47.483-32.9 76.362-.375 29.317 18.173 51.936 45.835 58.374 22.447 5.153 44.852-2.545 59.165-18.691 14.312 16.128 36.812 23.892 59.18 18.677 27.601-6.412 46.132-29.106 45.82-58.359-.306-28.694-16.467-53.83-32.9-76.363z" fill="#766e6e"/><path d="m315.18 419.359c27.601-6.412 46.132-29.106 45.82-58.359-.306-28.693-16.467-53.829-32.9-76.362l-7.383-10.254c-14.693-20.904-38.877-33.384-64.717-33.384v159.683c14.312 16.128 36.812 23.891 59.18 18.676z" fill="#5b5555"/><g><g><path d="m263.5 316.02h-7.5-7.5c-23.851-.353-37.5 5.74-37.5 29.98 0 24.814 20.186 45 45 45s45-20.186 45-45c0-24.397-13.652-30.126-37.5-29.98z" fill="#463f3f"/></g><g><path d="m301 346c0-24.397-13.652-30.126-37.5-29.98h-7.5v74.98c24.814 0 45-20.186 45-45z" fill="#352c2c"/></g></g></g></svg>