<svg id="Capa_1" enable-background="new 0 0 512.02 512.02" height="512" viewBox="0 0 512.02 512.02" width="512" xmlns="http://www.w3.org/2000/svg"><g><g><path d="m91.01 196.02v-181c0-6.46 4.131-12.188 10.254-14.224 6.138-2.095 12.876.044 16.743 5.229l108.032 145.038c31.493 41.961 12.815 114.705-54.185 119.751-45.279 3.355-80.844-32.638-80.844-74.794z" fill="#5b5555"/></g><g><path d="m345.409 271.049c-67.088 0-93.697-74.348-59.429-120l108.033-145.023c3.867-5.156 10.62-7.295 16.743-5.229 6.123 2.036 10.254 7.764 10.254 14.224v181c0 41.044-32.452 75.028-75.601 75.028z" fill="#e1d3ce"/></g><g><path d="m121.01 60.02v136c0 24.989 20.67 46.704 48.589 44.883 20.347-1.538 31.802-9.814 38.276-27.7 5.654-15.571 3.53-31.67-5.83-44.136z" fill="#ffe6b3"/></g><g><path d="m391.01 60.02-81.035 109.032c-7.881 10.503-10.693 23.584-7.925 36.826 5.947 28.433 28.652 36.738 48.076 34.951 22.925-2.065 40.884-21.753 40.884-44.81z" fill="#ffca80"/></g><path d="m256.01 451.02h-73.488c6.951 34.232 37.203 61 73.488 61s66.537-26.768 73.488-61z" fill="#e6455a"/><path d="m329.498 451.02h-73.488v61c36.284 0 66.537-26.768 73.488-61z" fill="#b32437"/><path d="m365.917 174.999c-13.55-15.234-33.033-23.979-53.423-23.979-24.587 0-46.089 11.16-56.484 15.026l-113.459 183.389 8.459 71.585c0 33.091 26.909 60 60 60 17.721 0 33.818-8.163 45-21.022 11.182 12.859 27.279 21.022 45 21.022 32.375 0 58.658-25.805 59.788-57.907.016-.121.095-.214.11-.335l22.573-191.924c2.387-20.259-4.014-40.606-17.564-55.855z" fill="#fff5f5"/><path d="m360.798 423.113c.016-.121.095-.214.11-.335l22.573-191.924c2.388-20.259-4.014-40.605-17.563-55.854-13.55-15.234-33.033-23.979-53.423-23.979-24.587 0-46.089 11.16-56.484 15.026v293.952c11.182 12.859 27.279 21.022 45 21.022 32.374-.001 58.657-25.806 59.787-57.908z" fill="#efe2dd"/><path d="m256.01 166.046c-18.272-9.25-39.97-15.026-56.484-15.026-19.993 0-39.952 8.329-54.283 25.184-21.116 24.787-16.271 52.787-16.553 55.917l13.861 117.314c11.83 7.397 24.866 11.585 38.459 11.585 31.309 0 58.872-21.48 75-53.912 9.437-18.975 15-41.664 15-66.088 0-28.088-4.204-54.014-15-74.974z" fill="#766e6e"/><path d="m256.01 166.046v141.063c9.437-18.975 15-41.664 15-66.088 0-28.089-4.204-54.015-15-74.975z" fill="#5b5555"/><circle cx="316.01" cy="286.02" fill="#352c2c" r="15"/><circle cx="196.01" cy="286.02" fill="#463f3f" r="15"/><g><path d="m263.51 376.04h-7.5-7.5c-23.851-.353-37.5 5.741-37.5 29.98 0 24.814 20.186 45 45 45s45-20.186 45-45c0-24.397-13.652-30.127-37.5-29.98z" fill="#463f3f"/><path d="m301.01 406.02c0-24.397-13.652-30.126-37.5-29.98h-7.5v74.98c24.814 0 45-20.186 45-45z" fill="#352c2c"/></g></g></svg>