<svg id="Capa_1" enable-background="new 0 0 511.996 511.996" height="512" viewBox="0 0 511.996 511.996" width="512" xmlns="http://www.w3.org/2000/svg"><g><path d="m432.262 60.998h-96.885l55.62 137.476v57.524c0 41.353 34.647 75 76 75 8.291 0 15-6.709 15-15v-56.748c0-34.438 12.041-66.621 23.804-93.545 4.863-11.118 6.929-23.452 5.962-35.669-3.046-38.716-38.529-69.038-79.501-69.038z" fill="#463f3f"/><path d="m79.733 60.998c-40.972 0-76.454 30.322-79.501 69.023-.967 12.231 1.099 24.565 5.962 35.669 11.763 26.938 23.804 59.121 23.804 93.56v56.748c0 8.291 6.709 15 15 15 41.353 0 76-33.647 76-75v-57.524l55.62-137.476z" fill="#5b5555"/><path d="m255.998 300.998h-75v105c0 41.42 33.578 75 75 75s75-33.58 75-75v-105z" fill="#e6455a"/><path d="m330.998 405.998v-105h-75v180c41.422 0 75-33.58 75-75z" fill="#b32437"/><path d="m394.123 255.998h-138.125-135.625l-29.376 30v90c0 41.7 33.6 75 75 75 0 16.199 12.9 30 30 30 16.8 0 30-13.801 30-30v-60c0-11.071 6.277-20.156 15-25.353l15-34.647 15 34.647c8.723 5.197 15 14.282 15 25.353v60c0 16.199 13.2 30 30 30 17.1 0 30-13.801 30-30 42.599 0 75-36 75-75v-90z" fill="#ffb64c"/><path d="m285.998 390.998v60c0 16.199 13.2 30 30 30 17.1 0 30-13.801 30-30 42.599 0 75-36 75-75v-90l-26.874-30h-138.126v75l15 34.647c8.723 5.197 15 14.282 15 25.353z" fill="#ff9100"/><path d="m255.998 240.998h-63.173c-.562 3.583.062 7.374 2.236 10.635l45.938 68.906v45.106c4.514-2.69 9.476-4.647 15-4.647s10.486 1.957 15 4.647v-45.106l53.035-79.541z" fill="#463f3f"/><path d="m270.998 320.539 53.035-79.541h-68.035v120c5.524 0 10.486 1.957 15 4.647z" fill="#352c2c"/><path d="m285.998 30.998h-30-30c-74.399 0-135 60.599-135 135v120c0 41.973 33.796 75 75 75h.3c7.8 0 14.399-6.301 14.7-14.101 2.108-40.64 34.067-75.974 75-75.687 43.015.289 75 34.543 75 74.788 0 8.399 6.599 15 15 15 41.4 0 75-33.6 75-75v-120c0-74.401-60.601-135-135-135z" fill="#766e6e"/><path d="m330.998 345.998c0 8.399 6.599 15 15 15 41.4 0 75-33.6 75-75v-120c0-74.401-60.601-135-135-135h-30v240.212c43.014.29 75 34.543 75 74.788z" fill="#5b5555"/><circle cx="165.998" cy="195.998" fill="#463f3f" r="15"/><circle cx="345.998" cy="195.998" fill="#352c2c" r="15"/></g></svg>