<svg id="Capa_1" enable-background="new 0 0 512 512" height="512" viewBox="0 0 512 512" width="512" xmlns="http://www.w3.org/2000/svg"><g><g><path d="m7.925 179.228c-4.878-2.608-7.925-7.691-7.925-13.228v-30c0-57.891 48.109-105 106-105 46.626 0 87.026 29.971 100.518 74.561 1.816 5.991-.278 12.48-5.259 16.274l-44.81 34.189c-3.677 2.813-8.496 3.765-12.92 2.578-40.767-10.723-85.17-3.501-120.209 19.878-4.651 3.101-10.585 3.328-15.395.748z" fill="#a34f3e"/></g><g><path d="m106 61c-41.353 0-76 33.647-76 75v4.409c35.054-16.392 75.78-20.962 113.925-12.554l30.264-23.101c-12.071-26.191-38.819-43.754-68.189-43.754z" fill="#cc7029"/></g><g><path d="m488.68 178.48c-35.259-23.467-79.896-30.63-120.795-19.717-6.372 1.758-13.14-.952-16.626-6.577l-34.526-55.679c-3.003-4.849-3.003-10.972 0-15.82 19.321-31.113 52.69-49.687 89.267-49.687 57.891 0 106 47.109 106 105v30c0 5.537-3.047 10.62-7.925 13.228-4.81 2.58-10.744 2.353-15.395-.748z" fill="#873f2e"/></g><g><path d="m405.971 123.754c25.84 0 52.475 5.654 76.029 16.655v-4.409c0-41.353-34.647-75-76-75-23.086 0-44.385 10.356-58.55 28.11l23.628 38.115c11.558-2.329 23.247-3.471 34.893-3.471z" fill="#994a0f"/></g><path d="m447.162 192.792-59.194-103.579-11.675-20.42c-13.315-23.306-38.262-37.793-65.112-37.793h-40.181l-15 30-15-30h-40.181c-26.851 0-51.797 14.487-65.112 37.793l-70.869 123.999c-22.441 39.287-23.76 86.895-3.53 127.354l74.692 130.854h45l30-45h45 45l30 45h45l74.692-130.854c20.23-40.459 18.912-88.067-3.53-127.354z" fill="#c86e59"/><path d="m331 451h45l74.692-130.854c20.229-40.459 18.911-88.066-3.53-127.354l-59.194-103.579-11.675-20.42c-13.315-23.306-38.262-37.793-65.112-37.793h-40.181l-15 30v345h45z" fill="#a34f3e"/><path d="m256 286h-75v165h15c17.08 0 29.517-10.21 39.521-18.398 7.574-6.226 14.122-11.602 20.479-11.602s12.905 5.376 20.479 11.602c10.004 8.188 22.441 18.398 39.521 18.398h15v-165z" fill="#e6455a"/><path d="m316 451h15v-165h-75v135c6.357 0 12.905 5.376 20.479 11.602 10.004 8.188 22.441 18.398 39.521 18.398z" fill="#b32437"/><path d="m313.711 196.22c-16.414-9.459-27.316-25.792-29.22-43.872-1.873-17.633-5.153-29.991-8.525-38.632-3.657-9.366-4.966-19.484-4.966-29.539v-53.177h-15-15v53.258c0 10.047-1.309 20.156-4.962 29.515-3.369 8.635-6.645 20.967-8.514 38.531-1.915 18.051-12.814 34.385-29.224 43.894-36.568 21.189-62.3 56.854-62.3 99.119v155.683c0 16.538 13.462 30 30 30s30-13.462 30-30v-86.646c0-10.162 2.439-20.008 6.722-28.821l-.584-31.633 20.385 7.91c5.511-3.918 11.717-6.905 18.477-8.668l15-17.142 15 17.065c6.757 1.75 13.017 4.693 18.638 8.507l20.239-7.672-.097 30.959c3.887 7.912 6.22 16.725 6.22 26.14v90c0 16.538 13.462 30 30 30s30-13.462 30-30v-155.987c0-42.18-25.743-77.733-62.289-98.792z" fill="#fff5f5"/><path d="m289.638 311.573 20.239-7.672-.097 30.959c3.887 7.912 6.22 16.725 6.22 26.14v90c0 16.538 13.462 30 30 30s30-13.462 30-30v-155.988c0-42.18-25.743-77.734-62.289-98.793-16.414-9.459-27.316-25.792-29.22-43.872-1.873-17.633-5.153-29.991-8.525-38.632-3.657-9.365-4.966-19.483-4.966-29.538v-53.177h-15v255l15 17.065c6.757 1.751 13.017 4.693 18.638 8.508z" fill="#efe2dd"/><circle cx="166" cy="166" fill="#463f3f" r="15"/><circle cx="346" cy="166" fill="#352c2c" r="15"/><path d="m187.138 288.9c-6.694 4.907-8.13 14.282-3.237 20.962l18.821 25.671c4.6-9.461 11.343-17.712 19.801-23.723l-14.423-19.672c-4.937-6.709-14.297-8.145-20.962-3.238z" fill="#766e6e"/><path d="m324.877 288.9c-6.694-4.893-16.069-3.428-20.977 3.223l-14.262 19.449c8.615 5.845 15.526 13.889 20.142 23.287l18.32-24.983c4.892-6.693 3.457-16.068-3.223-20.976z" fill="#5b5555"/><g><path d="m263.5 211.02h-7.5-7.5c-23.851-.353-37.5 5.74-37.5 29.98 0 19.53 12.578 36.024 30 42.237v19.905c3.446-.899 4.454-1.957 15-1.853 5.158.049 10.21.535 15 1.776v-19.828c17.422-6.213 30-22.707 30-42.237 0-24.397-13.652-30.126-37.5-29.98z" fill="#463f3f"/><path d="m271 303.065v-19.828c17.422-6.213 30-22.707 30-42.237 0-24.397-13.652-30.126-37.5-29.98h-7.5v90.269c5.158.05 10.21.535 15 1.776z" fill="#352c2c"/></g></g></svg>