<svg id="Capa_1" enable-background="new 0 0 511.983 511.983" height="512" viewBox="0 0 511.983 511.983" width="512" xmlns="http://www.w3.org/2000/svg"><g><path d="m97.86 166.023c-3.501 0-6.973-1.23-9.756-3.604-60.146-51.532-57.729-117.143-56.821-141.855l.146-5.156c0-8.291 6.709-15 15-15l4.922-.146c27.451-.908 110.801-4.087 162.935 86.587 2.007 3.486 2.52 7.646 1.436 11.528s-3.691 7.163-7.236 9.097l-103.418 56.704c-2.256 1.245-4.732 1.845-7.208 1.845z" fill="#ff9100"/><path d="m100.072 132.698c-36.665-36.152-39.448-78.545-39.052-102.671.938-.015 1.919-.029 2.915-.029 50.64 0 88.784 19.277 116.162 58.828z" fill="#ffe6b3"/><path d="m410.18 169.305c-3.457 0-6.899-1.187-9.697-3.56l-89.37-75.747c-5.947-5.039-7.046-13.813-2.505-20.156 52.354-73.286 127.324-70.43 152.036-69.58l4.907.146c8.291 0 15 6.709 15 15l.146 5.156c.938 25.562 3.442 93.442-61.113 145.43-2.739 2.212-6.079 3.311-9.404 3.311z" fill="#ff641a"/><path d="m341.508 76.434c26.543-30.835 62.388-46.436 106.772-46.436.923 0 1.816.015 2.681.015.396 24.844-2.549 68.013-40.913 104.502z" fill="#ffca80"/><path d="m255.99 29.983c-140.889 0-225 78.501-225 210 0 131.631 156.123 272 225 272s225-140.369 225-272c0-131.499-84.111-210-225-210z" fill="#ffb64c"/><path d="m480.99 239.983c0-131.499-84.111-210-225-210v482c68.877 0 225-140.369 225-272z" fill="#ff9100"/><g><circle cx="165.99" cy="164.983" fill="#5b5555" r="15"/></g><g><circle cx="345.99" cy="164.983" fill="#463f3f" r="15"/></g><path d="m327.563 210.833c-10.166-7.72-18.94-14.385-23.364-27.29-6.87-20.068-26.25-33.56-48.208-33.56s-41.338 13.491-48.208 33.56c-4.424 12.905-13.198 19.57-23.364 27.29-13.74 10.43-30.835 23.423-33.164 52.456-2.446 30.776 16.523 58.096 45.103 64.951 22.559 5.391 45.249-2.285 59.634-18.545 14.372 16.232 37.033 23.956 59.634 18.545 28.579-6.855 47.549-34.175 45.103-64.966-2.332-29.018-19.426-42.011-33.166-52.441z" fill="#fff7cc"/><path d="m315.624 328.24c28.579-6.855 47.549-34.175 45.103-64.966-2.329-29.019-19.424-42.012-33.164-52.441-10.166-7.72-18.94-14.385-23.364-27.29-6.87-20.068-26.25-33.56-48.208-33.56v159.712c14.371 16.233 37.032 23.956 59.633 18.545z" fill="#ffe6b3"/><g><path d="m263.49 225.003h-7.5-7.5c-23.851-.353-37.5 5.74-37.5 29.98 0 24.814 20.186 45 45 45s45-20.186 45-45c0-24.397-13.652-30.126-37.5-29.98z" fill="#5b5555"/><path d="m300.99 254.983c0-24.397-13.652-30.126-37.5-29.98h-7.5v74.98c24.815 0 45-20.185 45-45z" fill="#463f3f"/></g></g></svg>