<svg id="Capa_1" enable-background="new 0 0 511.984 511.984" height="512" viewBox="0 0 511.984 511.984" width="512" xmlns="http://www.w3.org/2000/svg"><g><g><path d="m139.559 267.222c-29.048-10.942-48.574-39.155-48.574-70.21 0-16.362 5.171-31.904 14.971-44.956l108.032-146.039c3.882-5.171 10.591-7.28 16.743-5.229 6.123 2.036 10.254 7.764 10.254 14.224v210.784c0 3.633-1.318 7.148-3.721 9.888-25.763 29.388-62.057 44.951-97.705 31.538z" fill="#5b5555"/></g><g><path d="m274.72 235.727c-2.417-2.739-3.735-6.27-3.735-9.902l.015-210.813c0-6.46 4.131-12.188 10.254-14.224 6.182-2.08 12.861.059 16.743 5.229l108.032 146.038c9.8 13.052 14.971 28.594 14.971 44.956 0 31.055-19.512 59.268-48.56 70.21-35.847 13.488-72.092-2.294-97.72-31.494z" fill="#463f3f"/></g><g><path d="m300.985 219.966c19.116 19.644 41.016 26.66 60.879 19.175 17.432-6.563 29.136-23.496 29.136-42.129 0-9.814-3.105-19.146-8.965-26.968l-81.036-110.032z" fill="#ff641a"/></g><g><path d="m210.985 60.012-81.035 110.032c-5.859 7.822-8.965 17.153-8.965 26.968 0 18.633 11.719 35.566 29.15 42.129 19.746 7.456 41.748.469 60.85-19.204z" fill="#ff9100"/></g><path d="m336.815 178.877c-23.701-17.754-56.396-17.695-80.83-1.216-24.463-16.494-57.114-16.553-80.83 1.216-34.424 25.767-54.17 65.186-54.17 108.135v120c0 20.522 8.555 40.386 23.481 54.507 14.092 13.315 32.256 20.508 50.845 20.508 1.377 0 2.754-.044 4.131-.117l56.543-.013 64.526-.016c39.521-2.373 70.474-35.259 70.474-74.868v-120c0-42.951-19.746-82.37-54.17-108.136z" fill="#766e6e"/><path d="m390.985 407.012v-120c0-42.949-19.746-82.368-54.17-108.135-23.701-17.754-56.396-17.695-80.83-1.216v304.235l64.526-.016c39.522-2.373 70.474-35.259 70.474-74.868z" fill="#5b5555"/><circle cx="195.985" cy="257.012" fill="#463f3f" r="15"/><circle cx="315.985" cy="257.012" fill="#352c2c" r="15"/><path d="m325.609 351.933c-3.325-6.548-6.592-12.964-9.624-19.16-11.25-23.027-34.233-37.339-60-37.339s-48.75 14.312-60 37.324c-3.032 6.211-6.299 12.627-9.624 19.175-16.128 31.729-32.798 64.526-35.112 93.384-2.446 30.776 16.523 58.096 45.103 64.951 4.849 1.157 9.697 1.714 14.473 1.714 17.468 0 33.878-7.467 45.161-20.231.004-.005.011-.007.015-.013 14.399 16.245 37.09 23.936 59.619 18.53 28.579-6.855 47.549-34.175 45.103-64.966-2.316-28.842-18.986-61.64-35.114-93.369z" fill="#ffb64c"/><path d="m315.618 510.268c28.579-6.855 47.549-34.175 45.103-64.966-2.314-28.843-18.984-61.641-35.112-93.369-3.325-6.548-6.592-12.964-9.624-19.16-11.25-23.027-34.233-37.339-60-37.339v196.317c.004-.005.011-.007.015-.013 14.399 16.245 37.089 23.936 59.618 18.53z" fill="#ff9100"/><g><path d="m263.485 407.032h-7.5-7.5c-23.851-.353-37.5 5.741-37.5 29.98 0 24.814 20.186 45 45 45s45-20.186 45-45c0-24.397-13.653-30.127-37.5-29.98z" fill="#5b5555"/><path d="m300.985 437.012c0-24.397-13.652-30.126-37.5-29.98h-7.5v74.98c24.814 0 45-20.186 45-45z" fill="#463f3f"/></g></g></svg>