<svg id="Capa_1" enable-background="new 0 0 512.012 512.012" height="512" viewBox="0 0 512.012 512.012" width="512" xmlns="http://www.w3.org/2000/svg"><g><g><path d="m139.573 267.222c-29.048-10.942-48.574-39.155-48.574-70.21 0-16.362 5.171-31.904 14.971-44.956l108.031-146.039c3.882-5.171 10.591-7.28 16.743-5.229 6.123 2.036 10.254 7.764 10.254 14.224v210.784c0 3.633-1.318 7.148-3.721 9.888-25.762 29.388-62.056 44.951-97.704 31.538z" fill="#5b5555"/></g><g><path d="m274.734 235.727c-2.417-2.739-3.735-6.27-3.735-9.902l.015-210.813c0-6.46 4.131-12.188 10.254-14.224 6.182-2.08 12.861.059 16.743 5.229l108.032 146.038c9.8 13.052 14.971 28.594 14.971 44.956 0 31.055-19.512 59.268-48.56 70.21-35.847 13.488-72.092-2.294-97.72-31.494z" fill="#463f3f"/></g><g><path d="m300.998 219.966c19.116 19.644 41.016 26.66 60.879 19.175 17.432-6.563 29.136-23.496 29.136-42.129 0-9.814-3.105-19.146-8.965-26.968l-81.035-110.032z" fill="#994a0f"/></g><g><path d="m210.998 60.012-81.035 110.032c-5.859 7.822-8.965 17.153-8.965 26.968 0 18.633 11.719 35.566 29.15 42.129 19.746 7.456 41.748.469 60.85-19.204z" fill="#cc7029"/></g><path d="m390.998 287.012v60c0 29.7-17.701 56.4-44.399 68.399l-16.201 30.901-74.399.3-74.399.298-12.601-30c-28.499-11.1-47.999-38.699-47.999-69.899v-60c0-42.9 19.799-82.5 54.3-108.001 23.699-17.999 56.4-17.699 80.7-1.5 24.3-16.199 57.001-16.5 80.7 1.5 34.499 25.502 54.298 65.102 54.298 108.002z" fill="#e68945"/><path d="m390.998 287.012v60c0 29.7-17.701 56.4-44.399 68.399l-16.201 30.901-74.399.3v-269.101c24.3-16.199 57.001-16.5 80.7 1.5 34.5 25.501 54.299 65.101 54.299 108.001z" fill="#cc7029"/><circle cx="195.998" cy="257.012" fill="#5b5555" r="15"/><circle cx="315.998" cy="257.012" fill="#463f3f" r="15"/><path d="m255.998 347.012h-75v90c0 41.42 33.578 75 75 75s75-33.58 75-75v-90z" fill="#e6455a"/><path d="m330.998 437.012v-90h-75v165c41.423 0 75-33.58 75-75z" fill="#b32437"/><g><path d="m214.756 309.111c-54.249 17.51-93.757 67.824-93.757 127.901v28.109c0 23.992 18.168 46.481 43.854 46.882 25.415.396 46.146-23.273 46.146-48.691v-7.786c0-26.744 9.21-48.935 25.605-65.33l8.789-8.789c2.93-2.93 6.768-4.395 10.605-4.395l-12.858-39.189z" fill="#766e6e"/><path d="m297.241 309.111-27.959 28.167-13.283 39.734c3.838 0 7.676 1.465 10.605 4.395l8.789 8.789c16.395 16.395 25.605 38.63 25.605 61.816v11.25c0 25.419 20.729 49.136 46.146 48.741 25.723-.401 43.854-22.932 43.854-46.882v-28.109c0-60.077-39.508-110.391-93.757-127.901z" fill="#5b5555"/><path d="m255.998 302.012c-14.482 0-28.165 2.878-41.243 7.099l28.513 60.826c2.725 4.395 7.544 7.075 12.729 7.075s10.005-2.681 12.729-7.075l28.513-60.826c-13.075-4.221-26.759-7.099-41.241-7.099z" fill="#5b5555"/><path d="m297.241 309.111c-13.077-4.221-26.761-7.099-41.243-7.099v75c5.186 0 10.005-2.681 12.729-7.075z" fill="#463f3f"/></g></g></svg>