<svg id="Capa_1" enable-background="new 0 0 512 512" height="512" viewBox="0 0 512 512" width="512" xmlns="http://www.w3.org/2000/svg"><g><g><path d="m76 436.038c-8.291 0-15-6.709-15-15v-3.442c0-7.91-1.201-15.996-3.589-24.199-12.129 8.188-27.44 12.642-42.411 12.642-8.291 0-15-6.709-15-15v-195c0-50.083 25.917-96.68 67.65-124.673 54.597-36.591 113.939-22.911 110.933-22.852 7.91 1.421 13.286 8.804 12.217 16.758l-39.99 297.598c-.323 39.521-33.941 73.168-74.81 73.168zm97.72-373.051.015-.073z" fill="#463f3f"/></g><g><path d="m436 436.038c-20.771 0-40.078-8.408-54.376-23.657-13.989-14.956-21.415-35.171-20.492-55.708l-39.932-291.357c-1.084-7.969 4.292-15.381 12.217-16.802 40.649-6.606 79.175 1.582 110.977 22.881 41.704 27.964 67.606 74.56 67.606 124.643v195c0 8.291-6.709 15-15 15-14.971 0-30.282-4.453-42.411-12.642-2.388 8.204-3.589 16.29-3.589 24.2v3.442c0 8.291-6.709 15-15 15z" fill="#352c2c"/></g><path d="m316 46.038c-21.592 0-42.48 6.606-60 18.823-17.52-12.217-38.408-18.823-60-18.823-57.891 0-105 47.109-105 105v120c0 8.291 6.709 15 15 15 5.083 0 10.093-.527 15-1.567v114.067h135 135v-114.067c4.907 1.04 9.917 1.567 15 1.567 8.291 0 15-6.709 15-15v-120c0-57.89-47.109-105-105-105z" fill="#766e6e"/><path d="m391 284.471c4.907 1.04 9.917 1.567 15 1.567 8.291 0 15-6.709 15-15v-120c0-57.891-47.109-105-105-105-21.592 0-42.48 6.606-60 18.823v333.677h135z" fill="#5b5555"/><circle cx="166" cy="181.038" fill="#463f3f" r="15"/><circle cx="346" cy="181.038" fill="#352c2c" r="15"/><path d="m256 301.038h-75v90c0 41.42 33.578 75 75 75s75-33.58 75-75v-90z" fill="#e6455a"/><path d="m331 391.038v-90h-75v165c41.422 0 75-33.579 75-75z" fill="#b32437"/><g><path d="m214.757 263.137c-54.248 17.511-93.757 67.824-93.757 127.901v28.109c0 23.992 18.168 46.481 43.854 46.882 25.415.396 46.146-23.272 46.146-48.691v-7.786c0-26.744 9.21-48.935 25.605-65.33l8.789-8.789c2.93-2.93 6.768-4.395 10.605-4.395l-12.858-24.189z" fill="#5b5555"/><path d="m297.243 263.137-27.959 43.167-13.284 24.734c3.838 0 7.676 1.465 10.605 4.395l8.789 8.789c16.396 16.395 25.606 38.63 25.606 61.816v11.25c0 25.419 20.729 49.136 46.146 48.741 25.723-.401 43.854-22.932 43.854-46.882v-28.109c0-60.077-39.509-110.39-93.757-127.901z" fill="#463f3f"/><path d="m256 256.038c-14.482 0-28.165 2.878-41.243 7.099l28.513 60.826c2.725 4.395 7.544 7.075 12.729 7.075s10.005-2.681 12.729-7.075l28.513-60.826c-13.076-4.22-26.759-7.099-41.241-7.099z" fill="#463f3f"/><path d="m297.243 263.137c-13.077-4.221-26.761-7.099-41.243-7.099v75c5.186 0 10.005-2.681 12.729-7.075z" fill="#352c2c"/></g></g></svg>