<svg id="Capa_1" enable-background="new 0 0 512.009 512.009" height="512" viewBox="0 0 512.009 512.009" width="512" xmlns="http://www.w3.org/2000/svg"><g><path d="m256.004 451.984h-73.488c6.951 34.232 37.203 60 73.488 60s66.537-25.768 73.488-60z" fill="#e6455a"/><path d="m329.492 451.984h-73.488v60c36.284 0 66.537-25.768 73.488-60z" fill="#b32437"/><g><g><path d="m113.094 150.984c-47.095 0-90.443-26.162-111.508-68.291-2.329-4.644-2.08-10.166.659-14.59s7.559-7.119 12.759-7.119h13.081c10.327 0 21.742-1.67 31.937-4.951 18.779-6.035 36.841-18.417 53.687-34.809 17.944-17.461 43.506-24.756 68.35-19.556 27.29 5.713 50.068 28.7 56.675 55.697 5.566 22.778.659 46.23-13.477 64.336-14.429 18.486-36.196 29.15-59.722 29.282h-52.441zm-48.472-80.669h.293z" fill="#463f3f"/></g></g><g><g><path d="m346.825 150.984c-23.467 0-45.278-10.547-59.824-28.975-14.326-18.149-19.321-41.704-13.726-64.644 6.606-26.997 29.385-49.984 56.675-55.697 24.873-5.2 50.405 2.095 68.35 19.556 18.179 17.681 48.607 39.76 85.624 39.76h13.081c5.2 0 10.02 2.695 12.759 7.119s2.988 9.946.659 14.59c-21.064 42.129-64.413 68.291-111.508 68.291h-51.665c-.147 0-.279 0-.425 0z" fill="#352c2c"/></g></g><path d="m271.004 60.984h-15-15c-66.167 0-120 53.833-120 120 0 7.251.645 14.355 1.758 20.508l28.242 220.492c0 33.091 26.909 60 60 60 17.549 0 33.823-7.676 45-20.317 11.177 12.642 27.451 20.317 45 20.317 33.091 0 60-26.909 59.883-58.096l27.861-219.599c1.494-7.603 2.256-15.439 2.256-23.306 0-66.166-53.833-119.999-120-119.999z" fill="#766e6e"/><path d="m360.887 423.889 27.861-219.599c1.494-7.603 2.256-15.439 2.256-23.306 0-66.167-53.833-120-120-120h-15v400.683c11.177 12.642 27.451 20.317 45 20.317 33.091 0 60-26.909 59.883-58.095z" fill="#5b5555"/><g><circle cx="196.004" cy="255.984" fill="#463f3f" r="15"/></g><g><circle cx="316.004" cy="255.984" fill="#352c2c" r="15"/></g><g><path d="m263.504 377.004h-7.5-7.5c-23.851-.353-37.5 5.741-37.5 29.98 0 24.814 20.186 45 45 45s45-20.186 45-45c0-24.397-13.652-30.126-37.5-29.98z" fill="#463f3f"/><path d="m301.004 406.984c0-24.397-13.652-30.126-37.5-29.98h-7.5v74.98c24.815 0 45-20.185 45-45z" fill="#352c2c"/></g><path d="m256.004 150.984c-8.291 0-15 6.709-15 15v120c0 8.291 6.709 15 15 15s15-6.709 15-15v-120c0-8.291-6.709-15-15-15z" fill="#5b5555"/><path d="m271.004 285.984v-120c0-8.291-6.709-15-15-15v150c8.291 0 15-6.709 15-15z" fill="#463f3f"/></g></svg>