<svg id="Capa_1" enable-background="new 0 0 512 512" height="512" viewBox="0 0 512 512" width="512" xmlns="http://www.w3.org/2000/svg"><g><g><path d="m391 512c-80.599 0-92.834-75.603-89.546-156.123.044-1.084.205-2.168.483-3.208l55.166-210.048c.615-2.358 1.802-4.526 3.457-6.313 17.417-18.955 34.453-16.201 43.022-12.905 49.85 19.409 77.418 162.674 77.418 253.597 0 92.109-28.594 135-90 135z" fill="#ccb5ad"/></g><g><path d="m121 512c-61.406 0-90-42.891-90-135 0-87.114 26.265-227.597 73.755-251.942 12.554-6.401 26.045-5.186 37.969 3.398 2.798 2.007 4.819 4.922 5.713 8.262l61.992 230.248c.337 1.201.513 2.461.527 3.706.997 75.15-14.549 141.328-89.956 141.328z" fill="#e1d3ce"/></g><path d="m256 422h-73.488c6.951 34.232 37.203 60 73.488 60s66.537-25.768 73.488-60z" fill="#e6455a"/><path d="m329.488 422h-73.488v60c36.284 0 66.537-25.768 73.488-60z" fill="#b32437"/><path d="m382.87 179.872h-126.87-126.87c-1.23 6.899-1.436 13.945-.601 20.962l22.471 191.166c0 33.091 26.909 60 60 60 17.721 0 33.818-8.163 45-21.022 11.182 12.859 27.279 21.022 45 21.022 33.091 0 60-26.909 59.897-58.242l22.573-192.909c.836-7.032.631-14.078-.6-20.977z" fill="#efe2dd"/><path d="m360.897 393.758 22.573-192.909c.835-7.031.63-14.077-.601-20.977h-126.869v251.106c11.182 12.859 27.279 21.022 45 21.022 33.091 0 60-26.909 59.897-58.242z" fill="#e1d3ce"/><circle cx="196" cy="256" fill="#5b5555" r="15"/><circle cx="316" cy="256" fill="#463f3f" r="15"/><g><path d="m263.5 347.02h-7.5-7.5c-23.851-.353-37.5 5.74-37.5 29.98 0 24.814 20.186 45 45 45s45-20.186 45-45c0-24.397-13.652-30.126-37.5-29.98z" fill="#5b5555"/><path d="m301 377c0-24.397-13.652-30.126-37.5-29.98h-7.5v74.98c24.814 0 45-20.186 45-45z" fill="#463f3f"/></g><path d="m256 0c-88.857 0-165 75.224-165 136 0 66.094 83.408 75 165 75s165-8.906 165-75c0-60.776-76.143-136-165-136z" fill="#fff5f5"/><path d="m421 136c0-60.776-76.143-136-165-136v211c81.592 0 165-8.906 165-75z" fill="#efe2dd"/></g></svg>