<svg id="Capa_1" enable-background="new 0 0 512.017 512.017" height="512" viewBox="0 0 512.017 512.017" width="512" xmlns="http://www.w3.org/2000/svg"><g><g><path d="m84.49 163.455c-58.622-72.732-22.985-150.179-22.72-153.179 1.582-4.746 5.42-8.394 10.239-9.727 4.878-1.318 9.99-.161 13.77 3.076l99.609 85.459c3.545 3.047 5.479 7.573 5.2 12.246-.264 4.673-2.71 8.95-6.577 11.572l-79.453 53.584c-6.415 4.327-15.15 3.085-20.068-3.031z" fill="#cc7029"/></g><g><path d="m397.249 172.214-61.67-70.898c-2.622-3.018-3.926-6.943-3.633-10.942.293-3.984 2.153-7.676 5.186-10.283l89.106-76.465c3.779-3.252 8.965-4.424 13.77-3.076 4.819 1.333 8.657 4.98 10.239 9.727.197 3 39.066 88.737-30.791 162.422-5.987 6.327-16.305 6.288-22.207-.485z" fill="#994a0f"/></g><path d="m350.709 120.007h-94.7-94.471c-42.561 29.929-70.529 79.341-70.529 135 0 24.741 5.347 48.53 15.879 70.708 6.445 13.55 13.96 49.292 14.136 58.154.791 38.35 42.437 104.188 81.021 126.175 5.127 2.93 11.44 2.563 16.201-.879 4.761-3.428 7.09-9.331 5.933-15.103l-1.318-6.577c8.804 4.834 17.944 9.375 27.1 13.403 1.934.85 3.992 1.274 6.05 1.274s4.116-.425 6.05-1.274c9.155-4.028 18.296-8.569 27.1-13.403l-1.318 6.577c-1.157 5.771 1.172 11.675 5.933 15.103 4.763 3.452 11.06 3.774 16.201.879 35.054-19.995 74.854-79.476 80.347-118.06 2.051-14.355 10.239-55.693 16.802-70.664 9.214-20.933 13.887-43.242 13.887-66.313-.004-56.001-27.867-105.199-70.304-135z" fill="#cc7029"/><path d="m289.158 487.486-1.318 6.577c-1.157 5.771 1.172 11.675 5.933 15.103 4.763 3.452 11.06 3.774 16.201.879 35.054-19.995 74.854-79.476 80.347-118.06 2.051-14.355 10.239-55.693 16.802-70.664 9.214-20.933 13.887-43.242 13.887-66.313 0-56.001-27.863-105.2-70.3-135h-94.7v382.156c2.058 0 4.116-.425 6.05-1.274 9.154-4.029 18.294-8.57 27.098-13.404z" fill="#994a0f"/><circle cx="256.009" cy="345.007" fill="#e6455a" r="75"/><path d="m331.009 345.007c0-41.422-33.578-75-75-75v150c41.422 0 75-33.579 75-75z" fill="#b32437"/><circle cx="166.009" cy="225.007" fill="#463f3f" r="15"/><circle cx="346.009" cy="225.007" fill="#352c2c" r="15"/><g><path d="m83.699 41.375c-7.104 31.729-1.318 64.731 16.128 92.109l51.079-34.453z" fill="#463f3f"/></g><g><path d="m368.128 93.025 40.181 46.187c20.288-28.228 27.598-63.765 19.995-97.837z" fill="#352c2c"/></g><path d="m256.023 255.007c-.005 0-.009 0-.015 0-.035 0-.062 0-.088 0-112.939.044-194.912 75.747-194.912 180 0 15.952 2.153 33.344 6.387 49.75 3.398 13.242 25.62 13.242 29.048 0 17.344-67.266 79.16-139.75 159.565-139.75s142.222 72.484 159.565 139.75c1.714 6.621 7.69 11.25 14.531 11.25s12.817-4.629 14.517-11.25c4.233-16.406 6.387-33.798 6.387-49.75.001-107.373-86.892-180-194.985-180z" fill="#e68945"/><path d="m415.574 484.757c1.714 6.621 7.69 11.25 14.531 11.25s12.817-4.629 14.517-11.25c4.233-16.406 6.387-33.798 6.387-49.75 0-107.373-86.893-180-194.985-180-.005 0-.009 0-.015 0v90c80.405 0 142.221 72.485 159.565 139.75z" fill="#cc7029"/><path d="m376.492 91.003 3.706-11.162c1.509-4.482.791-9.419-1.904-13.301s-7.061-6.27-11.777-6.431l-5.508-.103c-39.639 0-77.051 15.469-105 42.949-27.949-27.48-65.361-42.949-105-42.949l-5.508.103c-4.717.161-9.082 2.549-11.777 6.431s-3.413 8.818-1.904 13.301l3.706 11.162c-58.887 7.618-104.517 58.082-104.517 119.004 0 10.884 1.758 21.782 5.508 34.307 3.823 12.744 24.946 12.686 28.74 0 11.528-38.467 45.981-64.307 85.752-64.307 39.741 0 74.209 25.84 85.752 64.292h19.248 19.248c11.543-38.452 46.011-64.292 85.752-64.292 39.771 0 74.224 25.84 85.752 64.307 1.904 6.343 7.734 10.693 14.37 10.693 6.621 0 12.466-4.351 14.37-10.693 3.75-12.524 5.508-23.423 5.508-34.307 0-60.922-45.63-111.386-104.517-119.004z" fill="#766e6e"/><path d="m361.009 180.007c39.771 0 74.224 25.84 85.752 64.307 1.904 6.343 7.734 10.693 14.37 10.693 6.621 0 12.466-4.351 14.37-10.693 3.75-12.524 5.508-23.423 5.508-34.307 0-60.923-45.63-111.387-104.517-119.004l3.706-11.162c1.509-4.482.791-9.419-1.904-13.301s-7.061-6.27-11.777-6.431l-5.508-.103c-39.639 0-77.051 15.469-105 42.949v141.343h19.248c11.543-38.451 46.01-64.291 85.752-64.291z" fill="#5b5555"/><g><path d="m263.509 225.027h-7.5-7.5c-23.851-.353-37.5 5.74-37.5 29.98 0 24.814 20.186 45 45 45s45-20.186 45-45c0-24.397-13.653-30.126-37.5-29.98z" fill="#463f3f"/><path d="m301.009 255.007c0-24.397-13.652-30.126-37.5-29.98h-7.5v74.98c24.814 0 45-20.185 45-45z" fill="#352c2c"/></g></g></svg>