<svg id="Capa_1" enable-background="new 0 0 512 512" height="512" viewBox="0 0 512 512" width="512" xmlns="http://www.w3.org/2000/svg"><g><path d="m451.341 142.563c-40.269-68.863-115.566-111.563-195.341-111.563-76.245 0-146.689 38.145-187.28 100.474l-38.72 79.526v135c0 30.352 13.14 59.209 36.035 79.175 19.307 16.831 45.048 25.898 69.467 25.884 4.526 0 9.053-.308 13.535-.938l106.963-1.655 90.908-1.406c32.329 8.774 66.786 2.622 92.992-16.992 26.763-20.04 42.1-50.684 42.1-84.068v-135z" fill="#c86e59"/><path d="m439.9 430.067c26.763-20.039 42.1-50.683 42.1-84.067v-135l-30.659-68.438c-40.269-68.862-115.566-111.562-195.341-111.562v417.466l90.908-1.406c32.329 8.774 66.786 2.622 92.992-16.993z" fill="#a34f3e"/><path d="m330.531 136.044c-2.036-8.042-10.283-12.876-18.252-10.811-20.962 5.361-40.151 15.688-56.279 30.161-16.128-14.473-35.317-24.8-56.279-30.161-8.013-2.065-16.201 2.769-18.252 10.811-2.051 8.027 2.783 16.201 10.811 18.252 18.545 4.753 35.184 14.736 48.721 28.61v43.094c0 8.291 6.709 15 15 15s15-6.709 15-15v-43.094c13.537-13.874 30.176-23.857 48.721-28.61 8.026-2.051 12.86-10.225 10.809-18.252z" fill="#a34f3e"/><path d="m271 226v-43.094c13.537-13.874 30.176-23.857 48.721-28.61 8.027-2.051 12.861-10.225 10.811-18.252-2.036-8.042-10.283-12.876-18.252-10.811-20.962 5.361-40.151 15.688-56.279 30.161v85.606c8.29 0 14.999-6.709 14.999-15z" fill="#873f2e"/><circle cx="166" cy="196" fill="#463f3f" r="15"/><circle cx="346" cy="196" fill="#352c2c" r="15"/><g><path d="m15 241c-8.291 0-15-6.709-15-15v-120c0-41.353 34.647-75 76-75h60c8.291 0 15 6.709 15 15v60c0 74.443-61.557 135-136 135z" fill="#5b5555"/></g><g><path d="m497 241c-74.443 0-136-60.557-136-135v-60c0-8.291 6.709-15 15-15h60c41.353 0 76 33.647 76 75v120c0 8.291-6.709 15-15 15z" fill="#463f3f"/></g><circle cx="256" cy="376" fill="#e6455a" r="105"/><path d="m361 376c0-57.99-47.01-105-105-105v210c57.99 0 105-47.01 105-105z" fill="#b32437"/><g><g><path d="m173.868 240.079c-32.012 24.659-52.868 62.895-52.868 105.921v90c0 24.814 20.186 45 45 45 17.314 0 33.281-10.107 40.693-25.767l49.307-139.233-33.114-60.61z" fill="#5b5555"/></g><g><path d="m337.872 240.339-51.887 17.951-29.985 57.71 49.307 139.233c7.412 15.66 23.379 25.767 40.693 25.767 24.814 0 45-20.186 45-45v-84.844c0-42.949-19.856-84.386-53.128-110.817z" fill="#463f3f"/></g></g><path d="m256 211.745c-31.157-.068-59.376 10.805-82.132 28.334l71.526 71.526c2.93 2.93 6.768 4.395 10.605 4.395s7.676-1.465 10.605-4.395l71.266-71.266c-21.974-17.457-49.653-28.528-81.87-28.594z" fill="#463f3f"/><path d="m337.872 240.339c-21.976-17.457-49.655-28.528-81.872-28.594v104.255c3.838 0 7.676-1.465 10.605-4.395z" fill="#352c2c"/></g></svg>