<svg id="Capa_1" enable-background="new 0 0 511.98 511.98" height="512" viewBox="0 0 511.98 511.98" width="512" xmlns="http://www.w3.org/2000/svg"><g><g><path d="m358.427 163.197c-2.856 0-5.728-.82-8.247-2.476l-99.727-65.625c-3.354-2.212-5.698-5.684-6.475-9.624-.776-3.955.073-9.042 2.344-12.367 52.412-76.64 129.156-73.696 154.307-72.846l4.922.146c8.291 0 15 6.709 15 15l.146 5.156c.879 23.73 3.193 87.763-52.119 138.666-2.842 2.623-6.489 3.97-10.151 3.97z" fill="#fcbb6d"/></g><g><path d="m126.19 140.844c-37.573-46.905-35.639-100.478-34.907-120.282l.146-5.156c0-8.291 6.709-15 15-15l4.922-.146c25.137-.85 101.895-3.809 154.307 72.847 2.549 3.706 3.281 9.364 2.021 13.686-1.274 4.321-4.409 7.837-8.54 9.595l-115.386 48.896c-6.149 2.6-13.339.844-17.563-4.44z" fill="#ffca80"/></g><path d="m255.99 29.98c-103.345 0-173.928 79.942-164.517 151l18.97 30h145.547 145.547l18.97-30c9.263-69.94-60.39-151-164.517-151z" fill="#ffe6b3"/><path d="m420.507 180.98c9.263-69.941-60.39-151-164.517-151v181h145.547z" fill="#ffca80"/><path d="m420.507 180.98h-18.97c-6.65 0-12.7-3.662-14.37-8.716-10.225-30.674-38.833-51.284-71.177-51.284-24.62 0-46.318 12.085-60 30.463-13.682-18.378-35.38-30.463-60-30.463-32.344 0-60.952 20.61-71.177 51.299-1.67 5.039-7.72 8.701-14.37 8.701h-18.97c-35.832 35.788-60.483 92.3-60.483 150 0 53.364 42.524 107.168 126.401 159.932 5.098 3.208 11.675 3.018 16.626-.439 4.951-3.486 7.31-9.609 6.006-15.513l-1.26-5.625c25.898 16.772 51.724 32.494 71.016 41.298 1.972.892 4.092 1.34 6.211 1.344.005 0 .009.004.015.004 2.124 0 4.233-.454 6.211-1.348 19.307-8.789 45.117-24.481 70.972-41.21l-1.23 5.537c-1.304 5.903 1.055 12.026 6.006 15.513 4.98 3.486 11.499 3.677 16.626.439 83.876-52.764 126.4-106.567 126.4-159.932 0-57.659-24.622-114.182-60.483-150z" fill="#fff7cc"/><path d="m262.216 510.633c19.307-8.789 45.117-24.481 70.972-41.21l-1.23 5.537c-1.304 5.903 1.055 12.026 6.006 15.513 4.98 3.486 11.499 3.677 16.626.439 83.876-52.764 126.4-106.567 126.4-159.932 0-57.66-24.623-114.183-60.483-150h-18.97c-6.65 0-12.7-3.662-14.37-8.716-10.225-30.674-38.833-51.284-71.177-51.284-24.62 0-46.318 12.085-60 30.463v360.533c.005 0 .009.004.015.004 2.124 0 4.233-.454 6.211-1.347z" fill="#ffe6b3"/><circle cx="195.99" cy="195.98" fill="#5b5555" r="15"/><circle cx="315.99" cy="195.98" fill="#463f3f" r="15"/><g><path d="m327.665 280.575c-2.109-8.013-10.298-12.715-18.325-10.708-17.739 4.688-32.227-6.27-36.68-18.955-2.45-7.009-9.587-10.723-16.631-9.532-.013-.002-.026.002-.038 0-7.068-1.249-14.214 2.496-16.67 9.532-4.438 12.686-18.867 23.73-36.68 18.955-7.969-2.007-16.23 2.695-18.325 10.708s2.695 16.216 10.708 18.325c23.309 6.083 46.41-1.679 60.967-18.214l.002-.002c14.551 16.525 37.639 24.304 60.965 18.215 8.012-2.108 12.802-10.311 10.707-18.324z" fill="#5b5555"/><path d="m316.957 298.9c8.013-2.109 12.803-10.313 10.708-18.325-2.109-8.013-10.298-12.715-18.325-10.708-17.739 4.688-32.227-6.27-36.68-18.955-2.45-7.009-9.587-10.723-16.631-9.532-.013-.002-.026.002-.038 0v39.307l.002-.002c14.55 16.525 37.638 24.304 60.964 18.215z" fill="#463f3f"/><g><path d="m263.49 196h-7.5-7.5c-23.851-.353-37.5 5.74-37.5 29.98 0 24.814 20.186 45 45 45s45-20.186 45-45c0-24.397-13.652-30.126-37.5-29.98z" fill="#5b5555"/><path d="m300.99 225.98c0-24.397-13.652-30.126-37.5-29.98h-7.5v74.98c24.815 0 45-20.185 45-45z" fill="#463f3f"/></g></g></g></svg>