<svg id="Capa_1" enable-background="new 0 0 512 512" height="512" viewBox="0 0 512 512" width="512" xmlns="http://www.w3.org/2000/svg"><g><g><path d="m180.973 92.679c-9.789-2.563-19.803-3.853-29.973-3.853-82.705 0-151 87.48-151 195 0 68.76 36.045 170.273 104.623 170.273 39.965 0 76.377-31.88 76.377-75.835z" fill="#e1d3ce"/></g><g><path d="m361 88.826c-19.446 0-38.375 4.779-55.939 13.9l25.939 157.033v118.506c0 43.663 36.079 75.835 76.377 75.835 68.525-.001 104.623-101.39 104.623-170.274 0-107.519-68.295-195-151-195z" fill="#ccb5ad"/></g><path d="m352.108 95.154 5.625-12.25c2.036-4.087 2.109-8.877.19-13.022-1.934-4.146-5.64-7.192-10.078-8.262-30.513-7.383-63.545-3.721-91.846 10.503-28.33-14.224-61.333-17.886-91.846-10.503-4.438 1.069-8.145 4.116-10.078 8.262-1.919 4.146-1.846 8.936.19 13.022l5.654 12.309c-42.008 15.384-68.919 55.389-68.919 98.613 0 40.928 23.745 77.739 60.103 94.775 1.084 25.181 11.03 48.765 28.55 67.31 19.761 20.918 47.593 32.915 76.348 32.915 28.74 0 56.543-11.982 76.289-32.856 17.534-18.53 27.48-42.1 28.608-67.266 36.357-17.139 60.102-54.009 60.102-94.878 0-45.044-28.008-83.862-68.892-98.672z" fill="#fff5f5"/><path d="m360.897 288.704c36.358-17.139 60.103-54.009 60.103-94.878 0-45.044-28.008-83.862-68.892-98.672l5.625-12.25c2.036-4.087 2.109-8.877.19-13.022-1.934-4.146-5.64-7.192-10.078-8.262-30.513-7.383-63.545-3.721-91.846 10.503v316.703c28.74 0 56.543-11.982 76.289-32.856 17.535-18.531 27.482-42.1 28.609-67.266z" fill="#efe2dd"/><path d="m349.018 232-5.596-5.596c-11.792-11.807-27.773-18.149-44.106-17.549-26.88.732-39.706 17.82-43.315 20.524-24.034-27.283-63.924-26.503-87.422-2.975l-5.597 5.596c-33.311 33.296-44.751 81.738-29.839 126.431 1.641 4.937 5.728 8.657 10.781 9.858 5.202 1.199 10.466-.401 14.063-4.014l5.977-5.991c14.282-14.282 33.926-24.229 61.816-31.304 12.253-3.107 21.727-9.155 30.22-18.865 8.518 9.743 18.036 15.776 30.205 18.865 27.905 7.075 47.549 17.021 61.816 31.289l5.991 6.006c3.587 3.605 8.849 5.217 14.063 4.014 5.054-1.201 9.141-4.922 10.781-9.858 14.913-44.693 3.472-93.135-29.838-126.431z" fill="#efe2dd"/><path d="m348.021 358.269 5.991 6.006c3.587 3.605 8.849 5.217 14.063 4.014 5.054-1.201 9.141-4.922 10.781-9.858 14.912-44.692 3.472-93.135-29.839-126.431l-5.596-5.596c-11.792-11.807-27.773-18.149-44.106-17.549-26.88.732-39.706 17.82-43.315 20.524v78.735c8.518 9.743 18.036 15.776 30.205 18.865 27.905 7.077 47.549 17.023 61.816 31.29z" fill="#e1d3ce"/><path d="m298.949 134.558c-4.204-7.178-13.403-9.565-20.522-5.376l-22.427 13.125-22.427-13.125c-7.134-4.189-16.318-1.802-20.522 5.376-4.175 7.148-1.772 16.333 5.376 20.522l30 17.563c2.338 1.368 4.957 2.051 7.573 2.051 2.618 0 5.237-.685 7.573-2.051l30-17.563c7.149-4.189 9.551-13.373 5.376-20.522z" fill="#efe2dd"/><path d="m263.573 172.644 30-17.563c7.148-4.189 9.551-13.374 5.376-20.522-4.204-7.178-13.403-9.565-20.522-5.376l-22.427 13.124v32.388c2.618 0 5.237-.685 7.573-2.051z" fill="#e1d3ce"/><g><circle cx="196" cy="178.826" fill="#5b5555" r="15"/></g><g><circle cx="316" cy="178.826" fill="#463f3f" r="15"/></g><g><path d="m263.5 223.846h-7.5-7.5c-23.851-.353-37.5 5.74-37.5 29.98 0 24.814 20.186 45 45 45s45-20.186 45-45c0-24.397-13.652-30.126-37.5-29.98z" fill="#463f3f"/><path d="m301 253.826c0-24.397-13.652-30.126-37.5-29.98h-7.5v74.98c24.814 0 45-20.186 45-45z" fill="#352c2c"/></g></g></svg>