<svg id="Capa_1" enable-background="new 0 0 511.978 511.978" height="512" viewBox="0 0 511.978 511.978" width="512" xmlns="http://www.w3.org/2000/svg"><g><path d="m270.989 57.877-15 37.048-15-37.048c-83.969 7.614-150 78.322-150 164.24 0 42.876 16.67 83.555 46.948 114.536 3.984 4.087 10.02 10.254 15.366 35.273 10.254 48.091 53.438 82.998 102.686 82.998 49.351 0 91.45-33.56 102.393-81.621 5.801-25.547 9.727-30.571 15.659-36.65 30.278-30.981 46.948-71.66 46.948-114.536 0-85.918-66.031-156.626-150-164.24z" fill="#c86e59"/><path d="m358.382 373.304c5.801-25.547 9.727-30.571 15.659-36.65 30.278-30.981 46.948-71.66 46.948-114.536 0-85.919-66.031-156.627-150-164.24l-15 37.048v360c49.351-.001 91.45-33.56 102.393-81.622z" fill="#a34f3e"/><g><path d="m25.053 256.38-20.523-56.382c-14.15-38.848 5.962-81.973 44.824-96.123l123.446-44.561c29.471-10.908 57.858 19.665 44.414 48.486-34.395 73.755-96.464 129.712-172.943 157.544-7.675 2.804-16.359-1.087-19.218-8.964z" fill="#a34f3e"/></g><g><path d="m467.707 265.345c-76.479-27.832-138.549-83.789-172.943-157.544-13.368-28.66 14.681-59.38 44.414-48.486l123.446 44.561c38.862 14.15 58.975 57.275 44.824 96.123l-20.522 56.382c-2.856 7.865-11.532 11.771-19.219 8.964z" fill="#873f2e"/></g><g><circle cx="195.989" cy="214.925" fill="#463f3f" r="15"/></g><g><circle cx="315.989" cy="214.925" fill="#352c2c" r="15"/></g><g><path d="m349.007 298.099-5.596-5.596c-11.792-11.807-27.773-18.149-44.106-17.549-26.88.732-39.706 17.82-43.315 20.524-24.034-27.283-63.924-26.503-87.422-2.975l-5.596 5.596c-33.311 33.296-44.751 81.738-29.839 126.431 1.641 4.937 5.728 8.657 10.781 9.858 5.202 1.199 10.466-.401 14.063-4.014l5.977-5.991c14.282-14.282 33.926-24.229 61.816-31.304 12.253-3.107 21.727-9.155 30.22-18.865 8.518 9.743 18.036 15.776 30.205 18.865 27.905 7.075 47.549 17.021 61.816 31.289l5.991 6.006c3.587 3.605 8.849 5.217 14.063 4.014 5.054-1.201 9.141-4.922 10.781-9.858 14.912-44.693 3.471-93.135-29.839-126.431z" fill="#fff5f5"/></g><g><path d="m348.011 424.368 5.991 6.006c3.587 3.605 8.849 5.217 14.063 4.014 5.054-1.201 9.141-4.922 10.781-9.858 14.912-44.692 3.472-93.135-29.839-126.431l-5.596-5.596c-11.792-11.807-27.773-18.149-44.106-17.549-26.88.732-39.706 17.82-43.315 20.524v78.735c8.518 9.743 18.036 15.776 30.205 18.865 27.905 7.077 47.548 17.023 61.816 31.29z" fill="#efe2dd"/></g><g><g><path d="m263.489 289.945h-7.5-7.5c-23.851-.353-37.5 5.741-37.5 29.98 0 24.814 20.186 45 45 45s45-20.186 45-45c0-24.397-13.652-30.126-37.5-29.98z" fill="#463f3f"/></g><g><path d="m300.989 319.925c0-24.397-13.652-30.126-37.5-29.98h-7.5v74.98c24.815 0 45-20.185 45-45z" fill="#352c2c"/></g></g><path d="m255.989 57.117c-5.063 0-10.052.311-15 .76v82.048c0 8.291 6.709 15 15 15s15-6.709 15-15v-82.048c-4.947-.448-9.937-.76-15-.76z" fill="#fff5f5"/><path d="m270.989 139.925v-82.048c-4.948-.449-9.937-.76-15-.76v97.808c8.291 0 15-6.709 15-15z" fill="#efe2dd"/></g></svg>