<svg id="Capa_1" enable-background="new 0 0 512.003 512.003" height="512" viewBox="0 0 512.003 512.003" width="512" xmlns="http://www.w3.org/2000/svg"><g><path d="m98.695 166.729c-3.442 0-6.899-1.187-9.683-3.545-61.069-51.636-58.638-117.73-57.715-142.603l.146-5.156c0-8.291 6.709-15 15-15l4.922-.146c24.517-.851 99.707-3.715 152.071 69.615 4.508 6.313 2.973 15.291-3.097 20.121l-92.3 73.448c-2.738 2.182-6.049 3.266-9.344 3.266z" fill="#cc7029"/><path d="m99.383 132.012c-36.035-36.064-38.76-78.003-38.35-101.982.864 0 1.743-.015 2.651-.015 44.136 0 79.819 15.41 106.289 45.82z" fill="#463f3f"/><path d="m398.695 177.832c-4.336 0-8.613-1.875-11.558-5.435l-74.062-89.385c-4.344-5.243-4.697-13.04-.551-18.441 52.091-67.86 124.37-65.143 148.119-64.293l4.922.146c8.291 0 15 6.709 15 15l.146 5.156c.923 25.239 3.765 102.026-73.594 154.658-2.578 1.744-5.507 2.594-8.422 2.594z" fill="#994a0f"/><path d="m344.129 73.477c26.207-28.857 61.187-43.462 104.18-43.462.908 0 1.802 0 2.651.015.352 25.913-3.208 74.429-49.79 112.28z" fill="#352c2c"/><path d="m256.004 0c-132.48 0-225 98.687-225 240 0 154.38 76.523 232.947 140.728 269.993 5.303 3.076 11.982 2.578 16.772-1.201 4.819-3.794 6.855-10.151 5.112-16.025l-1.04-3.574c32.988 17.754 59.487 22.354 60.967 22.603.806.132 1.633 0 2.461 0s1.655.132 2.461 0c1.479-.249 27.979-4.849 60.967-22.603l-1.04 3.574c-1.743 5.874.293 12.231 5.112 16.025 2.695 2.124 5.977 3.208 9.272 3.208 2.578 0 5.171-.659 7.5-2.007 64.205-37.046 140.728-115.613 140.728-269.993 0-141.313-92.519-240-225-240z" fill="#e68945"/><path d="m319.432 489.192-1.04 3.574c-1.743 5.874.293 12.231 5.112 16.025 2.695 2.124 5.977 3.208 9.272 3.208 2.578 0 5.171-.659 7.5-2.007 64.205-37.045 140.728-115.612 140.728-269.992 0-141.313-92.52-240-225-240v511.795c.828 0 1.655.132 2.461 0 1.48-.249 27.979-4.849 60.967-22.603z" fill="#cc7029"/><path d="m256.004 361h-73.488c6.951 34.232 37.203 60 73.488 60s66.537-25.768 73.488-60z" fill="#e6455a"/><path d="m329.492 361h-73.488v60c36.284 0 66.537-25.768 73.488-60z" fill="#b32437"/><path d="m365.911 113.979c-13.549-15.234-33.032-23.979-53.423-23.979-22.939 0-43.389 10.869-56.484 27.715-13.096-16.846-33.545-27.715-56.484-27.715-20.391 0-39.873 8.745-53.423 23.979-13.55 15.249-19.951 35.596-17.52 56.162l22.427 160.859c0 33.091 26.909 60 60 60 17.549 0 33.823-7.676 45-20.317 11.177 12.642 27.451 20.317 45 20.317 33.091 0 60-26.909 59.854-57.92l22.617-163.246c2.388-20.259-4.014-40.605-17.564-55.855z" fill="#766e6e"/><path d="m360.858 333.08 22.617-163.246c2.388-20.259-4.014-40.605-17.563-55.854-13.55-15.235-33.033-23.98-53.424-23.98-22.939 0-43.389 10.869-56.484 27.715v252.968c11.177 12.642 27.451 20.317 45 20.317 33.091 0 60-26.909 59.854-57.92z" fill="#5b5555"/><circle cx="196.004" cy="195" fill="#463f3f" r="15"/><circle cx="316.004" cy="195" fill="#352c2c" r="15"/><g><path d="m263.504 286.02h-7.5-7.5c-23.851-.353-37.5 5.741-37.5 29.98 0 24.814 20.186 45 45 45s45-20.186 45-45c0-24.397-13.652-30.126-37.5-29.98z" fill="#463f3f"/><path d="m301.004 316c0-24.397-13.652-30.126-37.5-29.98h-7.5v74.98c24.815 0 45-20.186 45-45z" fill="#352c2c"/></g></g></svg>