<svg id="Capa_1" enable-background="new 0 0 512 512" height="512" viewBox="0 0 512 512" width="512" xmlns="http://www.w3.org/2000/svg"><g><g><path d="m166.015 211.059c-41.463 0-75.015-34.028-75.015-75.059 0-74.574 60.461-136 135-136 8.291 0 15 6.709 15 15v149.843c0 3.647-1.333 7.163-3.735 9.902-20.816 23.687-46.158 36.314-71.25 36.314z" fill="#ffb64c"/></g><g><path d="m345.985 211.059c-25.107 0-50.464-12.642-71.309-36.387-2.402-2.739-3.677-6.255-3.677-9.902l.045-149.77c0-3.984 1.538-7.793 4.351-10.605s6.621-4.395 10.605-4.395c74.555 0 135 61.339 135 136 0 40.963-33.466 75.059-75.015 75.059z" fill="#ff9100"/></g><g><path d="m121 136c0 18.633 11.704 35.566 29.136 42.129 19.79 7.485 41.763.498 60.864-19.146v-127.899c-51.37 7.405-90 52.393-90 104.916z" fill="#ff9100"/></g><g><path d="m300.956 158.925c19.116 19.673 41.074 26.748 60.894 19.204 17.431-6.563 29.15-23.496 29.15-42.129 0-53.381-39.581-97.78-90-104.945z" fill="#ff641a"/></g><path d="m256 91c-116.631 0-195 84.39-195 210 0 54.078 26.834 102.182 62.131 138.741l132.869-.031 132.933-.033c35.266-36.552 62.067-84.63 62.067-138.677 0-125.61-78.369-210-195-210z" fill="#ffd396"/><path d="m451 301c0-125.61-78.369-210-195-210v348.71l132.933-.033c35.266-36.552 62.067-84.63 62.067-138.677z" fill="#ffb64c"/><g><circle cx="166" cy="256" fill="#5b5555" r="15"/></g><g><circle cx="346" cy="256" fill="#463f3f" r="15"/></g><path d="m349.735 334.94c-31.435-26.821-48.735-61.127-48.735-96.591v-12.349c0-24.814-20.186-45-45-45s-45 20.186-45 45v12.349c0 35.464-17.3 69.771-48.735 96.592-26.602 22.705-41.265 53.261-41.265 86.059 0 6.418 1.035 12.592 2.131 18.741 42.51 44.029 97.336 72.259 132.869 72.259 35.552 0 90.414-28.255 132.933-72.323 1.075-6.149 2.067-12.327 2.067-18.677 0-32.798-14.663-63.354-41.265-86.06z" fill="#ffe6b3"/><path d="m391 421c0-32.798-14.663-63.354-41.265-86.06-31.435-26.821-48.735-61.127-48.735-96.591v-12.349c0-24.814-20.186-45-45-45v331c35.552 0 90.414-28.255 132.933-72.323 1.075-6.149 2.067-12.327 2.067-18.677z" fill="#ffca80"/><g><path d="m327.675 430.595c-2.109-8.013-10.298-12.715-18.325-10.708-17.739 4.688-32.227-6.27-36.68-18.955-2.45-7.009-9.587-10.723-16.631-9.532-.013-.002-.026.002-.038 0-7.068-1.249-14.214 2.496-16.67 9.532-4.438 12.686-18.867 23.73-36.68 18.955-7.969-2.007-16.23 2.695-18.325 10.708s2.695 16.216 10.708 18.325c23.309 6.083 46.41-1.679 60.967-18.214l.002-.002c14.551 16.525 37.639 24.304 60.965 18.215 8.011-2.108 12.802-10.312 10.707-18.324z" fill="#5b5555"/><path d="m316.967 448.92c8.013-2.109 12.803-10.313 10.708-18.325-2.109-8.013-10.298-12.715-18.325-10.708-17.739 4.688-32.227-6.27-36.68-18.955-2.45-7.009-9.587-10.723-16.631-9.532-.013-.002-.026.002-.038 0v39.307l.002-.002c14.55 16.525 37.638 24.303 60.964 18.215z" fill="#463f3f"/><g><path d="m263.5 346.02h-7.5-7.5c-23.851-.353-37.5 5.74-37.5 29.98 0 24.814 20.186 45 45 45s45-20.186 45-45c0-24.397-13.652-30.126-37.5-29.98z" fill="#5b5555"/><path d="m301 376c0-24.397-13.652-30.126-37.5-29.98h-7.5v74.98c24.814 0 45-20.186 45-45z" fill="#463f3f"/></g></g></g></svg>