<svg id="Capa_1" enable-background="new 0 0 512 512" height="512" viewBox="0 0 512 512" width="512" xmlns="http://www.w3.org/2000/svg"><g><g><path d="m256 452h-73.488c6.951 34.232 37.203 60 73.488 60s66.537-25.768 73.488-60z" fill="#e6455a"/></g><g><path d="m329.488 452h-73.488v60c36.284 0 66.537-25.768 73.488-60z" fill="#b32437"/></g><g><path d="m121 512c-21.855 0-42.631-12.026-53.075-30.542-35.391 4.863-67.925-23.716-67.925-59.458 0-19.248 8.687-36.709 23.833-47.915 26.763-19.79 38.906-50.277 31.714-77.963l-3.706-14.224c-21.826-83.891 25.756-168.603 109.325-197.065 4.585-1.597 9.624-.82 13.564 1.992 3.94 2.827 6.27 7.368 6.27 12.202v352.973c0 33.091-26.909 60-60 60z" fill="#e1d3ce"/></g><g><path d="m391 512c-33.091 0-60-26.909-60-60v-30.718l10.107-318.944c.146-4.922 2.71-9.448 6.855-12.129 4.146-2.666 9.375-3.12 13.887-1.245 77.124 32.051 119.052 113.188 98.31 192.935l-3.706 14.224c-7.192 27.686 4.951 58.173 31.714 77.963 15.146 11.205 23.833 28.666 23.833 47.914 0 35.742-32.52 64.38-67.925 59.458-10.444 18.516-31.22 30.542-53.075 30.542z" fill="#ccb5ad"/></g><path d="m256 154.706h-136.436l31.436 267.294c0 33.091 26.909 60 60 60 17.721 0 33.818-8.163 45-21.022 11.182 12.859 27.279 21.022 45 21.022 33.091 0 60-26.909 59.897-58.242l31.538-269.052z" fill="#efe2dd"/><path d="m360.897 423.758 31.538-269.052h-136.435v306.272c11.182 12.859 27.279 21.022 45 21.022 33.091 0 60-26.909 59.897-58.242z" fill="#e1d3ce"/><path d="m391 76.322c0-.103 0-.22 0-.322 0-41.353-33.647-76-75-76-10.356 0-20.42 2.168-30 6.475-9.58-4.307-19.79-6.46-30-6.46s-20.42 2.153-30 6.46c-9.58-4.307-19.644-6.475-30-6.475-41.353 0-75 34.647-75 76v.322c-18.721 14.077-30 36.153-30 59.678 0 41.353 33.647 75 75 75 10.356 0 20.42-2.168 30-6.475 19.16 8.613 40.84 8.613 60 0 19.16 8.613 40.84 8.613 60 0 9.58 4.307 19.644 6.475 30 6.475 41.353 0 75-33.647 75-75 0-23.525-11.279-45.601-30-59.678z" fill="#fff5f5"/><path d="m316 204.525c9.58 4.307 19.644 6.475 30 6.475 41.353 0 75-33.647 75-75 0-23.525-11.279-45.601-30-59.678 0-.103 0-.22 0-.322 0-41.353-33.647-76-75-76-10.356 0-20.42 2.168-30 6.475-9.58-4.307-19.79-6.46-30-6.46v204.511c19.16 8.613 40.84 8.613 60-.001z" fill="#efe2dd"/><g><circle cx="316" cy="256" fill="#463f3f" r="15"/></g><g><circle cx="196" cy="256" fill="#5b5555" r="15"/></g><g><g><path d="m263.5 377.02h-7.5-7.5c-23.851-.353-37.5 5.74-37.5 29.98 0 24.814 20.186 45 45 45s45-20.186 45-45c0-24.397-13.652-30.126-37.5-29.98z" fill="#5b5555"/></g><g><path d="m301 407c0-24.397-13.652-30.126-37.5-29.98h-7.5v74.98c24.814 0 45-20.186 45-45z" fill="#463f3f"/></g></g></g></svg>