<svg id="Capa_1" enable-background="new 0 0 512 512" height="512" viewBox="0 0 512 512" width="512" xmlns="http://www.w3.org/2000/svg"><g><g><path d="m136.146 210.985c-18.604 0-36.665-6.87-50.493-19.395-15.674-14.194-24.653-34.452-24.653-55.59v-121c0-8.291 6.709-15 15-15 76.655 0 144.374 55.214 161.03 129.921 1.274 5.654-.85 11.543-5.42 15.103l-80.303 62.505c-2.241 1.743-4.922 2.813-7.734 3.091-2.475.248-4.966.365-7.427.365z" fill="#5b5555"/></g><g><path d="m376.015 211c-7.954 0-16.011-1.23-23.965-3.735-1.846-.586-3.56-1.523-5.054-2.769l-67.72-56.133c-4.233-3.501-6.211-9.053-5.156-14.443 15.176-77.022 83.247-133.92 161.88-133.92 8.291 0 15 6.709 15 15v121c0 23.804-11.47 46.421-30.674 60.513-13.037 9.55-28.432 14.487-44.311 14.487z" fill="#463f3f"/></g><g><path d="m91 30.85v105.15c0 12.686 5.391 24.844 14.795 33.354 8.54 7.72 20.142 12.51 30.762 11.631l68.848-53.584c-15.411-51.591-61.099-90.502-114.405-96.551z" fill="#e1d3ce"/></g><g><path d="m363.725 179.403c13.755 3.574 27.803 1.011 38.848-7.075 11.542-8.467 18.427-22.046 18.427-36.328v-105.165c-54.946 6.138-101.191 46.615-115.474 100.331z" fill="#ccb5ad"/></g><path d="m448.9 269.2c-7.5-33.301-37.2-88.2-72.9-88.2h-120-120c-35.7 0-65.4 54.899-72.9 88.2-1.5 10.199-2.1 20.7-2.1 31.8 0 119.099 129.901 211 195 211s195-91.901 195-211c0-11.1-.601-21.601-2.1-31.8z" fill="#766e6e"/><path d="m451 301c0-11.1-.601-21.601-2.1-31.8-7.5-33.301-37.2-88.2-72.9-88.2h-120v331c65.099 0 195-91.901 195-211z" fill="#5b5555"/><g><path d="m256 391h-73.488c6.951 34.232 37.203 60 73.488 60s66.537-25.768 73.488-60z" fill="#e6455a"/></g><g><path d="m329.488 391h-73.488v60c36.284 0 66.537-25.768 73.488-60z" fill="#b32437"/></g><path d="m256 91c-109.124 0-182.576 73.766-192.9 178.2 7.5-33.301 37.2-58.2 72.9-58.2 32.531 0 60.938 21.13 71.133 51.211 1.525 4.501.291 9.802-2.549 13.61-14.885 19.971-25.195 29.762-32.283 36.579-12.601 11.999-19.2 19.199-21 41.999-2.401 29.7 15.601 56.7 42.9 64.2 5.7 1.8 11.4 2.401 16.8 2.401 17.701 0 33.6-7.8 45-21 11.1 13.2 27.299 21 45 21 37.2 0 62.401-31.8 59.7-66.601-1.8-22.8-8.399-30-21-41.999-7.088-6.817-17.399-16.608-32.283-36.579-2.84-3.809-4.074-9.109-2.549-13.61 10.194-30.081 38.6-51.211 71.131-51.211 35.7 0 65.4 24.899 72.9 58.2-10.309-104.284-83.604-178.2-192.9-178.2z" fill="#fff5f5"/><path d="m360.7 354.399c-1.8-22.8-8.399-30-21-41.999-7.088-6.817-17.399-16.608-32.283-36.579-2.84-3.809-4.074-9.109-2.549-13.61 10.195-30.081 38.601-51.211 71.132-51.211 35.7 0 65.4 24.899 72.9 58.2-10.309-104.284-83.604-178.2-192.9-178.2v309c11.1 13.2 27.299 21 45 21 37.2 0 62.401-31.8 59.7-66.601z" fill="#efe2dd"/><circle cx="166" cy="256" fill="#463f3f" r="15"/><circle cx="346" cy="256" fill="#352c2c" r="15"/><g><g><path d="m263.5 316.02h-7.5-7.5c-23.851-.353-37.5 5.74-37.5 29.98 0 24.814 20.186 45 45 45s45-20.186 45-45c0-24.397-13.652-30.126-37.5-29.98z" fill="#463f3f"/></g><g><path d="m301 346c0-24.397-13.652-30.126-37.5-29.98h-7.5v74.98c24.814 0 45-20.186 45-45z" fill="#352c2c"/></g></g></g></svg>