<svg id="Capa_1" enable-background="new 0 0 512 512" height="512" viewBox="0 0 512 512" width="512" xmlns="http://www.w3.org/2000/svg"><g><g><g><path d="m136 436c-82.017 0-136-58.872-136-150 0-99.126 58.729-210 136-210 18.34 0 36.255 6.328 53.232 18.794 3.809 2.783 6.079 7.207 6.123 11.924l3.164 305.522c.059 6.211-3.706 11.821-9.492 14.106-16.186 6.402-34.028 9.654-53.027 9.654z" fill="#e1d3ce"/></g></g><g><g><path d="m376 436c-18.999 0-36.841-3.252-53.027-9.653-5.786-2.285-9.551-7.896-9.492-14.106l3.164-305.522c.044-4.717 2.314-9.141 6.123-11.924 16.977-12.467 34.892-18.795 53.232-18.795 77.271 0 136 110.874 136 210 0 91.128-53.983 150-136 150z" fill="#ccb5ad"/></g></g><circle cx="256" cy="241" fill="#fff5f5" r="195"/><path d="m451 241c0-107.695-87.305-195-195-195v390c107.695 0 195-87.305 195-195z" fill="#efe2dd"/><ellipse cx="256" cy="361" fill="#efe2dd" rx="135" ry="105"/><path d="m391 361c0-57.891-60.557-105-135-105v210c74.443 0 135-47.109 135-105z" fill="#e1d3ce"/><g><circle cx="196" cy="241" fill="#5b5555" r="15"/></g><g><circle cx="316" cy="241" fill="#463f3f" r="15"/></g><path d="m256 346c-8.291 0-15 6.709-15 15v30c0 8.291 6.709 15 15 15s15-6.709 15-15v-30c0-8.291-6.709-15-15-15z" fill="#766e6e"/><path d="m271 391v-30c0-8.291-6.709-15-15-15v60c8.291 0 15-6.709 15-15z" fill="#5b5555"/><g><g><g><path d="m263.5 301.02h-7.5-7.5c-23.851-.353-37.5 5.74-37.5 29.98 0 24.814 20.186 45 45 45s45-20.186 45-45c0-24.397-13.652-30.126-37.5-29.98z" fill="#5b5555"/></g></g><g><g><path d="m301 331c0-24.397-13.652-30.126-37.5-29.98h-7.5v74.98c24.814 0 45-20.186 45-45z" fill="#463f3f"/></g></g></g></g></svg>