<svg id="Capa_1" enable-background="new 0 0 512 512" height="512" viewBox="0 0 512 512" width="512" xmlns="http://www.w3.org/2000/svg"><g><g><path d="m435.991 392c-66.064 0-123.428-50.175-133.433-115.39l-4.893-200.215c-.19-8.262 6.328-15.117 14.59-15.352 36.577-.732 70.649 12.246 96.87 37.222 26.221 24.99 41.089 58.682 41.865 94.863-.161 21.372-5.83 42.114-16.876 62.095-5.991 10.84-13.124 28.568-13.124 46.776 0 34.966 25.957 64.746 26.206 65.039 3.911 4.424 4.878 10.737 2.461 16.113-2.43 5.377-7.762 8.849-13.666 8.849z" fill="#ff9100"/></g><g><path d="m75.991 392c-5.903 0-11.235-3.472-13.667-8.848-2.417-5.376-1.45-11.689 2.461-16.113.249-.293 26.206-30.073 26.206-65.039 0-18.208-7.134-35.937-13.126-46.776-11.044-19.995-16.713-40.752-16.845-61.685 1.245-60.073 40.635-111.123 98.013-127.412 4.146-1.172 8.555-.542 12.202 1.802 3.618 2.329 6.064 6.079 6.724 10.327l30.688 198.296c.264 1.714.234 4.442-.103 6.142-12.216 63.339-67.968 109.306-132.553 109.306z" fill="#ffb64c"/></g><path d="m270.991 0h-15-15c-66.167 0-120 54.833-120 121 0 7.251.645 14.355 1.699 19.966l28.301 311.034c0 33.091 26.909 60 60 60 17.549 0 33.823-7.676 45-20.317 11.177 12.642 27.451 20.317 45 20.317 33.091 0 60-26.909 59.941-58.652l27.803-309.042c1.494-7.603 2.256-15.439 2.256-23.306 0-66.167-53.833-121-120-121z" fill="#fff5f5"/><path d="m360.933 453.348 27.803-309.042c1.494-7.603 2.256-15.439 2.256-23.306 0-66.167-53.833-121-120-121h-15v491.683c11.177 12.642 27.451 20.317 45 20.317 33.09 0 59.999-26.909 59.941-58.652z" fill="#efe2dd"/><g><circle cx="195.991" cy="196" fill="#5b5555" r="15"/></g><g><circle cx="315.991" cy="196" fill="#352c2c" r="15"/></g><g><path d="m263.491 407.02h-7.5-7.5c-23.851-.353-37.5 5.741-37.5 29.98 0 24.814 20.186 45 45 45s45-20.186 45-45c0-24.397-13.652-30.126-37.5-29.98z" fill="#5b5555"/><path d="m300.991 437c0-24.397-13.652-30.126-37.5-29.98h-7.5v74.98c24.815 0 45-20.186 45-45z" fill="#352c2c"/></g></g></svg>