<svg id="Capa_1" enable-background="new 0 0 512 512" height="512" viewBox="0 0 512 512" width="512" xmlns="http://www.w3.org/2000/svg"><g><path d="m331 0c-24.272 0-45.586 13.198-63.34 39.243-3.589 5.273-9.346 5.845-11.66 5.845s-8.071-.571-11.66-5.845c-17.754-26.045-39.068-39.243-63.34-39.243-91.567 0-150 187.563-150 316 0 137.798 78.149 196 120 196 23.101 0 70.02-18.402 105-61 34.98 42.598 81.899 61 105 61 41.851 0 120-58.202 120-196 0-128.437-58.433-316-150-316z" fill="#e68945"/><path d="m361 512c41.851 0 120-58.202 120-196 0-128.437-58.433-316-150-316-24.272 0-45.586 13.198-63.34 39.243-3.589 5.273-9.346 5.845-11.66 5.845v405.912c34.98 42.598 81.899 61 105 61z" fill="#cc7029"/><circle cx="256" cy="331" fill="#766e6e" r="120"/><path d="m376 331c0-66.167-53.833-120-120-120v240c29.399 0 120-53.994 120-120z" fill="#5b5555"/><g><circle cx="196" cy="166" fill="#463f3f" r="15"/></g><g><circle cx="316" cy="166" fill="#352c2c" r="15"/></g><path d="m327.675 325.595c-2.109-8.013-10.298-12.715-18.325-10.708-17.739 4.688-32.227-6.27-36.68-18.955-2.45-7.009-9.587-10.723-16.631-9.532-.013-.002-.026.002-.038 0-7.068-1.249-14.214 2.496-16.67 9.532-4.438 12.686-18.867 23.73-36.68 18.955-7.969-2.007-16.23 2.695-18.325 10.708s2.695 16.216 10.708 18.325c23.309 6.083 46.41-1.679 60.967-18.214l.002-.002c14.551 16.525 37.639 24.304 60.965 18.215 8.011-2.108 12.802-10.312 10.707-18.324z" fill="#463f3f"/><path d="m316.967 343.92c8.013-2.109 12.803-10.313 10.708-18.325-2.109-8.013-10.298-12.715-18.325-10.708-17.739 4.688-32.227-6.27-36.68-18.955-2.45-7.009-9.587-10.723-16.631-9.532-.013-.002-.026.002-.038 0v39.307l.002-.002c14.55 16.525 37.638 24.303 60.964 18.215z" fill="#352c2c"/><g><path d="m263.5 241.02h-7.5-7.5c-23.851-.353-37.5 5.74-37.5 29.98 0 24.814 20.186 45 45 45s45-20.186 45-45c0-24.397-13.652-30.126-37.5-29.98z" fill="#463f3f"/><path d="m301 271c0-24.397-13.652-30.126-37.5-29.98h-7.5v74.98c24.814 0 45-20.186 45-45z" fill="#352c2c"/></g><path d="m316 91c-24.62 0-46.318 14.5-60 36.555-13.682-22.055-35.38-36.555-60-36.555-41.353 0-75 40.371-75 90 0 5.977.483 11.792 1.392 17.417 1.335 8.172 9.045 13.707 17.227 12.393 8.174-1.333 13.726-9.053 12.393-17.227-.675-4.072-1.012-8.276-1.012-12.583 0-33.091 20.186-60 45-60s45 26.909 45 60c0 8.291 6.709 15 15 15s15-6.709 15-15c0-33.091 20.186-60 45-60s45 26.909 45 60c0 4.307-.337 8.511-1.011 12.583-1.333 8.174 4.219 15.894 12.393 17.227 8.177 1.315 15.892-4.217 17.227-12.393.908-5.625 1.391-11.44 1.391-17.417 0-49.629-33.647-90-75-90z" fill="#cc7029"/><path d="m271 181c0-33.091 20.186-60 45-60s45 26.909 45 60c0 4.307-.337 8.511-1.011 12.583-1.333 8.174 4.219 15.894 12.393 17.227 8.177 1.315 15.892-4.217 17.227-12.393.908-5.625 1.391-11.44 1.391-17.417 0-49.629-33.647-90-75-90-24.62 0-46.318 14.5-60 36.555v68.445c8.291 0 15-6.709 15-15z" fill="#994a0f"/></g></svg>