<svg id="Capa_1" enable-background="new 0 0 511.999 511.999" height="512" viewBox="0 0 511.999 511.999" width="512" xmlns="http://www.w3.org/2000/svg"><g><g><path d="m255.999 420.999h-73.488c6.951 34.232 37.203 60 73.488 60s66.537-25.768 73.488-60z" fill="#e6455a"/></g><g><path d="m329.487 420.999h-73.488v60c36.285 0 66.537-25.768 73.488-60z" fill="#b32437"/></g><path d="m410.833 253.421-20.394-88.004-134.44-2.053-130.649-1.994-25.122 122.461c6.24 30.146 32.695 55.825 59.795 68.525-4.189 9.038-7.793 19.819-8.76 31.948-2.829 35.594 22.976 66.665 59.546 66.665 17.618 0 33.88-7.961 45.19-20.947 11.31 12.986 27.572 20.947 45.19 20.947 36.575 0 62.375-31.077 59.546-66.68-.967-12.1-4.556-22.866-8.73-31.904 20.508-9.565 39.492-26.133 50.42-44.78 10.415-17.768 13.316-36.518 8.408-54.184z" fill="#766e6e"/><path d="m360.736 384.29c-.967-12.1-4.556-22.866-8.73-31.904 20.508-9.565 39.492-26.133 50.42-44.78 10.415-17.769 13.315-36.519 8.408-54.185l-20.394-88.004-134.44-2.053v266.658c11.31 12.986 27.572 20.947 45.19 20.947 36.575.001 62.375-31.076 59.546-66.679z" fill="#5b5555"/><g><path d="m100.697 240.999c-44.487 0-85.097-28.228-99.862-70.605-1.523-4.365-.938-9.185 1.567-13.066s6.65-6.401 11.265-6.812c18.091-1.626 32.725-13.447 38.423-29.517h-36.929c-4.878 0-9.448-2.373-12.261-6.357-2.813-3.97-3.501-9.082-1.875-13.667 14.897-41.851 55.521-69.976 99.628-69.976 58.449 0 105.606 47.61 105 106.084-.644 61.728-44.926 103.916-104.956 103.916z" fill="#5b5555"/></g><g><path d="m407.274 240.912c-60.381-2.285-99.038-41.235-100.884-101.646-1.822-59.417 45.724-108.267 104.956-108.267 44.106 0 84.73 28.125 99.628 69.976 1.626 4.585.938 9.697-1.875 13.667-2.813 3.984-7.383 6.357-12.261 6.357h-36.928c5.698 16.069 20.332 27.891 38.423 29.517 4.614.41 8.76 2.93 11.265 6.812s3.091 8.701 1.567 13.066c-15.434 44.277-58.284 72.479-103.891 70.518z" fill="#463f3f"/></g><circle cx="195.999" cy="285.999" fill="#463f3f" r="15"/><circle cx="315.999" cy="285.999" fill="#352c2c" r="15"/><g><g><path d="m263.499 346.019h-7.5-7.5c-23.851-.353-37.5 5.74-37.5 29.98 0 24.814 20.186 45 45 45s45-20.186 45-45c0-24.397-13.652-30.126-37.5-29.98z" fill="#463f3f"/></g><g><path d="m300.999 375.999c0-24.397-13.652-30.126-37.5-29.98h-7.5v74.98c24.815 0 45-20.185 45-45z" fill="#352c2c"/></g></g><path d="m301.38 120.999c-15.454 0-30.615 3.032-45.19 9.009-.062-.026-.128-.031-.19-.057-14.531-5.925-29.626-8.952-45-8.952-82.705 0-150 87.48-150 195 0 47.212 13.198 92.813 37.163 128.408 3.984 5.947 11.616 8.203 18.208 5.464 6.606-2.754 10.342-9.785 8.936-16.787-2.49-12.422-4.307-54.771-4.307-72.085 0-91.694 59.158-169.88 135-178.987.066-.007.124-.038.19-.046 75.938 8.994 135.19 87.261 135.19 179.033 0 17.314-1.816 59.663-4.307 72.085-1.406 7.002 2.329 14.033 8.936 16.787 6.4 2.699 14.149.595 18.223-5.464 23.95-35.625 37.148-81.226 37.148-128.408 0-107.519-67.295-195-150-195z" fill="#fff5f5"/><path d="m391.38 360.999c0 17.314-1.816 59.663-4.307 72.085-1.406 7.002 2.329 14.033 8.936 16.787 6.4 2.699 14.149.595 18.223-5.464 23.95-35.625 37.148-81.226 37.148-128.408 0-107.52-67.295-195-150-195-15.454 0-30.615 3.032-45.19 9.009-.062-.026-.128-.031-.19-.057v52.061c.066-.007.124-.038.19-.046 75.937 8.994 135.19 87.261 135.19 179.033z" fill="#efe2dd"/></g></svg>