<svg id="Capa_1" enable-background="new 0 0 512 512" height="512" viewBox="0 0 512 512" width="512" xmlns="http://www.w3.org/2000/svg"><g><g><path d="m432.199 127.209-176.199 11.157-10.667 135.634 10.667 194.805c13.017 13.767 31.225 21.801 50.835 21.8h.362c18.207-.092 35.585-6.961 48.935-19.342 13.349-12.38 21.505-29.193 22.966-47.341l1.742-27.796c14.907-18.464 73.78-96.603 73.78-178.867-.001-31.81-7.774-62.507-22.421-90.05z" fill="#dcd2cd"/><path d="m256 21.394-7.667 51.272 7.667 65.7c19.381 25.396 49.96 41.787 84.373 41.787 39.223 0 73.471-21.291 91.826-52.944-9.393-17.663-21.606-34.034-36.435-48.558-37.7-36.922-87.336-57.257-139.764-57.257z" fill="#1b303e"/><path d="m248.192 21.56c-49.532 1.916-96.133 22.008-131.955 57.093-37.954 37.172-58.855 86.397-58.855 138.608 0 82.263 58.873 160.402 73.78 178.866l1.723 27.529.019.267c1.461 18.148 9.617 34.961 22.967 47.341 13.349 12.381 30.728 19.25 48.934 19.342 19.748.075 38.099-7.948 51.196-21.8l.001.001v-330.441z" fill="#efe2dd"/><path d="m248.192 21.56c-8.841 15.485-13.896 33.41-13.896 52.517 0 24.172 8.091 46.451 21.704 64.289v-116.972c-2.611 0-5.212.065-7.808.166z" fill="#28485e"/></g><path d="m149.5 230.927h30v30h-30z" fill="#28485e"/><path d="m332.5 230.927h30v30h-30z" fill="#1b303e"/><g><path d="m60.143 51.845c-11.605 6.375-22.154 14.754-31.103 24.89-21.985 24.905-32.245 58.083-28.16 91.048l17.654 161.607h28.511c35.313 0 65.288-26.325 69.885-61.297l6.309-35.829c5.713-31.728 13.28-57.858 23.402-80.149z" fill="#f7f0eb"/><g fill="#36607d"><path d="m177.253 103.759v-66.259h-61.24c-19.739 0-38.929 5.037-55.87 14.345-.102 1.803-.159 3.618-.159 5.446 0 49.699 38.082 90.496 86.656 94.823 7.553-16.634 16.525-31.134 27.223-44.212z"/><path d="m31.985 161.105h30v30h-30z"/></g></g><g><g><path d="m506.931 206.13 4.189-38.347c4.085-32.964-6.175-66.143-28.16-91.047-22.013-24.935-53.713-39.236-86.973-39.236h-61.241v66.259l3.39 4.144c25.035 30.604 40.648 68.958 50.614 124.304l.724 4.113z" fill="#efe2dd"/><path d="m464.955 329.39h28.511l13.465-123.26c-12.935-8.673-28.493-13.737-45.237-13.737-31.428 0-58.673 17.835-72.219 43.926l5.595 31.774c4.597 34.972 34.572 61.297 69.885 61.297z" fill="#28485e"/></g><path d="m420.801 106.542h30v30h-30z" fill="#28485e"/></g><g><path d="m267.033 362.667h-11.033l-11.966 32.375 11.966 52.958 29.633-18.178c10.89-6.534 17.553-18.302 17.553-31.001 0-19.968-16.186-36.154-36.153-36.154z" fill="#1b303e"/><path d="m244.967 362.667c-19.967 0-36.154 16.186-36.154 36.153 0 12.699 6.663 24.468 17.553 31.001l29.634 18.179v-85.333z" fill="#28485e"/></g></g></svg>