<svg id="Capa_1" enable-background="new 0 0 512.019 512.019" height="512" viewBox="0 0 512.019 512.019" width="512" xmlns="http://www.w3.org/2000/svg"><g><path d="m205.987 136.2-58.656-95.982c-17.762-29.312-50.958-44.66-84.585-39.088l-10.635 1.762-23.126 142.97c-4.498 27.807 6.129 56.25 27.702 74.206l37.745 31.585c8.816-9.602 82.87-86.885 111.555-115.453z" fill="#36607d"/><path d="m306.032 136.2 58.656-95.982c17.762-29.312 50.958-44.66 84.585-39.088l10.635 1.761 23.126 142.971c4.498 27.807-6.129 56.25-27.702 74.206l-37.745 31.585c-8.816-9.602-82.87-86.885-111.555-115.453z" fill="#28485e"/><g><path d="m375.411 159.623c-33.499-30.053-75.903-46.604-119.4-46.604h-.001l-10.667 228.334 10.667 155.599c10.22 9.56 23.799 15.068 38.343 15.067h.291c21.561-.109 40.872-12.901 51.658-34.219 5.459-10.791 12.564-34.357 20.085-59.308 4.62-15.326 9.386-31.133 13.132-41.585 9.408-11.043 46.444-58.276 46.444-117.429 0-34.129-18.898-71.458-50.552-99.855z" fill="#36607d"/><path d="m256.009 113.019c-43.497 0-85.901 16.551-119.401 46.604-31.654 28.397-50.552 65.726-50.552 99.854 0 59.153 37.037 106.387 46.445 117.429 3.747 10.453 8.512 26.262 13.133 41.589 7.521 24.949 14.625 48.514 20.084 59.305 10.786 21.318 30.097 34.11 51.657 34.219 14.673.081 28.348-5.444 38.634-15.067h.001z" fill="#44799b"/></g><g><path d="m294.006 51.156c-15.905 9.543-28.867 22.94-37.996 38.566l-10.667 38.297 10.667 85.333h15v-68.593c0-27.646 14.726-53.655 38.432-67.878z" fill="#14232e"/><path d="m218.013 51.156-15.434 25.725c23.705 14.224 38.432 40.233 38.432 67.878v68.593h15v-123.63c-9.131-15.626-22.093-29.023-37.998-38.566z" fill="#213b4d"/></g><path d="m161.856 268.686h30v30h-30z" fill="#14232e"/><path d="m320.163 268.686h30v30h-30z" fill="#070c0f"/><g><path d="m271.01 298.686h-15.001l-10.666 58.178 10.666 69.821h15.001z" fill="#44799b"/><path d="m241.01 298.686h15v128h-15z" fill="#518fbb"/></g><g><path d="m265.663 405.352h-9.654l-10.47 28.328 10.47 46.339 25.929-15.906c9.528-5.717 15.359-16.014 15.359-27.126 0-17.472-14.163-31.635-31.634-31.635z" fill="#14232e"/><path d="m246.356 405.352c-17.471 0-31.634 14.163-31.634 31.634 0 11.112 5.83 21.409 15.359 27.126l25.929 15.906v-74.667h-9.654z" fill="#213b4d"/></g></g></svg>