<svg id="Capa_1" enable-background="new 0 0 512 512" height="512" viewBox="0 0 512 512" width="512" xmlns="http://www.w3.org/2000/svg"><g><g><path d="m201.667 512h-155.593l-4.504-5.693c-1.494-1.888-36.315-47.285-13.455-138.726 8.137-32.546 7.358-61.925 6.604-90.335-.645-24.324-1.254-47.298 4.021-69.494 12.149-51.126 43.659-95.339 91.121-127.859l87.806 416.107c0 8.822-7.178 16-16 16z" fill="#412816"/><path d="m294.333 496 87.806-416.107c47.462 32.52 78.972 76.733 91.121 127.859 5.275 22.196 4.665 45.17 4.021 69.494-.754 28.411-1.532 57.789 6.604 90.335 22.86 91.44-11.961 136.837-13.455 138.726l-4.504 5.693h-155.593c-8.822 0-16-7.178-16-16z" fill="#281408"/></g><g><path d="m423.646 170.96v.009c0-43.692-17.424-89.184-49.003-121.064-28.265-28.535-64.501-45.69-103.31-49.215l-26 287.31 10.667 224h48.665l69.452-162.576 31.576-76.977c18.572-47.926 18.154-84.102 17.953-101.487z" fill="#744727"/><path d="m240.667.69c-38.809 3.525-75.045 20.68-103.31 49.215-31.579 31.88-49.004 77.364-49.004 121.056l.002-.001c-.201 17.385-.619 53.561 17.952 101.488l31.576 76.977 69.452 162.575h48.665z" fill="#8d562f"/></g><g><path d="m373.453 349.419c-6.825-38.113-31.13-60.559-52.97-80.711-26.73-24.664-49.815-45.965-49.815-93.486v-174.531c-4.963-.451-9.966-.691-15.001-.691l-10.667 362.667 10.667 128.491c12.648 13.17 30.22 20.844 49.13 20.843.116 0 .235 0 .353-.001 17.722-.09 34.639-6.776 47.633-18.827s20.934-28.417 22.355-46.083l.048-.586.147-75.284c0-7.812-.671-15.048-1.88-21.801z" fill="#efe2dd"/><path d="m255.661 0c-5.033 0-10.034.24-14.994.69v174.532c0 47.521-23.085 68.821-49.816 93.486-21.838 20.15-46.141 42.594-52.969 80.716-1.211 6.76-1.882 14.003-1.882 21.825l.147 74.667.048 1.174c1.422 17.666 9.362 34.031 22.356 46.083 12.994 12.051 29.911 18.737 47.633 18.827.118.001.234.001.353.001 18.908 0 36.482-7.674 49.129-20.843h.001v-491.158c-.002 0-.004 0-.006 0z" fill="#f7f0eb"/></g><path d="m256 470.227v-64.894" fill="#fff"/><g><path d="m270.431 311.389h-14.431l-15.652 42.347 15.652 69.27 38.761-23.777c14.244-8.546 22.959-23.939 22.959-40.55.001-26.118-21.172-47.29-47.289-47.29z" fill="#281408"/><path d="m241.57 311.389c-26.117 0-47.289 21.172-47.289 47.289 0 16.611 8.715 32.004 22.959 40.55l38.761 23.777v-111.616z" fill="#412816"/></g><path d="m158.474 204.667h30v30h-30z" fill="#351a0a"/><path d="m323.527 204.667h30v30h-30z" fill="#281408"/></g></svg>