<svg id="Capa_1" enable-background="new 0 0 512 512" height="512" viewBox="0 0 512 512" width="512" xmlns="http://www.w3.org/2000/svg"><g><path d="m90.432 218.867 69.568-58.867 55.941-52.8-23.009-57.096c-12.267-30.437-41.398-50.104-74.214-50.104h-10.753l-44.261 130.542c-8.677 25.588-3.044 54.14 14.701 74.515z" fill="#28485e"/><path d="m421.568 218.867-69.568-58.867-55.94-52.8 23.009-57.096c12.266-30.437 41.397-50.104 74.213-50.104h10.753l44.262 130.542c8.677 25.588 3.044 54.14-14.701 74.515z" fill="#1b303e"/><path d="m169.334 171.651h-30c0-37.689-18.625-66.064-18.814-66.346l24.962-16.641c.973 1.46 23.852 36.315 23.852 82.987z" fill="#1b303e"/><path d="m372.667 171.651h-30c0-46.672 22.878-81.526 23.852-82.987l24.962 16.641.026-.04c-.189.286-18.84 29.09-18.84 66.386z" fill="#0f1a23"/><g><path d="m256 102.333h42.021s98.979 40.834 124.429 115.521c20.884 61.287 44.523 143.079 44.523 143.079 11.889 38.206 6.69 79.668-14.263 113.755l-22.867 36.321-83.115-31.207-90.728-14.043-10.667-156.425z" fill="#efe2dd"/><path d="m256 102.333h-42.021s-98.979 40.834-124.429 115.521c-20.883 61.286-44.523 143.079-44.523 143.079-11.889 38.205-6.691 79.667 14.263 113.755l22.867 36.321 83.115-31.207 90.728-14.043z" fill="#f7f0eb"/></g><path d="m158.474 258h30v30h-30z" fill="#412816"/><path d="m323.526 258h30v30h-30z" fill="#351a0a"/><g><path d="m342.003 343.939c-5.142-4.553-10.596-9.101-16.373-13.64-32.885-25.837-51.745-64.357-51.745-105.685v-122.28h-17.885l-10.667 228.334 10.667 102.332h86.003z" fill="#ffc869"/><path d="m238.115 102.333v122.28c0 41.328-18.86 79.848-51.745 105.685-5.777 4.539-11.231 9.087-16.373 13.64v89.062h86.003v-330.667z" fill="#ffdf8e"/></g><g><path d="m386.526 272.917c0-26.51-21.49-48-48-48s-48 21.49-48 48c0 14.524-.026 115.417-.026 115.417h-34.5l-10.667 53.333 10.667 44.456c8.21 15.966 26.306 25.967 44.259 25.876 25.848-.13 47.296-20.022 49.371-45.787l4.306-83.9 26.594-30.394-23.267-34.798c17.199-7.299 29.263-24.341 29.263-44.203z" fill="#ae632c"/><path d="m221.25 388.333s.224-100.893.224-115.417c0-26.51-21.49-48-48-48s-48 21.49-48 48c0 19.862 12.064 36.905 29.264 44.204l-23.267 34.798 26.594 30.394 4.306 83.9c2.074 25.765 23.523 45.657 49.371 45.787 17.953.091 36.048-9.91 44.259-25.876v-97.79z" fill="#c97840"/></g><path d="m158.474 257.917h30v30h-30z" fill="#412816"/><path d="m323.526 257.917h30v30h-30z" fill="#351a0a"/><g><path d="m266.99 373.333h-10.99l-11.919 32.248 11.919 52.752 29.518-18.107c10.847-6.508 17.484-18.231 17.484-30.88 0-19.889-16.123-36.013-36.012-36.013z" fill="#351a0a"/><path d="m245.01 373.333c-19.889 0-36.012 16.123-36.012 36.012 0 12.65 6.637 24.372 17.484 30.88l29.518 18.108v-85z" fill="#412816"/></g></g></svg>