<svg id="Capa_1" enable-background="new 0 0 512 512" height="512" viewBox="0 0 512 512" width="512" xmlns="http://www.w3.org/2000/svg"><g><g><path d="m316.686 25.462c-12.745-1.681-35.903-4.188-60.686-4.188l-10.667 170.725 10.667 320.001h96l30.205-129.948 29.262-40.966c17.576-24.605 26.866-53.595 26.866-83.834v-97.252z" fill="#fdd278"/><path d="m195.314 25.462c12.745-1.681 35.903-4.188 60.686-4.188v490.726h-96l-30.205-129.948-29.262-40.966c-17.576-24.605-26.866-53.595-26.866-83.834v-97.252z" fill="#ffdf8e"/></g><path d="m158.473 183.333h30v30h-30z" fill="#412816"/><path d="m323.526 183.333h30v30h-30z" fill="#281408"/><path d="m195.314 25.462c-11.495-15.749-30.087-25.462-49.96-25.462-20.543 0-40.382 5.633-57.374 16.289-15.966 10.013-29.152 24.219-38.135 41.082-19.061 35.786-16.958 77.207 5.63 110.802 3.727 5.543 18.419 23.173 18.419 23.173l8.954-2.239c2.38-.595 23.954-6.526 48.459-31.257 13.734-13.86 25.772-31.034 35.778-51.046.001 0 18.582-32.638 28.229-81.342z" fill="#fdc661"/><path d="m316.686 25.462c11.495-15.749 30.087-25.462 49.96-25.462 20.543 0 40.382 5.633 57.374 16.289 15.966 10.013 29.152 24.219 38.135 41.082 19.061 35.786 16.958 77.207-5.63 110.802-3.727 5.543-18.419 23.173-18.419 23.173l-8.954-2.239c-2.38-.595-23.954-6.526-48.459-31.257-13.734-13.86-25.772-31.034-35.778-51.046-.001 0-18.582-32.638-28.229-81.342z" fill="#ffa73c"/><g><path d="m256 131.911-10.667 17.422 10.667 21.334h15c0-15.256 12.411-27.667 27.667-27.667v-30c-16.892 0-32.111 7.3-42.667 18.911z" fill="#ffa73c"/><path d="m256 131.912c-10.556-11.612-25.775-18.912-42.666-18.912v30c15.255 0 27.666 12.411 27.666 27.667h15z" fill="#fdc661"/></g><g><path d="m379.964 273.018c-32.566-34.404-76.59-53.352-123.963-53.352h-.001l-10.667 100.333 10.667 98.427 25.683 51.365c13.018 26.036 39.187 42.209 68.295 42.209 41.963 0 76.216-34.14 76.355-76.103l.122-36.571c2.485-47.156-14.017-92-46.491-126.308z" fill="#ffa73c"/><path d="m256 219.667c-47.372 0-91.396 18.947-123.963 53.351-32.476 34.31-48.979 79.151-46.493 126.31l.122 36.569c.139 41.963 34.392 76.103 76.356 76.103 29.108 0 55.277-16.173 68.295-42.209l25.683-51.365z" fill="#fdc661"/></g><g><path d="m273.065 219.972h-17.065l-18.509 50.076 18.509 81.914 45.836-28.117c16.844-10.106 27.15-28.309 27.15-47.952 0-30.884-25.037-55.921-55.921-55.921z" fill="#281408"/><path d="m238.935 219.972c-30.884 0-55.921 25.037-55.921 55.921 0 19.643 10.306 37.845 27.15 47.952l45.836 28.117v-131.99z" fill="#412816"/></g></g></svg>