<svg id="Capa_1" enable-background="new 0 0 511.98 511.98" height="512" viewBox="0 0 511.98 511.98" width="512" xmlns="http://www.w3.org/2000/svg"><g><g><path d="m473.575 136.676-149.087-81.853h-68.498l-10.667 201.167 10.667 152.99 55.17 33.01h37.477c32.677-13.889 60.65-33.881 81.567-58.474 26.276-30.895 41.271-69.025 43.36-110.267h-.001c.158-4.411.012-136.573.012-136.573z" fill="#efe2dd"/><path d="m187.491 54.823-149.087 81.853s-.145 132.19.011 136.573h-.001c2.09 41.242 17.084 79.371 43.361 110.267 20.917 24.594 48.89 44.586 81.567 58.474h37.478l55.17-33.01v-354.157z" fill="#f7f0eb"/></g><path d="m25.048 244.823c-.002 0 .001 0 0 0h-13.36l-11.126-95.822c-2.776-23.906 4.812-47.925 20.818-65.897 16.007-17.973 38.99-28.281 63.057-28.281h103.053l-28.999 72.897-5.88 2.419c-23.079 9.496-40.842 28.521-48.733 52.197l-2.487 7.461c-10.969 32.911-41.653 55.026-76.343 55.026z" fill="#57351d"/><path d="m486.932 244.823c-34.694 0-65.375-22.113-76.345-55.026l-2.487-7.46c-7.893-23.677-25.655-42.702-48.733-52.197l-5.881-2.419-28.998-72.897h103.054c24.066 0 47.05 10.308 63.057 28.28s23.595 41.991 20.819 65.898l-11.126 95.822h-13.36z" fill="#412816"/><g><path d="m277.303 298.657.02-108.122 67-.009c41.437 0 75.148 33.711 75.148 75.148 0 28.183-15.49 53.377-39.661 66.257 9.738 16.645 14.485 35.483 13.786 55l-.045.742c-1.626 19.006-10.261 36.578-24.312 49.478-14.052 12.9-32.296 20.005-51.371 20.005-25.405 0-46.794-9.205-61.699-26.244-.058.068-.121.131-.179.198l-10.667-79.121 10.667-53.333h21.313z" fill="#ae632c"/><path d="m234.677 298.657-.02-108.122-67-.009c-41.437 0-75.148 33.711-75.148 75.148 0 28.183 15.49 53.377 39.661 66.257-9.738 16.645-14.485 35.483-13.786 55l.045.742c1.626 19.006 10.261 36.578 24.312 49.478 14.052 12.9 32.296 20.005 51.371 20.005 25.405 0 46.794-9.205 61.699-26.244.058.068.121.131.179.198v-132.453z" fill="#c97840"/></g><path d="m155.657 246.823h30v30h-30z" fill="#412816"/><path d="m322.99 246.823h30v30h-30z" fill="#351a0a"/><g><path d="m267.022 287.99h-11.032l-11.966 32.375 11.966 52.958 29.633-18.178c10.889-6.534 17.553-18.302 17.553-31.001 0-19.967-16.187-36.154-36.154-36.154z" fill="#351a0a"/><path d="m244.957 287.99c-19.967 0-36.154 16.186-36.154 36.153 0 12.699 6.663 24.467 17.553 31.001l29.633 18.178v-85.332z" fill="#412816"/></g></g></svg>