<svg id="Capa_1" enable-background="new 0 0 511.97 511.97" height="512" viewBox="0 0 511.97 511.97" width="512" xmlns="http://www.w3.org/2000/svg"><g><g><g><path d="m414.378 343.407-8.87-184.402-50.051-137.666c-1.624-.524-40.457-12.835-99.472-12.835l-10.667 183.25 10.667 152.326z" fill="#ae632c"/><path d="m156.514 21.339-49.151 118.915-9.771 203.152 158.393.674v-335.576c-59.015 0-97.847 12.311-99.471 12.835z" fill="#c97840"/></g><g><path d="m421.596 365.669c-5.899-38.349-32.431-69.794-69.239-82.063l-9.708-3.236c-24.053-8.018-40.562-30.125-41.08-55.011h-45.583l-21.333 147.729 21.333 130.378 88.779-22.195c24.968-6.242 46.563-21.484 60.809-42.918 14.245-21.434 19.936-47.247 16.022-72.684z" fill="#fdd278"/><path d="m210.402 225.358c-.519 24.886-17.028 46.993-41.081 55.011l-9.708 3.236c-36.808 12.27-63.339 43.715-69.24 82.064-3.913 25.437 1.777 51.25 16.022 72.684s35.841 36.676 60.809 42.918l88.78 22.195v-278.107z" fill="#ffdf8e"/></g></g><path d="m116.014 20.615c-33.261 0-64.961 14.301-86.973 39.235-21.987 24.906-32.247 58.085-28.16 91.051l17.653 161.603h12.51c35.313 0 65.288-26.322 69.884-61.295l6.309-35.831c9.976-55.403 25.59-93.757 50.625-124.361l3.39-4.144v-66.258z" fill="#57351d"/><path d="m395.956 20.615c33.261 0 64.961 14.301 86.973 39.235 21.986 24.906 32.247 58.085 28.16 91.051l-17.653 161.603h-12.51c-35.314 0-65.288-26.322-69.884-61.295l-6.309-35.831c-9.976-55.403-25.59-93.757-50.625-124.361l-3.39-4.144v-66.258z" fill="#412816"/><path d="m166.652 175.338h30v30h-30z" fill="#351a0a"/><path d="m315.318 175.338h30v30h-30z" fill="#281408"/><g><path d="m320.06 395.997c-6.006 6.138-14.04 9.542-22.621 9.585-2.792.005-5.54-.358-8.207-1.104-9.783-2.74-17.153-11.677-18.34-22.241h-14.907l-10.667 22.851 10.667 13.02c6.714 7.151 15.315 12.503 25.157 15.259 5.253 1.471 10.682 2.216 16.145 2.216.101 0 .203 0 .305-.001 16.659-.084 32.253-6.69 43.91-18.602z" fill="#ffa73c"/><path d="m241.079 382.236c-1.188 10.564-8.558 19.502-18.34 22.241-2.667.747-5.427 1.116-8.208 1.104-8.581-.043-16.614-3.447-22.62-9.585l-21.441 20.984c11.656 11.911 27.25 18.518 43.91 18.602.102 0 .203.001.305.001 5.461 0 10.892-.745 16.145-2.216 9.841-2.756 18.442-8.108 25.156-15.259v-35.871z" fill="#fdc661"/></g><g><path d="m267.018 309.088h-11.033l-11.966 32.375 9.819 43.458h17.633l14.147-8.678c10.889-6.534 17.553-18.302 17.553-31.001 0-19.968-16.186-36.154-36.153-36.154z" fill="#351a0a"/><path d="m240.499 384.921h15.486v-75.833h-11.033c-19.967 0-36.153 16.186-36.153 36.154 0 12.699 6.663 24.468 17.553 31.001z" fill="#412816"/></g></g></svg>