<svg id="Capa_1" enable-background="new 0 0 513.027 513.027" height="512" viewBox="0 0 513.027 513.027" width="512" xmlns="http://www.w3.org/2000/svg"><g><g><path d="m256.013 85.261c11.3-10.401 30.47-24.161 57.688-30.703 35.906-8.629 104.09 94.932 104.09 94.932l11.353 202.271c-26.174 47.399-69.523 81.854-118.933 94.529l-54.198-29.8-10.667-170.667z" fill="#ae632c"/><path d="m256.013 85.261c-11.3-10.401-30.47-24.161-57.688-30.703-35.906-8.629-104.09 94.932-104.09 94.932l-11.352 202.271c26.174 47.399 69.524 81.854 118.933 94.529l54.198-29.8v-331.229z" fill="#c97840"/></g><path d="m181.944 80.997c10.596-10.792 25.169-13.352 39.905-13.352 5.064 0 10.001 1.07 14.701 2.872-10.235-6.346-22.956-12.29-38.224-15.959-35.906-8.629-67.763-3.17-94.685 16.231-14.687 10.584-26.065 29.327-37.068 47.453-4.222 6.955-8.588 14.147-12.913 20.467-4.92 7.189-10.793 14.133-17.01 21.484-12.038 14.233-24.485 28.952-30.626 46.715-11.209 32.42-4.199 62.803.44 82.907l.69 3.001c1.047 4.594.997 11.906.944 19.648-.156 22.688-.37 53.759 27.562 68.552 8.094 4.287 16.286 6.424 24.234 6.424 8.856 0 17.41-2.654 25.188-7.947 15.88-10.807 24.271-29.448 28.515-43.184 5.414-17.524 7.269-37.251 5.223-55.546-4.352-38.912 5.903-69.119 21.512-96.441 20.181-35.332 11.181-72.332 41.612-103.325z" fill="#744727"/><path d="m331.083 80.997c-10.596-10.792-25.169-13.352-39.905-13.352-5.064 0-10.001 1.07-14.701 2.872 10.235-6.346 22.956-12.29 38.223-15.959 35.906-8.629 67.763-3.17 94.685 16.231 14.687 10.584 26.065 29.327 37.068 47.453 4.222 6.955 8.588 14.147 12.913 20.467 4.92 7.189 10.793 14.133 17.01 21.484 12.038 14.233 24.485 28.952 30.626 46.715 11.209 32.42 4.199 62.803-.44 82.907l-.69 3.001c-1.047 4.594-.997 11.906-.944 19.648.156 22.688.37 53.759-27.561 68.552-8.094 4.287-16.286 6.424-24.234 6.424-8.856 0-17.41-2.654-25.188-7.947-15.88-10.807-24.272-29.448-28.515-43.184-5.414-17.524-7.269-37.251-5.223-55.546 4.352-38.912-5.903-69.119-21.512-96.441-20.182-35.332-11.182-72.332-41.612-103.325z" fill="#57351d"/><path d="m158.487 231.094h30v30h-30z" fill="#412816"/><path d="m323.54 231.094h30v30h-30z" fill="#281408"/><g><path d="m341.968 316.28c-19.366-28.362-51.498-45.295-85.954-45.295l-10.667 92.171 10.667 81.416c11.469 11.311 27.037 17.864 43.749 17.863.107 0 .217 0 .324-.001 16.194-.082 31.652-6.192 43.526-17.204s19.129-25.967 20.429-42.109l.179-16.353c-.001-25.146-7.488-48.863-22.253-70.488z" fill="#57351d"/><path d="m170.059 316.28c-14.766 21.625-22.252 45.341-22.252 70.49l.179 16.353c1.3 16.142 8.555 31.097 20.429 42.109s27.332 17.122 43.526 17.204c.108.001.216.001.324.001 16.711 0 32.282-6.554 43.749-17.864v-173.587c-34.457 0-66.589 16.932-85.955 45.294z" fill="#744727"/></g><g><path d="m266.541 335.065h-10.527l-11.418 30.893 11.418 50.533 28.277-17.346c10.391-6.235 16.749-17.464 16.749-29.582-.001-19.053-15.446-34.498-34.499-34.498z" fill="#281408"/><path d="m245.486 335.065c-19.053 0-34.498 15.445-34.498 34.498 0 12.118 6.358 23.347 16.749 29.582l28.277 17.346v-81.426z" fill="#412816"/></g></g></svg>