<svg id="Capa_1" enable-background="new 0 0 511.969 511.969" height="512" viewBox="0 0 511.969 511.969" width="512" xmlns="http://www.w3.org/2000/svg"><g><g><path d="m424.628 311.623c-7.754 10.702-16.238 19.664-24.061 27.929-5.63 5.947-10.947 11.565-15.537 17.302-21.488 26.86-60.853 149.797-60.853 149.797h-68.193l-10.667-250.667 10.667-250.666c41.378 0 73.492 7.758 89.815 12.726z" fill="#28485e"/><path d="m87.34 311.623c7.754 10.702 16.238 19.664 24.061 27.929 5.63 5.947 10.947 11.565 15.537 17.302 21.488 26.86 60.854 149.797 60.854 149.797h68.193v-501.333c-41.378 0-73.492 7.758-89.815 12.726z" fill="#36607d"/></g><path d="m158.458 192.984h30v30h-30z" fill="#14232e"/><path d="m323.51 192.984h30v30h-30z" fill="#070c0f"/><path d="m345.818 17.985h50.138c33.261 0 64.961 14.301 86.973 39.236 21.969 24.886 32.23 58.034 28.168 90.974l-17.532 176.123h-28.641c-35.443 0-65.508-26.518-69.935-61.683l-6.378-50.672-.054-.49c-3.807-41.109-18.524-79.958-42.74-113.112v-80.376z" fill="#14232e"/><path d="m166.151 17.985h-50.138c-33.261 0-64.961 14.301-86.973 39.236-21.969 24.885-32.23 58.034-28.169 90.974l17.532 176.123h28.641c35.443 0 65.508-26.518 69.935-61.683l6.378-50.672.054-.49c3.808-41.109 18.524-79.958 42.74-113.112z" fill="#213b4d"/><g><path d="m352.938 281.798c-25.47-26.908-59.902-41.727-96.953-41.727l-10.667 90.58 10.667 84.274 18.172 52.066c8.279 23.721 30.723 39.659 55.848 39.659 32.544 0 59.079-26.476 59.151-59.02l.149-67.142c1.916-36.845-10.99-71.88-36.367-98.69z" fill="#36607d"/><path d="m255.984 240.071c-37.051 0-71.483 14.819-96.953 41.727-25.377 26.81-38.284 61.845-36.367 98.691l.149 67.142c.072 32.543 26.608 59.02 59.152 59.02 25.125 0 47.568-15.938 55.847-39.659l18.173-52.066z" fill="#44799b"/></g><g><path d="m271.715 240.071h-15.73l-17.061 46.16 17.061 75.507 42.251-25.918c15.526-9.316 25.026-26.095 25.026-44.201 0-28.469-23.079-51.548-51.547-51.548z" fill="#14232e"/><path d="m240.255 240.071c-28.469 0-51.547 23.078-51.547 51.547 0 18.107 9.5 34.885 25.026 44.201l42.251 25.918v-121.666z" fill="#213b4d"/></g></g></svg>