<svg id="Capa_1" enable-background="new 0 0 512.018 512.018" height="512" viewBox="0 0 512.018 512.018" width="512" xmlns="http://www.w3.org/2000/svg"><g><path d="m179.048 40.215c-17.762-29.311-50.958-44.656-84.583-39.085l-10.636 1.761-23.126 142.971c-4.497 27.807 6.13 56.251 27.703 74.206l18.271 15.29 126.028-107.34z" fill="#c97840"/><path d="m167.343 169.685h-30c0-37.689-18.626-66.064-18.813-66.347l24.961-16.641c.974 1.462 23.852 36.316 23.852 82.988z" fill="#ae632c"/><path d="m332.97 40.215c17.762-29.311 50.958-44.656 84.583-39.085l10.636 1.761 23.126 142.971c4.497 27.807-6.13 56.251-27.703 74.206l-18.271 15.29-126.028-107.34z" fill="#ae632c"/><path d="m344.675 169.685h30c0-37.689 18.626-66.064 18.813-66.347l-24.961-16.641c-.974 1.462-23.852 36.316-23.852 82.988z" fill="#96501d"/><g><path d="m375.41 159.622c-25.523-22.897-56.215-37.957-88.622-43.83l-30.779 12.226-10.667 170.666 10.667 164.041 99.779-.001 5.514-19.713c9.822-35.115 23.43-68.216 40.442-98.385 15.844-28.096 24.219-57.541 24.219-85.15 0-34.127-18.899-71.456-50.553-99.854z" fill="#ffa73c"/><path d="m225.233 115.791c-32.408 5.873-63.101 20.933-88.625 43.831-31.654 28.398-50.552 65.727-50.552 99.854 0 27.612 8.375 57.057 24.219 85.151 17.015 30.173 30.621 63.274 40.441 98.385l5.515 19.714h99.779v-334.708z" fill="#fdc661"/></g><g><path d="m256.009 496.157c10.639 10.055 24.837 15.861 40.045 15.861.102 0 .201 0 .304-.001 15.996-.081 30.988-6.224 42.213-17.298 11.982-11.821 18.581-28.55 18.581-47.106 0-43.049-17.184-67.821-37.081-96.504-1.359-1.96-2.739-3.949-4.134-5.974-13.323-19.34-20.66-37.267-20.66-50.478 0-14.848 1.958-26.055 4.436-40.243 4.162-23.829 14.628-82.39-12.929-138.612-10.127-1.835-20.419-2.784-30.775-2.784l-10.667 207.001z" fill="#efe2dd"/><path d="m212.305 254.414c2.479 14.188 4.436 25.395 4.436 40.243 0 13.211-7.337 31.138-20.66 50.478-1.395 2.025-2.774 4.014-4.134 5.974-19.898 28.684-37.081 53.456-37.081 96.504 0 18.557 6.599 35.286 18.581 47.106 11.225 11.074 26.217 17.217 42.213 17.298.102.001.201.001.304.001 15.208-.001 29.406-5.806 40.045-15.861v-383.139h-.001c-10.355 0-20.647.949-30.773 2.784-27.559 56.222-17.092 114.783-12.93 138.612z" fill="#f7f0eb"/></g><g><path d="m266.999 405.352h-10.99l-11.919 32.248 11.919 52.751 29.518-18.107c10.847-6.508 17.484-18.231 17.484-30.88 0-19.889-16.123-36.012-36.012-36.012z" fill="#ae632c"/><path d="m245.02 405.352c-19.889 0-36.012 16.123-36.012 36.012 0 12.65 6.637 24.372 17.484 30.88l29.518 18.107v-85h-10.99z" fill="#c97840"/></g><path d="m161.855 268.685h30v30h-30z" fill="#744727"/><path d="m320.162 268.685h30v30h-30z" fill="#57351d"/></g></svg>