<svg id="Capa_1" enable-background="new 0 0 512.017 512.017" height="512" viewBox="0 0 512.017 512.017" width="512" xmlns="http://www.w3.org/2000/svg"><g><path d="m88.405 220.067c-21.573-17.956-32.2-46.399-27.702-74.206l23.126-142.97 10.636-1.761c33.626-5.57 66.827 9.776 84.588 39.093l40.614 66.459z" fill="#efe2dd"/><path d="m292.351 106.681 40.614-66.459c17.761-29.316 50.961-44.663 84.588-39.093l10.635 1.761 23.126 142.97c4.498 27.807-6.128 56.251-27.702 74.206z" fill="#dcd2cd"/><path d="m167.342 160.684h-30c0-37.69-18.626-66.065-18.814-66.347l24.961-16.641c.975 1.462 23.853 36.316 23.853 82.988z" fill="#c8beb9"/><path d="m344.675 160.684h30c0-37.69 18.626-66.065 18.813-66.347l-24.961-16.641c-.974 1.462-23.852 36.316-23.852 82.988z" fill="#b8aeaa"/><g fill="#efe2dd"><path d="m256.009 273.848-10.667 120.836 10.667 101.065v-.001c10.716 10.309 25.119 16.268 40.56 16.268h.304c20.41-.103 40.737-12.451 55.77-33.878 6.295-8.973 26.773-44.467 45.586-85.855 7.981-17.559 14.663-33.893 20.053-48.981z"/><path d="m419.216 205.307c-8.939-18.581-21.383-36.886-36.523-53.135-36.345-39.006-81.334-60.487-126.683-60.487h-.001l-10.667 100.333 10.667 81.831z"/></g><path d="m419.216 205.307c-17.317-16.982-41.037-27.458-67.207-27.458-53.019 0-96 42.981-96 96 0 53.02 42.981 96 96 96 25.7 0 49.041-10.099 66.272-26.546 11.053-30.939 16.64-56.603 16.64-76.618 0-19.113-5.624-40.422-15.705-61.378z" fill="#44799b"/><path d="m256.009 91.684c-45.349 0-90.339 21.481-126.683 60.487-32.216 34.575-52.229 78.454-52.229 114.513 0 29.775 12.346 72.033 36.694 125.6 18.812 41.386 39.29 76.881 45.585 85.854 15.032 21.428 35.359 33.776 55.77 33.879h.304c15.44 0 29.844-5.958 40.56-16.268v-404.065z" fill="#f7f0eb"/><g><path d="m267.041 384.408h-11.033l-11.966 32.375 11.966 52.958 29.634-18.178c10.889-6.534 17.553-18.302 17.553-31.001 0-19.967-16.187-36.154-36.154-36.154z" fill="#14232e"/><path d="m244.976 384.408c-19.967 0-36.154 16.186-36.154 36.154 0 12.699 6.663 24.467 17.553 31.001l29.633 18.178v-85.333z" fill="#213b4d"/></g><path d="m179.816 258.018h30v30h-30z" fill="#213b4d"/><path d="m302.201 258.018h30v30h-30z" fill="#14232e"/></g></svg>