<svg id="Capa_1" enable-background="new 0 0 512.001 512.001" height="512" viewBox="0 0 512.001 512.001" width="512" xmlns="http://www.w3.org/2000/svg"><g><g><path d="m354.605 59.708c-1.238-2.261-3.132-5.558-4.405-8.373-3.869-8.558-8.685-19.208-18.529-26.709-8.592-6.546-18.656-8.594-27.535-10.401-3.753-.764-7.298-1.485-10.404-2.469-2.755-.873-5.901-2.311-9.232-3.833-7.723-3.53-17.333-7.923-28.499-7.923l-10.667 256 10.666 239.732c10.716 10.31 25.119 16.269 40.56 16.268h.304c20.41-.103 40.737-12.451 55.769-33.879 7.725-11.011 28.415-62.095 46.123-113.874 29.883-87.384 36.156-130.299 36.156-150.913.001-53.808-79.136-151.486-80.307-153.626z" fill="#efe2dd"/><path d="m227.5 7.924c-3.331 1.522-6.476 2.961-9.23 3.833-3.106.984-6.652 1.705-10.405 2.469-8.879 1.807-18.944 3.854-27.535 10.4-9.845 7.501-14.661 18.152-18.53 26.709-1.273 2.814-4.384 8.415-4.384 8.415s-80.329 99.776-80.329 153.583c0 20.614 6.273 63.529 36.156 150.913 17.708 51.779 38.398 102.863 46.123 113.874 15.032 21.427 35.359 33.775 55.769 33.878 15.564.101 30.077-5.89 40.864-16.268v-495.73c-11.165 0-20.776 4.394-28.499 7.924z" fill="#f7f0eb"/></g><path d="m158.474 234.667h30v30h-30z" fill="#28485e"/><path d="m323.526 234.667h30v30h-30z" fill="#1b303e"/><g><path d="m75.338 462c-.103 0-.204 0-.307 0-16.201-.077-31.6-6.357-43.362-17.684-11.77-11.335-18.618-26.493-19.281-42.682-.716-17.453 5.751-34.227 17.845-46.619 3.675-11.803 7.069-41.38-2.239-85.233-4.218-19.868-8.396-39.341-12.42-57.877-8.098-37.305 1-75.746 24.96-105.465 23.964-29.725 59.609-46.772 97.793-46.772h19.117v15c0 29.289-8.097 58.39-23.414 84.158-19.013 31.982-30.364 66.729-30.364 92.947 0 56.999 22.5 87.061 31.193 121.473 2.951 11.684 3.475 19.708 3.475 25.755 0 16.884-6.591 32.743-18.558 44.654-11.894 11.836-27.666 18.345-44.438 18.345z" fill="#dcd2cd"/><path d="m392.225 443.654c-11.967-11.911-18.558-27.77-18.558-44.654 0-6.047.523-14.071 3.475-25.755 8.692-34.412 31.193-64.475 31.193-121.473 0-26.218-11.351-60.965-30.364-92.947-15.317-25.768-23.414-54.869-23.414-84.158v-15h19.117c38.184 0 73.829 17.048 97.793 46.772 23.96 29.719 33.058 68.16 24.96 105.465-4.023 18.537-8.202 38.01-12.42 57.877-9.309 43.853-5.915 73.43-2.239 85.233 12.094 12.392 18.561 29.167 17.845 46.619-.664 16.189-7.511 31.347-19.281 42.682-11.762 11.327-27.161 17.607-43.362 17.684-.103 0-.204 0-.307 0-16.772.001-32.544-6.508-44.438-18.345z" fill="#c8beb9"/></g><g><path d="m267.033 384.391h-11.033l-11.966 32.375 11.966 52.958 29.633-18.178c10.889-6.534 17.553-18.302 17.553-31.001 0-19.967-16.186-36.154-36.153-36.154z" fill="#14232e"/><path d="m244.968 384.391c-19.967 0-36.154 16.186-36.154 36.153 0 12.699 6.663 24.467 17.553 31.001l29.633 18.179v-85.333z" fill="#213b4d"/></g></g></svg>