<svg id="Capa_1" enable-background="new 0 0 511.961 511.961" height="512" viewBox="0 0 511.961 511.961" width="512" xmlns="http://www.w3.org/2000/svg"><g><path d="m89.323 12.644c-17.789-15.831-44.499-16.916-63.513-2.577-11.914 8.984-19.163 22.685-19.887 37.589l-5.239 107.703 65.928 68.6 88.915-149.586z" fill="#fdc661"/><path d="m422.638 12.644c17.79-15.832 44.499-16.916 63.513-2.578 11.914 8.984 19.163 22.686 19.888 37.59l5.238 107.703-65.928 68.6-88.914-149.586z" fill="#ffa73c"/><g><path d="m488.926 300.275-35.389-83.249c-6.292-53.878-41.049-106.149-93.371-140.223l-3.731-2.431h-39.787l-60.667 10.001-10.667 192.921 10.667 234.667h187.903l32.482-51.936c29.997-47.965 34.692-107.685 12.56-159.75z" fill="#fdd278"/><path d="m155.527 74.373-3.732 2.431c-52.323 34.074-87.079 86.345-93.371 140.223l-35.389 83.249c-22.133 52.063-17.436 111.783 12.562 159.749l32.482 51.936h187.903v-427.588l-60.667-10.001h-39.788z" fill="#ffdf8e"/></g><path d="m147.787 239.961h30v30h-30z" fill="#57351d"/><path d="m334.173 239.961h30v30h-30z" fill="#412816"/><g><path d="m323.326 308.72c-15.306-16.547-23.12-32.548-26.13-53.504-2.712-18.885-.731-38.997 5.729-58.163 6.61-19.609 13.724-73.868 13.724-122.68h-60.667l-10.667 256.255 10.667 161.433c12.276 12.577 29.207 19.9 47.416 19.9.115 0 .23 0 .346-.001 18.216-.092 35.284-7.083 48.06-19.686 13.855-13.669 21.179-32.277 21.179-53.812v-17.167c-.002-52.203-26.539-87.584-49.657-112.575z" fill="#efe2dd"/><path d="m195.314 74.373c0 48.814 7.113 103.073 13.722 122.68 6.46 19.166 8.441 39.278 5.729 58.164-3.009 20.955-10.823 36.956-26.13 53.503-23.119 24.992-49.655 60.374-49.655 112.575v17.167c0 21.536 7.324 40.144 21.179 53.812 12.775 12.603 29.843 19.594 48.059 19.686.117.001.229.001.345.001 18.208-.001 35.14-7.324 47.416-19.9v-417.688z" fill="#f7f0eb"/></g><g><path d="m269.803 358.726h-13.822l-14.992 40.561 14.992 66.349 37.126-22.775c13.643-8.186 21.991-22.93 21.991-38.84 0-25.016-20.279-45.295-45.295-45.295z" fill="#744727"/><path d="m242.158 358.726c-25.016 0-45.295 20.279-45.295 45.295 0 15.911 8.348 30.654 21.991 38.84l37.126 22.775v-106.91z" fill="#8d562f"/></g></g></svg>