<svg id="Capa_1" enable-background="new 0 0 512 512" height="512" viewBox="0 0 512 512" width="512" xmlns="http://www.w3.org/2000/svg"><g><g><path d="m400.354 149.049c-2.245-82.593-66.134-149.049-144.354-149.049l-10.667 74.667 10.667 74.382z" fill="#de9134"/><path d="m111.646 149.049h144.354v-149.049c-78.219 0-142.109 66.456-144.354 149.049z" fill="#ffa73c"/></g><rect height="215.671" width="0" x="256" y="93.768"/><g><path d="m416.801 152.998c-43.578-37.056-99.925-59.23-160.801-59.23l-10.667 151.565 10.667 85.334 131.911 163.17c11.625-3.193 23.228-6.797 34.794-10.823l10.167-3.539s0-.031 0-.082l-.245-26.651 4.706-164.742z" fill="#ffa73c"/><path d="m256 330.667v-236.899c-60.876 0-117.223 22.174-160.801 59.23l-20.532 135.002 4.624 164.714.082.027-.246 26.733 10.167 3.539c11.471 3.993 22.977 7.57 34.506 10.743z" fill="#fdc661"/></g><g><path d="m335.665 339.173c-22.108-19.174-50.4-29.734-79.665-29.734l-21.333 106.561 21.333 96c43.772 0 87.998-6.103 131.911-18.163l-11.546-80.005c-4.138-28.97-18.593-55.484-40.7-74.659z" fill="#efe2dd"/><path d="m256 309.44c-29.265 0-57.557 10.559-79.665 29.734-22.107 19.174-36.562 45.688-40.701 74.659l-11.834 79.924c44.007 12.113 88.333 18.243 132.2 18.243z" fill="#f7f0eb"/></g><g><path d="m293.098 418.06c-7.19-2.397-14.601-4.058-22.098-5.014v-39.712h-15l-10.667 42.666 10.667 26.069c9.354 0 18.709 1.484 27.612 4.452z" fill="#28485e"/><path d="m241 373.333v39.712c-7.497.956-14.908 2.618-22.099 5.014l9.486 28.461c8.903-2.968 18.257-4.452 27.612-4.452v-68.735z" fill="#36607d"/></g><path d="m159.713 266.667h30v30h-30z" fill="#744727"/><path d="m322.287 266.667h30v30h-30z" fill="#57351d"/><g><path d="m346.495 195.045c.003-2.032-.269-20.511-10.776-43.264-9.727-21.064-30.469-49.911-74.046-67.713l-5.278-2.157-.395.139-10.667 56.616 10.667 56.754z" fill="#fdc661"/><path d="m174.83 150.978c-10.092 23.334-9.415 42.687-9.305 44.817l90.475-.375v-113.37l-4.983 1.755c-45.961 16.19-66.799 45.465-76.187 67.173z" fill="#ffdf8e"/></g><g><path d="m256 53.333-10.667 30.691 10.667 38.642c19.115 0 34.666-15.551 34.666-34.666s-15.551-34.667-34.666-34.667z" fill="#efe2dd"/><path d="m221.334 88c0 19.115 15.551 34.666 34.666 34.666v-69.333c-19.115.001-34.666 15.552-34.666 34.667z" fill="#f7f0eb"/></g><g><path d="m99.156 170.82-3.956-17.822c-45.867 39.002-77.587 94.491-85.525 157.995l-.052.418-3.378 49.485c-2.658 38.955 21.375 74.726 58.446 86.988l14.6 4.829c.884-79.009 10.431-136.627 19.114-173.119 8.502-35.727 8.71-72.921.751-108.774z" fill="#ffa73c"/><path d="m505.756 360.897-3.349-49.065-.081-.839c-7.938-63.504-39.658-118.993-85.524-157.996l-3.956 17.823c-7.959 35.853-7.751 73.047.751 108.775 8.684 36.492 18.23 94.11 19.114 173.119l14.601-4.829c37.068-12.262 61.102-48.033 58.444-86.988z" fill="#de9134"/></g><g><path d="m266.803 309.44h-10.803l-11.717 31.702 11.717 51.858 29.018-17.801c10.663-6.398 17.188-17.922 17.188-30.357 0-19.552-15.85-35.402-35.403-35.402z" fill="#14232e"/><path d="m245.197 309.44c-19.552 0-35.403 15.85-35.403 35.402 0 12.436 6.525 23.959 17.188 30.357l29.018 17.801v-83.56z" fill="#213b4d"/></g></g></svg>