<svg id="Capa_1" enable-background="new 0 0 510.645 510.645" height="512" viewBox="0 0 510.645 510.645" width="512" xmlns="http://www.w3.org/2000/svg"><g><path d="m484.483 366.02c2.517-82.64-30.111-149.562-49.992-182.357l27.637-59.332 48.517-36.388-14.422-24.036c-20.377-33.962-57.639-55.06-97.246-55.06-38.004 0-73.279 18.878-94.361 50.5l-14.503 21.755h-34.79l-10.667 195.553 10.667 117.333 229.315 21.333z" fill="#ae632c"/><path d="m220.532 81.103-14.503-21.755c-21.081-31.622-56.356-50.501-94.361-50.501-39.606 0-76.869 21.098-97.246 55.06l-14.422 24.037 48.516 36.387 27.637 59.332c-19.881 32.794-52.508 99.715-49.992 182.357l-.154 49.302 229.315-21.333v-312.886z" fill="#c97840"/><path d="m48.516 124.331c2.336 12.962 5.928 26.662 11.416 36.389 5.688 10.083 11.499 17.642 16.221 22.943l61.169-67.008z" fill="#ae632c"/><path d="m462.128 124.331c-2.336 12.962-5.928 26.662-11.416 36.389-5.688 10.083-11.499 17.642-16.221 22.943l-61.169-67.008z" fill="#964f1b"/><path d="m168.462 239.414h30v30h-30z" fill="#57351d"/><path d="m255.322 501.798h229.298v-93.595c0-55.856-45.442-101.298-101.297-101.298h-128l-10.667 97.751z" fill="#ffa73c"/><path d="m255.322 501.798h-229.298v-93.595c0-55.856 45.442-101.298 101.297-101.298h128v194.893z" fill="#fdc661"/><path d="m312.182 239.414h30v30h-30z" fill="#412816"/><g><path d="m315.413 311.197c-24.195-22.325-45.09-41.606-45.09-84.449v-10.666c0-21.137 17.196-38.334 38.333-38.334s38.333 17.196 38.333 38.334h30c0-37.679-30.654-68.334-68.333-68.334-21.556 0-40.8 10.044-53.333 25.685l-10.667 188.556 10.667 107.148c11.718 11.699 27.706 18.487 44.88 18.487h.331c16.516-.083 32.28-6.314 44.39-17.545 12.11-11.23 19.509-26.482 20.834-42.944l.046-.572.136-20.765c-.002-47.98-26.845-72.748-50.527-94.601z" fill="#efe2dd"/><path d="m201.989 147.748c-37.679 0-68.333 30.654-68.333 68.334h30c0-21.137 17.196-38.334 38.334-38.334 21.137 0 38.333 17.196 38.333 38.334v10.666c0 42.844-20.896 62.124-45.09 84.449-23.683 21.853-50.526 46.621-50.526 94.659l.134 20.133.048 1.145c1.325 16.462 8.724 31.714 20.834 42.944 12.109 11.23 27.874 17.461 44.389 17.545h.331c17.172 0 33.162-6.789 44.88-18.488v-295.704c-12.534-15.64-31.778-25.683-53.334-25.683z" fill="#f7f0eb"/></g><g><path d="m266.156 372.656h-10.834l-11.751 31.793 11.751 52.007 29.101-17.852c10.694-6.417 17.237-17.973 17.237-30.445.001-19.607-15.895-35.503-35.504-35.503z" fill="#744727"/><path d="m244.488 372.656c-19.609 0-35.504 15.896-35.504 35.504 0 12.471 6.543 24.028 17.237 30.445l29.101 17.852v-83.801z" fill="#8d562f"/></g></g></svg>