<svg id="Capa_1" enable-background="new 0 0 512.001 512.001" height="512" viewBox="0 0 512.001 512.001" width="512" xmlns="http://www.w3.org/2000/svg"><g><g><path d="m420.802 219.747 12.793-14.689c17.744-20.374 23.378-48.927 14.703-74.515l-44.264-130.543h-10.753c-32.815 0-61.946 19.667-74.213 50.105l-21.047 52.228h-42.021l-21.333 78.999 21.333 64.001z" fill="#28485e"/><path d="m192.932 50.105c-12.266-30.438-41.396-50.105-74.213-50.105h-10.753l-44.263 130.542c-8.676 25.589-3.042 54.141 14.703 74.515l12.793 14.689 164.801 25.587v-16.565-126.435h-42.022z" fill="#36607d"/></g><g><path d="m438.812 286.09-86.832 66.203-96.45 95.707-10.196 42.667 10.666 21.333h109.794c36.143.139 69.529-17.492 89.305-47.746l22.492-34.408z" fill="#28485e"/><path d="m73.189 286.09 86.832 66.203 96.45 95.707-.471 64h-109.794c-36.143.139-69.529-17.492-89.305-47.746l-22.491-34.408z" fill="#36607d"/></g><path d="m167.334 192h-30c0-37.689-18.626-66.064-18.813-66.346l24.961-16.641c.974 1.461 23.852 36.315 23.852 82.987z" fill="#28485e"/><path d="m374.667 192h-30c0-46.672 22.878-81.526 23.853-82.987l24.961 16.641.026-.04c-.188.287-18.84 29.09-18.84 66.386z" fill="#213b4d"/><g><path d="m341.255 181.537c-35.884 0-67.435 18.883-85.255 47.231l-10.666 91.232 10.666 149.22c8.814 17.14 28.241 27.876 47.515 27.779 27.75-.14 50.776-21.495 53.002-49.155l4.623-73.879 77.437-88.502-17.946-65.521.17-.195c-19.246-23.982-48.747-38.21-79.546-38.21z" fill="#efe2dd"/><path d="m170.746 181.537c35.883 0 67.435 18.883 85.255 47.231v240.452c-8.814 17.14-28.241 27.876-47.515 27.779-27.75-.14-50.776-21.495-53.002-49.155l-4.623-73.879-77.437-88.502 17.945-65.521-.17-.195c19.247-23.982 48.748-38.21 79.547-38.21z" fill="#f7f0eb"/></g><g><path d="m158.474 266.667h30v30h-30z" fill="#28485e"/><path d="m323.527 266.667h30v30h-30z" fill="#1b303e"/></g><g><path d="m265.654 373.333h-9.654l-10.47 28.328 10.47 46.339 25.929-15.906c9.528-5.717 15.359-16.014 15.359-27.126 0-17.472-14.163-31.635-31.634-31.635z" fill="#351a0a"/><path d="m246.347 373.333c-17.471 0-31.634 14.163-31.634 31.634 0 11.112 5.83 21.409 15.359 27.126l25.928 15.907v-74.667z" fill="#412816"/></g></g></svg>