<svg id="Capa_1" enable-background="new 0 0 512.018 512.018" height="512" viewBox="0 0 512.018 512.018" width="512" xmlns="http://www.w3.org/2000/svg"><g><g><path d="m405.968 195.125h-149.959l-10.667 135.56 10.667 166.245c10.228 9.572 23.825 15.089 38.383 15.089.096 0 .193 0 .29-.001 21.575-.109 40.9-12.911 51.694-34.245 5.463-10.799 12.574-34.387 20.103-59.359 4.625-15.344 9.396-31.17 13.146-41.634 9.414-11.048 46.488-58.327 46.488-117.536.001-21.29-7.173-43.516-20.145-64.119z" fill="#8c8787"/><path d="m106.05 195.125c-12.971 20.603-20.146 42.83-20.146 64.119 0 59.21 37.075 106.488 46.489 117.537 3.75 10.462 8.52 26.287 13.145 41.63 7.528 24.974 14.64 48.563 20.104 59.363 10.793 21.333 30.118 34.135 51.695 34.245.098.001.192.001.29.001 14.557-.001 28.154-5.517 38.382-15.089v-301.806z" fill="#9b9696"/></g><path d="m146.578 33.77c-14.567-21.91-38.783-34.314-64.226-33.752h-65.138v30h37.616l-5.023 42.369c-7.361-3.088-15.41-4.786-23.793-4.786h-8.8v30h8.8c7.5 0 14.482 2.643 19.958 7.141l-3.278 27.649c-2.256 19.026 3.21 38.051 14.621 52.887l137.136-80.149z" fill="#dcd2cd"/><path d="m365.44 33.77c14.568-21.911 38.783-34.314 64.226-33.752h65.138v30h-37.616l5.023 42.369c7.361-3.088 15.41-4.786 23.793-4.786h8.8v30h-8.8c-7.5 0-14.482 2.643-19.957 7.141l3.278 27.649c2.256 19.026-3.211 38.051-14.622 52.887l-137.136-80.149z" fill="#c8beb9"/><path d="m168.9 268.685h30v30h-30z" fill="#412816"/><path d="m313.117 268.685h30v30h-30z" fill="#281408"/><g><path d="m396.323 99.748c-46.569-19.562-99.703-8.971-135.363 26.978l-4.951 4.99-10.667 38.969 10.667 55.623 3.516-3.544c25.323-25.528 63.055-33.049 96.126-19.158 32.879 13.81 54.123 45.914 54.123 81.79v172.371c35.115-3.04 62.765-32.576 62.765-68.465v-174.378c0-50.52-29.916-95.729-76.216-115.176z" fill="#efe2dd"/><path d="m256.009 131.717-4.951-4.991c-35.661-35.948-88.793-46.537-135.362-26.977-46.3 19.447-76.216 64.656-76.216 115.176v174.378c0 35.889 27.651 65.425 62.765 68.465v-172.371c0-35.876 21.244-67.98 54.123-81.79 33.07-13.89 70.801-6.371 96.125 19.157l3.516 3.544z" fill="#f7f0eb"/></g><g><path d="m265.663 416.018h-9.654l-10.47 28.328 10.47 46.339 25.929-15.906c9.528-5.717 15.358-16.014 15.358-27.126.001-17.472-14.162-31.635-31.633-31.635z" fill="#281408"/><path d="m246.356 416.018c-17.471 0-31.634 14.163-31.634 31.634 0 11.112 5.83 21.409 15.359 27.126l25.929 15.906v-74.667h-9.654z" fill="#412816"/></g></g></svg>