<svg id="Capa_1" enable-background="new 0 0 512 512" height="512" viewBox="0 0 512 512" width="512" xmlns="http://www.w3.org/2000/svg"><g><path d="m485.613 77.897c0-42.953-34.944-77.897-77.897-77.897-17.67 0-34.989 6.092-48.768 17.154-13.778 11.062-23.47 26.655-27.289 43.907l-13.858 62.605h-61.801l-10.667 164.334 10.667 185.386h69.888c37.421-12.971 69.319-34.074 92.244-61.028 24.761-29.113 38.889-65.04 40.859-103.898h-.001c.136-3.68.091-56.656.025-102.269l26.599-53.323v-74.971z" fill="#efe2dd"/><path d="m194.198 123.667-13.858-62.605c-3.819-17.252-13.51-32.845-27.288-43.907-13.779-11.063-31.098-17.155-48.768-17.155-42.953 0-77.897 34.944-77.897 77.897v74.97l26.599 53.323c-.065 45.602-.11 98.564.026 102.269h-.002c1.97 38.858 16.098 74.786 40.858 103.898 22.925 26.954 54.823 48.058 92.244 61.028h69.888v-349.718z" fill="#f7f0eb"/><g><path d="m424.087 276.333c0-32.817-26.603-59.42-59.42-59.42s-59.42 26.603-59.42 59.42c0 11.919 3.523 23.01 9.565 32.313-7.536-1.746-15.326-2.648-23.259-2.648h-35.553l-10.667 99.335 10.667 77.229c14.834 17.429 39.13 29.438 61.878 29.438 19.075 0 37.319-7.104 51.371-20.005 14.052-12.9 22.687-30.472 24.313-49.478l.054-.626.055-32.982c.225-27.393-10.285-53.207-29.598-72.69-.072-.011.595-.466.595-.466 32.815 0 59.419-26.603 59.419-59.42z" fill="#c8beb9"/><path d="m220.447 305.998c-7.933 0-15.723.902-23.259 2.648 6.042-9.303 9.565-20.394 9.565-32.313 0-32.817-26.603-59.42-59.42-59.42s-59.42 26.603-59.42 59.42 27.18 59.894 59.996 59.894l.018-.007c-19.313 19.483-29.823 45.297-29.598 72.69l.054 32.981.054.626c1.626 19.006 10.261 36.577 24.313 49.478 14.051 12.9 32.295 20.005 51.371 20.005 22.749 0 47.044-12.009 61.878-29.437v-176.565z" fill="#dcd2cd"/></g><g><path d="m266.085 305.998h-10.085l-10.938 29.593 10.938 48.409 27.087-16.616c9.954-5.973 16.044-16.73 16.044-28.338.001-18.252-14.795-33.048-33.046-33.048z" fill="#1b303e"/><path d="m245.915 305.998c-18.251 0-33.047 14.796-33.047 33.047 0 11.608 6.091 22.365 16.045 28.338l27.087 16.617v-78.002z" fill="#28485e"/></g><path d="m134.147 146.987v11.773l-30.147 17.597.147-29.37c0-37.689-18.625-66.064-18.814-66.346l24.962-16.641c.974 1.461 23.852 36.315 23.852 82.987z" fill="#ebe1dc"/><path d="m377.853 146.987v11.773l30.147 17.597-.147-29.37c0-37.689 18.626-66.064 18.814-66.346l-24.962-16.641c-.974 1.461-23.852 36.315-23.852 82.987z" fill="#dcd2cd"/><path d="m132.333 261.333h30v30h-30z" fill="#28485e"/><path d="m349.667 261.333h30v30h-30z" fill="#1b303e"/></g></svg>