<svg id="Capa_1" enable-background="new 0 0 512 512" height="512" viewBox="0 0 512 512" width="512" xmlns="http://www.w3.org/2000/svg"><g><path d="m216.786 49.549-16.163 1.744c-55.044 5.941-107.039 33.72-146.406 78.221-36.496 41.253-56.674 92.033-53.977 135.835 2.315 37.606 18.925 65.584 48.033 80.91 22.903 12.058 64.15 15.059 99.549 15.059z" fill="#dcd2cd"/><path d="m295.214 49.549 16.163 1.744c55.044 5.941 107.039 33.72 146.406 78.221 36.495 41.254 56.673 92.034 53.977 135.836-2.315 37.606-18.925 65.584-48.033 80.91-22.903 12.058-64.15 15.059-99.549 15.059z" fill="#c8beb9"/><g><path d="m383.993 98.545c-34.105-37.406-79.56-58.006-127.993-58.006l-10.666 196.333 10.666 196.334c48.433 0 93.888-20.6 127.993-58.005 33.752-37.018 52.341-86.145 52.341-138.328s-18.589-101.31-52.341-138.328z" fill="#dcd2cd"/><path d="m128.007 98.545c-33.752 37.019-52.341 86.144-52.341 138.328s18.588 101.31 52.341 138.328c34.105 37.405 79.56 58.005 127.992 58.005v-392.667c-48.432 0-93.887 20.6-127.992 58.006z" fill="#efe2dd"/></g><g><path d="m330.666 257.817c-30.416 0-59.022 16.307-74.666 42.564l-10.666 83.66 10.666 87.42c31.269 0 62.538-6.292 91.665-18.875 42.565-18.39 70.069-60.411 70.069-107.12 0-48.33-39.058-87.649-87.068-87.649z" fill="#efe2dd"/><path d="m181.334 257.817c-48.01 0-87.068 39.319-87.068 87.716 0 46.643 27.504 88.663 70.07 107.053 29.127 12.583 60.395 18.875 91.664 18.875v-171.081c-15.644-26.256-44.25-42.563-74.666-42.563z" fill="#f7f0eb"/></g><path d="m179.807 204.706h30v30h-30z" fill="#28485e"/><path d="m302.193 204.706h30v30h-30z" fill="#1b303e"/><g><g><path d="m320.074 359.296c-6.006 6.138-14.04 9.542-22.621 9.585-2.792.005-5.54-.358-8.207-1.104-9.783-2.74-17.153-11.677-18.34-22.241h-14.906l-10.667 22.851 10.667 13.019c6.714 7.151 15.315 12.503 25.156 15.259 5.253 1.471 10.682 2.216 16.145 2.216.101 0 .203 0 .305-.001 16.659-.084 32.253-6.69 43.91-18.602z" fill="#c8beb9"/><path d="m241.094 345.535c-1.188 10.564-8.558 19.502-18.34 22.241-2.667.747-5.427 1.117-8.207 1.104-8.581-.043-16.614-3.447-22.62-9.585l-21.441 20.982c11.656 11.911 27.251 18.518 43.91 18.602.102 0 .203.001.305.001 5.461 0 10.892-.745 16.145-2.216 9.841-2.756 18.442-8.108 25.156-15.259v-35.871z" fill="#dcd2cd"/></g><g><path d="m265.48 283.053h-9.48l-10.283 27.821 8.438 37.346h16.978l10.332-7.458c9.358-5.615 15.084-15.728 15.084-26.641 0-17.159-13.91-31.068-31.069-31.068z" fill="#1b303e"/><path d="m240.65 348.22h15.35v-65.167h-9.481c-17.158 0-31.068 13.91-31.068 31.068 0 10.913 5.726 21.026 15.084 26.641z" fill="#28485e"/></g></g></g></svg>