<svg id="Capa_1" enable-background="new 0 0 511.969 511.969" height="512" viewBox="0 0 511.969 511.969" width="512" xmlns="http://www.w3.org/2000/svg"><g><g><g><path d="m334.716 38.318 70.602 106.651v97.164l-128 152.518h-21.333l-10.667-170.667 10.667-185.666z" fill="#36607d"/></g><g><path d="m177.253 38.318-70.602 106.651v97.164l128 152.518h21.334v-356.333z" fill="#44799b"/></g></g><g><path d="m158.458 202.651h30v30h-30z" fill="#213b4d"/></g><path d="m323.511 202.651h30v30h-30z" fill="#14232e"/><path d="m301.067 188.429-26.414-14.224c12.141-22.546 37.246-34.742 62.476-30.358l-5.141 29.557c-12.484-2.173-24.912 3.866-30.921 15.025z" fill="#de9134"/><path d="m210.902 188.429c-6.009-11.159-18.438-17.197-30.921-15.025l-5.141-29.557c25.228-4.386 50.335 7.812 62.476 30.358z" fill="#ffa73c"/><g><path d="m366.851 252.949c-22.662 17.679-49.646 28.029-80.203 30.762l-9.331 1.222v99.051h-21.333l-10.667 42.666 10.667 27.207c12.239 12.516 29.108 19.794 47.248 19.793h.342c17.188-.087 33.594-6.572 46.197-18.259 12.603-11.688 20.303-27.56 21.682-44.693l1.831-51.254 31.983-80.482c4.917-11.998 8.842-24.314 11.77-36.829l-24.915-15.349c-.043.066-8.178 12.831-25.271 26.165z" fill="#ffa73c"/><path d="m138.685 359.444 1.792 50.582.039.672c1.379 17.132 9.079 33.005 21.682 44.693 12.602 11.688 29.009 18.172 46.197 18.259 18.301.104 35.275-7.199 47.59-19.794l.001.001v-69.873h-21.333v-99.051l-9.331-1.222c-30.557-2.733-57.541-13.082-80.203-30.762-17.092-13.334-25.228-26.099-25.271-26.165l-24.916 15.35c2.928 12.515 6.852 24.831 11.77 36.829z" fill="#fdc661"/></g><g><path d="m267.017 341.318h-11.033l-11.966 32.375 11.966 52.958 29.633-18.178c10.89-6.534 17.553-18.302 17.553-31.001.001-19.968-16.186-36.154-36.153-36.154z" fill="#14232e"/><path d="m244.952 341.318c-19.967 0-36.153 16.187-36.153 36.154 0 12.699 6.663 24.467 17.553 31.001l29.633 18.178v-85.333z" fill="#213b4d"/></g><path d="m116.013 38.318c-33.261 0-64.961 14.301-86.973 39.236-21.969 24.885-32.23 58.034-28.169 90.974l17.532 176.124h28.641c35.443 0 65.508-26.518 69.935-61.683l6.378-50.672.053-.49c4.196-45.306 21.642-87.868 50.452-123.086l3.39-4.144v-66.259z" fill="#36607d"/><path d="m482.929 77.553c-22.012-24.935-53.712-39.235-86.973-39.235h-61.24v66.259l3.39 4.144c28.81 35.217 46.255 77.779 50.452 123.086l6.432 51.162c4.427 35.165 34.492 61.683 69.935 61.683h28.642l17.532-176.124c4.06-32.941-6.201-66.089-28.17-90.975z" fill="#28485e"/></g></svg>