<svg id="Capa_1" enable-background="new 0 0 512 512" height="512" viewBox="0 0 512 512" width="512" xmlns="http://www.w3.org/2000/svg"><g><path d="m80.693 155h172.405l-43.566-107.683c-11.491-28.744-38.807-47.317-69.593-47.317h-43.939v30h23.566z" fill="#fdc661"/><path d="m431.307 155h-172.405l43.566-107.683c11.491-28.744 38.807-47.317 69.592-47.317h43.94v30h-23.566z" fill="#ffa73c"/><g><path d="m378.497 90.8c-40.931-17.192-87.626-7.885-118.966 23.708l-3.531 3.822-10.667 201.67 10.667 181.999 126.967 10.001h60.967l1.536-320c0-44.389-26.288-84.112-66.973-101.2z" fill="#36607d"/><path d="m133.503 90.8c40.931-17.192 87.626-7.885 118.966 23.708l3.531 3.822v383.669l-126.967 10.001h-60.967l-1.536-320c0-44.389 26.288-84.112 66.973-101.2z" fill="#44799b"/></g><g><path d="m382.967 345.026c0-38.838-31.398-70.436-69.992-70.436-22.59 0-43.938 11.188-56.975 29.529l-10.667 111.881 10.667 96h126.967z" fill="#fdd278"/><path d="m199.025 274.59c-38.594 0-69.992 31.597-69.992 70.436v166.974h126.967v-207.88c-13.037-18.342-34.385-29.53-56.975-29.53z" fill="#ffdf8e"/></g><g><g><path d="m320.074 353.497c-6.006 6.137-14.04 9.542-22.621 9.585-2.792.005-5.54-.358-8.207-1.104-9.783-2.74-17.153-11.677-18.34-22.241h-14.907l-10.667 22.851 10.668 13.019c6.714 7.151 15.315 12.503 25.157 15.259 5.253 1.471 10.682 2.216 16.145 2.216.101 0 .203 0 .305-.001 16.659-.084 32.253-6.691 43.91-18.602z" fill="#ffa73c"/><path d="m241.094 339.736c-1.188 10.564-8.558 19.502-18.34 22.242-2.667.747-5.427 1.116-8.208 1.104-8.581-.043-16.614-3.447-22.62-9.585l-21.441 20.983c11.656 11.911 27.25 18.517 43.91 18.602.102 0 .203.001.305.001 5.462 0 10.892-.745 16.145-2.216 9.841-2.756 18.442-8.108 25.156-15.259v-35.871z" fill="#fdc661"/></g><g><path d="m270.787 340.167 6.479-3.974c7.815-4.689 12.596-13.134 12.596-22.248 0-14.329-11.616-25.945-25.945-25.945h-7.917l-4.587 26.233 4.587 25.934z" fill="#14232e"/><path d="m241.212 340.167h14.788v-52.167h-7.917c-14.329 0-25.945 11.616-25.945 25.945 0 9.113 4.782 17.559 12.596 22.248z" fill="#213b4d"/></g></g><path d="m170.379 203.181h30v31.131h-30z" fill="#213b4d"/><path d="m311.621 203.181h30v31.131h-30z" fill="#14232e"/></g></svg>