<svg id="Capa_1" enable-background="new 0 0 511.978 511.978" height="512" viewBox="0 0 511.978 511.978" width="512" xmlns="http://www.w3.org/2000/svg"><g><g><path d="m255.989 368.41v-34.903" fill="#fff"/></g><g><g><path d="m319.213 53.901 143.776 191.421c0 91.546-55.402 146.948-79.06 170.606-22.419 22.419-63.94 42.148-63.94 42.148h-64l-21.333-223.42 21.333-180.755h63.224z" fill="#36607d"/></g><path d="m192.765 53.901-143.776 191.422c0 91.546 55.402 146.948 79.06 170.606 22.419 22.419 63.94 42.148 63.94 42.148h64v-404.176z" fill="#44799b"/></g><path d="m89.067 53.901c-25.386 0-49.63 10.873-66.514 29.831-16.86 18.932-24.866 44.224-21.973 69.406l11.598 112.939h18.945c30.38 0 57.248-20.452 65.338-49.735l7.763-28.101c8.569-25.364 27.661-45.736 52.431-55.928l5.88-2.419 30.23-75.994h-103.698z" fill="#213b4d"/><path d="m422.911 53.901c25.386 0 49.63 10.873 66.514 29.831 16.86 18.932 24.866 44.224 21.973 69.406l-11.598 112.939h-18.945c-30.38 0-57.248-20.452-65.338-49.735l-7.763-28.101c-8.569-25.364-27.661-45.736-52.431-55.928l-5.88-2.419-30.229-75.994h103.697z" fill="#14232e"/><path d="m158.463 204.656h30v30h-30z" fill="#213b4d"/><path d="m323.515 204.656h30v30h-30z" fill="#14232e"/><path d="m301.072 197.364-26.414-14.224c12.141-22.546 37.246-34.745 62.476-30.358l-5.141 29.557c-12.484-2.175-24.913 3.866-30.921 15.025z" fill="#de9134"/><path d="m210.907 197.364c-6.009-11.159-18.438-17.199-30.921-15.025l-5.141-29.557c25.228-4.389 50.335 7.812 62.476 30.358z" fill="#ffa73c"/><g><path d="m347.521 280.383c-24.046-25.403-56.553-39.394-91.532-39.394l-10.667 79 10.667 76.672 14.468 28.936c10.018 20.035 30.155 32.48 52.554 32.48 32.292 0 58.65-26.271 58.757-58.562l.086-25.975c1.806-34.781-10.379-67.85-34.333-93.157z" fill="#ffa73c"/><path d="m255.989 240.989c-34.979 0-67.485 13.99-91.531 39.394-23.955 25.307-36.139 58.376-34.333 93.157l.086 25.975c.107 32.292 26.466 58.562 58.757 58.562 22.399 0 42.537-12.446 52.554-32.48l14.468-28.936z" fill="#fdc661"/></g><g><path d="m270.34 240.989h-14.351l-15.565 42.113 15.565 68.887 38.547-23.646c14.165-8.499 22.832-23.807 22.832-40.326 0-25.973-21.055-47.028-47.028-47.028z" fill="#14232e"/><path d="m241.638 240.989c-25.973 0-47.028 21.055-47.028 47.028 0 16.519 8.667 31.827 22.832 40.326l38.547 23.646v-111z" fill="#213b4d"/></g></g></svg>