<svg id="Capa_1" enable-background="new 0 0 511.977 511.977" height="512" viewBox="0 0 511.977 511.977" width="512" xmlns="http://www.w3.org/2000/svg"><g><g><path d="m255.988 42.322 50.666-10.75h22.824l90.843 83.54c6.684 41.962 2.871 113.419-15.081 157.181l-32.973 80.373-49.945 127.323h-66.334l-10.667-288.001z" fill="#ae632c"/><path d="m255.988 42.322-50.666-10.75h-22.824l-90.843 83.54c-6.684 41.962-2.871 113.419 15.081 157.181l32.973 80.373 49.945 127.323h66.334z" fill="#c97840"/></g><path d="m158.462 187.239h30v30h-30z" fill="#351a0a"/><path d="m323.514 187.239h30v30h-30z" fill="#281408"/><path d="m96.68 31.572c-27.556 0-53.872 11.802-72.199 32.38-18.303 20.552-26.993 48.011-23.849 75.349l12.649 123.171h19.501c32.812 0 61.831-22.089 70.568-53.716l.077-.29c.065-.256 6.621-25.951 14.59-54.942 7.284-26.497 13.013-31.488 27.53-38.996l4.977-2.574 31.976-80.383h-85.82z" fill="#412816"/><g><path d="m373.905 334.763c-7.312-37.401-32.316-66.29-50.923-85.085-15.129-15.282-22.844-30.01-25.8-49.246-2.665-17.339.227-35.511 5.647-53.45 13.493-44.66 3.826-115.41 3.826-115.41h-50.666l-17.789 203.083 17.789 162.912 16.412 47.021c7.477 21.423 27.746 35.816 50.436 35.816 29.391 0 53.355-23.911 53.42-53.301l.135-60.636c.561-10.807-.298-21.44-2.487-31.704z" fill="#efe2dd"/><path d="m205.322 31.572s-9.667 70.75 3.826 115.41c5.42 17.939 8.312 36.111 5.647 53.45-2.956 19.236-10.672 33.964-25.8 49.246-18.605 18.793-43.605 47.678-50.92 85.073-2.191 10.268-3.051 20.905-2.489 31.717l.134 60.636c.065 29.39 24.03 53.301 53.42 53.301 22.691 0 42.959-14.393 50.436-35.816l16.412-47.021v-365.996z" fill="#f7f0eb"/></g><path d="m415.296 31.572c27.556 0 53.872 11.802 72.199 32.38 18.304 20.552 26.993 48.011 23.85 75.349l-12.649 123.171h-19.501c-32.812 0-61.831-22.089-70.568-53.716l-.077-.29c-.065-.256-6.621-25.951-14.59-54.942-7.284-26.497-13.013-31.488-27.53-38.996l-4.977-2.574-31.976-80.383h85.819z" fill="#281408"/><g><path d="m270.165 245.019-15.187.324-15.521 44.918 18.029 72.55 40.259-25.895c14.798-9.314 23.625-25.71 23.252-43.192-.588-27.485-23.346-49.292-50.832-48.705z" fill="#281408"/><path d="m239.79 245.667c-27.486.587-49.293 23.344-48.706 50.831.373 17.482 9.891 33.486 25.074 42.16l41.327 24.153-2.508-117.468z" fill="#412816"/></g></g></svg>