<svg id="Capa_1" enable-background="new 0 0 512.078 512.078" height="512" viewBox="0 0 512.078 512.078" width="512" xmlns="http://www.w3.org/2000/svg"><g><path d="m187.958 58.134c-18.214-16.763-45.489-36.731-69.916-45.141-28.607-9.851-61.063.982-75.503 25.194-10.571 17.726-15.535 38.331-14.755 61.242.714 20.958 6.331 43.277 16.685 66.502 45.816-38.527 94.723-73.1 143.489-107.797z" fill="#ffdf8e"/><path d="m324.12 58.134c18.215-16.763 45.489-36.731 69.916-45.141 28.607-9.851 61.063.982 75.503 25.194 10.571 17.726 15.535 38.331 14.755 61.242-.714 20.958-6.331 43.277-16.685 66.502-45.816-38.527-94.723-73.1-143.489-107.797z" fill="#fdd278"/><g><path d="m256.039 409.552v-36.534" fill="#fff"/></g><path d="m256.039 83.678v99.03" fill="#fff"/><g><path d="m494.249 187.254c-18.762-51.836-49.945-94.234-85.557-116.323-33.022-20.482-63.916-28.814-94.439-25.473-11.598 1.27-22.785 4.388-32.548 8.144l-25.667 31.771-10.667 213.333 10.667 204.003h77.94c36.114 0 73.355-16.143 104.86-45.457 30.753-28.613 54.018-67.922 65.508-110.687 13.069-48.636 9.483-105.213-10.097-159.311z" fill="#ffa73c"/><path d="m197.824 45.458c-30.531-3.343-61.418 4.991-94.438 25.473-35.612 22.089-66.795 64.487-85.557 116.323-19.58 54.098-23.166 110.675-10.099 159.311 11.49 42.764 34.755 82.073 65.508 110.686 31.506 29.314 68.746 45.457 104.86 45.457h77.94v-417.335l-25.658-31.782c-9.916-3.863-20.735-6.839-32.556-8.133z" fill="#fdc661"/></g><g><path d="m357.016 307.167c-26.527-28.024-62.388-43.458-100.976-43.458l-10.667 88.908 10.667 79.312 17.734 35.466c10.891 21.782 32.784 35.313 57.138 35.313 35.108 0 63.766-28.562 63.882-63.67l.097-29.06c2.003-38.385-11.44-74.882-37.875-102.811z" fill="#fdd278"/><path d="m256.039 263.709c-38.589 0-74.449 15.434-100.977 43.458-26.435 27.929-39.878 64.426-37.874 102.811l.097 29.06c.116 35.108 28.773 63.671 63.882 63.671 24.354 0 46.247-13.531 57.138-35.313l17.734-35.468.001.001z" fill="#ffdf8e"/></g><g><path d="m271.597 263.709h-15.557l-16.874 45.653 16.874 74.678 41.787-25.634c15.356-9.214 24.751-25.808 24.751-43.716 0-28.156-22.825-50.981-50.981-50.981z" fill="#1b303e"/><path d="m240.482 263.709c-28.156 0-50.981 22.825-50.981 50.981 0 17.908 9.396 34.503 24.752 43.716l41.787 25.634v-120.331z" fill="#28485e"/></g><path d="m169.18 216.709h30v30h-30z" fill="#28485e"/><path d="m312.898 216.709h30v30h-30z" fill="#1b303e"/><g><g><path d="m256.039 182.709-10.667-54.668 10.667-61.867c7.809-4.536 16.342-8.944 25.667-12.575v129.111h-25.667z" fill="#de9134"/></g><g><path d="m256.039 182.709v-116.536c-7.809-4.536-16.342-8.944-25.667-12.575v129.111z" fill="#ffa73c"/></g></g></g></svg>