<svg id="Capa_1" enable-background="new 0 0 512.011 512.011" height="512" viewBox="0 0 512.011 512.011" width="512" xmlns="http://www.w3.org/2000/svg"><g><path d="m119.738 479.012c-1.767 0-3.543-.057-5.33-.172-27.225-1.751-51.624-16.9-65.27-40.524l-17.302-29.955c-23.522-40.726-34.36-87.06-31.342-133.994 2.259-35.126 12.513-69.919 29.651-100.617 17.169-30.75 41.429-57.714 70.16-77.978 13.655-9.631 28.087-18.797 42.894-27.245l17.076-9.042 60.745 227.999-21.139 123.816c-6.73 39.422-40.684 67.712-80.143 67.712z" fill="#8d562f"/><path d="m392.272 479.012c-39.462 0-73.412-28.288-80.143-67.712l-21.139-123.814 60.745-227.999 17.076 9.042c14.807 8.448 29.239 17.614 42.894 27.245 28.73 20.264 52.991 47.228 70.16 77.978 17.139 30.697 27.392 65.49 29.651 100.616 3.018 46.934-7.82 93.268-31.342 133.994l-17.301 29.955c-13.646 23.624-38.046 38.773-65.271 40.524-1.784.114-3.565.171-5.33.171z" fill="#744727"/><g><g><path d="m256.005 117.953v.004l-21.333 231.849 21.333 92.453c11.41 20.329 33.108 33.37 56.97 33.37 29.831 0 55.846-20.18 63.265-49.074l21.495-83.718z" fill="#efe2dd"/><path d="m114.275 342.839 21.495 83.718c7.419 28.894 33.434 49.073 63.265 49.073 23.862 0 45.56-13.041 56.97-33.37v-324.303z" fill="#f7f0eb"/></g><g><path d="m397.743 342.829 8.323-11.372c23.047-33.851 35.606-74.249 35.606-115.352 0-48.814-19.54-94.836-55.021-129.586-35.24-34.514-81.637-53.521-130.645-53.521l-10.667 85.374 10.667 49.584c0 56.833 26.109 96.859 48.012 120.428 25.638 27.589 61.72 48.055 93.718 54.454.002-.003.005-.006.007-.009z" fill="#ffa73c"/><path d="m207.993 288.384c21.903-23.569 48.012-63.595 48.012-120.428v-134.958c-49.008 0-95.406 19.008-130.645 53.521-35.481 34.75-55.021 80.772-55.021 129.587 0 41.099 12.556 81.493 35.6 115.343l8.336 11.39c31.998-6.4 68.08-26.866 93.718-54.455z" fill="#fdc661"/></g></g><path d="m147.812 220.665h30v30h-30z" fill="#57351d"/><path d="m334.198 220.665h30v30h-30z" fill="#412816"/><g><path d="m265.84 349.806h-9.835l-10.667 28.859 10.667 47.208 26.416-16.204c9.707-5.824 15.647-16.315 15.647-27.635 0-17.799-14.429-32.228-32.228-32.228z" fill="#744727"/><path d="m246.171 349.806c-17.799 0-32.228 14.429-32.228 32.228 0 11.32 5.94 21.811 15.647 27.635l26.416 16.204v-76.067z" fill="#8d562f"/></g></g></svg>