<svg id="Capa_1" enable-background="new 0 0 512.013 512.013" height="512" viewBox="0 0 512.013 512.013" width="512" xmlns="http://www.w3.org/2000/svg"><g><path d="m142.753 181.344-18.192-15.223c-16.683-13.885-24.904-35.888-21.426-57.398l17.161-106.09 10.635-1.761c25.955-4.296 51.562 7.537 65.265 30.144l39.723 65.001z" fill="#213b4d"/><path d="m276.095 96.016 39.723-65.001c13.703-22.607 39.31-34.44 65.265-30.144l10.635 1.761 17.161 106.09c3.479 21.51-4.743 43.513-21.426 57.398l-18.192 15.223z" fill="#14232e"/><g><path d="m382.647 217.824-4.349-44.042c-1.468-9.123-4.656-17.886-9.453-25.783-11.583-19.071-36.742-51.669-78.097-62.521-11.284-2.962-23.013-4.442-34.741-4.442l-10.667 89.644 10.667 48.616c63.319-.477 126.64-1.472 126.64-1.472z" fill="#213b4d"/><path d="m133.715 173.781-4.341 43.916.012-.006c.737 2.039 63.678 2.078 126.621 1.604v-138.26c-11.728 0-23.457 1.481-34.741 4.442-41.355 10.853-66.514 43.45-78.097 62.521-4.797 7.898-7.985 16.66-9.454 25.783z" fill="#28485e"/></g><g><path d="m400.562 399.014-17.915-181.19c-4.42-35.442-34.768-62.169-70.591-62.169-22.759 0-43.037 10.769-56.05 27.464l-10.666 115.561 10.667 100.334z" fill="#28485e"/><path d="m199.957 155.655c-35.823 0-66.171 26.727-70.591 62.169l-17.915 181.19h144.556v-215.894c-13.013-16.696-33.291-27.465-56.05-27.465z" fill="#36607d"/></g><path d="m185.147 224.014h30v30h-30z" fill="#14232e"/><path d="m296.866 224.014h30v30h-30z" fill="#070c0f"/><g><g><path d="m337.699 308.39c-29.454-10.005-60.337-4.993-81.692 12.19l-10.667 95.433 10.667 96h97.369l4.434-4.656c1.883-1.977 46.117-49.035 46.117-102.011 0-54.896-34.211-86.079-66.228-96.956z" fill="#36607d"/><path d="m174.314 308.39c-32.017 10.876-66.228 42.059-66.228 96.956 0 52.977 44.234 100.034 46.117 102.012l4.434 4.655h97.369v-191.433c-21.354-17.183-52.239-22.196-81.692-12.19z" fill="#44799b"/></g><g><g><path d="m320.081 415.574c-6.006 6.137-14.04 9.542-22.621 9.585-2.792.005-5.54-.358-8.207-1.104-9.783-2.74-17.153-11.677-18.34-22.241h-14.906l-10.667 22.851 10.667 13.02c6.714 7.151 15.315 12.503 25.156 15.259 5.253 1.471 10.682 2.216 16.145 2.216.101 0 .203 0 .305-.001 16.659-.084 32.253-6.69 43.91-18.602z" fill="#28485e"/><path d="m241.1 401.813c-1.188 10.564-8.558 19.502-18.34 22.242-2.668.747-5.427 1.116-8.208 1.104-8.581-.043-16.614-3.447-22.62-9.585l-21.441 20.982c11.656 11.911 27.25 18.518 43.91 18.602.102 0 .203.001.305.001 5.462 0 10.892-.745 16.145-2.216 9.841-2.756 18.442-8.108 25.156-15.259v-35.871z" fill="#36607d"/></g><g><path d="m265.487 339.331h-9.481l-10.283 27.821 8.438 37.346h16.978l10.332-7.458c9.358-5.615 15.084-15.728 15.084-26.641 0-17.159-13.909-31.068-31.068-31.068z" fill="#14232e"/><path d="m240.657 404.497h15.349v-65.167h-9.481c-17.158 0-31.068 13.91-31.068 31.068 0 10.913 5.726 21.026 15.084 26.641z" fill="#213b4d"/></g></g></g></g></svg>