<svg id="Capa_1" enable-background="new 0 0 509.645 509.645" height="512" viewBox="0 0 509.645 509.645" width="512" xmlns="http://www.w3.org/2000/svg"><g><g><path d="m254.823 107.002 49.408-28.334c21.017-31.525 56.183-50.346 94.071-50.346 39.485 0 76.633 21.033 96.948 54.891l14.395 23.992-59.207 44.405c-2.233 9.476-14.282 17.878-14.282 17.878l-10.988 30.622c22.426 34.344 66.035 108.041 57.926 197.236l-1.24 13.642h-44.362c-26.56 0-56.147 3.439-83.308 9.683l-99.361 4.818-10.667-149.333z" fill="#28485e"/><path d="m254.823 107.002-49.408-28.334c-21.017-31.525-56.183-50.346-94.071-50.346-39.485 0-76.633 21.033-96.948 54.891l-14.396 23.993 59.207 44.405 14.282 17.878 10.988 30.622c-22.426 34.344-66.035 108.041-57.926 197.236l1.24 13.642h44.362c26.561 0 56.147 3.439 83.308 9.683l99.361 4.818v-318.488z" fill="#36607d"/><path d="m59.207 151.611c2.233 9.476 5.222 18.665 9.218 25.748 5.62 9.963 11.361 17.461 16.052 22.752l31.346-94.622z" fill="#28485e"/><path d="m450.438 151.611c-2.233 9.476-5.222 18.665-9.218 25.748-5.62 9.963-11.361 17.461-16.052 22.752l-31.346-94.622z" fill="#1b303e"/></g><path d="m146.629 235.989h30v30h-30z" fill="#1b303e"/><path d="m333.016 235.989h30v30h-30z" fill="#0f1a23"/><g><path d="m254.823 78.668h49.408s13.461 60.821-2.464 114.413c-5.761 19.387-8.441 39.278-5.729 58.163 3.009 20.956 10.824 36.957 26.13 53.503 24.179 26.139 40.821 60.747 44.739 80.742 3.404 17.375 3.404 32.614 3.404 32.614l-.019.267c-1.379 17.133-9.079 33.005-21.682 44.693s-29.009 18.172-46.197 18.259c-.115.001-.228.001-.343.001-18.14 0-35.009-7.287-47.247-19.805l-10.667-132.028z" fill="#efe2dd"/><path d="m254.823 78.668h-49.408s-13.461 60.821 2.464 114.413c5.761 19.387 8.441 39.278 5.73 58.163-3.009 20.956-10.824 36.957-26.13 53.503-24.179 26.139-40.821 60.747-44.739 80.742-3.404 17.375-3.404 32.614-3.404 32.614l.019.267c1.379 17.133 9.079 33.005 21.682 44.693s29.009 18.172 46.197 18.259c.115.001.228.001.343.001 18.14 0 35.009-7.287 47.247-19.805v-382.85z" fill="#f7f0eb"/></g><g><path d="m265.855 350.823h-11.033l-11.966 32.375 11.966 52.958 29.633-18.178c10.889-6.534 17.553-18.302 17.553-31.001.001-19.968-16.186-36.154-36.153-36.154z" fill="#1b303e"/><path d="m243.79 350.823c-19.967 0-36.154 16.186-36.154 36.154 0 12.699 6.663 24.468 17.553 31.001l29.633 18.178v-85.333z" fill="#28485e"/></g></g></svg>