<svg id="Capa_1" enable-background="new 0 0 512 512" height="512" viewBox="0 0 512 512" width="512" xmlns="http://www.w3.org/2000/svg"><g><g><path d="m421.567 218.867-69.567-58.867-55.941-52.8 23.009-57.096c12.267-30.437 41.398-50.104 74.213-50.104h10.753l44.262 130.542c8.677 25.588 3.044 54.14-14.701 74.515z" fill="#ffa73c"/><path d="m296.059 107.2s66.607 10.133 125.508 111.667c19.082 32.894 43.472 102.263 43.472 102.263 19.927 46.876 15.699 100.644-11.31 143.83l-29.419 47.04h-168.31l-10.667-213.333 10.667-196.293c13.507 0 26.946 1.643 40.059 4.826z" fill="#ffc869"/><path d="m90.433 218.867 69.567-58.867 55.941-52.8-23.009-57.096c-12.267-30.437-41.398-50.104-74.213-50.104h-10.753l-44.262 130.542c-8.677 25.588-3.044 54.14 14.701 74.515z" fill="#fdc661"/><path d="m215.941 107.2s-66.607 10.133-125.508 111.667c-19.082 32.894-43.472 102.263-43.472 102.263-19.927 46.876-15.699 100.644 11.31 143.83l29.418 47.04h168.311v-409.626c-13.507 0-26.946 1.643-40.059 4.826z" fill="#ffdf8e"/><g><path d="m386.526 273c0-26.51-21.49-48-48-48s-48 21.49-48 48c0 14.524-.026 100.333-.026 100.333h-34.5l-10.667 53.333 10.667 44.457c8.21 15.966 26.306 25.967 44.259 25.876 25.848-.13 47.296-20.022 49.371-45.787l4.306-68.816 26.594-30.394-23.267-34.798c17.199-7.299 29.263-24.342 29.263-44.204z" fill="#744727"/><path d="m221.25 373.333s.224-85.809.224-100.333c0-26.51-21.49-48-48-48s-48 21.49-48 48c0 19.862 12.064 36.905 29.264 44.204l-23.267 34.798 26.594 30.394 4.306 68.816c2.074 25.765 23.522 45.657 49.371 45.787 17.953.091 36.048-9.91 44.259-25.876v-97.79z" fill="#8d562f"/></g><path d="m158.474 258h30v30h-30z" fill="#412816"/><path d="m323.526 258h30v30h-30z" fill="#351a0a"/><g><path d="m266.99 352.333h-10.99l-11.919 32.248 11.919 52.752 29.518-18.107c10.847-6.508 17.484-18.23 17.484-30.88 0-19.889-16.123-36.013-36.012-36.013z" fill="#351a0a"/><path d="m245.01 352.333c-19.889 0-36.012 16.123-36.012 36.012 0 12.65 6.637 24.372 17.484 30.88l29.518 18.108v-85z" fill="#412816"/></g></g></g></svg>