<svg id="Capa_1" enable-background="new 0 0 512 512" height="512" viewBox="0 0 512 512" width="512" xmlns="http://www.w3.org/2000/svg"><g><g><path d="m256 74.667-10.667-19.833 10.667-29.682c.009.005.019.01.028.016 37.121-20.662 66.324-25.168 84.716-25.168 79.921 0 144.941 63.377 144.941 141.278 0 27.148-2.251 46.317-4.237 63.23-2.341 19.934-6.288 37.944-2.928 60.021z" fill="#ffa73c"/><path d="m256 74.667v-49.515c-.009.005-.019.01-.029.016-37.121-20.662-66.323-25.168-84.716-25.168-79.92 0-144.941 63.377-144.941 141.278 0 27.148 2.251 46.317 4.237 63.23 2.341 19.934 6.288 37.944 2.928 60.021z" fill="#fdc661"/></g><g><path d="m256 54.833s61.36-3 112.196 21.394c32.485 15.588 58.92 44.67 78.707 86.15 14.746 30.913 26.203 69.347 35.022 117.481.916 5.397 2.038 11.165 3.412 17.421 6.14 27.951 12.487 56.854 11.283 85.087-1.395 32.718-12.993 59.542-35.456 82.005-45.068 45.068-109.74 47.491-191.13 47.621 0 0-13.342.008-14.033.007l-10.667-223.999z" fill="#fdd278"/><path d="m256 54.833s-61.36-3-112.196 21.394c-32.485 15.588-58.92 44.67-78.707 86.15-14.746 30.913-26.203 69.347-35.022 117.481-.916 5.397-2.038 11.165-3.412 17.421-6.14 27.951-12.487 56.854-11.283 85.087 1.396 32.718 12.993 59.542 35.456 82.005 45.068 45.068 109.74 47.491 191.13 47.621 0 0 13.342.008 14.033.007v-457.166z" fill="#ffdf8e"/></g><g><path d="m256 138.667c0 55.95 28.114 108.284 74.208 139.995l15.456 10.632h-89.664l-10.667-33.293z" fill="#ffa73c"/><path d="m256 138.667c0 55.95-28.114 108.284-74.208 139.995l-15.456 10.632h89.664z" fill="#fdc661"/></g><g><g><path d="m358.105 299.748c-18.265-18.426-42.615-28.573-68.564-28.573h-33.541l-10.213 116.492 10.213 101.174h58.376c18.049 0 35.31-6.722 48.606-18.929 13.295-12.206 21.465-28.832 23.004-46.815l.052-.604.051-54.032c.211-25.895-9.726-50.295-27.984-68.713z" fill="#ae632c"/><path d="m222.459 271.174c-25.95 0-50.3 10.147-68.565 28.573-18.259 18.421-28.197 42.823-27.983 68.722l.051 54.024.051.604c1.539 17.983 9.709 34.609 23.004 46.815 13.296 12.206 30.558 18.928 48.607 18.928h58.376v-217.666z" fill="#c97840"/></g><g><path d="m313.947 385.57c-5.282 5.398-12.349 8.392-19.895 8.43-2.447.029-4.858-.313-7.198-.969-8.504-2.381-14.913-10.167-15.948-19.374h-14.906l-10.667 21.008 10.667 13.84c6.177 6.256 13.941 10.944 22.764 13.415 4.931 1.381 10.028 2.081 15.156 2.081.094 0 .188 0 .283-.001 15.626-.08 30.252-6.276 41.185-17.448z" fill="#744727"/><path d="m241.094 373.659c-1.034 9.206-7.443 16.991-15.947 19.373-2.339.655-4.785 1.006-7.197.969-7.548-.038-14.614-3.032-19.896-8.43l-21.441 20.982c10.933 11.172 25.56 17.368 41.187 17.448.095.001.188.001.283.001 5.127 0 10.225-.7 15.155-2.081 8.824-2.471 16.588-7.158 22.764-13.415v-34.847z" fill="#8d562f"/></g><g><path d="m270.431 271.174h-14.431l-15.652 42.347 15.652 69.271 38.761-23.777c14.244-8.546 22.959-23.939 22.959-40.55 0-26.118-21.172-47.291-47.289-47.291z" fill="#281408"/><path d="m241.569 271.174c-26.117 0-47.289 21.172-47.289 47.289 0 16.611 8.715 32.004 22.959 40.55l38.761 23.779v-111.618z" fill="#412816"/></g></g></g></svg>