<svg id="Capa_1" enable-background="new 0 0 512.001 512.001" height="512" viewBox="0 0 512.001 512.001" width="512" xmlns="http://www.w3.org/2000/svg"><g><path d="m478.605 59.667h33.396v119.248c0 44.894-36.524 81.418-81.418 81.418h-104.249v-48.396c0-83.961 68.308-152.27 152.271-152.27z" fill="#ffa73c"/><path d="m409.575 236.324c3.759-33.829 17.993-65.921 42.308-95.385l-23.139-19.095c-28.091 34.04-44.572 71.442-48.986 111.167z" fill="#d68f2f"/><path d="m256 160-10.667 181.333 10.667 82.99h.165c12.286 17.481 32.258 28.01 54.084 28.01 17.188 0 33.627-6.402 46.288-18.026 12.662-11.624 20.442-27.457 21.907-44.582l3.294-38.487c-1.213-.363-125.738-191.238-125.738-191.238z" fill="#fdd278"/><path d="m130.262 351.239 3.294 38.487c1.466 17.125 9.246 32.958 21.907 44.582s29.1 18.026 46.288 18.026c21.826 0 41.798-10.529 54.084-28.01h.165v-264.324s-124.526 190.875-125.738 191.239z" fill="#ffdf8e"/><path d="m430.738 253.343c0-45.949-18.392-89.267-51.787-121.974-33.163-32.481-76.828-50.369-122.951-50.369l-10.667 57.667 10.667 44.442c0 66.344 31.877 107.366 58.619 130.096 28.73 24.421 65.906 37.669 67.12 38.034 23.566-18.315 48.999-49.338 48.999-97.896z" fill="#efe2dd"/><path d="m33.396 59.667h-33.396v119.248c0 44.894 36.524 81.418 81.418 81.418h104.249v-48.396c0-83.961-68.309-152.27-152.271-152.27z" fill="#fdc661"/><path d="m102.425 236.324c-3.759-33.829-17.993-65.921-42.308-95.385l23.139-19.095c28.091 34.04 44.572 71.442 48.986 111.167z" fill="#db9b44"/><path d="m256 183.109v-102.109c-46.123 0-89.788 17.888-122.951 50.368-33.395 32.707-51.787 76.025-51.787 121.974 0 48.559 25.433 79.581 48.999 97.896 1.212-.363 38.389-13.612 67.12-38.034 26.742-22.729 58.619-63.751 58.619-130.095z" fill="#f7f0eb"/><g><path d="m264.275 341.334h-8.275l-8.974 24.281 8.974 39.719 22.225-13.634c8.167-4.9 13.165-13.727 13.165-23.251 0-14.975-12.14-27.115-27.115-27.115z" fill="#1b303e"/><path d="m247.726 341.334c-14.975 0-27.115 12.14-27.115 27.115 0 9.525 4.997 18.351 13.164 23.251l22.225 13.634v-64z" fill="#28485e"/></g><path d="m142.474 247.334h30v30h-30z" fill="#28485e"/><path d="m339.526 247.334h30v30h-30z" fill="#1b303e"/></g></svg>