<svg id="Capa_1" enable-background="new 0 0 511.98 511.98" height="512" viewBox="0 0 511.98 511.98" width="512" xmlns="http://www.w3.org/2000/svg"><g><g><path d="m329.88 55.407 121.52 170.677c0 56.59-30.467 85.356-54.946 108.469-8.352 7.885-13.809 17.936-21.634 22.806 0 0-135.444 7.344-118.646 10.709.06.012-.123 0-.185 0l-10.666-139.828 10.667-172.833z" fill="#fdd278"/><path d="m182.1 55.407-121.521 170.677c0 56.59 30.467 85.356 54.946 108.469 8.352 7.885 13.81 17.936 21.634 22.806 0 0 135.444 7.344 118.645 10.709-.06.012.123 0 .185 0v-312.661z" fill="#ffdf8e"/></g><path d="m142.463 214.828h30v30h-30z" fill="#744727"/><path d="m339.516 214.828h30v30h-30z" fill="#57351d"/><path d="m83.992 55.407c-23.939 0-46.802 10.253-62.724 28.131-15.898 17.852-23.447 41.7-20.721 65.446l10.897 106.115h18.575c28.759 0 54.193-19.36 61.852-47.081l7.224-26.146c7.892-23.332 25.458-42.071 48.247-51.447l5.88-2.419 28.878-72.599z" fill="#fdc661"/><path d="m490.711 83.538c-15.922-17.877-38.784-28.131-62.724-28.131h-98.108l28.88 72.598 5.88 2.419c22.789 9.376 40.355 28.115 48.247 51.447l7.223 26.146c7.658 27.721 33.092 47.082 61.852 47.082h18.575l10.897-106.113c2.727-23.747-4.822-47.596-20.722-65.448z" fill="#ffa73c"/><g><path d="m320.905 270.646c-26.783-24.714-49.915-46.058-49.915-93.677v-23.395h-15l-10.667 181.333 10.667 100.773c12.668 13.201 30.272 20.893 49.218 20.893.117 0 .237 0 .354-.001 17.747-.09 34.688-6.786 47.701-18.854s20.964-28.457 22.388-46.148l.194-18.118.001-.129c.001-51.981-29.188-78.914-54.941-102.677z" fill="#efe2dd"/><path d="m240.99 153.574v23.395c0 47.62-23.132 68.963-49.915 93.677-25.753 23.763-54.942 50.696-54.942 102.678l.148 17.173.048 1.074c1.424 17.69 9.374 34.08 22.388 46.148 13.013 12.068 29.953 18.764 47.701 18.854.119.001.236.001.354.001 18.944 0 36.551-7.693 49.218-20.894v-282.106z" fill="#f7f0eb"/></g><g><path d="m267.023 324.24h-11.033l-11.966 32.375 11.966 52.958 29.633-18.178c10.89-6.534 17.553-18.302 17.553-31.001 0-19.967-16.186-36.154-36.153-36.154z" fill="#ae632c"/><path d="m244.957 324.24c-19.967 0-36.153 16.186-36.153 36.154 0 12.699 6.663 24.467 17.553 31.001l29.633 18.178v-85.333z" fill="#c97840"/></g></g></svg>