<svg id="Capa_1" enable-background="new 0 0 512.003 512.003" height="512" viewBox="0 0 512.003 512.003" width="512" xmlns="http://www.w3.org/2000/svg"><g><path d="m190.762 30.167-130.939 52.735c-38.213 15.39-62.18 53.356-59.639 94.473l19.6 317.023h53.219c28.503 0 52.655-21.331 56.177-49.615l30.609-245.792z" fill="#57351d"/><path d="m452.18 82.902-130.939-52.735 30.974 168.824 30.609 245.792c3.521 28.286 27.673 49.616 56.177 49.615h53.219l19.6-317.023c2.54-41.117-21.427-79.083-59.64-94.473zm-142.146-24.907.018.007c-.007-.002-.012-.004-.018-.007z" fill="#351a0a"/><g><g><path d="m256.001 148.676-10.667 139.325 10.667 125.928c11.05 10.821 26.007 17.087 42.058 17.086.103 0 .209 0 .311-.001 23.094-.116 43.793-13.85 55.373-36.737 8.87-17.533 35.821-87.788 35.821-87.788z" fill="#ffa73c"/><path d="m122.439 306.49c11.754 31.225 26.951 70.256 35.821 87.788 11.58 22.887 32.279 36.62 55.372 36.737 16.122.087 31.249-6.195 42.37-17.086v-265.253z" fill="#fdc661"/></g><g><path d="m442.564 201.594c0-49.05-19.635-95.293-55.286-130.211-35.41-34.68-82.031-53.78-131.276-53.78l-10.667 67.731 10.667 63.341c0 79.359 57.78 145.211 133.563 157.813.003-.009.007-.018.01-.028 25.01-19.203 52.989-52.417 52.989-104.866z" fill="#744727"/><path d="m256.001 148.676v-131.072c-49.245 0-95.866 19.099-131.276 53.78-35.651 34.918-55.286 81.161-55.286 130.21 0 52.449 27.979 85.662 52.989 104.868.003.009.007.018.01.028 75.784-12.603 133.563-78.455 133.563-157.814z" fill="#8d562f"/></g></g><path d="m140.515 202.668h30v30h-30z" fill="#351a0a"/><path d="m341.488 202.668h30v30h-30z" fill="#281408"/><g><path d="m264.276 341.335h-8.274l-8.975 24.281 8.975 39.719 22.225-13.634c8.167-4.9 13.164-13.727 13.164-23.251 0-14.975-12.14-27.115-27.115-27.115z" fill="#351a0a"/><path d="m247.727 341.335c-14.975 0-27.115 12.14-27.115 27.115 0 9.525 4.997 18.351 13.164 23.251l22.225 13.634v-64z" fill="#412816"/></g></g></svg>