<svg id="Capa_1" enable-background="new 0 0 512.088 512.088" height="512" viewBox="0 0 512.088 512.088" width="512" xmlns="http://www.w3.org/2000/svg"><g><g><path d="m494.196 176.258c-17.817-48.517-47.678-87.672-84.081-110.252-33.024-20.484-64.137-28.818-95.124-25.476-23.493 2.534-43.335 11.715-58.948 20.732l-10.667 173.456 10.667 140.983 96.076 9.481 21.609 87.092h37.789c29.848 0 56.278-17.926 67.336-45.669 9.234-23.17 21.44-56.893 27.149-85.969 11.068-56.367 6.985-113.209-11.806-164.378z" fill="#fdd278"/><path d="m197.096 40.53c-30.98-3.344-62.1 4.992-95.124 25.476-36.403 22.581-66.263 61.735-84.08 110.252-18.791 51.169-22.874 108.011-11.807 164.378 5.709 29.077 17.915 62.799 27.149 85.969 11.058 27.743 37.488 45.669 67.336 45.669h37.789l21.609-87.092 96.076-9.481v-314.44c-15.613-9.016-35.455-18.197-58.948-20.731z" fill="#ffdf8e"/></g><path d="m323.355 102.384c24.357 0 47.118 9.749 64.091 27.452 15.838 16.518 25.958 39.131 28.496 63.672.415 4.016.203 9.719-.118 18.352-1.047 28.127-3.058 82.157 16.543 120.522l.003.001c-.619.845-19.706 26.023-48.27 45.892-26.247 18.256-69.769 40.019-128.056 40.019l-10.667-162.244 10.667-124.637c17.314-18.264 41.633-29.029 67.311-29.029z" fill="#ffa73c"/><path d="m188.733 102.384c-24.357 0-47.118 9.749-64.091 27.452-15.838 16.518-25.958 39.131-28.496 63.672-.415 4.016-.203 9.719.118 18.352 1.047 28.127 3.058 82.157-16.543 120.522l-.003.001c.619.845 19.706 26.023 48.27 45.892 26.247 18.256 69.769 40.019 128.056 40.019v-286.881c-17.314-18.264-41.633-29.029-67.311-29.029z" fill="#fdc661"/><path d="m147.851 215.384h30v30h-30z" fill="#57351d"/><path d="m334.237 215.384h30v30h-30z" fill="#412816"/><g><g><path d="m320.118 312.192c-6.006 6.137-14.04 9.542-22.621 9.585-2.792.005-5.54-.358-8.207-1.104-9.783-2.74-17.153-11.678-18.34-22.241h-14.906l-10.667 22.851 10.667 13.02c6.714 7.151 15.315 12.503 25.156 15.259 5.253 1.471 10.682 2.216 16.145 2.216.101 0 .203 0 .305-.001 16.659-.084 32.253-6.69 43.91-18.602z" fill="#de9134"/><path d="m241.138 298.431c-1.188 10.564-8.558 19.502-18.34 22.242-2.667.747-5.427 1.116-8.207 1.104-8.581-.043-16.614-3.447-22.62-9.585l-21.441 20.982c11.656 11.911 27.251 18.518 43.91 18.602.102 0 .203.001.305.001 5.462 0 10.892-.745 16.145-2.216 9.841-2.756 18.442-8.108 25.156-15.259v-35.871z" fill="#ffa73c"/></g><g><path d="m265.524 235.949h-9.481l-10.283 27.821 8.438 37.346h16.978l10.332-7.458c9.358-5.615 15.084-15.728 15.084-26.641.001-17.159-13.909-31.068-31.068-31.068z" fill="#744727"/><path d="m240.694 301.115h15.349v-65.167h-9.481c-17.158 0-31.068 13.91-31.068 31.068 0 10.913 5.726 21.026 15.084 26.641z" fill="#8d562f"/></g></g></g></svg>