<svg id="Capa_1" enable-background="new 0 0 512 512" height="512" viewBox="0 0 512 512" width="512" xmlns="http://www.w3.org/2000/svg"><g><g><path d="m162.587 78.463c-25.134-20.945-54.991-26.49-86.347-16.041-29.604 9.869-53.947 33.305-66.786 64.302-14.084 34.002-12.387 71.637 4.78 105.97 27.562 55.125 38.646 103.467 34.883 152.136-2.187 28.29-14.02 59.476-14.137 59.78l-5.105 13.298 13.017 5.785c12.348 5.488 25.262 8.084 37.984 8.084 35.956 0 70.356-20.75 85.924-55.623z" fill="#fdc661"/><path d="m349.413 78.463c25.134-20.945 54.991-26.49 86.347-16.041 29.604 9.869 53.947 33.305 66.786 64.302 14.085 34.002 12.387 71.637-4.78 105.97-27.562 55.125-38.647 103.467-34.883 152.136 2.187 28.29 14.021 59.476 14.137 59.78l5.105 13.298-13.017 5.785c-12.348 5.488-25.262 8.084-37.984 8.084-35.956 0-70.356-20.75-85.924-55.623z" fill="#ffa73c"/></g><g><g><path d="m359.422 76.363c-25.639-29.888-62.368-46.349-103.422-46.349l-10.667 255.278 10.667 181.106c10.526 9.887 24.54 15.589 39.548 15.588.099 0 .2 0 .3-.001 15-.076 29.318-5.735 40.316-15.935 10.94-10.146 17.647-23.905 18.903-38.767l16.768-151.393c10.044-18.132 25.093-51.772 25.093-90.5 0-42.112-13.32-80.832-37.506-109.027z" fill="#fdd278"/><path d="m152.578 76.363c-24.186 28.195-37.506 66.915-37.506 109.028 0 38.728 15.049 72.367 25.093 90.499l16.768 151.393c1.256 14.861 7.963 28.621 18.903 38.767 10.998 10.2 25.316 15.86 40.316 15.935.101.001.2.001.3.001 15.006 0 29.021-5.702 39.548-15.588v-436.384c-41.054 0-77.783 16.461-103.422 46.349z" fill="#ffdf8e"/></g><path d="m172 175.014h30v30h-30z" fill="#351a0a"/><path d="m310 175.014h30v30h-30z" fill="#281408"/><g><path d="m271 274.625h-15l-10.667 48 10.667 48h15z" fill="#ffa73c"/><path d="m241 274.625h15v96h-15z" fill="#fdc661"/></g><g><path d="m267.033 359.958h-11.033l-11.966 32.375 11.966 52.958 29.633-18.178c10.89-6.534 17.553-18.302 17.553-31.001 0-19.968-16.186-36.154-36.153-36.154z" fill="#281408"/><path d="m244.967 359.958c-19.967 0-36.153 16.186-36.153 36.154 0 12.699 6.663 24.468 17.553 31.001l29.633 18.178v-85.333z" fill="#412816"/></g></g></g></svg>