<svg id="Capa_1" enable-background="new 0 0 512 512" height="512" viewBox="0 0 512 512" width="512" xmlns="http://www.w3.org/2000/svg"><g><path d="m236.184 487.396h-97.92c-59.998 0-112.086-42.701-123.853-101.534-10.207-51.037-7.006-104.147 9.257-153.588 16.264-49.441 45.217-94.08 83.729-129.091l25.571-23.246 103.216 73.726z" fill="#c8beb9"/><path d="m275.816 153.662 103.216-73.726 25.571 23.246c38.512 35.011 67.465 79.65 83.728 129.091 16.263 49.442 19.464 102.552 9.257 153.588-11.767 58.833-63.854 101.534-123.853 101.534h-97.92v-333.733z" fill="#b8aeaa"/><g><path d="m376.975 156.947c-32.631-31.958-75.593-49.558-120.975-49.558l-10.667 223.277 10.667 165.257c10.732 10.193 25.083 16.078 40.458 16.077.101 0 .203 0 .304-.001 15.26-.077 29.824-5.834 41.013-16.21s18.024-24.467 19.249-39.677l4.686-70.668 11.792-7.55.555-.373c24.578-17.327 53.875-48.837 53.875-100.555-.002-45.213-18.098-87.836-50.957-120.019z" fill="#efe2dd"/><path d="m256 107.389c-45.382 0-88.345 17.6-120.976 49.558-32.858 32.182-50.955 74.806-50.955 120.019 0 51.718 29.297 83.228 53.875 100.555l12.5 8.021 4.516 70.327.018.242c1.224 15.21 8.06 29.302 19.248 39.678s25.754 16.133 41.013 16.21c.103 0 .203.001.305.001 15.374 0 29.726-5.885 40.457-16.077z" fill="#f7f0eb"/></g><g><path d="m363.699 34.986c-28.926-22.561-67.175-34.986-107.699-34.986l-10.667 128 10.667 119.24c40.524 0 78.773-12.425 107.699-34.986 30.026-23.42 46.564-54.898 46.564-88.634-.001-33.737-16.538-65.214-46.564-88.634z" fill="#c8beb9"/><path d="m256 0c-40.524 0-78.773 12.425-107.698 34.986-30.027 23.42-46.565 54.897-46.565 88.633s16.537 65.214 46.565 88.634c28.925 22.561 67.173 34.987 107.698 34.987z" fill="#dcd2cd"/></g><path d="m158.473 277.333h30v30h-30z" fill="#412816"/><path d="m323.526 277.333h30v30h-30z" fill="#351a0a"/><g><path d="m264.274 426.667h-8.274l-8.974 24.281 8.974 39.719 22.225-13.634c8.167-4.9 13.164-13.727 13.164-23.251.001-14.976-12.139-27.115-27.115-27.115z" fill="#351a0a"/><path d="m247.726 426.667c-14.975 0-27.115 12.14-27.115 27.115 0 9.525 4.997 18.351 13.164 23.251l22.225 13.634v-64z" fill="#412816"/></g></g></svg>