<svg id="Capa_1" enable-background="new 0 0 511.978 511.978" height="512" viewBox="0 0 511.978 511.978" width="512" xmlns="http://www.w3.org/2000/svg"><g><g><path d="m319.213 53.901h-63.223l-10.667 202.088 10.667 202.088h68.193c7.855 0 14.493-5.621 15.78-13.362.688-4.128 7.801-41.677 45.073-88.268 4.59-5.737 9.907-11.355 15.538-17.303 22.643-23.923 50.825-53.695 50.825-114.566z" fill="#ae632c"/><path d="m192.767 53.901-132.188 170.677c0 60.871 28.183 90.644 50.827 114.567 5.63 5.948 10.947 11.565 15.537 17.303 37.279 46.599 44.385 84.138 45.071 88.262 1.288 7.746 7.926 13.368 15.782 13.368h68.193v-404.177z" fill="#c97840"/></g><path d="m158.463 197.744h30v30h-30z" fill="#351a0a"/><path d="m323.516 197.744h30v30h-30z" fill="#281408"/><g><path d="m89.067 53.901c-25.387 0-49.63 10.873-66.514 29.831-16.86 18.931-24.866 44.223-21.973 69.405l11.6 112.94h18.944c30.381 0 57.249-20.452 65.338-49.735l7.764-28.1c8.569-25.366 27.66-45.736 52.431-55.928l5.881-2.419 30.23-75.993h-103.701z" fill="#744727"/><path d="m489.425 83.732c-16.884-18.957-41.127-29.831-66.514-29.831h-103.698l30.229 75.993 5.881 2.419c24.771 10.192 43.861 30.562 52.43 55.928l7.764 28.1c8.091 29.283 34.959 49.735 65.338 49.735h18.946l11.596-112.933c2.894-25.183-5.111-50.479-21.972-69.411z" fill="#57351d"/></g><g><path d="m281.656 133.744h-25.667l-10.666 58.245 10.666 48.421h25.667z" fill="#efe2dd"/><path d="m230.322 133.744h25.667v106.666h-25.667z" fill="#f7f0eb"/></g><g><g><path d="m352.943 270.136c-25.471-26.908-59.902-41.727-96.953-41.727h-.001l-10.667 91.58 10.667 71.296 16.343 32.685c10.518 21.038 31.665 34.107 55.186 34.107 33.908 0 61.586-27.586 61.699-61.495l.093-27.746c1.919-36.849-10.988-71.888-36.367-98.7z" fill="#57351d"/><path d="m255.989 228.409c-37.051 0-71.482 14.819-96.953 41.727-25.379 26.812-38.285 61.85-36.367 98.699l.093 27.746c.112 33.909 27.79 61.495 61.699 61.495 23.521 0 44.668-13.069 55.186-34.107l16.343-32.685z" fill="#744727"/></g><g><path d="m268.649 228.409h-12.66l-13.731 37.15 13.731 60.769 34.004-20.859c12.495-7.497 20.141-21.001 20.141-35.573.001-22.913-18.573-41.487-41.485-41.487z" fill="#281408"/><path d="m243.33 228.409c-22.912 0-41.485 18.574-41.485 41.485 0 14.572 7.646 28.076 20.141 35.573l34.004 20.859v-97.918h-12.66z" fill="#412816"/></g></g></g></svg>