<svg id="Capa_1" enable-background="new 0 0 512.168 512.168" height="512" viewBox="0 0 512.168 512.168" width="512" xmlns="http://www.w3.org/2000/svg"><g><g><path d="m401.637 81.693c-40.849-36.647-92.54-56.829-145.552-56.829h-.001l-10.667 167.221 10.667 159.999s149.659-5.688 149.884-5.658c10.636-12.362 57.116-70.574 57.116-143.675 0-41.285-22.971-86.54-61.447-121.058z" fill="#36607d"/><path d="m256.083 24.864c-53.011 0-104.703 20.182-145.552 56.829-38.476 34.518-61.447 79.773-61.447 121.058 0 73.101 46.48 131.313 57.116 143.675.225-.029 149.884 5.658 149.884 5.658v-327.22z" fill="#44799b"/></g><path d="m151.264 224.084h30v30h-30z" fill="#213b4d"/><path d="m330.904 224.084h30v30h-30z" fill="#14232e"/><path d="m193.001 203.483c-6.687-5.72-15.492-8.139-24.156-6.628l-5.141-29.557c17.506-3.043 35.292 1.834 48.797 13.387z" fill="#ffa73c"/><path d="m319.168 203.483-19.5-22.798c13.505-11.552 31.292-16.432 48.797-13.387l-5.141 29.557c-8.669-1.511-17.47.908-24.156 6.628z" fill="#de9134"/><path d="m190.819 36.381c-15.261-25.463-37.544-36.297-62.102-36.297h-106.978l-4.56 8.749c-.537 1.031-13.199 25.655-16.376 60.544-4.244 46.619 8.213 97.172 40.074 132.311l9.463 11.075 13.244-6.846c45.5-24.5 78.056-72.227 89.124-93.318 0 0 21.271-34.227 38.111-76.218z" fill="#213b4d"/><path d="m321.349 36.381c15.261-25.463 37.544-36.297 62.102-36.297h106.978l4.56 8.749c.537 1.031 13.2 25.655 16.376 60.544 4.244 46.619-8.213 97.172-40.074 132.311l-9.463 11.075-13.244-6.846c-45.5-24.5-78.056-72.227-89.124-93.318 0 0-21.271-34.227-38.111-76.218z" fill="#14232e"/><g><path d="m341.48 327.888c-25.555-12.664-45.647-29.255-59.73-50.029v-154.322h-25.665l-10.668 271.213 10.667 97.213c12.243 12.715 29.231 20.122 47.511 20.121h.342c25.342-.128 48.08-15.243 60.825-40.433 6.623-13.089 15.381-42.144 24.654-72.903 5.828-19.333 11.842-39.283 16.552-52.322-.225-.029-31.134-2.008-64.488-18.538z" fill="#ffa73c"/><path d="m230.416 123.537v154.326c-14.083 20.772-34.174 37.362-59.727 50.025-33.354 16.53-64.263 18.509-64.488 18.538 4.709 13.039 10.724 32.989 16.552 52.322 9.272 30.76 18.031 59.814 24.654 72.903 12.745 25.19 35.483 40.305 60.825 40.433h.342c18.279 0 35.27-7.407 47.511-20.121v-368.427h-25.669z" fill="#fdc661"/></g><g><path d="m267.117 405.418h-11.033l-11.966 32.375 11.966 52.958 29.633-18.178c10.89-6.534 17.553-18.302 17.553-31.001 0-19.968-16.186-36.154-36.153-36.154z" fill="#14232e"/><path d="m245.051 405.418c-19.967 0-36.154 16.186-36.154 36.154 0 12.699 6.663 24.467 17.553 31.001l29.634 18.178v-85.333z" fill="#213b4d"/></g></g></svg>