<svg id="Capa_1" enable-background="new 0 0 511.46 511.46" height="512" viewBox="0 0 511.46 511.46" width="512" xmlns="http://www.w3.org/2000/svg"><g><path d="m205.296 30.507-89.791 65.574-18.132 254.65 147.69 1.269-4.557-324.769c-15.049.629-27.201 2.075-35.21 3.276z" fill="#fdc661"/><path d="m255.73 42.667v74.666" fill="#fff"/><path d="m209.73 29.673c-10.332-18.156-29.89-29.673-50.968-29.673h-91.815l-3.913 7.881c-.461.929-11.329 23.11-14.055 54.537-3.643 41.994 8.885 80.922 36.229 112.575l5.709 6.609 8.474-2.118c2.258-.565 22.734-6.193 45.996-29.669 13.039-13.158 24.467-29.464 33.967-48.463-.001 0 15.923-33.854 30.376-71.679z" fill="#c97840"/><path d="m306.165 30.507 89.791 65.574 18.132 254.65-147.691 1.269 4.556-324.769c15.05.629 27.202 2.075 35.212 3.276z" fill="#ffa73c"/><path d="m301.73 29.673c10.332-18.156 29.891-29.673 50.968-29.673h91.815l3.913 7.881c.461.929 11.329 23.11 14.055 54.537 3.643 41.994-8.885 80.922-36.229 112.575l-5.709 6.609-8.473-2.118c-2.258-.565-22.734-6.193-45.996-29.669-13.039-13.158-24.467-29.464-33.966-48.463 0 0-15.925-33.854-30.378-71.679z" fill="#ae632c"/><path d="m166.397 183.333h30v30h-30z" fill="#351a0a"/><path d="m315.063 183.333h30v30h-30z" fill="#281408"/><g><path d="m287.353 232.617c8.54 28.058 21.63 38.321 35.878 46.466 11.464 6.554 28.871 12.517 28.871 12.517 36.809 12.27 63.34 43.714 69.239 82.064 3.914 25.437-1.776 51.25-16.021 72.684-14.246 21.434-35.842 36.676-60.81 42.918l-88.78 22.194-10.667-138.127 10.667-346.42c5.344 0 10.427.12 15.222.32 1.048 33.801 5.886 170.839 16.401 205.384z" fill="#efe2dd"/><path d="m224.108 232.617c-8.54 28.058-21.63 38.321-35.878 46.466-11.464 6.554-28.871 12.517-28.871 12.517-36.809 12.27-63.34 43.714-69.239 82.064-3.914 25.437 1.776 51.25 16.021 72.684 14.246 21.434 35.842 36.676 60.81 42.918l88.779 22.194v-484.547c-5.344 0-10.427.12-15.222.32-1.048 33.801-5.886 170.839-16.4 205.384z" fill="#f7f0eb"/></g><g><g><path d="m319.804 397.748c-6.006 6.137-14.04 9.542-22.621 9.585-2.792.005-5.54-.358-8.207-1.104-9.783-2.74-17.153-11.678-18.34-22.241h-14.906l-10.667 22.851 10.667 13.02c6.714 7.151 15.315 12.503 25.156 15.259 5.253 1.471 10.682 2.216 16.145 2.216.101 0 .203 0 .305-.001 16.659-.084 32.253-6.69 43.91-18.602z" fill="#c8beb9"/><path d="m240.824 383.987c-1.188 10.564-8.558 19.502-18.34 22.242-2.667.747-5.427 1.116-8.208 1.104-8.581-.043-16.614-3.447-22.62-9.585l-21.441 20.982c11.656 11.911 27.251 18.518 43.91 18.602.102 0 .203.001.305.001 5.462 0 10.892-.745 16.145-2.216 9.841-2.756 18.442-8.108 25.156-15.259v-35.871z" fill="#dcd2cd"/></g><g><path d="m265.211 321.505h-9.481l-10.283 27.821 8.438 37.346h16.978l10.332-7.458c9.358-5.615 15.084-15.728 15.084-26.641 0-17.158-13.91-31.068-31.068-31.068z" fill="#281408"/><path d="m240.381 386.672h15.349v-65.167h-9.481c-17.158 0-31.068 13.91-31.068 31.068 0 10.913 5.726 21.026 15.084 26.641z" fill="#412816"/></g></g></g></svg>