<svg id="Capa_1" enable-background="new 0 0 511.98 511.98" height="512" viewBox="0 0 511.98 511.98" width="512" xmlns="http://www.w3.org/2000/svg"><g><g><path d="m302.99 54.823h22.552l148.033 81.852s.145 132.191-.01 136.573h.001c-2.09 41.242-17.084 79.371-43.361 110.267-24.346 28.626-58.232 51.042-97.994 64.823l-76.221-39.358-10.667-49.24 10.667-42.667z" fill="#ae632c"/><path d="m255.99 54.823h-69.552l-148.033 81.853s-.146 132.191.01 136.573h-.001c2.09 41.242 17.084 79.371 43.361 110.267 24.346 28.626 58.232 51.042 97.994 64.823l76.221-39.359z" fill="#c97840"/></g><path d="m123.657 223.99h30v30h-30z" fill="#412816"/><path d="m358.324 223.99h30v30h-30z" fill="#351a0a"/><path d="m84.438 54.823c-24.067 0-47.05 10.308-63.057 28.28-16.006 17.973-23.595 41.992-20.819 65.898l11.126 95.822h13.358.001c34.69 0 65.373-22.114 76.343-55.025l2.488-7.461c7.535-22.606 26.657-42.119 51.151-52.197l6.258-2.575 25.149-72.741h-101.998z" fill="#57351d"/><path d="m427.542 54.823c24.067 0 47.05 10.308 63.057 28.28 16.006 17.973 23.595 41.991 20.819 65.897l-11.126 95.822h-13.358c-.003 0 .001 0-.001 0-34.69 0-65.373-22.114-76.343-55.025l-2.488-7.461c-7.535-22.606-26.657-42.119-51.151-52.197l-6.258-2.575-25.149-72.741z" fill="#412816"/><g><path d="m302.99 171.023c0 38.824 17.387 75.001 47.704 99.254l-94.704 46.797-10.667-106.666 10.667-155.585h47z" fill="#dcd2cd"/><path d="m208.99 171.023c0 38.824-17.387 75.001-47.704 99.254l94.704 46.797v-262.251h-47z" fill="#efe2dd"/></g><g><path d="m364.062 281.376c-19.318-19.488-45.073-30.221-72.519-30.221h-35.553l-10.667 87.252 10.667 89.313c14.834 17.428 39.129 29.437 61.878 29.437 19.076 0 37.319-7.104 51.371-20.005 14.052-12.9 22.686-30.472 24.312-49.478l.054-.626.055-32.992c.223-27.389-10.288-53.199-29.598-72.68z" fill="#efe2dd"/><path d="m220.437 251.155c-27.446 0-53.201 10.732-72.519 30.221-19.31 19.48-29.821 45.291-29.598 72.68l.055 32.992.054.626c1.626 19.006 10.261 36.578 24.313 49.478s32.295 20.005 51.371 20.005c22.749 0 47.043-12.009 61.878-29.437v-176.565z" fill="#f7f0eb"/></g><g><path d="m268.65 251.155h-12.66l-13.731 37.15 13.731 60.769 34.004-20.859c12.495-7.497 20.141-21.001 20.141-35.574 0-22.912-18.574-41.486-41.485-41.486z" fill="#351a0a"/><path d="m243.33 251.155c-22.912 0-41.485 18.574-41.485 41.485 0 14.572 7.646 28.076 20.141 35.574l34.004 20.859v-97.918z" fill="#412816"/></g></g></svg>