<svg id="Capa_1" enable-background="new 0 0 511.97 511.97" height="512" viewBox="0 0 511.97 511.97" width="512" xmlns="http://www.w3.org/2000/svg"><g><g><path d="m395.749 72.365c-37.7-36.923-87.336-57.258-139.764-57.258l-10.667 262.211 10.667 197.744c13.017 13.767 31.225 21.802 50.834 21.801h.362c18.206-.092 35.585-6.961 48.935-19.342 13.35-12.38 21.506-29.193 22.967-47.341l1.777-28.369 28.855-40.328c30.841-40.5 44.889-106.375 44.889-150.511 0-52.21-20.902-101.435-58.855-138.607z" fill="#fdd278"/><path d="m116.221 72.365c-37.954 37.172-58.855 86.397-58.855 138.608 0 44.136 14.049 110.014 44.89 150.513l28.854 40.325 1.759 28.102.019.267c1.461 18.148 9.618 34.96 22.967 47.341 13.35 12.381 30.728 19.25 48.935 19.342h.362c19.607 0 37.817-8.034 50.834-21.8v-459.956c-52.429 0-102.065 20.335-139.765 57.258z" fill="#ffdf8e"/></g><g><path d="m155.985 223.64h30v30h-30z" fill="#57351d"/></g><g><path d="m325.985 223.64h30v30h-30z" fill="#412816"/></g><path d="m116.013 32.428c-33.261 0-64.961 14.301-86.973 39.236-21.986 24.906-32.246 58.086-28.159 91.052l17.653 161.602h28.511c35.313 0 65.288-26.322 69.884-61.295l6.309-35.831c9.976-55.403 25.59-93.757 50.625-124.361l3.39-4.144v-66.259z" fill="#fdc661"/><path d="m482.929 71.664c-22.013-24.935-53.713-39.236-86.974-39.236h-61.24v66.259l3.39 4.144c25.035 30.603 40.649 68.957 50.616 124.304l6.318 35.888c4.597 34.973 34.571 61.295 69.885 61.295h28.511l17.653-161.602c4.088-32.966-6.172-66.146-28.159-91.052z" fill="#ffa73c"/><g><path d="m267.883 362.652h-11.898l-12.905 34.916 12.905 57.115 31.96-19.605c11.744-7.047 18.93-19.739 18.93-33.435-.001-21.534-17.458-38.991-38.992-38.991z" fill="#744727"/><path d="m244.086 362.652c-21.534 0-38.991 17.457-38.991 38.991 0 13.696 7.186 26.388 18.93 33.435l31.96 19.605v-92.031z" fill="#8d562f"/></g></g></svg>