<svg id="Capa_1" enable-background="new 0 0 512 512" height="512" viewBox="0 0 512 512" width="512" xmlns="http://www.w3.org/2000/svg"><g><path d="m256 21.351c17.998 0 34.941 3.36 50.559 10.009l82.144 64.514c21.16 64.478 28.225 131.383 20.997 198.857l-.021.189-153.679-3.291-10.667-131.63z" fill="#c8beb9"/><path d="m256 21.351c-17.998 0-34.941 3.36-50.559 10.009l-82.144 64.514c-21.16 64.478-28.225 131.383-20.997 198.857l.021.189 153.679-3.291z" fill="#dcd2cd"/><path d="m205.441 31.359c-10.919-19.188-31.589-31.359-53.864-31.359h-97.033l-4.136 8.328c-.487.982-11.972 24.423-14.853 57.636-3.85 44.38 9.39 85.52 38.288 118.971l6.033 6.985 8.955-2.238c2.387-.597 24.025-6.545 48.609-31.355 13.78-13.906 25.857-31.138 35.896-51.216.001 0 16.831-35.778 32.105-75.752z" fill="#f7f0eb"/><path d="m306.559 31.359c10.919-19.188 31.589-31.359 53.864-31.359h97.032l4.136 8.328c.487.982 11.973 24.423 14.853 57.636 3.85 44.38-9.39 85.52-38.288 118.971l-6.033 6.985-8.955-2.238c-2.387-.597-24.025-6.545-48.609-31.355-13.78-13.906-25.857-31.138-35.896-51.216-.001 0-16.83-35.778-32.104-75.752z" fill="#efe2dd"/><g><path d="m359.248 244.819c-37.568-12.762-76.967-5.771-103.247 17.11l-10.667 132.738 10.666 117.333h123.906l4.502-5.953c2.318-3.066 56.787-75.852 56.787-141.064 0-68.071-42.331-106.705-81.947-120.164z" fill="#efe2dd"/><path d="m152.752 244.82c-39.615 13.459-81.946 52.093-81.946 120.163 0 65.213 54.469 137.998 56.787 141.064l4.502 5.953h123.905v-250.072c-26.281-22.88-65.685-29.871-103.248-17.108z" fill="#f7f0eb"/></g><path d="m166.667 183.333h30v30h-30z" fill="#28485e"/><path d="m315.334 183.333h30v30h-30z" fill="#1b303e"/><g><g><path d="m320.074 366.558c-6.006 6.137-14.04 9.542-22.621 9.585-2.792.005-5.54-.358-8.207-1.104-9.783-2.74-17.153-11.677-18.34-22.241h-14.907l-10.667 22.851 10.668 13.019c6.714 7.151 15.315 12.503 25.157 15.259 5.253 1.471 10.682 2.216 16.145 2.216.101 0 .203 0 .305-.001 16.659-.084 32.253-6.69 43.91-18.602z" fill="#b8aeaa"/><path d="m241.094 352.797c-1.188 10.564-8.558 19.502-18.34 22.241-2.667.747-5.427 1.116-8.208 1.104-8.581-.043-16.614-3.447-22.62-9.585l-21.441 20.982c11.656 11.911 27.251 18.518 43.91 18.602.102 0 .203.001.305.001 5.462 0 10.892-.745 16.145-2.216 9.841-2.756 18.442-8.108 25.156-15.259v-35.871z" fill="#c8beb9"/></g><g><path d="m267.032 279.648h-11.032l-11.966 32.375 9.819 43.458h17.633l14.147-8.678c10.889-6.534 17.553-18.302 17.553-31.001 0-19.967-16.187-36.154-36.154-36.154z" fill="#1b303e"/><path d="m240.513 355.482h15.487v-75.833h-11.033c-19.967 0-36.153 16.186-36.153 36.154 0 12.699 6.663 24.468 17.553 31.001z" fill="#28485e"/></g></g></g></svg>