<svg id="Capa_1" enable-background="new 0 0 508.979 508.979" height="512" viewBox="0 0 508.979 508.979" width="512" xmlns="http://www.w3.org/2000/svg"><g><g><path d="m191.573 72.649c-19.559-29.339-52.287-46.854-87.548-46.854-36.747 0-71.318 19.574-90.225 51.084l-13.8 23.001 23.869 17.903c11.81 8.857 25.963 13.286 40.116 13.286 2.189 0 4.377-.119 6.557-.331l45.28 17.085z" fill="#28485e"/><path d="m70.543 130.738 57.404 44.648 63.626-102.737z" fill="#213b4d"/></g><g><path d="m317.405 72.649c19.559-29.339 52.287-46.854 87.548-46.854 36.747 0 71.318 19.574 90.225 51.084l13.801 23.001-23.869 17.903c-11.811 8.857-25.963 13.286-40.116 13.286-2.189 0-4.377-.119-6.557-.331l-45.28 17.085z" fill="#213b4d"/><path d="m438.436 130.738-57.405 44.648-63.626-102.737z" fill="#14232e"/></g><g><path d="m357.911 77.562c-25.639-29.889-62.368-46.349-103.422-46.349l-10.666 255.277 10.667 181.106c10.526 9.887 24.54 15.589 39.548 15.588.099 0 .2 0 .3-.001 15-.076 29.318-5.735 40.316-15.935 10.94-10.146 17.647-23.905 18.903-38.767l16.768-151.393c10.044-18.132 25.093-51.772 25.093-90.5-.001-42.111-13.32-80.831-37.507-109.026z" fill="#28485e"/><path d="m151.067 77.562c-24.187 28.195-37.506 66.915-37.506 109.028 0 38.728 15.049 72.367 25.093 90.499l16.768 151.393c1.256 14.861 7.963 28.621 18.903 38.767 10.998 10.2 25.316 15.86 40.316 15.935.101.001.2.001.3.001 15.006 0 29.021-5.702 39.548-15.588v-436.385c-41.053 0-77.783 16.461-103.422 46.35z" fill="#36607d"/></g><path d="m170.489 176.212h30v30h-30z" fill="#14232e"/><path d="m308.489 176.212h30v30h-30z" fill="#070c0f"/><g><path d="m269.489 275.823h-15l-10.666 48 10.666 48h15z" fill="#36607d"/><path d="m239.489 275.823h15v96h-15z" fill="#44799b"/></g><g><path d="m265.522 361.156h-11.033l-11.966 32.375 11.966 52.958 29.633-18.178c10.889-6.534 17.553-18.302 17.553-31.001 0-19.967-16.186-36.154-36.153-36.154z" fill="#14232e"/><path d="m243.457 361.156c-19.967 0-36.153 16.186-36.153 36.154 0 12.699 6.663 24.468 17.553 31.001l29.633 18.178v-85.333z" fill="#213b4d"/></g></g></svg>