<svg id="Capa_1" enable-background="new 0 0 511.978 511.978" height="512" viewBox="0 0 511.978 511.978" width="512" xmlns="http://www.w3.org/2000/svg"><g><g><path d="m91.656 128.279c-6.685 41.962-2.872 113.419 15.081 157.181l32.307 80.099 95.611-147.987-39.252-172.833h-14.08z" fill="#8d562f"/><path d="m420.322 128.279c6.685 41.962 2.872 113.419-15.081 157.181l-32.307 80.099-95.611-147.987 39.253-172.833h14.081z" fill="#744727"/></g><path d="m158.463 200.406h30v30h-30z" fill="#412816"/><g><path d="m323.515 200.406h30v30h-30z" fill="#281408"/></g><path d="m89.067 44.739c-25.387 0-49.63 10.873-66.514 29.831-16.86 18.931-24.865 44.224-21.972 69.406l11.597 112.938h7.502c30.381 0 57.249-20.452 65.338-49.735l7.764-28.101c8.569-25.363 27.661-45.735 52.431-55.927l5.881-2.419 30.23-75.993z" fill="#412816"/><path d="m422.911 44.739c25.387 0 49.63 10.873 66.514 29.831 16.86 18.931 24.865 44.224 21.973 69.406l-11.598 112.938h-7.502c-30.381 0-57.249-20.452-65.338-49.735l-7.764-28.101c-8.569-25.363-27.661-45.735-52.431-55.927l-5.881-2.419-30.23-75.993z" fill="#281408"/><g><path d="m316.575 44.739.081 20.333c0 46.901-7.519 77.59-13.827 95.077-6.359 17.628-8.311 36.11-5.646 53.45 2.956 19.236 10.672 33.964 25.8 49.246 32.715 33.047 50.007 69.78 50.007 106.228l.019.123-1.516 34.545-.034.547c-1.379 17.132-9.079 33.004-21.682 44.692s-29.009 18.172-46.197 18.259c-.114.001-.227.001-.342.001-18.137-.001-35.011-7.28-47.248-19.794l-.001.001-21.333-165.874 21.333-236.833h60.586z" fill="#efe2dd"/><path d="m195.403 44.739-.081 20.333c0 46.901 7.519 77.59 13.827 95.077 6.359 17.628 8.311 36.11 5.646 53.45-2.956 19.236-10.672 33.964-25.8 49.246-32.715 33.047-50.007 69.78-50.007 106.228l1.497 34.668.034.547c1.379 17.132 9.079 33.004 21.682 44.692s29.009 18.172 46.197 18.259c.114.001.226.001.342.001 18.137-.001 35.011-7.28 47.248-19.794v.001-402.708z" fill="#f7f0eb"/></g><g><path d="m268.649 320.918h-12.66l-13.731 37.15 13.731 60.768 34.004-20.859c12.496-7.497 20.141-21.001 20.141-35.574 0-22.911-18.574-41.485-41.485-41.485z" fill="#281408"/><path d="m243.329 320.918c-22.912 0-41.486 18.574-41.486 41.485 0 14.572 7.646 28.076 20.141 35.574l34.004 20.859v-97.918z" fill="#412816"/></g></g></svg>