<svg id="Capa_1" enable-background="new 0 0 511.77 511.77" height="512" viewBox="0 0 511.77 511.77" width="512" xmlns="http://www.w3.org/2000/svg"><g><path d="m227.125 81.503c-20.424-50.499-80.161-76.43-82.694-77.509l-8.793-3.747-7.11 6.388c-24.305 21.836-43.396 48.725-56.003 78.667-12.337-14.778-30.14-24.406-49.887-26.285l-2.84 29.865c15.51 1.475 28.996 10.992 35.661 24.981-19.199-3.405-39.12.862-55.459 12.313l17.217 24.567c10.627-7.448 23.798-9.795 36.172-6.659 0 0-22.337 49.459-30.125 90.021z" fill="#fdc661"/><path d="m284.645 81.503c20.424-50.499 80.161-76.43 82.694-77.509l8.793-3.747 7.11 6.388c24.305 21.836 43.396 48.725 56.002 78.667 12.337-14.777 30.141-24.406 49.888-26.284l2.84 29.865c-15.51 1.475-28.996 10.992-35.661 24.981 19.199-3.406 39.12.861 55.459 12.312l-17.217 24.567c-10.627-7.448-23.798-9.795-36.172-6.659 0 0 22.337 49.459 30.125 90.021z" fill="#ffa73c"/><g><path d="m427.564 127.15c-44.439-43.651-105.408-67.69-171.678-67.69l-10.667 228.334 10.667 223.73 1.374-.126c2.404-.221 59.549-5.759 117.46-35.396 78.613-40.233 120.166-105.313 120.166-188.207-.001-60.951-23.909-118.002-67.322-160.645z" fill="#fdd278"/><path d="m255.885 59.46c-66.27 0-127.239 24.04-171.679 67.69-43.413 42.643-67.321 99.694-67.321 160.643 0 82.894 41.553 147.974 120.166 188.207 57.911 29.638 115.056 35.175 117.46 35.396l1.374.126z" fill="#ffdf8e"/></g><path d="m171.885 215.127h30v30h-30z" fill="#28485e"/><path d="m309.885 215.127h30v30h-30z" fill="#1b303e"/><path d="m56.512 290.516c19.635-27.142 49.15-43.717 82.04-46.418v-28.27c-36.7 0-70.093 17.064-91.616 46.816-21.42 29.611-27.16 66.459-15.747 101.098 1.993 6.048 4.198 11.743 6.594 17.06-7.065-31.374-.475-63.738 18.729-90.286z" fill="#fdc661"/><path d="m455.259 290.516c-19.635-27.142-49.15-43.717-82.04-46.418v-28.27c36.7 0 70.093 17.064 91.616 46.816 21.42 29.611 27.16 66.459 15.747 101.098-1.992 6.048-4.198 11.743-6.594 17.06 7.064-31.374.474-63.738-18.729-90.286z" fill="#ffa73c"/><g><path d="m297.06 273.793c-16.249 0-30.908 6.934-41.174 17.999l-10.667 38.668 10.667 55.681h41.174c30.975 0 56.174-25.2 56.174-56.174s-25.2-56.174-56.174-56.174z" fill="#efe2dd"/><path d="m255.885 291.793c-10.266-11.065-24.925-17.999-41.174-17.999-30.975 0-56.175 25.2-56.175 56.174s25.2 56.174 56.175 56.174h41.174z" fill="#f7f0eb"/></g><g><path d="m262.961 277.127h-7.076l-7.675 20.766 7.675 33.968 19.007-11.66c6.985-4.191 11.259-11.739 11.259-19.885 0-12.807-10.382-23.189-23.19-23.189z" fill="#1b303e"/><path d="m248.809 277.127c-12.807 0-23.189 10.382-23.189 23.189 0 8.146 4.274 15.694 11.259 19.885l19.007 11.66v-54.734z" fill="#28485e"/></g></g></svg>