<svg id="Capa_1" enable-background="new 0 0 512 512" height="512" viewBox="0 0 512 512" width="512" xmlns="http://www.w3.org/2000/svg"><g><g><path d="m221.41 88.957-29.252-58.64c-9.328-18.7-28.089-30.317-48.959-30.317-24.824 0-46.585 16.792-52.918 40.833l-32.191 122.179z" fill="#dcd2cd"/><path d="m290.59 88.957 29.252-58.64c9.328-18.7 28.089-30.317 48.959-30.317 24.824 0 46.585 16.792 52.918 40.833l32.19 122.179z" fill="#c8beb9"/><g><path d="m255.997 86.407c11.591 0 23.182.85 34.593 2.55 0 0 109.901 7.437 163.32 74.055 14.424 17.988 38.084 51.877 51.489 108.611 9.131 38.644 8.789 76.506-1.018 112.534-12.181 44.751-38.987 86.43-79.673 123.879l-4.307 3.964h-164.404l-10.663-213.333z" fill="#efe2dd"/><path d="m256.003 86.407c-11.591 0-23.181.85-34.593 2.55 0 0-109.901 7.437-163.32 74.055-14.423 17.988-38.083 51.877-51.488 108.612-9.131 38.644-8.789 76.506 1.018 112.534 12.181 44.751 38.987 86.43 79.673 123.879l4.306 3.963h164.405v-425.593z" fill="#f7f0eb"/></g></g><path d="m169.14 247.333h30v30h-30z" fill="#28485e"/><path d="m312.86 247.333h30v30h-30z" fill="#1b303e"/><g><path d="m342.384 365.52c-19.462-28.503-51.755-45.52-86.384-45.52l-9.165 92.972 9.165 79.524c11.478 12.31 27.634 19.504 45.044 19.504.105 0 .213 0 .319-.001 16.031-.081 31.333-6.13 43.087-17.031 11.754-10.902 18.936-25.706 20.223-41.686l.176-16.519.001-.112c0-25.367-7.559-49.3-22.466-71.131z" fill="#c8beb9"/><path d="m169.615 365.52c-14.907 21.832-22.465 45.764-22.465 71.132l.135 15.707.041.923c1.286 15.98 8.468 30.784 20.222 41.686 11.755 10.901 27.057 16.95 43.088 17.031 17.549.068 33.814-7.119 45.363-19.503v-172.496c-34.628 0-66.921 17.017-86.384 45.52z" fill="#dcd2cd"/></g><g><path d="m268.412 320h-12.412l-13.462 36.422 13.462 59.578 33.338-20.451c12.251-7.351 19.747-20.59 19.747-34.877-.001-22.462-18.21-40.672-40.673-40.672z" fill="#14232e"/><path d="m243.588 320c-22.463 0-40.673 18.21-40.673 40.673 0 14.287 7.496 27.526 19.747 34.877l33.338 20.45v-96z" fill="#213b4d"/></g></g></svg>