<svg id="Capa_1" enable-background="new 0 0 511.514 511.514" height="512" viewBox="0 0 511.514 511.514" width="512" xmlns="http://www.w3.org/2000/svg"><g><path d="m238.277 145.332-39.655-98.016c-11.491-28.743-38.808-47.316-69.593-47.316h-10.78l-41.109 122.219c-2.535 7.538-3.763 15.349-3.748 23.113z" fill="#dcd2cd"/><path d="m438.122 145.332c.016-7.764-1.212-15.576-3.748-23.114l-41.109-122.218h-10.78c-30.785 0-58.102 18.573-69.569 47.259l-39.678 98.073z" fill="#c8beb9"/><g><path d="m399.215 102.275c-47.525-19.962-101.748-9.155-138.143 27.532l-5.315 5.359-10.667 99.501 10.667 143h158.16l63.081-53.816v-104.03c.001-51.56-30.531-97.699-77.783-117.546z" fill="#dcd2cd"/><path d="m250.441 129.807c-36.394-36.687-90.617-47.494-138.143-27.532-47.251 19.847-77.782 65.986-77.782 117.546v104.03l63.082 53.816h158.16v-242.501z" fill="#efe2dd"/></g><path d="m158.231 224h30v51.333h-30z" fill="#57351d"/><path d="m323.283 224h30v51.333h-30z" fill="#412816"/><g><path d="m339.093 253.569c-33.353 0-64.721 17.893-81.863 46.695l-1.473 2.475-10.667 102.594 10.667 106.181 101.617-43.901c46.87-20.249 77.155-66.521 77.155-117.96.001-52.981-42.812-96.084-95.436-96.084z" fill="#efe2dd"/><path d="m254.284 300.264c-17.143-28.803-48.511-46.695-81.863-46.695-52.624 0-95.437 43.104-95.437 96.16 0 51.363 30.285 97.636 77.155 117.884l101.618 43.901v-208.776z" fill="#f7f0eb"/></g><g><g><path d="m319.831 365.748c-6.006 6.137-14.04 9.542-22.621 9.585-2.792.005-5.54-.358-8.207-1.104-9.783-2.74-17.153-11.678-18.34-22.241h-14.906l-10.667 22.851 10.667 13.02c6.714 7.151 15.315 12.503 25.156 15.259 5.253 1.471 10.682 2.216 16.145 2.216.101 0 .203 0 .305-.001 16.659-.084 32.253-6.69 43.91-18.602z" fill="#b8aeaa"/><path d="m240.851 351.987c-1.188 10.564-8.558 19.502-18.34 22.242-2.667.747-5.427 1.116-8.208 1.104-8.581-.043-16.614-3.447-22.62-9.585l-21.441 20.982c11.656 11.911 27.25 18.518 43.91 18.602.102 0 .203.001.305.001 5.462 0 10.892-.745 16.145-2.216 9.841-2.756 18.442-8.108 25.156-15.259v-35.871z" fill="#c8beb9"/></g><g><path d="m265.237 289.505h-9.481l-10.283 27.821 8.438 37.346h16.978l10.332-7.458c9.358-5.615 15.084-15.728 15.084-26.641.001-17.158-13.909-31.068-31.068-31.068z" fill="#744727"/><path d="m240.407 354.672h15.349v-65.167h-9.481c-17.158 0-31.068 13.91-31.068 31.068 0 10.913 5.726 21.026 15.084 26.641z" fill="#8d562f"/></g></g></g></svg>