<svg id="Capa_1" enable-background="new 0 0 512 512" height="512" viewBox="0 0 512 512" width="512" xmlns="http://www.w3.org/2000/svg"><g><g><path d="m468.048 379.835c-2.178-4.188-4.43-8.52-6.651-12.962-11.111-22.225-4.085-40.288 6.551-67.63 5.72-14.706 12.204-31.375 16.091-50.809 6.876-34.384-3.499-55.624-13.532-76.165-7.714-15.791-15.69-32.12-18.275-57.695-3.459-34.228-15.783-62.98-35.64-83.15-20.239-20.558-47.338-31.424-78.367-31.424-39.48 0-67.507 18.812-82.225 31.893l-10.667 192.107 10.667 234.667 70.452 1.214c-.079 13.898 5.274 26.98 15.074 36.836s22.851 15.283 36.75 15.283h88.873l4.369-7.283c32.927-54.878 15.247-88.882-3.47-124.882z" fill="#fdd278"/><path d="m255.975 31.915c-14.747-13.07-42.836-31.915-82.2-31.915-31.029 0-58.128 10.866-78.367 31.424-19.856 20.17-32.181 48.923-35.64 83.15-2.585 25.575-10.562 41.904-18.275 57.695-10.033 20.541-20.408 41.781-13.531 76.166 3.886 19.433 10.37 36.102 16.09 50.807 10.636 27.343 17.662 45.406 6.549 67.631-2.222 4.443-4.474 8.775-6.651 12.964-18.716 36-36.395 70.003-3.468 124.88l4.37 7.283h88.873c13.898 0 26.949-5.428 36.748-15.284 9.8-9.855 15.153-22.938 15.073-36.836l70.454-1.213v-426.774c-.008.007-.017.015-.025.022z" fill="#ffdf8e"/></g><path d="m241 304.639h30v85.333h-30z"/><g><path d="m319.166 104c-25.923 0-48.938 12.683-63.166 32.171 0 0 0 0 0-.001l-10.667 183.83 10.667 176.412c10.526 9.887 24.542 15.588 39.548 15.588h.298c15.001-.076 29.319-5.735 40.318-15.936 10.94-10.146 17.646-23.905 18.902-38.766l16.769-151.394c10.044-18.132 25.093-51.772 25.093-90.5 0-11.479.405-33.238.405-33.238 0-43.101-35.065-78.166-78.167-78.166z" fill="#ffa73c"/><path d="m192.833 104c-43.101 0-78.167 35.065-78.167 78.167 0 0 .405 17.962.405 33.238 0 38.728 15.049 72.368 25.093 90.5l16.768 151.393c1.256 14.861 7.963 28.62 18.903 38.767 10.999 10.2 25.317 15.86 40.318 15.936 15.091.033 29.251-5.636 39.846-15.588l.001.001v-360.244c-14.229-19.487-37.244-32.17-63.167-32.17z" fill="#fdc661"/></g><path d="m172 205.028h30v30h-30z" fill="#351a0a"/><path d="m310 205.028h30v30h-30z" fill="#281408"/><g><path d="m271 304.639h-15l-10.667 48 10.667 48h15z" fill="#de9134"/><path d="m241 304.639h15v96h-15z" fill="#ffa73c"/></g><g><path d="m267.033 389.972h-11.033l-11.966 32.375 11.966 52.958 29.634-18.178c10.889-6.534 17.553-18.302 17.553-31.001-.001-19.967-16.187-36.154-36.154-36.154z" fill="#281408"/><path d="m244.967 389.972c-19.967 0-36.154 16.187-36.154 36.154 0 12.699 6.663 24.467 17.553 31.001l29.634 18.178v-85.333z" fill="#412816"/></g></g></svg>