<svg id="Capa_1" enable-background="new 0 0 511.978 511.978" height="512" viewBox="0 0 511.978 511.978" width="512" xmlns="http://www.w3.org/2000/svg"><g><g><path d="m255.989 44.739h63.223l101.11 83.541c6.684 41.962 2.871 113.42-15.081 157.18l-30.986 75.529h-118.266l-10.667-179.667z" fill="#8c8787"/><path d="m255.989 44.739h-63.223l-101.11 83.541c-6.684 41.962-2.871 113.42 15.081 157.18l30.986 75.529h118.266z" fill="#9b9696"/></g><path d="m158.463 200.405h30v30h-30z" fill="#351a0a"/><path d="m323.515 200.405h30v30h-30z" fill="#281408"/><path d="m89.067 44.739c-25.387 0-49.63 10.873-66.514 29.831-16.86 18.93-24.865 44.224-21.972 69.406l11.597 112.938h18.946c30.381 0 57.249-20.452 65.338-49.735l7.763-28.099c8.569-25.365 27.66-45.736 52.433-55.929l5.88-2.419 30.229-75.993z" fill="#736e6e"/><path d="m422.911 44.739c25.387 0 49.63 10.873 66.514 29.831 16.86 18.931 24.865 44.225 21.973 69.407l-11.598 112.937h-18.946c-30.381 0-57.249-20.452-65.338-49.735l-7.763-28.099c-8.569-25.365-27.66-45.736-52.433-55.929l-5.88-2.419-30.229-75.993z" fill="#5a5555"/><g><path d="m356.524 296.764c-22.65-33.172-60.233-52.976-100.535-52.976l-10.667 108.201 10.667 92.552c13.358 14.326 32.161 22.699 52.423 22.699.122 0 .248 0 .371-.001 18.657-.095 36.466-7.134 50.146-19.821 13.68-12.688 22.038-29.917 23.535-48.514l.205-19.225.001-.13c0-29.525-8.797-57.378-26.146-82.785z" fill="#9b9696"/><path d="m155.454 296.764c-17.349 25.408-26.146 53.261-26.146 82.785l.157 18.28.048 1.075c1.497 18.598 9.855 35.827 23.535 48.514 13.681 12.687 31.489 19.726 50.146 19.821 20.424.08 39.354-8.285 52.794-22.698v-200.754c-40.301 0-77.884 19.805-100.534 52.977z" fill="#b4aaaa"/></g><g><path d="m270.42 304.372h-14.431l-15.652 42.347 15.652 69.27 38.761-23.777c14.244-8.546 22.959-23.939 22.959-40.55 0-26.118-21.172-47.29-47.289-47.29z" fill="#281408"/><path d="m241.558 304.372c-26.117 0-47.289 21.172-47.289 47.289 0 16.611 8.715 32.004 22.959 40.55l38.761 23.777v-111.616z" fill="#412816"/></g></g></svg>